<?xml version="1.0" encoding="utf-8"?>
<svg xmlns="http://www.w3.org/2000/svg" xmlns:xlink="http://www.w3.org/1999/xlink" width="600" height="400" viewBox="0 0 2400 1600">
<defs>
  <clipPath id="clip110">
    <rect x="0" y="0" width="2400" height="1600"/>
  </clipPath>
</defs>
<path clip-path="url(#clip110)" d="
M0 1600 L2400 1600 L2400 0 L0 0  Z
  " fill="#ffffff" fill-rule="evenodd" fill-opacity="1"/>
<defs>
  <clipPath id="clip111">
    <rect x="480" y="0" width="1681" height="1600"/>
  </clipPath>
</defs>
<path clip-path="url(#clip110)" d="
M282.372 1360.19 L1089.76 1360.19 L1089.76 186.464 L282.372 186.464  Z
  " fill="#ffffff" fill-rule="evenodd" fill-opacity="1"/>
<defs>
  <clipPath id="clip112">
    <rect x="282" y="186" width="808" height="1175"/>
  </clipPath>
</defs>
<polyline clip-path="url(#clip112)" style="stroke:#000000; stroke-linecap:butt; stroke-linejoin:round; stroke-width:2; stroke-opacity:0.1; fill:none" points="
  423.059,1360.19 423.059,186.464 
  "/>
<polyline clip-path="url(#clip112)" style="stroke:#000000; stroke-linecap:butt; stroke-linejoin:round; stroke-width:2; stroke-opacity:0.1; fill:none" points="
  566.888,1360.19 566.888,186.464 
  "/>
<polyline clip-path="url(#clip112)" style="stroke:#000000; stroke-linecap:butt; stroke-linejoin:round; stroke-width:2; stroke-opacity:0.1; fill:none" points="
  710.718,1360.19 710.718,186.464 
  "/>
<polyline clip-path="url(#clip112)" style="stroke:#000000; stroke-linecap:butt; stroke-linejoin:round; stroke-width:2; stroke-opacity:0.1; fill:none" points="
  854.548,1360.19 854.548,186.464 
  "/>
<polyline clip-path="url(#clip112)" style="stroke:#000000; stroke-linecap:butt; stroke-linejoin:round; stroke-width:2; stroke-opacity:0.1; fill:none" points="
  998.378,1360.19 998.378,186.464 
  "/>
<polyline clip-path="url(#clip110)" style="stroke:#000000; stroke-linecap:butt; stroke-linejoin:round; stroke-width:4; stroke-opacity:1; fill:none" points="
  282.372,1360.19 1089.76,1360.19 
  "/>
<polyline clip-path="url(#clip110)" style="stroke:#000000; stroke-linecap:butt; stroke-linejoin:round; stroke-width:4; stroke-opacity:1; fill:none" points="
  423.059,1360.19 423.059,1341.29 
  "/>
<polyline clip-path="url(#clip110)" style="stroke:#000000; stroke-linecap:butt; stroke-linejoin:round; stroke-width:4; stroke-opacity:1; fill:none" points="
  566.888,1360.19 566.888,1341.29 
  "/>
<polyline clip-path="url(#clip110)" style="stroke:#000000; stroke-linecap:butt; stroke-linejoin:round; stroke-width:4; stroke-opacity:1; fill:none" points="
  710.718,1360.19 710.718,1341.29 
  "/>
<polyline clip-path="url(#clip110)" style="stroke:#000000; stroke-linecap:butt; stroke-linejoin:round; stroke-width:4; stroke-opacity:1; fill:none" points="
  854.548,1360.19 854.548,1341.29 
  "/>
<polyline clip-path="url(#clip110)" style="stroke:#000000; stroke-linecap:butt; stroke-linejoin:round; stroke-width:4; stroke-opacity:1; fill:none" points="
  998.378,1360.19 998.378,1341.29 
  "/>
<path clip-path="url(#clip110)" d="M375.177 1418.65 L382.816 1418.65 L382.816 1392.29 L374.506 1393.95 L374.506 1389.69 L382.769 1388.03 L387.445 1388.03 L387.445 1418.65 L395.084 1418.65 L395.084 1422.59 L375.177 1422.59 L375.177 1418.65 Z" fill="#000000" fill-rule="evenodd" fill-opacity="1" /><path clip-path="url(#clip110)" d="M404.529 1416.71 L409.413 1416.71 L409.413 1422.59 L404.529 1422.59 L404.529 1416.71 Z" fill="#000000" fill-rule="evenodd" fill-opacity="1" /><path clip-path="url(#clip110)" d="M429.598 1391.11 Q425.987 1391.11 424.158 1394.67 Q422.353 1398.21 422.353 1405.34 Q422.353 1412.45 424.158 1416.01 Q425.987 1419.56 429.598 1419.56 Q433.232 1419.56 435.038 1416.01 Q436.866 1412.45 436.866 1405.34 Q436.866 1398.21 435.038 1394.67 Q433.232 1391.11 429.598 1391.11 M429.598 1387.4 Q435.408 1387.4 438.464 1392.01 Q441.542 1396.59 441.542 1405.34 Q441.542 1414.07 438.464 1418.68 Q435.408 1423.26 429.598 1423.26 Q423.788 1423.26 420.709 1418.68 Q417.653 1414.07 417.653 1405.34 Q417.653 1396.59 420.709 1392.01 Q423.788 1387.4 429.598 1387.4 Z" fill="#000000" fill-rule="evenodd" fill-opacity="1" /><path clip-path="url(#clip110)" d="M459.76 1406.18 Q456.426 1406.18 454.505 1407.96 Q452.607 1409.74 452.607 1412.87 Q452.607 1415.99 454.505 1417.77 Q456.426 1419.56 459.76 1419.56 Q463.093 1419.56 465.014 1417.77 Q466.936 1415.97 466.936 1412.87 Q466.936 1409.74 465.014 1407.96 Q463.116 1406.18 459.76 1406.18 M455.084 1404.19 Q452.075 1403.44 450.385 1401.38 Q448.718 1399.32 448.718 1396.36 Q448.718 1392.22 451.658 1389.81 Q454.621 1387.4 459.76 1387.4 Q464.922 1387.4 467.862 1389.81 Q470.801 1392.22 470.801 1396.36 Q470.801 1399.32 469.112 1401.38 Q467.445 1403.44 464.459 1404.19 Q467.838 1404.97 469.713 1407.26 Q471.611 1409.56 471.611 1412.87 Q471.611 1417.89 468.533 1420.57 Q465.477 1423.26 459.76 1423.26 Q454.042 1423.26 450.963 1420.57 Q447.908 1417.89 447.908 1412.87 Q447.908 1409.56 449.806 1407.26 Q451.704 1404.97 455.084 1404.19 M453.371 1396.8 Q453.371 1399.49 455.038 1400.99 Q456.727 1402.5 459.76 1402.5 Q462.769 1402.5 464.459 1400.99 Q466.172 1399.49 466.172 1396.8 Q466.172 1394.12 464.459 1392.61 Q462.769 1391.11 459.76 1391.11 Q456.727 1391.11 455.038 1392.61 Q453.371 1394.12 453.371 1396.8 Z" fill="#000000" fill-rule="evenodd" fill-opacity="1" /><path clip-path="url(#clip110)" d="M519.574 1418.65 L527.213 1418.65 L527.213 1392.29 L518.902 1393.95 L518.902 1389.69 L527.166 1388.03 L531.842 1388.03 L531.842 1418.65 L539.481 1418.65 L539.481 1422.59 L519.574 1422.59 L519.574 1418.65 Z" fill="#000000" fill-rule="evenodd" fill-opacity="1" /><path clip-path="url(#clip110)" d="M548.925 1416.71 L553.81 1416.71 L553.81 1422.59 L548.925 1422.59 L548.925 1416.71 Z" fill="#000000" fill-rule="evenodd" fill-opacity="1" /><path clip-path="url(#clip110)" d="M564.805 1418.65 L572.444 1418.65 L572.444 1392.29 L564.134 1393.95 L564.134 1389.69 L572.398 1388.03 L577.073 1388.03 L577.073 1418.65 L584.712 1418.65 L584.712 1422.59 L564.805 1422.59 L564.805 1418.65 Z" fill="#000000" fill-rule="evenodd" fill-opacity="1" /><path clip-path="url(#clip110)" d="M594.967 1418.65 L602.606 1418.65 L602.606 1392.29 L594.296 1393.95 L594.296 1389.69 L602.559 1388.03 L607.235 1388.03 L607.235 1418.65 L614.874 1418.65 L614.874 1422.59 L594.967 1422.59 L594.967 1418.65 Z" fill="#000000" fill-rule="evenodd" fill-opacity="1" /><path clip-path="url(#clip110)" d="M662.547 1418.65 L670.186 1418.65 L670.186 1392.29 L661.876 1393.95 L661.876 1389.69 L670.14 1388.03 L674.816 1388.03 L674.816 1418.65 L682.454 1418.65 L682.454 1422.59 L662.547 1422.59 L662.547 1418.65 Z" fill="#000000" fill-rule="evenodd" fill-opacity="1" /><path clip-path="url(#clip110)" d="M691.899 1416.71 L696.783 1416.71 L696.783 1422.59 L691.899 1422.59 L691.899 1416.71 Z" fill="#000000" fill-rule="evenodd" fill-opacity="1" /><path clip-path="url(#clip110)" d="M707.778 1418.65 L715.417 1418.65 L715.417 1392.29 L707.107 1393.95 L707.107 1389.69 L715.371 1388.03 L720.047 1388.03 L720.047 1418.65 L727.686 1418.65 L727.686 1422.59 L707.778 1422.59 L707.778 1418.65 Z" fill="#000000" fill-rule="evenodd" fill-opacity="1" /><path clip-path="url(#clip110)" d="M749.977 1392.1 L738.172 1410.55 L749.977 1410.55 L749.977 1392.1 M748.75 1388.03 L754.63 1388.03 L754.63 1410.55 L759.56 1410.55 L759.56 1414.44 L754.63 1414.44 L754.63 1422.59 L749.977 1422.59 L749.977 1414.44 L734.375 1414.44 L734.375 1409.93 L748.75 1388.03 Z" fill="#000000" fill-rule="evenodd" fill-opacity="1" /><path clip-path="url(#clip110)" d="M807.071 1418.65 L814.71 1418.65 L814.71 1392.29 L806.4 1393.95 L806.4 1389.69 L814.664 1388.03 L819.34 1388.03 L819.34 1418.65 L826.979 1418.65 L826.979 1422.59 L807.071 1422.59 L807.071 1418.65 Z" fill="#000000" fill-rule="evenodd" fill-opacity="1" /><path clip-path="url(#clip110)" d="M836.423 1416.71 L841.307 1416.71 L841.307 1422.59 L836.423 1422.59 L836.423 1416.71 Z" fill="#000000" fill-rule="evenodd" fill-opacity="1" /><path clip-path="url(#clip110)" d="M852.303 1418.65 L859.941 1418.65 L859.941 1392.29 L851.631 1393.95 L851.631 1389.69 L859.895 1388.03 L864.571 1388.03 L864.571 1418.65 L872.21 1418.65 L872.21 1422.59 L852.303 1422.59 L852.303 1418.65 Z" fill="#000000" fill-rule="evenodd" fill-opacity="1" /><path clip-path="url(#clip110)" d="M880.474 1388.03 L902.696 1388.03 L902.696 1390.02 L890.15 1422.59 L885.265 1422.59 L897.071 1391.96 L880.474 1391.96 L880.474 1388.03 Z" fill="#000000" fill-rule="evenodd" fill-opacity="1" /><path clip-path="url(#clip110)" d="M950.45 1418.65 L958.089 1418.65 L958.089 1392.29 L949.778 1393.95 L949.778 1389.69 L958.042 1388.03 L962.718 1388.03 L962.718 1418.65 L970.357 1418.65 L970.357 1422.59 L950.45 1422.59 L950.45 1418.65 Z" fill="#000000" fill-rule="evenodd" fill-opacity="1" /><path clip-path="url(#clip110)" d="M979.801 1416.71 L984.686 1416.71 L984.686 1422.59 L979.801 1422.59 L979.801 1416.71 Z" fill="#000000" fill-rule="evenodd" fill-opacity="1" /><path clip-path="url(#clip110)" d="M998.899 1418.65 L1015.22 1418.65 L1015.22 1422.59 L993.274 1422.59 L993.274 1418.65 Q995.936 1415.9 1000.52 1411.27 Q1005.13 1406.62 1006.31 1405.27 Q1008.55 1402.75 1009.43 1401.01 Q1010.33 1399.25 1010.33 1397.56 Q1010.33 1394.81 1008.39 1393.07 Q1006.47 1391.34 1003.37 1391.34 Q1001.17 1391.34 998.713 1392.1 Q996.283 1392.87 993.505 1394.42 L993.505 1389.69 Q996.329 1388.56 998.783 1387.98 Q1001.24 1387.4 1003.27 1387.4 Q1008.64 1387.4 1011.84 1390.09 Q1015.03 1392.77 1015.03 1397.26 Q1015.03 1399.39 1014.22 1401.31 Q1013.44 1403.21 1011.33 1405.81 Q1010.75 1406.48 1007.65 1409.69 Q1004.55 1412.89 998.899 1418.65 Z" fill="#000000" fill-rule="evenodd" fill-opacity="1" /><path clip-path="url(#clip110)" d="M1035.03 1391.11 Q1031.42 1391.11 1029.59 1394.67 Q1027.79 1398.21 1027.79 1405.34 Q1027.79 1412.45 1029.59 1416.01 Q1031.42 1419.56 1035.03 1419.56 Q1038.67 1419.56 1040.47 1416.01 Q1042.3 1412.45 1042.3 1405.34 Q1042.3 1398.21 1040.47 1394.67 Q1038.67 1391.11 1035.03 1391.11 M1035.03 1387.4 Q1040.84 1387.4 1043.9 1392.01 Q1046.98 1396.59 1046.98 1405.34 Q1046.98 1414.07 1043.9 1418.68 Q1040.84 1423.26 1035.03 1423.26 Q1029.22 1423.26 1026.14 1418.68 Q1023.09 1414.07 1023.09 1405.34 Q1023.09 1396.59 1026.14 1392.01 Q1029.22 1387.4 1035.03 1387.4 Z" fill="#000000" fill-rule="evenodd" fill-opacity="1" /><path clip-path="url(#clip110)" d="M672.987 1475.77 Q674.928 1472.52 679.734 1469.66 Q681.612 1468.54 687.405 1468.54 Q693.898 1468.54 697.94 1473.7 Q702.014 1478.86 702.014 1487.26 Q702.014 1495.66 697.94 1500.82 Q693.898 1505.97 687.405 1505.97 Q683.49 1505.97 680.657 1504.45 Q677.856 1502.89 676.01 1499.7 L676.01 1518.61 L670.122 1518.61 L670.122 1487.58 Q670.122 1480.23 672.987 1475.77 M695.935 1487.26 Q695.935 1480.8 693.261 1477.14 Q690.62 1473.45 685.973 1473.45 Q681.326 1473.45 678.652 1477.14 Q676.01 1480.8 676.01 1487.26 Q676.01 1493.72 678.652 1497.41 Q681.326 1501.07 685.973 1501.07 Q690.62 1501.07 693.261 1497.41 Q695.935 1493.72 695.935 1487.26 Z" fill="#000000" fill-rule="evenodd" fill-opacity="1" /><polyline clip-path="url(#clip112)" style="stroke:#000000; stroke-linecap:butt; stroke-linejoin:round; stroke-width:2; stroke-opacity:0.1; fill:none" points="
  282.372,1326.97 1089.76,1326.97 
  "/>
<polyline clip-path="url(#clip112)" style="stroke:#000000; stroke-linecap:butt; stroke-linejoin:round; stroke-width:2; stroke-opacity:0.1; fill:none" points="
  282.372,957.874 1089.76,957.874 
  "/>
<polyline clip-path="url(#clip112)" style="stroke:#000000; stroke-linecap:butt; stroke-linejoin:round; stroke-width:2; stroke-opacity:0.1; fill:none" points="
  282.372,588.778 1089.76,588.778 
  "/>
<polyline clip-path="url(#clip112)" style="stroke:#000000; stroke-linecap:butt; stroke-linejoin:round; stroke-width:2; stroke-opacity:0.1; fill:none" points="
  282.372,219.683 1089.76,219.683 
  "/>
<polyline clip-path="url(#clip110)" style="stroke:#000000; stroke-linecap:butt; stroke-linejoin:round; stroke-width:4; stroke-opacity:1; fill:none" points="
  282.372,1360.19 282.372,186.464 
  "/>
<polyline clip-path="url(#clip110)" style="stroke:#000000; stroke-linecap:butt; stroke-linejoin:round; stroke-width:4; stroke-opacity:1; fill:none" points="
  282.372,1326.97 301.27,1326.97 
  "/>
<polyline clip-path="url(#clip110)" style="stroke:#000000; stroke-linecap:butt; stroke-linejoin:round; stroke-width:4; stroke-opacity:1; fill:none" points="
  282.372,957.874 301.27,957.874 
  "/>
<polyline clip-path="url(#clip110)" style="stroke:#000000; stroke-linecap:butt; stroke-linejoin:round; stroke-width:4; stroke-opacity:1; fill:none" points="
  282.372,588.778 301.27,588.778 
  "/>
<polyline clip-path="url(#clip110)" style="stroke:#000000; stroke-linecap:butt; stroke-linejoin:round; stroke-width:4; stroke-opacity:1; fill:none" points="
  282.372,219.683 301.27,219.683 
  "/>
<path clip-path="url(#clip110)" d="M189.197 1312.77 Q185.586 1312.77 183.757 1316.33 Q181.951 1319.87 181.951 1327 Q181.951 1334.11 183.757 1337.68 Q185.586 1341.22 189.197 1341.22 Q192.831 1341.22 194.636 1337.68 Q196.465 1334.11 196.465 1327 Q196.465 1319.87 194.636 1316.33 Q192.831 1312.77 189.197 1312.77 M189.197 1309.06 Q195.007 1309.06 198.062 1313.67 Q201.141 1318.25 201.141 1327 Q201.141 1335.73 198.062 1340.34 Q195.007 1344.92 189.197 1344.92 Q183.387 1344.92 180.308 1340.34 Q177.252 1335.73 177.252 1327 Q177.252 1318.25 180.308 1313.67 Q183.387 1309.06 189.197 1309.06 Z" fill="#000000" fill-rule="evenodd" fill-opacity="1" /><path clip-path="url(#clip110)" d="M209.359 1338.37 L214.243 1338.37 L214.243 1344.25 L209.359 1344.25 L209.359 1338.37 Z" fill="#000000" fill-rule="evenodd" fill-opacity="1" /><path clip-path="url(#clip110)" d="M234.428 1312.77 Q230.817 1312.77 228.988 1316.33 Q227.183 1319.87 227.183 1327 Q227.183 1334.11 228.988 1337.68 Q230.817 1341.22 234.428 1341.22 Q238.062 1341.22 239.868 1337.68 Q241.696 1334.11 241.696 1327 Q241.696 1319.87 239.868 1316.33 Q238.062 1312.77 234.428 1312.77 M234.428 1309.06 Q240.238 1309.06 243.294 1313.67 Q246.372 1318.25 246.372 1327 Q246.372 1335.73 243.294 1340.34 Q240.238 1344.92 234.428 1344.92 Q228.618 1344.92 225.539 1340.34 Q222.484 1335.73 222.484 1327 Q222.484 1318.25 225.539 1313.67 Q228.618 1309.06 234.428 1309.06 Z" fill="#000000" fill-rule="evenodd" fill-opacity="1" /><path clip-path="url(#clip110)" d="M190.192 943.672 Q186.581 943.672 184.752 947.237 Q182.947 950.779 182.947 957.908 Q182.947 965.015 184.752 968.58 Q186.581 972.121 190.192 972.121 Q193.826 972.121 195.632 968.58 Q197.461 965.015 197.461 957.908 Q197.461 950.779 195.632 947.237 Q193.826 943.672 190.192 943.672 M190.192 939.969 Q196.002 939.969 199.058 944.575 Q202.136 949.158 202.136 957.908 Q202.136 966.635 199.058 971.242 Q196.002 975.825 190.192 975.825 Q184.382 975.825 181.303 971.242 Q178.248 966.635 178.248 957.908 Q178.248 949.158 181.303 944.575 Q184.382 939.969 190.192 939.969 Z" fill="#000000" fill-rule="evenodd" fill-opacity="1" /><path clip-path="url(#clip110)" d="M210.354 969.274 L215.238 969.274 L215.238 975.154 L210.354 975.154 L210.354 969.274 Z" fill="#000000" fill-rule="evenodd" fill-opacity="1" /><path clip-path="url(#clip110)" d="M225.47 940.594 L243.826 940.594 L243.826 944.529 L229.752 944.529 L229.752 953.001 Q230.771 952.654 231.789 952.492 Q232.808 952.307 233.826 952.307 Q239.613 952.307 242.993 955.478 Q246.372 958.649 246.372 964.066 Q246.372 969.644 242.9 972.746 Q239.428 975.825 233.108 975.825 Q230.933 975.825 228.664 975.455 Q226.419 975.084 224.011 974.344 L224.011 969.644 Q226.095 970.779 228.317 971.334 Q230.539 971.89 233.016 971.89 Q237.02 971.89 239.358 969.783 Q241.696 967.677 241.696 964.066 Q241.696 960.455 239.358 958.348 Q237.02 956.242 233.016 956.242 Q231.141 956.242 229.266 956.658 Q227.414 957.075 225.47 957.955 L225.47 940.594 Z" fill="#000000" fill-rule="evenodd" fill-opacity="1" /><path clip-path="url(#clip110)" d="M180.007 602.123 L187.646 602.123 L187.646 575.758 L179.336 577.424 L179.336 573.165 L187.599 571.498 L192.275 571.498 L192.275 602.123 L199.914 602.123 L199.914 606.058 L180.007 606.058 L180.007 602.123 Z" fill="#000000" fill-rule="evenodd" fill-opacity="1" /><path clip-path="url(#clip110)" d="M209.359 600.179 L214.243 600.179 L214.243 606.058 L209.359 606.058 L209.359 600.179 Z" fill="#000000" fill-rule="evenodd" fill-opacity="1" /><path clip-path="url(#clip110)" d="M234.428 574.577 Q230.817 574.577 228.988 578.142 Q227.183 581.683 227.183 588.813 Q227.183 595.919 228.988 599.484 Q230.817 603.026 234.428 603.026 Q238.062 603.026 239.868 599.484 Q241.696 595.919 241.696 588.813 Q241.696 581.683 239.868 578.142 Q238.062 574.577 234.428 574.577 M234.428 570.873 Q240.238 570.873 243.294 575.48 Q246.372 580.063 246.372 588.813 Q246.372 597.54 243.294 602.146 Q240.238 606.73 234.428 606.73 Q228.618 606.73 225.539 602.146 Q222.484 597.54 222.484 588.813 Q222.484 580.063 225.539 575.48 Q228.618 570.873 234.428 570.873 Z" fill="#000000" fill-rule="evenodd" fill-opacity="1" /><path clip-path="url(#clip110)" d="M181.002 233.028 L188.641 233.028 L188.641 206.662 L180.331 208.329 L180.331 204.069 L188.595 202.403 L193.271 202.403 L193.271 233.028 L200.91 233.028 L200.91 236.963 L181.002 236.963 L181.002 233.028 Z" fill="#000000" fill-rule="evenodd" fill-opacity="1" /><path clip-path="url(#clip110)" d="M210.354 231.083 L215.238 231.083 L215.238 236.963 L210.354 236.963 L210.354 231.083 Z" fill="#000000" fill-rule="evenodd" fill-opacity="1" /><path clip-path="url(#clip110)" d="M225.47 202.403 L243.826 202.403 L243.826 206.338 L229.752 206.338 L229.752 214.81 Q230.771 214.463 231.789 214.301 Q232.808 214.116 233.826 214.116 Q239.613 214.116 242.993 217.287 Q246.372 220.458 246.372 225.875 Q246.372 231.454 242.9 234.555 Q239.428 237.634 233.108 237.634 Q230.933 237.634 228.664 237.264 Q226.419 236.893 224.011 236.153 L224.011 231.454 Q226.095 232.588 228.317 233.143 Q230.539 233.699 233.016 233.699 Q237.02 233.699 239.358 231.592 Q241.696 229.486 241.696 225.875 Q241.696 222.264 239.358 220.157 Q237.02 218.051 233.016 218.051 Q231.141 218.051 229.266 218.468 Q227.414 218.884 225.47 219.764 L225.47 202.403 Z" fill="#000000" fill-rule="evenodd" fill-opacity="1" /><path clip-path="url(#clip110)" d="M91.3483 871.851 L91.3483 844.033 L96.6955 844.033 L122.317 866.058 L122.317 844.033 L126.996 844.033 L126.996 872.647 L121.649 872.647 L96.0271 850.622 L96.0271 871.851 L91.3483 871.851 Z" fill="#000000" fill-rule="evenodd" fill-opacity="1" /><path clip-path="url(#clip110)" d="M77.5347 800.301 Q84.8553 804.566 92.0167 806.635 Q99.1781 808.703 106.531 808.703 Q113.883 808.703 121.108 806.635 Q128.301 804.534 135.59 800.301 L135.59 805.393 Q128.11 810.168 120.885 812.555 Q113.66 814.91 106.531 814.91 Q99.4328 814.91 92.2395 812.555 Q85.0463 810.199 77.5347 805.393 L77.5347 800.301 Z" fill="#000000" fill-rule="evenodd" fill-opacity="1" /><path clip-path="url(#clip110)" d="M77.4711 789.161 L77.4711 783.272 L106.722 783.272 L91.3483 765.799 L91.3483 758.319 L108.026 777.225 L126.996 757.523 L126.996 765.162 L109.586 783.272 L126.996 783.272 L126.996 789.161 L77.4711 789.161 Z" fill="#000000" fill-rule="evenodd" fill-opacity="1" /><path clip-path="url(#clip110)" d="M98.1915 723.435 Q94.2447 721.239 92.3668 718.183 Q90.489 715.128 90.489 710.99 Q90.489 705.42 94.4039 702.396 Q98.2869 699.372 105.48 699.372 L126.996 699.372 L126.996 705.261 L105.671 705.261 Q100.547 705.261 98.0641 707.075 Q95.5815 708.889 95.5815 712.613 Q95.5815 717.165 98.6052 719.806 Q101.629 722.448 106.849 722.448 L126.996 722.448 L126.996 728.336 L105.671 728.336 Q100.515 728.336 98.0641 730.151 Q95.5815 731.965 95.5815 735.752 Q95.5815 740.24 98.6371 742.882 Q101.661 745.524 106.849 745.524 L126.996 745.524 L126.996 751.412 L91.3483 751.412 L91.3483 745.524 L96.8865 745.524 Q93.6082 743.519 92.0486 740.718 Q90.489 737.917 90.489 734.065 Q90.489 730.182 92.4623 727.477 Q94.4357 724.74 98.1915 723.435 Z" fill="#000000" fill-rule="evenodd" fill-opacity="1" /><path clip-path="url(#clip110)" d="M77.5347 688.614 L77.5347 683.522 Q85.0463 678.747 92.2395 676.392 Q99.4328 674.005 106.531 674.005 Q113.66 674.005 120.885 676.392 Q128.11 678.747 135.59 683.522 L135.59 688.614 Q128.301 684.381 121.108 682.312 Q113.883 680.212 106.531 680.212 Q99.1781 680.212 92.0167 682.312 Q84.8553 684.381 77.5347 688.614 Z" fill="#000000" fill-rule="evenodd" fill-opacity="1" /><path clip-path="url(#clip110)" d="M669.419 35.3077 Q671.89 31.1758 678.007 27.5299 Q680.397 26.1121 687.769 26.1121 Q696.033 26.1121 701.178 32.6746 Q706.363 39.2371 706.363 49.9314 Q706.363 60.6258 701.178 67.1883 Q696.033 73.7508 687.769 73.7508 Q682.787 73.7508 679.181 71.8063 Q675.617 69.8214 673.267 65.7705 L673.267 89.8329 L665.773 89.8329 L665.773 50.3365 Q665.773 40.9789 669.419 35.3077 M698.626 49.9314 Q698.626 41.7081 695.223 37.0496 Q691.861 32.3505 685.947 32.3505 Q680.032 32.3505 676.629 37.0496 Q673.267 41.7081 673.267 49.9314 Q673.267 58.1548 676.629 62.8538 Q680.032 67.5124 685.947 67.5124 Q691.861 67.5124 695.223 62.8538 Q698.626 58.1548 698.626 49.9314 Z" fill="#000000" fill-rule="evenodd" fill-opacity="1" /><polyline clip-path="url(#clip112)" style="stroke:#009af9; stroke-linecap:butt; stroke-linejoin:round; stroke-width:4; stroke-opacity:1; fill:none" points="
  1054.74,1308.51 1030.45,1271.6 1006.22,1234.7 982.043,1197.79 957.932,1160.88 933.882,1123.97 909.893,1087.06 885.965,1050.15 862.097,1013.24 838.291,976.328 
  814.545,939.419 790.86,902.509 764.489,865.6 737.316,828.69 710.259,791.781 683.313,754.871 656.473,717.962 629.738,681.052 603.105,644.143 576.611,607.233 
  550.231,570.323 523.964,533.414 497.81,496.504 471.767,459.595 445.836,422.685 420.016,385.776 394.306,348.866 368.707,311.957 343.296,275.047 317.884,238.138 
  
  "/>
<polyline clip-path="url(#clip112)" style="stroke:#e26f46; stroke-linecap:butt; stroke-linejoin:round; stroke-width:4; stroke-opacity:1; fill:none" points="
  1066.91,1326.97 1042.59,1290.06 1018.32,1253.15 994.121,1216.24 969.98,1179.33 945.899,1142.42 921.88,1105.51 897.921,1068.6 874.023,1031.69 850.186,994.783 
  826.41,957.874 802.695,920.964 778.121,884.055 750.888,847.145 723.774,810.236 696.772,773.326 669.88,736.416 643.093,699.507 616.408,662.597 589.844,625.688 
  563.407,588.778 537.083,551.869 510.873,514.959 484.775,478.05 458.788,441.14 432.912,404.231 407.147,367.321 381.493,330.411 356.047,293.502 330.575,256.592 
  305.223,219.683 
  "/>
<path clip-path="url(#clip110)" d="
M800.85 381.108 L1062.85 381.108 L1062.85 225.588 L800.85 225.588  Z
  " fill="#ffffff" fill-rule="evenodd" fill-opacity="1"/>
<polyline clip-path="url(#clip110)" style="stroke:#000000; stroke-linecap:butt; stroke-linejoin:round; stroke-width:4; stroke-opacity:1; fill:none" points="
  800.85,381.108 1062.85,381.108 1062.85,225.588 800.85,225.588 800.85,381.108 
  "/>
<polyline clip-path="url(#clip110)" style="stroke:#009af9; stroke-linecap:butt; stroke-linejoin:round; stroke-width:4; stroke-opacity:1; fill:none" points="
  809.821,277.428 863.647,277.428 
  "/>
<path clip-path="url(#clip110)" d="M893.127 269.778 L893.127 273.759 Q891.322 272.764 889.493 272.278 Q887.687 271.769 885.835 271.769 Q881.692 271.769 879.4 274.408 Q877.109 277.023 877.109 281.769 Q877.109 286.514 879.4 289.153 Q881.692 291.769 885.835 291.769 Q887.687 291.769 889.493 291.282 Q891.322 290.773 893.127 289.778 L893.127 293.713 Q891.345 294.546 889.423 294.963 Q887.525 295.38 885.373 295.38 Q879.516 295.38 876.067 291.699 Q872.618 288.019 872.618 281.769 Q872.618 275.426 876.09 271.792 Q879.586 268.158 885.65 268.158 Q887.618 268.158 889.493 268.574 Q891.368 268.968 893.127 269.778 Z" fill="#000000" fill-rule="evenodd" fill-opacity="1" /><path clip-path="url(#clip110)" d="M922.71 280.681 L922.71 282.764 L903.127 282.764 Q903.405 287.162 905.766 289.477 Q908.15 291.769 912.386 291.769 Q914.84 291.769 917.132 291.167 Q919.446 290.565 921.715 289.361 L921.715 293.389 Q919.423 294.361 917.016 294.87 Q914.608 295.38 912.132 295.38 Q905.928 295.38 902.294 291.769 Q898.683 288.157 898.683 282 Q898.683 275.634 902.109 271.908 Q905.558 268.158 911.391 268.158 Q916.622 268.158 919.655 271.537 Q922.71 274.894 922.71 280.681 M918.451 279.431 Q918.405 275.935 916.483 273.852 Q914.585 271.769 911.437 271.769 Q907.872 271.769 905.72 273.783 Q903.59 275.796 903.266 279.454 L918.451 279.431 Z" fill="#000000" fill-rule="evenodd" fill-opacity="1" /><path clip-path="url(#clip110)" d="M951.252 279.06 L951.252 294.708 L946.993 294.708 L946.993 279.199 Q946.993 275.519 945.557 273.69 Q944.122 271.861 941.252 271.861 Q937.803 271.861 935.812 274.06 Q933.821 276.259 933.821 280.056 L933.821 294.708 L929.539 294.708 L929.539 268.783 L933.821 268.783 L933.821 272.81 Q935.349 270.472 937.409 269.315 Q939.493 268.158 942.201 268.158 Q946.668 268.158 948.96 270.935 Q951.252 273.69 951.252 279.06 Z" fill="#000000" fill-rule="evenodd" fill-opacity="1" /><path clip-path="url(#clip110)" d="M963.96 261.422 L963.96 268.783 L972.733 268.783 L972.733 272.093 L963.96 272.093 L963.96 286.167 Q963.96 289.338 964.817 290.241 Q965.696 291.144 968.358 291.144 L972.733 291.144 L972.733 294.708 L968.358 294.708 Q963.428 294.708 961.553 292.88 Q959.678 291.028 959.678 286.167 L959.678 272.093 L956.553 272.093 L956.553 268.783 L959.678 268.783 L959.678 261.422 L963.96 261.422 Z" fill="#000000" fill-rule="evenodd" fill-opacity="1" /><path clip-path="url(#clip110)" d="M1000.51 280.681 L1000.51 282.764 L980.928 282.764 Q981.205 287.162 983.566 289.477 Q985.951 291.769 990.187 291.769 Q992.64 291.769 994.932 291.167 Q997.247 290.565 999.515 289.361 L999.515 293.389 Q997.224 294.361 994.816 294.87 Q992.409 295.38 989.932 295.38 Q983.728 295.38 980.094 291.769 Q976.483 288.157 976.483 282 Q976.483 275.634 979.909 271.908 Q983.358 268.158 989.191 268.158 Q994.423 268.158 997.455 271.537 Q1000.51 274.894 1000.51 280.681 M996.252 279.431 Q996.205 275.935 994.284 273.852 Q992.386 271.769 989.238 271.769 Q985.673 271.769 983.52 273.783 Q981.391 275.796 981.066 279.454 L996.252 279.431 Z" fill="#000000" fill-rule="evenodd" fill-opacity="1" /><path clip-path="url(#clip110)" d="M1022.52 272.764 Q1021.81 272.347 1020.95 272.162 Q1020.12 271.954 1019.1 271.954 Q1015.49 271.954 1013.54 274.315 Q1011.62 276.653 1011.62 281.051 L1011.62 294.708 L1007.34 294.708 L1007.34 268.783 L1011.62 268.783 L1011.62 272.81 Q1012.96 270.449 1015.12 269.315 Q1017.27 268.158 1020.35 268.158 Q1020.79 268.158 1021.32 268.227 Q1021.85 268.273 1022.5 268.389 L1022.52 272.764 Z" fill="#000000" fill-rule="evenodd" fill-opacity="1" /><path clip-path="url(#clip110)" d="M1043.52 269.546 L1043.52 273.574 Q1041.71 272.648 1039.77 272.185 Q1037.83 271.722 1035.74 271.722 Q1032.57 271.722 1030.97 272.695 Q1029.4 273.667 1029.4 275.611 Q1029.4 277.093 1030.53 277.949 Q1031.67 278.783 1035.09 279.546 L1036.55 279.87 Q1041.09 280.843 1042.99 282.625 Q1044.91 284.384 1044.91 287.556 Q1044.91 291.167 1042.04 293.273 Q1039.19 295.38 1034.19 295.38 Q1032.11 295.38 1029.84 294.963 Q1027.59 294.569 1025.09 293.759 L1025.09 289.361 Q1027.46 290.588 1029.75 291.213 Q1032.04 291.815 1034.28 291.815 Q1037.29 291.815 1038.91 290.796 Q1040.53 289.755 1040.53 287.88 Q1040.53 286.144 1039.35 285.218 Q1038.2 284.292 1034.24 283.435 L1032.76 283.088 Q1028.8 282.255 1027.04 280.542 Q1025.28 278.806 1025.28 275.796 Q1025.28 272.139 1027.87 270.148 Q1030.46 268.158 1035.23 268.158 Q1037.59 268.158 1039.68 268.505 Q1041.76 268.852 1043.52 269.546 Z" fill="#000000" fill-rule="evenodd" fill-opacity="1" /><polyline clip-path="url(#clip110)" style="stroke:#e26f46; stroke-linecap:butt; stroke-linejoin:round; stroke-width:4; stroke-opacity:1; fill:none" points="
  809.821,329.268 863.647,329.268 
  "/>
<path clip-path="url(#clip110)" d="M889.122 310.53 L889.122 314.072 L885.048 314.072 Q882.757 314.072 881.854 314.998 Q880.974 315.924 880.974 318.331 L880.974 320.623 L887.988 320.623 L887.988 323.933 L880.974 323.933 L880.974 346.548 L876.692 346.548 L876.692 323.933 L872.618 323.933 L872.618 320.623 L876.692 320.623 L876.692 318.817 Q876.692 314.488 878.706 312.521 Q880.72 310.53 885.095 310.53 L889.122 310.53 Z" fill="#000000" fill-rule="evenodd" fill-opacity="1" /><path clip-path="url(#clip110)" d="M904.47 333.516 Q899.308 333.516 897.317 334.697 Q895.326 335.877 895.326 338.724 Q895.326 340.993 896.808 342.335 Q898.312 343.655 900.882 343.655 Q904.423 343.655 906.553 341.155 Q908.706 338.632 908.706 334.465 L908.706 333.516 L904.47 333.516 M912.965 331.757 L912.965 346.548 L908.706 346.548 L908.706 342.613 Q907.247 344.974 905.071 346.109 Q902.896 347.22 899.747 347.22 Q895.766 347.22 893.405 344.997 Q891.067 342.752 891.067 339.002 Q891.067 334.627 893.984 332.405 Q896.923 330.183 902.734 330.183 L908.706 330.183 L908.706 329.766 Q908.706 326.826 906.761 325.229 Q904.84 323.609 901.345 323.609 Q899.122 323.609 897.016 324.141 Q894.91 324.673 892.965 325.738 L892.965 321.803 Q895.303 320.9 897.502 320.461 Q899.701 319.998 901.784 319.998 Q907.409 319.998 910.187 322.914 Q912.965 325.831 912.965 331.757 Z" fill="#000000" fill-rule="evenodd" fill-opacity="1" /><path clip-path="url(#clip110)" d="M940.395 321.618 L940.395 325.599 Q938.59 324.604 936.761 324.118 Q934.956 323.609 933.104 323.609 Q928.96 323.609 926.669 326.248 Q924.377 328.863 924.377 333.609 Q924.377 338.354 926.669 340.993 Q928.96 343.609 933.104 343.609 Q934.956 343.609 936.761 343.122 Q938.59 342.613 940.395 341.618 L940.395 345.553 Q938.613 346.386 936.692 346.803 Q934.794 347.22 932.641 347.22 Q926.784 347.22 923.335 343.539 Q919.886 339.859 919.886 333.609 Q919.886 327.266 923.358 323.632 Q926.854 319.998 932.919 319.998 Q934.886 319.998 936.761 320.414 Q938.636 320.808 940.395 321.618 Z" fill="#000000" fill-rule="evenodd" fill-opacity="1" /><path clip-path="url(#clip110)" d="M969.979 332.521 L969.979 334.604 L950.395 334.604 Q950.673 339.002 953.034 341.317 Q955.418 343.609 959.655 343.609 Q962.108 343.609 964.4 343.007 Q966.715 342.405 968.983 341.201 L968.983 345.229 Q966.692 346.201 964.284 346.71 Q961.877 347.22 959.4 347.22 Q953.196 347.22 949.562 343.609 Q945.951 339.997 945.951 333.84 Q945.951 327.474 949.377 323.748 Q952.826 319.998 958.659 319.998 Q963.891 319.998 966.923 323.377 Q969.979 326.734 969.979 332.521 M965.719 331.271 Q965.673 327.775 963.752 325.692 Q961.854 323.609 958.705 323.609 Q955.141 323.609 952.988 325.623 Q950.858 327.636 950.534 331.294 L965.719 331.271 Z" fill="#000000" fill-rule="evenodd" fill-opacity="1" /><path clip-path="url(#clip110)" d="M993.497 321.386 L993.497 325.414 Q991.691 324.488 989.747 324.025 Q987.803 323.562 985.719 323.562 Q982.548 323.562 980.951 324.535 Q979.377 325.507 979.377 327.451 Q979.377 328.933 980.511 329.789 Q981.645 330.623 985.071 331.386 L986.529 331.71 Q991.066 332.683 992.965 334.465 Q994.886 336.224 994.886 339.396 Q994.886 343.007 992.015 345.113 Q989.168 347.22 984.168 347.22 Q982.085 347.22 979.816 346.803 Q977.571 346.409 975.071 345.599 L975.071 341.201 Q977.432 342.428 979.724 343.053 Q982.016 343.655 984.261 343.655 Q987.27 343.655 988.89 342.636 Q990.511 341.595 990.511 339.72 Q990.511 337.984 989.33 337.058 Q988.173 336.132 984.215 335.275 L982.733 334.928 Q978.775 334.095 977.016 332.382 Q975.256 330.646 975.256 327.636 Q975.256 323.979 977.849 321.988 Q980.441 319.998 985.21 319.998 Q987.571 319.998 989.654 320.345 Q991.738 320.692 993.497 321.386 Z" fill="#000000" fill-rule="evenodd" fill-opacity="1" /><path clip-path="url(#clip110)" d="
M1482.37 1360.19 L2289.76 1360.19 L2289.76 186.464 L1482.37 186.464  Z
  " fill="#ffffff" fill-rule="evenodd" fill-opacity="1"/>
<defs>
  <clipPath id="clip113">
    <rect x="1482" y="186" width="808" height="1175"/>
  </clipPath>
</defs>
<polyline clip-path="url(#clip113)" style="stroke:#000000; stroke-linecap:butt; stroke-linejoin:round; stroke-width:2; stroke-opacity:0.1; fill:none" points="
  1502.39,1360.19 1502.39,186.464 
  "/>
<polyline clip-path="url(#clip113)" style="stroke:#000000; stroke-linecap:butt; stroke-linejoin:round; stroke-width:2; stroke-opacity:0.1; fill:none" points="
  1730.2,1360.19 1730.2,186.464 
  "/>
<polyline clip-path="url(#clip113)" style="stroke:#000000; stroke-linecap:butt; stroke-linejoin:round; stroke-width:2; stroke-opacity:0.1; fill:none" points="
  1958.01,1360.19 1958.01,186.464 
  "/>
<polyline clip-path="url(#clip113)" style="stroke:#000000; stroke-linecap:butt; stroke-linejoin:round; stroke-width:2; stroke-opacity:0.1; fill:none" points="
  2185.81,1360.19 2185.81,186.464 
  "/>
<polyline clip-path="url(#clip110)" style="stroke:#000000; stroke-linecap:butt; stroke-linejoin:round; stroke-width:4; stroke-opacity:1; fill:none" points="
  1482.37,1360.19 2289.76,1360.19 
  "/>
<polyline clip-path="url(#clip110)" style="stroke:#000000; stroke-linecap:butt; stroke-linejoin:round; stroke-width:4; stroke-opacity:1; fill:none" points="
  1502.39,1360.19 1502.39,1341.29 
  "/>
<polyline clip-path="url(#clip110)" style="stroke:#000000; stroke-linecap:butt; stroke-linejoin:round; stroke-width:4; stroke-opacity:1; fill:none" points="
  1730.2,1360.19 1730.2,1341.29 
  "/>
<polyline clip-path="url(#clip110)" style="stroke:#000000; stroke-linecap:butt; stroke-linejoin:round; stroke-width:4; stroke-opacity:1; fill:none" points="
  1958.01,1360.19 1958.01,1341.29 
  "/>
<polyline clip-path="url(#clip110)" style="stroke:#000000; stroke-linecap:butt; stroke-linejoin:round; stroke-width:4; stroke-opacity:1; fill:none" points="
  2185.81,1360.19 2185.81,1341.29 
  "/>
<path clip-path="url(#clip110)" d="M1487.76 1406.18 Q1484.43 1406.18 1482.51 1407.96 Q1480.61 1409.74 1480.61 1412.87 Q1480.61 1415.99 1482.51 1417.77 Q1484.43 1419.56 1487.76 1419.56 Q1491.1 1419.56 1493.02 1417.77 Q1494.94 1415.97 1494.94 1412.87 Q1494.94 1409.74 1493.02 1407.96 Q1491.12 1406.18 1487.76 1406.18 M1483.09 1404.19 Q1480.08 1403.44 1478.39 1401.38 Q1476.72 1399.32 1476.72 1396.36 Q1476.72 1392.22 1479.66 1389.81 Q1482.62 1387.4 1487.76 1387.4 Q1492.92 1387.4 1495.86 1389.81 Q1498.8 1392.22 1498.8 1396.36 Q1498.8 1399.32 1497.11 1401.38 Q1495.45 1403.44 1492.46 1404.19 Q1495.84 1404.97 1497.72 1407.26 Q1499.61 1409.56 1499.61 1412.87 Q1499.61 1417.89 1496.54 1420.57 Q1493.48 1423.26 1487.76 1423.26 Q1482.04 1423.26 1478.97 1420.57 Q1475.91 1417.89 1475.91 1412.87 Q1475.91 1409.56 1477.81 1407.26 Q1479.71 1404.97 1483.09 1404.19 M1481.37 1396.8 Q1481.37 1399.49 1483.04 1400.99 Q1484.73 1402.5 1487.76 1402.5 Q1490.77 1402.5 1492.46 1400.99 Q1494.17 1399.49 1494.17 1396.8 Q1494.17 1394.12 1492.46 1392.61 Q1490.77 1391.11 1487.76 1391.11 Q1484.73 1391.11 1483.04 1392.61 Q1481.37 1394.12 1481.37 1396.8 Z" fill="#000000" fill-rule="evenodd" fill-opacity="1" /><path clip-path="url(#clip110)" d="M1507.97 1388.03 L1526.33 1388.03 L1526.33 1391.96 L1512.25 1391.96 L1512.25 1400.44 Q1513.27 1400.09 1514.29 1399.93 Q1515.31 1399.74 1516.33 1399.74 Q1522.11 1399.74 1525.49 1402.91 Q1528.87 1406.08 1528.87 1411.5 Q1528.87 1417.08 1525.4 1420.18 Q1521.93 1423.26 1515.61 1423.26 Q1513.43 1423.26 1511.16 1422.89 Q1508.92 1422.52 1506.51 1421.78 L1506.51 1417.08 Q1508.6 1418.21 1510.82 1418.77 Q1513.04 1419.32 1515.52 1419.32 Q1519.52 1419.32 1521.86 1417.22 Q1524.2 1415.11 1524.2 1411.5 Q1524.2 1407.89 1521.86 1405.78 Q1519.52 1403.68 1515.52 1403.68 Q1513.64 1403.68 1511.77 1404.09 Q1509.91 1404.51 1507.97 1405.39 L1507.97 1388.03 Z" fill="#000000" fill-rule="evenodd" fill-opacity="1" /><path clip-path="url(#clip110)" d="M1705.33 1421.87 L1705.33 1417.61 Q1707.09 1418.44 1708.89 1418.88 Q1710.7 1419.32 1712.43 1419.32 Q1717.06 1419.32 1719.49 1416.22 Q1721.95 1413.1 1722.29 1406.75 Q1720.95 1408.75 1718.89 1409.81 Q1716.83 1410.87 1714.33 1410.87 Q1709.15 1410.87 1706.11 1407.75 Q1703.1 1404.6 1703.1 1399.16 Q1703.1 1393.84 1706.25 1390.62 Q1709.4 1387.4 1714.63 1387.4 Q1720.63 1387.4 1723.78 1392.01 Q1726.95 1396.59 1726.95 1405.34 Q1726.95 1413.51 1723.06 1418.4 Q1719.19 1423.26 1712.64 1423.26 Q1710.88 1423.26 1709.08 1422.91 Q1707.27 1422.56 1705.33 1421.87 M1714.63 1407.22 Q1717.78 1407.22 1719.61 1405.06 Q1721.46 1402.91 1721.46 1399.16 Q1721.46 1395.44 1719.61 1393.28 Q1717.78 1391.11 1714.63 1391.11 Q1711.48 1391.11 1709.63 1393.28 Q1707.8 1395.44 1707.8 1399.16 Q1707.8 1402.91 1709.63 1405.06 Q1711.48 1407.22 1714.63 1407.22 Z" fill="#000000" fill-rule="evenodd" fill-opacity="1" /><path clip-path="url(#clip110)" d="M1745.35 1391.11 Q1741.74 1391.11 1739.91 1394.67 Q1738.1 1398.21 1738.1 1405.34 Q1738.1 1412.45 1739.91 1416.01 Q1741.74 1419.56 1745.35 1419.56 Q1748.98 1419.56 1750.79 1416.01 Q1752.62 1412.45 1752.62 1405.34 Q1752.62 1398.21 1750.79 1394.67 Q1748.98 1391.11 1745.35 1391.11 M1745.35 1387.4 Q1751.16 1387.4 1754.22 1392.01 Q1757.29 1396.59 1757.29 1405.34 Q1757.29 1414.07 1754.22 1418.68 Q1751.16 1423.26 1745.35 1423.26 Q1739.54 1423.26 1736.46 1418.68 Q1733.41 1414.07 1733.41 1405.34 Q1733.41 1396.59 1736.46 1392.01 Q1739.54 1387.4 1745.35 1387.4 Z" fill="#000000" fill-rule="evenodd" fill-opacity="1" /><path clip-path="url(#clip110)" d="M1933.63 1421.87 L1933.63 1417.61 Q1935.39 1418.44 1937.2 1418.88 Q1939 1419.32 1940.74 1419.32 Q1945.37 1419.32 1947.8 1416.22 Q1950.25 1413.1 1950.6 1406.75 Q1949.26 1408.75 1947.2 1409.81 Q1945.14 1410.87 1942.64 1410.87 Q1937.45 1410.87 1934.42 1407.75 Q1931.41 1404.6 1931.41 1399.16 Q1931.41 1393.84 1934.56 1390.62 Q1937.71 1387.4 1942.94 1387.4 Q1948.93 1387.4 1952.08 1392.01 Q1955.25 1396.59 1955.25 1405.34 Q1955.25 1413.51 1951.36 1418.4 Q1947.5 1423.26 1940.95 1423.26 Q1939.19 1423.26 1937.38 1422.91 Q1935.58 1422.56 1933.63 1421.87 M1942.94 1407.22 Q1946.09 1407.22 1947.91 1405.06 Q1949.77 1402.91 1949.77 1399.16 Q1949.77 1395.44 1947.91 1393.28 Q1946.09 1391.11 1942.94 1391.11 Q1939.79 1391.11 1937.94 1393.28 Q1936.11 1395.44 1936.11 1399.16 Q1936.11 1402.91 1937.94 1405.06 Q1939.79 1407.22 1942.94 1407.22 Z" fill="#000000" fill-rule="evenodd" fill-opacity="1" /><path clip-path="url(#clip110)" d="M1963.7 1388.03 L1982.06 1388.03 L1982.06 1391.96 L1967.98 1391.96 L1967.98 1400.44 Q1969 1400.09 1970.02 1399.93 Q1971.04 1399.74 1972.06 1399.74 Q1977.84 1399.74 1981.22 1402.91 Q1984.6 1406.08 1984.6 1411.5 Q1984.6 1417.08 1981.13 1420.18 Q1977.66 1423.26 1971.34 1423.26 Q1969.16 1423.26 1966.9 1422.89 Q1964.65 1422.52 1962.24 1421.78 L1962.24 1417.08 Q1964.33 1418.21 1966.55 1418.77 Q1968.77 1419.32 1971.25 1419.32 Q1975.25 1419.32 1977.59 1417.22 Q1979.93 1415.11 1979.93 1411.5 Q1979.93 1407.89 1977.59 1405.78 Q1975.25 1403.68 1971.25 1403.68 Q1969.37 1403.68 1967.5 1404.09 Q1965.65 1404.51 1963.7 1405.39 L1963.7 1388.03 Z" fill="#000000" fill-rule="evenodd" fill-opacity="1" /><path clip-path="url(#clip110)" d="M2145.42 1418.65 L2153.06 1418.65 L2153.06 1392.29 L2144.75 1393.95 L2144.75 1389.69 L2153.01 1388.03 L2157.69 1388.03 L2157.69 1418.65 L2165.33 1418.65 L2165.33 1422.59 L2145.42 1422.59 L2145.42 1418.65 Z" fill="#000000" fill-rule="evenodd" fill-opacity="1" /><path clip-path="url(#clip110)" d="M2184.77 1391.11 Q2181.16 1391.11 2179.33 1394.67 Q2177.53 1398.21 2177.53 1405.34 Q2177.53 1412.45 2179.33 1416.01 Q2181.16 1419.56 2184.77 1419.56 Q2188.41 1419.56 2190.21 1416.01 Q2192.04 1412.45 2192.04 1405.34 Q2192.04 1398.21 2190.21 1394.67 Q2188.41 1391.11 2184.77 1391.11 M2184.77 1387.4 Q2190.58 1387.4 2193.64 1392.01 Q2196.72 1396.59 2196.72 1405.34 Q2196.72 1414.07 2193.64 1418.68 Q2190.58 1423.26 2184.77 1423.26 Q2178.96 1423.26 2175.88 1418.68 Q2172.83 1414.07 2172.83 1405.34 Q2172.83 1396.59 2175.88 1392.01 Q2178.96 1387.4 2184.77 1387.4 Z" fill="#000000" fill-rule="evenodd" fill-opacity="1" /><path clip-path="url(#clip110)" d="M2214.93 1391.11 Q2211.32 1391.11 2209.49 1394.67 Q2207.69 1398.21 2207.69 1405.34 Q2207.69 1412.45 2209.49 1416.01 Q2211.32 1419.56 2214.93 1419.56 Q2218.57 1419.56 2220.37 1416.01 Q2222.2 1412.45 2222.2 1405.34 Q2222.2 1398.21 2220.37 1394.67 Q2218.57 1391.11 2214.93 1391.11 M2214.93 1387.4 Q2220.74 1387.4 2223.8 1392.01 Q2226.88 1396.59 2226.88 1405.34 Q2226.88 1414.07 2223.8 1418.68 Q2220.74 1423.26 2214.93 1423.26 Q2209.12 1423.26 2206.05 1418.68 Q2202.99 1414.07 2202.99 1405.34 Q2202.99 1396.59 2206.05 1392.01 Q2209.12 1387.4 2214.93 1387.4 Z" fill="#000000" fill-rule="evenodd" fill-opacity="1" /><path clip-path="url(#clip110)" d="M1784.2 1499.7 L1784.2 1518.61 L1778.31 1518.61 L1778.31 1469.4 L1784.2 1469.4 L1784.2 1474.81 Q1786.05 1471.63 1788.85 1470.1 Q1791.68 1468.54 1795.6 1468.54 Q1802.09 1468.54 1806.13 1473.7 Q1810.2 1478.86 1810.2 1487.26 Q1810.2 1495.66 1806.13 1500.82 Q1802.09 1505.97 1795.6 1505.97 Q1791.68 1505.97 1788.85 1504.45 Q1786.05 1502.89 1784.2 1499.7 M1804.13 1487.26 Q1804.13 1480.8 1801.45 1477.14 Q1798.81 1473.45 1794.16 1473.45 Q1789.52 1473.45 1786.84 1477.14 Q1784.2 1480.8 1784.2 1487.26 Q1784.2 1493.72 1786.84 1497.41 Q1789.52 1501.07 1794.16 1501.07 Q1798.81 1501.07 1801.45 1497.41 Q1804.13 1493.72 1804.13 1487.26 Z" fill="#000000" fill-rule="evenodd" fill-opacity="1" /><path clip-path="url(#clip110)" d="M1854.7 1455.59 Q1850.44 1462.91 1848.37 1470.07 Q1846.3 1477.23 1846.3 1484.59 Q1846.3 1491.94 1848.37 1499.16 Q1850.47 1506.36 1854.7 1513.65 L1849.61 1513.65 Q1844.83 1506.17 1842.45 1498.94 Q1840.09 1491.72 1840.09 1484.59 Q1840.09 1477.49 1842.45 1470.29 Q1844.8 1463.1 1849.61 1455.59 L1854.7 1455.59 Z" fill="#000000" fill-rule="evenodd" fill-opacity="1" /><path clip-path="url(#clip110)" d="M1865.84 1455.53 L1871.73 1455.53 L1871.73 1484.78 L1889.2 1469.4 L1896.68 1469.4 L1877.78 1486.08 L1897.48 1505.05 L1889.84 1505.05 L1871.73 1487.64 L1871.73 1505.05 L1865.84 1505.05 L1865.84 1455.53 Z" fill="#000000" fill-rule="evenodd" fill-opacity="1" /><path clip-path="url(#clip110)" d="M1910.5 1462.82 L1910.5 1480.67 L1918.58 1480.67 Q1923.07 1480.67 1925.52 1478.35 Q1927.97 1476.02 1927.97 1471.73 Q1927.97 1467.46 1925.52 1465.14 Q1923.07 1462.82 1918.58 1462.82 L1910.5 1462.82 M1904.07 1457.53 L1918.58 1457.53 Q1926.57 1457.53 1930.64 1461.16 Q1934.75 1464.76 1934.75 1471.73 Q1934.75 1478.76 1930.64 1482.36 Q1926.57 1485.95 1918.58 1485.95 L1910.5 1485.95 L1910.5 1505.05 L1904.07 1505.05 L1904.07 1457.53 Z" fill="#000000" fill-rule="evenodd" fill-opacity="1" /><path clip-path="url(#clip110)" d="M1956.39 1487.13 Q1949.3 1487.13 1946.56 1488.76 Q1943.82 1490.38 1943.82 1494.29 Q1943.82 1497.41 1945.86 1499.26 Q1947.93 1501.07 1951.46 1501.07 Q1956.33 1501.07 1959.26 1497.64 Q1962.22 1494.17 1962.22 1488.44 L1962.22 1487.13 L1956.39 1487.13 M1968.07 1484.71 L1968.07 1505.05 L1962.22 1505.05 L1962.22 1499.64 Q1960.21 1502.89 1957.22 1504.45 Q1954.23 1505.97 1949.9 1505.97 Q1944.43 1505.97 1941.18 1502.92 Q1937.96 1499.83 1937.96 1494.68 Q1937.96 1488.66 1941.97 1485.6 Q1946.02 1482.55 1954.01 1482.55 L1962.22 1482.55 L1962.22 1481.98 Q1962.22 1477.93 1959.54 1475.74 Q1956.9 1473.51 1952.1 1473.51 Q1949.04 1473.51 1946.14 1474.24 Q1943.25 1474.97 1940.57 1476.44 L1940.57 1471.03 Q1943.79 1469.79 1946.81 1469.18 Q1949.84 1468.54 1952.7 1468.54 Q1960.44 1468.54 1964.25 1472.55 Q1968.07 1476.57 1968.07 1484.71 Z" fill="#000000" fill-rule="evenodd" fill-opacity="1" /><path clip-path="url(#clip110)" d="M1979.21 1455.59 L1984.31 1455.59 Q1989.08 1463.1 1991.44 1470.29 Q1993.82 1477.49 1993.82 1484.59 Q1993.82 1491.72 1991.44 1498.94 Q1989.08 1506.17 1984.31 1513.65 L1979.21 1513.65 Q1983.45 1506.36 1985.52 1499.16 Q1987.62 1491.94 1987.62 1484.59 Q1987.62 1477.23 1985.52 1470.07 Q1983.45 1462.91 1979.21 1455.59 Z" fill="#000000" fill-rule="evenodd" fill-opacity="1" /><polyline clip-path="url(#clip113)" style="stroke:#000000; stroke-linecap:butt; stroke-linejoin:round; stroke-width:2; stroke-opacity:0.1; fill:none" points="
  1482.37,1326.97 2289.76,1326.97 
  "/>
<polyline clip-path="url(#clip113)" style="stroke:#000000; stroke-linecap:butt; stroke-linejoin:round; stroke-width:2; stroke-opacity:0.1; fill:none" points="
  1482.37,957.874 2289.76,957.874 
  "/>
<polyline clip-path="url(#clip113)" style="stroke:#000000; stroke-linecap:butt; stroke-linejoin:round; stroke-width:2; stroke-opacity:0.1; fill:none" points="
  1482.37,588.778 2289.76,588.778 
  "/>
<polyline clip-path="url(#clip113)" style="stroke:#000000; stroke-linecap:butt; stroke-linejoin:round; stroke-width:2; stroke-opacity:0.1; fill:none" points="
  1482.37,219.683 2289.76,219.683 
  "/>
<polyline clip-path="url(#clip110)" style="stroke:#000000; stroke-linecap:butt; stroke-linejoin:round; stroke-width:4; stroke-opacity:1; fill:none" points="
  1482.37,1360.19 1482.37,186.464 
  "/>
<polyline clip-path="url(#clip110)" style="stroke:#000000; stroke-linecap:butt; stroke-linejoin:round; stroke-width:4; stroke-opacity:1; fill:none" points="
  1482.37,1326.97 1501.27,1326.97 
  "/>
<polyline clip-path="url(#clip110)" style="stroke:#000000; stroke-linecap:butt; stroke-linejoin:round; stroke-width:4; stroke-opacity:1; fill:none" points="
  1482.37,957.874 1501.27,957.874 
  "/>
<polyline clip-path="url(#clip110)" style="stroke:#000000; stroke-linecap:butt; stroke-linejoin:round; stroke-width:4; stroke-opacity:1; fill:none" points="
  1482.37,588.778 1501.27,588.778 
  "/>
<polyline clip-path="url(#clip110)" style="stroke:#000000; stroke-linecap:butt; stroke-linejoin:round; stroke-width:4; stroke-opacity:1; fill:none" points="
  1482.37,219.683 1501.27,219.683 
  "/>
<path clip-path="url(#clip110)" d="M1389.2 1312.77 Q1385.59 1312.77 1383.76 1316.33 Q1381.95 1319.87 1381.95 1327 Q1381.95 1334.11 1383.76 1337.68 Q1385.59 1341.22 1389.2 1341.22 Q1392.83 1341.22 1394.64 1337.68 Q1396.47 1334.11 1396.47 1327 Q1396.47 1319.87 1394.64 1316.33 Q1392.83 1312.77 1389.2 1312.77 M1389.2 1309.06 Q1395.01 1309.06 1398.06 1313.67 Q1401.14 1318.25 1401.14 1327 Q1401.14 1335.73 1398.06 1340.34 Q1395.01 1344.92 1389.2 1344.92 Q1383.39 1344.92 1380.31 1340.34 Q1377.25 1335.73 1377.25 1327 Q1377.25 1318.25 1380.31 1313.67 Q1383.39 1309.06 1389.2 1309.06 Z" fill="#000000" fill-rule="evenodd" fill-opacity="1" /><path clip-path="url(#clip110)" d="M1409.36 1338.37 L1414.24 1338.37 L1414.24 1344.25 L1409.36 1344.25 L1409.36 1338.37 Z" fill="#000000" fill-rule="evenodd" fill-opacity="1" /><path clip-path="url(#clip110)" d="M1434.43 1312.77 Q1430.82 1312.77 1428.99 1316.33 Q1427.18 1319.87 1427.18 1327 Q1427.18 1334.11 1428.99 1337.68 Q1430.82 1341.22 1434.43 1341.22 Q1438.06 1341.22 1439.87 1337.68 Q1441.7 1334.11 1441.7 1327 Q1441.7 1319.87 1439.87 1316.33 Q1438.06 1312.77 1434.43 1312.77 M1434.43 1309.06 Q1440.24 1309.06 1443.29 1313.67 Q1446.37 1318.25 1446.37 1327 Q1446.37 1335.73 1443.29 1340.34 Q1440.24 1344.92 1434.43 1344.92 Q1428.62 1344.92 1425.54 1340.34 Q1422.48 1335.73 1422.48 1327 Q1422.48 1318.25 1425.54 1313.67 Q1428.62 1309.06 1434.43 1309.06 Z" fill="#000000" fill-rule="evenodd" fill-opacity="1" /><path clip-path="url(#clip110)" d="M1390.19 943.672 Q1386.58 943.672 1384.75 947.237 Q1382.95 950.779 1382.95 957.908 Q1382.95 965.015 1384.75 968.58 Q1386.58 972.121 1390.19 972.121 Q1393.83 972.121 1395.63 968.58 Q1397.46 965.015 1397.46 957.908 Q1397.46 950.779 1395.63 947.237 Q1393.83 943.672 1390.19 943.672 M1390.19 939.969 Q1396 939.969 1399.06 944.575 Q1402.14 949.158 1402.14 957.908 Q1402.14 966.635 1399.06 971.242 Q1396 975.825 1390.19 975.825 Q1384.38 975.825 1381.3 971.242 Q1378.25 966.635 1378.25 957.908 Q1378.25 949.158 1381.3 944.575 Q1384.38 939.969 1390.19 939.969 Z" fill="#000000" fill-rule="evenodd" fill-opacity="1" /><path clip-path="url(#clip110)" d="M1410.35 969.274 L1415.24 969.274 L1415.24 975.154 L1410.35 975.154 L1410.35 969.274 Z" fill="#000000" fill-rule="evenodd" fill-opacity="1" /><path clip-path="url(#clip110)" d="M1425.47 940.594 L1443.83 940.594 L1443.83 944.529 L1429.75 944.529 L1429.75 953.001 Q1430.77 952.654 1431.79 952.492 Q1432.81 952.307 1433.83 952.307 Q1439.61 952.307 1442.99 955.478 Q1446.37 958.649 1446.37 964.066 Q1446.37 969.644 1442.9 972.746 Q1439.43 975.825 1433.11 975.825 Q1430.93 975.825 1428.66 975.455 Q1426.42 975.084 1424.01 974.344 L1424.01 969.644 Q1426.09 970.779 1428.32 971.334 Q1430.54 971.89 1433.02 971.89 Q1437.02 971.89 1439.36 969.783 Q1441.7 967.677 1441.7 964.066 Q1441.7 960.455 1439.36 958.348 Q1437.02 956.242 1433.02 956.242 Q1431.14 956.242 1429.27 956.658 Q1427.41 957.075 1425.47 957.955 L1425.47 940.594 Z" fill="#000000" fill-rule="evenodd" fill-opacity="1" /><path clip-path="url(#clip110)" d="M1380.01 602.123 L1387.65 602.123 L1387.65 575.758 L1379.34 577.424 L1379.34 573.165 L1387.6 571.498 L1392.28 571.498 L1392.28 602.123 L1399.91 602.123 L1399.91 606.058 L1380.01 606.058 L1380.01 602.123 Z" fill="#000000" fill-rule="evenodd" fill-opacity="1" /><path clip-path="url(#clip110)" d="M1409.36 600.179 L1414.24 600.179 L1414.24 606.058 L1409.36 606.058 L1409.36 600.179 Z" fill="#000000" fill-rule="evenodd" fill-opacity="1" /><path clip-path="url(#clip110)" d="M1434.43 574.577 Q1430.82 574.577 1428.99 578.142 Q1427.18 581.683 1427.18 588.813 Q1427.18 595.919 1428.99 599.484 Q1430.82 603.026 1434.43 603.026 Q1438.06 603.026 1439.87 599.484 Q1441.7 595.919 1441.7 588.813 Q1441.7 581.683 1439.87 578.142 Q1438.06 574.577 1434.43 574.577 M1434.43 570.873 Q1440.24 570.873 1443.29 575.48 Q1446.37 580.063 1446.37 588.813 Q1446.37 597.54 1443.29 602.146 Q1440.24 606.73 1434.43 606.73 Q1428.62 606.73 1425.54 602.146 Q1422.48 597.54 1422.48 588.813 Q1422.48 580.063 1425.54 575.48 Q1428.62 570.873 1434.43 570.873 Z" fill="#000000" fill-rule="evenodd" fill-opacity="1" /><path clip-path="url(#clip110)" d="M1381 233.028 L1388.64 233.028 L1388.64 206.662 L1380.33 208.329 L1380.33 204.069 L1388.59 202.403 L1393.27 202.403 L1393.27 233.028 L1400.91 233.028 L1400.91 236.963 L1381 236.963 L1381 233.028 Z" fill="#000000" fill-rule="evenodd" fill-opacity="1" /><path clip-path="url(#clip110)" d="M1410.35 231.083 L1415.24 231.083 L1415.24 236.963 L1410.35 236.963 L1410.35 231.083 Z" fill="#000000" fill-rule="evenodd" fill-opacity="1" /><path clip-path="url(#clip110)" d="M1425.47 202.403 L1443.83 202.403 L1443.83 206.338 L1429.75 206.338 L1429.75 214.81 Q1430.77 214.463 1431.79 214.301 Q1432.81 214.116 1433.83 214.116 Q1439.61 214.116 1442.99 217.287 Q1446.37 220.458 1446.37 225.875 Q1446.37 231.454 1442.9 234.555 Q1439.43 237.634 1433.11 237.634 Q1430.93 237.634 1428.66 237.264 Q1426.42 236.893 1424.01 236.153 L1424.01 231.454 Q1426.09 232.588 1428.32 233.143 Q1430.54 233.699 1433.02 233.699 Q1437.02 233.699 1439.36 231.592 Q1441.7 229.486 1441.7 225.875 Q1441.7 222.264 1439.36 220.157 Q1437.02 218.051 1433.02 218.051 Q1431.14 218.051 1429.27 218.468 Q1427.41 218.884 1425.47 219.764 L1425.47 202.403 Z" fill="#000000" fill-rule="evenodd" fill-opacity="1" /><path clip-path="url(#clip110)" d="M1291.35 871.851 L1291.35 844.033 L1296.7 844.033 L1322.32 866.058 L1322.32 844.033 L1327 844.033 L1327 872.647 L1321.65 872.647 L1296.03 850.622 L1296.03 871.851 L1291.35 871.851 Z" fill="#000000" fill-rule="evenodd" fill-opacity="1" /><path clip-path="url(#clip110)" d="M1277.53 800.301 Q1284.86 804.566 1292.02 806.635 Q1299.18 808.703 1306.53 808.703 Q1313.88 808.703 1321.11 806.635 Q1328.3 804.534 1335.59 800.301 L1335.59 805.393 Q1328.11 810.168 1320.89 812.555 Q1313.66 814.91 1306.53 814.91 Q1299.43 814.91 1292.24 812.555 Q1285.05 810.199 1277.53 805.393 L1277.53 800.301 Z" fill="#000000" fill-rule="evenodd" fill-opacity="1" /><path clip-path="url(#clip110)" d="M1277.47 789.161 L1277.47 783.272 L1306.72 783.272 L1291.35 765.799 L1291.35 758.319 L1308.03 777.225 L1327 757.523 L1327 765.162 L1309.59 783.272 L1327 783.272 L1327 789.161 L1277.47 789.161 Z" fill="#000000" fill-rule="evenodd" fill-opacity="1" /><path clip-path="url(#clip110)" d="M1298.19 723.435 Q1294.24 721.239 1292.37 718.183 Q1290.49 715.128 1290.49 710.99 Q1290.49 705.42 1294.4 702.396 Q1298.29 699.372 1305.48 699.372 L1327 699.372 L1327 705.261 L1305.67 705.261 Q1300.55 705.261 1298.06 707.075 Q1295.58 708.889 1295.58 712.613 Q1295.58 717.165 1298.61 719.806 Q1301.63 722.448 1306.85 722.448 L1327 722.448 L1327 728.336 L1305.67 728.336 Q1300.51 728.336 1298.06 730.151 Q1295.58 731.965 1295.58 735.752 Q1295.58 740.24 1298.64 742.882 Q1301.66 745.524 1306.85 745.524 L1327 745.524 L1327 751.412 L1291.35 751.412 L1291.35 745.524 L1296.89 745.524 Q1293.61 743.519 1292.05 740.718 Q1290.49 737.917 1290.49 734.065 Q1290.49 730.182 1292.46 727.477 Q1294.44 724.74 1298.19 723.435 Z" fill="#000000" fill-rule="evenodd" fill-opacity="1" /><path clip-path="url(#clip110)" d="M1277.53 688.614 L1277.53 683.522 Q1285.05 678.747 1292.24 676.392 Q1299.43 674.005 1306.53 674.005 Q1313.66 674.005 1320.89 676.392 Q1328.11 678.747 1335.59 683.522 L1335.59 688.614 Q1328.3 684.381 1321.11 682.312 Q1313.88 680.212 1306.53 680.212 Q1299.18 680.212 1292.02 682.312 Q1284.86 684.381 1277.53 688.614 Z" fill="#000000" fill-rule="evenodd" fill-opacity="1" /><path clip-path="url(#clip110)" d="M1756.42 65.7705 L1756.42 89.8329 L1748.92 89.8329 L1748.92 27.2059 L1756.42 27.2059 L1756.42 34.0924 Q1758.77 30.0415 1762.33 28.0971 Q1765.94 26.1121 1770.92 26.1121 Q1779.18 26.1121 1784.33 32.6746 Q1789.51 39.2371 1789.51 49.9314 Q1789.51 60.6258 1784.33 67.1883 Q1779.18 73.7508 1770.92 73.7508 Q1765.94 73.7508 1762.33 71.8063 Q1758.77 69.8214 1756.42 65.7705 M1781.78 49.9314 Q1781.78 41.7081 1778.37 37.0496 Q1775.01 32.3505 1769.1 32.3505 Q1763.18 32.3505 1759.78 37.0496 Q1756.42 41.7081 1756.42 49.9314 Q1756.42 58.1548 1759.78 62.8538 Q1763.18 67.5124 1769.1 67.5124 Q1775.01 67.5124 1778.37 62.8538 Q1781.78 58.1548 1781.78 49.9314 Z" fill="#000000" fill-rule="evenodd" fill-opacity="1" /><path clip-path="url(#clip110)" d="M1846.15 9.62495 Q1840.72 18.942 1838.09 28.0566 Q1835.45 37.1711 1835.45 46.5287 Q1835.45 55.8863 1838.09 65.0818 Q1840.76 74.2369 1846.15 83.5134 L1839.66 83.5134 Q1833.59 73.9938 1830.55 64.7983 Q1827.55 55.6027 1827.55 46.5287 Q1827.55 37.4952 1830.55 28.3401 Q1833.55 19.1851 1839.66 9.62495 L1846.15 9.62495 Z" fill="#000000" fill-rule="evenodd" fill-opacity="1" /><path clip-path="url(#clip110)" d="M1860.32 9.54393 L1867.82 9.54393 L1867.82 46.7717 L1890.06 27.2059 L1899.58 27.2059 L1875.52 48.4326 L1900.59 72.576 L1890.87 72.576 L1867.82 50.4176 L1867.82 72.576 L1860.32 72.576 L1860.32 9.54393 Z" fill="#000000" fill-rule="evenodd" fill-opacity="1" /><path clip-path="url(#clip110)" d="M1917.16 18.8205 L1917.16 41.5461 L1927.45 41.5461 Q1933.16 41.5461 1936.28 38.5889 Q1939.4 35.6318 1939.4 30.163 Q1939.4 24.7348 1936.28 21.7777 Q1933.16 18.8205 1927.45 18.8205 L1917.16 18.8205 M1908.98 12.096 L1927.45 12.096 Q1937.62 12.096 1942.8 16.714 Q1948.03 21.2916 1948.03 30.163 Q1948.03 39.1155 1942.8 43.6931 Q1937.62 48.2706 1927.45 48.2706 L1917.16 48.2706 L1917.16 72.576 L1908.98 72.576 L1908.98 12.096 Z" fill="#000000" fill-rule="evenodd" fill-opacity="1" /><path clip-path="url(#clip110)" d="M1975.57 49.7694 Q1966.54 49.7694 1963.06 51.8354 Q1959.57 53.9013 1959.57 58.8839 Q1959.57 62.8538 1962.16 65.2034 Q1964.8 67.5124 1969.29 67.5124 Q1975.49 67.5124 1979.22 63.1374 Q1982.99 58.7219 1982.99 51.4303 L1982.99 49.7694 L1975.57 49.7694 M1990.44 46.6907 L1990.44 72.576 L1982.99 72.576 L1982.99 65.6895 Q1980.43 69.8214 1976.63 71.8063 Q1972.82 73.7508 1967.31 73.7508 Q1960.34 73.7508 1956.21 69.8619 Q1952.12 65.9325 1952.12 59.3701 Q1952.12 51.7138 1957.22 47.825 Q1962.37 43.9361 1972.53 43.9361 L1982.99 43.9361 L1982.99 43.2069 Q1982.99 38.0623 1979.58 35.2672 Q1976.22 32.4315 1970.1 32.4315 Q1966.22 32.4315 1962.53 33.3632 Q1958.84 34.295 1955.44 36.1584 L1955.44 29.2718 Q1959.53 27.692 1963.38 26.9223 Q1967.23 26.1121 1970.87 26.1121 Q1980.72 26.1121 1985.58 31.2163 Q1990.44 36.3204 1990.44 46.6907 Z" fill="#000000" fill-rule="evenodd" fill-opacity="1" /><path clip-path="url(#clip110)" d="M2004.62 9.62495 L2011.1 9.62495 Q2017.18 19.1851 2020.17 28.3401 Q2023.21 37.4952 2023.21 46.5287 Q2023.21 55.6027 2020.17 64.7983 Q2017.18 73.9938 2011.1 83.5134 L2004.62 83.5134 Q2010.01 74.2369 2012.64 65.0818 Q2015.31 55.8863 2015.31 46.5287 Q2015.31 37.1711 2012.64 28.0566 Q2010.01 18.942 2004.62 9.62495 Z" fill="#000000" fill-rule="evenodd" fill-opacity="1" /><polyline clip-path="url(#clip113)" style="stroke:#009af9; stroke-linecap:butt; stroke-linejoin:round; stroke-width:4; stroke-opacity:1; fill:none" points="
  2253.36,1308.51 2226.34,1271.6 2199.42,1234.7 2172.63,1197.79 2145.94,1160.88 2119.37,1123.97 2092.91,1087.06 2066.56,1050.15 2040.32,1013.24 2014.19,976.328 
  1988.18,939.419 1962.27,902.509 1936.48,865.6 1910.82,828.69 1885.28,791.781 1859.87,754.871 1834.58,717.962 1809.42,681.052 1784.39,644.143 1759.47,607.233 
  1734.68,570.323 1710.01,533.414 1685.47,496.504 1661.05,459.595 1636.74,422.685 1612.56,385.776 1588.5,348.866 1564.56,311.957 1540.74,275.047 1517.03,238.138 
  
  "/>
<polyline clip-path="url(#clip113)" style="stroke:#e26f46; stroke-linecap:butt; stroke-linejoin:round; stroke-width:4; stroke-opacity:1; fill:none" points="
  2266.91,1326.97 2239.83,1290.06 2212.87,1253.15 2186.01,1216.24 2159.27,1179.33 2132.64,1142.42 2106.12,1105.51 2079.72,1068.6 2053.43,1031.69 2027.24,994.783 
  2001.17,957.874 1975.21,920.964 1949.36,884.055 1923.64,847.145 1898.03,810.236 1872.56,773.326 1847.21,736.416 1821.99,699.507 1796.89,662.597 1771.91,625.688 
  1747.06,588.778 1722.33,551.869 1697.73,514.959 1673.24,478.05 1648.88,441.14 1624.64,404.231 1600.52,367.321 1576.51,330.411 1552.63,293.502 1528.87,256.592 
  1505.22,219.683 
  "/>
<path clip-path="url(#clip110)" d="
M2000.85 381.108 L2262.85 381.108 L2262.85 225.588 L2000.85 225.588  Z
  " fill="#ffffff" fill-rule="evenodd" fill-opacity="1"/>
<polyline clip-path="url(#clip110)" style="stroke:#000000; stroke-linecap:butt; stroke-linejoin:round; stroke-width:4; stroke-opacity:1; fill:none" points="
  2000.85,381.108 2262.85,381.108 2262.85,225.588 2000.85,225.588 2000.85,381.108 
  "/>
<polyline clip-path="url(#clip110)" style="stroke:#009af9; stroke-linecap:butt; stroke-linejoin:round; stroke-width:4; stroke-opacity:1; fill:none" points="
  2009.82,277.428 2063.65,277.428 
  "/>
<path clip-path="url(#clip110)" d="M2093.13 269.778 L2093.13 273.759 Q2091.32 272.764 2089.49 272.278 Q2087.69 271.769 2085.84 271.769 Q2081.69 271.769 2079.4 274.408 Q2077.11 277.023 2077.11 281.769 Q2077.11 286.514 2079.4 289.153 Q2081.69 291.769 2085.84 291.769 Q2087.69 291.769 2089.49 291.282 Q2091.32 290.773 2093.13 289.778 L2093.13 293.713 Q2091.34 294.546 2089.42 294.963 Q2087.53 295.38 2085.37 295.38 Q2079.52 295.38 2076.07 291.699 Q2072.62 288.019 2072.62 281.769 Q2072.62 275.426 2076.09 271.792 Q2079.59 268.158 2085.65 268.158 Q2087.62 268.158 2089.49 268.574 Q2091.37 268.968 2093.13 269.778 Z" fill="#000000" fill-rule="evenodd" fill-opacity="1" /><path clip-path="url(#clip110)" d="M2122.71 280.681 L2122.71 282.764 L2103.13 282.764 Q2103.4 287.162 2105.77 289.477 Q2108.15 291.769 2112.39 291.769 Q2114.84 291.769 2117.13 291.167 Q2119.45 290.565 2121.71 289.361 L2121.71 293.389 Q2119.42 294.361 2117.02 294.87 Q2114.61 295.38 2112.13 295.38 Q2105.93 295.38 2102.29 291.769 Q2098.68 288.157 2098.68 282 Q2098.68 275.634 2102.11 271.908 Q2105.56 268.158 2111.39 268.158 Q2116.62 268.158 2119.65 271.537 Q2122.71 274.894 2122.71 280.681 M2118.45 279.431 Q2118.4 275.935 2116.48 273.852 Q2114.59 271.769 2111.44 271.769 Q2107.87 271.769 2105.72 273.783 Q2103.59 275.796 2103.27 279.454 L2118.45 279.431 Z" fill="#000000" fill-rule="evenodd" fill-opacity="1" /><path clip-path="url(#clip110)" d="M2151.25 279.06 L2151.25 294.708 L2146.99 294.708 L2146.99 279.199 Q2146.99 275.519 2145.56 273.69 Q2144.12 271.861 2141.25 271.861 Q2137.8 271.861 2135.81 274.06 Q2133.82 276.259 2133.82 280.056 L2133.82 294.708 L2129.54 294.708 L2129.54 268.783 L2133.82 268.783 L2133.82 272.81 Q2135.35 270.472 2137.41 269.315 Q2139.49 268.158 2142.2 268.158 Q2146.67 268.158 2148.96 270.935 Q2151.25 273.69 2151.25 279.06 Z" fill="#000000" fill-rule="evenodd" fill-opacity="1" /><path clip-path="url(#clip110)" d="M2163.96 261.422 L2163.96 268.783 L2172.73 268.783 L2172.73 272.093 L2163.96 272.093 L2163.96 286.167 Q2163.96 289.338 2164.82 290.241 Q2165.7 291.144 2168.36 291.144 L2172.73 291.144 L2172.73 294.708 L2168.36 294.708 Q2163.43 294.708 2161.55 292.88 Q2159.68 291.028 2159.68 286.167 L2159.68 272.093 L2156.55 272.093 L2156.55 268.783 L2159.68 268.783 L2159.68 261.422 L2163.96 261.422 Z" fill="#000000" fill-rule="evenodd" fill-opacity="1" /><path clip-path="url(#clip110)" d="M2200.51 280.681 L2200.51 282.764 L2180.93 282.764 Q2181.21 287.162 2183.57 289.477 Q2185.95 291.769 2190.19 291.769 Q2192.64 291.769 2194.93 291.167 Q2197.25 290.565 2199.52 289.361 L2199.52 293.389 Q2197.22 294.361 2194.82 294.87 Q2192.41 295.38 2189.93 295.38 Q2183.73 295.38 2180.09 291.769 Q2176.48 288.157 2176.48 282 Q2176.48 275.634 2179.91 271.908 Q2183.36 268.158 2189.19 268.158 Q2194.42 268.158 2197.46 271.537 Q2200.51 274.894 2200.51 280.681 M2196.25 279.431 Q2196.21 275.935 2194.28 273.852 Q2192.39 271.769 2189.24 271.769 Q2185.67 271.769 2183.52 273.783 Q2181.39 275.796 2181.07 279.454 L2196.25 279.431 Z" fill="#000000" fill-rule="evenodd" fill-opacity="1" /><path clip-path="url(#clip110)" d="M2222.52 272.764 Q2221.81 272.347 2220.95 272.162 Q2220.12 271.954 2219.1 271.954 Q2215.49 271.954 2213.54 274.315 Q2211.62 276.653 2211.62 281.051 L2211.62 294.708 L2207.34 294.708 L2207.34 268.783 L2211.62 268.783 L2211.62 272.81 Q2212.96 270.449 2215.12 269.315 Q2217.27 268.158 2220.35 268.158 Q2220.79 268.158 2221.32 268.227 Q2221.85 268.273 2222.5 268.389 L2222.52 272.764 Z" fill="#000000" fill-rule="evenodd" fill-opacity="1" /><path clip-path="url(#clip110)" d="M2243.52 269.546 L2243.52 273.574 Q2241.71 272.648 2239.77 272.185 Q2237.83 271.722 2235.74 271.722 Q2232.57 271.722 2230.97 272.695 Q2229.4 273.667 2229.4 275.611 Q2229.4 277.093 2230.53 277.949 Q2231.67 278.783 2235.09 279.546 L2236.55 279.87 Q2241.09 280.843 2242.99 282.625 Q2244.91 284.384 2244.91 287.556 Q2244.91 291.167 2242.04 293.273 Q2239.19 295.38 2234.19 295.38 Q2232.11 295.38 2229.84 294.963 Q2227.59 294.569 2225.09 293.759 L2225.09 289.361 Q2227.46 290.588 2229.75 291.213 Q2232.04 291.815 2234.28 291.815 Q2237.29 291.815 2238.91 290.796 Q2240.53 289.755 2240.53 287.88 Q2240.53 286.144 2239.35 285.218 Q2238.2 284.292 2234.24 283.435 L2232.76 283.088 Q2228.8 282.255 2227.04 280.542 Q2225.28 278.806 2225.28 275.796 Q2225.28 272.139 2227.87 270.148 Q2230.46 268.158 2235.23 268.158 Q2237.59 268.158 2239.68 268.505 Q2241.76 268.852 2243.52 269.546 Z" fill="#000000" fill-rule="evenodd" fill-opacity="1" /><polyline clip-path="url(#clip110)" style="stroke:#e26f46; stroke-linecap:butt; stroke-linejoin:round; stroke-width:4; stroke-opacity:1; fill:none" points="
  2009.82,329.268 2063.65,329.268 
  "/>
<path clip-path="url(#clip110)" d="M2089.12 310.53 L2089.12 314.072 L2085.05 314.072 Q2082.76 314.072 2081.85 314.998 Q2080.97 315.924 2080.97 318.331 L2080.97 320.623 L2087.99 320.623 L2087.99 323.933 L2080.97 323.933 L2080.97 346.548 L2076.69 346.548 L2076.69 323.933 L2072.62 323.933 L2072.62 320.623 L2076.69 320.623 L2076.69 318.817 Q2076.69 314.488 2078.71 312.521 Q2080.72 310.53 2085.09 310.53 L2089.12 310.53 Z" fill="#000000" fill-rule="evenodd" fill-opacity="1" /><path clip-path="url(#clip110)" d="M2104.47 333.516 Q2099.31 333.516 2097.32 334.697 Q2095.33 335.877 2095.33 338.724 Q2095.33 340.993 2096.81 342.335 Q2098.31 343.655 2100.88 343.655 Q2104.42 343.655 2106.55 341.155 Q2108.71 338.632 2108.71 334.465 L2108.71 333.516 L2104.47 333.516 M2112.96 331.757 L2112.96 346.548 L2108.71 346.548 L2108.71 342.613 Q2107.25 344.974 2105.07 346.109 Q2102.9 347.22 2099.75 347.22 Q2095.77 347.22 2093.4 344.997 Q2091.07 342.752 2091.07 339.002 Q2091.07 334.627 2093.98 332.405 Q2096.92 330.183 2102.73 330.183 L2108.71 330.183 L2108.71 329.766 Q2108.71 326.826 2106.76 325.229 Q2104.84 323.609 2101.34 323.609 Q2099.12 323.609 2097.02 324.141 Q2094.91 324.673 2092.97 325.738 L2092.97 321.803 Q2095.3 320.9 2097.5 320.461 Q2099.7 319.998 2101.78 319.998 Q2107.41 319.998 2110.19 322.914 Q2112.96 325.831 2112.96 331.757 Z" fill="#000000" fill-rule="evenodd" fill-opacity="1" /><path clip-path="url(#clip110)" d="M2140.4 321.618 L2140.4 325.599 Q2138.59 324.604 2136.76 324.118 Q2134.96 323.609 2133.1 323.609 Q2128.96 323.609 2126.67 326.248 Q2124.38 328.863 2124.38 333.609 Q2124.38 338.354 2126.67 340.993 Q2128.96 343.609 2133.1 343.609 Q2134.96 343.609 2136.76 343.122 Q2138.59 342.613 2140.4 341.618 L2140.4 345.553 Q2138.61 346.386 2136.69 346.803 Q2134.79 347.22 2132.64 347.22 Q2126.78 347.22 2123.34 343.539 Q2119.89 339.859 2119.89 333.609 Q2119.89 327.266 2123.36 323.632 Q2126.85 319.998 2132.92 319.998 Q2134.89 319.998 2136.76 320.414 Q2138.64 320.808 2140.4 321.618 Z" fill="#000000" fill-rule="evenodd" fill-opacity="1" /><path clip-path="url(#clip110)" d="M2169.98 332.521 L2169.98 334.604 L2150.4 334.604 Q2150.67 339.002 2153.03 341.317 Q2155.42 343.609 2159.65 343.609 Q2162.11 343.609 2164.4 343.007 Q2166.71 342.405 2168.98 341.201 L2168.98 345.229 Q2166.69 346.201 2164.28 346.71 Q2161.88 347.22 2159.4 347.22 Q2153.2 347.22 2149.56 343.609 Q2145.95 339.997 2145.95 333.84 Q2145.95 327.474 2149.38 323.748 Q2152.83 319.998 2158.66 319.998 Q2163.89 319.998 2166.92 323.377 Q2169.98 326.734 2169.98 332.521 M2165.72 331.271 Q2165.67 327.775 2163.75 325.692 Q2161.85 323.609 2158.71 323.609 Q2155.14 323.609 2152.99 325.623 Q2150.86 327.636 2150.53 331.294 L2165.72 331.271 Z" fill="#000000" fill-rule="evenodd" fill-opacity="1" /><path clip-path="url(#clip110)" d="M2193.5 321.386 L2193.5 325.414 Q2191.69 324.488 2189.75 324.025 Q2187.8 323.562 2185.72 323.562 Q2182.55 323.562 2180.95 324.535 Q2179.38 325.507 2179.38 327.451 Q2179.38 328.933 2180.51 329.789 Q2181.65 330.623 2185.07 331.386 L2186.53 331.71 Q2191.07 332.683 2192.96 334.465 Q2194.89 336.224 2194.89 339.396 Q2194.89 343.007 2192.02 345.113 Q2189.17 347.22 2184.17 347.22 Q2182.08 347.22 2179.82 346.803 Q2177.57 346.409 2175.07 345.599 L2175.07 341.201 Q2177.43 342.428 2179.72 343.053 Q2182.02 343.655 2184.26 343.655 Q2187.27 343.655 2188.89 342.636 Q2190.51 341.595 2190.51 339.72 Q2190.51 337.984 2189.33 337.058 Q2188.17 336.132 2184.21 335.275 L2182.73 334.928 Q2178.77 334.095 2177.02 332.382 Q2175.26 330.646 2175.26 327.636 Q2175.26 323.979 2177.85 321.988 Q2180.44 319.998 2185.21 319.998 Q2187.57 319.998 2189.65 320.345 Q2191.74 320.692 2193.5 321.386 Z" fill="#000000" fill-rule="evenodd" fill-opacity="1" /></svg>
