<?xml version="1.0" encoding="utf-8"?>
<svg xmlns="http://www.w3.org/2000/svg" xmlns:xlink="http://www.w3.org/1999/xlink" width="600" height="400" viewBox="0 0 2400 1600">
<defs>
  <clipPath id="clip050">
    <rect x="0" y="0" width="2400" height="1600"/>
  </clipPath>
</defs>
<path clip-path="url(#clip050)" d="
M0 1600 L2400 1600 L2400 0 L0 0  Z
  " fill="#ffffff" fill-rule="evenodd" fill-opacity="1"/>
<defs>
  <clipPath id="clip051">
    <rect x="480" y="0" width="1681" height="1600"/>
  </clipPath>
</defs>
<path clip-path="url(#clip050)" d="
M238.437 1360.19 L1089.76 1360.19 L1089.76 186.464 L238.437 186.464  Z
  " fill="#ffffff" fill-rule="evenodd" fill-opacity="1"/>
<defs>
  <clipPath id="clip052">
    <rect x="238" y="186" width="852" height="1175"/>
  </clipPath>
</defs>
<polyline clip-path="url(#clip052)" style="stroke:#000000; stroke-linecap:butt; stroke-linejoin:round; stroke-width:2; stroke-opacity:0.1; fill:none" points="
  295.313,1360.19 295.313,186.464 
  "/>
<polyline clip-path="url(#clip052)" style="stroke:#000000; stroke-linecap:butt; stroke-linejoin:round; stroke-width:2; stroke-opacity:0.1; fill:none" points="
  506.138,1360.19 506.138,186.464 
  "/>
<polyline clip-path="url(#clip052)" style="stroke:#000000; stroke-linecap:butt; stroke-linejoin:round; stroke-width:2; stroke-opacity:0.1; fill:none" points="
  716.963,1360.19 716.963,186.464 
  "/>
<polyline clip-path="url(#clip052)" style="stroke:#000000; stroke-linecap:butt; stroke-linejoin:round; stroke-width:2; stroke-opacity:0.1; fill:none" points="
  927.788,1360.19 927.788,186.464 
  "/>
<polyline clip-path="url(#clip050)" style="stroke:#000000; stroke-linecap:butt; stroke-linejoin:round; stroke-width:4; stroke-opacity:1; fill:none" points="
  238.437,1360.19 1089.76,1360.19 
  "/>
<polyline clip-path="url(#clip050)" style="stroke:#000000; stroke-linecap:butt; stroke-linejoin:round; stroke-width:4; stroke-opacity:1; fill:none" points="
  295.313,1360.19 295.313,1341.29 
  "/>
<polyline clip-path="url(#clip050)" style="stroke:#000000; stroke-linecap:butt; stroke-linejoin:round; stroke-width:4; stroke-opacity:1; fill:none" points="
  506.138,1360.19 506.138,1341.29 
  "/>
<polyline clip-path="url(#clip050)" style="stroke:#000000; stroke-linecap:butt; stroke-linejoin:round; stroke-width:4; stroke-opacity:1; fill:none" points="
  716.963,1360.19 716.963,1341.29 
  "/>
<polyline clip-path="url(#clip050)" style="stroke:#000000; stroke-linecap:butt; stroke-linejoin:round; stroke-width:4; stroke-opacity:1; fill:none" points="
  927.788,1360.19 927.788,1341.29 
  "/>
<path clip-path="url(#clip050)" d="M272.744 1391.11 Q269.133 1391.11 267.304 1394.67 Q265.499 1398.21 265.499 1405.34 Q265.499 1412.45 267.304 1416.01 Q269.133 1419.56 272.744 1419.56 Q276.378 1419.56 278.184 1416.01 Q280.012 1412.45 280.012 1405.34 Q280.012 1398.21 278.184 1394.67 Q276.378 1391.11 272.744 1391.11 M272.744 1387.4 Q278.554 1387.4 281.61 1392.01 Q284.688 1396.59 284.688 1405.34 Q284.688 1414.07 281.61 1418.68 Q278.554 1423.26 272.744 1423.26 Q266.934 1423.26 263.855 1418.68 Q260.799 1414.07 260.799 1405.34 Q260.799 1396.59 263.855 1392.01 Q266.934 1387.4 272.744 1387.4 Z" fill="#000000" fill-rule="evenodd" fill-opacity="1" /><path clip-path="url(#clip050)" d="M292.906 1416.71 L297.79 1416.71 L297.79 1422.59 L292.906 1422.59 L292.906 1416.71 Z" fill="#000000" fill-rule="evenodd" fill-opacity="1" /><path clip-path="url(#clip050)" d="M317.975 1406.18 Q314.642 1406.18 312.72 1407.96 Q310.822 1409.74 310.822 1412.87 Q310.822 1415.99 312.72 1417.77 Q314.642 1419.56 317.975 1419.56 Q321.308 1419.56 323.23 1417.77 Q325.151 1415.97 325.151 1412.87 Q325.151 1409.74 323.23 1407.96 Q321.332 1406.18 317.975 1406.18 M313.299 1404.19 Q310.29 1403.44 308.6 1401.38 Q306.933 1399.32 306.933 1396.36 Q306.933 1392.22 309.873 1389.81 Q312.836 1387.4 317.975 1387.4 Q323.137 1387.4 326.077 1389.81 Q329.017 1392.22 329.017 1396.36 Q329.017 1399.32 327.327 1401.38 Q325.66 1403.44 322.674 1404.19 Q326.054 1404.97 327.929 1407.26 Q329.827 1409.56 329.827 1412.87 Q329.827 1417.89 326.748 1420.57 Q323.693 1423.26 317.975 1423.26 Q312.258 1423.26 309.179 1420.57 Q306.123 1417.89 306.123 1412.87 Q306.123 1409.56 308.021 1407.26 Q309.92 1404.97 313.299 1404.19 M311.586 1396.8 Q311.586 1399.49 313.253 1400.99 Q314.943 1402.5 317.975 1402.5 Q320.984 1402.5 322.674 1400.99 Q324.387 1399.49 324.387 1396.8 Q324.387 1394.12 322.674 1392.61 Q320.984 1391.11 317.975 1391.11 Q314.943 1391.11 313.253 1392.61 Q311.586 1394.12 311.586 1396.8 Z" fill="#000000" fill-rule="evenodd" fill-opacity="1" /><path clip-path="url(#clip050)" d="M483.615 1391.11 Q480.004 1391.11 478.175 1394.67 Q476.37 1398.21 476.37 1405.34 Q476.37 1412.45 478.175 1416.01 Q480.004 1419.56 483.615 1419.56 Q487.249 1419.56 489.055 1416.01 Q490.884 1412.45 490.884 1405.34 Q490.884 1398.21 489.055 1394.67 Q487.249 1391.11 483.615 1391.11 M483.615 1387.4 Q489.425 1387.4 492.481 1392.01 Q495.559 1396.59 495.559 1405.34 Q495.559 1414.07 492.481 1418.68 Q489.425 1423.26 483.615 1423.26 Q477.805 1423.26 474.726 1418.68 Q471.671 1414.07 471.671 1405.34 Q471.671 1396.59 474.726 1392.01 Q477.805 1387.4 483.615 1387.4 Z" fill="#000000" fill-rule="evenodd" fill-opacity="1" /><path clip-path="url(#clip050)" d="M503.777 1416.71 L508.661 1416.71 L508.661 1422.59 L503.777 1422.59 L503.777 1416.71 Z" fill="#000000" fill-rule="evenodd" fill-opacity="1" /><path clip-path="url(#clip050)" d="M518.985 1421.87 L518.985 1417.61 Q520.744 1418.44 522.55 1418.88 Q524.356 1419.32 526.092 1419.32 Q530.721 1419.32 533.152 1416.22 Q535.606 1413.1 535.953 1406.75 Q534.61 1408.75 532.55 1409.81 Q530.49 1410.87 527.99 1410.87 Q522.805 1410.87 519.772 1407.75 Q516.763 1404.6 516.763 1399.16 Q516.763 1393.84 519.911 1390.62 Q523.059 1387.4 528.291 1387.4 Q534.286 1387.4 537.434 1392.01 Q540.605 1396.59 540.605 1405.34 Q540.605 1413.51 536.717 1418.4 Q532.851 1423.26 526.3 1423.26 Q524.541 1423.26 522.735 1422.91 Q520.93 1422.56 518.985 1421.87 M528.291 1407.22 Q531.439 1407.22 533.268 1405.06 Q535.119 1402.91 535.119 1399.16 Q535.119 1395.44 533.268 1393.28 Q531.439 1391.11 528.291 1391.11 Q525.143 1391.11 523.291 1393.28 Q521.462 1395.44 521.462 1399.16 Q521.462 1402.91 523.291 1405.06 Q525.143 1407.22 528.291 1407.22 Z" fill="#000000" fill-rule="evenodd" fill-opacity="1" /><path clip-path="url(#clip050)" d="M684.116 1418.65 L691.755 1418.65 L691.755 1392.29 L683.445 1393.95 L683.445 1389.69 L691.708 1388.03 L696.384 1388.03 L696.384 1418.65 L704.023 1418.65 L704.023 1422.59 L684.116 1422.59 L684.116 1418.65 Z" fill="#000000" fill-rule="evenodd" fill-opacity="1" /><path clip-path="url(#clip050)" d="M713.468 1416.71 L718.352 1416.71 L718.352 1422.59 L713.468 1422.59 L713.468 1416.71 Z" fill="#000000" fill-rule="evenodd" fill-opacity="1" /><path clip-path="url(#clip050)" d="M738.537 1391.11 Q734.926 1391.11 733.097 1394.67 Q731.292 1398.21 731.292 1405.34 Q731.292 1412.45 733.097 1416.01 Q734.926 1419.56 738.537 1419.56 Q742.171 1419.56 743.977 1416.01 Q745.805 1412.45 745.805 1405.34 Q745.805 1398.21 743.977 1394.67 Q742.171 1391.11 738.537 1391.11 M738.537 1387.4 Q744.347 1387.4 747.403 1392.01 Q750.481 1396.59 750.481 1405.34 Q750.481 1414.07 747.403 1418.68 Q744.347 1423.26 738.537 1423.26 Q732.727 1423.26 729.648 1418.68 Q726.593 1414.07 726.593 1405.34 Q726.593 1396.59 729.648 1392.01 Q732.727 1387.4 738.537 1387.4 Z" fill="#000000" fill-rule="evenodd" fill-opacity="1" /><path clip-path="url(#clip050)" d="M895.554 1418.65 L903.193 1418.65 L903.193 1392.29 L894.883 1393.95 L894.883 1389.69 L903.147 1388.03 L907.823 1388.03 L907.823 1418.65 L915.462 1418.65 L915.462 1422.59 L895.554 1422.59 L895.554 1418.65 Z" fill="#000000" fill-rule="evenodd" fill-opacity="1" /><path clip-path="url(#clip050)" d="M924.906 1416.71 L929.79 1416.71 L929.79 1422.59 L924.906 1422.59 L924.906 1416.71 Z" fill="#000000" fill-rule="evenodd" fill-opacity="1" /><path clip-path="url(#clip050)" d="M940.785 1418.65 L948.424 1418.65 L948.424 1392.29 L940.114 1393.95 L940.114 1389.69 L948.378 1388.03 L953.054 1388.03 L953.054 1418.65 L960.693 1418.65 L960.693 1422.59 L940.785 1422.59 L940.785 1418.65 Z" fill="#000000" fill-rule="evenodd" fill-opacity="1" /><path clip-path="url(#clip050)" d="M651.019 1475.77 Q652.961 1472.52 657.767 1469.66 Q659.645 1468.54 665.437 1468.54 Q671.93 1468.54 675.973 1473.7 Q680.047 1478.86 680.047 1487.26 Q680.047 1495.66 675.973 1500.82 Q671.93 1505.97 665.437 1505.97 Q661.522 1505.97 658.69 1504.45 Q655.889 1502.89 654.043 1499.7 L654.043 1518.61 L648.154 1518.61 L648.154 1487.58 Q648.154 1480.23 651.019 1475.77 M673.967 1487.26 Q673.967 1480.8 671.294 1477.14 Q668.652 1473.45 664.005 1473.45 Q659.358 1473.45 656.685 1477.14 Q654.043 1480.8 654.043 1487.26 Q654.043 1493.72 656.685 1497.41 Q659.358 1501.07 664.005 1501.07 Q668.652 1501.07 671.294 1497.41 Q673.967 1493.72 673.967 1487.26 Z" fill="#000000" fill-rule="evenodd" fill-opacity="1" /><polyline clip-path="url(#clip052)" style="stroke:#000000; stroke-linecap:butt; stroke-linejoin:round; stroke-width:2; stroke-opacity:0.1; fill:none" points="
  238.437,1326.97 1089.76,1326.97 
  "/>
<polyline clip-path="url(#clip052)" style="stroke:#000000; stroke-linecap:butt; stroke-linejoin:round; stroke-width:2; stroke-opacity:0.1; fill:none" points="
  238.437,1050.15 1089.76,1050.15 
  "/>
<polyline clip-path="url(#clip052)" style="stroke:#000000; stroke-linecap:butt; stroke-linejoin:round; stroke-width:2; stroke-opacity:0.1; fill:none" points="
  238.437,773.326 1089.76,773.326 
  "/>
<polyline clip-path="url(#clip052)" style="stroke:#000000; stroke-linecap:butt; stroke-linejoin:round; stroke-width:2; stroke-opacity:0.1; fill:none" points="
  238.437,496.504 1089.76,496.504 
  "/>
<polyline clip-path="url(#clip052)" style="stroke:#000000; stroke-linecap:butt; stroke-linejoin:round; stroke-width:2; stroke-opacity:0.1; fill:none" points="
  238.437,219.683 1089.76,219.683 
  "/>
<polyline clip-path="url(#clip050)" style="stroke:#000000; stroke-linecap:butt; stroke-linejoin:round; stroke-width:4; stroke-opacity:1; fill:none" points="
  238.437,1360.19 238.437,186.464 
  "/>
<polyline clip-path="url(#clip050)" style="stroke:#000000; stroke-linecap:butt; stroke-linejoin:round; stroke-width:4; stroke-opacity:1; fill:none" points="
  238.437,1326.97 257.335,1326.97 
  "/>
<polyline clip-path="url(#clip050)" style="stroke:#000000; stroke-linecap:butt; stroke-linejoin:round; stroke-width:4; stroke-opacity:1; fill:none" points="
  238.437,1050.15 257.335,1050.15 
  "/>
<polyline clip-path="url(#clip050)" style="stroke:#000000; stroke-linecap:butt; stroke-linejoin:round; stroke-width:4; stroke-opacity:1; fill:none" points="
  238.437,773.326 257.335,773.326 
  "/>
<polyline clip-path="url(#clip050)" style="stroke:#000000; stroke-linecap:butt; stroke-linejoin:round; stroke-width:4; stroke-opacity:1; fill:none" points="
  238.437,496.504 257.335,496.504 
  "/>
<polyline clip-path="url(#clip050)" style="stroke:#000000; stroke-linecap:butt; stroke-linejoin:round; stroke-width:4; stroke-opacity:1; fill:none" points="
  238.437,219.683 257.335,219.683 
  "/>
<path clip-path="url(#clip050)" d="M190.493 1312.77 Q186.882 1312.77 185.053 1316.33 Q183.248 1319.87 183.248 1327 Q183.248 1334.11 185.053 1337.68 Q186.882 1341.22 190.493 1341.22 Q194.127 1341.22 195.933 1337.68 Q197.761 1334.11 197.761 1327 Q197.761 1319.87 195.933 1316.33 Q194.127 1312.77 190.493 1312.77 M190.493 1309.06 Q196.303 1309.06 199.359 1313.67 Q202.437 1318.25 202.437 1327 Q202.437 1335.73 199.359 1340.34 Q196.303 1344.92 190.493 1344.92 Q184.683 1344.92 181.604 1340.34 Q178.549 1335.73 178.549 1327 Q178.549 1318.25 181.604 1313.67 Q184.683 1309.06 190.493 1309.06 Z" fill="#000000" fill-rule="evenodd" fill-opacity="1" /><path clip-path="url(#clip050)" d="M182.53 1063.49 L190.169 1063.49 L190.169 1037.13 L181.859 1038.79 L181.859 1034.53 L190.123 1032.87 L194.798 1032.87 L194.798 1063.49 L202.437 1063.49 L202.437 1067.43 L182.53 1067.43 L182.53 1063.49 Z" fill="#000000" fill-rule="evenodd" fill-opacity="1" /><path clip-path="url(#clip050)" d="M186.118 786.671 L202.437 786.671 L202.437 790.606 L180.493 790.606 L180.493 786.671 Q183.155 783.916 187.738 779.287 Q192.345 774.634 193.525 773.291 Q195.771 770.768 196.65 769.032 Q197.553 767.273 197.553 765.583 Q197.553 762.828 195.609 761.092 Q193.687 759.356 190.586 759.356 Q188.386 759.356 185.933 760.12 Q183.502 760.884 180.724 762.435 L180.724 757.713 Q183.549 756.578 186.002 756 Q188.456 755.421 190.493 755.421 Q195.863 755.421 199.058 758.106 Q202.252 760.791 202.252 765.282 Q202.252 767.412 201.442 769.333 Q200.655 771.231 198.548 773.824 Q197.97 774.495 194.868 777.713 Q191.766 780.907 186.118 786.671 Z" fill="#000000" fill-rule="evenodd" fill-opacity="1" /><path clip-path="url(#clip050)" d="M195.308 495.15 Q198.664 495.868 200.539 498.136 Q202.437 500.405 202.437 503.738 Q202.437 508.854 198.919 511.655 Q195.4 514.456 188.919 514.456 Q186.743 514.456 184.428 514.016 Q182.137 513.599 179.683 512.743 L179.683 508.229 Q181.627 509.363 183.942 509.942 Q186.257 510.521 188.78 510.521 Q193.178 510.521 195.47 508.784 Q197.785 507.048 197.785 503.738 Q197.785 500.683 195.632 498.97 Q193.502 497.234 189.683 497.234 L185.655 497.234 L185.655 493.391 L189.868 493.391 Q193.317 493.391 195.146 492.025 Q196.974 490.636 196.974 488.044 Q196.974 485.382 195.076 483.97 Q193.201 482.535 189.683 482.535 Q187.761 482.535 185.562 482.951 Q183.363 483.368 180.724 484.248 L180.724 480.081 Q183.387 479.34 185.701 478.97 Q188.039 478.599 190.099 478.599 Q195.423 478.599 198.525 481.03 Q201.627 483.437 201.627 487.558 Q201.627 490.428 199.984 492.419 Q198.34 494.386 195.308 495.15 Z" fill="#000000" fill-rule="evenodd" fill-opacity="1" /><path clip-path="url(#clip050)" d="M192.854 206.477 L181.049 224.926 L192.854 224.926 L192.854 206.477 M191.627 202.403 L197.507 202.403 L197.507 224.926 L202.437 224.926 L202.437 228.815 L197.507 228.815 L197.507 236.963 L192.854 236.963 L192.854 228.815 L177.252 228.815 L177.252 224.301 L191.627 202.403 Z" fill="#000000" fill-rule="evenodd" fill-opacity="1" /><path clip-path="url(#clip050)" d="M91.3483 871.851 L91.3483 844.033 L96.6955 844.033 L122.317 866.058 L122.317 844.033 L126.996 844.033 L126.996 872.647 L121.649 872.647 L96.0271 850.622 L96.0271 871.851 L91.3483 871.851 Z" fill="#000000" fill-rule="evenodd" fill-opacity="1" /><path clip-path="url(#clip050)" d="M77.5347 800.301 Q84.8553 804.566 92.0167 806.635 Q99.1781 808.703 106.531 808.703 Q113.883 808.703 121.108 806.635 Q128.301 804.534 135.59 800.301 L135.59 805.393 Q128.11 810.168 120.885 812.555 Q113.66 814.91 106.531 814.91 Q99.4328 814.91 92.2395 812.555 Q85.0463 810.199 77.5347 805.393 L77.5347 800.301 Z" fill="#000000" fill-rule="evenodd" fill-opacity="1" /><path clip-path="url(#clip050)" d="M77.4711 789.161 L77.4711 783.272 L106.722 783.272 L91.3483 765.799 L91.3483 758.319 L108.026 777.225 L126.996 757.523 L126.996 765.162 L109.586 783.272 L126.996 783.272 L126.996 789.161 L77.4711 789.161 Z" fill="#000000" fill-rule="evenodd" fill-opacity="1" /><path clip-path="url(#clip050)" d="M98.1915 723.435 Q94.2447 721.239 92.3668 718.183 Q90.489 715.128 90.489 710.99 Q90.489 705.42 94.4039 702.396 Q98.2869 699.372 105.48 699.372 L126.996 699.372 L126.996 705.261 L105.671 705.261 Q100.547 705.261 98.0641 707.075 Q95.5815 708.889 95.5815 712.613 Q95.5815 717.165 98.6052 719.806 Q101.629 722.448 106.849 722.448 L126.996 722.448 L126.996 728.336 L105.671 728.336 Q100.515 728.336 98.0641 730.151 Q95.5815 731.965 95.5815 735.752 Q95.5815 740.24 98.6371 742.882 Q101.661 745.524 106.849 745.524 L126.996 745.524 L126.996 751.412 L91.3483 751.412 L91.3483 745.524 L96.8865 745.524 Q93.6082 743.519 92.0486 740.718 Q90.489 737.917 90.489 734.065 Q90.489 730.182 92.4623 727.477 Q94.4357 724.74 98.1915 723.435 Z" fill="#000000" fill-rule="evenodd" fill-opacity="1" /><path clip-path="url(#clip050)" d="M77.5347 688.614 L77.5347 683.522 Q85.0463 678.747 92.2395 676.392 Q99.4328 674.005 106.531 674.005 Q113.66 674.005 120.885 676.392 Q128.11 678.747 135.59 683.522 L135.59 688.614 Q128.301 684.381 121.108 682.312 Q113.883 680.212 106.531 680.212 Q99.1781 680.212 92.0167 682.312 Q84.8553 684.381 77.5347 688.614 Z" fill="#000000" fill-rule="evenodd" fill-opacity="1" /><path clip-path="url(#clip050)" d="M647.451 35.3077 Q649.922 31.1758 656.039 27.5299 Q658.429 26.1121 665.802 26.1121 Q674.066 26.1121 679.21 32.6746 Q684.396 39.2371 684.396 49.9314 Q684.396 60.6258 679.21 67.1883 Q674.066 73.7508 665.802 73.7508 Q660.819 73.7508 657.214 71.8063 Q653.649 69.8214 651.3 65.7705 L651.3 89.8329 L643.806 89.8329 L643.806 50.3365 Q643.806 40.9789 647.451 35.3077 M676.658 49.9314 Q676.658 41.7081 673.256 37.0496 Q669.893 32.3505 663.979 32.3505 Q658.065 32.3505 654.662 37.0496 Q651.3 41.7081 651.3 49.9314 Q651.3 58.1548 654.662 62.8538 Q658.065 67.5124 663.979 67.5124 Q669.893 67.5124 673.256 62.8538 Q676.658 58.1548 676.658 49.9314 Z" fill="#000000" fill-rule="evenodd" fill-opacity="1" /><polyline clip-path="url(#clip052)" style="stroke:#009af9; stroke-linecap:butt; stroke-linejoin:round; stroke-width:4; stroke-opacity:1; fill:none" points="
  1059.78,1320.05 1048.05,1306.21 1036.36,1292.37 1024.72,1278.53 1013.14,1264.68 1001.59,1250.84 990.089,1237 978.634,1223.16 967.226,1209.32 955.863,1195.48 
  944.547,1181.64 933.265,1167.8 922.052,1153.96 910.873,1140.11 899.72,1126.27 888.644,1112.43 877.605,1098.59 866.608,1084.75 855.67,1070.91 844.747,1057.07 
  833.862,1043.23 823.058,1029.39 812.28,1015.54 801.548,1001.7 790.859,987.863 780.214,974.022 769.613,960.181 759.055,946.339 748.56,932.498 738.077,918.657 
  727.642,904.816 717.257,890.975 706.92,877.134 696.634,863.293 686.357,849.452 676.142,835.611 665.97,821.77 655.841,807.929 645.753,794.088 635.708,780.247 
  625.705,766.405 615.744,752.564 605.824,738.723 595.947,724.882 586.112,711.041 576.318,697.2 566.566,683.359 556.828,669.518 547.153,655.677 537.519,641.836 
  527.925,627.995 518.372,614.154 508.859,600.313 499.386,586.471 489.953,572.63 480.56,558.789 471.206,544.948 461.893,531.107 452.618,517.266 443.383,503.425 
  434.187,489.584 425.031,475.743 415.913,461.902 406.834,448.061 397.794,434.22 388.793,420.378 379.83,406.537 370.905,392.696 362.019,378.855 353.17,365.014 
  344.36,351.173 335.588,337.332 326.853,323.491 318.156,309.65 309.496,295.809 300.874,281.968 292.289,268.127 283.741,254.286 275.229,240.444 266.755,226.603 
  
  "/>
<polyline clip-path="url(#clip052)" style="stroke:#e26f46; stroke-linecap:butt; stroke-linejoin:round; stroke-width:4; stroke-opacity:1; fill:none" points="
  1065.67,1326.97 1053.91,1313.13 1042.2,1299.29 1030.54,1285.45 1018.93,1271.6 1007.36,1257.76 995.833,1243.92 984.356,1230.08 972.924,1216.24 961.539,1202.4 
  950.199,1188.56 938.906,1174.72 927.659,1160.88 916.457,1147.04 905.3,1133.19 894.178,1119.35 883.12,1105.51 872.101,1091.67 861.125,1077.83 850.201,1063.99 
  839.306,1050.15 828.463,1036.31 817.663,1022.47 806.908,1008.62 796.198,994.783 785.531,980.942 774.908,967.101 764.329,953.26 753.82,939.419 743.313,925.578 
  732.854,911.737 722.443,897.896 712.082,884.055 701.771,870.214 691.509,856.372 681.244,842.531 671.051,828.69 660.9,814.849 650.792,801.008 640.725,787.167 
  630.701,773.326 620.719,759.485 610.779,745.644 600.881,731.803 591.024,717.962 581.21,704.121 571.437,690.28 561.706,676.438 551.985,662.597 542.331,648.756 
  532.717,634.915 523.144,621.074 513.61,607.233 504.117,593.392 494.664,579.551 485.251,565.71 475.878,551.869 466.545,538.028 457.25,524.187 447.996,510.345 
  438.78,496.504 429.604,482.663 420.467,468.822 411.369,454.981 402.309,441.14 393.289,427.299 384.306,413.458 375.363,399.617 366.457,385.776 357.59,371.935 
  348.76,358.094 339.969,344.253 331.216,330.411 322.5,316.57 313.822,302.729 305.181,288.888 296.577,275.047 288.01,261.206 279.48,247.365 270.988,233.524 
  262.531,219.683 
  "/>
<path clip-path="url(#clip050)" d="
M794.504 381.108 L1061.39 381.108 L1061.39 225.588 L794.504 225.588  Z
  " fill="#ffffff" fill-rule="evenodd" fill-opacity="1"/>
<polyline clip-path="url(#clip050)" style="stroke:#000000; stroke-linecap:butt; stroke-linejoin:round; stroke-width:4; stroke-opacity:1; fill:none" points="
  794.504,381.108 1061.39,381.108 1061.39,225.588 794.504,225.588 794.504,381.108 
  "/>
<polyline clip-path="url(#clip050)" style="stroke:#009af9; stroke-linecap:butt; stroke-linejoin:round; stroke-width:4; stroke-opacity:1; fill:none" points="
  803.963,277.428 860.718,277.428 
  "/>
<path clip-path="url(#clip050)" d="M890.686 269.778 L890.686 273.759 Q888.881 272.764 887.052 272.278 Q885.246 271.769 883.395 271.769 Q879.251 271.769 876.959 274.408 Q874.668 277.023 874.668 281.769 Q874.668 286.514 876.959 289.153 Q879.251 291.769 883.395 291.769 Q885.246 291.769 887.052 291.282 Q888.881 290.773 890.686 289.778 L890.686 293.713 Q888.904 294.546 886.983 294.963 Q885.084 295.38 882.932 295.38 Q877.075 295.38 873.626 291.699 Q870.177 288.019 870.177 281.769 Q870.177 275.426 873.649 271.792 Q877.145 268.158 883.209 268.158 Q885.177 268.158 887.052 268.574 Q888.927 268.968 890.686 269.778 Z" fill="#000000" fill-rule="evenodd" fill-opacity="1" /><path clip-path="url(#clip050)" d="M920.269 280.681 L920.269 282.764 L900.686 282.764 Q900.964 287.162 903.325 289.477 Q905.709 291.769 909.945 291.769 Q912.399 291.769 914.691 291.167 Q917.006 290.565 919.274 289.361 L919.274 293.389 Q916.982 294.361 914.575 294.87 Q912.168 295.38 909.691 295.38 Q903.487 295.38 899.853 291.769 Q896.242 288.157 896.242 282 Q896.242 275.634 899.668 271.908 Q903.117 268.158 908.95 268.158 Q914.182 268.158 917.214 271.537 Q920.269 274.894 920.269 280.681 M916.01 279.431 Q915.964 275.935 914.043 273.852 Q912.144 271.769 908.996 271.769 Q905.432 271.769 903.279 273.783 Q901.149 275.796 900.825 279.454 L916.01 279.431 Z" fill="#000000" fill-rule="evenodd" fill-opacity="1" /><path clip-path="url(#clip050)" d="M948.811 279.06 L948.811 294.708 L944.552 294.708 L944.552 279.199 Q944.552 275.519 943.117 273.69 Q941.681 271.861 938.811 271.861 Q935.362 271.861 933.371 274.06 Q931.38 276.259 931.38 280.056 L931.38 294.708 L927.098 294.708 L927.098 268.783 L931.38 268.783 L931.38 272.81 Q932.908 270.472 934.968 269.315 Q937.052 268.158 939.76 268.158 Q944.228 268.158 946.519 270.935 Q948.811 273.69 948.811 279.06 Z" fill="#000000" fill-rule="evenodd" fill-opacity="1" /><path clip-path="url(#clip050)" d="M961.519 261.422 L961.519 268.783 L970.292 268.783 L970.292 272.093 L961.519 272.093 L961.519 286.167 Q961.519 289.338 962.376 290.241 Q963.255 291.144 965.917 291.144 L970.292 291.144 L970.292 294.708 L965.917 294.708 Q960.987 294.708 959.112 292.88 Q957.237 291.028 957.237 286.167 L957.237 272.093 L954.112 272.093 L954.112 268.783 L957.237 268.783 L957.237 261.422 L961.519 261.422 Z" fill="#000000" fill-rule="evenodd" fill-opacity="1" /><path clip-path="url(#clip050)" d="M998.07 280.681 L998.07 282.764 L978.487 282.764 Q978.765 287.162 981.126 289.477 Q983.51 291.769 987.746 291.769 Q990.2 291.769 992.491 291.167 Q994.806 290.565 997.075 289.361 L997.075 293.389 Q994.783 294.361 992.376 294.87 Q989.968 295.38 987.491 295.38 Q981.288 295.38 977.653 291.769 Q974.042 288.157 974.042 282 Q974.042 275.634 977.468 271.908 Q980.917 268.158 986.751 268.158 Q991.982 268.158 995.014 271.537 Q998.07 274.894 998.07 280.681 M993.811 279.431 Q993.764 275.935 991.843 273.852 Q989.945 271.769 986.797 271.769 Q983.232 271.769 981.079 273.783 Q978.95 275.796 978.626 279.454 L993.811 279.431 Z" fill="#000000" fill-rule="evenodd" fill-opacity="1" /><path clip-path="url(#clip050)" d="M1020.08 272.764 Q1019.37 272.347 1018.51 272.162 Q1017.68 271.954 1016.66 271.954 Q1013.05 271.954 1011.1 274.315 Q1009.18 276.653 1009.18 281.051 L1009.18 294.708 L1004.9 294.708 L1004.9 268.783 L1009.18 268.783 L1009.18 272.81 Q1010.52 270.449 1012.68 269.315 Q1014.83 268.158 1017.91 268.158 Q1018.35 268.158 1018.88 268.227 Q1019.41 268.273 1020.06 268.389 L1020.08 272.764 Z" fill="#000000" fill-rule="evenodd" fill-opacity="1" /><path clip-path="url(#clip050)" d="M1041.08 269.546 L1041.08 273.574 Q1039.27 272.648 1037.33 272.185 Q1035.38 271.722 1033.3 271.722 Q1030.13 271.722 1028.53 272.695 Q1026.96 273.667 1026.96 275.611 Q1026.96 277.093 1028.09 277.949 Q1029.23 278.783 1032.65 279.546 L1034.11 279.87 Q1038.65 280.843 1040.55 282.625 Q1042.47 284.384 1042.47 287.556 Q1042.47 291.167 1039.6 293.273 Q1036.75 295.38 1031.75 295.38 Q1029.67 295.38 1027.4 294.963 Q1025.15 294.569 1022.65 293.759 L1022.65 289.361 Q1025.01 290.588 1027.31 291.213 Q1029.6 291.815 1031.84 291.815 Q1034.85 291.815 1036.47 290.796 Q1038.09 289.755 1038.09 287.88 Q1038.09 286.144 1036.91 285.218 Q1035.75 284.292 1031.8 283.435 L1030.32 283.088 Q1026.36 282.255 1024.6 280.542 Q1022.84 278.806 1022.84 275.796 Q1022.84 272.139 1025.43 270.148 Q1028.02 268.158 1032.79 268.158 Q1035.15 268.158 1037.24 268.505 Q1039.32 268.852 1041.08 269.546 Z" fill="#000000" fill-rule="evenodd" fill-opacity="1" /><polyline clip-path="url(#clip050)" style="stroke:#e26f46; stroke-linecap:butt; stroke-linejoin:round; stroke-width:4; stroke-opacity:1; fill:none" points="
  803.963,329.268 860.718,329.268 
  "/>
<path clip-path="url(#clip050)" d="M886.682 310.53 L886.682 314.072 L882.608 314.072 Q880.316 314.072 879.413 314.998 Q878.534 315.924 878.534 318.331 L878.534 320.623 L885.547 320.623 L885.547 323.933 L878.534 323.933 L878.534 346.548 L874.251 346.548 L874.251 323.933 L870.177 323.933 L870.177 320.623 L874.251 320.623 L874.251 318.817 Q874.251 314.488 876.265 312.521 Q878.279 310.53 882.654 310.53 L886.682 310.53 Z" fill="#000000" fill-rule="evenodd" fill-opacity="1" /><path clip-path="url(#clip050)" d="M902.029 333.516 Q896.867 333.516 894.876 334.697 Q892.885 335.877 892.885 338.724 Q892.885 340.993 894.367 342.335 Q895.871 343.655 898.441 343.655 Q901.983 343.655 904.112 341.155 Q906.265 338.632 906.265 334.465 L906.265 333.516 L902.029 333.516 M910.524 331.757 L910.524 346.548 L906.265 346.548 L906.265 342.613 Q904.807 344.974 902.631 346.109 Q900.455 347.22 897.307 347.22 Q893.325 347.22 890.964 344.997 Q888.626 342.752 888.626 339.002 Q888.626 334.627 891.543 332.405 Q894.483 330.183 900.293 330.183 L906.265 330.183 L906.265 329.766 Q906.265 326.826 904.32 325.229 Q902.399 323.609 898.904 323.609 Q896.682 323.609 894.575 324.141 Q892.469 324.673 890.524 325.738 L890.524 321.803 Q892.862 320.9 895.061 320.461 Q897.26 319.998 899.344 319.998 Q904.969 319.998 907.746 322.914 Q910.524 325.831 910.524 331.757 Z" fill="#000000" fill-rule="evenodd" fill-opacity="1" /><path clip-path="url(#clip050)" d="M937.955 321.618 L937.955 325.599 Q936.149 324.604 934.32 324.118 Q932.515 323.609 930.663 323.609 Q926.519 323.609 924.228 326.248 Q921.936 328.863 921.936 333.609 Q921.936 338.354 924.228 340.993 Q926.519 343.609 930.663 343.609 Q932.515 343.609 934.32 343.122 Q936.149 342.613 937.955 341.618 L937.955 345.553 Q936.172 346.386 934.251 346.803 Q932.353 347.22 930.2 347.22 Q924.343 347.22 920.894 343.539 Q917.445 339.859 917.445 333.609 Q917.445 327.266 920.918 323.632 Q924.413 319.998 930.478 319.998 Q932.445 319.998 934.32 320.414 Q936.195 320.808 937.955 321.618 Z" fill="#000000" fill-rule="evenodd" fill-opacity="1" /><path clip-path="url(#clip050)" d="M967.538 332.521 L967.538 334.604 L947.954 334.604 Q948.232 339.002 950.593 341.317 Q952.978 343.609 957.214 343.609 Q959.667 343.609 961.959 343.007 Q964.274 342.405 966.542 341.201 L966.542 345.229 Q964.251 346.201 961.843 346.71 Q959.436 347.22 956.959 347.22 Q950.755 347.22 947.121 343.609 Q943.51 339.997 943.51 333.84 Q943.51 327.474 946.936 323.748 Q950.385 319.998 956.218 319.998 Q961.45 319.998 964.482 323.377 Q967.538 326.734 967.538 332.521 M963.278 331.271 Q963.232 327.775 961.311 325.692 Q959.413 323.609 956.265 323.609 Q952.7 323.609 950.547 325.623 Q948.417 327.636 948.093 331.294 L963.278 331.271 Z" fill="#000000" fill-rule="evenodd" fill-opacity="1" /><path clip-path="url(#clip050)" d="M991.056 321.386 L991.056 325.414 Q989.251 324.488 987.306 324.025 Q985.362 323.562 983.278 323.562 Q980.107 323.562 978.51 324.535 Q976.936 325.507 976.936 327.451 Q976.936 328.933 978.07 329.789 Q979.204 330.623 982.63 331.386 L984.089 331.71 Q988.626 332.683 990.524 334.465 Q992.445 336.224 992.445 339.396 Q992.445 343.007 989.575 345.113 Q986.727 347.22 981.727 347.22 Q979.644 347.22 977.376 346.803 Q975.13 346.409 972.63 345.599 L972.63 341.201 Q974.991 342.428 977.283 343.053 Q979.575 343.655 981.82 343.655 Q984.829 343.655 986.45 342.636 Q988.07 341.595 988.07 339.72 Q988.07 337.984 986.889 337.058 Q985.732 336.132 981.774 335.275 L980.292 334.928 Q976.334 334.095 974.575 332.382 Q972.815 330.646 972.815 327.636 Q972.815 323.979 975.408 321.988 Q978.001 319.998 982.769 319.998 Q985.13 319.998 987.214 320.345 Q989.297 320.692 991.056 321.386 Z" fill="#000000" fill-rule="evenodd" fill-opacity="1" /><path clip-path="url(#clip050)" d="
M1438.44 1360.19 L2289.76 1360.19 L2289.76 186.464 L1438.44 186.464  Z
  " fill="#ffffff" fill-rule="evenodd" fill-opacity="1"/>
<defs>
  <clipPath id="clip053">
    <rect x="1438" y="186" width="852" height="1175"/>
  </clipPath>
</defs>
<polyline clip-path="url(#clip053)" style="stroke:#000000; stroke-linecap:butt; stroke-linejoin:round; stroke-width:2; stroke-opacity:0.1; fill:none" points="
  1596.27,1360.19 1596.27,186.464 
  "/>
<polyline clip-path="url(#clip053)" style="stroke:#000000; stroke-linecap:butt; stroke-linejoin:round; stroke-width:2; stroke-opacity:0.1; fill:none" points="
  1808.51,1360.19 1808.51,186.464 
  "/>
<polyline clip-path="url(#clip053)" style="stroke:#000000; stroke-linecap:butt; stroke-linejoin:round; stroke-width:2; stroke-opacity:0.1; fill:none" points="
  2020.75,1360.19 2020.75,186.464 
  "/>
<polyline clip-path="url(#clip053)" style="stroke:#000000; stroke-linecap:butt; stroke-linejoin:round; stroke-width:2; stroke-opacity:0.1; fill:none" points="
  2232.99,1360.19 2232.99,186.464 
  "/>
<polyline clip-path="url(#clip050)" style="stroke:#000000; stroke-linecap:butt; stroke-linejoin:round; stroke-width:4; stroke-opacity:1; fill:none" points="
  1438.44,1360.19 2289.76,1360.19 
  "/>
<polyline clip-path="url(#clip050)" style="stroke:#000000; stroke-linecap:butt; stroke-linejoin:round; stroke-width:4; stroke-opacity:1; fill:none" points="
  1596.27,1360.19 1596.27,1341.29 
  "/>
<polyline clip-path="url(#clip050)" style="stroke:#000000; stroke-linecap:butt; stroke-linejoin:round; stroke-width:4; stroke-opacity:1; fill:none" points="
  1808.51,1360.19 1808.51,1341.29 
  "/>
<polyline clip-path="url(#clip050)" style="stroke:#000000; stroke-linecap:butt; stroke-linejoin:round; stroke-width:4; stroke-opacity:1; fill:none" points="
  2020.75,1360.19 2020.75,1341.29 
  "/>
<polyline clip-path="url(#clip050)" style="stroke:#000000; stroke-linecap:butt; stroke-linejoin:round; stroke-width:4; stroke-opacity:1; fill:none" points="
  2232.99,1360.19 2232.99,1341.29 
  "/>
<path clip-path="url(#clip050)" d="M1569.63 1388.03 L1591.85 1388.03 L1591.85 1390.02 L1579.31 1422.59 L1574.42 1422.59 L1586.23 1391.96 L1569.63 1391.96 L1569.63 1388.03 Z" fill="#000000" fill-rule="evenodd" fill-opacity="1" /><path clip-path="url(#clip050)" d="M1610.97 1391.11 Q1607.36 1391.11 1605.53 1394.67 Q1603.73 1398.21 1603.73 1405.34 Q1603.73 1412.45 1605.53 1416.01 Q1607.36 1419.56 1610.97 1419.56 Q1614.61 1419.56 1616.41 1416.01 Q1618.24 1412.45 1618.24 1405.34 Q1618.24 1398.21 1616.41 1394.67 Q1614.61 1391.11 1610.97 1391.11 M1610.97 1387.4 Q1616.78 1387.4 1619.84 1392.01 Q1622.92 1396.59 1622.92 1405.34 Q1622.92 1414.07 1619.84 1418.68 Q1616.78 1423.26 1610.97 1423.26 Q1605.16 1423.26 1602.08 1418.68 Q1599.03 1414.07 1599.03 1405.34 Q1599.03 1396.59 1602.08 1392.01 Q1605.16 1387.4 1610.97 1387.4 Z" fill="#000000" fill-rule="evenodd" fill-opacity="1" /><path clip-path="url(#clip050)" d="M1793.38 1406.18 Q1790.05 1406.18 1788.13 1407.96 Q1786.23 1409.74 1786.23 1412.87 Q1786.23 1415.99 1788.13 1417.77 Q1790.05 1419.56 1793.38 1419.56 Q1796.72 1419.56 1798.64 1417.77 Q1800.56 1415.97 1800.56 1412.87 Q1800.56 1409.74 1798.64 1407.96 Q1796.74 1406.18 1793.38 1406.18 M1788.71 1404.19 Q1785.7 1403.44 1784.01 1401.38 Q1782.34 1399.32 1782.34 1396.36 Q1782.34 1392.22 1785.28 1389.81 Q1788.25 1387.4 1793.38 1387.4 Q1798.55 1387.4 1801.49 1389.81 Q1804.43 1392.22 1804.43 1396.36 Q1804.43 1399.32 1802.74 1401.38 Q1801.07 1403.44 1798.08 1404.19 Q1801.46 1404.97 1803.34 1407.26 Q1805.24 1409.56 1805.24 1412.87 Q1805.24 1417.89 1802.16 1420.57 Q1799.1 1423.26 1793.38 1423.26 Q1787.67 1423.26 1784.59 1420.57 Q1781.53 1417.89 1781.53 1412.87 Q1781.53 1409.56 1783.43 1407.26 Q1785.33 1404.97 1788.71 1404.19 M1787 1396.8 Q1787 1399.49 1788.66 1400.99 Q1790.35 1402.5 1793.38 1402.5 Q1796.39 1402.5 1798.08 1400.99 Q1799.8 1399.49 1799.8 1396.8 Q1799.8 1394.12 1798.08 1392.61 Q1796.39 1391.11 1793.38 1391.11 Q1790.35 1391.11 1788.66 1392.61 Q1787 1394.12 1787 1396.8 Z" fill="#000000" fill-rule="evenodd" fill-opacity="1" /><path clip-path="url(#clip050)" d="M1823.55 1391.11 Q1819.93 1391.11 1818.11 1394.67 Q1816.3 1398.21 1816.3 1405.34 Q1816.3 1412.45 1818.11 1416.01 Q1819.93 1419.56 1823.55 1419.56 Q1827.18 1419.56 1828.99 1416.01 Q1830.81 1412.45 1830.81 1405.34 Q1830.81 1398.21 1828.99 1394.67 Q1827.18 1391.11 1823.55 1391.11 M1823.55 1387.4 Q1829.36 1387.4 1832.41 1392.01 Q1835.49 1396.59 1835.49 1405.34 Q1835.49 1414.07 1832.41 1418.68 Q1829.36 1423.26 1823.55 1423.26 Q1817.74 1423.26 1814.66 1418.68 Q1811.6 1414.07 1811.6 1405.34 Q1811.6 1396.59 1814.66 1392.01 Q1817.74 1387.4 1823.55 1387.4 Z" fill="#000000" fill-rule="evenodd" fill-opacity="1" /><path clip-path="url(#clip050)" d="M1995.88 1421.87 L1995.88 1417.61 Q1997.63 1418.44 1999.44 1418.88 Q2001.25 1419.32 2002.98 1419.32 Q2007.61 1419.32 2010.04 1416.22 Q2012.5 1413.1 2012.84 1406.75 Q2011.5 1408.75 2009.44 1409.81 Q2007.38 1410.87 2004.88 1410.87 Q1999.7 1410.87 1996.66 1407.75 Q1993.65 1404.6 1993.65 1399.16 Q1993.65 1393.84 1996.8 1390.62 Q1999.95 1387.4 2005.18 1387.4 Q2011.18 1387.4 2014.32 1392.01 Q2017.5 1396.59 2017.5 1405.34 Q2017.5 1413.51 2013.61 1418.4 Q2009.74 1423.26 2003.19 1423.26 Q2001.43 1423.26 1999.63 1422.91 Q1997.82 1422.56 1995.88 1421.87 M2005.18 1407.22 Q2008.33 1407.22 2010.16 1405.06 Q2012.01 1402.91 2012.01 1399.16 Q2012.01 1395.44 2010.16 1393.28 Q2008.33 1391.11 2005.18 1391.11 Q2002.03 1391.11 2000.18 1393.28 Q1998.35 1395.44 1998.35 1399.16 Q1998.35 1402.91 2000.18 1405.06 Q2002.03 1407.22 2005.18 1407.22 Z" fill="#000000" fill-rule="evenodd" fill-opacity="1" /><path clip-path="url(#clip050)" d="M2035.9 1391.11 Q2032.29 1391.11 2030.46 1394.67 Q2028.65 1398.21 2028.65 1405.34 Q2028.65 1412.45 2030.46 1416.01 Q2032.29 1419.56 2035.9 1419.56 Q2039.53 1419.56 2041.34 1416.01 Q2043.17 1412.45 2043.17 1405.34 Q2043.17 1398.21 2041.34 1394.67 Q2039.53 1391.11 2035.9 1391.11 M2035.9 1387.4 Q2041.71 1387.4 2044.76 1392.01 Q2047.84 1396.59 2047.84 1405.34 Q2047.84 1414.07 2044.76 1418.68 Q2041.71 1423.26 2035.9 1423.26 Q2030.09 1423.26 2027.01 1418.68 Q2023.95 1414.07 2023.95 1405.34 Q2023.95 1396.59 2027.01 1392.01 Q2030.09 1387.4 2035.9 1387.4 Z" fill="#000000" fill-rule="evenodd" fill-opacity="1" /><path clip-path="url(#clip050)" d="M2192.59 1418.65 L2200.23 1418.65 L2200.23 1392.29 L2191.92 1393.95 L2191.92 1389.69 L2200.18 1388.03 L2204.86 1388.03 L2204.86 1418.65 L2212.5 1418.65 L2212.5 1422.59 L2192.59 1422.59 L2192.59 1418.65 Z" fill="#000000" fill-rule="evenodd" fill-opacity="1" /><path clip-path="url(#clip050)" d="M2231.94 1391.11 Q2228.33 1391.11 2226.5 1394.67 Q2224.7 1398.21 2224.7 1405.34 Q2224.7 1412.45 2226.5 1416.01 Q2228.33 1419.56 2231.94 1419.56 Q2235.58 1419.56 2237.38 1416.01 Q2239.21 1412.45 2239.21 1405.34 Q2239.21 1398.21 2237.38 1394.67 Q2235.58 1391.11 2231.94 1391.11 M2231.94 1387.4 Q2237.75 1387.4 2240.81 1392.01 Q2243.89 1396.59 2243.89 1405.34 Q2243.89 1414.07 2240.81 1418.68 Q2237.75 1423.26 2231.94 1423.26 Q2226.13 1423.26 2223.05 1418.68 Q2220 1414.07 2220 1405.34 Q2220 1396.59 2223.05 1392.01 Q2226.13 1387.4 2231.94 1387.4 Z" fill="#000000" fill-rule="evenodd" fill-opacity="1" /><path clip-path="url(#clip050)" d="M2262.11 1391.11 Q2258.49 1391.11 2256.67 1394.67 Q2254.86 1398.21 2254.86 1405.34 Q2254.86 1412.45 2256.67 1416.01 Q2258.49 1419.56 2262.11 1419.56 Q2265.74 1419.56 2267.55 1416.01 Q2269.37 1412.45 2269.37 1405.34 Q2269.37 1398.21 2267.55 1394.67 Q2265.74 1391.11 2262.11 1391.11 M2262.11 1387.4 Q2267.92 1387.4 2270.97 1392.01 Q2274.05 1396.59 2274.05 1405.34 Q2274.05 1414.07 2270.97 1418.68 Q2267.92 1423.26 2262.11 1423.26 Q2256.3 1423.26 2253.22 1418.68 Q2250.16 1414.07 2250.16 1405.34 Q2250.16 1396.59 2253.22 1392.01 Q2256.3 1387.4 2262.11 1387.4 Z" fill="#000000" fill-rule="evenodd" fill-opacity="1" /><path clip-path="url(#clip050)" d="M1762.23 1499.7 L1762.23 1518.61 L1756.35 1518.61 L1756.35 1469.4 L1762.23 1469.4 L1762.23 1474.81 Q1764.08 1471.63 1766.88 1470.1 Q1769.71 1468.54 1773.63 1468.54 Q1780.12 1468.54 1784.16 1473.7 Q1788.24 1478.86 1788.24 1487.26 Q1788.24 1495.66 1784.16 1500.82 Q1780.12 1505.97 1773.63 1505.97 Q1769.71 1505.97 1766.88 1504.45 Q1764.08 1502.89 1762.23 1499.7 M1782.16 1487.26 Q1782.16 1480.8 1779.48 1477.14 Q1776.84 1473.45 1772.2 1473.45 Q1767.55 1473.45 1764.88 1477.14 Q1762.23 1480.8 1762.23 1487.26 Q1762.23 1493.72 1764.88 1497.41 Q1767.55 1501.07 1772.2 1501.07 Q1776.84 1501.07 1779.48 1497.41 Q1782.16 1493.72 1782.16 1487.26 Z" fill="#000000" fill-rule="evenodd" fill-opacity="1" /><path clip-path="url(#clip050)" d="M1832.73 1455.59 Q1828.47 1462.91 1826.4 1470.07 Q1824.33 1477.23 1824.33 1484.59 Q1824.33 1491.94 1826.4 1499.16 Q1828.5 1506.36 1832.73 1513.65 L1827.64 1513.65 Q1822.87 1506.17 1820.48 1498.94 Q1818.12 1491.72 1818.12 1484.59 Q1818.12 1477.49 1820.48 1470.29 Q1822.83 1463.1 1827.64 1455.59 L1832.73 1455.59 Z" fill="#000000" fill-rule="evenodd" fill-opacity="1" /><path clip-path="url(#clip050)" d="M1843.87 1455.53 L1849.76 1455.53 L1849.76 1484.78 L1867.24 1469.4 L1874.72 1469.4 L1855.81 1486.08 L1875.51 1505.05 L1867.87 1505.05 L1849.76 1487.64 L1849.76 1505.05 L1843.87 1505.05 L1843.87 1455.53 Z" fill="#000000" fill-rule="evenodd" fill-opacity="1" /><path clip-path="url(#clip050)" d="M1888.53 1462.82 L1888.53 1480.67 L1896.61 1480.67 Q1901.1 1480.67 1903.55 1478.35 Q1906 1476.02 1906 1471.73 Q1906 1467.46 1903.55 1465.14 Q1901.1 1462.82 1896.61 1462.82 L1888.53 1462.82 M1882.1 1457.53 L1896.61 1457.53 Q1904.6 1457.53 1908.68 1461.16 Q1912.78 1464.76 1912.78 1471.73 Q1912.78 1478.76 1908.68 1482.36 Q1904.6 1485.95 1896.61 1485.95 L1888.53 1485.95 L1888.53 1505.05 L1882.1 1505.05 L1882.1 1457.53 Z" fill="#000000" fill-rule="evenodd" fill-opacity="1" /><path clip-path="url(#clip050)" d="M1934.43 1487.13 Q1927.33 1487.13 1924.59 1488.76 Q1921.85 1490.38 1921.85 1494.29 Q1921.85 1497.41 1923.89 1499.26 Q1925.96 1501.07 1929.49 1501.07 Q1934.36 1501.07 1937.29 1497.64 Q1940.25 1494.17 1940.25 1488.44 L1940.25 1487.13 L1934.43 1487.13 M1946.11 1484.71 L1946.11 1505.05 L1940.25 1505.05 L1940.25 1499.64 Q1938.25 1502.89 1935.25 1504.45 Q1932.26 1505.97 1927.93 1505.97 Q1922.46 1505.97 1919.21 1502.92 Q1916 1499.83 1916 1494.68 Q1916 1488.66 1920.01 1485.6 Q1924.05 1482.55 1932.04 1482.55 L1940.25 1482.55 L1940.25 1481.98 Q1940.25 1477.93 1937.58 1475.74 Q1934.93 1473.51 1930.13 1473.51 Q1927.07 1473.51 1924.18 1474.24 Q1921.28 1474.97 1918.61 1476.44 L1918.61 1471.03 Q1921.82 1469.79 1924.85 1469.18 Q1927.87 1468.54 1930.73 1468.54 Q1938.47 1468.54 1942.29 1472.55 Q1946.11 1476.57 1946.11 1484.71 Z" fill="#000000" fill-rule="evenodd" fill-opacity="1" /><path clip-path="url(#clip050)" d="M1957.25 1455.59 L1962.34 1455.59 Q1967.11 1463.1 1969.47 1470.29 Q1971.86 1477.49 1971.86 1484.59 Q1971.86 1491.72 1969.47 1498.94 Q1967.11 1506.17 1962.34 1513.65 L1957.25 1513.65 Q1961.48 1506.36 1963.55 1499.16 Q1965.65 1491.94 1965.65 1484.59 Q1965.65 1477.23 1963.55 1470.07 Q1961.48 1462.91 1957.25 1455.59 Z" fill="#000000" fill-rule="evenodd" fill-opacity="1" /><polyline clip-path="url(#clip053)" style="stroke:#000000; stroke-linecap:butt; stroke-linejoin:round; stroke-width:2; stroke-opacity:0.1; fill:none" points="
  1438.44,1326.97 2289.76,1326.97 
  "/>
<polyline clip-path="url(#clip053)" style="stroke:#000000; stroke-linecap:butt; stroke-linejoin:round; stroke-width:2; stroke-opacity:0.1; fill:none" points="
  1438.44,1050.15 2289.76,1050.15 
  "/>
<polyline clip-path="url(#clip053)" style="stroke:#000000; stroke-linecap:butt; stroke-linejoin:round; stroke-width:2; stroke-opacity:0.1; fill:none" points="
  1438.44,773.326 2289.76,773.326 
  "/>
<polyline clip-path="url(#clip053)" style="stroke:#000000; stroke-linecap:butt; stroke-linejoin:round; stroke-width:2; stroke-opacity:0.1; fill:none" points="
  1438.44,496.504 2289.76,496.504 
  "/>
<polyline clip-path="url(#clip053)" style="stroke:#000000; stroke-linecap:butt; stroke-linejoin:round; stroke-width:2; stroke-opacity:0.1; fill:none" points="
  1438.44,219.683 2289.76,219.683 
  "/>
<polyline clip-path="url(#clip050)" style="stroke:#000000; stroke-linecap:butt; stroke-linejoin:round; stroke-width:4; stroke-opacity:1; fill:none" points="
  1438.44,1360.19 1438.44,186.464 
  "/>
<polyline clip-path="url(#clip050)" style="stroke:#000000; stroke-linecap:butt; stroke-linejoin:round; stroke-width:4; stroke-opacity:1; fill:none" points="
  1438.44,1326.97 1457.33,1326.97 
  "/>
<polyline clip-path="url(#clip050)" style="stroke:#000000; stroke-linecap:butt; stroke-linejoin:round; stroke-width:4; stroke-opacity:1; fill:none" points="
  1438.44,1050.15 1457.33,1050.15 
  "/>
<polyline clip-path="url(#clip050)" style="stroke:#000000; stroke-linecap:butt; stroke-linejoin:round; stroke-width:4; stroke-opacity:1; fill:none" points="
  1438.44,773.326 1457.33,773.326 
  "/>
<polyline clip-path="url(#clip050)" style="stroke:#000000; stroke-linecap:butt; stroke-linejoin:round; stroke-width:4; stroke-opacity:1; fill:none" points="
  1438.44,496.504 1457.33,496.504 
  "/>
<polyline clip-path="url(#clip050)" style="stroke:#000000; stroke-linecap:butt; stroke-linejoin:round; stroke-width:4; stroke-opacity:1; fill:none" points="
  1438.44,219.683 1457.33,219.683 
  "/>
<path clip-path="url(#clip050)" d="M1390.49 1312.77 Q1386.88 1312.77 1385.05 1316.33 Q1383.25 1319.87 1383.25 1327 Q1383.25 1334.11 1385.05 1337.68 Q1386.88 1341.22 1390.49 1341.22 Q1394.13 1341.22 1395.93 1337.68 Q1397.76 1334.11 1397.76 1327 Q1397.76 1319.87 1395.93 1316.33 Q1394.13 1312.77 1390.49 1312.77 M1390.49 1309.06 Q1396.3 1309.06 1399.36 1313.67 Q1402.44 1318.25 1402.44 1327 Q1402.44 1335.73 1399.36 1340.34 Q1396.3 1344.92 1390.49 1344.92 Q1384.68 1344.92 1381.6 1340.34 Q1378.55 1335.73 1378.55 1327 Q1378.55 1318.25 1381.6 1313.67 Q1384.68 1309.06 1390.49 1309.06 Z" fill="#000000" fill-rule="evenodd" fill-opacity="1" /><path clip-path="url(#clip050)" d="M1382.53 1063.49 L1390.17 1063.49 L1390.17 1037.13 L1381.86 1038.79 L1381.86 1034.53 L1390.12 1032.87 L1394.8 1032.87 L1394.8 1063.49 L1402.44 1063.49 L1402.44 1067.43 L1382.53 1067.43 L1382.53 1063.49 Z" fill="#000000" fill-rule="evenodd" fill-opacity="1" /><path clip-path="url(#clip050)" d="M1386.12 786.671 L1402.44 786.671 L1402.44 790.606 L1380.49 790.606 L1380.49 786.671 Q1383.16 783.916 1387.74 779.287 Q1392.34 774.634 1393.53 773.291 Q1395.77 770.768 1396.65 769.032 Q1397.55 767.273 1397.55 765.583 Q1397.55 762.828 1395.61 761.092 Q1393.69 759.356 1390.59 759.356 Q1388.39 759.356 1385.93 760.12 Q1383.5 760.884 1380.72 762.435 L1380.72 757.713 Q1383.55 756.578 1386 756 Q1388.46 755.421 1390.49 755.421 Q1395.86 755.421 1399.06 758.106 Q1402.25 760.791 1402.25 765.282 Q1402.25 767.412 1401.44 769.333 Q1400.65 771.231 1398.55 773.824 Q1397.97 774.495 1394.87 777.713 Q1391.77 780.907 1386.12 786.671 Z" fill="#000000" fill-rule="evenodd" fill-opacity="1" /><path clip-path="url(#clip050)" d="M1395.31 495.15 Q1398.66 495.868 1400.54 498.136 Q1402.44 500.405 1402.44 503.738 Q1402.44 508.854 1398.92 511.655 Q1395.4 514.456 1388.92 514.456 Q1386.74 514.456 1384.43 514.016 Q1382.14 513.599 1379.68 512.743 L1379.68 508.229 Q1381.63 509.363 1383.94 509.942 Q1386.26 510.521 1388.78 510.521 Q1393.18 510.521 1395.47 508.784 Q1397.78 507.048 1397.78 503.738 Q1397.78 500.683 1395.63 498.97 Q1393.5 497.234 1389.68 497.234 L1385.66 497.234 L1385.66 493.391 L1389.87 493.391 Q1393.32 493.391 1395.15 492.025 Q1396.97 490.636 1396.97 488.044 Q1396.97 485.382 1395.08 483.97 Q1393.2 482.535 1389.68 482.535 Q1387.76 482.535 1385.56 482.951 Q1383.36 483.368 1380.72 484.248 L1380.72 480.081 Q1383.39 479.34 1385.7 478.97 Q1388.04 478.599 1390.1 478.599 Q1395.42 478.599 1398.53 481.03 Q1401.63 483.437 1401.63 487.558 Q1401.63 490.428 1399.98 492.419 Q1398.34 494.386 1395.31 495.15 Z" fill="#000000" fill-rule="evenodd" fill-opacity="1" /><path clip-path="url(#clip050)" d="M1392.85 206.477 L1381.05 224.926 L1392.85 224.926 L1392.85 206.477 M1391.63 202.403 L1397.51 202.403 L1397.51 224.926 L1402.44 224.926 L1402.44 228.815 L1397.51 228.815 L1397.51 236.963 L1392.85 236.963 L1392.85 228.815 L1377.25 228.815 L1377.25 224.301 L1391.63 202.403 Z" fill="#000000" fill-rule="evenodd" fill-opacity="1" /><path clip-path="url(#clip050)" d="M1291.35 871.851 L1291.35 844.033 L1296.7 844.033 L1322.32 866.058 L1322.32 844.033 L1327 844.033 L1327 872.647 L1321.65 872.647 L1296.03 850.622 L1296.03 871.851 L1291.35 871.851 Z" fill="#000000" fill-rule="evenodd" fill-opacity="1" /><path clip-path="url(#clip050)" d="M1277.53 800.301 Q1284.86 804.566 1292.02 806.635 Q1299.18 808.703 1306.53 808.703 Q1313.88 808.703 1321.11 806.635 Q1328.3 804.534 1335.59 800.301 L1335.59 805.393 Q1328.11 810.168 1320.89 812.555 Q1313.66 814.91 1306.53 814.91 Q1299.43 814.91 1292.24 812.555 Q1285.05 810.199 1277.53 805.393 L1277.53 800.301 Z" fill="#000000" fill-rule="evenodd" fill-opacity="1" /><path clip-path="url(#clip050)" d="M1277.47 789.161 L1277.47 783.272 L1306.72 783.272 L1291.35 765.799 L1291.35 758.319 L1308.03 777.225 L1327 757.523 L1327 765.162 L1309.59 783.272 L1327 783.272 L1327 789.161 L1277.47 789.161 Z" fill="#000000" fill-rule="evenodd" fill-opacity="1" /><path clip-path="url(#clip050)" d="M1298.19 723.435 Q1294.24 721.239 1292.37 718.183 Q1290.49 715.128 1290.49 710.99 Q1290.49 705.42 1294.4 702.396 Q1298.29 699.372 1305.48 699.372 L1327 699.372 L1327 705.261 L1305.67 705.261 Q1300.55 705.261 1298.06 707.075 Q1295.58 708.889 1295.58 712.613 Q1295.58 717.165 1298.61 719.806 Q1301.63 722.448 1306.85 722.448 L1327 722.448 L1327 728.336 L1305.67 728.336 Q1300.51 728.336 1298.06 730.151 Q1295.58 731.965 1295.58 735.752 Q1295.58 740.24 1298.64 742.882 Q1301.66 745.524 1306.85 745.524 L1327 745.524 L1327 751.412 L1291.35 751.412 L1291.35 745.524 L1296.89 745.524 Q1293.61 743.519 1292.05 740.718 Q1290.49 737.917 1290.49 734.065 Q1290.49 730.182 1292.46 727.477 Q1294.44 724.74 1298.19 723.435 Z" fill="#000000" fill-rule="evenodd" fill-opacity="1" /><path clip-path="url(#clip050)" d="M1277.53 688.614 L1277.53 683.522 Q1285.05 678.747 1292.24 676.392 Q1299.43 674.005 1306.53 674.005 Q1313.66 674.005 1320.89 676.392 Q1328.11 678.747 1335.59 683.522 L1335.59 688.614 Q1328.3 684.381 1321.11 682.312 Q1313.88 680.212 1306.53 680.212 Q1299.18 680.212 1292.02 682.312 Q1284.86 684.381 1277.53 688.614 Z" fill="#000000" fill-rule="evenodd" fill-opacity="1" /><path clip-path="url(#clip050)" d="M1734.45 65.7705 L1734.45 89.8329 L1726.96 89.8329 L1726.96 27.2059 L1734.45 27.2059 L1734.45 34.0924 Q1736.8 30.0415 1740.37 28.0971 Q1743.97 26.1121 1748.95 26.1121 Q1757.22 26.1121 1762.36 32.6746 Q1767.55 39.2371 1767.55 49.9314 Q1767.55 60.6258 1762.36 67.1883 Q1757.22 73.7508 1748.95 73.7508 Q1743.97 73.7508 1740.37 71.8063 Q1736.8 69.8214 1734.45 65.7705 M1759.81 49.9314 Q1759.81 41.7081 1756.41 37.0496 Q1753.05 32.3505 1747.13 32.3505 Q1741.22 32.3505 1737.81 37.0496 Q1734.45 41.7081 1734.45 49.9314 Q1734.45 58.1548 1737.81 62.8538 Q1741.22 67.5124 1747.13 67.5124 Q1753.05 67.5124 1756.41 62.8538 Q1759.81 58.1548 1759.81 49.9314 Z" fill="#000000" fill-rule="evenodd" fill-opacity="1" /><path clip-path="url(#clip050)" d="M1824.18 9.62495 Q1818.75 18.942 1816.12 28.0566 Q1813.48 37.1711 1813.48 46.5287 Q1813.48 55.8863 1816.12 65.0818 Q1818.79 74.2369 1824.18 83.5134 L1817.7 83.5134 Q1811.62 73.9938 1808.58 64.7983 Q1805.59 55.6027 1805.59 46.5287 Q1805.59 37.4952 1808.58 28.3401 Q1811.58 19.1851 1817.7 9.62495 L1824.18 9.62495 Z" fill="#000000" fill-rule="evenodd" fill-opacity="1" /><path clip-path="url(#clip050)" d="M1838.36 9.54393 L1845.85 9.54393 L1845.85 46.7717 L1868.09 27.2059 L1877.61 27.2059 L1853.55 48.4326 L1878.62 72.576 L1868.9 72.576 L1845.85 50.4176 L1845.85 72.576 L1838.36 72.576 L1838.36 9.54393 Z" fill="#000000" fill-rule="evenodd" fill-opacity="1" /><path clip-path="url(#clip050)" d="M1895.19 18.8205 L1895.19 41.5461 L1905.48 41.5461 Q1911.19 41.5461 1914.31 38.5889 Q1917.43 35.6318 1917.43 30.163 Q1917.43 24.7348 1914.31 21.7777 Q1911.19 18.8205 1905.48 18.8205 L1895.19 18.8205 M1887.01 12.096 L1905.48 12.096 Q1915.65 12.096 1920.83 16.714 Q1926.06 21.2916 1926.06 30.163 Q1926.06 39.1155 1920.83 43.6931 Q1915.65 48.2706 1905.48 48.2706 L1895.19 48.2706 L1895.19 72.576 L1887.01 72.576 L1887.01 12.096 Z" fill="#000000" fill-rule="evenodd" fill-opacity="1" /><path clip-path="url(#clip050)" d="M1953.61 49.7694 Q1944.57 49.7694 1941.09 51.8354 Q1937.6 53.9013 1937.6 58.8839 Q1937.6 62.8538 1940.2 65.2034 Q1942.83 67.5124 1947.33 67.5124 Q1953.52 67.5124 1957.25 63.1374 Q1961.02 58.7219 1961.02 51.4303 L1961.02 49.7694 L1953.61 49.7694 M1968.47 46.6907 L1968.47 72.576 L1961.02 72.576 L1961.02 65.6895 Q1958.47 69.8214 1954.66 71.8063 Q1950.85 73.7508 1945.34 73.7508 Q1938.37 73.7508 1934.24 69.8619 Q1930.15 65.9325 1930.15 59.3701 Q1930.15 51.7138 1935.25 47.825 Q1940.4 43.9361 1950.57 43.9361 L1961.02 43.9361 L1961.02 43.2069 Q1961.02 38.0623 1957.62 35.2672 Q1954.25 32.4315 1948.14 32.4315 Q1944.25 32.4315 1940.56 33.3632 Q1936.88 34.295 1933.47 36.1584 L1933.47 29.2718 Q1937.56 27.692 1941.41 26.9223 Q1945.26 26.1121 1948.91 26.1121 Q1958.75 26.1121 1963.61 31.2163 Q1968.47 36.3204 1968.47 46.6907 Z" fill="#000000" fill-rule="evenodd" fill-opacity="1" /><path clip-path="url(#clip050)" d="M1982.65 9.62495 L1989.13 9.62495 Q1995.21 19.1851 1998.21 28.3401 Q2001.24 37.4952 2001.24 46.5287 Q2001.24 55.6027 1998.21 64.7983 Q1995.21 73.9938 1989.13 83.5134 L1982.65 83.5134 Q1988.04 74.2369 1990.67 65.0818 Q1993.34 55.8863 1993.34 46.5287 Q1993.34 37.1711 1990.67 28.0566 Q1988.04 18.942 1982.65 9.62495 Z" fill="#000000" fill-rule="evenodd" fill-opacity="1" /><polyline clip-path="url(#clip053)" style="stroke:#009af9; stroke-linecap:butt; stroke-linejoin:round; stroke-width:4; stroke-opacity:1; fill:none" points="
  2259.61,1320.05 2247.54,1306.21 2235.52,1292.37 2223.56,1278.53 2211.66,1264.68 2199.82,1250.84 2188.03,1237 2176.3,1223.16 2164.62,1209.32 2153.01,1195.48 
  2141.44,1181.64 2129.94,1167.8 2118.49,1153.96 2107.09,1140.11 2095.75,1126.27 2084.47,1112.43 2073.24,1098.59 2062.06,1084.75 2050.94,1070.91 2039.87,1057.07 
  2028.86,1043.23 2017.89,1029.39 2006.99,1015.54 1996.13,1001.7 1985.33,987.863 1974.58,974.022 1963.89,960.181 1953.24,946.339 1942.65,932.498 1932.11,918.657 
  1921.62,904.816 1911.18,890.975 1900.8,877.134 1890.46,863.293 1880.18,849.452 1869.94,835.611 1859.76,821.77 1849.63,807.929 1839.54,794.088 1829.51,780.247 
  1819.53,766.405 1809.59,752.564 1799.7,738.723 1789.87,724.882 1780.08,711.041 1770.34,697.2 1760.65,683.359 1751,669.518 1741.41,655.677 1731.86,641.836 
  1722.36,627.995 1712.91,614.154 1703.5,600.313 1694.14,586.471 1684.83,572.63 1675.56,558.789 1666.34,544.948 1657.17,531.107 1648.04,517.266 1638.96,503.425 
  1629.92,489.584 1620.93,475.743 1611.99,461.902 1603.08,448.061 1594.23,434.22 1585.42,420.378 1576.65,406.537 1567.92,392.696 1559.25,378.855 1550.61,365.014 
  1542.02,351.173 1533.47,337.332 1524.96,323.491 1516.5,309.65 1508.08,295.809 1499.7,281.968 1491.37,268.127 1483.08,254.286 1474.83,240.444 1466.62,226.603 
  
  "/>
<polyline clip-path="url(#clip053)" style="stroke:#e26f46; stroke-linecap:butt; stroke-linejoin:round; stroke-width:4; stroke-opacity:1; fill:none" points="
  2265.67,1326.97 2253.57,1313.13 2241.52,1299.29 2229.53,1285.45 2217.6,1271.6 2205.73,1257.76 2193.92,1243.92 2182.16,1230.08 2170.45,1216.24 2158.81,1202.4 
  2147.22,1188.56 2135.68,1174.72 2124.21,1160.88 2112.78,1147.04 2101.42,1133.19 2090.1,1119.35 2078.85,1105.51 2067.64,1091.67 2056.49,1077.83 2045.4,1063.99 
  2034.36,1050.15 2023.37,1036.31 2012.43,1022.47 2001.55,1008.62 1990.73,994.783 1979.95,980.942 1969.23,967.101 1958.56,953.26 1947.94,939.419 1937.37,925.578 
  1926.86,911.737 1916.4,897.896 1905.98,884.055 1895.62,870.214 1885.31,856.372 1875.05,842.531 1864.85,828.69 1854.69,814.849 1844.58,801.008 1834.52,787.167 
  1824.51,773.326 1814.55,759.485 1804.64,745.644 1794.78,731.803 1784.97,717.962 1775.2,704.121 1765.49,690.28 1755.82,676.438 1746.2,662.597 1736.63,648.756 
  1727.1,634.915 1717.63,621.074 1708.2,607.233 1698.82,593.392 1689.48,579.551 1680.19,565.71 1670.95,551.869 1661.75,538.028 1652.6,524.187 1643.5,510.345 
  1634.44,496.504 1625.42,482.663 1616.45,468.822 1607.53,454.981 1598.65,441.14 1589.82,427.299 1581.03,413.458 1572.28,399.617 1563.58,385.776 1554.92,371.935 
  1546.31,358.094 1537.74,344.253 1529.21,330.411 1520.73,316.57 1512.29,302.729 1503.89,288.888 1495.53,275.047 1487.22,261.206 1478.95,247.365 1470.72,233.524 
  1462.53,219.683 
  "/>
<path clip-path="url(#clip050)" d="
M1994.5 381.108 L2261.39 381.108 L2261.39 225.588 L1994.5 225.588  Z
  " fill="#ffffff" fill-rule="evenodd" fill-opacity="1"/>
<polyline clip-path="url(#clip050)" style="stroke:#000000; stroke-linecap:butt; stroke-linejoin:round; stroke-width:4; stroke-opacity:1; fill:none" points="
  1994.5,381.108 2261.39,381.108 2261.39,225.588 1994.5,225.588 1994.5,381.108 
  "/>
<polyline clip-path="url(#clip050)" style="stroke:#009af9; stroke-linecap:butt; stroke-linejoin:round; stroke-width:4; stroke-opacity:1; fill:none" points="
  2003.96,277.428 2060.72,277.428 
  "/>
<path clip-path="url(#clip050)" d="M2090.69 269.778 L2090.69 273.759 Q2088.88 272.764 2087.05 272.278 Q2085.25 271.769 2083.39 271.769 Q2079.25 271.769 2076.96 274.408 Q2074.67 277.023 2074.67 281.769 Q2074.67 286.514 2076.96 289.153 Q2079.25 291.769 2083.39 291.769 Q2085.25 291.769 2087.05 291.282 Q2088.88 290.773 2090.69 289.778 L2090.69 293.713 Q2088.9 294.546 2086.98 294.963 Q2085.08 295.38 2082.93 295.38 Q2077.08 295.38 2073.63 291.699 Q2070.18 288.019 2070.18 281.769 Q2070.18 275.426 2073.65 271.792 Q2077.14 268.158 2083.21 268.158 Q2085.18 268.158 2087.05 268.574 Q2088.93 268.968 2090.69 269.778 Z" fill="#000000" fill-rule="evenodd" fill-opacity="1" /><path clip-path="url(#clip050)" d="M2120.27 280.681 L2120.27 282.764 L2100.69 282.764 Q2100.96 287.162 2103.33 289.477 Q2105.71 291.769 2109.95 291.769 Q2112.4 291.769 2114.69 291.167 Q2117.01 290.565 2119.27 289.361 L2119.27 293.389 Q2116.98 294.361 2114.58 294.87 Q2112.17 295.38 2109.69 295.38 Q2103.49 295.38 2099.85 291.769 Q2096.24 288.157 2096.24 282 Q2096.24 275.634 2099.67 271.908 Q2103.12 268.158 2108.95 268.158 Q2114.18 268.158 2117.21 271.537 Q2120.27 274.894 2120.27 280.681 M2116.01 279.431 Q2115.96 275.935 2114.04 273.852 Q2112.14 271.769 2109 271.769 Q2105.43 271.769 2103.28 273.783 Q2101.15 275.796 2100.83 279.454 L2116.01 279.431 Z" fill="#000000" fill-rule="evenodd" fill-opacity="1" /><path clip-path="url(#clip050)" d="M2148.81 279.06 L2148.81 294.708 L2144.55 294.708 L2144.55 279.199 Q2144.55 275.519 2143.12 273.69 Q2141.68 271.861 2138.81 271.861 Q2135.36 271.861 2133.37 274.06 Q2131.38 276.259 2131.38 280.056 L2131.38 294.708 L2127.1 294.708 L2127.1 268.783 L2131.38 268.783 L2131.38 272.81 Q2132.91 270.472 2134.97 269.315 Q2137.05 268.158 2139.76 268.158 Q2144.23 268.158 2146.52 270.935 Q2148.81 273.69 2148.81 279.06 Z" fill="#000000" fill-rule="evenodd" fill-opacity="1" /><path clip-path="url(#clip050)" d="M2161.52 261.422 L2161.52 268.783 L2170.29 268.783 L2170.29 272.093 L2161.52 272.093 L2161.52 286.167 Q2161.52 289.338 2162.38 290.241 Q2163.26 291.144 2165.92 291.144 L2170.29 291.144 L2170.29 294.708 L2165.92 294.708 Q2160.99 294.708 2159.11 292.88 Q2157.24 291.028 2157.24 286.167 L2157.24 272.093 L2154.11 272.093 L2154.11 268.783 L2157.24 268.783 L2157.24 261.422 L2161.52 261.422 Z" fill="#000000" fill-rule="evenodd" fill-opacity="1" /><path clip-path="url(#clip050)" d="M2198.07 280.681 L2198.07 282.764 L2178.49 282.764 Q2178.76 287.162 2181.13 289.477 Q2183.51 291.769 2187.75 291.769 Q2190.2 291.769 2192.49 291.167 Q2194.81 290.565 2197.07 289.361 L2197.07 293.389 Q2194.78 294.361 2192.38 294.87 Q2189.97 295.38 2187.49 295.38 Q2181.29 295.38 2177.65 291.769 Q2174.04 288.157 2174.04 282 Q2174.04 275.634 2177.47 271.908 Q2180.92 268.158 2186.75 268.158 Q2191.98 268.158 2195.01 271.537 Q2198.07 274.894 2198.07 280.681 M2193.81 279.431 Q2193.76 275.935 2191.84 273.852 Q2189.94 271.769 2186.8 271.769 Q2183.23 271.769 2181.08 273.783 Q2178.95 275.796 2178.63 279.454 L2193.81 279.431 Z" fill="#000000" fill-rule="evenodd" fill-opacity="1" /><path clip-path="url(#clip050)" d="M2220.08 272.764 Q2219.37 272.347 2218.51 272.162 Q2217.68 271.954 2216.66 271.954 Q2213.05 271.954 2211.1 274.315 Q2209.18 276.653 2209.18 281.051 L2209.18 294.708 L2204.9 294.708 L2204.9 268.783 L2209.18 268.783 L2209.18 272.81 Q2210.52 270.449 2212.68 269.315 Q2214.83 268.158 2217.91 268.158 Q2218.35 268.158 2218.88 268.227 Q2219.41 268.273 2220.06 268.389 L2220.08 272.764 Z" fill="#000000" fill-rule="evenodd" fill-opacity="1" /><path clip-path="url(#clip050)" d="M2241.08 269.546 L2241.08 273.574 Q2239.27 272.648 2237.33 272.185 Q2235.38 271.722 2233.3 271.722 Q2230.13 271.722 2228.53 272.695 Q2226.96 273.667 2226.96 275.611 Q2226.96 277.093 2228.09 277.949 Q2229.23 278.783 2232.65 279.546 L2234.11 279.87 Q2238.65 280.843 2240.55 282.625 Q2242.47 284.384 2242.47 287.556 Q2242.47 291.167 2239.6 293.273 Q2236.75 295.38 2231.75 295.38 Q2229.67 295.38 2227.4 294.963 Q2225.15 294.569 2222.65 293.759 L2222.65 289.361 Q2225.01 290.588 2227.31 291.213 Q2229.6 291.815 2231.84 291.815 Q2234.85 291.815 2236.47 290.796 Q2238.09 289.755 2238.09 287.88 Q2238.09 286.144 2236.91 285.218 Q2235.75 284.292 2231.8 283.435 L2230.32 283.088 Q2226.36 282.255 2224.6 280.542 Q2222.84 278.806 2222.84 275.796 Q2222.84 272.139 2225.43 270.148 Q2228.02 268.158 2232.79 268.158 Q2235.15 268.158 2237.24 268.505 Q2239.32 268.852 2241.08 269.546 Z" fill="#000000" fill-rule="evenodd" fill-opacity="1" /><polyline clip-path="url(#clip050)" style="stroke:#e26f46; stroke-linecap:butt; stroke-linejoin:round; stroke-width:4; stroke-opacity:1; fill:none" points="
  2003.96,329.268 2060.72,329.268 
  "/>
<path clip-path="url(#clip050)" d="M2086.68 310.53 L2086.68 314.072 L2082.61 314.072 Q2080.32 314.072 2079.41 314.998 Q2078.53 315.924 2078.53 318.331 L2078.53 320.623 L2085.55 320.623 L2085.55 323.933 L2078.53 323.933 L2078.53 346.548 L2074.25 346.548 L2074.25 323.933 L2070.18 323.933 L2070.18 320.623 L2074.25 320.623 L2074.25 318.817 Q2074.25 314.488 2076.27 312.521 Q2078.28 310.53 2082.65 310.53 L2086.68 310.53 Z" fill="#000000" fill-rule="evenodd" fill-opacity="1" /><path clip-path="url(#clip050)" d="M2102.03 333.516 Q2096.87 333.516 2094.88 334.697 Q2092.89 335.877 2092.89 338.724 Q2092.89 340.993 2094.37 342.335 Q2095.87 343.655 2098.44 343.655 Q2101.98 343.655 2104.11 341.155 Q2106.26 338.632 2106.26 334.465 L2106.26 333.516 L2102.03 333.516 M2110.52 331.757 L2110.52 346.548 L2106.26 346.548 L2106.26 342.613 Q2104.81 344.974 2102.63 346.109 Q2100.45 347.22 2097.31 347.22 Q2093.33 347.22 2090.96 344.997 Q2088.63 342.752 2088.63 339.002 Q2088.63 334.627 2091.54 332.405 Q2094.48 330.183 2100.29 330.183 L2106.26 330.183 L2106.26 329.766 Q2106.26 326.826 2104.32 325.229 Q2102.4 323.609 2098.9 323.609 Q2096.68 323.609 2094.58 324.141 Q2092.47 324.673 2090.52 325.738 L2090.52 321.803 Q2092.86 320.9 2095.06 320.461 Q2097.26 319.998 2099.34 319.998 Q2104.97 319.998 2107.75 322.914 Q2110.52 325.831 2110.52 331.757 Z" fill="#000000" fill-rule="evenodd" fill-opacity="1" /><path clip-path="url(#clip050)" d="M2137.95 321.618 L2137.95 325.599 Q2136.15 324.604 2134.32 324.118 Q2132.51 323.609 2130.66 323.609 Q2126.52 323.609 2124.23 326.248 Q2121.94 328.863 2121.94 333.609 Q2121.94 338.354 2124.23 340.993 Q2126.52 343.609 2130.66 343.609 Q2132.51 343.609 2134.32 343.122 Q2136.15 342.613 2137.95 341.618 L2137.95 345.553 Q2136.17 346.386 2134.25 346.803 Q2132.35 347.22 2130.2 347.22 Q2124.34 347.22 2120.89 343.539 Q2117.45 339.859 2117.45 333.609 Q2117.45 327.266 2120.92 323.632 Q2124.41 319.998 2130.48 319.998 Q2132.45 319.998 2134.32 320.414 Q2136.2 320.808 2137.95 321.618 Z" fill="#000000" fill-rule="evenodd" fill-opacity="1" /><path clip-path="url(#clip050)" d="M2167.54 332.521 L2167.54 334.604 L2147.95 334.604 Q2148.23 339.002 2150.59 341.317 Q2152.98 343.609 2157.21 343.609 Q2159.67 343.609 2161.96 343.007 Q2164.27 342.405 2166.54 341.201 L2166.54 345.229 Q2164.25 346.201 2161.84 346.71 Q2159.44 347.22 2156.96 347.22 Q2150.76 347.22 2147.12 343.609 Q2143.51 339.997 2143.51 333.84 Q2143.51 327.474 2146.94 323.748 Q2150.39 319.998 2156.22 319.998 Q2161.45 319.998 2164.48 323.377 Q2167.54 326.734 2167.54 332.521 M2163.28 331.271 Q2163.23 327.775 2161.31 325.692 Q2159.41 323.609 2156.26 323.609 Q2152.7 323.609 2150.55 325.623 Q2148.42 327.636 2148.09 331.294 L2163.28 331.271 Z" fill="#000000" fill-rule="evenodd" fill-opacity="1" /><path clip-path="url(#clip050)" d="M2191.06 321.386 L2191.06 325.414 Q2189.25 324.488 2187.31 324.025 Q2185.36 323.562 2183.28 323.562 Q2180.11 323.562 2178.51 324.535 Q2176.94 325.507 2176.94 327.451 Q2176.94 328.933 2178.07 329.789 Q2179.2 330.623 2182.63 331.386 L2184.09 331.71 Q2188.63 332.683 2190.52 334.465 Q2192.44 336.224 2192.44 339.396 Q2192.44 343.007 2189.57 345.113 Q2186.73 347.22 2181.73 347.22 Q2179.64 347.22 2177.38 346.803 Q2175.13 346.409 2172.63 345.599 L2172.63 341.201 Q2174.99 342.428 2177.28 343.053 Q2179.57 343.655 2181.82 343.655 Q2184.83 343.655 2186.45 342.636 Q2188.07 341.595 2188.07 339.72 Q2188.07 337.984 2186.89 337.058 Q2185.73 336.132 2181.77 335.275 L2180.29 334.928 Q2176.33 334.095 2174.57 332.382 Q2172.82 330.646 2172.82 327.636 Q2172.82 323.979 2175.41 321.988 Q2178 319.998 2182.77 319.998 Q2185.13 319.998 2187.21 320.345 Q2189.3 320.692 2191.06 321.386 Z" fill="#000000" fill-rule="evenodd" fill-opacity="1" /></svg>
