<?xml version="1.0" encoding="utf-8"?>
<svg xmlns="http://www.w3.org/2000/svg" xmlns:xlink="http://www.w3.org/1999/xlink" width="1000" height="400" viewBox="0 0 4000 1600">
<defs>
  <clipPath id="clip620">
    <rect x="0" y="0" width="4000" height="1600"/>
  </clipPath>
</defs>
<path clip-path="url(#clip620)" d="
M0 1600 L4000 1600 L4000 0 L0 0  Z
  " fill="#ffffff" fill-rule="evenodd" fill-opacity="1"/>
<defs>
  <clipPath id="clip621">
    <rect x="800" y="0" width="2801" height="1600"/>
  </clipPath>
</defs>
<path clip-path="url(#clip620)" d="
M262.212 1393.02 L1889.76 1393.02 L1889.76 162.272 L262.212 162.272  Z
  " fill="#ffffff" fill-rule="evenodd" fill-opacity="1"/>
<defs>
  <clipPath id="clip622">
    <rect x="262" y="162" width="1629" height="1232"/>
  </clipPath>
</defs>
<polyline clip-path="url(#clip622)" style="stroke:#000000; stroke-linecap:butt; stroke-linejoin:round; stroke-width:2; stroke-opacity:0.1; fill:none" points="
  325.032,1393.02 325.032,162.272 
  "/>
<polyline clip-path="url(#clip622)" style="stroke:#000000; stroke-linecap:butt; stroke-linejoin:round; stroke-width:2; stroke-opacity:0.1; fill:none" points="
  644.416,1393.02 644.416,162.272 
  "/>
<polyline clip-path="url(#clip622)" style="stroke:#000000; stroke-linecap:butt; stroke-linejoin:round; stroke-width:2; stroke-opacity:0.1; fill:none" points="
  963.8,1393.02 963.8,162.272 
  "/>
<polyline clip-path="url(#clip622)" style="stroke:#000000; stroke-linecap:butt; stroke-linejoin:round; stroke-width:2; stroke-opacity:0.1; fill:none" points="
  1283.18,1393.02 1283.18,162.272 
  "/>
<polyline clip-path="url(#clip622)" style="stroke:#000000; stroke-linecap:butt; stroke-linejoin:round; stroke-width:2; stroke-opacity:0.1; fill:none" points="
  1602.57,1393.02 1602.57,162.272 
  "/>
<polyline clip-path="url(#clip620)" style="stroke:#000000; stroke-linecap:butt; stroke-linejoin:round; stroke-width:4; stroke-opacity:1; fill:none" points="
  262.212,1393.02 1889.76,1393.02 
  "/>
<polyline clip-path="url(#clip620)" style="stroke:#000000; stroke-linecap:butt; stroke-linejoin:round; stroke-width:4; stroke-opacity:1; fill:none" points="
  325.032,1393.02 325.032,1374.12 
  "/>
<polyline clip-path="url(#clip620)" style="stroke:#000000; stroke-linecap:butt; stroke-linejoin:round; stroke-width:4; stroke-opacity:1; fill:none" points="
  644.416,1393.02 644.416,1374.12 
  "/>
<polyline clip-path="url(#clip620)" style="stroke:#000000; stroke-linecap:butt; stroke-linejoin:round; stroke-width:4; stroke-opacity:1; fill:none" points="
  963.8,1393.02 963.8,1374.12 
  "/>
<polyline clip-path="url(#clip620)" style="stroke:#000000; stroke-linecap:butt; stroke-linejoin:round; stroke-width:4; stroke-opacity:1; fill:none" points="
  1283.18,1393.02 1283.18,1374.12 
  "/>
<polyline clip-path="url(#clip620)" style="stroke:#000000; stroke-linecap:butt; stroke-linejoin:round; stroke-width:4; stroke-opacity:1; fill:none" points="
  1602.57,1393.02 1602.57,1374.12 
  "/>
<path clip-path="url(#clip620)" d="M303.215 1436.74 Q299.604 1436.74 297.776 1440.3 Q295.97 1443.84 295.97 1450.97 Q295.97 1458.08 297.776 1461.65 Q299.604 1465.19 303.215 1465.19 Q306.85 1465.19 308.655 1461.65 Q310.484 1458.08 310.484 1450.97 Q310.484 1443.84 308.655 1440.3 Q306.85 1436.74 303.215 1436.74 M303.215 1433.03 Q309.026 1433.03 312.081 1437.64 Q315.16 1442.22 315.16 1450.97 Q315.16 1459.7 312.081 1464.31 Q309.026 1468.89 303.215 1468.89 Q297.405 1468.89 294.327 1464.31 Q291.271 1459.7 291.271 1450.97 Q291.271 1442.22 294.327 1437.64 Q297.405 1433.03 303.215 1433.03 Z" fill="#000000" fill-rule="evenodd" fill-opacity="1" /><path clip-path="url(#clip620)" d="M323.377 1462.34 L328.262 1462.34 L328.262 1468.22 L323.377 1468.22 L323.377 1462.34 Z" fill="#000000" fill-rule="evenodd" fill-opacity="1" /><path clip-path="url(#clip620)" d="M342.474 1464.28 L358.794 1464.28 L358.794 1468.22 L336.85 1468.22 L336.85 1464.28 Q339.512 1461.53 344.095 1456.9 Q348.701 1452.25 349.882 1450.9 Q352.127 1448.38 353.007 1446.65 Q353.91 1444.89 353.91 1443.2 Q353.91 1440.44 351.965 1438.71 Q350.044 1436.97 346.942 1436.97 Q344.743 1436.97 342.289 1437.73 Q339.859 1438.5 337.081 1440.05 L337.081 1435.33 Q339.905 1434.19 342.359 1433.61 Q344.812 1433.03 346.849 1433.03 Q352.22 1433.03 355.414 1435.72 Q358.609 1438.41 358.609 1442.9 Q358.609 1445.03 357.798 1446.95 Q357.011 1448.84 354.905 1451.44 Q354.326 1452.11 351.224 1455.33 Q348.123 1458.52 342.474 1464.28 Z" fill="#000000" fill-rule="evenodd" fill-opacity="1" /><path clip-path="url(#clip620)" d="M621.558 1436.74 Q617.947 1436.74 616.118 1440.3 Q614.312 1443.84 614.312 1450.97 Q614.312 1458.08 616.118 1461.65 Q617.947 1465.19 621.558 1465.19 Q625.192 1465.19 626.998 1461.65 Q628.826 1458.08 628.826 1450.97 Q628.826 1443.84 626.998 1440.3 Q625.192 1436.74 621.558 1436.74 M621.558 1433.03 Q627.368 1433.03 630.423 1437.64 Q633.502 1442.22 633.502 1450.97 Q633.502 1459.7 630.423 1464.31 Q627.368 1468.89 621.558 1468.89 Q615.748 1468.89 612.669 1464.31 Q609.613 1459.7 609.613 1450.97 Q609.613 1442.22 612.669 1437.64 Q615.748 1433.03 621.558 1433.03 Z" fill="#000000" fill-rule="evenodd" fill-opacity="1" /><path clip-path="url(#clip620)" d="M641.72 1462.34 L646.604 1462.34 L646.604 1468.22 L641.72 1468.22 L641.72 1462.34 Z" fill="#000000" fill-rule="evenodd" fill-opacity="1" /><path clip-path="url(#clip620)" d="M669.636 1437.73 L657.831 1456.18 L669.636 1456.18 L669.636 1437.73 M668.409 1433.66 L674.289 1433.66 L674.289 1456.18 L679.219 1456.18 L679.219 1460.07 L674.289 1460.07 L674.289 1468.22 L669.636 1468.22 L669.636 1460.07 L654.034 1460.07 L654.034 1455.56 L668.409 1433.66 Z" fill="#000000" fill-rule="evenodd" fill-opacity="1" /><path clip-path="url(#clip620)" d="M941.104 1436.74 Q937.493 1436.74 935.664 1440.3 Q933.858 1443.84 933.858 1450.97 Q933.858 1458.08 935.664 1461.65 Q937.493 1465.19 941.104 1465.19 Q944.738 1465.19 946.544 1461.65 Q948.372 1458.08 948.372 1450.97 Q948.372 1443.84 946.544 1440.3 Q944.738 1436.74 941.104 1436.74 M941.104 1433.03 Q946.914 1433.03 949.969 1437.64 Q953.048 1442.22 953.048 1450.97 Q953.048 1459.7 949.969 1464.31 Q946.914 1468.89 941.104 1468.89 Q935.294 1468.89 932.215 1464.31 Q929.159 1459.7 929.159 1450.97 Q929.159 1442.22 932.215 1437.64 Q935.294 1433.03 941.104 1433.03 Z" fill="#000000" fill-rule="evenodd" fill-opacity="1" /><path clip-path="url(#clip620)" d="M961.266 1462.34 L966.15 1462.34 L966.15 1468.22 L961.266 1468.22 L961.266 1462.34 Z" fill="#000000" fill-rule="evenodd" fill-opacity="1" /><path clip-path="url(#clip620)" d="M986.914 1449.08 Q983.766 1449.08 981.914 1451.23 Q980.085 1453.38 980.085 1457.13 Q980.085 1460.86 981.914 1463.03 Q983.766 1465.19 986.914 1465.19 Q990.062 1465.19 991.891 1463.03 Q993.742 1460.86 993.742 1457.13 Q993.742 1453.38 991.891 1451.23 Q990.062 1449.08 986.914 1449.08 M996.196 1434.42 L996.196 1438.68 Q994.437 1437.85 992.631 1437.41 Q990.849 1436.97 989.09 1436.97 Q984.46 1436.97 982.006 1440.09 Q979.576 1443.22 979.229 1449.54 Q980.594 1447.53 982.654 1446.46 Q984.715 1445.37 987.191 1445.37 Q992.4 1445.37 995.409 1448.54 Q998.441 1451.69 998.441 1457.13 Q998.441 1462.46 995.293 1465.67 Q992.145 1468.89 986.914 1468.89 Q980.918 1468.89 977.747 1464.31 Q974.576 1459.7 974.576 1450.97 Q974.576 1442.78 978.465 1437.92 Q982.354 1433.03 988.904 1433.03 Q990.664 1433.03 992.446 1433.38 Q994.252 1433.73 996.196 1434.42 Z" fill="#000000" fill-rule="evenodd" fill-opacity="1" /><path clip-path="url(#clip620)" d="M1260.62 1436.74 Q1257 1436.74 1255.18 1440.3 Q1253.37 1443.84 1253.37 1450.97 Q1253.37 1458.08 1255.18 1461.65 Q1257 1465.19 1260.62 1465.19 Q1264.25 1465.19 1266.05 1461.65 Q1267.88 1458.08 1267.88 1450.97 Q1267.88 1443.84 1266.05 1440.3 Q1264.25 1436.74 1260.62 1436.74 M1260.62 1433.03 Q1266.43 1433.03 1269.48 1437.64 Q1272.56 1442.22 1272.56 1450.97 Q1272.56 1459.7 1269.48 1464.31 Q1266.43 1468.89 1260.62 1468.89 Q1254.8 1468.89 1251.73 1464.31 Q1248.67 1459.7 1248.67 1450.97 Q1248.67 1442.22 1251.73 1437.64 Q1254.8 1433.03 1260.62 1433.03 Z" fill="#000000" fill-rule="evenodd" fill-opacity="1" /><path clip-path="url(#clip620)" d="M1280.78 1462.34 L1285.66 1462.34 L1285.66 1468.22 L1280.78 1468.22 L1280.78 1462.34 Z" fill="#000000" fill-rule="evenodd" fill-opacity="1" /><path clip-path="url(#clip620)" d="M1305.85 1451.81 Q1302.51 1451.81 1300.59 1453.59 Q1298.69 1455.37 1298.69 1458.5 Q1298.69 1461.62 1300.59 1463.4 Q1302.51 1465.19 1305.85 1465.19 Q1309.18 1465.19 1311.1 1463.4 Q1313.02 1461.6 1313.02 1458.5 Q1313.02 1455.37 1311.1 1453.59 Q1309.2 1451.81 1305.85 1451.81 M1301.17 1449.82 Q1298.16 1449.08 1296.47 1447.02 Q1294.8 1444.96 1294.8 1441.99 Q1294.8 1437.85 1297.74 1435.44 Q1300.71 1433.03 1305.85 1433.03 Q1311.01 1433.03 1313.95 1435.44 Q1316.89 1437.85 1316.89 1441.99 Q1316.89 1444.96 1315.2 1447.02 Q1313.53 1449.08 1310.55 1449.82 Q1313.92 1450.6 1315.8 1452.9 Q1317.7 1455.19 1317.7 1458.5 Q1317.7 1463.52 1314.62 1466.21 Q1311.56 1468.89 1305.85 1468.89 Q1300.13 1468.89 1297.05 1466.21 Q1293.99 1463.52 1293.99 1458.5 Q1293.99 1455.19 1295.89 1452.9 Q1297.79 1450.6 1301.17 1449.82 M1299.46 1442.43 Q1299.46 1445.12 1301.12 1446.62 Q1302.81 1448.13 1305.85 1448.13 Q1308.86 1448.13 1310.55 1446.62 Q1312.26 1445.12 1312.26 1442.43 Q1312.26 1439.75 1310.55 1438.24 Q1308.86 1436.74 1305.85 1436.74 Q1302.81 1436.74 1301.12 1438.24 Q1299.46 1439.75 1299.46 1442.43 Z" fill="#000000" fill-rule="evenodd" fill-opacity="1" /><path clip-path="url(#clip620)" d="M1569.72 1464.28 L1577.36 1464.28 L1577.36 1437.92 L1569.05 1439.59 L1569.05 1435.33 L1577.31 1433.66 L1581.99 1433.66 L1581.99 1464.28 L1589.63 1464.28 L1589.63 1468.22 L1569.72 1468.22 L1569.72 1464.28 Z" fill="#000000" fill-rule="evenodd" fill-opacity="1" /><path clip-path="url(#clip620)" d="M1599.07 1462.34 L1603.96 1462.34 L1603.96 1468.22 L1599.07 1468.22 L1599.07 1462.34 Z" fill="#000000" fill-rule="evenodd" fill-opacity="1" /><path clip-path="url(#clip620)" d="M1624.14 1436.74 Q1620.53 1436.74 1618.7 1440.3 Q1616.9 1443.84 1616.9 1450.97 Q1616.9 1458.08 1618.7 1461.65 Q1620.53 1465.19 1624.14 1465.19 Q1627.78 1465.19 1629.58 1461.65 Q1631.41 1458.08 1631.41 1450.97 Q1631.41 1443.84 1629.58 1440.3 Q1627.78 1436.74 1624.14 1436.74 M1624.14 1433.03 Q1629.95 1433.03 1633.01 1437.64 Q1636.09 1442.22 1636.09 1450.97 Q1636.09 1459.7 1633.01 1464.31 Q1629.95 1468.89 1624.14 1468.89 Q1618.33 1468.89 1615.25 1464.31 Q1612.2 1459.7 1612.2 1450.97 Q1612.2 1442.22 1615.25 1437.64 Q1618.33 1433.03 1624.14 1433.03 Z" fill="#000000" fill-rule="evenodd" fill-opacity="1" /><path clip-path="url(#clip620)" d="M1062.91 1532.6 Q1064.85 1529.35 1069.65 1526.49 Q1071.53 1525.38 1077.32 1525.38 Q1083.82 1525.38 1087.86 1530.53 Q1091.93 1535.69 1091.93 1544.09 Q1091.93 1552.49 1087.86 1557.65 Q1083.82 1562.81 1077.32 1562.81 Q1073.41 1562.81 1070.58 1561.28 Q1067.78 1559.72 1065.93 1556.54 L1065.93 1575.44 L1060.04 1575.44 L1060.04 1544.41 Q1060.04 1537.06 1062.91 1532.6 M1085.85 1544.09 Q1085.85 1537.63 1083.18 1533.97 Q1080.54 1530.28 1075.89 1530.28 Q1071.25 1530.28 1068.57 1533.97 Q1065.93 1537.63 1065.93 1544.09 Q1065.93 1550.55 1068.57 1554.24 Q1071.25 1557.91 1075.89 1557.91 Q1080.54 1557.91 1083.18 1554.24 Q1085.85 1550.55 1085.85 1544.09 Z" fill="#000000" fill-rule="evenodd" fill-opacity="1" /><polyline clip-path="url(#clip622)" style="stroke:#000000; stroke-linecap:butt; stroke-linejoin:round; stroke-width:2; stroke-opacity:0.1; fill:none" points="
  262.212,1358.19 1889.76,1358.19 
  "/>
<polyline clip-path="url(#clip622)" style="stroke:#000000; stroke-linecap:butt; stroke-linejoin:round; stroke-width:2; stroke-opacity:0.1; fill:none" points="
  262.212,1004.2 1889.76,1004.2 
  "/>
<polyline clip-path="url(#clip622)" style="stroke:#000000; stroke-linecap:butt; stroke-linejoin:round; stroke-width:2; stroke-opacity:0.1; fill:none" points="
  262.212,650.21 1889.76,650.21 
  "/>
<polyline clip-path="url(#clip622)" style="stroke:#000000; stroke-linecap:butt; stroke-linejoin:round; stroke-width:2; stroke-opacity:0.1; fill:none" points="
  262.212,296.222 1889.76,296.222 
  "/>
<polyline clip-path="url(#clip620)" style="stroke:#000000; stroke-linecap:butt; stroke-linejoin:round; stroke-width:4; stroke-opacity:1; fill:none" points="
  262.212,1393.02 262.212,162.272 
  "/>
<polyline clip-path="url(#clip620)" style="stroke:#000000; stroke-linecap:butt; stroke-linejoin:round; stroke-width:4; stroke-opacity:1; fill:none" points="
  262.212,1358.19 281.109,1358.19 
  "/>
<polyline clip-path="url(#clip620)" style="stroke:#000000; stroke-linecap:butt; stroke-linejoin:round; stroke-width:4; stroke-opacity:1; fill:none" points="
  262.212,1004.2 281.109,1004.2 
  "/>
<polyline clip-path="url(#clip620)" style="stroke:#000000; stroke-linecap:butt; stroke-linejoin:round; stroke-width:4; stroke-opacity:1; fill:none" points="
  262.212,650.21 281.109,650.21 
  "/>
<polyline clip-path="url(#clip620)" style="stroke:#000000; stroke-linecap:butt; stroke-linejoin:round; stroke-width:4; stroke-opacity:1; fill:none" points="
  262.212,296.222 281.109,296.222 
  "/>
<path clip-path="url(#clip620)" d="M190.267 1343.99 Q186.656 1343.99 184.827 1347.55 Q183.022 1351.09 183.022 1358.22 Q183.022 1365.33 184.827 1368.89 Q186.656 1372.43 190.267 1372.43 Q193.901 1372.43 195.707 1368.89 Q197.536 1365.33 197.536 1358.22 Q197.536 1351.09 195.707 1347.55 Q193.901 1343.99 190.267 1343.99 M190.267 1340.28 Q196.077 1340.28 199.133 1344.89 Q202.212 1349.47 202.212 1358.22 Q202.212 1366.95 199.133 1371.56 Q196.077 1376.14 190.267 1376.14 Q184.457 1376.14 181.378 1371.56 Q178.323 1366.95 178.323 1358.22 Q178.323 1349.47 181.378 1344.89 Q184.457 1340.28 190.267 1340.28 Z" fill="#000000" fill-rule="evenodd" fill-opacity="1" /><path clip-path="url(#clip620)" d="M181.309 986.919 L199.665 986.919 L199.665 990.854 L185.591 990.854 L185.591 999.326 Q186.61 998.979 187.628 998.817 Q188.647 998.632 189.665 998.632 Q195.452 998.632 198.832 1001.8 Q202.212 1004.97 202.212 1010.39 Q202.212 1015.97 198.739 1019.07 Q195.267 1022.15 188.948 1022.15 Q186.772 1022.15 184.503 1021.78 Q182.258 1021.41 179.851 1020.67 L179.851 1015.97 Q181.934 1017.1 184.156 1017.66 Q186.378 1018.21 188.855 1018.21 Q192.86 1018.21 195.198 1016.11 Q197.536 1014 197.536 1010.39 Q197.536 1006.78 195.198 1004.67 Q192.86 1002.57 188.855 1002.57 Q186.98 1002.57 185.105 1002.98 Q183.253 1003.4 181.309 1004.28 L181.309 986.919 Z" fill="#000000" fill-rule="evenodd" fill-opacity="1" /><path clip-path="url(#clip620)" d="M150.916 663.555 L158.554 663.555 L158.554 637.189 L150.244 638.856 L150.244 634.597 L158.508 632.93 L163.184 632.93 L163.184 663.555 L170.823 663.555 L170.823 667.49 L150.916 667.49 L150.916 663.555 Z" fill="#000000" fill-rule="evenodd" fill-opacity="1" /><path clip-path="url(#clip620)" d="M190.267 636.009 Q186.656 636.009 184.827 639.574 Q183.022 643.115 183.022 650.245 Q183.022 657.351 184.827 660.916 Q186.656 664.458 190.267 664.458 Q193.901 664.458 195.707 660.916 Q197.536 657.351 197.536 650.245 Q197.536 643.115 195.707 639.574 Q193.901 636.009 190.267 636.009 M190.267 632.305 Q196.077 632.305 199.133 636.912 Q202.212 641.495 202.212 650.245 Q202.212 658.972 199.133 663.578 Q196.077 668.161 190.267 668.161 Q184.457 668.161 181.378 663.578 Q178.323 658.972 178.323 650.245 Q178.323 641.495 181.378 636.912 Q184.457 632.305 190.267 632.305 Z" fill="#000000" fill-rule="evenodd" fill-opacity="1" /><path clip-path="url(#clip620)" d="M151.911 309.566 L159.55 309.566 L159.55 283.201 L151.24 284.867 L151.24 280.608 L159.503 278.942 L164.179 278.942 L164.179 309.566 L171.818 309.566 L171.818 313.502 L151.911 313.502 L151.911 309.566 Z" fill="#000000" fill-rule="evenodd" fill-opacity="1" /><path clip-path="url(#clip620)" d="M181.309 278.942 L199.665 278.942 L199.665 282.877 L185.591 282.877 L185.591 291.349 Q186.61 291.002 187.628 290.84 Q188.647 290.654 189.665 290.654 Q195.452 290.654 198.832 293.826 Q202.212 296.997 202.212 302.414 Q202.212 307.992 198.739 311.094 Q195.267 314.173 188.948 314.173 Q186.772 314.173 184.503 313.802 Q182.258 313.432 179.851 312.691 L179.851 307.992 Q181.934 309.127 184.156 309.682 Q186.378 310.238 188.855 310.238 Q192.86 310.238 195.198 308.131 Q197.536 306.025 197.536 302.414 Q197.536 298.803 195.198 296.696 Q192.86 294.59 188.855 294.59 Q186.98 294.59 185.105 295.006 Q183.253 295.423 181.309 296.303 L181.309 278.942 Z" fill="#000000" fill-rule="evenodd" fill-opacity="1" /><path clip-path="url(#clip620)" d="M40.3403 876.171 L40.3403 848.353 L45.6875 848.353 L71.3095 870.378 L71.3095 848.353 L75.9883 848.353 L75.9883 876.967 L70.6411 876.967 L45.0191 854.942 L45.0191 876.171 L40.3403 876.171 Z" fill="#000000" fill-rule="evenodd" fill-opacity="1" /><path clip-path="url(#clip620)" d="M26.5267 804.621 Q33.8473 808.886 41.0087 810.955 Q48.1701 813.023 55.5225 813.023 Q62.8749 813.023 70.1 810.955 Q77.2933 808.854 84.582 804.621 L84.582 809.713 Q77.1023 814.488 69.8772 816.875 Q62.6521 819.23 55.5225 819.23 Q48.4248 819.23 41.2315 816.875 Q34.0383 814.519 26.5267 809.713 L26.5267 804.621 Z" fill="#000000" fill-rule="evenodd" fill-opacity="1" /><path clip-path="url(#clip620)" d="M26.4631 793.481 L26.4631 787.592 L55.7135 787.592 L40.3403 770.119 L40.3403 762.639 L57.0185 781.545 L75.9883 761.843 L75.9883 769.482 L58.5781 787.592 L75.9883 787.592 L75.9883 793.481 L26.4631 793.481 Z" fill="#000000" fill-rule="evenodd" fill-opacity="1" /><path clip-path="url(#clip620)" d="M47.1835 727.755 Q43.2367 725.559 41.3588 722.503 Q39.481 719.448 39.481 715.31 Q39.481 709.74 43.3959 706.716 Q47.2789 703.692 54.4722 703.692 L75.9883 703.692 L75.9883 709.581 L54.6632 709.581 Q49.5388 709.581 47.0561 711.395 Q44.5735 713.209 44.5735 716.933 Q44.5735 721.485 47.5972 724.126 Q50.6209 726.768 55.8408 726.768 L75.9883 726.768 L75.9883 732.656 L54.6632 732.656 Q49.5069 732.656 47.0561 734.471 Q44.5735 736.285 44.5735 740.072 Q44.5735 744.56 47.6291 747.202 Q50.6528 749.844 55.8408 749.844 L75.9883 749.844 L75.9883 755.732 L40.3403 755.732 L40.3403 749.844 L45.8785 749.844 Q42.6002 747.839 41.0406 745.038 Q39.481 742.237 39.481 738.385 Q39.481 734.502 41.4543 731.797 Q43.4277 729.06 47.1835 727.755 Z" fill="#000000" fill-rule="evenodd" fill-opacity="1" /><path clip-path="url(#clip620)" d="M26.5267 692.934 L26.5267 687.842 Q34.0383 683.067 41.2315 680.712 Q48.4248 678.325 55.5225 678.325 Q62.6521 678.325 69.8772 680.712 Q77.1023 683.067 84.582 687.842 L84.582 692.934 Q77.2933 688.701 70.1 686.632 Q62.8749 684.532 55.5225 684.532 Q48.1701 684.532 41.0087 686.632 Q33.8473 688.701 26.5267 692.934 Z" fill="#000000" fill-rule="evenodd" fill-opacity="1" /><path clip-path="url(#clip620)" d="M1059.34 35.3077 Q1061.81 31.1758 1067.93 27.5299 Q1070.32 26.1121 1077.69 26.1121 Q1085.95 26.1121 1091.1 32.6746 Q1096.28 39.2371 1096.28 49.9314 Q1096.28 60.6258 1091.1 67.1883 Q1085.95 73.7508 1077.69 73.7508 Q1072.71 73.7508 1069.1 71.8063 Q1065.54 69.8214 1063.19 65.7705 L1063.19 89.8329 L1055.69 89.8329 L1055.69 50.3365 Q1055.69 40.9789 1059.34 35.3077 M1088.55 49.9314 Q1088.55 41.7081 1085.14 37.0496 Q1081.78 32.3505 1075.87 32.3505 Q1069.95 32.3505 1066.55 37.0496 Q1063.19 41.7081 1063.19 49.9314 Q1063.19 58.1548 1066.55 62.8538 Q1069.95 67.5124 1075.87 67.5124 Q1081.78 67.5124 1085.14 62.8538 Q1088.55 58.1548 1088.55 49.9314 Z" fill="#000000" fill-rule="evenodd" fill-opacity="1" /><polyline clip-path="url(#clip622)" style="stroke:#009af9; stroke-linecap:butt; stroke-linejoin:round; stroke-width:4; stroke-opacity:1; fill:none" points="
  1826.03,1351.11 1791.07,1336.95 1756.68,1322.79 1722.84,1308.63 1689.59,1294.47 1656.86,1280.31 1624.66,1266.15 1593.02,1251.99 1561.87,1237.83 1531.25,1223.67 
  1501.14,1209.51 1471.54,1195.35 1442.45,1181.19 1413.83,1167.03 1385.7,1152.87 1358.06,1138.71 1330.89,1124.55 1304.19,1110.4 1277.96,1096.24 1252.18,1082.08 
  1226.84,1067.92 1201.96,1053.76 1177.51,1039.6 1153.5,1025.44 1129.91,1011.28 1106.75,997.119 1084.03,982.959 1061.5,968.8 1039.39,954.64 1017.64,940.481 
  996.273,926.321 975.29,912.162 954.684,898.002 934.452,883.843 914.589,869.683 895.092,855.523 875.956,841.364 857.178,827.204 838.753,813.045 820.677,798.885 
  802.946,784.726 785.555,770.566 768.502,756.407 751.78,742.247 735.387,728.088 719.317,713.928 703.566,699.768 688.129,685.609 672.989,671.449 658.17,657.29 
  643.648,643.13 629.419,628.971 615.477,614.811 601.816,600.652 588.432,586.492 575.317,572.333 562.465,558.173 549.885,544.014 537.534,529.854 525.43,515.694 
  513.875,501.535 502.598,487.375 491.521,473.216 480.637,459.056 469.939,444.897 459.422,430.737 449.096,416.578 438.915,402.418 428.901,388.259 419.049,374.099 
  409.353,359.939 399.812,345.78 390.421,331.62 381.177,317.461 372.079,303.301 363.124,289.142 354.309,274.982 345.635,260.823 337.098,246.663 328.697,232.504 
  320.432,218.344 312.288,204.184 
  "/>
<polyline clip-path="url(#clip622)" style="stroke:#e26f46; stroke-linecap:butt; stroke-linejoin:round; stroke-width:4; stroke-opacity:1; fill:none" points="
  1843.7,1358.19 1808.47,1344.03 1773.81,1329.87 1739.7,1315.71 1706.15,1301.55 1673.15,1287.39 1640.69,1273.23 1608.77,1259.07 1577.37,1244.91 1546.51,1230.75 
  1516.13,1216.59 1486.28,1202.43 1456.94,1188.27 1428.09,1174.11 1399.7,1159.95 1371.82,1145.79 1344.42,1131.63 1317.48,1117.48 1291.02,1103.32 1265.01,1089.16 
  1239.45,1075 1214.35,1060.84 1189.68,1046.68 1165.45,1032.52 1141.65,1018.36 1118.28,1004.2 1095.34,990.039 1072.72,975.88 1050.41,961.72 1028.46,947.56 
  1006.91,933.401 985.734,919.241 964.94,905.082 944.522,890.922 924.475,876.763 904.795,862.603 885.479,848.444 866.523,834.284 847.922,820.125 829.671,805.965 
  811.768,791.806 794.208,777.646 776.987,763.486 760.1,749.327 743.543,735.167 727.312,721.008 711.402,706.848 695.809,692.689 680.512,678.529 665.542,664.37 
  650.872,650.21 636.498,636.051 622.413,621.891 608.612,607.731 595.09,593.572 581.841,579.412 568.858,565.253 556.136,551.093 543.678,536.934 531.452,522.774 
  519.604,508.615 508.211,494.455 497.035,480.296 486.055,466.136 475.265,451.976 464.658,437.817 454.229,423.657 443.985,409.498 433.888,395.338 423.955,381.179 
  414.182,367.019 404.564,352.86 395.098,338.7 385.781,324.541 376.61,310.381 367.583,296.222 358.699,282.062 349.955,267.902 341.349,253.743 332.881,239.583 
  324.548,225.424 316.335,211.264 308.274,197.105 
  "/>
<path clip-path="url(#clip620)" d="
M1482.38 358.817 L1835.51 358.817 L1835.51 203.297 L1482.38 203.297  Z
  " fill="#ffffff" fill-rule="evenodd" fill-opacity="1"/>
<polyline clip-path="url(#clip620)" style="stroke:#000000; stroke-linecap:butt; stroke-linejoin:round; stroke-width:4; stroke-opacity:1; fill:none" points="
  1482.38,358.817 1835.51,358.817 1835.51,203.297 1482.38,203.297 1482.38,358.817 
  "/>
<polyline clip-path="url(#clip620)" style="stroke:#009af9; stroke-linecap:butt; stroke-linejoin:round; stroke-width:4; stroke-opacity:1; fill:none" points="
  1500.47,255.137 1608.97,255.137 
  "/>
<path clip-path="url(#clip620)" d="M1647.56 247.487 L1647.56 251.468 Q1645.76 250.473 1643.93 249.987 Q1642.12 249.477 1640.27 249.477 Q1636.13 249.477 1633.84 252.116 Q1631.54 254.732 1631.54 259.477 Q1631.54 264.223 1633.84 266.862 Q1636.13 269.477 1640.27 269.477 Q1642.12 269.477 1643.93 268.991 Q1645.76 268.482 1647.56 267.487 L1647.56 271.422 Q1645.78 272.255 1643.86 272.672 Q1641.96 273.088 1639.81 273.088 Q1633.95 273.088 1630.5 269.408 Q1627.05 265.727 1627.05 259.477 Q1627.05 253.135 1630.53 249.501 Q1634.02 245.866 1640.09 245.866 Q1642.05 245.866 1643.93 246.283 Q1645.8 246.677 1647.56 247.487 Z" fill="#000000" fill-rule="evenodd" fill-opacity="1" /><path clip-path="url(#clip620)" d="M1677.15 258.389 L1677.15 260.473 L1657.56 260.473 Q1657.84 264.871 1660.2 267.186 Q1662.59 269.477 1666.82 269.477 Q1669.28 269.477 1671.57 268.876 Q1673.88 268.274 1676.15 267.07 L1676.15 271.098 Q1673.86 272.07 1671.45 272.579 Q1669.04 273.088 1666.57 273.088 Q1660.36 273.088 1656.73 269.477 Q1653.12 265.866 1653.12 259.709 Q1653.12 253.343 1656.54 249.616 Q1659.99 245.866 1665.83 245.866 Q1671.06 245.866 1674.09 249.246 Q1677.15 252.602 1677.15 258.389 M1672.89 257.139 Q1672.84 253.644 1670.92 251.561 Q1669.02 249.477 1665.87 249.477 Q1662.31 249.477 1660.16 251.491 Q1658.03 253.505 1657.7 257.163 L1672.89 257.139 Z" fill="#000000" fill-rule="evenodd" fill-opacity="1" /><path clip-path="url(#clip620)" d="M1705.69 256.769 L1705.69 272.417 L1701.43 272.417 L1701.43 256.908 Q1701.43 253.227 1699.99 251.399 Q1698.56 249.57 1695.69 249.57 Q1692.24 249.57 1690.25 251.769 Q1688.26 253.968 1688.26 257.764 L1688.26 272.417 L1683.97 272.417 L1683.97 246.491 L1688.26 246.491 L1688.26 250.519 Q1689.78 248.181 1691.84 247.024 Q1693.93 245.866 1696.64 245.866 Q1701.1 245.866 1703.4 248.644 Q1705.69 251.399 1705.69 256.769 Z" fill="#000000" fill-rule="evenodd" fill-opacity="1" /><path clip-path="url(#clip620)" d="M1718.4 239.13 L1718.4 246.491 L1727.17 246.491 L1727.17 249.802 L1718.4 249.802 L1718.4 263.876 Q1718.4 267.047 1719.25 267.95 Q1720.13 268.852 1722.79 268.852 L1727.17 268.852 L1727.17 272.417 L1722.79 272.417 Q1717.86 272.417 1715.99 270.588 Q1714.11 268.737 1714.11 263.876 L1714.11 249.802 L1710.99 249.802 L1710.99 246.491 L1714.11 246.491 L1714.11 239.13 L1718.4 239.13 Z" fill="#000000" fill-rule="evenodd" fill-opacity="1" /><path clip-path="url(#clip620)" d="M1754.95 258.389 L1754.95 260.473 L1735.36 260.473 Q1735.64 264.871 1738 267.186 Q1740.39 269.477 1744.62 269.477 Q1747.08 269.477 1749.37 268.876 Q1751.68 268.274 1753.95 267.07 L1753.95 271.098 Q1751.66 272.07 1749.25 272.579 Q1746.84 273.088 1744.37 273.088 Q1738.16 273.088 1734.53 269.477 Q1730.92 265.866 1730.92 259.709 Q1730.92 253.343 1734.34 249.616 Q1737.79 245.866 1743.63 245.866 Q1748.86 245.866 1751.89 249.246 Q1754.95 252.602 1754.95 258.389 M1750.69 257.139 Q1750.64 253.644 1748.72 251.561 Q1746.82 249.477 1743.67 249.477 Q1740.11 249.477 1737.96 251.491 Q1735.83 253.505 1735.5 257.163 L1750.69 257.139 Z" fill="#000000" fill-rule="evenodd" fill-opacity="1" /><path clip-path="url(#clip620)" d="M1776.96 250.473 Q1776.24 250.056 1775.39 249.871 Q1774.55 249.663 1773.53 249.663 Q1769.92 249.663 1767.98 252.024 Q1766.06 254.362 1766.06 258.76 L1766.06 272.417 L1761.77 272.417 L1761.77 246.491 L1766.06 246.491 L1766.06 250.519 Q1767.4 248.158 1769.55 247.024 Q1771.71 245.866 1774.78 245.866 Q1775.22 245.866 1775.76 245.936 Q1776.29 245.982 1776.94 246.098 L1776.96 250.473 Z" fill="#000000" fill-rule="evenodd" fill-opacity="1" /><path clip-path="url(#clip620)" d="M1797.96 247.255 L1797.96 251.283 Q1796.15 250.357 1794.21 249.894 Q1792.26 249.431 1790.18 249.431 Q1787.01 249.431 1785.41 250.403 Q1783.84 251.376 1783.84 253.32 Q1783.84 254.802 1784.97 255.658 Q1786.1 256.491 1789.53 257.255 L1790.99 257.579 Q1795.52 258.552 1797.42 260.334 Q1799.34 262.093 1799.34 265.264 Q1799.34 268.876 1796.47 270.982 Q1793.63 273.088 1788.63 273.088 Q1786.54 273.088 1784.27 272.672 Q1782.03 272.278 1779.53 271.468 L1779.53 267.07 Q1781.89 268.297 1784.18 268.922 Q1786.47 269.524 1788.72 269.524 Q1791.73 269.524 1793.35 268.505 Q1794.97 267.463 1794.97 265.589 Q1794.97 263.852 1793.79 262.926 Q1792.63 262.001 1788.67 261.144 L1787.19 260.797 Q1783.23 259.964 1781.47 258.251 Q1779.71 256.514 1779.71 253.505 Q1779.71 249.848 1782.31 247.857 Q1784.9 245.866 1789.67 245.866 Q1792.03 245.866 1794.11 246.214 Q1796.2 246.561 1797.96 247.255 Z" fill="#000000" fill-rule="evenodd" fill-opacity="1" /><polyline clip-path="url(#clip620)" style="stroke:#e26f46; stroke-linecap:butt; stroke-linejoin:round; stroke-width:4; stroke-opacity:1; fill:none" points="
  1500.47,306.977 1608.97,306.977 
  "/>
<path clip-path="url(#clip620)" d="M1643.56 288.239 L1643.56 291.78 L1639.48 291.78 Q1637.19 291.78 1636.29 292.706 Q1635.41 293.632 1635.41 296.04 L1635.41 298.331 L1642.42 298.331 L1642.42 301.642 L1635.41 301.642 L1635.41 324.257 L1631.13 324.257 L1631.13 301.642 L1627.05 301.642 L1627.05 298.331 L1631.13 298.331 L1631.13 296.526 Q1631.13 292.197 1633.14 290.23 Q1635.16 288.239 1639.53 288.239 L1643.56 288.239 Z" fill="#000000" fill-rule="evenodd" fill-opacity="1" /><path clip-path="url(#clip620)" d="M1658.91 311.225 Q1653.74 311.225 1651.75 312.405 Q1649.76 313.586 1649.76 316.433 Q1649.76 318.702 1651.24 320.044 Q1652.75 321.364 1655.32 321.364 Q1658.86 321.364 1660.99 318.864 Q1663.14 316.341 1663.14 312.174 L1663.14 311.225 L1658.91 311.225 M1667.4 309.466 L1667.4 324.257 L1663.14 324.257 L1663.14 320.322 Q1661.68 322.683 1659.51 323.817 Q1657.33 324.928 1654.18 324.928 Q1650.2 324.928 1647.84 322.706 Q1645.5 320.461 1645.5 316.711 Q1645.5 312.336 1648.42 310.114 Q1651.36 307.892 1657.17 307.892 L1663.14 307.892 L1663.14 307.475 Q1663.14 304.535 1661.2 302.938 Q1659.28 301.317 1655.78 301.317 Q1653.56 301.317 1651.45 301.85 Q1649.35 302.382 1647.4 303.447 L1647.4 299.512 Q1649.74 298.609 1651.94 298.169 Q1654.14 297.706 1656.22 297.706 Q1661.84 297.706 1664.62 300.623 Q1667.4 303.54 1667.4 309.466 Z" fill="#000000" fill-rule="evenodd" fill-opacity="1" /><path clip-path="url(#clip620)" d="M1694.83 299.327 L1694.83 303.308 Q1693.03 302.313 1691.2 301.827 Q1689.39 301.317 1687.54 301.317 Q1683.4 301.317 1681.1 303.956 Q1678.81 306.572 1678.81 311.317 Q1678.81 316.063 1681.1 318.702 Q1683.4 321.317 1687.54 321.317 Q1689.39 321.317 1691.2 320.831 Q1693.03 320.322 1694.83 319.327 L1694.83 323.262 Q1693.05 324.095 1691.13 324.512 Q1689.23 324.928 1687.08 324.928 Q1681.22 324.928 1677.77 321.248 Q1674.32 317.567 1674.32 311.317 Q1674.32 304.975 1677.79 301.341 Q1681.29 297.706 1687.35 297.706 Q1689.32 297.706 1691.2 298.123 Q1693.07 298.517 1694.83 299.327 Z" fill="#000000" fill-rule="evenodd" fill-opacity="1" /><path clip-path="url(#clip620)" d="M1724.41 310.229 L1724.41 312.313 L1704.83 312.313 Q1705.11 316.711 1707.47 319.026 Q1709.85 321.317 1714.09 321.317 Q1716.54 321.317 1718.84 320.716 Q1721.15 320.114 1723.42 318.91 L1723.42 322.938 Q1721.13 323.91 1718.72 324.419 Q1716.31 324.928 1713.84 324.928 Q1707.63 324.928 1704 321.317 Q1700.39 317.706 1700.39 311.549 Q1700.39 305.183 1703.81 301.456 Q1707.26 297.706 1713.09 297.706 Q1718.33 297.706 1721.36 301.086 Q1724.41 304.442 1724.41 310.229 M1720.15 308.979 Q1720.11 305.484 1718.19 303.401 Q1716.29 301.317 1713.14 301.317 Q1709.58 301.317 1707.42 303.331 Q1705.29 305.345 1704.97 309.003 L1720.15 308.979 Z" fill="#000000" fill-rule="evenodd" fill-opacity="1" /><path clip-path="url(#clip620)" d="M1747.93 299.095 L1747.93 303.123 Q1746.13 302.197 1744.18 301.734 Q1742.24 301.271 1740.15 301.271 Q1736.98 301.271 1735.39 302.243 Q1733.81 303.216 1733.81 305.16 Q1733.81 306.642 1734.95 307.498 Q1736.08 308.331 1739.51 309.095 L1740.96 309.419 Q1745.5 310.392 1747.4 312.174 Q1749.32 313.933 1749.32 317.104 Q1749.32 320.716 1746.45 322.822 Q1743.6 324.928 1738.6 324.928 Q1736.52 324.928 1734.25 324.512 Q1732.01 324.118 1729.51 323.308 L1729.51 318.91 Q1731.87 320.137 1734.16 320.762 Q1736.45 321.364 1738.7 321.364 Q1741.71 321.364 1743.33 320.345 Q1744.95 319.303 1744.95 317.429 Q1744.95 315.692 1743.77 314.766 Q1742.61 313.841 1738.65 312.984 L1737.17 312.637 Q1733.21 311.804 1731.45 310.091 Q1729.69 308.354 1729.69 305.345 Q1729.69 301.688 1732.28 299.697 Q1734.88 297.706 1739.65 297.706 Q1742.01 297.706 1744.09 298.054 Q1746.17 298.401 1747.93 299.095 Z" fill="#000000" fill-rule="evenodd" fill-opacity="1" /><path clip-path="url(#clip620)" d="
M2262.21 1393.02 L3889.76 1393.02 L3889.76 162.272 L2262.21 162.272  Z
  " fill="#ffffff" fill-rule="evenodd" fill-opacity="1"/>
<defs>
  <clipPath id="clip623">
    <rect x="2262" y="162" width="1629" height="1232"/>
  </clipPath>
</defs>
<polyline clip-path="url(#clip623)" style="stroke:#000000; stroke-linecap:butt; stroke-linejoin:round; stroke-width:2; stroke-opacity:0.1; fill:none" points="
  2477.36,1393.02 2477.36,162.272 
  "/>
<polyline clip-path="url(#clip623)" style="stroke:#000000; stroke-linecap:butt; stroke-linejoin:round; stroke-width:2; stroke-opacity:0.1; fill:none" points="
  2822.7,1393.02 2822.7,162.272 
  "/>
<polyline clip-path="url(#clip623)" style="stroke:#000000; stroke-linecap:butt; stroke-linejoin:round; stroke-width:2; stroke-opacity:0.1; fill:none" points="
  3168.04,1393.02 3168.04,162.272 
  "/>
<polyline clip-path="url(#clip623)" style="stroke:#000000; stroke-linecap:butt; stroke-linejoin:round; stroke-width:2; stroke-opacity:0.1; fill:none" points="
  3513.38,1393.02 3513.38,162.272 
  "/>
<polyline clip-path="url(#clip623)" style="stroke:#000000; stroke-linecap:butt; stroke-linejoin:round; stroke-width:2; stroke-opacity:0.1; fill:none" points="
  3858.72,1393.02 3858.72,162.272 
  "/>
<polyline clip-path="url(#clip620)" style="stroke:#000000; stroke-linecap:butt; stroke-linejoin:round; stroke-width:4; stroke-opacity:1; fill:none" points="
  2262.21,1393.02 3889.76,1393.02 
  "/>
<polyline clip-path="url(#clip620)" style="stroke:#000000; stroke-linecap:butt; stroke-linejoin:round; stroke-width:4; stroke-opacity:1; fill:none" points="
  2477.36,1393.02 2477.36,1374.12 
  "/>
<polyline clip-path="url(#clip620)" style="stroke:#000000; stroke-linecap:butt; stroke-linejoin:round; stroke-width:4; stroke-opacity:1; fill:none" points="
  2822.7,1393.02 2822.7,1374.12 
  "/>
<polyline clip-path="url(#clip620)" style="stroke:#000000; stroke-linecap:butt; stroke-linejoin:round; stroke-width:4; stroke-opacity:1; fill:none" points="
  3168.04,1393.02 3168.04,1374.12 
  "/>
<polyline clip-path="url(#clip620)" style="stroke:#000000; stroke-linecap:butt; stroke-linejoin:round; stroke-width:4; stroke-opacity:1; fill:none" points="
  3513.38,1393.02 3513.38,1374.12 
  "/>
<polyline clip-path="url(#clip620)" style="stroke:#000000; stroke-linecap:butt; stroke-linejoin:round; stroke-width:4; stroke-opacity:1; fill:none" points="
  3858.72,1393.02 3858.72,1374.12 
  "/>
<path clip-path="url(#clip620)" d="M2456.13 1464.28 L2472.45 1464.28 L2472.45 1468.22 L2450.5 1468.22 L2450.5 1464.28 Q2453.17 1461.53 2457.75 1456.9 Q2462.36 1452.25 2463.54 1450.9 Q2465.78 1448.38 2466.66 1446.65 Q2467.56 1444.89 2467.56 1443.2 Q2467.56 1440.44 2465.62 1438.71 Q2463.7 1436.97 2460.6 1436.97 Q2458.4 1436.97 2455.94 1437.73 Q2453.51 1438.5 2450.74 1440.05 L2450.74 1435.33 Q2453.56 1434.19 2456.01 1433.61 Q2458.47 1433.03 2460.5 1433.03 Q2465.87 1433.03 2469.07 1435.72 Q2472.26 1438.41 2472.26 1442.9 Q2472.26 1445.03 2471.45 1446.95 Q2470.67 1448.84 2468.56 1451.44 Q2467.98 1452.11 2464.88 1455.33 Q2461.78 1458.52 2456.13 1464.28 Z" fill="#000000" fill-rule="evenodd" fill-opacity="1" /><path clip-path="url(#clip620)" d="M2492.26 1436.74 Q2488.65 1436.74 2486.82 1440.3 Q2485.02 1443.84 2485.02 1450.97 Q2485.02 1458.08 2486.82 1461.65 Q2488.65 1465.19 2492.26 1465.19 Q2495.9 1465.19 2497.7 1461.65 Q2499.53 1458.08 2499.53 1450.97 Q2499.53 1443.84 2497.7 1440.3 Q2495.9 1436.74 2492.26 1436.74 M2492.26 1433.03 Q2498.07 1433.03 2501.13 1437.64 Q2504.21 1442.22 2504.21 1450.97 Q2504.21 1459.7 2501.13 1464.31 Q2498.07 1468.89 2492.26 1468.89 Q2486.45 1468.89 2483.37 1464.31 Q2480.32 1459.7 2480.32 1450.97 Q2480.32 1442.22 2483.37 1437.64 Q2486.45 1433.03 2492.26 1433.03 Z" fill="#000000" fill-rule="evenodd" fill-opacity="1" /><path clip-path="url(#clip620)" d="M2810.87 1437.73 L2799.06 1456.18 L2810.87 1456.18 L2810.87 1437.73 M2809.64 1433.66 L2815.52 1433.66 L2815.52 1456.18 L2820.45 1456.18 L2820.45 1460.07 L2815.52 1460.07 L2815.52 1468.22 L2810.87 1468.22 L2810.87 1460.07 L2795.27 1460.07 L2795.27 1455.56 L2809.64 1433.66 Z" fill="#000000" fill-rule="evenodd" fill-opacity="1" /><path clip-path="url(#clip620)" d="M2838.18 1436.74 Q2834.57 1436.74 2832.74 1440.3 Q2830.94 1443.84 2830.94 1450.97 Q2830.94 1458.08 2832.74 1461.65 Q2834.57 1465.19 2838.18 1465.19 Q2841.82 1465.19 2843.62 1461.65 Q2845.45 1458.08 2845.45 1450.97 Q2845.45 1443.84 2843.62 1440.3 Q2841.82 1436.74 2838.18 1436.74 M2838.18 1433.03 Q2843.99 1433.03 2847.05 1437.64 Q2850.13 1442.22 2850.13 1450.97 Q2850.13 1459.7 2847.05 1464.31 Q2843.99 1468.89 2838.18 1468.89 Q2832.37 1468.89 2829.29 1464.31 Q2826.24 1459.7 2826.24 1450.97 Q2826.24 1442.22 2829.29 1437.64 Q2832.37 1433.03 2838.18 1433.03 Z" fill="#000000" fill-rule="evenodd" fill-opacity="1" /><path clip-path="url(#clip620)" d="M3153.44 1449.08 Q3150.3 1449.08 3148.44 1451.23 Q3146.62 1453.38 3146.62 1457.13 Q3146.62 1460.86 3148.44 1463.03 Q3150.3 1465.19 3153.44 1465.19 Q3156.59 1465.19 3158.42 1463.03 Q3160.27 1460.86 3160.27 1457.13 Q3160.27 1453.38 3158.42 1451.23 Q3156.59 1449.08 3153.44 1449.08 M3162.73 1434.42 L3162.73 1438.68 Q3160.97 1437.85 3159.16 1437.41 Q3157.38 1436.97 3155.62 1436.97 Q3150.99 1436.97 3148.54 1440.09 Q3146.11 1443.22 3145.76 1449.54 Q3147.13 1447.53 3149.19 1446.46 Q3151.25 1445.37 3153.72 1445.37 Q3158.93 1445.37 3161.94 1448.54 Q3164.97 1451.69 3164.97 1457.13 Q3164.97 1462.46 3161.82 1465.67 Q3158.68 1468.89 3153.44 1468.89 Q3147.45 1468.89 3144.28 1464.31 Q3141.11 1459.7 3141.11 1450.97 Q3141.11 1442.78 3145 1437.92 Q3148.88 1433.03 3155.44 1433.03 Q3157.19 1433.03 3158.98 1433.38 Q3160.78 1433.73 3162.73 1434.42 Z" fill="#000000" fill-rule="evenodd" fill-opacity="1" /><path clip-path="url(#clip620)" d="M3183.03 1436.74 Q3179.42 1436.74 3177.59 1440.3 Q3175.78 1443.84 3175.78 1450.97 Q3175.78 1458.08 3177.59 1461.65 Q3179.42 1465.19 3183.03 1465.19 Q3186.66 1465.19 3188.47 1461.65 Q3190.3 1458.08 3190.3 1450.97 Q3190.3 1443.84 3188.47 1440.3 Q3186.66 1436.74 3183.03 1436.74 M3183.03 1433.03 Q3188.84 1433.03 3191.89 1437.64 Q3194.97 1442.22 3194.97 1450.97 Q3194.97 1459.7 3191.89 1464.31 Q3188.84 1468.89 3183.03 1468.89 Q3177.22 1468.89 3174.14 1464.31 Q3171.08 1459.7 3171.08 1450.97 Q3171.08 1442.22 3174.14 1437.64 Q3177.22 1433.03 3183.03 1433.03 Z" fill="#000000" fill-rule="evenodd" fill-opacity="1" /><path clip-path="url(#clip620)" d="M3498.25 1451.81 Q3494.92 1451.81 3493 1453.59 Q3491.1 1455.37 3491.1 1458.5 Q3491.1 1461.62 3493 1463.4 Q3494.92 1465.19 3498.25 1465.19 Q3501.59 1465.19 3503.51 1463.4 Q3505.43 1461.6 3505.43 1458.5 Q3505.43 1455.37 3503.51 1453.59 Q3501.61 1451.81 3498.25 1451.81 M3493.58 1449.82 Q3490.57 1449.08 3488.88 1447.02 Q3487.21 1444.96 3487.21 1441.99 Q3487.21 1437.85 3490.15 1435.44 Q3493.12 1433.03 3498.25 1433.03 Q3503.42 1433.03 3506.36 1435.44 Q3509.3 1437.85 3509.3 1441.99 Q3509.3 1444.96 3507.61 1447.02 Q3505.94 1449.08 3502.95 1449.82 Q3506.33 1450.6 3508.21 1452.9 Q3510.11 1455.19 3510.11 1458.5 Q3510.11 1463.52 3507.03 1466.21 Q3503.97 1468.89 3498.25 1468.89 Q3492.54 1468.89 3489.46 1466.21 Q3486.4 1463.52 3486.4 1458.5 Q3486.4 1455.19 3488.3 1452.9 Q3490.2 1450.6 3493.58 1449.82 M3491.87 1442.43 Q3491.87 1445.12 3493.53 1446.62 Q3495.22 1448.13 3498.25 1448.13 Q3501.26 1448.13 3502.95 1446.62 Q3504.67 1445.12 3504.67 1442.43 Q3504.67 1439.75 3502.95 1438.24 Q3501.26 1436.74 3498.25 1436.74 Q3495.22 1436.74 3493.53 1438.24 Q3491.87 1439.75 3491.87 1442.43 Z" fill="#000000" fill-rule="evenodd" fill-opacity="1" /><path clip-path="url(#clip620)" d="M3528.42 1436.74 Q3524.8 1436.74 3522.98 1440.3 Q3521.17 1443.84 3521.17 1450.97 Q3521.17 1458.08 3522.98 1461.65 Q3524.8 1465.19 3528.42 1465.19 Q3532.05 1465.19 3533.86 1461.65 Q3535.68 1458.08 3535.68 1450.97 Q3535.68 1443.84 3533.86 1440.3 Q3532.05 1436.74 3528.42 1436.74 M3528.42 1433.03 Q3534.23 1433.03 3537.28 1437.64 Q3540.36 1442.22 3540.36 1450.97 Q3540.36 1459.7 3537.28 1464.31 Q3534.23 1468.89 3528.42 1468.89 Q3522.61 1468.89 3519.53 1464.31 Q3516.47 1459.7 3516.47 1450.97 Q3516.47 1442.22 3519.53 1437.64 Q3522.61 1433.03 3528.42 1433.03 Z" fill="#000000" fill-rule="evenodd" fill-opacity="1" /><path clip-path="url(#clip620)" d="M3818.33 1464.28 L3825.97 1464.28 L3825.97 1437.92 L3817.66 1439.59 L3817.66 1435.33 L3825.92 1433.66 L3830.6 1433.66 L3830.6 1464.28 L3838.24 1464.28 L3838.24 1468.22 L3818.33 1468.22 L3818.33 1464.28 Z" fill="#000000" fill-rule="evenodd" fill-opacity="1" /><path clip-path="url(#clip620)" d="M3857.68 1436.74 Q3854.07 1436.74 3852.24 1440.3 Q3850.44 1443.84 3850.44 1450.97 Q3850.44 1458.08 3852.24 1461.65 Q3854.07 1465.19 3857.68 1465.19 Q3861.32 1465.19 3863.12 1461.65 Q3864.95 1458.08 3864.95 1450.97 Q3864.95 1443.84 3863.12 1440.3 Q3861.32 1436.74 3857.68 1436.74 M3857.68 1433.03 Q3863.49 1433.03 3866.55 1437.64 Q3869.63 1442.22 3869.63 1450.97 Q3869.63 1459.7 3866.55 1464.31 Q3863.49 1468.89 3857.68 1468.89 Q3851.87 1468.89 3848.79 1464.31 Q3845.74 1459.7 3845.74 1450.97 Q3845.74 1442.22 3848.79 1437.64 Q3851.87 1433.03 3857.68 1433.03 Z" fill="#000000" fill-rule="evenodd" fill-opacity="1" /><path clip-path="url(#clip620)" d="M3887.84 1436.74 Q3884.23 1436.74 3882.4 1440.3 Q3880.6 1443.84 3880.6 1450.97 Q3880.6 1458.08 3882.4 1461.65 Q3884.23 1465.19 3887.84 1465.19 Q3891.48 1465.19 3893.28 1461.65 Q3895.11 1458.08 3895.11 1450.97 Q3895.11 1443.84 3893.28 1440.3 Q3891.48 1436.74 3887.84 1436.74 M3887.84 1433.03 Q3893.65 1433.03 3896.71 1437.64 Q3899.79 1442.22 3899.79 1450.97 Q3899.79 1459.7 3896.71 1464.31 Q3893.65 1468.89 3887.84 1468.89 Q3882.03 1468.89 3878.95 1464.31 Q3875.9 1459.7 3875.9 1450.97 Q3875.9 1442.22 3878.95 1437.64 Q3882.03 1433.03 3887.84 1433.03 Z" fill="#000000" fill-rule="evenodd" fill-opacity="1" /><path clip-path="url(#clip620)" d="M2974.12 1556.54 L2974.12 1575.44 L2968.23 1575.44 L2968.23 1526.24 L2974.12 1526.24 L2974.12 1531.65 Q2975.97 1528.46 2978.77 1526.94 Q2981.6 1525.38 2985.52 1525.38 Q2992.01 1525.38 2996.05 1530.53 Q3000.12 1535.69 3000.12 1544.09 Q3000.12 1552.49 2996.05 1557.65 Q2992.01 1562.81 2985.52 1562.81 Q2981.6 1562.81 2978.77 1561.28 Q2975.97 1559.72 2974.12 1556.54 M2994.05 1544.09 Q2994.05 1537.63 2991.37 1533.97 Q2988.73 1530.28 2984.08 1530.28 Q2979.44 1530.28 2976.76 1533.97 Q2974.12 1537.63 2974.12 1544.09 Q2974.12 1550.55 2976.76 1554.24 Q2979.44 1557.91 2984.08 1557.91 Q2988.73 1557.91 2991.37 1554.24 Q2994.05 1550.55 2994.05 1544.09 Z" fill="#000000" fill-rule="evenodd" fill-opacity="1" /><path clip-path="url(#clip620)" d="M3044.62 1512.42 Q3040.36 1519.74 3038.29 1526.9 Q3036.22 1534.07 3036.22 1541.42 Q3036.22 1548.77 3038.29 1556 Q3040.39 1563.19 3044.62 1570.48 L3039.53 1570.48 Q3034.75 1563 3032.37 1555.77 Q3030.01 1548.55 3030.01 1541.42 Q3030.01 1534.32 3032.37 1527.13 Q3034.72 1519.93 3039.53 1512.42 L3044.62 1512.42 Z" fill="#000000" fill-rule="evenodd" fill-opacity="1" /><path clip-path="url(#clip620)" d="M3055.76 1512.36 L3061.65 1512.36 L3061.65 1541.61 L3079.12 1526.24 L3086.6 1526.24 L3067.7 1542.91 L3087.4 1561.88 L3079.76 1561.88 L3061.65 1544.47 L3061.65 1561.88 L3055.76 1561.88 L3055.76 1512.36 Z" fill="#000000" fill-rule="evenodd" fill-opacity="1" /><path clip-path="url(#clip620)" d="M3100.42 1519.65 L3100.42 1537.5 L3108.5 1537.5 Q3112.99 1537.5 3115.44 1535.18 Q3117.89 1532.86 3117.89 1528.56 Q3117.89 1524.29 3115.44 1521.97 Q3112.99 1519.65 3108.5 1519.65 L3100.42 1519.65 M3093.99 1514.36 L3108.5 1514.36 Q3116.49 1514.36 3120.56 1517.99 Q3124.67 1521.59 3124.67 1528.56 Q3124.67 1535.59 3120.56 1539.19 Q3116.49 1542.79 3108.5 1542.79 L3100.42 1542.79 L3100.42 1561.88 L3093.99 1561.88 L3093.99 1514.36 Z" fill="#000000" fill-rule="evenodd" fill-opacity="1" /><path clip-path="url(#clip620)" d="M3146.31 1543.96 Q3139.22 1543.96 3136.48 1545.59 Q3133.74 1547.21 3133.74 1551.13 Q3133.74 1554.24 3135.78 1556.09 Q3137.85 1557.91 3141.38 1557.91 Q3146.25 1557.91 3149.18 1554.47 Q3152.14 1551 3152.14 1545.27 L3152.14 1543.96 L3146.31 1543.96 M3157.99 1541.55 L3157.99 1561.88 L3152.14 1561.88 L3152.14 1556.47 Q3150.13 1559.72 3147.14 1561.28 Q3144.15 1562.81 3139.82 1562.81 Q3134.35 1562.81 3131.1 1559.75 Q3127.88 1556.66 3127.88 1551.51 Q3127.88 1545.49 3131.89 1542.44 Q3135.94 1539.38 3143.93 1539.38 L3152.14 1539.38 L3152.14 1538.81 Q3152.14 1534.77 3149.46 1532.57 Q3146.82 1530.34 3142.02 1530.34 Q3138.96 1530.34 3136.06 1531.07 Q3133.17 1531.81 3130.49 1533.27 L3130.49 1527.86 Q3133.71 1526.62 3136.73 1526.01 Q3139.76 1525.38 3142.62 1525.38 Q3150.36 1525.38 3154.17 1529.39 Q3157.99 1533.4 3157.99 1541.55 Z" fill="#000000" fill-rule="evenodd" fill-opacity="1" /><path clip-path="url(#clip620)" d="M3169.13 1512.42 L3174.23 1512.42 Q3179 1519.93 3181.36 1527.13 Q3183.74 1534.32 3183.74 1541.42 Q3183.74 1548.55 3181.36 1555.77 Q3179 1563 3174.23 1570.48 L3169.13 1570.48 Q3173.37 1563.19 3175.44 1556 Q3177.54 1548.77 3177.54 1541.42 Q3177.54 1534.07 3175.44 1526.9 Q3173.37 1519.74 3169.13 1512.42 Z" fill="#000000" fill-rule="evenodd" fill-opacity="1" /><polyline clip-path="url(#clip623)" style="stroke:#000000; stroke-linecap:butt; stroke-linejoin:round; stroke-width:2; stroke-opacity:0.1; fill:none" points="
  2262.21,1358.19 3889.76,1358.19 
  "/>
<polyline clip-path="url(#clip623)" style="stroke:#000000; stroke-linecap:butt; stroke-linejoin:round; stroke-width:2; stroke-opacity:0.1; fill:none" points="
  2262.21,1004.2 3889.76,1004.2 
  "/>
<polyline clip-path="url(#clip623)" style="stroke:#000000; stroke-linecap:butt; stroke-linejoin:round; stroke-width:2; stroke-opacity:0.1; fill:none" points="
  2262.21,650.21 3889.76,650.21 
  "/>
<polyline clip-path="url(#clip623)" style="stroke:#000000; stroke-linecap:butt; stroke-linejoin:round; stroke-width:2; stroke-opacity:0.1; fill:none" points="
  2262.21,296.222 3889.76,296.222 
  "/>
<polyline clip-path="url(#clip620)" style="stroke:#000000; stroke-linecap:butt; stroke-linejoin:round; stroke-width:4; stroke-opacity:1; fill:none" points="
  2262.21,1393.02 2262.21,162.272 
  "/>
<polyline clip-path="url(#clip620)" style="stroke:#000000; stroke-linecap:butt; stroke-linejoin:round; stroke-width:4; stroke-opacity:1; fill:none" points="
  2262.21,1358.19 2281.11,1358.19 
  "/>
<polyline clip-path="url(#clip620)" style="stroke:#000000; stroke-linecap:butt; stroke-linejoin:round; stroke-width:4; stroke-opacity:1; fill:none" points="
  2262.21,1004.2 2281.11,1004.2 
  "/>
<polyline clip-path="url(#clip620)" style="stroke:#000000; stroke-linecap:butt; stroke-linejoin:round; stroke-width:4; stroke-opacity:1; fill:none" points="
  2262.21,650.21 2281.11,650.21 
  "/>
<polyline clip-path="url(#clip620)" style="stroke:#000000; stroke-linecap:butt; stroke-linejoin:round; stroke-width:4; stroke-opacity:1; fill:none" points="
  2262.21,296.222 2281.11,296.222 
  "/>
<path clip-path="url(#clip620)" d="M2190.27 1343.99 Q2186.66 1343.99 2184.83 1347.55 Q2183.02 1351.09 2183.02 1358.22 Q2183.02 1365.33 2184.83 1368.89 Q2186.66 1372.43 2190.27 1372.43 Q2193.9 1372.43 2195.71 1368.89 Q2197.54 1365.33 2197.54 1358.22 Q2197.54 1351.09 2195.71 1347.55 Q2193.9 1343.99 2190.27 1343.99 M2190.27 1340.28 Q2196.08 1340.28 2199.13 1344.89 Q2202.21 1349.47 2202.21 1358.22 Q2202.21 1366.95 2199.13 1371.56 Q2196.08 1376.14 2190.27 1376.14 Q2184.46 1376.14 2181.38 1371.56 Q2178.32 1366.95 2178.32 1358.22 Q2178.32 1349.47 2181.38 1344.89 Q2184.46 1340.28 2190.27 1340.28 Z" fill="#000000" fill-rule="evenodd" fill-opacity="1" /><path clip-path="url(#clip620)" d="M2181.31 986.919 L2199.67 986.919 L2199.67 990.854 L2185.59 990.854 L2185.59 999.326 Q2186.61 998.979 2187.63 998.817 Q2188.65 998.632 2189.67 998.632 Q2195.45 998.632 2198.83 1001.8 Q2202.21 1004.97 2202.21 1010.39 Q2202.21 1015.97 2198.74 1019.07 Q2195.27 1022.15 2188.95 1022.15 Q2186.77 1022.15 2184.5 1021.78 Q2182.26 1021.41 2179.85 1020.67 L2179.85 1015.97 Q2181.93 1017.1 2184.16 1017.66 Q2186.38 1018.21 2188.86 1018.21 Q2192.86 1018.21 2195.2 1016.11 Q2197.54 1014 2197.54 1010.39 Q2197.54 1006.78 2195.2 1004.67 Q2192.86 1002.57 2188.86 1002.57 Q2186.98 1002.57 2185.11 1002.98 Q2183.25 1003.4 2181.31 1004.28 L2181.31 986.919 Z" fill="#000000" fill-rule="evenodd" fill-opacity="1" /><path clip-path="url(#clip620)" d="M2150.92 663.555 L2158.55 663.555 L2158.55 637.189 L2150.24 638.856 L2150.24 634.597 L2158.51 632.93 L2163.18 632.93 L2163.18 663.555 L2170.82 663.555 L2170.82 667.49 L2150.92 667.49 L2150.92 663.555 Z" fill="#000000" fill-rule="evenodd" fill-opacity="1" /><path clip-path="url(#clip620)" d="M2190.27 636.009 Q2186.66 636.009 2184.83 639.574 Q2183.02 643.115 2183.02 650.245 Q2183.02 657.351 2184.83 660.916 Q2186.66 664.458 2190.27 664.458 Q2193.9 664.458 2195.71 660.916 Q2197.54 657.351 2197.54 650.245 Q2197.54 643.115 2195.71 639.574 Q2193.9 636.009 2190.27 636.009 M2190.27 632.305 Q2196.08 632.305 2199.13 636.912 Q2202.21 641.495 2202.21 650.245 Q2202.21 658.972 2199.13 663.578 Q2196.08 668.161 2190.27 668.161 Q2184.46 668.161 2181.38 663.578 Q2178.32 658.972 2178.32 650.245 Q2178.32 641.495 2181.38 636.912 Q2184.46 632.305 2190.27 632.305 Z" fill="#000000" fill-rule="evenodd" fill-opacity="1" /><path clip-path="url(#clip620)" d="M2151.91 309.566 L2159.55 309.566 L2159.55 283.201 L2151.24 284.867 L2151.24 280.608 L2159.5 278.942 L2164.18 278.942 L2164.18 309.566 L2171.82 309.566 L2171.82 313.502 L2151.91 313.502 L2151.91 309.566 Z" fill="#000000" fill-rule="evenodd" fill-opacity="1" /><path clip-path="url(#clip620)" d="M2181.31 278.942 L2199.67 278.942 L2199.67 282.877 L2185.59 282.877 L2185.59 291.349 Q2186.61 291.002 2187.63 290.84 Q2188.65 290.654 2189.67 290.654 Q2195.45 290.654 2198.83 293.826 Q2202.21 296.997 2202.21 302.414 Q2202.21 307.992 2198.74 311.094 Q2195.27 314.173 2188.95 314.173 Q2186.77 314.173 2184.5 313.802 Q2182.26 313.432 2179.85 312.691 L2179.85 307.992 Q2181.93 309.127 2184.16 309.682 Q2186.38 310.238 2188.86 310.238 Q2192.86 310.238 2195.2 308.131 Q2197.54 306.025 2197.54 302.414 Q2197.54 298.803 2195.2 296.696 Q2192.86 294.59 2188.86 294.59 Q2186.98 294.59 2185.11 295.006 Q2183.25 295.423 2181.31 296.303 L2181.31 278.942 Z" fill="#000000" fill-rule="evenodd" fill-opacity="1" /><path clip-path="url(#clip620)" d="M2040.34 876.171 L2040.34 848.353 L2045.69 848.353 L2071.31 870.378 L2071.31 848.353 L2075.99 848.353 L2075.99 876.967 L2070.64 876.967 L2045.02 854.942 L2045.02 876.171 L2040.34 876.171 Z" fill="#000000" fill-rule="evenodd" fill-opacity="1" /><path clip-path="url(#clip620)" d="M2026.53 804.621 Q2033.85 808.886 2041.01 810.955 Q2048.17 813.023 2055.52 813.023 Q2062.87 813.023 2070.1 810.955 Q2077.29 808.854 2084.58 804.621 L2084.58 809.713 Q2077.1 814.488 2069.88 816.875 Q2062.65 819.23 2055.52 819.23 Q2048.42 819.23 2041.23 816.875 Q2034.04 814.519 2026.53 809.713 L2026.53 804.621 Z" fill="#000000" fill-rule="evenodd" fill-opacity="1" /><path clip-path="url(#clip620)" d="M2026.46 793.481 L2026.46 787.592 L2055.71 787.592 L2040.34 770.119 L2040.34 762.639 L2057.02 781.545 L2075.99 761.843 L2075.99 769.482 L2058.58 787.592 L2075.99 787.592 L2075.99 793.481 L2026.46 793.481 Z" fill="#000000" fill-rule="evenodd" fill-opacity="1" /><path clip-path="url(#clip620)" d="M2047.18 727.755 Q2043.24 725.559 2041.36 722.503 Q2039.48 719.448 2039.48 715.31 Q2039.48 709.74 2043.4 706.716 Q2047.28 703.692 2054.47 703.692 L2075.99 703.692 L2075.99 709.581 L2054.66 709.581 Q2049.54 709.581 2047.06 711.395 Q2044.57 713.209 2044.57 716.933 Q2044.57 721.485 2047.6 724.126 Q2050.62 726.768 2055.84 726.768 L2075.99 726.768 L2075.99 732.656 L2054.66 732.656 Q2049.51 732.656 2047.06 734.471 Q2044.57 736.285 2044.57 740.072 Q2044.57 744.56 2047.63 747.202 Q2050.65 749.844 2055.84 749.844 L2075.99 749.844 L2075.99 755.732 L2040.34 755.732 L2040.34 749.844 L2045.88 749.844 Q2042.6 747.839 2041.04 745.038 Q2039.48 742.237 2039.48 738.385 Q2039.48 734.502 2041.45 731.797 Q2043.43 729.06 2047.18 727.755 Z" fill="#000000" fill-rule="evenodd" fill-opacity="1" /><path clip-path="url(#clip620)" d="M2026.53 692.934 L2026.53 687.842 Q2034.04 683.067 2041.23 680.712 Q2048.42 678.325 2055.52 678.325 Q2062.65 678.325 2069.88 680.712 Q2077.1 683.067 2084.58 687.842 L2084.58 692.934 Q2077.29 688.701 2070.1 686.632 Q2062.87 684.532 2055.52 684.532 Q2048.17 684.532 2041.01 686.632 Q2033.85 688.701 2026.53 692.934 Z" fill="#000000" fill-rule="evenodd" fill-opacity="1" /><path clip-path="url(#clip620)" d="M2946.34 65.7705 L2946.34 89.8329 L2938.84 89.8329 L2938.84 27.2059 L2946.34 27.2059 L2946.34 34.0924 Q2948.69 30.0415 2952.25 28.0971 Q2955.86 26.1121 2960.84 26.1121 Q2969.1 26.1121 2974.25 32.6746 Q2979.43 39.2371 2979.43 49.9314 Q2979.43 60.6258 2974.25 67.1883 Q2969.1 73.7508 2960.84 73.7508 Q2955.86 73.7508 2952.25 71.8063 Q2948.69 69.8214 2946.34 65.7705 M2971.7 49.9314 Q2971.7 41.7081 2968.29 37.0496 Q2964.93 32.3505 2959.02 32.3505 Q2953.1 32.3505 2949.7 37.0496 Q2946.34 41.7081 2946.34 49.9314 Q2946.34 58.1548 2949.7 62.8538 Q2953.1 67.5124 2959.02 67.5124 Q2964.93 67.5124 2968.29 62.8538 Q2971.7 58.1548 2971.7 49.9314 Z" fill="#000000" fill-rule="evenodd" fill-opacity="1" /><path clip-path="url(#clip620)" d="M3036.07 9.62495 Q3030.64 18.942 3028 28.0566 Q3025.37 37.1711 3025.37 46.5287 Q3025.37 55.8863 3028 65.0818 Q3030.68 74.2369 3036.07 83.5134 L3029.58 83.5134 Q3023.51 73.9938 3020.47 64.7983 Q3017.47 55.6027 3017.47 46.5287 Q3017.47 37.4952 3020.47 28.3401 Q3023.47 19.1851 3029.58 9.62495 L3036.07 9.62495 Z" fill="#000000" fill-rule="evenodd" fill-opacity="1" /><path clip-path="url(#clip620)" d="M3050.24 9.54393 L3057.74 9.54393 L3057.74 46.7717 L3079.98 27.2059 L3089.5 27.2059 L3065.44 48.4326 L3090.51 72.576 L3080.79 72.576 L3057.74 50.4176 L3057.74 72.576 L3050.24 72.576 L3050.24 9.54393 Z" fill="#000000" fill-rule="evenodd" fill-opacity="1" /><path clip-path="url(#clip620)" d="M3107.08 18.8205 L3107.08 41.5461 L3117.37 41.5461 Q3123.08 41.5461 3126.2 38.5889 Q3129.32 35.6318 3129.32 30.163 Q3129.32 24.7348 3126.2 21.7777 Q3123.08 18.8205 3117.37 18.8205 L3107.08 18.8205 M3098.9 12.096 L3117.37 12.096 Q3127.54 12.096 3132.72 16.714 Q3137.95 21.2916 3137.95 30.163 Q3137.95 39.1155 3132.72 43.6931 Q3127.54 48.2706 3117.37 48.2706 L3107.08 48.2706 L3107.08 72.576 L3098.9 72.576 L3098.9 12.096 Z" fill="#000000" fill-rule="evenodd" fill-opacity="1" /><path clip-path="url(#clip620)" d="M3165.49 49.7694 Q3156.46 49.7694 3152.98 51.8354 Q3149.49 53.9013 3149.49 58.8839 Q3149.49 62.8538 3152.08 65.2034 Q3154.72 67.5124 3159.21 67.5124 Q3165.41 67.5124 3169.14 63.1374 Q3172.91 58.7219 3172.91 51.4303 L3172.91 49.7694 L3165.49 49.7694 M3180.36 46.6907 L3180.36 72.576 L3172.91 72.576 L3172.91 65.6895 Q3170.35 69.8214 3166.55 71.8063 Q3162.74 73.7508 3157.23 73.7508 Q3150.26 73.7508 3146.13 69.8619 Q3142.04 65.9325 3142.04 59.3701 Q3142.04 51.7138 3147.14 47.825 Q3152.29 43.9361 3162.45 43.9361 L3172.91 43.9361 L3172.91 43.2069 Q3172.91 38.0623 3169.5 35.2672 Q3166.14 32.4315 3160.02 32.4315 Q3156.13 32.4315 3152.45 33.3632 Q3148.76 34.295 3145.36 36.1584 L3145.36 29.2718 Q3149.45 27.692 3153.3 26.9223 Q3157.15 26.1121 3160.79 26.1121 Q3170.64 26.1121 3175.5 31.2163 Q3180.36 36.3204 3180.36 46.6907 Z" fill="#000000" fill-rule="evenodd" fill-opacity="1" /><path clip-path="url(#clip620)" d="M3194.54 9.62495 L3201.02 9.62495 Q3207.1 19.1851 3210.09 28.3401 Q3213.13 37.4952 3213.13 46.5287 Q3213.13 55.6027 3210.09 64.7983 Q3207.1 73.9938 3201.02 83.5134 L3194.54 83.5134 Q3199.93 74.2369 3202.56 65.0818 Q3205.23 55.8863 3205.23 46.5287 Q3205.23 37.1711 3202.56 28.0566 Q3199.93 18.942 3194.54 9.62495 Z" fill="#000000" fill-rule="evenodd" fill-opacity="1" /><polyline clip-path="url(#clip623)" style="stroke:#009af9; stroke-linecap:butt; stroke-linejoin:round; stroke-width:4; stroke-opacity:1; fill:none" points="
  3824.3,1351.11 3786.05,1336.95 3748.54,1322.79 3711.75,1308.63 3675.68,1294.47 3640.3,1280.31 3605.61,1266.15 3571.6,1251.99 3538.26,1237.83 3505.57,1223.67 
  3473.53,1209.51 3442.11,1195.35 3411.32,1181.19 3381.15,1167.03 3351.57,1152.87 3322.59,1138.71 3294.19,1124.55 3266.36,1110.4 3239.09,1096.24 3212.37,1082.08 
  3186.2,1067.92 3160.55,1053.76 3135.43,1039.6 3110.83,1025.44 3086.73,1011.28 3063.12,997.119 3040.01,982.959 3017.37,968.8 2995.2,954.64 2973.51,940.481 
  2952.26,926.321 2931.47,912.162 2911.12,898.002 2891.2,883.843 2871.71,869.683 2852.63,855.523 2833.97,841.364 2815.7,827.204 2797.84,813.045 2780.35,798.885 
  2763.25,784.726 2746.52,770.566 2730.16,756.407 2714.15,742.247 2698.5,728.088 2683.19,713.928 2668.22,699.768 2653.57,685.609 2639.26,671.449 2625.26,657.29 
  2611.57,643.13 2598.19,628.971 2585.1,614.811 2572.31,600.652 2559.8,586.492 2547.58,572.333 2535.63,558.173 2523.95,544.014 2512.54,529.854 2501.38,515.694 
  2490.48,501.535 2479.82,487.375 2469.39,473.216 2459.2,459.056 2449.24,444.897 2439.5,430.737 2429.98,416.578 2420.69,402.418 2411.6,388.259 2402.73,374.099 
  2394.06,359.939 2385.6,345.78 2377.33,331.62 2369.27,317.461 2361.4,303.301 2353.72,289.142 2346.23,274.982 2338.93,260.823 2331.8,246.663 2324.86,232.504 
  2318.1,218.344 2311.51,204.184 
  "/>
<polyline clip-path="url(#clip623)" style="stroke:#e26f46; stroke-linecap:butt; stroke-linejoin:round; stroke-width:4; stroke-opacity:1; fill:none" points="
  3843.7,1358.19 3805.08,1344.03 3767.2,1329.87 3730.06,1315.71 3693.63,1301.55 3657.9,1287.39 3622.87,1273.23 3588.52,1259.07 3554.85,1244.91 3521.83,1230.75 
  3489.47,1216.59 3457.74,1202.43 3426.64,1188.27 3396.16,1174.11 3366.29,1159.95 3337.01,1145.79 3308.32,1131.63 3280.2,1117.48 3252.65,1103.32 3225.66,1089.16 
  3199.22,1075 3173.31,1060.84 3147.93,1046.68 3123.07,1032.52 3098.72,1018.36 3074.87,1004.2 3051.51,990.039 3028.63,975.88 3006.23,961.72 2984.3,947.56 
  2962.83,933.401 2941.81,919.241 2921.24,905.082 2901.11,890.922 2881.4,876.763 2862.12,862.603 2843.25,848.444 2824.79,834.284 2806.72,820.125 2789.05,805.965 
  2771.76,791.806 2754.84,777.646 2738.3,763.486 2722.11,749.327 2706.28,735.167 2690.8,721.008 2675.66,706.848 2660.85,692.689 2646.38,678.529 2632.22,664.37 
  2618.38,650.21 2604.84,636.051 2591.61,621.891 2578.67,607.731 2566.02,593.572 2553.66,579.412 2541.57,565.253 2529.76,551.093 2518.21,536.934 2506.93,522.774 
  2495.9,508.615 2485.12,494.455 2474.58,480.296 2464.27,466.136 2454.19,451.976 2444.34,437.817 2434.72,423.657 2425.31,409.498 2416.12,395.338 2407.14,381.179 
  2398.37,367.019 2389.8,352.86 2381.44,338.7 2373.28,324.541 2365.31,310.381 2357.54,296.222 2349.95,282.062 2342.56,267.902 2335.34,253.743 2328.31,239.583 
  2321.46,225.424 2314.78,211.264 2308.27,197.105 
  "/>
<path clip-path="url(#clip620)" d="
M3482.38 358.817 L3835.51 358.817 L3835.51 203.297 L3482.38 203.297  Z
  " fill="#ffffff" fill-rule="evenodd" fill-opacity="1"/>
<polyline clip-path="url(#clip620)" style="stroke:#000000; stroke-linecap:butt; stroke-linejoin:round; stroke-width:4; stroke-opacity:1; fill:none" points="
  3482.38,358.817 3835.51,358.817 3835.51,203.297 3482.38,203.297 3482.38,358.817 
  "/>
<polyline clip-path="url(#clip620)" style="stroke:#009af9; stroke-linecap:butt; stroke-linejoin:round; stroke-width:4; stroke-opacity:1; fill:none" points="
  3500.47,255.137 3608.97,255.137 
  "/>
<path clip-path="url(#clip620)" d="M3647.56 247.487 L3647.56 251.468 Q3645.76 250.473 3643.93 249.987 Q3642.12 249.477 3640.27 249.477 Q3636.13 249.477 3633.84 252.116 Q3631.54 254.732 3631.54 259.477 Q3631.54 264.223 3633.84 266.862 Q3636.13 269.477 3640.27 269.477 Q3642.12 269.477 3643.93 268.991 Q3645.76 268.482 3647.56 267.487 L3647.56 271.422 Q3645.78 272.255 3643.86 272.672 Q3641.96 273.088 3639.81 273.088 Q3633.95 273.088 3630.5 269.408 Q3627.05 265.727 3627.05 259.477 Q3627.05 253.135 3630.53 249.501 Q3634.02 245.866 3640.09 245.866 Q3642.05 245.866 3643.93 246.283 Q3645.8 246.677 3647.56 247.487 Z" fill="#000000" fill-rule="evenodd" fill-opacity="1" /><path clip-path="url(#clip620)" d="M3677.15 258.389 L3677.15 260.473 L3657.56 260.473 Q3657.84 264.871 3660.2 267.186 Q3662.59 269.477 3666.82 269.477 Q3669.28 269.477 3671.57 268.876 Q3673.88 268.274 3676.15 267.07 L3676.15 271.098 Q3673.86 272.07 3671.45 272.579 Q3669.04 273.088 3666.57 273.088 Q3660.36 273.088 3656.73 269.477 Q3653.12 265.866 3653.12 259.709 Q3653.12 253.343 3656.54 249.616 Q3659.99 245.866 3665.83 245.866 Q3671.06 245.866 3674.09 249.246 Q3677.15 252.602 3677.15 258.389 M3672.89 257.139 Q3672.84 253.644 3670.92 251.561 Q3669.02 249.477 3665.87 249.477 Q3662.31 249.477 3660.16 251.491 Q3658.03 253.505 3657.7 257.163 L3672.89 257.139 Z" fill="#000000" fill-rule="evenodd" fill-opacity="1" /><path clip-path="url(#clip620)" d="M3705.69 256.769 L3705.69 272.417 L3701.43 272.417 L3701.43 256.908 Q3701.43 253.227 3699.99 251.399 Q3698.56 249.57 3695.69 249.57 Q3692.24 249.57 3690.25 251.769 Q3688.26 253.968 3688.26 257.764 L3688.26 272.417 L3683.97 272.417 L3683.97 246.491 L3688.26 246.491 L3688.26 250.519 Q3689.78 248.181 3691.84 247.024 Q3693.93 245.866 3696.64 245.866 Q3701.1 245.866 3703.4 248.644 Q3705.69 251.399 3705.69 256.769 Z" fill="#000000" fill-rule="evenodd" fill-opacity="1" /><path clip-path="url(#clip620)" d="M3718.4 239.13 L3718.4 246.491 L3727.17 246.491 L3727.17 249.802 L3718.4 249.802 L3718.4 263.876 Q3718.4 267.047 3719.25 267.95 Q3720.13 268.852 3722.79 268.852 L3727.17 268.852 L3727.17 272.417 L3722.79 272.417 Q3717.86 272.417 3715.99 270.588 Q3714.11 268.737 3714.11 263.876 L3714.11 249.802 L3710.99 249.802 L3710.99 246.491 L3714.11 246.491 L3714.11 239.13 L3718.4 239.13 Z" fill="#000000" fill-rule="evenodd" fill-opacity="1" /><path clip-path="url(#clip620)" d="M3754.95 258.389 L3754.95 260.473 L3735.36 260.473 Q3735.64 264.871 3738 267.186 Q3740.39 269.477 3744.62 269.477 Q3747.08 269.477 3749.37 268.876 Q3751.68 268.274 3753.95 267.07 L3753.95 271.098 Q3751.66 272.07 3749.25 272.579 Q3746.84 273.088 3744.37 273.088 Q3738.16 273.088 3734.53 269.477 Q3730.92 265.866 3730.92 259.709 Q3730.92 253.343 3734.34 249.616 Q3737.79 245.866 3743.63 245.866 Q3748.86 245.866 3751.89 249.246 Q3754.95 252.602 3754.95 258.389 M3750.69 257.139 Q3750.64 253.644 3748.72 251.561 Q3746.82 249.477 3743.67 249.477 Q3740.11 249.477 3737.96 251.491 Q3735.83 253.505 3735.5 257.163 L3750.69 257.139 Z" fill="#000000" fill-rule="evenodd" fill-opacity="1" /><path clip-path="url(#clip620)" d="M3776.96 250.473 Q3776.24 250.056 3775.39 249.871 Q3774.55 249.663 3773.53 249.663 Q3769.92 249.663 3767.98 252.024 Q3766.06 254.362 3766.06 258.76 L3766.06 272.417 L3761.77 272.417 L3761.77 246.491 L3766.06 246.491 L3766.06 250.519 Q3767.4 248.158 3769.55 247.024 Q3771.71 245.866 3774.78 245.866 Q3775.22 245.866 3775.76 245.936 Q3776.29 245.982 3776.94 246.098 L3776.96 250.473 Z" fill="#000000" fill-rule="evenodd" fill-opacity="1" /><path clip-path="url(#clip620)" d="M3797.96 247.255 L3797.96 251.283 Q3796.15 250.357 3794.21 249.894 Q3792.26 249.431 3790.18 249.431 Q3787.01 249.431 3785.41 250.403 Q3783.84 251.376 3783.84 253.32 Q3783.84 254.802 3784.97 255.658 Q3786.1 256.491 3789.53 257.255 L3790.99 257.579 Q3795.52 258.552 3797.42 260.334 Q3799.34 262.093 3799.34 265.264 Q3799.34 268.876 3796.47 270.982 Q3793.63 273.088 3788.63 273.088 Q3786.54 273.088 3784.27 272.672 Q3782.03 272.278 3779.53 271.468 L3779.53 267.07 Q3781.89 268.297 3784.18 268.922 Q3786.47 269.524 3788.72 269.524 Q3791.73 269.524 3793.35 268.505 Q3794.97 267.463 3794.97 265.589 Q3794.97 263.852 3793.79 262.926 Q3792.63 262.001 3788.67 261.144 L3787.19 260.797 Q3783.23 259.964 3781.47 258.251 Q3779.71 256.514 3779.71 253.505 Q3779.71 249.848 3782.31 247.857 Q3784.9 245.866 3789.67 245.866 Q3792.03 245.866 3794.11 246.214 Q3796.2 246.561 3797.96 247.255 Z" fill="#000000" fill-rule="evenodd" fill-opacity="1" /><polyline clip-path="url(#clip620)" style="stroke:#e26f46; stroke-linecap:butt; stroke-linejoin:round; stroke-width:4; stroke-opacity:1; fill:none" points="
  3500.47,306.977 3608.97,306.977 
  "/>
<path clip-path="url(#clip620)" d="M3643.56 288.239 L3643.56 291.78 L3639.48 291.78 Q3637.19 291.78 3636.29 292.706 Q3635.41 293.632 3635.41 296.04 L3635.41 298.331 L3642.42 298.331 L3642.42 301.642 L3635.41 301.642 L3635.41 324.257 L3631.13 324.257 L3631.13 301.642 L3627.05 301.642 L3627.05 298.331 L3631.13 298.331 L3631.13 296.526 Q3631.13 292.197 3633.14 290.23 Q3635.16 288.239 3639.53 288.239 L3643.56 288.239 Z" fill="#000000" fill-rule="evenodd" fill-opacity="1" /><path clip-path="url(#clip620)" d="M3658.91 311.225 Q3653.74 311.225 3651.75 312.405 Q3649.76 313.586 3649.76 316.433 Q3649.76 318.702 3651.24 320.044 Q3652.75 321.364 3655.32 321.364 Q3658.86 321.364 3660.99 318.864 Q3663.14 316.341 3663.14 312.174 L3663.14 311.225 L3658.91 311.225 M3667.4 309.466 L3667.4 324.257 L3663.14 324.257 L3663.14 320.322 Q3661.68 322.683 3659.51 323.817 Q3657.33 324.928 3654.18 324.928 Q3650.2 324.928 3647.84 322.706 Q3645.5 320.461 3645.5 316.711 Q3645.5 312.336 3648.42 310.114 Q3651.36 307.892 3657.17 307.892 L3663.14 307.892 L3663.14 307.475 Q3663.14 304.535 3661.2 302.938 Q3659.28 301.317 3655.78 301.317 Q3653.56 301.317 3651.45 301.85 Q3649.35 302.382 3647.4 303.447 L3647.4 299.512 Q3649.74 298.609 3651.94 298.169 Q3654.14 297.706 3656.22 297.706 Q3661.84 297.706 3664.62 300.623 Q3667.4 303.54 3667.4 309.466 Z" fill="#000000" fill-rule="evenodd" fill-opacity="1" /><path clip-path="url(#clip620)" d="M3694.83 299.327 L3694.83 303.308 Q3693.03 302.313 3691.2 301.827 Q3689.39 301.317 3687.54 301.317 Q3683.4 301.317 3681.1 303.956 Q3678.81 306.572 3678.81 311.317 Q3678.81 316.063 3681.1 318.702 Q3683.4 321.317 3687.54 321.317 Q3689.39 321.317 3691.2 320.831 Q3693.03 320.322 3694.83 319.327 L3694.83 323.262 Q3693.05 324.095 3691.13 324.512 Q3689.23 324.928 3687.08 324.928 Q3681.22 324.928 3677.77 321.248 Q3674.32 317.567 3674.32 311.317 Q3674.32 304.975 3677.79 301.341 Q3681.29 297.706 3687.35 297.706 Q3689.32 297.706 3691.2 298.123 Q3693.07 298.517 3694.83 299.327 Z" fill="#000000" fill-rule="evenodd" fill-opacity="1" /><path clip-path="url(#clip620)" d="M3724.41 310.229 L3724.41 312.313 L3704.83 312.313 Q3705.11 316.711 3707.47 319.026 Q3709.85 321.317 3714.09 321.317 Q3716.54 321.317 3718.84 320.716 Q3721.15 320.114 3723.42 318.91 L3723.42 322.938 Q3721.13 323.91 3718.72 324.419 Q3716.31 324.928 3713.84 324.928 Q3707.63 324.928 3704 321.317 Q3700.39 317.706 3700.39 311.549 Q3700.39 305.183 3703.81 301.456 Q3707.26 297.706 3713.09 297.706 Q3718.33 297.706 3721.36 301.086 Q3724.41 304.442 3724.41 310.229 M3720.15 308.979 Q3720.11 305.484 3718.19 303.401 Q3716.29 301.317 3713.14 301.317 Q3709.58 301.317 3707.42 303.331 Q3705.29 305.345 3704.97 309.003 L3720.15 308.979 Z" fill="#000000" fill-rule="evenodd" fill-opacity="1" /><path clip-path="url(#clip620)" d="M3747.93 299.095 L3747.93 303.123 Q3746.13 302.197 3744.18 301.734 Q3742.24 301.271 3740.15 301.271 Q3736.98 301.271 3735.39 302.243 Q3733.81 303.216 3733.81 305.16 Q3733.81 306.642 3734.95 307.498 Q3736.08 308.331 3739.51 309.095 L3740.96 309.419 Q3745.5 310.392 3747.4 312.174 Q3749.32 313.933 3749.32 317.104 Q3749.32 320.716 3746.45 322.822 Q3743.6 324.928 3738.6 324.928 Q3736.52 324.928 3734.25 324.512 Q3732.01 324.118 3729.51 323.308 L3729.51 318.91 Q3731.87 320.137 3734.16 320.762 Q3736.45 321.364 3738.7 321.364 Q3741.71 321.364 3743.33 320.345 Q3744.95 319.303 3744.95 317.429 Q3744.95 315.692 3743.77 314.766 Q3742.61 313.841 3738.65 312.984 L3737.17 312.637 Q3733.21 311.804 3731.45 310.091 Q3729.69 308.354 3729.69 305.345 Q3729.69 301.688 3732.28 299.697 Q3734.88 297.706 3739.65 297.706 Q3742.01 297.706 3744.09 298.054 Q3746.17 298.401 3747.93 299.095 Z" fill="#000000" fill-rule="evenodd" fill-opacity="1" /></svg>
