<?xml version="1.0" encoding="utf-8"?>
<svg xmlns="http://www.w3.org/2000/svg" xmlns:xlink="http://www.w3.org/1999/xlink" width="1000" height="400" viewBox="0 0 4000 1600">
<defs>
  <clipPath id="clip990">
    <rect x="0" y="0" width="4000" height="1600"/>
  </clipPath>
</defs>
<path clip-path="url(#clip990)" d="
M0 1600 L4000 1600 L4000 0 L0 0  Z
  " fill="#ffffff" fill-rule="evenodd" fill-opacity="1"/>
<defs>
  <clipPath id="clip991">
    <rect x="800" y="0" width="2801" height="1600"/>
  </clipPath>
</defs>
<path clip-path="url(#clip990)" d="
M234.133 1393.02 L1889.76 1393.02 L1889.76 162.272 L234.133 162.272  Z
  " fill="#ffffff" fill-rule="evenodd" fill-opacity="1"/>
<defs>
  <clipPath id="clip992">
    <rect x="234" y="162" width="1657" height="1232"/>
  </clipPath>
</defs>
<polyline clip-path="url(#clip992)" style="stroke:#000000; stroke-linecap:round; stroke-linejoin:round; stroke-width:2; stroke-opacity:0.1; fill:none" points="
  381.221,1393.02 381.221,162.272 
  "/>
<polyline clip-path="url(#clip992)" style="stroke:#000000; stroke-linecap:round; stroke-linejoin:round; stroke-width:2; stroke-opacity:0.1; fill:none" points="
  618.577,1393.02 618.577,162.272 
  "/>
<polyline clip-path="url(#clip992)" style="stroke:#000000; stroke-linecap:round; stroke-linejoin:round; stroke-width:2; stroke-opacity:0.1; fill:none" points="
  855.933,1393.02 855.933,162.272 
  "/>
<polyline clip-path="url(#clip992)" style="stroke:#000000; stroke-linecap:round; stroke-linejoin:round; stroke-width:2; stroke-opacity:0.1; fill:none" points="
  1093.29,1393.02 1093.29,162.272 
  "/>
<polyline clip-path="url(#clip992)" style="stroke:#000000; stroke-linecap:round; stroke-linejoin:round; stroke-width:2; stroke-opacity:0.1; fill:none" points="
  1330.64,1393.02 1330.64,162.272 
  "/>
<polyline clip-path="url(#clip992)" style="stroke:#000000; stroke-linecap:round; stroke-linejoin:round; stroke-width:2; stroke-opacity:0.1; fill:none" points="
  1568,1393.02 1568,162.272 
  "/>
<polyline clip-path="url(#clip992)" style="stroke:#000000; stroke-linecap:round; stroke-linejoin:round; stroke-width:2; stroke-opacity:0.1; fill:none" points="
  1805.36,1393.02 1805.36,162.272 
  "/>
<polyline clip-path="url(#clip990)" style="stroke:#000000; stroke-linecap:round; stroke-linejoin:round; stroke-width:4; stroke-opacity:1; fill:none" points="
  234.133,1393.02 1889.76,1393.02 
  "/>
<polyline clip-path="url(#clip990)" style="stroke:#000000; stroke-linecap:round; stroke-linejoin:round; stroke-width:4; stroke-opacity:1; fill:none" points="
  381.221,1393.02 381.221,1374.12 
  "/>
<polyline clip-path="url(#clip990)" style="stroke:#000000; stroke-linecap:round; stroke-linejoin:round; stroke-width:4; stroke-opacity:1; fill:none" points="
  618.577,1393.02 618.577,1374.12 
  "/>
<polyline clip-path="url(#clip990)" style="stroke:#000000; stroke-linecap:round; stroke-linejoin:round; stroke-width:4; stroke-opacity:1; fill:none" points="
  855.933,1393.02 855.933,1374.12 
  "/>
<polyline clip-path="url(#clip990)" style="stroke:#000000; stroke-linecap:round; stroke-linejoin:round; stroke-width:4; stroke-opacity:1; fill:none" points="
  1093.29,1393.02 1093.29,1374.12 
  "/>
<polyline clip-path="url(#clip990)" style="stroke:#000000; stroke-linecap:round; stroke-linejoin:round; stroke-width:4; stroke-opacity:1; fill:none" points="
  1330.64,1393.02 1330.64,1374.12 
  "/>
<polyline clip-path="url(#clip990)" style="stroke:#000000; stroke-linecap:round; stroke-linejoin:round; stroke-width:4; stroke-opacity:1; fill:none" points="
  1568,1393.02 1568,1374.12 
  "/>
<polyline clip-path="url(#clip990)" style="stroke:#000000; stroke-linecap:round; stroke-linejoin:round; stroke-width:4; stroke-opacity:1; fill:none" points="
  1805.36,1393.02 1805.36,1374.12 
  "/>
<path clip-path="url(#clip990)" d="M344.022 1436.74 Q340.411 1436.74 338.582 1440.3 Q336.777 1443.84 336.777 1450.97 Q336.777 1458.08 338.582 1461.65 Q340.411 1465.19 344.022 1465.19 Q347.656 1465.19 349.462 1461.65 Q351.291 1458.08 351.291 1450.97 Q351.291 1443.84 349.462 1440.3 Q347.656 1436.74 344.022 1436.74 M344.022 1433.03 Q349.832 1433.03 352.888 1437.64 Q355.966 1442.22 355.966 1450.97 Q355.966 1459.7 352.888 1464.31 Q349.832 1468.89 344.022 1468.89 Q338.212 1468.89 335.133 1464.31 Q332.078 1459.7 332.078 1450.97 Q332.078 1442.22 335.133 1437.64 Q338.212 1433.03 344.022 1433.03 Z" fill="#000000" fill-rule="evenodd" fill-opacity="1" /><path clip-path="url(#clip990)" d="M364.184 1462.34 L369.068 1462.34 L369.068 1468.22 L364.184 1468.22 L364.184 1462.34 Z" fill="#000000" fill-rule="evenodd" fill-opacity="1" /><path clip-path="url(#clip990)" d="M389.253 1451.81 Q385.92 1451.81 383.999 1453.59 Q382.101 1455.37 382.101 1458.5 Q382.101 1461.62 383.999 1463.4 Q385.92 1465.19 389.253 1465.19 Q392.587 1465.19 394.508 1463.4 Q396.429 1461.6 396.429 1458.5 Q396.429 1455.37 394.508 1453.59 Q392.61 1451.81 389.253 1451.81 M384.577 1449.82 Q381.568 1449.08 379.878 1447.02 Q378.212 1444.96 378.212 1441.99 Q378.212 1437.85 381.152 1435.44 Q384.114 1433.03 389.253 1433.03 Q394.415 1433.03 397.355 1435.44 Q400.295 1437.85 400.295 1441.99 Q400.295 1444.96 398.605 1447.02 Q396.938 1449.08 393.952 1449.82 Q397.332 1450.6 399.207 1452.9 Q401.105 1455.19 401.105 1458.5 Q401.105 1463.52 398.026 1466.21 Q394.971 1468.89 389.253 1468.89 Q383.536 1468.89 380.457 1466.21 Q377.402 1463.52 377.402 1458.5 Q377.402 1455.19 379.3 1452.9 Q381.198 1450.6 384.577 1449.82 M382.864 1442.43 Q382.864 1445.12 384.531 1446.62 Q386.221 1448.13 389.253 1448.13 Q392.263 1448.13 393.952 1446.62 Q395.665 1445.12 395.665 1442.43 Q395.665 1439.75 393.952 1438.24 Q392.263 1436.74 389.253 1436.74 Q386.221 1436.74 384.531 1438.24 Q382.864 1439.75 382.864 1442.43 Z" fill="#000000" fill-rule="evenodd" fill-opacity="1" /><path clip-path="url(#clip990)" d="M409.462 1433.66 L427.818 1433.66 L427.818 1437.59 L413.744 1437.59 L413.744 1446.07 Q414.762 1445.72 415.781 1445.56 Q416.799 1445.37 417.818 1445.37 Q423.605 1445.37 426.985 1448.54 Q430.364 1451.72 430.364 1457.13 Q430.364 1462.71 426.892 1465.81 Q423.42 1468.89 417.1 1468.89 Q414.924 1468.89 412.656 1468.52 Q410.411 1468.15 408.003 1467.41 L408.003 1462.71 Q410.087 1463.84 412.309 1464.4 Q414.531 1464.96 417.008 1464.96 Q421.012 1464.96 423.35 1462.85 Q425.688 1460.74 425.688 1457.13 Q425.688 1453.52 423.35 1451.41 Q421.012 1449.31 417.008 1449.31 Q415.133 1449.31 413.258 1449.72 Q411.406 1450.14 409.462 1451.02 L409.462 1433.66 Z" fill="#000000" fill-rule="evenodd" fill-opacity="1" /><path clip-path="url(#clip990)" d="M580.88 1436.74 Q577.269 1436.74 575.441 1440.3 Q573.635 1443.84 573.635 1450.97 Q573.635 1458.08 575.441 1461.65 Q577.269 1465.19 580.88 1465.19 Q584.515 1465.19 586.32 1461.65 Q588.149 1458.08 588.149 1450.97 Q588.149 1443.84 586.32 1440.3 Q584.515 1436.74 580.88 1436.74 M580.88 1433.03 Q586.691 1433.03 589.746 1437.64 Q592.825 1442.22 592.825 1450.97 Q592.825 1459.7 589.746 1464.31 Q586.691 1468.89 580.88 1468.89 Q575.07 1468.89 571.992 1464.31 Q568.936 1459.7 568.936 1450.97 Q568.936 1442.22 571.992 1437.64 Q575.07 1433.03 580.88 1433.03 Z" fill="#000000" fill-rule="evenodd" fill-opacity="1" /><path clip-path="url(#clip990)" d="M601.042 1462.34 L605.927 1462.34 L605.927 1468.22 L601.042 1468.22 L601.042 1462.34 Z" fill="#000000" fill-rule="evenodd" fill-opacity="1" /><path clip-path="url(#clip990)" d="M616.251 1467.5 L616.251 1463.24 Q618.01 1464.08 619.815 1464.52 Q621.621 1464.96 623.357 1464.96 Q627.987 1464.96 630.417 1461.85 Q632.871 1458.73 633.218 1452.39 Q631.876 1454.38 629.815 1455.44 Q627.755 1456.51 625.255 1456.51 Q620.07 1456.51 617.038 1453.38 Q614.028 1450.23 614.028 1444.79 Q614.028 1439.47 617.177 1436.25 Q620.325 1433.03 625.556 1433.03 Q631.551 1433.03 634.7 1437.64 Q637.871 1442.22 637.871 1450.97 Q637.871 1459.15 633.982 1464.03 Q630.116 1468.89 623.565 1468.89 Q621.806 1468.89 620.001 1468.54 Q618.195 1468.2 616.251 1467.5 M625.556 1452.85 Q628.704 1452.85 630.533 1450.7 Q632.385 1448.54 632.385 1444.79 Q632.385 1441.07 630.533 1438.91 Q628.704 1436.74 625.556 1436.74 Q622.408 1436.74 620.556 1438.91 Q618.727 1441.07 618.727 1444.79 Q618.727 1448.54 620.556 1450.7 Q622.408 1452.85 625.556 1452.85 Z" fill="#000000" fill-rule="evenodd" fill-opacity="1" /><path clip-path="url(#clip990)" d="M656.274 1436.74 Q652.662 1436.74 650.834 1440.3 Q649.028 1443.84 649.028 1450.97 Q649.028 1458.08 650.834 1461.65 Q652.662 1465.19 656.274 1465.19 Q659.908 1465.19 661.713 1461.65 Q663.542 1458.08 663.542 1450.97 Q663.542 1443.84 661.713 1440.3 Q659.908 1436.74 656.274 1436.74 M656.274 1433.03 Q662.084 1433.03 665.139 1437.64 Q668.218 1442.22 668.218 1450.97 Q668.218 1459.7 665.139 1464.31 Q662.084 1468.89 656.274 1468.89 Q650.463 1468.89 647.385 1464.31 Q644.329 1459.7 644.329 1450.97 Q644.329 1442.22 647.385 1437.64 Q650.463 1433.03 656.274 1433.03 Z" fill="#000000" fill-rule="evenodd" fill-opacity="1" /><path clip-path="url(#clip990)" d="M818.734 1436.74 Q815.123 1436.74 813.294 1440.3 Q811.489 1443.84 811.489 1450.97 Q811.489 1458.08 813.294 1461.65 Q815.123 1465.19 818.734 1465.19 Q822.368 1465.19 824.174 1461.65 Q826.003 1458.08 826.003 1450.97 Q826.003 1443.84 824.174 1440.3 Q822.368 1436.74 818.734 1436.74 M818.734 1433.03 Q824.544 1433.03 827.6 1437.64 Q830.678 1442.22 830.678 1450.97 Q830.678 1459.7 827.6 1464.31 Q824.544 1468.89 818.734 1468.89 Q812.924 1468.89 809.845 1464.31 Q806.79 1459.7 806.79 1450.97 Q806.79 1442.22 809.845 1437.64 Q812.924 1433.03 818.734 1433.03 Z" fill="#000000" fill-rule="evenodd" fill-opacity="1" /><path clip-path="url(#clip990)" d="M838.896 1462.34 L843.78 1462.34 L843.78 1468.22 L838.896 1468.22 L838.896 1462.34 Z" fill="#000000" fill-rule="evenodd" fill-opacity="1" /><path clip-path="url(#clip990)" d="M854.104 1467.5 L854.104 1463.24 Q855.864 1464.08 857.669 1464.52 Q859.475 1464.96 861.211 1464.96 Q865.84 1464.96 868.271 1461.85 Q870.725 1458.73 871.072 1452.39 Q869.729 1454.38 867.669 1455.44 Q865.609 1456.51 863.109 1456.51 Q857.924 1456.51 854.891 1453.38 Q851.882 1450.23 851.882 1444.79 Q851.882 1439.47 855.03 1436.25 Q858.178 1433.03 863.41 1433.03 Q869.405 1433.03 872.553 1437.64 Q875.725 1442.22 875.725 1450.97 Q875.725 1459.15 871.836 1464.03 Q867.97 1468.89 861.419 1468.89 Q859.66 1468.89 857.854 1468.54 Q856.049 1468.2 854.104 1467.5 M863.41 1452.85 Q866.558 1452.85 868.387 1450.7 Q870.238 1448.54 870.238 1444.79 Q870.238 1441.07 868.387 1438.91 Q866.558 1436.74 863.41 1436.74 Q860.262 1436.74 858.41 1438.91 Q856.581 1441.07 856.581 1444.79 Q856.581 1448.54 858.41 1450.7 Q860.262 1452.85 863.41 1452.85 Z" fill="#000000" fill-rule="evenodd" fill-opacity="1" /><path clip-path="url(#clip990)" d="M884.174 1433.66 L902.53 1433.66 L902.53 1437.59 L888.456 1437.59 L888.456 1446.07 Q889.474 1445.72 890.493 1445.56 Q891.511 1445.37 892.53 1445.37 Q898.317 1445.37 901.697 1448.54 Q905.076 1451.72 905.076 1457.13 Q905.076 1462.71 901.604 1465.81 Q898.132 1468.89 891.812 1468.89 Q889.636 1468.89 887.368 1468.52 Q885.123 1468.15 882.715 1467.41 L882.715 1462.71 Q884.799 1463.84 887.021 1464.4 Q889.243 1464.96 891.72 1464.96 Q895.724 1464.96 898.062 1462.85 Q900.4 1460.74 900.4 1457.13 Q900.4 1453.52 898.062 1451.41 Q895.724 1449.31 891.72 1449.31 Q889.845 1449.31 887.97 1449.72 Q886.118 1450.14 884.174 1451.02 L884.174 1433.66 Z" fill="#000000" fill-rule="evenodd" fill-opacity="1" /><path clip-path="url(#clip990)" d="M1045.36 1464.28 L1053 1464.28 L1053 1437.92 L1044.69 1439.59 L1044.69 1435.33 L1052.95 1433.66 L1057.63 1433.66 L1057.63 1464.28 L1065.27 1464.28 L1065.27 1468.22 L1045.36 1468.22 L1045.36 1464.28 Z" fill="#000000" fill-rule="evenodd" fill-opacity="1" /><path clip-path="url(#clip990)" d="M1074.71 1462.34 L1079.6 1462.34 L1079.6 1468.22 L1074.71 1468.22 L1074.71 1462.34 Z" fill="#000000" fill-rule="evenodd" fill-opacity="1" /><path clip-path="url(#clip990)" d="M1099.78 1436.74 Q1096.17 1436.74 1094.34 1440.3 Q1092.54 1443.84 1092.54 1450.97 Q1092.54 1458.08 1094.34 1461.65 Q1096.17 1465.19 1099.78 1465.19 Q1103.42 1465.19 1105.22 1461.65 Q1107.05 1458.08 1107.05 1450.97 Q1107.05 1443.84 1105.22 1440.3 Q1103.42 1436.74 1099.78 1436.74 M1099.78 1433.03 Q1105.59 1433.03 1108.65 1437.64 Q1111.73 1442.22 1111.73 1450.97 Q1111.73 1459.7 1108.65 1464.31 Q1105.59 1468.89 1099.78 1468.89 Q1093.97 1468.89 1090.89 1464.31 Q1087.84 1459.7 1087.84 1450.97 Q1087.84 1442.22 1090.89 1437.64 Q1093.97 1433.03 1099.78 1433.03 Z" fill="#000000" fill-rule="evenodd" fill-opacity="1" /><path clip-path="url(#clip990)" d="M1129.94 1436.74 Q1126.33 1436.74 1124.5 1440.3 Q1122.7 1443.84 1122.7 1450.97 Q1122.7 1458.08 1124.5 1461.65 Q1126.33 1465.19 1129.94 1465.19 Q1133.58 1465.19 1135.38 1461.65 Q1137.21 1458.08 1137.21 1450.97 Q1137.21 1443.84 1135.38 1440.3 Q1133.58 1436.74 1129.94 1436.74 M1129.94 1433.03 Q1135.75 1433.03 1138.81 1437.64 Q1141.89 1442.22 1141.89 1450.97 Q1141.89 1459.7 1138.81 1464.31 Q1135.75 1468.89 1129.94 1468.89 Q1124.13 1468.89 1121.06 1464.31 Q1118 1459.7 1118 1450.97 Q1118 1442.22 1121.06 1437.64 Q1124.13 1433.03 1129.94 1433.03 Z" fill="#000000" fill-rule="evenodd" fill-opacity="1" /><path clip-path="url(#clip990)" d="M1283.21 1464.28 L1290.85 1464.28 L1290.85 1437.92 L1282.54 1439.59 L1282.54 1435.33 L1290.81 1433.66 L1295.48 1433.66 L1295.48 1464.28 L1303.12 1464.28 L1303.12 1468.22 L1283.21 1468.22 L1283.21 1464.28 Z" fill="#000000" fill-rule="evenodd" fill-opacity="1" /><path clip-path="url(#clip990)" d="M1312.57 1462.34 L1317.45 1462.34 L1317.45 1468.22 L1312.57 1468.22 L1312.57 1462.34 Z" fill="#000000" fill-rule="evenodd" fill-opacity="1" /><path clip-path="url(#clip990)" d="M1337.64 1436.74 Q1334.02 1436.74 1332.2 1440.3 Q1330.39 1443.84 1330.39 1450.97 Q1330.39 1458.08 1332.2 1461.65 Q1334.02 1465.19 1337.64 1465.19 Q1341.27 1465.19 1343.08 1461.65 Q1344.9 1458.08 1344.9 1450.97 Q1344.9 1443.84 1343.08 1440.3 Q1341.27 1436.74 1337.64 1436.74 M1337.64 1433.03 Q1343.45 1433.03 1346.5 1437.64 Q1349.58 1442.22 1349.58 1450.97 Q1349.58 1459.7 1346.5 1464.31 Q1343.45 1468.89 1337.64 1468.89 Q1331.83 1468.89 1328.75 1464.31 Q1325.69 1459.7 1325.69 1450.97 Q1325.69 1442.22 1328.75 1437.64 Q1331.83 1433.03 1337.64 1433.03 Z" fill="#000000" fill-rule="evenodd" fill-opacity="1" /><path clip-path="url(#clip990)" d="M1357.84 1433.66 L1376.2 1433.66 L1376.2 1437.59 L1362.13 1437.59 L1362.13 1446.07 Q1363.14 1445.72 1364.16 1445.56 Q1365.18 1445.37 1366.2 1445.37 Q1371.99 1445.37 1375.37 1448.54 Q1378.75 1451.72 1378.75 1457.13 Q1378.75 1462.71 1375.27 1465.81 Q1371.8 1468.89 1365.48 1468.89 Q1363.31 1468.89 1361.04 1468.52 Q1358.79 1468.15 1356.39 1467.41 L1356.39 1462.71 Q1358.47 1463.84 1360.69 1464.4 Q1362.91 1464.96 1365.39 1464.96 Q1369.39 1464.96 1371.73 1462.85 Q1374.07 1460.74 1374.07 1457.13 Q1374.07 1453.52 1371.73 1451.41 Q1369.39 1449.31 1365.39 1449.31 Q1363.52 1449.31 1361.64 1449.72 Q1359.79 1450.14 1357.84 1451.02 L1357.84 1433.66 Z" fill="#000000" fill-rule="evenodd" fill-opacity="1" /><path clip-path="url(#clip990)" d="M1520.07 1464.28 L1527.71 1464.28 L1527.71 1437.92 L1519.4 1439.59 L1519.4 1435.33 L1527.67 1433.66 L1532.34 1433.66 L1532.34 1464.28 L1539.98 1464.28 L1539.98 1468.22 L1520.07 1468.22 L1520.07 1464.28 Z" fill="#000000" fill-rule="evenodd" fill-opacity="1" /><path clip-path="url(#clip990)" d="M1549.42 1462.34 L1554.31 1462.34 L1554.31 1468.22 L1549.42 1468.22 L1549.42 1462.34 Z" fill="#000000" fill-rule="evenodd" fill-opacity="1" /><path clip-path="url(#clip990)" d="M1565.3 1464.28 L1572.94 1464.28 L1572.94 1437.92 L1564.63 1439.59 L1564.63 1435.33 L1572.9 1433.66 L1577.57 1433.66 L1577.57 1464.28 L1585.21 1464.28 L1585.21 1468.22 L1565.3 1468.22 L1565.3 1464.28 Z" fill="#000000" fill-rule="evenodd" fill-opacity="1" /><path clip-path="url(#clip990)" d="M1604.66 1436.74 Q1601.04 1436.74 1599.22 1440.3 Q1597.41 1443.84 1597.41 1450.97 Q1597.41 1458.08 1599.22 1461.65 Q1601.04 1465.19 1604.66 1465.19 Q1608.29 1465.19 1610.1 1461.65 Q1611.92 1458.08 1611.92 1450.97 Q1611.92 1443.84 1610.1 1440.3 Q1608.29 1436.74 1604.66 1436.74 M1604.66 1433.03 Q1610.47 1433.03 1613.52 1437.64 Q1616.6 1442.22 1616.6 1450.97 Q1616.6 1459.7 1613.52 1464.31 Q1610.47 1468.89 1604.66 1468.89 Q1598.85 1468.89 1595.77 1464.31 Q1592.71 1459.7 1592.71 1450.97 Q1592.71 1442.22 1595.77 1437.64 Q1598.85 1433.03 1604.66 1433.03 Z" fill="#000000" fill-rule="evenodd" fill-opacity="1" /><path clip-path="url(#clip990)" d="M1757.93 1464.28 L1765.57 1464.28 L1765.57 1437.92 L1757.26 1439.59 L1757.26 1435.33 L1765.52 1433.66 L1770.2 1433.66 L1770.2 1464.28 L1777.83 1464.28 L1777.83 1468.22 L1757.93 1468.22 L1757.93 1464.28 Z" fill="#000000" fill-rule="evenodd" fill-opacity="1" /><path clip-path="url(#clip990)" d="M1787.28 1462.34 L1792.16 1462.34 L1792.16 1468.22 L1787.28 1468.22 L1787.28 1462.34 Z" fill="#000000" fill-rule="evenodd" fill-opacity="1" /><path clip-path="url(#clip990)" d="M1803.16 1464.28 L1810.8 1464.28 L1810.8 1437.92 L1802.49 1439.59 L1802.49 1435.33 L1810.75 1433.66 L1815.43 1433.66 L1815.43 1464.28 L1823.07 1464.28 L1823.07 1468.22 L1803.16 1468.22 L1803.16 1464.28 Z" fill="#000000" fill-rule="evenodd" fill-opacity="1" /><path clip-path="url(#clip990)" d="M1832.56 1433.66 L1850.91 1433.66 L1850.91 1437.59 L1836.84 1437.59 L1836.84 1446.07 Q1837.86 1445.72 1838.88 1445.56 Q1839.89 1445.37 1840.91 1445.37 Q1846.7 1445.37 1850.08 1448.54 Q1853.46 1451.72 1853.46 1457.13 Q1853.46 1462.71 1849.99 1465.81 Q1846.51 1468.89 1840.19 1468.89 Q1838.02 1468.89 1835.75 1468.52 Q1833.5 1468.15 1831.1 1467.41 L1831.1 1462.71 Q1833.18 1463.84 1835.4 1464.4 Q1837.63 1464.96 1840.1 1464.96 Q1844.11 1464.96 1846.44 1462.85 Q1848.78 1460.74 1848.78 1457.13 Q1848.78 1453.52 1846.44 1451.41 Q1844.11 1449.31 1840.1 1449.31 Q1838.23 1449.31 1836.35 1449.72 Q1834.5 1450.14 1832.56 1451.02 L1832.56 1433.66 Z" fill="#000000" fill-rule="evenodd" fill-opacity="1" /><path clip-path="url(#clip990)" d="M1048.87 1532.6 Q1050.81 1529.35 1055.61 1526.49 Q1057.49 1525.38 1063.29 1525.38 Q1069.78 1525.38 1073.82 1530.53 Q1077.89 1535.69 1077.89 1544.09 Q1077.89 1552.49 1073.82 1557.65 Q1069.78 1562.81 1063.29 1562.81 Q1059.37 1562.81 1056.54 1561.28 Q1053.74 1559.72 1051.89 1556.54 L1051.89 1575.44 L1046 1575.44 L1046 1544.41 Q1046 1537.06 1048.87 1532.6 M1071.82 1544.09 Q1071.82 1537.63 1069.14 1533.97 Q1066.5 1530.28 1061.85 1530.28 Q1057.21 1530.28 1054.53 1533.97 Q1051.89 1537.63 1051.89 1544.09 Q1051.89 1550.55 1054.53 1554.24 Q1057.21 1557.91 1061.85 1557.91 Q1066.5 1557.91 1069.14 1554.24 Q1071.82 1550.55 1071.82 1544.09 Z" fill="#000000" fill-rule="evenodd" fill-opacity="1" /><polyline clip-path="url(#clip992)" style="stroke:#000000; stroke-linecap:round; stroke-linejoin:round; stroke-width:2; stroke-opacity:0.1; fill:none" points="
  234.133,1358.19 1889.76,1358.19 
  "/>
<polyline clip-path="url(#clip992)" style="stroke:#000000; stroke-linecap:round; stroke-linejoin:round; stroke-width:2; stroke-opacity:0.1; fill:none" points="
  234.133,1048.57 1889.76,1048.57 
  "/>
<polyline clip-path="url(#clip992)" style="stroke:#000000; stroke-linecap:round; stroke-linejoin:round; stroke-width:2; stroke-opacity:0.1; fill:none" points="
  234.133,738.943 1889.76,738.943 
  "/>
<polyline clip-path="url(#clip992)" style="stroke:#000000; stroke-linecap:round; stroke-linejoin:round; stroke-width:2; stroke-opacity:0.1; fill:none" points="
  234.133,429.321 1889.76,429.321 
  "/>
<polyline clip-path="url(#clip990)" style="stroke:#000000; stroke-linecap:round; stroke-linejoin:round; stroke-width:4; stroke-opacity:1; fill:none" points="
  234.133,1393.02 234.133,162.272 
  "/>
<polyline clip-path="url(#clip990)" style="stroke:#000000; stroke-linecap:round; stroke-linejoin:round; stroke-width:4; stroke-opacity:1; fill:none" points="
  234.133,1358.19 253.031,1358.19 
  "/>
<polyline clip-path="url(#clip990)" style="stroke:#000000; stroke-linecap:round; stroke-linejoin:round; stroke-width:4; stroke-opacity:1; fill:none" points="
  234.133,1048.57 253.031,1048.57 
  "/>
<polyline clip-path="url(#clip990)" style="stroke:#000000; stroke-linecap:round; stroke-linejoin:round; stroke-width:4; stroke-opacity:1; fill:none" points="
  234.133,738.943 253.031,738.943 
  "/>
<polyline clip-path="url(#clip990)" style="stroke:#000000; stroke-linecap:round; stroke-linejoin:round; stroke-width:4; stroke-opacity:1; fill:none" points="
  234.133,429.321 253.031,429.321 
  "/>
<path clip-path="url(#clip990)" d="M162.189 1343.99 Q158.578 1343.99 156.749 1347.55 Q154.943 1351.09 154.943 1358.22 Q154.943 1365.33 156.749 1368.89 Q158.578 1372.43 162.189 1372.43 Q165.823 1372.43 167.628 1368.89 Q169.457 1365.33 169.457 1358.22 Q169.457 1351.09 167.628 1347.55 Q165.823 1343.99 162.189 1343.99 M162.189 1340.28 Q167.999 1340.28 171.054 1344.89 Q174.133 1349.47 174.133 1358.22 Q174.133 1366.95 171.054 1371.56 Q167.999 1376.14 162.189 1376.14 Q156.379 1376.14 153.3 1371.56 Q150.244 1366.95 150.244 1358.22 Q150.244 1349.47 153.3 1344.89 Q156.379 1340.28 162.189 1340.28 Z" fill="#000000" fill-rule="evenodd" fill-opacity="1" /><path clip-path="url(#clip990)" d="M154.226 1061.91 L161.865 1061.91 L161.865 1035.54 L153.554 1037.21 L153.554 1032.95 L161.818 1031.29 L166.494 1031.29 L166.494 1061.91 L174.133 1061.91 L174.133 1065.85 L154.226 1065.85 L154.226 1061.91 Z" fill="#000000" fill-rule="evenodd" fill-opacity="1" /><path clip-path="url(#clip990)" d="M157.814 752.288 L174.133 752.288 L174.133 756.223 L152.189 756.223 L152.189 752.288 Q154.851 749.533 159.434 744.904 Q164.041 740.251 165.221 738.909 Q167.466 736.385 168.346 734.649 Q169.249 732.89 169.249 731.2 Q169.249 728.446 167.304 726.71 Q165.383 724.973 162.281 724.973 Q160.082 724.973 157.629 725.737 Q155.198 726.501 152.42 728.052 L152.42 723.33 Q155.244 722.196 157.698 721.617 Q160.152 721.038 162.189 721.038 Q167.559 721.038 170.753 723.723 Q173.948 726.409 173.948 730.899 Q173.948 733.029 173.138 734.95 Q172.351 736.848 170.244 739.441 Q169.665 740.112 166.564 743.33 Q163.462 746.524 157.814 752.288 Z" fill="#000000" fill-rule="evenodd" fill-opacity="1" /><path clip-path="url(#clip990)" d="M167.003 427.967 Q170.36 428.685 172.235 430.953 Q174.133 433.222 174.133 436.555 Q174.133 441.671 170.615 444.472 Q167.096 447.273 160.615 447.273 Q158.439 447.273 156.124 446.833 Q153.832 446.416 151.379 445.56 L151.379 441.046 Q153.323 442.18 155.638 442.759 Q157.953 443.337 160.476 443.337 Q164.874 443.337 167.165 441.601 Q169.48 439.865 169.48 436.555 Q169.48 433.499 167.328 431.786 Q165.198 430.05 161.378 430.05 L157.351 430.05 L157.351 426.208 L161.564 426.208 Q165.013 426.208 166.841 424.842 Q168.67 423.453 168.67 420.861 Q168.67 418.199 166.772 416.787 Q164.897 415.351 161.378 415.351 Q159.457 415.351 157.258 415.768 Q155.059 416.185 152.42 417.064 L152.42 412.898 Q155.082 412.157 157.397 411.787 Q159.735 411.416 161.795 411.416 Q167.119 411.416 170.221 413.847 Q173.323 416.254 173.323 420.375 Q173.323 423.245 171.679 425.236 Q170.036 427.203 167.003 427.967 Z" fill="#000000" fill-rule="evenodd" fill-opacity="1" /><path clip-path="url(#clip990)" d="M40.3403 876.171 L40.3403 848.353 L45.6875 848.353 L71.3095 870.378 L71.3095 848.353 L75.9883 848.353 L75.9883 876.967 L70.6411 876.967 L45.0191 854.942 L45.0191 876.171 L40.3403 876.171 Z" fill="#000000" fill-rule="evenodd" fill-opacity="1" /><path clip-path="url(#clip990)" d="M26.5267 804.621 Q33.8473 808.886 41.0087 810.955 Q48.1701 813.023 55.5225 813.023 Q62.8749 813.023 70.1 810.955 Q77.2933 808.854 84.582 804.621 L84.582 809.713 Q77.1023 814.488 69.8772 816.875 Q62.6521 819.23 55.5225 819.23 Q48.4248 819.23 41.2315 816.875 Q34.0383 814.519 26.5267 809.713 L26.5267 804.621 Z" fill="#000000" fill-rule="evenodd" fill-opacity="1" /><path clip-path="url(#clip990)" d="M26.4631 793.481 L26.4631 787.592 L55.7135 787.592 L40.3403 770.119 L40.3403 762.639 L57.0185 781.545 L75.9883 761.843 L75.9883 769.482 L58.5781 787.592 L75.9883 787.592 L75.9883 793.481 L26.4631 793.481 Z" fill="#000000" fill-rule="evenodd" fill-opacity="1" /><path clip-path="url(#clip990)" d="M47.1835 727.755 Q43.2367 725.559 41.3588 722.503 Q39.481 719.448 39.481 715.31 Q39.481 709.74 43.3959 706.716 Q47.2789 703.692 54.4722 703.692 L75.9883 703.692 L75.9883 709.581 L54.6632 709.581 Q49.5388 709.581 47.0561 711.395 Q44.5735 713.209 44.5735 716.933 Q44.5735 721.485 47.5972 724.126 Q50.6209 726.768 55.8408 726.768 L75.9883 726.768 L75.9883 732.656 L54.6632 732.656 Q49.5069 732.656 47.0561 734.471 Q44.5735 736.285 44.5735 740.072 Q44.5735 744.56 47.6291 747.202 Q50.6528 749.844 55.8408 749.844 L75.9883 749.844 L75.9883 755.732 L40.3403 755.732 L40.3403 749.844 L45.8785 749.844 Q42.6002 747.839 41.0406 745.038 Q39.481 742.237 39.481 738.385 Q39.481 734.502 41.4543 731.797 Q43.4277 729.06 47.1835 727.755 Z" fill="#000000" fill-rule="evenodd" fill-opacity="1" /><path clip-path="url(#clip990)" d="M26.5267 692.934 L26.5267 687.842 Q34.0383 683.067 41.2315 680.712 Q48.4248 678.325 55.5225 678.325 Q62.6521 678.325 69.8772 680.712 Q77.1023 683.067 84.582 687.842 L84.582 692.934 Q77.2933 688.701 70.1 686.632 Q62.8749 684.532 55.5225 684.532 Q48.1701 684.532 41.0087 686.632 Q33.8473 688.701 26.5267 692.934 Z" fill="#000000" fill-rule="evenodd" fill-opacity="1" /><path clip-path="url(#clip990)" d="M1045.3 35.3077 Q1047.77 31.1758 1053.89 27.5299 Q1056.28 26.1121 1063.65 26.1121 Q1071.91 26.1121 1077.06 32.6746 Q1082.24 39.2371 1082.24 49.9314 Q1082.24 60.6258 1077.06 67.1883 Q1071.91 73.7508 1063.65 73.7508 Q1058.67 73.7508 1055.06 71.8063 Q1051.5 69.8214 1049.15 65.7705 L1049.15 89.8329 L1041.65 89.8329 L1041.65 50.3365 Q1041.65 40.9789 1045.3 35.3077 M1074.51 49.9314 Q1074.51 41.7081 1071.1 37.0496 Q1067.74 32.3505 1061.83 32.3505 Q1055.91 32.3505 1052.51 37.0496 Q1049.15 41.7081 1049.15 49.9314 Q1049.15 58.1548 1052.51 62.8538 Q1055.91 67.5124 1061.83 67.5124 Q1067.74 67.5124 1071.1 62.8538 Q1074.51 58.1548 1074.51 49.9314 Z" fill="#000000" fill-rule="evenodd" fill-opacity="1" /><polyline clip-path="url(#clip992)" style="stroke:#009af9; stroke-linecap:round; stroke-linejoin:round; stroke-width:4; stroke-opacity:1; fill:none" points="
  1831.76,1350.45 1809.5,1334.97 1787.3,1319.48 1765.15,1304 1743.06,1288.52 1721.02,1273.04 1699.04,1257.56 1677.11,1242.08 1655.23,1226.6 1633.41,1211.12 
  1611.64,1195.64 1589.93,1180.15 1568.27,1164.67 1546.66,1149.19 1525.11,1133.71 1503.61,1118.23 1482.16,1102.75 1460.77,1087.27 1439.43,1071.79 1418.15,1056.31 
  1396.92,1040.82 1375.74,1025.34 1354.61,1009.86 1333.54,994.381 1312.53,978.9 1291.56,963.419 1270.65,947.938 1249.79,932.457 1228.99,916.976 1208.24,901.495 
  1187.54,886.014 1166.89,870.533 1146.3,855.051 1125.76,839.57 1105.27,824.089 1084.84,808.608 1064.46,793.127 1044.13,777.646 1023.85,762.165 1003.63,746.684 
  983.462,731.203 963.344,715.722 943.279,700.24 923.266,684.759 903.305,669.278 883.397,653.797 863.542,638.316 843.738,622.835 823.987,607.354 804.288,591.873 
  784.642,576.392 765.047,560.911 745.504,545.429 726.014,529.948 706.575,514.467 687.188,498.986 667.854,483.505 647.769,468.024 626.077,452.543 604.479,437.062 
  582.973,421.581 561.556,406.1 540.225,390.618 518.981,375.137 497.823,359.656 476.752,344.175 455.767,328.694 434.871,313.213 414.063,297.732 393.344,282.251 
  372.715,266.77 352.174,251.289 331.724,235.807 311.363,220.326 291.092,204.845 
  "/>
<polyline clip-path="url(#clip992)" style="stroke:#e26f46; stroke-linecap:round; stroke-linejoin:round; stroke-width:4; stroke-opacity:1; fill:none" points="
  1842.91,1358.19 1820.62,1342.71 1798.39,1327.23 1776.22,1311.74 1754.1,1296.26 1732.04,1280.78 1710.02,1265.3 1688.07,1249.82 1666.16,1234.34 1644.31,1218.86 
  1622.52,1203.38 1600.78,1187.9 1579.09,1172.41 1557.46,1156.93 1535.88,1141.45 1514.35,1125.97 1492.88,1110.49 1471.46,1095.01 1450.09,1079.53 1428.78,1064.05 
  1407.52,1048.57 1386.32,1033.08 1365.17,1017.6 1344.07,1002.12 1323.03,986.641 1302.04,971.16 1281.1,955.679 1260.21,940.198 1239.38,924.716 1218.61,909.235 
  1197.88,893.754 1177.21,878.273 1156.59,862.792 1136.02,847.311 1115.51,831.83 1095.05,816.349 1074.64,800.868 1054.29,785.387 1033.99,769.905 1013.74,754.424 
  993.54,738.943 973.396,723.462 953.305,707.981 933.266,692.5 913.279,677.019 893.345,661.538 873.463,646.057 853.634,630.576 833.856,615.094 814.131,599.613 
  794.459,584.132 774.838,568.651 755.269,553.17 735.753,537.689 716.288,522.208 696.875,506.727 677.514,491.246 658.206,475.765 636.911,460.283 615.266,444.802 
  593.715,429.321 572.254,413.84 550.88,398.359 529.592,382.878 508.391,367.397 487.276,351.916 466.249,336.435 445.308,320.954 424.456,305.472 403.693,289.991 
  383.018,274.51 362.433,259.029 341.938,243.548 321.533,228.067 301.217,212.586 280.991,197.105 
  "/>
<path clip-path="url(#clip990)" d="
M1478.33 358.817 L1834.58 358.817 L1834.58 203.297 L1478.33 203.297  Z
  " fill="#ffffff" fill-rule="evenodd" fill-opacity="1"/>
<polyline clip-path="url(#clip990)" style="stroke:#000000; stroke-linecap:round; stroke-linejoin:round; stroke-width:4; stroke-opacity:1; fill:none" points="
  1478.33,358.817 1834.58,358.817 1834.58,203.297 1478.33,203.297 1478.33,358.817 
  "/>
<polyline clip-path="url(#clip990)" style="stroke:#009af9; stroke-linecap:round; stroke-linejoin:round; stroke-width:4; stroke-opacity:1; fill:none" points="
  1496.72,255.137 1607.1,255.137 
  "/>
<path clip-path="url(#clip990)" d="M1646 247.487 L1646 251.468 Q1644.2 250.473 1642.37 249.987 Q1640.56 249.477 1638.71 249.477 Q1634.57 249.477 1632.28 252.116 Q1629.98 254.732 1629.98 259.477 Q1629.98 264.223 1632.28 266.862 Q1634.57 269.477 1638.71 269.477 Q1640.56 269.477 1642.37 268.991 Q1644.2 268.482 1646 267.487 L1646 271.422 Q1644.22 272.255 1642.3 272.672 Q1640.4 273.088 1638.25 273.088 Q1632.39 273.088 1628.94 269.408 Q1625.49 265.727 1625.49 259.477 Q1625.49 253.135 1628.97 249.501 Q1632.46 245.866 1638.53 245.866 Q1640.49 245.866 1642.37 246.283 Q1644.24 246.677 1646 247.487 Z" fill="#000000" fill-rule="evenodd" fill-opacity="1" /><path clip-path="url(#clip990)" d="M1675.59 258.389 L1675.59 260.473 L1656 260.473 Q1656.28 264.871 1658.64 267.186 Q1661.03 269.477 1665.26 269.477 Q1667.72 269.477 1670.01 268.876 Q1672.32 268.274 1674.59 267.07 L1674.59 271.098 Q1672.3 272.07 1669.89 272.579 Q1667.48 273.088 1665.01 273.088 Q1658.8 273.088 1655.17 269.477 Q1651.56 265.866 1651.56 259.709 Q1651.56 253.343 1654.98 249.616 Q1658.43 245.866 1664.27 245.866 Q1669.5 245.866 1672.53 249.246 Q1675.59 252.602 1675.59 258.389 M1671.33 257.139 Q1671.28 253.644 1669.36 251.561 Q1667.46 249.477 1664.31 249.477 Q1660.75 249.477 1658.6 251.491 Q1656.47 253.505 1656.14 257.163 L1671.33 257.139 Z" fill="#000000" fill-rule="evenodd" fill-opacity="1" /><path clip-path="url(#clip990)" d="M1704.13 256.769 L1704.13 272.417 L1699.87 272.417 L1699.87 256.908 Q1699.87 253.227 1698.43 251.399 Q1697 249.57 1694.13 249.57 Q1690.68 249.57 1688.69 251.769 Q1686.7 253.968 1686.7 257.764 L1686.7 272.417 L1682.41 272.417 L1682.41 246.491 L1686.7 246.491 L1686.7 250.519 Q1688.22 248.181 1690.28 247.024 Q1692.37 245.866 1695.08 245.866 Q1699.54 245.866 1701.84 248.644 Q1704.13 251.399 1704.13 256.769 Z" fill="#000000" fill-rule="evenodd" fill-opacity="1" /><path clip-path="url(#clip990)" d="M1716.84 239.13 L1716.84 246.491 L1725.61 246.491 L1725.61 249.802 L1716.84 249.802 L1716.84 263.876 Q1716.84 267.047 1717.69 267.95 Q1718.57 268.852 1721.23 268.852 L1725.61 268.852 L1725.61 272.417 L1721.23 272.417 Q1716.3 272.417 1714.43 270.588 Q1712.55 268.737 1712.55 263.876 L1712.55 249.802 L1709.43 249.802 L1709.43 246.491 L1712.55 246.491 L1712.55 239.13 L1716.84 239.13 Z" fill="#000000" fill-rule="evenodd" fill-opacity="1" /><path clip-path="url(#clip990)" d="M1753.39 258.389 L1753.39 260.473 L1733.8 260.473 Q1734.08 264.871 1736.44 267.186 Q1738.83 269.477 1743.06 269.477 Q1745.52 269.477 1747.81 268.876 Q1750.12 268.274 1752.39 267.07 L1752.39 271.098 Q1750.1 272.07 1747.69 272.579 Q1745.28 273.088 1742.81 273.088 Q1736.6 273.088 1732.97 269.477 Q1729.36 265.866 1729.36 259.709 Q1729.36 253.343 1732.78 249.616 Q1736.23 245.866 1742.07 245.866 Q1747.3 245.866 1750.33 249.246 Q1753.39 252.602 1753.39 258.389 M1749.13 257.139 Q1749.08 253.644 1747.16 251.561 Q1745.26 249.477 1742.11 249.477 Q1738.55 249.477 1736.4 251.491 Q1734.27 253.505 1733.94 257.163 L1749.13 257.139 Z" fill="#000000" fill-rule="evenodd" fill-opacity="1" /><path clip-path="url(#clip990)" d="M1775.4 250.473 Q1774.68 250.056 1773.83 249.871 Q1772.99 249.663 1771.97 249.663 Q1768.36 249.663 1766.42 252.024 Q1764.5 254.362 1764.5 258.76 L1764.5 272.417 L1760.22 272.417 L1760.22 246.491 L1764.5 246.491 L1764.5 250.519 Q1765.84 248.158 1767.99 247.024 Q1770.15 245.866 1773.22 245.866 Q1773.66 245.866 1774.2 245.936 Q1774.73 245.982 1775.38 246.098 L1775.4 250.473 Z" fill="#000000" fill-rule="evenodd" fill-opacity="1" /><path clip-path="url(#clip990)" d="M1796.4 247.255 L1796.4 251.283 Q1794.59 250.357 1792.65 249.894 Q1790.7 249.431 1788.62 249.431 Q1785.45 249.431 1783.85 250.403 Q1782.28 251.376 1782.28 253.32 Q1782.28 254.802 1783.41 255.658 Q1784.54 256.491 1787.97 257.255 L1789.43 257.579 Q1793.96 258.552 1795.86 260.334 Q1797.78 262.093 1797.78 265.264 Q1797.78 268.876 1794.91 270.982 Q1792.07 273.088 1787.07 273.088 Q1784.98 273.088 1782.71 272.672 Q1780.47 272.278 1777.97 271.468 L1777.97 267.07 Q1780.33 268.297 1782.62 268.922 Q1784.91 269.524 1787.16 269.524 Q1790.17 269.524 1791.79 268.505 Q1793.41 267.463 1793.41 265.589 Q1793.41 263.852 1792.23 262.926 Q1791.07 262.001 1787.11 261.144 L1785.63 260.797 Q1781.67 259.964 1779.91 258.251 Q1778.15 256.514 1778.15 253.505 Q1778.15 249.848 1780.75 247.857 Q1783.34 245.866 1788.11 245.866 Q1790.47 245.866 1792.55 246.214 Q1794.64 246.561 1796.4 247.255 Z" fill="#000000" fill-rule="evenodd" fill-opacity="1" /><polyline clip-path="url(#clip990)" style="stroke:#e26f46; stroke-linecap:round; stroke-linejoin:round; stroke-width:4; stroke-opacity:1; fill:none" points="
  1496.72,306.977 1607.1,306.977 
  "/>
<path clip-path="url(#clip990)" d="M1642 288.239 L1642 291.78 L1637.92 291.78 Q1635.63 291.78 1634.73 292.706 Q1633.85 293.632 1633.85 296.04 L1633.85 298.331 L1640.86 298.331 L1640.86 301.642 L1633.85 301.642 L1633.85 324.257 L1629.57 324.257 L1629.57 301.642 L1625.49 301.642 L1625.49 298.331 L1629.57 298.331 L1629.57 296.526 Q1629.57 292.197 1631.58 290.23 Q1633.6 288.239 1637.97 288.239 L1642 288.239 Z" fill="#000000" fill-rule="evenodd" fill-opacity="1" /><path clip-path="url(#clip990)" d="M1657.35 311.225 Q1652.18 311.225 1650.19 312.405 Q1648.2 313.586 1648.2 316.433 Q1648.2 318.702 1649.68 320.044 Q1651.19 321.364 1653.76 321.364 Q1657.3 321.364 1659.43 318.864 Q1661.58 316.341 1661.58 312.174 L1661.58 311.225 L1657.35 311.225 M1665.84 309.466 L1665.84 324.257 L1661.58 324.257 L1661.58 320.322 Q1660.12 322.683 1657.95 323.817 Q1655.77 324.928 1652.62 324.928 Q1648.64 324.928 1646.28 322.706 Q1643.94 320.461 1643.94 316.711 Q1643.94 312.336 1646.86 310.114 Q1649.8 307.892 1655.61 307.892 L1661.58 307.892 L1661.58 307.475 Q1661.58 304.535 1659.64 302.938 Q1657.72 301.317 1654.22 301.317 Q1652 301.317 1649.89 301.85 Q1647.79 302.382 1645.84 303.447 L1645.84 299.512 Q1648.18 298.609 1650.38 298.169 Q1652.58 297.706 1654.66 297.706 Q1660.29 297.706 1663.06 300.623 Q1665.84 303.54 1665.84 309.466 Z" fill="#000000" fill-rule="evenodd" fill-opacity="1" /><path clip-path="url(#clip990)" d="M1693.27 299.327 L1693.27 303.308 Q1691.47 302.313 1689.64 301.827 Q1687.83 301.317 1685.98 301.317 Q1681.84 301.317 1679.54 303.956 Q1677.25 306.572 1677.25 311.317 Q1677.25 316.063 1679.54 318.702 Q1681.84 321.317 1685.98 321.317 Q1687.83 321.317 1689.64 320.831 Q1691.47 320.322 1693.27 319.327 L1693.27 323.262 Q1691.49 324.095 1689.57 324.512 Q1687.67 324.928 1685.52 324.928 Q1679.66 324.928 1676.21 321.248 Q1672.76 317.567 1672.76 311.317 Q1672.76 304.975 1676.23 301.341 Q1679.73 297.706 1685.79 297.706 Q1687.76 297.706 1689.64 298.123 Q1691.51 298.517 1693.27 299.327 Z" fill="#000000" fill-rule="evenodd" fill-opacity="1" /><path clip-path="url(#clip990)" d="M1722.85 310.229 L1722.85 312.313 L1703.27 312.313 Q1703.55 316.711 1705.91 319.026 Q1708.29 321.317 1712.53 321.317 Q1714.98 321.317 1717.28 320.716 Q1719.59 320.114 1721.86 318.91 L1721.86 322.938 Q1719.57 323.91 1717.16 324.419 Q1714.75 324.928 1712.28 324.928 Q1706.07 324.928 1702.44 321.317 Q1698.83 317.706 1698.83 311.549 Q1698.83 305.183 1702.25 301.456 Q1705.7 297.706 1711.53 297.706 Q1716.77 297.706 1719.8 301.086 Q1722.85 304.442 1722.85 310.229 M1718.59 308.979 Q1718.55 305.484 1716.63 303.401 Q1714.73 301.317 1711.58 301.317 Q1708.02 301.317 1705.86 303.331 Q1703.73 305.345 1703.41 309.003 L1718.59 308.979 Z" fill="#000000" fill-rule="evenodd" fill-opacity="1" /><path clip-path="url(#clip990)" d="M1746.37 299.095 L1746.37 303.123 Q1744.57 302.197 1742.62 301.734 Q1740.68 301.271 1738.59 301.271 Q1735.42 301.271 1733.83 302.243 Q1732.25 303.216 1732.25 305.16 Q1732.25 306.642 1733.39 307.498 Q1734.52 308.331 1737.95 309.095 L1739.4 309.419 Q1743.94 310.392 1745.84 312.174 Q1747.76 313.933 1747.76 317.104 Q1747.76 320.716 1744.89 322.822 Q1742.04 324.928 1737.04 324.928 Q1734.96 324.928 1732.69 324.512 Q1730.45 324.118 1727.95 323.308 L1727.95 318.91 Q1730.31 320.137 1732.6 320.762 Q1734.89 321.364 1737.14 321.364 Q1740.15 321.364 1741.77 320.345 Q1743.39 319.303 1743.39 317.429 Q1743.39 315.692 1742.21 314.766 Q1741.05 313.841 1737.09 312.984 L1735.61 312.637 Q1731.65 311.804 1729.89 310.091 Q1728.13 308.354 1728.13 305.345 Q1728.13 301.688 1730.72 299.697 Q1733.32 297.706 1738.09 297.706 Q1740.45 297.706 1742.53 298.054 Q1744.61 298.401 1746.37 299.095 Z" fill="#000000" fill-rule="evenodd" fill-opacity="1" /><path clip-path="url(#clip990)" d="
M2234.13 1393.02 L3889.76 1393.02 L3889.76 162.272 L2234.13 162.272  Z
  " fill="#ffffff" fill-rule="evenodd" fill-opacity="1"/>
<defs>
  <clipPath id="clip993">
    <rect x="2234" y="162" width="1657" height="1232"/>
  </clipPath>
</defs>
<polyline clip-path="url(#clip993)" style="stroke:#000000; stroke-linecap:round; stroke-linejoin:round; stroke-width:2; stroke-opacity:0.1; fill:none" points="
  2557.91,1393.02 2557.91,162.272 
  "/>
<polyline clip-path="url(#clip993)" style="stroke:#000000; stroke-linecap:round; stroke-linejoin:round; stroke-width:2; stroke-opacity:0.1; fill:none" points="
  2986.24,1393.02 2986.24,162.272 
  "/>
<polyline clip-path="url(#clip993)" style="stroke:#000000; stroke-linecap:round; stroke-linejoin:round; stroke-width:2; stroke-opacity:0.1; fill:none" points="
  3414.57,1393.02 3414.57,162.272 
  "/>
<polyline clip-path="url(#clip993)" style="stroke:#000000; stroke-linecap:round; stroke-linejoin:round; stroke-width:2; stroke-opacity:0.1; fill:none" points="
  3842.91,1393.02 3842.91,162.272 
  "/>
<polyline clip-path="url(#clip990)" style="stroke:#000000; stroke-linecap:round; stroke-linejoin:round; stroke-width:4; stroke-opacity:1; fill:none" points="
  2234.13,1393.02 3889.76,1393.02 
  "/>
<polyline clip-path="url(#clip990)" style="stroke:#000000; stroke-linecap:round; stroke-linejoin:round; stroke-width:4; stroke-opacity:1; fill:none" points="
  2557.91,1393.02 2557.91,1374.12 
  "/>
<polyline clip-path="url(#clip990)" style="stroke:#000000; stroke-linecap:round; stroke-linejoin:round; stroke-width:4; stroke-opacity:1; fill:none" points="
  2986.24,1393.02 2986.24,1374.12 
  "/>
<polyline clip-path="url(#clip990)" style="stroke:#000000; stroke-linecap:round; stroke-linejoin:round; stroke-width:4; stroke-opacity:1; fill:none" points="
  3414.57,1393.02 3414.57,1374.12 
  "/>
<polyline clip-path="url(#clip990)" style="stroke:#000000; stroke-linecap:round; stroke-linejoin:round; stroke-width:4; stroke-opacity:1; fill:none" points="
  3842.91,1393.02 3842.91,1374.12 
  "/>
<path clip-path="url(#clip990)" d="M2531.27 1433.66 L2553.49 1433.66 L2553.49 1435.65 L2540.94 1468.22 L2536.06 1468.22 L2547.86 1437.59 L2531.27 1437.59 L2531.27 1433.66 Z" fill="#000000" fill-rule="evenodd" fill-opacity="1" /><path clip-path="url(#clip990)" d="M2572.61 1436.74 Q2569 1436.74 2567.17 1440.3 Q2565.36 1443.84 2565.36 1450.97 Q2565.36 1458.08 2567.17 1461.65 Q2569 1465.19 2572.61 1465.19 Q2576.24 1465.19 2578.05 1461.65 Q2579.88 1458.08 2579.88 1450.97 Q2579.88 1443.84 2578.05 1440.3 Q2576.24 1436.74 2572.61 1436.74 M2572.61 1433.03 Q2578.42 1433.03 2581.47 1437.64 Q2584.55 1442.22 2584.55 1450.97 Q2584.55 1459.7 2581.47 1464.31 Q2578.42 1468.89 2572.61 1468.89 Q2566.8 1468.89 2563.72 1464.31 Q2560.66 1459.7 2560.66 1450.97 Q2560.66 1442.22 2563.72 1437.64 Q2566.8 1433.03 2572.61 1433.03 Z" fill="#000000" fill-rule="evenodd" fill-opacity="1" /><path clip-path="url(#clip990)" d="M2971.11 1451.81 Q2967.78 1451.81 2965.86 1453.59 Q2963.96 1455.37 2963.96 1458.5 Q2963.96 1461.62 2965.86 1463.4 Q2967.78 1465.19 2971.11 1465.19 Q2974.45 1465.19 2976.37 1463.4 Q2978.29 1461.6 2978.29 1458.5 Q2978.29 1455.37 2976.37 1453.59 Q2974.47 1451.81 2971.11 1451.81 M2966.44 1449.82 Q2963.43 1449.08 2961.74 1447.02 Q2960.07 1444.96 2960.07 1441.99 Q2960.07 1437.85 2963.01 1435.44 Q2965.98 1433.03 2971.11 1433.03 Q2976.28 1433.03 2979.22 1435.44 Q2982.16 1437.85 2982.16 1441.99 Q2982.16 1444.96 2980.47 1447.02 Q2978.8 1449.08 2975.81 1449.82 Q2979.19 1450.6 2981.07 1452.9 Q2982.97 1455.19 2982.97 1458.5 Q2982.97 1463.52 2979.89 1466.21 Q2976.83 1468.89 2971.11 1468.89 Q2965.4 1468.89 2962.32 1466.21 Q2959.26 1463.52 2959.26 1458.5 Q2959.26 1455.19 2961.16 1452.9 Q2963.06 1450.6 2966.44 1449.82 M2964.73 1442.43 Q2964.73 1445.12 2966.39 1446.62 Q2968.08 1448.13 2971.11 1448.13 Q2974.12 1448.13 2975.81 1446.62 Q2977.53 1445.12 2977.53 1442.43 Q2977.53 1439.75 2975.81 1438.24 Q2974.12 1436.74 2971.11 1436.74 Q2968.08 1436.74 2966.39 1438.24 Q2964.73 1439.75 2964.73 1442.43 Z" fill="#000000" fill-rule="evenodd" fill-opacity="1" /><path clip-path="url(#clip990)" d="M3001.28 1436.74 Q2997.67 1436.74 2995.84 1440.3 Q2994.03 1443.84 2994.03 1450.97 Q2994.03 1458.08 2995.84 1461.65 Q2997.67 1465.19 3001.28 1465.19 Q3004.91 1465.19 3006.72 1461.65 Q3008.54 1458.08 3008.54 1450.97 Q3008.54 1443.84 3006.72 1440.3 Q3004.91 1436.74 3001.28 1436.74 M3001.28 1433.03 Q3007.09 1433.03 3010.14 1437.64 Q3013.22 1442.22 3013.22 1450.97 Q3013.22 1459.7 3010.14 1464.31 Q3007.09 1468.89 3001.28 1468.89 Q2995.47 1468.89 2992.39 1464.31 Q2989.33 1459.7 2989.33 1450.97 Q2989.33 1442.22 2992.39 1437.64 Q2995.47 1433.03 3001.28 1433.03 Z" fill="#000000" fill-rule="evenodd" fill-opacity="1" /><path clip-path="url(#clip990)" d="M3389.7 1467.5 L3389.7 1463.24 Q3391.46 1464.08 3393.27 1464.52 Q3395.07 1464.96 3396.81 1464.96 Q3401.44 1464.96 3403.87 1461.85 Q3406.32 1458.73 3406.67 1452.39 Q3405.33 1454.38 3403.27 1455.44 Q3401.21 1456.51 3398.71 1456.51 Q3393.52 1456.51 3390.49 1453.38 Q3387.48 1450.23 3387.48 1444.79 Q3387.48 1439.47 3390.63 1436.25 Q3393.78 1433.03 3399.01 1433.03 Q3405 1433.03 3408.15 1437.64 Q3411.32 1442.22 3411.32 1450.97 Q3411.32 1459.15 3407.43 1464.03 Q3403.57 1468.89 3397.02 1468.89 Q3395.26 1468.89 3393.45 1468.54 Q3391.65 1468.2 3389.7 1467.5 M3399.01 1452.85 Q3402.16 1452.85 3403.98 1450.7 Q3405.84 1448.54 3405.84 1444.79 Q3405.84 1441.07 3403.98 1438.91 Q3402.16 1436.74 3399.01 1436.74 Q3395.86 1436.74 3394.01 1438.91 Q3392.18 1441.07 3392.18 1444.79 Q3392.18 1448.54 3394.01 1450.7 Q3395.86 1452.85 3399.01 1452.85 Z" fill="#000000" fill-rule="evenodd" fill-opacity="1" /><path clip-path="url(#clip990)" d="M3429.72 1436.74 Q3426.11 1436.74 3424.28 1440.3 Q3422.48 1443.84 3422.48 1450.97 Q3422.48 1458.08 3424.28 1461.65 Q3426.11 1465.19 3429.72 1465.19 Q3433.36 1465.19 3435.16 1461.65 Q3436.99 1458.08 3436.99 1450.97 Q3436.99 1443.84 3435.16 1440.3 Q3433.36 1436.74 3429.72 1436.74 M3429.72 1433.03 Q3435.53 1433.03 3438.59 1437.64 Q3441.67 1442.22 3441.67 1450.97 Q3441.67 1459.7 3438.59 1464.31 Q3435.53 1468.89 3429.72 1468.89 Q3423.91 1468.89 3420.84 1464.31 Q3417.78 1459.7 3417.78 1450.97 Q3417.78 1442.22 3420.84 1437.64 Q3423.91 1433.03 3429.72 1433.03 Z" fill="#000000" fill-rule="evenodd" fill-opacity="1" /><path clip-path="url(#clip990)" d="M3802.51 1464.28 L3810.15 1464.28 L3810.15 1437.92 L3801.84 1439.59 L3801.84 1435.33 L3810.11 1433.66 L3814.78 1433.66 L3814.78 1464.28 L3822.42 1464.28 L3822.42 1468.22 L3802.51 1468.22 L3802.51 1464.28 Z" fill="#000000" fill-rule="evenodd" fill-opacity="1" /><path clip-path="url(#clip990)" d="M3841.86 1436.74 Q3838.25 1436.74 3836.42 1440.3 Q3834.62 1443.84 3834.62 1450.97 Q3834.62 1458.08 3836.42 1461.65 Q3838.25 1465.19 3841.86 1465.19 Q3845.5 1465.19 3847.3 1461.65 Q3849.13 1458.08 3849.13 1450.97 Q3849.13 1443.84 3847.3 1440.3 Q3845.5 1436.74 3841.86 1436.74 M3841.86 1433.03 Q3847.67 1433.03 3850.73 1437.64 Q3853.81 1442.22 3853.81 1450.97 Q3853.81 1459.7 3850.73 1464.31 Q3847.67 1468.89 3841.86 1468.89 Q3836.05 1468.89 3832.98 1464.31 Q3829.92 1459.7 3829.92 1450.97 Q3829.92 1442.22 3832.98 1437.64 Q3836.05 1433.03 3841.86 1433.03 Z" fill="#000000" fill-rule="evenodd" fill-opacity="1" /><path clip-path="url(#clip990)" d="M3872.03 1436.74 Q3868.42 1436.74 3866.59 1440.3 Q3864.78 1443.84 3864.78 1450.97 Q3864.78 1458.08 3866.59 1461.65 Q3868.42 1465.19 3872.03 1465.19 Q3875.66 1465.19 3877.47 1461.65 Q3879.29 1458.08 3879.29 1450.97 Q3879.29 1443.84 3877.47 1440.3 Q3875.66 1436.74 3872.03 1436.74 M3872.03 1433.03 Q3877.84 1433.03 3880.89 1437.64 Q3883.97 1442.22 3883.97 1450.97 Q3883.97 1459.7 3880.89 1464.31 Q3877.84 1468.89 3872.03 1468.89 Q3866.22 1468.89 3863.14 1464.31 Q3860.08 1459.7 3860.08 1450.97 Q3860.08 1442.22 3863.14 1437.64 Q3866.22 1433.03 3872.03 1433.03 Z" fill="#000000" fill-rule="evenodd" fill-opacity="1" /><path clip-path="url(#clip990)" d="M2960.08 1556.54 L2960.08 1575.44 L2954.19 1575.44 L2954.19 1526.24 L2960.08 1526.24 L2960.08 1531.65 Q2961.93 1528.46 2964.73 1526.94 Q2967.56 1525.38 2971.48 1525.38 Q2977.97 1525.38 2982.01 1530.53 Q2986.09 1535.69 2986.09 1544.09 Q2986.09 1552.49 2982.01 1557.65 Q2977.97 1562.81 2971.48 1562.81 Q2967.56 1562.81 2964.73 1561.28 Q2961.93 1559.72 2960.08 1556.54 M2980.01 1544.09 Q2980.01 1537.63 2977.33 1533.97 Q2974.69 1530.28 2970.04 1530.28 Q2965.4 1530.28 2962.72 1533.97 Q2960.08 1537.63 2960.08 1544.09 Q2960.08 1550.55 2962.72 1554.24 Q2965.4 1557.91 2970.04 1557.91 Q2974.69 1557.91 2977.33 1554.24 Q2980.01 1550.55 2980.01 1544.09 Z" fill="#000000" fill-rule="evenodd" fill-opacity="1" /><path clip-path="url(#clip990)" d="M3030.58 1512.42 Q3026.32 1519.74 3024.25 1526.9 Q3022.18 1534.07 3022.18 1541.42 Q3022.18 1548.77 3024.25 1556 Q3026.35 1563.19 3030.58 1570.48 L3025.49 1570.48 Q3020.71 1563 3018.33 1555.77 Q3015.97 1548.55 3015.97 1541.42 Q3015.97 1534.32 3018.33 1527.13 Q3020.68 1519.93 3025.49 1512.42 L3030.58 1512.42 Z" fill="#000000" fill-rule="evenodd" fill-opacity="1" /><path clip-path="url(#clip990)" d="M3041.72 1512.36 L3047.61 1512.36 L3047.61 1541.61 L3065.08 1526.24 L3072.56 1526.24 L3053.66 1542.91 L3073.36 1561.88 L3065.72 1561.88 L3047.61 1544.47 L3047.61 1561.88 L3041.72 1561.88 L3041.72 1512.36 Z" fill="#000000" fill-rule="evenodd" fill-opacity="1" /><path clip-path="url(#clip990)" d="M3086.38 1519.65 L3086.38 1537.5 L3094.46 1537.5 Q3098.95 1537.5 3101.4 1535.18 Q3103.85 1532.86 3103.85 1528.56 Q3103.85 1524.29 3101.4 1521.97 Q3098.95 1519.65 3094.46 1519.65 L3086.38 1519.65 M3079.95 1514.36 L3094.46 1514.36 Q3102.45 1514.36 3106.52 1517.99 Q3110.63 1521.59 3110.63 1528.56 Q3110.63 1535.59 3106.52 1539.19 Q3102.45 1542.79 3094.46 1542.79 L3086.38 1542.79 L3086.38 1561.88 L3079.95 1561.88 L3079.95 1514.36 Z" fill="#000000" fill-rule="evenodd" fill-opacity="1" /><path clip-path="url(#clip990)" d="M3132.27 1543.96 Q3125.18 1543.96 3122.44 1545.59 Q3119.7 1547.21 3119.7 1551.13 Q3119.7 1554.24 3121.74 1556.09 Q3123.81 1557.91 3127.34 1557.91 Q3132.21 1557.91 3135.14 1554.47 Q3138.1 1551 3138.1 1545.27 L3138.1 1543.96 L3132.27 1543.96 M3143.95 1541.55 L3143.95 1561.88 L3138.1 1561.88 L3138.1 1556.47 Q3136.09 1559.72 3133.1 1561.28 Q3130.11 1562.81 3125.78 1562.81 Q3120.31 1562.81 3117.06 1559.75 Q3113.84 1556.66 3113.84 1551.51 Q3113.84 1545.49 3117.86 1542.44 Q3121.9 1539.38 3129.89 1539.38 L3138.1 1539.38 L3138.1 1538.81 Q3138.1 1534.77 3135.42 1532.57 Q3132.78 1530.34 3127.98 1530.34 Q3124.92 1530.34 3122.02 1531.07 Q3119.13 1531.81 3116.45 1533.27 L3116.45 1527.86 Q3119.67 1526.62 3122.69 1526.01 Q3125.72 1525.38 3128.58 1525.38 Q3136.32 1525.38 3140.14 1529.39 Q3143.95 1533.4 3143.95 1541.55 Z" fill="#000000" fill-rule="evenodd" fill-opacity="1" /><path clip-path="url(#clip990)" d="M3155.09 1512.42 L3160.19 1512.42 Q3164.96 1519.93 3167.32 1527.13 Q3169.7 1534.32 3169.7 1541.42 Q3169.7 1548.55 3167.32 1555.77 Q3164.96 1563 3160.19 1570.48 L3155.09 1570.48 Q3159.33 1563.19 3161.4 1556 Q3163.5 1548.77 3163.5 1541.42 Q3163.5 1534.07 3161.4 1526.9 Q3159.33 1519.74 3155.09 1512.42 Z" fill="#000000" fill-rule="evenodd" fill-opacity="1" /><polyline clip-path="url(#clip993)" style="stroke:#000000; stroke-linecap:round; stroke-linejoin:round; stroke-width:2; stroke-opacity:0.1; fill:none" points="
  2234.13,1358.19 3889.76,1358.19 
  "/>
<polyline clip-path="url(#clip993)" style="stroke:#000000; stroke-linecap:round; stroke-linejoin:round; stroke-width:2; stroke-opacity:0.1; fill:none" points="
  2234.13,1048.57 3889.76,1048.57 
  "/>
<polyline clip-path="url(#clip993)" style="stroke:#000000; stroke-linecap:round; stroke-linejoin:round; stroke-width:2; stroke-opacity:0.1; fill:none" points="
  2234.13,738.943 3889.76,738.943 
  "/>
<polyline clip-path="url(#clip993)" style="stroke:#000000; stroke-linecap:round; stroke-linejoin:round; stroke-width:2; stroke-opacity:0.1; fill:none" points="
  2234.13,429.321 3889.76,429.321 
  "/>
<polyline clip-path="url(#clip990)" style="stroke:#000000; stroke-linecap:round; stroke-linejoin:round; stroke-width:4; stroke-opacity:1; fill:none" points="
  2234.13,1393.02 2234.13,162.272 
  "/>
<polyline clip-path="url(#clip990)" style="stroke:#000000; stroke-linecap:round; stroke-linejoin:round; stroke-width:4; stroke-opacity:1; fill:none" points="
  2234.13,1358.19 2253.03,1358.19 
  "/>
<polyline clip-path="url(#clip990)" style="stroke:#000000; stroke-linecap:round; stroke-linejoin:round; stroke-width:4; stroke-opacity:1; fill:none" points="
  2234.13,1048.57 2253.03,1048.57 
  "/>
<polyline clip-path="url(#clip990)" style="stroke:#000000; stroke-linecap:round; stroke-linejoin:round; stroke-width:4; stroke-opacity:1; fill:none" points="
  2234.13,738.943 2253.03,738.943 
  "/>
<polyline clip-path="url(#clip990)" style="stroke:#000000; stroke-linecap:round; stroke-linejoin:round; stroke-width:4; stroke-opacity:1; fill:none" points="
  2234.13,429.321 2253.03,429.321 
  "/>
<path clip-path="url(#clip990)" d="M2162.19 1343.99 Q2158.58 1343.99 2156.75 1347.55 Q2154.94 1351.09 2154.94 1358.22 Q2154.94 1365.33 2156.75 1368.89 Q2158.58 1372.43 2162.19 1372.43 Q2165.82 1372.43 2167.63 1368.89 Q2169.46 1365.33 2169.46 1358.22 Q2169.46 1351.09 2167.63 1347.55 Q2165.82 1343.99 2162.19 1343.99 M2162.19 1340.28 Q2168 1340.28 2171.05 1344.89 Q2174.13 1349.47 2174.13 1358.22 Q2174.13 1366.95 2171.05 1371.56 Q2168 1376.14 2162.19 1376.14 Q2156.38 1376.14 2153.3 1371.56 Q2150.24 1366.95 2150.24 1358.22 Q2150.24 1349.47 2153.3 1344.89 Q2156.38 1340.28 2162.19 1340.28 Z" fill="#000000" fill-rule="evenodd" fill-opacity="1" /><path clip-path="url(#clip990)" d="M2154.23 1061.91 L2161.86 1061.91 L2161.86 1035.54 L2153.55 1037.21 L2153.55 1032.95 L2161.82 1031.29 L2166.49 1031.29 L2166.49 1061.91 L2174.13 1061.91 L2174.13 1065.85 L2154.23 1065.85 L2154.23 1061.91 Z" fill="#000000" fill-rule="evenodd" fill-opacity="1" /><path clip-path="url(#clip990)" d="M2157.81 752.288 L2174.13 752.288 L2174.13 756.223 L2152.19 756.223 L2152.19 752.288 Q2154.85 749.533 2159.43 744.904 Q2164.04 740.251 2165.22 738.909 Q2167.47 736.385 2168.35 734.649 Q2169.25 732.89 2169.25 731.2 Q2169.25 728.446 2167.3 726.71 Q2165.38 724.973 2162.28 724.973 Q2160.08 724.973 2157.63 725.737 Q2155.2 726.501 2152.42 728.052 L2152.42 723.33 Q2155.24 722.196 2157.7 721.617 Q2160.15 721.038 2162.19 721.038 Q2167.56 721.038 2170.75 723.723 Q2173.95 726.409 2173.95 730.899 Q2173.95 733.029 2173.14 734.95 Q2172.35 736.848 2170.24 739.441 Q2169.67 740.112 2166.56 743.33 Q2163.46 746.524 2157.81 752.288 Z" fill="#000000" fill-rule="evenodd" fill-opacity="1" /><path clip-path="url(#clip990)" d="M2167 427.967 Q2170.36 428.685 2172.23 430.953 Q2174.13 433.222 2174.13 436.555 Q2174.13 441.671 2170.61 444.472 Q2167.1 447.273 2160.61 447.273 Q2158.44 447.273 2156.12 446.833 Q2153.83 446.416 2151.38 445.56 L2151.38 441.046 Q2153.32 442.18 2155.64 442.759 Q2157.95 443.337 2160.48 443.337 Q2164.87 443.337 2167.17 441.601 Q2169.48 439.865 2169.48 436.555 Q2169.48 433.499 2167.33 431.786 Q2165.2 430.05 2161.38 430.05 L2157.35 430.05 L2157.35 426.208 L2161.56 426.208 Q2165.01 426.208 2166.84 424.842 Q2168.67 423.453 2168.67 420.861 Q2168.67 418.199 2166.77 416.787 Q2164.9 415.351 2161.38 415.351 Q2159.46 415.351 2157.26 415.768 Q2155.06 416.185 2152.42 417.064 L2152.42 412.898 Q2155.08 412.157 2157.4 411.787 Q2159.73 411.416 2161.8 411.416 Q2167.12 411.416 2170.22 413.847 Q2173.32 416.254 2173.32 420.375 Q2173.32 423.245 2171.68 425.236 Q2170.04 427.203 2167 427.967 Z" fill="#000000" fill-rule="evenodd" fill-opacity="1" /><path clip-path="url(#clip990)" d="M2040.34 876.171 L2040.34 848.353 L2045.69 848.353 L2071.31 870.378 L2071.31 848.353 L2075.99 848.353 L2075.99 876.967 L2070.64 876.967 L2045.02 854.942 L2045.02 876.171 L2040.34 876.171 Z" fill="#000000" fill-rule="evenodd" fill-opacity="1" /><path clip-path="url(#clip990)" d="M2026.53 804.621 Q2033.85 808.886 2041.01 810.955 Q2048.17 813.023 2055.52 813.023 Q2062.87 813.023 2070.1 810.955 Q2077.29 808.854 2084.58 804.621 L2084.58 809.713 Q2077.1 814.488 2069.88 816.875 Q2062.65 819.23 2055.52 819.23 Q2048.42 819.23 2041.23 816.875 Q2034.04 814.519 2026.53 809.713 L2026.53 804.621 Z" fill="#000000" fill-rule="evenodd" fill-opacity="1" /><path clip-path="url(#clip990)" d="M2026.46 793.481 L2026.46 787.592 L2055.71 787.592 L2040.34 770.119 L2040.34 762.639 L2057.02 781.545 L2075.99 761.843 L2075.99 769.482 L2058.58 787.592 L2075.99 787.592 L2075.99 793.481 L2026.46 793.481 Z" fill="#000000" fill-rule="evenodd" fill-opacity="1" /><path clip-path="url(#clip990)" d="M2047.18 727.755 Q2043.24 725.559 2041.36 722.503 Q2039.48 719.448 2039.48 715.31 Q2039.48 709.74 2043.4 706.716 Q2047.28 703.692 2054.47 703.692 L2075.99 703.692 L2075.99 709.581 L2054.66 709.581 Q2049.54 709.581 2047.06 711.395 Q2044.57 713.209 2044.57 716.933 Q2044.57 721.485 2047.6 724.126 Q2050.62 726.768 2055.84 726.768 L2075.99 726.768 L2075.99 732.656 L2054.66 732.656 Q2049.51 732.656 2047.06 734.471 Q2044.57 736.285 2044.57 740.072 Q2044.57 744.56 2047.63 747.202 Q2050.65 749.844 2055.84 749.844 L2075.99 749.844 L2075.99 755.732 L2040.34 755.732 L2040.34 749.844 L2045.88 749.844 Q2042.6 747.839 2041.04 745.038 Q2039.48 742.237 2039.48 738.385 Q2039.48 734.502 2041.45 731.797 Q2043.43 729.06 2047.18 727.755 Z" fill="#000000" fill-rule="evenodd" fill-opacity="1" /><path clip-path="url(#clip990)" d="M2026.53 692.934 L2026.53 687.842 Q2034.04 683.067 2041.23 680.712 Q2048.42 678.325 2055.52 678.325 Q2062.65 678.325 2069.88 680.712 Q2077.1 683.067 2084.58 687.842 L2084.58 692.934 Q2077.29 688.701 2070.1 686.632 Q2062.87 684.532 2055.52 684.532 Q2048.17 684.532 2041.01 686.632 Q2033.85 688.701 2026.53 692.934 Z" fill="#000000" fill-rule="evenodd" fill-opacity="1" /><path clip-path="url(#clip990)" d="M2932.3 65.7705 L2932.3 89.8329 L2924.81 89.8329 L2924.81 27.2059 L2932.3 27.2059 L2932.3 34.0924 Q2934.65 30.0415 2938.21 28.0971 Q2941.82 26.1121 2946.8 26.1121 Q2955.07 26.1121 2960.21 32.6746 Q2965.4 39.2371 2965.4 49.9314 Q2965.4 60.6258 2960.21 67.1883 Q2955.07 73.7508 2946.8 73.7508 Q2941.82 73.7508 2938.21 71.8063 Q2934.65 69.8214 2932.3 65.7705 M2957.66 49.9314 Q2957.66 41.7081 2954.26 37.0496 Q2950.89 32.3505 2944.98 32.3505 Q2939.06 32.3505 2935.66 37.0496 Q2932.3 41.7081 2932.3 49.9314 Q2932.3 58.1548 2935.66 62.8538 Q2939.06 67.5124 2944.98 67.5124 Q2950.89 67.5124 2954.26 62.8538 Q2957.66 58.1548 2957.66 49.9314 Z" fill="#000000" fill-rule="evenodd" fill-opacity="1" /><path clip-path="url(#clip990)" d="M3022.03 9.62495 Q3016.6 18.942 3013.97 28.0566 Q3011.33 37.1711 3011.33 46.5287 Q3011.33 55.8863 3013.97 65.0818 Q3016.64 74.2369 3022.03 83.5134 L3015.55 83.5134 Q3009.47 73.9938 3006.43 64.7983 Q3003.43 55.6027 3003.43 46.5287 Q3003.43 37.4952 3006.43 28.3401 Q3009.43 19.1851 3015.55 9.62495 L3022.03 9.62495 Z" fill="#000000" fill-rule="evenodd" fill-opacity="1" /><path clip-path="url(#clip990)" d="M3036.2 9.54393 L3043.7 9.54393 L3043.7 46.7717 L3065.94 27.2059 L3075.46 27.2059 L3051.4 48.4326 L3076.47 72.576 L3066.75 72.576 L3043.7 50.4176 L3043.7 72.576 L3036.2 72.576 L3036.2 9.54393 Z" fill="#000000" fill-rule="evenodd" fill-opacity="1" /><path clip-path="url(#clip990)" d="M3093.04 18.8205 L3093.04 41.5461 L3103.33 41.5461 Q3109.04 41.5461 3112.16 38.5889 Q3115.28 35.6318 3115.28 30.163 Q3115.28 24.7348 3112.16 21.7777 Q3109.04 18.8205 3103.33 18.8205 L3093.04 18.8205 M3084.86 12.096 L3103.33 12.096 Q3113.5 12.096 3118.68 16.714 Q3123.91 21.2916 3123.91 30.163 Q3123.91 39.1155 3118.68 43.6931 Q3113.5 48.2706 3103.33 48.2706 L3093.04 48.2706 L3093.04 72.576 L3084.86 72.576 L3084.86 12.096 Z" fill="#000000" fill-rule="evenodd" fill-opacity="1" /><path clip-path="url(#clip990)" d="M3151.45 49.7694 Q3142.42 49.7694 3138.94 51.8354 Q3135.45 53.9013 3135.45 58.8839 Q3135.45 62.8538 3138.04 65.2034 Q3140.68 67.5124 3145.17 67.5124 Q3151.37 67.5124 3155.1 63.1374 Q3158.87 58.7219 3158.87 51.4303 L3158.87 49.7694 L3151.45 49.7694 M3166.32 46.6907 L3166.32 72.576 L3158.87 72.576 L3158.87 65.6895 Q3156.31 69.8214 3152.51 71.8063 Q3148.7 73.7508 3143.19 73.7508 Q3136.22 73.7508 3132.09 69.8619 Q3128 65.9325 3128 59.3701 Q3128 51.7138 3133.1 47.825 Q3138.25 43.9361 3148.41 43.9361 L3158.87 43.9361 L3158.87 43.2069 Q3158.87 38.0623 3155.46 35.2672 Q3152.1 32.4315 3145.98 32.4315 Q3142.1 32.4315 3138.41 33.3632 Q3134.72 34.295 3131.32 36.1584 L3131.32 29.2718 Q3135.41 27.692 3139.26 26.9223 Q3143.11 26.1121 3146.75 26.1121 Q3156.6 26.1121 3161.46 31.2163 Q3166.32 36.3204 3166.32 46.6907 Z" fill="#000000" fill-rule="evenodd" fill-opacity="1" /><path clip-path="url(#clip990)" d="M3180.5 9.62495 L3186.98 9.62495 Q3193.06 19.1851 3196.05 28.3401 Q3199.09 37.4952 3199.09 46.5287 Q3199.09 55.6027 3196.05 64.7983 Q3193.06 73.9938 3186.98 83.5134 L3180.5 83.5134 Q3185.89 74.2369 3188.52 65.0818 Q3191.19 55.8863 3191.19 46.5287 Q3191.19 37.1711 3188.52 28.0566 Q3185.89 18.942 3180.5 9.62495 Z" fill="#000000" fill-rule="evenodd" fill-opacity="1" /><polyline clip-path="url(#clip993)" style="stroke:#009af9; stroke-linecap:round; stroke-linejoin:round; stroke-width:4; stroke-opacity:1; fill:none" points="
  3830.75,1350.45 3806.53,1334.97 3782.4,1319.48 3758.36,1304 3734.43,1288.52 3710.59,1273.04 3686.85,1257.56 3663.21,1242.08 3639.67,1226.6 3616.22,1211.12 
  3592.87,1195.64 3569.61,1180.15 3546.45,1164.67 3523.39,1149.19 3500.42,1133.71 3477.54,1118.23 3454.77,1102.75 3432.08,1087.27 3409.49,1071.79 3387,1056.31 
  3364.6,1040.82 3342.29,1025.34 3320.08,1009.86 3297.96,994.381 3275.93,978.9 3254,963.419 3232.16,947.938 3210.41,932.457 3188.75,916.976 3167.19,901.495 
  3145.72,886.014 3124.34,870.533 3103.05,855.051 3081.85,839.57 3060.74,824.089 3039.72,808.608 3018.79,793.127 2997.96,777.646 2977.21,762.165 2956.55,746.684 
  2935.98,731.203 2915.51,715.722 2895.12,700.24 2874.81,684.759 2854.6,669.278 2834.48,653.797 2814.44,638.316 2794.49,622.835 2774.63,607.354 2754.85,591.873 
  2735.17,576.392 2715.57,560.911 2696.05,545.429 2676.63,529.948 2657.28,514.467 2638.03,498.986 2618.86,483.505 2599.78,468.024 2580.79,452.543 2561.89,437.062 
  2543.09,421.581 2524.39,406.1 2505.78,390.618 2487.27,375.137 2468.84,359.656 2450.52,344.175 2432.28,328.694 2414.14,313.213 2396.09,297.732 2378.13,282.251 
  2360.27,266.77 2342.49,251.289 2324.81,235.807 2307.21,220.326 2289.71,204.845 
  "/>
<polyline clip-path="url(#clip993)" style="stroke:#e26f46; stroke-linecap:round; stroke-linejoin:round; stroke-width:4; stroke-opacity:1; fill:none" points="
  3842.91,1358.19 3818.63,1342.71 3794.45,1327.23 3770.37,1311.74 3746.38,1296.26 3722.5,1280.78 3698.71,1265.3 3675.02,1249.82 3651.43,1234.34 3627.93,1218.86 
  3604.53,1203.38 3581.23,1187.9 3558.02,1172.41 3534.91,1156.93 3511.89,1141.45 3488.97,1125.97 3466.14,1110.49 3443.41,1095.01 3420.78,1079.53 3398.24,1064.05 
  3375.79,1048.57 3353.43,1033.08 3331.17,1017.6 3309.01,1002.12 3286.94,986.641 3264.96,971.16 3243.07,955.679 3221.27,940.198 3199.57,924.716 3177.96,909.235 
  3156.44,893.754 3135.02,878.273 3113.68,862.792 3092.44,847.311 3071.28,831.83 3050.22,816.349 3029.25,800.868 3008.36,785.387 2987.57,769.905 2966.87,754.424 
  2946.26,738.943 2925.73,723.462 2905.3,707.981 2884.95,692.5 2864.7,677.019 2844.53,661.538 2824.45,646.057 2804.45,630.576 2784.55,615.094 2764.73,599.613 
  2745,584.132 2725.36,568.651 2705.8,553.17 2686.33,537.689 2666.94,522.208 2647.65,506.727 2628.43,491.246 2609.31,475.765 2590.27,460.283 2571.33,444.802 
  2552.48,429.321 2533.73,413.84 2515.07,398.359 2496.51,382.878 2478.04,367.397 2459.67,351.916 2441.39,336.435 2423.2,320.954 2405.1,305.472 2387.1,289.991 
  2369.19,274.51 2351.37,259.029 2333.64,243.548 2316,228.067 2298.45,212.586 2280.99,197.105 
  "/>
<path clip-path="url(#clip990)" d="
M3478.33 358.817 L3834.58 358.817 L3834.58 203.297 L3478.33 203.297  Z
  " fill="#ffffff" fill-rule="evenodd" fill-opacity="1"/>
<polyline clip-path="url(#clip990)" style="stroke:#000000; stroke-linecap:round; stroke-linejoin:round; stroke-width:4; stroke-opacity:1; fill:none" points="
  3478.33,358.817 3834.58,358.817 3834.58,203.297 3478.33,203.297 3478.33,358.817 
  "/>
<polyline clip-path="url(#clip990)" style="stroke:#009af9; stroke-linecap:round; stroke-linejoin:round; stroke-width:4; stroke-opacity:1; fill:none" points="
  3496.72,255.137 3607.1,255.137 
  "/>
<path clip-path="url(#clip990)" d="M3646 247.487 L3646 251.468 Q3644.2 250.473 3642.37 249.987 Q3640.56 249.477 3638.71 249.477 Q3634.57 249.477 3632.28 252.116 Q3629.98 254.732 3629.98 259.477 Q3629.98 264.223 3632.28 266.862 Q3634.57 269.477 3638.71 269.477 Q3640.56 269.477 3642.37 268.991 Q3644.2 268.482 3646 267.487 L3646 271.422 Q3644.22 272.255 3642.3 272.672 Q3640.4 273.088 3638.25 273.088 Q3632.39 273.088 3628.94 269.408 Q3625.49 265.727 3625.49 259.477 Q3625.49 253.135 3628.97 249.501 Q3632.46 245.866 3638.53 245.866 Q3640.49 245.866 3642.37 246.283 Q3644.24 246.677 3646 247.487 Z" fill="#000000" fill-rule="evenodd" fill-opacity="1" /><path clip-path="url(#clip990)" d="M3675.59 258.389 L3675.59 260.473 L3656 260.473 Q3656.28 264.871 3658.64 267.186 Q3661.03 269.477 3665.26 269.477 Q3667.72 269.477 3670.01 268.876 Q3672.32 268.274 3674.59 267.07 L3674.59 271.098 Q3672.3 272.07 3669.89 272.579 Q3667.48 273.088 3665.01 273.088 Q3658.8 273.088 3655.17 269.477 Q3651.56 265.866 3651.56 259.709 Q3651.56 253.343 3654.98 249.616 Q3658.43 245.866 3664.27 245.866 Q3669.5 245.866 3672.53 249.246 Q3675.59 252.602 3675.59 258.389 M3671.33 257.139 Q3671.28 253.644 3669.36 251.561 Q3667.46 249.477 3664.31 249.477 Q3660.75 249.477 3658.6 251.491 Q3656.47 253.505 3656.14 257.163 L3671.33 257.139 Z" fill="#000000" fill-rule="evenodd" fill-opacity="1" /><path clip-path="url(#clip990)" d="M3704.13 256.769 L3704.13 272.417 L3699.87 272.417 L3699.87 256.908 Q3699.87 253.227 3698.43 251.399 Q3697 249.57 3694.13 249.57 Q3690.68 249.57 3688.69 251.769 Q3686.7 253.968 3686.7 257.764 L3686.7 272.417 L3682.41 272.417 L3682.41 246.491 L3686.7 246.491 L3686.7 250.519 Q3688.22 248.181 3690.28 247.024 Q3692.37 245.866 3695.08 245.866 Q3699.54 245.866 3701.84 248.644 Q3704.13 251.399 3704.13 256.769 Z" fill="#000000" fill-rule="evenodd" fill-opacity="1" /><path clip-path="url(#clip990)" d="M3716.84 239.13 L3716.84 246.491 L3725.61 246.491 L3725.61 249.802 L3716.84 249.802 L3716.84 263.876 Q3716.84 267.047 3717.69 267.95 Q3718.57 268.852 3721.23 268.852 L3725.61 268.852 L3725.61 272.417 L3721.23 272.417 Q3716.3 272.417 3714.43 270.588 Q3712.55 268.737 3712.55 263.876 L3712.55 249.802 L3709.43 249.802 L3709.43 246.491 L3712.55 246.491 L3712.55 239.13 L3716.84 239.13 Z" fill="#000000" fill-rule="evenodd" fill-opacity="1" /><path clip-path="url(#clip990)" d="M3753.39 258.389 L3753.39 260.473 L3733.8 260.473 Q3734.08 264.871 3736.44 267.186 Q3738.83 269.477 3743.06 269.477 Q3745.52 269.477 3747.81 268.876 Q3750.12 268.274 3752.39 267.07 L3752.39 271.098 Q3750.1 272.07 3747.69 272.579 Q3745.28 273.088 3742.81 273.088 Q3736.6 273.088 3732.97 269.477 Q3729.36 265.866 3729.36 259.709 Q3729.36 253.343 3732.78 249.616 Q3736.23 245.866 3742.07 245.866 Q3747.3 245.866 3750.33 249.246 Q3753.39 252.602 3753.39 258.389 M3749.13 257.139 Q3749.08 253.644 3747.16 251.561 Q3745.26 249.477 3742.11 249.477 Q3738.55 249.477 3736.4 251.491 Q3734.27 253.505 3733.94 257.163 L3749.13 257.139 Z" fill="#000000" fill-rule="evenodd" fill-opacity="1" /><path clip-path="url(#clip990)" d="M3775.4 250.473 Q3774.68 250.056 3773.83 249.871 Q3772.99 249.663 3771.97 249.663 Q3768.36 249.663 3766.42 252.024 Q3764.5 254.362 3764.5 258.76 L3764.5 272.417 L3760.22 272.417 L3760.22 246.491 L3764.5 246.491 L3764.5 250.519 Q3765.84 248.158 3767.99 247.024 Q3770.15 245.866 3773.22 245.866 Q3773.66 245.866 3774.2 245.936 Q3774.73 245.982 3775.38 246.098 L3775.4 250.473 Z" fill="#000000" fill-rule="evenodd" fill-opacity="1" /><path clip-path="url(#clip990)" d="M3796.4 247.255 L3796.4 251.283 Q3794.59 250.357 3792.65 249.894 Q3790.7 249.431 3788.62 249.431 Q3785.45 249.431 3783.85 250.403 Q3782.28 251.376 3782.28 253.32 Q3782.28 254.802 3783.41 255.658 Q3784.54 256.491 3787.97 257.255 L3789.43 257.579 Q3793.96 258.552 3795.86 260.334 Q3797.78 262.093 3797.78 265.264 Q3797.78 268.876 3794.91 270.982 Q3792.07 273.088 3787.07 273.088 Q3784.98 273.088 3782.71 272.672 Q3780.47 272.278 3777.97 271.468 L3777.97 267.07 Q3780.33 268.297 3782.62 268.922 Q3784.91 269.524 3787.16 269.524 Q3790.17 269.524 3791.79 268.505 Q3793.41 267.463 3793.41 265.589 Q3793.41 263.852 3792.23 262.926 Q3791.07 262.001 3787.11 261.144 L3785.63 260.797 Q3781.67 259.964 3779.91 258.251 Q3778.15 256.514 3778.15 253.505 Q3778.15 249.848 3780.75 247.857 Q3783.34 245.866 3788.11 245.866 Q3790.47 245.866 3792.55 246.214 Q3794.64 246.561 3796.4 247.255 Z" fill="#000000" fill-rule="evenodd" fill-opacity="1" /><polyline clip-path="url(#clip990)" style="stroke:#e26f46; stroke-linecap:round; stroke-linejoin:round; stroke-width:4; stroke-opacity:1; fill:none" points="
  3496.72,306.977 3607.1,306.977 
  "/>
<path clip-path="url(#clip990)" d="M3642 288.239 L3642 291.78 L3637.92 291.78 Q3635.63 291.78 3634.73 292.706 Q3633.85 293.632 3633.85 296.04 L3633.85 298.331 L3640.86 298.331 L3640.86 301.642 L3633.85 301.642 L3633.85 324.257 L3629.57 324.257 L3629.57 301.642 L3625.49 301.642 L3625.49 298.331 L3629.57 298.331 L3629.57 296.526 Q3629.57 292.197 3631.58 290.23 Q3633.6 288.239 3637.97 288.239 L3642 288.239 Z" fill="#000000" fill-rule="evenodd" fill-opacity="1" /><path clip-path="url(#clip990)" d="M3657.35 311.225 Q3652.18 311.225 3650.19 312.405 Q3648.2 313.586 3648.2 316.433 Q3648.2 318.702 3649.68 320.044 Q3651.19 321.364 3653.76 321.364 Q3657.3 321.364 3659.43 318.864 Q3661.58 316.341 3661.58 312.174 L3661.58 311.225 L3657.35 311.225 M3665.84 309.466 L3665.84 324.257 L3661.58 324.257 L3661.58 320.322 Q3660.12 322.683 3657.95 323.817 Q3655.77 324.928 3652.62 324.928 Q3648.64 324.928 3646.28 322.706 Q3643.94 320.461 3643.94 316.711 Q3643.94 312.336 3646.86 310.114 Q3649.8 307.892 3655.61 307.892 L3661.58 307.892 L3661.58 307.475 Q3661.58 304.535 3659.64 302.938 Q3657.72 301.317 3654.22 301.317 Q3652 301.317 3649.89 301.85 Q3647.79 302.382 3645.84 303.447 L3645.84 299.512 Q3648.18 298.609 3650.38 298.169 Q3652.58 297.706 3654.66 297.706 Q3660.29 297.706 3663.06 300.623 Q3665.84 303.54 3665.84 309.466 Z" fill="#000000" fill-rule="evenodd" fill-opacity="1" /><path clip-path="url(#clip990)" d="M3693.27 299.327 L3693.27 303.308 Q3691.47 302.313 3689.64 301.827 Q3687.83 301.317 3685.98 301.317 Q3681.84 301.317 3679.54 303.956 Q3677.25 306.572 3677.25 311.317 Q3677.25 316.063 3679.54 318.702 Q3681.84 321.317 3685.98 321.317 Q3687.83 321.317 3689.64 320.831 Q3691.47 320.322 3693.27 319.327 L3693.27 323.262 Q3691.49 324.095 3689.57 324.512 Q3687.67 324.928 3685.52 324.928 Q3679.66 324.928 3676.21 321.248 Q3672.76 317.567 3672.76 311.317 Q3672.76 304.975 3676.23 301.341 Q3679.73 297.706 3685.79 297.706 Q3687.76 297.706 3689.64 298.123 Q3691.51 298.517 3693.27 299.327 Z" fill="#000000" fill-rule="evenodd" fill-opacity="1" /><path clip-path="url(#clip990)" d="M3722.85 310.229 L3722.85 312.313 L3703.27 312.313 Q3703.55 316.711 3705.91 319.026 Q3708.29 321.317 3712.53 321.317 Q3714.98 321.317 3717.28 320.716 Q3719.59 320.114 3721.86 318.91 L3721.86 322.938 Q3719.57 323.91 3717.16 324.419 Q3714.75 324.928 3712.28 324.928 Q3706.07 324.928 3702.44 321.317 Q3698.83 317.706 3698.83 311.549 Q3698.83 305.183 3702.25 301.456 Q3705.7 297.706 3711.53 297.706 Q3716.77 297.706 3719.8 301.086 Q3722.85 304.442 3722.85 310.229 M3718.59 308.979 Q3718.55 305.484 3716.63 303.401 Q3714.73 301.317 3711.58 301.317 Q3708.02 301.317 3705.86 303.331 Q3703.73 305.345 3703.41 309.003 L3718.59 308.979 Z" fill="#000000" fill-rule="evenodd" fill-opacity="1" /><path clip-path="url(#clip990)" d="M3746.37 299.095 L3746.37 303.123 Q3744.57 302.197 3742.62 301.734 Q3740.68 301.271 3738.59 301.271 Q3735.42 301.271 3733.83 302.243 Q3732.25 303.216 3732.25 305.16 Q3732.25 306.642 3733.39 307.498 Q3734.52 308.331 3737.95 309.095 L3739.4 309.419 Q3743.94 310.392 3745.84 312.174 Q3747.76 313.933 3747.76 317.104 Q3747.76 320.716 3744.89 322.822 Q3742.04 324.928 3737.04 324.928 Q3734.96 324.928 3732.69 324.512 Q3730.45 324.118 3727.95 323.308 L3727.95 318.91 Q3730.31 320.137 3732.6 320.762 Q3734.89 321.364 3737.14 321.364 Q3740.15 321.364 3741.77 320.345 Q3743.39 319.303 3743.39 317.429 Q3743.39 315.692 3742.21 314.766 Q3741.05 313.841 3737.09 312.984 L3735.61 312.637 Q3731.65 311.804 3729.89 310.091 Q3728.13 308.354 3728.13 305.345 Q3728.13 301.688 3730.72 299.697 Q3733.32 297.706 3738.09 297.706 Q3740.45 297.706 3742.53 298.054 Q3744.61 298.401 3746.37 299.095 Z" fill="#000000" fill-rule="evenodd" fill-opacity="1" /></svg>
