<?xml version="1.0" encoding="utf-8"?>
<svg xmlns="http://www.w3.org/2000/svg" xmlns:xlink="http://www.w3.org/1999/xlink" width="1000" height="400" viewBox="0 0 4000 1600">
<defs>
  <clipPath id="clip750">
    <rect x="0" y="0" width="4000" height="1600"/>
  </clipPath>
</defs>
<path clip-path="url(#clip750)" d="
M0 1600 L4000 1600 L4000 0 L0 0  Z
  " fill="#ffffff" fill-rule="evenodd" fill-opacity="1"/>
<defs>
  <clipPath id="clip751">
    <rect x="800" y="0" width="2801" height="1600"/>
  </clipPath>
</defs>
<path clip-path="url(#clip750)" d="
M307.443 1393.02 L3889.76 1393.02 L3889.76 162.272 L307.443 162.272  Z
  " fill="#ffffff" fill-rule="evenodd" fill-opacity="1"/>
<defs>
  <clipPath id="clip752">
    <rect x="307" y="162" width="3583" height="1232"/>
  </clipPath>
</defs>
<polyline clip-path="url(#clip752)" style="stroke:#000000; stroke-linecap:butt; stroke-linejoin:round; stroke-width:2; stroke-opacity:0.1; fill:none" points="
  1097.81,1393.02 1097.81,162.272 
  "/>
<polyline clip-path="url(#clip752)" style="stroke:#000000; stroke-linecap:butt; stroke-linejoin:round; stroke-width:2; stroke-opacity:0.1; fill:none" points="
  1994.67,1393.02 1994.67,162.272 
  "/>
<polyline clip-path="url(#clip752)" style="stroke:#000000; stroke-linecap:butt; stroke-linejoin:round; stroke-width:2; stroke-opacity:0.1; fill:none" points="
  2891.52,1393.02 2891.52,162.272 
  "/>
<polyline clip-path="url(#clip752)" style="stroke:#000000; stroke-linecap:butt; stroke-linejoin:round; stroke-width:2; stroke-opacity:0.1; fill:none" points="
  3788.38,1393.02 3788.38,162.272 
  "/>
<polyline clip-path="url(#clip750)" style="stroke:#000000; stroke-linecap:butt; stroke-linejoin:round; stroke-width:4; stroke-opacity:1; fill:none" points="
  307.443,1393.02 3889.76,1393.02 
  "/>
<polyline clip-path="url(#clip750)" style="stroke:#000000; stroke-linecap:butt; stroke-linejoin:round; stroke-width:4; stroke-opacity:1; fill:none" points="
  1097.81,1393.02 1097.81,1374.12 
  "/>
<polyline clip-path="url(#clip750)" style="stroke:#000000; stroke-linecap:butt; stroke-linejoin:round; stroke-width:4; stroke-opacity:1; fill:none" points="
  1994.67,1393.02 1994.67,1374.12 
  "/>
<polyline clip-path="url(#clip750)" style="stroke:#000000; stroke-linecap:butt; stroke-linejoin:round; stroke-width:4; stroke-opacity:1; fill:none" points="
  2891.52,1393.02 2891.52,1374.12 
  "/>
<polyline clip-path="url(#clip750)" style="stroke:#000000; stroke-linecap:butt; stroke-linejoin:round; stroke-width:4; stroke-opacity:1; fill:none" points="
  3788.38,1393.02 3788.38,1374.12 
  "/>
<path clip-path="url(#clip750)" d="M1085.99 1437.73 L1074.18 1456.18 L1085.99 1456.18 L1085.99 1437.73 M1084.76 1433.66 L1090.64 1433.66 L1090.64 1456.18 L1095.57 1456.18 L1095.57 1460.07 L1090.64 1460.07 L1090.64 1468.22 L1085.99 1468.22 L1085.99 1460.07 L1070.38 1460.07 L1070.38 1455.56 L1084.76 1433.66 Z" fill="#000000" fill-rule="evenodd" fill-opacity="1" /><path clip-path="url(#clip750)" d="M1113.3 1436.74 Q1109.69 1436.74 1107.86 1440.3 Q1106.05 1443.84 1106.05 1450.97 Q1106.05 1458.08 1107.86 1461.65 Q1109.69 1465.19 1113.3 1465.19 Q1116.93 1465.19 1118.74 1461.65 Q1120.57 1458.08 1120.57 1450.97 Q1120.57 1443.84 1118.74 1440.3 Q1116.93 1436.74 1113.3 1436.74 M1113.3 1433.03 Q1119.11 1433.03 1122.17 1437.64 Q1125.24 1442.22 1125.24 1450.97 Q1125.24 1459.7 1122.17 1464.31 Q1119.11 1468.89 1113.3 1468.89 Q1107.49 1468.89 1104.41 1464.31 Q1101.36 1459.7 1101.36 1450.97 Q1101.36 1442.22 1104.41 1437.64 Q1107.49 1433.03 1113.3 1433.03 Z" fill="#000000" fill-rule="evenodd" fill-opacity="1" /><path clip-path="url(#clip750)" d="M1980.07 1449.08 Q1976.93 1449.08 1975.07 1451.23 Q1973.24 1453.38 1973.24 1457.13 Q1973.24 1460.86 1975.07 1463.03 Q1976.93 1465.19 1980.07 1465.19 Q1983.22 1465.19 1985.05 1463.03 Q1986.9 1460.86 1986.9 1457.13 Q1986.9 1453.38 1985.05 1451.23 Q1983.22 1449.08 1980.07 1449.08 M1989.36 1434.42 L1989.36 1438.68 Q1987.6 1437.85 1985.79 1437.41 Q1984.01 1436.97 1982.25 1436.97 Q1977.62 1436.97 1975.17 1440.09 Q1972.74 1443.22 1972.39 1449.54 Q1973.75 1447.53 1975.81 1446.46 Q1977.87 1445.37 1980.35 1445.37 Q1985.56 1445.37 1988.57 1448.54 Q1991.6 1451.69 1991.6 1457.13 Q1991.6 1462.46 1988.45 1465.67 Q1985.31 1468.89 1980.07 1468.89 Q1974.08 1468.89 1970.91 1464.31 Q1967.74 1459.7 1967.74 1450.97 Q1967.74 1442.78 1971.62 1437.92 Q1975.51 1433.03 1982.06 1433.03 Q1983.82 1433.03 1985.61 1433.38 Q1987.41 1433.73 1989.36 1434.42 Z" fill="#000000" fill-rule="evenodd" fill-opacity="1" /><path clip-path="url(#clip750)" d="M2009.66 1436.74 Q2006.05 1436.74 2004.22 1440.3 Q2002.41 1443.84 2002.41 1450.97 Q2002.41 1458.08 2004.22 1461.65 Q2006.05 1465.19 2009.66 1465.19 Q2013.29 1465.19 2015.1 1461.65 Q2016.93 1458.08 2016.93 1450.97 Q2016.93 1443.84 2015.1 1440.3 Q2013.29 1436.74 2009.66 1436.74 M2009.66 1433.03 Q2015.47 1433.03 2018.52 1437.64 Q2021.6 1442.22 2021.6 1450.97 Q2021.6 1459.7 2018.52 1464.31 Q2015.47 1468.89 2009.66 1468.89 Q2003.85 1468.89 2000.77 1464.31 Q1997.71 1459.7 1997.71 1450.97 Q1997.71 1442.22 2000.77 1437.64 Q2003.85 1433.03 2009.66 1433.03 Z" fill="#000000" fill-rule="evenodd" fill-opacity="1" /><path clip-path="url(#clip750)" d="M2876.4 1451.81 Q2873.06 1451.81 2871.14 1453.59 Q2869.24 1455.37 2869.24 1458.5 Q2869.24 1461.62 2871.14 1463.4 Q2873.06 1465.19 2876.4 1465.19 Q2879.73 1465.19 2881.65 1463.4 Q2883.57 1461.6 2883.57 1458.5 Q2883.57 1455.37 2881.65 1453.59 Q2879.75 1451.81 2876.4 1451.81 M2871.72 1449.82 Q2868.71 1449.08 2867.02 1447.02 Q2865.35 1444.96 2865.35 1441.99 Q2865.35 1437.85 2868.29 1435.44 Q2871.26 1433.03 2876.4 1433.03 Q2881.56 1433.03 2884.5 1435.44 Q2887.44 1437.85 2887.44 1441.99 Q2887.44 1444.96 2885.75 1447.02 Q2884.08 1449.08 2881.09 1449.82 Q2884.47 1450.6 2886.35 1452.9 Q2888.25 1455.19 2888.25 1458.5 Q2888.25 1463.52 2885.17 1466.21 Q2882.11 1468.89 2876.4 1468.89 Q2870.68 1468.89 2867.6 1466.21 Q2864.54 1463.52 2864.54 1458.5 Q2864.54 1455.19 2866.44 1452.9 Q2868.34 1450.6 2871.72 1449.82 M2870.01 1442.43 Q2870.01 1445.12 2871.67 1446.62 Q2873.36 1448.13 2876.4 1448.13 Q2879.4 1448.13 2881.09 1446.62 Q2882.81 1445.12 2882.81 1442.43 Q2882.81 1439.75 2881.09 1438.24 Q2879.4 1436.74 2876.4 1436.74 Q2873.36 1436.74 2871.67 1438.24 Q2870.01 1439.75 2870.01 1442.43 Z" fill="#000000" fill-rule="evenodd" fill-opacity="1" /><path clip-path="url(#clip750)" d="M2906.56 1436.74 Q2902.95 1436.74 2901.12 1440.3 Q2899.31 1443.84 2899.31 1450.97 Q2899.31 1458.08 2901.12 1461.65 Q2902.95 1465.19 2906.56 1465.19 Q2910.19 1465.19 2912 1461.65 Q2913.83 1458.08 2913.83 1450.97 Q2913.83 1443.84 2912 1440.3 Q2910.19 1436.74 2906.56 1436.74 M2906.56 1433.03 Q2912.37 1433.03 2915.42 1437.64 Q2918.5 1442.22 2918.5 1450.97 Q2918.5 1459.7 2915.42 1464.31 Q2912.37 1468.89 2906.56 1468.89 Q2900.75 1468.89 2897.67 1464.31 Q2894.61 1459.7 2894.61 1450.97 Q2894.61 1442.22 2897.67 1437.64 Q2900.75 1433.03 2906.56 1433.03 Z" fill="#000000" fill-rule="evenodd" fill-opacity="1" /><path clip-path="url(#clip750)" d="M3747.98 1464.28 L3755.62 1464.28 L3755.62 1437.92 L3747.31 1439.59 L3747.31 1435.33 L3755.58 1433.66 L3760.25 1433.66 L3760.25 1464.28 L3767.89 1464.28 L3767.89 1468.22 L3747.98 1468.22 L3747.98 1464.28 Z" fill="#000000" fill-rule="evenodd" fill-opacity="1" /><path clip-path="url(#clip750)" d="M3787.34 1436.74 Q3783.72 1436.74 3781.9 1440.3 Q3780.09 1443.84 3780.09 1450.97 Q3780.09 1458.08 3781.9 1461.65 Q3783.72 1465.19 3787.34 1465.19 Q3790.97 1465.19 3792.78 1461.65 Q3794.6 1458.08 3794.6 1450.97 Q3794.6 1443.84 3792.78 1440.3 Q3790.97 1436.74 3787.34 1436.74 M3787.34 1433.03 Q3793.15 1433.03 3796.2 1437.64 Q3799.28 1442.22 3799.28 1450.97 Q3799.28 1459.7 3796.2 1464.31 Q3793.15 1468.89 3787.34 1468.89 Q3781.53 1468.89 3778.45 1464.31 Q3775.39 1459.7 3775.39 1450.97 Q3775.39 1442.22 3778.45 1437.64 Q3781.53 1433.03 3787.34 1433.03 Z" fill="#000000" fill-rule="evenodd" fill-opacity="1" /><path clip-path="url(#clip750)" d="M3817.5 1436.74 Q3813.89 1436.74 3812.06 1440.3 Q3810.25 1443.84 3810.25 1450.97 Q3810.25 1458.08 3812.06 1461.65 Q3813.89 1465.19 3817.5 1465.19 Q3821.13 1465.19 3822.94 1461.65 Q3824.77 1458.08 3824.77 1450.97 Q3824.77 1443.84 3822.94 1440.3 Q3821.13 1436.74 3817.5 1436.74 M3817.5 1433.03 Q3823.31 1433.03 3826.36 1437.64 Q3829.44 1442.22 3829.44 1450.97 Q3829.44 1459.7 3826.36 1464.31 Q3823.31 1468.89 3817.5 1468.89 Q3811.69 1468.89 3808.61 1464.31 Q3805.55 1459.7 3805.55 1450.97 Q3805.55 1442.22 3808.61 1437.64 Q3811.69 1433.03 3817.5 1433.03 Z" fill="#000000" fill-rule="evenodd" fill-opacity="1" /><path clip-path="url(#clip750)" d="M1996.74 1556.54 L1996.74 1575.44 L1990.85 1575.44 L1990.85 1526.24 L1996.74 1526.24 L1996.74 1531.65 Q1998.58 1528.46 2001.38 1526.94 Q2004.22 1525.38 2008.13 1525.38 Q2014.62 1525.38 2018.67 1530.53 Q2022.74 1535.69 2022.74 1544.09 Q2022.74 1552.49 2018.67 1557.65 Q2014.62 1562.81 2008.13 1562.81 Q2004.22 1562.81 2001.38 1561.28 Q1998.58 1559.72 1996.74 1556.54 M2016.66 1544.09 Q2016.66 1537.63 2013.99 1533.97 Q2011.35 1530.28 2006.7 1530.28 Q2002.05 1530.28 1999.38 1533.97 Q1996.74 1537.63 1996.74 1544.09 Q1996.74 1550.55 1999.38 1554.24 Q2002.05 1557.91 2006.7 1557.91 Q2011.35 1557.91 2013.99 1554.24 Q2016.66 1550.55 2016.66 1544.09 Z" fill="#000000" fill-rule="evenodd" fill-opacity="1" /><path clip-path="url(#clip750)" d="M2067.24 1512.42 Q2062.97 1519.74 2060.9 1526.9 Q2058.83 1534.07 2058.83 1541.42 Q2058.83 1548.77 2060.9 1556 Q2063 1563.19 2067.24 1570.48 L2062.14 1570.48 Q2057.37 1563 2054.98 1555.77 Q2052.63 1548.55 2052.63 1541.42 Q2052.63 1534.32 2054.98 1527.13 Q2057.34 1519.93 2062.14 1512.42 L2067.24 1512.42 Z" fill="#000000" fill-rule="evenodd" fill-opacity="1" /><path clip-path="url(#clip750)" d="M2078.38 1512.36 L2084.26 1512.36 L2084.26 1541.61 L2101.74 1526.24 L2109.22 1526.24 L2090.31 1542.91 L2110.01 1561.88 L2102.37 1561.88 L2084.26 1544.47 L2084.26 1561.88 L2078.38 1561.88 L2078.38 1512.36 Z" fill="#000000" fill-rule="evenodd" fill-opacity="1" /><path clip-path="url(#clip750)" d="M2123.03 1519.65 L2123.03 1537.5 L2131.12 1537.5 Q2135.6 1537.5 2138.05 1535.18 Q2140.51 1532.86 2140.51 1528.56 Q2140.51 1524.29 2138.05 1521.97 Q2135.6 1519.65 2131.12 1519.65 L2123.03 1519.65 M2116.6 1514.36 L2131.12 1514.36 Q2139.11 1514.36 2143.18 1517.99 Q2147.29 1521.59 2147.29 1528.56 Q2147.29 1535.59 2143.18 1539.19 Q2139.11 1542.79 2131.12 1542.79 L2123.03 1542.79 L2123.03 1561.88 L2116.6 1561.88 L2116.6 1514.36 Z" fill="#000000" fill-rule="evenodd" fill-opacity="1" /><path clip-path="url(#clip750)" d="M2168.93 1543.96 Q2161.83 1543.96 2159.09 1545.59 Q2156.36 1547.21 2156.36 1551.13 Q2156.36 1554.24 2158.39 1556.09 Q2160.46 1557.91 2164 1557.91 Q2168.86 1557.91 2171.79 1554.47 Q2174.75 1551 2174.75 1545.27 L2174.75 1543.96 L2168.93 1543.96 M2180.61 1541.55 L2180.61 1561.88 L2174.75 1561.88 L2174.75 1556.47 Q2172.75 1559.72 2169.76 1561.28 Q2166.76 1562.81 2162.44 1562.81 Q2156.96 1562.81 2153.71 1559.75 Q2150.5 1556.66 2150.5 1551.51 Q2150.5 1545.49 2154.51 1542.44 Q2158.55 1539.38 2166.54 1539.38 L2174.75 1539.38 L2174.75 1538.81 Q2174.75 1534.77 2172.08 1532.57 Q2169.44 1530.34 2164.63 1530.34 Q2161.58 1530.34 2158.68 1531.07 Q2155.78 1531.81 2153.11 1533.27 L2153.11 1527.86 Q2156.32 1526.62 2159.35 1526.01 Q2162.37 1525.38 2165.24 1525.38 Q2172.97 1525.38 2176.79 1529.39 Q2180.61 1533.4 2180.61 1541.55 Z" fill="#000000" fill-rule="evenodd" fill-opacity="1" /><path clip-path="url(#clip750)" d="M2191.75 1512.42 L2196.84 1512.42 Q2201.62 1519.93 2203.97 1527.13 Q2206.36 1534.32 2206.36 1541.42 Q2206.36 1548.55 2203.97 1555.77 Q2201.62 1563 2196.84 1570.48 L2191.75 1570.48 Q2195.98 1563.19 2198.05 1556 Q2200.15 1548.77 2200.15 1541.42 Q2200.15 1534.07 2198.05 1526.9 Q2195.98 1519.74 2191.75 1512.42 Z" fill="#000000" fill-rule="evenodd" fill-opacity="1" /><polyline clip-path="url(#clip752)" style="stroke:#000000; stroke-linecap:butt; stroke-linejoin:round; stroke-width:2; stroke-opacity:0.1; fill:none" points="
  307.443,1358.19 3889.76,1358.19 
  "/>
<polyline clip-path="url(#clip752)" style="stroke:#000000; stroke-linecap:butt; stroke-linejoin:round; stroke-width:2; stroke-opacity:0.1; fill:none" points="
  307.443,1067.92 3889.76,1067.92 
  "/>
<polyline clip-path="url(#clip752)" style="stroke:#000000; stroke-linecap:butt; stroke-linejoin:round; stroke-width:2; stroke-opacity:0.1; fill:none" points="
  307.443,777.646 3889.76,777.646 
  "/>
<polyline clip-path="url(#clip752)" style="stroke:#000000; stroke-linecap:butt; stroke-linejoin:round; stroke-width:2; stroke-opacity:0.1; fill:none" points="
  307.443,487.375 3889.76,487.375 
  "/>
<polyline clip-path="url(#clip752)" style="stroke:#000000; stroke-linecap:butt; stroke-linejoin:round; stroke-width:2; stroke-opacity:0.1; fill:none" points="
  307.443,197.105 3889.76,197.105 
  "/>
<polyline clip-path="url(#clip750)" style="stroke:#000000; stroke-linecap:butt; stroke-linejoin:round; stroke-width:4; stroke-opacity:1; fill:none" points="
  307.443,1393.02 307.443,162.272 
  "/>
<polyline clip-path="url(#clip750)" style="stroke:#000000; stroke-linecap:butt; stroke-linejoin:round; stroke-width:4; stroke-opacity:1; fill:none" points="
  307.443,1358.19 326.34,1358.19 
  "/>
<polyline clip-path="url(#clip750)" style="stroke:#000000; stroke-linecap:butt; stroke-linejoin:round; stroke-width:4; stroke-opacity:1; fill:none" points="
  307.443,1067.92 326.34,1067.92 
  "/>
<polyline clip-path="url(#clip750)" style="stroke:#000000; stroke-linecap:butt; stroke-linejoin:round; stroke-width:4; stroke-opacity:1; fill:none" points="
  307.443,777.646 326.34,777.646 
  "/>
<polyline clip-path="url(#clip750)" style="stroke:#000000; stroke-linecap:butt; stroke-linejoin:round; stroke-width:4; stroke-opacity:1; fill:none" points="
  307.443,487.375 326.34,487.375 
  "/>
<polyline clip-path="url(#clip750)" style="stroke:#000000; stroke-linecap:butt; stroke-linejoin:round; stroke-width:4; stroke-opacity:1; fill:none" points="
  307.443,197.105 326.34,197.105 
  "/>
<path clip-path="url(#clip750)" d="M190.267 1343.99 Q186.656 1343.99 184.827 1347.55 Q183.022 1351.09 183.022 1358.22 Q183.022 1365.33 184.827 1368.89 Q186.656 1372.43 190.267 1372.43 Q193.901 1372.43 195.707 1368.89 Q197.536 1365.33 197.536 1358.22 Q197.536 1351.09 195.707 1347.55 Q193.901 1343.99 190.267 1343.99 M190.267 1340.28 Q196.077 1340.28 199.133 1344.89 Q202.212 1349.47 202.212 1358.22 Q202.212 1366.95 199.133 1371.56 Q196.077 1376.14 190.267 1376.14 Q184.457 1376.14 181.378 1371.56 Q178.323 1366.95 178.323 1358.22 Q178.323 1349.47 181.378 1344.89 Q184.457 1340.28 190.267 1340.28 Z" fill="#000000" fill-rule="evenodd" fill-opacity="1" /><path clip-path="url(#clip750)" d="M210.429 1369.59 L215.313 1369.59 L215.313 1375.47 L210.429 1375.47 L210.429 1369.59 Z" fill="#000000" fill-rule="evenodd" fill-opacity="1" /><path clip-path="url(#clip750)" d="M235.498 1343.99 Q231.887 1343.99 230.059 1347.55 Q228.253 1351.09 228.253 1358.22 Q228.253 1365.33 230.059 1368.89 Q231.887 1372.43 235.498 1372.43 Q239.133 1372.43 240.938 1368.89 Q242.767 1365.33 242.767 1358.22 Q242.767 1351.09 240.938 1347.55 Q239.133 1343.99 235.498 1343.99 M235.498 1340.28 Q241.309 1340.28 244.364 1344.89 Q247.443 1349.47 247.443 1358.22 Q247.443 1366.95 244.364 1371.56 Q241.309 1376.14 235.498 1376.14 Q229.688 1376.14 226.61 1371.56 Q223.554 1366.95 223.554 1358.22 Q223.554 1349.47 226.61 1344.89 Q229.688 1340.28 235.498 1340.28 Z" fill="#000000" fill-rule="evenodd" fill-opacity="1" /><path clip-path="url(#clip750)" d="M185.29 1081.26 L201.61 1081.26 L201.61 1085.2 L179.665 1085.2 L179.665 1081.26 Q182.327 1078.51 186.911 1073.88 Q191.517 1069.22 192.698 1067.88 Q194.943 1065.36 195.823 1063.62 Q196.726 1061.86 196.726 1060.17 Q196.726 1057.42 194.781 1055.68 Q192.86 1053.95 189.758 1053.95 Q187.559 1053.95 185.105 1054.71 Q182.675 1055.47 179.897 1057.03 L179.897 1052.3 Q182.721 1051.17 185.175 1050.59 Q187.628 1050.01 189.665 1050.01 Q195.036 1050.01 198.23 1052.7 Q201.425 1055.38 201.425 1059.87 Q201.425 1062 200.614 1063.92 Q199.827 1065.82 197.721 1068.41 Q197.142 1069.09 194.04 1072.3 Q190.939 1075.5 185.29 1081.26 Z" fill="#000000" fill-rule="evenodd" fill-opacity="1" /><path clip-path="url(#clip750)" d="M211.425 1079.32 L216.309 1079.32 L216.309 1085.2 L211.425 1085.2 L211.425 1079.32 Z" fill="#000000" fill-rule="evenodd" fill-opacity="1" /><path clip-path="url(#clip750)" d="M226.54 1050.64 L244.897 1050.64 L244.897 1054.57 L230.823 1054.57 L230.823 1063.04 Q231.841 1062.7 232.86 1062.53 Q233.878 1062.35 234.897 1062.35 Q240.684 1062.35 244.063 1065.52 Q247.443 1068.69 247.443 1074.11 Q247.443 1079.69 243.971 1082.79 Q240.498 1085.87 234.179 1085.87 Q232.003 1085.87 229.735 1085.5 Q227.489 1085.13 225.082 1084.39 L225.082 1079.69 Q227.165 1080.82 229.387 1081.38 Q231.61 1081.93 234.086 1081.93 Q238.091 1081.93 240.429 1079.83 Q242.767 1077.72 242.767 1074.11 Q242.767 1070.5 240.429 1068.39 Q238.091 1066.28 234.086 1066.28 Q232.211 1066.28 230.336 1066.7 Q228.485 1067.12 226.54 1068 L226.54 1050.64 Z" fill="#000000" fill-rule="evenodd" fill-opacity="1" /><path clip-path="url(#clip750)" d="M180.314 760.366 L198.67 760.366 L198.67 764.301 L184.596 764.301 L184.596 772.773 Q185.614 772.426 186.633 772.264 Q187.651 772.079 188.67 772.079 Q194.457 772.079 197.837 775.25 Q201.216 778.421 201.216 783.838 Q201.216 789.417 197.744 792.519 Q194.272 795.597 187.952 795.597 Q185.777 795.597 183.508 795.227 Q181.263 794.857 178.855 794.116 L178.855 789.417 Q180.939 790.551 183.161 791.107 Q185.383 791.662 187.86 791.662 Q191.864 791.662 194.202 789.556 Q196.54 787.449 196.54 783.838 Q196.54 780.227 194.202 778.121 Q191.864 776.014 187.86 776.014 Q185.985 776.014 184.11 776.431 Q182.258 776.847 180.314 777.727 L180.314 760.366 Z" fill="#000000" fill-rule="evenodd" fill-opacity="1" /><path clip-path="url(#clip750)" d="M210.429 789.046 L215.313 789.046 L215.313 794.926 L210.429 794.926 L210.429 789.046 Z" fill="#000000" fill-rule="evenodd" fill-opacity="1" /><path clip-path="url(#clip750)" d="M235.498 763.445 Q231.887 763.445 230.059 767.009 Q228.253 770.551 228.253 777.681 Q228.253 784.787 230.059 788.352 Q231.887 791.894 235.498 791.894 Q239.133 791.894 240.938 788.352 Q242.767 784.787 242.767 777.681 Q242.767 770.551 240.938 767.009 Q239.133 763.445 235.498 763.445 M235.498 759.741 Q241.309 759.741 244.364 764.347 Q247.443 768.931 247.443 777.681 Q247.443 786.408 244.364 791.014 Q241.309 795.597 235.498 795.597 Q229.688 795.597 226.61 791.014 Q223.554 786.408 223.554 777.681 Q223.554 768.931 226.61 764.347 Q229.688 759.741 235.498 759.741 Z" fill="#000000" fill-rule="evenodd" fill-opacity="1" /><path clip-path="url(#clip750)" d="M180.082 470.095 L202.304 470.095 L202.304 472.086 L189.758 504.655 L184.874 504.655 L196.679 474.031 L180.082 474.031 L180.082 470.095 Z" fill="#000000" fill-rule="evenodd" fill-opacity="1" /><path clip-path="url(#clip750)" d="M211.425 498.776 L216.309 498.776 L216.309 504.655 L211.425 504.655 L211.425 498.776 Z" fill="#000000" fill-rule="evenodd" fill-opacity="1" /><path clip-path="url(#clip750)" d="M226.54 470.095 L244.897 470.095 L244.897 474.031 L230.823 474.031 L230.823 482.503 Q231.841 482.155 232.86 481.993 Q233.878 481.808 234.897 481.808 Q240.684 481.808 244.063 484.98 Q247.443 488.151 247.443 493.567 Q247.443 499.146 243.971 502.248 Q240.498 505.327 234.179 505.327 Q232.003 505.327 229.735 504.956 Q227.489 504.586 225.082 503.845 L225.082 499.146 Q227.165 500.28 229.387 500.836 Q231.61 501.391 234.086 501.391 Q238.091 501.391 240.429 499.285 Q242.767 497.179 242.767 493.567 Q242.767 489.956 240.429 487.85 Q238.091 485.743 234.086 485.743 Q232.211 485.743 230.336 486.16 Q228.485 486.577 226.54 487.456 L226.54 470.095 Z" fill="#000000" fill-rule="evenodd" fill-opacity="1" /><path clip-path="url(#clip750)" d="M150.916 210.45 L158.554 210.45 L158.554 184.084 L150.244 185.751 L150.244 181.491 L158.508 179.825 L163.184 179.825 L163.184 210.45 L170.823 210.45 L170.823 214.385 L150.916 214.385 L150.916 210.45 Z" fill="#000000" fill-rule="evenodd" fill-opacity="1" /><path clip-path="url(#clip750)" d="M190.267 182.903 Q186.656 182.903 184.827 186.468 Q183.022 190.01 183.022 197.139 Q183.022 204.246 184.827 207.811 Q186.656 211.352 190.267 211.352 Q193.901 211.352 195.707 207.811 Q197.536 204.246 197.536 197.139 Q197.536 190.01 195.707 186.468 Q193.901 182.903 190.267 182.903 M190.267 179.2 Q196.077 179.2 199.133 183.806 Q202.212 188.389 202.212 197.139 Q202.212 205.866 199.133 210.473 Q196.077 215.056 190.267 215.056 Q184.457 215.056 181.378 210.473 Q178.323 205.866 178.323 197.139 Q178.323 188.389 181.378 183.806 Q184.457 179.2 190.267 179.2 Z" fill="#000000" fill-rule="evenodd" fill-opacity="1" /><path clip-path="url(#clip750)" d="M210.429 208.505 L215.313 208.505 L215.313 214.385 L210.429 214.385 L210.429 208.505 Z" fill="#000000" fill-rule="evenodd" fill-opacity="1" /><path clip-path="url(#clip750)" d="M235.498 182.903 Q231.887 182.903 230.059 186.468 Q228.253 190.01 228.253 197.139 Q228.253 204.246 230.059 207.811 Q231.887 211.352 235.498 211.352 Q239.133 211.352 240.938 207.811 Q242.767 204.246 242.767 197.139 Q242.767 190.01 240.938 186.468 Q239.133 182.903 235.498 182.903 M235.498 179.2 Q241.309 179.2 244.364 183.806 Q247.443 188.389 247.443 197.139 Q247.443 205.866 244.364 210.473 Q241.309 215.056 235.498 215.056 Q229.688 215.056 226.61 210.473 Q223.554 205.866 223.554 197.139 Q223.554 188.389 226.61 183.806 Q229.688 179.2 235.498 179.2 Z" fill="#000000" fill-rule="evenodd" fill-opacity="1" /><path clip-path="url(#clip750)" d="M40.3403 876.171 L40.3403 848.353 L45.6875 848.353 L71.3095 870.378 L71.3095 848.353 L75.9883 848.353 L75.9883 876.967 L70.6411 876.967 L45.0191 854.942 L45.0191 876.171 L40.3403 876.171 Z" fill="#000000" fill-rule="evenodd" fill-opacity="1" /><path clip-path="url(#clip750)" d="M26.5267 804.621 Q33.8473 808.886 41.0087 810.955 Q48.1701 813.023 55.5225 813.023 Q62.8749 813.023 70.1 810.955 Q77.2933 808.854 84.582 804.621 L84.582 809.713 Q77.1023 814.488 69.8772 816.875 Q62.6521 819.23 55.5225 819.23 Q48.4248 819.23 41.2315 816.875 Q34.0383 814.519 26.5267 809.713 L26.5267 804.621 Z" fill="#000000" fill-rule="evenodd" fill-opacity="1" /><path clip-path="url(#clip750)" d="M26.4631 793.481 L26.4631 787.592 L55.7135 787.592 L40.3403 770.119 L40.3403 762.639 L57.0185 781.545 L75.9883 761.843 L75.9883 769.482 L58.5781 787.592 L75.9883 787.592 L75.9883 793.481 L26.4631 793.481 Z" fill="#000000" fill-rule="evenodd" fill-opacity="1" /><path clip-path="url(#clip750)" d="M47.1835 727.755 Q43.2367 725.559 41.3588 722.503 Q39.481 719.448 39.481 715.31 Q39.481 709.74 43.3959 706.716 Q47.2789 703.692 54.4722 703.692 L75.9883 703.692 L75.9883 709.581 L54.6632 709.581 Q49.5388 709.581 47.0561 711.395 Q44.5735 713.209 44.5735 716.933 Q44.5735 721.485 47.5972 724.126 Q50.6209 726.768 55.8408 726.768 L75.9883 726.768 L75.9883 732.656 L54.6632 732.656 Q49.5069 732.656 47.0561 734.471 Q44.5735 736.285 44.5735 740.072 Q44.5735 744.56 47.6291 747.202 Q50.6528 749.844 55.8408 749.844 L75.9883 749.844 L75.9883 755.732 L40.3403 755.732 L40.3403 749.844 L45.8785 749.844 Q42.6002 747.839 41.0406 745.038 Q39.481 742.237 39.481 738.385 Q39.481 734.502 41.4543 731.797 Q43.4277 729.06 47.1835 727.755 Z" fill="#000000" fill-rule="evenodd" fill-opacity="1" /><path clip-path="url(#clip750)" d="M26.5267 692.934 L26.5267 687.842 Q34.0383 683.067 41.2315 680.712 Q48.4248 678.325 55.5225 678.325 Q62.6521 678.325 69.8772 680.712 Q77.1023 683.067 84.582 687.842 L84.582 692.934 Q77.2933 688.701 70.1 686.632 Q62.8749 684.532 55.5225 684.532 Q48.1701 684.532 41.0087 686.632 Q33.8473 688.701 26.5267 692.934 Z" fill="#000000" fill-rule="evenodd" fill-opacity="1" /><path clip-path="url(#clip750)" d="M1968.95 65.7705 L1968.95 89.8329 L1961.46 89.8329 L1961.46 27.2059 L1968.95 27.2059 L1968.95 34.0924 Q1971.3 30.0415 1974.87 28.0971 Q1978.47 26.1121 1983.46 26.1121 Q1991.72 26.1121 1996.86 32.6746 Q2002.05 39.2371 2002.05 49.9314 Q2002.05 60.6258 1996.86 67.1883 Q1991.72 73.7508 1983.46 73.7508 Q1978.47 73.7508 1974.87 71.8063 Q1971.3 69.8214 1968.95 65.7705 M1994.31 49.9314 Q1994.31 41.7081 1990.91 37.0496 Q1987.55 32.3505 1981.63 32.3505 Q1975.72 32.3505 1972.32 37.0496 Q1968.95 41.7081 1968.95 49.9314 Q1968.95 58.1548 1972.32 62.8538 Q1975.72 67.5124 1981.63 67.5124 Q1987.55 67.5124 1990.91 62.8538 Q1994.31 58.1548 1994.31 49.9314 Z" fill="#000000" fill-rule="evenodd" fill-opacity="1" /><path clip-path="url(#clip750)" d="M2058.68 9.62495 Q2053.25 18.942 2050.62 28.0566 Q2047.99 37.1711 2047.99 46.5287 Q2047.99 55.8863 2050.62 65.0818 Q2053.29 74.2369 2058.68 83.5134 L2052.2 83.5134 Q2046.12 73.9938 2043.09 64.7983 Q2040.09 55.6027 2040.09 46.5287 Q2040.09 37.4952 2043.09 28.3401 Q2046.08 19.1851 2052.2 9.62495 L2058.68 9.62495 Z" fill="#000000" fill-rule="evenodd" fill-opacity="1" /><path clip-path="url(#clip750)" d="M2072.86 9.54393 L2080.35 9.54393 L2080.35 46.7717 L2102.59 27.2059 L2112.11 27.2059 L2088.05 48.4326 L2113.13 72.576 L2103.4 72.576 L2080.35 50.4176 L2080.35 72.576 L2072.86 72.576 L2072.86 9.54393 Z" fill="#000000" fill-rule="evenodd" fill-opacity="1" /><path clip-path="url(#clip750)" d="M2129.69 18.8205 L2129.69 41.5461 L2139.98 41.5461 Q2145.7 41.5461 2148.81 38.5889 Q2151.93 35.6318 2151.93 30.163 Q2151.93 24.7348 2148.81 21.7777 Q2145.7 18.8205 2139.98 18.8205 L2129.69 18.8205 M2121.51 12.096 L2139.98 12.096 Q2150.15 12.096 2155.34 16.714 Q2160.56 21.2916 2160.56 30.163 Q2160.56 39.1155 2155.34 43.6931 Q2150.15 48.2706 2139.98 48.2706 L2129.69 48.2706 L2129.69 72.576 L2121.51 72.576 L2121.51 12.096 Z" fill="#000000" fill-rule="evenodd" fill-opacity="1" /><path clip-path="url(#clip750)" d="M2188.11 49.7694 Q2179.07 49.7694 2175.59 51.8354 Q2172.11 53.9013 2172.11 58.8839 Q2172.11 62.8538 2174.7 65.2034 Q2177.33 67.5124 2181.83 67.5124 Q2188.03 67.5124 2191.75 63.1374 Q2195.52 58.7219 2195.52 51.4303 L2195.52 49.7694 L2188.11 49.7694 M2202.97 46.6907 L2202.97 72.576 L2195.52 72.576 L2195.52 65.6895 Q2192.97 69.8214 2189.16 71.8063 Q2185.35 73.7508 2179.84 73.7508 Q2172.88 73.7508 2168.74 69.8619 Q2164.65 65.9325 2164.65 59.3701 Q2164.65 51.7138 2169.76 47.825 Q2174.9 43.9361 2185.07 43.9361 L2195.52 43.9361 L2195.52 43.2069 Q2195.52 38.0623 2192.12 35.2672 Q2188.76 32.4315 2182.64 32.4315 Q2178.75 32.4315 2175.06 33.3632 Q2171.38 34.295 2167.98 36.1584 L2167.98 29.2718 Q2172.07 27.692 2175.91 26.9223 Q2179.76 26.1121 2183.41 26.1121 Q2193.25 26.1121 2198.11 31.2163 Q2202.97 36.3204 2202.97 46.6907 Z" fill="#000000" fill-rule="evenodd" fill-opacity="1" /><path clip-path="url(#clip750)" d="M2217.15 9.62495 L2223.63 9.62495 Q2229.71 19.1851 2232.71 28.3401 Q2235.75 37.4952 2235.75 46.5287 Q2235.75 55.6027 2232.71 64.7983 Q2229.71 73.9938 2223.63 83.5134 L2217.15 83.5134 Q2222.54 74.2369 2225.17 65.0818 Q2227.85 55.8863 2227.85 46.5287 Q2227.85 37.1711 2225.17 28.0566 Q2222.54 18.942 2217.15 9.62495 Z" fill="#000000" fill-rule="evenodd" fill-opacity="1" /><polyline clip-path="url(#clip752)" style="stroke:#009af9; stroke-linecap:butt; stroke-linejoin:round; stroke-width:4; stroke-opacity:1; fill:none" points="
  3775.45,1355.28 3749.67,1349.48 3724,1343.67 3698.44,1337.87 3672.98,1332.06 3647.63,1326.26 3622.38,1320.45 3597.24,1314.65 3572.2,1308.84 3547.27,1303.04 
  3522.44,1297.23 3497.72,1291.42 3473.1,1285.62 3448.58,1279.81 3424.16,1274.01 3399.85,1268.2 3375.64,1262.4 3351.54,1256.59 3327.53,1250.79 3303.63,1244.98 
  3279.83,1239.18 3256.13,1233.37 3232.53,1227.57 3209.03,1221.76 3185.63,1215.95 3162.33,1210.15 3139.14,1204.34 3116.04,1198.54 3093.04,1192.73 3070.14,1186.93 
  3047.34,1181.12 3024.64,1175.32 3002.04,1169.51 2979.53,1163.71 2957.13,1157.9 2934.82,1152.1 2912.61,1146.29 2890.49,1140.48 2868.48,1134.68 2846.56,1128.87 
  2824.73,1123.07 2803,1117.26 2781.37,1111.46 2759.84,1105.65 2738.39,1099.85 2717.05,1094.04 2695.8,1088.24 2674.64,1082.43 2653.58,1076.62 2632.61,1070.82 
  2611.74,1065.01 2590.96,1059.21 2570.27,1053.4 2549.68,1047.6 2529.18,1041.79 2508.77,1035.99 2488.45,1030.18 2468.23,1024.38 2448.1,1018.57 2428.06,1012.77 
  2408.11,1006.96 2388.25,1001.15 2368.48,995.349 2348.81,989.544 2329.22,983.738 2309.73,977.933 2290.32,972.127 2271.01,966.322 2251.78,960.516 2232.64,954.711 
  2213.59,948.906 2194.63,943.1 2175.76,937.295 2156.98,931.489 2138.28,925.684 2119.67,919.879 2101.15,914.073 2082.72,908.268 2064.37,902.462 2046.11,896.657 
  2027.94,890.852 2009.85,885.046 1991.85,879.241 1973.94,873.435 1956.11,867.63 1938.36,861.824 1920.7,856.019 1903.13,850.214 1885.63,844.408 1868.23,838.603 
  1850.91,832.797 1833.67,826.992 1816.51,821.187 1799.44,815.381 1782.45,809.576 1765.54,803.77 1748.72,797.965 1731.98,792.16 1715.32,786.354 1698.74,780.549 
  1682.24,774.743 1665.83,768.938 1649.49,763.132 1633.24,757.327 1617.07,751.522 1600.98,745.716 1584.96,739.911 1569.03,734.105 1553.18,728.3 1537.4,722.495 
  1521.71,716.689 1506.1,710.884 1490.56,705.078 1475.1,699.273 1459.72,693.468 1444.42,687.662 1429.19,681.857 1414.05,676.051 1398.98,670.246 1383.99,664.44 
  1369.07,658.635 1354.23,652.83 1339.47,647.024 1324.78,641.219 1310.17,635.413 1295.63,629.608 1281.17,623.803 1266.79,617.997 1252.48,612.192 1238.24,606.386 
  1224.08,600.581 1210,594.775 1195.98,588.97 1182.04,583.165 1168.18,577.359 1154.39,571.554 1140.67,565.748 1127.02,559.943 1113.45,554.138 1099.95,548.332 
  1086.52,542.527 1073.16,536.721 1059.87,530.916 1046.66,525.111 1033.51,519.305 1020.44,513.5 1007.44,507.694 994.508,501.889 981.647,496.083 968.856,490.278 
  956.135,484.473 943.483,478.667 930.9,472.862 918.387,467.056 905.943,461.251 893.567,455.446 881.26,449.64 869.021,443.835 856.849,438.029 844.746,432.224 
  832.71,426.419 820.741,420.613 808.84,414.808 797.005,409.002 785.237,403.197 773.535,397.391 761.9,391.586 750.33,385.781 738.826,379.975 727.388,374.17 
  716.015,368.364 704.707,362.559 693.464,356.754 682.285,350.948 671.171,345.143 660.12,339.337 649.134,333.532 638.212,327.727 627.353,321.921 616.557,316.116 
  605.824,310.31 595.154,304.505 584.547,298.699 574.002,292.894 563.519,287.089 553.099,281.283 542.74,275.478 532.442,269.672 522.206,263.867 512.032,258.062 
  501.918,252.256 491.864,246.451 481.871,240.645 471.939,234.84 462.066,229.034 452.253,223.229 442.5,217.424 432.806,211.618 423.171,205.813 413.595,200.007 
  
  "/>
<polyline clip-path="url(#clip752)" style="stroke:#e26f46; stroke-linecap:butt; stroke-linejoin:round; stroke-width:4; stroke-opacity:1; fill:none" points="
  3788.38,1358.19 3762.55,1352.38 3736.83,1346.58 3711.21,1340.77 3685.7,1334.97 3660.29,1329.16 3634.99,1323.35 3609.8,1317.55 3584.71,1311.74 3559.72,1305.94 
  3534.84,1300.13 3510.07,1294.33 3485.39,1288.52 3460.82,1282.72 3436.36,1276.91 3411.99,1271.11 3387.73,1265.3 3363.58,1259.5 3339.52,1253.69 3315.57,1247.88 
  3291.71,1242.08 3267.96,1236.27 3244.31,1230.47 3220.77,1224.66 3197.32,1218.86 3173.97,1213.05 3150.72,1207.25 3127.58,1201.44 3104.53,1195.64 3081.58,1189.83 
  3058.73,1184.02 3035.98,1178.22 3013.33,1172.41 2990.77,1166.61 2968.32,1160.8 2945.96,1155 2923.7,1149.19 2901.54,1143.39 2879.47,1137.58 2857.5,1131.78 
  2835.63,1125.97 2813.86,1120.17 2792.18,1114.36 2770.59,1108.55 2749.1,1102.75 2727.71,1096.94 2706.41,1091.14 2685.21,1085.33 2664.1,1079.53 2643.08,1073.72 
  2622.16,1067.92 2601.34,1062.11 2580.6,1056.31 2559.96,1050.5 2539.42,1044.69 2518.96,1038.89 2498.6,1033.08 2478.33,1027.28 2458.15,1021.47 2438.07,1015.67 
  2418.07,1009.86 2398.17,1004.06 2378.36,998.252 2358.64,992.446 2339,986.641 2319.46,980.835 2300.01,975.03 2280.65,969.225 2261.38,963.419 2242.2,957.614 
  2223.11,951.808 2204.1,946.003 2185.19,940.198 2166.36,934.392 2147.62,928.587 2128.97,922.781 2110.4,916.976 2091.93,911.17 2073.54,905.365 2055.23,899.56 
  2037.02,893.754 2018.89,887.949 2000.84,882.143 1982.88,876.338 1965.01,870.533 1947.22,864.727 1929.52,858.922 1911.9,853.116 1894.37,847.311 1876.92,841.506 
  1859.56,835.7 1842.28,829.895 1825.08,824.089 1807.96,818.284 1790.93,812.478 1773.99,806.673 1757.12,800.868 1740.34,795.062 1723.64,789.257 1707.02,783.451 
  1690.48,777.646 1674.02,771.841 1657.65,766.035 1641.36,760.23 1625.14,754.424 1609.01,748.619 1592.96,742.814 1576.99,737.008 1561.09,731.203 1545.28,725.397 
  1529.55,719.592 1513.89,713.786 1498.32,707.981 1482.82,702.176 1467.4,696.37 1452.06,690.565 1436.8,684.759 1421.61,678.954 1406.5,673.149 1391.47,667.343 
  1376.52,661.538 1361.64,655.732 1346.84,649.927 1332.12,644.121 1317.47,638.316 1302.89,632.511 1288.4,626.705 1273.97,620.9 1259.63,615.094 1245.35,609.289 
  1231.15,603.484 1217.03,597.678 1202.98,591.873 1189.01,586.067 1175.1,580.262 1161.27,574.457 1147.52,568.651 1133.84,562.846 1120.22,557.04 1106.69,551.235 
  1093.22,545.429 1079.83,539.624 1066.51,533.819 1053.26,528.013 1040.08,522.208 1026.97,516.402 1013.93,510.597 1000.96,504.792 988.069,498.986 975.243,493.181 
  962.486,487.375 949.8,481.57 937.183,475.765 924.635,469.959 912.156,464.154 899.746,458.348 887.405,452.543 875.132,446.737 862.927,440.932 850.789,435.127 
  838.72,429.321 826.717,423.516 814.782,417.71 802.914,411.905 791.113,406.1 779.378,400.294 767.709,394.489 756.107,388.683 744.57,382.878 733.099,377.073 
  721.693,371.267 710.353,365.462 699.077,359.656 687.866,353.851 676.72,348.045 665.637,342.24 654.619,336.435 643.665,330.629 632.774,324.824 621.947,319.018 
  611.183,313.213 600.481,307.408 589.843,301.602 579.267,295.797 568.753,289.991 558.301,284.186 547.911,278.381 537.583,272.575 527.317,266.77 517.111,260.964 
  506.967,255.159 496.883,249.353 486.86,243.548 476.898,237.743 466.995,231.937 457.152,226.132 447.369,220.326 437.646,214.521 427.981,208.716 418.376,202.91 
  408.829,197.105 
  "/>
<path clip-path="url(#clip750)" d="
M3200.03 358.817 L3770.35 358.817 L3770.35 203.297 L3200.03 203.297  Z
  " fill="#ffffff" fill-rule="evenodd" fill-opacity="1"/>
<polyline clip-path="url(#clip750)" style="stroke:#000000; stroke-linecap:butt; stroke-linejoin:round; stroke-width:4; stroke-opacity:1; fill:none" points="
  3200.03,358.817 3770.35,358.817 3770.35,203.297 3200.03,203.297 3200.03,358.817 
  "/>
<polyline clip-path="url(#clip750)" style="stroke:#009af9; stroke-linecap:butt; stroke-linejoin:round; stroke-width:4; stroke-opacity:1; fill:none" points="
  3239.83,255.137 3478.65,255.137 
  "/>
<path clip-path="url(#clip750)" d="M3538.96 247.487 L3538.96 251.468 Q3537.16 250.473 3535.33 249.987 Q3533.52 249.477 3531.67 249.477 Q3527.53 249.477 3525.24 252.116 Q3522.95 254.732 3522.95 259.477 Q3522.95 264.223 3525.24 266.862 Q3527.53 269.477 3531.67 269.477 Q3533.52 269.477 3535.33 268.991 Q3537.16 268.482 3538.96 267.487 L3538.96 271.422 Q3537.18 272.255 3535.26 272.672 Q3533.36 273.088 3531.21 273.088 Q3525.35 273.088 3521.9 269.408 Q3518.46 265.727 3518.46 259.477 Q3518.46 253.135 3521.93 249.501 Q3525.42 245.866 3531.49 245.866 Q3533.46 245.866 3535.33 246.283 Q3537.21 246.677 3538.96 247.487 Z" fill="#000000" fill-rule="evenodd" fill-opacity="1" /><path clip-path="url(#clip750)" d="M3568.55 258.389 L3568.55 260.473 L3548.96 260.473 Q3549.24 264.871 3551.6 267.186 Q3553.99 269.477 3558.22 269.477 Q3560.68 269.477 3562.97 268.876 Q3565.28 268.274 3567.55 267.07 L3567.55 271.098 Q3565.26 272.07 3562.85 272.579 Q3560.45 273.088 3557.97 273.088 Q3551.77 273.088 3548.13 269.477 Q3544.52 265.866 3544.52 259.709 Q3544.52 253.343 3547.95 249.616 Q3551.39 245.866 3557.23 245.866 Q3562.46 245.866 3565.49 249.246 Q3568.55 252.602 3568.55 258.389 M3564.29 257.139 Q3564.24 253.644 3562.32 251.561 Q3560.42 249.477 3557.27 249.477 Q3553.71 249.477 3551.56 251.491 Q3549.43 253.505 3549.1 257.163 L3564.29 257.139 Z" fill="#000000" fill-rule="evenodd" fill-opacity="1" /><path clip-path="url(#clip750)" d="M3597.09 256.769 L3597.09 272.417 L3592.83 272.417 L3592.83 256.908 Q3592.83 253.227 3591.39 251.399 Q3589.96 249.57 3587.09 249.57 Q3583.64 249.57 3581.65 251.769 Q3579.66 253.968 3579.66 257.764 L3579.66 272.417 L3575.38 272.417 L3575.38 246.491 L3579.66 246.491 L3579.66 250.519 Q3581.19 248.181 3583.25 247.024 Q3585.33 245.866 3588.04 245.866 Q3592.51 245.866 3594.8 248.644 Q3597.09 251.399 3597.09 256.769 Z" fill="#000000" fill-rule="evenodd" fill-opacity="1" /><path clip-path="url(#clip750)" d="M3609.8 239.13 L3609.8 246.491 L3618.57 246.491 L3618.57 249.802 L3609.8 249.802 L3609.8 263.876 Q3609.8 267.047 3610.65 267.95 Q3611.53 268.852 3614.2 268.852 L3618.57 268.852 L3618.57 272.417 L3614.2 272.417 Q3609.26 272.417 3607.39 270.588 Q3605.51 268.737 3605.51 263.876 L3605.51 249.802 L3602.39 249.802 L3602.39 246.491 L3605.51 246.491 L3605.51 239.13 L3609.8 239.13 Z" fill="#000000" fill-rule="evenodd" fill-opacity="1" /><path clip-path="url(#clip750)" d="M3646.35 258.389 L3646.35 260.473 L3626.76 260.473 Q3627.04 264.871 3629.4 267.186 Q3631.79 269.477 3636.02 269.477 Q3638.48 269.477 3640.77 268.876 Q3643.08 268.274 3645.35 267.07 L3645.35 271.098 Q3643.06 272.07 3640.65 272.579 Q3638.25 273.088 3635.77 273.088 Q3629.57 273.088 3625.93 269.477 Q3622.32 265.866 3622.32 259.709 Q3622.32 253.343 3625.75 249.616 Q3629.2 245.866 3635.03 245.866 Q3640.26 245.866 3643.29 249.246 Q3646.35 252.602 3646.35 258.389 M3642.09 257.139 Q3642.04 253.644 3640.12 251.561 Q3638.22 249.477 3635.07 249.477 Q3631.51 249.477 3629.36 251.491 Q3627.23 253.505 3626.9 257.163 L3642.09 257.139 Z" fill="#000000" fill-rule="evenodd" fill-opacity="1" /><path clip-path="url(#clip750)" d="M3668.36 250.473 Q3667.64 250.056 3666.79 249.871 Q3665.95 249.663 3664.94 249.663 Q3661.32 249.663 3659.38 252.024 Q3657.46 254.362 3657.46 258.76 L3657.46 272.417 L3653.18 272.417 L3653.18 246.491 L3657.46 246.491 L3657.46 250.519 Q3658.8 248.158 3660.95 247.024 Q3663.11 245.866 3666.19 245.866 Q3666.63 245.866 3667.16 245.936 Q3667.69 245.982 3668.34 246.098 L3668.36 250.473 Z" fill="#000000" fill-rule="evenodd" fill-opacity="1" /><path clip-path="url(#clip750)" d="M3689.36 247.255 L3689.36 251.283 Q3687.55 250.357 3685.61 249.894 Q3683.66 249.431 3681.58 249.431 Q3678.41 249.431 3676.81 250.403 Q3675.24 251.376 3675.24 253.32 Q3675.24 254.802 3676.37 255.658 Q3677.51 256.491 3680.93 257.255 L3682.39 257.579 Q3686.93 258.552 3688.82 260.334 Q3690.75 262.093 3690.75 265.264 Q3690.75 268.876 3687.88 270.982 Q3685.03 273.088 3680.03 273.088 Q3677.95 273.088 3675.68 272.672 Q3673.43 272.278 3670.93 271.468 L3670.93 267.07 Q3673.29 268.297 3675.58 268.922 Q3677.88 269.524 3680.12 269.524 Q3683.13 269.524 3684.75 268.505 Q3686.37 267.463 3686.37 265.589 Q3686.37 263.852 3685.19 262.926 Q3684.03 262.001 3680.07 261.144 L3678.59 260.797 Q3674.63 259.964 3672.88 258.251 Q3671.12 256.514 3671.12 253.505 Q3671.12 249.848 3673.71 247.857 Q3676.3 245.866 3681.07 245.866 Q3683.43 245.866 3685.51 246.214 Q3687.6 246.561 3689.36 247.255 Z" fill="#000000" fill-rule="evenodd" fill-opacity="1" /><polyline clip-path="url(#clip750)" style="stroke:#e26f46; stroke-linecap:butt; stroke-linejoin:round; stroke-width:4; stroke-opacity:1; fill:none" points="
  3239.83,306.977 3478.65,306.977 
  "/>
<path clip-path="url(#clip750)" d="M3534.96 288.239 L3534.96 291.78 L3530.89 291.78 Q3528.59 291.78 3527.69 292.706 Q3526.81 293.632 3526.81 296.04 L3526.81 298.331 L3533.83 298.331 L3533.83 301.642 L3526.81 301.642 L3526.81 324.257 L3522.53 324.257 L3522.53 301.642 L3518.46 301.642 L3518.46 298.331 L3522.53 298.331 L3522.53 296.526 Q3522.53 292.197 3524.54 290.23 Q3526.56 288.239 3530.93 288.239 L3534.96 288.239 Z" fill="#000000" fill-rule="evenodd" fill-opacity="1" /><path clip-path="url(#clip750)" d="M3550.31 311.225 Q3545.14 311.225 3543.15 312.405 Q3541.16 313.586 3541.16 316.433 Q3541.16 318.702 3542.64 320.044 Q3544.15 321.364 3546.72 321.364 Q3550.26 321.364 3552.39 318.864 Q3554.54 316.341 3554.54 312.174 L3554.54 311.225 L3550.31 311.225 M3558.8 309.466 L3558.8 324.257 L3554.54 324.257 L3554.54 320.322 Q3553.08 322.683 3550.91 323.817 Q3548.73 324.928 3545.58 324.928 Q3541.6 324.928 3539.24 322.706 Q3536.9 320.461 3536.9 316.711 Q3536.9 312.336 3539.82 310.114 Q3542.76 307.892 3548.57 307.892 L3554.54 307.892 L3554.54 307.475 Q3554.54 304.535 3552.6 302.938 Q3550.68 301.317 3547.18 301.317 Q3544.96 301.317 3542.85 301.85 Q3540.75 302.382 3538.8 303.447 L3538.8 299.512 Q3541.14 298.609 3543.34 298.169 Q3545.54 297.706 3547.62 297.706 Q3553.25 297.706 3556.02 300.623 Q3558.8 303.54 3558.8 309.466 Z" fill="#000000" fill-rule="evenodd" fill-opacity="1" /><path clip-path="url(#clip750)" d="M3586.23 299.327 L3586.23 303.308 Q3584.43 302.313 3582.6 301.827 Q3580.79 301.317 3578.94 301.317 Q3574.8 301.317 3572.51 303.956 Q3570.21 306.572 3570.21 311.317 Q3570.21 316.063 3572.51 318.702 Q3574.8 321.317 3578.94 321.317 Q3580.79 321.317 3582.6 320.831 Q3584.43 320.322 3586.23 319.327 L3586.23 323.262 Q3584.45 324.095 3582.53 324.512 Q3580.63 324.928 3578.48 324.928 Q3572.62 324.928 3569.17 321.248 Q3565.72 317.567 3565.72 311.317 Q3565.72 304.975 3569.2 301.341 Q3572.69 297.706 3578.76 297.706 Q3580.72 297.706 3582.6 298.123 Q3584.47 298.517 3586.23 299.327 Z" fill="#000000" fill-rule="evenodd" fill-opacity="1" /><path clip-path="url(#clip750)" d="M3615.82 310.229 L3615.82 312.313 L3596.23 312.313 Q3596.51 316.711 3598.87 319.026 Q3601.26 321.317 3605.49 321.317 Q3607.95 321.317 3610.24 320.716 Q3612.55 320.114 3614.82 318.91 L3614.82 322.938 Q3612.53 323.91 3610.12 324.419 Q3607.71 324.928 3605.24 324.928 Q3599.03 324.928 3595.4 321.317 Q3591.79 317.706 3591.79 311.549 Q3591.79 305.183 3595.21 301.456 Q3598.66 297.706 3604.5 297.706 Q3609.73 297.706 3612.76 301.086 Q3615.82 304.442 3615.82 310.229 M3611.56 308.979 Q3611.51 305.484 3609.59 303.401 Q3607.69 301.317 3604.54 301.317 Q3600.98 301.317 3598.83 303.331 Q3596.7 305.345 3596.37 309.003 L3611.56 308.979 Z" fill="#000000" fill-rule="evenodd" fill-opacity="1" /><path clip-path="url(#clip750)" d="M3639.33 299.095 L3639.33 303.123 Q3637.53 302.197 3635.58 301.734 Q3633.64 301.271 3631.56 301.271 Q3628.39 301.271 3626.79 302.243 Q3625.21 303.216 3625.21 305.16 Q3625.21 306.642 3626.35 307.498 Q3627.48 308.331 3630.91 309.095 L3632.37 309.419 Q3636.9 310.392 3638.8 312.174 Q3640.72 313.933 3640.72 317.104 Q3640.72 320.716 3637.85 322.822 Q3635.01 324.928 3630.01 324.928 Q3627.92 324.928 3625.65 324.512 Q3623.41 324.118 3620.91 323.308 L3620.91 318.91 Q3623.27 320.137 3625.56 320.762 Q3627.85 321.364 3630.1 321.364 Q3633.11 321.364 3634.73 320.345 Q3636.35 319.303 3636.35 317.429 Q3636.35 315.692 3635.17 314.766 Q3634.01 313.841 3630.05 312.984 L3628.57 312.637 Q3624.61 311.804 3622.85 310.091 Q3621.09 308.354 3621.09 305.345 Q3621.09 301.688 3623.69 299.697 Q3626.28 297.706 3631.05 297.706 Q3633.41 297.706 3635.49 298.054 Q3637.57 298.401 3639.33 299.095 Z" fill="#000000" fill-rule="evenodd" fill-opacity="1" /></svg>
