<?xml version="1.0" encoding="utf-8"?>
<svg xmlns="http://www.w3.org/2000/svg" xmlns:xlink="http://www.w3.org/1999/xlink" width="1000" height="400" viewBox="0 0 4000 1600">
<defs>
  <clipPath id="clip590">
    <rect x="0" y="0" width="4000" height="1600"/>
  </clipPath>
</defs>
<path clip-path="url(#clip590)" d="M0 1600 L4000 1600 L4000 0 L0 0  Z" fill="#ffffff" fill-rule="evenodd" fill-opacity="1"/>
<defs>
  <clipPath id="clip591">
    <rect x="800" y="0" width="2801" height="1600"/>
  </clipPath>
</defs>
<path clip-path="url(#clip590)" d="M235.429 1393.02 L1889.76 1393.02 L1889.76 162.272 L235.429 162.272  Z" fill="#ffffff" fill-rule="evenodd" fill-opacity="1"/>
<defs>
  <clipPath id="clip592">
    <rect x="235" y="162" width="1655" height="1232"/>
  </clipPath>
</defs>
<polyline clip-path="url(#clip592)" style="stroke:#000000; stroke-linecap:round; stroke-linejoin:round; stroke-width:2; stroke-opacity:0.1; fill:none" points="345.93,1393.02 345.93,162.272 "/>
<polyline clip-path="url(#clip592)" style="stroke:#000000; stroke-linecap:round; stroke-linejoin:round; stroke-width:2; stroke-opacity:0.1; fill:none" points="755.623,1393.02 755.623,162.272 "/>
<polyline clip-path="url(#clip592)" style="stroke:#000000; stroke-linecap:round; stroke-linejoin:round; stroke-width:2; stroke-opacity:0.1; fill:none" points="1165.32,1393.02 1165.32,162.272 "/>
<polyline clip-path="url(#clip592)" style="stroke:#000000; stroke-linecap:round; stroke-linejoin:round; stroke-width:2; stroke-opacity:0.1; fill:none" points="1575.01,1393.02 1575.01,162.272 "/>
<polyline clip-path="url(#clip592)" style="stroke:#000000; stroke-linecap:round; stroke-linejoin:round; stroke-width:2; stroke-opacity:0.1; fill:none" points="235.429,1358.19 1889.76,1358.19 "/>
<polyline clip-path="url(#clip592)" style="stroke:#000000; stroke-linecap:round; stroke-linejoin:round; stroke-width:2; stroke-opacity:0.1; fill:none" points="235.429,1067.92 1889.76,1067.92 "/>
<polyline clip-path="url(#clip592)" style="stroke:#000000; stroke-linecap:round; stroke-linejoin:round; stroke-width:2; stroke-opacity:0.1; fill:none" points="235.429,777.646 1889.76,777.646 "/>
<polyline clip-path="url(#clip592)" style="stroke:#000000; stroke-linecap:round; stroke-linejoin:round; stroke-width:2; stroke-opacity:0.1; fill:none" points="235.429,487.375 1889.76,487.375 "/>
<polyline clip-path="url(#clip592)" style="stroke:#000000; stroke-linecap:round; stroke-linejoin:round; stroke-width:2; stroke-opacity:0.1; fill:none" points="235.429,197.105 1889.76,197.105 "/>
<polyline clip-path="url(#clip590)" style="stroke:#000000; stroke-linecap:round; stroke-linejoin:round; stroke-width:4; stroke-opacity:1; fill:none" points="235.429,1393.02 1889.76,1393.02 "/>
<polyline clip-path="url(#clip590)" style="stroke:#000000; stroke-linecap:round; stroke-linejoin:round; stroke-width:4; stroke-opacity:1; fill:none" points="345.93,1393.02 345.93,1374.12 "/>
<polyline clip-path="url(#clip590)" style="stroke:#000000; stroke-linecap:round; stroke-linejoin:round; stroke-width:4; stroke-opacity:1; fill:none" points="755.623,1393.02 755.623,1374.12 "/>
<polyline clip-path="url(#clip590)" style="stroke:#000000; stroke-linecap:round; stroke-linejoin:round; stroke-width:4; stroke-opacity:1; fill:none" points="1165.32,1393.02 1165.32,1374.12 "/>
<polyline clip-path="url(#clip590)" style="stroke:#000000; stroke-linecap:round; stroke-linejoin:round; stroke-width:4; stroke-opacity:1; fill:none" points="1575.01,1393.02 1575.01,1374.12 "/>
<path clip-path="url(#clip590)" d="M323.36 1436.74 Q319.749 1436.74 317.921 1440.3 Q316.115 1443.84 316.115 1450.97 Q316.115 1458.08 317.921 1461.65 Q319.749 1465.19 323.36 1465.19 Q326.995 1465.19 328.8 1461.65 Q330.629 1458.08 330.629 1450.97 Q330.629 1443.84 328.8 1440.3 Q326.995 1436.74 323.36 1436.74 M323.36 1433.03 Q329.171 1433.03 332.226 1437.64 Q335.305 1442.22 335.305 1450.97 Q335.305 1459.7 332.226 1464.31 Q329.171 1468.89 323.36 1468.89 Q317.55 1468.89 314.472 1464.31 Q311.416 1459.7 311.416 1450.97 Q311.416 1442.22 314.472 1437.64 Q317.55 1433.03 323.36 1433.03 Z" fill="#000000" fill-rule="nonzero" fill-opacity="1" /><path clip-path="url(#clip590)" d="M343.522 1462.34 L348.407 1462.34 L348.407 1468.22 L343.522 1468.22 L343.522 1462.34 Z" fill="#000000" fill-rule="nonzero" fill-opacity="1" /><path clip-path="url(#clip590)" d="M368.592 1451.81 Q365.258 1451.81 363.337 1453.59 Q361.439 1455.37 361.439 1458.5 Q361.439 1461.62 363.337 1463.4 Q365.258 1465.19 368.592 1465.19 Q371.925 1465.19 373.846 1463.4 Q375.767 1461.6 375.767 1458.5 Q375.767 1455.37 373.846 1453.59 Q371.948 1451.81 368.592 1451.81 M363.916 1449.82 Q360.906 1449.08 359.217 1447.02 Q357.55 1444.96 357.55 1441.99 Q357.55 1437.85 360.49 1435.44 Q363.453 1433.03 368.592 1433.03 Q373.754 1433.03 376.693 1435.44 Q379.633 1437.85 379.633 1441.99 Q379.633 1444.96 377.943 1447.02 Q376.277 1449.08 373.291 1449.82 Q376.67 1450.6 378.545 1452.9 Q380.443 1455.19 380.443 1458.5 Q380.443 1463.52 377.365 1466.21 Q374.309 1468.89 368.592 1468.89 Q362.874 1468.89 359.795 1466.21 Q356.74 1463.52 356.74 1458.5 Q356.74 1455.19 358.638 1452.9 Q360.536 1450.6 363.916 1449.82 M362.203 1442.43 Q362.203 1445.12 363.869 1446.62 Q365.559 1448.13 368.592 1448.13 Q371.601 1448.13 373.291 1446.62 Q375.004 1445.12 375.004 1442.43 Q375.004 1439.75 373.291 1438.24 Q371.601 1436.74 368.592 1436.74 Q365.559 1436.74 363.869 1438.24 Q362.203 1439.75 362.203 1442.43 Z" fill="#000000" fill-rule="nonzero" fill-opacity="1" /><path clip-path="url(#clip590)" d="M733.1 1436.74 Q729.489 1436.74 727.66 1440.3 Q725.855 1443.84 725.855 1450.97 Q725.855 1458.08 727.66 1461.65 Q729.489 1465.19 733.1 1465.19 Q736.734 1465.19 738.54 1461.65 Q740.369 1458.08 740.369 1450.97 Q740.369 1443.84 738.54 1440.3 Q736.734 1436.74 733.1 1436.74 M733.1 1433.03 Q738.91 1433.03 741.966 1437.64 Q745.044 1442.22 745.044 1450.97 Q745.044 1459.7 741.966 1464.31 Q738.91 1468.89 733.1 1468.89 Q727.29 1468.89 724.211 1464.31 Q721.156 1459.7 721.156 1450.97 Q721.156 1442.22 724.211 1437.64 Q727.29 1433.03 733.1 1433.03 Z" fill="#000000" fill-rule="nonzero" fill-opacity="1" /><path clip-path="url(#clip590)" d="M753.262 1462.34 L758.146 1462.34 L758.146 1468.22 L753.262 1468.22 L753.262 1462.34 Z" fill="#000000" fill-rule="nonzero" fill-opacity="1" /><path clip-path="url(#clip590)" d="M768.47 1467.5 L768.47 1463.24 Q770.229 1464.08 772.035 1464.52 Q773.841 1464.96 775.577 1464.96 Q780.206 1464.96 782.637 1461.85 Q785.091 1458.73 785.438 1452.39 Q784.095 1454.38 782.035 1455.44 Q779.975 1456.51 777.475 1456.51 Q772.29 1456.51 769.257 1453.38 Q766.248 1450.23 766.248 1444.79 Q766.248 1439.47 769.396 1436.25 Q772.544 1433.03 777.776 1433.03 Q783.771 1433.03 786.919 1437.64 Q790.091 1442.22 790.091 1450.97 Q790.091 1459.15 786.202 1464.03 Q782.336 1468.89 775.785 1468.89 Q774.026 1468.89 772.22 1468.54 Q770.415 1468.2 768.47 1467.5 M777.776 1452.85 Q780.924 1452.85 782.753 1450.7 Q784.604 1448.54 784.604 1444.79 Q784.604 1441.07 782.753 1438.91 Q780.924 1436.74 777.776 1436.74 Q774.628 1436.74 772.776 1438.91 Q770.947 1441.07 770.947 1444.79 Q770.947 1448.54 772.776 1450.7 Q774.628 1452.85 777.776 1452.85 Z" fill="#000000" fill-rule="nonzero" fill-opacity="1" /><path clip-path="url(#clip590)" d="M1132.47 1464.28 L1140.11 1464.28 L1140.11 1437.92 L1131.8 1439.59 L1131.8 1435.33 L1140.06 1433.66 L1144.74 1433.66 L1144.74 1464.28 L1152.38 1464.28 L1152.38 1468.22 L1132.47 1468.22 L1132.47 1464.28 Z" fill="#000000" fill-rule="nonzero" fill-opacity="1" /><path clip-path="url(#clip590)" d="M1161.82 1462.34 L1166.71 1462.34 L1166.71 1468.22 L1161.82 1468.22 L1161.82 1462.34 Z" fill="#000000" fill-rule="nonzero" fill-opacity="1" /><path clip-path="url(#clip590)" d="M1186.89 1436.74 Q1183.28 1436.74 1181.45 1440.3 Q1179.65 1443.84 1179.65 1450.97 Q1179.65 1458.08 1181.45 1461.65 Q1183.28 1465.19 1186.89 1465.19 Q1190.52 1465.19 1192.33 1461.65 Q1194.16 1458.08 1194.16 1450.97 Q1194.16 1443.84 1192.33 1440.3 Q1190.52 1436.74 1186.89 1436.74 M1186.89 1433.03 Q1192.7 1433.03 1195.76 1437.64 Q1198.83 1442.22 1198.83 1450.97 Q1198.83 1459.7 1195.76 1464.31 Q1192.7 1468.89 1186.89 1468.89 Q1181.08 1468.89 1178 1464.31 Q1174.95 1459.7 1174.95 1450.97 Q1174.95 1442.22 1178 1437.64 Q1181.08 1433.03 1186.89 1433.03 Z" fill="#000000" fill-rule="nonzero" fill-opacity="1" /><path clip-path="url(#clip590)" d="M1542.78 1464.28 L1550.42 1464.28 L1550.42 1437.92 L1542.1 1439.59 L1542.1 1435.33 L1550.37 1433.66 L1555.04 1433.66 L1555.04 1464.28 L1562.68 1464.28 L1562.68 1468.22 L1542.78 1468.22 L1542.78 1464.28 Z" fill="#000000" fill-rule="nonzero" fill-opacity="1" /><path clip-path="url(#clip590)" d="M1572.13 1462.34 L1577.01 1462.34 L1577.01 1468.22 L1572.13 1468.22 L1572.13 1462.34 Z" fill="#000000" fill-rule="nonzero" fill-opacity="1" /><path clip-path="url(#clip590)" d="M1588.01 1464.28 L1595.65 1464.28 L1595.65 1437.92 L1587.34 1439.59 L1587.34 1435.33 L1595.6 1433.66 L1600.28 1433.66 L1600.28 1464.28 L1607.91 1464.28 L1607.91 1468.22 L1588.01 1468.22 L1588.01 1464.28 Z" fill="#000000" fill-rule="nonzero" fill-opacity="1" /><path clip-path="url(#clip590)" d="M1049.52 1532.6 Q1051.46 1529.35 1056.26 1526.49 Q1058.14 1525.38 1063.93 1525.38 Q1070.43 1525.38 1074.47 1530.53 Q1078.54 1535.69 1078.54 1544.09 Q1078.54 1552.49 1074.47 1557.65 Q1070.43 1562.81 1063.93 1562.81 Q1060.02 1562.81 1057.19 1561.28 Q1054.38 1559.72 1052.54 1556.54 L1052.54 1575.44 L1046.65 1575.44 L1046.65 1544.41 Q1046.65 1537.06 1049.52 1532.6 M1072.46 1544.09 Q1072.46 1537.63 1069.79 1533.97 Q1067.15 1530.28 1062.5 1530.28 Q1057.85 1530.28 1055.18 1533.97 Q1052.54 1537.63 1052.54 1544.09 Q1052.54 1550.55 1055.18 1554.24 Q1057.85 1557.91 1062.5 1557.91 Q1067.15 1557.91 1069.79 1554.24 Q1072.46 1550.55 1072.46 1544.09 Z" fill="#000000" fill-rule="nonzero" fill-opacity="1" /><polyline clip-path="url(#clip590)" style="stroke:#000000; stroke-linecap:round; stroke-linejoin:round; stroke-width:4; stroke-opacity:1; fill:none" points="235.429,1393.02 235.429,162.272 "/>
<polyline clip-path="url(#clip590)" style="stroke:#000000; stroke-linecap:round; stroke-linejoin:round; stroke-width:4; stroke-opacity:1; fill:none" points="235.429,1358.19 254.327,1358.19 "/>
<polyline clip-path="url(#clip590)" style="stroke:#000000; stroke-linecap:round; stroke-linejoin:round; stroke-width:4; stroke-opacity:1; fill:none" points="235.429,1067.92 254.327,1067.92 "/>
<polyline clip-path="url(#clip590)" style="stroke:#000000; stroke-linecap:round; stroke-linejoin:round; stroke-width:4; stroke-opacity:1; fill:none" points="235.429,777.646 254.327,777.646 "/>
<polyline clip-path="url(#clip590)" style="stroke:#000000; stroke-linecap:round; stroke-linejoin:round; stroke-width:4; stroke-opacity:1; fill:none" points="235.429,487.375 254.327,487.375 "/>
<polyline clip-path="url(#clip590)" style="stroke:#000000; stroke-linecap:round; stroke-linejoin:round; stroke-width:4; stroke-opacity:1; fill:none" points="235.429,197.105 254.327,197.105 "/>
<path clip-path="url(#clip590)" d="M163.485 1343.99 Q159.874 1343.99 158.045 1347.55 Q156.24 1351.09 156.24 1358.22 Q156.24 1365.33 158.045 1368.89 Q159.874 1372.43 163.485 1372.43 Q167.119 1372.43 168.925 1368.89 Q170.753 1365.33 170.753 1358.22 Q170.753 1351.09 168.925 1347.55 Q167.119 1343.99 163.485 1343.99 M163.485 1340.28 Q169.295 1340.28 172.351 1344.89 Q175.429 1349.47 175.429 1358.22 Q175.429 1366.95 172.351 1371.56 Q169.295 1376.14 163.485 1376.14 Q157.675 1376.14 154.596 1371.56 Q151.541 1366.95 151.541 1358.22 Q151.541 1349.47 154.596 1344.89 Q157.675 1340.28 163.485 1340.28 Z" fill="#000000" fill-rule="nonzero" fill-opacity="1" /><path clip-path="url(#clip590)" d="M155.522 1081.26 L163.161 1081.26 L163.161 1054.9 L154.851 1056.56 L154.851 1052.3 L163.115 1050.64 L167.79 1050.64 L167.79 1081.26 L175.429 1081.26 L175.429 1085.2 L155.522 1085.2 L155.522 1081.26 Z" fill="#000000" fill-rule="nonzero" fill-opacity="1" /><path clip-path="url(#clip590)" d="M159.11 790.991 L175.429 790.991 L175.429 794.926 L153.485 794.926 L153.485 790.991 Q156.147 788.236 160.73 783.607 Q165.337 778.954 166.517 777.611 Q168.763 775.088 169.642 773.352 Q170.545 771.593 170.545 769.903 Q170.545 767.148 168.601 765.412 Q166.679 763.676 163.578 763.676 Q161.378 763.676 158.925 764.44 Q156.494 765.204 153.716 766.755 L153.716 762.033 Q156.541 760.898 158.994 760.32 Q161.448 759.741 163.485 759.741 Q168.855 759.741 172.05 762.426 Q175.244 765.111 175.244 769.602 Q175.244 771.732 174.434 773.653 Q173.647 775.551 171.54 778.144 Q170.962 778.815 167.86 782.033 Q164.758 785.227 159.11 790.991 Z" fill="#000000" fill-rule="nonzero" fill-opacity="1" /><path clip-path="url(#clip590)" d="M168.3 486.021 Q171.656 486.739 173.531 489.007 Q175.429 491.276 175.429 494.609 Q175.429 499.725 171.911 502.526 Q168.392 505.327 161.911 505.327 Q159.735 505.327 157.42 504.887 Q155.129 504.47 152.675 503.614 L152.675 499.1 Q154.619 500.234 156.934 500.813 Q159.249 501.391 161.772 501.391 Q166.17 501.391 168.462 499.655 Q170.777 497.919 170.777 494.609 Q170.777 491.554 168.624 489.841 Q166.494 488.105 162.675 488.105 L158.647 488.105 L158.647 484.262 L162.86 484.262 Q166.309 484.262 168.138 482.896 Q169.966 481.507 169.966 478.915 Q169.966 476.253 168.068 474.841 Q166.193 473.406 162.675 473.406 Q160.753 473.406 158.554 473.822 Q156.355 474.239 153.716 475.118 L153.716 470.952 Q156.379 470.211 158.693 469.841 Q161.031 469.47 163.091 469.47 Q168.415 469.47 171.517 471.901 Q174.619 474.308 174.619 478.429 Q174.619 481.299 172.976 483.29 Q171.332 485.257 168.3 486.021 Z" fill="#000000" fill-rule="nonzero" fill-opacity="1" /><path clip-path="url(#clip590)" d="M165.846 183.899 L154.041 202.348 L165.846 202.348 L165.846 183.899 M164.619 179.825 L170.499 179.825 L170.499 202.348 L175.429 202.348 L175.429 206.237 L170.499 206.237 L170.499 214.385 L165.846 214.385 L165.846 206.237 L150.244 206.237 L150.244 201.723 L164.619 179.825 Z" fill="#000000" fill-rule="nonzero" fill-opacity="1" /><path clip-path="url(#clip590)" d="M40.3403 876.171 L40.3403 848.353 L45.6875 848.353 L71.3095 870.378 L71.3095 848.353 L75.9883 848.353 L75.9883 876.967 L70.6411 876.967 L45.0191 854.942 L45.0191 876.171 L40.3403 876.171 Z" fill="#000000" fill-rule="nonzero" fill-opacity="1" /><path clip-path="url(#clip590)" d="M26.5267 804.621 Q33.8473 808.886 41.0087 810.955 Q48.1701 813.023 55.5225 813.023 Q62.8749 813.023 70.1 810.955 Q77.2933 808.854 84.582 804.621 L84.582 809.713 Q77.1023 814.488 69.8772 816.875 Q62.6521 819.23 55.5225 819.23 Q48.4248 819.23 41.2315 816.875 Q34.0383 814.519 26.5267 809.713 L26.5267 804.621 Z" fill="#000000" fill-rule="nonzero" fill-opacity="1" /><path clip-path="url(#clip590)" d="M26.4631 793.481 L26.4631 787.592 L55.7135 787.592 L40.3403 770.119 L40.3403 762.639 L57.0185 781.545 L75.9883 761.843 L75.9883 769.482 L58.5781 787.592 L75.9883 787.592 L75.9883 793.481 L26.4631 793.481 Z" fill="#000000" fill-rule="nonzero" fill-opacity="1" /><path clip-path="url(#clip590)" d="M47.1835 727.755 Q43.2367 725.559 41.3588 722.503 Q39.481 719.448 39.481 715.31 Q39.481 709.74 43.3959 706.716 Q47.2789 703.692 54.4722 703.692 L75.9883 703.692 L75.9883 709.581 L54.6632 709.581 Q49.5388 709.581 47.0561 711.395 Q44.5735 713.209 44.5735 716.933 Q44.5735 721.485 47.5972 724.126 Q50.6209 726.768 55.8408 726.768 L75.9883 726.768 L75.9883 732.656 L54.6632 732.656 Q49.5069 732.656 47.0561 734.471 Q44.5735 736.285 44.5735 740.072 Q44.5735 744.56 47.6291 747.202 Q50.6528 749.844 55.8408 749.844 L75.9883 749.844 L75.9883 755.732 L40.3403 755.732 L40.3403 749.844 L45.8785 749.844 Q42.6002 747.839 41.0406 745.038 Q39.481 742.237 39.481 738.385 Q39.481 734.502 41.4543 731.797 Q43.4277 729.06 47.1835 727.755 Z" fill="#000000" fill-rule="nonzero" fill-opacity="1" /><path clip-path="url(#clip590)" d="M26.5267 692.934 L26.5267 687.842 Q34.0383 683.067 41.2315 680.712 Q48.4248 678.325 55.5225 678.325 Q62.6521 678.325 69.8772 680.712 Q77.1023 683.067 84.582 687.842 L84.582 692.934 Q77.2933 688.701 70.1 686.632 Q62.8749 684.532 55.5225 684.532 Q48.1701 684.532 41.0087 686.632 Q33.8473 688.701 26.5267 692.934 Z" fill="#000000" fill-rule="nonzero" fill-opacity="1" /><path clip-path="url(#clip590)" d="M1045.95 35.3077 Q1048.42 31.1758 1054.54 27.5299 Q1056.93 26.1121 1064.3 26.1121 Q1072.56 26.1121 1077.71 32.6746 Q1082.89 39.2371 1082.89 49.9314 Q1082.89 60.6258 1077.71 67.1883 Q1072.56 73.7508 1064.3 73.7508 Q1059.32 73.7508 1055.71 71.8063 Q1052.15 69.8214 1049.8 65.7705 L1049.8 89.8329 L1042.3 89.8329 L1042.3 50.3365 Q1042.3 40.9789 1045.95 35.3077 M1075.15 49.9314 Q1075.15 41.7081 1071.75 37.0496 Q1068.39 32.3505 1062.48 32.3505 Q1056.56 32.3505 1053.16 37.0496 Q1049.8 41.7081 1049.8 49.9314 Q1049.8 58.1548 1053.16 62.8538 Q1056.56 67.5124 1062.48 67.5124 Q1068.39 67.5124 1071.75 62.8538 Q1075.15 58.1548 1075.15 49.9314 Z" fill="#000000" fill-rule="nonzero" fill-opacity="1" /><polyline clip-path="url(#clip592)" style="stroke:#009af9; stroke-linecap:round; stroke-linejoin:round; stroke-width:4; stroke-opacity:1; fill:none" points="1831.51,1350.93 1808.71,1336.42 1786,1321.9 1763.39,1307.39 1740.85,1292.88 1718.42,1278.36 1696.07,1263.85 1673.81,1249.34 1651.65,1234.82 1629.57,1220.31 1607.58,1205.8 1585.65,1191.28 1563.86,1176.77 1542.14,1162.25 1520.5,1147.74 1498.94,1133.23 1477.49,1118.71 1456.12,1104.2 1434.83,1089.69 1413.63,1075.17 1392.48,1060.66 1371.49,1046.15 1350.55,1031.63 1329.69,1017.12 1308.92,1002.61 1288.23,988.092 1267.63,973.579 1247.11,959.065 1226.68,944.552 1206.33,930.038 1186.07,915.525 1165.89,901.011 1145.79,886.497 1125.77,871.984 1105.84,857.47 1085.99,842.957 1066.22,828.443 1046.54,813.93 1026.94,799.416 1007.42,784.903 987.968,770.389 968.608,755.876 949.328,741.362 930.128,726.849 911.009,712.335 891.97,697.822 873.01,683.308 854.13,668.794 835.329,654.281 816.607,639.767 797.964,625.254 779.399,610.74 760.912,596.227 742.503,581.713 724.172,567.2 705.919,552.686 687.743,538.173 669.643,523.659 651.62,509.146 633.674,494.632 615.804,480.119 598.01,465.605 580.292,451.092 562.649,436.578 545.082,422.064 527.594,407.551 510.177,393.037 492.835,378.524 475.567,364.01 458.373,349.497 441.252,334.983 424.206,320.47 407.233,305.956 390.333,291.443 373.506,276.929 356.751,262.416 340.069,247.902 323.46,233.389 306.922,218.875 290.456,204.361 "/>
<polyline clip-path="url(#clip592)" style="stroke:#e26f46; stroke-linecap:round; stroke-linejoin:round; stroke-width:4; stroke-opacity:1; fill:none" points="1842.94,1358.19 1820.1,1343.67 1797.34,1329.16 1774.68,1314.65 1752.11,1300.13 1729.62,1285.62 1707.23,1271.11 1684.93,1256.59 1662.72,1242.08 1640.6,1227.57 1618.56,1213.05 1596.62,1198.54 1574.76,1184.02 1552.99,1169.51 1531.31,1155 1509.72,1140.48 1488.21,1125.97 1466.79,1111.46 1445.47,1096.94 1424.22,1082.43 1403.07,1067.92 1381.99,1053.4 1361.01,1038.89 1340.11,1024.38 1319.29,1009.86 1298.56,995.349 1277.92,980.835 1257.36,966.322 1236.89,951.808 1216.5,937.295 1196.19,922.781 1176.04,908.268 1155.83,893.754 1135.77,879.241 1115.8,864.727 1095.91,850.214 1076.1,835.7 1056.37,821.187 1036.73,806.673 1017.17,792.16 997.686,777.646 978.278,763.132 958.958,748.619 939.718,734.105 920.559,719.592 901.479,705.078 882.48,690.565 863.56,676.051 844.72,661.538 825.958,647.024 807.276,632.511 788.672,617.997 770.146,603.484 751.698,588.97 733.328,574.457 715.036,559.943 696.821,545.429 678.683,530.916 660.622,516.402 642.638,501.889 624.73,487.375 606.898,472.862 589.142,458.348 571.461,443.835 553.856,429.321 536.331,414.808 518.877,400.294 501.497,385.781 484.191,371.267 466.96,356.754 449.803,342.24 432.72,327.727 415.71,313.213 398.774,298.699 381.91,284.186 365.119,269.672 348.401,255.159 331.756,240.645 315.182,226.132 298.68,211.618 282.25,197.105 "/>
<path clip-path="url(#clip590)" d="M1496.9 358.817 L1834.62 358.817 L1834.62 203.297 L1496.9 203.297  Z" fill="#ffffff" fill-rule="evenodd" fill-opacity="1"/>
<polyline clip-path="url(#clip590)" style="stroke:#000000; stroke-linecap:round; stroke-linejoin:round; stroke-width:4; stroke-opacity:1; fill:none" points="1496.9,358.817 1834.62,358.817 1834.62,203.297 1496.9,203.297 1496.9,358.817 "/>
<polyline clip-path="url(#clip590)" style="stroke:#009af9; stroke-linecap:round; stroke-linejoin:round; stroke-width:4; stroke-opacity:1; fill:none" points="1515.28,255.137 1625.57,255.137 "/>
<path clip-path="url(#clip590)" d="M1664.46 247.487 L1664.46 251.468 Q1662.65 250.473 1660.82 249.987 Q1659.02 249.477 1657.16 249.477 Q1653.02 249.477 1650.73 252.116 Q1648.44 254.732 1648.44 259.477 Q1648.44 264.223 1650.73 266.862 Q1653.02 269.477 1657.16 269.477 Q1659.02 269.477 1660.82 268.991 Q1662.65 268.482 1664.46 267.487 L1664.46 271.422 Q1662.67 272.255 1660.75 272.672 Q1658.85 273.088 1656.7 273.088 Q1650.85 273.088 1647.4 269.408 Q1643.95 265.727 1643.95 259.477 Q1643.95 253.135 1647.42 249.501 Q1650.91 245.866 1656.98 245.866 Q1658.95 245.866 1660.82 246.283 Q1662.7 246.677 1664.46 247.487 Z" fill="#000000" fill-rule="nonzero" fill-opacity="1" /><path clip-path="url(#clip590)" d="M1694.04 258.389 L1694.04 260.473 L1674.46 260.473 Q1674.73 264.871 1677.1 267.186 Q1679.48 269.477 1683.72 269.477 Q1686.17 269.477 1688.46 268.876 Q1690.78 268.274 1693.04 267.07 L1693.04 271.098 Q1690.75 272.07 1688.34 272.579 Q1685.94 273.088 1683.46 273.088 Q1677.26 273.088 1673.62 269.477 Q1670.01 265.866 1670.01 259.709 Q1670.01 253.343 1673.44 249.616 Q1676.89 245.866 1682.72 245.866 Q1687.95 245.866 1690.98 249.246 Q1694.04 252.602 1694.04 258.389 M1689.78 257.139 Q1689.73 253.644 1687.81 251.561 Q1685.91 249.477 1682.77 249.477 Q1679.2 249.477 1677.05 251.491 Q1674.92 253.505 1674.6 257.163 L1689.78 257.139 Z" fill="#000000" fill-rule="nonzero" fill-opacity="1" /><path clip-path="url(#clip590)" d="M1722.58 256.769 L1722.58 272.417 L1718.32 272.417 L1718.32 256.908 Q1718.32 253.227 1716.89 251.399 Q1715.45 249.57 1712.58 249.57 Q1709.13 249.57 1707.14 251.769 Q1705.15 253.968 1705.15 257.764 L1705.15 272.417 L1700.87 272.417 L1700.87 246.491 L1705.15 246.491 L1705.15 250.519 Q1706.68 248.181 1708.74 247.024 Q1710.82 245.866 1713.53 245.866 Q1718 245.866 1720.29 248.644 Q1722.58 251.399 1722.58 256.769 Z" fill="#000000" fill-rule="nonzero" fill-opacity="1" /><path clip-path="url(#clip590)" d="M1735.29 239.13 L1735.29 246.491 L1744.06 246.491 L1744.06 249.802 L1735.29 249.802 L1735.29 263.876 Q1735.29 267.047 1736.15 267.95 Q1737.03 268.852 1739.69 268.852 L1744.06 268.852 L1744.06 272.417 L1739.69 272.417 Q1734.76 272.417 1732.88 270.588 Q1731.01 268.737 1731.01 263.876 L1731.01 249.802 L1727.88 249.802 L1727.88 246.491 L1731.01 246.491 L1731.01 239.13 L1735.29 239.13 Z" fill="#000000" fill-rule="nonzero" fill-opacity="1" /><path clip-path="url(#clip590)" d="M1771.84 258.389 L1771.84 260.473 L1752.26 260.473 Q1752.53 264.871 1754.9 267.186 Q1757.28 269.477 1761.52 269.477 Q1763.97 269.477 1766.26 268.876 Q1768.58 268.274 1770.84 267.07 L1770.84 271.098 Q1768.55 272.07 1766.15 272.579 Q1763.74 273.088 1761.26 273.088 Q1755.06 273.088 1751.42 269.477 Q1747.81 265.866 1747.81 259.709 Q1747.81 253.343 1751.24 249.616 Q1754.69 245.866 1760.52 245.866 Q1765.75 245.866 1768.78 249.246 Q1771.84 252.602 1771.84 258.389 M1767.58 257.139 Q1767.53 253.644 1765.61 251.561 Q1763.71 249.477 1760.57 249.477 Q1757 249.477 1754.85 251.491 Q1752.72 253.505 1752.4 257.163 L1767.58 257.139 Z" fill="#000000" fill-rule="nonzero" fill-opacity="1" /><path clip-path="url(#clip590)" d="M1793.85 250.473 Q1793.14 250.056 1792.28 249.871 Q1791.45 249.663 1790.43 249.663 Q1786.82 249.663 1784.87 252.024 Q1782.95 254.362 1782.95 258.76 L1782.95 272.417 L1778.67 272.417 L1778.67 246.491 L1782.95 246.491 L1782.95 250.519 Q1784.29 248.158 1786.45 247.024 Q1788.6 245.866 1791.68 245.866 Q1792.12 245.866 1792.65 245.936 Q1793.18 245.982 1793.83 246.098 L1793.85 250.473 Z" fill="#000000" fill-rule="nonzero" fill-opacity="1" /><path clip-path="url(#clip590)" d="M1814.85 247.255 L1814.85 251.283 Q1813.04 250.357 1811.1 249.894 Q1809.15 249.431 1807.07 249.431 Q1803.9 249.431 1802.3 250.403 Q1800.73 251.376 1800.73 253.32 Q1800.73 254.802 1801.86 255.658 Q1803 256.491 1806.42 257.255 L1807.88 257.579 Q1812.42 258.552 1814.32 260.334 Q1816.24 262.093 1816.24 265.264 Q1816.24 268.876 1813.37 270.982 Q1810.52 273.088 1805.52 273.088 Q1803.44 273.088 1801.17 272.672 Q1798.92 272.278 1796.42 271.468 L1796.42 267.07 Q1798.78 268.297 1801.08 268.922 Q1803.37 269.524 1805.61 269.524 Q1808.62 269.524 1810.24 268.505 Q1811.86 267.463 1811.86 265.589 Q1811.86 263.852 1810.68 262.926 Q1809.52 262.001 1805.57 261.144 L1804.09 260.797 Q1800.13 259.964 1798.37 258.251 Q1796.61 256.514 1796.61 253.505 Q1796.61 249.848 1799.2 247.857 Q1801.79 245.866 1806.56 245.866 Q1808.92 245.866 1811.01 246.214 Q1813.09 246.561 1814.85 247.255 Z" fill="#000000" fill-rule="nonzero" fill-opacity="1" /><polyline clip-path="url(#clip590)" style="stroke:#e26f46; stroke-linecap:round; stroke-linejoin:round; stroke-width:4; stroke-opacity:1; fill:none" points="1515.28,306.977 1625.57,306.977 "/>
<path clip-path="url(#clip590)" d="M1660.45 288.239 L1660.45 291.78 L1656.38 291.78 Q1654.09 291.78 1653.18 292.706 Q1652.3 293.632 1652.3 296.04 L1652.3 298.331 L1659.32 298.331 L1659.32 301.642 L1652.3 301.642 L1652.3 324.257 L1648.02 324.257 L1648.02 301.642 L1643.95 301.642 L1643.95 298.331 L1648.02 298.331 L1648.02 296.526 Q1648.02 292.197 1650.03 290.23 Q1652.05 288.239 1656.42 288.239 L1660.45 288.239 Z" fill="#000000" fill-rule="nonzero" fill-opacity="1" /><path clip-path="url(#clip590)" d="M1675.8 311.225 Q1670.64 311.225 1668.65 312.405 Q1666.66 313.586 1666.66 316.433 Q1666.66 318.702 1668.14 320.044 Q1669.64 321.364 1672.21 321.364 Q1675.75 321.364 1677.88 318.864 Q1680.03 316.341 1680.03 312.174 L1680.03 311.225 L1675.8 311.225 M1684.29 309.466 L1684.29 324.257 L1680.03 324.257 L1680.03 320.322 Q1678.58 322.683 1676.4 323.817 Q1674.22 324.928 1671.08 324.928 Q1667.1 324.928 1664.73 322.706 Q1662.4 320.461 1662.4 316.711 Q1662.4 312.336 1665.31 310.114 Q1668.25 307.892 1674.06 307.892 L1680.03 307.892 L1680.03 307.475 Q1680.03 304.535 1678.09 302.938 Q1676.17 301.317 1672.67 301.317 Q1670.45 301.317 1668.35 301.85 Q1666.24 302.382 1664.29 303.447 L1664.29 299.512 Q1666.63 298.609 1668.83 298.169 Q1671.03 297.706 1673.11 297.706 Q1678.74 297.706 1681.52 300.623 Q1684.29 303.54 1684.29 309.466 Z" fill="#000000" fill-rule="nonzero" fill-opacity="1" /><path clip-path="url(#clip590)" d="M1711.72 299.327 L1711.72 303.308 Q1709.92 302.313 1708.09 301.827 Q1706.28 301.317 1704.43 301.317 Q1700.29 301.317 1698 303.956 Q1695.71 306.572 1695.71 311.317 Q1695.71 316.063 1698 318.702 Q1700.29 321.317 1704.43 321.317 Q1706.28 321.317 1708.09 320.831 Q1709.92 320.322 1711.72 319.327 L1711.72 323.262 Q1709.94 324.095 1708.02 324.512 Q1706.12 324.928 1703.97 324.928 Q1698.11 324.928 1694.66 321.248 Q1691.22 317.567 1691.22 311.317 Q1691.22 304.975 1694.69 301.341 Q1698.18 297.706 1704.25 297.706 Q1706.22 297.706 1708.09 298.123 Q1709.97 298.517 1711.72 299.327 Z" fill="#000000" fill-rule="nonzero" fill-opacity="1" /><path clip-path="url(#clip590)" d="M1741.31 310.229 L1741.31 312.313 L1721.72 312.313 Q1722 316.711 1724.36 319.026 Q1726.75 321.317 1730.98 321.317 Q1733.44 321.317 1735.73 320.716 Q1738.04 320.114 1740.31 318.91 L1740.31 322.938 Q1738.02 323.91 1735.61 324.419 Q1733.21 324.928 1730.73 324.928 Q1724.53 324.928 1720.89 321.317 Q1717.28 317.706 1717.28 311.549 Q1717.28 305.183 1720.71 301.456 Q1724.15 297.706 1729.99 297.706 Q1735.22 297.706 1738.25 301.086 Q1741.31 304.442 1741.31 310.229 M1737.05 308.979 Q1737 305.484 1735.08 303.401 Q1733.18 301.317 1730.03 301.317 Q1726.47 301.317 1724.32 303.331 Q1722.19 305.345 1721.86 309.003 L1737.05 308.979 Z" fill="#000000" fill-rule="nonzero" fill-opacity="1" /><path clip-path="url(#clip590)" d="M1764.83 299.095 L1764.83 303.123 Q1763.02 302.197 1761.08 301.734 Q1759.13 301.271 1757.05 301.271 Q1753.88 301.271 1752.28 302.243 Q1750.71 303.216 1750.71 305.16 Q1750.71 306.642 1751.84 307.498 Q1752.97 308.331 1756.4 309.095 L1757.86 309.419 Q1762.4 310.392 1764.29 312.174 Q1766.21 313.933 1766.21 317.104 Q1766.21 320.716 1763.34 322.822 Q1760.5 324.928 1755.5 324.928 Q1753.41 324.928 1751.15 324.512 Q1748.9 324.118 1746.4 323.308 L1746.4 318.91 Q1748.76 320.137 1751.05 320.762 Q1753.34 321.364 1755.59 321.364 Q1758.6 321.364 1760.22 320.345 Q1761.84 319.303 1761.84 317.429 Q1761.84 315.692 1760.66 314.766 Q1759.5 313.841 1755.54 312.984 L1754.06 312.637 Q1750.1 311.804 1748.34 310.091 Q1746.59 308.354 1746.59 305.345 Q1746.59 301.688 1749.18 299.697 Q1751.77 297.706 1756.54 297.706 Q1758.9 297.706 1760.98 298.054 Q1763.07 298.401 1764.83 299.095 Z" fill="#000000" fill-rule="nonzero" fill-opacity="1" /><path clip-path="url(#clip590)" d="M2235.43 1393.02 L3889.76 1393.02 L3889.76 162.272 L2235.43 162.272  Z" fill="#ffffff" fill-rule="evenodd" fill-opacity="1"/>
<defs>
  <clipPath id="clip593">
    <rect x="2235" y="162" width="1655" height="1232"/>
  </clipPath>
</defs>
<polyline clip-path="url(#clip593)" style="stroke:#000000; stroke-linecap:round; stroke-linejoin:round; stroke-width:2; stroke-opacity:0.1; fill:none" points="2542.14,1393.02 2542.14,162.272 "/>
<polyline clip-path="url(#clip593)" style="stroke:#000000; stroke-linecap:round; stroke-linejoin:round; stroke-width:2; stroke-opacity:0.1; fill:none" points="2954.57,1393.02 2954.57,162.272 "/>
<polyline clip-path="url(#clip593)" style="stroke:#000000; stroke-linecap:round; stroke-linejoin:round; stroke-width:2; stroke-opacity:0.1; fill:none" points="3367,1393.02 3367,162.272 "/>
<polyline clip-path="url(#clip593)" style="stroke:#000000; stroke-linecap:round; stroke-linejoin:round; stroke-width:2; stroke-opacity:0.1; fill:none" points="3779.43,1393.02 3779.43,162.272 "/>
<polyline clip-path="url(#clip593)" style="stroke:#000000; stroke-linecap:round; stroke-linejoin:round; stroke-width:2; stroke-opacity:0.1; fill:none" points="2235.43,1358.19 3889.76,1358.19 "/>
<polyline clip-path="url(#clip593)" style="stroke:#000000; stroke-linecap:round; stroke-linejoin:round; stroke-width:2; stroke-opacity:0.1; fill:none" points="2235.43,1067.92 3889.76,1067.92 "/>
<polyline clip-path="url(#clip593)" style="stroke:#000000; stroke-linecap:round; stroke-linejoin:round; stroke-width:2; stroke-opacity:0.1; fill:none" points="2235.43,777.646 3889.76,777.646 "/>
<polyline clip-path="url(#clip593)" style="stroke:#000000; stroke-linecap:round; stroke-linejoin:round; stroke-width:2; stroke-opacity:0.1; fill:none" points="2235.43,487.375 3889.76,487.375 "/>
<polyline clip-path="url(#clip593)" style="stroke:#000000; stroke-linecap:round; stroke-linejoin:round; stroke-width:2; stroke-opacity:0.1; fill:none" points="2235.43,197.105 3889.76,197.105 "/>
<polyline clip-path="url(#clip590)" style="stroke:#000000; stroke-linecap:round; stroke-linejoin:round; stroke-width:4; stroke-opacity:1; fill:none" points="2235.43,1393.02 3889.76,1393.02 "/>
<polyline clip-path="url(#clip590)" style="stroke:#000000; stroke-linecap:round; stroke-linejoin:round; stroke-width:4; stroke-opacity:1; fill:none" points="2542.14,1393.02 2542.14,1374.12 "/>
<polyline clip-path="url(#clip590)" style="stroke:#000000; stroke-linecap:round; stroke-linejoin:round; stroke-width:4; stroke-opacity:1; fill:none" points="2954.57,1393.02 2954.57,1374.12 "/>
<polyline clip-path="url(#clip590)" style="stroke:#000000; stroke-linecap:round; stroke-linejoin:round; stroke-width:4; stroke-opacity:1; fill:none" points="3367,1393.02 3367,1374.12 "/>
<polyline clip-path="url(#clip590)" style="stroke:#000000; stroke-linecap:round; stroke-linejoin:round; stroke-width:4; stroke-opacity:1; fill:none" points="3779.43,1393.02 3779.43,1374.12 "/>
<path clip-path="url(#clip590)" d="M2515.5 1433.66 L2537.72 1433.66 L2537.72 1435.65 L2525.18 1468.22 L2520.29 1468.22 L2532.1 1437.59 L2515.5 1437.59 L2515.5 1433.66 Z" fill="#000000" fill-rule="nonzero" fill-opacity="1" /><path clip-path="url(#clip590)" d="M2556.84 1436.74 Q2553.23 1436.74 2551.4 1440.3 Q2549.6 1443.84 2549.6 1450.97 Q2549.6 1458.08 2551.4 1461.65 Q2553.23 1465.19 2556.84 1465.19 Q2560.48 1465.19 2562.28 1461.65 Q2564.11 1458.08 2564.11 1450.97 Q2564.11 1443.84 2562.28 1440.3 Q2560.48 1436.74 2556.84 1436.74 M2556.84 1433.03 Q2562.65 1433.03 2565.71 1437.64 Q2568.79 1442.22 2568.79 1450.97 Q2568.79 1459.7 2565.71 1464.31 Q2562.65 1468.89 2556.84 1468.89 Q2551.03 1468.89 2547.95 1464.31 Q2544.9 1459.7 2544.9 1450.97 Q2544.9 1442.22 2547.95 1437.64 Q2551.03 1433.03 2556.84 1433.03 Z" fill="#000000" fill-rule="nonzero" fill-opacity="1" /><path clip-path="url(#clip590)" d="M2939.45 1451.81 Q2936.11 1451.81 2934.19 1453.59 Q2932.29 1455.37 2932.29 1458.5 Q2932.29 1461.62 2934.19 1463.4 Q2936.11 1465.19 2939.45 1465.19 Q2942.78 1465.19 2944.7 1463.4 Q2946.62 1461.6 2946.62 1458.5 Q2946.62 1455.37 2944.7 1453.59 Q2942.8 1451.81 2939.45 1451.81 M2934.77 1449.82 Q2931.76 1449.08 2930.07 1447.02 Q2928.4 1444.96 2928.4 1441.99 Q2928.4 1437.85 2931.34 1435.44 Q2934.31 1433.03 2939.45 1433.03 Q2944.61 1433.03 2947.55 1435.44 Q2950.49 1437.85 2950.49 1441.99 Q2950.49 1444.96 2948.8 1447.02 Q2947.13 1449.08 2944.14 1449.82 Q2947.52 1450.6 2949.4 1452.9 Q2951.3 1455.19 2951.3 1458.5 Q2951.3 1463.52 2948.22 1466.21 Q2945.16 1468.89 2939.45 1468.89 Q2933.73 1468.89 2930.65 1466.21 Q2927.59 1463.52 2927.59 1458.5 Q2927.59 1455.19 2929.49 1452.9 Q2931.39 1450.6 2934.77 1449.82 M2933.06 1442.43 Q2933.06 1445.12 2934.72 1446.62 Q2936.41 1448.13 2939.45 1448.13 Q2942.45 1448.13 2944.14 1446.62 Q2945.86 1445.12 2945.86 1442.43 Q2945.86 1439.75 2944.14 1438.24 Q2942.45 1436.74 2939.45 1436.74 Q2936.41 1436.74 2934.72 1438.24 Q2933.06 1439.75 2933.06 1442.43 Z" fill="#000000" fill-rule="nonzero" fill-opacity="1" /><path clip-path="url(#clip590)" d="M2969.61 1436.74 Q2966 1436.74 2964.17 1440.3 Q2962.36 1443.84 2962.36 1450.97 Q2962.36 1458.08 2964.17 1461.65 Q2966 1465.19 2969.61 1465.19 Q2973.24 1465.19 2975.05 1461.65 Q2976.88 1458.08 2976.88 1450.97 Q2976.88 1443.84 2975.05 1440.3 Q2973.24 1436.74 2969.61 1436.74 M2969.61 1433.03 Q2975.42 1433.03 2978.47 1437.64 Q2981.55 1442.22 2981.55 1450.97 Q2981.55 1459.7 2978.47 1464.31 Q2975.42 1468.89 2969.61 1468.89 Q2963.8 1468.89 2960.72 1464.31 Q2957.66 1459.7 2957.66 1450.97 Q2957.66 1442.22 2960.72 1437.64 Q2963.8 1433.03 2969.61 1433.03 Z" fill="#000000" fill-rule="nonzero" fill-opacity="1" /><path clip-path="url(#clip590)" d="M3342.13 1467.5 L3342.13 1463.24 Q3343.89 1464.08 3345.69 1464.52 Q3347.5 1464.96 3349.23 1464.96 Q3353.86 1464.96 3356.29 1461.85 Q3358.75 1458.73 3359.1 1452.39 Q3357.75 1454.38 3355.69 1455.44 Q3353.63 1456.51 3351.13 1456.51 Q3345.95 1456.51 3342.92 1453.38 Q3339.91 1450.23 3339.91 1444.79 Q3339.91 1439.47 3343.05 1436.25 Q3346.2 1433.03 3351.43 1433.03 Q3357.43 1433.03 3360.58 1437.64 Q3363.75 1442.22 3363.75 1450.97 Q3363.75 1459.15 3359.86 1464.03 Q3355.99 1468.89 3349.44 1468.89 Q3347.68 1468.89 3345.88 1468.54 Q3344.07 1468.2 3342.13 1467.5 M3351.43 1452.85 Q3354.58 1452.85 3356.41 1450.7 Q3358.26 1448.54 3358.26 1444.79 Q3358.26 1441.07 3356.41 1438.91 Q3354.58 1436.74 3351.43 1436.74 Q3348.29 1436.74 3346.43 1438.91 Q3344.61 1441.07 3344.61 1444.79 Q3344.61 1448.54 3346.43 1450.7 Q3348.29 1452.85 3351.43 1452.85 Z" fill="#000000" fill-rule="nonzero" fill-opacity="1" /><path clip-path="url(#clip590)" d="M3382.15 1436.74 Q3378.54 1436.74 3376.71 1440.3 Q3374.91 1443.84 3374.91 1450.97 Q3374.91 1458.08 3376.71 1461.65 Q3378.54 1465.19 3382.15 1465.19 Q3385.79 1465.19 3387.59 1461.65 Q3389.42 1458.08 3389.42 1450.97 Q3389.42 1443.84 3387.59 1440.3 Q3385.79 1436.74 3382.15 1436.74 M3382.15 1433.03 Q3387.96 1433.03 3391.02 1437.64 Q3394.1 1442.22 3394.1 1450.97 Q3394.1 1459.7 3391.02 1464.31 Q3387.96 1468.89 3382.15 1468.89 Q3376.34 1468.89 3373.26 1464.31 Q3370.21 1459.7 3370.21 1450.97 Q3370.21 1442.22 3373.26 1437.64 Q3376.34 1433.03 3382.15 1433.03 Z" fill="#000000" fill-rule="nonzero" fill-opacity="1" /><path clip-path="url(#clip590)" d="M3739.04 1464.28 L3746.67 1464.28 L3746.67 1437.92 L3738.36 1439.59 L3738.36 1435.33 L3746.63 1433.66 L3751.3 1433.66 L3751.3 1464.28 L3758.94 1464.28 L3758.94 1468.22 L3739.04 1468.22 L3739.04 1464.28 Z" fill="#000000" fill-rule="nonzero" fill-opacity="1" /><path clip-path="url(#clip590)" d="M3778.39 1436.74 Q3774.78 1436.74 3772.95 1440.3 Q3771.14 1443.84 3771.14 1450.97 Q3771.14 1458.08 3772.95 1461.65 Q3774.78 1465.19 3778.39 1465.19 Q3782.02 1465.19 3783.83 1461.65 Q3785.66 1458.08 3785.66 1450.97 Q3785.66 1443.84 3783.83 1440.3 Q3782.02 1436.74 3778.39 1436.74 M3778.39 1433.03 Q3784.2 1433.03 3787.25 1437.64 Q3790.33 1442.22 3790.33 1450.97 Q3790.33 1459.7 3787.25 1464.31 Q3784.2 1468.89 3778.39 1468.89 Q3772.58 1468.89 3769.5 1464.31 Q3766.44 1459.7 3766.44 1450.97 Q3766.44 1442.22 3769.5 1437.64 Q3772.58 1433.03 3778.39 1433.03 Z" fill="#000000" fill-rule="nonzero" fill-opacity="1" /><path clip-path="url(#clip590)" d="M3808.55 1436.74 Q3804.94 1436.74 3803.11 1440.3 Q3801.3 1443.84 3801.3 1450.97 Q3801.3 1458.08 3803.11 1461.65 Q3804.94 1465.19 3808.55 1465.19 Q3812.18 1465.19 3813.99 1461.65 Q3815.82 1458.08 3815.82 1450.97 Q3815.82 1443.84 3813.99 1440.3 Q3812.18 1436.74 3808.55 1436.74 M3808.55 1433.03 Q3814.36 1433.03 3817.41 1437.64 Q3820.49 1442.22 3820.49 1450.97 Q3820.49 1459.7 3817.41 1464.31 Q3814.36 1468.89 3808.55 1468.89 Q3802.74 1468.89 3799.66 1464.31 Q3796.6 1459.7 3796.6 1450.97 Q3796.6 1442.22 3799.66 1437.64 Q3802.74 1433.03 3808.55 1433.03 Z" fill="#000000" fill-rule="nonzero" fill-opacity="1" /><path clip-path="url(#clip590)" d="M2960.73 1556.54 L2960.73 1575.44 L2954.84 1575.44 L2954.84 1526.24 L2960.73 1526.24 L2960.73 1531.65 Q2962.58 1528.46 2965.38 1526.94 Q2968.21 1525.38 2972.12 1525.38 Q2978.62 1525.38 2982.66 1530.53 Q2986.73 1535.69 2986.73 1544.09 Q2986.73 1552.49 2982.66 1557.65 Q2978.62 1562.81 2972.12 1562.81 Q2968.21 1562.81 2965.38 1561.28 Q2962.58 1559.72 2960.73 1556.54 M2980.65 1544.09 Q2980.65 1537.63 2977.98 1533.97 Q2975.34 1530.28 2970.69 1530.28 Q2966.04 1530.28 2963.37 1533.97 Q2960.73 1537.63 2960.73 1544.09 Q2960.73 1550.55 2963.37 1554.24 Q2966.04 1557.91 2970.69 1557.91 Q2975.34 1557.91 2977.98 1554.24 Q2980.65 1550.55 2980.65 1544.09 Z" fill="#000000" fill-rule="nonzero" fill-opacity="1" /><path clip-path="url(#clip590)" d="M3031.23 1512.42 Q3026.96 1519.74 3024.9 1526.9 Q3022.83 1534.07 3022.83 1541.42 Q3022.83 1548.77 3024.9 1556 Q3027 1563.19 3031.23 1570.48 L3026.14 1570.48 Q3021.36 1563 3018.98 1555.77 Q3016.62 1548.55 3016.62 1541.42 Q3016.62 1534.32 3018.98 1527.13 Q3021.33 1519.93 3026.14 1512.42 L3031.23 1512.42 Z" fill="#000000" fill-rule="nonzero" fill-opacity="1" /><path clip-path="url(#clip590)" d="M3042.37 1512.36 L3048.26 1512.36 L3048.26 1541.61 L3065.73 1526.24 L3073.21 1526.24 L3054.31 1542.91 L3074.01 1561.88 L3066.37 1561.88 L3048.26 1544.47 L3048.26 1561.88 L3042.37 1561.88 L3042.37 1512.36 Z" fill="#000000" fill-rule="nonzero" fill-opacity="1" /><path clip-path="url(#clip590)" d="M3087.02 1519.65 L3087.02 1537.5 L3095.11 1537.5 Q3099.6 1537.5 3102.05 1535.18 Q3104.5 1532.86 3104.5 1528.56 Q3104.5 1524.29 3102.05 1521.97 Q3099.6 1519.65 3095.11 1519.65 L3087.02 1519.65 M3080.6 1514.36 L3095.11 1514.36 Q3103.1 1514.36 3107.17 1517.99 Q3111.28 1521.59 3111.28 1528.56 Q3111.28 1535.59 3107.17 1539.19 Q3103.1 1542.79 3095.11 1542.79 L3087.02 1542.79 L3087.02 1561.88 L3080.6 1561.88 L3080.6 1514.36 Z" fill="#000000" fill-rule="nonzero" fill-opacity="1" /><path clip-path="url(#clip590)" d="M3132.92 1543.96 Q3125.82 1543.96 3123.09 1545.59 Q3120.35 1547.21 3120.35 1551.13 Q3120.35 1554.24 3122.39 1556.09 Q3124.46 1557.91 3127.99 1557.91 Q3132.86 1557.91 3135.79 1554.47 Q3138.75 1551 3138.75 1545.27 L3138.75 1543.96 L3132.92 1543.96 M3144.6 1541.55 L3144.6 1561.88 L3138.75 1561.88 L3138.75 1556.47 Q3136.74 1559.72 3133.75 1561.28 Q3130.76 1562.81 3126.43 1562.81 Q3120.95 1562.81 3117.71 1559.75 Q3114.49 1556.66 3114.49 1551.51 Q3114.49 1545.49 3118.5 1542.44 Q3122.55 1539.38 3130.53 1539.38 L3138.75 1539.38 L3138.75 1538.81 Q3138.75 1534.77 3136.07 1532.57 Q3133.43 1530.34 3128.62 1530.34 Q3125.57 1530.34 3122.67 1531.07 Q3119.78 1531.81 3117.1 1533.27 L3117.1 1527.86 Q3120.32 1526.62 3123.34 1526.01 Q3126.37 1525.38 3129.23 1525.38 Q3136.96 1525.38 3140.78 1529.39 Q3144.6 1533.4 3144.6 1541.55 Z" fill="#000000" fill-rule="nonzero" fill-opacity="1" /><path clip-path="url(#clip590)" d="M3155.74 1512.42 L3160.84 1512.42 Q3165.61 1519.93 3167.96 1527.13 Q3170.35 1534.32 3170.35 1541.42 Q3170.35 1548.55 3167.96 1555.77 Q3165.61 1563 3160.84 1570.48 L3155.74 1570.48 Q3159.98 1563.19 3162.04 1556 Q3164.15 1548.77 3164.15 1541.42 Q3164.15 1534.07 3162.04 1526.9 Q3159.98 1519.74 3155.74 1512.42 Z" fill="#000000" fill-rule="nonzero" fill-opacity="1" /><polyline clip-path="url(#clip590)" style="stroke:#000000; stroke-linecap:round; stroke-linejoin:round; stroke-width:4; stroke-opacity:1; fill:none" points="2235.43,1393.02 2235.43,162.272 "/>
<polyline clip-path="url(#clip590)" style="stroke:#000000; stroke-linecap:round; stroke-linejoin:round; stroke-width:4; stroke-opacity:1; fill:none" points="2235.43,1358.19 2254.33,1358.19 "/>
<polyline clip-path="url(#clip590)" style="stroke:#000000; stroke-linecap:round; stroke-linejoin:round; stroke-width:4; stroke-opacity:1; fill:none" points="2235.43,1067.92 2254.33,1067.92 "/>
<polyline clip-path="url(#clip590)" style="stroke:#000000; stroke-linecap:round; stroke-linejoin:round; stroke-width:4; stroke-opacity:1; fill:none" points="2235.43,777.646 2254.33,777.646 "/>
<polyline clip-path="url(#clip590)" style="stroke:#000000; stroke-linecap:round; stroke-linejoin:round; stroke-width:4; stroke-opacity:1; fill:none" points="2235.43,487.375 2254.33,487.375 "/>
<polyline clip-path="url(#clip590)" style="stroke:#000000; stroke-linecap:round; stroke-linejoin:round; stroke-width:4; stroke-opacity:1; fill:none" points="2235.43,197.105 2254.33,197.105 "/>
<path clip-path="url(#clip590)" d="M2163.48 1343.99 Q2159.87 1343.99 2158.05 1347.55 Q2156.24 1351.09 2156.24 1358.22 Q2156.24 1365.33 2158.05 1368.89 Q2159.87 1372.43 2163.48 1372.43 Q2167.12 1372.43 2168.92 1368.89 Q2170.75 1365.33 2170.75 1358.22 Q2170.75 1351.09 2168.92 1347.55 Q2167.12 1343.99 2163.48 1343.99 M2163.48 1340.28 Q2169.3 1340.28 2172.35 1344.89 Q2175.43 1349.47 2175.43 1358.22 Q2175.43 1366.95 2172.35 1371.56 Q2169.3 1376.14 2163.48 1376.14 Q2157.67 1376.14 2154.6 1371.56 Q2151.54 1366.95 2151.54 1358.22 Q2151.54 1349.47 2154.6 1344.89 Q2157.67 1340.28 2163.48 1340.28 Z" fill="#000000" fill-rule="nonzero" fill-opacity="1" /><path clip-path="url(#clip590)" d="M2155.52 1081.26 L2163.16 1081.26 L2163.16 1054.9 L2154.85 1056.56 L2154.85 1052.3 L2163.11 1050.64 L2167.79 1050.64 L2167.79 1081.26 L2175.43 1081.26 L2175.43 1085.2 L2155.52 1085.2 L2155.52 1081.26 Z" fill="#000000" fill-rule="nonzero" fill-opacity="1" /><path clip-path="url(#clip590)" d="M2159.11 790.991 L2175.43 790.991 L2175.43 794.926 L2153.49 794.926 L2153.49 790.991 Q2156.15 788.236 2160.73 783.607 Q2165.34 778.954 2166.52 777.611 Q2168.76 775.088 2169.64 773.352 Q2170.55 771.593 2170.55 769.903 Q2170.55 767.148 2168.6 765.412 Q2166.68 763.676 2163.58 763.676 Q2161.38 763.676 2158.92 764.44 Q2156.49 765.204 2153.72 766.755 L2153.72 762.033 Q2156.54 760.898 2158.99 760.32 Q2161.45 759.741 2163.48 759.741 Q2168.86 759.741 2172.05 762.426 Q2175.24 765.111 2175.24 769.602 Q2175.24 771.732 2174.43 773.653 Q2173.65 775.551 2171.54 778.144 Q2170.96 778.815 2167.86 782.033 Q2164.76 785.227 2159.11 790.991 Z" fill="#000000" fill-rule="nonzero" fill-opacity="1" /><path clip-path="url(#clip590)" d="M2168.3 486.021 Q2171.66 486.739 2173.53 489.007 Q2175.43 491.276 2175.43 494.609 Q2175.43 499.725 2171.91 502.526 Q2168.39 505.327 2161.91 505.327 Q2159.73 505.327 2157.42 504.887 Q2155.13 504.47 2152.67 503.614 L2152.67 499.1 Q2154.62 500.234 2156.93 500.813 Q2159.25 501.391 2161.77 501.391 Q2166.17 501.391 2168.46 499.655 Q2170.78 497.919 2170.78 494.609 Q2170.78 491.554 2168.62 489.841 Q2166.49 488.105 2162.67 488.105 L2158.65 488.105 L2158.65 484.262 L2162.86 484.262 Q2166.31 484.262 2168.14 482.896 Q2169.97 481.507 2169.97 478.915 Q2169.97 476.253 2168.07 474.841 Q2166.19 473.406 2162.67 473.406 Q2160.75 473.406 2158.55 473.822 Q2156.36 474.239 2153.72 475.118 L2153.72 470.952 Q2156.38 470.211 2158.69 469.841 Q2161.03 469.47 2163.09 469.47 Q2168.42 469.47 2171.52 471.901 Q2174.62 474.308 2174.62 478.429 Q2174.62 481.299 2172.98 483.29 Q2171.33 485.257 2168.3 486.021 Z" fill="#000000" fill-rule="nonzero" fill-opacity="1" /><path clip-path="url(#clip590)" d="M2165.85 183.899 L2154.04 202.348 L2165.85 202.348 L2165.85 183.899 M2164.62 179.825 L2170.5 179.825 L2170.5 202.348 L2175.43 202.348 L2175.43 206.237 L2170.5 206.237 L2170.5 214.385 L2165.85 214.385 L2165.85 206.237 L2150.24 206.237 L2150.24 201.723 L2164.62 179.825 Z" fill="#000000" fill-rule="nonzero" fill-opacity="1" /><path clip-path="url(#clip590)" d="M2040.34 876.171 L2040.34 848.353 L2045.69 848.353 L2071.31 870.378 L2071.31 848.353 L2075.99 848.353 L2075.99 876.967 L2070.64 876.967 L2045.02 854.942 L2045.02 876.171 L2040.34 876.171 Z" fill="#000000" fill-rule="nonzero" fill-opacity="1" /><path clip-path="url(#clip590)" d="M2026.53 804.621 Q2033.85 808.886 2041.01 810.955 Q2048.17 813.023 2055.52 813.023 Q2062.87 813.023 2070.1 810.955 Q2077.29 808.854 2084.58 804.621 L2084.58 809.713 Q2077.1 814.488 2069.88 816.875 Q2062.65 819.23 2055.52 819.23 Q2048.42 819.23 2041.23 816.875 Q2034.04 814.519 2026.53 809.713 L2026.53 804.621 Z" fill="#000000" fill-rule="nonzero" fill-opacity="1" /><path clip-path="url(#clip590)" d="M2026.46 793.481 L2026.46 787.592 L2055.71 787.592 L2040.34 770.119 L2040.34 762.639 L2057.02 781.545 L2075.99 761.843 L2075.99 769.482 L2058.58 787.592 L2075.99 787.592 L2075.99 793.481 L2026.46 793.481 Z" fill="#000000" fill-rule="nonzero" fill-opacity="1" /><path clip-path="url(#clip590)" d="M2047.18 727.755 Q2043.24 725.559 2041.36 722.503 Q2039.48 719.448 2039.48 715.31 Q2039.48 709.74 2043.4 706.716 Q2047.28 703.692 2054.47 703.692 L2075.99 703.692 L2075.99 709.581 L2054.66 709.581 Q2049.54 709.581 2047.06 711.395 Q2044.57 713.209 2044.57 716.933 Q2044.57 721.485 2047.6 724.126 Q2050.62 726.768 2055.84 726.768 L2075.99 726.768 L2075.99 732.656 L2054.66 732.656 Q2049.51 732.656 2047.06 734.471 Q2044.57 736.285 2044.57 740.072 Q2044.57 744.56 2047.63 747.202 Q2050.65 749.844 2055.84 749.844 L2075.99 749.844 L2075.99 755.732 L2040.34 755.732 L2040.34 749.844 L2045.88 749.844 Q2042.6 747.839 2041.04 745.038 Q2039.48 742.237 2039.48 738.385 Q2039.48 734.502 2041.45 731.797 Q2043.43 729.06 2047.18 727.755 Z" fill="#000000" fill-rule="nonzero" fill-opacity="1" /><path clip-path="url(#clip590)" d="M2026.53 692.934 L2026.53 687.842 Q2034.04 683.067 2041.23 680.712 Q2048.42 678.325 2055.52 678.325 Q2062.65 678.325 2069.88 680.712 Q2077.1 683.067 2084.58 687.842 L2084.58 692.934 Q2077.29 688.701 2070.1 686.632 Q2062.87 684.532 2055.52 684.532 Q2048.17 684.532 2041.01 686.632 Q2033.85 688.701 2026.53 692.934 Z" fill="#000000" fill-rule="nonzero" fill-opacity="1" /><path clip-path="url(#clip590)" d="M2932.95 65.7705 L2932.95 89.8329 L2925.45 89.8329 L2925.45 27.2059 L2932.95 27.2059 L2932.95 34.0924 Q2935.3 30.0415 2938.86 28.0971 Q2942.47 26.1121 2947.45 26.1121 Q2955.71 26.1121 2960.86 32.6746 Q2966.04 39.2371 2966.04 49.9314 Q2966.04 60.6258 2960.86 67.1883 Q2955.71 73.7508 2947.45 73.7508 Q2942.47 73.7508 2938.86 71.8063 Q2935.3 69.8214 2932.95 65.7705 M2958.31 49.9314 Q2958.31 41.7081 2954.9 37.0496 Q2951.54 32.3505 2945.63 32.3505 Q2939.71 32.3505 2936.31 37.0496 Q2932.95 41.7081 2932.95 49.9314 Q2932.95 58.1548 2936.31 62.8538 Q2939.71 67.5124 2945.63 67.5124 Q2951.54 67.5124 2954.9 62.8538 Q2958.31 58.1548 2958.31 49.9314 Z" fill="#000000" fill-rule="nonzero" fill-opacity="1" /><path clip-path="url(#clip590)" d="M3022.67 9.62495 Q3017.25 18.942 3014.61 28.0566 Q3011.98 37.1711 3011.98 46.5287 Q3011.98 55.8863 3014.61 65.0818 Q3017.29 74.2369 3022.67 83.5134 L3016.19 83.5134 Q3010.12 73.9938 3007.08 64.7983 Q3004.08 55.6027 3004.08 46.5287 Q3004.08 37.4952 3007.08 28.3401 Q3010.08 19.1851 3016.19 9.62495 L3022.67 9.62495 Z" fill="#000000" fill-rule="nonzero" fill-opacity="1" /><path clip-path="url(#clip590)" d="M3036.85 9.54393 L3044.35 9.54393 L3044.35 46.7717 L3066.59 27.2059 L3076.11 27.2059 L3052.04 48.4326 L3077.12 72.576 L3067.4 72.576 L3044.35 50.4176 L3044.35 72.576 L3036.85 72.576 L3036.85 9.54393 Z" fill="#000000" fill-rule="nonzero" fill-opacity="1" /><path clip-path="url(#clip590)" d="M3093.69 18.8205 L3093.69 41.5461 L3103.98 41.5461 Q3109.69 41.5461 3112.81 38.5889 Q3115.93 35.6318 3115.93 30.163 Q3115.93 24.7348 3112.81 21.7777 Q3109.69 18.8205 3103.98 18.8205 L3093.69 18.8205 M3085.5 12.096 L3103.98 12.096 Q3114.14 12.096 3119.33 16.714 Q3124.56 21.2916 3124.56 30.163 Q3124.56 39.1155 3119.33 43.6931 Q3114.14 48.2706 3103.98 48.2706 L3093.69 48.2706 L3093.69 72.576 L3085.5 72.576 L3085.5 12.096 Z" fill="#000000" fill-rule="nonzero" fill-opacity="1" /><path clip-path="url(#clip590)" d="M3152.1 49.7694 Q3143.07 49.7694 3139.58 51.8354 Q3136.1 53.9013 3136.1 58.8839 Q3136.1 62.8538 3138.69 65.2034 Q3141.33 67.5124 3145.82 67.5124 Q3152.02 67.5124 3155.75 63.1374 Q3159.51 58.7219 3159.51 51.4303 L3159.51 49.7694 L3152.1 49.7694 M3166.97 46.6907 L3166.97 72.576 L3159.51 72.576 L3159.51 65.6895 Q3156.96 69.8214 3153.15 71.8063 Q3149.35 73.7508 3143.84 73.7508 Q3136.87 73.7508 3132.74 69.8619 Q3128.65 65.9325 3128.65 59.3701 Q3128.65 51.7138 3133.75 47.825 Q3138.9 43.9361 3149.06 43.9361 L3159.51 43.9361 L3159.51 43.2069 Q3159.51 38.0623 3156.11 35.2672 Q3152.75 32.4315 3146.63 32.4315 Q3142.74 32.4315 3139.06 33.3632 Q3135.37 34.295 3131.97 36.1584 L3131.97 29.2718 Q3136.06 27.692 3139.91 26.9223 Q3143.76 26.1121 3147.4 26.1121 Q3157.25 26.1121 3162.11 31.2163 Q3166.97 36.3204 3166.97 46.6907 Z" fill="#000000" fill-rule="nonzero" fill-opacity="1" /><path clip-path="url(#clip590)" d="M3181.15 9.62495 L3187.63 9.62495 Q3193.7 19.1851 3196.7 28.3401 Q3199.74 37.4952 3199.74 46.5287 Q3199.74 55.6027 3196.7 64.7983 Q3193.7 73.9938 3187.63 83.5134 L3181.15 83.5134 Q3186.53 74.2369 3189.17 65.0818 Q3191.84 55.8863 3191.84 46.5287 Q3191.84 37.1711 3189.17 28.0566 Q3186.53 18.942 3181.15 9.62495 Z" fill="#000000" fill-rule="nonzero" fill-opacity="1" /><polyline clip-path="url(#clip593)" style="stroke:#009af9; stroke-linecap:round; stroke-linejoin:round; stroke-width:4; stroke-opacity:1; fill:none" points="3831.17,1350.93 3807.71,1336.42 3784.36,1321.9 3761.12,1307.39 3737.99,1292.88 3714.97,1278.36 3692.07,1263.85 3669.27,1249.34 3646.59,1234.82 3624.01,1220.31 3601.54,1205.8 3579.18,1191.28 3556.93,1176.77 3534.79,1162.25 3512.75,1147.74 3490.82,1133.23 3469,1118.71 3447.28,1104.2 3425.67,1089.69 3404.16,1075.17 3382.76,1060.66 3361.46,1046.15 3340.26,1031.63 3319.17,1017.12 3298.18,1002.61 3277.29,988.092 3256.5,973.579 3235.82,959.065 3215.24,944.552 3194.76,930.038 3174.37,915.525 3154.09,901.011 3133.91,886.497 3113.82,871.984 3093.84,857.47 3073.95,842.957 3054.16,828.443 3034.47,813.93 3014.88,799.416 2995.38,784.903 2975.98,770.389 2956.67,755.876 2937.46,741.362 2918.34,726.849 2899.32,712.335 2880.4,697.822 2861.56,683.308 2842.82,668.794 2824.18,654.281 2805.62,639.767 2787.16,625.254 2768.79,610.74 2750.51,596.227 2732.33,581.713 2714.23,567.2 2696.22,552.686 2678.31,538.173 2660.48,523.659 2642.74,509.146 2625.09,494.632 2607.53,480.119 2590.06,465.605 2572.68,451.092 2555.38,436.578 2538.17,422.064 2521.05,407.551 2504.01,393.037 2487.06,378.524 2470.19,364.01 2453.41,349.497 2436.71,334.983 2420.1,320.47 2403.57,305.956 2387.13,291.443 2370.77,276.929 2354.49,262.416 2338.29,247.902 2322.18,233.389 2306.15,218.875 2290.19,204.361 "/>
<polyline clip-path="url(#clip593)" style="stroke:#e26f46; stroke-linecap:round; stroke-linejoin:round; stroke-width:4; stroke-opacity:1; fill:none" points="3842.94,1358.19 3819.42,1343.67 3796.02,1329.16 3772.72,1314.65 3749.54,1300.13 3726.47,1285.62 3703.51,1271.11 3680.66,1256.59 3657.92,1242.08 3635.29,1227.57 3612.76,1213.05 3590.35,1198.54 3568.05,1184.02 3545.85,1169.51 3523.76,1155 3501.77,1140.48 3479.9,1125.97 3458.13,1111.46 3436.46,1096.94 3414.9,1082.43 3393.44,1067.92 3372.09,1053.4 3350.85,1038.89 3329.7,1024.38 3308.66,1009.86 3287.72,995.349 3266.88,980.835 3246.15,966.322 3225.52,951.808 3204.98,937.295 3184.55,922.781 3164.22,908.268 3143.99,893.754 3123.85,879.241 3103.82,864.727 3083.88,850.214 3064.05,835.7 3044.31,821.187 3024.66,806.673 3005.12,792.16 2985.67,777.646 2966.31,763.132 2947.05,748.619 2927.89,734.105 2908.82,719.592 2889.85,705.078 2870.97,690.565 2852.18,676.051 2833.49,661.538 2814.89,647.024 2796.38,632.511 2777.97,617.997 2759.64,603.484 2741.41,588.97 2723.27,574.457 2705.22,559.943 2687.25,545.429 2669.38,530.916 2651.6,516.402 2633.91,501.889 2616.3,487.375 2598.79,472.862 2581.36,458.348 2564.02,443.835 2546.76,429.321 2529.6,414.808 2512.52,400.294 2495.52,385.781 2478.61,371.267 2461.79,356.754 2445.05,342.24 2428.4,327.727 2411.82,313.213 2395.34,298.699 2378.94,284.186 2362.62,269.672 2346.38,255.159 2330.22,240.645 2314.15,226.132 2298.16,211.618 2282.25,197.105 "/>
<path clip-path="url(#clip590)" d="M3496.9 358.817 L3834.62 358.817 L3834.62 203.297 L3496.9 203.297  Z" fill="#ffffff" fill-rule="evenodd" fill-opacity="1"/>
<polyline clip-path="url(#clip590)" style="stroke:#000000; stroke-linecap:round; stroke-linejoin:round; stroke-width:4; stroke-opacity:1; fill:none" points="3496.9,358.817 3834.62,358.817 3834.62,203.297 3496.9,203.297 3496.9,358.817 "/>
<polyline clip-path="url(#clip590)" style="stroke:#009af9; stroke-linecap:round; stroke-linejoin:round; stroke-width:4; stroke-opacity:1; fill:none" points="3515.28,255.137 3625.57,255.137 "/>
<path clip-path="url(#clip590)" d="M3664.46 247.487 L3664.46 251.468 Q3662.65 250.473 3660.82 249.987 Q3659.02 249.477 3657.16 249.477 Q3653.02 249.477 3650.73 252.116 Q3648.44 254.732 3648.44 259.477 Q3648.44 264.223 3650.73 266.862 Q3653.02 269.477 3657.16 269.477 Q3659.02 269.477 3660.82 268.991 Q3662.65 268.482 3664.46 267.487 L3664.46 271.422 Q3662.67 272.255 3660.75 272.672 Q3658.85 273.088 3656.7 273.088 Q3650.85 273.088 3647.4 269.408 Q3643.95 265.727 3643.95 259.477 Q3643.95 253.135 3647.42 249.501 Q3650.91 245.866 3656.98 245.866 Q3658.95 245.866 3660.82 246.283 Q3662.7 246.677 3664.46 247.487 Z" fill="#000000" fill-rule="nonzero" fill-opacity="1" /><path clip-path="url(#clip590)" d="M3694.04 258.389 L3694.04 260.473 L3674.46 260.473 Q3674.73 264.871 3677.1 267.186 Q3679.48 269.477 3683.72 269.477 Q3686.17 269.477 3688.46 268.876 Q3690.78 268.274 3693.04 267.07 L3693.04 271.098 Q3690.75 272.07 3688.34 272.579 Q3685.94 273.088 3683.46 273.088 Q3677.26 273.088 3673.62 269.477 Q3670.01 265.866 3670.01 259.709 Q3670.01 253.343 3673.44 249.616 Q3676.89 245.866 3682.72 245.866 Q3687.95 245.866 3690.98 249.246 Q3694.04 252.602 3694.04 258.389 M3689.78 257.139 Q3689.73 253.644 3687.81 251.561 Q3685.91 249.477 3682.77 249.477 Q3679.2 249.477 3677.05 251.491 Q3674.92 253.505 3674.6 257.163 L3689.78 257.139 Z" fill="#000000" fill-rule="nonzero" fill-opacity="1" /><path clip-path="url(#clip590)" d="M3722.58 256.769 L3722.58 272.417 L3718.32 272.417 L3718.32 256.908 Q3718.32 253.227 3716.89 251.399 Q3715.45 249.57 3712.58 249.57 Q3709.13 249.57 3707.14 251.769 Q3705.15 253.968 3705.15 257.764 L3705.15 272.417 L3700.87 272.417 L3700.87 246.491 L3705.15 246.491 L3705.15 250.519 Q3706.68 248.181 3708.74 247.024 Q3710.82 245.866 3713.53 245.866 Q3718 245.866 3720.29 248.644 Q3722.58 251.399 3722.58 256.769 Z" fill="#000000" fill-rule="nonzero" fill-opacity="1" /><path clip-path="url(#clip590)" d="M3735.29 239.13 L3735.29 246.491 L3744.06 246.491 L3744.06 249.802 L3735.29 249.802 L3735.29 263.876 Q3735.29 267.047 3736.15 267.95 Q3737.03 268.852 3739.69 268.852 L3744.06 268.852 L3744.06 272.417 L3739.69 272.417 Q3734.76 272.417 3732.88 270.588 Q3731.01 268.737 3731.01 263.876 L3731.01 249.802 L3727.88 249.802 L3727.88 246.491 L3731.01 246.491 L3731.01 239.13 L3735.29 239.13 Z" fill="#000000" fill-rule="nonzero" fill-opacity="1" /><path clip-path="url(#clip590)" d="M3771.84 258.389 L3771.84 260.473 L3752.26 260.473 Q3752.53 264.871 3754.9 267.186 Q3757.28 269.477 3761.52 269.477 Q3763.97 269.477 3766.26 268.876 Q3768.58 268.274 3770.84 267.07 L3770.84 271.098 Q3768.55 272.07 3766.15 272.579 Q3763.74 273.088 3761.26 273.088 Q3755.06 273.088 3751.42 269.477 Q3747.81 265.866 3747.81 259.709 Q3747.81 253.343 3751.24 249.616 Q3754.69 245.866 3760.52 245.866 Q3765.75 245.866 3768.78 249.246 Q3771.84 252.602 3771.84 258.389 M3767.58 257.139 Q3767.53 253.644 3765.61 251.561 Q3763.71 249.477 3760.57 249.477 Q3757 249.477 3754.85 251.491 Q3752.72 253.505 3752.4 257.163 L3767.58 257.139 Z" fill="#000000" fill-rule="nonzero" fill-opacity="1" /><path clip-path="url(#clip590)" d="M3793.85 250.473 Q3793.14 250.056 3792.28 249.871 Q3791.45 249.663 3790.43 249.663 Q3786.82 249.663 3784.87 252.024 Q3782.95 254.362 3782.95 258.76 L3782.95 272.417 L3778.67 272.417 L3778.67 246.491 L3782.95 246.491 L3782.95 250.519 Q3784.29 248.158 3786.45 247.024 Q3788.6 245.866 3791.68 245.866 Q3792.12 245.866 3792.65 245.936 Q3793.18 245.982 3793.83 246.098 L3793.85 250.473 Z" fill="#000000" fill-rule="nonzero" fill-opacity="1" /><path clip-path="url(#clip590)" d="M3814.85 247.255 L3814.85 251.283 Q3813.04 250.357 3811.1 249.894 Q3809.15 249.431 3807.07 249.431 Q3803.9 249.431 3802.3 250.403 Q3800.73 251.376 3800.73 253.32 Q3800.73 254.802 3801.86 255.658 Q3803 256.491 3806.42 257.255 L3807.88 257.579 Q3812.42 258.552 3814.32 260.334 Q3816.24 262.093 3816.24 265.264 Q3816.24 268.876 3813.37 270.982 Q3810.52 273.088 3805.52 273.088 Q3803.44 273.088 3801.17 272.672 Q3798.92 272.278 3796.42 271.468 L3796.42 267.07 Q3798.78 268.297 3801.08 268.922 Q3803.37 269.524 3805.61 269.524 Q3808.62 269.524 3810.24 268.505 Q3811.86 267.463 3811.86 265.589 Q3811.86 263.852 3810.68 262.926 Q3809.52 262.001 3805.57 261.144 L3804.09 260.797 Q3800.13 259.964 3798.37 258.251 Q3796.61 256.514 3796.61 253.505 Q3796.61 249.848 3799.2 247.857 Q3801.79 245.866 3806.56 245.866 Q3808.92 245.866 3811.01 246.214 Q3813.09 246.561 3814.85 247.255 Z" fill="#000000" fill-rule="nonzero" fill-opacity="1" /><polyline clip-path="url(#clip590)" style="stroke:#e26f46; stroke-linecap:round; stroke-linejoin:round; stroke-width:4; stroke-opacity:1; fill:none" points="3515.28,306.977 3625.57,306.977 "/>
<path clip-path="url(#clip590)" d="M3660.45 288.239 L3660.45 291.78 L3656.38 291.78 Q3654.09 291.78 3653.18 292.706 Q3652.3 293.632 3652.3 296.04 L3652.3 298.331 L3659.32 298.331 L3659.32 301.642 L3652.3 301.642 L3652.3 324.257 L3648.02 324.257 L3648.02 301.642 L3643.95 301.642 L3643.95 298.331 L3648.02 298.331 L3648.02 296.526 Q3648.02 292.197 3650.03 290.23 Q3652.05 288.239 3656.42 288.239 L3660.45 288.239 Z" fill="#000000" fill-rule="nonzero" fill-opacity="1" /><path clip-path="url(#clip590)" d="M3675.8 311.225 Q3670.64 311.225 3668.65 312.405 Q3666.66 313.586 3666.66 316.433 Q3666.66 318.702 3668.14 320.044 Q3669.64 321.364 3672.21 321.364 Q3675.75 321.364 3677.88 318.864 Q3680.03 316.341 3680.03 312.174 L3680.03 311.225 L3675.8 311.225 M3684.29 309.466 L3684.29 324.257 L3680.03 324.257 L3680.03 320.322 Q3678.58 322.683 3676.4 323.817 Q3674.22 324.928 3671.08 324.928 Q3667.1 324.928 3664.73 322.706 Q3662.4 320.461 3662.4 316.711 Q3662.4 312.336 3665.31 310.114 Q3668.25 307.892 3674.06 307.892 L3680.03 307.892 L3680.03 307.475 Q3680.03 304.535 3678.09 302.938 Q3676.17 301.317 3672.67 301.317 Q3670.45 301.317 3668.35 301.85 Q3666.24 302.382 3664.29 303.447 L3664.29 299.512 Q3666.63 298.609 3668.83 298.169 Q3671.03 297.706 3673.11 297.706 Q3678.74 297.706 3681.52 300.623 Q3684.29 303.54 3684.29 309.466 Z" fill="#000000" fill-rule="nonzero" fill-opacity="1" /><path clip-path="url(#clip590)" d="M3711.72 299.327 L3711.72 303.308 Q3709.92 302.313 3708.09 301.827 Q3706.28 301.317 3704.43 301.317 Q3700.29 301.317 3698 303.956 Q3695.71 306.572 3695.71 311.317 Q3695.71 316.063 3698 318.702 Q3700.29 321.317 3704.43 321.317 Q3706.28 321.317 3708.09 320.831 Q3709.92 320.322 3711.72 319.327 L3711.72 323.262 Q3709.94 324.095 3708.02 324.512 Q3706.12 324.928 3703.97 324.928 Q3698.11 324.928 3694.66 321.248 Q3691.22 317.567 3691.22 311.317 Q3691.22 304.975 3694.69 301.341 Q3698.18 297.706 3704.25 297.706 Q3706.22 297.706 3708.09 298.123 Q3709.97 298.517 3711.72 299.327 Z" fill="#000000" fill-rule="nonzero" fill-opacity="1" /><path clip-path="url(#clip590)" d="M3741.31 310.229 L3741.31 312.313 L3721.72 312.313 Q3722 316.711 3724.36 319.026 Q3726.75 321.317 3730.98 321.317 Q3733.44 321.317 3735.73 320.716 Q3738.04 320.114 3740.31 318.91 L3740.31 322.938 Q3738.02 323.91 3735.61 324.419 Q3733.21 324.928 3730.73 324.928 Q3724.53 324.928 3720.89 321.317 Q3717.28 317.706 3717.28 311.549 Q3717.28 305.183 3720.71 301.456 Q3724.15 297.706 3729.99 297.706 Q3735.22 297.706 3738.25 301.086 Q3741.31 304.442 3741.31 310.229 M3737.05 308.979 Q3737 305.484 3735.08 303.401 Q3733.18 301.317 3730.03 301.317 Q3726.47 301.317 3724.32 303.331 Q3722.19 305.345 3721.86 309.003 L3737.05 308.979 Z" fill="#000000" fill-rule="nonzero" fill-opacity="1" /><path clip-path="url(#clip590)" d="M3764.83 299.095 L3764.83 303.123 Q3763.02 302.197 3761.08 301.734 Q3759.13 301.271 3757.05 301.271 Q3753.88 301.271 3752.28 302.243 Q3750.71 303.216 3750.71 305.16 Q3750.71 306.642 3751.84 307.498 Q3752.97 308.331 3756.4 309.095 L3757.86 309.419 Q3762.4 310.392 3764.29 312.174 Q3766.21 313.933 3766.21 317.104 Q3766.21 320.716 3763.34 322.822 Q3760.5 324.928 3755.5 324.928 Q3753.41 324.928 3751.15 324.512 Q3748.9 324.118 3746.4 323.308 L3746.4 318.91 Q3748.76 320.137 3751.05 320.762 Q3753.34 321.364 3755.59 321.364 Q3758.6 321.364 3760.22 320.345 Q3761.84 319.303 3761.84 317.429 Q3761.84 315.692 3760.66 314.766 Q3759.5 313.841 3755.54 312.984 L3754.06 312.637 Q3750.1 311.804 3748.34 310.091 Q3746.59 308.354 3746.59 305.345 Q3746.59 301.688 3749.18 299.697 Q3751.77 297.706 3756.54 297.706 Q3758.9 297.706 3760.98 298.054 Q3763.07 298.401 3764.83 299.095 Z" fill="#000000" fill-rule="nonzero" fill-opacity="1" /></svg>
