<?xml version="1.0" encoding="utf-8"?>
<svg xmlns="http://www.w3.org/2000/svg" xmlns:xlink="http://www.w3.org/1999/xlink" width="1000" height="400" viewBox="0 0 4000 1600">
<defs>
  <clipPath id="clip460">
    <rect x="0" y="0" width="4000" height="1600"/>
  </clipPath>
</defs>
<path clip-path="url(#clip460)" d="
M0 1600 L4000 1600 L4000 0 L0 0  Z
  " fill="#ffffff" fill-rule="evenodd" fill-opacity="1"/>
<defs>
  <clipPath id="clip461">
    <rect x="800" y="0" width="2801" height="1600"/>
  </clipPath>
</defs>
<path clip-path="url(#clip460)" d="
M235.429 1393.02 L1223.1 1393.02 L1223.1 162.272 L235.429 162.272  Z
  " fill="#ffffff" fill-rule="evenodd" fill-opacity="1"/>
<defs>
  <clipPath id="clip462">
    <rect x="235" y="162" width="989" height="1232"/>
  </clipPath>
</defs>
<polyline clip-path="url(#clip462)" style="stroke:#000000; stroke-linecap:butt; stroke-linejoin:round; stroke-width:2; stroke-opacity:0.1; fill:none" points="
  436.952,1393.02 436.952,162.272 
  "/>
<polyline clip-path="url(#clip462)" style="stroke:#000000; stroke-linecap:butt; stroke-linejoin:round; stroke-width:2; stroke-opacity:0.1; fill:none" points="
  674.159,1393.02 674.159,162.272 
  "/>
<polyline clip-path="url(#clip462)" style="stroke:#000000; stroke-linecap:butt; stroke-linejoin:round; stroke-width:2; stroke-opacity:0.1; fill:none" points="
  911.366,1393.02 911.366,162.272 
  "/>
<polyline clip-path="url(#clip462)" style="stroke:#000000; stroke-linecap:butt; stroke-linejoin:round; stroke-width:2; stroke-opacity:0.1; fill:none" points="
  1148.57,1393.02 1148.57,162.272 
  "/>
<polyline clip-path="url(#clip460)" style="stroke:#000000; stroke-linecap:butt; stroke-linejoin:round; stroke-width:4; stroke-opacity:1; fill:none" points="
  235.429,1393.02 1223.1,1393.02 
  "/>
<polyline clip-path="url(#clip460)" style="stroke:#000000; stroke-linecap:butt; stroke-linejoin:round; stroke-width:4; stroke-opacity:1; fill:none" points="
  436.952,1393.02 436.952,1374.12 
  "/>
<polyline clip-path="url(#clip460)" style="stroke:#000000; stroke-linecap:butt; stroke-linejoin:round; stroke-width:4; stroke-opacity:1; fill:none" points="
  674.159,1393.02 674.159,1374.12 
  "/>
<polyline clip-path="url(#clip460)" style="stroke:#000000; stroke-linecap:butt; stroke-linejoin:round; stroke-width:4; stroke-opacity:1; fill:none" points="
  911.366,1393.02 911.366,1374.12 
  "/>
<polyline clip-path="url(#clip460)" style="stroke:#000000; stroke-linecap:butt; stroke-linejoin:round; stroke-width:4; stroke-opacity:1; fill:none" points="
  1148.57,1393.02 1148.57,1374.12 
  "/>
<path clip-path="url(#clip460)" d="M414.382 1436.74 Q410.771 1436.74 408.943 1440.3 Q407.137 1443.84 407.137 1450.97 Q407.137 1458.08 408.943 1461.65 Q410.771 1465.19 414.382 1465.19 Q418.017 1465.19 419.822 1461.65 Q421.651 1458.08 421.651 1450.97 Q421.651 1443.84 419.822 1440.3 Q418.017 1436.74 414.382 1436.74 M414.382 1433.03 Q420.192 1433.03 423.248 1437.64 Q426.327 1442.22 426.327 1450.97 Q426.327 1459.7 423.248 1464.31 Q420.192 1468.89 414.382 1468.89 Q408.572 1468.89 405.493 1464.31 Q402.438 1459.7 402.438 1450.97 Q402.438 1442.22 405.493 1437.64 Q408.572 1433.03 414.382 1433.03 Z" fill="#000000" fill-rule="evenodd" fill-opacity="1" /><path clip-path="url(#clip460)" d="M434.544 1462.34 L439.428 1462.34 L439.428 1468.22 L434.544 1468.22 L434.544 1462.34 Z" fill="#000000" fill-rule="evenodd" fill-opacity="1" /><path clip-path="url(#clip460)" d="M459.614 1451.81 Q456.28 1451.81 454.359 1453.59 Q452.461 1455.37 452.461 1458.5 Q452.461 1461.62 454.359 1463.4 Q456.28 1465.19 459.614 1465.19 Q462.947 1465.19 464.868 1463.4 Q466.789 1461.6 466.789 1458.5 Q466.789 1455.37 464.868 1453.59 Q462.97 1451.81 459.614 1451.81 M454.938 1449.82 Q451.928 1449.08 450.239 1447.02 Q448.572 1444.96 448.572 1441.99 Q448.572 1437.85 451.512 1435.44 Q454.475 1433.03 459.614 1433.03 Q464.776 1433.03 467.715 1435.44 Q470.655 1437.85 470.655 1441.99 Q470.655 1444.96 468.965 1447.02 Q467.299 1449.08 464.313 1449.82 Q467.692 1450.6 469.567 1452.9 Q471.465 1455.19 471.465 1458.5 Q471.465 1463.52 468.387 1466.21 Q465.331 1468.89 459.614 1468.89 Q453.896 1468.89 450.817 1466.21 Q447.762 1463.52 447.762 1458.5 Q447.762 1455.19 449.66 1452.9 Q451.558 1450.6 454.938 1449.82 M453.225 1442.43 Q453.225 1445.12 454.891 1446.62 Q456.581 1448.13 459.614 1448.13 Q462.623 1448.13 464.313 1446.62 Q466.026 1445.12 466.026 1442.43 Q466.026 1439.75 464.313 1438.24 Q462.623 1436.74 459.614 1436.74 Q456.581 1436.74 454.891 1438.24 Q453.225 1439.75 453.225 1442.43 Z" fill="#000000" fill-rule="evenodd" fill-opacity="1" /><path clip-path="url(#clip460)" d="M651.636 1436.74 Q648.025 1436.74 646.196 1440.3 Q644.39 1443.84 644.39 1450.97 Q644.39 1458.08 646.196 1461.65 Q648.025 1465.19 651.636 1465.19 Q655.27 1465.19 657.075 1461.65 Q658.904 1458.08 658.904 1450.97 Q658.904 1443.84 657.075 1440.3 Q655.27 1436.74 651.636 1436.74 M651.636 1433.03 Q657.446 1433.03 660.501 1437.64 Q663.58 1442.22 663.58 1450.97 Q663.58 1459.7 660.501 1464.31 Q657.446 1468.89 651.636 1468.89 Q645.826 1468.89 642.747 1464.31 Q639.691 1459.7 639.691 1450.97 Q639.691 1442.22 642.747 1437.64 Q645.826 1433.03 651.636 1433.03 Z" fill="#000000" fill-rule="evenodd" fill-opacity="1" /><path clip-path="url(#clip460)" d="M671.798 1462.34 L676.682 1462.34 L676.682 1468.22 L671.798 1468.22 L671.798 1462.34 Z" fill="#000000" fill-rule="evenodd" fill-opacity="1" /><path clip-path="url(#clip460)" d="M687.006 1467.5 L687.006 1463.24 Q688.765 1464.08 690.571 1464.52 Q692.376 1464.96 694.112 1464.96 Q698.742 1464.96 701.172 1461.85 Q703.626 1458.73 703.973 1452.39 Q702.631 1454.38 700.571 1455.44 Q698.51 1456.51 696.01 1456.51 Q690.825 1456.51 687.793 1453.38 Q684.784 1450.23 684.784 1444.79 Q684.784 1439.47 687.932 1436.25 Q691.08 1433.03 696.311 1433.03 Q702.307 1433.03 705.455 1437.64 Q708.626 1442.22 708.626 1450.97 Q708.626 1459.15 704.737 1464.03 Q700.872 1468.89 694.321 1468.89 Q692.561 1468.89 690.756 1468.54 Q688.95 1468.2 687.006 1467.5 M696.311 1452.85 Q699.459 1452.85 701.288 1450.7 Q703.14 1448.54 703.14 1444.79 Q703.14 1441.07 701.288 1438.91 Q699.459 1436.74 696.311 1436.74 Q693.163 1436.74 691.311 1438.91 Q689.483 1441.07 689.483 1444.79 Q689.483 1448.54 691.311 1450.7 Q693.163 1452.85 696.311 1452.85 Z" fill="#000000" fill-rule="evenodd" fill-opacity="1" /><path clip-path="url(#clip460)" d="M878.519 1464.28 L886.158 1464.28 L886.158 1437.92 L877.847 1439.59 L877.847 1435.33 L886.111 1433.66 L890.787 1433.66 L890.787 1464.28 L898.426 1464.28 L898.426 1468.22 L878.519 1468.22 L878.519 1464.28 Z" fill="#000000" fill-rule="evenodd" fill-opacity="1" /><path clip-path="url(#clip460)" d="M907.87 1462.34 L912.755 1462.34 L912.755 1468.22 L907.87 1468.22 L907.87 1462.34 Z" fill="#000000" fill-rule="evenodd" fill-opacity="1" /><path clip-path="url(#clip460)" d="M932.94 1436.74 Q929.329 1436.74 927.5 1440.3 Q925.694 1443.84 925.694 1450.97 Q925.694 1458.08 927.5 1461.65 Q929.329 1465.19 932.94 1465.19 Q936.574 1465.19 938.38 1461.65 Q940.208 1458.08 940.208 1450.97 Q940.208 1443.84 938.38 1440.3 Q936.574 1436.74 932.94 1436.74 M932.94 1433.03 Q938.75 1433.03 941.805 1437.64 Q944.884 1442.22 944.884 1450.97 Q944.884 1459.7 941.805 1464.31 Q938.75 1468.89 932.94 1468.89 Q927.13 1468.89 924.051 1464.31 Q920.995 1459.7 920.995 1450.97 Q920.995 1442.22 924.051 1437.64 Q927.13 1433.03 932.94 1433.03 Z" fill="#000000" fill-rule="evenodd" fill-opacity="1" /><path clip-path="url(#clip460)" d="M1116.34 1464.28 L1123.98 1464.28 L1123.98 1437.92 L1115.67 1439.59 L1115.67 1435.33 L1123.93 1433.66 L1128.61 1433.66 L1128.61 1464.28 L1136.25 1464.28 L1136.25 1468.22 L1116.34 1468.22 L1116.34 1464.28 Z" fill="#000000" fill-rule="evenodd" fill-opacity="1" /><path clip-path="url(#clip460)" d="M1145.69 1462.34 L1150.58 1462.34 L1150.58 1468.22 L1145.69 1468.22 L1145.69 1462.34 Z" fill="#000000" fill-rule="evenodd" fill-opacity="1" /><path clip-path="url(#clip460)" d="M1161.57 1464.28 L1169.21 1464.28 L1169.21 1437.92 L1160.9 1439.59 L1160.9 1435.33 L1169.16 1433.66 L1173.84 1433.66 L1173.84 1464.28 L1181.48 1464.28 L1181.48 1468.22 L1161.57 1468.22 L1161.57 1464.28 Z" fill="#000000" fill-rule="evenodd" fill-opacity="1" /><path clip-path="url(#clip460)" d="M679.531 1532.6 Q681.473 1529.35 686.279 1526.49 Q688.157 1525.38 693.949 1525.38 Q700.442 1525.38 704.485 1530.53 Q708.559 1535.69 708.559 1544.09 Q708.559 1552.49 704.485 1557.65 Q700.442 1562.81 693.949 1562.81 Q690.035 1562.81 687.202 1561.28 Q684.401 1559.72 682.555 1556.54 L682.555 1575.44 L676.667 1575.44 L676.667 1544.41 Q676.667 1537.06 679.531 1532.6 M702.48 1544.09 Q702.48 1537.63 699.806 1533.97 Q697.164 1530.28 692.517 1530.28 Q687.87 1530.28 685.197 1533.97 Q682.555 1537.63 682.555 1544.09 Q682.555 1550.55 685.197 1554.24 Q687.87 1557.91 692.517 1557.91 Q697.164 1557.91 699.806 1554.24 Q702.48 1550.55 702.48 1544.09 Z" fill="#000000" fill-rule="evenodd" fill-opacity="1" /><path clip-path="url(#clip460)" d="M745.353 1572.71 L745.353 1577.26 L711.487 1577.26 L711.487 1572.71 L745.353 1572.71 Z" fill="#000000" fill-rule="evenodd" fill-opacity="1" /><path clip-path="url(#clip460)" d="M765.436 1518.6 Q760.471 1518.6 757.957 1523.5 Q755.474 1528.37 755.474 1538.17 Q755.474 1547.94 757.957 1552.84 Q760.471 1557.71 765.436 1557.71 Q770.433 1557.71 772.916 1552.84 Q775.431 1547.94 775.431 1538.17 Q775.431 1528.37 772.916 1523.5 Q770.433 1518.6 765.436 1518.6 M765.436 1513.5 Q773.425 1513.5 777.627 1519.84 Q781.86 1526.14 781.86 1538.17 Q781.86 1550.17 777.627 1556.5 Q773.425 1562.81 765.436 1562.81 Q757.447 1562.81 753.214 1556.5 Q749.013 1550.17 749.013 1538.17 Q749.013 1526.14 753.214 1519.84 Q757.447 1513.5 765.436 1513.5 Z" fill="#000000" fill-rule="evenodd" fill-opacity="1" /><polyline clip-path="url(#clip462)" style="stroke:#000000; stroke-linecap:butt; stroke-linejoin:round; stroke-width:2; stroke-opacity:0.1; fill:none" points="
  235.429,1358.19 1223.1,1358.19 
  "/>
<polyline clip-path="url(#clip462)" style="stroke:#000000; stroke-linecap:butt; stroke-linejoin:round; stroke-width:2; stroke-opacity:0.1; fill:none" points="
  235.429,1094.3 1223.1,1094.3 
  "/>
<polyline clip-path="url(#clip462)" style="stroke:#000000; stroke-linecap:butt; stroke-linejoin:round; stroke-width:2; stroke-opacity:0.1; fill:none" points="
  235.429,830.422 1223.1,830.422 
  "/>
<polyline clip-path="url(#clip462)" style="stroke:#000000; stroke-linecap:butt; stroke-linejoin:round; stroke-width:2; stroke-opacity:0.1; fill:none" points="
  235.429,566.54 1223.1,566.54 
  "/>
<polyline clip-path="url(#clip462)" style="stroke:#000000; stroke-linecap:butt; stroke-linejoin:round; stroke-width:2; stroke-opacity:0.1; fill:none" points="
  235.429,302.658 1223.1,302.658 
  "/>
<polyline clip-path="url(#clip460)" style="stroke:#000000; stroke-linecap:butt; stroke-linejoin:round; stroke-width:4; stroke-opacity:1; fill:none" points="
  235.429,1393.02 235.429,162.272 
  "/>
<polyline clip-path="url(#clip460)" style="stroke:#000000; stroke-linecap:butt; stroke-linejoin:round; stroke-width:4; stroke-opacity:1; fill:none" points="
  235.429,1358.19 254.327,1358.19 
  "/>
<polyline clip-path="url(#clip460)" style="stroke:#000000; stroke-linecap:butt; stroke-linejoin:round; stroke-width:4; stroke-opacity:1; fill:none" points="
  235.429,1094.3 254.327,1094.3 
  "/>
<polyline clip-path="url(#clip460)" style="stroke:#000000; stroke-linecap:butt; stroke-linejoin:round; stroke-width:4; stroke-opacity:1; fill:none" points="
  235.429,830.422 254.327,830.422 
  "/>
<polyline clip-path="url(#clip460)" style="stroke:#000000; stroke-linecap:butt; stroke-linejoin:round; stroke-width:4; stroke-opacity:1; fill:none" points="
  235.429,566.54 254.327,566.54 
  "/>
<polyline clip-path="url(#clip460)" style="stroke:#000000; stroke-linecap:butt; stroke-linejoin:round; stroke-width:4; stroke-opacity:1; fill:none" points="
  235.429,302.658 254.327,302.658 
  "/>
<path clip-path="url(#clip460)" d="M163.485 1343.99 Q159.874 1343.99 158.045 1347.55 Q156.24 1351.09 156.24 1358.22 Q156.24 1365.33 158.045 1368.89 Q159.874 1372.43 163.485 1372.43 Q167.119 1372.43 168.925 1368.89 Q170.753 1365.33 170.753 1358.22 Q170.753 1351.09 168.925 1347.55 Q167.119 1343.99 163.485 1343.99 M163.485 1340.28 Q169.295 1340.28 172.351 1344.89 Q175.429 1349.47 175.429 1358.22 Q175.429 1366.95 172.351 1371.56 Q169.295 1376.14 163.485 1376.14 Q157.675 1376.14 154.596 1371.56 Q151.541 1366.95 151.541 1358.22 Q151.541 1349.47 154.596 1344.89 Q157.675 1340.28 163.485 1340.28 Z" fill="#000000" fill-rule="evenodd" fill-opacity="1" /><path clip-path="url(#clip460)" d="M155.522 1107.65 L163.161 1107.65 L163.161 1081.28 L154.851 1082.95 L154.851 1078.69 L163.115 1077.02 L167.79 1077.02 L167.79 1107.65 L175.429 1107.65 L175.429 1111.58 L155.522 1111.58 L155.522 1107.65 Z" fill="#000000" fill-rule="evenodd" fill-opacity="1" /><path clip-path="url(#clip460)" d="M159.11 843.767 L175.429 843.767 L175.429 847.702 L153.485 847.702 L153.485 843.767 Q156.147 841.013 160.73 836.383 Q165.337 831.73 166.517 830.388 Q168.763 827.865 169.642 826.129 Q170.545 824.369 170.545 822.679 Q170.545 819.925 168.601 818.189 Q166.679 816.453 163.578 816.453 Q161.378 816.453 158.925 817.217 Q156.494 817.98 153.716 819.531 L153.716 814.809 Q156.541 813.675 158.994 813.096 Q161.448 812.517 163.485 812.517 Q168.855 812.517 172.05 815.203 Q175.244 817.888 175.244 822.379 Q175.244 824.508 174.434 826.429 Q173.647 828.328 171.54 830.92 Q170.962 831.591 167.86 834.809 Q164.758 838.003 159.11 843.767 Z" fill="#000000" fill-rule="evenodd" fill-opacity="1" /><path clip-path="url(#clip460)" d="M168.3 565.186 Q171.656 565.904 173.531 568.172 Q175.429 570.441 175.429 573.774 Q175.429 578.89 171.911 581.69 Q168.392 584.491 161.911 584.491 Q159.735 584.491 157.42 584.052 Q155.129 583.635 152.675 582.778 L152.675 578.265 Q154.619 579.399 156.934 579.978 Q159.249 580.556 161.772 580.556 Q166.17 580.556 168.462 578.82 Q170.777 577.084 170.777 573.774 Q170.777 570.718 168.624 569.005 Q166.494 567.269 162.675 567.269 L158.647 567.269 L158.647 563.427 L162.86 563.427 Q166.309 563.427 168.138 562.061 Q169.966 560.672 169.966 558.079 Q169.966 555.417 168.068 554.005 Q166.193 552.57 162.675 552.57 Q160.753 552.57 158.554 552.987 Q156.355 553.404 153.716 554.283 L153.716 550.117 Q156.379 549.376 158.693 549.005 Q161.031 548.635 163.091 548.635 Q168.415 548.635 171.517 551.066 Q174.619 553.473 174.619 557.593 Q174.619 560.464 172.976 562.454 Q171.332 564.422 168.3 565.186 Z" fill="#000000" fill-rule="evenodd" fill-opacity="1" /><path clip-path="url(#clip460)" d="M165.846 289.452 L154.041 307.901 L165.846 307.901 L165.846 289.452 M164.619 285.378 L170.499 285.378 L170.499 307.901 L175.429 307.901 L175.429 311.79 L170.499 311.79 L170.499 319.938 L165.846 319.938 L165.846 311.79 L150.244 311.79 L150.244 307.276 L164.619 285.378 Z" fill="#000000" fill-rule="evenodd" fill-opacity="1" /><path clip-path="url(#clip460)" d="M40.3403 876.171 L40.3403 848.353 L45.6875 848.353 L71.3095 870.378 L71.3095 848.353 L75.9883 848.353 L75.9883 876.967 L70.6411 876.967 L45.0191 854.942 L45.0191 876.171 L40.3403 876.171 Z" fill="#000000" fill-rule="evenodd" fill-opacity="1" /><path clip-path="url(#clip460)" d="M26.5267 804.621 Q33.8473 808.886 41.0087 810.955 Q48.1701 813.023 55.5225 813.023 Q62.8749 813.023 70.1 810.955 Q77.2933 808.854 84.582 804.621 L84.582 809.713 Q77.1023 814.488 69.8772 816.875 Q62.6521 819.23 55.5225 819.23 Q48.4248 819.23 41.2315 816.875 Q34.0383 814.519 26.5267 809.713 L26.5267 804.621 Z" fill="#000000" fill-rule="evenodd" fill-opacity="1" /><path clip-path="url(#clip460)" d="M26.4631 793.481 L26.4631 787.592 L55.7135 787.592 L40.3403 770.119 L40.3403 762.639 L57.0185 781.545 L75.9883 761.843 L75.9883 769.482 L58.5781 787.592 L75.9883 787.592 L75.9883 793.481 L26.4631 793.481 Z" fill="#000000" fill-rule="evenodd" fill-opacity="1" /><path clip-path="url(#clip460)" d="M47.1835 727.755 Q43.2367 725.559 41.3588 722.503 Q39.481 719.448 39.481 715.31 Q39.481 709.74 43.3959 706.716 Q47.2789 703.692 54.4722 703.692 L75.9883 703.692 L75.9883 709.581 L54.6632 709.581 Q49.5388 709.581 47.0561 711.395 Q44.5735 713.209 44.5735 716.933 Q44.5735 721.485 47.5972 724.126 Q50.6209 726.768 55.8408 726.768 L75.9883 726.768 L75.9883 732.656 L54.6632 732.656 Q49.5069 732.656 47.0561 734.471 Q44.5735 736.285 44.5735 740.072 Q44.5735 744.56 47.6291 747.202 Q50.6528 749.844 55.8408 749.844 L75.9883 749.844 L75.9883 755.732 L40.3403 755.732 L40.3403 749.844 L45.8785 749.844 Q42.6002 747.839 41.0406 745.038 Q39.481 742.237 39.481 738.385 Q39.481 734.502 41.4543 731.797 Q43.4277 729.06 47.1835 727.755 Z" fill="#000000" fill-rule="evenodd" fill-opacity="1" /><path clip-path="url(#clip460)" d="M26.5267 692.934 L26.5267 687.842 Q34.0383 683.067 41.2315 680.712 Q48.4248 678.325 55.5225 678.325 Q62.6521 678.325 69.8772 680.712 Q77.1023 683.067 84.582 687.842 L84.582 692.934 Q77.2933 688.701 70.1 686.632 Q62.8749 684.532 55.5225 684.532 Q48.1701 684.532 41.0087 686.632 Q33.8473 688.701 26.5267 692.934 Z" fill="#000000" fill-rule="evenodd" fill-opacity="1" /><path clip-path="url(#clip460)" d="M665.968 35.3077 Q668.439 31.1758 674.556 27.5299 Q676.946 26.1121 684.318 26.1121 Q692.582 26.1121 697.727 32.6746 Q702.912 39.2371 702.912 49.9314 Q702.912 60.6258 697.727 67.1883 Q692.582 73.7508 684.318 73.7508 Q679.336 73.7508 675.731 71.8063 Q672.166 69.8214 669.816 65.7705 L669.816 89.8329 L662.322 89.8329 L662.322 50.3365 Q662.322 40.9789 665.968 35.3077 M695.175 49.9314 Q695.175 41.7081 691.772 37.0496 Q688.41 32.3505 682.496 32.3505 Q676.581 32.3505 673.178 37.0496 Q669.816 41.7081 669.816 49.9314 Q669.816 58.1548 673.178 62.8538 Q676.581 67.5124 682.496 67.5124 Q688.41 67.5124 691.772 62.8538 Q695.175 58.1548 695.175 49.9314 Z" fill="#000000" fill-rule="evenodd" fill-opacity="1" /><path clip-path="url(#clip460)" d="M749.741 86.3491 L749.741 92.1419 L706.639 92.1419 L706.639 86.3491 L749.741 86.3491 Z" fill="#000000" fill-rule="evenodd" fill-opacity="1" /><path clip-path="url(#clip460)" d="M775.302 17.4837 Q768.982 17.4837 765.782 23.7221 Q762.622 29.92 762.622 42.3968 Q762.622 54.833 765.782 61.0714 Q768.982 67.2693 775.302 67.2693 Q781.662 67.2693 784.821 61.0714 Q788.022 54.833 788.022 42.3968 Q788.022 29.92 784.821 23.7221 Q781.662 17.4837 775.302 17.4837 M775.302 11.0023 Q785.47 11.0023 790.817 19.0636 Q796.204 27.0843 796.204 42.3968 Q796.204 57.6687 790.817 65.73 Q785.47 73.7508 775.302 73.7508 Q765.134 73.7508 759.746 65.73 Q754.399 57.6687 754.399 42.3968 Q754.399 27.0843 759.746 19.0636 Q765.134 11.0023 775.302 11.0023 Z" fill="#000000" fill-rule="evenodd" fill-opacity="1" /><polyline clip-path="url(#clip462)" style="stroke:#009af9; stroke-linecap:butt; stroke-linejoin:round; stroke-width:4; stroke-opacity:1; fill:none" points="
  1189.77,1351.59 1179.05,1338.4 1168.34,1325.2 1157.67,1312.01 1147.02,1298.81 1136.4,1285.62 1125.81,1272.43 1115.24,1259.23 1104.69,1246.04 1094.17,1232.84 
  1083.68,1219.65 1073.22,1206.45 1062.78,1193.26 1052.36,1180.07 1041.98,1166.87 1030.26,1153.68 1018.03,1140.48 1005.85,1127.29 993.719,1114.1 981.636,1100.9 
  969.603,1087.71 957.617,1074.51 945.68,1061.32 933.792,1048.13 921.952,1034.93 910.16,1021.74 898.416,1008.54 886.721,995.349 875.074,982.155 863.474,968.961 
  851.922,955.767 840.417,942.572 828.96,929.378 817.548,916.184 806.187,902.99 794.872,889.796 783.603,876.602 772.383,863.408 761.206,850.214 750.077,837.02 
  738.992,823.825 727.954,810.631 716.964,797.437 706.02,784.243 695.121,771.049 684.268,757.855 673.461,744.661 662.699,731.467 651.982,718.272 641.31,705.078 
  630.683,691.884 620.1,678.69 609.563,665.496 599.071,652.302 588.621,639.108 578.217,625.914 567.857,612.719 557.541,599.525 547.269,586.331 537.041,573.137 
  526.856,559.943 516.715,546.749 506.617,533.555 496.563,520.361 486.551,507.167 476.583,493.972 466.658,480.778 456.775,467.584 446.935,454.39 437.137,441.196 
  427.382,428.002 417.669,414.808 407.998,401.614 398.369,388.419 388.782,375.225 379.236,362.031 369.732,348.837 360.269,335.643 350.848,322.449 341.468,309.255 
  332.129,296.061 322.831,282.867 313.574,269.672 304.357,256.478 295.181,243.284 286.046,230.09 276.95,216.896 267.895,203.702 
  "/>
<polyline clip-path="url(#clip462)" style="stroke:#e26f46; stroke-linecap:butt; stroke-linejoin:round; stroke-width:4; stroke-opacity:1; fill:none" points="
  1195.14,1358.19 1184.4,1344.99 1173.69,1331.8 1163,1318.6 1152.34,1305.41 1141.71,1292.22 1131.1,1279.02 1120.52,1265.83 1109.96,1252.63 1099.43,1239.44 
  1088.93,1226.25 1078.45,1213.05 1067.99,1199.86 1057.57,1186.66 1047.17,1173.47 1036.4,1160.28 1024.14,1147.08 1011.94,1133.89 999.778,1120.69 987.672,1107.5 
  975.613,1094.3 963.604,1081.11 951.643,1067.92 939.73,1054.72 927.866,1041.53 916.05,1028.33 904.282,1015.14 892.562,1001.95 880.891,988.752 869.268,975.558 
  857.692,962.364 846.164,949.17 834.683,935.975 823.25,922.781 811.862,909.587 800.524,896.393 789.232,883.199 777.986,870.005 766.788,856.811 755.635,843.617 
  744.529,830.422 733.466,817.228 722.453,804.034 711.486,790.84 700.565,777.646 689.689,764.452 678.859,751.258 668.074,738.064 657.334,724.87 646.64,711.675 
  635.99,698.481 625.386,685.287 614.827,672.093 604.311,658.899 593.84,645.705 583.413,632.511 573.031,619.317 562.693,606.122 552.399,592.928 542.149,579.734 
  531.943,566.54 521.78,553.346 511.661,540.152 501.585,526.958 491.552,513.764 481.562,500.569 471.615,487.375 461.711,474.181 451.85,460.987 442.031,447.793 
  432.255,434.599 422.52,421.405 412.828,408.211 403.178,395.017 393.57,381.822 384.004,368.628 374.479,355.434 364.995,342.24 355.554,329.046 346.153,315.852 
  336.794,302.658 327.474,289.464 318.197,276.269 308.961,263.075 299.764,249.881 290.608,236.687 281.493,223.493 272.417,210.299 263.382,197.105 
  "/>
<path clip-path="url(#clip460)" d="
M617.884 358.817 L1190.17 358.817 L1190.17 203.297 L617.884 203.297  Z
  " fill="#ffffff" fill-rule="evenodd" fill-opacity="1"/>
<polyline clip-path="url(#clip460)" style="stroke:#000000; stroke-linecap:butt; stroke-linejoin:round; stroke-width:4; stroke-opacity:1; fill:none" points="
  617.884,358.817 1190.17,358.817 1190.17,203.297 617.884,203.297 617.884,358.817 
  "/>
<polyline clip-path="url(#clip460)" style="stroke:#009af9; stroke-linecap:butt; stroke-linejoin:round; stroke-width:4; stroke-opacity:1; fill:none" points="
  657.884,255.137 897.884,255.137 
  "/>
<path clip-path="url(#clip460)" d="M958.393 247.487 L958.393 251.468 Q956.588 250.473 954.759 249.987 Q952.953 249.477 951.102 249.477 Q946.958 249.477 944.666 252.116 Q942.375 254.732 942.375 259.477 Q942.375 264.223 944.666 266.862 Q946.958 269.477 951.102 269.477 Q952.953 269.477 954.759 268.991 Q956.588 268.482 958.393 267.487 L958.393 271.422 Q956.611 272.255 954.69 272.672 Q952.791 273.088 950.639 273.088 Q944.782 273.088 941.333 269.408 Q937.884 265.727 937.884 259.477 Q937.884 253.135 941.356 249.501 Q944.852 245.866 950.916 245.866 Q952.884 245.866 954.759 246.283 Q956.634 246.677 958.393 247.487 Z" fill="#000000" fill-rule="evenodd" fill-opacity="1" /><path clip-path="url(#clip460)" d="M987.976 258.389 L987.976 260.473 L968.393 260.473 Q968.671 264.871 971.032 267.186 Q973.416 269.477 977.652 269.477 Q980.106 269.477 982.398 268.876 Q984.713 268.274 986.981 267.07 L986.981 271.098 Q984.689 272.07 982.282 272.579 Q979.875 273.088 977.398 273.088 Q971.194 273.088 967.56 269.477 Q963.949 265.866 963.949 259.709 Q963.949 253.343 967.375 249.616 Q970.824 245.866 976.657 245.866 Q981.889 245.866 984.921 249.246 Q987.976 252.602 987.976 258.389 M983.717 257.139 Q983.671 253.644 981.75 251.561 Q979.851 249.477 976.703 249.477 Q973.139 249.477 970.986 251.491 Q968.856 253.505 968.532 257.163 L983.717 257.139 Z" fill="#000000" fill-rule="evenodd" fill-opacity="1" /><path clip-path="url(#clip460)" d="M1016.52 256.769 L1016.52 272.417 L1012.26 272.417 L1012.26 256.908 Q1012.26 253.227 1010.82 251.399 Q1009.39 249.57 1006.52 249.57 Q1003.07 249.57 1001.08 251.769 Q999.087 253.968 999.087 257.764 L999.087 272.417 L994.805 272.417 L994.805 246.491 L999.087 246.491 L999.087 250.519 Q1000.62 248.181 1002.68 247.024 Q1004.76 245.866 1007.47 245.866 Q1011.93 245.866 1014.23 248.644 Q1016.52 251.399 1016.52 256.769 Z" fill="#000000" fill-rule="evenodd" fill-opacity="1" /><path clip-path="url(#clip460)" d="M1029.23 239.13 L1029.23 246.491 L1038 246.491 L1038 249.802 L1029.23 249.802 L1029.23 263.876 Q1029.23 267.047 1030.08 267.95 Q1030.96 268.852 1033.62 268.852 L1038 268.852 L1038 272.417 L1033.62 272.417 Q1028.69 272.417 1026.82 270.588 Q1024.94 268.737 1024.94 263.876 L1024.94 249.802 L1021.82 249.802 L1021.82 246.491 L1024.94 246.491 L1024.94 239.13 L1029.23 239.13 Z" fill="#000000" fill-rule="evenodd" fill-opacity="1" /><path clip-path="url(#clip460)" d="M1065.78 258.389 L1065.78 260.473 L1046.19 260.473 Q1046.47 264.871 1048.83 267.186 Q1051.22 269.477 1055.45 269.477 Q1057.91 269.477 1060.2 268.876 Q1062.51 268.274 1064.78 267.07 L1064.78 271.098 Q1062.49 272.07 1060.08 272.579 Q1057.68 273.088 1055.2 273.088 Q1048.99 273.088 1045.36 269.477 Q1041.75 265.866 1041.75 259.709 Q1041.75 253.343 1045.18 249.616 Q1048.62 245.866 1054.46 245.866 Q1059.69 245.866 1062.72 249.246 Q1065.78 252.602 1065.78 258.389 M1061.52 257.139 Q1061.47 253.644 1059.55 251.561 Q1057.65 249.477 1054.5 249.477 Q1050.94 249.477 1048.79 251.491 Q1046.66 253.505 1046.33 257.163 L1061.52 257.139 Z" fill="#000000" fill-rule="evenodd" fill-opacity="1" /><path clip-path="url(#clip460)" d="M1087.79 250.473 Q1087.07 250.056 1086.22 249.871 Q1085.38 249.663 1084.36 249.663 Q1080.75 249.663 1078.81 252.024 Q1076.89 254.362 1076.89 258.76 L1076.89 272.417 L1072.61 272.417 L1072.61 246.491 L1076.89 246.491 L1076.89 250.519 Q1078.23 248.158 1080.38 247.024 Q1082.54 245.866 1085.61 245.866 Q1086.05 245.866 1086.59 245.936 Q1087.12 245.982 1087.77 246.098 L1087.79 250.473 Z" fill="#000000" fill-rule="evenodd" fill-opacity="1" /><path clip-path="url(#clip460)" d="M1108.79 247.255 L1108.79 251.283 Q1106.98 250.357 1105.04 249.894 Q1103.09 249.431 1101.01 249.431 Q1097.84 249.431 1096.24 250.403 Q1094.67 251.376 1094.67 253.32 Q1094.67 254.802 1095.8 255.658 Q1096.93 256.491 1100.36 257.255 L1101.82 257.579 Q1106.36 258.552 1108.25 260.334 Q1110.17 262.093 1110.17 265.264 Q1110.17 268.876 1107.3 270.982 Q1104.46 273.088 1099.46 273.088 Q1097.37 273.088 1095.11 272.672 Q1092.86 272.278 1090.36 271.468 L1090.36 267.07 Q1092.72 268.297 1095.01 268.922 Q1097.3 269.524 1099.55 269.524 Q1102.56 269.524 1104.18 268.505 Q1105.8 267.463 1105.8 265.589 Q1105.8 263.852 1104.62 262.926 Q1103.46 262.001 1099.5 261.144 L1098.02 260.797 Q1094.06 259.964 1092.3 258.251 Q1090.55 256.514 1090.55 253.505 Q1090.55 249.848 1093.14 247.857 Q1095.73 245.866 1100.5 245.866 Q1102.86 245.866 1104.94 246.214 Q1107.03 246.561 1108.79 247.255 Z" fill="#000000" fill-rule="evenodd" fill-opacity="1" /><polyline clip-path="url(#clip460)" style="stroke:#e26f46; stroke-linecap:butt; stroke-linejoin:round; stroke-width:4; stroke-opacity:1; fill:none" points="
  657.884,306.977 897.884,306.977 
  "/>
<path clip-path="url(#clip460)" d="M954.389 288.239 L954.389 291.78 L950.315 291.78 Q948.023 291.78 947.12 292.706 Q946.241 293.632 946.241 296.04 L946.241 298.331 L953.254 298.331 L953.254 301.642 L946.241 301.642 L946.241 324.257 L941.958 324.257 L941.958 301.642 L937.884 301.642 L937.884 298.331 L941.958 298.331 L941.958 296.526 Q941.958 292.197 943.972 290.23 Q945.986 288.239 950.361 288.239 L954.389 288.239 Z" fill="#000000" fill-rule="evenodd" fill-opacity="1" /><path clip-path="url(#clip460)" d="M969.736 311.225 Q964.574 311.225 962.583 312.405 Q960.592 313.586 960.592 316.433 Q960.592 318.702 962.074 320.044 Q963.578 321.364 966.148 321.364 Q969.689 321.364 971.819 318.864 Q973.972 316.341 973.972 312.174 L973.972 311.225 L969.736 311.225 M978.231 309.466 L978.231 324.257 L973.972 324.257 L973.972 320.322 Q972.514 322.683 970.338 323.817 Q968.162 324.928 965.014 324.928 Q961.032 324.928 958.671 322.706 Q956.333 320.461 956.333 316.711 Q956.333 312.336 959.25 310.114 Q962.19 307.892 968 307.892 L973.972 307.892 L973.972 307.475 Q973.972 304.535 972.027 302.938 Q970.106 301.317 966.611 301.317 Q964.389 301.317 962.282 301.85 Q960.176 302.382 958.231 303.447 L958.231 299.512 Q960.569 298.609 962.768 298.169 Q964.967 297.706 967.051 297.706 Q972.676 297.706 975.453 300.623 Q978.231 303.54 978.231 309.466 Z" fill="#000000" fill-rule="evenodd" fill-opacity="1" /><path clip-path="url(#clip460)" d="M1005.66 299.327 L1005.66 303.308 Q1003.86 302.313 1002.03 301.827 Q1000.22 301.317 998.37 301.317 Q994.226 301.317 991.935 303.956 Q989.643 306.572 989.643 311.317 Q989.643 316.063 991.935 318.702 Q994.226 321.317 998.37 321.317 Q1000.22 321.317 1002.03 320.831 Q1003.86 320.322 1005.66 319.327 L1005.66 323.262 Q1003.88 324.095 1001.96 324.512 Q1000.06 324.928 997.907 324.928 Q992.05 324.928 988.601 321.248 Q985.152 317.567 985.152 311.317 Q985.152 304.975 988.625 301.341 Q992.12 297.706 998.185 297.706 Q1000.15 297.706 1002.03 298.123 Q1003.9 298.517 1005.66 299.327 Z" fill="#000000" fill-rule="evenodd" fill-opacity="1" /><path clip-path="url(#clip460)" d="M1035.24 310.229 L1035.24 312.313 L1015.66 312.313 Q1015.94 316.711 1018.3 319.026 Q1020.68 321.317 1024.92 321.317 Q1027.37 321.317 1029.67 320.716 Q1031.98 320.114 1034.25 318.91 L1034.25 322.938 Q1031.96 323.91 1029.55 324.419 Q1027.14 324.928 1024.67 324.928 Q1018.46 324.928 1014.83 321.317 Q1011.22 317.706 1011.22 311.549 Q1011.22 305.183 1014.64 301.456 Q1018.09 297.706 1023.93 297.706 Q1029.16 297.706 1032.19 301.086 Q1035.24 304.442 1035.24 310.229 M1030.99 308.979 Q1030.94 305.484 1029.02 303.401 Q1027.12 301.317 1023.97 301.317 Q1020.41 301.317 1018.25 303.331 Q1016.12 305.345 1015.8 309.003 L1030.99 308.979 Z" fill="#000000" fill-rule="evenodd" fill-opacity="1" /><path clip-path="url(#clip460)" d="M1058.76 299.095 L1058.76 303.123 Q1056.96 302.197 1055.01 301.734 Q1053.07 301.271 1050.99 301.271 Q1047.81 301.271 1046.22 302.243 Q1044.64 303.216 1044.64 305.16 Q1044.64 306.642 1045.78 307.498 Q1046.91 308.331 1050.34 309.095 L1051.8 309.419 Q1056.33 310.392 1058.23 312.174 Q1060.15 313.933 1060.15 317.104 Q1060.15 320.716 1057.28 322.822 Q1054.43 324.928 1049.43 324.928 Q1047.35 324.928 1045.08 324.512 Q1042.84 324.118 1040.34 323.308 L1040.34 318.91 Q1042.7 320.137 1044.99 320.762 Q1047.28 321.364 1049.53 321.364 Q1052.54 321.364 1054.16 320.345 Q1055.78 319.303 1055.78 317.429 Q1055.78 315.692 1054.6 314.766 Q1053.44 313.841 1049.48 312.984 L1048 312.637 Q1044.04 311.804 1042.28 310.091 Q1040.52 308.354 1040.52 305.345 Q1040.52 301.688 1043.12 299.697 Q1045.71 297.706 1050.48 297.706 Q1052.84 297.706 1054.92 298.054 Q1057 298.401 1058.76 299.095 Z" fill="#000000" fill-rule="evenodd" fill-opacity="1" /><path clip-path="url(#clip460)" d="
M1568.76 1393.02 L2556.43 1393.02 L2556.43 162.272 L1568.76 162.272  Z
  " fill="#ffffff" fill-rule="evenodd" fill-opacity="1"/>
<defs>
  <clipPath id="clip463">
    <rect x="1568" y="162" width="989" height="1232"/>
  </clipPath>
</defs>
<polyline clip-path="url(#clip463)" style="stroke:#000000; stroke-linecap:butt; stroke-linejoin:round; stroke-width:2; stroke-opacity:0.1; fill:none" points="
  1656.8,1393.02 1656.8,162.272 
  "/>
<polyline clip-path="url(#clip463)" style="stroke:#000000; stroke-linecap:butt; stroke-linejoin:round; stroke-width:2; stroke-opacity:0.1; fill:none" points="
  1892.39,1393.02 1892.39,162.272 
  "/>
<polyline clip-path="url(#clip463)" style="stroke:#000000; stroke-linecap:butt; stroke-linejoin:round; stroke-width:2; stroke-opacity:0.1; fill:none" points="
  2127.98,1393.02 2127.98,162.272 
  "/>
<polyline clip-path="url(#clip463)" style="stroke:#000000; stroke-linecap:butt; stroke-linejoin:round; stroke-width:2; stroke-opacity:0.1; fill:none" points="
  2363.57,1393.02 2363.57,162.272 
  "/>
<polyline clip-path="url(#clip460)" style="stroke:#000000; stroke-linecap:butt; stroke-linejoin:round; stroke-width:4; stroke-opacity:1; fill:none" points="
  1568.76,1393.02 2556.43,1393.02 
  "/>
<polyline clip-path="url(#clip460)" style="stroke:#000000; stroke-linecap:butt; stroke-linejoin:round; stroke-width:4; stroke-opacity:1; fill:none" points="
  1656.8,1393.02 1656.8,1374.12 
  "/>
<polyline clip-path="url(#clip460)" style="stroke:#000000; stroke-linecap:butt; stroke-linejoin:round; stroke-width:4; stroke-opacity:1; fill:none" points="
  1892.39,1393.02 1892.39,1374.12 
  "/>
<polyline clip-path="url(#clip460)" style="stroke:#000000; stroke-linecap:butt; stroke-linejoin:round; stroke-width:4; stroke-opacity:1; fill:none" points="
  2127.98,1393.02 2127.98,1374.12 
  "/>
<polyline clip-path="url(#clip460)" style="stroke:#000000; stroke-linecap:butt; stroke-linejoin:round; stroke-width:4; stroke-opacity:1; fill:none" points="
  2363.57,1393.02 2363.57,1374.12 
  "/>
<path clip-path="url(#clip460)" d="M1642.2 1449.08 Q1639.06 1449.08 1637.2 1451.23 Q1635.37 1453.38 1635.37 1457.13 Q1635.37 1460.86 1637.2 1463.03 Q1639.06 1465.19 1642.2 1465.19 Q1645.35 1465.19 1647.18 1463.03 Q1649.03 1460.86 1649.03 1457.13 Q1649.03 1453.38 1647.18 1451.23 Q1645.35 1449.08 1642.2 1449.08 M1651.49 1434.42 L1651.49 1438.68 Q1649.73 1437.85 1647.92 1437.41 Q1646.14 1436.97 1644.38 1436.97 Q1639.75 1436.97 1637.3 1440.09 Q1634.87 1443.22 1634.52 1449.54 Q1635.88 1447.53 1637.94 1446.46 Q1640 1445.37 1642.48 1445.37 Q1647.69 1445.37 1650.7 1448.54 Q1653.73 1451.69 1653.73 1457.13 Q1653.73 1462.46 1650.58 1465.67 Q1647.43 1468.89 1642.2 1468.89 Q1636.21 1468.89 1633.04 1464.31 Q1629.87 1459.7 1629.87 1450.97 Q1629.87 1442.78 1633.75 1437.92 Q1637.64 1433.03 1644.19 1433.03 Q1645.95 1433.03 1647.74 1433.38 Q1649.54 1433.73 1651.49 1434.42 Z" fill="#000000" fill-rule="evenodd" fill-opacity="1" /><path clip-path="url(#clip460)" d="M1671.79 1436.74 Q1668.18 1436.74 1666.35 1440.3 Q1664.54 1443.84 1664.54 1450.97 Q1664.54 1458.08 1666.35 1461.65 Q1668.18 1465.19 1671.79 1465.19 Q1675.42 1465.19 1677.23 1461.65 Q1679.05 1458.08 1679.05 1450.97 Q1679.05 1443.84 1677.23 1440.3 Q1675.42 1436.74 1671.79 1436.74 M1671.79 1433.03 Q1677.6 1433.03 1680.65 1437.64 Q1683.73 1442.22 1683.73 1450.97 Q1683.73 1459.7 1680.65 1464.31 Q1677.6 1468.89 1671.79 1468.89 Q1665.98 1468.89 1662.9 1464.31 Q1659.84 1459.7 1659.84 1450.97 Q1659.84 1442.22 1662.9 1437.64 Q1665.98 1433.03 1671.79 1433.03 Z" fill="#000000" fill-rule="evenodd" fill-opacity="1" /><path clip-path="url(#clip460)" d="M1865.74 1433.66 L1887.97 1433.66 L1887.97 1435.65 L1875.42 1468.22 L1870.54 1468.22 L1882.34 1437.59 L1865.74 1437.59 L1865.74 1433.66 Z" fill="#000000" fill-rule="evenodd" fill-opacity="1" /><path clip-path="url(#clip460)" d="M1907.09 1436.74 Q1903.48 1436.74 1901.65 1440.3 Q1899.84 1443.84 1899.84 1450.97 Q1899.84 1458.08 1901.65 1461.65 Q1903.48 1465.19 1907.09 1465.19 Q1910.72 1465.19 1912.53 1461.65 Q1914.35 1458.08 1914.35 1450.97 Q1914.35 1443.84 1912.53 1440.3 Q1910.72 1436.74 1907.09 1436.74 M1907.09 1433.03 Q1912.9 1433.03 1915.95 1437.64 Q1919.03 1442.22 1919.03 1450.97 Q1919.03 1459.7 1915.95 1464.31 Q1912.9 1468.89 1907.09 1468.89 Q1901.28 1468.89 1898.2 1464.31 Q1895.14 1459.7 1895.14 1450.97 Q1895.14 1442.22 1898.2 1437.64 Q1901.28 1433.03 1907.09 1433.03 Z" fill="#000000" fill-rule="evenodd" fill-opacity="1" /><path clip-path="url(#clip460)" d="M2112.85 1451.81 Q2109.52 1451.81 2107.59 1453.59 Q2105.7 1455.37 2105.7 1458.5 Q2105.7 1461.62 2107.59 1463.4 Q2109.52 1465.19 2112.85 1465.19 Q2116.18 1465.19 2118.1 1463.4 Q2120.02 1461.6 2120.02 1458.5 Q2120.02 1455.37 2118.1 1453.59 Q2116.21 1451.81 2112.85 1451.81 M2108.17 1449.82 Q2105.16 1449.08 2103.47 1447.02 Q2101.81 1444.96 2101.81 1441.99 Q2101.81 1437.85 2104.75 1435.44 Q2107.71 1433.03 2112.85 1433.03 Q2118.01 1433.03 2120.95 1435.44 Q2123.89 1437.85 2123.89 1441.99 Q2123.89 1444.96 2122.2 1447.02 Q2120.53 1449.08 2117.55 1449.82 Q2120.93 1450.6 2122.8 1452.9 Q2124.7 1455.19 2124.7 1458.5 Q2124.7 1463.52 2121.62 1466.21 Q2118.57 1468.89 2112.85 1468.89 Q2107.13 1468.89 2104.05 1466.21 Q2101 1463.52 2101 1458.5 Q2101 1455.19 2102.9 1452.9 Q2104.79 1450.6 2108.17 1449.82 M2106.46 1442.43 Q2106.46 1445.12 2108.13 1446.62 Q2109.82 1448.13 2112.85 1448.13 Q2115.86 1448.13 2117.55 1446.62 Q2119.26 1445.12 2119.26 1442.43 Q2119.26 1439.75 2117.55 1438.24 Q2115.86 1436.74 2112.85 1436.74 Q2109.82 1436.74 2108.13 1438.24 Q2106.46 1439.75 2106.46 1442.43 Z" fill="#000000" fill-rule="evenodd" fill-opacity="1" /><path clip-path="url(#clip460)" d="M2143.01 1436.74 Q2139.4 1436.74 2137.57 1440.3 Q2135.77 1443.84 2135.77 1450.97 Q2135.77 1458.08 2137.57 1461.65 Q2139.4 1465.19 2143.01 1465.19 Q2146.65 1465.19 2148.45 1461.65 Q2150.28 1458.08 2150.28 1450.97 Q2150.28 1443.84 2148.45 1440.3 Q2146.65 1436.74 2143.01 1436.74 M2143.01 1433.03 Q2148.82 1433.03 2151.88 1437.64 Q2154.96 1442.22 2154.96 1450.97 Q2154.96 1459.7 2151.88 1464.31 Q2148.82 1468.89 2143.01 1468.89 Q2137.2 1468.89 2134.12 1464.31 Q2131.07 1459.7 2131.07 1450.97 Q2131.07 1442.22 2134.12 1437.64 Q2137.2 1433.03 2143.01 1433.03 Z" fill="#000000" fill-rule="evenodd" fill-opacity="1" /><path clip-path="url(#clip460)" d="M2338.69 1467.5 L2338.69 1463.24 Q2340.45 1464.08 2342.26 1464.52 Q2344.06 1464.96 2345.8 1464.96 Q2350.43 1464.96 2352.86 1461.85 Q2355.31 1458.73 2355.66 1452.39 Q2354.32 1454.38 2352.26 1455.44 Q2350.2 1456.51 2347.7 1456.51 Q2342.51 1456.51 2339.48 1453.38 Q2336.47 1450.23 2336.47 1444.79 Q2336.47 1439.47 2339.62 1436.25 Q2342.77 1433.03 2348 1433.03 Q2353.99 1433.03 2357.14 1437.64 Q2360.31 1442.22 2360.31 1450.97 Q2360.31 1459.15 2356.42 1464.03 Q2352.56 1468.89 2346.01 1468.89 Q2344.25 1468.89 2342.44 1468.54 Q2340.64 1468.2 2338.69 1467.5 M2348 1452.85 Q2351.15 1452.85 2352.98 1450.7 Q2354.83 1448.54 2354.83 1444.79 Q2354.83 1441.07 2352.98 1438.91 Q2351.15 1436.74 2348 1436.74 Q2344.85 1436.74 2343 1438.91 Q2341.17 1441.07 2341.17 1444.79 Q2341.17 1448.54 2343 1450.7 Q2344.85 1452.85 2348 1452.85 Z" fill="#000000" fill-rule="evenodd" fill-opacity="1" /><path clip-path="url(#clip460)" d="M2378.72 1436.74 Q2375.1 1436.74 2373.28 1440.3 Q2371.47 1443.84 2371.47 1450.97 Q2371.47 1458.08 2373.28 1461.65 Q2375.1 1465.19 2378.72 1465.19 Q2382.35 1465.19 2384.16 1461.65 Q2385.98 1458.08 2385.98 1450.97 Q2385.98 1443.84 2384.16 1440.3 Q2382.35 1436.74 2378.72 1436.74 M2378.72 1433.03 Q2384.53 1433.03 2387.58 1437.64 Q2390.66 1442.22 2390.66 1450.97 Q2390.66 1459.7 2387.58 1464.31 Q2384.53 1468.89 2378.72 1468.89 Q2372.91 1468.89 2369.83 1464.31 Q2366.77 1459.7 2366.77 1450.97 Q2366.77 1442.22 2369.83 1437.64 Q2372.91 1433.03 2378.72 1433.03 Z" fill="#000000" fill-rule="evenodd" fill-opacity="1" /><path clip-path="url(#clip460)" d="M1923.7 1556.54 L1923.7 1575.44 L1917.81 1575.44 L1917.81 1526.24 L1923.7 1526.24 L1923.7 1531.65 Q1925.54 1528.46 1928.34 1526.94 Q1931.18 1525.38 1935.09 1525.38 Q1941.58 1525.38 1945.63 1530.53 Q1949.7 1535.69 1949.7 1544.09 Q1949.7 1552.49 1945.63 1557.65 Q1941.58 1562.81 1935.09 1562.81 Q1931.18 1562.81 1928.34 1561.28 Q1925.54 1559.72 1923.7 1556.54 M1943.62 1544.09 Q1943.62 1537.63 1940.95 1533.97 Q1938.31 1530.28 1933.66 1530.28 Q1929.01 1530.28 1926.34 1533.97 Q1923.7 1537.63 1923.7 1544.09 Q1923.7 1550.55 1926.34 1554.24 Q1929.01 1557.91 1933.66 1557.91 Q1938.31 1557.91 1940.95 1554.24 Q1943.62 1550.55 1943.62 1544.09 Z" fill="#000000" fill-rule="evenodd" fill-opacity="1" /><path clip-path="url(#clip460)" d="M1986.49 1572.71 L1986.49 1577.26 L1952.63 1577.26 L1952.63 1572.71 L1986.49 1572.71 Z" fill="#000000" fill-rule="evenodd" fill-opacity="1" /><path clip-path="url(#clip460)" d="M2006.58 1518.6 Q2001.61 1518.6 1999.1 1523.5 Q1996.62 1528.37 1996.62 1538.17 Q1996.62 1547.94 1999.1 1552.84 Q2001.61 1557.71 2006.58 1557.71 Q2011.58 1557.71 2014.06 1552.84 Q2016.57 1547.94 2016.57 1538.17 Q2016.57 1528.37 2014.06 1523.5 Q2011.58 1518.6 2006.58 1518.6 M2006.58 1513.5 Q2014.57 1513.5 2018.77 1519.84 Q2023 1526.14 2023 1538.17 Q2023 1550.17 2018.77 1556.5 Q2014.57 1562.81 2006.58 1562.81 Q1998.59 1562.81 1994.36 1556.5 Q1990.15 1550.17 1990.15 1538.17 Q1990.15 1526.14 1994.36 1519.84 Q1998.59 1513.5 2006.58 1513.5 Z" fill="#000000" fill-rule="evenodd" fill-opacity="1" /><path clip-path="url(#clip460)" d="M2068.26 1512.42 Q2064 1519.74 2061.93 1526.9 Q2059.86 1534.07 2059.86 1541.42 Q2059.86 1548.77 2061.93 1556 Q2064.03 1563.19 2068.26 1570.48 L2063.17 1570.48 Q2058.4 1563 2056.01 1555.77 Q2053.65 1548.55 2053.65 1541.42 Q2053.65 1534.32 2056.01 1527.13 Q2058.36 1519.93 2063.17 1512.42 L2068.26 1512.42 Z" fill="#000000" fill-rule="evenodd" fill-opacity="1" /><path clip-path="url(#clip460)" d="M2079.4 1512.36 L2085.29 1512.36 L2085.29 1541.61 L2102.76 1526.24 L2110.24 1526.24 L2091.34 1542.91 L2111.04 1561.88 L2103.4 1561.88 L2085.29 1544.47 L2085.29 1561.88 L2079.4 1561.88 L2079.4 1512.36 Z" fill="#000000" fill-rule="evenodd" fill-opacity="1" /><path clip-path="url(#clip460)" d="M2124.06 1519.65 L2124.06 1537.5 L2132.14 1537.5 Q2136.63 1537.5 2139.08 1535.18 Q2141.53 1532.86 2141.53 1528.56 Q2141.53 1524.29 2139.08 1521.97 Q2136.63 1519.65 2132.14 1519.65 L2124.06 1519.65 M2117.63 1514.36 L2132.14 1514.36 Q2140.13 1514.36 2144.2 1517.99 Q2148.31 1521.59 2148.31 1528.56 Q2148.31 1535.59 2144.2 1539.19 Q2140.13 1542.79 2132.14 1542.79 L2124.06 1542.79 L2124.06 1561.88 L2117.63 1561.88 L2117.63 1514.36 Z" fill="#000000" fill-rule="evenodd" fill-opacity="1" /><path clip-path="url(#clip460)" d="M2169.95 1543.96 Q2162.86 1543.96 2160.12 1545.59 Q2157.38 1547.21 2157.38 1551.13 Q2157.38 1554.24 2159.42 1556.09 Q2161.49 1557.91 2165.02 1557.91 Q2169.89 1557.91 2172.82 1554.47 Q2175.78 1551 2175.78 1545.27 L2175.78 1543.96 L2169.95 1543.96 M2181.64 1541.55 L2181.64 1561.88 L2175.78 1561.88 L2175.78 1556.47 Q2173.77 1559.72 2170.78 1561.28 Q2167.79 1562.81 2163.46 1562.81 Q2157.99 1562.81 2154.74 1559.75 Q2151.53 1556.66 2151.53 1551.51 Q2151.53 1545.49 2155.54 1542.44 Q2159.58 1539.38 2167.57 1539.38 L2175.78 1539.38 L2175.78 1538.81 Q2175.78 1534.77 2173.11 1532.57 Q2170.46 1530.34 2165.66 1530.34 Q2162.6 1530.34 2159.71 1531.07 Q2156.81 1531.81 2154.14 1533.27 L2154.14 1527.86 Q2157.35 1526.62 2160.37 1526.01 Q2163.4 1525.38 2166.26 1525.38 Q2174 1525.38 2177.82 1529.39 Q2181.64 1533.4 2181.64 1541.55 Z" fill="#000000" fill-rule="evenodd" fill-opacity="1" /><path clip-path="url(#clip460)" d="M2192.78 1512.42 L2197.87 1512.42 Q2202.64 1519.93 2205 1527.13 Q2207.38 1534.32 2207.38 1541.42 Q2207.38 1548.55 2205 1555.77 Q2202.64 1563 2197.87 1570.48 L2192.78 1570.48 Q2197.01 1563.19 2199.08 1556 Q2201.18 1548.77 2201.18 1541.42 Q2201.18 1534.07 2199.08 1526.9 Q2197.01 1519.74 2192.78 1512.42 Z" fill="#000000" fill-rule="evenodd" fill-opacity="1" /><polyline clip-path="url(#clip463)" style="stroke:#000000; stroke-linecap:butt; stroke-linejoin:round; stroke-width:2; stroke-opacity:0.1; fill:none" points="
  1568.76,1358.19 2556.43,1358.19 
  "/>
<polyline clip-path="url(#clip463)" style="stroke:#000000; stroke-linecap:butt; stroke-linejoin:round; stroke-width:2; stroke-opacity:0.1; fill:none" points="
  1568.76,1094.3 2556.43,1094.3 
  "/>
<polyline clip-path="url(#clip463)" style="stroke:#000000; stroke-linecap:butt; stroke-linejoin:round; stroke-width:2; stroke-opacity:0.1; fill:none" points="
  1568.76,830.422 2556.43,830.422 
  "/>
<polyline clip-path="url(#clip463)" style="stroke:#000000; stroke-linecap:butt; stroke-linejoin:round; stroke-width:2; stroke-opacity:0.1; fill:none" points="
  1568.76,566.54 2556.43,566.54 
  "/>
<polyline clip-path="url(#clip463)" style="stroke:#000000; stroke-linecap:butt; stroke-linejoin:round; stroke-width:2; stroke-opacity:0.1; fill:none" points="
  1568.76,302.658 2556.43,302.658 
  "/>
<polyline clip-path="url(#clip460)" style="stroke:#000000; stroke-linecap:butt; stroke-linejoin:round; stroke-width:4; stroke-opacity:1; fill:none" points="
  1568.76,1393.02 1568.76,162.272 
  "/>
<polyline clip-path="url(#clip460)" style="stroke:#000000; stroke-linecap:butt; stroke-linejoin:round; stroke-width:4; stroke-opacity:1; fill:none" points="
  1568.76,1358.19 1587.66,1358.19 
  "/>
<polyline clip-path="url(#clip460)" style="stroke:#000000; stroke-linecap:butt; stroke-linejoin:round; stroke-width:4; stroke-opacity:1; fill:none" points="
  1568.76,1094.3 1587.66,1094.3 
  "/>
<polyline clip-path="url(#clip460)" style="stroke:#000000; stroke-linecap:butt; stroke-linejoin:round; stroke-width:4; stroke-opacity:1; fill:none" points="
  1568.76,830.422 1587.66,830.422 
  "/>
<polyline clip-path="url(#clip460)" style="stroke:#000000; stroke-linecap:butt; stroke-linejoin:round; stroke-width:4; stroke-opacity:1; fill:none" points="
  1568.76,566.54 1587.66,566.54 
  "/>
<polyline clip-path="url(#clip460)" style="stroke:#000000; stroke-linecap:butt; stroke-linejoin:round; stroke-width:4; stroke-opacity:1; fill:none" points="
  1568.76,302.658 1587.66,302.658 
  "/>
<path clip-path="url(#clip460)" d="M1496.82 1343.99 Q1493.21 1343.99 1491.38 1347.55 Q1489.57 1351.09 1489.57 1358.22 Q1489.57 1365.33 1491.38 1368.89 Q1493.21 1372.43 1496.82 1372.43 Q1500.45 1372.43 1502.26 1368.89 Q1504.09 1365.33 1504.09 1358.22 Q1504.09 1351.09 1502.26 1347.55 Q1500.45 1343.99 1496.82 1343.99 M1496.82 1340.28 Q1502.63 1340.28 1505.68 1344.89 Q1508.76 1349.47 1508.76 1358.22 Q1508.76 1366.95 1505.68 1371.56 Q1502.63 1376.14 1496.82 1376.14 Q1491.01 1376.14 1487.93 1371.56 Q1484.87 1366.95 1484.87 1358.22 Q1484.87 1349.47 1487.93 1344.89 Q1491.01 1340.28 1496.82 1340.28 Z" fill="#000000" fill-rule="evenodd" fill-opacity="1" /><path clip-path="url(#clip460)" d="M1488.86 1107.65 L1496.49 1107.65 L1496.49 1081.28 L1488.18 1082.95 L1488.18 1078.69 L1496.45 1077.02 L1501.12 1077.02 L1501.12 1107.65 L1508.76 1107.65 L1508.76 1111.58 L1488.86 1111.58 L1488.86 1107.65 Z" fill="#000000" fill-rule="evenodd" fill-opacity="1" /><path clip-path="url(#clip460)" d="M1492.44 843.767 L1508.76 843.767 L1508.76 847.702 L1486.82 847.702 L1486.82 843.767 Q1489.48 841.013 1494.06 836.383 Q1498.67 831.73 1499.85 830.388 Q1502.1 827.865 1502.98 826.129 Q1503.88 824.369 1503.88 822.679 Q1503.88 819.925 1501.93 818.189 Q1500.01 816.453 1496.91 816.453 Q1494.71 816.453 1492.26 817.217 Q1489.83 817.98 1487.05 819.531 L1487.05 814.809 Q1489.87 813.675 1492.33 813.096 Q1494.78 812.517 1496.82 812.517 Q1502.19 812.517 1505.38 815.203 Q1508.58 817.888 1508.58 822.379 Q1508.58 824.508 1507.77 826.429 Q1506.98 828.328 1504.87 830.92 Q1504.3 831.591 1501.19 834.809 Q1498.09 838.003 1492.44 843.767 Z" fill="#000000" fill-rule="evenodd" fill-opacity="1" /><path clip-path="url(#clip460)" d="M1501.63 565.186 Q1504.99 565.904 1506.86 568.172 Q1508.76 570.441 1508.76 573.774 Q1508.76 578.89 1505.24 581.69 Q1501.73 584.491 1495.24 584.491 Q1493.07 584.491 1490.75 584.052 Q1488.46 583.635 1486.01 582.778 L1486.01 578.265 Q1487.95 579.399 1490.27 579.978 Q1492.58 580.556 1495.11 580.556 Q1499.5 580.556 1501.8 578.82 Q1504.11 577.084 1504.11 573.774 Q1504.11 570.718 1501.96 569.005 Q1499.83 567.269 1496.01 567.269 L1491.98 567.269 L1491.98 563.427 L1496.19 563.427 Q1499.64 563.427 1501.47 562.061 Q1503.3 560.672 1503.3 558.079 Q1503.3 555.417 1501.4 554.005 Q1499.53 552.57 1496.01 552.57 Q1494.09 552.57 1491.89 552.987 Q1489.69 553.404 1487.05 554.283 L1487.05 550.117 Q1489.71 549.376 1492.03 549.005 Q1494.36 548.635 1496.42 548.635 Q1501.75 548.635 1504.85 551.066 Q1507.95 553.473 1507.95 557.593 Q1507.95 560.464 1506.31 562.454 Q1504.67 564.422 1501.63 565.186 Z" fill="#000000" fill-rule="evenodd" fill-opacity="1" /><path clip-path="url(#clip460)" d="M1499.18 289.452 L1487.37 307.901 L1499.18 307.901 L1499.18 289.452 M1497.95 285.378 L1503.83 285.378 L1503.83 307.901 L1508.76 307.901 L1508.76 311.79 L1503.83 311.79 L1503.83 319.938 L1499.18 319.938 L1499.18 311.79 L1483.58 311.79 L1483.58 307.276 L1497.95 285.378 Z" fill="#000000" fill-rule="evenodd" fill-opacity="1" /><path clip-path="url(#clip460)" d="M1373.67 876.171 L1373.67 848.353 L1379.02 848.353 L1404.64 870.378 L1404.64 848.353 L1409.32 848.353 L1409.32 876.967 L1403.97 876.967 L1378.35 854.942 L1378.35 876.171 L1373.67 876.171 Z" fill="#000000" fill-rule="evenodd" fill-opacity="1" /><path clip-path="url(#clip460)" d="M1359.86 804.621 Q1367.18 808.886 1374.34 810.955 Q1381.5 813.023 1388.86 813.023 Q1396.21 813.023 1403.43 810.955 Q1410.63 808.854 1417.92 804.621 L1417.92 809.713 Q1410.44 814.488 1403.21 816.875 Q1395.99 819.23 1388.86 819.23 Q1381.76 819.23 1374.56 816.875 Q1367.37 814.519 1359.86 809.713 L1359.86 804.621 Z" fill="#000000" fill-rule="evenodd" fill-opacity="1" /><path clip-path="url(#clip460)" d="M1359.8 793.481 L1359.8 787.592 L1389.05 787.592 L1373.67 770.119 L1373.67 762.639 L1390.35 781.545 L1409.32 761.843 L1409.32 769.482 L1391.91 787.592 L1409.32 787.592 L1409.32 793.481 L1359.8 793.481 Z" fill="#000000" fill-rule="evenodd" fill-opacity="1" /><path clip-path="url(#clip460)" d="M1380.52 727.755 Q1376.57 725.559 1374.69 722.503 Q1372.81 719.448 1372.81 715.31 Q1372.81 709.74 1376.73 706.716 Q1380.61 703.692 1387.81 703.692 L1409.32 703.692 L1409.32 709.581 L1388 709.581 Q1382.87 709.581 1380.39 711.395 Q1377.91 713.209 1377.91 716.933 Q1377.91 721.485 1380.93 724.126 Q1383.95 726.768 1389.17 726.768 L1409.32 726.768 L1409.32 732.656 L1388 732.656 Q1382.84 732.656 1380.39 734.471 Q1377.91 736.285 1377.91 740.072 Q1377.91 744.56 1380.96 747.202 Q1383.99 749.844 1389.17 749.844 L1409.32 749.844 L1409.32 755.732 L1373.67 755.732 L1373.67 749.844 L1379.21 749.844 Q1375.93 747.839 1374.37 745.038 Q1372.81 742.237 1372.81 738.385 Q1372.81 734.502 1374.79 731.797 Q1376.76 729.06 1380.52 727.755 Z" fill="#000000" fill-rule="evenodd" fill-opacity="1" /><path clip-path="url(#clip460)" d="M1359.86 692.934 L1359.86 687.842 Q1367.37 683.067 1374.56 680.712 Q1381.76 678.325 1388.86 678.325 Q1395.99 678.325 1403.21 680.712 Q1410.44 683.067 1417.92 687.842 L1417.92 692.934 Q1410.63 688.701 1403.43 686.632 Q1396.21 684.532 1388.86 684.532 Q1381.5 684.532 1374.34 686.632 Q1367.18 688.701 1359.86 692.934 Z" fill="#000000" fill-rule="evenodd" fill-opacity="1" /><path clip-path="url(#clip460)" d="M1885.82 65.7705 L1885.82 89.8329 L1878.32 89.8329 L1878.32 27.2059 L1885.82 27.2059 L1885.82 34.0924 Q1888.16 30.0415 1891.73 28.0971 Q1895.33 26.1121 1900.32 26.1121 Q1908.58 26.1121 1913.73 32.6746 Q1918.91 39.2371 1918.91 49.9314 Q1918.91 60.6258 1913.73 67.1883 Q1908.58 73.7508 1900.32 73.7508 Q1895.33 73.7508 1891.73 71.8063 Q1888.16 69.8214 1885.82 65.7705 M1911.17 49.9314 Q1911.17 41.7081 1907.77 37.0496 Q1904.41 32.3505 1898.49 32.3505 Q1892.58 32.3505 1889.18 37.0496 Q1885.82 41.7081 1885.82 49.9314 Q1885.82 58.1548 1889.18 62.8538 Q1892.58 67.5124 1898.49 67.5124 Q1904.41 67.5124 1907.77 62.8538 Q1911.17 58.1548 1911.17 49.9314 Z" fill="#000000" fill-rule="evenodd" fill-opacity="1" /><path clip-path="url(#clip460)" d="M1965.74 86.3491 L1965.74 92.1419 L1922.64 92.1419 L1922.64 86.3491 L1965.74 86.3491 Z" fill="#000000" fill-rule="evenodd" fill-opacity="1" /><path clip-path="url(#clip460)" d="M1991.3 17.4837 Q1984.98 17.4837 1981.78 23.7221 Q1978.62 29.92 1978.62 42.3968 Q1978.62 54.833 1981.78 61.0714 Q1984.98 67.2693 1991.3 67.2693 Q1997.66 67.2693 2000.82 61.0714 Q2004.02 54.833 2004.02 42.3968 Q2004.02 29.92 2000.82 23.7221 Q1997.66 17.4837 1991.3 17.4837 M1991.3 11.0023 Q2001.47 11.0023 2006.82 19.0636 Q2012.2 27.0843 2012.2 42.3968 Q2012.2 57.6687 2006.82 65.73 Q2001.47 73.7508 1991.3 73.7508 Q1981.13 73.7508 1975.75 65.73 Q1970.4 57.6687 1970.4 42.3968 Q1970.4 27.0843 1975.75 19.0636 Q1981.13 11.0023 1991.3 11.0023 Z" fill="#000000" fill-rule="evenodd" fill-opacity="1" /><path clip-path="url(#clip460)" d="M2069.81 9.62495 Q2064.38 18.942 2061.75 28.0566 Q2059.11 37.1711 2059.11 46.5287 Q2059.11 55.8863 2061.75 65.0818 Q2064.42 74.2369 2069.81 83.5134 L2063.33 83.5134 Q2057.25 73.9938 2054.21 64.7983 Q2051.21 55.6027 2051.21 46.5287 Q2051.21 37.4952 2054.21 28.3401 Q2057.21 19.1851 2063.33 9.62495 L2069.81 9.62495 Z" fill="#000000" fill-rule="evenodd" fill-opacity="1" /><path clip-path="url(#clip460)" d="M2083.99 9.54393 L2091.48 9.54393 L2091.48 46.7717 L2113.72 27.2059 L2123.24 27.2059 L2099.18 48.4326 L2124.25 72.576 L2114.53 72.576 L2091.48 50.4176 L2091.48 72.576 L2083.99 72.576 L2083.99 9.54393 Z" fill="#000000" fill-rule="evenodd" fill-opacity="1" /><path clip-path="url(#clip460)" d="M2140.82 18.8205 L2140.82 41.5461 L2151.11 41.5461 Q2156.82 41.5461 2159.94 38.5889 Q2163.06 35.6318 2163.06 30.163 Q2163.06 24.7348 2159.94 21.7777 Q2156.82 18.8205 2151.11 18.8205 L2140.82 18.8205 M2132.64 12.096 L2151.11 12.096 Q2161.28 12.096 2166.46 16.714 Q2171.69 21.2916 2171.69 30.163 Q2171.69 39.1155 2166.46 43.6931 Q2161.28 48.2706 2151.11 48.2706 L2140.82 48.2706 L2140.82 72.576 L2132.64 72.576 L2132.64 12.096 Z" fill="#000000" fill-rule="evenodd" fill-opacity="1" /><path clip-path="url(#clip460)" d="M2199.23 49.7694 Q2190.2 49.7694 2186.72 51.8354 Q2183.23 53.9013 2183.23 58.8839 Q2183.23 62.8538 2185.83 65.2034 Q2188.46 67.5124 2192.95 67.5124 Q2199.15 67.5124 2202.88 63.1374 Q2206.65 58.7219 2206.65 51.4303 L2206.65 49.7694 L2199.23 49.7694 M2214.1 46.6907 L2214.1 72.576 L2206.65 72.576 L2206.65 65.6895 Q2204.09 69.8214 2200.29 71.8063 Q2196.48 73.7508 2190.97 73.7508 Q2184 73.7508 2179.87 69.8619 Q2175.78 65.9325 2175.78 59.3701 Q2175.78 51.7138 2180.88 47.825 Q2186.03 43.9361 2196.2 43.9361 L2206.65 43.9361 L2206.65 43.2069 Q2206.65 38.0623 2203.24 35.2672 Q2199.88 32.4315 2193.76 32.4315 Q2189.88 32.4315 2186.19 33.3632 Q2182.5 34.295 2179.1 36.1584 L2179.1 29.2718 Q2183.19 27.692 2187.04 26.9223 Q2190.89 26.1121 2194.53 26.1121 Q2204.38 26.1121 2209.24 31.2163 Q2214.1 36.3204 2214.1 46.6907 Z" fill="#000000" fill-rule="evenodd" fill-opacity="1" /><path clip-path="url(#clip460)" d="M2228.28 9.62495 L2234.76 9.62495 Q2240.84 19.1851 2243.83 28.3401 Q2246.87 37.4952 2246.87 46.5287 Q2246.87 55.6027 2243.83 64.7983 Q2240.84 73.9938 2234.76 83.5134 L2228.28 83.5134 Q2233.67 74.2369 2236.3 65.0818 Q2238.97 55.8863 2238.97 46.5287 Q2238.97 37.1711 2236.3 28.0566 Q2233.67 18.942 2228.28 9.62495 Z" fill="#000000" fill-rule="evenodd" fill-opacity="1" /><polyline clip-path="url(#clip463)" style="stroke:#009af9; stroke-linecap:butt; stroke-linejoin:round; stroke-width:4; stroke-opacity:1; fill:none" points="
  2522.02,1351.59 2509.13,1338.4 2496.3,1325.2 2483.51,1312.01 2470.78,1298.81 2458.11,1285.62 2445.48,1272.43 2432.91,1259.23 2420.38,1246.04 2407.91,1232.84 
  2395.49,1219.65 2383.12,1206.45 2370.8,1193.26 2358.53,1180.07 2346.32,1166.87 2334.15,1153.68 2322.05,1140.48 2310,1127.29 2298.02,1114.1 2286.09,1100.9 
  2274.22,1087.71 2262.41,1074.51 2250.66,1061.32 2238.96,1048.13 2227.33,1034.93 2215.75,1021.74 2204.23,1008.54 2192.76,995.349 2181.36,982.155 2170.01,968.961 
  2158.71,955.767 2147.47,942.572 2136.29,929.378 2125.17,916.184 2114.1,902.99 2103.08,889.796 2092.12,876.602 2081.21,863.408 2070.36,850.214 2059.56,837.02 
  2048.82,823.825 2038.13,810.631 2027.5,797.437 2016.92,784.243 2006.39,771.049 1995.91,757.855 1985.49,744.661 1975.12,731.467 1964.8,718.272 1954.53,705.078 
  1944.32,691.884 1934.16,678.69 1924.05,665.496 1913.99,652.302 1903.98,639.108 1894.02,625.914 1884.11,612.719 1874.25,599.525 1864.45,586.331 1854.69,573.137 
  1844.98,559.943 1835.33,546.749 1825.72,533.555 1816.16,520.361 1806.65,507.167 1797.19,493.972 1787.77,480.778 1778.41,467.584 1769.09,454.39 1759.82,441.196 
  1750.6,428.002 1741.42,414.808 1732.3,401.614 1723.22,388.419 1714.18,375.225 1705.2,362.031 1696.26,348.837 1687.36,335.643 1678.52,322.449 1669.71,309.255 
  1660.96,296.061 1652.25,282.867 1643.58,269.672 1634.96,256.478 1626.38,243.284 1617.85,230.09 1609.36,216.896 1600.92,203.702 
  "/>
<polyline clip-path="url(#clip463)" style="stroke:#e26f46; stroke-linecap:butt; stroke-linejoin:round; stroke-width:4; stroke-opacity:1; fill:none" points="
  2528.48,1358.19 2515.57,1344.99 2502.71,1331.8 2489.9,1318.6 2477.14,1305.41 2464.44,1292.22 2451.79,1279.02 2439.19,1265.83 2426.64,1252.63 2414.14,1239.44 
  2401.69,1226.25 2389.3,1213.05 2376.96,1199.86 2364.66,1186.66 2352.42,1173.47 2340.23,1160.28 2328.09,1147.08 2316.02,1133.89 2304,1120.69 2292.04,1107.5 
  2280.15,1094.3 2268.31,1081.11 2256.53,1067.92 2244.8,1054.72 2233.14,1041.53 2221.53,1028.33 2209.98,1015.14 2198.49,1001.95 2187.05,988.752 2175.67,975.558 
  2164.35,962.364 2153.09,949.17 2141.88,935.975 2130.72,922.781 2119.62,909.587 2108.58,896.393 2097.59,883.199 2086.66,870.005 2075.78,856.811 2064.96,843.617 
  2054.19,830.422 2043.47,817.228 2032.81,804.034 2022.2,790.84 2011.64,777.646 2001.14,764.452 1990.69,751.258 1980.3,738.064 1969.95,724.87 1959.66,711.675 
  1949.42,698.481 1939.23,685.287 1929.09,672.093 1919.01,658.899 1908.97,645.705 1898.99,632.511 1889.06,619.317 1879.18,606.122 1869.34,592.928 1859.56,579.734 
  1849.83,566.54 1840.15,553.346 1830.52,540.152 1820.93,526.958 1811.4,513.764 1801.91,500.569 1792.47,487.375 1783.08,474.181 1773.74,460.987 1764.45,447.793 
  1755.2,434.599 1746.01,421.405 1736.86,408.211 1727.75,395.017 1718.7,381.822 1709.69,368.628 1700.72,355.434 1691.8,342.24 1682.93,329.046 1674.11,315.852 
  1665.33,302.658 1656.6,289.464 1647.91,276.269 1639.26,263.075 1630.66,249.881 1622.11,236.687 1613.6,223.493 1605.14,210.299 1596.72,197.105 
  "/>
<path clip-path="url(#clip460)" d="
M1951.22 358.817 L2523.51 358.817 L2523.51 203.297 L1951.22 203.297  Z
  " fill="#ffffff" fill-rule="evenodd" fill-opacity="1"/>
<polyline clip-path="url(#clip460)" style="stroke:#000000; stroke-linecap:butt; stroke-linejoin:round; stroke-width:4; stroke-opacity:1; fill:none" points="
  1951.22,358.817 2523.51,358.817 2523.51,203.297 1951.22,203.297 1951.22,358.817 
  "/>
<polyline clip-path="url(#clip460)" style="stroke:#009af9; stroke-linecap:butt; stroke-linejoin:round; stroke-width:4; stroke-opacity:1; fill:none" points="
  1991.22,255.137 2231.22,255.137 
  "/>
<path clip-path="url(#clip460)" d="M2291.73 247.487 L2291.73 251.468 Q2289.92 250.473 2288.09 249.987 Q2286.29 249.477 2284.43 249.477 Q2280.29 249.477 2278 252.116 Q2275.71 254.732 2275.71 259.477 Q2275.71 264.223 2278 266.862 Q2280.29 269.477 2284.43 269.477 Q2286.29 269.477 2288.09 268.991 Q2289.92 268.482 2291.73 267.487 L2291.73 271.422 Q2289.94 272.255 2288.02 272.672 Q2286.12 273.088 2283.97 273.088 Q2278.12 273.088 2274.67 269.408 Q2271.22 265.727 2271.22 259.477 Q2271.22 253.135 2274.69 249.501 Q2278.18 245.866 2284.25 245.866 Q2286.22 245.866 2288.09 246.283 Q2289.97 246.677 2291.73 247.487 Z" fill="#000000" fill-rule="evenodd" fill-opacity="1" /><path clip-path="url(#clip460)" d="M2321.31 258.389 L2321.31 260.473 L2301.73 260.473 Q2302 264.871 2304.37 267.186 Q2306.75 269.477 2310.99 269.477 Q2313.44 269.477 2315.73 268.876 Q2318.05 268.274 2320.31 267.07 L2320.31 271.098 Q2318.02 272.07 2315.62 272.579 Q2313.21 273.088 2310.73 273.088 Q2304.53 273.088 2300.89 269.477 Q2297.28 265.866 2297.28 259.709 Q2297.28 253.343 2300.71 249.616 Q2304.16 245.866 2309.99 245.866 Q2315.22 245.866 2318.25 249.246 Q2321.31 252.602 2321.31 258.389 M2317.05 257.139 Q2317 253.644 2315.08 251.561 Q2313.18 249.477 2310.04 249.477 Q2306.47 249.477 2304.32 251.491 Q2302.19 253.505 2301.87 257.163 L2317.05 257.139 Z" fill="#000000" fill-rule="evenodd" fill-opacity="1" /><path clip-path="url(#clip460)" d="M2349.85 256.769 L2349.85 272.417 L2345.59 272.417 L2345.59 256.908 Q2345.59 253.227 2344.16 251.399 Q2342.72 249.57 2339.85 249.57 Q2336.4 249.57 2334.41 251.769 Q2332.42 253.968 2332.42 257.764 L2332.42 272.417 L2328.14 272.417 L2328.14 246.491 L2332.42 246.491 L2332.42 250.519 Q2333.95 248.181 2336.01 247.024 Q2338.09 245.866 2340.8 245.866 Q2345.27 245.866 2347.56 248.644 Q2349.85 251.399 2349.85 256.769 Z" fill="#000000" fill-rule="evenodd" fill-opacity="1" /><path clip-path="url(#clip460)" d="M2362.56 239.13 L2362.56 246.491 L2371.33 246.491 L2371.33 249.802 L2362.56 249.802 L2362.56 263.876 Q2362.56 267.047 2363.42 267.95 Q2364.3 268.852 2366.96 268.852 L2371.33 268.852 L2371.33 272.417 L2366.96 272.417 Q2362.03 272.417 2360.15 270.588 Q2358.28 268.737 2358.28 263.876 L2358.28 249.802 L2355.15 249.802 L2355.15 246.491 L2358.28 246.491 L2358.28 239.13 L2362.56 239.13 Z" fill="#000000" fill-rule="evenodd" fill-opacity="1" /><path clip-path="url(#clip460)" d="M2399.11 258.389 L2399.11 260.473 L2379.53 260.473 Q2379.8 264.871 2382.17 267.186 Q2384.55 269.477 2388.79 269.477 Q2391.24 269.477 2393.53 268.876 Q2395.85 268.274 2398.11 267.07 L2398.11 271.098 Q2395.82 272.07 2393.42 272.579 Q2391.01 273.088 2388.53 273.088 Q2382.33 273.088 2378.69 269.477 Q2375.08 265.866 2375.08 259.709 Q2375.08 253.343 2378.51 249.616 Q2381.96 245.866 2387.79 245.866 Q2393.02 245.866 2396.05 249.246 Q2399.11 252.602 2399.11 258.389 M2394.85 257.139 Q2394.8 253.644 2392.88 251.561 Q2390.99 249.477 2387.84 249.477 Q2384.27 249.477 2382.12 251.491 Q2379.99 253.505 2379.67 257.163 L2394.85 257.139 Z" fill="#000000" fill-rule="evenodd" fill-opacity="1" /><path clip-path="url(#clip460)" d="M2421.12 250.473 Q2420.41 250.056 2419.55 249.871 Q2418.72 249.663 2417.7 249.663 Q2414.09 249.663 2412.14 252.024 Q2410.22 254.362 2410.22 258.76 L2410.22 272.417 L2405.94 272.417 L2405.94 246.491 L2410.22 246.491 L2410.22 250.519 Q2411.56 248.158 2413.72 247.024 Q2415.87 245.866 2418.95 245.866 Q2419.39 245.866 2419.92 245.936 Q2420.45 245.982 2421.1 246.098 L2421.12 250.473 Z" fill="#000000" fill-rule="evenodd" fill-opacity="1" /><path clip-path="url(#clip460)" d="M2442.12 247.255 L2442.12 251.283 Q2440.31 250.357 2438.37 249.894 Q2436.42 249.431 2434.34 249.431 Q2431.17 249.431 2429.57 250.403 Q2428 251.376 2428 253.32 Q2428 254.802 2429.13 255.658 Q2430.27 256.491 2433.69 257.255 L2435.15 257.579 Q2439.69 258.552 2441.59 260.334 Q2443.51 262.093 2443.51 265.264 Q2443.51 268.876 2440.64 270.982 Q2437.79 273.088 2432.79 273.088 Q2430.71 273.088 2428.44 272.672 Q2426.19 272.278 2423.69 271.468 L2423.69 267.07 Q2426.05 268.297 2428.35 268.922 Q2430.64 269.524 2432.88 269.524 Q2435.89 269.524 2437.51 268.505 Q2439.13 267.463 2439.13 265.589 Q2439.13 263.852 2437.95 262.926 Q2436.8 262.001 2432.84 261.144 L2431.36 260.797 Q2427.4 259.964 2425.64 258.251 Q2423.88 256.514 2423.88 253.505 Q2423.88 249.848 2426.47 247.857 Q2429.06 245.866 2433.83 245.866 Q2436.19 245.866 2438.28 246.214 Q2440.36 246.561 2442.12 247.255 Z" fill="#000000" fill-rule="evenodd" fill-opacity="1" /><polyline clip-path="url(#clip460)" style="stroke:#e26f46; stroke-linecap:butt; stroke-linejoin:round; stroke-width:4; stroke-opacity:1; fill:none" points="
  1991.22,306.977 2231.22,306.977 
  "/>
<path clip-path="url(#clip460)" d="M2287.72 288.239 L2287.72 291.78 L2283.65 291.78 Q2281.36 291.78 2280.45 292.706 Q2279.57 293.632 2279.57 296.04 L2279.57 298.331 L2286.59 298.331 L2286.59 301.642 L2279.57 301.642 L2279.57 324.257 L2275.29 324.257 L2275.29 301.642 L2271.22 301.642 L2271.22 298.331 L2275.29 298.331 L2275.29 296.526 Q2275.29 292.197 2277.31 290.23 Q2279.32 288.239 2283.69 288.239 L2287.72 288.239 Z" fill="#000000" fill-rule="evenodd" fill-opacity="1" /><path clip-path="url(#clip460)" d="M2303.07 311.225 Q2297.91 311.225 2295.92 312.405 Q2293.93 313.586 2293.93 316.433 Q2293.93 318.702 2295.41 320.044 Q2296.91 321.364 2299.48 321.364 Q2303.02 321.364 2305.15 318.864 Q2307.31 316.341 2307.31 312.174 L2307.31 311.225 L2303.07 311.225 M2311.56 309.466 L2311.56 324.257 L2307.31 324.257 L2307.31 320.322 Q2305.85 322.683 2303.67 323.817 Q2301.5 324.928 2298.35 324.928 Q2294.37 324.928 2292 322.706 Q2289.67 320.461 2289.67 316.711 Q2289.67 312.336 2292.58 310.114 Q2295.52 307.892 2301.33 307.892 L2307.31 307.892 L2307.31 307.475 Q2307.31 304.535 2305.36 302.938 Q2303.44 301.317 2299.94 301.317 Q2297.72 301.317 2295.62 301.85 Q2293.51 302.382 2291.56 303.447 L2291.56 299.512 Q2293.9 298.609 2296.1 298.169 Q2298.3 297.706 2300.38 297.706 Q2306.01 297.706 2308.79 300.623 Q2311.56 303.54 2311.56 309.466 Z" fill="#000000" fill-rule="evenodd" fill-opacity="1" /><path clip-path="url(#clip460)" d="M2338.99 299.327 L2338.99 303.308 Q2337.19 302.313 2335.36 301.827 Q2333.56 301.317 2331.7 301.317 Q2327.56 301.317 2325.27 303.956 Q2322.98 306.572 2322.98 311.317 Q2322.98 316.063 2325.27 318.702 Q2327.56 321.317 2331.7 321.317 Q2333.56 321.317 2335.36 320.831 Q2337.19 320.322 2338.99 319.327 L2338.99 323.262 Q2337.21 324.095 2335.29 324.512 Q2333.39 324.928 2331.24 324.928 Q2325.38 324.928 2321.93 321.248 Q2318.49 317.567 2318.49 311.317 Q2318.49 304.975 2321.96 301.341 Q2325.45 297.706 2331.52 297.706 Q2333.49 297.706 2335.36 298.123 Q2337.24 298.517 2338.99 299.327 Z" fill="#000000" fill-rule="evenodd" fill-opacity="1" /><path clip-path="url(#clip460)" d="M2368.58 310.229 L2368.58 312.313 L2348.99 312.313 Q2349.27 316.711 2351.63 319.026 Q2354.02 321.317 2358.25 321.317 Q2360.71 321.317 2363 320.716 Q2365.31 320.114 2367.58 318.91 L2367.58 322.938 Q2365.29 323.91 2362.88 324.419 Q2360.48 324.928 2358 324.928 Q2351.8 324.928 2348.16 321.317 Q2344.55 317.706 2344.55 311.549 Q2344.55 305.183 2347.98 301.456 Q2351.43 297.706 2357.26 297.706 Q2362.49 297.706 2365.52 301.086 Q2368.58 304.442 2368.58 310.229 M2364.32 308.979 Q2364.27 305.484 2362.35 303.401 Q2360.45 301.317 2357.3 301.317 Q2353.74 301.317 2351.59 303.331 Q2349.46 305.345 2349.13 309.003 L2364.32 308.979 Z" fill="#000000" fill-rule="evenodd" fill-opacity="1" /><path clip-path="url(#clip460)" d="M2392.1 299.095 L2392.1 303.123 Q2390.29 302.197 2388.35 301.734 Q2386.4 301.271 2384.32 301.271 Q2381.15 301.271 2379.55 302.243 Q2377.98 303.216 2377.98 305.16 Q2377.98 306.642 2379.11 307.498 Q2380.24 308.331 2383.67 309.095 L2385.13 309.419 Q2389.67 310.392 2391.56 312.174 Q2393.49 313.933 2393.49 317.104 Q2393.49 320.716 2390.61 322.822 Q2387.77 324.928 2382.77 324.928 Q2380.68 324.928 2378.42 324.512 Q2376.17 324.118 2373.67 323.308 L2373.67 318.91 Q2376.03 320.137 2378.32 320.762 Q2380.62 321.364 2382.86 321.364 Q2385.87 321.364 2387.49 320.345 Q2389.11 319.303 2389.11 317.429 Q2389.11 315.692 2387.93 314.766 Q2386.77 313.841 2382.81 312.984 L2381.33 312.637 Q2377.37 311.804 2375.62 310.091 Q2373.86 308.354 2373.86 305.345 Q2373.86 301.688 2376.45 299.697 Q2379.04 297.706 2383.81 297.706 Q2386.17 297.706 2388.25 298.054 Q2390.34 298.401 2392.1 299.095 Z" fill="#000000" fill-rule="evenodd" fill-opacity="1" /><path clip-path="url(#clip460)" d="
M2902.1 1393.02 L3889.76 1393.02 L3889.76 162.272 L2902.1 162.272  Z
  " fill="#ffffff" fill-rule="evenodd" fill-opacity="1"/>
<defs>
  <clipPath id="clip464">
    <rect x="2902" y="162" width="989" height="1232"/>
  </clipPath>
</defs>
<polyline clip-path="url(#clip464)" style="stroke:#000000; stroke-linecap:butt; stroke-linejoin:round; stroke-width:2; stroke-opacity:0.1; fill:none" points="
  2943.27,1393.02 2943.27,162.272 
  "/>
<polyline clip-path="url(#clip464)" style="stroke:#000000; stroke-linecap:butt; stroke-linejoin:round; stroke-width:2; stroke-opacity:0.1; fill:none" points="
  3136.31,1393.02 3136.31,162.272 
  "/>
<polyline clip-path="url(#clip464)" style="stroke:#000000; stroke-linecap:butt; stroke-linejoin:round; stroke-width:2; stroke-opacity:0.1; fill:none" points="
  3329.34,1393.02 3329.34,162.272 
  "/>
<polyline clip-path="url(#clip464)" style="stroke:#000000; stroke-linecap:butt; stroke-linejoin:round; stroke-width:2; stroke-opacity:0.1; fill:none" points="
  3522.38,1393.02 3522.38,162.272 
  "/>
<polyline clip-path="url(#clip464)" style="stroke:#000000; stroke-linecap:butt; stroke-linejoin:round; stroke-width:2; stroke-opacity:0.1; fill:none" points="
  3715.41,1393.02 3715.41,162.272 
  "/>
<polyline clip-path="url(#clip460)" style="stroke:#000000; stroke-linecap:butt; stroke-linejoin:round; stroke-width:4; stroke-opacity:1; fill:none" points="
  2902.1,1393.02 3889.76,1393.02 
  "/>
<polyline clip-path="url(#clip460)" style="stroke:#000000; stroke-linecap:butt; stroke-linejoin:round; stroke-width:4; stroke-opacity:1; fill:none" points="
  2943.27,1393.02 2943.27,1374.12 
  "/>
<polyline clip-path="url(#clip460)" style="stroke:#000000; stroke-linecap:butt; stroke-linejoin:round; stroke-width:4; stroke-opacity:1; fill:none" points="
  3136.31,1393.02 3136.31,1374.12 
  "/>
<polyline clip-path="url(#clip460)" style="stroke:#000000; stroke-linecap:butt; stroke-linejoin:round; stroke-width:4; stroke-opacity:1; fill:none" points="
  3329.34,1393.02 3329.34,1374.12 
  "/>
<polyline clip-path="url(#clip460)" style="stroke:#000000; stroke-linecap:butt; stroke-linejoin:round; stroke-width:4; stroke-opacity:1; fill:none" points="
  3522.38,1393.02 3522.38,1374.12 
  "/>
<polyline clip-path="url(#clip460)" style="stroke:#000000; stroke-linecap:butt; stroke-linejoin:round; stroke-width:4; stroke-opacity:1; fill:none" points="
  3715.41,1393.02 3715.41,1374.12 
  "/>
<path clip-path="url(#clip460)" d="M2920.75 1436.74 Q2917.14 1436.74 2915.31 1440.3 Q2913.5 1443.84 2913.5 1450.97 Q2913.5 1458.08 2915.31 1461.65 Q2917.14 1465.19 2920.75 1465.19 Q2924.38 1465.19 2926.19 1461.65 Q2928.02 1458.08 2928.02 1450.97 Q2928.02 1443.84 2926.19 1440.3 Q2924.38 1436.74 2920.75 1436.74 M2920.75 1433.03 Q2926.56 1433.03 2929.62 1437.64 Q2932.69 1442.22 2932.69 1450.97 Q2932.69 1459.7 2929.62 1464.31 Q2926.56 1468.89 2920.75 1468.89 Q2914.94 1468.89 2911.86 1464.31 Q2908.81 1459.7 2908.81 1450.97 Q2908.81 1442.22 2911.86 1437.64 Q2914.94 1433.03 2920.75 1433.03 Z" fill="#000000" fill-rule="evenodd" fill-opacity="1" /><path clip-path="url(#clip460)" d="M2940.91 1462.34 L2945.8 1462.34 L2945.8 1468.22 L2940.91 1468.22 L2940.91 1462.34 Z" fill="#000000" fill-rule="evenodd" fill-opacity="1" /><path clip-path="url(#clip460)" d="M2956.12 1467.5 L2956.12 1463.24 Q2957.88 1464.08 2959.68 1464.52 Q2961.49 1464.96 2963.23 1464.96 Q2967.86 1464.96 2970.29 1461.85 Q2972.74 1458.73 2973.09 1452.39 Q2971.74 1454.38 2969.68 1455.44 Q2967.62 1456.51 2965.12 1456.51 Q2959.94 1456.51 2956.91 1453.38 Q2953.9 1450.23 2953.9 1444.79 Q2953.9 1439.47 2957.05 1436.25 Q2960.19 1433.03 2965.43 1433.03 Q2971.42 1433.03 2974.57 1437.64 Q2977.74 1442.22 2977.74 1450.97 Q2977.74 1459.15 2973.85 1464.03 Q2969.99 1468.89 2963.43 1468.89 Q2961.68 1468.89 2959.87 1468.54 Q2958.06 1468.2 2956.12 1467.5 M2965.43 1452.85 Q2968.57 1452.85 2970.4 1450.7 Q2972.25 1448.54 2972.25 1444.79 Q2972.25 1441.07 2970.4 1438.91 Q2968.57 1436.74 2965.43 1436.74 Q2962.28 1436.74 2960.43 1438.91 Q2958.6 1441.07 2958.6 1444.79 Q2958.6 1448.54 2960.43 1450.7 Q2962.28 1452.85 2965.43 1452.85 Z" fill="#000000" fill-rule="evenodd" fill-opacity="1" /><path clip-path="url(#clip460)" d="M3103.46 1464.28 L3111.1 1464.28 L3111.1 1437.92 L3102.79 1439.59 L3102.79 1435.33 L3111.05 1433.66 L3115.73 1433.66 L3115.73 1464.28 L3123.37 1464.28 L3123.37 1468.22 L3103.46 1468.22 L3103.46 1464.28 Z" fill="#000000" fill-rule="evenodd" fill-opacity="1" /><path clip-path="url(#clip460)" d="M3132.81 1462.34 L3137.7 1462.34 L3137.7 1468.22 L3132.81 1468.22 L3132.81 1462.34 Z" fill="#000000" fill-rule="evenodd" fill-opacity="1" /><path clip-path="url(#clip460)" d="M3157.88 1436.74 Q3154.27 1436.74 3152.44 1440.3 Q3150.64 1443.84 3150.64 1450.97 Q3150.64 1458.08 3152.44 1461.65 Q3154.27 1465.19 3157.88 1465.19 Q3161.52 1465.19 3163.32 1461.65 Q3165.15 1458.08 3165.15 1450.97 Q3165.15 1443.84 3163.32 1440.3 Q3161.52 1436.74 3157.88 1436.74 M3157.88 1433.03 Q3163.69 1433.03 3166.75 1437.64 Q3169.83 1442.22 3169.83 1450.97 Q3169.83 1459.7 3166.75 1464.31 Q3163.69 1468.89 3157.88 1468.89 Q3152.07 1468.89 3148.99 1464.31 Q3145.94 1459.7 3145.94 1450.97 Q3145.94 1442.22 3148.99 1437.64 Q3152.07 1433.03 3157.88 1433.03 Z" fill="#000000" fill-rule="evenodd" fill-opacity="1" /><path clip-path="url(#clip460)" d="M3297.11 1464.28 L3304.75 1464.28 L3304.75 1437.92 L3296.44 1439.59 L3296.44 1435.33 L3304.7 1433.66 L3309.38 1433.66 L3309.38 1464.28 L3317.02 1464.28 L3317.02 1468.22 L3297.11 1468.22 L3297.11 1464.28 Z" fill="#000000" fill-rule="evenodd" fill-opacity="1" /><path clip-path="url(#clip460)" d="M3326.46 1462.34 L3331.34 1462.34 L3331.34 1468.22 L3326.46 1468.22 L3326.46 1462.34 Z" fill="#000000" fill-rule="evenodd" fill-opacity="1" /><path clip-path="url(#clip460)" d="M3342.34 1464.28 L3349.98 1464.28 L3349.98 1437.92 L3341.67 1439.59 L3341.67 1435.33 L3349.93 1433.66 L3354.61 1433.66 L3354.61 1464.28 L3362.25 1464.28 L3362.25 1468.22 L3342.34 1468.22 L3342.34 1464.28 Z" fill="#000000" fill-rule="evenodd" fill-opacity="1" /><path clip-path="url(#clip460)" d="M3490.33 1464.28 L3497.97 1464.28 L3497.97 1437.92 L3489.66 1439.59 L3489.66 1435.33 L3497.92 1433.66 L3502.6 1433.66 L3502.6 1464.28 L3510.23 1464.28 L3510.23 1468.22 L3490.33 1468.22 L3490.33 1464.28 Z" fill="#000000" fill-rule="evenodd" fill-opacity="1" /><path clip-path="url(#clip460)" d="M3519.68 1462.34 L3524.56 1462.34 L3524.56 1468.22 L3519.68 1468.22 L3519.68 1462.34 Z" fill="#000000" fill-rule="evenodd" fill-opacity="1" /><path clip-path="url(#clip460)" d="M3538.78 1464.28 L3555.1 1464.28 L3555.1 1468.22 L3533.15 1468.22 L3533.15 1464.28 Q3535.81 1461.53 3540.4 1456.9 Q3545 1452.25 3546.18 1450.9 Q3548.43 1448.38 3549.31 1446.65 Q3550.21 1444.89 3550.21 1443.2 Q3550.21 1440.44 3548.27 1438.71 Q3546.35 1436.97 3543.24 1436.97 Q3541.04 1436.97 3538.59 1437.73 Q3536.16 1438.5 3533.38 1440.05 L3533.38 1435.33 Q3536.21 1434.19 3538.66 1433.61 Q3541.11 1433.03 3543.15 1433.03 Q3548.52 1433.03 3551.72 1435.72 Q3554.91 1438.41 3554.91 1442.9 Q3554.91 1445.03 3554.1 1446.95 Q3553.31 1448.84 3551.21 1451.44 Q3550.63 1452.11 3547.53 1455.33 Q3544.42 1458.52 3538.78 1464.28 Z" fill="#000000" fill-rule="evenodd" fill-opacity="1" /><path clip-path="url(#clip460)" d="M3682.89 1464.28 L3690.53 1464.28 L3690.53 1437.92 L3682.22 1439.59 L3682.22 1435.33 L3690.48 1433.66 L3695.16 1433.66 L3695.16 1464.28 L3702.79 1464.28 L3702.79 1468.22 L3682.89 1468.22 L3682.89 1464.28 Z" fill="#000000" fill-rule="evenodd" fill-opacity="1" /><path clip-path="url(#clip460)" d="M3712.24 1462.34 L3717.12 1462.34 L3717.12 1468.22 L3712.24 1468.22 L3712.24 1462.34 Z" fill="#000000" fill-rule="evenodd" fill-opacity="1" /><path clip-path="url(#clip460)" d="M3741.48 1449.59 Q3744.83 1450.3 3746.71 1452.57 Q3748.6 1454.84 3748.6 1458.17 Q3748.6 1463.29 3745.09 1466.09 Q3741.57 1468.89 3735.09 1468.89 Q3732.91 1468.89 3730.6 1468.45 Q3728.3 1468.03 3725.85 1467.18 L3725.85 1462.66 Q3727.79 1463.8 3730.11 1464.38 Q3732.42 1464.96 3734.95 1464.96 Q3739.35 1464.96 3741.64 1463.22 Q3743.95 1461.48 3743.95 1458.17 Q3743.95 1455.12 3741.8 1453.4 Q3739.67 1451.67 3735.85 1451.67 L3731.82 1451.67 L3731.82 1447.83 L3736.04 1447.83 Q3739.48 1447.83 3741.31 1446.46 Q3743.14 1445.07 3743.14 1442.48 Q3743.14 1439.82 3741.24 1438.41 Q3739.37 1436.97 3735.85 1436.97 Q3733.93 1436.97 3731.73 1437.39 Q3729.53 1437.8 3726.89 1438.68 L3726.89 1434.52 Q3729.55 1433.78 3731.87 1433.41 Q3734.21 1433.03 3736.27 1433.03 Q3741.59 1433.03 3744.69 1435.47 Q3747.79 1437.87 3747.79 1441.99 Q3747.79 1444.86 3746.15 1446.85 Q3744.51 1448.82 3741.48 1449.59 Z" fill="#000000" fill-rule="evenodd" fill-opacity="1" /><path clip-path="url(#clip460)" d="M3364.71 1545.3 L3363.31 1537.95 Q3361.87 1530.41 3356.21 1530.41 Q3351.94 1530.41 3350 1533.91 Q3347.55 1538.3 3347.55 1544.09 Q3347.55 1551.09 3349.94 1554.44 Q3352.36 1557.84 3356.21 1557.84 Q3360.47 1557.84 3362.76 1551.06 L3364.71 1545.3 M3367.98 1535.56 L3371.14 1526.24 L3376.36 1526.24 L3369.83 1545.56 L3371.1 1552.53 Q3371.39 1554.09 3372.5 1555.39 Q3373.81 1556.92 3374.83 1556.92 L3377.63 1556.92 L3377.63 1561.88 L3374.13 1561.88 Q3371.14 1561.88 3368.46 1559.21 Q3367.16 1557.87 3366.62 1555.07 Q3365.15 1558.61 3362.16 1561.37 Q3360.76 1562.68 3356.21 1562.68 Q3348.73 1562.68 3345.1 1557.84 Q3341.38 1552.84 3341.38 1544.09 Q3341.38 1534.73 3345.42 1530.34 Q3349.91 1525.44 3356.21 1525.44 Q3366.11 1525.44 3367.98 1535.56 Z" fill="#000000" fill-rule="evenodd" fill-opacity="1" /><path clip-path="url(#clip460)" d="M3413.98 1572.71 L3413.98 1577.26 L3380.11 1577.26 L3380.11 1572.71 L3413.98 1572.71 Z" fill="#000000" fill-rule="evenodd" fill-opacity="1" /><path clip-path="url(#clip460)" d="M3434.06 1518.6 Q3429.1 1518.6 3426.58 1523.5 Q3424.1 1528.37 3424.1 1538.17 Q3424.1 1547.94 3426.58 1552.84 Q3429.1 1557.71 3434.06 1557.71 Q3439.06 1557.71 3441.54 1552.84 Q3444.05 1547.94 3444.05 1538.17 Q3444.05 1528.37 3441.54 1523.5 Q3439.06 1518.6 3434.06 1518.6 M3434.06 1513.5 Q3442.05 1513.5 3446.25 1519.84 Q3450.48 1526.14 3450.48 1538.17 Q3450.48 1550.17 3446.25 1556.5 Q3442.05 1562.81 3434.06 1562.81 Q3426.07 1562.81 3421.84 1556.5 Q3417.64 1550.17 3417.64 1538.17 Q3417.64 1526.14 3421.84 1519.84 Q3426.07 1513.5 3434.06 1513.5 Z" fill="#000000" fill-rule="evenodd" fill-opacity="1" /><polyline clip-path="url(#clip464)" style="stroke:#000000; stroke-linecap:butt; stroke-linejoin:round; stroke-width:2; stroke-opacity:0.1; fill:none" points="
  2902.1,1358.19 3889.76,1358.19 
  "/>
<polyline clip-path="url(#clip464)" style="stroke:#000000; stroke-linecap:butt; stroke-linejoin:round; stroke-width:2; stroke-opacity:0.1; fill:none" points="
  2902.1,1094.3 3889.76,1094.3 
  "/>
<polyline clip-path="url(#clip464)" style="stroke:#000000; stroke-linecap:butt; stroke-linejoin:round; stroke-width:2; stroke-opacity:0.1; fill:none" points="
  2902.1,830.422 3889.76,830.422 
  "/>
<polyline clip-path="url(#clip464)" style="stroke:#000000; stroke-linecap:butt; stroke-linejoin:round; stroke-width:2; stroke-opacity:0.1; fill:none" points="
  2902.1,566.54 3889.76,566.54 
  "/>
<polyline clip-path="url(#clip464)" style="stroke:#000000; stroke-linecap:butt; stroke-linejoin:round; stroke-width:2; stroke-opacity:0.1; fill:none" points="
  2902.1,302.658 3889.76,302.658 
  "/>
<polyline clip-path="url(#clip460)" style="stroke:#000000; stroke-linecap:butt; stroke-linejoin:round; stroke-width:4; stroke-opacity:1; fill:none" points="
  2902.1,1393.02 2902.1,162.272 
  "/>
<polyline clip-path="url(#clip460)" style="stroke:#000000; stroke-linecap:butt; stroke-linejoin:round; stroke-width:4; stroke-opacity:1; fill:none" points="
  2902.1,1358.19 2920.99,1358.19 
  "/>
<polyline clip-path="url(#clip460)" style="stroke:#000000; stroke-linecap:butt; stroke-linejoin:round; stroke-width:4; stroke-opacity:1; fill:none" points="
  2902.1,1094.3 2920.99,1094.3 
  "/>
<polyline clip-path="url(#clip460)" style="stroke:#000000; stroke-linecap:butt; stroke-linejoin:round; stroke-width:4; stroke-opacity:1; fill:none" points="
  2902.1,830.422 2920.99,830.422 
  "/>
<polyline clip-path="url(#clip460)" style="stroke:#000000; stroke-linecap:butt; stroke-linejoin:round; stroke-width:4; stroke-opacity:1; fill:none" points="
  2902.1,566.54 2920.99,566.54 
  "/>
<polyline clip-path="url(#clip460)" style="stroke:#000000; stroke-linecap:butt; stroke-linejoin:round; stroke-width:4; stroke-opacity:1; fill:none" points="
  2902.1,302.658 2920.99,302.658 
  "/>
<path clip-path="url(#clip460)" d="M2830.15 1343.99 Q2826.54 1343.99 2824.71 1347.55 Q2822.91 1351.09 2822.91 1358.22 Q2822.91 1365.33 2824.71 1368.89 Q2826.54 1372.43 2830.15 1372.43 Q2833.79 1372.43 2835.59 1368.89 Q2837.42 1365.33 2837.42 1358.22 Q2837.42 1351.09 2835.59 1347.55 Q2833.79 1343.99 2830.15 1343.99 M2830.15 1340.28 Q2835.96 1340.28 2839.02 1344.89 Q2842.1 1349.47 2842.1 1358.22 Q2842.1 1366.95 2839.02 1371.56 Q2835.96 1376.14 2830.15 1376.14 Q2824.34 1376.14 2821.26 1371.56 Q2818.21 1366.95 2818.21 1358.22 Q2818.21 1349.47 2821.26 1344.89 Q2824.34 1340.28 2830.15 1340.28 Z" fill="#000000" fill-rule="evenodd" fill-opacity="1" /><path clip-path="url(#clip460)" d="M2822.19 1107.65 L2829.83 1107.65 L2829.83 1081.28 L2821.52 1082.95 L2821.52 1078.69 L2829.78 1077.02 L2834.46 1077.02 L2834.46 1107.65 L2842.1 1107.65 L2842.1 1111.58 L2822.19 1111.58 L2822.19 1107.65 Z" fill="#000000" fill-rule="evenodd" fill-opacity="1" /><path clip-path="url(#clip460)" d="M2825.78 843.767 L2842.1 843.767 L2842.1 847.702 L2820.15 847.702 L2820.15 843.767 Q2822.81 841.013 2827.4 836.383 Q2832 831.73 2833.18 830.388 Q2835.43 827.865 2836.31 826.129 Q2837.21 824.369 2837.21 822.679 Q2837.21 819.925 2835.27 818.189 Q2833.35 816.453 2830.24 816.453 Q2828.05 816.453 2825.59 817.217 Q2823.16 817.98 2820.38 819.531 L2820.38 814.809 Q2823.21 813.675 2825.66 813.096 Q2828.11 812.517 2830.15 812.517 Q2835.52 812.517 2838.72 815.203 Q2841.91 817.888 2841.91 822.379 Q2841.91 824.508 2841.1 826.429 Q2840.31 828.328 2838.21 830.92 Q2837.63 831.591 2834.53 834.809 Q2831.42 838.003 2825.78 843.767 Z" fill="#000000" fill-rule="evenodd" fill-opacity="1" /><path clip-path="url(#clip460)" d="M2834.97 565.186 Q2838.32 565.904 2840.2 568.172 Q2842.1 570.441 2842.1 573.774 Q2842.1 578.89 2838.58 581.69 Q2835.06 584.491 2828.58 584.491 Q2826.4 584.491 2824.09 584.052 Q2821.8 583.635 2819.34 582.778 L2819.34 578.265 Q2821.29 579.399 2823.6 579.978 Q2825.92 580.556 2828.44 580.556 Q2832.84 580.556 2835.13 578.82 Q2837.44 577.084 2837.44 573.774 Q2837.44 570.718 2835.29 569.005 Q2833.16 567.269 2829.34 567.269 L2825.31 567.269 L2825.31 563.427 L2829.53 563.427 Q2832.98 563.427 2834.8 562.061 Q2836.63 560.672 2836.63 558.079 Q2836.63 555.417 2834.73 554.005 Q2832.86 552.57 2829.34 552.57 Q2827.42 552.57 2825.22 552.987 Q2823.02 553.404 2820.38 554.283 L2820.38 550.117 Q2823.05 549.376 2825.36 549.005 Q2827.7 548.635 2829.76 548.635 Q2835.08 548.635 2838.18 551.066 Q2841.29 553.473 2841.29 557.593 Q2841.29 560.464 2839.64 562.454 Q2838 564.422 2834.97 565.186 Z" fill="#000000" fill-rule="evenodd" fill-opacity="1" /><path clip-path="url(#clip460)" d="M2832.51 289.452 L2820.71 307.901 L2832.51 307.901 L2832.51 289.452 M2831.29 285.378 L2837.17 285.378 L2837.17 307.901 L2842.1 307.901 L2842.1 311.79 L2837.17 311.79 L2837.17 319.938 L2832.51 319.938 L2832.51 311.79 L2816.91 311.79 L2816.91 307.276 L2831.29 285.378 Z" fill="#000000" fill-rule="evenodd" fill-opacity="1" /><path clip-path="url(#clip460)" d="M2707.01 876.171 L2707.01 848.353 L2712.35 848.353 L2737.98 870.378 L2737.98 848.353 L2742.65 848.353 L2742.65 876.967 L2737.31 876.967 L2711.69 854.942 L2711.69 876.171 L2707.01 876.171 Z" fill="#000000" fill-rule="evenodd" fill-opacity="1" /><path clip-path="url(#clip460)" d="M2693.19 804.621 Q2700.51 808.886 2707.68 810.955 Q2714.84 813.023 2722.19 813.023 Q2729.54 813.023 2736.77 810.955 Q2743.96 808.854 2751.25 804.621 L2751.25 809.713 Q2743.77 814.488 2736.54 816.875 Q2729.32 819.23 2722.19 819.23 Q2715.09 819.23 2707.9 816.875 Q2700.7 814.519 2693.19 809.713 L2693.19 804.621 Z" fill="#000000" fill-rule="evenodd" fill-opacity="1" /><path clip-path="url(#clip460)" d="M2693.13 793.481 L2693.13 787.592 L2722.38 787.592 L2707.01 770.119 L2707.01 762.639 L2723.69 781.545 L2742.65 761.843 L2742.65 769.482 L2725.24 787.592 L2742.65 787.592 L2742.65 793.481 L2693.13 793.481 Z" fill="#000000" fill-rule="evenodd" fill-opacity="1" /><path clip-path="url(#clip460)" d="M2713.85 727.755 Q2709.9 725.559 2708.03 722.503 Q2706.15 719.448 2706.15 715.31 Q2706.15 709.74 2710.06 706.716 Q2713.95 703.692 2721.14 703.692 L2742.65 703.692 L2742.65 709.581 L2721.33 709.581 Q2716.21 709.581 2713.72 711.395 Q2711.24 713.209 2711.24 716.933 Q2711.24 721.485 2714.26 724.126 Q2717.29 726.768 2722.51 726.768 L2742.65 726.768 L2742.65 732.656 L2721.33 732.656 Q2716.17 732.656 2713.72 734.471 Q2711.24 736.285 2711.24 740.072 Q2711.24 744.56 2714.3 747.202 Q2717.32 749.844 2722.51 749.844 L2742.65 749.844 L2742.65 755.732 L2707.01 755.732 L2707.01 749.844 L2712.55 749.844 Q2709.27 747.839 2707.71 745.038 Q2706.15 742.237 2706.15 738.385 Q2706.15 734.502 2708.12 731.797 Q2710.09 729.06 2713.85 727.755 Z" fill="#000000" fill-rule="evenodd" fill-opacity="1" /><path clip-path="url(#clip460)" d="M2693.19 692.934 L2693.19 687.842 Q2700.7 683.067 2707.9 680.712 Q2715.09 678.325 2722.19 678.325 Q2729.32 678.325 2736.54 680.712 Q2743.77 683.067 2751.25 687.842 L2751.25 692.934 Q2743.96 688.701 2736.77 686.632 Q2729.54 684.532 2722.19 684.532 Q2714.84 684.532 2707.68 686.632 Q2700.51 688.701 2693.19 692.934 Z" fill="#000000" fill-rule="evenodd" fill-opacity="1" /><path clip-path="url(#clip460)" d="M3356.19 51.4708 L3354.41 42.1132 Q3352.59 32.5126 3345.37 32.5126 Q3339.95 32.5126 3337.48 36.9686 Q3334.36 42.5588 3334.36 49.9314 Q3334.36 58.8434 3337.39 63.0969 Q3340.47 67.4314 3345.37 67.4314 Q3350.8 67.4314 3353.72 58.8029 L3356.19 51.4708 M3360.36 39.075 L3364.37 27.2059 L3371.02 27.2059 L3362.71 51.7949 L3364.33 60.6663 Q3364.7 62.6513 3366.12 64.3122 Q3367.78 66.2566 3369.07 66.2566 L3372.64 66.2566 L3372.64 72.576 L3368.18 72.576 Q3364.37 72.576 3360.97 69.1732 Q3359.31 67.4719 3358.62 63.9071 Q3356.76 68.4036 3352.95 71.9279 Q3351.17 73.5887 3345.37 73.5887 Q3335.85 73.5887 3331.24 67.4314 Q3326.5 61.0714 3326.5 49.9314 Q3326.5 38.0218 3331.64 32.4315 Q3337.35 26.1931 3345.37 26.1931 Q3357.97 26.1931 3360.36 39.075 Z" fill="#000000" fill-rule="evenodd" fill-opacity="1" /><path clip-path="url(#clip460)" d="M3418.9 86.3491 L3418.9 92.1419 L3375.8 92.1419 L3375.8 86.3491 L3418.9 86.3491 Z" fill="#000000" fill-rule="evenodd" fill-opacity="1" /><path clip-path="url(#clip460)" d="M3444.46 17.4837 Q3438.14 17.4837 3434.94 23.7221 Q3431.78 29.92 3431.78 42.3968 Q3431.78 54.833 3434.94 61.0714 Q3438.14 67.2693 3444.46 67.2693 Q3450.82 67.2693 3453.98 61.0714 Q3457.18 54.833 3457.18 42.3968 Q3457.18 29.92 3453.98 23.7221 Q3450.82 17.4837 3444.46 17.4837 M3444.46 11.0023 Q3454.63 11.0023 3459.97 19.0636 Q3465.36 27.0843 3465.36 42.3968 Q3465.36 57.6687 3459.97 65.73 Q3454.63 73.7508 3444.46 73.7508 Q3434.29 73.7508 3428.9 65.73 Q3423.56 57.6687 3423.56 42.3968 Q3423.56 27.0843 3428.9 19.0636 Q3434.29 11.0023 3444.46 11.0023 Z" fill="#000000" fill-rule="evenodd" fill-opacity="1" /><polyline clip-path="url(#clip464)" style="stroke:#009af9; stroke-linecap:butt; stroke-linejoin:round; stroke-width:4; stroke-opacity:1; fill:none" points="
  2933.54,1351.59 2940.56,1338.4 2947.62,1325.2 2954.72,1312.01 2961.86,1298.81 2969.05,1285.62 2976.27,1272.43 2983.53,1259.23 2990.84,1246.04 2998.19,1232.84 
  3005.58,1219.65 3013.01,1206.45 3020.48,1193.26 3028,1180.07 3035.57,1166.87 3044.17,1153.68 3053.24,1140.48 3062.36,1127.29 3071.54,1114.1 3080.77,1100.9 
  3090.05,1087.71 3099.39,1074.51 3108.78,1061.32 3118.23,1048.13 3127.73,1034.93 3137.29,1021.74 3146.9,1008.54 3156.57,995.349 3166.3,982.155 3176.08,968.961 
  3185.92,955.767 3195.82,942.572 3205.78,929.378 3215.8,916.184 3225.87,902.99 3236,889.796 3246.2,876.602 3256.45,863.408 3266.76,850.214 3277.14,837.02 
  3287.57,823.825 3298.07,810.631 3308.63,797.437 3319.25,784.243 3329.93,771.049 3340.68,757.855 3351.49,744.661 3362.37,731.467 3373.3,718.272 3384.31,705.078 
  3395.38,691.884 3406.51,678.69 3417.71,665.496 3428.98,652.302 3440.31,639.108 3451.72,625.914 3463.18,612.719 3474.72,599.525 3486.33,586.331 3498,573.137 
  3509.75,559.943 3521.56,546.749 3533.45,533.555 3545.4,520.361 3557.43,507.167 3569.53,493.972 3581.7,480.778 3593.95,467.584 3606.27,454.39 3618.66,441.196 
  3631.12,428.002 3643.66,414.808 3656.28,401.614 3668.97,388.419 3681.74,375.225 3694.58,362.031 3707.5,348.837 3720.5,335.643 3733.58,322.449 3746.74,309.255 
  3759.97,296.061 3773.29,282.867 3786.68,269.672 3800.16,256.478 3813.71,243.284 3827.35,230.09 3841.07,216.896 3854.88,203.702 
  "/>
<polyline clip-path="url(#clip464)" style="stroke:#e26f46; stroke-linecap:butt; stroke-linejoin:round; stroke-width:4; stroke-opacity:1; fill:none" points="
  2930.05,1358.19 2937.05,1344.99 2944.09,1331.8 2951.17,1318.6 2958.29,1305.41 2965.45,1292.22 2972.65,1279.02 2979.89,1265.83 2987.18,1252.63 2994.51,1239.44 
  3001.88,1226.25 3009.29,1213.05 3016.74,1199.86 3024.24,1186.66 3031.78,1173.47 3039.65,1160.28 3048.7,1147.08 3057.79,1133.89 3066.94,1120.69 3076.15,1107.5 
  3085.4,1094.3 3094.71,1081.11 3104.08,1067.92 3113.5,1054.72 3122.97,1041.53 3132.5,1028.33 3142.09,1015.14 3151.73,1001.95 3161.43,988.752 3171.18,975.558 
  3181,962.364 3190.87,949.17 3200.79,935.975 3210.78,922.781 3220.83,909.587 3230.93,896.393 3241.09,883.199 3251.32,870.005 3261.6,856.811 3271.94,843.617 
  3282.35,830.422 3292.82,817.228 3303.34,804.034 3313.93,790.84 3324.58,777.646 3335.3,764.452 3346.08,751.258 3356.92,738.064 3367.83,724.87 3378.8,711.675 
  3389.83,698.481 3400.94,685.287 3412.1,672.093 3423.34,658.899 3434.64,645.705 3446.01,632.511 3457.44,619.317 3468.94,606.122 3480.52,592.928 3492.16,579.734 
  3503.87,566.54 3515.65,553.346 3527.5,540.152 3539.42,526.958 3551.41,513.764 3563.47,500.569 3575.61,487.375 3587.82,474.181 3600.1,460.987 3612.45,447.793 
  3624.88,434.599 3637.38,421.405 3649.96,408.211 3662.62,395.017 3675.34,381.822 3688.15,368.628 3701.03,355.434 3713.99,342.24 3727.03,329.046 3740.15,315.852 
  3753.34,302.658 3766.62,289.464 3779.97,276.269 3793.41,263.075 3806.92,249.881 3820.52,236.687 3834.2,223.493 3847.97,210.299 3861.81,197.105 
  "/>
<path clip-path="url(#clip460)" d="
M3284.55 358.817 L3856.84 358.817 L3856.84 203.297 L3284.55 203.297  Z
  " fill="#ffffff" fill-rule="evenodd" fill-opacity="1"/>
<polyline clip-path="url(#clip460)" style="stroke:#000000; stroke-linecap:butt; stroke-linejoin:round; stroke-width:4; stroke-opacity:1; fill:none" points="
  3284.55,358.817 3856.84,358.817 3856.84,203.297 3284.55,203.297 3284.55,358.817 
  "/>
<polyline clip-path="url(#clip460)" style="stroke:#009af9; stroke-linecap:butt; stroke-linejoin:round; stroke-width:4; stroke-opacity:1; fill:none" points="
  3324.55,255.137 3564.55,255.137 
  "/>
<path clip-path="url(#clip460)" d="M3625.06 247.487 L3625.06 251.468 Q3623.25 250.473 3621.43 249.987 Q3619.62 249.477 3617.77 249.477 Q3613.62 249.477 3611.33 252.116 Q3609.04 254.732 3609.04 259.477 Q3609.04 264.223 3611.33 266.862 Q3613.62 269.477 3617.77 269.477 Q3619.62 269.477 3621.43 268.991 Q3623.25 268.482 3625.06 267.487 L3625.06 271.422 Q3623.28 272.255 3621.36 272.672 Q3619.46 273.088 3617.31 273.088 Q3611.45 273.088 3608 269.408 Q3604.55 265.727 3604.55 259.477 Q3604.55 253.135 3608.02 249.501 Q3611.52 245.866 3617.58 245.866 Q3619.55 245.866 3621.43 246.283 Q3623.3 246.677 3625.06 247.487 Z" fill="#000000" fill-rule="evenodd" fill-opacity="1" /><path clip-path="url(#clip460)" d="M3654.64 258.389 L3654.64 260.473 L3635.06 260.473 Q3635.34 264.871 3637.7 267.186 Q3640.08 269.477 3644.32 269.477 Q3646.77 269.477 3649.06 268.876 Q3651.38 268.274 3653.65 267.07 L3653.65 271.098 Q3651.36 272.07 3648.95 272.579 Q3646.54 273.088 3644.06 273.088 Q3637.86 273.088 3634.23 269.477 Q3630.62 265.866 3630.62 259.709 Q3630.62 253.343 3634.04 249.616 Q3637.49 245.866 3643.32 245.866 Q3648.56 245.866 3651.59 249.246 Q3654.64 252.602 3654.64 258.389 M3650.38 257.139 Q3650.34 253.644 3648.42 251.561 Q3646.52 249.477 3643.37 249.477 Q3639.81 249.477 3637.65 251.491 Q3635.52 253.505 3635.2 257.163 L3650.38 257.139 Z" fill="#000000" fill-rule="evenodd" fill-opacity="1" /><path clip-path="url(#clip460)" d="M3683.18 256.769 L3683.18 272.417 L3678.93 272.417 L3678.93 256.908 Q3678.93 253.227 3677.49 251.399 Q3676.06 249.57 3673.18 249.57 Q3669.74 249.57 3667.74 251.769 Q3665.75 253.968 3665.75 257.764 L3665.75 272.417 L3661.47 272.417 L3661.47 246.491 L3665.75 246.491 L3665.75 250.519 Q3667.28 248.181 3669.34 247.024 Q3671.43 245.866 3674.13 245.866 Q3678.6 245.866 3680.89 248.644 Q3683.18 251.399 3683.18 256.769 Z" fill="#000000" fill-rule="evenodd" fill-opacity="1" /><path clip-path="url(#clip460)" d="M3695.89 239.13 L3695.89 246.491 L3704.67 246.491 L3704.67 249.802 L3695.89 249.802 L3695.89 263.876 Q3695.89 267.047 3696.75 267.95 Q3697.63 268.852 3700.29 268.852 L3704.67 268.852 L3704.67 272.417 L3700.29 272.417 Q3695.36 272.417 3693.49 270.588 Q3691.61 268.737 3691.61 263.876 L3691.61 249.802 L3688.49 249.802 L3688.49 246.491 L3691.61 246.491 L3691.61 239.13 L3695.89 239.13 Z" fill="#000000" fill-rule="evenodd" fill-opacity="1" /><path clip-path="url(#clip460)" d="M3732.44 258.389 L3732.44 260.473 L3712.86 260.473 Q3713.14 264.871 3715.5 267.186 Q3717.88 269.477 3722.12 269.477 Q3724.57 269.477 3726.86 268.876 Q3729.18 268.274 3731.45 267.07 L3731.45 271.098 Q3729.16 272.07 3726.75 272.579 Q3724.34 273.088 3721.86 273.088 Q3715.66 273.088 3712.03 269.477 Q3708.42 265.866 3708.42 259.709 Q3708.42 253.343 3711.84 249.616 Q3715.29 245.866 3721.12 245.866 Q3726.36 245.866 3729.39 249.246 Q3732.44 252.602 3732.44 258.389 M3728.18 257.139 Q3728.14 253.644 3726.22 251.561 Q3724.32 249.477 3721.17 249.477 Q3717.61 249.477 3715.45 251.491 Q3713.32 253.505 3713 257.163 L3728.18 257.139 Z" fill="#000000" fill-rule="evenodd" fill-opacity="1" /><path clip-path="url(#clip460)" d="M3754.46 250.473 Q3753.74 250.056 3752.88 249.871 Q3752.05 249.663 3751.03 249.663 Q3747.42 249.663 3745.48 252.024 Q3743.55 254.362 3743.55 258.76 L3743.55 272.417 L3739.27 272.417 L3739.27 246.491 L3743.55 246.491 L3743.55 250.519 Q3744.9 248.158 3747.05 247.024 Q3749.2 245.866 3752.28 245.866 Q3752.72 245.866 3753.25 245.936 Q3753.79 245.982 3754.43 246.098 L3754.46 250.473 Z" fill="#000000" fill-rule="evenodd" fill-opacity="1" /><path clip-path="url(#clip460)" d="M3775.45 247.255 L3775.45 251.283 Q3773.65 250.357 3771.7 249.894 Q3769.76 249.431 3767.67 249.431 Q3764.5 249.431 3762.91 250.403 Q3761.33 251.376 3761.33 253.32 Q3761.33 254.802 3762.47 255.658 Q3763.6 256.491 3767.03 257.255 L3768.49 257.579 Q3773.02 258.552 3774.92 260.334 Q3776.84 262.093 3776.84 265.264 Q3776.84 268.876 3773.97 270.982 Q3771.12 273.088 3766.12 273.088 Q3764.04 273.088 3761.77 272.672 Q3759.53 272.278 3757.03 271.468 L3757.03 267.07 Q3759.39 268.297 3761.68 268.922 Q3763.97 269.524 3766.22 269.524 Q3769.23 269.524 3770.85 268.505 Q3772.47 267.463 3772.47 265.589 Q3772.47 263.852 3771.29 262.926 Q3770.13 262.001 3766.17 261.144 L3764.69 260.797 Q3760.73 259.964 3758.97 258.251 Q3757.21 256.514 3757.21 253.505 Q3757.21 249.848 3759.8 247.857 Q3762.4 245.866 3767.17 245.866 Q3769.53 245.866 3771.61 246.214 Q3773.69 246.561 3775.45 247.255 Z" fill="#000000" fill-rule="evenodd" fill-opacity="1" /><polyline clip-path="url(#clip460)" style="stroke:#e26f46; stroke-linecap:butt; stroke-linejoin:round; stroke-width:4; stroke-opacity:1; fill:none" points="
  3324.55,306.977 3564.55,306.977 
  "/>
<path clip-path="url(#clip460)" d="M3621.06 288.239 L3621.06 291.78 L3616.98 291.78 Q3614.69 291.78 3613.79 292.706 Q3612.91 293.632 3612.91 296.04 L3612.91 298.331 L3619.92 298.331 L3619.92 301.642 L3612.91 301.642 L3612.91 324.257 L3608.62 324.257 L3608.62 301.642 L3604.55 301.642 L3604.55 298.331 L3608.62 298.331 L3608.62 296.526 Q3608.62 292.197 3610.64 290.23 Q3612.65 288.239 3617.03 288.239 L3621.06 288.239 Z" fill="#000000" fill-rule="evenodd" fill-opacity="1" /><path clip-path="url(#clip460)" d="M3636.4 311.225 Q3631.24 311.225 3629.25 312.405 Q3627.26 313.586 3627.26 316.433 Q3627.26 318.702 3628.74 320.044 Q3630.25 321.364 3632.81 321.364 Q3636.36 321.364 3638.49 318.864 Q3640.64 316.341 3640.64 312.174 L3640.64 311.225 L3636.4 311.225 M3644.9 309.466 L3644.9 324.257 L3640.64 324.257 L3640.64 320.322 Q3639.18 322.683 3637 323.817 Q3634.83 324.928 3631.68 324.928 Q3627.7 324.928 3625.34 322.706 Q3623 320.461 3623 316.711 Q3623 312.336 3625.92 310.114 Q3628.86 307.892 3634.67 307.892 L3640.64 307.892 L3640.64 307.475 Q3640.64 304.535 3638.69 302.938 Q3636.77 301.317 3633.28 301.317 Q3631.06 301.317 3628.95 301.85 Q3626.84 302.382 3624.9 303.447 L3624.9 299.512 Q3627.24 298.609 3629.43 298.169 Q3631.63 297.706 3633.72 297.706 Q3639.34 297.706 3642.12 300.623 Q3644.9 303.54 3644.9 309.466 Z" fill="#000000" fill-rule="evenodd" fill-opacity="1" /><path clip-path="url(#clip460)" d="M3672.33 299.327 L3672.33 303.308 Q3670.52 302.313 3668.69 301.827 Q3666.89 301.317 3665.04 301.317 Q3660.89 301.317 3658.6 303.956 Q3656.31 306.572 3656.31 311.317 Q3656.31 316.063 3658.6 318.702 Q3660.89 321.317 3665.04 321.317 Q3666.89 321.317 3668.69 320.831 Q3670.52 320.322 3672.33 319.327 L3672.33 323.262 Q3670.55 324.095 3668.62 324.512 Q3666.73 324.928 3664.57 324.928 Q3658.72 324.928 3655.27 321.248 Q3651.82 317.567 3651.82 311.317 Q3651.82 304.975 3655.29 301.341 Q3658.79 297.706 3664.85 297.706 Q3666.82 297.706 3668.69 298.123 Q3670.57 298.517 3672.33 299.327 Z" fill="#000000" fill-rule="evenodd" fill-opacity="1" /><path clip-path="url(#clip460)" d="M3701.91 310.229 L3701.91 312.313 L3682.33 312.313 Q3682.61 316.711 3684.97 319.026 Q3687.35 321.317 3691.59 321.317 Q3694.04 321.317 3696.33 320.716 Q3698.65 320.114 3700.92 318.91 L3700.92 322.938 Q3698.62 323.91 3696.22 324.419 Q3693.81 324.928 3691.33 324.928 Q3685.13 324.928 3681.49 321.317 Q3677.88 317.706 3677.88 311.549 Q3677.88 305.183 3681.31 301.456 Q3684.76 297.706 3690.59 297.706 Q3695.82 297.706 3698.86 301.086 Q3701.91 304.442 3701.91 310.229 M3697.65 308.979 Q3697.61 305.484 3695.68 303.401 Q3693.79 301.317 3690.64 301.317 Q3687.07 301.317 3684.92 303.331 Q3682.79 305.345 3682.47 309.003 L3697.65 308.979 Z" fill="#000000" fill-rule="evenodd" fill-opacity="1" /><path clip-path="url(#clip460)" d="M3725.43 299.095 L3725.43 303.123 Q3723.62 302.197 3721.68 301.734 Q3719.74 301.271 3717.65 301.271 Q3714.48 301.271 3712.88 302.243 Q3711.31 303.216 3711.31 305.16 Q3711.31 306.642 3712.44 307.498 Q3713.58 308.331 3717 309.095 L3718.46 309.419 Q3723 310.392 3724.9 312.174 Q3726.82 313.933 3726.82 317.104 Q3726.82 320.716 3723.95 322.822 Q3721.1 324.928 3716.1 324.928 Q3714.02 324.928 3711.75 324.512 Q3709.5 324.118 3707 323.308 L3707 318.91 Q3709.37 320.137 3711.66 320.762 Q3713.95 321.364 3716.19 321.364 Q3719.2 321.364 3720.82 320.345 Q3722.44 319.303 3722.44 317.429 Q3722.44 315.692 3721.26 314.766 Q3720.11 313.841 3716.15 312.984 L3714.67 312.637 Q3710.71 311.804 3708.95 310.091 Q3707.19 308.354 3707.19 305.345 Q3707.19 301.688 3709.78 299.697 Q3712.37 297.706 3717.14 297.706 Q3719.5 297.706 3721.59 298.054 Q3723.67 298.401 3725.43 299.095 Z" fill="#000000" fill-rule="evenodd" fill-opacity="1" /></svg>
