<?xml version="1.0" encoding="utf-8"?>
<svg xmlns="http://www.w3.org/2000/svg" xmlns:xlink="http://www.w3.org/1999/xlink" width="1000" height="400" viewBox="0 0 4000 1600">
<defs>
  <clipPath id="clip430">
    <rect x="0" y="0" width="4000" height="1600"/>
  </clipPath>
</defs>
<path clip-path="url(#clip430)" d="
M0 1600 L4000 1600 L4000 0 L0 0  Z
  " fill="#ffffff" fill-rule="evenodd" fill-opacity="1"/>
<defs>
  <clipPath id="clip431">
    <rect x="800" y="0" width="2801" height="1600"/>
  </clipPath>
</defs>
<path clip-path="url(#clip430)" d="
M235.429 1393.02 L1223.1 1393.02 L1223.1 162.272 L235.429 162.272  Z
  " fill="#ffffff" fill-rule="evenodd" fill-opacity="1"/>
<defs>
  <clipPath id="clip432">
    <rect x="235" y="162" width="989" height="1232"/>
  </clipPath>
</defs>
<polyline clip-path="url(#clip432)" style="stroke:#000000; stroke-linecap:butt; stroke-linejoin:round; stroke-width:2; stroke-opacity:0.1; fill:none" points="
  308.162,1393.02 308.162,162.272 
  "/>
<polyline clip-path="url(#clip432)" style="stroke:#000000; stroke-linecap:butt; stroke-linejoin:round; stroke-width:2; stroke-opacity:0.1; fill:none" points="
  551.205,1393.02 551.205,162.272 
  "/>
<polyline clip-path="url(#clip432)" style="stroke:#000000; stroke-linecap:butt; stroke-linejoin:round; stroke-width:2; stroke-opacity:0.1; fill:none" points="
  794.248,1393.02 794.248,162.272 
  "/>
<polyline clip-path="url(#clip432)" style="stroke:#000000; stroke-linecap:butt; stroke-linejoin:round; stroke-width:2; stroke-opacity:0.1; fill:none" points="
  1037.29,1393.02 1037.29,162.272 
  "/>
<polyline clip-path="url(#clip430)" style="stroke:#000000; stroke-linecap:butt; stroke-linejoin:round; stroke-width:4; stroke-opacity:1; fill:none" points="
  235.429,1393.02 1223.1,1393.02 
  "/>
<polyline clip-path="url(#clip430)" style="stroke:#000000; stroke-linecap:butt; stroke-linejoin:round; stroke-width:4; stroke-opacity:1; fill:none" points="
  308.162,1393.02 308.162,1374.12 
  "/>
<polyline clip-path="url(#clip430)" style="stroke:#000000; stroke-linecap:butt; stroke-linejoin:round; stroke-width:4; stroke-opacity:1; fill:none" points="
  551.205,1393.02 551.205,1374.12 
  "/>
<polyline clip-path="url(#clip430)" style="stroke:#000000; stroke-linecap:butt; stroke-linejoin:round; stroke-width:4; stroke-opacity:1; fill:none" points="
  794.248,1393.02 794.248,1374.12 
  "/>
<polyline clip-path="url(#clip430)" style="stroke:#000000; stroke-linecap:butt; stroke-linejoin:round; stroke-width:4; stroke-opacity:1; fill:none" points="
  1037.29,1393.02 1037.29,1374.12 
  "/>
<path clip-path="url(#clip430)" d="M285.593 1436.74 Q281.982 1436.74 280.153 1440.3 Q278.348 1443.84 278.348 1450.97 Q278.348 1458.08 280.153 1461.65 Q281.982 1465.19 285.593 1465.19 Q289.227 1465.19 291.033 1461.65 Q292.861 1458.08 292.861 1450.97 Q292.861 1443.84 291.033 1440.3 Q289.227 1436.74 285.593 1436.74 M285.593 1433.03 Q291.403 1433.03 294.459 1437.64 Q297.537 1442.22 297.537 1450.97 Q297.537 1459.7 294.459 1464.31 Q291.403 1468.89 285.593 1468.89 Q279.783 1468.89 276.704 1464.31 Q273.649 1459.7 273.649 1450.97 Q273.649 1442.22 276.704 1437.64 Q279.783 1433.03 285.593 1433.03 Z" fill="#000000" fill-rule="evenodd" fill-opacity="1" /><path clip-path="url(#clip430)" d="M305.755 1462.34 L310.639 1462.34 L310.639 1468.22 L305.755 1468.22 L305.755 1462.34 Z" fill="#000000" fill-rule="evenodd" fill-opacity="1" /><path clip-path="url(#clip430)" d="M330.824 1451.81 Q327.491 1451.81 325.57 1453.59 Q323.671 1455.37 323.671 1458.5 Q323.671 1461.62 325.57 1463.4 Q327.491 1465.19 330.824 1465.19 Q334.157 1465.19 336.079 1463.4 Q338 1461.6 338 1458.5 Q338 1455.37 336.079 1453.59 Q334.181 1451.81 330.824 1451.81 M326.148 1449.82 Q323.139 1449.08 321.449 1447.02 Q319.783 1444.96 319.783 1441.99 Q319.783 1437.85 322.722 1435.44 Q325.685 1433.03 330.824 1433.03 Q335.986 1433.03 338.926 1435.44 Q341.866 1437.85 341.866 1441.99 Q341.866 1444.96 340.176 1447.02 Q338.509 1449.08 335.523 1449.82 Q338.903 1450.6 340.778 1452.9 Q342.676 1455.19 342.676 1458.5 Q342.676 1463.52 339.597 1466.21 Q336.542 1468.89 330.824 1468.89 Q325.107 1468.89 322.028 1466.21 Q318.972 1463.52 318.972 1458.5 Q318.972 1455.19 320.87 1452.9 Q322.769 1450.6 326.148 1449.82 M324.435 1442.43 Q324.435 1445.12 326.102 1446.62 Q327.792 1448.13 330.824 1448.13 Q333.833 1448.13 335.523 1446.62 Q337.236 1445.12 337.236 1442.43 Q337.236 1439.75 335.523 1438.24 Q333.833 1436.74 330.824 1436.74 Q327.792 1436.74 326.102 1438.24 Q324.435 1439.75 324.435 1442.43 Z" fill="#000000" fill-rule="evenodd" fill-opacity="1" /><path clip-path="url(#clip430)" d="M528.682 1436.74 Q525.071 1436.74 523.243 1440.3 Q521.437 1443.84 521.437 1450.97 Q521.437 1458.08 523.243 1461.65 Q525.071 1465.19 528.682 1465.19 Q532.317 1465.19 534.122 1461.65 Q535.951 1458.08 535.951 1450.97 Q535.951 1443.84 534.122 1440.3 Q532.317 1436.74 528.682 1436.74 M528.682 1433.03 Q534.492 1433.03 537.548 1437.64 Q540.627 1442.22 540.627 1450.97 Q540.627 1459.7 537.548 1464.31 Q534.492 1468.89 528.682 1468.89 Q522.872 1468.89 519.793 1464.31 Q516.738 1459.7 516.738 1450.97 Q516.738 1442.22 519.793 1437.64 Q522.872 1433.03 528.682 1433.03 Z" fill="#000000" fill-rule="evenodd" fill-opacity="1" /><path clip-path="url(#clip430)" d="M548.844 1462.34 L553.728 1462.34 L553.728 1468.22 L548.844 1468.22 L548.844 1462.34 Z" fill="#000000" fill-rule="evenodd" fill-opacity="1" /><path clip-path="url(#clip430)" d="M564.053 1467.5 L564.053 1463.24 Q565.812 1464.08 567.617 1464.52 Q569.423 1464.96 571.159 1464.96 Q575.789 1464.96 578.219 1461.85 Q580.673 1458.73 581.02 1452.39 Q579.677 1454.38 577.617 1455.44 Q575.557 1456.51 573.057 1456.51 Q567.872 1456.51 564.84 1453.38 Q561.83 1450.23 561.83 1444.79 Q561.83 1439.47 564.978 1436.25 Q568.127 1433.03 573.358 1433.03 Q579.353 1433.03 582.501 1437.64 Q585.673 1442.22 585.673 1450.97 Q585.673 1459.15 581.784 1464.03 Q577.918 1468.89 571.367 1468.89 Q569.608 1468.89 567.802 1468.54 Q565.997 1468.2 564.053 1467.5 M573.358 1452.85 Q576.506 1452.85 578.335 1450.7 Q580.187 1448.54 580.187 1444.79 Q580.187 1441.07 578.335 1438.91 Q576.506 1436.74 573.358 1436.74 Q570.21 1436.74 568.358 1438.91 Q566.529 1441.07 566.529 1444.79 Q566.529 1448.54 568.358 1450.7 Q570.21 1452.85 573.358 1452.85 Z" fill="#000000" fill-rule="evenodd" fill-opacity="1" /><path clip-path="url(#clip430)" d="M761.401 1464.28 L769.04 1464.28 L769.04 1437.92 L760.73 1439.59 L760.73 1435.33 L768.994 1433.66 L773.67 1433.66 L773.67 1464.28 L781.309 1464.28 L781.309 1468.22 L761.401 1468.22 L761.401 1464.28 Z" fill="#000000" fill-rule="evenodd" fill-opacity="1" /><path clip-path="url(#clip430)" d="M790.753 1462.34 L795.637 1462.34 L795.637 1468.22 L790.753 1468.22 L790.753 1462.34 Z" fill="#000000" fill-rule="evenodd" fill-opacity="1" /><path clip-path="url(#clip430)" d="M815.822 1436.74 Q812.211 1436.74 810.383 1440.3 Q808.577 1443.84 808.577 1450.97 Q808.577 1458.08 810.383 1461.65 Q812.211 1465.19 815.822 1465.19 Q819.457 1465.19 821.262 1461.65 Q823.091 1458.08 823.091 1450.97 Q823.091 1443.84 821.262 1440.3 Q819.457 1436.74 815.822 1436.74 M815.822 1433.03 Q821.633 1433.03 824.688 1437.64 Q827.767 1442.22 827.767 1450.97 Q827.767 1459.7 824.688 1464.31 Q821.633 1468.89 815.822 1468.89 Q810.012 1468.89 806.934 1464.31 Q803.878 1459.7 803.878 1450.97 Q803.878 1442.22 806.934 1437.64 Q810.012 1433.03 815.822 1433.03 Z" fill="#000000" fill-rule="evenodd" fill-opacity="1" /><path clip-path="url(#clip430)" d="M1005.06 1464.28 L1012.7 1464.28 L1012.7 1437.92 L1004.39 1439.59 L1004.39 1435.33 L1012.65 1433.66 L1017.33 1433.66 L1017.33 1464.28 L1024.97 1464.28 L1024.97 1468.22 L1005.06 1468.22 L1005.06 1464.28 Z" fill="#000000" fill-rule="evenodd" fill-opacity="1" /><path clip-path="url(#clip430)" d="M1034.41 1462.34 L1039.29 1462.34 L1039.29 1468.22 L1034.41 1468.22 L1034.41 1462.34 Z" fill="#000000" fill-rule="evenodd" fill-opacity="1" /><path clip-path="url(#clip430)" d="M1050.29 1464.28 L1057.93 1464.28 L1057.93 1437.92 L1049.62 1439.59 L1049.62 1435.33 L1057.88 1433.66 L1062.56 1433.66 L1062.56 1464.28 L1070.2 1464.28 L1070.2 1468.22 L1050.29 1468.22 L1050.29 1464.28 Z" fill="#000000" fill-rule="evenodd" fill-opacity="1" /><path clip-path="url(#clip430)" d="M679.531 1532.6 Q681.473 1529.35 686.279 1526.49 Q688.157 1525.38 693.949 1525.38 Q700.442 1525.38 704.485 1530.53 Q708.559 1535.69 708.559 1544.09 Q708.559 1552.49 704.485 1557.65 Q700.442 1562.81 693.949 1562.81 Q690.035 1562.81 687.202 1561.28 Q684.401 1559.72 682.555 1556.54 L682.555 1575.44 L676.667 1575.44 L676.667 1544.41 Q676.667 1537.06 679.531 1532.6 M702.48 1544.09 Q702.48 1537.63 699.806 1533.97 Q697.164 1530.28 692.517 1530.28 Q687.87 1530.28 685.197 1533.97 Q682.555 1537.63 682.555 1544.09 Q682.555 1550.55 685.197 1554.24 Q687.87 1557.91 692.517 1557.91 Q697.164 1557.91 699.806 1554.24 Q702.48 1550.55 702.48 1544.09 Z" fill="#000000" fill-rule="evenodd" fill-opacity="1" /><path clip-path="url(#clip430)" d="M745.353 1572.71 L745.353 1577.26 L711.487 1577.26 L711.487 1572.71 L745.353 1572.71 Z" fill="#000000" fill-rule="evenodd" fill-opacity="1" /><path clip-path="url(#clip430)" d="M765.436 1518.6 Q760.471 1518.6 757.957 1523.5 Q755.474 1528.37 755.474 1538.17 Q755.474 1547.94 757.957 1552.84 Q760.471 1557.71 765.436 1557.71 Q770.433 1557.71 772.916 1552.84 Q775.431 1547.94 775.431 1538.17 Q775.431 1528.37 772.916 1523.5 Q770.433 1518.6 765.436 1518.6 M765.436 1513.5 Q773.425 1513.5 777.627 1519.84 Q781.86 1526.14 781.86 1538.17 Q781.86 1550.17 777.627 1556.5 Q773.425 1562.81 765.436 1562.81 Q757.447 1562.81 753.214 1556.5 Q749.013 1550.17 749.013 1538.17 Q749.013 1526.14 753.214 1519.84 Q757.447 1513.5 765.436 1513.5 Z" fill="#000000" fill-rule="evenodd" fill-opacity="1" /><polyline clip-path="url(#clip432)" style="stroke:#000000; stroke-linecap:butt; stroke-linejoin:round; stroke-width:2; stroke-opacity:0.1; fill:none" points="
  235.429,1358.19 1223.1,1358.19 
  "/>
<polyline clip-path="url(#clip432)" style="stroke:#000000; stroke-linecap:butt; stroke-linejoin:round; stroke-width:2; stroke-opacity:0.1; fill:none" points="
  235.429,1067.92 1223.1,1067.92 
  "/>
<polyline clip-path="url(#clip432)" style="stroke:#000000; stroke-linecap:butt; stroke-linejoin:round; stroke-width:2; stroke-opacity:0.1; fill:none" points="
  235.429,777.646 1223.1,777.646 
  "/>
<polyline clip-path="url(#clip432)" style="stroke:#000000; stroke-linecap:butt; stroke-linejoin:round; stroke-width:2; stroke-opacity:0.1; fill:none" points="
  235.429,487.375 1223.1,487.375 
  "/>
<polyline clip-path="url(#clip432)" style="stroke:#000000; stroke-linecap:butt; stroke-linejoin:round; stroke-width:2; stroke-opacity:0.1; fill:none" points="
  235.429,197.105 1223.1,197.105 
  "/>
<polyline clip-path="url(#clip430)" style="stroke:#000000; stroke-linecap:butt; stroke-linejoin:round; stroke-width:4; stroke-opacity:1; fill:none" points="
  235.429,1393.02 235.429,162.272 
  "/>
<polyline clip-path="url(#clip430)" style="stroke:#000000; stroke-linecap:butt; stroke-linejoin:round; stroke-width:4; stroke-opacity:1; fill:none" points="
  235.429,1358.19 254.327,1358.19 
  "/>
<polyline clip-path="url(#clip430)" style="stroke:#000000; stroke-linecap:butt; stroke-linejoin:round; stroke-width:4; stroke-opacity:1; fill:none" points="
  235.429,1067.92 254.327,1067.92 
  "/>
<polyline clip-path="url(#clip430)" style="stroke:#000000; stroke-linecap:butt; stroke-linejoin:round; stroke-width:4; stroke-opacity:1; fill:none" points="
  235.429,777.646 254.327,777.646 
  "/>
<polyline clip-path="url(#clip430)" style="stroke:#000000; stroke-linecap:butt; stroke-linejoin:round; stroke-width:4; stroke-opacity:1; fill:none" points="
  235.429,487.375 254.327,487.375 
  "/>
<polyline clip-path="url(#clip430)" style="stroke:#000000; stroke-linecap:butt; stroke-linejoin:round; stroke-width:4; stroke-opacity:1; fill:none" points="
  235.429,197.105 254.327,197.105 
  "/>
<path clip-path="url(#clip430)" d="M163.485 1343.99 Q159.874 1343.99 158.045 1347.55 Q156.24 1351.09 156.24 1358.22 Q156.24 1365.33 158.045 1368.89 Q159.874 1372.43 163.485 1372.43 Q167.119 1372.43 168.925 1368.89 Q170.753 1365.33 170.753 1358.22 Q170.753 1351.09 168.925 1347.55 Q167.119 1343.99 163.485 1343.99 M163.485 1340.28 Q169.295 1340.28 172.351 1344.89 Q175.429 1349.47 175.429 1358.22 Q175.429 1366.95 172.351 1371.56 Q169.295 1376.14 163.485 1376.14 Q157.675 1376.14 154.596 1371.56 Q151.541 1366.95 151.541 1358.22 Q151.541 1349.47 154.596 1344.89 Q157.675 1340.28 163.485 1340.28 Z" fill="#000000" fill-rule="evenodd" fill-opacity="1" /><path clip-path="url(#clip430)" d="M155.522 1081.26 L163.161 1081.26 L163.161 1054.9 L154.851 1056.56 L154.851 1052.3 L163.115 1050.64 L167.79 1050.64 L167.79 1081.26 L175.429 1081.26 L175.429 1085.2 L155.522 1085.2 L155.522 1081.26 Z" fill="#000000" fill-rule="evenodd" fill-opacity="1" /><path clip-path="url(#clip430)" d="M159.11 790.991 L175.429 790.991 L175.429 794.926 L153.485 794.926 L153.485 790.991 Q156.147 788.236 160.73 783.607 Q165.337 778.954 166.517 777.611 Q168.763 775.088 169.642 773.352 Q170.545 771.593 170.545 769.903 Q170.545 767.148 168.601 765.412 Q166.679 763.676 163.578 763.676 Q161.378 763.676 158.925 764.44 Q156.494 765.204 153.716 766.755 L153.716 762.033 Q156.541 760.898 158.994 760.32 Q161.448 759.741 163.485 759.741 Q168.855 759.741 172.05 762.426 Q175.244 765.111 175.244 769.602 Q175.244 771.732 174.434 773.653 Q173.647 775.551 171.54 778.144 Q170.962 778.815 167.86 782.033 Q164.758 785.227 159.11 790.991 Z" fill="#000000" fill-rule="evenodd" fill-opacity="1" /><path clip-path="url(#clip430)" d="M168.3 486.021 Q171.656 486.739 173.531 489.007 Q175.429 491.276 175.429 494.609 Q175.429 499.725 171.911 502.526 Q168.392 505.327 161.911 505.327 Q159.735 505.327 157.42 504.887 Q155.129 504.47 152.675 503.614 L152.675 499.1 Q154.619 500.234 156.934 500.813 Q159.249 501.391 161.772 501.391 Q166.17 501.391 168.462 499.655 Q170.777 497.919 170.777 494.609 Q170.777 491.554 168.624 489.841 Q166.494 488.105 162.675 488.105 L158.647 488.105 L158.647 484.262 L162.86 484.262 Q166.309 484.262 168.138 482.896 Q169.966 481.507 169.966 478.915 Q169.966 476.253 168.068 474.841 Q166.193 473.406 162.675 473.406 Q160.753 473.406 158.554 473.822 Q156.355 474.239 153.716 475.118 L153.716 470.952 Q156.379 470.211 158.693 469.841 Q161.031 469.47 163.091 469.47 Q168.415 469.47 171.517 471.901 Q174.619 474.308 174.619 478.429 Q174.619 481.299 172.976 483.29 Q171.332 485.257 168.3 486.021 Z" fill="#000000" fill-rule="evenodd" fill-opacity="1" /><path clip-path="url(#clip430)" d="M165.846 183.899 L154.041 202.348 L165.846 202.348 L165.846 183.899 M164.619 179.825 L170.499 179.825 L170.499 202.348 L175.429 202.348 L175.429 206.237 L170.499 206.237 L170.499 214.385 L165.846 214.385 L165.846 206.237 L150.244 206.237 L150.244 201.723 L164.619 179.825 Z" fill="#000000" fill-rule="evenodd" fill-opacity="1" /><path clip-path="url(#clip430)" d="M40.3403 876.171 L40.3403 848.353 L45.6875 848.353 L71.3095 870.378 L71.3095 848.353 L75.9883 848.353 L75.9883 876.967 L70.6411 876.967 L45.0191 854.942 L45.0191 876.171 L40.3403 876.171 Z" fill="#000000" fill-rule="evenodd" fill-opacity="1" /><path clip-path="url(#clip430)" d="M26.5267 804.621 Q33.8473 808.886 41.0087 810.955 Q48.1701 813.023 55.5225 813.023 Q62.8749 813.023 70.1 810.955 Q77.2933 808.854 84.582 804.621 L84.582 809.713 Q77.1023 814.488 69.8772 816.875 Q62.6521 819.23 55.5225 819.23 Q48.4248 819.23 41.2315 816.875 Q34.0383 814.519 26.5267 809.713 L26.5267 804.621 Z" fill="#000000" fill-rule="evenodd" fill-opacity="1" /><path clip-path="url(#clip430)" d="M26.4631 793.481 L26.4631 787.592 L55.7135 787.592 L40.3403 770.119 L40.3403 762.639 L57.0185 781.545 L75.9883 761.843 L75.9883 769.482 L58.5781 787.592 L75.9883 787.592 L75.9883 793.481 L26.4631 793.481 Z" fill="#000000" fill-rule="evenodd" fill-opacity="1" /><path clip-path="url(#clip430)" d="M47.1835 727.755 Q43.2367 725.559 41.3588 722.503 Q39.481 719.448 39.481 715.31 Q39.481 709.74 43.3959 706.716 Q47.2789 703.692 54.4722 703.692 L75.9883 703.692 L75.9883 709.581 L54.6632 709.581 Q49.5388 709.581 47.0561 711.395 Q44.5735 713.209 44.5735 716.933 Q44.5735 721.485 47.5972 724.126 Q50.6209 726.768 55.8408 726.768 L75.9883 726.768 L75.9883 732.656 L54.6632 732.656 Q49.5069 732.656 47.0561 734.471 Q44.5735 736.285 44.5735 740.072 Q44.5735 744.56 47.6291 747.202 Q50.6528 749.844 55.8408 749.844 L75.9883 749.844 L75.9883 755.732 L40.3403 755.732 L40.3403 749.844 L45.8785 749.844 Q42.6002 747.839 41.0406 745.038 Q39.481 742.237 39.481 738.385 Q39.481 734.502 41.4543 731.797 Q43.4277 729.06 47.1835 727.755 Z" fill="#000000" fill-rule="evenodd" fill-opacity="1" /><path clip-path="url(#clip430)" d="M26.5267 692.934 L26.5267 687.842 Q34.0383 683.067 41.2315 680.712 Q48.4248 678.325 55.5225 678.325 Q62.6521 678.325 69.8772 680.712 Q77.1023 683.067 84.582 687.842 L84.582 692.934 Q77.2933 688.701 70.1 686.632 Q62.8749 684.532 55.5225 684.532 Q48.1701 684.532 41.0087 686.632 Q33.8473 688.701 26.5267 692.934 Z" fill="#000000" fill-rule="evenodd" fill-opacity="1" /><path clip-path="url(#clip430)" d="M665.968 35.3077 Q668.439 31.1758 674.556 27.5299 Q676.946 26.1121 684.318 26.1121 Q692.582 26.1121 697.727 32.6746 Q702.912 39.2371 702.912 49.9314 Q702.912 60.6258 697.727 67.1883 Q692.582 73.7508 684.318 73.7508 Q679.336 73.7508 675.731 71.8063 Q672.166 69.8214 669.816 65.7705 L669.816 89.8329 L662.322 89.8329 L662.322 50.3365 Q662.322 40.9789 665.968 35.3077 M695.175 49.9314 Q695.175 41.7081 691.772 37.0496 Q688.41 32.3505 682.496 32.3505 Q676.581 32.3505 673.178 37.0496 Q669.816 41.7081 669.816 49.9314 Q669.816 58.1548 673.178 62.8538 Q676.581 67.5124 682.496 67.5124 Q688.41 67.5124 691.772 62.8538 Q695.175 58.1548 695.175 49.9314 Z" fill="#000000" fill-rule="evenodd" fill-opacity="1" /><path clip-path="url(#clip430)" d="M749.741 86.3491 L749.741 92.1419 L706.639 92.1419 L706.639 86.3491 L749.741 86.3491 Z" fill="#000000" fill-rule="evenodd" fill-opacity="1" /><path clip-path="url(#clip430)" d="M775.302 17.4837 Q768.982 17.4837 765.782 23.7221 Q762.622 29.92 762.622 42.3968 Q762.622 54.833 765.782 61.0714 Q768.982 67.2693 775.302 67.2693 Q781.662 67.2693 784.821 61.0714 Q788.022 54.833 788.022 42.3968 Q788.022 29.92 784.821 23.7221 Q781.662 17.4837 775.302 17.4837 M775.302 11.0023 Q785.47 11.0023 790.817 19.0636 Q796.204 27.0843 796.204 42.3968 Q796.204 57.6687 790.817 65.73 Q785.47 73.7508 775.302 73.7508 Q765.134 73.7508 759.746 65.73 Q754.399 57.6687 754.399 42.3968 Q754.399 27.0843 759.746 19.0636 Q765.134 11.0023 775.302 11.0023 Z" fill="#000000" fill-rule="evenodd" fill-opacity="1" /><polyline clip-path="url(#clip432)" style="stroke:#009af9; stroke-linecap:butt; stroke-linejoin:round; stroke-width:4; stroke-opacity:1; fill:none" points="
  1188.33,1350.93 1174.75,1336.42 1161.22,1321.9 1147.74,1307.39 1134.32,1292.88 1120.95,1278.36 1107.63,1263.85 1094.36,1249.34 1081.15,1234.82 1067.99,1220.31 
  1054.88,1205.8 1041.82,1191.28 1028.81,1176.77 1015.86,1162.25 1002.96,1147.74 990.108,1133.23 977.308,1118.71 964.559,1104.2 951.863,1089.69 939.216,1075.17 
  926.621,1060.66 914.076,1046.15 901.578,1031.63 889.135,1017.12 876.741,1002.61 864.398,988.092 852.104,973.579 839.86,959.065 827.666,944.552 815.521,930.038 
  803.426,915.525 791.379,901.011 779.38,886.497 767.432,871.984 755.532,857.47 743.681,842.957 731.879,828.443 720.126,813.93 708.417,799.416 696.759,784.903 
  685.149,770.389 673.587,755.876 662.072,741.362 650.605,726.849 639.185,712.335 627.813,697.822 616.487,683.308 605.209,668.794 593.977,654.281 582.793,639.767 
  571.654,625.254 560.562,610.74 549.517,596.227 538.517,581.713 527.565,567.2 516.658,552.686 505.796,538.173 494.98,523.659 484.209,509.146 473.484,494.632 
  462.804,480.119 452.169,465.605 441.579,451.092 431.034,436.578 420.533,422.064 410.077,407.551 399.665,393.037 389.298,378.524 378.974,364.01 368.695,349.497 
  358.459,334.983 348.268,320.47 338.119,305.956 328.014,291.443 317.955,276.929 307.936,262.416 297.961,247.902 288.027,233.389 278.137,218.875 268.29,204.361 
  
  "/>
<polyline clip-path="url(#clip432)" style="stroke:#e26f46; stroke-linecap:butt; stroke-linejoin:round; stroke-width:4; stroke-opacity:1; fill:none" points="
  1195.14,1358.19 1181.53,1343.67 1167.98,1329.16 1154.47,1314.65 1141.02,1300.13 1127.63,1285.62 1114.28,1271.11 1100.99,1256.59 1087.75,1242.08 1074.56,1227.57 
  1061.43,1213.05 1048.34,1198.54 1035.31,1184.02 1022.33,1169.51 1009.4,1155 996.527,1140.48 983.702,1125.97 970.926,1111.46 958.205,1096.94 945.533,1082.43 
  932.913,1067.92 920.342,1053.4 907.821,1038.89 895.35,1024.38 882.932,1009.86 870.563,995.349 858.245,980.835 845.976,966.322 833.757,951.808 821.587,937.295 
  809.466,922.781 797.395,908.268 785.373,893.754 773.4,879.241 761.476,864.727 749.601,850.214 737.774,835.7 725.997,821.187 714.264,806.673 702.582,792.16 
  690.948,777.646 679.362,763.132 667.823,748.619 656.333,734.105 644.889,719.592 633.493,705.078 622.144,690.565 610.842,676.051 599.587,661.538 588.379,647.024 
  577.218,632.511 566.103,617.997 555.034,603.484 544.011,588.97 533.034,574.457 522.106,559.943 511.221,545.429 500.382,530.916 489.589,516.402 478.841,501.889 
  468.139,487.375 457.481,472.862 446.869,458.348 436.301,443.835 425.778,429.321 415.3,414.808 404.866,400.294 394.476,385.781 384.131,371.267 373.829,356.754 
  363.572,342.24 353.358,327.727 343.188,313.213 333.061,298.699 322.978,284.186 312.941,269.672 302.943,255.159 292.987,240.645 283.076,226.132 273.208,211.618 
  263.382,197.105 
  "/>
<path clip-path="url(#clip430)" d="
M617.884 358.817 L1190.17 358.817 L1190.17 203.297 L617.884 203.297  Z
  " fill="#ffffff" fill-rule="evenodd" fill-opacity="1"/>
<polyline clip-path="url(#clip430)" style="stroke:#000000; stroke-linecap:butt; stroke-linejoin:round; stroke-width:4; stroke-opacity:1; fill:none" points="
  617.884,358.817 1190.17,358.817 1190.17,203.297 617.884,203.297 617.884,358.817 
  "/>
<polyline clip-path="url(#clip430)" style="stroke:#009af9; stroke-linecap:butt; stroke-linejoin:round; stroke-width:4; stroke-opacity:1; fill:none" points="
  657.884,255.137 897.884,255.137 
  "/>
<path clip-path="url(#clip430)" d="M958.393 247.487 L958.393 251.468 Q956.588 250.473 954.759 249.987 Q952.953 249.477 951.102 249.477 Q946.958 249.477 944.666 252.116 Q942.375 254.732 942.375 259.477 Q942.375 264.223 944.666 266.862 Q946.958 269.477 951.102 269.477 Q952.953 269.477 954.759 268.991 Q956.588 268.482 958.393 267.487 L958.393 271.422 Q956.611 272.255 954.69 272.672 Q952.791 273.088 950.639 273.088 Q944.782 273.088 941.333 269.408 Q937.884 265.727 937.884 259.477 Q937.884 253.135 941.356 249.501 Q944.852 245.866 950.916 245.866 Q952.884 245.866 954.759 246.283 Q956.634 246.677 958.393 247.487 Z" fill="#000000" fill-rule="evenodd" fill-opacity="1" /><path clip-path="url(#clip430)" d="M987.976 258.389 L987.976 260.473 L968.393 260.473 Q968.671 264.871 971.032 267.186 Q973.416 269.477 977.652 269.477 Q980.106 269.477 982.398 268.876 Q984.713 268.274 986.981 267.07 L986.981 271.098 Q984.689 272.07 982.282 272.579 Q979.875 273.088 977.398 273.088 Q971.194 273.088 967.56 269.477 Q963.949 265.866 963.949 259.709 Q963.949 253.343 967.375 249.616 Q970.824 245.866 976.657 245.866 Q981.889 245.866 984.921 249.246 Q987.976 252.602 987.976 258.389 M983.717 257.139 Q983.671 253.644 981.75 251.561 Q979.851 249.477 976.703 249.477 Q973.139 249.477 970.986 251.491 Q968.856 253.505 968.532 257.163 L983.717 257.139 Z" fill="#000000" fill-rule="evenodd" fill-opacity="1" /><path clip-path="url(#clip430)" d="M1016.52 256.769 L1016.52 272.417 L1012.26 272.417 L1012.26 256.908 Q1012.26 253.227 1010.82 251.399 Q1009.39 249.57 1006.52 249.57 Q1003.07 249.57 1001.08 251.769 Q999.087 253.968 999.087 257.764 L999.087 272.417 L994.805 272.417 L994.805 246.491 L999.087 246.491 L999.087 250.519 Q1000.62 248.181 1002.68 247.024 Q1004.76 245.866 1007.47 245.866 Q1011.93 245.866 1014.23 248.644 Q1016.52 251.399 1016.52 256.769 Z" fill="#000000" fill-rule="evenodd" fill-opacity="1" /><path clip-path="url(#clip430)" d="M1029.23 239.13 L1029.23 246.491 L1038 246.491 L1038 249.802 L1029.23 249.802 L1029.23 263.876 Q1029.23 267.047 1030.08 267.95 Q1030.96 268.852 1033.62 268.852 L1038 268.852 L1038 272.417 L1033.62 272.417 Q1028.69 272.417 1026.82 270.588 Q1024.94 268.737 1024.94 263.876 L1024.94 249.802 L1021.82 249.802 L1021.82 246.491 L1024.94 246.491 L1024.94 239.13 L1029.23 239.13 Z" fill="#000000" fill-rule="evenodd" fill-opacity="1" /><path clip-path="url(#clip430)" d="M1065.78 258.389 L1065.78 260.473 L1046.19 260.473 Q1046.47 264.871 1048.83 267.186 Q1051.22 269.477 1055.45 269.477 Q1057.91 269.477 1060.2 268.876 Q1062.51 268.274 1064.78 267.07 L1064.78 271.098 Q1062.49 272.07 1060.08 272.579 Q1057.68 273.088 1055.2 273.088 Q1048.99 273.088 1045.36 269.477 Q1041.75 265.866 1041.75 259.709 Q1041.75 253.343 1045.18 249.616 Q1048.62 245.866 1054.46 245.866 Q1059.69 245.866 1062.72 249.246 Q1065.78 252.602 1065.78 258.389 M1061.52 257.139 Q1061.47 253.644 1059.55 251.561 Q1057.65 249.477 1054.5 249.477 Q1050.94 249.477 1048.79 251.491 Q1046.66 253.505 1046.33 257.163 L1061.52 257.139 Z" fill="#000000" fill-rule="evenodd" fill-opacity="1" /><path clip-path="url(#clip430)" d="M1087.79 250.473 Q1087.07 250.056 1086.22 249.871 Q1085.38 249.663 1084.36 249.663 Q1080.75 249.663 1078.81 252.024 Q1076.89 254.362 1076.89 258.76 L1076.89 272.417 L1072.61 272.417 L1072.61 246.491 L1076.89 246.491 L1076.89 250.519 Q1078.23 248.158 1080.38 247.024 Q1082.54 245.866 1085.61 245.866 Q1086.05 245.866 1086.59 245.936 Q1087.12 245.982 1087.77 246.098 L1087.79 250.473 Z" fill="#000000" fill-rule="evenodd" fill-opacity="1" /><path clip-path="url(#clip430)" d="M1108.79 247.255 L1108.79 251.283 Q1106.98 250.357 1105.04 249.894 Q1103.09 249.431 1101.01 249.431 Q1097.84 249.431 1096.24 250.403 Q1094.67 251.376 1094.67 253.32 Q1094.67 254.802 1095.8 255.658 Q1096.93 256.491 1100.36 257.255 L1101.82 257.579 Q1106.36 258.552 1108.25 260.334 Q1110.17 262.093 1110.17 265.264 Q1110.17 268.876 1107.3 270.982 Q1104.46 273.088 1099.46 273.088 Q1097.37 273.088 1095.11 272.672 Q1092.86 272.278 1090.36 271.468 L1090.36 267.07 Q1092.72 268.297 1095.01 268.922 Q1097.3 269.524 1099.55 269.524 Q1102.56 269.524 1104.18 268.505 Q1105.8 267.463 1105.8 265.589 Q1105.8 263.852 1104.62 262.926 Q1103.46 262.001 1099.5 261.144 L1098.02 260.797 Q1094.06 259.964 1092.3 258.251 Q1090.55 256.514 1090.55 253.505 Q1090.55 249.848 1093.14 247.857 Q1095.73 245.866 1100.5 245.866 Q1102.86 245.866 1104.94 246.214 Q1107.03 246.561 1108.79 247.255 Z" fill="#000000" fill-rule="evenodd" fill-opacity="1" /><polyline clip-path="url(#clip430)" style="stroke:#e26f46; stroke-linecap:butt; stroke-linejoin:round; stroke-width:4; stroke-opacity:1; fill:none" points="
  657.884,306.977 897.884,306.977 
  "/>
<path clip-path="url(#clip430)" d="M954.389 288.239 L954.389 291.78 L950.315 291.78 Q948.023 291.78 947.12 292.706 Q946.241 293.632 946.241 296.04 L946.241 298.331 L953.254 298.331 L953.254 301.642 L946.241 301.642 L946.241 324.257 L941.958 324.257 L941.958 301.642 L937.884 301.642 L937.884 298.331 L941.958 298.331 L941.958 296.526 Q941.958 292.197 943.972 290.23 Q945.986 288.239 950.361 288.239 L954.389 288.239 Z" fill="#000000" fill-rule="evenodd" fill-opacity="1" /><path clip-path="url(#clip430)" d="M969.736 311.225 Q964.574 311.225 962.583 312.405 Q960.592 313.586 960.592 316.433 Q960.592 318.702 962.074 320.044 Q963.578 321.364 966.148 321.364 Q969.689 321.364 971.819 318.864 Q973.972 316.341 973.972 312.174 L973.972 311.225 L969.736 311.225 M978.231 309.466 L978.231 324.257 L973.972 324.257 L973.972 320.322 Q972.514 322.683 970.338 323.817 Q968.162 324.928 965.014 324.928 Q961.032 324.928 958.671 322.706 Q956.333 320.461 956.333 316.711 Q956.333 312.336 959.25 310.114 Q962.19 307.892 968 307.892 L973.972 307.892 L973.972 307.475 Q973.972 304.535 972.027 302.938 Q970.106 301.317 966.611 301.317 Q964.389 301.317 962.282 301.85 Q960.176 302.382 958.231 303.447 L958.231 299.512 Q960.569 298.609 962.768 298.169 Q964.967 297.706 967.051 297.706 Q972.676 297.706 975.453 300.623 Q978.231 303.54 978.231 309.466 Z" fill="#000000" fill-rule="evenodd" fill-opacity="1" /><path clip-path="url(#clip430)" d="M1005.66 299.327 L1005.66 303.308 Q1003.86 302.313 1002.03 301.827 Q1000.22 301.317 998.37 301.317 Q994.226 301.317 991.935 303.956 Q989.643 306.572 989.643 311.317 Q989.643 316.063 991.935 318.702 Q994.226 321.317 998.37 321.317 Q1000.22 321.317 1002.03 320.831 Q1003.86 320.322 1005.66 319.327 L1005.66 323.262 Q1003.88 324.095 1001.96 324.512 Q1000.06 324.928 997.907 324.928 Q992.05 324.928 988.601 321.248 Q985.152 317.567 985.152 311.317 Q985.152 304.975 988.625 301.341 Q992.12 297.706 998.185 297.706 Q1000.15 297.706 1002.03 298.123 Q1003.9 298.517 1005.66 299.327 Z" fill="#000000" fill-rule="evenodd" fill-opacity="1" /><path clip-path="url(#clip430)" d="M1035.24 310.229 L1035.24 312.313 L1015.66 312.313 Q1015.94 316.711 1018.3 319.026 Q1020.68 321.317 1024.92 321.317 Q1027.37 321.317 1029.67 320.716 Q1031.98 320.114 1034.25 318.91 L1034.25 322.938 Q1031.96 323.91 1029.55 324.419 Q1027.14 324.928 1024.67 324.928 Q1018.46 324.928 1014.83 321.317 Q1011.22 317.706 1011.22 311.549 Q1011.22 305.183 1014.64 301.456 Q1018.09 297.706 1023.93 297.706 Q1029.16 297.706 1032.19 301.086 Q1035.24 304.442 1035.24 310.229 M1030.99 308.979 Q1030.94 305.484 1029.02 303.401 Q1027.12 301.317 1023.97 301.317 Q1020.41 301.317 1018.25 303.331 Q1016.12 305.345 1015.8 309.003 L1030.99 308.979 Z" fill="#000000" fill-rule="evenodd" fill-opacity="1" /><path clip-path="url(#clip430)" d="M1058.76 299.095 L1058.76 303.123 Q1056.96 302.197 1055.01 301.734 Q1053.07 301.271 1050.99 301.271 Q1047.81 301.271 1046.22 302.243 Q1044.64 303.216 1044.64 305.16 Q1044.64 306.642 1045.78 307.498 Q1046.91 308.331 1050.34 309.095 L1051.8 309.419 Q1056.33 310.392 1058.23 312.174 Q1060.15 313.933 1060.15 317.104 Q1060.15 320.716 1057.28 322.822 Q1054.43 324.928 1049.43 324.928 Q1047.35 324.928 1045.08 324.512 Q1042.84 324.118 1040.34 323.308 L1040.34 318.91 Q1042.7 320.137 1044.99 320.762 Q1047.28 321.364 1049.53 321.364 Q1052.54 321.364 1054.16 320.345 Q1055.78 319.303 1055.78 317.429 Q1055.78 315.692 1054.6 314.766 Q1053.44 313.841 1049.48 312.984 L1048 312.637 Q1044.04 311.804 1042.28 310.091 Q1040.52 308.354 1040.52 305.345 Q1040.52 301.688 1043.12 299.697 Q1045.71 297.706 1050.48 297.706 Q1052.84 297.706 1054.92 298.054 Q1057 298.401 1058.76 299.095 Z" fill="#000000" fill-rule="evenodd" fill-opacity="1" /><path clip-path="url(#clip430)" d="
M1568.76 1393.02 L2556.43 1393.02 L2556.43 162.272 L1568.76 162.272  Z
  " fill="#ffffff" fill-rule="evenodd" fill-opacity="1"/>
<defs>
  <clipPath id="clip433">
    <rect x="1568" y="162" width="989" height="1232"/>
  </clipPath>
</defs>
<polyline clip-path="url(#clip433)" style="stroke:#000000; stroke-linecap:butt; stroke-linejoin:round; stroke-width:2; stroke-opacity:0.1; fill:none" points="
  1750.58,1393.02 1750.58,162.272 
  "/>
<polyline clip-path="url(#clip433)" style="stroke:#000000; stroke-linecap:butt; stroke-linejoin:round; stroke-width:2; stroke-opacity:0.1; fill:none" points="
  1997.22,1393.02 1997.22,162.272 
  "/>
<polyline clip-path="url(#clip433)" style="stroke:#000000; stroke-linecap:butt; stroke-linejoin:round; stroke-width:2; stroke-opacity:0.1; fill:none" points="
  2243.86,1393.02 2243.86,162.272 
  "/>
<polyline clip-path="url(#clip433)" style="stroke:#000000; stroke-linecap:butt; stroke-linejoin:round; stroke-width:2; stroke-opacity:0.1; fill:none" points="
  2490.5,1393.02 2490.5,162.272 
  "/>
<polyline clip-path="url(#clip430)" style="stroke:#000000; stroke-linecap:butt; stroke-linejoin:round; stroke-width:4; stroke-opacity:1; fill:none" points="
  1568.76,1393.02 2556.43,1393.02 
  "/>
<polyline clip-path="url(#clip430)" style="stroke:#000000; stroke-linecap:butt; stroke-linejoin:round; stroke-width:4; stroke-opacity:1; fill:none" points="
  1750.58,1393.02 1750.58,1374.12 
  "/>
<polyline clip-path="url(#clip430)" style="stroke:#000000; stroke-linecap:butt; stroke-linejoin:round; stroke-width:4; stroke-opacity:1; fill:none" points="
  1997.22,1393.02 1997.22,1374.12 
  "/>
<polyline clip-path="url(#clip430)" style="stroke:#000000; stroke-linecap:butt; stroke-linejoin:round; stroke-width:4; stroke-opacity:1; fill:none" points="
  2243.86,1393.02 2243.86,1374.12 
  "/>
<polyline clip-path="url(#clip430)" style="stroke:#000000; stroke-linecap:butt; stroke-linejoin:round; stroke-width:4; stroke-opacity:1; fill:none" points="
  2490.5,1393.02 2490.5,1374.12 
  "/>
<path clip-path="url(#clip430)" d="M1723.93 1433.66 L1746.16 1433.66 L1746.16 1435.65 L1733.61 1468.22 L1728.73 1468.22 L1740.53 1437.59 L1723.93 1437.59 L1723.93 1433.66 Z" fill="#000000" fill-rule="evenodd" fill-opacity="1" /><path clip-path="url(#clip430)" d="M1765.28 1436.74 Q1761.67 1436.74 1759.84 1440.3 Q1758.03 1443.84 1758.03 1450.97 Q1758.03 1458.08 1759.84 1461.65 Q1761.67 1465.19 1765.28 1465.19 Q1768.91 1465.19 1770.72 1461.65 Q1772.55 1458.08 1772.55 1450.97 Q1772.55 1443.84 1770.72 1440.3 Q1768.91 1436.74 1765.28 1436.74 M1765.28 1433.03 Q1771.09 1433.03 1774.14 1437.64 Q1777.22 1442.22 1777.22 1450.97 Q1777.22 1459.7 1774.14 1464.31 Q1771.09 1468.89 1765.28 1468.89 Q1759.47 1468.89 1756.39 1464.31 Q1753.33 1459.7 1753.33 1450.97 Q1753.33 1442.22 1756.39 1437.64 Q1759.47 1433.03 1765.28 1433.03 Z" fill="#000000" fill-rule="evenodd" fill-opacity="1" /><path clip-path="url(#clip430)" d="M1982.09 1451.81 Q1978.76 1451.81 1976.84 1453.59 Q1974.94 1455.37 1974.94 1458.5 Q1974.94 1461.62 1976.84 1463.4 Q1978.76 1465.19 1982.09 1465.19 Q1985.42 1465.19 1987.34 1463.4 Q1989.27 1461.6 1989.27 1458.5 Q1989.27 1455.37 1987.34 1453.59 Q1985.45 1451.81 1982.09 1451.81 M1977.41 1449.82 Q1974.4 1449.08 1972.71 1447.02 Q1971.05 1444.96 1971.05 1441.99 Q1971.05 1437.85 1973.99 1435.44 Q1976.95 1433.03 1982.09 1433.03 Q1987.25 1433.03 1990.19 1435.44 Q1993.13 1437.85 1993.13 1441.99 Q1993.13 1444.96 1991.44 1447.02 Q1989.78 1449.08 1986.79 1449.82 Q1990.17 1450.6 1992.04 1452.9 Q1993.94 1455.19 1993.94 1458.5 Q1993.94 1463.52 1990.86 1466.21 Q1987.81 1468.89 1982.09 1468.89 Q1976.37 1468.89 1973.29 1466.21 Q1970.24 1463.52 1970.24 1458.5 Q1970.24 1455.19 1972.14 1452.9 Q1974.03 1450.6 1977.41 1449.82 M1975.7 1442.43 Q1975.7 1445.12 1977.37 1446.62 Q1979.06 1448.13 1982.09 1448.13 Q1985.1 1448.13 1986.79 1446.62 Q1988.5 1445.12 1988.5 1442.43 Q1988.5 1439.75 1986.79 1438.24 Q1985.1 1436.74 1982.09 1436.74 Q1979.06 1436.74 1977.37 1438.24 Q1975.7 1439.75 1975.7 1442.43 Z" fill="#000000" fill-rule="evenodd" fill-opacity="1" /><path clip-path="url(#clip430)" d="M2012.25 1436.74 Q2008.64 1436.74 2006.81 1440.3 Q2005.01 1443.84 2005.01 1450.97 Q2005.01 1458.08 2006.81 1461.65 Q2008.64 1465.19 2012.25 1465.19 Q2015.89 1465.19 2017.69 1461.65 Q2019.52 1458.08 2019.52 1450.97 Q2019.52 1443.84 2017.69 1440.3 Q2015.89 1436.74 2012.25 1436.74 M2012.25 1433.03 Q2018.06 1433.03 2021.12 1437.64 Q2024.2 1442.22 2024.2 1450.97 Q2024.2 1459.7 2021.12 1464.31 Q2018.06 1468.89 2012.25 1468.89 Q2006.44 1468.89 2003.36 1464.31 Q2000.31 1459.7 2000.31 1450.97 Q2000.31 1442.22 2003.36 1437.64 Q2006.44 1433.03 2012.25 1433.03 Z" fill="#000000" fill-rule="evenodd" fill-opacity="1" /><path clip-path="url(#clip430)" d="M2218.98 1467.5 L2218.98 1463.24 Q2220.74 1464.08 2222.55 1464.52 Q2224.35 1464.96 2226.09 1464.96 Q2230.72 1464.96 2233.15 1461.85 Q2235.6 1458.73 2235.95 1452.39 Q2234.61 1454.38 2232.55 1455.44 Q2230.49 1456.51 2227.99 1456.51 Q2222.8 1456.51 2219.77 1453.38 Q2216.76 1450.23 2216.76 1444.79 Q2216.76 1439.47 2219.91 1436.25 Q2223.06 1433.03 2228.29 1433.03 Q2234.28 1433.03 2237.43 1437.64 Q2240.6 1442.22 2240.6 1450.97 Q2240.6 1459.15 2236.71 1464.03 Q2232.85 1468.89 2226.3 1468.89 Q2224.54 1468.89 2222.73 1468.54 Q2220.93 1468.2 2218.98 1467.5 M2228.29 1452.85 Q2231.44 1452.85 2233.27 1450.7 Q2235.12 1448.54 2235.12 1444.79 Q2235.12 1441.07 2233.27 1438.91 Q2231.44 1436.74 2228.29 1436.74 Q2225.14 1436.74 2223.29 1438.91 Q2221.46 1441.07 2221.46 1444.79 Q2221.46 1448.54 2223.29 1450.7 Q2225.14 1452.85 2228.29 1452.85 Z" fill="#000000" fill-rule="evenodd" fill-opacity="1" /><path clip-path="url(#clip430)" d="M2259.01 1436.74 Q2255.4 1436.74 2253.57 1440.3 Q2251.76 1443.84 2251.76 1450.97 Q2251.76 1458.08 2253.57 1461.65 Q2255.4 1465.19 2259.01 1465.19 Q2262.64 1465.19 2264.45 1461.65 Q2266.28 1458.08 2266.28 1450.97 Q2266.28 1443.84 2264.45 1440.3 Q2262.64 1436.74 2259.01 1436.74 M2259.01 1433.03 Q2264.82 1433.03 2267.87 1437.64 Q2270.95 1442.22 2270.95 1450.97 Q2270.95 1459.7 2267.87 1464.31 Q2264.82 1468.89 2259.01 1468.89 Q2253.2 1468.89 2250.12 1464.31 Q2247.06 1459.7 2247.06 1450.97 Q2247.06 1442.22 2250.12 1437.64 Q2253.2 1433.03 2259.01 1433.03 Z" fill="#000000" fill-rule="evenodd" fill-opacity="1" /><path clip-path="url(#clip430)" d="M2450.1 1464.28 L2457.74 1464.28 L2457.74 1437.92 L2449.43 1439.59 L2449.43 1435.33 L2457.69 1433.66 L2462.37 1433.66 L2462.37 1464.28 L2470.01 1464.28 L2470.01 1468.22 L2450.1 1468.22 L2450.1 1464.28 Z" fill="#000000" fill-rule="evenodd" fill-opacity="1" /><path clip-path="url(#clip430)" d="M2489.45 1436.74 Q2485.84 1436.74 2484.01 1440.3 Q2482.21 1443.84 2482.21 1450.97 Q2482.21 1458.08 2484.01 1461.65 Q2485.84 1465.19 2489.45 1465.19 Q2493.09 1465.19 2494.89 1461.65 Q2496.72 1458.08 2496.72 1450.97 Q2496.72 1443.84 2494.89 1440.3 Q2493.09 1436.74 2489.45 1436.74 M2489.45 1433.03 Q2495.26 1433.03 2498.32 1437.64 Q2501.4 1442.22 2501.4 1450.97 Q2501.4 1459.7 2498.32 1464.31 Q2495.26 1468.89 2489.45 1468.89 Q2483.64 1468.89 2480.56 1464.31 Q2477.51 1459.7 2477.51 1450.97 Q2477.51 1442.22 2480.56 1437.64 Q2483.64 1433.03 2489.45 1433.03 Z" fill="#000000" fill-rule="evenodd" fill-opacity="1" /><path clip-path="url(#clip430)" d="M2519.62 1436.74 Q2516 1436.74 2514.18 1440.3 Q2512.37 1443.84 2512.37 1450.97 Q2512.37 1458.08 2514.18 1461.65 Q2516 1465.19 2519.62 1465.19 Q2523.25 1465.19 2525.06 1461.65 Q2526.88 1458.08 2526.88 1450.97 Q2526.88 1443.84 2525.06 1440.3 Q2523.25 1436.74 2519.62 1436.74 M2519.62 1433.03 Q2525.43 1433.03 2528.48 1437.64 Q2531.56 1442.22 2531.56 1450.97 Q2531.56 1459.7 2528.48 1464.31 Q2525.43 1468.89 2519.62 1468.89 Q2513.81 1468.89 2510.73 1464.31 Q2507.67 1459.7 2507.67 1450.97 Q2507.67 1442.22 2510.73 1437.64 Q2513.81 1433.03 2519.62 1433.03 Z" fill="#000000" fill-rule="evenodd" fill-opacity="1" /><path clip-path="url(#clip430)" d="M1923.7 1556.54 L1923.7 1575.44 L1917.81 1575.44 L1917.81 1526.24 L1923.7 1526.24 L1923.7 1531.65 Q1925.54 1528.46 1928.34 1526.94 Q1931.18 1525.38 1935.09 1525.38 Q1941.58 1525.38 1945.63 1530.53 Q1949.7 1535.69 1949.7 1544.09 Q1949.7 1552.49 1945.63 1557.65 Q1941.58 1562.81 1935.09 1562.81 Q1931.18 1562.81 1928.34 1561.28 Q1925.54 1559.72 1923.7 1556.54 M1943.62 1544.09 Q1943.62 1537.63 1940.95 1533.97 Q1938.31 1530.28 1933.66 1530.28 Q1929.01 1530.28 1926.34 1533.97 Q1923.7 1537.63 1923.7 1544.09 Q1923.7 1550.55 1926.34 1554.24 Q1929.01 1557.91 1933.66 1557.91 Q1938.31 1557.91 1940.95 1554.24 Q1943.62 1550.55 1943.62 1544.09 Z" fill="#000000" fill-rule="evenodd" fill-opacity="1" /><path clip-path="url(#clip430)" d="M1986.49 1572.71 L1986.49 1577.26 L1952.63 1577.26 L1952.63 1572.71 L1986.49 1572.71 Z" fill="#000000" fill-rule="evenodd" fill-opacity="1" /><path clip-path="url(#clip430)" d="M2006.58 1518.6 Q2001.61 1518.6 1999.1 1523.5 Q1996.62 1528.37 1996.62 1538.17 Q1996.62 1547.94 1999.1 1552.84 Q2001.61 1557.71 2006.58 1557.71 Q2011.58 1557.71 2014.06 1552.84 Q2016.57 1547.94 2016.57 1538.17 Q2016.57 1528.37 2014.06 1523.5 Q2011.58 1518.6 2006.58 1518.6 M2006.58 1513.5 Q2014.57 1513.5 2018.77 1519.84 Q2023 1526.14 2023 1538.17 Q2023 1550.17 2018.77 1556.5 Q2014.57 1562.81 2006.58 1562.81 Q1998.59 1562.81 1994.36 1556.5 Q1990.15 1550.17 1990.15 1538.17 Q1990.15 1526.14 1994.36 1519.84 Q1998.59 1513.5 2006.58 1513.5 Z" fill="#000000" fill-rule="evenodd" fill-opacity="1" /><path clip-path="url(#clip430)" d="M2068.26 1512.42 Q2064 1519.74 2061.93 1526.9 Q2059.86 1534.07 2059.86 1541.42 Q2059.86 1548.77 2061.93 1556 Q2064.03 1563.19 2068.26 1570.48 L2063.17 1570.48 Q2058.4 1563 2056.01 1555.77 Q2053.65 1548.55 2053.65 1541.42 Q2053.65 1534.32 2056.01 1527.13 Q2058.36 1519.93 2063.17 1512.42 L2068.26 1512.42 Z" fill="#000000" fill-rule="evenodd" fill-opacity="1" /><path clip-path="url(#clip430)" d="M2079.4 1512.36 L2085.29 1512.36 L2085.29 1541.61 L2102.76 1526.24 L2110.24 1526.24 L2091.34 1542.91 L2111.04 1561.88 L2103.4 1561.88 L2085.29 1544.47 L2085.29 1561.88 L2079.4 1561.88 L2079.4 1512.36 Z" fill="#000000" fill-rule="evenodd" fill-opacity="1" /><path clip-path="url(#clip430)" d="M2124.06 1519.65 L2124.06 1537.5 L2132.14 1537.5 Q2136.63 1537.5 2139.08 1535.18 Q2141.53 1532.86 2141.53 1528.56 Q2141.53 1524.29 2139.08 1521.97 Q2136.63 1519.65 2132.14 1519.65 L2124.06 1519.65 M2117.63 1514.36 L2132.14 1514.36 Q2140.13 1514.36 2144.2 1517.99 Q2148.31 1521.59 2148.31 1528.56 Q2148.31 1535.59 2144.2 1539.19 Q2140.13 1542.79 2132.14 1542.79 L2124.06 1542.79 L2124.06 1561.88 L2117.63 1561.88 L2117.63 1514.36 Z" fill="#000000" fill-rule="evenodd" fill-opacity="1" /><path clip-path="url(#clip430)" d="M2169.95 1543.96 Q2162.86 1543.96 2160.12 1545.59 Q2157.38 1547.21 2157.38 1551.13 Q2157.38 1554.24 2159.42 1556.09 Q2161.49 1557.91 2165.02 1557.91 Q2169.89 1557.91 2172.82 1554.47 Q2175.78 1551 2175.78 1545.27 L2175.78 1543.96 L2169.95 1543.96 M2181.64 1541.55 L2181.64 1561.88 L2175.78 1561.88 L2175.78 1556.47 Q2173.77 1559.72 2170.78 1561.28 Q2167.79 1562.81 2163.46 1562.81 Q2157.99 1562.81 2154.74 1559.75 Q2151.53 1556.66 2151.53 1551.51 Q2151.53 1545.49 2155.54 1542.44 Q2159.58 1539.38 2167.57 1539.38 L2175.78 1539.38 L2175.78 1538.81 Q2175.78 1534.77 2173.11 1532.57 Q2170.46 1530.34 2165.66 1530.34 Q2162.6 1530.34 2159.71 1531.07 Q2156.81 1531.81 2154.14 1533.27 L2154.14 1527.86 Q2157.35 1526.62 2160.37 1526.01 Q2163.4 1525.38 2166.26 1525.38 Q2174 1525.38 2177.82 1529.39 Q2181.64 1533.4 2181.64 1541.55 Z" fill="#000000" fill-rule="evenodd" fill-opacity="1" /><path clip-path="url(#clip430)" d="M2192.78 1512.42 L2197.87 1512.42 Q2202.64 1519.93 2205 1527.13 Q2207.38 1534.32 2207.38 1541.42 Q2207.38 1548.55 2205 1555.77 Q2202.64 1563 2197.87 1570.48 L2192.78 1570.48 Q2197.01 1563.19 2199.08 1556 Q2201.18 1548.77 2201.18 1541.42 Q2201.18 1534.07 2199.08 1526.9 Q2197.01 1519.74 2192.78 1512.42 Z" fill="#000000" fill-rule="evenodd" fill-opacity="1" /><polyline clip-path="url(#clip433)" style="stroke:#000000; stroke-linecap:butt; stroke-linejoin:round; stroke-width:2; stroke-opacity:0.1; fill:none" points="
  1568.76,1358.19 2556.43,1358.19 
  "/>
<polyline clip-path="url(#clip433)" style="stroke:#000000; stroke-linecap:butt; stroke-linejoin:round; stroke-width:2; stroke-opacity:0.1; fill:none" points="
  1568.76,1067.92 2556.43,1067.92 
  "/>
<polyline clip-path="url(#clip433)" style="stroke:#000000; stroke-linecap:butt; stroke-linejoin:round; stroke-width:2; stroke-opacity:0.1; fill:none" points="
  1568.76,777.646 2556.43,777.646 
  "/>
<polyline clip-path="url(#clip433)" style="stroke:#000000; stroke-linecap:butt; stroke-linejoin:round; stroke-width:2; stroke-opacity:0.1; fill:none" points="
  1568.76,487.375 2556.43,487.375 
  "/>
<polyline clip-path="url(#clip433)" style="stroke:#000000; stroke-linecap:butt; stroke-linejoin:round; stroke-width:2; stroke-opacity:0.1; fill:none" points="
  1568.76,197.105 2556.43,197.105 
  "/>
<polyline clip-path="url(#clip430)" style="stroke:#000000; stroke-linecap:butt; stroke-linejoin:round; stroke-width:4; stroke-opacity:1; fill:none" points="
  1568.76,1393.02 1568.76,162.272 
  "/>
<polyline clip-path="url(#clip430)" style="stroke:#000000; stroke-linecap:butt; stroke-linejoin:round; stroke-width:4; stroke-opacity:1; fill:none" points="
  1568.76,1358.19 1587.66,1358.19 
  "/>
<polyline clip-path="url(#clip430)" style="stroke:#000000; stroke-linecap:butt; stroke-linejoin:round; stroke-width:4; stroke-opacity:1; fill:none" points="
  1568.76,1067.92 1587.66,1067.92 
  "/>
<polyline clip-path="url(#clip430)" style="stroke:#000000; stroke-linecap:butt; stroke-linejoin:round; stroke-width:4; stroke-opacity:1; fill:none" points="
  1568.76,777.646 1587.66,777.646 
  "/>
<polyline clip-path="url(#clip430)" style="stroke:#000000; stroke-linecap:butt; stroke-linejoin:round; stroke-width:4; stroke-opacity:1; fill:none" points="
  1568.76,487.375 1587.66,487.375 
  "/>
<polyline clip-path="url(#clip430)" style="stroke:#000000; stroke-linecap:butt; stroke-linejoin:round; stroke-width:4; stroke-opacity:1; fill:none" points="
  1568.76,197.105 1587.66,197.105 
  "/>
<path clip-path="url(#clip430)" d="M1496.82 1343.99 Q1493.21 1343.99 1491.38 1347.55 Q1489.57 1351.09 1489.57 1358.22 Q1489.57 1365.33 1491.38 1368.89 Q1493.21 1372.43 1496.82 1372.43 Q1500.45 1372.43 1502.26 1368.89 Q1504.09 1365.33 1504.09 1358.22 Q1504.09 1351.09 1502.26 1347.55 Q1500.45 1343.99 1496.82 1343.99 M1496.82 1340.28 Q1502.63 1340.28 1505.68 1344.89 Q1508.76 1349.47 1508.76 1358.22 Q1508.76 1366.95 1505.68 1371.56 Q1502.63 1376.14 1496.82 1376.14 Q1491.01 1376.14 1487.93 1371.56 Q1484.87 1366.95 1484.87 1358.22 Q1484.87 1349.47 1487.93 1344.89 Q1491.01 1340.28 1496.82 1340.28 Z" fill="#000000" fill-rule="evenodd" fill-opacity="1" /><path clip-path="url(#clip430)" d="M1488.86 1081.26 L1496.49 1081.26 L1496.49 1054.9 L1488.18 1056.56 L1488.18 1052.3 L1496.45 1050.64 L1501.12 1050.64 L1501.12 1081.26 L1508.76 1081.26 L1508.76 1085.2 L1488.86 1085.2 L1488.86 1081.26 Z" fill="#000000" fill-rule="evenodd" fill-opacity="1" /><path clip-path="url(#clip430)" d="M1492.44 790.991 L1508.76 790.991 L1508.76 794.926 L1486.82 794.926 L1486.82 790.991 Q1489.48 788.236 1494.06 783.607 Q1498.67 778.954 1499.85 777.611 Q1502.1 775.088 1502.98 773.352 Q1503.88 771.593 1503.88 769.903 Q1503.88 767.148 1501.93 765.412 Q1500.01 763.676 1496.91 763.676 Q1494.71 763.676 1492.26 764.44 Q1489.83 765.204 1487.05 766.755 L1487.05 762.033 Q1489.87 760.898 1492.33 760.32 Q1494.78 759.741 1496.82 759.741 Q1502.19 759.741 1505.38 762.426 Q1508.58 765.111 1508.58 769.602 Q1508.58 771.732 1507.77 773.653 Q1506.98 775.551 1504.87 778.144 Q1504.3 778.815 1501.19 782.033 Q1498.09 785.227 1492.44 790.991 Z" fill="#000000" fill-rule="evenodd" fill-opacity="1" /><path clip-path="url(#clip430)" d="M1501.63 486.021 Q1504.99 486.739 1506.86 489.007 Q1508.76 491.276 1508.76 494.609 Q1508.76 499.725 1505.24 502.526 Q1501.73 505.327 1495.24 505.327 Q1493.07 505.327 1490.75 504.887 Q1488.46 504.47 1486.01 503.614 L1486.01 499.1 Q1487.95 500.234 1490.27 500.813 Q1492.58 501.391 1495.11 501.391 Q1499.5 501.391 1501.8 499.655 Q1504.11 497.919 1504.11 494.609 Q1504.11 491.554 1501.96 489.841 Q1499.83 488.105 1496.01 488.105 L1491.98 488.105 L1491.98 484.262 L1496.19 484.262 Q1499.64 484.262 1501.47 482.896 Q1503.3 481.507 1503.3 478.915 Q1503.3 476.253 1501.4 474.841 Q1499.53 473.406 1496.01 473.406 Q1494.09 473.406 1491.89 473.822 Q1489.69 474.239 1487.05 475.118 L1487.05 470.952 Q1489.71 470.211 1492.03 469.841 Q1494.36 469.47 1496.42 469.47 Q1501.75 469.47 1504.85 471.901 Q1507.95 474.308 1507.95 478.429 Q1507.95 481.299 1506.31 483.29 Q1504.67 485.257 1501.63 486.021 Z" fill="#000000" fill-rule="evenodd" fill-opacity="1" /><path clip-path="url(#clip430)" d="M1499.18 183.899 L1487.37 202.348 L1499.18 202.348 L1499.18 183.899 M1497.95 179.825 L1503.83 179.825 L1503.83 202.348 L1508.76 202.348 L1508.76 206.237 L1503.83 206.237 L1503.83 214.385 L1499.18 214.385 L1499.18 206.237 L1483.58 206.237 L1483.58 201.723 L1497.95 179.825 Z" fill="#000000" fill-rule="evenodd" fill-opacity="1" /><path clip-path="url(#clip430)" d="M1373.67 876.171 L1373.67 848.353 L1379.02 848.353 L1404.64 870.378 L1404.64 848.353 L1409.32 848.353 L1409.32 876.967 L1403.97 876.967 L1378.35 854.942 L1378.35 876.171 L1373.67 876.171 Z" fill="#000000" fill-rule="evenodd" fill-opacity="1" /><path clip-path="url(#clip430)" d="M1359.86 804.621 Q1367.18 808.886 1374.34 810.955 Q1381.5 813.023 1388.86 813.023 Q1396.21 813.023 1403.43 810.955 Q1410.63 808.854 1417.92 804.621 L1417.92 809.713 Q1410.44 814.488 1403.21 816.875 Q1395.99 819.23 1388.86 819.23 Q1381.76 819.23 1374.56 816.875 Q1367.37 814.519 1359.86 809.713 L1359.86 804.621 Z" fill="#000000" fill-rule="evenodd" fill-opacity="1" /><path clip-path="url(#clip430)" d="M1359.8 793.481 L1359.8 787.592 L1389.05 787.592 L1373.67 770.119 L1373.67 762.639 L1390.35 781.545 L1409.32 761.843 L1409.32 769.482 L1391.91 787.592 L1409.32 787.592 L1409.32 793.481 L1359.8 793.481 Z" fill="#000000" fill-rule="evenodd" fill-opacity="1" /><path clip-path="url(#clip430)" d="M1380.52 727.755 Q1376.57 725.559 1374.69 722.503 Q1372.81 719.448 1372.81 715.31 Q1372.81 709.74 1376.73 706.716 Q1380.61 703.692 1387.81 703.692 L1409.32 703.692 L1409.32 709.581 L1388 709.581 Q1382.87 709.581 1380.39 711.395 Q1377.91 713.209 1377.91 716.933 Q1377.91 721.485 1380.93 724.126 Q1383.95 726.768 1389.17 726.768 L1409.32 726.768 L1409.32 732.656 L1388 732.656 Q1382.84 732.656 1380.39 734.471 Q1377.91 736.285 1377.91 740.072 Q1377.91 744.56 1380.96 747.202 Q1383.99 749.844 1389.17 749.844 L1409.32 749.844 L1409.32 755.732 L1373.67 755.732 L1373.67 749.844 L1379.21 749.844 Q1375.93 747.839 1374.37 745.038 Q1372.81 742.237 1372.81 738.385 Q1372.81 734.502 1374.79 731.797 Q1376.76 729.06 1380.52 727.755 Z" fill="#000000" fill-rule="evenodd" fill-opacity="1" /><path clip-path="url(#clip430)" d="M1359.86 692.934 L1359.86 687.842 Q1367.37 683.067 1374.56 680.712 Q1381.76 678.325 1388.86 678.325 Q1395.99 678.325 1403.21 680.712 Q1410.44 683.067 1417.92 687.842 L1417.92 692.934 Q1410.63 688.701 1403.43 686.632 Q1396.21 684.532 1388.86 684.532 Q1381.5 684.532 1374.34 686.632 Q1367.18 688.701 1359.86 692.934 Z" fill="#000000" fill-rule="evenodd" fill-opacity="1" /><path clip-path="url(#clip430)" d="M1885.82 65.7705 L1885.82 89.8329 L1878.32 89.8329 L1878.32 27.2059 L1885.82 27.2059 L1885.82 34.0924 Q1888.16 30.0415 1891.73 28.0971 Q1895.33 26.1121 1900.32 26.1121 Q1908.58 26.1121 1913.73 32.6746 Q1918.91 39.2371 1918.91 49.9314 Q1918.91 60.6258 1913.73 67.1883 Q1908.58 73.7508 1900.32 73.7508 Q1895.33 73.7508 1891.73 71.8063 Q1888.16 69.8214 1885.82 65.7705 M1911.17 49.9314 Q1911.17 41.7081 1907.77 37.0496 Q1904.41 32.3505 1898.49 32.3505 Q1892.58 32.3505 1889.18 37.0496 Q1885.82 41.7081 1885.82 49.9314 Q1885.82 58.1548 1889.18 62.8538 Q1892.58 67.5124 1898.49 67.5124 Q1904.41 67.5124 1907.77 62.8538 Q1911.17 58.1548 1911.17 49.9314 Z" fill="#000000" fill-rule="evenodd" fill-opacity="1" /><path clip-path="url(#clip430)" d="M1965.74 86.3491 L1965.74 92.1419 L1922.64 92.1419 L1922.64 86.3491 L1965.74 86.3491 Z" fill="#000000" fill-rule="evenodd" fill-opacity="1" /><path clip-path="url(#clip430)" d="M1991.3 17.4837 Q1984.98 17.4837 1981.78 23.7221 Q1978.62 29.92 1978.62 42.3968 Q1978.62 54.833 1981.78 61.0714 Q1984.98 67.2693 1991.3 67.2693 Q1997.66 67.2693 2000.82 61.0714 Q2004.02 54.833 2004.02 42.3968 Q2004.02 29.92 2000.82 23.7221 Q1997.66 17.4837 1991.3 17.4837 M1991.3 11.0023 Q2001.47 11.0023 2006.82 19.0636 Q2012.2 27.0843 2012.2 42.3968 Q2012.2 57.6687 2006.82 65.73 Q2001.47 73.7508 1991.3 73.7508 Q1981.13 73.7508 1975.75 65.73 Q1970.4 57.6687 1970.4 42.3968 Q1970.4 27.0843 1975.75 19.0636 Q1981.13 11.0023 1991.3 11.0023 Z" fill="#000000" fill-rule="evenodd" fill-opacity="1" /><path clip-path="url(#clip430)" d="M2069.81 9.62495 Q2064.38 18.942 2061.75 28.0566 Q2059.11 37.1711 2059.11 46.5287 Q2059.11 55.8863 2061.75 65.0818 Q2064.42 74.2369 2069.81 83.5134 L2063.33 83.5134 Q2057.25 73.9938 2054.21 64.7983 Q2051.21 55.6027 2051.21 46.5287 Q2051.21 37.4952 2054.21 28.3401 Q2057.21 19.1851 2063.33 9.62495 L2069.81 9.62495 Z" fill="#000000" fill-rule="evenodd" fill-opacity="1" /><path clip-path="url(#clip430)" d="M2083.99 9.54393 L2091.48 9.54393 L2091.48 46.7717 L2113.72 27.2059 L2123.24 27.2059 L2099.18 48.4326 L2124.25 72.576 L2114.53 72.576 L2091.48 50.4176 L2091.48 72.576 L2083.99 72.576 L2083.99 9.54393 Z" fill="#000000" fill-rule="evenodd" fill-opacity="1" /><path clip-path="url(#clip430)" d="M2140.82 18.8205 L2140.82 41.5461 L2151.11 41.5461 Q2156.82 41.5461 2159.94 38.5889 Q2163.06 35.6318 2163.06 30.163 Q2163.06 24.7348 2159.94 21.7777 Q2156.82 18.8205 2151.11 18.8205 L2140.82 18.8205 M2132.64 12.096 L2151.11 12.096 Q2161.28 12.096 2166.46 16.714 Q2171.69 21.2916 2171.69 30.163 Q2171.69 39.1155 2166.46 43.6931 Q2161.28 48.2706 2151.11 48.2706 L2140.82 48.2706 L2140.82 72.576 L2132.64 72.576 L2132.64 12.096 Z" fill="#000000" fill-rule="evenodd" fill-opacity="1" /><path clip-path="url(#clip430)" d="M2199.23 49.7694 Q2190.2 49.7694 2186.72 51.8354 Q2183.23 53.9013 2183.23 58.8839 Q2183.23 62.8538 2185.83 65.2034 Q2188.46 67.5124 2192.95 67.5124 Q2199.15 67.5124 2202.88 63.1374 Q2206.65 58.7219 2206.65 51.4303 L2206.65 49.7694 L2199.23 49.7694 M2214.1 46.6907 L2214.1 72.576 L2206.65 72.576 L2206.65 65.6895 Q2204.09 69.8214 2200.29 71.8063 Q2196.48 73.7508 2190.97 73.7508 Q2184 73.7508 2179.87 69.8619 Q2175.78 65.9325 2175.78 59.3701 Q2175.78 51.7138 2180.88 47.825 Q2186.03 43.9361 2196.2 43.9361 L2206.65 43.9361 L2206.65 43.2069 Q2206.65 38.0623 2203.24 35.2672 Q2199.88 32.4315 2193.76 32.4315 Q2189.88 32.4315 2186.19 33.3632 Q2182.5 34.295 2179.1 36.1584 L2179.1 29.2718 Q2183.19 27.692 2187.04 26.9223 Q2190.89 26.1121 2194.53 26.1121 Q2204.38 26.1121 2209.24 31.2163 Q2214.1 36.3204 2214.1 46.6907 Z" fill="#000000" fill-rule="evenodd" fill-opacity="1" /><path clip-path="url(#clip430)" d="M2228.28 9.62495 L2234.76 9.62495 Q2240.84 19.1851 2243.83 28.3401 Q2246.87 37.4952 2246.87 46.5287 Q2246.87 55.6027 2243.83 64.7983 Q2240.84 73.9938 2234.76 83.5134 L2228.28 83.5134 Q2233.67 74.2369 2236.3 65.0818 Q2238.97 55.8863 2238.97 46.5287 Q2238.97 37.1711 2236.3 28.0566 Q2233.67 18.942 2228.28 9.62495 Z" fill="#000000" fill-rule="evenodd" fill-opacity="1" /><polyline clip-path="url(#clip433)" style="stroke:#009af9; stroke-linecap:butt; stroke-linejoin:round; stroke-width:4; stroke-opacity:1; fill:none" points="
  2521.44,1350.93 2507.41,1336.42 2493.46,1321.9 2479.57,1307.39 2465.74,1292.88 2451.98,1278.36 2438.29,1263.85 2424.67,1249.34 2411.11,1234.82 2397.62,1220.31 
  2384.19,1205.8 2370.83,1191.28 2357.53,1176.77 2344.3,1162.25 2331.13,1147.74 2318.02,1133.23 2304.98,1118.71 2292.01,1104.2 2279.09,1089.69 2266.24,1075.17 
  2253.45,1060.66 2240.73,1046.15 2228.07,1031.63 2215.47,1017.12 2202.93,1002.61 2190.45,988.092 2178.03,973.579 2165.68,959.065 2153.38,944.552 2141.15,930.038 
  2128.98,915.525 2116.86,901.011 2104.81,886.497 2092.82,871.984 2080.88,857.47 2069.01,842.957 2057.19,828.443 2045.43,813.93 2033.73,799.416 2022.09,784.903 
  2010.51,770.389 1998.98,755.876 1987.51,741.362 1976.1,726.849 1964.75,712.335 1953.45,697.822 1942.21,683.308 1931.02,668.794 1919.89,654.281 1908.82,639.767 
  1897.8,625.254 1886.84,610.74 1875.94,596.227 1865.08,581.713 1854.29,567.2 1843.54,552.686 1832.85,538.173 1822.22,523.659 1811.64,509.146 1801.11,494.632 
  1790.64,480.119 1780.21,465.605 1769.85,451.092 1759.53,436.578 1749.27,422.064 1739.06,407.551 1728.9,393.037 1718.79,378.524 1708.73,364.01 1698.73,349.497 
  1688.77,334.983 1678.87,320.47 1669.02,305.956 1659.22,291.443 1649.46,276.929 1639.76,262.416 1630.11,247.902 1620.51,233.389 1610.95,218.875 1601.45,204.361 
  
  "/>
<polyline clip-path="url(#clip433)" style="stroke:#e26f46; stroke-linecap:butt; stroke-linejoin:round; stroke-width:4; stroke-opacity:1; fill:none" points="
  2528.48,1358.19 2514.42,1343.67 2500.43,1329.16 2486.5,1314.65 2472.65,1300.13 2458.85,1285.62 2445.13,1271.11 2431.47,1256.59 2417.88,1242.08 2404.36,1227.57 
  2390.9,1213.05 2377.5,1198.54 2364.17,1184.02 2350.91,1169.51 2337.71,1155 2324.57,1140.48 2311.5,1125.97 2298.49,1111.46 2285.54,1096.94 2272.66,1082.43 
  2259.84,1067.92 2247.08,1053.4 2234.39,1038.89 2221.76,1024.38 2209.19,1009.86 2196.68,995.349 2184.23,980.835 2171.85,966.322 2159.52,951.808 2147.26,937.295 
  2135.06,922.781 2122.91,908.268 2110.83,893.754 2098.8,879.241 2086.84,864.727 2074.94,850.214 2063.09,835.7 2051.3,821.187 2039.57,806.673 2027.9,792.16 
  2016.29,777.646 2004.74,763.132 1993.24,748.619 1981.8,734.105 1970.42,719.592 1959.09,705.078 1947.82,690.565 1936.61,676.051 1925.45,661.538 1914.35,647.024 
  1903.31,632.511 1892.32,617.997 1881.38,603.484 1870.5,588.97 1859.68,574.457 1848.91,559.943 1838.19,545.429 1827.53,530.916 1816.92,516.402 1806.37,501.889 
  1795.87,487.375 1785.42,472.862 1775.02,458.348 1764.68,443.835 1754.39,429.321 1744.15,414.808 1733.97,400.294 1723.84,385.781 1713.75,371.267 1703.72,356.754 
  1693.74,342.24 1683.81,327.727 1673.94,313.213 1664.11,298.699 1654.33,284.186 1644.61,269.672 1634.93,255.159 1625.3,240.645 1615.72,226.132 1606.2,211.618 
  1596.72,197.105 
  "/>
<path clip-path="url(#clip430)" d="
M1951.22 358.817 L2523.51 358.817 L2523.51 203.297 L1951.22 203.297  Z
  " fill="#ffffff" fill-rule="evenodd" fill-opacity="1"/>
<polyline clip-path="url(#clip430)" style="stroke:#000000; stroke-linecap:butt; stroke-linejoin:round; stroke-width:4; stroke-opacity:1; fill:none" points="
  1951.22,358.817 2523.51,358.817 2523.51,203.297 1951.22,203.297 1951.22,358.817 
  "/>
<polyline clip-path="url(#clip430)" style="stroke:#009af9; stroke-linecap:butt; stroke-linejoin:round; stroke-width:4; stroke-opacity:1; fill:none" points="
  1991.22,255.137 2231.22,255.137 
  "/>
<path clip-path="url(#clip430)" d="M2291.73 247.487 L2291.73 251.468 Q2289.92 250.473 2288.09 249.987 Q2286.29 249.477 2284.43 249.477 Q2280.29 249.477 2278 252.116 Q2275.71 254.732 2275.71 259.477 Q2275.71 264.223 2278 266.862 Q2280.29 269.477 2284.43 269.477 Q2286.29 269.477 2288.09 268.991 Q2289.92 268.482 2291.73 267.487 L2291.73 271.422 Q2289.94 272.255 2288.02 272.672 Q2286.12 273.088 2283.97 273.088 Q2278.12 273.088 2274.67 269.408 Q2271.22 265.727 2271.22 259.477 Q2271.22 253.135 2274.69 249.501 Q2278.18 245.866 2284.25 245.866 Q2286.22 245.866 2288.09 246.283 Q2289.97 246.677 2291.73 247.487 Z" fill="#000000" fill-rule="evenodd" fill-opacity="1" /><path clip-path="url(#clip430)" d="M2321.31 258.389 L2321.31 260.473 L2301.73 260.473 Q2302 264.871 2304.37 267.186 Q2306.75 269.477 2310.99 269.477 Q2313.44 269.477 2315.73 268.876 Q2318.05 268.274 2320.31 267.07 L2320.31 271.098 Q2318.02 272.07 2315.62 272.579 Q2313.21 273.088 2310.73 273.088 Q2304.53 273.088 2300.89 269.477 Q2297.28 265.866 2297.28 259.709 Q2297.28 253.343 2300.71 249.616 Q2304.16 245.866 2309.99 245.866 Q2315.22 245.866 2318.25 249.246 Q2321.31 252.602 2321.31 258.389 M2317.05 257.139 Q2317 253.644 2315.08 251.561 Q2313.18 249.477 2310.04 249.477 Q2306.47 249.477 2304.32 251.491 Q2302.19 253.505 2301.87 257.163 L2317.05 257.139 Z" fill="#000000" fill-rule="evenodd" fill-opacity="1" /><path clip-path="url(#clip430)" d="M2349.85 256.769 L2349.85 272.417 L2345.59 272.417 L2345.59 256.908 Q2345.59 253.227 2344.16 251.399 Q2342.72 249.57 2339.85 249.57 Q2336.4 249.57 2334.41 251.769 Q2332.42 253.968 2332.42 257.764 L2332.42 272.417 L2328.14 272.417 L2328.14 246.491 L2332.42 246.491 L2332.42 250.519 Q2333.95 248.181 2336.01 247.024 Q2338.09 245.866 2340.8 245.866 Q2345.27 245.866 2347.56 248.644 Q2349.85 251.399 2349.85 256.769 Z" fill="#000000" fill-rule="evenodd" fill-opacity="1" /><path clip-path="url(#clip430)" d="M2362.56 239.13 L2362.56 246.491 L2371.33 246.491 L2371.33 249.802 L2362.56 249.802 L2362.56 263.876 Q2362.56 267.047 2363.42 267.95 Q2364.3 268.852 2366.96 268.852 L2371.33 268.852 L2371.33 272.417 L2366.96 272.417 Q2362.03 272.417 2360.15 270.588 Q2358.28 268.737 2358.28 263.876 L2358.28 249.802 L2355.15 249.802 L2355.15 246.491 L2358.28 246.491 L2358.28 239.13 L2362.56 239.13 Z" fill="#000000" fill-rule="evenodd" fill-opacity="1" /><path clip-path="url(#clip430)" d="M2399.11 258.389 L2399.11 260.473 L2379.53 260.473 Q2379.8 264.871 2382.17 267.186 Q2384.55 269.477 2388.79 269.477 Q2391.24 269.477 2393.53 268.876 Q2395.85 268.274 2398.11 267.07 L2398.11 271.098 Q2395.82 272.07 2393.42 272.579 Q2391.01 273.088 2388.53 273.088 Q2382.33 273.088 2378.69 269.477 Q2375.08 265.866 2375.08 259.709 Q2375.08 253.343 2378.51 249.616 Q2381.96 245.866 2387.79 245.866 Q2393.02 245.866 2396.05 249.246 Q2399.11 252.602 2399.11 258.389 M2394.85 257.139 Q2394.8 253.644 2392.88 251.561 Q2390.99 249.477 2387.84 249.477 Q2384.27 249.477 2382.12 251.491 Q2379.99 253.505 2379.67 257.163 L2394.85 257.139 Z" fill="#000000" fill-rule="evenodd" fill-opacity="1" /><path clip-path="url(#clip430)" d="M2421.12 250.473 Q2420.41 250.056 2419.55 249.871 Q2418.72 249.663 2417.7 249.663 Q2414.09 249.663 2412.14 252.024 Q2410.22 254.362 2410.22 258.76 L2410.22 272.417 L2405.94 272.417 L2405.94 246.491 L2410.22 246.491 L2410.22 250.519 Q2411.56 248.158 2413.72 247.024 Q2415.87 245.866 2418.95 245.866 Q2419.39 245.866 2419.92 245.936 Q2420.45 245.982 2421.1 246.098 L2421.12 250.473 Z" fill="#000000" fill-rule="evenodd" fill-opacity="1" /><path clip-path="url(#clip430)" d="M2442.12 247.255 L2442.12 251.283 Q2440.31 250.357 2438.37 249.894 Q2436.42 249.431 2434.34 249.431 Q2431.17 249.431 2429.57 250.403 Q2428 251.376 2428 253.32 Q2428 254.802 2429.13 255.658 Q2430.27 256.491 2433.69 257.255 L2435.15 257.579 Q2439.69 258.552 2441.59 260.334 Q2443.51 262.093 2443.51 265.264 Q2443.51 268.876 2440.64 270.982 Q2437.79 273.088 2432.79 273.088 Q2430.71 273.088 2428.44 272.672 Q2426.19 272.278 2423.69 271.468 L2423.69 267.07 Q2426.05 268.297 2428.35 268.922 Q2430.64 269.524 2432.88 269.524 Q2435.89 269.524 2437.51 268.505 Q2439.13 267.463 2439.13 265.589 Q2439.13 263.852 2437.95 262.926 Q2436.8 262.001 2432.84 261.144 L2431.36 260.797 Q2427.4 259.964 2425.64 258.251 Q2423.88 256.514 2423.88 253.505 Q2423.88 249.848 2426.47 247.857 Q2429.06 245.866 2433.83 245.866 Q2436.19 245.866 2438.28 246.214 Q2440.36 246.561 2442.12 247.255 Z" fill="#000000" fill-rule="evenodd" fill-opacity="1" /><polyline clip-path="url(#clip430)" style="stroke:#e26f46; stroke-linecap:butt; stroke-linejoin:round; stroke-width:4; stroke-opacity:1; fill:none" points="
  1991.22,306.977 2231.22,306.977 
  "/>
<path clip-path="url(#clip430)" d="M2287.72 288.239 L2287.72 291.78 L2283.65 291.78 Q2281.36 291.78 2280.45 292.706 Q2279.57 293.632 2279.57 296.04 L2279.57 298.331 L2286.59 298.331 L2286.59 301.642 L2279.57 301.642 L2279.57 324.257 L2275.29 324.257 L2275.29 301.642 L2271.22 301.642 L2271.22 298.331 L2275.29 298.331 L2275.29 296.526 Q2275.29 292.197 2277.31 290.23 Q2279.32 288.239 2283.69 288.239 L2287.72 288.239 Z" fill="#000000" fill-rule="evenodd" fill-opacity="1" /><path clip-path="url(#clip430)" d="M2303.07 311.225 Q2297.91 311.225 2295.92 312.405 Q2293.93 313.586 2293.93 316.433 Q2293.93 318.702 2295.41 320.044 Q2296.91 321.364 2299.48 321.364 Q2303.02 321.364 2305.15 318.864 Q2307.31 316.341 2307.31 312.174 L2307.31 311.225 L2303.07 311.225 M2311.56 309.466 L2311.56 324.257 L2307.31 324.257 L2307.31 320.322 Q2305.85 322.683 2303.67 323.817 Q2301.5 324.928 2298.35 324.928 Q2294.37 324.928 2292 322.706 Q2289.67 320.461 2289.67 316.711 Q2289.67 312.336 2292.58 310.114 Q2295.52 307.892 2301.33 307.892 L2307.31 307.892 L2307.31 307.475 Q2307.31 304.535 2305.36 302.938 Q2303.44 301.317 2299.94 301.317 Q2297.72 301.317 2295.62 301.85 Q2293.51 302.382 2291.56 303.447 L2291.56 299.512 Q2293.9 298.609 2296.1 298.169 Q2298.3 297.706 2300.38 297.706 Q2306.01 297.706 2308.79 300.623 Q2311.56 303.54 2311.56 309.466 Z" fill="#000000" fill-rule="evenodd" fill-opacity="1" /><path clip-path="url(#clip430)" d="M2338.99 299.327 L2338.99 303.308 Q2337.19 302.313 2335.36 301.827 Q2333.56 301.317 2331.7 301.317 Q2327.56 301.317 2325.27 303.956 Q2322.98 306.572 2322.98 311.317 Q2322.98 316.063 2325.27 318.702 Q2327.56 321.317 2331.7 321.317 Q2333.56 321.317 2335.36 320.831 Q2337.19 320.322 2338.99 319.327 L2338.99 323.262 Q2337.21 324.095 2335.29 324.512 Q2333.39 324.928 2331.24 324.928 Q2325.38 324.928 2321.93 321.248 Q2318.49 317.567 2318.49 311.317 Q2318.49 304.975 2321.96 301.341 Q2325.45 297.706 2331.52 297.706 Q2333.49 297.706 2335.36 298.123 Q2337.24 298.517 2338.99 299.327 Z" fill="#000000" fill-rule="evenodd" fill-opacity="1" /><path clip-path="url(#clip430)" d="M2368.58 310.229 L2368.58 312.313 L2348.99 312.313 Q2349.27 316.711 2351.63 319.026 Q2354.02 321.317 2358.25 321.317 Q2360.71 321.317 2363 320.716 Q2365.31 320.114 2367.58 318.91 L2367.58 322.938 Q2365.29 323.91 2362.88 324.419 Q2360.48 324.928 2358 324.928 Q2351.8 324.928 2348.16 321.317 Q2344.55 317.706 2344.55 311.549 Q2344.55 305.183 2347.98 301.456 Q2351.43 297.706 2357.26 297.706 Q2362.49 297.706 2365.52 301.086 Q2368.58 304.442 2368.58 310.229 M2364.32 308.979 Q2364.27 305.484 2362.35 303.401 Q2360.45 301.317 2357.3 301.317 Q2353.74 301.317 2351.59 303.331 Q2349.46 305.345 2349.13 309.003 L2364.32 308.979 Z" fill="#000000" fill-rule="evenodd" fill-opacity="1" /><path clip-path="url(#clip430)" d="M2392.1 299.095 L2392.1 303.123 Q2390.29 302.197 2388.35 301.734 Q2386.4 301.271 2384.32 301.271 Q2381.15 301.271 2379.55 302.243 Q2377.98 303.216 2377.98 305.16 Q2377.98 306.642 2379.11 307.498 Q2380.24 308.331 2383.67 309.095 L2385.13 309.419 Q2389.67 310.392 2391.56 312.174 Q2393.49 313.933 2393.49 317.104 Q2393.49 320.716 2390.61 322.822 Q2387.77 324.928 2382.77 324.928 Q2380.68 324.928 2378.42 324.512 Q2376.17 324.118 2373.67 323.308 L2373.67 318.91 Q2376.03 320.137 2378.32 320.762 Q2380.62 321.364 2382.86 321.364 Q2385.87 321.364 2387.49 320.345 Q2389.11 319.303 2389.11 317.429 Q2389.11 315.692 2387.93 314.766 Q2386.77 313.841 2382.81 312.984 L2381.33 312.637 Q2377.37 311.804 2375.62 310.091 Q2373.86 308.354 2373.86 305.345 Q2373.86 301.688 2376.45 299.697 Q2379.04 297.706 2383.81 297.706 Q2386.17 297.706 2388.25 298.054 Q2390.34 298.401 2392.1 299.095 Z" fill="#000000" fill-rule="evenodd" fill-opacity="1" /><path clip-path="url(#clip430)" d="
M2902.1 1393.02 L3889.76 1393.02 L3889.76 162.272 L2902.1 162.272  Z
  " fill="#ffffff" fill-rule="evenodd" fill-opacity="1"/>
<defs>
  <clipPath id="clip434">
    <rect x="2902" y="162" width="989" height="1232"/>
  </clipPath>
</defs>
<polyline clip-path="url(#clip434)" style="stroke:#000000; stroke-linecap:butt; stroke-linejoin:round; stroke-width:2; stroke-opacity:0.1; fill:none" points="
  3022.09,1393.02 3022.09,162.272 
  "/>
<polyline clip-path="url(#clip434)" style="stroke:#000000; stroke-linecap:butt; stroke-linejoin:round; stroke-width:2; stroke-opacity:0.1; fill:none" points="
  3243.38,1393.02 3243.38,162.272 
  "/>
<polyline clip-path="url(#clip434)" style="stroke:#000000; stroke-linecap:butt; stroke-linejoin:round; stroke-width:2; stroke-opacity:0.1; fill:none" points="
  3464.67,1393.02 3464.67,162.272 
  "/>
<polyline clip-path="url(#clip434)" style="stroke:#000000; stroke-linecap:butt; stroke-linejoin:round; stroke-width:2; stroke-opacity:0.1; fill:none" points="
  3685.96,1393.02 3685.96,162.272 
  "/>
<polyline clip-path="url(#clip430)" style="stroke:#000000; stroke-linecap:butt; stroke-linejoin:round; stroke-width:4; stroke-opacity:1; fill:none" points="
  2902.1,1393.02 3889.76,1393.02 
  "/>
<polyline clip-path="url(#clip430)" style="stroke:#000000; stroke-linecap:butt; stroke-linejoin:round; stroke-width:4; stroke-opacity:1; fill:none" points="
  3022.09,1393.02 3022.09,1374.12 
  "/>
<polyline clip-path="url(#clip430)" style="stroke:#000000; stroke-linecap:butt; stroke-linejoin:round; stroke-width:4; stroke-opacity:1; fill:none" points="
  3243.38,1393.02 3243.38,1374.12 
  "/>
<polyline clip-path="url(#clip430)" style="stroke:#000000; stroke-linecap:butt; stroke-linejoin:round; stroke-width:4; stroke-opacity:1; fill:none" points="
  3464.67,1393.02 3464.67,1374.12 
  "/>
<polyline clip-path="url(#clip430)" style="stroke:#000000; stroke-linecap:butt; stroke-linejoin:round; stroke-width:4; stroke-opacity:1; fill:none" points="
  3685.96,1393.02 3685.96,1374.12 
  "/>
<path clip-path="url(#clip430)" d="M2999.57 1436.74 Q2995.96 1436.74 2994.13 1440.3 Q2992.32 1443.84 2992.32 1450.97 Q2992.32 1458.08 2994.13 1461.65 Q2995.96 1465.19 2999.57 1465.19 Q3003.2 1465.19 3005.01 1461.65 Q3006.84 1458.08 3006.84 1450.97 Q3006.84 1443.84 3005.01 1440.3 Q3003.2 1436.74 2999.57 1436.74 M2999.57 1433.03 Q3005.38 1433.03 3008.43 1437.64 Q3011.51 1442.22 3011.51 1450.97 Q3011.51 1459.7 3008.43 1464.31 Q3005.38 1468.89 2999.57 1468.89 Q2993.76 1468.89 2990.68 1464.31 Q2987.62 1459.7 2987.62 1450.97 Q2987.62 1442.22 2990.68 1437.64 Q2993.76 1433.03 2999.57 1433.03 Z" fill="#000000" fill-rule="evenodd" fill-opacity="1" /><path clip-path="url(#clip430)" d="M3019.73 1462.34 L3024.61 1462.34 L3024.61 1468.22 L3019.73 1468.22 L3019.73 1462.34 Z" fill="#000000" fill-rule="evenodd" fill-opacity="1" /><path clip-path="url(#clip430)" d="M3034.94 1467.5 L3034.94 1463.24 Q3036.7 1464.08 3038.5 1464.52 Q3040.31 1464.96 3042.04 1464.96 Q3046.67 1464.96 3049.1 1461.85 Q3051.56 1458.73 3051.9 1452.39 Q3050.56 1454.38 3048.5 1455.44 Q3046.44 1456.51 3043.94 1456.51 Q3038.76 1456.51 3035.72 1453.38 Q3032.71 1450.23 3032.71 1444.79 Q3032.71 1439.47 3035.86 1436.25 Q3039.01 1433.03 3044.24 1433.03 Q3050.24 1433.03 3053.39 1437.64 Q3056.56 1442.22 3056.56 1450.97 Q3056.56 1459.15 3052.67 1464.03 Q3048.8 1468.89 3042.25 1468.89 Q3040.49 1468.89 3038.69 1468.54 Q3036.88 1468.2 3034.94 1467.5 M3044.24 1452.85 Q3047.39 1452.85 3049.22 1450.7 Q3051.07 1448.54 3051.07 1444.79 Q3051.07 1441.07 3049.22 1438.91 Q3047.39 1436.74 3044.24 1436.74 Q3041.09 1436.74 3039.24 1438.91 Q3037.41 1441.07 3037.41 1444.79 Q3037.41 1448.54 3039.24 1450.7 Q3041.09 1452.85 3044.24 1452.85 Z" fill="#000000" fill-rule="evenodd" fill-opacity="1" /><path clip-path="url(#clip430)" d="M3210.53 1464.28 L3218.17 1464.28 L3218.17 1437.92 L3209.86 1439.59 L3209.86 1435.33 L3218.12 1433.66 L3222.8 1433.66 L3222.8 1464.28 L3230.44 1464.28 L3230.44 1468.22 L3210.53 1468.22 L3210.53 1464.28 Z" fill="#000000" fill-rule="evenodd" fill-opacity="1" /><path clip-path="url(#clip430)" d="M3239.88 1462.34 L3244.77 1462.34 L3244.77 1468.22 L3239.88 1468.22 L3239.88 1462.34 Z" fill="#000000" fill-rule="evenodd" fill-opacity="1" /><path clip-path="url(#clip430)" d="M3264.95 1436.74 Q3261.34 1436.74 3259.51 1440.3 Q3257.71 1443.84 3257.71 1450.97 Q3257.71 1458.08 3259.51 1461.65 Q3261.34 1465.19 3264.95 1465.19 Q3268.59 1465.19 3270.39 1461.65 Q3272.22 1458.08 3272.22 1450.97 Q3272.22 1443.84 3270.39 1440.3 Q3268.59 1436.74 3264.95 1436.74 M3264.95 1433.03 Q3270.76 1433.03 3273.82 1437.64 Q3276.9 1442.22 3276.9 1450.97 Q3276.9 1459.7 3273.82 1464.31 Q3270.76 1468.89 3264.95 1468.89 Q3259.14 1468.89 3256.06 1464.31 Q3253.01 1459.7 3253.01 1450.97 Q3253.01 1442.22 3256.06 1437.64 Q3259.14 1433.03 3264.95 1433.03 Z" fill="#000000" fill-rule="evenodd" fill-opacity="1" /><path clip-path="url(#clip430)" d="M3432.43 1464.28 L3440.07 1464.28 L3440.07 1437.92 L3431.76 1439.59 L3431.76 1435.33 L3440.03 1433.66 L3444.7 1433.66 L3444.7 1464.28 L3452.34 1464.28 L3452.34 1468.22 L3432.43 1468.22 L3432.43 1464.28 Z" fill="#000000" fill-rule="evenodd" fill-opacity="1" /><path clip-path="url(#clip430)" d="M3461.79 1462.34 L3466.67 1462.34 L3466.67 1468.22 L3461.79 1468.22 L3461.79 1462.34 Z" fill="#000000" fill-rule="evenodd" fill-opacity="1" /><path clip-path="url(#clip430)" d="M3477.67 1464.28 L3485.31 1464.28 L3485.31 1437.92 L3476.99 1439.59 L3476.99 1435.33 L3485.26 1433.66 L3489.93 1433.66 L3489.93 1464.28 L3497.57 1464.28 L3497.57 1468.22 L3477.67 1468.22 L3477.67 1464.28 Z" fill="#000000" fill-rule="evenodd" fill-opacity="1" /><path clip-path="url(#clip430)" d="M3653.91 1464.28 L3661.55 1464.28 L3661.55 1437.92 L3653.24 1439.59 L3653.24 1435.33 L3661.5 1433.66 L3666.18 1433.66 L3666.18 1464.28 L3673.82 1464.28 L3673.82 1468.22 L3653.91 1468.22 L3653.91 1464.28 Z" fill="#000000" fill-rule="evenodd" fill-opacity="1" /><path clip-path="url(#clip430)" d="M3683.26 1462.34 L3688.15 1462.34 L3688.15 1468.22 L3683.26 1468.22 L3683.26 1462.34 Z" fill="#000000" fill-rule="evenodd" fill-opacity="1" /><path clip-path="url(#clip430)" d="M3702.36 1464.28 L3718.68 1464.28 L3718.68 1468.22 L3696.73 1468.22 L3696.73 1464.28 Q3699.4 1461.53 3703.98 1456.9 Q3708.59 1452.25 3709.77 1450.9 Q3712.01 1448.38 3712.89 1446.65 Q3713.79 1444.89 3713.79 1443.2 Q3713.79 1440.44 3711.85 1438.71 Q3709.93 1436.97 3706.83 1436.97 Q3704.63 1436.97 3702.17 1437.73 Q3699.74 1438.5 3696.97 1440.05 L3696.97 1435.33 Q3699.79 1434.19 3702.24 1433.61 Q3704.7 1433.03 3706.73 1433.03 Q3712.1 1433.03 3715.3 1435.72 Q3718.49 1438.41 3718.49 1442.9 Q3718.49 1445.03 3717.68 1446.95 Q3716.9 1448.84 3714.79 1451.44 Q3714.21 1452.11 3711.11 1455.33 Q3708.01 1458.52 3702.36 1464.28 Z" fill="#000000" fill-rule="evenodd" fill-opacity="1" /><path clip-path="url(#clip430)" d="M3364.71 1545.3 L3363.31 1537.95 Q3361.87 1530.41 3356.21 1530.41 Q3351.94 1530.41 3350 1533.91 Q3347.55 1538.3 3347.55 1544.09 Q3347.55 1551.09 3349.94 1554.44 Q3352.36 1557.84 3356.21 1557.84 Q3360.47 1557.84 3362.76 1551.06 L3364.71 1545.3 M3367.98 1535.56 L3371.14 1526.24 L3376.36 1526.24 L3369.83 1545.56 L3371.1 1552.53 Q3371.39 1554.09 3372.5 1555.39 Q3373.81 1556.92 3374.83 1556.92 L3377.63 1556.92 L3377.63 1561.88 L3374.13 1561.88 Q3371.14 1561.88 3368.46 1559.21 Q3367.16 1557.87 3366.62 1555.07 Q3365.15 1558.61 3362.16 1561.37 Q3360.76 1562.68 3356.21 1562.68 Q3348.73 1562.68 3345.1 1557.84 Q3341.38 1552.84 3341.38 1544.09 Q3341.38 1534.73 3345.42 1530.34 Q3349.91 1525.44 3356.21 1525.44 Q3366.11 1525.44 3367.98 1535.56 Z" fill="#000000" fill-rule="evenodd" fill-opacity="1" /><path clip-path="url(#clip430)" d="M3413.98 1572.71 L3413.98 1577.26 L3380.11 1577.26 L3380.11 1572.71 L3413.98 1572.71 Z" fill="#000000" fill-rule="evenodd" fill-opacity="1" /><path clip-path="url(#clip430)" d="M3434.06 1518.6 Q3429.1 1518.6 3426.58 1523.5 Q3424.1 1528.37 3424.1 1538.17 Q3424.1 1547.94 3426.58 1552.84 Q3429.1 1557.71 3434.06 1557.71 Q3439.06 1557.71 3441.54 1552.84 Q3444.05 1547.94 3444.05 1538.17 Q3444.05 1528.37 3441.54 1523.5 Q3439.06 1518.6 3434.06 1518.6 M3434.06 1513.5 Q3442.05 1513.5 3446.25 1519.84 Q3450.48 1526.14 3450.48 1538.17 Q3450.48 1550.17 3446.25 1556.5 Q3442.05 1562.81 3434.06 1562.81 Q3426.07 1562.81 3421.84 1556.5 Q3417.64 1550.17 3417.64 1538.17 Q3417.64 1526.14 3421.84 1519.84 Q3426.07 1513.5 3434.06 1513.5 Z" fill="#000000" fill-rule="evenodd" fill-opacity="1" /><polyline clip-path="url(#clip434)" style="stroke:#000000; stroke-linecap:butt; stroke-linejoin:round; stroke-width:2; stroke-opacity:0.1; fill:none" points="
  2902.1,1358.19 3889.76,1358.19 
  "/>
<polyline clip-path="url(#clip434)" style="stroke:#000000; stroke-linecap:butt; stroke-linejoin:round; stroke-width:2; stroke-opacity:0.1; fill:none" points="
  2902.1,1067.92 3889.76,1067.92 
  "/>
<polyline clip-path="url(#clip434)" style="stroke:#000000; stroke-linecap:butt; stroke-linejoin:round; stroke-width:2; stroke-opacity:0.1; fill:none" points="
  2902.1,777.646 3889.76,777.646 
  "/>
<polyline clip-path="url(#clip434)" style="stroke:#000000; stroke-linecap:butt; stroke-linejoin:round; stroke-width:2; stroke-opacity:0.1; fill:none" points="
  2902.1,487.375 3889.76,487.375 
  "/>
<polyline clip-path="url(#clip434)" style="stroke:#000000; stroke-linecap:butt; stroke-linejoin:round; stroke-width:2; stroke-opacity:0.1; fill:none" points="
  2902.1,197.105 3889.76,197.105 
  "/>
<polyline clip-path="url(#clip430)" style="stroke:#000000; stroke-linecap:butt; stroke-linejoin:round; stroke-width:4; stroke-opacity:1; fill:none" points="
  2902.1,1393.02 2902.1,162.272 
  "/>
<polyline clip-path="url(#clip430)" style="stroke:#000000; stroke-linecap:butt; stroke-linejoin:round; stroke-width:4; stroke-opacity:1; fill:none" points="
  2902.1,1358.19 2920.99,1358.19 
  "/>
<polyline clip-path="url(#clip430)" style="stroke:#000000; stroke-linecap:butt; stroke-linejoin:round; stroke-width:4; stroke-opacity:1; fill:none" points="
  2902.1,1067.92 2920.99,1067.92 
  "/>
<polyline clip-path="url(#clip430)" style="stroke:#000000; stroke-linecap:butt; stroke-linejoin:round; stroke-width:4; stroke-opacity:1; fill:none" points="
  2902.1,777.646 2920.99,777.646 
  "/>
<polyline clip-path="url(#clip430)" style="stroke:#000000; stroke-linecap:butt; stroke-linejoin:round; stroke-width:4; stroke-opacity:1; fill:none" points="
  2902.1,487.375 2920.99,487.375 
  "/>
<polyline clip-path="url(#clip430)" style="stroke:#000000; stroke-linecap:butt; stroke-linejoin:round; stroke-width:4; stroke-opacity:1; fill:none" points="
  2902.1,197.105 2920.99,197.105 
  "/>
<path clip-path="url(#clip430)" d="M2830.15 1343.99 Q2826.54 1343.99 2824.71 1347.55 Q2822.91 1351.09 2822.91 1358.22 Q2822.91 1365.33 2824.71 1368.89 Q2826.54 1372.43 2830.15 1372.43 Q2833.79 1372.43 2835.59 1368.89 Q2837.42 1365.33 2837.42 1358.22 Q2837.42 1351.09 2835.59 1347.55 Q2833.79 1343.99 2830.15 1343.99 M2830.15 1340.28 Q2835.96 1340.28 2839.02 1344.89 Q2842.1 1349.47 2842.1 1358.22 Q2842.1 1366.95 2839.02 1371.56 Q2835.96 1376.14 2830.15 1376.14 Q2824.34 1376.14 2821.26 1371.56 Q2818.21 1366.95 2818.21 1358.22 Q2818.21 1349.47 2821.26 1344.89 Q2824.34 1340.28 2830.15 1340.28 Z" fill="#000000" fill-rule="evenodd" fill-opacity="1" /><path clip-path="url(#clip430)" d="M2822.19 1081.26 L2829.83 1081.26 L2829.83 1054.9 L2821.52 1056.56 L2821.52 1052.3 L2829.78 1050.64 L2834.46 1050.64 L2834.46 1081.26 L2842.1 1081.26 L2842.1 1085.2 L2822.19 1085.2 L2822.19 1081.26 Z" fill="#000000" fill-rule="evenodd" fill-opacity="1" /><path clip-path="url(#clip430)" d="M2825.78 790.991 L2842.1 790.991 L2842.1 794.926 L2820.15 794.926 L2820.15 790.991 Q2822.81 788.236 2827.4 783.607 Q2832 778.954 2833.18 777.611 Q2835.43 775.088 2836.31 773.352 Q2837.21 771.593 2837.21 769.903 Q2837.21 767.148 2835.27 765.412 Q2833.35 763.676 2830.24 763.676 Q2828.05 763.676 2825.59 764.44 Q2823.16 765.204 2820.38 766.755 L2820.38 762.033 Q2823.21 760.898 2825.66 760.32 Q2828.11 759.741 2830.15 759.741 Q2835.52 759.741 2838.72 762.426 Q2841.91 765.111 2841.91 769.602 Q2841.91 771.732 2841.1 773.653 Q2840.31 775.551 2838.21 778.144 Q2837.63 778.815 2834.53 782.033 Q2831.42 785.227 2825.78 790.991 Z" fill="#000000" fill-rule="evenodd" fill-opacity="1" /><path clip-path="url(#clip430)" d="M2834.97 486.021 Q2838.32 486.739 2840.2 489.007 Q2842.1 491.276 2842.1 494.609 Q2842.1 499.725 2838.58 502.526 Q2835.06 505.327 2828.58 505.327 Q2826.4 505.327 2824.09 504.887 Q2821.8 504.47 2819.34 503.614 L2819.34 499.1 Q2821.29 500.234 2823.6 500.813 Q2825.92 501.391 2828.44 501.391 Q2832.84 501.391 2835.13 499.655 Q2837.44 497.919 2837.44 494.609 Q2837.44 491.554 2835.29 489.841 Q2833.16 488.105 2829.34 488.105 L2825.31 488.105 L2825.31 484.262 L2829.53 484.262 Q2832.98 484.262 2834.8 482.896 Q2836.63 481.507 2836.63 478.915 Q2836.63 476.253 2834.73 474.841 Q2832.86 473.406 2829.34 473.406 Q2827.42 473.406 2825.22 473.822 Q2823.02 474.239 2820.38 475.118 L2820.38 470.952 Q2823.05 470.211 2825.36 469.841 Q2827.7 469.47 2829.76 469.47 Q2835.08 469.47 2838.18 471.901 Q2841.29 474.308 2841.29 478.429 Q2841.29 481.299 2839.64 483.29 Q2838 485.257 2834.97 486.021 Z" fill="#000000" fill-rule="evenodd" fill-opacity="1" /><path clip-path="url(#clip430)" d="M2832.51 183.899 L2820.71 202.348 L2832.51 202.348 L2832.51 183.899 M2831.29 179.825 L2837.17 179.825 L2837.17 202.348 L2842.1 202.348 L2842.1 206.237 L2837.17 206.237 L2837.17 214.385 L2832.51 214.385 L2832.51 206.237 L2816.91 206.237 L2816.91 201.723 L2831.29 179.825 Z" fill="#000000" fill-rule="evenodd" fill-opacity="1" /><path clip-path="url(#clip430)" d="M2707.01 876.171 L2707.01 848.353 L2712.35 848.353 L2737.98 870.378 L2737.98 848.353 L2742.65 848.353 L2742.65 876.967 L2737.31 876.967 L2711.69 854.942 L2711.69 876.171 L2707.01 876.171 Z" fill="#000000" fill-rule="evenodd" fill-opacity="1" /><path clip-path="url(#clip430)" d="M2693.19 804.621 Q2700.51 808.886 2707.68 810.955 Q2714.84 813.023 2722.19 813.023 Q2729.54 813.023 2736.77 810.955 Q2743.96 808.854 2751.25 804.621 L2751.25 809.713 Q2743.77 814.488 2736.54 816.875 Q2729.32 819.23 2722.19 819.23 Q2715.09 819.23 2707.9 816.875 Q2700.7 814.519 2693.19 809.713 L2693.19 804.621 Z" fill="#000000" fill-rule="evenodd" fill-opacity="1" /><path clip-path="url(#clip430)" d="M2693.13 793.481 L2693.13 787.592 L2722.38 787.592 L2707.01 770.119 L2707.01 762.639 L2723.69 781.545 L2742.65 761.843 L2742.65 769.482 L2725.24 787.592 L2742.65 787.592 L2742.65 793.481 L2693.13 793.481 Z" fill="#000000" fill-rule="evenodd" fill-opacity="1" /><path clip-path="url(#clip430)" d="M2713.85 727.755 Q2709.9 725.559 2708.03 722.503 Q2706.15 719.448 2706.15 715.31 Q2706.15 709.74 2710.06 706.716 Q2713.95 703.692 2721.14 703.692 L2742.65 703.692 L2742.65 709.581 L2721.33 709.581 Q2716.21 709.581 2713.72 711.395 Q2711.24 713.209 2711.24 716.933 Q2711.24 721.485 2714.26 724.126 Q2717.29 726.768 2722.51 726.768 L2742.65 726.768 L2742.65 732.656 L2721.33 732.656 Q2716.17 732.656 2713.72 734.471 Q2711.24 736.285 2711.24 740.072 Q2711.24 744.56 2714.3 747.202 Q2717.32 749.844 2722.51 749.844 L2742.65 749.844 L2742.65 755.732 L2707.01 755.732 L2707.01 749.844 L2712.55 749.844 Q2709.27 747.839 2707.71 745.038 Q2706.15 742.237 2706.15 738.385 Q2706.15 734.502 2708.12 731.797 Q2710.09 729.06 2713.85 727.755 Z" fill="#000000" fill-rule="evenodd" fill-opacity="1" /><path clip-path="url(#clip430)" d="M2693.19 692.934 L2693.19 687.842 Q2700.7 683.067 2707.9 680.712 Q2715.09 678.325 2722.19 678.325 Q2729.32 678.325 2736.54 680.712 Q2743.77 683.067 2751.25 687.842 L2751.25 692.934 Q2743.96 688.701 2736.77 686.632 Q2729.54 684.532 2722.19 684.532 Q2714.84 684.532 2707.68 686.632 Q2700.51 688.701 2693.19 692.934 Z" fill="#000000" fill-rule="evenodd" fill-opacity="1" /><path clip-path="url(#clip430)" d="M3356.19 51.4708 L3354.41 42.1132 Q3352.59 32.5126 3345.37 32.5126 Q3339.95 32.5126 3337.48 36.9686 Q3334.36 42.5588 3334.36 49.9314 Q3334.36 58.8434 3337.39 63.0969 Q3340.47 67.4314 3345.37 67.4314 Q3350.8 67.4314 3353.72 58.8029 L3356.19 51.4708 M3360.36 39.075 L3364.37 27.2059 L3371.02 27.2059 L3362.71 51.7949 L3364.33 60.6663 Q3364.7 62.6513 3366.12 64.3122 Q3367.78 66.2566 3369.07 66.2566 L3372.64 66.2566 L3372.64 72.576 L3368.18 72.576 Q3364.37 72.576 3360.97 69.1732 Q3359.31 67.4719 3358.62 63.9071 Q3356.76 68.4036 3352.95 71.9279 Q3351.17 73.5887 3345.37 73.5887 Q3335.85 73.5887 3331.24 67.4314 Q3326.5 61.0714 3326.5 49.9314 Q3326.5 38.0218 3331.64 32.4315 Q3337.35 26.1931 3345.37 26.1931 Q3357.97 26.1931 3360.36 39.075 Z" fill="#000000" fill-rule="evenodd" fill-opacity="1" /><path clip-path="url(#clip430)" d="M3418.9 86.3491 L3418.9 92.1419 L3375.8 92.1419 L3375.8 86.3491 L3418.9 86.3491 Z" fill="#000000" fill-rule="evenodd" fill-opacity="1" /><path clip-path="url(#clip430)" d="M3444.46 17.4837 Q3438.14 17.4837 3434.94 23.7221 Q3431.78 29.92 3431.78 42.3968 Q3431.78 54.833 3434.94 61.0714 Q3438.14 67.2693 3444.46 67.2693 Q3450.82 67.2693 3453.98 61.0714 Q3457.18 54.833 3457.18 42.3968 Q3457.18 29.92 3453.98 23.7221 Q3450.82 17.4837 3444.46 17.4837 M3444.46 11.0023 Q3454.63 11.0023 3459.97 19.0636 Q3465.36 27.0843 3465.36 42.3968 Q3465.36 57.6687 3459.97 65.73 Q3454.63 73.7508 3444.46 73.7508 Q3434.29 73.7508 3428.9 65.73 Q3423.56 57.6687 3423.56 42.3968 Q3423.56 27.0843 3428.9 19.0636 Q3434.29 11.0023 3444.46 11.0023 Z" fill="#000000" fill-rule="evenodd" fill-opacity="1" /><polyline clip-path="url(#clip434)" style="stroke:#009af9; stroke-linecap:butt; stroke-linejoin:round; stroke-width:4; stroke-opacity:1; fill:none" points="
  2934.63,1350.93 2943.83,1336.42 2953.08,1321.9 2962.39,1307.39 2971.75,1292.88 2981.17,1278.36 2990.64,1263.85 3000.16,1249.34 3009.74,1234.82 3019.37,1220.31 
  3029.06,1205.8 3038.81,1191.28 3048.61,1176.77 3058.46,1162.25 3068.38,1147.74 3078.35,1133.23 3088.38,1118.71 3098.47,1104.2 3108.61,1089.69 3118.82,1075.17 
  3129.08,1060.66 3139.4,1046.15 3149.79,1031.63 3160.23,1017.12 3170.74,1002.61 3181.3,988.092 3191.93,973.579 3202.61,959.065 3213.37,944.552 3224.18,930.038 
  3235.05,915.525 3245.99,901.011 3257,886.497 3268.07,871.984 3279.2,857.47 3290.4,842.957 3301.66,828.443 3312.99,813.93 3324.39,799.416 3335.85,784.903 
  3347.38,770.389 3358.98,755.876 3370.65,741.362 3382.38,726.849 3394.18,712.335 3406.06,697.822 3418,683.308 3430.02,668.794 3442.1,654.281 3454.26,639.767 
  3466.48,625.254 3478.78,610.74 3491.16,596.227 3503.6,581.713 3516.12,567.2 3528.71,552.686 3541.38,538.173 3554.12,523.659 3566.94,509.146 3579.84,494.632 
  3592.81,480.119 3605.86,465.605 3618.99,451.092 3632.19,436.578 3645.47,422.064 3658.84,407.551 3672.28,393.037 3685.8,378.524 3699.4,364.01 3713.09,349.497 
  3726.85,334.983 3740.7,320.47 3754.63,305.956 3768.65,291.443 3782.74,276.929 3796.92,262.416 3811.19,247.902 3825.55,233.389 3839.99,218.875 3854.51,204.361 
  
  "/>
<polyline clip-path="url(#clip434)" style="stroke:#e26f46; stroke-linecap:butt; stroke-linejoin:round; stroke-width:4; stroke-opacity:1; fill:none" points="
  2930.05,1358.19 2939.22,1343.67 2948.45,1329.16 2957.73,1314.65 2967.07,1300.13 2976.45,1285.62 2985.9,1271.11 2995.39,1256.59 3004.94,1242.08 3014.55,1227.57 
  3024.21,1213.05 3033.93,1198.54 3043.7,1184.02 3053.53,1169.51 3063.41,1155 3073.36,1140.48 3083.36,1125.97 3093.42,1111.46 3103.53,1096.94 3113.71,1082.43 
  3123.94,1067.92 3134.23,1053.4 3144.59,1038.89 3155,1024.38 3165.48,1009.86 3176.01,995.349 3186.61,980.835 3197.26,966.322 3207.98,951.808 3218.76,937.295 
  3229.61,922.781 3240.52,908.268 3251.49,893.754 3262.53,879.241 3273.63,864.727 3284.79,850.214 3296.02,835.7 3307.32,821.187 3318.68,806.673 3330.11,792.16 
  3341.61,777.646 3353.17,763.132 3364.8,748.619 3376.51,734.105 3388.27,719.592 3400.11,705.078 3412.02,690.565 3424,676.051 3436.05,661.538 3448.17,647.024 
  3460.36,632.511 3472.62,617.997 3484.96,603.484 3497.37,588.97 3509.85,574.457 3522.41,559.943 3535.04,545.429 3547.74,530.916 3560.52,516.402 3573.38,501.889 
  3586.31,487.375 3599.33,472.862 3612.41,458.348 3625.58,443.835 3638.82,429.321 3652.14,414.808 3665.55,400.294 3679.03,385.781 3692.59,371.267 3706.23,356.754 
  3719.96,342.24 3733.77,327.727 3747.66,313.213 3761.63,298.699 3775.68,284.186 3789.82,269.672 3804.05,255.159 3818.36,240.645 3832.76,226.132 3847.24,211.618 
  3861.81,197.105 
  "/>
<path clip-path="url(#clip430)" d="
M3284.55 358.817 L3856.84 358.817 L3856.84 203.297 L3284.55 203.297  Z
  " fill="#ffffff" fill-rule="evenodd" fill-opacity="1"/>
<polyline clip-path="url(#clip430)" style="stroke:#000000; stroke-linecap:butt; stroke-linejoin:round; stroke-width:4; stroke-opacity:1; fill:none" points="
  3284.55,358.817 3856.84,358.817 3856.84,203.297 3284.55,203.297 3284.55,358.817 
  "/>
<polyline clip-path="url(#clip430)" style="stroke:#009af9; stroke-linecap:butt; stroke-linejoin:round; stroke-width:4; stroke-opacity:1; fill:none" points="
  3324.55,255.137 3564.55,255.137 
  "/>
<path clip-path="url(#clip430)" d="M3625.06 247.487 L3625.06 251.468 Q3623.25 250.473 3621.43 249.987 Q3619.62 249.477 3617.77 249.477 Q3613.62 249.477 3611.33 252.116 Q3609.04 254.732 3609.04 259.477 Q3609.04 264.223 3611.33 266.862 Q3613.62 269.477 3617.77 269.477 Q3619.62 269.477 3621.43 268.991 Q3623.25 268.482 3625.06 267.487 L3625.06 271.422 Q3623.28 272.255 3621.36 272.672 Q3619.46 273.088 3617.31 273.088 Q3611.45 273.088 3608 269.408 Q3604.55 265.727 3604.55 259.477 Q3604.55 253.135 3608.02 249.501 Q3611.52 245.866 3617.58 245.866 Q3619.55 245.866 3621.43 246.283 Q3623.3 246.677 3625.06 247.487 Z" fill="#000000" fill-rule="evenodd" fill-opacity="1" /><path clip-path="url(#clip430)" d="M3654.64 258.389 L3654.64 260.473 L3635.06 260.473 Q3635.34 264.871 3637.7 267.186 Q3640.08 269.477 3644.32 269.477 Q3646.77 269.477 3649.06 268.876 Q3651.38 268.274 3653.65 267.07 L3653.65 271.098 Q3651.36 272.07 3648.95 272.579 Q3646.54 273.088 3644.06 273.088 Q3637.86 273.088 3634.23 269.477 Q3630.62 265.866 3630.62 259.709 Q3630.62 253.343 3634.04 249.616 Q3637.49 245.866 3643.32 245.866 Q3648.56 245.866 3651.59 249.246 Q3654.64 252.602 3654.64 258.389 M3650.38 257.139 Q3650.34 253.644 3648.42 251.561 Q3646.52 249.477 3643.37 249.477 Q3639.81 249.477 3637.65 251.491 Q3635.52 253.505 3635.2 257.163 L3650.38 257.139 Z" fill="#000000" fill-rule="evenodd" fill-opacity="1" /><path clip-path="url(#clip430)" d="M3683.18 256.769 L3683.18 272.417 L3678.93 272.417 L3678.93 256.908 Q3678.93 253.227 3677.49 251.399 Q3676.06 249.57 3673.18 249.57 Q3669.74 249.57 3667.74 251.769 Q3665.75 253.968 3665.75 257.764 L3665.75 272.417 L3661.47 272.417 L3661.47 246.491 L3665.75 246.491 L3665.75 250.519 Q3667.28 248.181 3669.34 247.024 Q3671.43 245.866 3674.13 245.866 Q3678.6 245.866 3680.89 248.644 Q3683.18 251.399 3683.18 256.769 Z" fill="#000000" fill-rule="evenodd" fill-opacity="1" /><path clip-path="url(#clip430)" d="M3695.89 239.13 L3695.89 246.491 L3704.67 246.491 L3704.67 249.802 L3695.89 249.802 L3695.89 263.876 Q3695.89 267.047 3696.75 267.95 Q3697.63 268.852 3700.29 268.852 L3704.67 268.852 L3704.67 272.417 L3700.29 272.417 Q3695.36 272.417 3693.49 270.588 Q3691.61 268.737 3691.61 263.876 L3691.61 249.802 L3688.49 249.802 L3688.49 246.491 L3691.61 246.491 L3691.61 239.13 L3695.89 239.13 Z" fill="#000000" fill-rule="evenodd" fill-opacity="1" /><path clip-path="url(#clip430)" d="M3732.44 258.389 L3732.44 260.473 L3712.86 260.473 Q3713.14 264.871 3715.5 267.186 Q3717.88 269.477 3722.12 269.477 Q3724.57 269.477 3726.86 268.876 Q3729.18 268.274 3731.45 267.07 L3731.45 271.098 Q3729.16 272.07 3726.75 272.579 Q3724.34 273.088 3721.86 273.088 Q3715.66 273.088 3712.03 269.477 Q3708.42 265.866 3708.42 259.709 Q3708.42 253.343 3711.84 249.616 Q3715.29 245.866 3721.12 245.866 Q3726.36 245.866 3729.39 249.246 Q3732.44 252.602 3732.44 258.389 M3728.18 257.139 Q3728.14 253.644 3726.22 251.561 Q3724.32 249.477 3721.17 249.477 Q3717.61 249.477 3715.45 251.491 Q3713.32 253.505 3713 257.163 L3728.18 257.139 Z" fill="#000000" fill-rule="evenodd" fill-opacity="1" /><path clip-path="url(#clip430)" d="M3754.46 250.473 Q3753.74 250.056 3752.88 249.871 Q3752.05 249.663 3751.03 249.663 Q3747.42 249.663 3745.48 252.024 Q3743.55 254.362 3743.55 258.76 L3743.55 272.417 L3739.27 272.417 L3739.27 246.491 L3743.55 246.491 L3743.55 250.519 Q3744.9 248.158 3747.05 247.024 Q3749.2 245.866 3752.28 245.866 Q3752.72 245.866 3753.25 245.936 Q3753.79 245.982 3754.43 246.098 L3754.46 250.473 Z" fill="#000000" fill-rule="evenodd" fill-opacity="1" /><path clip-path="url(#clip430)" d="M3775.45 247.255 L3775.45 251.283 Q3773.65 250.357 3771.7 249.894 Q3769.76 249.431 3767.67 249.431 Q3764.5 249.431 3762.91 250.403 Q3761.33 251.376 3761.33 253.32 Q3761.33 254.802 3762.47 255.658 Q3763.6 256.491 3767.03 257.255 L3768.49 257.579 Q3773.02 258.552 3774.92 260.334 Q3776.84 262.093 3776.84 265.264 Q3776.84 268.876 3773.97 270.982 Q3771.12 273.088 3766.12 273.088 Q3764.04 273.088 3761.77 272.672 Q3759.53 272.278 3757.03 271.468 L3757.03 267.07 Q3759.39 268.297 3761.68 268.922 Q3763.97 269.524 3766.22 269.524 Q3769.23 269.524 3770.85 268.505 Q3772.47 267.463 3772.47 265.589 Q3772.47 263.852 3771.29 262.926 Q3770.13 262.001 3766.17 261.144 L3764.69 260.797 Q3760.73 259.964 3758.97 258.251 Q3757.21 256.514 3757.21 253.505 Q3757.21 249.848 3759.8 247.857 Q3762.4 245.866 3767.17 245.866 Q3769.53 245.866 3771.61 246.214 Q3773.69 246.561 3775.45 247.255 Z" fill="#000000" fill-rule="evenodd" fill-opacity="1" /><polyline clip-path="url(#clip430)" style="stroke:#e26f46; stroke-linecap:butt; stroke-linejoin:round; stroke-width:4; stroke-opacity:1; fill:none" points="
  3324.55,306.977 3564.55,306.977 
  "/>
<path clip-path="url(#clip430)" d="M3621.06 288.239 L3621.06 291.78 L3616.98 291.78 Q3614.69 291.78 3613.79 292.706 Q3612.91 293.632 3612.91 296.04 L3612.91 298.331 L3619.92 298.331 L3619.92 301.642 L3612.91 301.642 L3612.91 324.257 L3608.62 324.257 L3608.62 301.642 L3604.55 301.642 L3604.55 298.331 L3608.62 298.331 L3608.62 296.526 Q3608.62 292.197 3610.64 290.23 Q3612.65 288.239 3617.03 288.239 L3621.06 288.239 Z" fill="#000000" fill-rule="evenodd" fill-opacity="1" /><path clip-path="url(#clip430)" d="M3636.4 311.225 Q3631.24 311.225 3629.25 312.405 Q3627.26 313.586 3627.26 316.433 Q3627.26 318.702 3628.74 320.044 Q3630.25 321.364 3632.81 321.364 Q3636.36 321.364 3638.49 318.864 Q3640.64 316.341 3640.64 312.174 L3640.64 311.225 L3636.4 311.225 M3644.9 309.466 L3644.9 324.257 L3640.64 324.257 L3640.64 320.322 Q3639.18 322.683 3637 323.817 Q3634.83 324.928 3631.68 324.928 Q3627.7 324.928 3625.34 322.706 Q3623 320.461 3623 316.711 Q3623 312.336 3625.92 310.114 Q3628.86 307.892 3634.67 307.892 L3640.64 307.892 L3640.64 307.475 Q3640.64 304.535 3638.69 302.938 Q3636.77 301.317 3633.28 301.317 Q3631.06 301.317 3628.95 301.85 Q3626.84 302.382 3624.9 303.447 L3624.9 299.512 Q3627.24 298.609 3629.43 298.169 Q3631.63 297.706 3633.72 297.706 Q3639.34 297.706 3642.12 300.623 Q3644.9 303.54 3644.9 309.466 Z" fill="#000000" fill-rule="evenodd" fill-opacity="1" /><path clip-path="url(#clip430)" d="M3672.33 299.327 L3672.33 303.308 Q3670.52 302.313 3668.69 301.827 Q3666.89 301.317 3665.04 301.317 Q3660.89 301.317 3658.6 303.956 Q3656.31 306.572 3656.31 311.317 Q3656.31 316.063 3658.6 318.702 Q3660.89 321.317 3665.04 321.317 Q3666.89 321.317 3668.69 320.831 Q3670.52 320.322 3672.33 319.327 L3672.33 323.262 Q3670.55 324.095 3668.62 324.512 Q3666.73 324.928 3664.57 324.928 Q3658.72 324.928 3655.27 321.248 Q3651.82 317.567 3651.82 311.317 Q3651.82 304.975 3655.29 301.341 Q3658.79 297.706 3664.85 297.706 Q3666.82 297.706 3668.69 298.123 Q3670.57 298.517 3672.33 299.327 Z" fill="#000000" fill-rule="evenodd" fill-opacity="1" /><path clip-path="url(#clip430)" d="M3701.91 310.229 L3701.91 312.313 L3682.33 312.313 Q3682.61 316.711 3684.97 319.026 Q3687.35 321.317 3691.59 321.317 Q3694.04 321.317 3696.33 320.716 Q3698.65 320.114 3700.92 318.91 L3700.92 322.938 Q3698.62 323.91 3696.22 324.419 Q3693.81 324.928 3691.33 324.928 Q3685.13 324.928 3681.49 321.317 Q3677.88 317.706 3677.88 311.549 Q3677.88 305.183 3681.31 301.456 Q3684.76 297.706 3690.59 297.706 Q3695.82 297.706 3698.86 301.086 Q3701.91 304.442 3701.91 310.229 M3697.65 308.979 Q3697.61 305.484 3695.68 303.401 Q3693.79 301.317 3690.64 301.317 Q3687.07 301.317 3684.92 303.331 Q3682.79 305.345 3682.47 309.003 L3697.65 308.979 Z" fill="#000000" fill-rule="evenodd" fill-opacity="1" /><path clip-path="url(#clip430)" d="M3725.43 299.095 L3725.43 303.123 Q3723.62 302.197 3721.68 301.734 Q3719.74 301.271 3717.65 301.271 Q3714.48 301.271 3712.88 302.243 Q3711.31 303.216 3711.31 305.16 Q3711.31 306.642 3712.44 307.498 Q3713.58 308.331 3717 309.095 L3718.46 309.419 Q3723 310.392 3724.9 312.174 Q3726.82 313.933 3726.82 317.104 Q3726.82 320.716 3723.95 322.822 Q3721.1 324.928 3716.1 324.928 Q3714.02 324.928 3711.75 324.512 Q3709.5 324.118 3707 323.308 L3707 318.91 Q3709.37 320.137 3711.66 320.762 Q3713.95 321.364 3716.19 321.364 Q3719.2 321.364 3720.82 320.345 Q3722.44 319.303 3722.44 317.429 Q3722.44 315.692 3721.26 314.766 Q3720.11 313.841 3716.15 312.984 L3714.67 312.637 Q3710.71 311.804 3708.95 310.091 Q3707.19 308.354 3707.19 305.345 Q3707.19 301.688 3709.78 299.697 Q3712.37 297.706 3717.14 297.706 Q3719.5 297.706 3721.59 298.054 Q3723.67 298.401 3725.43 299.095 Z" fill="#000000" fill-rule="evenodd" fill-opacity="1" /></svg>
