<?xml version="1.0" encoding="utf-8"?>
<svg xmlns="http://www.w3.org/2000/svg" xmlns:xlink="http://www.w3.org/1999/xlink" width="1000" height="400" viewBox="0 0 4000 1600">
<defs>
  <clipPath id="clip420">
    <rect x="0" y="0" width="4000" height="1600"/>
  </clipPath>
</defs>
<path clip-path="url(#clip420)" d="
M0 1600 L4000 1600 L4000 0 L0 0  Z
  " fill="#ffffff" fill-rule="evenodd" fill-opacity="1"/>
<defs>
  <clipPath id="clip421">
    <rect x="800" y="0" width="2801" height="1600"/>
  </clipPath>
</defs>
<path clip-path="url(#clip420)" d="
M279.364 1393.02 L1889.76 1393.02 L1889.76 162.272 L279.364 162.272  Z
  " fill="#ffffff" fill-rule="evenodd" fill-opacity="1"/>
<defs>
  <clipPath id="clip422">
    <rect x="279" y="162" width="1611" height="1232"/>
  </clipPath>
</defs>
<polyline clip-path="url(#clip422)" style="stroke:#000000; stroke-linecap:round; stroke-linejoin:round; stroke-width:2; stroke-opacity:0.1; fill:none" points="
  559.973,1393.02 559.973,162.272 
  "/>
<polyline clip-path="url(#clip422)" style="stroke:#000000; stroke-linecap:round; stroke-linejoin:round; stroke-width:2; stroke-opacity:0.1; fill:none" points="
  846.852,1393.02 846.852,162.272 
  "/>
<polyline clip-path="url(#clip422)" style="stroke:#000000; stroke-linecap:round; stroke-linejoin:round; stroke-width:2; stroke-opacity:0.1; fill:none" points="
  1133.73,1393.02 1133.73,162.272 
  "/>
<polyline clip-path="url(#clip422)" style="stroke:#000000; stroke-linecap:round; stroke-linejoin:round; stroke-width:2; stroke-opacity:0.1; fill:none" points="
  1420.61,1393.02 1420.61,162.272 
  "/>
<polyline clip-path="url(#clip422)" style="stroke:#000000; stroke-linecap:round; stroke-linejoin:round; stroke-width:2; stroke-opacity:0.1; fill:none" points="
  1707.49,1393.02 1707.49,162.272 
  "/>
<polyline clip-path="url(#clip420)" style="stroke:#000000; stroke-linecap:round; stroke-linejoin:round; stroke-width:4; stroke-opacity:1; fill:none" points="
  279.364,1393.02 1889.76,1393.02 
  "/>
<polyline clip-path="url(#clip420)" style="stroke:#000000; stroke-linecap:round; stroke-linejoin:round; stroke-width:4; stroke-opacity:1; fill:none" points="
  559.973,1393.02 559.973,1374.12 
  "/>
<polyline clip-path="url(#clip420)" style="stroke:#000000; stroke-linecap:round; stroke-linejoin:round; stroke-width:4; stroke-opacity:1; fill:none" points="
  846.852,1393.02 846.852,1374.12 
  "/>
<polyline clip-path="url(#clip420)" style="stroke:#000000; stroke-linecap:round; stroke-linejoin:round; stroke-width:4; stroke-opacity:1; fill:none" points="
  1133.73,1393.02 1133.73,1374.12 
  "/>
<polyline clip-path="url(#clip420)" style="stroke:#000000; stroke-linecap:round; stroke-linejoin:round; stroke-width:4; stroke-opacity:1; fill:none" points="
  1420.61,1393.02 1420.61,1374.12 
  "/>
<polyline clip-path="url(#clip420)" style="stroke:#000000; stroke-linecap:round; stroke-linejoin:round; stroke-width:4; stroke-opacity:1; fill:none" points="
  1707.49,1393.02 1707.49,1374.12 
  "/>
<path clip-path="url(#clip420)" d="M512.091 1464.28 L519.73 1464.28 L519.73 1437.92 L511.42 1439.59 L511.42 1435.33 L519.684 1433.66 L524.36 1433.66 L524.36 1464.28 L531.999 1464.28 L531.999 1468.22 L512.091 1468.22 L512.091 1464.28 Z" fill="#000000" fill-rule="evenodd" fill-opacity="1" /><path clip-path="url(#clip420)" d="M541.443 1462.34 L546.327 1462.34 L546.327 1468.22 L541.443 1468.22 L541.443 1462.34 Z" fill="#000000" fill-rule="evenodd" fill-opacity="1" /><path clip-path="url(#clip420)" d="M566.512 1436.74 Q562.901 1436.74 561.072 1440.3 Q559.267 1443.84 559.267 1450.97 Q559.267 1458.08 561.072 1461.65 Q562.901 1465.19 566.512 1465.19 Q570.146 1465.19 571.952 1461.65 Q573.781 1458.08 573.781 1450.97 Q573.781 1443.84 571.952 1440.3 Q570.146 1436.74 566.512 1436.74 M566.512 1433.03 Q572.322 1433.03 575.378 1437.64 Q578.457 1442.22 578.457 1450.97 Q578.457 1459.7 575.378 1464.31 Q572.322 1468.89 566.512 1468.89 Q560.702 1468.89 557.623 1464.31 Q554.568 1459.7 554.568 1450.97 Q554.568 1442.22 557.623 1437.64 Q560.702 1433.03 566.512 1433.03 Z" fill="#000000" fill-rule="evenodd" fill-opacity="1" /><path clip-path="url(#clip420)" d="M596.674 1451.81 Q593.341 1451.81 591.42 1453.59 Q589.521 1455.37 589.521 1458.5 Q589.521 1461.62 591.42 1463.4 Q593.341 1465.19 596.674 1465.19 Q600.007 1465.19 601.929 1463.4 Q603.85 1461.6 603.85 1458.5 Q603.85 1455.37 601.929 1453.59 Q600.031 1451.81 596.674 1451.81 M591.998 1449.82 Q588.989 1449.08 587.299 1447.02 Q585.633 1444.96 585.633 1441.99 Q585.633 1437.85 588.572 1435.44 Q591.535 1433.03 596.674 1433.03 Q601.836 1433.03 604.776 1435.44 Q607.716 1437.85 607.716 1441.99 Q607.716 1444.96 606.026 1447.02 Q604.359 1449.08 601.373 1449.82 Q604.753 1450.6 606.628 1452.9 Q608.526 1455.19 608.526 1458.5 Q608.526 1463.52 605.447 1466.21 Q602.392 1468.89 596.674 1468.89 Q590.957 1468.89 587.878 1466.21 Q584.822 1463.52 584.822 1458.5 Q584.822 1455.19 586.72 1452.9 Q588.619 1450.6 591.998 1449.82 M590.285 1442.43 Q590.285 1445.12 591.952 1446.62 Q593.642 1448.13 596.674 1448.13 Q599.683 1448.13 601.373 1446.62 Q603.086 1445.12 603.086 1442.43 Q603.086 1439.75 601.373 1438.24 Q599.683 1436.74 596.674 1436.74 Q593.642 1436.74 591.952 1438.24 Q590.285 1439.75 590.285 1442.43 Z" fill="#000000" fill-rule="evenodd" fill-opacity="1" /><path clip-path="url(#clip420)" d="M799.537 1464.28 L807.176 1464.28 L807.176 1437.92 L798.866 1439.59 L798.866 1435.33 L807.13 1433.66 L811.806 1433.66 L811.806 1464.28 L819.444 1464.28 L819.444 1468.22 L799.537 1468.22 L799.537 1464.28 Z" fill="#000000" fill-rule="evenodd" fill-opacity="1" /><path clip-path="url(#clip420)" d="M828.889 1462.34 L833.773 1462.34 L833.773 1468.22 L828.889 1468.22 L828.889 1462.34 Z" fill="#000000" fill-rule="evenodd" fill-opacity="1" /><path clip-path="url(#clip420)" d="M844.768 1464.28 L852.407 1464.28 L852.407 1437.92 L844.097 1439.59 L844.097 1435.33 L852.361 1433.66 L857.037 1433.66 L857.037 1464.28 L864.676 1464.28 L864.676 1468.22 L844.768 1468.22 L844.768 1464.28 Z" fill="#000000" fill-rule="evenodd" fill-opacity="1" /><path clip-path="url(#clip420)" d="M874.93 1464.28 L882.569 1464.28 L882.569 1437.92 L874.259 1439.59 L874.259 1435.33 L882.523 1433.66 L887.199 1433.66 L887.199 1464.28 L894.837 1464.28 L894.837 1468.22 L874.93 1468.22 L874.93 1464.28 Z" fill="#000000" fill-rule="evenodd" fill-opacity="1" /><path clip-path="url(#clip420)" d="M1085.56 1464.28 L1093.2 1464.28 L1093.2 1437.92 L1084.89 1439.59 L1084.89 1435.33 L1093.15 1433.66 L1097.83 1433.66 L1097.83 1464.28 L1105.47 1464.28 L1105.47 1468.22 L1085.56 1468.22 L1085.56 1464.28 Z" fill="#000000" fill-rule="evenodd" fill-opacity="1" /><path clip-path="url(#clip420)" d="M1114.91 1462.34 L1119.8 1462.34 L1119.8 1468.22 L1114.91 1468.22 L1114.91 1462.34 Z" fill="#000000" fill-rule="evenodd" fill-opacity="1" /><path clip-path="url(#clip420)" d="M1130.79 1464.28 L1138.43 1464.28 L1138.43 1437.92 L1130.12 1439.59 L1130.12 1435.33 L1138.38 1433.66 L1143.06 1433.66 L1143.06 1464.28 L1150.7 1464.28 L1150.7 1468.22 L1130.79 1468.22 L1130.79 1464.28 Z" fill="#000000" fill-rule="evenodd" fill-opacity="1" /><path clip-path="url(#clip420)" d="M1172.99 1437.73 L1161.18 1456.18 L1172.99 1456.18 L1172.99 1437.73 M1171.76 1433.66 L1177.64 1433.66 L1177.64 1456.18 L1182.57 1456.18 L1182.57 1460.07 L1177.64 1460.07 L1177.64 1468.22 L1172.99 1468.22 L1172.99 1460.07 L1157.39 1460.07 L1157.39 1455.56 L1171.76 1433.66 Z" fill="#000000" fill-rule="evenodd" fill-opacity="1" /><path clip-path="url(#clip420)" d="M1373.13 1464.28 L1380.77 1464.28 L1380.77 1437.92 L1372.46 1439.59 L1372.46 1435.33 L1380.72 1433.66 L1385.4 1433.66 L1385.4 1464.28 L1393.04 1464.28 L1393.04 1468.22 L1373.13 1468.22 L1373.13 1464.28 Z" fill="#000000" fill-rule="evenodd" fill-opacity="1" /><path clip-path="url(#clip420)" d="M1402.48 1462.34 L1407.37 1462.34 L1407.37 1468.22 L1402.48 1468.22 L1402.48 1462.34 Z" fill="#000000" fill-rule="evenodd" fill-opacity="1" /><path clip-path="url(#clip420)" d="M1418.36 1464.28 L1426 1464.28 L1426 1437.92 L1417.69 1439.59 L1417.69 1435.33 L1425.96 1433.66 L1430.63 1433.66 L1430.63 1464.28 L1438.27 1464.28 L1438.27 1468.22 L1418.36 1468.22 L1418.36 1464.28 Z" fill="#000000" fill-rule="evenodd" fill-opacity="1" /><path clip-path="url(#clip420)" d="M1446.53 1433.66 L1468.76 1433.66 L1468.76 1435.65 L1456.21 1468.22 L1451.33 1468.22 L1463.13 1437.59 L1446.53 1437.59 L1446.53 1433.66 Z" fill="#000000" fill-rule="evenodd" fill-opacity="1" /><path clip-path="url(#clip420)" d="M1659.56 1464.28 L1667.2 1464.28 L1667.2 1437.92 L1658.89 1439.59 L1658.89 1435.33 L1667.15 1433.66 L1671.83 1433.66 L1671.83 1464.28 L1679.47 1464.28 L1679.47 1468.22 L1659.56 1468.22 L1659.56 1464.28 Z" fill="#000000" fill-rule="evenodd" fill-opacity="1" /><path clip-path="url(#clip420)" d="M1688.91 1462.34 L1693.8 1462.34 L1693.8 1468.22 L1688.91 1468.22 L1688.91 1462.34 Z" fill="#000000" fill-rule="evenodd" fill-opacity="1" /><path clip-path="url(#clip420)" d="M1708.01 1464.28 L1724.33 1464.28 L1724.33 1468.22 L1702.38 1468.22 L1702.38 1464.28 Q1705.05 1461.53 1709.63 1456.9 Q1714.24 1452.25 1715.42 1450.9 Q1717.66 1448.38 1718.54 1446.65 Q1719.44 1444.89 1719.44 1443.2 Q1719.44 1440.44 1717.5 1438.71 Q1715.58 1436.97 1712.48 1436.97 Q1710.28 1436.97 1707.82 1437.73 Q1705.39 1438.5 1702.62 1440.05 L1702.62 1435.33 Q1705.44 1434.19 1707.89 1433.61 Q1710.35 1433.03 1712.38 1433.03 Q1717.75 1433.03 1720.95 1435.72 Q1724.14 1438.41 1724.14 1442.9 Q1724.14 1445.03 1723.33 1446.95 Q1722.55 1448.84 1720.44 1451.44 Q1719.86 1452.11 1716.76 1455.33 Q1713.66 1458.52 1708.01 1464.28 Z" fill="#000000" fill-rule="evenodd" fill-opacity="1" /><path clip-path="url(#clip420)" d="M1744.14 1436.74 Q1740.53 1436.74 1738.7 1440.3 Q1736.9 1443.84 1736.9 1450.97 Q1736.9 1458.08 1738.7 1461.65 Q1740.53 1465.19 1744.14 1465.19 Q1747.78 1465.19 1749.58 1461.65 Q1751.41 1458.08 1751.41 1450.97 Q1751.41 1443.84 1749.58 1440.3 Q1747.78 1436.74 1744.14 1436.74 M1744.14 1433.03 Q1749.95 1433.03 1753.01 1437.64 Q1756.09 1442.22 1756.09 1450.97 Q1756.09 1459.7 1753.01 1464.31 Q1749.95 1468.89 1744.14 1468.89 Q1738.33 1468.89 1735.25 1464.31 Q1732.2 1459.7 1732.2 1450.97 Q1732.2 1442.22 1735.25 1437.64 Q1738.33 1433.03 1744.14 1433.03 Z" fill="#000000" fill-rule="evenodd" fill-opacity="1" /><path clip-path="url(#clip420)" d="M1071.48 1532.6 Q1073.42 1529.35 1078.23 1526.49 Q1080.11 1525.38 1085.9 1525.38 Q1092.39 1525.38 1096.44 1530.53 Q1100.51 1535.69 1100.51 1544.09 Q1100.51 1552.49 1096.44 1557.65 Q1092.39 1562.81 1085.9 1562.81 Q1081.99 1562.81 1079.15 1561.28 Q1076.35 1559.72 1074.51 1556.54 L1074.51 1575.44 L1068.62 1575.44 L1068.62 1544.41 Q1068.62 1537.06 1071.48 1532.6 M1094.43 1544.09 Q1094.43 1537.63 1091.76 1533.97 Q1089.12 1530.28 1084.47 1530.28 Q1079.82 1530.28 1077.15 1533.97 Q1074.51 1537.63 1074.51 1544.09 Q1074.51 1550.55 1077.15 1554.24 Q1079.82 1557.91 1084.47 1557.91 Q1089.12 1557.91 1091.76 1554.24 Q1094.43 1550.55 1094.43 1544.09 Z" fill="#000000" fill-rule="evenodd" fill-opacity="1" /><polyline clip-path="url(#clip422)" style="stroke:#000000; stroke-linecap:round; stroke-linejoin:round; stroke-width:2; stroke-opacity:0.1; fill:none" points="
  279.364,1358.19 1889.76,1358.19 
  "/>
<polyline clip-path="url(#clip422)" style="stroke:#000000; stroke-linecap:round; stroke-linejoin:round; stroke-width:2; stroke-opacity:0.1; fill:none" points="
  279.364,971.16 1889.76,971.16 
  "/>
<polyline clip-path="url(#clip422)" style="stroke:#000000; stroke-linecap:round; stroke-linejoin:round; stroke-width:2; stroke-opacity:0.1; fill:none" points="
  279.364,584.132 1889.76,584.132 
  "/>
<polyline clip-path="url(#clip422)" style="stroke:#000000; stroke-linecap:round; stroke-linejoin:round; stroke-width:2; stroke-opacity:0.1; fill:none" points="
  279.364,197.105 1889.76,197.105 
  "/>
<polyline clip-path="url(#clip420)" style="stroke:#000000; stroke-linecap:round; stroke-linejoin:round; stroke-width:4; stroke-opacity:1; fill:none" points="
  279.364,1393.02 279.364,162.272 
  "/>
<polyline clip-path="url(#clip420)" style="stroke:#000000; stroke-linecap:round; stroke-linejoin:round; stroke-width:4; stroke-opacity:1; fill:none" points="
  279.364,1358.19 298.262,1358.19 
  "/>
<polyline clip-path="url(#clip420)" style="stroke:#000000; stroke-linecap:round; stroke-linejoin:round; stroke-width:4; stroke-opacity:1; fill:none" points="
  279.364,971.16 298.262,971.16 
  "/>
<polyline clip-path="url(#clip420)" style="stroke:#000000; stroke-linecap:round; stroke-linejoin:round; stroke-width:4; stroke-opacity:1; fill:none" points="
  279.364,584.132 298.262,584.132 
  "/>
<polyline clip-path="url(#clip420)" style="stroke:#000000; stroke-linecap:round; stroke-linejoin:round; stroke-width:4; stroke-opacity:1; fill:none" points="
  279.364,197.105 298.262,197.105 
  "/>
<path clip-path="url(#clip420)" d="M162.189 1343.99 Q158.578 1343.99 156.749 1347.55 Q154.943 1351.09 154.943 1358.22 Q154.943 1365.33 156.749 1368.89 Q158.578 1372.43 162.189 1372.43 Q165.823 1372.43 167.628 1368.89 Q169.457 1365.33 169.457 1358.22 Q169.457 1351.09 167.628 1347.55 Q165.823 1343.99 162.189 1343.99 M162.189 1340.28 Q167.999 1340.28 171.054 1344.89 Q174.133 1349.47 174.133 1358.22 Q174.133 1366.95 171.054 1371.56 Q167.999 1376.14 162.189 1376.14 Q156.379 1376.14 153.3 1371.56 Q150.244 1366.95 150.244 1358.22 Q150.244 1349.47 153.3 1344.89 Q156.379 1340.28 162.189 1340.28 Z" fill="#000000" fill-rule="evenodd" fill-opacity="1" /><path clip-path="url(#clip420)" d="M182.351 1369.59 L187.235 1369.59 L187.235 1375.47 L182.351 1375.47 L182.351 1369.59 Z" fill="#000000" fill-rule="evenodd" fill-opacity="1" /><path clip-path="url(#clip420)" d="M207.42 1343.99 Q203.809 1343.99 201.98 1347.55 Q200.175 1351.09 200.175 1358.22 Q200.175 1365.33 201.98 1368.89 Q203.809 1372.43 207.42 1372.43 Q211.054 1372.43 212.86 1368.89 Q214.688 1365.33 214.688 1358.22 Q214.688 1351.09 212.86 1347.55 Q211.054 1343.99 207.42 1343.99 M207.42 1340.28 Q213.23 1340.28 216.286 1344.89 Q219.364 1349.47 219.364 1358.22 Q219.364 1366.95 216.286 1371.56 Q213.23 1376.14 207.42 1376.14 Q201.61 1376.14 198.531 1371.56 Q195.476 1366.95 195.476 1358.22 Q195.476 1349.47 198.531 1344.89 Q201.61 1340.28 207.42 1340.28 Z" fill="#000000" fill-rule="evenodd" fill-opacity="1" /><path clip-path="url(#clip420)" d="M163.184 956.958 Q159.573 956.958 157.744 960.523 Q155.939 964.065 155.939 971.194 Q155.939 978.301 157.744 981.866 Q159.573 985.407 163.184 985.407 Q166.818 985.407 168.624 981.866 Q170.453 978.301 170.453 971.194 Q170.453 964.065 168.624 960.523 Q166.818 956.958 163.184 956.958 M163.184 953.255 Q168.994 953.255 172.05 957.861 Q175.128 962.445 175.128 971.194 Q175.128 979.921 172.05 984.528 Q168.994 989.111 163.184 989.111 Q157.374 989.111 154.295 984.528 Q151.24 979.921 151.24 971.194 Q151.24 962.445 154.295 957.861 Q157.374 953.255 163.184 953.255 Z" fill="#000000" fill-rule="evenodd" fill-opacity="1" /><path clip-path="url(#clip420)" d="M183.346 982.56 L188.23 982.56 L188.23 988.44 L183.346 988.44 L183.346 982.56 Z" fill="#000000" fill-rule="evenodd" fill-opacity="1" /><path clip-path="url(#clip420)" d="M198.462 953.88 L216.818 953.88 L216.818 957.815 L202.744 957.815 L202.744 966.287 Q203.763 965.94 204.781 965.778 Q205.8 965.593 206.818 965.593 Q212.605 965.593 215.985 968.764 Q219.364 971.935 219.364 977.352 Q219.364 982.931 215.892 986.032 Q212.42 989.111 206.1 989.111 Q203.925 989.111 201.656 988.741 Q199.411 988.37 197.003 987.63 L197.003 982.931 Q199.087 984.065 201.309 984.62 Q203.531 985.176 206.008 985.176 Q210.012 985.176 212.35 983.069 Q214.688 980.963 214.688 977.352 Q214.688 973.741 212.35 971.634 Q210.012 969.528 206.008 969.528 Q204.133 969.528 202.258 969.944 Q200.406 970.361 198.462 971.241 L198.462 953.88 Z" fill="#000000" fill-rule="evenodd" fill-opacity="1" /><path clip-path="url(#clip420)" d="M152.999 597.477 L160.638 597.477 L160.638 571.111 L152.328 572.778 L152.328 568.519 L160.591 566.852 L165.267 566.852 L165.267 597.477 L172.906 597.477 L172.906 601.412 L152.999 601.412 L152.999 597.477 Z" fill="#000000" fill-rule="evenodd" fill-opacity="1" /><path clip-path="url(#clip420)" d="M182.351 595.533 L187.235 595.533 L187.235 601.412 L182.351 601.412 L182.351 595.533 Z" fill="#000000" fill-rule="evenodd" fill-opacity="1" /><path clip-path="url(#clip420)" d="M207.42 569.931 Q203.809 569.931 201.98 573.496 Q200.175 577.037 200.175 584.167 Q200.175 591.273 201.98 594.838 Q203.809 598.38 207.42 598.38 Q211.054 598.38 212.86 594.838 Q214.688 591.273 214.688 584.167 Q214.688 577.037 212.86 573.496 Q211.054 569.931 207.42 569.931 M207.42 566.227 Q213.23 566.227 216.286 570.834 Q219.364 575.417 219.364 584.167 Q219.364 592.894 216.286 597.5 Q213.23 602.084 207.42 602.084 Q201.61 602.084 198.531 597.5 Q195.476 592.894 195.476 584.167 Q195.476 575.417 198.531 570.834 Q201.61 566.227 207.42 566.227 Z" fill="#000000" fill-rule="evenodd" fill-opacity="1" /><path clip-path="url(#clip420)" d="M153.994 210.45 L161.633 210.45 L161.633 184.084 L153.323 185.751 L153.323 181.491 L161.587 179.825 L166.263 179.825 L166.263 210.45 L173.902 210.45 L173.902 214.385 L153.994 214.385 L153.994 210.45 Z" fill="#000000" fill-rule="evenodd" fill-opacity="1" /><path clip-path="url(#clip420)" d="M183.346 208.505 L188.23 208.505 L188.23 214.385 L183.346 214.385 L183.346 208.505 Z" fill="#000000" fill-rule="evenodd" fill-opacity="1" /><path clip-path="url(#clip420)" d="M198.462 179.825 L216.818 179.825 L216.818 183.76 L202.744 183.76 L202.744 192.232 Q203.763 191.885 204.781 191.723 Q205.8 191.538 206.818 191.538 Q212.605 191.538 215.985 194.709 Q219.364 197.88 219.364 203.297 Q219.364 208.875 215.892 211.977 Q212.42 215.056 206.1 215.056 Q203.925 215.056 201.656 214.686 Q199.411 214.315 197.003 213.575 L197.003 208.875 Q199.087 210.01 201.309 210.565 Q203.531 211.121 206.008 211.121 Q210.012 211.121 212.35 209.014 Q214.688 206.908 214.688 203.297 Q214.688 199.686 212.35 197.579 Q210.012 195.473 206.008 195.473 Q204.133 195.473 202.258 195.889 Q200.406 196.306 198.462 197.186 L198.462 179.825 Z" fill="#000000" fill-rule="evenodd" fill-opacity="1" /><path clip-path="url(#clip420)" d="M40.3403 876.171 L40.3403 848.353 L45.6875 848.353 L71.3095 870.378 L71.3095 848.353 L75.9883 848.353 L75.9883 876.967 L70.6411 876.967 L45.0191 854.942 L45.0191 876.171 L40.3403 876.171 Z" fill="#000000" fill-rule="evenodd" fill-opacity="1" /><path clip-path="url(#clip420)" d="M26.5267 804.621 Q33.8473 808.886 41.0087 810.955 Q48.1701 813.023 55.5225 813.023 Q62.8749 813.023 70.1 810.955 Q77.2933 808.854 84.582 804.621 L84.582 809.713 Q77.1023 814.488 69.8772 816.875 Q62.6521 819.23 55.5225 819.23 Q48.4248 819.23 41.2315 816.875 Q34.0383 814.519 26.5267 809.713 L26.5267 804.621 Z" fill="#000000" fill-rule="evenodd" fill-opacity="1" /><path clip-path="url(#clip420)" d="M26.4631 793.481 L26.4631 787.592 L55.7135 787.592 L40.3403 770.119 L40.3403 762.639 L57.0185 781.545 L75.9883 761.843 L75.9883 769.482 L58.5781 787.592 L75.9883 787.592 L75.9883 793.481 L26.4631 793.481 Z" fill="#000000" fill-rule="evenodd" fill-opacity="1" /><path clip-path="url(#clip420)" d="M47.1835 727.755 Q43.2367 725.559 41.3588 722.503 Q39.481 719.448 39.481 715.31 Q39.481 709.74 43.3959 706.716 Q47.2789 703.692 54.4722 703.692 L75.9883 703.692 L75.9883 709.581 L54.6632 709.581 Q49.5388 709.581 47.0561 711.395 Q44.5735 713.209 44.5735 716.933 Q44.5735 721.485 47.5972 724.126 Q50.6209 726.768 55.8408 726.768 L75.9883 726.768 L75.9883 732.656 L54.6632 732.656 Q49.5069 732.656 47.0561 734.471 Q44.5735 736.285 44.5735 740.072 Q44.5735 744.56 47.6291 747.202 Q50.6528 749.844 55.8408 749.844 L75.9883 749.844 L75.9883 755.732 L40.3403 755.732 L40.3403 749.844 L45.8785 749.844 Q42.6002 747.839 41.0406 745.038 Q39.481 742.237 39.481 738.385 Q39.481 734.502 41.4543 731.797 Q43.4277 729.06 47.1835 727.755 Z" fill="#000000" fill-rule="evenodd" fill-opacity="1" /><path clip-path="url(#clip420)" d="M26.5267 692.934 L26.5267 687.842 Q34.0383 683.067 41.2315 680.712 Q48.4248 678.325 55.5225 678.325 Q62.6521 678.325 69.8772 680.712 Q77.1023 683.067 84.582 687.842 L84.582 692.934 Q77.2933 688.701 70.1 686.632 Q62.8749 684.532 55.5225 684.532 Q48.1701 684.532 41.0087 686.632 Q33.8473 688.701 26.5267 692.934 Z" fill="#000000" fill-rule="evenodd" fill-opacity="1" /><path clip-path="url(#clip420)" d="M1067.91 35.3077 Q1070.39 31.1758 1076.5 27.5299 Q1078.89 26.1121 1086.27 26.1121 Q1094.53 26.1121 1099.67 32.6746 Q1104.86 39.2371 1104.86 49.9314 Q1104.86 60.6258 1099.67 67.1883 Q1094.53 73.7508 1086.27 73.7508 Q1081.28 73.7508 1077.68 71.8063 Q1074.11 69.8214 1071.76 65.7705 L1071.76 89.8329 L1064.27 89.8329 L1064.27 50.3365 Q1064.27 40.9789 1067.91 35.3077 M1097.12 49.9314 Q1097.12 41.7081 1093.72 37.0496 Q1090.36 32.3505 1084.44 32.3505 Q1078.53 32.3505 1075.13 37.0496 Q1071.76 41.7081 1071.76 49.9314 Q1071.76 58.1548 1075.13 62.8538 Q1078.53 67.5124 1084.44 67.5124 Q1090.36 67.5124 1093.72 62.8538 Q1097.12 58.1548 1097.12 49.9314 Z" fill="#000000" fill-rule="evenodd" fill-opacity="1" /><polyline clip-path="url(#clip422)" style="stroke:#009af9; stroke-linecap:round; stroke-linejoin:round; stroke-width:4; stroke-opacity:1; fill:none" points="
  1819.91,1338.84 1771.46,1300.13 1723.12,1261.43 1674.91,1222.73 1626.82,1184.02 1578.85,1145.32 1531,1106.62 1483.27,1067.92 1435.67,1029.21 1388.18,990.511 
  1340.82,951.808 1293.58,913.106 1240.98,874.403 1186.78,835.7 1132.81,796.997 1079.07,758.295 1025.54,719.592 972.209,680.889 919.089,642.186 866.244,603.484 
  813.627,564.781 761.236,526.078 709.07,487.375 657.126,448.673 605.405,409.97 553.905,371.267 502.625,332.564 451.565,293.862 400.88,255.159 350.195,216.456 
  
  "/>
<polyline clip-path="url(#clip422)" style="stroke:#e26f46; stroke-linecap:round; stroke-linejoin:round; stroke-width:4; stroke-opacity:1; fill:none" points="
  1844.19,1358.19 1795.67,1319.48 1747.27,1280.78 1699,1242.08 1650.85,1203.38 1602.82,1164.67 1554.91,1125.97 1507.12,1087.27 1459.45,1048.57 1411.91,1009.86 
  1364.49,971.16 1317.18,932.457 1268.17,893.754 1213.85,855.051 1159.77,816.349 1105.91,777.646 1052.28,738.943 998.847,700.24 945.622,661.538 892.638,622.835 
  839.907,584.132 787.403,545.429 735.125,506.727 683.07,468.024 631.238,429.321 579.627,390.618 528.237,351.916 477.068,313.213 426.314,274.51 375.507,235.807 
  324.942,197.105 
  "/>
<path clip-path="url(#clip420)" d="
M1484.86 358.817 L1836.08 358.817 L1836.08 203.297 L1484.86 203.297  Z
  " fill="#ffffff" fill-rule="evenodd" fill-opacity="1"/>
<polyline clip-path="url(#clip420)" style="stroke:#000000; stroke-linecap:round; stroke-linejoin:round; stroke-width:4; stroke-opacity:1; fill:none" points="
  1484.86,358.817 1836.08,358.817 1836.08,203.297 1484.86,203.297 1484.86,358.817 
  "/>
<polyline clip-path="url(#clip420)" style="stroke:#009af9; stroke-linecap:round; stroke-linejoin:round; stroke-width:4; stroke-opacity:1; fill:none" points="
  1502.75,255.137 1610.11,255.137 
  "/>
<path clip-path="url(#clip420)" d="M1648.52 247.487 L1648.52 251.468 Q1646.71 250.473 1644.88 249.987 Q1643.08 249.477 1641.22 249.477 Q1637.08 249.477 1634.79 252.116 Q1632.5 254.732 1632.5 259.477 Q1632.5 264.223 1634.79 266.862 Q1637.08 269.477 1641.22 269.477 Q1643.08 269.477 1644.88 268.991 Q1646.71 268.482 1648.52 267.487 L1648.52 271.422 Q1646.73 272.255 1644.81 272.672 Q1642.91 273.088 1640.76 273.088 Q1634.9 273.088 1631.46 269.408 Q1628.01 265.727 1628.01 259.477 Q1628.01 253.135 1631.48 249.501 Q1634.97 245.866 1641.04 245.866 Q1643.01 245.866 1644.88 246.283 Q1646.76 246.677 1648.52 247.487 Z" fill="#000000" fill-rule="evenodd" fill-opacity="1" /><path clip-path="url(#clip420)" d="M1678.1 258.389 L1678.1 260.473 L1658.52 260.473 Q1658.79 264.871 1661.15 267.186 Q1663.54 269.477 1667.77 269.477 Q1670.23 269.477 1672.52 268.876 Q1674.83 268.274 1677.1 267.07 L1677.1 271.098 Q1674.81 272.07 1672.4 272.579 Q1670 273.088 1667.52 273.088 Q1661.32 273.088 1657.68 269.477 Q1654.07 265.866 1654.07 259.709 Q1654.07 253.343 1657.5 249.616 Q1660.95 245.866 1666.78 245.866 Q1672.01 245.866 1675.04 249.246 Q1678.1 252.602 1678.1 258.389 M1673.84 257.139 Q1673.79 253.644 1671.87 251.561 Q1669.97 249.477 1666.83 249.477 Q1663.26 249.477 1661.11 251.491 Q1658.98 253.505 1658.65 257.163 L1673.84 257.139 Z" fill="#000000" fill-rule="evenodd" fill-opacity="1" /><path clip-path="url(#clip420)" d="M1706.64 256.769 L1706.64 272.417 L1702.38 272.417 L1702.38 256.908 Q1702.38 253.227 1700.95 251.399 Q1699.51 249.57 1696.64 249.57 Q1693.19 249.57 1691.2 251.769 Q1689.21 253.968 1689.21 257.764 L1689.21 272.417 L1684.93 272.417 L1684.93 246.491 L1689.21 246.491 L1689.21 250.519 Q1690.74 248.181 1692.8 247.024 Q1694.88 245.866 1697.59 245.866 Q1702.06 245.866 1704.35 248.644 Q1706.64 251.399 1706.64 256.769 Z" fill="#000000" fill-rule="evenodd" fill-opacity="1" /><path clip-path="url(#clip420)" d="M1719.35 239.13 L1719.35 246.491 L1728.12 246.491 L1728.12 249.802 L1719.35 249.802 L1719.35 263.876 Q1719.35 267.047 1720.2 267.95 Q1721.08 268.852 1723.75 268.852 L1728.12 268.852 L1728.12 272.417 L1723.75 272.417 Q1718.82 272.417 1716.94 270.588 Q1715.07 268.737 1715.07 263.876 L1715.07 249.802 L1711.94 249.802 L1711.94 246.491 L1715.07 246.491 L1715.07 239.13 L1719.35 239.13 Z" fill="#000000" fill-rule="evenodd" fill-opacity="1" /><path clip-path="url(#clip420)" d="M1755.9 258.389 L1755.9 260.473 L1736.32 260.473 Q1736.59 264.871 1738.95 267.186 Q1741.34 269.477 1745.58 269.477 Q1748.03 269.477 1750.32 268.876 Q1752.64 268.274 1754.9 267.07 L1754.9 271.098 Q1752.61 272.07 1750.2 272.579 Q1747.8 273.088 1745.32 273.088 Q1739.12 273.088 1735.48 269.477 Q1731.87 265.866 1731.87 259.709 Q1731.87 253.343 1735.3 249.616 Q1738.75 245.866 1744.58 245.866 Q1749.81 245.866 1752.84 249.246 Q1755.9 252.602 1755.9 258.389 M1751.64 257.139 Q1751.59 253.644 1749.67 251.561 Q1747.77 249.477 1744.63 249.477 Q1741.06 249.477 1738.91 251.491 Q1736.78 253.505 1736.45 257.163 L1751.64 257.139 Z" fill="#000000" fill-rule="evenodd" fill-opacity="1" /><path clip-path="url(#clip420)" d="M1777.91 250.473 Q1777.2 250.056 1776.34 249.871 Q1775.51 249.663 1774.49 249.663 Q1770.88 249.663 1768.93 252.024 Q1767.01 254.362 1767.01 258.76 L1767.01 272.417 L1762.73 272.417 L1762.73 246.491 L1767.01 246.491 L1767.01 250.519 Q1768.35 248.158 1770.51 247.024 Q1772.66 245.866 1775.74 245.866 Q1776.18 245.866 1776.71 245.936 Q1777.24 245.982 1777.89 246.098 L1777.91 250.473 Z" fill="#000000" fill-rule="evenodd" fill-opacity="1" /><path clip-path="url(#clip420)" d="M1798.91 247.255 L1798.91 251.283 Q1797.1 250.357 1795.16 249.894 Q1793.21 249.431 1791.13 249.431 Q1787.96 249.431 1786.36 250.403 Q1784.79 251.376 1784.79 253.32 Q1784.79 254.802 1785.92 255.658 Q1787.06 256.491 1790.48 257.255 L1791.94 257.579 Q1796.48 258.552 1798.38 260.334 Q1800.3 262.093 1800.3 265.264 Q1800.3 268.876 1797.43 270.982 Q1794.58 273.088 1789.58 273.088 Q1787.5 273.088 1785.23 272.672 Q1782.98 272.278 1780.48 271.468 L1780.48 267.07 Q1782.84 268.297 1785.14 268.922 Q1787.43 269.524 1789.67 269.524 Q1792.68 269.524 1794.3 268.505 Q1795.92 267.463 1795.92 265.589 Q1795.92 263.852 1794.74 262.926 Q1793.58 262.001 1789.63 261.144 L1788.14 260.797 Q1784.19 259.964 1782.43 258.251 Q1780.67 256.514 1780.67 253.505 Q1780.67 249.848 1783.26 247.857 Q1785.85 245.866 1790.62 245.866 Q1792.98 245.866 1795.07 246.214 Q1797.15 246.561 1798.91 247.255 Z" fill="#000000" fill-rule="evenodd" fill-opacity="1" /><polyline clip-path="url(#clip420)" style="stroke:#e26f46; stroke-linecap:round; stroke-linejoin:round; stroke-width:4; stroke-opacity:1; fill:none" points="
  1502.75,306.977 1610.11,306.977 
  "/>
<path clip-path="url(#clip420)" d="M1644.51 288.239 L1644.51 291.78 L1640.44 291.78 Q1638.15 291.78 1637.24 292.706 Q1636.36 293.632 1636.36 296.04 L1636.36 298.331 L1643.38 298.331 L1643.38 301.642 L1636.36 301.642 L1636.36 324.257 L1632.08 324.257 L1632.08 301.642 L1628.01 301.642 L1628.01 298.331 L1632.08 298.331 L1632.08 296.526 Q1632.08 292.197 1634.09 290.23 Q1636.11 288.239 1640.48 288.239 L1644.51 288.239 Z" fill="#000000" fill-rule="evenodd" fill-opacity="1" /><path clip-path="url(#clip420)" d="M1659.86 311.225 Q1654.7 311.225 1652.71 312.405 Q1650.71 313.586 1650.71 316.433 Q1650.71 318.702 1652.2 320.044 Q1653.7 321.364 1656.27 321.364 Q1659.81 321.364 1661.94 318.864 Q1664.09 316.341 1664.09 312.174 L1664.09 311.225 L1659.86 311.225 M1668.35 309.466 L1668.35 324.257 L1664.09 324.257 L1664.09 320.322 Q1662.64 322.683 1660.46 323.817 Q1658.28 324.928 1655.14 324.928 Q1651.15 324.928 1648.79 322.706 Q1646.46 320.461 1646.46 316.711 Q1646.46 312.336 1649.37 310.114 Q1652.31 307.892 1658.12 307.892 L1664.09 307.892 L1664.09 307.475 Q1664.09 304.535 1662.15 302.938 Q1660.23 301.317 1656.73 301.317 Q1654.51 301.317 1652.4 301.85 Q1650.3 302.382 1648.35 303.447 L1648.35 299.512 Q1650.69 298.609 1652.89 298.169 Q1655.09 297.706 1657.17 297.706 Q1662.8 297.706 1665.58 300.623 Q1668.35 303.54 1668.35 309.466 Z" fill="#000000" fill-rule="evenodd" fill-opacity="1" /><path clip-path="url(#clip420)" d="M1695.78 299.327 L1695.78 303.308 Q1693.98 302.313 1692.15 301.827 Q1690.34 301.317 1688.49 301.317 Q1684.35 301.317 1682.06 303.956 Q1679.77 306.572 1679.77 311.317 Q1679.77 316.063 1682.06 318.702 Q1684.35 321.317 1688.49 321.317 Q1690.34 321.317 1692.15 320.831 Q1693.98 320.322 1695.78 319.327 L1695.78 323.262 Q1694 324.095 1692.08 324.512 Q1690.18 324.928 1688.03 324.928 Q1682.17 324.928 1678.72 321.248 Q1675.27 317.567 1675.27 311.317 Q1675.27 304.975 1678.75 301.341 Q1682.24 297.706 1688.31 297.706 Q1690.27 297.706 1692.15 298.123 Q1694.02 298.517 1695.78 299.327 Z" fill="#000000" fill-rule="evenodd" fill-opacity="1" /><path clip-path="url(#clip420)" d="M1725.37 310.229 L1725.37 312.313 L1705.78 312.313 Q1706.06 316.711 1708.42 319.026 Q1710.81 321.317 1715.04 321.317 Q1717.5 321.317 1719.79 320.716 Q1722.1 320.114 1724.37 318.91 L1724.37 322.938 Q1722.08 323.91 1719.67 324.419 Q1717.27 324.928 1714.79 324.928 Q1708.58 324.928 1704.95 321.317 Q1701.34 317.706 1701.34 311.549 Q1701.34 305.183 1704.77 301.456 Q1708.21 297.706 1714.05 297.706 Q1719.28 297.706 1722.31 301.086 Q1725.37 304.442 1725.37 310.229 M1721.11 308.979 Q1721.06 305.484 1719.14 303.401 Q1717.24 301.317 1714.09 301.317 Q1710.53 301.317 1708.38 303.331 Q1706.25 305.345 1705.92 309.003 L1721.11 308.979 Z" fill="#000000" fill-rule="evenodd" fill-opacity="1" /><path clip-path="url(#clip420)" d="M1748.89 299.095 L1748.89 303.123 Q1747.08 302.197 1745.14 301.734 Q1743.19 301.271 1741.11 301.271 Q1737.94 301.271 1736.34 302.243 Q1734.77 303.216 1734.77 305.16 Q1734.77 306.642 1735.9 307.498 Q1737.03 308.331 1740.46 309.095 L1741.92 309.419 Q1746.45 310.392 1748.35 312.174 Q1750.27 313.933 1750.27 317.104 Q1750.27 320.716 1747.4 322.822 Q1744.56 324.928 1739.56 324.928 Q1737.47 324.928 1735.2 324.512 Q1732.96 324.118 1730.46 323.308 L1730.46 318.91 Q1732.82 320.137 1735.11 320.762 Q1737.4 321.364 1739.65 321.364 Q1742.66 321.364 1744.28 320.345 Q1745.9 319.303 1745.9 317.429 Q1745.9 315.692 1744.72 314.766 Q1743.56 313.841 1739.6 312.984 L1738.12 312.637 Q1734.16 311.804 1732.4 310.091 Q1730.64 308.354 1730.64 305.345 Q1730.64 301.688 1733.24 299.697 Q1735.83 297.706 1740.6 297.706 Q1742.96 297.706 1745.04 298.054 Q1747.13 298.401 1748.89 299.095 Z" fill="#000000" fill-rule="evenodd" fill-opacity="1" /><path clip-path="url(#clip420)" d="
M2279.36 1393.02 L3889.76 1393.02 L3889.76 162.272 L2279.36 162.272  Z
  " fill="#ffffff" fill-rule="evenodd" fill-opacity="1"/>
<defs>
  <clipPath id="clip423">
    <rect x="2279" y="162" width="1611" height="1232"/>
  </clipPath>
</defs>
<polyline clip-path="url(#clip423)" style="stroke:#000000; stroke-linecap:round; stroke-linejoin:round; stroke-width:2; stroke-opacity:0.1; fill:none" points="
  2319.29,1393.02 2319.29,162.272 
  "/>
<polyline clip-path="url(#clip423)" style="stroke:#000000; stroke-linecap:round; stroke-linejoin:round; stroke-width:2; stroke-opacity:0.1; fill:none" points="
  2773.67,1393.02 2773.67,162.272 
  "/>
<polyline clip-path="url(#clip423)" style="stroke:#000000; stroke-linecap:round; stroke-linejoin:round; stroke-width:2; stroke-opacity:0.1; fill:none" points="
  3228.05,1393.02 3228.05,162.272 
  "/>
<polyline clip-path="url(#clip423)" style="stroke:#000000; stroke-linecap:round; stroke-linejoin:round; stroke-width:2; stroke-opacity:0.1; fill:none" points="
  3682.43,1393.02 3682.43,162.272 
  "/>
<polyline clip-path="url(#clip420)" style="stroke:#000000; stroke-linecap:round; stroke-linejoin:round; stroke-width:4; stroke-opacity:1; fill:none" points="
  2279.36,1393.02 3889.76,1393.02 
  "/>
<polyline clip-path="url(#clip420)" style="stroke:#000000; stroke-linecap:round; stroke-linejoin:round; stroke-width:4; stroke-opacity:1; fill:none" points="
  2319.29,1393.02 2319.29,1374.12 
  "/>
<polyline clip-path="url(#clip420)" style="stroke:#000000; stroke-linecap:round; stroke-linejoin:round; stroke-width:4; stroke-opacity:1; fill:none" points="
  2773.67,1393.02 2773.67,1374.12 
  "/>
<polyline clip-path="url(#clip420)" style="stroke:#000000; stroke-linecap:round; stroke-linejoin:round; stroke-width:4; stroke-opacity:1; fill:none" points="
  3228.05,1393.02 3228.05,1374.12 
  "/>
<polyline clip-path="url(#clip420)" style="stroke:#000000; stroke-linecap:round; stroke-linejoin:round; stroke-width:4; stroke-opacity:1; fill:none" points="
  3682.43,1393.02 3682.43,1374.12 
  "/>
<path clip-path="url(#clip420)" d="M2304.66 1451.81 Q2301.33 1451.81 2299.41 1453.59 Q2297.51 1455.37 2297.51 1458.5 Q2297.51 1461.62 2299.41 1463.4 Q2301.33 1465.19 2304.66 1465.19 Q2308 1465.19 2309.92 1463.4 Q2311.84 1461.6 2311.84 1458.5 Q2311.84 1455.37 2309.92 1453.59 Q2308.02 1451.81 2304.66 1451.81 M2299.99 1449.82 Q2296.98 1449.08 2295.29 1447.02 Q2293.62 1444.96 2293.62 1441.99 Q2293.62 1437.85 2296.56 1435.44 Q2299.53 1433.03 2304.66 1433.03 Q2309.83 1433.03 2312.77 1435.44 Q2315.71 1437.85 2315.71 1441.99 Q2315.71 1444.96 2314.02 1447.02 Q2312.35 1449.08 2309.36 1449.82 Q2312.74 1450.6 2314.62 1452.9 Q2316.52 1455.19 2316.52 1458.5 Q2316.52 1463.52 2313.44 1466.21 Q2310.38 1468.89 2304.66 1468.89 Q2298.95 1468.89 2295.87 1466.21 Q2292.81 1463.52 2292.81 1458.5 Q2292.81 1455.19 2294.71 1452.9 Q2296.61 1450.6 2299.99 1449.82 M2298.28 1442.43 Q2298.28 1445.12 2299.94 1446.62 Q2301.63 1448.13 2304.66 1448.13 Q2307.67 1448.13 2309.36 1446.62 Q2311.08 1445.12 2311.08 1442.43 Q2311.08 1439.75 2309.36 1438.24 Q2307.67 1436.74 2304.66 1436.74 Q2301.63 1436.74 2299.94 1438.24 Q2298.28 1439.75 2298.28 1442.43 Z" fill="#000000" fill-rule="evenodd" fill-opacity="1" /><path clip-path="url(#clip420)" d="M2324.87 1433.66 L2343.23 1433.66 L2343.23 1437.59 L2329.16 1437.59 L2329.16 1446.07 Q2330.17 1445.72 2331.19 1445.56 Q2332.21 1445.37 2333.23 1445.37 Q2339.02 1445.37 2342.4 1448.54 Q2345.78 1451.72 2345.78 1457.13 Q2345.78 1462.71 2342.3 1465.81 Q2338.83 1468.89 2332.51 1468.89 Q2330.34 1468.89 2328.07 1468.52 Q2325.82 1468.15 2323.41 1467.41 L2323.41 1462.71 Q2325.5 1463.84 2327.72 1464.4 Q2329.94 1464.96 2332.42 1464.96 Q2336.42 1464.96 2338.76 1462.85 Q2341.1 1460.74 2341.1 1457.13 Q2341.1 1453.52 2338.76 1451.41 Q2336.42 1449.31 2332.42 1449.31 Q2330.54 1449.31 2328.67 1449.72 Q2326.82 1450.14 2324.87 1451.02 L2324.87 1433.66 Z" fill="#000000" fill-rule="evenodd" fill-opacity="1" /><path clip-path="url(#clip420)" d="M2748.8 1467.5 L2748.8 1463.24 Q2750.56 1464.08 2752.36 1464.52 Q2754.17 1464.96 2755.91 1464.96 Q2760.54 1464.96 2762.97 1461.85 Q2765.42 1458.73 2765.77 1452.39 Q2764.42 1454.38 2762.36 1455.44 Q2760.3 1456.51 2757.8 1456.51 Q2752.62 1456.51 2749.59 1453.38 Q2746.58 1450.23 2746.58 1444.79 Q2746.58 1439.47 2749.73 1436.25 Q2752.87 1433.03 2758.11 1433.03 Q2764.1 1433.03 2767.25 1437.64 Q2770.42 1442.22 2770.42 1450.97 Q2770.42 1459.15 2766.53 1464.03 Q2762.67 1468.89 2756.11 1468.89 Q2754.36 1468.89 2752.55 1468.54 Q2750.74 1468.2 2748.8 1467.5 M2758.11 1452.85 Q2761.25 1452.85 2763.08 1450.7 Q2764.93 1448.54 2764.93 1444.79 Q2764.93 1441.07 2763.08 1438.91 Q2761.25 1436.74 2758.11 1436.74 Q2754.96 1436.74 2753.11 1438.91 Q2751.28 1441.07 2751.28 1444.79 Q2751.28 1448.54 2753.11 1450.7 Q2754.96 1452.85 2758.11 1452.85 Z" fill="#000000" fill-rule="evenodd" fill-opacity="1" /><path clip-path="url(#clip420)" d="M2788.82 1436.74 Q2785.21 1436.74 2783.38 1440.3 Q2781.58 1443.84 2781.58 1450.97 Q2781.58 1458.08 2783.38 1461.65 Q2785.21 1465.19 2788.82 1465.19 Q2792.46 1465.19 2794.26 1461.65 Q2796.09 1458.08 2796.09 1450.97 Q2796.09 1443.84 2794.26 1440.3 Q2792.46 1436.74 2788.82 1436.74 M2788.82 1433.03 Q2794.63 1433.03 2797.69 1437.64 Q2800.77 1442.22 2800.77 1450.97 Q2800.77 1459.7 2797.69 1464.31 Q2794.63 1468.89 2788.82 1468.89 Q2783.01 1468.89 2779.93 1464.31 Q2776.88 1459.7 2776.88 1450.97 Q2776.88 1442.22 2779.93 1437.64 Q2783.01 1433.03 2788.82 1433.03 Z" fill="#000000" fill-rule="evenodd" fill-opacity="1" /><path clip-path="url(#clip420)" d="M3203.68 1467.5 L3203.68 1463.24 Q3205.43 1464.08 3207.24 1464.52 Q3209.05 1464.96 3210.78 1464.96 Q3215.41 1464.96 3217.84 1461.85 Q3220.3 1458.73 3220.64 1452.39 Q3219.3 1454.38 3217.24 1455.44 Q3215.18 1456.51 3212.68 1456.51 Q3207.49 1456.51 3204.46 1453.38 Q3201.45 1450.23 3201.45 1444.79 Q3201.45 1439.47 3204.6 1436.25 Q3207.75 1433.03 3212.98 1433.03 Q3218.98 1433.03 3222.12 1437.64 Q3225.3 1442.22 3225.3 1450.97 Q3225.3 1459.15 3221.41 1464.03 Q3217.54 1468.89 3210.99 1468.89 Q3209.23 1468.89 3207.43 1468.54 Q3205.62 1468.2 3203.68 1467.5 M3212.98 1452.85 Q3216.13 1452.85 3217.96 1450.7 Q3219.81 1448.54 3219.81 1444.79 Q3219.81 1441.07 3217.96 1438.91 Q3216.13 1436.74 3212.98 1436.74 Q3209.83 1436.74 3207.98 1438.91 Q3206.15 1441.07 3206.15 1444.79 Q3206.15 1448.54 3207.98 1450.7 Q3209.83 1452.85 3212.98 1452.85 Z" fill="#000000" fill-rule="evenodd" fill-opacity="1" /><path clip-path="url(#clip420)" d="M3233.74 1433.66 L3252.1 1433.66 L3252.1 1437.59 L3238.03 1437.59 L3238.03 1446.07 Q3239.05 1445.72 3240.06 1445.56 Q3241.08 1445.37 3242.1 1445.37 Q3247.89 1445.37 3251.27 1448.54 Q3254.65 1451.72 3254.65 1457.13 Q3254.65 1462.71 3251.17 1465.81 Q3247.7 1468.89 3241.38 1468.89 Q3239.21 1468.89 3236.94 1468.52 Q3234.69 1468.15 3232.29 1467.41 L3232.29 1462.71 Q3234.37 1463.84 3236.59 1464.4 Q3238.81 1464.96 3241.29 1464.96 Q3245.3 1464.96 3247.63 1462.85 Q3249.97 1460.74 3249.97 1457.13 Q3249.97 1453.52 3247.63 1451.41 Q3245.3 1449.31 3241.29 1449.31 Q3239.42 1449.31 3237.54 1449.72 Q3235.69 1450.14 3233.74 1451.02 L3233.74 1433.66 Z" fill="#000000" fill-rule="evenodd" fill-opacity="1" /><path clip-path="url(#clip420)" d="M3642.03 1464.28 L3649.67 1464.28 L3649.67 1437.92 L3641.36 1439.59 L3641.36 1435.33 L3649.63 1433.66 L3654.3 1433.66 L3654.3 1464.28 L3661.94 1464.28 L3661.94 1468.22 L3642.03 1468.22 L3642.03 1464.28 Z" fill="#000000" fill-rule="evenodd" fill-opacity="1" /><path clip-path="url(#clip420)" d="M3681.39 1436.74 Q3677.78 1436.74 3675.95 1440.3 Q3674.14 1443.84 3674.14 1450.97 Q3674.14 1458.08 3675.95 1461.65 Q3677.78 1465.19 3681.39 1465.19 Q3685.02 1465.19 3686.83 1461.65 Q3688.65 1458.08 3688.65 1450.97 Q3688.65 1443.84 3686.83 1440.3 Q3685.02 1436.74 3681.39 1436.74 M3681.39 1433.03 Q3687.2 1433.03 3690.25 1437.64 Q3693.33 1442.22 3693.33 1450.97 Q3693.33 1459.7 3690.25 1464.31 Q3687.2 1468.89 3681.39 1468.89 Q3675.58 1468.89 3672.5 1464.31 Q3669.44 1459.7 3669.44 1450.97 Q3669.44 1442.22 3672.5 1437.64 Q3675.58 1433.03 3681.39 1433.03 Z" fill="#000000" fill-rule="evenodd" fill-opacity="1" /><path clip-path="url(#clip420)" d="M3711.55 1436.74 Q3707.94 1436.74 3706.11 1440.3 Q3704.3 1443.84 3704.3 1450.97 Q3704.3 1458.08 3706.11 1461.65 Q3707.94 1465.19 3711.55 1465.19 Q3715.18 1465.19 3716.99 1461.65 Q3718.82 1458.08 3718.82 1450.97 Q3718.82 1443.84 3716.99 1440.3 Q3715.18 1436.74 3711.55 1436.74 M3711.55 1433.03 Q3717.36 1433.03 3720.41 1437.64 Q3723.49 1442.22 3723.49 1450.97 Q3723.49 1459.7 3720.41 1464.31 Q3717.36 1468.89 3711.55 1468.89 Q3705.74 1468.89 3702.66 1464.31 Q3699.6 1459.7 3699.6 1450.97 Q3699.6 1442.22 3702.66 1437.64 Q3705.74 1433.03 3711.55 1433.03 Z" fill="#000000" fill-rule="evenodd" fill-opacity="1" /><path clip-path="url(#clip420)" d="M2982.7 1556.54 L2982.7 1575.44 L2976.81 1575.44 L2976.81 1526.24 L2982.7 1526.24 L2982.7 1531.65 Q2984.54 1528.46 2987.34 1526.94 Q2990.18 1525.38 2994.09 1525.38 Q3000.58 1525.38 3004.63 1530.53 Q3008.7 1535.69 3008.7 1544.09 Q3008.7 1552.49 3004.63 1557.65 Q3000.58 1562.81 2994.09 1562.81 Q2990.18 1562.81 2987.34 1561.28 Q2984.54 1559.72 2982.7 1556.54 M3002.62 1544.09 Q3002.62 1537.63 2999.95 1533.97 Q2997.31 1530.28 2992.66 1530.28 Q2988.01 1530.28 2985.34 1533.97 Q2982.7 1537.63 2982.7 1544.09 Q2982.7 1550.55 2985.34 1554.24 Q2988.01 1557.91 2992.66 1557.91 Q2997.31 1557.91 2999.95 1554.24 Q3002.62 1550.55 3002.62 1544.09 Z" fill="#000000" fill-rule="evenodd" fill-opacity="1" /><path clip-path="url(#clip420)" d="M3053.2 1512.42 Q3048.93 1519.74 3046.86 1526.9 Q3044.79 1534.07 3044.79 1541.42 Q3044.79 1548.77 3046.86 1556 Q3048.96 1563.19 3053.2 1570.48 L3048.1 1570.48 Q3043.33 1563 3040.94 1555.77 Q3038.59 1548.55 3038.59 1541.42 Q3038.59 1534.32 3040.94 1527.13 Q3043.3 1519.93 3048.1 1512.42 L3053.2 1512.42 Z" fill="#000000" fill-rule="evenodd" fill-opacity="1" /><path clip-path="url(#clip420)" d="M3064.34 1512.36 L3070.23 1512.36 L3070.23 1541.61 L3087.7 1526.24 L3095.18 1526.24 L3076.27 1542.91 L3095.97 1561.88 L3088.34 1561.88 L3070.23 1544.47 L3070.23 1561.88 L3064.34 1561.88 L3064.34 1512.36 Z" fill="#000000" fill-rule="evenodd" fill-opacity="1" /><path clip-path="url(#clip420)" d="M3108.99 1519.65 L3108.99 1537.5 L3117.08 1537.5 Q3121.56 1537.5 3124.02 1535.18 Q3126.47 1532.86 3126.47 1528.56 Q3126.47 1524.29 3124.02 1521.97 Q3121.56 1519.65 3117.08 1519.65 L3108.99 1519.65 M3102.56 1514.36 L3117.08 1514.36 Q3125.07 1514.36 3129.14 1517.99 Q3133.25 1521.59 3133.25 1528.56 Q3133.25 1535.59 3129.14 1539.19 Q3125.07 1542.79 3117.08 1542.79 L3108.99 1542.79 L3108.99 1561.88 L3102.56 1561.88 L3102.56 1514.36 Z" fill="#000000" fill-rule="evenodd" fill-opacity="1" /><path clip-path="url(#clip420)" d="M3154.89 1543.96 Q3147.79 1543.96 3145.05 1545.59 Q3142.32 1547.21 3142.32 1551.13 Q3142.32 1554.24 3144.35 1556.09 Q3146.42 1557.91 3149.96 1557.91 Q3154.83 1557.91 3157.75 1554.47 Q3160.71 1551 3160.71 1545.27 L3160.71 1543.96 L3154.89 1543.96 M3166.57 1541.55 L3166.57 1561.88 L3160.71 1561.88 L3160.71 1556.47 Q3158.71 1559.72 3155.72 1561.28 Q3152.72 1562.81 3148.4 1562.81 Q3142.92 1562.81 3139.68 1559.75 Q3136.46 1556.66 3136.46 1551.51 Q3136.46 1545.49 3140.47 1542.44 Q3144.51 1539.38 3152.5 1539.38 L3160.71 1539.38 L3160.71 1538.81 Q3160.71 1534.77 3158.04 1532.57 Q3155.4 1530.34 3150.59 1530.34 Q3147.54 1530.34 3144.64 1531.07 Q3141.74 1531.81 3139.07 1533.27 L3139.07 1527.86 Q3142.29 1526.62 3145.31 1526.01 Q3148.33 1525.38 3151.2 1525.38 Q3158.93 1525.38 3162.75 1529.39 Q3166.57 1533.4 3166.57 1541.55 Z" fill="#000000" fill-rule="evenodd" fill-opacity="1" /><path clip-path="url(#clip420)" d="M3177.71 1512.42 L3182.8 1512.42 Q3187.58 1519.93 3189.93 1527.13 Q3192.32 1534.32 3192.32 1541.42 Q3192.32 1548.55 3189.93 1555.77 Q3187.58 1563 3182.8 1570.48 L3177.71 1570.48 Q3181.94 1563.19 3184.01 1556 Q3186.11 1548.77 3186.11 1541.42 Q3186.11 1534.07 3184.01 1526.9 Q3181.94 1519.74 3177.71 1512.42 Z" fill="#000000" fill-rule="evenodd" fill-opacity="1" /><polyline clip-path="url(#clip423)" style="stroke:#000000; stroke-linecap:round; stroke-linejoin:round; stroke-width:2; stroke-opacity:0.1; fill:none" points="
  2279.36,1358.19 3889.76,1358.19 
  "/>
<polyline clip-path="url(#clip423)" style="stroke:#000000; stroke-linecap:round; stroke-linejoin:round; stroke-width:2; stroke-opacity:0.1; fill:none" points="
  2279.36,971.16 3889.76,971.16 
  "/>
<polyline clip-path="url(#clip423)" style="stroke:#000000; stroke-linecap:round; stroke-linejoin:round; stroke-width:2; stroke-opacity:0.1; fill:none" points="
  2279.36,584.132 3889.76,584.132 
  "/>
<polyline clip-path="url(#clip423)" style="stroke:#000000; stroke-linecap:round; stroke-linejoin:round; stroke-width:2; stroke-opacity:0.1; fill:none" points="
  2279.36,197.105 3889.76,197.105 
  "/>
<polyline clip-path="url(#clip420)" style="stroke:#000000; stroke-linecap:round; stroke-linejoin:round; stroke-width:4; stroke-opacity:1; fill:none" points="
  2279.36,1393.02 2279.36,162.272 
  "/>
<polyline clip-path="url(#clip420)" style="stroke:#000000; stroke-linecap:round; stroke-linejoin:round; stroke-width:4; stroke-opacity:1; fill:none" points="
  2279.36,1358.19 2298.26,1358.19 
  "/>
<polyline clip-path="url(#clip420)" style="stroke:#000000; stroke-linecap:round; stroke-linejoin:round; stroke-width:4; stroke-opacity:1; fill:none" points="
  2279.36,971.16 2298.26,971.16 
  "/>
<polyline clip-path="url(#clip420)" style="stroke:#000000; stroke-linecap:round; stroke-linejoin:round; stroke-width:4; stroke-opacity:1; fill:none" points="
  2279.36,584.132 2298.26,584.132 
  "/>
<polyline clip-path="url(#clip420)" style="stroke:#000000; stroke-linecap:round; stroke-linejoin:round; stroke-width:4; stroke-opacity:1; fill:none" points="
  2279.36,197.105 2298.26,197.105 
  "/>
<path clip-path="url(#clip420)" d="M2162.19 1343.99 Q2158.58 1343.99 2156.75 1347.55 Q2154.94 1351.09 2154.94 1358.22 Q2154.94 1365.33 2156.75 1368.89 Q2158.58 1372.43 2162.19 1372.43 Q2165.82 1372.43 2167.63 1368.89 Q2169.46 1365.33 2169.46 1358.22 Q2169.46 1351.09 2167.63 1347.55 Q2165.82 1343.99 2162.19 1343.99 M2162.19 1340.28 Q2168 1340.28 2171.05 1344.89 Q2174.13 1349.47 2174.13 1358.22 Q2174.13 1366.95 2171.05 1371.56 Q2168 1376.14 2162.19 1376.14 Q2156.38 1376.14 2153.3 1371.56 Q2150.24 1366.95 2150.24 1358.22 Q2150.24 1349.47 2153.3 1344.89 Q2156.38 1340.28 2162.19 1340.28 Z" fill="#000000" fill-rule="evenodd" fill-opacity="1" /><path clip-path="url(#clip420)" d="M2182.35 1369.59 L2187.23 1369.59 L2187.23 1375.47 L2182.35 1375.47 L2182.35 1369.59 Z" fill="#000000" fill-rule="evenodd" fill-opacity="1" /><path clip-path="url(#clip420)" d="M2207.42 1343.99 Q2203.81 1343.99 2201.98 1347.55 Q2200.17 1351.09 2200.17 1358.22 Q2200.17 1365.33 2201.98 1368.89 Q2203.81 1372.43 2207.42 1372.43 Q2211.05 1372.43 2212.86 1368.89 Q2214.69 1365.33 2214.69 1358.22 Q2214.69 1351.09 2212.86 1347.55 Q2211.05 1343.99 2207.42 1343.99 M2207.42 1340.28 Q2213.23 1340.28 2216.29 1344.89 Q2219.36 1349.47 2219.36 1358.22 Q2219.36 1366.95 2216.29 1371.56 Q2213.23 1376.14 2207.42 1376.14 Q2201.61 1376.14 2198.53 1371.56 Q2195.48 1366.95 2195.48 1358.22 Q2195.48 1349.47 2198.53 1344.89 Q2201.61 1340.28 2207.42 1340.28 Z" fill="#000000" fill-rule="evenodd" fill-opacity="1" /><path clip-path="url(#clip420)" d="M2163.18 956.958 Q2159.57 956.958 2157.74 960.523 Q2155.94 964.065 2155.94 971.194 Q2155.94 978.301 2157.74 981.866 Q2159.57 985.407 2163.18 985.407 Q2166.82 985.407 2168.62 981.866 Q2170.45 978.301 2170.45 971.194 Q2170.45 964.065 2168.62 960.523 Q2166.82 956.958 2163.18 956.958 M2163.18 953.255 Q2168.99 953.255 2172.05 957.861 Q2175.13 962.445 2175.13 971.194 Q2175.13 979.921 2172.05 984.528 Q2168.99 989.111 2163.18 989.111 Q2157.37 989.111 2154.3 984.528 Q2151.24 979.921 2151.24 971.194 Q2151.24 962.445 2154.3 957.861 Q2157.37 953.255 2163.18 953.255 Z" fill="#000000" fill-rule="evenodd" fill-opacity="1" /><path clip-path="url(#clip420)" d="M2183.35 982.56 L2188.23 982.56 L2188.23 988.44 L2183.35 988.44 L2183.35 982.56 Z" fill="#000000" fill-rule="evenodd" fill-opacity="1" /><path clip-path="url(#clip420)" d="M2198.46 953.88 L2216.82 953.88 L2216.82 957.815 L2202.74 957.815 L2202.74 966.287 Q2203.76 965.94 2204.78 965.778 Q2205.8 965.593 2206.82 965.593 Q2212.61 965.593 2215.98 968.764 Q2219.36 971.935 2219.36 977.352 Q2219.36 982.931 2215.89 986.032 Q2212.42 989.111 2206.1 989.111 Q2203.92 989.111 2201.66 988.741 Q2199.41 988.37 2197 987.63 L2197 982.931 Q2199.09 984.065 2201.31 984.62 Q2203.53 985.176 2206.01 985.176 Q2210.01 985.176 2212.35 983.069 Q2214.69 980.963 2214.69 977.352 Q2214.69 973.741 2212.35 971.634 Q2210.01 969.528 2206.01 969.528 Q2204.13 969.528 2202.26 969.944 Q2200.41 970.361 2198.46 971.241 L2198.46 953.88 Z" fill="#000000" fill-rule="evenodd" fill-opacity="1" /><path clip-path="url(#clip420)" d="M2153 597.477 L2160.64 597.477 L2160.64 571.111 L2152.33 572.778 L2152.33 568.519 L2160.59 566.852 L2165.27 566.852 L2165.27 597.477 L2172.91 597.477 L2172.91 601.412 L2153 601.412 L2153 597.477 Z" fill="#000000" fill-rule="evenodd" fill-opacity="1" /><path clip-path="url(#clip420)" d="M2182.35 595.533 L2187.23 595.533 L2187.23 601.412 L2182.35 601.412 L2182.35 595.533 Z" fill="#000000" fill-rule="evenodd" fill-opacity="1" /><path clip-path="url(#clip420)" d="M2207.42 569.931 Q2203.81 569.931 2201.98 573.496 Q2200.17 577.037 2200.17 584.167 Q2200.17 591.273 2201.98 594.838 Q2203.81 598.38 2207.42 598.38 Q2211.05 598.38 2212.86 594.838 Q2214.69 591.273 2214.69 584.167 Q2214.69 577.037 2212.86 573.496 Q2211.05 569.931 2207.42 569.931 M2207.42 566.227 Q2213.23 566.227 2216.29 570.834 Q2219.36 575.417 2219.36 584.167 Q2219.36 592.894 2216.29 597.5 Q2213.23 602.084 2207.42 602.084 Q2201.61 602.084 2198.53 597.5 Q2195.48 592.894 2195.48 584.167 Q2195.48 575.417 2198.53 570.834 Q2201.61 566.227 2207.42 566.227 Z" fill="#000000" fill-rule="evenodd" fill-opacity="1" /><path clip-path="url(#clip420)" d="M2153.99 210.45 L2161.63 210.45 L2161.63 184.084 L2153.32 185.751 L2153.32 181.491 L2161.59 179.825 L2166.26 179.825 L2166.26 210.45 L2173.9 210.45 L2173.9 214.385 L2153.99 214.385 L2153.99 210.45 Z" fill="#000000" fill-rule="evenodd" fill-opacity="1" /><path clip-path="url(#clip420)" d="M2183.35 208.505 L2188.23 208.505 L2188.23 214.385 L2183.35 214.385 L2183.35 208.505 Z" fill="#000000" fill-rule="evenodd" fill-opacity="1" /><path clip-path="url(#clip420)" d="M2198.46 179.825 L2216.82 179.825 L2216.82 183.76 L2202.74 183.76 L2202.74 192.232 Q2203.76 191.885 2204.78 191.723 Q2205.8 191.538 2206.82 191.538 Q2212.61 191.538 2215.98 194.709 Q2219.36 197.88 2219.36 203.297 Q2219.36 208.875 2215.89 211.977 Q2212.42 215.056 2206.1 215.056 Q2203.92 215.056 2201.66 214.686 Q2199.41 214.315 2197 213.575 L2197 208.875 Q2199.09 210.01 2201.31 210.565 Q2203.53 211.121 2206.01 211.121 Q2210.01 211.121 2212.35 209.014 Q2214.69 206.908 2214.69 203.297 Q2214.69 199.686 2212.35 197.579 Q2210.01 195.473 2206.01 195.473 Q2204.13 195.473 2202.26 195.889 Q2200.41 196.306 2198.46 197.186 L2198.46 179.825 Z" fill="#000000" fill-rule="evenodd" fill-opacity="1" /><path clip-path="url(#clip420)" d="M2040.34 876.171 L2040.34 848.353 L2045.69 848.353 L2071.31 870.378 L2071.31 848.353 L2075.99 848.353 L2075.99 876.967 L2070.64 876.967 L2045.02 854.942 L2045.02 876.171 L2040.34 876.171 Z" fill="#000000" fill-rule="evenodd" fill-opacity="1" /><path clip-path="url(#clip420)" d="M2026.53 804.621 Q2033.85 808.886 2041.01 810.955 Q2048.17 813.023 2055.52 813.023 Q2062.87 813.023 2070.1 810.955 Q2077.29 808.854 2084.58 804.621 L2084.58 809.713 Q2077.1 814.488 2069.88 816.875 Q2062.65 819.23 2055.52 819.23 Q2048.42 819.23 2041.23 816.875 Q2034.04 814.519 2026.53 809.713 L2026.53 804.621 Z" fill="#000000" fill-rule="evenodd" fill-opacity="1" /><path clip-path="url(#clip420)" d="M2026.46 793.481 L2026.46 787.592 L2055.71 787.592 L2040.34 770.119 L2040.34 762.639 L2057.02 781.545 L2075.99 761.843 L2075.99 769.482 L2058.58 787.592 L2075.99 787.592 L2075.99 793.481 L2026.46 793.481 Z" fill="#000000" fill-rule="evenodd" fill-opacity="1" /><path clip-path="url(#clip420)" d="M2047.18 727.755 Q2043.24 725.559 2041.36 722.503 Q2039.48 719.448 2039.48 715.31 Q2039.48 709.74 2043.4 706.716 Q2047.28 703.692 2054.47 703.692 L2075.99 703.692 L2075.99 709.581 L2054.66 709.581 Q2049.54 709.581 2047.06 711.395 Q2044.57 713.209 2044.57 716.933 Q2044.57 721.485 2047.6 724.126 Q2050.62 726.768 2055.84 726.768 L2075.99 726.768 L2075.99 732.656 L2054.66 732.656 Q2049.51 732.656 2047.06 734.471 Q2044.57 736.285 2044.57 740.072 Q2044.57 744.56 2047.63 747.202 Q2050.65 749.844 2055.84 749.844 L2075.99 749.844 L2075.99 755.732 L2040.34 755.732 L2040.34 749.844 L2045.88 749.844 Q2042.6 747.839 2041.04 745.038 Q2039.48 742.237 2039.48 738.385 Q2039.48 734.502 2041.45 731.797 Q2043.43 729.06 2047.18 727.755 Z" fill="#000000" fill-rule="evenodd" fill-opacity="1" /><path clip-path="url(#clip420)" d="M2026.53 692.934 L2026.53 687.842 Q2034.04 683.067 2041.23 680.712 Q2048.42 678.325 2055.52 678.325 Q2062.65 678.325 2069.88 680.712 Q2077.1 683.067 2084.58 687.842 L2084.58 692.934 Q2077.29 688.701 2070.1 686.632 Q2062.87 684.532 2055.52 684.532 Q2048.17 684.532 2041.01 686.632 Q2033.85 688.701 2026.53 692.934 Z" fill="#000000" fill-rule="evenodd" fill-opacity="1" /><path clip-path="url(#clip420)" d="M2954.91 65.7705 L2954.91 89.8329 L2947.42 89.8329 L2947.42 27.2059 L2954.91 27.2059 L2954.91 34.0924 Q2957.26 30.0415 2960.83 28.0971 Q2964.43 26.1121 2969.42 26.1121 Q2977.68 26.1121 2982.83 32.6746 Q2988.01 39.2371 2988.01 49.9314 Q2988.01 60.6258 2982.83 67.1883 Q2977.68 73.7508 2969.42 73.7508 Q2964.43 73.7508 2960.83 71.8063 Q2957.26 69.8214 2954.91 65.7705 M2980.27 49.9314 Q2980.27 41.7081 2976.87 37.0496 Q2973.51 32.3505 2967.59 32.3505 Q2961.68 32.3505 2958.28 37.0496 Q2954.91 41.7081 2954.91 49.9314 Q2954.91 58.1548 2958.28 62.8538 Q2961.68 67.5124 2967.59 67.5124 Q2973.51 67.5124 2976.87 62.8538 Q2980.27 58.1548 2980.27 49.9314 Z" fill="#000000" fill-rule="evenodd" fill-opacity="1" /><path clip-path="url(#clip420)" d="M3044.64 9.62495 Q3039.21 18.942 3036.58 28.0566 Q3033.95 37.1711 3033.95 46.5287 Q3033.95 55.8863 3036.58 65.0818 Q3039.25 74.2369 3044.64 83.5134 L3038.16 83.5134 Q3032.08 73.9938 3029.05 64.7983 Q3026.05 55.6027 3026.05 46.5287 Q3026.05 37.4952 3029.05 28.3401 Q3032.04 19.1851 3038.16 9.62495 L3044.64 9.62495 Z" fill="#000000" fill-rule="evenodd" fill-opacity="1" /><path clip-path="url(#clip420)" d="M3058.82 9.54393 L3066.31 9.54393 L3066.31 46.7717 L3088.55 27.2059 L3098.07 27.2059 L3074.01 48.4326 L3099.09 72.576 L3089.36 72.576 L3066.31 50.4176 L3066.31 72.576 L3058.82 72.576 L3058.82 9.54393 Z" fill="#000000" fill-rule="evenodd" fill-opacity="1" /><path clip-path="url(#clip420)" d="M3115.65 18.8205 L3115.65 41.5461 L3125.94 41.5461 Q3131.66 41.5461 3134.77 38.5889 Q3137.89 35.6318 3137.89 30.163 Q3137.89 24.7348 3134.77 21.7777 Q3131.66 18.8205 3125.94 18.8205 L3115.65 18.8205 M3107.47 12.096 L3125.94 12.096 Q3136.11 12.096 3141.3 16.714 Q3146.52 21.2916 3146.52 30.163 Q3146.52 39.1155 3141.3 43.6931 Q3136.11 48.2706 3125.94 48.2706 L3115.65 48.2706 L3115.65 72.576 L3107.47 72.576 L3107.47 12.096 Z" fill="#000000" fill-rule="evenodd" fill-opacity="1" /><path clip-path="url(#clip420)" d="M3174.07 49.7694 Q3165.04 49.7694 3161.55 51.8354 Q3158.07 53.9013 3158.07 58.8839 Q3158.07 62.8538 3160.66 65.2034 Q3163.29 67.5124 3167.79 67.5124 Q3173.99 67.5124 3177.71 63.1374 Q3181.48 58.7219 3181.48 51.4303 L3181.48 49.7694 L3174.07 49.7694 M3188.94 46.6907 L3188.94 72.576 L3181.48 72.576 L3181.48 65.6895 Q3178.93 69.8214 3175.12 71.8063 Q3171.31 73.7508 3165.8 73.7508 Q3158.84 73.7508 3154.71 69.8619 Q3150.61 65.9325 3150.61 59.3701 Q3150.61 51.7138 3155.72 47.825 Q3160.86 43.9361 3171.03 43.9361 L3181.48 43.9361 L3181.48 43.2069 Q3181.48 38.0623 3178.08 35.2672 Q3174.72 32.4315 3168.6 32.4315 Q3164.71 32.4315 3161.02 33.3632 Q3157.34 34.295 3153.94 36.1584 L3153.94 29.2718 Q3158.03 27.692 3161.88 26.9223 Q3165.72 26.1121 3169.37 26.1121 Q3179.21 26.1121 3184.07 31.2163 Q3188.94 36.3204 3188.94 46.6907 Z" fill="#000000" fill-rule="evenodd" fill-opacity="1" /><path clip-path="url(#clip420)" d="M3203.11 9.62495 L3209.6 9.62495 Q3215.67 19.1851 3218.67 28.3401 Q3221.71 37.4952 3221.71 46.5287 Q3221.71 55.6027 3218.67 64.7983 Q3215.67 73.9938 3209.6 83.5134 L3203.11 83.5134 Q3208.5 74.2369 3211.13 65.0818 Q3213.81 55.8863 3213.81 46.5287 Q3213.81 37.1711 3211.13 28.0566 Q3208.5 18.942 3203.11 9.62495 Z" fill="#000000" fill-rule="evenodd" fill-opacity="1" /><polyline clip-path="url(#clip423)" style="stroke:#009af9; stroke-linecap:round; stroke-linejoin:round; stroke-width:4; stroke-opacity:1; fill:none" points="
  3817.15,1338.84 3763.25,1300.13 3709.58,1261.43 3656.13,1222.73 3602.9,1184.02 3549.9,1145.32 3497.12,1106.62 3444.57,1067.92 3392.23,1029.21 3340.12,990.511 
  3288.23,951.808 3236.56,913.106 3185.12,874.403 3133.93,835.7 3083,796.997 3032.31,758.295 2981.87,719.592 2931.69,680.889 2881.75,642.186 2832.06,603.484 
  2782.61,564.781 2733.41,526.078 2684.46,487.375 2635.74,448.673 2587.27,409.97 2539.04,371.267 2491.05,332.564 2443.29,293.862 2395.77,255.159 2348.49,216.456 
  
  "/>
<polyline clip-path="url(#clip423)" style="stroke:#e26f46; stroke-linecap:round; stroke-linejoin:round; stroke-width:4; stroke-opacity:1; fill:none" points="
  3844.19,1358.19 3790.17,1319.48 3736.39,1280.78 3682.82,1242.08 3629.49,1203.38 3576.37,1164.67 3523.48,1125.97 3470.82,1087.27 3418.37,1048.57 3366.15,1009.86 
  3314.15,971.16 3262.37,932.457 3210.81,893.754 3159.49,855.051 3108.43,816.349 3057.62,777.646 3007.06,738.943 2956.75,700.24 2906.69,661.538 2856.87,622.835 
  2807.31,584.132 2757.98,545.429 2708.9,506.727 2660.07,468.024 2611.48,429.321 2563.12,390.618 2515.01,351.916 2467.14,313.213 2419.5,274.51 2372.1,235.807 
  2324.94,197.105 
  "/>
<path clip-path="url(#clip420)" d="
M3484.86 358.817 L3836.08 358.817 L3836.08 203.297 L3484.86 203.297  Z
  " fill="#ffffff" fill-rule="evenodd" fill-opacity="1"/>
<polyline clip-path="url(#clip420)" style="stroke:#000000; stroke-linecap:round; stroke-linejoin:round; stroke-width:4; stroke-opacity:1; fill:none" points="
  3484.86,358.817 3836.08,358.817 3836.08,203.297 3484.86,203.297 3484.86,358.817 
  "/>
<polyline clip-path="url(#clip420)" style="stroke:#009af9; stroke-linecap:round; stroke-linejoin:round; stroke-width:4; stroke-opacity:1; fill:none" points="
  3502.75,255.137 3610.11,255.137 
  "/>
<path clip-path="url(#clip420)" d="M3648.52 247.487 L3648.52 251.468 Q3646.71 250.473 3644.88 249.987 Q3643.08 249.477 3641.22 249.477 Q3637.08 249.477 3634.79 252.116 Q3632.5 254.732 3632.5 259.477 Q3632.5 264.223 3634.79 266.862 Q3637.08 269.477 3641.22 269.477 Q3643.08 269.477 3644.88 268.991 Q3646.71 268.482 3648.52 267.487 L3648.52 271.422 Q3646.73 272.255 3644.81 272.672 Q3642.91 273.088 3640.76 273.088 Q3634.9 273.088 3631.46 269.408 Q3628.01 265.727 3628.01 259.477 Q3628.01 253.135 3631.48 249.501 Q3634.97 245.866 3641.04 245.866 Q3643.01 245.866 3644.88 246.283 Q3646.76 246.677 3648.52 247.487 Z" fill="#000000" fill-rule="evenodd" fill-opacity="1" /><path clip-path="url(#clip420)" d="M3678.1 258.389 L3678.1 260.473 L3658.52 260.473 Q3658.79 264.871 3661.15 267.186 Q3663.54 269.477 3667.77 269.477 Q3670.23 269.477 3672.52 268.876 Q3674.83 268.274 3677.1 267.07 L3677.1 271.098 Q3674.81 272.07 3672.4 272.579 Q3670 273.088 3667.52 273.088 Q3661.32 273.088 3657.68 269.477 Q3654.07 265.866 3654.07 259.709 Q3654.07 253.343 3657.5 249.616 Q3660.95 245.866 3666.78 245.866 Q3672.01 245.866 3675.04 249.246 Q3678.1 252.602 3678.1 258.389 M3673.84 257.139 Q3673.79 253.644 3671.87 251.561 Q3669.97 249.477 3666.83 249.477 Q3663.26 249.477 3661.11 251.491 Q3658.98 253.505 3658.65 257.163 L3673.84 257.139 Z" fill="#000000" fill-rule="evenodd" fill-opacity="1" /><path clip-path="url(#clip420)" d="M3706.64 256.769 L3706.64 272.417 L3702.38 272.417 L3702.38 256.908 Q3702.38 253.227 3700.95 251.399 Q3699.51 249.57 3696.64 249.57 Q3693.19 249.57 3691.2 251.769 Q3689.21 253.968 3689.21 257.764 L3689.21 272.417 L3684.93 272.417 L3684.93 246.491 L3689.21 246.491 L3689.21 250.519 Q3690.74 248.181 3692.8 247.024 Q3694.88 245.866 3697.59 245.866 Q3702.06 245.866 3704.35 248.644 Q3706.64 251.399 3706.64 256.769 Z" fill="#000000" fill-rule="evenodd" fill-opacity="1" /><path clip-path="url(#clip420)" d="M3719.35 239.13 L3719.35 246.491 L3728.12 246.491 L3728.12 249.802 L3719.35 249.802 L3719.35 263.876 Q3719.35 267.047 3720.2 267.95 Q3721.08 268.852 3723.75 268.852 L3728.12 268.852 L3728.12 272.417 L3723.75 272.417 Q3718.82 272.417 3716.94 270.588 Q3715.07 268.737 3715.07 263.876 L3715.07 249.802 L3711.94 249.802 L3711.94 246.491 L3715.07 246.491 L3715.07 239.13 L3719.35 239.13 Z" fill="#000000" fill-rule="evenodd" fill-opacity="1" /><path clip-path="url(#clip420)" d="M3755.9 258.389 L3755.9 260.473 L3736.32 260.473 Q3736.59 264.871 3738.95 267.186 Q3741.34 269.477 3745.58 269.477 Q3748.03 269.477 3750.32 268.876 Q3752.64 268.274 3754.9 267.07 L3754.9 271.098 Q3752.61 272.07 3750.2 272.579 Q3747.8 273.088 3745.32 273.088 Q3739.12 273.088 3735.48 269.477 Q3731.87 265.866 3731.87 259.709 Q3731.87 253.343 3735.3 249.616 Q3738.75 245.866 3744.58 245.866 Q3749.81 245.866 3752.84 249.246 Q3755.9 252.602 3755.9 258.389 M3751.64 257.139 Q3751.59 253.644 3749.67 251.561 Q3747.77 249.477 3744.63 249.477 Q3741.06 249.477 3738.91 251.491 Q3736.78 253.505 3736.45 257.163 L3751.64 257.139 Z" fill="#000000" fill-rule="evenodd" fill-opacity="1" /><path clip-path="url(#clip420)" d="M3777.91 250.473 Q3777.2 250.056 3776.34 249.871 Q3775.51 249.663 3774.49 249.663 Q3770.88 249.663 3768.93 252.024 Q3767.01 254.362 3767.01 258.76 L3767.01 272.417 L3762.73 272.417 L3762.73 246.491 L3767.01 246.491 L3767.01 250.519 Q3768.35 248.158 3770.51 247.024 Q3772.66 245.866 3775.74 245.866 Q3776.18 245.866 3776.71 245.936 Q3777.24 245.982 3777.89 246.098 L3777.91 250.473 Z" fill="#000000" fill-rule="evenodd" fill-opacity="1" /><path clip-path="url(#clip420)" d="M3798.91 247.255 L3798.91 251.283 Q3797.1 250.357 3795.16 249.894 Q3793.21 249.431 3791.13 249.431 Q3787.96 249.431 3786.36 250.403 Q3784.79 251.376 3784.79 253.32 Q3784.79 254.802 3785.92 255.658 Q3787.06 256.491 3790.48 257.255 L3791.94 257.579 Q3796.48 258.552 3798.38 260.334 Q3800.3 262.093 3800.3 265.264 Q3800.3 268.876 3797.43 270.982 Q3794.58 273.088 3789.58 273.088 Q3787.5 273.088 3785.23 272.672 Q3782.98 272.278 3780.48 271.468 L3780.48 267.07 Q3782.84 268.297 3785.14 268.922 Q3787.43 269.524 3789.67 269.524 Q3792.68 269.524 3794.3 268.505 Q3795.92 267.463 3795.92 265.589 Q3795.92 263.852 3794.74 262.926 Q3793.58 262.001 3789.63 261.144 L3788.14 260.797 Q3784.19 259.964 3782.43 258.251 Q3780.67 256.514 3780.67 253.505 Q3780.67 249.848 3783.26 247.857 Q3785.85 245.866 3790.62 245.866 Q3792.98 245.866 3795.07 246.214 Q3797.15 246.561 3798.91 247.255 Z" fill="#000000" fill-rule="evenodd" fill-opacity="1" /><polyline clip-path="url(#clip420)" style="stroke:#e26f46; stroke-linecap:round; stroke-linejoin:round; stroke-width:4; stroke-opacity:1; fill:none" points="
  3502.75,306.977 3610.11,306.977 
  "/>
<path clip-path="url(#clip420)" d="M3644.51 288.239 L3644.51 291.78 L3640.44 291.78 Q3638.15 291.78 3637.24 292.706 Q3636.36 293.632 3636.36 296.04 L3636.36 298.331 L3643.38 298.331 L3643.38 301.642 L3636.36 301.642 L3636.36 324.257 L3632.08 324.257 L3632.08 301.642 L3628.01 301.642 L3628.01 298.331 L3632.08 298.331 L3632.08 296.526 Q3632.08 292.197 3634.09 290.23 Q3636.11 288.239 3640.48 288.239 L3644.51 288.239 Z" fill="#000000" fill-rule="evenodd" fill-opacity="1" /><path clip-path="url(#clip420)" d="M3659.86 311.225 Q3654.7 311.225 3652.71 312.405 Q3650.71 313.586 3650.71 316.433 Q3650.71 318.702 3652.2 320.044 Q3653.7 321.364 3656.27 321.364 Q3659.81 321.364 3661.94 318.864 Q3664.09 316.341 3664.09 312.174 L3664.09 311.225 L3659.86 311.225 M3668.35 309.466 L3668.35 324.257 L3664.09 324.257 L3664.09 320.322 Q3662.64 322.683 3660.46 323.817 Q3658.28 324.928 3655.14 324.928 Q3651.15 324.928 3648.79 322.706 Q3646.46 320.461 3646.46 316.711 Q3646.46 312.336 3649.37 310.114 Q3652.31 307.892 3658.12 307.892 L3664.09 307.892 L3664.09 307.475 Q3664.09 304.535 3662.15 302.938 Q3660.23 301.317 3656.73 301.317 Q3654.51 301.317 3652.4 301.85 Q3650.3 302.382 3648.35 303.447 L3648.35 299.512 Q3650.69 298.609 3652.89 298.169 Q3655.09 297.706 3657.17 297.706 Q3662.8 297.706 3665.58 300.623 Q3668.35 303.54 3668.35 309.466 Z" fill="#000000" fill-rule="evenodd" fill-opacity="1" /><path clip-path="url(#clip420)" d="M3695.78 299.327 L3695.78 303.308 Q3693.98 302.313 3692.15 301.827 Q3690.34 301.317 3688.49 301.317 Q3684.35 301.317 3682.06 303.956 Q3679.77 306.572 3679.77 311.317 Q3679.77 316.063 3682.06 318.702 Q3684.35 321.317 3688.49 321.317 Q3690.34 321.317 3692.15 320.831 Q3693.98 320.322 3695.78 319.327 L3695.78 323.262 Q3694 324.095 3692.08 324.512 Q3690.18 324.928 3688.03 324.928 Q3682.17 324.928 3678.72 321.248 Q3675.27 317.567 3675.27 311.317 Q3675.27 304.975 3678.75 301.341 Q3682.24 297.706 3688.31 297.706 Q3690.27 297.706 3692.15 298.123 Q3694.02 298.517 3695.78 299.327 Z" fill="#000000" fill-rule="evenodd" fill-opacity="1" /><path clip-path="url(#clip420)" d="M3725.37 310.229 L3725.37 312.313 L3705.78 312.313 Q3706.06 316.711 3708.42 319.026 Q3710.81 321.317 3715.04 321.317 Q3717.5 321.317 3719.79 320.716 Q3722.1 320.114 3724.37 318.91 L3724.37 322.938 Q3722.08 323.91 3719.67 324.419 Q3717.27 324.928 3714.79 324.928 Q3708.58 324.928 3704.95 321.317 Q3701.34 317.706 3701.34 311.549 Q3701.34 305.183 3704.77 301.456 Q3708.21 297.706 3714.05 297.706 Q3719.28 297.706 3722.31 301.086 Q3725.37 304.442 3725.37 310.229 M3721.11 308.979 Q3721.06 305.484 3719.14 303.401 Q3717.24 301.317 3714.09 301.317 Q3710.53 301.317 3708.38 303.331 Q3706.25 305.345 3705.92 309.003 L3721.11 308.979 Z" fill="#000000" fill-rule="evenodd" fill-opacity="1" /><path clip-path="url(#clip420)" d="M3748.89 299.095 L3748.89 303.123 Q3747.08 302.197 3745.14 301.734 Q3743.19 301.271 3741.11 301.271 Q3737.94 301.271 3736.34 302.243 Q3734.77 303.216 3734.77 305.16 Q3734.77 306.642 3735.9 307.498 Q3737.03 308.331 3740.46 309.095 L3741.92 309.419 Q3746.45 310.392 3748.35 312.174 Q3750.27 313.933 3750.27 317.104 Q3750.27 320.716 3747.4 322.822 Q3744.56 324.928 3739.56 324.928 Q3737.47 324.928 3735.2 324.512 Q3732.96 324.118 3730.46 323.308 L3730.46 318.91 Q3732.82 320.137 3735.11 320.762 Q3737.4 321.364 3739.65 321.364 Q3742.66 321.364 3744.28 320.345 Q3745.9 319.303 3745.9 317.429 Q3745.9 315.692 3744.72 314.766 Q3743.56 313.841 3739.6 312.984 L3738.12 312.637 Q3734.16 311.804 3732.4 310.091 Q3730.64 308.354 3730.64 305.345 Q3730.64 301.688 3733.24 299.697 Q3735.83 297.706 3740.6 297.706 Q3742.96 297.706 3745.04 298.054 Q3747.13 298.401 3748.89 299.095 Z" fill="#000000" fill-rule="evenodd" fill-opacity="1" /></svg>
