<?xml version="1.0" encoding="utf-8"?>
<svg xmlns="http://www.w3.org/2000/svg" xmlns:xlink="http://www.w3.org/1999/xlink" width="600" height="400" viewBox="0 0 2400 1600">
<defs>
  <clipPath id="clip740">
    <rect x="0" y="0" width="2400" height="1600"/>
  </clipPath>
</defs>
<path clip-path="url(#clip740)" d="
M0 1600 L2400 1600 L2400 0 L0 0  Z
  " fill="#ffffff" fill-rule="evenodd" fill-opacity="1"/>
<defs>
  <clipPath id="clip741">
    <rect x="480" y="0" width="1681" height="1600"/>
  </clipPath>
</defs>
<path clip-path="url(#clip740)" d="
M238.437 1360.19 L1089.76 1360.19 L1089.76 186.464 L238.437 186.464  Z
  " fill="#ffffff" fill-rule="evenodd" fill-opacity="1"/>
<defs>
  <clipPath id="clip742">
    <rect x="238" y="186" width="852" height="1175"/>
  </clipPath>
</defs>
<polyline clip-path="url(#clip742)" style="stroke:#000000; stroke-linecap:butt; stroke-linejoin:round; stroke-width:2; stroke-opacity:0.1; fill:none" points="
  407.836,1360.19 407.836,186.464 
  "/>
<polyline clip-path="url(#clip742)" style="stroke:#000000; stroke-linecap:butt; stroke-linejoin:round; stroke-width:2; stroke-opacity:0.1; fill:none" points="
  613.407,1360.19 613.407,186.464 
  "/>
<polyline clip-path="url(#clip742)" style="stroke:#000000; stroke-linecap:butt; stroke-linejoin:round; stroke-width:2; stroke-opacity:0.1; fill:none" points="
  818.978,1360.19 818.978,186.464 
  "/>
<polyline clip-path="url(#clip742)" style="stroke:#000000; stroke-linecap:butt; stroke-linejoin:round; stroke-width:2; stroke-opacity:0.1; fill:none" points="
  1024.55,1360.19 1024.55,186.464 
  "/>
<polyline clip-path="url(#clip740)" style="stroke:#000000; stroke-linecap:butt; stroke-linejoin:round; stroke-width:4; stroke-opacity:1; fill:none" points="
  238.437,1360.19 1089.76,1360.19 
  "/>
<polyline clip-path="url(#clip740)" style="stroke:#000000; stroke-linecap:butt; stroke-linejoin:round; stroke-width:4; stroke-opacity:1; fill:none" points="
  407.836,1360.19 407.836,1341.29 
  "/>
<polyline clip-path="url(#clip740)" style="stroke:#000000; stroke-linecap:butt; stroke-linejoin:round; stroke-width:4; stroke-opacity:1; fill:none" points="
  613.407,1360.19 613.407,1341.29 
  "/>
<polyline clip-path="url(#clip740)" style="stroke:#000000; stroke-linecap:butt; stroke-linejoin:round; stroke-width:4; stroke-opacity:1; fill:none" points="
  818.978,1360.19 818.978,1341.29 
  "/>
<polyline clip-path="url(#clip740)" style="stroke:#000000; stroke-linecap:butt; stroke-linejoin:round; stroke-width:4; stroke-opacity:1; fill:none" points="
  1024.55,1360.19 1024.55,1341.29 
  "/>
<path clip-path="url(#clip740)" d="M385.267 1391.11 Q381.655 1391.11 379.827 1394.67 Q378.021 1398.21 378.021 1405.34 Q378.021 1412.45 379.827 1416.01 Q381.655 1419.56 385.267 1419.56 Q388.901 1419.56 390.706 1416.01 Q392.535 1412.45 392.535 1405.34 Q392.535 1398.21 390.706 1394.67 Q388.901 1391.11 385.267 1391.11 M385.267 1387.4 Q391.077 1387.4 394.132 1392.01 Q397.211 1396.59 397.211 1405.34 Q397.211 1414.07 394.132 1418.68 Q391.077 1423.26 385.267 1423.26 Q379.456 1423.26 376.378 1418.68 Q373.322 1414.07 373.322 1405.34 Q373.322 1396.59 376.378 1392.01 Q379.456 1387.4 385.267 1387.4 Z" fill="#000000" fill-rule="evenodd" fill-opacity="1" /><path clip-path="url(#clip740)" d="M405.429 1416.71 L410.313 1416.71 L410.313 1422.59 L405.429 1422.59 L405.429 1416.71 Z" fill="#000000" fill-rule="evenodd" fill-opacity="1" /><path clip-path="url(#clip740)" d="M430.498 1406.18 Q427.164 1406.18 425.243 1407.96 Q423.345 1409.74 423.345 1412.87 Q423.345 1415.99 425.243 1417.77 Q427.164 1419.56 430.498 1419.56 Q433.831 1419.56 435.752 1417.77 Q437.674 1415.97 437.674 1412.87 Q437.674 1409.74 435.752 1407.96 Q433.854 1406.18 430.498 1406.18 M425.822 1404.19 Q422.813 1403.44 421.123 1401.38 Q419.456 1399.32 419.456 1396.36 Q419.456 1392.22 422.396 1389.81 Q425.359 1387.4 430.498 1387.4 Q435.66 1387.4 438.6 1389.81 Q441.539 1392.22 441.539 1396.36 Q441.539 1399.32 439.85 1401.38 Q438.183 1403.44 435.197 1404.19 Q438.576 1404.97 440.451 1407.26 Q442.35 1409.56 442.35 1412.87 Q442.35 1417.89 439.271 1420.57 Q436.215 1423.26 430.498 1423.26 Q424.78 1423.26 421.702 1420.57 Q418.646 1417.89 418.646 1412.87 Q418.646 1409.56 420.544 1407.26 Q422.442 1404.97 425.822 1404.19 M424.109 1396.8 Q424.109 1399.49 425.776 1400.99 Q427.465 1402.5 430.498 1402.5 Q433.507 1402.5 435.197 1400.99 Q436.91 1399.49 436.91 1396.8 Q436.91 1394.12 435.197 1392.61 Q433.507 1391.11 430.498 1391.11 Q427.465 1391.11 425.776 1392.61 Q424.109 1394.12 424.109 1396.8 Z" fill="#000000" fill-rule="evenodd" fill-opacity="1" /><path clip-path="url(#clip740)" d="M590.884 1391.11 Q587.273 1391.11 585.444 1394.67 Q583.638 1398.21 583.638 1405.34 Q583.638 1412.45 585.444 1416.01 Q587.273 1419.56 590.884 1419.56 Q594.518 1419.56 596.324 1416.01 Q598.152 1412.45 598.152 1405.34 Q598.152 1398.21 596.324 1394.67 Q594.518 1391.11 590.884 1391.11 M590.884 1387.4 Q596.694 1387.4 599.749 1392.01 Q602.828 1396.59 602.828 1405.34 Q602.828 1414.07 599.749 1418.68 Q596.694 1423.26 590.884 1423.26 Q585.074 1423.26 581.995 1418.68 Q578.939 1414.07 578.939 1405.34 Q578.939 1396.59 581.995 1392.01 Q585.074 1387.4 590.884 1387.4 Z" fill="#000000" fill-rule="evenodd" fill-opacity="1" /><path clip-path="url(#clip740)" d="M611.046 1416.71 L615.93 1416.71 L615.93 1422.59 L611.046 1422.59 L611.046 1416.71 Z" fill="#000000" fill-rule="evenodd" fill-opacity="1" /><path clip-path="url(#clip740)" d="M626.254 1421.87 L626.254 1417.61 Q628.013 1418.44 629.819 1418.88 Q631.624 1419.32 633.36 1419.32 Q637.99 1419.32 640.42 1416.22 Q642.874 1413.1 643.221 1406.75 Q641.879 1408.75 639.819 1409.81 Q637.758 1410.87 635.258 1410.87 Q630.073 1410.87 627.041 1407.75 Q624.032 1404.6 624.032 1399.16 Q624.032 1393.84 627.18 1390.62 Q630.328 1387.4 635.559 1387.4 Q641.555 1387.4 644.703 1392.01 Q647.874 1396.59 647.874 1405.34 Q647.874 1413.51 643.985 1418.4 Q640.12 1423.26 633.569 1423.26 Q631.809 1423.26 630.004 1422.91 Q628.198 1422.56 626.254 1421.87 M635.559 1407.22 Q638.708 1407.22 640.536 1405.06 Q642.388 1402.91 642.388 1399.16 Q642.388 1395.44 640.536 1393.28 Q638.708 1391.11 635.559 1391.11 Q632.411 1391.11 630.559 1393.28 Q628.731 1395.44 628.731 1399.16 Q628.731 1402.91 630.559 1405.06 Q632.411 1407.22 635.559 1407.22 Z" fill="#000000" fill-rule="evenodd" fill-opacity="1" /><path clip-path="url(#clip740)" d="M786.131 1418.65 L793.769 1418.65 L793.769 1392.29 L785.459 1393.95 L785.459 1389.69 L793.723 1388.03 L798.399 1388.03 L798.399 1418.65 L806.038 1418.65 L806.038 1422.59 L786.131 1422.59 L786.131 1418.65 Z" fill="#000000" fill-rule="evenodd" fill-opacity="1" /><path clip-path="url(#clip740)" d="M815.482 1416.71 L820.366 1416.71 L820.366 1422.59 L815.482 1422.59 L815.482 1416.71 Z" fill="#000000" fill-rule="evenodd" fill-opacity="1" /><path clip-path="url(#clip740)" d="M840.552 1391.11 Q836.94 1391.11 835.112 1394.67 Q833.306 1398.21 833.306 1405.34 Q833.306 1412.45 835.112 1416.01 Q836.94 1419.56 840.552 1419.56 Q844.186 1419.56 845.991 1416.01 Q847.82 1412.45 847.82 1405.34 Q847.82 1398.21 845.991 1394.67 Q844.186 1391.11 840.552 1391.11 M840.552 1387.4 Q846.362 1387.4 849.417 1392.01 Q852.496 1396.59 852.496 1405.34 Q852.496 1414.07 849.417 1418.68 Q846.362 1423.26 840.552 1423.26 Q834.741 1423.26 831.663 1418.68 Q828.607 1414.07 828.607 1405.34 Q828.607 1396.59 831.663 1392.01 Q834.741 1387.4 840.552 1387.4 Z" fill="#000000" fill-rule="evenodd" fill-opacity="1" /><path clip-path="url(#clip740)" d="M992.315 1418.65 L999.954 1418.65 L999.954 1392.29 L991.644 1393.95 L991.644 1389.69 L999.907 1388.03 L1004.58 1388.03 L1004.58 1418.65 L1012.22 1418.65 L1012.22 1422.59 L992.315 1422.59 L992.315 1418.65 Z" fill="#000000" fill-rule="evenodd" fill-opacity="1" /><path clip-path="url(#clip740)" d="M1021.67 1416.71 L1026.55 1416.71 L1026.55 1422.59 L1021.67 1422.59 L1021.67 1416.71 Z" fill="#000000" fill-rule="evenodd" fill-opacity="1" /><path clip-path="url(#clip740)" d="M1037.55 1418.65 L1045.18 1418.65 L1045.18 1392.29 L1036.87 1393.95 L1036.87 1389.69 L1045.14 1388.03 L1049.81 1388.03 L1049.81 1418.65 L1057.45 1418.65 L1057.45 1422.59 L1037.55 1422.59 L1037.55 1418.65 Z" fill="#000000" fill-rule="evenodd" fill-opacity="1" /><path clip-path="url(#clip740)" d="M651.019 1475.77 Q652.961 1472.52 657.767 1469.66 Q659.645 1468.54 665.437 1468.54 Q671.93 1468.54 675.973 1473.7 Q680.047 1478.86 680.047 1487.26 Q680.047 1495.66 675.973 1500.82 Q671.93 1505.97 665.437 1505.97 Q661.522 1505.97 658.69 1504.45 Q655.889 1502.89 654.043 1499.7 L654.043 1518.61 L648.154 1518.61 L648.154 1487.58 Q648.154 1480.23 651.019 1475.77 M673.967 1487.26 Q673.967 1480.8 671.294 1477.14 Q668.652 1473.45 664.005 1473.45 Q659.358 1473.45 656.685 1477.14 Q654.043 1480.8 654.043 1487.26 Q654.043 1493.72 656.685 1497.41 Q659.358 1501.07 664.005 1501.07 Q668.652 1501.07 671.294 1497.41 Q673.967 1493.72 673.967 1487.26 Z" fill="#000000" fill-rule="evenodd" fill-opacity="1" /><polyline clip-path="url(#clip742)" style="stroke:#000000; stroke-linecap:butt; stroke-linejoin:round; stroke-width:2; stroke-opacity:0.1; fill:none" points="
  238.437,1326.97 1089.76,1326.97 
  "/>
<polyline clip-path="url(#clip742)" style="stroke:#000000; stroke-linecap:butt; stroke-linejoin:round; stroke-width:2; stroke-opacity:0.1; fill:none" points="
  238.437,1075.31 1089.76,1075.31 
  "/>
<polyline clip-path="url(#clip742)" style="stroke:#000000; stroke-linecap:butt; stroke-linejoin:round; stroke-width:2; stroke-opacity:0.1; fill:none" points="
  238.437,823.657 1089.76,823.657 
  "/>
<polyline clip-path="url(#clip742)" style="stroke:#000000; stroke-linecap:butt; stroke-linejoin:round; stroke-width:2; stroke-opacity:0.1; fill:none" points="
  238.437,572.001 1089.76,572.001 
  "/>
<polyline clip-path="url(#clip742)" style="stroke:#000000; stroke-linecap:butt; stroke-linejoin:round; stroke-width:2; stroke-opacity:0.1; fill:none" points="
  238.437,320.345 1089.76,320.345 
  "/>
<polyline clip-path="url(#clip740)" style="stroke:#000000; stroke-linecap:butt; stroke-linejoin:round; stroke-width:4; stroke-opacity:1; fill:none" points="
  238.437,1360.19 238.437,186.464 
  "/>
<polyline clip-path="url(#clip740)" style="stroke:#000000; stroke-linecap:butt; stroke-linejoin:round; stroke-width:4; stroke-opacity:1; fill:none" points="
  238.437,1326.97 257.335,1326.97 
  "/>
<polyline clip-path="url(#clip740)" style="stroke:#000000; stroke-linecap:butt; stroke-linejoin:round; stroke-width:4; stroke-opacity:1; fill:none" points="
  238.437,1075.31 257.335,1075.31 
  "/>
<polyline clip-path="url(#clip740)" style="stroke:#000000; stroke-linecap:butt; stroke-linejoin:round; stroke-width:4; stroke-opacity:1; fill:none" points="
  238.437,823.657 257.335,823.657 
  "/>
<polyline clip-path="url(#clip740)" style="stroke:#000000; stroke-linecap:butt; stroke-linejoin:round; stroke-width:4; stroke-opacity:1; fill:none" points="
  238.437,572.001 257.335,572.001 
  "/>
<polyline clip-path="url(#clip740)" style="stroke:#000000; stroke-linecap:butt; stroke-linejoin:round; stroke-width:4; stroke-opacity:1; fill:none" points="
  238.437,320.345 257.335,320.345 
  "/>
<path clip-path="url(#clip740)" d="M190.493 1312.77 Q186.882 1312.77 185.053 1316.33 Q183.248 1319.87 183.248 1327 Q183.248 1334.11 185.053 1337.68 Q186.882 1341.22 190.493 1341.22 Q194.127 1341.22 195.933 1337.68 Q197.761 1334.11 197.761 1327 Q197.761 1319.87 195.933 1316.33 Q194.127 1312.77 190.493 1312.77 M190.493 1309.06 Q196.303 1309.06 199.359 1313.67 Q202.437 1318.25 202.437 1327 Q202.437 1335.73 199.359 1340.34 Q196.303 1344.92 190.493 1344.92 Q184.683 1344.92 181.604 1340.34 Q178.549 1335.73 178.549 1327 Q178.549 1318.25 181.604 1313.67 Q184.683 1309.06 190.493 1309.06 Z" fill="#000000" fill-rule="evenodd" fill-opacity="1" /><path clip-path="url(#clip740)" d="M182.53 1088.66 L190.169 1088.66 L190.169 1062.29 L181.859 1063.96 L181.859 1059.7 L190.123 1058.03 L194.798 1058.03 L194.798 1088.66 L202.437 1088.66 L202.437 1092.59 L182.53 1092.59 L182.53 1088.66 Z" fill="#000000" fill-rule="evenodd" fill-opacity="1" /><path clip-path="url(#clip740)" d="M186.118 837.002 L202.437 837.002 L202.437 840.937 L180.493 840.937 L180.493 837.002 Q183.155 834.247 187.738 829.618 Q192.345 824.965 193.525 823.622 Q195.771 821.099 196.65 819.363 Q197.553 817.604 197.553 815.914 Q197.553 813.16 195.609 811.423 Q193.687 809.687 190.586 809.687 Q188.386 809.687 185.933 810.451 Q183.502 811.215 180.724 812.766 L180.724 808.044 Q183.549 806.91 186.002 806.331 Q188.456 805.752 190.493 805.752 Q195.863 805.752 199.058 808.437 Q202.252 811.123 202.252 815.613 Q202.252 817.743 201.442 819.664 Q200.655 821.562 198.548 824.155 Q197.97 824.826 194.868 828.044 Q191.766 831.238 186.118 837.002 Z" fill="#000000" fill-rule="evenodd" fill-opacity="1" /><path clip-path="url(#clip740)" d="M195.308 570.647 Q198.664 571.365 200.539 573.633 Q202.437 575.902 202.437 579.235 Q202.437 584.351 198.919 587.152 Q195.4 589.952 188.919 589.952 Q186.743 589.952 184.428 589.513 Q182.137 589.096 179.683 588.24 L179.683 583.726 Q181.627 584.86 183.942 585.439 Q186.257 586.017 188.78 586.017 Q193.178 586.017 195.47 584.281 Q197.785 582.545 197.785 579.235 Q197.785 576.179 195.632 574.466 Q193.502 572.73 189.683 572.73 L185.655 572.73 L185.655 568.888 L189.868 568.888 Q193.317 568.888 195.146 567.522 Q196.974 566.133 196.974 563.541 Q196.974 560.879 195.076 559.467 Q193.201 558.031 189.683 558.031 Q187.761 558.031 185.562 558.448 Q183.363 558.865 180.724 559.744 L180.724 555.578 Q183.387 554.837 185.701 554.467 Q188.039 554.096 190.099 554.096 Q195.423 554.096 198.525 556.527 Q201.627 558.934 201.627 563.054 Q201.627 565.925 199.984 567.916 Q198.34 569.883 195.308 570.647 Z" fill="#000000" fill-rule="evenodd" fill-opacity="1" /><path clip-path="url(#clip740)" d="M192.854 307.139 L181.049 325.588 L192.854 325.588 L192.854 307.139 M191.627 303.065 L197.507 303.065 L197.507 325.588 L202.437 325.588 L202.437 329.477 L197.507 329.477 L197.507 337.625 L192.854 337.625 L192.854 329.477 L177.252 329.477 L177.252 324.963 L191.627 303.065 Z" fill="#000000" fill-rule="evenodd" fill-opacity="1" /><path clip-path="url(#clip740)" d="M91.3483 871.851 L91.3483 844.033 L96.6955 844.033 L122.317 866.058 L122.317 844.033 L126.996 844.033 L126.996 872.647 L121.649 872.647 L96.0271 850.622 L96.0271 871.851 L91.3483 871.851 Z" fill="#000000" fill-rule="evenodd" fill-opacity="1" /><path clip-path="url(#clip740)" d="M77.5347 800.301 Q84.8553 804.566 92.0167 806.635 Q99.1781 808.703 106.531 808.703 Q113.883 808.703 121.108 806.635 Q128.301 804.534 135.59 800.301 L135.59 805.393 Q128.11 810.168 120.885 812.555 Q113.66 814.91 106.531 814.91 Q99.4328 814.91 92.2395 812.555 Q85.0463 810.199 77.5347 805.393 L77.5347 800.301 Z" fill="#000000" fill-rule="evenodd" fill-opacity="1" /><path clip-path="url(#clip740)" d="M77.4711 789.161 L77.4711 783.272 L106.722 783.272 L91.3483 765.799 L91.3483 758.319 L108.026 777.225 L126.996 757.523 L126.996 765.162 L109.586 783.272 L126.996 783.272 L126.996 789.161 L77.4711 789.161 Z" fill="#000000" fill-rule="evenodd" fill-opacity="1" /><path clip-path="url(#clip740)" d="M98.1915 723.435 Q94.2447 721.239 92.3668 718.183 Q90.489 715.128 90.489 710.99 Q90.489 705.42 94.4039 702.396 Q98.2869 699.372 105.48 699.372 L126.996 699.372 L126.996 705.261 L105.671 705.261 Q100.547 705.261 98.0641 707.075 Q95.5815 708.889 95.5815 712.613 Q95.5815 717.165 98.6052 719.806 Q101.629 722.448 106.849 722.448 L126.996 722.448 L126.996 728.336 L105.671 728.336 Q100.515 728.336 98.0641 730.151 Q95.5815 731.965 95.5815 735.752 Q95.5815 740.24 98.6371 742.882 Q101.661 745.524 106.849 745.524 L126.996 745.524 L126.996 751.412 L91.3483 751.412 L91.3483 745.524 L96.8865 745.524 Q93.6082 743.519 92.0486 740.718 Q90.489 737.917 90.489 734.065 Q90.489 730.182 92.4623 727.477 Q94.4357 724.74 98.1915 723.435 Z" fill="#000000" fill-rule="evenodd" fill-opacity="1" /><path clip-path="url(#clip740)" d="M77.5347 688.614 L77.5347 683.522 Q85.0463 678.747 92.2395 676.392 Q99.4328 674.005 106.531 674.005 Q113.66 674.005 120.885 676.392 Q128.11 678.747 135.59 683.522 L135.59 688.614 Q128.301 684.381 121.108 682.312 Q113.883 680.212 106.531 680.212 Q99.1781 680.212 92.0167 682.312 Q84.8553 684.381 77.5347 688.614 Z" fill="#000000" fill-rule="evenodd" fill-opacity="1" /><path clip-path="url(#clip740)" d="M647.451 35.3077 Q649.922 31.1758 656.039 27.5299 Q658.429 26.1121 665.802 26.1121 Q674.066 26.1121 679.21 32.6746 Q684.396 39.2371 684.396 49.9314 Q684.396 60.6258 679.21 67.1883 Q674.066 73.7508 665.802 73.7508 Q660.819 73.7508 657.214 71.8063 Q653.649 69.8214 651.3 65.7705 L651.3 89.8329 L643.806 89.8329 L643.806 50.3365 Q643.806 40.9789 647.451 35.3077 M676.658 49.9314 Q676.658 41.7081 673.256 37.0496 Q669.893 32.3505 663.979 32.3505 Q658.065 32.3505 654.662 37.0496 Q651.3 41.7081 651.3 49.9314 Q651.3 58.1548 654.662 62.8538 Q658.065 67.5124 663.979 67.5124 Q669.893 67.5124 673.256 62.8538 Q676.658 58.1548 676.658 49.9314 Z" fill="#000000" fill-rule="evenodd" fill-opacity="1" /><polyline clip-path="url(#clip742)" style="stroke:#009af9; stroke-linecap:butt; stroke-linejoin:round; stroke-width:4; stroke-opacity:1; fill:none" points="
  1061.01,1320.68 1051.7,1308.09 1042.42,1295.51 1033.16,1282.93 1023.93,1270.35 1014.71,1257.76 1005.52,1245.18 996.351,1232.6 987.205,1220.02 978.081,1207.43 
  968.98,1194.85 959.901,1182.27 950.845,1169.68 941.812,1157.1 932.801,1144.52 922.666,1131.94 912.127,1119.35 901.598,1106.77 891.13,1094.19 880.704,1081.6 
  870.322,1069.02 859.983,1056.44 849.687,1043.86 839.433,1031.27 829.221,1018.69 819.053,1006.11 808.95,993.525 798.843,980.942 788.801,968.359 778.776,955.777 
  768.83,943.194 758.921,930.611 749.05,918.028 739.219,905.445 729.428,892.863 719.697,880.28 709.974,867.697 700.301,855.114 690.649,842.531 681.086,829.949 
  671.538,817.366 662.032,804.783 652.567,792.2 643.142,779.617 633.757,767.035 624.413,754.452 615.107,741.869 605.842,729.286 596.616,716.703 587.449,704.121 
  578.292,691.538 569.178,678.955 560.106,666.372 551.077,653.789 542.09,641.207 533.146,628.624 524.244,616.041 515.344,603.458 506.508,590.875 497.71,578.293 
  488.95,565.71 480.228,553.127 471.544,540.544 462.898,527.961 454.289,515.379 445.719,502.796 437.186,490.213 428.69,477.63 420.231,465.047 411.81,452.465 
  403.426,439.882 395.078,427.299 386.768,414.716 378.494,402.133 370.256,389.551 362.056,376.968 353.892,364.385 345.764,351.802 337.672,339.219 329.617,326.637 
  321.598,314.054 313.583,301.471 305.632,288.888 297.716,276.305 289.836,263.723 281.991,251.14 274.181,238.557 266.406,225.974 
  "/>
<polyline clip-path="url(#clip742)" style="stroke:#e26f46; stroke-linecap:butt; stroke-linejoin:round; stroke-width:4; stroke-opacity:1; fill:none" points="
  1065.67,1326.97 1056.35,1314.39 1047.06,1301.8 1037.79,1289.22 1028.54,1276.64 1019.32,1264.06 1010.11,1251.47 1000.93,1238.89 991.775,1226.31 982.64,1213.72 
  973.528,1201.14 964.438,1188.56 955.371,1175.98 946.326,1163.39 937.304,1150.81 927.979,1138.23 917.413,1125.64 906.852,1113.06 896.358,1100.48 885.912,1087.9 
  875.508,1075.31 865.147,1062.73 854.829,1050.15 844.554,1037.56 834.322,1024.98 824.132,1012.4 813.984,999.816 803.872,987.234 793.817,974.651 783.796,962.068 
  773.799,949.485 763.871,936.902 753.981,924.32 744.13,911.737 734.318,899.154 724.548,886.571 714.829,873.988 705.132,861.406 695.481,848.823 685.874,836.24 
  676.307,823.657 666.78,811.074 657.295,798.492 647.85,785.909 638.445,773.326 629.08,760.743 619.755,748.16 610.47,735.578 601.224,722.995 592.044,710.412 
  582.866,697.829 573.73,685.246 564.637,672.664 555.586,660.081 546.578,647.498 537.613,634.915 528.69,622.332 519.777,609.75 510.921,597.167 502.104,584.584 
  493.325,572.001 484.584,559.418 475.881,546.836 467.216,534.253 458.589,521.67 449.999,509.087 441.448,496.504 432.933,483.922 424.456,471.339 416.016,458.756 
  407.613,446.173 399.247,433.59 390.918,421.008 382.626,408.425 374.37,395.842 366.151,383.259 357.969,370.676 349.823,358.094 341.714,345.511 333.64,332.928 
  325.603,320.345 317.572,307.762 309.603,295.18 301.669,282.597 293.772,270.014 285.909,257.431 278.081,244.848 270.289,232.266 262.531,219.683 
  "/>
<path clip-path="url(#clip740)" d="
M794.504 381.108 L1061.39 381.108 L1061.39 225.588 L794.504 225.588  Z
  " fill="#ffffff" fill-rule="evenodd" fill-opacity="1"/>
<polyline clip-path="url(#clip740)" style="stroke:#000000; stroke-linecap:butt; stroke-linejoin:round; stroke-width:4; stroke-opacity:1; fill:none" points="
  794.504,381.108 1061.39,381.108 1061.39,225.588 794.504,225.588 794.504,381.108 
  "/>
<polyline clip-path="url(#clip740)" style="stroke:#009af9; stroke-linecap:butt; stroke-linejoin:round; stroke-width:4; stroke-opacity:1; fill:none" points="
  803.963,277.428 860.718,277.428 
  "/>
<path clip-path="url(#clip740)" d="M890.686 269.778 L890.686 273.759 Q888.881 272.764 887.052 272.278 Q885.246 271.769 883.395 271.769 Q879.251 271.769 876.959 274.408 Q874.668 277.023 874.668 281.769 Q874.668 286.514 876.959 289.153 Q879.251 291.769 883.395 291.769 Q885.246 291.769 887.052 291.282 Q888.881 290.773 890.686 289.778 L890.686 293.713 Q888.904 294.546 886.983 294.963 Q885.084 295.38 882.932 295.38 Q877.075 295.38 873.626 291.699 Q870.177 288.019 870.177 281.769 Q870.177 275.426 873.649 271.792 Q877.145 268.158 883.209 268.158 Q885.177 268.158 887.052 268.574 Q888.927 268.968 890.686 269.778 Z" fill="#000000" fill-rule="evenodd" fill-opacity="1" /><path clip-path="url(#clip740)" d="M920.269 280.681 L920.269 282.764 L900.686 282.764 Q900.964 287.162 903.325 289.477 Q905.709 291.769 909.945 291.769 Q912.399 291.769 914.691 291.167 Q917.006 290.565 919.274 289.361 L919.274 293.389 Q916.982 294.361 914.575 294.87 Q912.168 295.38 909.691 295.38 Q903.487 295.38 899.853 291.769 Q896.242 288.157 896.242 282 Q896.242 275.634 899.668 271.908 Q903.117 268.158 908.95 268.158 Q914.182 268.158 917.214 271.537 Q920.269 274.894 920.269 280.681 M916.01 279.431 Q915.964 275.935 914.043 273.852 Q912.144 271.769 908.996 271.769 Q905.432 271.769 903.279 273.783 Q901.149 275.796 900.825 279.454 L916.01 279.431 Z" fill="#000000" fill-rule="evenodd" fill-opacity="1" /><path clip-path="url(#clip740)" d="M948.811 279.06 L948.811 294.708 L944.552 294.708 L944.552 279.199 Q944.552 275.519 943.117 273.69 Q941.681 271.861 938.811 271.861 Q935.362 271.861 933.371 274.06 Q931.38 276.259 931.38 280.056 L931.38 294.708 L927.098 294.708 L927.098 268.783 L931.38 268.783 L931.38 272.81 Q932.908 270.472 934.968 269.315 Q937.052 268.158 939.76 268.158 Q944.228 268.158 946.519 270.935 Q948.811 273.69 948.811 279.06 Z" fill="#000000" fill-rule="evenodd" fill-opacity="1" /><path clip-path="url(#clip740)" d="M961.519 261.422 L961.519 268.783 L970.292 268.783 L970.292 272.093 L961.519 272.093 L961.519 286.167 Q961.519 289.338 962.376 290.241 Q963.255 291.144 965.917 291.144 L970.292 291.144 L970.292 294.708 L965.917 294.708 Q960.987 294.708 959.112 292.88 Q957.237 291.028 957.237 286.167 L957.237 272.093 L954.112 272.093 L954.112 268.783 L957.237 268.783 L957.237 261.422 L961.519 261.422 Z" fill="#000000" fill-rule="evenodd" fill-opacity="1" /><path clip-path="url(#clip740)" d="M998.07 280.681 L998.07 282.764 L978.487 282.764 Q978.765 287.162 981.126 289.477 Q983.51 291.769 987.746 291.769 Q990.2 291.769 992.491 291.167 Q994.806 290.565 997.075 289.361 L997.075 293.389 Q994.783 294.361 992.376 294.87 Q989.968 295.38 987.491 295.38 Q981.288 295.38 977.653 291.769 Q974.042 288.157 974.042 282 Q974.042 275.634 977.468 271.908 Q980.917 268.158 986.751 268.158 Q991.982 268.158 995.014 271.537 Q998.07 274.894 998.07 280.681 M993.811 279.431 Q993.764 275.935 991.843 273.852 Q989.945 271.769 986.797 271.769 Q983.232 271.769 981.079 273.783 Q978.95 275.796 978.626 279.454 L993.811 279.431 Z" fill="#000000" fill-rule="evenodd" fill-opacity="1" /><path clip-path="url(#clip740)" d="M1020.08 272.764 Q1019.37 272.347 1018.51 272.162 Q1017.68 271.954 1016.66 271.954 Q1013.05 271.954 1011.1 274.315 Q1009.18 276.653 1009.18 281.051 L1009.18 294.708 L1004.9 294.708 L1004.9 268.783 L1009.18 268.783 L1009.18 272.81 Q1010.52 270.449 1012.68 269.315 Q1014.83 268.158 1017.91 268.158 Q1018.35 268.158 1018.88 268.227 Q1019.41 268.273 1020.06 268.389 L1020.08 272.764 Z" fill="#000000" fill-rule="evenodd" fill-opacity="1" /><path clip-path="url(#clip740)" d="M1041.08 269.546 L1041.08 273.574 Q1039.27 272.648 1037.33 272.185 Q1035.38 271.722 1033.3 271.722 Q1030.13 271.722 1028.53 272.695 Q1026.96 273.667 1026.96 275.611 Q1026.96 277.093 1028.09 277.949 Q1029.23 278.783 1032.65 279.546 L1034.11 279.87 Q1038.65 280.843 1040.55 282.625 Q1042.47 284.384 1042.47 287.556 Q1042.47 291.167 1039.6 293.273 Q1036.75 295.38 1031.75 295.38 Q1029.67 295.38 1027.4 294.963 Q1025.15 294.569 1022.65 293.759 L1022.65 289.361 Q1025.01 290.588 1027.31 291.213 Q1029.6 291.815 1031.84 291.815 Q1034.85 291.815 1036.47 290.796 Q1038.09 289.755 1038.09 287.88 Q1038.09 286.144 1036.91 285.218 Q1035.75 284.292 1031.8 283.435 L1030.32 283.088 Q1026.36 282.255 1024.6 280.542 Q1022.84 278.806 1022.84 275.796 Q1022.84 272.139 1025.43 270.148 Q1028.02 268.158 1032.79 268.158 Q1035.15 268.158 1037.24 268.505 Q1039.32 268.852 1041.08 269.546 Z" fill="#000000" fill-rule="evenodd" fill-opacity="1" /><polyline clip-path="url(#clip740)" style="stroke:#e26f46; stroke-linecap:butt; stroke-linejoin:round; stroke-width:4; stroke-opacity:1; fill:none" points="
  803.963,329.268 860.718,329.268 
  "/>
<path clip-path="url(#clip740)" d="M886.682 310.53 L886.682 314.072 L882.608 314.072 Q880.316 314.072 879.413 314.998 Q878.534 315.924 878.534 318.331 L878.534 320.623 L885.547 320.623 L885.547 323.933 L878.534 323.933 L878.534 346.548 L874.251 346.548 L874.251 323.933 L870.177 323.933 L870.177 320.623 L874.251 320.623 L874.251 318.817 Q874.251 314.488 876.265 312.521 Q878.279 310.53 882.654 310.53 L886.682 310.53 Z" fill="#000000" fill-rule="evenodd" fill-opacity="1" /><path clip-path="url(#clip740)" d="M902.029 333.516 Q896.867 333.516 894.876 334.697 Q892.885 335.877 892.885 338.724 Q892.885 340.993 894.367 342.335 Q895.871 343.655 898.441 343.655 Q901.983 343.655 904.112 341.155 Q906.265 338.632 906.265 334.465 L906.265 333.516 L902.029 333.516 M910.524 331.757 L910.524 346.548 L906.265 346.548 L906.265 342.613 Q904.807 344.974 902.631 346.109 Q900.455 347.22 897.307 347.22 Q893.325 347.22 890.964 344.997 Q888.626 342.752 888.626 339.002 Q888.626 334.627 891.543 332.405 Q894.483 330.183 900.293 330.183 L906.265 330.183 L906.265 329.766 Q906.265 326.826 904.32 325.229 Q902.399 323.609 898.904 323.609 Q896.682 323.609 894.575 324.141 Q892.469 324.673 890.524 325.738 L890.524 321.803 Q892.862 320.9 895.061 320.461 Q897.26 319.998 899.344 319.998 Q904.969 319.998 907.746 322.914 Q910.524 325.831 910.524 331.757 Z" fill="#000000" fill-rule="evenodd" fill-opacity="1" /><path clip-path="url(#clip740)" d="M937.955 321.618 L937.955 325.599 Q936.149 324.604 934.32 324.118 Q932.515 323.609 930.663 323.609 Q926.519 323.609 924.228 326.248 Q921.936 328.863 921.936 333.609 Q921.936 338.354 924.228 340.993 Q926.519 343.609 930.663 343.609 Q932.515 343.609 934.32 343.122 Q936.149 342.613 937.955 341.618 L937.955 345.553 Q936.172 346.386 934.251 346.803 Q932.353 347.22 930.2 347.22 Q924.343 347.22 920.894 343.539 Q917.445 339.859 917.445 333.609 Q917.445 327.266 920.918 323.632 Q924.413 319.998 930.478 319.998 Q932.445 319.998 934.32 320.414 Q936.195 320.808 937.955 321.618 Z" fill="#000000" fill-rule="evenodd" fill-opacity="1" /><path clip-path="url(#clip740)" d="M967.538 332.521 L967.538 334.604 L947.954 334.604 Q948.232 339.002 950.593 341.317 Q952.978 343.609 957.214 343.609 Q959.667 343.609 961.959 343.007 Q964.274 342.405 966.542 341.201 L966.542 345.229 Q964.251 346.201 961.843 346.71 Q959.436 347.22 956.959 347.22 Q950.755 347.22 947.121 343.609 Q943.51 339.997 943.51 333.84 Q943.51 327.474 946.936 323.748 Q950.385 319.998 956.218 319.998 Q961.45 319.998 964.482 323.377 Q967.538 326.734 967.538 332.521 M963.278 331.271 Q963.232 327.775 961.311 325.692 Q959.413 323.609 956.265 323.609 Q952.7 323.609 950.547 325.623 Q948.417 327.636 948.093 331.294 L963.278 331.271 Z" fill="#000000" fill-rule="evenodd" fill-opacity="1" /><path clip-path="url(#clip740)" d="M991.056 321.386 L991.056 325.414 Q989.251 324.488 987.306 324.025 Q985.362 323.562 983.278 323.562 Q980.107 323.562 978.51 324.535 Q976.936 325.507 976.936 327.451 Q976.936 328.933 978.07 329.789 Q979.204 330.623 982.63 331.386 L984.089 331.71 Q988.626 332.683 990.524 334.465 Q992.445 336.224 992.445 339.396 Q992.445 343.007 989.575 345.113 Q986.727 347.22 981.727 347.22 Q979.644 347.22 977.376 346.803 Q975.13 346.409 972.63 345.599 L972.63 341.201 Q974.991 342.428 977.283 343.053 Q979.575 343.655 981.82 343.655 Q984.829 343.655 986.45 342.636 Q988.07 341.595 988.07 339.72 Q988.07 337.984 986.889 337.058 Q985.732 336.132 981.774 335.275 L980.292 334.928 Q976.334 334.095 974.575 332.382 Q972.815 330.646 972.815 327.636 Q972.815 323.979 975.408 321.988 Q978.001 319.998 982.769 319.998 Q985.13 319.998 987.214 320.345 Q989.297 320.692 991.056 321.386 Z" fill="#000000" fill-rule="evenodd" fill-opacity="1" /><path clip-path="url(#clip740)" d="
M1438.44 1360.19 L2289.76 1360.19 L2289.76 186.464 L1438.44 186.464  Z
  " fill="#ffffff" fill-rule="evenodd" fill-opacity="1"/>
<defs>
  <clipPath id="clip743">
    <rect x="1438" y="186" width="852" height="1175"/>
  </clipPath>
</defs>
<polyline clip-path="url(#clip743)" style="stroke:#000000; stroke-linecap:butt; stroke-linejoin:round; stroke-width:2; stroke-opacity:0.1; fill:none" points="
  1515.26,1360.19 1515.26,186.464 
  "/>
<polyline clip-path="url(#clip743)" style="stroke:#000000; stroke-linecap:butt; stroke-linejoin:round; stroke-width:2; stroke-opacity:0.1; fill:none" points="
  1718.07,1360.19 1718.07,186.464 
  "/>
<polyline clip-path="url(#clip743)" style="stroke:#000000; stroke-linecap:butt; stroke-linejoin:round; stroke-width:2; stroke-opacity:0.1; fill:none" points="
  1920.89,1360.19 1920.89,186.464 
  "/>
<polyline clip-path="url(#clip743)" style="stroke:#000000; stroke-linecap:butt; stroke-linejoin:round; stroke-width:2; stroke-opacity:0.1; fill:none" points="
  2123.7,1360.19 2123.7,186.464 
  "/>
<polyline clip-path="url(#clip740)" style="stroke:#000000; stroke-linecap:butt; stroke-linejoin:round; stroke-width:4; stroke-opacity:1; fill:none" points="
  1438.44,1360.19 2289.76,1360.19 
  "/>
<polyline clip-path="url(#clip740)" style="stroke:#000000; stroke-linecap:butt; stroke-linejoin:round; stroke-width:4; stroke-opacity:1; fill:none" points="
  1515.26,1360.19 1515.26,1341.29 
  "/>
<polyline clip-path="url(#clip740)" style="stroke:#000000; stroke-linecap:butt; stroke-linejoin:round; stroke-width:4; stroke-opacity:1; fill:none" points="
  1718.07,1360.19 1718.07,1341.29 
  "/>
<polyline clip-path="url(#clip740)" style="stroke:#000000; stroke-linecap:butt; stroke-linejoin:round; stroke-width:4; stroke-opacity:1; fill:none" points="
  1920.89,1360.19 1920.89,1341.29 
  "/>
<polyline clip-path="url(#clip740)" style="stroke:#000000; stroke-linecap:butt; stroke-linejoin:round; stroke-width:4; stroke-opacity:1; fill:none" points="
  2123.7,1360.19 2123.7,1341.29 
  "/>
<path clip-path="url(#clip740)" d="M1500.67 1403.44 Q1497.52 1403.44 1495.67 1405.6 Q1493.84 1407.75 1493.84 1411.5 Q1493.84 1415.23 1495.67 1417.4 Q1497.52 1419.56 1500.67 1419.56 Q1503.81 1419.56 1505.64 1417.4 Q1507.49 1415.23 1507.49 1411.5 Q1507.49 1407.75 1505.64 1405.6 Q1503.81 1403.44 1500.67 1403.44 M1509.95 1388.79 L1509.95 1393.05 Q1508.19 1392.22 1506.38 1391.78 Q1504.6 1391.34 1502.84 1391.34 Q1498.21 1391.34 1495.76 1394.46 Q1493.33 1397.59 1492.98 1403.91 Q1494.35 1401.89 1496.41 1400.83 Q1498.47 1399.74 1500.94 1399.74 Q1506.15 1399.74 1509.16 1402.91 Q1512.19 1406.06 1512.19 1411.5 Q1512.19 1416.82 1509.05 1420.04 Q1505.9 1423.26 1500.67 1423.26 Q1494.67 1423.26 1491.5 1418.68 Q1488.33 1414.07 1488.33 1405.34 Q1488.33 1397.15 1492.22 1392.29 Q1496.11 1387.4 1502.66 1387.4 Q1504.42 1387.4 1506.2 1387.75 Q1508 1388.1 1509.95 1388.79 Z" fill="#000000" fill-rule="evenodd" fill-opacity="1" /><path clip-path="url(#clip740)" d="M1530.25 1391.11 Q1526.64 1391.11 1524.81 1394.67 Q1523 1398.21 1523 1405.34 Q1523 1412.45 1524.81 1416.01 Q1526.64 1419.56 1530.25 1419.56 Q1533.88 1419.56 1535.69 1416.01 Q1537.52 1412.45 1537.52 1405.34 Q1537.52 1398.21 1535.69 1394.67 Q1533.88 1391.11 1530.25 1391.11 M1530.25 1387.4 Q1536.06 1387.4 1539.11 1392.01 Q1542.19 1396.59 1542.19 1405.34 Q1542.19 1414.07 1539.11 1418.68 Q1536.06 1423.26 1530.25 1423.26 Q1524.44 1423.26 1521.36 1418.68 Q1518.3 1414.07 1518.3 1405.34 Q1518.3 1396.59 1521.36 1392.01 Q1524.44 1387.4 1530.25 1387.4 Z" fill="#000000" fill-rule="evenodd" fill-opacity="1" /><path clip-path="url(#clip740)" d="M1691.43 1388.03 L1713.65 1388.03 L1713.65 1390.02 L1701.11 1422.59 L1696.22 1422.59 L1708.03 1391.96 L1691.43 1391.96 L1691.43 1388.03 Z" fill="#000000" fill-rule="evenodd" fill-opacity="1" /><path clip-path="url(#clip740)" d="M1732.77 1391.11 Q1729.16 1391.11 1727.33 1394.67 Q1725.53 1398.21 1725.53 1405.34 Q1725.53 1412.45 1727.33 1416.01 Q1729.16 1419.56 1732.77 1419.56 Q1736.41 1419.56 1738.21 1416.01 Q1740.04 1412.45 1740.04 1405.34 Q1740.04 1398.21 1738.21 1394.67 Q1736.41 1391.11 1732.77 1391.11 M1732.77 1387.4 Q1738.58 1387.4 1741.64 1392.01 Q1744.72 1396.59 1744.72 1405.34 Q1744.72 1414.07 1741.64 1418.68 Q1738.58 1423.26 1732.77 1423.26 Q1726.96 1423.26 1723.88 1418.68 Q1720.83 1414.07 1720.83 1405.34 Q1720.83 1396.59 1723.88 1392.01 Q1726.96 1387.4 1732.77 1387.4 Z" fill="#000000" fill-rule="evenodd" fill-opacity="1" /><path clip-path="url(#clip740)" d="M1905.76 1406.18 Q1902.43 1406.18 1900.51 1407.96 Q1898.61 1409.74 1898.61 1412.87 Q1898.61 1415.99 1900.51 1417.77 Q1902.43 1419.56 1905.76 1419.56 Q1909.09 1419.56 1911.01 1417.77 Q1912.94 1415.97 1912.94 1412.87 Q1912.94 1409.74 1911.01 1407.96 Q1909.12 1406.18 1905.76 1406.18 M1901.08 1404.19 Q1898.07 1403.44 1896.38 1401.38 Q1894.72 1399.32 1894.72 1396.36 Q1894.72 1392.22 1897.66 1389.81 Q1900.62 1387.4 1905.76 1387.4 Q1910.92 1387.4 1913.86 1389.81 Q1916.8 1392.22 1916.8 1396.36 Q1916.8 1399.32 1915.11 1401.38 Q1913.45 1403.44 1910.46 1404.19 Q1913.84 1404.97 1915.71 1407.26 Q1917.61 1409.56 1917.61 1412.87 Q1917.61 1417.89 1914.53 1420.57 Q1911.48 1423.26 1905.76 1423.26 Q1900.04 1423.26 1896.96 1420.57 Q1893.91 1417.89 1893.91 1412.87 Q1893.91 1409.56 1895.81 1407.26 Q1897.7 1404.97 1901.08 1404.19 M1899.37 1396.8 Q1899.37 1399.49 1901.04 1400.99 Q1902.73 1402.5 1905.76 1402.5 Q1908.77 1402.5 1910.46 1400.99 Q1912.17 1399.49 1912.17 1396.8 Q1912.17 1394.12 1910.46 1392.61 Q1908.77 1391.11 1905.76 1391.11 Q1902.73 1391.11 1901.04 1392.61 Q1899.37 1394.12 1899.37 1396.8 Z" fill="#000000" fill-rule="evenodd" fill-opacity="1" /><path clip-path="url(#clip740)" d="M1935.92 1391.11 Q1932.31 1391.11 1930.48 1394.67 Q1928.68 1398.21 1928.68 1405.34 Q1928.68 1412.45 1930.48 1416.01 Q1932.31 1419.56 1935.92 1419.56 Q1939.56 1419.56 1941.36 1416.01 Q1943.19 1412.45 1943.19 1405.34 Q1943.19 1398.21 1941.36 1394.67 Q1939.56 1391.11 1935.92 1391.11 M1935.92 1387.4 Q1941.73 1387.4 1944.79 1392.01 Q1947.87 1396.59 1947.87 1405.34 Q1947.87 1414.07 1944.79 1418.68 Q1941.73 1423.26 1935.92 1423.26 Q1930.11 1423.26 1927.03 1418.68 Q1923.98 1414.07 1923.98 1405.34 Q1923.98 1396.59 1927.03 1392.01 Q1930.11 1387.4 1935.92 1387.4 Z" fill="#000000" fill-rule="evenodd" fill-opacity="1" /><path clip-path="url(#clip740)" d="M2098.83 1421.87 L2098.83 1417.61 Q2100.59 1418.44 2102.39 1418.88 Q2104.2 1419.32 2105.93 1419.32 Q2110.56 1419.32 2112.99 1416.22 Q2115.45 1413.1 2115.8 1406.75 Q2114.45 1408.75 2112.39 1409.81 Q2110.33 1410.87 2107.83 1410.87 Q2102.65 1410.87 2099.61 1407.75 Q2096.61 1404.6 2096.61 1399.16 Q2096.61 1393.84 2099.75 1390.62 Q2102.9 1387.4 2108.13 1387.4 Q2114.13 1387.4 2117.28 1392.01 Q2120.45 1396.59 2120.45 1405.34 Q2120.45 1413.51 2116.56 1418.4 Q2112.69 1423.26 2106.14 1423.26 Q2104.38 1423.26 2102.58 1422.91 Q2100.77 1422.56 2098.83 1421.87 M2108.13 1407.22 Q2111.28 1407.22 2113.11 1405.06 Q2114.96 1402.91 2114.96 1399.16 Q2114.96 1395.44 2113.11 1393.28 Q2111.28 1391.11 2108.13 1391.11 Q2104.99 1391.11 2103.13 1393.28 Q2101.3 1395.44 2101.3 1399.16 Q2101.3 1402.91 2103.13 1405.06 Q2104.99 1407.22 2108.13 1407.22 Z" fill="#000000" fill-rule="evenodd" fill-opacity="1" /><path clip-path="url(#clip740)" d="M2138.85 1391.11 Q2135.24 1391.11 2133.41 1394.67 Q2131.61 1398.21 2131.61 1405.34 Q2131.61 1412.45 2133.41 1416.01 Q2135.24 1419.56 2138.85 1419.56 Q2142.48 1419.56 2144.29 1416.01 Q2146.12 1412.45 2146.12 1405.34 Q2146.12 1398.21 2144.29 1394.67 Q2142.48 1391.11 2138.85 1391.11 M2138.85 1387.4 Q2144.66 1387.4 2147.72 1392.01 Q2150.8 1396.59 2150.8 1405.34 Q2150.8 1414.07 2147.72 1418.68 Q2144.66 1423.26 2138.85 1423.26 Q2133.04 1423.26 2129.96 1418.68 Q2126.91 1414.07 2126.91 1405.34 Q2126.91 1396.59 2129.96 1392.01 Q2133.04 1387.4 2138.85 1387.4 Z" fill="#000000" fill-rule="evenodd" fill-opacity="1" /><path clip-path="url(#clip740)" d="M1762.23 1499.7 L1762.23 1518.61 L1756.35 1518.61 L1756.35 1469.4 L1762.23 1469.4 L1762.23 1474.81 Q1764.08 1471.63 1766.88 1470.1 Q1769.71 1468.54 1773.63 1468.54 Q1780.12 1468.54 1784.16 1473.7 Q1788.24 1478.86 1788.24 1487.26 Q1788.24 1495.66 1784.16 1500.82 Q1780.12 1505.97 1773.63 1505.97 Q1769.71 1505.97 1766.88 1504.45 Q1764.08 1502.89 1762.23 1499.7 M1782.16 1487.26 Q1782.16 1480.8 1779.48 1477.14 Q1776.84 1473.45 1772.2 1473.45 Q1767.55 1473.45 1764.88 1477.14 Q1762.23 1480.8 1762.23 1487.26 Q1762.23 1493.72 1764.88 1497.41 Q1767.55 1501.07 1772.2 1501.07 Q1776.84 1501.07 1779.48 1497.41 Q1782.16 1493.72 1782.16 1487.26 Z" fill="#000000" fill-rule="evenodd" fill-opacity="1" /><path clip-path="url(#clip740)" d="M1832.73 1455.59 Q1828.47 1462.91 1826.4 1470.07 Q1824.33 1477.23 1824.33 1484.59 Q1824.33 1491.94 1826.4 1499.16 Q1828.5 1506.36 1832.73 1513.65 L1827.64 1513.65 Q1822.87 1506.17 1820.48 1498.94 Q1818.12 1491.72 1818.12 1484.59 Q1818.12 1477.49 1820.48 1470.29 Q1822.83 1463.1 1827.64 1455.59 L1832.73 1455.59 Z" fill="#000000" fill-rule="evenodd" fill-opacity="1" /><path clip-path="url(#clip740)" d="M1843.87 1455.53 L1849.76 1455.53 L1849.76 1484.78 L1867.24 1469.4 L1874.72 1469.4 L1855.81 1486.08 L1875.51 1505.05 L1867.87 1505.05 L1849.76 1487.64 L1849.76 1505.05 L1843.87 1505.05 L1843.87 1455.53 Z" fill="#000000" fill-rule="evenodd" fill-opacity="1" /><path clip-path="url(#clip740)" d="M1888.53 1462.82 L1888.53 1480.67 L1896.61 1480.67 Q1901.1 1480.67 1903.55 1478.35 Q1906 1476.02 1906 1471.73 Q1906 1467.46 1903.55 1465.14 Q1901.1 1462.82 1896.61 1462.82 L1888.53 1462.82 M1882.1 1457.53 L1896.61 1457.53 Q1904.6 1457.53 1908.68 1461.16 Q1912.78 1464.76 1912.78 1471.73 Q1912.78 1478.76 1908.68 1482.36 Q1904.6 1485.95 1896.61 1485.95 L1888.53 1485.95 L1888.53 1505.05 L1882.1 1505.05 L1882.1 1457.53 Z" fill="#000000" fill-rule="evenodd" fill-opacity="1" /><path clip-path="url(#clip740)" d="M1934.43 1487.13 Q1927.33 1487.13 1924.59 1488.76 Q1921.85 1490.38 1921.85 1494.29 Q1921.85 1497.41 1923.89 1499.26 Q1925.96 1501.07 1929.49 1501.07 Q1934.36 1501.07 1937.29 1497.64 Q1940.25 1494.17 1940.25 1488.44 L1940.25 1487.13 L1934.43 1487.13 M1946.11 1484.71 L1946.11 1505.05 L1940.25 1505.05 L1940.25 1499.64 Q1938.25 1502.89 1935.25 1504.45 Q1932.26 1505.97 1927.93 1505.97 Q1922.46 1505.97 1919.21 1502.92 Q1916 1499.83 1916 1494.68 Q1916 1488.66 1920.01 1485.6 Q1924.05 1482.55 1932.04 1482.55 L1940.25 1482.55 L1940.25 1481.98 Q1940.25 1477.93 1937.58 1475.74 Q1934.93 1473.51 1930.13 1473.51 Q1927.07 1473.51 1924.18 1474.24 Q1921.28 1474.97 1918.61 1476.44 L1918.61 1471.03 Q1921.82 1469.79 1924.85 1469.18 Q1927.87 1468.54 1930.73 1468.54 Q1938.47 1468.54 1942.29 1472.55 Q1946.11 1476.57 1946.11 1484.71 Z" fill="#000000" fill-rule="evenodd" fill-opacity="1" /><path clip-path="url(#clip740)" d="M1957.25 1455.59 L1962.34 1455.59 Q1967.11 1463.1 1969.47 1470.29 Q1971.86 1477.49 1971.86 1484.59 Q1971.86 1491.72 1969.47 1498.94 Q1967.11 1506.17 1962.34 1513.65 L1957.25 1513.65 Q1961.48 1506.36 1963.55 1499.16 Q1965.65 1491.94 1965.65 1484.59 Q1965.65 1477.23 1963.55 1470.07 Q1961.48 1462.91 1957.25 1455.59 Z" fill="#000000" fill-rule="evenodd" fill-opacity="1" /><polyline clip-path="url(#clip743)" style="stroke:#000000; stroke-linecap:butt; stroke-linejoin:round; stroke-width:2; stroke-opacity:0.1; fill:none" points="
  1438.44,1326.97 2289.76,1326.97 
  "/>
<polyline clip-path="url(#clip743)" style="stroke:#000000; stroke-linecap:butt; stroke-linejoin:round; stroke-width:2; stroke-opacity:0.1; fill:none" points="
  1438.44,1075.31 2289.76,1075.31 
  "/>
<polyline clip-path="url(#clip743)" style="stroke:#000000; stroke-linecap:butt; stroke-linejoin:round; stroke-width:2; stroke-opacity:0.1; fill:none" points="
  1438.44,823.657 2289.76,823.657 
  "/>
<polyline clip-path="url(#clip743)" style="stroke:#000000; stroke-linecap:butt; stroke-linejoin:round; stroke-width:2; stroke-opacity:0.1; fill:none" points="
  1438.44,572.001 2289.76,572.001 
  "/>
<polyline clip-path="url(#clip743)" style="stroke:#000000; stroke-linecap:butt; stroke-linejoin:round; stroke-width:2; stroke-opacity:0.1; fill:none" points="
  1438.44,320.345 2289.76,320.345 
  "/>
<polyline clip-path="url(#clip740)" style="stroke:#000000; stroke-linecap:butt; stroke-linejoin:round; stroke-width:4; stroke-opacity:1; fill:none" points="
  1438.44,1360.19 1438.44,186.464 
  "/>
<polyline clip-path="url(#clip740)" style="stroke:#000000; stroke-linecap:butt; stroke-linejoin:round; stroke-width:4; stroke-opacity:1; fill:none" points="
  1438.44,1326.97 1457.33,1326.97 
  "/>
<polyline clip-path="url(#clip740)" style="stroke:#000000; stroke-linecap:butt; stroke-linejoin:round; stroke-width:4; stroke-opacity:1; fill:none" points="
  1438.44,1075.31 1457.33,1075.31 
  "/>
<polyline clip-path="url(#clip740)" style="stroke:#000000; stroke-linecap:butt; stroke-linejoin:round; stroke-width:4; stroke-opacity:1; fill:none" points="
  1438.44,823.657 1457.33,823.657 
  "/>
<polyline clip-path="url(#clip740)" style="stroke:#000000; stroke-linecap:butt; stroke-linejoin:round; stroke-width:4; stroke-opacity:1; fill:none" points="
  1438.44,572.001 1457.33,572.001 
  "/>
<polyline clip-path="url(#clip740)" style="stroke:#000000; stroke-linecap:butt; stroke-linejoin:round; stroke-width:4; stroke-opacity:1; fill:none" points="
  1438.44,320.345 1457.33,320.345 
  "/>
<path clip-path="url(#clip740)" d="M1390.49 1312.77 Q1386.88 1312.77 1385.05 1316.33 Q1383.25 1319.87 1383.25 1327 Q1383.25 1334.11 1385.05 1337.68 Q1386.88 1341.22 1390.49 1341.22 Q1394.13 1341.22 1395.93 1337.68 Q1397.76 1334.11 1397.76 1327 Q1397.76 1319.87 1395.93 1316.33 Q1394.13 1312.77 1390.49 1312.77 M1390.49 1309.06 Q1396.3 1309.06 1399.36 1313.67 Q1402.44 1318.25 1402.44 1327 Q1402.44 1335.73 1399.36 1340.34 Q1396.3 1344.92 1390.49 1344.92 Q1384.68 1344.92 1381.6 1340.34 Q1378.55 1335.73 1378.55 1327 Q1378.55 1318.25 1381.6 1313.67 Q1384.68 1309.06 1390.49 1309.06 Z" fill="#000000" fill-rule="evenodd" fill-opacity="1" /><path clip-path="url(#clip740)" d="M1382.53 1088.66 L1390.17 1088.66 L1390.17 1062.29 L1381.86 1063.96 L1381.86 1059.7 L1390.12 1058.03 L1394.8 1058.03 L1394.8 1088.66 L1402.44 1088.66 L1402.44 1092.59 L1382.53 1092.59 L1382.53 1088.66 Z" fill="#000000" fill-rule="evenodd" fill-opacity="1" /><path clip-path="url(#clip740)" d="M1386.12 837.002 L1402.44 837.002 L1402.44 840.937 L1380.49 840.937 L1380.49 837.002 Q1383.16 834.247 1387.74 829.618 Q1392.34 824.965 1393.53 823.622 Q1395.77 821.099 1396.65 819.363 Q1397.55 817.604 1397.55 815.914 Q1397.55 813.16 1395.61 811.423 Q1393.69 809.687 1390.59 809.687 Q1388.39 809.687 1385.93 810.451 Q1383.5 811.215 1380.72 812.766 L1380.72 808.044 Q1383.55 806.91 1386 806.331 Q1388.46 805.752 1390.49 805.752 Q1395.86 805.752 1399.06 808.437 Q1402.25 811.123 1402.25 815.613 Q1402.25 817.743 1401.44 819.664 Q1400.65 821.562 1398.55 824.155 Q1397.97 824.826 1394.87 828.044 Q1391.77 831.238 1386.12 837.002 Z" fill="#000000" fill-rule="evenodd" fill-opacity="1" /><path clip-path="url(#clip740)" d="M1395.31 570.647 Q1398.66 571.365 1400.54 573.633 Q1402.44 575.902 1402.44 579.235 Q1402.44 584.351 1398.92 587.152 Q1395.4 589.952 1388.92 589.952 Q1386.74 589.952 1384.43 589.513 Q1382.14 589.096 1379.68 588.24 L1379.68 583.726 Q1381.63 584.86 1383.94 585.439 Q1386.26 586.017 1388.78 586.017 Q1393.18 586.017 1395.47 584.281 Q1397.78 582.545 1397.78 579.235 Q1397.78 576.179 1395.63 574.466 Q1393.5 572.73 1389.68 572.73 L1385.66 572.73 L1385.66 568.888 L1389.87 568.888 Q1393.32 568.888 1395.15 567.522 Q1396.97 566.133 1396.97 563.541 Q1396.97 560.879 1395.08 559.467 Q1393.2 558.031 1389.68 558.031 Q1387.76 558.031 1385.56 558.448 Q1383.36 558.865 1380.72 559.744 L1380.72 555.578 Q1383.39 554.837 1385.7 554.467 Q1388.04 554.096 1390.1 554.096 Q1395.42 554.096 1398.53 556.527 Q1401.63 558.934 1401.63 563.054 Q1401.63 565.925 1399.98 567.916 Q1398.34 569.883 1395.31 570.647 Z" fill="#000000" fill-rule="evenodd" fill-opacity="1" /><path clip-path="url(#clip740)" d="M1392.85 307.139 L1381.05 325.588 L1392.85 325.588 L1392.85 307.139 M1391.63 303.065 L1397.51 303.065 L1397.51 325.588 L1402.44 325.588 L1402.44 329.477 L1397.51 329.477 L1397.51 337.625 L1392.85 337.625 L1392.85 329.477 L1377.25 329.477 L1377.25 324.963 L1391.63 303.065 Z" fill="#000000" fill-rule="evenodd" fill-opacity="1" /><path clip-path="url(#clip740)" d="M1291.35 871.851 L1291.35 844.033 L1296.7 844.033 L1322.32 866.058 L1322.32 844.033 L1327 844.033 L1327 872.647 L1321.65 872.647 L1296.03 850.622 L1296.03 871.851 L1291.35 871.851 Z" fill="#000000" fill-rule="evenodd" fill-opacity="1" /><path clip-path="url(#clip740)" d="M1277.53 800.301 Q1284.86 804.566 1292.02 806.635 Q1299.18 808.703 1306.53 808.703 Q1313.88 808.703 1321.11 806.635 Q1328.3 804.534 1335.59 800.301 L1335.59 805.393 Q1328.11 810.168 1320.89 812.555 Q1313.66 814.91 1306.53 814.91 Q1299.43 814.91 1292.24 812.555 Q1285.05 810.199 1277.53 805.393 L1277.53 800.301 Z" fill="#000000" fill-rule="evenodd" fill-opacity="1" /><path clip-path="url(#clip740)" d="M1277.47 789.161 L1277.47 783.272 L1306.72 783.272 L1291.35 765.799 L1291.35 758.319 L1308.03 777.225 L1327 757.523 L1327 765.162 L1309.59 783.272 L1327 783.272 L1327 789.161 L1277.47 789.161 Z" fill="#000000" fill-rule="evenodd" fill-opacity="1" /><path clip-path="url(#clip740)" d="M1298.19 723.435 Q1294.24 721.239 1292.37 718.183 Q1290.49 715.128 1290.49 710.99 Q1290.49 705.42 1294.4 702.396 Q1298.29 699.372 1305.48 699.372 L1327 699.372 L1327 705.261 L1305.67 705.261 Q1300.55 705.261 1298.06 707.075 Q1295.58 708.889 1295.58 712.613 Q1295.58 717.165 1298.61 719.806 Q1301.63 722.448 1306.85 722.448 L1327 722.448 L1327 728.336 L1305.67 728.336 Q1300.51 728.336 1298.06 730.151 Q1295.58 731.965 1295.58 735.752 Q1295.58 740.24 1298.64 742.882 Q1301.66 745.524 1306.85 745.524 L1327 745.524 L1327 751.412 L1291.35 751.412 L1291.35 745.524 L1296.89 745.524 Q1293.61 743.519 1292.05 740.718 Q1290.49 737.917 1290.49 734.065 Q1290.49 730.182 1292.46 727.477 Q1294.44 724.74 1298.19 723.435 Z" fill="#000000" fill-rule="evenodd" fill-opacity="1" /><path clip-path="url(#clip740)" d="M1277.53 688.614 L1277.53 683.522 Q1285.05 678.747 1292.24 676.392 Q1299.43 674.005 1306.53 674.005 Q1313.66 674.005 1320.89 676.392 Q1328.11 678.747 1335.59 683.522 L1335.59 688.614 Q1328.3 684.381 1321.11 682.312 Q1313.88 680.212 1306.53 680.212 Q1299.18 680.212 1292.02 682.312 Q1284.86 684.381 1277.53 688.614 Z" fill="#000000" fill-rule="evenodd" fill-opacity="1" /><path clip-path="url(#clip740)" d="M1734.45 65.7705 L1734.45 89.8329 L1726.96 89.8329 L1726.96 27.2059 L1734.45 27.2059 L1734.45 34.0924 Q1736.8 30.0415 1740.37 28.0971 Q1743.97 26.1121 1748.95 26.1121 Q1757.22 26.1121 1762.36 32.6746 Q1767.55 39.2371 1767.55 49.9314 Q1767.55 60.6258 1762.36 67.1883 Q1757.22 73.7508 1748.95 73.7508 Q1743.97 73.7508 1740.37 71.8063 Q1736.8 69.8214 1734.45 65.7705 M1759.81 49.9314 Q1759.81 41.7081 1756.41 37.0496 Q1753.05 32.3505 1747.13 32.3505 Q1741.22 32.3505 1737.81 37.0496 Q1734.45 41.7081 1734.45 49.9314 Q1734.45 58.1548 1737.81 62.8538 Q1741.22 67.5124 1747.13 67.5124 Q1753.05 67.5124 1756.41 62.8538 Q1759.81 58.1548 1759.81 49.9314 Z" fill="#000000" fill-rule="evenodd" fill-opacity="1" /><path clip-path="url(#clip740)" d="M1824.18 9.62495 Q1818.75 18.942 1816.12 28.0566 Q1813.48 37.1711 1813.48 46.5287 Q1813.48 55.8863 1816.12 65.0818 Q1818.79 74.2369 1824.18 83.5134 L1817.7 83.5134 Q1811.62 73.9938 1808.58 64.7983 Q1805.59 55.6027 1805.59 46.5287 Q1805.59 37.4952 1808.58 28.3401 Q1811.58 19.1851 1817.7 9.62495 L1824.18 9.62495 Z" fill="#000000" fill-rule="evenodd" fill-opacity="1" /><path clip-path="url(#clip740)" d="M1838.36 9.54393 L1845.85 9.54393 L1845.85 46.7717 L1868.09 27.2059 L1877.61 27.2059 L1853.55 48.4326 L1878.62 72.576 L1868.9 72.576 L1845.85 50.4176 L1845.85 72.576 L1838.36 72.576 L1838.36 9.54393 Z" fill="#000000" fill-rule="evenodd" fill-opacity="1" /><path clip-path="url(#clip740)" d="M1895.19 18.8205 L1895.19 41.5461 L1905.48 41.5461 Q1911.19 41.5461 1914.31 38.5889 Q1917.43 35.6318 1917.43 30.163 Q1917.43 24.7348 1914.31 21.7777 Q1911.19 18.8205 1905.48 18.8205 L1895.19 18.8205 M1887.01 12.096 L1905.48 12.096 Q1915.65 12.096 1920.83 16.714 Q1926.06 21.2916 1926.06 30.163 Q1926.06 39.1155 1920.83 43.6931 Q1915.65 48.2706 1905.48 48.2706 L1895.19 48.2706 L1895.19 72.576 L1887.01 72.576 L1887.01 12.096 Z" fill="#000000" fill-rule="evenodd" fill-opacity="1" /><path clip-path="url(#clip740)" d="M1953.61 49.7694 Q1944.57 49.7694 1941.09 51.8354 Q1937.6 53.9013 1937.6 58.8839 Q1937.6 62.8538 1940.2 65.2034 Q1942.83 67.5124 1947.33 67.5124 Q1953.52 67.5124 1957.25 63.1374 Q1961.02 58.7219 1961.02 51.4303 L1961.02 49.7694 L1953.61 49.7694 M1968.47 46.6907 L1968.47 72.576 L1961.02 72.576 L1961.02 65.6895 Q1958.47 69.8214 1954.66 71.8063 Q1950.85 73.7508 1945.34 73.7508 Q1938.37 73.7508 1934.24 69.8619 Q1930.15 65.9325 1930.15 59.3701 Q1930.15 51.7138 1935.25 47.825 Q1940.4 43.9361 1950.57 43.9361 L1961.02 43.9361 L1961.02 43.2069 Q1961.02 38.0623 1957.62 35.2672 Q1954.25 32.4315 1948.14 32.4315 Q1944.25 32.4315 1940.56 33.3632 Q1936.88 34.295 1933.47 36.1584 L1933.47 29.2718 Q1937.56 27.692 1941.41 26.9223 Q1945.26 26.1121 1948.91 26.1121 Q1958.75 26.1121 1963.61 31.2163 Q1968.47 36.3204 1968.47 46.6907 Z" fill="#000000" fill-rule="evenodd" fill-opacity="1" /><path clip-path="url(#clip740)" d="M1982.65 9.62495 L1989.13 9.62495 Q1995.21 19.1851 1998.21 28.3401 Q2001.24 37.4952 2001.24 46.5287 Q2001.24 55.6027 1998.21 64.7983 Q1995.21 73.9938 1989.13 83.5134 L1982.65 83.5134 Q1988.04 74.2369 1990.67 65.0818 Q1993.34 55.8863 1993.34 46.5287 Q1993.34 37.1711 1990.67 28.0566 Q1988.04 18.942 1982.65 9.62495 Z" fill="#000000" fill-rule="evenodd" fill-opacity="1" /><polyline clip-path="url(#clip743)" style="stroke:#009af9; stroke-linecap:butt; stroke-linejoin:round; stroke-width:4; stroke-opacity:1; fill:none" points="
  2260.1,1320.68 2249.01,1308.09 2237.96,1295.51 2226.95,1282.93 2215.99,1270.35 2205.07,1257.76 2194.2,1245.18 2183.37,1232.6 2172.58,1220.02 2161.84,1207.43 
  2151.15,1194.85 2140.5,1182.27 2129.89,1169.68 2119.32,1157.1 2108.8,1144.52 2098.33,1131.94 2087.9,1119.35 2077.53,1106.77 2067.21,1094.19 2056.94,1081.6 
  2046.71,1069.02 2036.54,1056.44 2026.42,1043.86 2016.35,1031.27 2006.33,1018.69 1996.35,1006.11 1986.43,993.525 1976.56,980.942 1966.73,968.359 1956.95,955.777 
  1947.22,943.194 1937.54,930.611 1927.91,918.028 1918.32,905.445 1908.78,892.863 1899.29,880.28 1889.85,867.697 1880.45,855.114 1871.1,842.531 1861.8,829.949 
  1852.54,817.366 1843.33,804.783 1834.16,792.2 1825.04,779.617 1815.97,767.035 1806.94,754.452 1797.96,741.869 1789.02,729.286 1780.12,716.703 1771.27,704.121 
  1762.47,691.538 1753.71,678.955 1744.99,666.372 1736.32,653.789 1727.69,641.207 1719.1,628.624 1710.56,616.041 1702.06,603.458 1693.6,590.875 1685.18,578.293 
  1676.81,565.71 1668.48,553.127 1660.19,540.544 1651.95,527.961 1643.74,515.379 1635.58,502.796 1627.46,490.213 1619.38,477.63 1611.34,465.047 1603.34,452.465 
  1595.39,439.882 1587.47,427.299 1579.59,414.716 1571.76,402.133 1563.96,389.551 1556.2,376.968 1548.49,364.385 1540.81,351.802 1533.17,339.219 1525.57,326.637 
  1518.01,314.054 1510.49,301.471 1503.01,288.888 1495.56,276.305 1488.16,263.723 1480.79,251.14 1473.46,238.557 1466.16,225.974 
  "/>
<polyline clip-path="url(#clip743)" style="stroke:#e26f46; stroke-linecap:butt; stroke-linejoin:round; stroke-width:4; stroke-opacity:1; fill:none" points="
  2265.67,1326.97 2254.55,1314.39 2243.48,1301.8 2232.45,1289.22 2221.46,1276.64 2210.52,1264.06 2199.63,1251.47 2188.78,1238.89 2177.97,1226.31 2167.21,1213.72 
  2156.49,1201.14 2145.82,1188.56 2135.19,1175.98 2124.6,1163.39 2114.06,1150.81 2103.56,1138.23 2093.11,1125.64 2082.71,1113.06 2072.36,1100.48 2062.07,1087.9 
  2051.82,1075.31 2041.62,1062.73 2031.48,1050.15 2021.38,1037.56 2011.33,1024.98 2001.34,1012.4 1991.39,999.816 1981.49,987.234 1971.64,974.651 1961.83,962.068 
  1952.08,949.485 1942.38,936.902 1932.72,924.32 1923.11,911.737 1913.55,899.154 1904.03,886.571 1894.56,873.988 1885.14,861.406 1875.77,848.823 1866.44,836.24 
  1857.16,823.657 1847.93,811.074 1838.74,798.492 1829.6,785.909 1820.5,773.326 1811.45,760.743 1802.44,748.16 1793.48,735.578 1784.56,722.995 1775.69,710.412 
  1766.86,697.829 1758.08,685.246 1749.34,672.664 1740.65,660.081 1731.99,647.498 1723.39,634.915 1714.82,622.332 1706.3,609.75 1697.82,597.167 1689.39,584.584 
  1680.99,572.001 1672.64,559.418 1664.33,546.836 1656.07,534.253 1647.84,521.67 1639.66,509.087 1631.52,496.504 1623.42,483.922 1615.36,471.339 1607.34,458.756 
  1599.36,446.173 1591.42,433.59 1583.53,421.008 1575.67,408.425 1567.85,395.842 1560.08,383.259 1552.34,370.676 1544.64,358.094 1536.99,345.511 1529.37,332.928 
  1521.79,320.345 1514.25,307.762 1506.74,295.18 1499.28,282.597 1491.85,270.014 1484.47,257.431 1477.12,244.848 1469.81,232.266 1462.53,219.683 
  "/>
<path clip-path="url(#clip740)" d="
M1994.5 381.108 L2261.39 381.108 L2261.39 225.588 L1994.5 225.588  Z
  " fill="#ffffff" fill-rule="evenodd" fill-opacity="1"/>
<polyline clip-path="url(#clip740)" style="stroke:#000000; stroke-linecap:butt; stroke-linejoin:round; stroke-width:4; stroke-opacity:1; fill:none" points="
  1994.5,381.108 2261.39,381.108 2261.39,225.588 1994.5,225.588 1994.5,381.108 
  "/>
<polyline clip-path="url(#clip740)" style="stroke:#009af9; stroke-linecap:butt; stroke-linejoin:round; stroke-width:4; stroke-opacity:1; fill:none" points="
  2003.96,277.428 2060.72,277.428 
  "/>
<path clip-path="url(#clip740)" d="M2090.69 269.778 L2090.69 273.759 Q2088.88 272.764 2087.05 272.278 Q2085.25 271.769 2083.39 271.769 Q2079.25 271.769 2076.96 274.408 Q2074.67 277.023 2074.67 281.769 Q2074.67 286.514 2076.96 289.153 Q2079.25 291.769 2083.39 291.769 Q2085.25 291.769 2087.05 291.282 Q2088.88 290.773 2090.69 289.778 L2090.69 293.713 Q2088.9 294.546 2086.98 294.963 Q2085.08 295.38 2082.93 295.38 Q2077.08 295.38 2073.63 291.699 Q2070.18 288.019 2070.18 281.769 Q2070.18 275.426 2073.65 271.792 Q2077.14 268.158 2083.21 268.158 Q2085.18 268.158 2087.05 268.574 Q2088.93 268.968 2090.69 269.778 Z" fill="#000000" fill-rule="evenodd" fill-opacity="1" /><path clip-path="url(#clip740)" d="M2120.27 280.681 L2120.27 282.764 L2100.69 282.764 Q2100.96 287.162 2103.33 289.477 Q2105.71 291.769 2109.95 291.769 Q2112.4 291.769 2114.69 291.167 Q2117.01 290.565 2119.27 289.361 L2119.27 293.389 Q2116.98 294.361 2114.58 294.87 Q2112.17 295.38 2109.69 295.38 Q2103.49 295.38 2099.85 291.769 Q2096.24 288.157 2096.24 282 Q2096.24 275.634 2099.67 271.908 Q2103.12 268.158 2108.95 268.158 Q2114.18 268.158 2117.21 271.537 Q2120.27 274.894 2120.27 280.681 M2116.01 279.431 Q2115.96 275.935 2114.04 273.852 Q2112.14 271.769 2109 271.769 Q2105.43 271.769 2103.28 273.783 Q2101.15 275.796 2100.83 279.454 L2116.01 279.431 Z" fill="#000000" fill-rule="evenodd" fill-opacity="1" /><path clip-path="url(#clip740)" d="M2148.81 279.06 L2148.81 294.708 L2144.55 294.708 L2144.55 279.199 Q2144.55 275.519 2143.12 273.69 Q2141.68 271.861 2138.81 271.861 Q2135.36 271.861 2133.37 274.06 Q2131.38 276.259 2131.38 280.056 L2131.38 294.708 L2127.1 294.708 L2127.1 268.783 L2131.38 268.783 L2131.38 272.81 Q2132.91 270.472 2134.97 269.315 Q2137.05 268.158 2139.76 268.158 Q2144.23 268.158 2146.52 270.935 Q2148.81 273.69 2148.81 279.06 Z" fill="#000000" fill-rule="evenodd" fill-opacity="1" /><path clip-path="url(#clip740)" d="M2161.52 261.422 L2161.52 268.783 L2170.29 268.783 L2170.29 272.093 L2161.52 272.093 L2161.52 286.167 Q2161.52 289.338 2162.38 290.241 Q2163.26 291.144 2165.92 291.144 L2170.29 291.144 L2170.29 294.708 L2165.92 294.708 Q2160.99 294.708 2159.11 292.88 Q2157.24 291.028 2157.24 286.167 L2157.24 272.093 L2154.11 272.093 L2154.11 268.783 L2157.24 268.783 L2157.24 261.422 L2161.52 261.422 Z" fill="#000000" fill-rule="evenodd" fill-opacity="1" /><path clip-path="url(#clip740)" d="M2198.07 280.681 L2198.07 282.764 L2178.49 282.764 Q2178.76 287.162 2181.13 289.477 Q2183.51 291.769 2187.75 291.769 Q2190.2 291.769 2192.49 291.167 Q2194.81 290.565 2197.07 289.361 L2197.07 293.389 Q2194.78 294.361 2192.38 294.87 Q2189.97 295.38 2187.49 295.38 Q2181.29 295.38 2177.65 291.769 Q2174.04 288.157 2174.04 282 Q2174.04 275.634 2177.47 271.908 Q2180.92 268.158 2186.75 268.158 Q2191.98 268.158 2195.01 271.537 Q2198.07 274.894 2198.07 280.681 M2193.81 279.431 Q2193.76 275.935 2191.84 273.852 Q2189.94 271.769 2186.8 271.769 Q2183.23 271.769 2181.08 273.783 Q2178.95 275.796 2178.63 279.454 L2193.81 279.431 Z" fill="#000000" fill-rule="evenodd" fill-opacity="1" /><path clip-path="url(#clip740)" d="M2220.08 272.764 Q2219.37 272.347 2218.51 272.162 Q2217.68 271.954 2216.66 271.954 Q2213.05 271.954 2211.1 274.315 Q2209.18 276.653 2209.18 281.051 L2209.18 294.708 L2204.9 294.708 L2204.9 268.783 L2209.18 268.783 L2209.18 272.81 Q2210.52 270.449 2212.68 269.315 Q2214.83 268.158 2217.91 268.158 Q2218.35 268.158 2218.88 268.227 Q2219.41 268.273 2220.06 268.389 L2220.08 272.764 Z" fill="#000000" fill-rule="evenodd" fill-opacity="1" /><path clip-path="url(#clip740)" d="M2241.08 269.546 L2241.08 273.574 Q2239.27 272.648 2237.33 272.185 Q2235.38 271.722 2233.3 271.722 Q2230.13 271.722 2228.53 272.695 Q2226.96 273.667 2226.96 275.611 Q2226.96 277.093 2228.09 277.949 Q2229.23 278.783 2232.65 279.546 L2234.11 279.87 Q2238.65 280.843 2240.55 282.625 Q2242.47 284.384 2242.47 287.556 Q2242.47 291.167 2239.6 293.273 Q2236.75 295.38 2231.75 295.38 Q2229.67 295.38 2227.4 294.963 Q2225.15 294.569 2222.65 293.759 L2222.65 289.361 Q2225.01 290.588 2227.31 291.213 Q2229.6 291.815 2231.84 291.815 Q2234.85 291.815 2236.47 290.796 Q2238.09 289.755 2238.09 287.88 Q2238.09 286.144 2236.91 285.218 Q2235.75 284.292 2231.8 283.435 L2230.32 283.088 Q2226.36 282.255 2224.6 280.542 Q2222.84 278.806 2222.84 275.796 Q2222.84 272.139 2225.43 270.148 Q2228.02 268.158 2232.79 268.158 Q2235.15 268.158 2237.24 268.505 Q2239.32 268.852 2241.08 269.546 Z" fill="#000000" fill-rule="evenodd" fill-opacity="1" /><polyline clip-path="url(#clip740)" style="stroke:#e26f46; stroke-linecap:butt; stroke-linejoin:round; stroke-width:4; stroke-opacity:1; fill:none" points="
  2003.96,329.268 2060.72,329.268 
  "/>
<path clip-path="url(#clip740)" d="M2086.68 310.53 L2086.68 314.072 L2082.61 314.072 Q2080.32 314.072 2079.41 314.998 Q2078.53 315.924 2078.53 318.331 L2078.53 320.623 L2085.55 320.623 L2085.55 323.933 L2078.53 323.933 L2078.53 346.548 L2074.25 346.548 L2074.25 323.933 L2070.18 323.933 L2070.18 320.623 L2074.25 320.623 L2074.25 318.817 Q2074.25 314.488 2076.27 312.521 Q2078.28 310.53 2082.65 310.53 L2086.68 310.53 Z" fill="#000000" fill-rule="evenodd" fill-opacity="1" /><path clip-path="url(#clip740)" d="M2102.03 333.516 Q2096.87 333.516 2094.88 334.697 Q2092.89 335.877 2092.89 338.724 Q2092.89 340.993 2094.37 342.335 Q2095.87 343.655 2098.44 343.655 Q2101.98 343.655 2104.11 341.155 Q2106.26 338.632 2106.26 334.465 L2106.26 333.516 L2102.03 333.516 M2110.52 331.757 L2110.52 346.548 L2106.26 346.548 L2106.26 342.613 Q2104.81 344.974 2102.63 346.109 Q2100.45 347.22 2097.31 347.22 Q2093.33 347.22 2090.96 344.997 Q2088.63 342.752 2088.63 339.002 Q2088.63 334.627 2091.54 332.405 Q2094.48 330.183 2100.29 330.183 L2106.26 330.183 L2106.26 329.766 Q2106.26 326.826 2104.32 325.229 Q2102.4 323.609 2098.9 323.609 Q2096.68 323.609 2094.58 324.141 Q2092.47 324.673 2090.52 325.738 L2090.52 321.803 Q2092.86 320.9 2095.06 320.461 Q2097.26 319.998 2099.34 319.998 Q2104.97 319.998 2107.75 322.914 Q2110.52 325.831 2110.52 331.757 Z" fill="#000000" fill-rule="evenodd" fill-opacity="1" /><path clip-path="url(#clip740)" d="M2137.95 321.618 L2137.95 325.599 Q2136.15 324.604 2134.32 324.118 Q2132.51 323.609 2130.66 323.609 Q2126.52 323.609 2124.23 326.248 Q2121.94 328.863 2121.94 333.609 Q2121.94 338.354 2124.23 340.993 Q2126.52 343.609 2130.66 343.609 Q2132.51 343.609 2134.32 343.122 Q2136.15 342.613 2137.95 341.618 L2137.95 345.553 Q2136.17 346.386 2134.25 346.803 Q2132.35 347.22 2130.2 347.22 Q2124.34 347.22 2120.89 343.539 Q2117.45 339.859 2117.45 333.609 Q2117.45 327.266 2120.92 323.632 Q2124.41 319.998 2130.48 319.998 Q2132.45 319.998 2134.32 320.414 Q2136.2 320.808 2137.95 321.618 Z" fill="#000000" fill-rule="evenodd" fill-opacity="1" /><path clip-path="url(#clip740)" d="M2167.54 332.521 L2167.54 334.604 L2147.95 334.604 Q2148.23 339.002 2150.59 341.317 Q2152.98 343.609 2157.21 343.609 Q2159.67 343.609 2161.96 343.007 Q2164.27 342.405 2166.54 341.201 L2166.54 345.229 Q2164.25 346.201 2161.84 346.71 Q2159.44 347.22 2156.96 347.22 Q2150.76 347.22 2147.12 343.609 Q2143.51 339.997 2143.51 333.84 Q2143.51 327.474 2146.94 323.748 Q2150.39 319.998 2156.22 319.998 Q2161.45 319.998 2164.48 323.377 Q2167.54 326.734 2167.54 332.521 M2163.28 331.271 Q2163.23 327.775 2161.31 325.692 Q2159.41 323.609 2156.26 323.609 Q2152.7 323.609 2150.55 325.623 Q2148.42 327.636 2148.09 331.294 L2163.28 331.271 Z" fill="#000000" fill-rule="evenodd" fill-opacity="1" /><path clip-path="url(#clip740)" d="M2191.06 321.386 L2191.06 325.414 Q2189.25 324.488 2187.31 324.025 Q2185.36 323.562 2183.28 323.562 Q2180.11 323.562 2178.51 324.535 Q2176.94 325.507 2176.94 327.451 Q2176.94 328.933 2178.07 329.789 Q2179.2 330.623 2182.63 331.386 L2184.09 331.71 Q2188.63 332.683 2190.52 334.465 Q2192.44 336.224 2192.44 339.396 Q2192.44 343.007 2189.57 345.113 Q2186.73 347.22 2181.73 347.22 Q2179.64 347.22 2177.38 346.803 Q2175.13 346.409 2172.63 345.599 L2172.63 341.201 Q2174.99 342.428 2177.28 343.053 Q2179.57 343.655 2181.82 343.655 Q2184.83 343.655 2186.45 342.636 Q2188.07 341.595 2188.07 339.72 Q2188.07 337.984 2186.89 337.058 Q2185.73 336.132 2181.77 335.275 L2180.29 334.928 Q2176.33 334.095 2174.57 332.382 Q2172.82 330.646 2172.82 327.636 Q2172.82 323.979 2175.41 321.988 Q2178 319.998 2182.77 319.998 Q2185.13 319.998 2187.21 320.345 Q2189.3 320.692 2191.06 321.386 Z" fill="#000000" fill-rule="evenodd" fill-opacity="1" /></svg>
