<?xml version="1.0" encoding="utf-8"?>
<svg xmlns="http://www.w3.org/2000/svg" xmlns:xlink="http://www.w3.org/1999/xlink" width="600" height="400" viewBox="0 0 2400 1600">
<defs>
  <clipPath id="clip830">
    <rect x="0" y="0" width="2400" height="1600"/>
  </clipPath>
</defs>
<path clip-path="url(#clip830)" d="
M0 1600 L2400 1600 L2400 0 L0 0  Z
  " fill="#ffffff" fill-rule="evenodd" fill-opacity="1"/>
<defs>
  <clipPath id="clip831">
    <rect x="480" y="0" width="1681" height="1600"/>
  </clipPath>
</defs>
<path clip-path="url(#clip830)" d="
M310.451 1360.19 L1089.76 1360.19 L1089.76 186.464 L310.451 186.464  Z
  " fill="#ffffff" fill-rule="evenodd" fill-opacity="1"/>
<defs>
  <clipPath id="clip832">
    <rect x="310" y="186" width="780" height="1175"/>
  </clipPath>
</defs>
<polyline clip-path="url(#clip832)" style="stroke:#000000; stroke-linecap:butt; stroke-linejoin:round; stroke-width:2; stroke-opacity:0.1; fill:none" points="
  399.063,1360.19 399.063,186.464 
  "/>
<polyline clip-path="url(#clip832)" style="stroke:#000000; stroke-linecap:butt; stroke-linejoin:round; stroke-width:2; stroke-opacity:0.1; fill:none" points="
  497.812,1360.19 497.812,186.464 
  "/>
<polyline clip-path="url(#clip832)" style="stroke:#000000; stroke-linecap:butt; stroke-linejoin:round; stroke-width:2; stroke-opacity:0.1; fill:none" points="
  596.56,1360.19 596.56,186.464 
  "/>
<polyline clip-path="url(#clip832)" style="stroke:#000000; stroke-linecap:butt; stroke-linejoin:round; stroke-width:2; stroke-opacity:0.1; fill:none" points="
  695.309,1360.19 695.309,186.464 
  "/>
<polyline clip-path="url(#clip832)" style="stroke:#000000; stroke-linecap:butt; stroke-linejoin:round; stroke-width:2; stroke-opacity:0.1; fill:none" points="
  794.057,1360.19 794.057,186.464 
  "/>
<polyline clip-path="url(#clip832)" style="stroke:#000000; stroke-linecap:butt; stroke-linejoin:round; stroke-width:2; stroke-opacity:0.1; fill:none" points="
  892.806,1360.19 892.806,186.464 
  "/>
<polyline clip-path="url(#clip832)" style="stroke:#000000; stroke-linecap:butt; stroke-linejoin:round; stroke-width:2; stroke-opacity:0.1; fill:none" points="
  991.555,1360.19 991.555,186.464 
  "/>
<polyline clip-path="url(#clip830)" style="stroke:#000000; stroke-linecap:butt; stroke-linejoin:round; stroke-width:4; stroke-opacity:1; fill:none" points="
  310.451,1360.19 1089.76,1360.19 
  "/>
<polyline clip-path="url(#clip830)" style="stroke:#000000; stroke-linecap:butt; stroke-linejoin:round; stroke-width:4; stroke-opacity:1; fill:none" points="
  399.063,1360.19 399.063,1341.29 
  "/>
<polyline clip-path="url(#clip830)" style="stroke:#000000; stroke-linecap:butt; stroke-linejoin:round; stroke-width:4; stroke-opacity:1; fill:none" points="
  497.812,1360.19 497.812,1341.29 
  "/>
<polyline clip-path="url(#clip830)" style="stroke:#000000; stroke-linecap:butt; stroke-linejoin:round; stroke-width:4; stroke-opacity:1; fill:none" points="
  596.56,1360.19 596.56,1341.29 
  "/>
<polyline clip-path="url(#clip830)" style="stroke:#000000; stroke-linecap:butt; stroke-linejoin:round; stroke-width:4; stroke-opacity:1; fill:none" points="
  695.309,1360.19 695.309,1341.29 
  "/>
<polyline clip-path="url(#clip830)" style="stroke:#000000; stroke-linecap:butt; stroke-linejoin:round; stroke-width:4; stroke-opacity:1; fill:none" points="
  794.057,1360.19 794.057,1341.29 
  "/>
<polyline clip-path="url(#clip830)" style="stroke:#000000; stroke-linecap:butt; stroke-linejoin:round; stroke-width:4; stroke-opacity:1; fill:none" points="
  892.806,1360.19 892.806,1341.29 
  "/>
<polyline clip-path="url(#clip830)" style="stroke:#000000; stroke-linecap:butt; stroke-linejoin:round; stroke-width:4; stroke-opacity:1; fill:none" points="
  991.555,1360.19 991.555,1341.29 
  "/>
<path clip-path="url(#clip830)" d="M376.945 1391.11 Q373.334 1391.11 371.506 1394.67 Q369.7 1398.21 369.7 1405.34 Q369.7 1412.45 371.506 1416.01 Q373.334 1419.56 376.945 1419.56 Q380.58 1419.56 382.385 1416.01 Q384.214 1412.45 384.214 1405.34 Q384.214 1398.21 382.385 1394.67 Q380.58 1391.11 376.945 1391.11 M376.945 1387.4 Q382.755 1387.4 385.811 1392.01 Q388.89 1396.59 388.89 1405.34 Q388.89 1414.07 385.811 1418.68 Q382.755 1423.26 376.945 1423.26 Q371.135 1423.26 368.056 1418.68 Q365.001 1414.07 365.001 1405.34 Q365.001 1396.59 368.056 1392.01 Q371.135 1387.4 376.945 1387.4 Z" fill="#000000" fill-rule="evenodd" fill-opacity="1" /><path clip-path="url(#clip830)" d="M397.107 1416.71 L401.991 1416.71 L401.991 1422.59 L397.107 1422.59 L397.107 1416.71 Z" fill="#000000" fill-rule="evenodd" fill-opacity="1" /><path clip-path="url(#clip830)" d="M412.223 1388.03 L430.579 1388.03 L430.579 1391.96 L416.505 1391.96 L416.505 1400.44 Q417.524 1400.09 418.542 1399.93 Q419.561 1399.74 420.579 1399.74 Q426.366 1399.74 429.746 1402.91 Q433.126 1406.08 433.126 1411.5 Q433.126 1417.08 429.653 1420.18 Q426.181 1423.26 419.862 1423.26 Q417.686 1423.26 415.417 1422.89 Q413.172 1422.52 410.765 1421.78 L410.765 1417.08 Q412.848 1418.21 415.07 1418.77 Q417.292 1419.32 419.769 1419.32 Q423.774 1419.32 426.112 1417.22 Q428.45 1415.11 428.45 1411.5 Q428.45 1407.89 426.112 1405.78 Q423.774 1403.68 419.769 1403.68 Q417.894 1403.68 416.019 1404.09 Q414.167 1404.51 412.223 1405.39 L412.223 1388.03 Z" fill="#000000" fill-rule="evenodd" fill-opacity="1" /><path clip-path="url(#clip830)" d="M475.115 1391.11 Q471.504 1391.11 469.675 1394.67 Q467.87 1398.21 467.87 1405.34 Q467.87 1412.45 469.675 1416.01 Q471.504 1419.56 475.115 1419.56 Q478.749 1419.56 480.555 1416.01 Q482.384 1412.45 482.384 1405.34 Q482.384 1398.21 480.555 1394.67 Q478.749 1391.11 475.115 1391.11 M475.115 1387.4 Q480.925 1387.4 483.981 1392.01 Q487.06 1396.59 487.06 1405.34 Q487.06 1414.07 483.981 1418.68 Q480.925 1423.26 475.115 1423.26 Q469.305 1423.26 466.226 1418.68 Q463.171 1414.07 463.171 1405.34 Q463.171 1396.59 466.226 1392.01 Q469.305 1387.4 475.115 1387.4 Z" fill="#000000" fill-rule="evenodd" fill-opacity="1" /><path clip-path="url(#clip830)" d="M495.277 1416.71 L500.161 1416.71 L500.161 1422.59 L495.277 1422.59 L495.277 1416.71 Z" fill="#000000" fill-rule="evenodd" fill-opacity="1" /><path clip-path="url(#clip830)" d="M520.925 1403.44 Q517.777 1403.44 515.925 1405.6 Q514.096 1407.75 514.096 1411.5 Q514.096 1415.23 515.925 1417.4 Q517.777 1419.56 520.925 1419.56 Q524.073 1419.56 525.902 1417.4 Q527.754 1415.23 527.754 1411.5 Q527.754 1407.75 525.902 1405.6 Q524.073 1403.44 520.925 1403.44 M530.207 1388.79 L530.207 1393.05 Q528.448 1392.22 526.643 1391.78 Q524.86 1391.34 523.101 1391.34 Q518.471 1391.34 516.018 1394.46 Q513.587 1397.59 513.24 1403.91 Q514.606 1401.89 516.666 1400.83 Q518.726 1399.74 521.203 1399.74 Q526.411 1399.74 529.42 1402.91 Q532.453 1406.06 532.453 1411.5 Q532.453 1416.82 529.305 1420.04 Q526.157 1423.26 520.925 1423.26 Q514.93 1423.26 511.758 1418.68 Q508.587 1414.07 508.587 1405.34 Q508.587 1397.15 512.476 1392.29 Q516.365 1387.4 522.916 1387.4 Q524.675 1387.4 526.457 1387.75 Q528.263 1388.1 530.207 1388.79 Z" fill="#000000" fill-rule="evenodd" fill-opacity="1" /><path clip-path="url(#clip830)" d="M574.396 1391.11 Q570.785 1391.11 568.956 1394.67 Q567.151 1398.21 567.151 1405.34 Q567.151 1412.45 568.956 1416.01 Q570.785 1419.56 574.396 1419.56 Q578.03 1419.56 579.836 1416.01 Q581.665 1412.45 581.665 1405.34 Q581.665 1398.21 579.836 1394.67 Q578.03 1391.11 574.396 1391.11 M574.396 1387.4 Q580.206 1387.4 583.262 1392.01 Q586.341 1396.59 586.341 1405.34 Q586.341 1414.07 583.262 1418.68 Q580.206 1423.26 574.396 1423.26 Q568.586 1423.26 565.507 1418.68 Q562.452 1414.07 562.452 1405.34 Q562.452 1396.59 565.507 1392.01 Q568.586 1387.4 574.396 1387.4 Z" fill="#000000" fill-rule="evenodd" fill-opacity="1" /><path clip-path="url(#clip830)" d="M594.558 1416.71 L599.442 1416.71 L599.442 1422.59 L594.558 1422.59 L594.558 1416.71 Z" fill="#000000" fill-rule="evenodd" fill-opacity="1" /><path clip-path="url(#clip830)" d="M608.447 1388.03 L630.669 1388.03 L630.669 1390.02 L618.123 1422.59 L613.239 1422.59 L625.044 1391.96 L608.447 1391.96 L608.447 1388.03 Z" fill="#000000" fill-rule="evenodd" fill-opacity="1" /><path clip-path="url(#clip830)" d="M672.74 1391.11 Q669.128 1391.11 667.3 1394.67 Q665.494 1398.21 665.494 1405.34 Q665.494 1412.45 667.3 1416.01 Q669.128 1419.56 672.74 1419.56 Q676.374 1419.56 678.179 1416.01 Q680.008 1412.45 680.008 1405.34 Q680.008 1398.21 678.179 1394.67 Q676.374 1391.11 672.74 1391.11 M672.74 1387.4 Q678.55 1387.4 681.605 1392.01 Q684.684 1396.59 684.684 1405.34 Q684.684 1414.07 681.605 1418.68 Q678.55 1423.26 672.74 1423.26 Q666.929 1423.26 663.851 1418.68 Q660.795 1414.07 660.795 1405.34 Q660.795 1396.59 663.851 1392.01 Q666.929 1387.4 672.74 1387.4 Z" fill="#000000" fill-rule="evenodd" fill-opacity="1" /><path clip-path="url(#clip830)" d="M692.902 1416.71 L697.786 1416.71 L697.786 1422.59 L692.902 1422.59 L692.902 1416.71 Z" fill="#000000" fill-rule="evenodd" fill-opacity="1" /><path clip-path="url(#clip830)" d="M717.971 1406.18 Q714.638 1406.18 712.716 1407.96 Q710.818 1409.74 710.818 1412.87 Q710.818 1415.99 712.716 1417.77 Q714.638 1419.56 717.971 1419.56 Q721.304 1419.56 723.225 1417.77 Q725.147 1415.97 725.147 1412.87 Q725.147 1409.74 723.225 1407.96 Q721.327 1406.18 717.971 1406.18 M713.295 1404.19 Q710.286 1403.44 708.596 1401.38 Q706.929 1399.32 706.929 1396.36 Q706.929 1392.22 709.869 1389.81 Q712.832 1387.4 717.971 1387.4 Q723.133 1387.4 726.073 1389.81 Q729.012 1392.22 729.012 1396.36 Q729.012 1399.32 727.323 1401.38 Q725.656 1403.44 722.67 1404.19 Q726.049 1404.97 727.924 1407.26 Q729.823 1409.56 729.823 1412.87 Q729.823 1417.89 726.744 1420.57 Q723.688 1423.26 717.971 1423.26 Q712.253 1423.26 709.175 1420.57 Q706.119 1417.89 706.119 1412.87 Q706.119 1409.56 708.017 1407.26 Q709.915 1404.97 713.295 1404.19 M711.582 1396.8 Q711.582 1399.49 713.249 1400.99 Q714.938 1402.5 717.971 1402.5 Q720.98 1402.5 722.67 1400.99 Q724.383 1399.49 724.383 1396.8 Q724.383 1394.12 722.67 1392.61 Q720.98 1391.11 717.971 1391.11 Q714.938 1391.11 713.249 1392.61 Q711.582 1394.12 711.582 1396.8 Z" fill="#000000" fill-rule="evenodd" fill-opacity="1" /><path clip-path="url(#clip830)" d="M771.534 1391.11 Q767.923 1391.11 766.095 1394.67 Q764.289 1398.21 764.289 1405.34 Q764.289 1412.45 766.095 1416.01 Q767.923 1419.56 771.534 1419.56 Q775.169 1419.56 776.974 1416.01 Q778.803 1412.45 778.803 1405.34 Q778.803 1398.21 776.974 1394.67 Q775.169 1391.11 771.534 1391.11 M771.534 1387.4 Q777.345 1387.4 780.4 1392.01 Q783.479 1396.59 783.479 1405.34 Q783.479 1414.07 780.4 1418.68 Q777.345 1423.26 771.534 1423.26 Q765.724 1423.26 762.646 1418.68 Q759.59 1414.07 759.59 1405.34 Q759.59 1396.59 762.646 1392.01 Q765.724 1387.4 771.534 1387.4 Z" fill="#000000" fill-rule="evenodd" fill-opacity="1" /><path clip-path="url(#clip830)" d="M791.696 1416.71 L796.581 1416.71 L796.581 1422.59 L791.696 1422.59 L791.696 1416.71 Z" fill="#000000" fill-rule="evenodd" fill-opacity="1" /><path clip-path="url(#clip830)" d="M806.905 1421.87 L806.905 1417.61 Q808.664 1418.44 810.469 1418.88 Q812.275 1419.32 814.011 1419.32 Q818.641 1419.32 821.071 1416.22 Q823.525 1413.1 823.872 1406.75 Q822.53 1408.75 820.469 1409.81 Q818.409 1410.87 815.909 1410.87 Q810.724 1410.87 807.692 1407.75 Q804.682 1404.6 804.682 1399.16 Q804.682 1393.84 807.831 1390.62 Q810.979 1387.4 816.21 1387.4 Q822.205 1387.4 825.354 1392.01 Q828.525 1396.59 828.525 1405.34 Q828.525 1413.51 824.636 1418.4 Q820.77 1423.26 814.219 1423.26 Q812.46 1423.26 810.655 1422.91 Q808.849 1422.56 806.905 1421.87 M816.21 1407.22 Q819.358 1407.22 821.187 1405.06 Q823.039 1402.91 823.039 1399.16 Q823.039 1395.44 821.187 1393.28 Q819.358 1391.11 816.21 1391.11 Q813.062 1391.11 811.21 1393.28 Q809.381 1395.44 809.381 1399.16 Q809.381 1402.91 811.21 1405.06 Q813.062 1407.22 816.21 1407.22 Z" fill="#000000" fill-rule="evenodd" fill-opacity="1" /><path clip-path="url(#clip830)" d="M859.959 1418.65 L867.598 1418.65 L867.598 1392.29 L859.288 1393.95 L859.288 1389.69 L867.552 1388.03 L872.227 1388.03 L872.227 1418.65 L879.866 1418.65 L879.866 1422.59 L859.959 1422.59 L859.959 1418.65 Z" fill="#000000" fill-rule="evenodd" fill-opacity="1" /><path clip-path="url(#clip830)" d="M889.311 1416.71 L894.195 1416.71 L894.195 1422.59 L889.311 1422.59 L889.311 1416.71 Z" fill="#000000" fill-rule="evenodd" fill-opacity="1" /><path clip-path="url(#clip830)" d="M914.38 1391.11 Q910.769 1391.11 908.94 1394.67 Q907.135 1398.21 907.135 1405.34 Q907.135 1412.45 908.94 1416.01 Q910.769 1419.56 914.38 1419.56 Q918.014 1419.56 919.82 1416.01 Q921.648 1412.45 921.648 1405.34 Q921.648 1398.21 919.82 1394.67 Q918.014 1391.11 914.38 1391.11 M914.38 1387.4 Q920.19 1387.4 923.246 1392.01 Q926.324 1396.59 926.324 1405.34 Q926.324 1414.07 923.246 1418.68 Q920.19 1423.26 914.38 1423.26 Q908.57 1423.26 905.491 1418.68 Q902.436 1414.07 902.436 1405.34 Q902.436 1396.59 905.491 1392.01 Q908.57 1387.4 914.38 1387.4 Z" fill="#000000" fill-rule="evenodd" fill-opacity="1" /><path clip-path="url(#clip830)" d="M959.321 1418.65 L966.96 1418.65 L966.96 1392.29 L958.65 1393.95 L958.65 1389.69 L966.913 1388.03 L971.589 1388.03 L971.589 1418.65 L979.228 1418.65 L979.228 1422.59 L959.321 1422.59 L959.321 1418.65 Z" fill="#000000" fill-rule="evenodd" fill-opacity="1" /><path clip-path="url(#clip830)" d="M988.673 1416.71 L993.557 1416.71 L993.557 1422.59 L988.673 1422.59 L988.673 1416.71 Z" fill="#000000" fill-rule="evenodd" fill-opacity="1" /><path clip-path="url(#clip830)" d="M1004.55 1418.65 L1012.19 1418.65 L1012.19 1392.29 L1003.88 1393.95 L1003.88 1389.69 L1012.14 1388.03 L1016.82 1388.03 L1016.82 1418.65 L1024.46 1418.65 L1024.46 1422.59 L1004.55 1422.59 L1004.55 1418.65 Z" fill="#000000" fill-rule="evenodd" fill-opacity="1" /><path clip-path="url(#clip830)" d="M687.026 1475.77 Q688.967 1472.52 693.773 1469.66 Q695.651 1468.54 701.444 1468.54 Q707.937 1468.54 711.979 1473.7 Q716.053 1478.86 716.053 1487.26 Q716.053 1495.66 711.979 1500.82 Q707.937 1505.97 701.444 1505.97 Q697.529 1505.97 694.696 1504.45 Q691.896 1502.89 690.049 1499.7 L690.049 1518.61 L684.161 1518.61 L684.161 1487.58 Q684.161 1480.23 687.026 1475.77 M709.974 1487.26 Q709.974 1480.8 707.301 1477.14 Q704.659 1473.45 700.012 1473.45 Q695.365 1473.45 692.691 1477.14 Q690.049 1480.8 690.049 1487.26 Q690.049 1493.72 692.691 1497.41 Q695.365 1501.07 700.012 1501.07 Q704.659 1501.07 707.301 1497.41 Q709.974 1493.72 709.974 1487.26 Z" fill="#000000" fill-rule="evenodd" fill-opacity="1" /><polyline clip-path="url(#clip832)" style="stroke:#000000; stroke-linecap:butt; stroke-linejoin:round; stroke-width:2; stroke-opacity:0.1; fill:none" points="
  310.451,1326.97 1089.76,1326.97 
  "/>
<polyline clip-path="url(#clip832)" style="stroke:#000000; stroke-linecap:butt; stroke-linejoin:round; stroke-width:2; stroke-opacity:0.1; fill:none" points="
  310.451,1050.15 1089.76,1050.15 
  "/>
<polyline clip-path="url(#clip832)" style="stroke:#000000; stroke-linecap:butt; stroke-linejoin:round; stroke-width:2; stroke-opacity:0.1; fill:none" points="
  310.451,773.326 1089.76,773.326 
  "/>
<polyline clip-path="url(#clip832)" style="stroke:#000000; stroke-linecap:butt; stroke-linejoin:round; stroke-width:2; stroke-opacity:0.1; fill:none" points="
  310.451,496.504 1089.76,496.504 
  "/>
<polyline clip-path="url(#clip832)" style="stroke:#000000; stroke-linecap:butt; stroke-linejoin:round; stroke-width:2; stroke-opacity:0.1; fill:none" points="
  310.451,219.683 1089.76,219.683 
  "/>
<polyline clip-path="url(#clip830)" style="stroke:#000000; stroke-linecap:butt; stroke-linejoin:round; stroke-width:4; stroke-opacity:1; fill:none" points="
  310.451,1360.19 310.451,186.464 
  "/>
<polyline clip-path="url(#clip830)" style="stroke:#000000; stroke-linecap:butt; stroke-linejoin:round; stroke-width:4; stroke-opacity:1; fill:none" points="
  310.451,1326.97 329.348,1326.97 
  "/>
<polyline clip-path="url(#clip830)" style="stroke:#000000; stroke-linecap:butt; stroke-linejoin:round; stroke-width:4; stroke-opacity:1; fill:none" points="
  310.451,1050.15 329.348,1050.15 
  "/>
<polyline clip-path="url(#clip830)" style="stroke:#000000; stroke-linecap:butt; stroke-linejoin:round; stroke-width:4; stroke-opacity:1; fill:none" points="
  310.451,773.326 329.348,773.326 
  "/>
<polyline clip-path="url(#clip830)" style="stroke:#000000; stroke-linecap:butt; stroke-linejoin:round; stroke-width:4; stroke-opacity:1; fill:none" points="
  310.451,496.504 329.348,496.504 
  "/>
<polyline clip-path="url(#clip830)" style="stroke:#000000; stroke-linecap:butt; stroke-linejoin:round; stroke-width:4; stroke-opacity:1; fill:none" points="
  310.451,219.683 329.348,219.683 
  "/>
<path clip-path="url(#clip830)" d="M217.275 1312.77 Q213.664 1312.77 211.835 1316.33 Q210.03 1319.87 210.03 1327 Q210.03 1334.11 211.835 1337.68 Q213.664 1341.22 217.275 1341.22 Q220.909 1341.22 222.715 1337.68 Q224.544 1334.11 224.544 1327 Q224.544 1319.87 222.715 1316.33 Q220.909 1312.77 217.275 1312.77 M217.275 1309.06 Q223.085 1309.06 226.141 1313.67 Q229.22 1318.25 229.22 1327 Q229.22 1335.73 226.141 1340.34 Q223.085 1344.92 217.275 1344.92 Q211.465 1344.92 208.386 1340.34 Q205.331 1335.73 205.331 1327 Q205.331 1318.25 208.386 1313.67 Q211.465 1309.06 217.275 1309.06 Z" fill="#000000" fill-rule="evenodd" fill-opacity="1" /><path clip-path="url(#clip830)" d="M237.437 1338.37 L242.321 1338.37 L242.321 1344.25 L237.437 1344.25 L237.437 1338.37 Z" fill="#000000" fill-rule="evenodd" fill-opacity="1" /><path clip-path="url(#clip830)" d="M262.506 1312.77 Q258.895 1312.77 257.067 1316.33 Q255.261 1319.87 255.261 1327 Q255.261 1334.11 257.067 1337.68 Q258.895 1341.22 262.506 1341.22 Q266.141 1341.22 267.946 1337.68 Q269.775 1334.11 269.775 1327 Q269.775 1319.87 267.946 1316.33 Q266.141 1312.77 262.506 1312.77 M262.506 1309.06 Q268.317 1309.06 271.372 1313.67 Q274.451 1318.25 274.451 1327 Q274.451 1335.73 271.372 1340.34 Q268.317 1344.92 262.506 1344.92 Q256.696 1344.92 253.618 1340.34 Q250.562 1335.73 250.562 1327 Q250.562 1318.25 253.618 1313.67 Q256.696 1309.06 262.506 1309.06 Z" fill="#000000" fill-rule="evenodd" fill-opacity="1" /><path clip-path="url(#clip830)" d="M212.298 1063.49 L228.618 1063.49 L228.618 1067.43 L206.673 1067.43 L206.673 1063.49 Q209.335 1060.74 213.919 1056.11 Q218.525 1051.46 219.706 1050.11 Q221.951 1047.59 222.831 1045.85 Q223.734 1044.09 223.734 1042.4 Q223.734 1039.65 221.789 1037.91 Q219.868 1036.18 216.766 1036.18 Q214.567 1036.18 212.113 1036.94 Q209.683 1037.71 206.905 1039.26 L206.905 1034.53 Q209.729 1033.4 212.183 1032.82 Q214.636 1032.24 216.673 1032.24 Q222.044 1032.24 225.238 1034.93 Q228.433 1037.61 228.433 1042.1 Q228.433 1044.23 227.622 1046.15 Q226.835 1048.05 224.729 1050.65 Q224.15 1051.32 221.048 1054.53 Q217.947 1057.73 212.298 1063.49 Z" fill="#000000" fill-rule="evenodd" fill-opacity="1" /><path clip-path="url(#clip830)" d="M238.433 1061.55 L243.317 1061.55 L243.317 1067.43 L238.433 1067.43 L238.433 1061.55 Z" fill="#000000" fill-rule="evenodd" fill-opacity="1" /><path clip-path="url(#clip830)" d="M253.548 1032.87 L271.905 1032.87 L271.905 1036.8 L257.831 1036.8 L257.831 1045.27 Q258.849 1044.93 259.868 1044.77 Q260.886 1044.58 261.905 1044.58 Q267.692 1044.58 271.071 1047.75 Q274.451 1050.92 274.451 1056.34 Q274.451 1061.92 270.979 1065.02 Q267.506 1068.1 261.187 1068.1 Q259.011 1068.1 256.743 1067.73 Q254.497 1067.36 252.09 1066.62 L252.09 1061.92 Q254.173 1063.05 256.395 1063.61 Q258.618 1064.16 261.094 1064.16 Q265.099 1064.16 267.437 1062.06 Q269.775 1059.95 269.775 1056.34 Q269.775 1052.73 267.437 1050.62 Q265.099 1048.52 261.094 1048.52 Q259.219 1048.52 257.344 1048.93 Q255.493 1049.35 253.548 1050.23 L253.548 1032.87 Z" fill="#000000" fill-rule="evenodd" fill-opacity="1" /><path clip-path="url(#clip830)" d="M207.322 756.046 L225.678 756.046 L225.678 759.981 L211.604 759.981 L211.604 768.453 Q212.622 768.106 213.641 767.944 Q214.659 767.759 215.678 767.759 Q221.465 767.759 224.845 770.93 Q228.224 774.101 228.224 779.518 Q228.224 785.097 224.752 788.199 Q221.28 791.277 214.96 791.277 Q212.785 791.277 210.516 790.907 Q208.271 790.537 205.863 789.796 L205.863 785.097 Q207.947 786.231 210.169 786.787 Q212.391 787.342 214.868 787.342 Q218.872 787.342 221.21 785.236 Q223.548 783.129 223.548 779.518 Q223.548 775.907 221.21 773.801 Q218.872 771.694 214.868 771.694 Q212.993 771.694 211.118 772.111 Q209.266 772.527 207.322 773.407 L207.322 756.046 Z" fill="#000000" fill-rule="evenodd" fill-opacity="1" /><path clip-path="url(#clip830)" d="M237.437 784.726 L242.321 784.726 L242.321 790.606 L237.437 790.606 L237.437 784.726 Z" fill="#000000" fill-rule="evenodd" fill-opacity="1" /><path clip-path="url(#clip830)" d="M262.506 759.125 Q258.895 759.125 257.067 762.689 Q255.261 766.231 255.261 773.361 Q255.261 780.467 257.067 784.032 Q258.895 787.574 262.506 787.574 Q266.141 787.574 267.946 784.032 Q269.775 780.467 269.775 773.361 Q269.775 766.231 267.946 762.689 Q266.141 759.125 262.506 759.125 M262.506 755.421 Q268.317 755.421 271.372 760.027 Q274.451 764.611 274.451 773.361 Q274.451 782.088 271.372 786.694 Q268.317 791.277 262.506 791.277 Q256.696 791.277 253.618 786.694 Q250.562 782.088 250.562 773.361 Q250.562 764.611 253.618 760.027 Q256.696 755.421 262.506 755.421 Z" fill="#000000" fill-rule="evenodd" fill-opacity="1" /><path clip-path="url(#clip830)" d="M207.09 479.224 L229.312 479.224 L229.312 481.215 L216.766 513.784 L211.882 513.784 L223.687 483.16 L207.09 483.16 L207.09 479.224 Z" fill="#000000" fill-rule="evenodd" fill-opacity="1" /><path clip-path="url(#clip830)" d="M238.433 507.905 L243.317 507.905 L243.317 513.784 L238.433 513.784 L238.433 507.905 Z" fill="#000000" fill-rule="evenodd" fill-opacity="1" /><path clip-path="url(#clip830)" d="M253.548 479.224 L271.905 479.224 L271.905 483.16 L257.831 483.16 L257.831 491.632 Q258.849 491.285 259.868 491.122 Q260.886 490.937 261.905 490.937 Q267.692 490.937 271.071 494.109 Q274.451 497.28 274.451 502.697 Q274.451 508.275 270.979 511.377 Q267.506 514.456 261.187 514.456 Q259.011 514.456 256.743 514.085 Q254.497 513.715 252.09 512.974 L252.09 508.275 Q254.173 509.409 256.395 509.965 Q258.618 510.521 261.094 510.521 Q265.099 510.521 267.437 508.414 Q269.775 506.308 269.775 502.697 Q269.775 499.085 267.437 496.979 Q265.099 494.872 261.094 494.872 Q259.219 494.872 257.344 495.289 Q255.493 495.706 253.548 496.585 L253.548 479.224 Z" fill="#000000" fill-rule="evenodd" fill-opacity="1" /><path clip-path="url(#clip830)" d="M177.924 233.028 L185.562 233.028 L185.562 206.662 L177.252 208.329 L177.252 204.069 L185.516 202.403 L190.192 202.403 L190.192 233.028 L197.831 233.028 L197.831 236.963 L177.924 236.963 L177.924 233.028 Z" fill="#000000" fill-rule="evenodd" fill-opacity="1" /><path clip-path="url(#clip830)" d="M217.275 205.482 Q213.664 205.482 211.835 209.046 Q210.03 212.588 210.03 219.718 Q210.03 226.824 211.835 230.389 Q213.664 233.93 217.275 233.93 Q220.909 233.93 222.715 230.389 Q224.544 226.824 224.544 219.718 Q224.544 212.588 222.715 209.046 Q220.909 205.482 217.275 205.482 M217.275 201.778 Q223.085 201.778 226.141 206.384 Q229.22 210.968 229.22 219.718 Q229.22 228.444 226.141 233.051 Q223.085 237.634 217.275 237.634 Q211.465 237.634 208.386 233.051 Q205.331 228.444 205.331 219.718 Q205.331 210.968 208.386 206.384 Q211.465 201.778 217.275 201.778 Z" fill="#000000" fill-rule="evenodd" fill-opacity="1" /><path clip-path="url(#clip830)" d="M237.437 231.083 L242.321 231.083 L242.321 236.963 L237.437 236.963 L237.437 231.083 Z" fill="#000000" fill-rule="evenodd" fill-opacity="1" /><path clip-path="url(#clip830)" d="M262.506 205.482 Q258.895 205.482 257.067 209.046 Q255.261 212.588 255.261 219.718 Q255.261 226.824 257.067 230.389 Q258.895 233.93 262.506 233.93 Q266.141 233.93 267.946 230.389 Q269.775 226.824 269.775 219.718 Q269.775 212.588 267.946 209.046 Q266.141 205.482 262.506 205.482 M262.506 201.778 Q268.317 201.778 271.372 206.384 Q274.451 210.968 274.451 219.718 Q274.451 228.444 271.372 233.051 Q268.317 237.634 262.506 237.634 Q256.696 237.634 253.618 233.051 Q250.562 228.444 250.562 219.718 Q250.562 210.968 253.618 206.384 Q256.696 201.778 262.506 201.778 Z" fill="#000000" fill-rule="evenodd" fill-opacity="1" /><path clip-path="url(#clip830)" d="M91.3483 871.851 L91.3483 844.033 L96.6955 844.033 L122.317 866.058 L122.317 844.033 L126.996 844.033 L126.996 872.647 L121.649 872.647 L96.0271 850.622 L96.0271 871.851 L91.3483 871.851 Z" fill="#000000" fill-rule="evenodd" fill-opacity="1" /><path clip-path="url(#clip830)" d="M77.5347 800.301 Q84.8553 804.566 92.0167 806.635 Q99.1781 808.703 106.531 808.703 Q113.883 808.703 121.108 806.635 Q128.301 804.534 135.59 800.301 L135.59 805.393 Q128.11 810.168 120.885 812.555 Q113.66 814.91 106.531 814.91 Q99.4328 814.91 92.2395 812.555 Q85.0463 810.199 77.5347 805.393 L77.5347 800.301 Z" fill="#000000" fill-rule="evenodd" fill-opacity="1" /><path clip-path="url(#clip830)" d="M77.4711 789.161 L77.4711 783.272 L106.722 783.272 L91.3483 765.799 L91.3483 758.319 L108.026 777.225 L126.996 757.523 L126.996 765.162 L109.586 783.272 L126.996 783.272 L126.996 789.161 L77.4711 789.161 Z" fill="#000000" fill-rule="evenodd" fill-opacity="1" /><path clip-path="url(#clip830)" d="M98.1915 723.435 Q94.2447 721.239 92.3668 718.183 Q90.489 715.128 90.489 710.99 Q90.489 705.42 94.4039 702.396 Q98.2869 699.372 105.48 699.372 L126.996 699.372 L126.996 705.261 L105.671 705.261 Q100.547 705.261 98.0641 707.075 Q95.5815 708.889 95.5815 712.613 Q95.5815 717.165 98.6052 719.806 Q101.629 722.448 106.849 722.448 L126.996 722.448 L126.996 728.336 L105.671 728.336 Q100.515 728.336 98.0641 730.151 Q95.5815 731.965 95.5815 735.752 Q95.5815 740.24 98.6371 742.882 Q101.661 745.524 106.849 745.524 L126.996 745.524 L126.996 751.412 L91.3483 751.412 L91.3483 745.524 L96.8865 745.524 Q93.6082 743.519 92.0486 740.718 Q90.489 737.917 90.489 734.065 Q90.489 730.182 92.4623 727.477 Q94.4357 724.74 98.1915 723.435 Z" fill="#000000" fill-rule="evenodd" fill-opacity="1" /><path clip-path="url(#clip830)" d="M77.5347 688.614 L77.5347 683.522 Q85.0463 678.747 92.2395 676.392 Q99.4328 674.005 106.531 674.005 Q113.66 674.005 120.885 676.392 Q128.11 678.747 135.59 683.522 L135.59 688.614 Q128.301 684.381 121.108 682.312 Q113.883 680.212 106.531 680.212 Q99.1781 680.212 92.0167 682.312 Q84.8553 684.381 77.5347 688.614 Z" fill="#000000" fill-rule="evenodd" fill-opacity="1" /><path clip-path="url(#clip830)" d="M683.458 35.3077 Q685.929 31.1758 692.046 27.5299 Q694.436 26.1121 701.809 26.1121 Q710.073 26.1121 715.217 32.6746 Q720.402 39.2371 720.402 49.9314 Q720.402 60.6258 715.217 67.1883 Q710.073 73.7508 701.809 73.7508 Q696.826 73.7508 693.221 71.8063 Q689.656 69.8214 687.306 65.7705 L687.306 89.8329 L679.812 89.8329 L679.812 50.3365 Q679.812 40.9789 683.458 35.3077 M712.665 49.9314 Q712.665 41.7081 709.262 37.0496 Q705.9 32.3505 699.986 32.3505 Q694.071 32.3505 690.669 37.0496 Q687.306 41.7081 687.306 49.9314 Q687.306 58.1548 690.669 62.8538 Q694.071 67.5124 699.986 67.5124 Q705.9 67.5124 709.262 62.8538 Q712.665 58.1548 712.665 49.9314 Z" fill="#000000" fill-rule="evenodd" fill-opacity="1" /><polyline clip-path="url(#clip832)" style="stroke:#009af9; stroke-linecap:butt; stroke-linejoin:round; stroke-width:4; stroke-opacity:1; fill:none" points="
  1065.31,1324.2 1060.53,1318.66 1055.76,1313.13 1051,1307.59 1046.26,1302.06 1041.52,1296.52 1036.8,1290.98 1032.09,1285.45 1027.39,1279.91 1022.7,1274.37 
  1018.02,1268.84 1013.36,1263.3 1008.71,1257.76 1004.07,1252.23 999.439,1246.69 994.822,1241.15 990.217,1235.62 985.623,1230.08 981.042,1224.55 976.471,1219.01 
  971.913,1213.47 967.366,1207.94 962.831,1202.4 958.307,1196.86 953.795,1191.33 949.295,1185.79 944.806,1180.25 940.329,1174.72 935.863,1169.18 931.409,1163.64 
  926.967,1158.11 922.536,1152.57 918.117,1147.04 913.709,1141.5 909.313,1135.96 904.928,1130.43 900.555,1124.89 896.193,1119.35 891.843,1113.82 887.504,1108.28 
  883.177,1102.74 878.861,1097.21 874.557,1091.67 870.264,1086.13 865.982,1080.6 861.712,1075.06 857.454,1069.53 853.207,1063.99 848.971,1058.45 844.746,1052.92 
  840.533,1047.38 836.331,1041.84 832.141,1036.31 827.962,1030.77 823.794,1025.23 819.638,1019.7 815.492,1014.16 811.359,1008.62 807.236,1003.09 803.125,997.551 
  799.025,992.015 794.936,986.479 790.859,980.942 786.792,975.406 782.737,969.869 778.693,964.333 774.661,958.796 770.639,953.26 766.629,947.724 762.63,942.187 
  758.642,936.651 754.665,931.114 750.7,925.578 746.745,920.041 742.802,914.505 738.869,908.969 734.948,903.432 731.038,897.896 727.139,892.359 723.251,886.823 
  719.374,881.286 715.509,875.75 711.654,870.214 707.81,864.677 703.977,859.141 700.155,853.604 696.345,848.068 692.545,842.531 688.756,836.995 684.978,831.459 
  681.211,825.922 677.455,820.386 673.71,814.849 669.976,809.313 666.253,803.776 662.541,798.24 658.839,792.703 655.149,787.167 651.469,781.631 647.8,776.094 
  644.142,770.558 640.495,765.021 636.859,759.485 633.233,753.948 629.619,748.412 626.015,742.876 622.422,737.339 618.839,731.803 615.268,726.266 611.707,720.73 
  608.157,715.193 604.618,709.657 601.089,704.121 597.571,698.584 594.064,693.048 590.567,687.511 587.081,681.975 583.606,676.438 580.141,670.902 576.687,665.366 
  573.244,659.829 569.811,654.293 566.389,648.756 562.978,643.22 559.577,637.683 556.186,632.147 552.807,626.611 549.437,621.074 546.079,615.538 542.731,610.001 
  539.393,604.465 536.066,598.928 532.749,593.392 529.443,587.856 526.147,582.319 522.862,576.783 519.587,571.246 516.323,565.71 513.069,560.173 509.826,554.637 
  506.593,549.101 503.37,543.564 500.158,538.028 496.956,532.491 493.764,526.955 490.583,521.418 487.412,515.882 484.252,510.345 481.102,504.809 477.962,499.273 
  474.832,493.736 471.713,488.2 468.604,482.663 465.505,477.127 462.417,471.59 459.338,466.054 456.27,460.518 453.212,454.981 450.165,449.445 447.127,443.908 
  444.1,438.372 441.083,432.835 438.076,427.299 435.079,421.763 432.093,416.226 429.116,410.69 426.15,405.153 423.193,399.617 420.247,394.08 417.311,388.544 
  414.385,383.008 411.469,377.471 408.563,371.935 405.667,366.398 402.781,360.862 399.905,355.325 397.04,349.789 394.184,344.253 391.338,338.716 388.502,333.18 
  385.676,327.643 382.86,322.107 380.052,316.57 377.252,311.034 374.463,305.498 371.684,299.961 368.914,294.425 366.155,288.888 363.406,283.352 360.667,277.815 
  357.938,272.279 355.219,266.743 352.51,261.206 349.811,255.67 347.121,250.133 344.442,244.597 341.773,239.06 339.113,233.524 336.463,227.987 333.823,222.451 
  
  "/>
<polyline clip-path="url(#clip832)" style="stroke:#e26f46; stroke-linecap:butt; stroke-linejoin:round; stroke-width:4; stroke-opacity:1; fill:none" points="
  1067.71,1326.97 1062.92,1321.43 1058.14,1315.9 1053.38,1310.36 1048.63,1304.82 1043.89,1299.29 1039.16,1293.75 1034.44,1288.21 1029.74,1282.68 1025.04,1277.14 
  1020.36,1271.6 1015.69,1266.07 1011.03,1260.53 1006.39,1255 1001.75,1249.46 997.129,1243.92 992.518,1238.39 987.919,1232.85 983.331,1227.31 978.755,1221.78 
  974.191,1216.24 969.638,1210.7 965.097,1205.17 960.567,1199.63 956.05,1194.09 951.543,1188.56 947.049,1183.02 942.566,1177.49 938.095,1171.95 933.635,1166.41 
  929.187,1160.88 924.75,1155.34 920.325,1149.8 915.911,1144.27 911.509,1138.73 907.119,1133.19 902.74,1127.66 898.373,1122.12 894.017,1116.58 889.672,1111.05 
  885.339,1105.51 881.018,1099.98 876.708,1094.44 872.409,1088.9 868.122,1083.37 863.846,1077.83 859.582,1072.29 855.329,1066.76 851.087,1061.22 846.857,1055.68 
  842.638,1050.15 838.431,1044.61 834.235,1039.07 830.05,1033.54 825.877,1028 821.714,1022.47 817.564,1016.93 813.424,1011.39 809.296,1005.86 805.179,1000.32 
  801.073,994.783 796.979,989.247 792.896,983.71 788.824,978.174 784.763,972.638 780.714,967.101 776.676,961.565 772.649,956.028 768.633,950.492 764.628,944.955 
  760.635,939.419 756.652,933.882 752.681,928.346 748.721,922.81 744.772,917.273 740.834,911.737 736.907,906.2 732.992,900.664 729.087,895.127 725.194,889.591 
  721.311,884.055 717.44,878.518 713.58,872.982 709.73,867.445 705.892,861.909 702.065,856.372 698.249,850.836 694.443,845.3 690.649,839.763 686.866,834.227 
  683.093,828.69 679.332,823.154 675.582,817.617 671.842,812.081 668.113,806.545 664.396,801.008 660.689,795.472 656.993,789.935 653.308,784.399 649.633,778.862 
  645.97,773.326 642.317,767.79 638.676,762.253 635.045,756.717 631.425,751.18 627.816,745.644 624.217,740.107 620.629,734.571 617.052,729.035 613.486,723.498 
  609.931,717.962 606.386,712.425 602.852,706.889 599.329,701.352 595.816,695.816 592.314,690.28 588.823,684.743 585.342,679.207 581.872,673.67 578.413,668.134 
  574.964,662.597 571.526,657.061 568.099,651.524 564.682,645.988 561.276,640.452 557.88,634.915 554.495,629.379 551.121,623.842 547.757,618.306 544.403,612.769 
  541.06,607.233 537.728,601.697 534.406,596.16 531.095,590.624 527.794,585.087 524.503,579.551 521.224,574.014 517.954,568.478 514.695,562.942 511.446,557.405 
  508.208,551.869 504.98,546.332 501.763,540.796 498.556,535.259 495.359,529.723 492.172,524.187 488.996,518.65 485.831,513.114 482.675,507.577 479.53,502.041 
  476.396,496.504 473.271,490.968 470.157,485.432 467.053,479.895 463.96,474.359 460.876,468.822 457.803,463.286 454.74,457.749 451.687,452.213 448.645,446.677 
  445.612,441.14 442.59,435.604 439.578,430.067 436.576,424.531 433.585,418.994 430.603,413.458 427.632,407.922 424.67,402.385 421.719,396.849 418.778,391.312 
  415.847,385.776 412.926,380.239 410.015,374.703 407.114,369.166 404.223,363.63 401.342,358.094 398.471,352.557 395.61,347.021 392.759,341.484 389.918,335.948 
  387.087,330.411 384.266,324.875 381.455,319.339 378.651,313.802 375.856,308.266 373.072,302.729 370.298,297.193 367.534,291.656 364.78,286.12 362.035,280.584 
  359.301,275.047 356.577,269.511 353.863,263.974 351.159,258.438 348.465,252.901 345.781,247.365 343.106,241.829 340.442,236.292 337.787,230.756 335.142,225.219 
  332.507,219.683 
  "/>
<path clip-path="url(#clip830)" d="
M804.906 381.108 L1063.79 381.108 L1063.79 225.588 L804.906 225.588  Z
  " fill="#ffffff" fill-rule="evenodd" fill-opacity="1"/>
<polyline clip-path="url(#clip830)" style="stroke:#000000; stroke-linecap:butt; stroke-linejoin:round; stroke-width:4; stroke-opacity:1; fill:none" points="
  804.906,381.108 1063.79,381.108 1063.79,225.588 804.906,225.588 804.906,381.108 
  "/>
<polyline clip-path="url(#clip830)" style="stroke:#009af9; stroke-linecap:butt; stroke-linejoin:round; stroke-width:4; stroke-opacity:1; fill:none" points="
  813.565,277.428 865.519,277.428 
  "/>
<path clip-path="url(#clip830)" d="M894.687 269.778 L894.687 273.759 Q892.881 272.764 891.053 272.278 Q889.247 271.769 887.395 271.769 Q883.252 271.769 880.96 274.408 Q878.669 277.023 878.669 281.769 Q878.669 286.514 880.96 289.153 Q883.252 291.769 887.395 291.769 Q889.247 291.769 891.053 291.282 Q892.881 290.773 894.687 289.778 L894.687 293.713 Q892.905 294.546 890.983 294.963 Q889.085 295.38 886.932 295.38 Q881.076 295.38 877.627 291.699 Q874.178 288.019 874.178 281.769 Q874.178 275.426 877.65 271.792 Q881.145 268.158 887.21 268.158 Q889.178 268.158 891.053 268.574 Q892.928 268.968 894.687 269.778 Z" fill="#000000" fill-rule="evenodd" fill-opacity="1" /><path clip-path="url(#clip830)" d="M924.27 280.681 L924.27 282.764 L904.687 282.764 Q904.965 287.162 907.326 289.477 Q909.71 291.769 913.946 291.769 Q916.4 291.769 918.692 291.167 Q921.006 290.565 923.275 289.361 L923.275 293.389 Q920.983 294.361 918.576 294.87 Q916.168 295.38 913.692 295.38 Q907.488 295.38 903.854 291.769 Q900.243 288.157 900.243 282 Q900.243 275.634 903.668 271.908 Q907.118 268.158 912.951 268.158 Q918.182 268.158 921.215 271.537 Q924.27 274.894 924.27 280.681 M920.011 279.431 Q919.965 275.935 918.043 273.852 Q916.145 271.769 912.997 271.769 Q909.432 271.769 907.28 273.783 Q905.15 275.796 904.826 279.454 L920.011 279.431 Z" fill="#000000" fill-rule="evenodd" fill-opacity="1" /><path clip-path="url(#clip830)" d="M952.812 279.06 L952.812 294.708 L948.552 294.708 L948.552 279.199 Q948.552 275.519 947.117 273.69 Q945.682 271.861 942.812 271.861 Q939.363 271.861 937.372 274.06 Q935.381 276.259 935.381 280.056 L935.381 294.708 L931.099 294.708 L931.099 268.783 L935.381 268.783 L935.381 272.81 Q936.909 270.472 938.969 269.315 Q941.053 268.158 943.761 268.158 Q948.228 268.158 950.52 270.935 Q952.812 273.69 952.812 279.06 Z" fill="#000000" fill-rule="evenodd" fill-opacity="1" /><path clip-path="url(#clip830)" d="M965.52 261.422 L965.52 268.783 L974.293 268.783 L974.293 272.093 L965.52 272.093 L965.52 286.167 Q965.52 289.338 966.376 290.241 Q967.256 291.144 969.918 291.144 L974.293 291.144 L974.293 294.708 L969.918 294.708 Q964.988 294.708 963.113 292.88 Q961.238 291.028 961.238 286.167 L961.238 272.093 L958.113 272.093 L958.113 268.783 L961.238 268.783 L961.238 261.422 L965.52 261.422 Z" fill="#000000" fill-rule="evenodd" fill-opacity="1" /><path clip-path="url(#clip830)" d="M1002.07 280.681 L1002.07 282.764 L982.487 282.764 Q982.765 287.162 985.126 289.477 Q987.511 291.769 991.747 291.769 Q994.2 291.769 996.492 291.167 Q998.807 290.565 1001.08 289.361 L1001.08 293.389 Q998.784 294.361 996.376 294.87 Q993.969 295.38 991.492 295.38 Q985.288 295.38 981.654 291.769 Q978.043 288.157 978.043 282 Q978.043 275.634 981.469 271.908 Q984.918 268.158 990.751 268.158 Q995.983 268.158 999.015 271.537 Q1002.07 274.894 1002.07 280.681 M997.811 279.431 Q997.765 275.935 995.844 273.852 Q993.946 271.769 990.798 271.769 Q987.233 271.769 985.08 273.783 Q982.95 275.796 982.626 279.454 L997.811 279.431 Z" fill="#000000" fill-rule="evenodd" fill-opacity="1" /><path clip-path="url(#clip830)" d="M1024.08 272.764 Q1023.37 272.347 1022.51 272.162 Q1021.68 271.954 1020.66 271.954 Q1017.05 271.954 1015.1 274.315 Q1013.18 276.653 1013.18 281.051 L1013.18 294.708 L1008.9 294.708 L1008.9 268.783 L1013.18 268.783 L1013.18 272.81 Q1014.52 270.449 1016.68 269.315 Q1018.83 268.158 1021.91 268.158 Q1022.35 268.158 1022.88 268.227 Q1023.41 268.273 1024.06 268.389 L1024.08 272.764 Z" fill="#000000" fill-rule="evenodd" fill-opacity="1" /><path clip-path="url(#clip830)" d="M1045.08 269.546 L1045.08 273.574 Q1043.27 272.648 1041.33 272.185 Q1039.39 271.722 1037.3 271.722 Q1034.13 271.722 1032.53 272.695 Q1030.96 273.667 1030.96 275.611 Q1030.96 277.093 1032.09 277.949 Q1033.23 278.783 1036.65 279.546 L1038.11 279.87 Q1042.65 280.843 1044.55 282.625 Q1046.47 284.384 1046.47 287.556 Q1046.47 291.167 1043.6 293.273 Q1040.75 295.38 1035.75 295.38 Q1033.67 295.38 1031.4 294.963 Q1029.15 294.569 1026.65 293.759 L1026.65 289.361 Q1029.02 290.588 1031.31 291.213 Q1033.6 291.815 1035.84 291.815 Q1038.85 291.815 1040.47 290.796 Q1042.09 289.755 1042.09 287.88 Q1042.09 286.144 1040.91 285.218 Q1039.76 284.292 1035.8 283.435 L1034.32 283.088 Q1030.36 282.255 1028.6 280.542 Q1026.84 278.806 1026.84 275.796 Q1026.84 272.139 1029.43 270.148 Q1032.02 268.158 1036.79 268.158 Q1039.15 268.158 1041.24 268.505 Q1043.32 268.852 1045.08 269.546 Z" fill="#000000" fill-rule="evenodd" fill-opacity="1" /><polyline clip-path="url(#clip830)" style="stroke:#e26f46; stroke-linecap:butt; stroke-linejoin:round; stroke-width:4; stroke-opacity:1; fill:none" points="
  813.565,329.268 865.519,329.268 
  "/>
<path clip-path="url(#clip830)" d="M890.682 310.53 L890.682 314.072 L886.608 314.072 Q884.317 314.072 883.414 314.998 Q882.534 315.924 882.534 318.331 L882.534 320.623 L889.548 320.623 L889.548 323.933 L882.534 323.933 L882.534 346.548 L878.252 346.548 L878.252 323.933 L874.178 323.933 L874.178 320.623 L878.252 320.623 L878.252 318.817 Q878.252 314.488 880.266 312.521 Q882.28 310.53 886.655 310.53 L890.682 310.53 Z" fill="#000000" fill-rule="evenodd" fill-opacity="1" /><path clip-path="url(#clip830)" d="M906.03 333.516 Q900.868 333.516 898.877 334.697 Q896.886 335.877 896.886 338.724 Q896.886 340.993 898.368 342.335 Q899.872 343.655 902.442 343.655 Q905.983 343.655 908.113 341.155 Q910.266 338.632 910.266 334.465 L910.266 333.516 L906.03 333.516 M914.525 331.757 L914.525 346.548 L910.266 346.548 L910.266 342.613 Q908.807 344.974 906.631 346.109 Q904.455 347.22 901.307 347.22 Q897.326 347.22 894.965 344.997 Q892.627 342.752 892.627 339.002 Q892.627 334.627 895.543 332.405 Q898.483 330.183 904.293 330.183 L910.266 330.183 L910.266 329.766 Q910.266 326.826 908.321 325.229 Q906.4 323.609 902.905 323.609 Q900.682 323.609 898.576 324.141 Q896.469 324.673 894.525 325.738 L894.525 321.803 Q896.863 320.9 899.062 320.461 Q901.261 319.998 903.344 319.998 Q908.969 319.998 911.747 322.914 Q914.525 325.831 914.525 331.757 Z" fill="#000000" fill-rule="evenodd" fill-opacity="1" /><path clip-path="url(#clip830)" d="M941.955 321.618 L941.955 325.599 Q940.15 324.604 938.321 324.118 Q936.516 323.609 934.664 323.609 Q930.52 323.609 928.229 326.248 Q925.937 328.863 925.937 333.609 Q925.937 338.354 928.229 340.993 Q930.52 343.609 934.664 343.609 Q936.516 343.609 938.321 343.122 Q940.15 342.613 941.955 341.618 L941.955 345.553 Q940.173 346.386 938.252 346.803 Q936.353 347.22 934.201 347.22 Q928.344 347.22 924.895 343.539 Q921.446 339.859 921.446 333.609 Q921.446 327.266 924.918 323.632 Q928.414 319.998 934.478 319.998 Q936.446 319.998 938.321 320.414 Q940.196 320.808 941.955 321.618 Z" fill="#000000" fill-rule="evenodd" fill-opacity="1" /><path clip-path="url(#clip830)" d="M971.538 332.521 L971.538 334.604 L951.955 334.604 Q952.233 339.002 954.594 341.317 Q956.978 343.609 961.214 343.609 Q963.668 343.609 965.96 343.007 Q968.275 342.405 970.543 341.201 L970.543 345.229 Q968.251 346.201 965.844 346.71 Q963.437 347.22 960.96 347.22 Q954.756 347.22 951.122 343.609 Q947.511 339.997 947.511 333.84 Q947.511 327.474 950.937 323.748 Q954.386 319.998 960.219 319.998 Q965.451 319.998 968.483 323.377 Q971.538 326.734 971.538 332.521 M967.279 331.271 Q967.233 327.775 965.312 325.692 Q963.414 323.609 960.265 323.609 Q956.701 323.609 954.548 325.623 Q952.418 327.636 952.094 331.294 L967.279 331.271 Z" fill="#000000" fill-rule="evenodd" fill-opacity="1" /><path clip-path="url(#clip830)" d="M995.057 321.386 L995.057 325.414 Q993.251 324.488 991.307 324.025 Q989.362 323.562 987.279 323.562 Q984.108 323.562 982.511 324.535 Q980.937 325.507 980.937 327.451 Q980.937 328.933 982.071 329.789 Q983.205 330.623 986.631 331.386 L988.089 331.71 Q992.626 332.683 994.524 334.465 Q996.446 336.224 996.446 339.396 Q996.446 343.007 993.575 345.113 Q990.728 347.22 985.728 347.22 Q983.645 347.22 981.376 346.803 Q979.131 346.409 976.631 345.599 L976.631 341.201 Q978.992 342.428 981.284 343.053 Q983.575 343.655 985.821 343.655 Q988.83 343.655 990.45 342.636 Q992.071 341.595 992.071 339.72 Q992.071 337.984 990.89 337.058 Q989.733 336.132 985.774 335.275 L984.293 334.928 Q980.335 334.095 978.575 332.382 Q976.816 330.646 976.816 327.636 Q976.816 323.979 979.409 321.988 Q982.001 319.998 986.77 319.998 Q989.131 319.998 991.214 320.345 Q993.298 320.692 995.057 321.386 Z" fill="#000000" fill-rule="evenodd" fill-opacity="1" /><path clip-path="url(#clip830)" d="
M1510.45 1360.19 L2289.76 1360.19 L2289.76 186.464 L1510.45 186.464  Z
  " fill="#ffffff" fill-rule="evenodd" fill-opacity="1"/>
<defs>
  <clipPath id="clip833">
    <rect x="1510" y="186" width="780" height="1175"/>
  </clipPath>
</defs>
<polyline clip-path="url(#clip833)" style="stroke:#000000; stroke-linecap:butt; stroke-linejoin:round; stroke-width:2; stroke-opacity:0.1; fill:none" points="
  1682.45,1360.19 1682.45,186.464 
  "/>
<polyline clip-path="url(#clip833)" style="stroke:#000000; stroke-linecap:butt; stroke-linejoin:round; stroke-width:2; stroke-opacity:0.1; fill:none" points="
  1877.54,1360.19 1877.54,186.464 
  "/>
<polyline clip-path="url(#clip833)" style="stroke:#000000; stroke-linecap:butt; stroke-linejoin:round; stroke-width:2; stroke-opacity:0.1; fill:none" points="
  2072.62,1360.19 2072.62,186.464 
  "/>
<polyline clip-path="url(#clip833)" style="stroke:#000000; stroke-linecap:butt; stroke-linejoin:round; stroke-width:2; stroke-opacity:0.1; fill:none" points="
  2267.71,1360.19 2267.71,186.464 
  "/>
<polyline clip-path="url(#clip830)" style="stroke:#000000; stroke-linecap:butt; stroke-linejoin:round; stroke-width:4; stroke-opacity:1; fill:none" points="
  1510.45,1360.19 2289.76,1360.19 
  "/>
<polyline clip-path="url(#clip830)" style="stroke:#000000; stroke-linecap:butt; stroke-linejoin:round; stroke-width:4; stroke-opacity:1; fill:none" points="
  1682.45,1360.19 1682.45,1341.29 
  "/>
<polyline clip-path="url(#clip830)" style="stroke:#000000; stroke-linecap:butt; stroke-linejoin:round; stroke-width:4; stroke-opacity:1; fill:none" points="
  1877.54,1360.19 1877.54,1341.29 
  "/>
<polyline clip-path="url(#clip830)" style="stroke:#000000; stroke-linecap:butt; stroke-linejoin:round; stroke-width:4; stroke-opacity:1; fill:none" points="
  2072.62,1360.19 2072.62,1341.29 
  "/>
<polyline clip-path="url(#clip830)" style="stroke:#000000; stroke-linecap:butt; stroke-linejoin:round; stroke-width:4; stroke-opacity:1; fill:none" points="
  2267.71,1360.19 2267.71,1341.29 
  "/>
<path clip-path="url(#clip830)" d="M1670.62 1392.1 L1658.82 1410.55 L1670.62 1410.55 L1670.62 1392.1 M1669.4 1388.03 L1675.28 1388.03 L1675.28 1410.55 L1680.21 1410.55 L1680.21 1414.44 L1675.28 1414.44 L1675.28 1422.59 L1670.62 1422.59 L1670.62 1414.44 L1655.02 1414.44 L1655.02 1409.93 L1669.4 1388.03 Z" fill="#000000" fill-rule="evenodd" fill-opacity="1" /><path clip-path="url(#clip830)" d="M1697.94 1391.11 Q1694.33 1391.11 1692.5 1394.67 Q1690.69 1398.21 1690.69 1405.34 Q1690.69 1412.45 1692.5 1416.01 Q1694.33 1419.56 1697.94 1419.56 Q1701.57 1419.56 1703.38 1416.01 Q1705.21 1412.45 1705.21 1405.34 Q1705.21 1398.21 1703.38 1394.67 Q1701.57 1391.11 1697.94 1391.11 M1697.94 1387.4 Q1703.75 1387.4 1706.8 1392.01 Q1709.88 1396.59 1709.88 1405.34 Q1709.88 1414.07 1706.8 1418.68 Q1703.75 1423.26 1697.94 1423.26 Q1692.13 1423.26 1689.05 1418.68 Q1685.99 1414.07 1685.99 1405.34 Q1685.99 1396.59 1689.05 1392.01 Q1692.13 1387.4 1697.94 1387.4 Z" fill="#000000" fill-rule="evenodd" fill-opacity="1" /><path clip-path="url(#clip830)" d="M1862.94 1403.44 Q1859.79 1403.44 1857.94 1405.6 Q1856.11 1407.75 1856.11 1411.5 Q1856.11 1415.23 1857.94 1417.4 Q1859.79 1419.56 1862.94 1419.56 Q1866.09 1419.56 1867.92 1417.4 Q1869.77 1415.23 1869.77 1411.5 Q1869.77 1407.75 1867.92 1405.6 Q1866.09 1403.44 1862.94 1403.44 M1872.22 1388.79 L1872.22 1393.05 Q1870.47 1392.22 1868.66 1391.78 Q1866.88 1391.34 1865.12 1391.34 Q1860.49 1391.34 1858.03 1394.46 Q1855.6 1397.59 1855.26 1403.91 Q1856.62 1401.89 1858.68 1400.83 Q1860.74 1399.74 1863.22 1399.74 Q1868.43 1399.74 1871.44 1402.91 Q1874.47 1406.06 1874.47 1411.5 Q1874.47 1416.82 1871.32 1420.04 Q1868.17 1423.26 1862.94 1423.26 Q1856.95 1423.26 1853.78 1418.68 Q1850.6 1414.07 1850.6 1405.34 Q1850.6 1397.15 1854.49 1392.29 Q1858.38 1387.4 1864.93 1387.4 Q1866.69 1387.4 1868.47 1387.75 Q1870.28 1388.1 1872.22 1388.79 Z" fill="#000000" fill-rule="evenodd" fill-opacity="1" /><path clip-path="url(#clip830)" d="M1892.53 1391.11 Q1888.91 1391.11 1887.09 1394.67 Q1885.28 1398.21 1885.28 1405.34 Q1885.28 1412.45 1887.09 1416.01 Q1888.91 1419.56 1892.53 1419.56 Q1896.16 1419.56 1897.97 1416.01 Q1899.79 1412.45 1899.79 1405.34 Q1899.79 1398.21 1897.97 1394.67 Q1896.16 1391.11 1892.53 1391.11 M1892.53 1387.4 Q1898.34 1387.4 1901.39 1392.01 Q1904.47 1396.59 1904.47 1405.34 Q1904.47 1414.07 1901.39 1418.68 Q1898.34 1423.26 1892.53 1423.26 Q1886.72 1423.26 1883.64 1418.68 Q1880.58 1414.07 1880.58 1405.34 Q1880.58 1396.59 1883.64 1392.01 Q1886.72 1387.4 1892.53 1387.4 Z" fill="#000000" fill-rule="evenodd" fill-opacity="1" /><path clip-path="url(#clip830)" d="M2057.5 1406.18 Q2054.16 1406.18 2052.24 1407.96 Q2050.34 1409.74 2050.34 1412.87 Q2050.34 1415.99 2052.24 1417.77 Q2054.16 1419.56 2057.5 1419.56 Q2060.83 1419.56 2062.75 1417.77 Q2064.67 1415.97 2064.67 1412.87 Q2064.67 1409.74 2062.75 1407.96 Q2060.85 1406.18 2057.5 1406.18 M2052.82 1404.19 Q2049.81 1403.44 2048.12 1401.38 Q2046.45 1399.32 2046.45 1396.36 Q2046.45 1392.22 2049.39 1389.81 Q2052.36 1387.4 2057.5 1387.4 Q2062.66 1387.4 2065.6 1389.81 Q2068.54 1392.22 2068.54 1396.36 Q2068.54 1399.32 2066.85 1401.38 Q2065.18 1403.44 2062.19 1404.19 Q2065.57 1404.97 2067.45 1407.26 Q2069.35 1409.56 2069.35 1412.87 Q2069.35 1417.89 2066.27 1420.57 Q2063.21 1423.26 2057.5 1423.26 Q2051.78 1423.26 2048.7 1420.57 Q2045.64 1417.89 2045.64 1412.87 Q2045.64 1409.56 2047.54 1407.26 Q2049.44 1404.97 2052.82 1404.19 M2051.11 1396.8 Q2051.11 1399.49 2052.77 1400.99 Q2054.46 1402.5 2057.5 1402.5 Q2060.5 1402.5 2062.19 1400.99 Q2063.91 1399.49 2063.91 1396.8 Q2063.91 1394.12 2062.19 1392.61 Q2060.5 1391.11 2057.5 1391.11 Q2054.46 1391.11 2052.77 1392.61 Q2051.11 1394.12 2051.11 1396.8 Z" fill="#000000" fill-rule="evenodd" fill-opacity="1" /><path clip-path="url(#clip830)" d="M2087.66 1391.11 Q2084.05 1391.11 2082.22 1394.67 Q2080.41 1398.21 2080.41 1405.34 Q2080.41 1412.45 2082.22 1416.01 Q2084.05 1419.56 2087.66 1419.56 Q2091.29 1419.56 2093.1 1416.01 Q2094.93 1412.45 2094.93 1405.34 Q2094.93 1398.21 2093.1 1394.67 Q2091.29 1391.11 2087.66 1391.11 M2087.66 1387.4 Q2093.47 1387.4 2096.52 1392.01 Q2099.6 1396.59 2099.6 1405.34 Q2099.6 1414.07 2096.52 1418.68 Q2093.47 1423.26 2087.66 1423.26 Q2081.85 1423.26 2078.77 1418.68 Q2075.71 1414.07 2075.71 1405.34 Q2075.71 1396.59 2078.77 1392.01 Q2081.85 1387.4 2087.66 1387.4 Z" fill="#000000" fill-rule="evenodd" fill-opacity="1" /><path clip-path="url(#clip830)" d="M2227.31 1418.65 L2234.95 1418.65 L2234.95 1392.29 L2226.64 1393.95 L2226.64 1389.69 L2234.91 1388.03 L2239.58 1388.03 L2239.58 1418.65 L2247.22 1418.65 L2247.22 1422.59 L2227.31 1422.59 L2227.31 1418.65 Z" fill="#000000" fill-rule="evenodd" fill-opacity="1" /><path clip-path="url(#clip830)" d="M2266.67 1391.11 Q2263.05 1391.11 2261.23 1394.67 Q2259.42 1398.21 2259.42 1405.34 Q2259.42 1412.45 2261.23 1416.01 Q2263.05 1419.56 2266.67 1419.56 Q2270.3 1419.56 2272.11 1416.01 Q2273.93 1412.45 2273.93 1405.34 Q2273.93 1398.21 2272.11 1394.67 Q2270.3 1391.11 2266.67 1391.11 M2266.67 1387.4 Q2272.48 1387.4 2275.53 1392.01 Q2278.61 1396.59 2278.61 1405.34 Q2278.61 1414.07 2275.53 1418.68 Q2272.48 1423.26 2266.67 1423.26 Q2260.86 1423.26 2257.78 1418.68 Q2254.72 1414.07 2254.72 1405.34 Q2254.72 1396.59 2257.78 1392.01 Q2260.86 1387.4 2266.67 1387.4 Z" fill="#000000" fill-rule="evenodd" fill-opacity="1" /><path clip-path="url(#clip830)" d="M2296.83 1391.11 Q2293.22 1391.11 2291.39 1394.67 Q2289.58 1398.21 2289.58 1405.34 Q2289.58 1412.45 2291.39 1416.01 Q2293.22 1419.56 2296.83 1419.56 Q2300.46 1419.56 2302.27 1416.01 Q2304.1 1412.45 2304.1 1405.34 Q2304.1 1398.21 2302.27 1394.67 Q2300.46 1391.11 2296.83 1391.11 M2296.83 1387.4 Q2302.64 1387.4 2305.69 1392.01 Q2308.77 1396.59 2308.77 1405.34 Q2308.77 1414.07 2305.69 1418.68 Q2302.64 1423.26 2296.83 1423.26 Q2291.02 1423.26 2287.94 1418.68 Q2284.88 1414.07 2284.88 1405.34 Q2284.88 1396.59 2287.94 1392.01 Q2291.02 1387.4 2296.83 1387.4 Z" fill="#000000" fill-rule="evenodd" fill-opacity="1" /><path clip-path="url(#clip830)" d="M1798.24 1499.7 L1798.24 1518.61 L1792.35 1518.61 L1792.35 1469.4 L1798.24 1469.4 L1798.24 1474.81 Q1800.09 1471.63 1802.89 1470.1 Q1805.72 1468.54 1809.63 1468.54 Q1816.13 1468.54 1820.17 1473.7 Q1824.24 1478.86 1824.24 1487.26 Q1824.24 1495.66 1820.17 1500.82 Q1816.13 1505.97 1809.63 1505.97 Q1805.72 1505.97 1802.89 1504.45 Q1800.09 1502.89 1798.24 1499.7 M1818.16 1487.26 Q1818.16 1480.8 1815.49 1477.14 Q1812.85 1473.45 1808.2 1473.45 Q1803.56 1473.45 1800.88 1477.14 Q1798.24 1480.8 1798.24 1487.26 Q1798.24 1493.72 1800.88 1497.41 Q1803.56 1501.07 1808.2 1501.07 Q1812.85 1501.07 1815.49 1497.41 Q1818.16 1493.72 1818.16 1487.26 Z" fill="#000000" fill-rule="evenodd" fill-opacity="1" /><path clip-path="url(#clip830)" d="M1868.74 1455.59 Q1864.48 1462.91 1862.41 1470.07 Q1860.34 1477.23 1860.34 1484.59 Q1860.34 1491.94 1862.41 1499.16 Q1864.51 1506.36 1868.74 1513.65 L1863.65 1513.65 Q1858.87 1506.17 1856.49 1498.94 Q1854.13 1491.72 1854.13 1484.59 Q1854.13 1477.49 1856.49 1470.29 Q1858.84 1463.1 1863.65 1455.59 L1868.74 1455.59 Z" fill="#000000" fill-rule="evenodd" fill-opacity="1" /><path clip-path="url(#clip830)" d="M1879.88 1455.53 L1885.77 1455.53 L1885.77 1484.78 L1903.24 1469.4 L1910.72 1469.4 L1891.82 1486.08 L1911.52 1505.05 L1903.88 1505.05 L1885.77 1487.64 L1885.77 1505.05 L1879.88 1505.05 L1879.88 1455.53 Z" fill="#000000" fill-rule="evenodd" fill-opacity="1" /><path clip-path="url(#clip830)" d="M1924.54 1462.82 L1924.54 1480.67 L1932.62 1480.67 Q1937.11 1480.67 1939.56 1478.35 Q1942.01 1476.02 1942.01 1471.73 Q1942.01 1467.46 1939.56 1465.14 Q1937.11 1462.82 1932.62 1462.82 L1924.54 1462.82 M1918.11 1457.53 L1932.62 1457.53 Q1940.61 1457.53 1944.68 1461.16 Q1948.79 1464.76 1948.79 1471.73 Q1948.79 1478.76 1944.68 1482.36 Q1940.61 1485.95 1932.62 1485.95 L1924.54 1485.95 L1924.54 1505.05 L1918.11 1505.05 L1918.11 1457.53 Z" fill="#000000" fill-rule="evenodd" fill-opacity="1" /><path clip-path="url(#clip830)" d="M1970.43 1487.13 Q1963.33 1487.13 1960.6 1488.76 Q1957.86 1490.38 1957.86 1494.29 Q1957.86 1497.41 1959.9 1499.26 Q1961.97 1501.07 1965.5 1501.07 Q1970.37 1501.07 1973.3 1497.64 Q1976.26 1494.17 1976.26 1488.44 L1976.26 1487.13 L1970.43 1487.13 M1982.11 1484.71 L1982.11 1505.05 L1976.26 1505.05 L1976.26 1499.64 Q1974.25 1502.89 1971.26 1504.45 Q1968.27 1505.97 1963.94 1505.97 Q1958.46 1505.97 1955.22 1502.92 Q1952 1499.83 1952 1494.68 Q1952 1488.66 1956.01 1485.6 Q1960.06 1482.55 1968.05 1482.55 L1976.26 1482.55 L1976.26 1481.98 Q1976.26 1477.93 1973.58 1475.74 Q1970.94 1473.51 1966.14 1473.51 Q1963.08 1473.51 1960.18 1474.24 Q1957.29 1474.97 1954.61 1476.44 L1954.61 1471.03 Q1957.83 1469.79 1960.85 1469.18 Q1963.88 1468.54 1966.74 1468.54 Q1974.47 1468.54 1978.29 1472.55 Q1982.11 1476.57 1982.11 1484.71 Z" fill="#000000" fill-rule="evenodd" fill-opacity="1" /><path clip-path="url(#clip830)" d="M1993.25 1455.59 L1998.35 1455.59 Q2003.12 1463.1 2005.48 1470.29 Q2007.86 1477.49 2007.86 1484.59 Q2007.86 1491.72 2005.48 1498.94 Q2003.12 1506.17 1998.35 1513.65 L1993.25 1513.65 Q1997.49 1506.36 1999.56 1499.16 Q2001.66 1491.94 2001.66 1484.59 Q2001.66 1477.23 1999.56 1470.07 Q1997.49 1462.91 1993.25 1455.59 Z" fill="#000000" fill-rule="evenodd" fill-opacity="1" /><polyline clip-path="url(#clip833)" style="stroke:#000000; stroke-linecap:butt; stroke-linejoin:round; stroke-width:2; stroke-opacity:0.1; fill:none" points="
  1510.45,1326.97 2289.76,1326.97 
  "/>
<polyline clip-path="url(#clip833)" style="stroke:#000000; stroke-linecap:butt; stroke-linejoin:round; stroke-width:2; stroke-opacity:0.1; fill:none" points="
  1510.45,1050.15 2289.76,1050.15 
  "/>
<polyline clip-path="url(#clip833)" style="stroke:#000000; stroke-linecap:butt; stroke-linejoin:round; stroke-width:2; stroke-opacity:0.1; fill:none" points="
  1510.45,773.326 2289.76,773.326 
  "/>
<polyline clip-path="url(#clip833)" style="stroke:#000000; stroke-linecap:butt; stroke-linejoin:round; stroke-width:2; stroke-opacity:0.1; fill:none" points="
  1510.45,496.504 2289.76,496.504 
  "/>
<polyline clip-path="url(#clip833)" style="stroke:#000000; stroke-linecap:butt; stroke-linejoin:round; stroke-width:2; stroke-opacity:0.1; fill:none" points="
  1510.45,219.683 2289.76,219.683 
  "/>
<polyline clip-path="url(#clip830)" style="stroke:#000000; stroke-linecap:butt; stroke-linejoin:round; stroke-width:4; stroke-opacity:1; fill:none" points="
  1510.45,1360.19 1510.45,186.464 
  "/>
<polyline clip-path="url(#clip830)" style="stroke:#000000; stroke-linecap:butt; stroke-linejoin:round; stroke-width:4; stroke-opacity:1; fill:none" points="
  1510.45,1326.97 1529.35,1326.97 
  "/>
<polyline clip-path="url(#clip830)" style="stroke:#000000; stroke-linecap:butt; stroke-linejoin:round; stroke-width:4; stroke-opacity:1; fill:none" points="
  1510.45,1050.15 1529.35,1050.15 
  "/>
<polyline clip-path="url(#clip830)" style="stroke:#000000; stroke-linecap:butt; stroke-linejoin:round; stroke-width:4; stroke-opacity:1; fill:none" points="
  1510.45,773.326 1529.35,773.326 
  "/>
<polyline clip-path="url(#clip830)" style="stroke:#000000; stroke-linecap:butt; stroke-linejoin:round; stroke-width:4; stroke-opacity:1; fill:none" points="
  1510.45,496.504 1529.35,496.504 
  "/>
<polyline clip-path="url(#clip830)" style="stroke:#000000; stroke-linecap:butt; stroke-linejoin:round; stroke-width:4; stroke-opacity:1; fill:none" points="
  1510.45,219.683 1529.35,219.683 
  "/>
<path clip-path="url(#clip830)" d="M1417.28 1312.77 Q1413.66 1312.77 1411.84 1316.33 Q1410.03 1319.87 1410.03 1327 Q1410.03 1334.11 1411.84 1337.68 Q1413.66 1341.22 1417.28 1341.22 Q1420.91 1341.22 1422.72 1337.68 Q1424.54 1334.11 1424.54 1327 Q1424.54 1319.87 1422.72 1316.33 Q1420.91 1312.77 1417.28 1312.77 M1417.28 1309.06 Q1423.09 1309.06 1426.14 1313.67 Q1429.22 1318.25 1429.22 1327 Q1429.22 1335.73 1426.14 1340.34 Q1423.09 1344.92 1417.28 1344.92 Q1411.47 1344.92 1408.39 1340.34 Q1405.33 1335.73 1405.33 1327 Q1405.33 1318.25 1408.39 1313.67 Q1411.47 1309.06 1417.28 1309.06 Z" fill="#000000" fill-rule="evenodd" fill-opacity="1" /><path clip-path="url(#clip830)" d="M1437.44 1338.37 L1442.32 1338.37 L1442.32 1344.25 L1437.44 1344.25 L1437.44 1338.37 Z" fill="#000000" fill-rule="evenodd" fill-opacity="1" /><path clip-path="url(#clip830)" d="M1462.51 1312.77 Q1458.9 1312.77 1457.07 1316.33 Q1455.26 1319.87 1455.26 1327 Q1455.26 1334.11 1457.07 1337.68 Q1458.9 1341.22 1462.51 1341.22 Q1466.14 1341.22 1467.95 1337.68 Q1469.77 1334.11 1469.77 1327 Q1469.77 1319.87 1467.95 1316.33 Q1466.14 1312.77 1462.51 1312.77 M1462.51 1309.06 Q1468.32 1309.06 1471.37 1313.67 Q1474.45 1318.25 1474.45 1327 Q1474.45 1335.73 1471.37 1340.34 Q1468.32 1344.92 1462.51 1344.92 Q1456.7 1344.92 1453.62 1340.34 Q1450.56 1335.73 1450.56 1327 Q1450.56 1318.25 1453.62 1313.67 Q1456.7 1309.06 1462.51 1309.06 Z" fill="#000000" fill-rule="evenodd" fill-opacity="1" /><path clip-path="url(#clip830)" d="M1412.3 1063.49 L1428.62 1063.49 L1428.62 1067.43 L1406.67 1067.43 L1406.67 1063.49 Q1409.34 1060.74 1413.92 1056.11 Q1418.53 1051.46 1419.71 1050.11 Q1421.95 1047.59 1422.83 1045.85 Q1423.73 1044.09 1423.73 1042.4 Q1423.73 1039.65 1421.79 1037.91 Q1419.87 1036.18 1416.77 1036.18 Q1414.57 1036.18 1412.11 1036.94 Q1409.68 1037.71 1406.9 1039.26 L1406.9 1034.53 Q1409.73 1033.4 1412.18 1032.82 Q1414.64 1032.24 1416.67 1032.24 Q1422.04 1032.24 1425.24 1034.93 Q1428.43 1037.61 1428.43 1042.1 Q1428.43 1044.23 1427.62 1046.15 Q1426.84 1048.05 1424.73 1050.65 Q1424.15 1051.32 1421.05 1054.53 Q1417.95 1057.73 1412.3 1063.49 Z" fill="#000000" fill-rule="evenodd" fill-opacity="1" /><path clip-path="url(#clip830)" d="M1438.43 1061.55 L1443.32 1061.55 L1443.32 1067.43 L1438.43 1067.43 L1438.43 1061.55 Z" fill="#000000" fill-rule="evenodd" fill-opacity="1" /><path clip-path="url(#clip830)" d="M1453.55 1032.87 L1471.9 1032.87 L1471.9 1036.8 L1457.83 1036.8 L1457.83 1045.27 Q1458.85 1044.93 1459.87 1044.77 Q1460.89 1044.58 1461.9 1044.58 Q1467.69 1044.58 1471.07 1047.75 Q1474.45 1050.92 1474.45 1056.34 Q1474.45 1061.92 1470.98 1065.02 Q1467.51 1068.1 1461.19 1068.1 Q1459.01 1068.1 1456.74 1067.73 Q1454.5 1067.36 1452.09 1066.62 L1452.09 1061.92 Q1454.17 1063.05 1456.4 1063.61 Q1458.62 1064.16 1461.09 1064.16 Q1465.1 1064.16 1467.44 1062.06 Q1469.77 1059.95 1469.77 1056.34 Q1469.77 1052.73 1467.44 1050.62 Q1465.1 1048.52 1461.09 1048.52 Q1459.22 1048.52 1457.34 1048.93 Q1455.49 1049.35 1453.55 1050.23 L1453.55 1032.87 Z" fill="#000000" fill-rule="evenodd" fill-opacity="1" /><path clip-path="url(#clip830)" d="M1407.32 756.046 L1425.68 756.046 L1425.68 759.981 L1411.6 759.981 L1411.6 768.453 Q1412.62 768.106 1413.64 767.944 Q1414.66 767.759 1415.68 767.759 Q1421.47 767.759 1424.84 770.93 Q1428.22 774.101 1428.22 779.518 Q1428.22 785.097 1424.75 788.199 Q1421.28 791.277 1414.96 791.277 Q1412.78 791.277 1410.52 790.907 Q1408.27 790.537 1405.86 789.796 L1405.86 785.097 Q1407.95 786.231 1410.17 786.787 Q1412.39 787.342 1414.87 787.342 Q1418.87 787.342 1421.21 785.236 Q1423.55 783.129 1423.55 779.518 Q1423.55 775.907 1421.21 773.801 Q1418.87 771.694 1414.87 771.694 Q1412.99 771.694 1411.12 772.111 Q1409.27 772.527 1407.32 773.407 L1407.32 756.046 Z" fill="#000000" fill-rule="evenodd" fill-opacity="1" /><path clip-path="url(#clip830)" d="M1437.44 784.726 L1442.32 784.726 L1442.32 790.606 L1437.44 790.606 L1437.44 784.726 Z" fill="#000000" fill-rule="evenodd" fill-opacity="1" /><path clip-path="url(#clip830)" d="M1462.51 759.125 Q1458.9 759.125 1457.07 762.689 Q1455.26 766.231 1455.26 773.361 Q1455.26 780.467 1457.07 784.032 Q1458.9 787.574 1462.51 787.574 Q1466.14 787.574 1467.95 784.032 Q1469.77 780.467 1469.77 773.361 Q1469.77 766.231 1467.95 762.689 Q1466.14 759.125 1462.51 759.125 M1462.51 755.421 Q1468.32 755.421 1471.37 760.027 Q1474.45 764.611 1474.45 773.361 Q1474.45 782.088 1471.37 786.694 Q1468.32 791.277 1462.51 791.277 Q1456.7 791.277 1453.62 786.694 Q1450.56 782.088 1450.56 773.361 Q1450.56 764.611 1453.62 760.027 Q1456.7 755.421 1462.51 755.421 Z" fill="#000000" fill-rule="evenodd" fill-opacity="1" /><path clip-path="url(#clip830)" d="M1407.09 479.224 L1429.31 479.224 L1429.31 481.215 L1416.77 513.784 L1411.88 513.784 L1423.69 483.16 L1407.09 483.16 L1407.09 479.224 Z" fill="#000000" fill-rule="evenodd" fill-opacity="1" /><path clip-path="url(#clip830)" d="M1438.43 507.905 L1443.32 507.905 L1443.32 513.784 L1438.43 513.784 L1438.43 507.905 Z" fill="#000000" fill-rule="evenodd" fill-opacity="1" /><path clip-path="url(#clip830)" d="M1453.55 479.224 L1471.9 479.224 L1471.9 483.16 L1457.83 483.16 L1457.83 491.632 Q1458.85 491.285 1459.87 491.122 Q1460.89 490.937 1461.9 490.937 Q1467.69 490.937 1471.07 494.109 Q1474.45 497.28 1474.45 502.697 Q1474.45 508.275 1470.98 511.377 Q1467.51 514.456 1461.19 514.456 Q1459.01 514.456 1456.74 514.085 Q1454.5 513.715 1452.09 512.974 L1452.09 508.275 Q1454.17 509.409 1456.4 509.965 Q1458.62 510.521 1461.09 510.521 Q1465.1 510.521 1467.44 508.414 Q1469.77 506.308 1469.77 502.697 Q1469.77 499.085 1467.44 496.979 Q1465.1 494.872 1461.09 494.872 Q1459.22 494.872 1457.34 495.289 Q1455.49 495.706 1453.55 496.585 L1453.55 479.224 Z" fill="#000000" fill-rule="evenodd" fill-opacity="1" /><path clip-path="url(#clip830)" d="M1377.92 233.028 L1385.56 233.028 L1385.56 206.662 L1377.25 208.329 L1377.25 204.069 L1385.52 202.403 L1390.19 202.403 L1390.19 233.028 L1397.83 233.028 L1397.83 236.963 L1377.92 236.963 L1377.92 233.028 Z" fill="#000000" fill-rule="evenodd" fill-opacity="1" /><path clip-path="url(#clip830)" d="M1417.28 205.482 Q1413.66 205.482 1411.84 209.046 Q1410.03 212.588 1410.03 219.718 Q1410.03 226.824 1411.84 230.389 Q1413.66 233.93 1417.28 233.93 Q1420.91 233.93 1422.72 230.389 Q1424.54 226.824 1424.54 219.718 Q1424.54 212.588 1422.72 209.046 Q1420.91 205.482 1417.28 205.482 M1417.28 201.778 Q1423.09 201.778 1426.14 206.384 Q1429.22 210.968 1429.22 219.718 Q1429.22 228.444 1426.14 233.051 Q1423.09 237.634 1417.28 237.634 Q1411.47 237.634 1408.39 233.051 Q1405.33 228.444 1405.33 219.718 Q1405.33 210.968 1408.39 206.384 Q1411.47 201.778 1417.28 201.778 Z" fill="#000000" fill-rule="evenodd" fill-opacity="1" /><path clip-path="url(#clip830)" d="M1437.44 231.083 L1442.32 231.083 L1442.32 236.963 L1437.44 236.963 L1437.44 231.083 Z" fill="#000000" fill-rule="evenodd" fill-opacity="1" /><path clip-path="url(#clip830)" d="M1462.51 205.482 Q1458.9 205.482 1457.07 209.046 Q1455.26 212.588 1455.26 219.718 Q1455.26 226.824 1457.07 230.389 Q1458.9 233.93 1462.51 233.93 Q1466.14 233.93 1467.95 230.389 Q1469.77 226.824 1469.77 219.718 Q1469.77 212.588 1467.95 209.046 Q1466.14 205.482 1462.51 205.482 M1462.51 201.778 Q1468.32 201.778 1471.37 206.384 Q1474.45 210.968 1474.45 219.718 Q1474.45 228.444 1471.37 233.051 Q1468.32 237.634 1462.51 237.634 Q1456.7 237.634 1453.62 233.051 Q1450.56 228.444 1450.56 219.718 Q1450.56 210.968 1453.62 206.384 Q1456.7 201.778 1462.51 201.778 Z" fill="#000000" fill-rule="evenodd" fill-opacity="1" /><path clip-path="url(#clip830)" d="M1291.35 871.851 L1291.35 844.033 L1296.7 844.033 L1322.32 866.058 L1322.32 844.033 L1327 844.033 L1327 872.647 L1321.65 872.647 L1296.03 850.622 L1296.03 871.851 L1291.35 871.851 Z" fill="#000000" fill-rule="evenodd" fill-opacity="1" /><path clip-path="url(#clip830)" d="M1277.53 800.301 Q1284.86 804.566 1292.02 806.635 Q1299.18 808.703 1306.53 808.703 Q1313.88 808.703 1321.11 806.635 Q1328.3 804.534 1335.59 800.301 L1335.59 805.393 Q1328.11 810.168 1320.89 812.555 Q1313.66 814.91 1306.53 814.91 Q1299.43 814.91 1292.24 812.555 Q1285.05 810.199 1277.53 805.393 L1277.53 800.301 Z" fill="#000000" fill-rule="evenodd" fill-opacity="1" /><path clip-path="url(#clip830)" d="M1277.47 789.161 L1277.47 783.272 L1306.72 783.272 L1291.35 765.799 L1291.35 758.319 L1308.03 777.225 L1327 757.523 L1327 765.162 L1309.59 783.272 L1327 783.272 L1327 789.161 L1277.47 789.161 Z" fill="#000000" fill-rule="evenodd" fill-opacity="1" /><path clip-path="url(#clip830)" d="M1298.19 723.435 Q1294.24 721.239 1292.37 718.183 Q1290.49 715.128 1290.49 710.99 Q1290.49 705.42 1294.4 702.396 Q1298.29 699.372 1305.48 699.372 L1327 699.372 L1327 705.261 L1305.67 705.261 Q1300.55 705.261 1298.06 707.075 Q1295.58 708.889 1295.58 712.613 Q1295.58 717.165 1298.61 719.806 Q1301.63 722.448 1306.85 722.448 L1327 722.448 L1327 728.336 L1305.67 728.336 Q1300.51 728.336 1298.06 730.151 Q1295.58 731.965 1295.58 735.752 Q1295.58 740.24 1298.64 742.882 Q1301.66 745.524 1306.85 745.524 L1327 745.524 L1327 751.412 L1291.35 751.412 L1291.35 745.524 L1296.89 745.524 Q1293.61 743.519 1292.05 740.718 Q1290.49 737.917 1290.49 734.065 Q1290.49 730.182 1292.46 727.477 Q1294.44 724.74 1298.19 723.435 Z" fill="#000000" fill-rule="evenodd" fill-opacity="1" /><path clip-path="url(#clip830)" d="M1277.53 688.614 L1277.53 683.522 Q1285.05 678.747 1292.24 676.392 Q1299.43 674.005 1306.53 674.005 Q1313.66 674.005 1320.89 676.392 Q1328.11 678.747 1335.59 683.522 L1335.59 688.614 Q1328.3 684.381 1321.11 682.312 Q1313.88 680.212 1306.53 680.212 Q1299.18 680.212 1292.02 682.312 Q1284.86 684.381 1277.53 688.614 Z" fill="#000000" fill-rule="evenodd" fill-opacity="1" /><path clip-path="url(#clip830)" d="M1770.46 65.7705 L1770.46 89.8329 L1762.96 89.8329 L1762.96 27.2059 L1770.46 27.2059 L1770.46 34.0924 Q1772.81 30.0415 1776.37 28.0971 Q1779.98 26.1121 1784.96 26.1121 Q1793.22 26.1121 1798.37 32.6746 Q1803.55 39.2371 1803.55 49.9314 Q1803.55 60.6258 1798.37 67.1883 Q1793.22 73.7508 1784.96 73.7508 Q1779.98 73.7508 1776.37 71.8063 Q1772.81 69.8214 1770.46 65.7705 M1795.82 49.9314 Q1795.82 41.7081 1792.41 37.0496 Q1789.05 32.3505 1783.14 32.3505 Q1777.22 32.3505 1773.82 37.0496 Q1770.46 41.7081 1770.46 49.9314 Q1770.46 58.1548 1773.82 62.8538 Q1777.22 67.5124 1783.14 67.5124 Q1789.05 67.5124 1792.41 62.8538 Q1795.82 58.1548 1795.82 49.9314 Z" fill="#000000" fill-rule="evenodd" fill-opacity="1" /><path clip-path="url(#clip830)" d="M1860.19 9.62495 Q1854.76 18.942 1852.12 28.0566 Q1849.49 37.1711 1849.49 46.5287 Q1849.49 55.8863 1852.12 65.0818 Q1854.8 74.2369 1860.19 83.5134 L1853.7 83.5134 Q1847.63 73.9938 1844.59 64.7983 Q1841.59 55.6027 1841.59 46.5287 Q1841.59 37.4952 1844.59 28.3401 Q1847.59 19.1851 1853.7 9.62495 L1860.19 9.62495 Z" fill="#000000" fill-rule="evenodd" fill-opacity="1" /><path clip-path="url(#clip830)" d="M1874.36 9.54393 L1881.86 9.54393 L1881.86 46.7717 L1904.1 27.2059 L1913.62 27.2059 L1889.55 48.4326 L1914.63 72.576 L1904.91 72.576 L1881.86 50.4176 L1881.86 72.576 L1874.36 72.576 L1874.36 9.54393 Z" fill="#000000" fill-rule="evenodd" fill-opacity="1" /><path clip-path="url(#clip830)" d="M1931.2 18.8205 L1931.2 41.5461 L1941.49 41.5461 Q1947.2 41.5461 1950.32 38.5889 Q1953.44 35.6318 1953.44 30.163 Q1953.44 24.7348 1950.32 21.7777 Q1947.2 18.8205 1941.49 18.8205 L1931.2 18.8205 M1923.02 12.096 L1941.49 12.096 Q1951.66 12.096 1956.84 16.714 Q1962.07 21.2916 1962.07 30.163 Q1962.07 39.1155 1956.84 43.6931 Q1951.66 48.2706 1941.49 48.2706 L1931.2 48.2706 L1931.2 72.576 L1923.02 72.576 L1923.02 12.096 Z" fill="#000000" fill-rule="evenodd" fill-opacity="1" /><path clip-path="url(#clip830)" d="M1989.61 49.7694 Q1980.58 49.7694 1977.09 51.8354 Q1973.61 53.9013 1973.61 58.8839 Q1973.61 62.8538 1976.2 65.2034 Q1978.84 67.5124 1983.33 67.5124 Q1989.53 67.5124 1993.26 63.1374 Q1997.03 58.7219 1997.03 51.4303 L1997.03 49.7694 L1989.61 49.7694 M2004.48 46.6907 L2004.48 72.576 L1997.03 72.576 L1997.03 65.6895 Q1994.47 69.8214 1990.67 71.8063 Q1986.86 73.7508 1981.35 73.7508 Q1974.38 73.7508 1970.25 69.8619 Q1966.16 65.9325 1966.16 59.3701 Q1966.16 51.7138 1971.26 47.825 Q1976.41 43.9361 1986.57 43.9361 L1997.03 43.9361 L1997.03 43.2069 Q1997.03 38.0623 1993.62 35.2672 Q1990.26 32.4315 1984.14 32.4315 Q1980.25 32.4315 1976.57 33.3632 Q1972.88 34.295 1969.48 36.1584 L1969.48 29.2718 Q1973.57 27.692 1977.42 26.9223 Q1981.27 26.1121 1984.91 26.1121 Q1994.76 26.1121 1999.62 31.2163 Q2004.48 36.3204 2004.48 46.6907 Z" fill="#000000" fill-rule="evenodd" fill-opacity="1" /><path clip-path="url(#clip830)" d="M2018.66 9.62495 L2025.14 9.62495 Q2031.21 19.1851 2034.21 28.3401 Q2037.25 37.4952 2037.25 46.5287 Q2037.25 55.6027 2034.21 64.7983 Q2031.21 73.9938 2025.14 83.5134 L2018.66 83.5134 Q2024.04 74.2369 2026.68 65.0818 Q2029.35 55.8863 2029.35 46.5287 Q2029.35 37.1711 2026.68 28.0566 Q2024.04 18.942 2018.66 9.62495 Z" fill="#000000" fill-rule="evenodd" fill-opacity="1" /><polyline clip-path="url(#clip833)" style="stroke:#009af9; stroke-linecap:butt; stroke-linejoin:round; stroke-width:4; stroke-opacity:1; fill:none" points="
  2264.89,1324.2 2259.29,1318.66 2253.7,1313.13 2248.14,1307.59 2242.6,1302.06 2237.08,1296.52 2231.59,1290.98 2226.12,1285.45 2220.67,1279.91 2215.24,1274.37 
  2209.84,1268.84 2204.46,1263.3 2199.11,1257.76 2193.77,1252.23 2188.46,1246.69 2183.17,1241.15 2177.9,1235.62 2172.66,1230.08 2167.43,1224.55 2162.23,1219.01 
  2157.05,1213.47 2151.9,1207.94 2146.76,1202.4 2141.65,1196.86 2136.56,1191.33 2131.49,1185.79 2126.44,1180.25 2121.42,1174.72 2116.41,1169.18 2111.43,1163.64 
  2106.47,1158.11 2101.53,1152.57 2096.61,1147.04 2091.71,1141.5 2086.84,1135.96 2081.99,1130.43 2077.15,1124.89 2072.34,1119.35 2067.55,1113.82 2062.78,1108.28 
  2058.03,1102.74 2053.31,1097.21 2048.6,1091.67 2043.91,1086.13 2039.25,1080.6 2034.61,1075.06 2029.98,1069.53 2025.38,1063.99 2020.8,1058.45 2016.23,1052.92 
  2011.69,1047.38 2007.17,1041.84 2002.67,1036.31 1998.19,1030.77 1993.73,1025.23 1989.29,1019.7 1984.87,1014.16 1980.47,1008.62 1976.09,1003.09 1971.73,997.551 
  1967.39,992.015 1963.07,986.479 1958.77,980.942 1954.49,975.406 1950.23,969.869 1945.99,964.333 1941.77,958.796 1937.56,953.26 1933.38,947.724 1929.22,942.187 
  1925.07,936.651 1920.95,931.114 1916.84,925.578 1912.76,920.041 1908.69,914.505 1904.64,908.969 1900.61,903.432 1896.6,897.896 1892.61,892.359 1888.64,886.823 
  1884.69,881.286 1880.75,875.75 1876.83,870.214 1872.94,864.677 1869.06,859.141 1865.2,853.604 1861.36,848.068 1857.53,842.531 1853.73,836.995 1849.94,831.459 
  1846.17,825.922 1842.42,820.386 1838.69,814.849 1834.98,809.313 1831.28,803.776 1827.6,798.24 1823.94,792.703 1820.3,787.167 1816.68,781.631 1813.07,776.094 
  1809.48,770.558 1805.91,765.021 1802.36,759.485 1798.82,753.948 1795.3,748.412 1791.8,742.876 1788.32,737.339 1784.85,731.803 1781.41,726.266 1777.98,720.73 
  1774.56,715.193 1771.16,709.657 1767.79,704.121 1764.42,698.584 1761.08,693.048 1757.75,687.511 1754.44,681.975 1751.14,676.438 1747.86,670.902 1744.6,665.366 
  1741.36,659.829 1738.13,654.293 1734.92,648.756 1731.72,643.22 1728.55,637.683 1725.38,632.147 1722.24,626.611 1719.11,621.074 1716,615.538 1712.9,610.001 
  1709.82,604.465 1706.76,598.928 1703.71,593.392 1700.68,587.856 1697.66,582.319 1694.66,576.783 1691.68,571.246 1688.71,565.71 1685.76,560.173 1682.82,554.637 
  1679.9,549.101 1676.99,543.564 1674.1,538.028 1671.23,532.491 1668.37,526.955 1665.53,521.418 1662.7,515.882 1659.89,510.345 1657.09,504.809 1654.31,499.273 
  1651.54,493.736 1648.79,488.2 1646.05,482.663 1643.33,477.127 1640.62,471.59 1637.93,466.054 1635.25,460.518 1632.59,454.981 1629.95,449.445 1627.31,443.908 
  1624.69,438.372 1622.09,432.835 1619.5,427.299 1616.93,421.763 1614.37,416.226 1611.82,410.69 1609.29,405.153 1606.78,399.617 1604.28,394.08 1601.79,388.544 
  1599.31,383.008 1596.86,377.471 1594.41,371.935 1591.98,366.398 1589.56,360.862 1587.16,355.325 1584.77,349.789 1582.39,344.253 1580.03,338.716 1577.68,333.18 
  1575.35,327.643 1573.03,322.107 1570.72,316.57 1568.43,311.034 1566.15,305.498 1563.88,299.961 1561.63,294.425 1559.39,288.888 1557.16,283.352 1554.95,277.815 
  1552.75,272.279 1550.57,266.743 1548.39,261.206 1546.23,255.67 1544.08,250.133 1541.95,244.597 1539.83,239.06 1537.72,233.524 1535.63,227.987 1533.54,222.451 
  
  "/>
<polyline clip-path="url(#clip833)" style="stroke:#e26f46; stroke-linecap:butt; stroke-linejoin:round; stroke-width:4; stroke-opacity:1; fill:none" points="
  2267.71,1326.97 2262.09,1321.43 2256.49,1315.9 2250.92,1310.36 2245.37,1304.82 2239.84,1299.29 2234.33,1293.75 2228.85,1288.21 2223.39,1282.68 2217.95,1277.14 
  2212.54,1271.6 2207.15,1266.07 2201.78,1260.53 2196.43,1255 2191.11,1249.46 2185.81,1243.92 2180.53,1238.39 2175.28,1232.85 2170.04,1227.31 2164.83,1221.78 
  2159.64,1216.24 2154.47,1210.7 2149.33,1205.17 2144.2,1199.63 2139.1,1194.09 2134.02,1188.56 2128.96,1183.02 2123.93,1177.49 2118.91,1171.95 2113.92,1166.41 
  2108.95,1160.88 2104,1155.34 2099.07,1149.8 2094.16,1144.27 2089.27,1138.73 2084.41,1133.19 2079.57,1127.66 2074.75,1122.12 2069.94,1116.58 2065.16,1111.05 
  2060.41,1105.51 2055.67,1099.98 2050.95,1094.44 2046.25,1088.9 2041.58,1083.37 2036.93,1077.83 2032.29,1072.29 2027.68,1066.76 2023.09,1061.22 2018.51,1055.68 
  2013.96,1050.15 2009.43,1044.61 2004.92,1039.07 2000.43,1033.54 1995.96,1028 1991.51,1022.47 1987.08,1016.93 1982.67,1011.39 1978.28,1005.86 1973.91,1000.32 
  1969.56,994.783 1965.23,989.247 1960.92,983.71 1956.63,978.174 1952.36,972.638 1948.11,967.101 1943.87,961.565 1939.66,956.028 1935.47,950.492 1931.3,944.955 
  1927.14,939.419 1923.01,933.882 1918.89,928.346 1914.8,922.81 1910.72,917.273 1906.66,911.737 1902.62,906.2 1898.6,900.664 1894.6,895.127 1890.62,889.591 
  1886.66,884.055 1882.72,878.518 1878.79,872.982 1874.88,867.445 1870.99,861.909 1867.13,856.372 1863.27,850.836 1859.44,845.3 1855.63,839.763 1851.83,834.227 
  1848.05,828.69 1844.29,823.154 1840.55,817.617 1836.83,812.081 1833.13,806.545 1829.44,801.008 1825.77,795.472 1822.12,789.935 1818.49,784.399 1814.87,778.862 
  1811.27,773.326 1807.69,767.79 1804.13,762.253 1800.59,756.717 1797.06,751.18 1793.55,745.644 1790.06,740.107 1786.59,734.571 1783.13,729.035 1779.69,723.498 
  1776.27,717.962 1772.86,712.425 1769.47,706.889 1766.1,701.352 1762.75,695.816 1759.41,690.28 1756.09,684.743 1752.79,679.207 1749.5,673.67 1746.23,668.134 
  1742.98,662.597 1739.74,657.061 1736.52,651.524 1733.32,645.988 1730.13,640.452 1726.96,634.915 1723.81,629.379 1720.67,623.842 1717.55,618.306 1714.45,612.769 
  1711.36,607.233 1708.29,601.697 1705.23,596.16 1702.19,590.624 1699.17,585.087 1696.16,579.551 1693.17,574.014 1690.19,568.478 1687.23,562.942 1684.29,557.405 
  1681.36,551.869 1678.44,546.332 1675.55,540.796 1672.66,535.259 1669.8,529.723 1666.95,524.187 1664.11,518.65 1661.29,513.114 1658.49,507.577 1655.7,502.041 
  1652.92,496.504 1650.16,490.968 1647.42,485.432 1644.69,479.895 1641.97,474.359 1639.28,468.822 1636.59,463.286 1633.92,457.749 1631.27,452.213 1628.63,446.677 
  1626,441.14 1623.39,435.604 1620.8,430.067 1618.21,424.531 1615.65,418.994 1613.1,413.458 1610.56,407.922 1608.03,402.385 1605.52,396.849 1603.03,391.312 
  1600.55,385.776 1598.08,380.239 1595.63,374.703 1593.19,369.166 1590.77,363.63 1588.36,358.094 1585.96,352.557 1583.58,347.021 1581.21,341.484 1578.86,335.948 
  1576.51,330.411 1574.19,324.875 1571.87,319.339 1569.57,313.802 1567.29,308.266 1565.01,302.729 1562.75,297.193 1560.51,291.656 1558.28,286.12 1556.06,280.584 
  1553.85,275.047 1551.66,269.511 1549.48,263.974 1547.31,258.438 1545.16,252.901 1543.02,247.365 1540.89,241.829 1538.77,236.292 1536.67,230.756 1534.58,225.219 
  1532.51,219.683 
  "/>
<path clip-path="url(#clip830)" d="
M2004.91 381.108 L2263.79 381.108 L2263.79 225.588 L2004.91 225.588  Z
  " fill="#ffffff" fill-rule="evenodd" fill-opacity="1"/>
<polyline clip-path="url(#clip830)" style="stroke:#000000; stroke-linecap:butt; stroke-linejoin:round; stroke-width:4; stroke-opacity:1; fill:none" points="
  2004.91,381.108 2263.79,381.108 2263.79,225.588 2004.91,225.588 2004.91,381.108 
  "/>
<polyline clip-path="url(#clip830)" style="stroke:#009af9; stroke-linecap:butt; stroke-linejoin:round; stroke-width:4; stroke-opacity:1; fill:none" points="
  2013.56,277.428 2065.52,277.428 
  "/>
<path clip-path="url(#clip830)" d="M2094.69 269.778 L2094.69 273.759 Q2092.88 272.764 2091.05 272.278 Q2089.25 271.769 2087.4 271.769 Q2083.25 271.769 2080.96 274.408 Q2078.67 277.023 2078.67 281.769 Q2078.67 286.514 2080.96 289.153 Q2083.25 291.769 2087.4 291.769 Q2089.25 291.769 2091.05 291.282 Q2092.88 290.773 2094.69 289.778 L2094.69 293.713 Q2092.9 294.546 2090.98 294.963 Q2089.09 295.38 2086.93 295.38 Q2081.08 295.38 2077.63 291.699 Q2074.18 288.019 2074.18 281.769 Q2074.18 275.426 2077.65 271.792 Q2081.15 268.158 2087.21 268.158 Q2089.18 268.158 2091.05 268.574 Q2092.93 268.968 2094.69 269.778 Z" fill="#000000" fill-rule="evenodd" fill-opacity="1" /><path clip-path="url(#clip830)" d="M2124.27 280.681 L2124.27 282.764 L2104.69 282.764 Q2104.96 287.162 2107.33 289.477 Q2109.71 291.769 2113.95 291.769 Q2116.4 291.769 2118.69 291.167 Q2121.01 290.565 2123.27 289.361 L2123.27 293.389 Q2120.98 294.361 2118.58 294.87 Q2116.17 295.38 2113.69 295.38 Q2107.49 295.38 2103.85 291.769 Q2100.24 288.157 2100.24 282 Q2100.24 275.634 2103.67 271.908 Q2107.12 268.158 2112.95 268.158 Q2118.18 268.158 2121.21 271.537 Q2124.27 274.894 2124.27 280.681 M2120.01 279.431 Q2119.96 275.935 2118.04 273.852 Q2116.15 271.769 2113 271.769 Q2109.43 271.769 2107.28 273.783 Q2105.15 275.796 2104.83 279.454 L2120.01 279.431 Z" fill="#000000" fill-rule="evenodd" fill-opacity="1" /><path clip-path="url(#clip830)" d="M2152.81 279.06 L2152.81 294.708 L2148.55 294.708 L2148.55 279.199 Q2148.55 275.519 2147.12 273.69 Q2145.68 271.861 2142.81 271.861 Q2139.36 271.861 2137.37 274.06 Q2135.38 276.259 2135.38 280.056 L2135.38 294.708 L2131.1 294.708 L2131.1 268.783 L2135.38 268.783 L2135.38 272.81 Q2136.91 270.472 2138.97 269.315 Q2141.05 268.158 2143.76 268.158 Q2148.23 268.158 2150.52 270.935 Q2152.81 273.69 2152.81 279.06 Z" fill="#000000" fill-rule="evenodd" fill-opacity="1" /><path clip-path="url(#clip830)" d="M2165.52 261.422 L2165.52 268.783 L2174.29 268.783 L2174.29 272.093 L2165.52 272.093 L2165.52 286.167 Q2165.52 289.338 2166.38 290.241 Q2167.26 291.144 2169.92 291.144 L2174.29 291.144 L2174.29 294.708 L2169.92 294.708 Q2164.99 294.708 2163.11 292.88 Q2161.24 291.028 2161.24 286.167 L2161.24 272.093 L2158.11 272.093 L2158.11 268.783 L2161.24 268.783 L2161.24 261.422 L2165.52 261.422 Z" fill="#000000" fill-rule="evenodd" fill-opacity="1" /><path clip-path="url(#clip830)" d="M2202.07 280.681 L2202.07 282.764 L2182.49 282.764 Q2182.77 287.162 2185.13 289.477 Q2187.51 291.769 2191.75 291.769 Q2194.2 291.769 2196.49 291.167 Q2198.81 290.565 2201.08 289.361 L2201.08 293.389 Q2198.78 294.361 2196.38 294.87 Q2193.97 295.38 2191.49 295.38 Q2185.29 295.38 2181.65 291.769 Q2178.04 288.157 2178.04 282 Q2178.04 275.634 2181.47 271.908 Q2184.92 268.158 2190.75 268.158 Q2195.98 268.158 2199.02 271.537 Q2202.07 274.894 2202.07 280.681 M2197.81 279.431 Q2197.77 275.935 2195.84 273.852 Q2193.95 271.769 2190.8 271.769 Q2187.23 271.769 2185.08 273.783 Q2182.95 275.796 2182.63 279.454 L2197.81 279.431 Z" fill="#000000" fill-rule="evenodd" fill-opacity="1" /><path clip-path="url(#clip830)" d="M2224.08 272.764 Q2223.37 272.347 2222.51 272.162 Q2221.68 271.954 2220.66 271.954 Q2217.05 271.954 2215.1 274.315 Q2213.18 276.653 2213.18 281.051 L2213.18 294.708 L2208.9 294.708 L2208.9 268.783 L2213.18 268.783 L2213.18 272.81 Q2214.52 270.449 2216.68 269.315 Q2218.83 268.158 2221.91 268.158 Q2222.35 268.158 2222.88 268.227 Q2223.41 268.273 2224.06 268.389 L2224.08 272.764 Z" fill="#000000" fill-rule="evenodd" fill-opacity="1" /><path clip-path="url(#clip830)" d="M2245.08 269.546 L2245.08 273.574 Q2243.27 272.648 2241.33 272.185 Q2239.39 271.722 2237.3 271.722 Q2234.13 271.722 2232.53 272.695 Q2230.96 273.667 2230.96 275.611 Q2230.96 277.093 2232.09 277.949 Q2233.23 278.783 2236.65 279.546 L2238.11 279.87 Q2242.65 280.843 2244.55 282.625 Q2246.47 284.384 2246.47 287.556 Q2246.47 291.167 2243.6 293.273 Q2240.75 295.38 2235.75 295.38 Q2233.67 295.38 2231.4 294.963 Q2229.15 294.569 2226.65 293.759 L2226.65 289.361 Q2229.02 290.588 2231.31 291.213 Q2233.6 291.815 2235.84 291.815 Q2238.85 291.815 2240.47 290.796 Q2242.09 289.755 2242.09 287.88 Q2242.09 286.144 2240.91 285.218 Q2239.76 284.292 2235.8 283.435 L2234.32 283.088 Q2230.36 282.255 2228.6 280.542 Q2226.84 278.806 2226.84 275.796 Q2226.84 272.139 2229.43 270.148 Q2232.02 268.158 2236.79 268.158 Q2239.15 268.158 2241.24 268.505 Q2243.32 268.852 2245.08 269.546 Z" fill="#000000" fill-rule="evenodd" fill-opacity="1" /><polyline clip-path="url(#clip830)" style="stroke:#e26f46; stroke-linecap:butt; stroke-linejoin:round; stroke-width:4; stroke-opacity:1; fill:none" points="
  2013.56,329.268 2065.52,329.268 
  "/>
<path clip-path="url(#clip830)" d="M2090.68 310.53 L2090.68 314.072 L2086.61 314.072 Q2084.32 314.072 2083.41 314.998 Q2082.53 315.924 2082.53 318.331 L2082.53 320.623 L2089.55 320.623 L2089.55 323.933 L2082.53 323.933 L2082.53 346.548 L2078.25 346.548 L2078.25 323.933 L2074.18 323.933 L2074.18 320.623 L2078.25 320.623 L2078.25 318.817 Q2078.25 314.488 2080.27 312.521 Q2082.28 310.53 2086.65 310.53 L2090.68 310.53 Z" fill="#000000" fill-rule="evenodd" fill-opacity="1" /><path clip-path="url(#clip830)" d="M2106.03 333.516 Q2100.87 333.516 2098.88 334.697 Q2096.89 335.877 2096.89 338.724 Q2096.89 340.993 2098.37 342.335 Q2099.87 343.655 2102.44 343.655 Q2105.98 343.655 2108.11 341.155 Q2110.27 338.632 2110.27 334.465 L2110.27 333.516 L2106.03 333.516 M2114.52 331.757 L2114.52 346.548 L2110.27 346.548 L2110.27 342.613 Q2108.81 344.974 2106.63 346.109 Q2104.46 347.22 2101.31 347.22 Q2097.33 347.22 2094.96 344.997 Q2092.63 342.752 2092.63 339.002 Q2092.63 334.627 2095.54 332.405 Q2098.48 330.183 2104.29 330.183 L2110.27 330.183 L2110.27 329.766 Q2110.27 326.826 2108.32 325.229 Q2106.4 323.609 2102.9 323.609 Q2100.68 323.609 2098.58 324.141 Q2096.47 324.673 2094.52 325.738 L2094.52 321.803 Q2096.86 320.9 2099.06 320.461 Q2101.26 319.998 2103.34 319.998 Q2108.97 319.998 2111.75 322.914 Q2114.52 325.831 2114.52 331.757 Z" fill="#000000" fill-rule="evenodd" fill-opacity="1" /><path clip-path="url(#clip830)" d="M2141.96 321.618 L2141.96 325.599 Q2140.15 324.604 2138.32 324.118 Q2136.52 323.609 2134.66 323.609 Q2130.52 323.609 2128.23 326.248 Q2125.94 328.863 2125.94 333.609 Q2125.94 338.354 2128.23 340.993 Q2130.52 343.609 2134.66 343.609 Q2136.52 343.609 2138.32 343.122 Q2140.15 342.613 2141.96 341.618 L2141.96 345.553 Q2140.17 346.386 2138.25 346.803 Q2136.35 347.22 2134.2 347.22 Q2128.34 347.22 2124.9 343.539 Q2121.45 339.859 2121.45 333.609 Q2121.45 327.266 2124.92 323.632 Q2128.41 319.998 2134.48 319.998 Q2136.45 319.998 2138.32 320.414 Q2140.2 320.808 2141.96 321.618 Z" fill="#000000" fill-rule="evenodd" fill-opacity="1" /><path clip-path="url(#clip830)" d="M2171.54 332.521 L2171.54 334.604 L2151.96 334.604 Q2152.23 339.002 2154.59 341.317 Q2156.98 343.609 2161.21 343.609 Q2163.67 343.609 2165.96 343.007 Q2168.27 342.405 2170.54 341.201 L2170.54 345.229 Q2168.25 346.201 2165.84 346.71 Q2163.44 347.22 2160.96 347.22 Q2154.76 347.22 2151.12 343.609 Q2147.51 339.997 2147.51 333.84 Q2147.51 327.474 2150.94 323.748 Q2154.39 319.998 2160.22 319.998 Q2165.45 319.998 2168.48 323.377 Q2171.54 326.734 2171.54 332.521 M2167.28 331.271 Q2167.23 327.775 2165.31 325.692 Q2163.41 323.609 2160.27 323.609 Q2156.7 323.609 2154.55 325.623 Q2152.42 327.636 2152.09 331.294 L2167.28 331.271 Z" fill="#000000" fill-rule="evenodd" fill-opacity="1" /><path clip-path="url(#clip830)" d="M2195.06 321.386 L2195.06 325.414 Q2193.25 324.488 2191.31 324.025 Q2189.36 323.562 2187.28 323.562 Q2184.11 323.562 2182.51 324.535 Q2180.94 325.507 2180.94 327.451 Q2180.94 328.933 2182.07 329.789 Q2183.21 330.623 2186.63 331.386 L2188.09 331.71 Q2192.63 332.683 2194.52 334.465 Q2196.45 336.224 2196.45 339.396 Q2196.45 343.007 2193.58 345.113 Q2190.73 347.22 2185.73 347.22 Q2183.64 347.22 2181.38 346.803 Q2179.13 346.409 2176.63 345.599 L2176.63 341.201 Q2178.99 342.428 2181.28 343.053 Q2183.58 343.655 2185.82 343.655 Q2188.83 343.655 2190.45 342.636 Q2192.07 341.595 2192.07 339.72 Q2192.07 337.984 2190.89 337.058 Q2189.73 336.132 2185.77 335.275 L2184.29 334.928 Q2180.33 334.095 2178.58 332.382 Q2176.82 330.646 2176.82 327.636 Q2176.82 323.979 2179.41 321.988 Q2182 319.998 2186.77 319.998 Q2189.13 319.998 2191.21 320.345 Q2193.3 320.692 2195.06 321.386 Z" fill="#000000" fill-rule="evenodd" fill-opacity="1" /></svg>
