<?xml version="1.0" encoding="utf-8"?>
<svg xmlns="http://www.w3.org/2000/svg" xmlns:xlink="http://www.w3.org/1999/xlink" width="1000" height="400" viewBox="0 0 4000 1600">
<defs>
  <clipPath id="clip930">
    <rect x="0" y="0" width="4000" height="1600"/>
  </clipPath>
</defs>
<path clip-path="url(#clip930)" d="
M0 1600 L4000 1600 L4000 0 L0 0  Z
  " fill="#ffffff" fill-rule="evenodd" fill-opacity="1"/>
<defs>
  <clipPath id="clip931">
    <rect x="800" y="0" width="2801" height="1600"/>
  </clipPath>
</defs>
<path clip-path="url(#clip930)" d="
M262.212 1393.02 L1223.1 1393.02 L1223.1 162.272 L262.212 162.272  Z
  " fill="#ffffff" fill-rule="evenodd" fill-opacity="1"/>
<defs>
  <clipPath id="clip932">
    <rect x="262" y="162" width="962" height="1232"/>
  </clipPath>
</defs>
<polyline clip-path="url(#clip932)" style="stroke:#000000; stroke-linecap:butt; stroke-linejoin:round; stroke-width:2; stroke-opacity:0.1; fill:none" points="
  295.485,1393.02 295.485,162.272 
  "/>
<polyline clip-path="url(#clip932)" style="stroke:#000000; stroke-linecap:butt; stroke-linejoin:round; stroke-width:2; stroke-opacity:0.1; fill:none" points="
  484.932,1393.02 484.932,162.272 
  "/>
<polyline clip-path="url(#clip932)" style="stroke:#000000; stroke-linecap:butt; stroke-linejoin:round; stroke-width:2; stroke-opacity:0.1; fill:none" points="
  674.379,1393.02 674.379,162.272 
  "/>
<polyline clip-path="url(#clip932)" style="stroke:#000000; stroke-linecap:butt; stroke-linejoin:round; stroke-width:2; stroke-opacity:0.1; fill:none" points="
  863.826,1393.02 863.826,162.272 
  "/>
<polyline clip-path="url(#clip932)" style="stroke:#000000; stroke-linecap:butt; stroke-linejoin:round; stroke-width:2; stroke-opacity:0.1; fill:none" points="
  1053.27,1393.02 1053.27,162.272 
  "/>
<polyline clip-path="url(#clip930)" style="stroke:#000000; stroke-linecap:butt; stroke-linejoin:round; stroke-width:4; stroke-opacity:1; fill:none" points="
  262.212,1393.02 1223.1,1393.02 
  "/>
<polyline clip-path="url(#clip930)" style="stroke:#000000; stroke-linecap:butt; stroke-linejoin:round; stroke-width:4; stroke-opacity:1; fill:none" points="
  295.485,1393.02 295.485,1374.12 
  "/>
<polyline clip-path="url(#clip930)" style="stroke:#000000; stroke-linecap:butt; stroke-linejoin:round; stroke-width:4; stroke-opacity:1; fill:none" points="
  484.932,1393.02 484.932,1374.12 
  "/>
<polyline clip-path="url(#clip930)" style="stroke:#000000; stroke-linecap:butt; stroke-linejoin:round; stroke-width:4; stroke-opacity:1; fill:none" points="
  674.379,1393.02 674.379,1374.12 
  "/>
<polyline clip-path="url(#clip930)" style="stroke:#000000; stroke-linecap:butt; stroke-linejoin:round; stroke-width:4; stroke-opacity:1; fill:none" points="
  863.826,1393.02 863.826,1374.12 
  "/>
<polyline clip-path="url(#clip930)" style="stroke:#000000; stroke-linecap:butt; stroke-linejoin:round; stroke-width:4; stroke-opacity:1; fill:none" points="
  1053.27,1393.02 1053.27,1374.12 
  "/>
<path clip-path="url(#clip930)" d="M273.668 1436.74 Q270.057 1436.74 268.229 1440.3 Q266.423 1443.84 266.423 1450.97 Q266.423 1458.08 268.229 1461.65 Q270.057 1465.19 273.668 1465.19 Q277.303 1465.19 279.108 1461.65 Q280.937 1458.08 280.937 1450.97 Q280.937 1443.84 279.108 1440.3 Q277.303 1436.74 273.668 1436.74 M273.668 1433.03 Q279.479 1433.03 282.534 1437.64 Q285.613 1442.22 285.613 1450.97 Q285.613 1459.7 282.534 1464.31 Q279.479 1468.89 273.668 1468.89 Q267.858 1468.89 264.78 1464.31 Q261.724 1459.7 261.724 1450.97 Q261.724 1442.22 264.78 1437.64 Q267.858 1433.03 273.668 1433.03 Z" fill="#000000" fill-rule="evenodd" fill-opacity="1" /><path clip-path="url(#clip930)" d="M293.83 1462.34 L298.715 1462.34 L298.715 1468.22 L293.83 1468.22 L293.83 1462.34 Z" fill="#000000" fill-rule="evenodd" fill-opacity="1" /><path clip-path="url(#clip930)" d="M312.927 1464.28 L329.247 1464.28 L329.247 1468.22 L307.302 1468.22 L307.302 1464.28 Q309.965 1461.53 314.548 1456.9 Q319.154 1452.25 320.335 1450.9 Q322.58 1448.38 323.46 1446.65 Q324.363 1444.89 324.363 1443.2 Q324.363 1440.44 322.418 1438.71 Q320.497 1436.97 317.395 1436.97 Q315.196 1436.97 312.742 1437.73 Q310.312 1438.5 307.534 1440.05 L307.534 1435.33 Q310.358 1434.19 312.812 1433.61 Q315.265 1433.03 317.302 1433.03 Q322.673 1433.03 325.867 1435.72 Q329.062 1438.41 329.062 1442.9 Q329.062 1445.03 328.251 1446.95 Q327.464 1448.84 325.358 1451.44 Q324.779 1452.11 321.677 1455.33 Q318.576 1458.52 312.927 1464.28 Z" fill="#000000" fill-rule="evenodd" fill-opacity="1" /><path clip-path="url(#clip930)" d="M462.074 1436.74 Q458.463 1436.74 456.634 1440.3 Q454.828 1443.84 454.828 1450.97 Q454.828 1458.08 456.634 1461.65 Q458.463 1465.19 462.074 1465.19 Q465.708 1465.19 467.513 1461.65 Q469.342 1458.08 469.342 1450.97 Q469.342 1443.84 467.513 1440.3 Q465.708 1436.74 462.074 1436.74 M462.074 1433.03 Q467.884 1433.03 470.939 1437.64 Q474.018 1442.22 474.018 1450.97 Q474.018 1459.7 470.939 1464.31 Q467.884 1468.89 462.074 1468.89 Q456.263 1468.89 453.185 1464.31 Q450.129 1459.7 450.129 1450.97 Q450.129 1442.22 453.185 1437.64 Q456.263 1433.03 462.074 1433.03 Z" fill="#000000" fill-rule="evenodd" fill-opacity="1" /><path clip-path="url(#clip930)" d="M482.236 1462.34 L487.12 1462.34 L487.12 1468.22 L482.236 1468.22 L482.236 1462.34 Z" fill="#000000" fill-rule="evenodd" fill-opacity="1" /><path clip-path="url(#clip930)" d="M510.152 1437.73 L498.347 1456.18 L510.152 1456.18 L510.152 1437.73 M508.925 1433.66 L514.805 1433.66 L514.805 1456.18 L519.735 1456.18 L519.735 1460.07 L514.805 1460.07 L514.805 1468.22 L510.152 1468.22 L510.152 1460.07 L494.55 1460.07 L494.55 1455.56 L508.925 1433.66 Z" fill="#000000" fill-rule="evenodd" fill-opacity="1" /><path clip-path="url(#clip930)" d="M651.683 1436.74 Q648.071 1436.74 646.243 1440.3 Q644.437 1443.84 644.437 1450.97 Q644.437 1458.08 646.243 1461.65 Q648.071 1465.19 651.683 1465.19 Q655.317 1465.19 657.122 1461.65 Q658.951 1458.08 658.951 1450.97 Q658.951 1443.84 657.122 1440.3 Q655.317 1436.74 651.683 1436.74 M651.683 1433.03 Q657.493 1433.03 660.548 1437.64 Q663.627 1442.22 663.627 1450.97 Q663.627 1459.7 660.548 1464.31 Q657.493 1468.89 651.683 1468.89 Q645.872 1468.89 642.794 1464.31 Q639.738 1459.7 639.738 1450.97 Q639.738 1442.22 642.794 1437.64 Q645.872 1433.03 651.683 1433.03 Z" fill="#000000" fill-rule="evenodd" fill-opacity="1" /><path clip-path="url(#clip930)" d="M671.844 1462.34 L676.729 1462.34 L676.729 1468.22 L671.844 1468.22 L671.844 1462.34 Z" fill="#000000" fill-rule="evenodd" fill-opacity="1" /><path clip-path="url(#clip930)" d="M697.492 1449.08 Q694.344 1449.08 692.492 1451.23 Q690.664 1453.38 690.664 1457.13 Q690.664 1460.86 692.492 1463.03 Q694.344 1465.19 697.492 1465.19 Q700.641 1465.19 702.469 1463.03 Q704.321 1460.86 704.321 1457.13 Q704.321 1453.38 702.469 1451.23 Q700.641 1449.08 697.492 1449.08 M706.775 1434.42 L706.775 1438.68 Q705.016 1437.85 703.21 1437.41 Q701.428 1436.97 699.668 1436.97 Q695.039 1436.97 692.585 1440.09 Q690.155 1443.22 689.807 1449.54 Q691.173 1447.53 693.233 1446.46 Q695.293 1445.37 697.77 1445.37 Q702.979 1445.37 705.988 1448.54 Q709.02 1451.69 709.02 1457.13 Q709.02 1462.46 705.872 1465.67 Q702.724 1468.89 697.492 1468.89 Q691.497 1468.89 688.326 1464.31 Q685.155 1459.7 685.155 1450.97 Q685.155 1442.78 689.043 1437.92 Q692.932 1433.03 699.483 1433.03 Q701.242 1433.03 703.025 1433.38 Q704.83 1433.73 706.775 1434.42 Z" fill="#000000" fill-rule="evenodd" fill-opacity="1" /><path clip-path="url(#clip930)" d="M841.257 1436.74 Q837.646 1436.74 835.817 1440.3 Q834.011 1443.84 834.011 1450.97 Q834.011 1458.08 835.817 1461.65 Q837.646 1465.19 841.257 1465.19 Q844.891 1465.19 846.696 1461.65 Q848.525 1458.08 848.525 1450.97 Q848.525 1443.84 846.696 1440.3 Q844.891 1436.74 841.257 1436.74 M841.257 1433.03 Q847.067 1433.03 850.122 1437.64 Q853.201 1442.22 853.201 1450.97 Q853.201 1459.7 850.122 1464.31 Q847.067 1468.89 841.257 1468.89 Q835.447 1468.89 832.368 1464.31 Q829.312 1459.7 829.312 1450.97 Q829.312 1442.22 832.368 1437.64 Q835.447 1433.03 841.257 1433.03 Z" fill="#000000" fill-rule="evenodd" fill-opacity="1" /><path clip-path="url(#clip930)" d="M861.419 1462.34 L866.303 1462.34 L866.303 1468.22 L861.419 1468.22 L861.419 1462.34 Z" fill="#000000" fill-rule="evenodd" fill-opacity="1" /><path clip-path="url(#clip930)" d="M886.488 1451.81 Q883.155 1451.81 881.233 1453.59 Q879.335 1455.37 879.335 1458.5 Q879.335 1461.62 881.233 1463.4 Q883.155 1465.19 886.488 1465.19 Q889.821 1465.19 891.743 1463.4 Q893.664 1461.6 893.664 1458.5 Q893.664 1455.37 891.743 1453.59 Q889.844 1451.81 886.488 1451.81 M881.812 1449.82 Q878.803 1449.08 877.113 1447.02 Q875.446 1444.96 875.446 1441.99 Q875.446 1437.85 878.386 1435.44 Q881.349 1433.03 886.488 1433.03 Q891.65 1433.03 894.59 1435.44 Q897.53 1437.85 897.53 1441.99 Q897.53 1444.96 895.84 1447.02 Q894.173 1449.08 891.187 1449.82 Q894.567 1450.6 896.442 1452.9 Q898.34 1455.19 898.34 1458.5 Q898.34 1463.52 895.261 1466.21 Q892.205 1468.89 886.488 1468.89 Q880.77 1468.89 877.692 1466.21 Q874.636 1463.52 874.636 1458.5 Q874.636 1455.19 876.534 1452.9 Q878.432 1450.6 881.812 1449.82 M880.099 1442.43 Q880.099 1445.12 881.766 1446.62 Q883.456 1448.13 886.488 1448.13 Q889.497 1448.13 891.187 1446.62 Q892.9 1445.12 892.9 1442.43 Q892.9 1439.75 891.187 1438.24 Q889.497 1436.74 886.488 1436.74 Q883.456 1436.74 881.766 1438.24 Q880.099 1439.75 880.099 1442.43 Z" fill="#000000" fill-rule="evenodd" fill-opacity="1" /><path clip-path="url(#clip930)" d="M1020.43 1464.28 L1028.06 1464.28 L1028.06 1437.92 L1019.75 1439.59 L1019.75 1435.33 L1028.02 1433.66 L1032.69 1433.66 L1032.69 1464.28 L1040.33 1464.28 L1040.33 1468.22 L1020.43 1468.22 L1020.43 1464.28 Z" fill="#000000" fill-rule="evenodd" fill-opacity="1" /><path clip-path="url(#clip930)" d="M1049.78 1462.34 L1054.66 1462.34 L1054.66 1468.22 L1049.78 1468.22 L1049.78 1462.34 Z" fill="#000000" fill-rule="evenodd" fill-opacity="1" /><path clip-path="url(#clip930)" d="M1074.85 1436.74 Q1071.24 1436.74 1069.41 1440.3 Q1067.6 1443.84 1067.6 1450.97 Q1067.6 1458.08 1069.41 1461.65 Q1071.24 1465.19 1074.85 1465.19 Q1078.48 1465.19 1080.29 1461.65 Q1082.12 1458.08 1082.12 1450.97 Q1082.12 1443.84 1080.29 1440.3 Q1078.48 1436.74 1074.85 1436.74 M1074.85 1433.03 Q1080.66 1433.03 1083.71 1437.64 Q1086.79 1442.22 1086.79 1450.97 Q1086.79 1459.7 1083.71 1464.31 Q1080.66 1468.89 1074.85 1468.89 Q1069.04 1468.89 1065.96 1464.31 Q1062.9 1459.7 1062.9 1450.97 Q1062.9 1442.22 1065.96 1437.64 Q1069.04 1433.03 1074.85 1433.03 Z" fill="#000000" fill-rule="evenodd" fill-opacity="1" /><path clip-path="url(#clip930)" d="M692.922 1532.6 Q694.864 1529.35 699.67 1526.49 Q701.548 1525.38 707.341 1525.38 Q713.834 1525.38 717.876 1530.53 Q721.95 1535.69 721.95 1544.09 Q721.95 1552.49 717.876 1557.65 Q713.834 1562.81 707.341 1562.81 Q703.426 1562.81 700.593 1561.28 Q697.792 1559.72 695.946 1556.54 L695.946 1575.44 L690.058 1575.44 L690.058 1544.41 Q690.058 1537.06 692.922 1532.6 M715.871 1544.09 Q715.871 1537.63 713.197 1533.97 Q710.555 1530.28 705.908 1530.28 Q701.261 1530.28 698.588 1533.97 Q695.946 1537.63 695.946 1544.09 Q695.946 1550.55 698.588 1554.24 Q701.261 1557.91 705.908 1557.91 Q710.555 1557.91 713.197 1554.24 Q715.871 1550.55 715.871 1544.09 Z" fill="#000000" fill-rule="evenodd" fill-opacity="1" /><path clip-path="url(#clip930)" d="M758.744 1572.71 L758.744 1577.26 L724.878 1577.26 L724.878 1572.71 L758.744 1572.71 Z" fill="#000000" fill-rule="evenodd" fill-opacity="1" /><path clip-path="url(#clip930)" d="M778.827 1518.6 Q773.862 1518.6 771.348 1523.5 Q768.865 1528.37 768.865 1538.17 Q768.865 1547.94 771.348 1552.84 Q773.862 1557.71 778.827 1557.71 Q783.825 1557.71 786.307 1552.84 Q788.822 1547.94 788.822 1538.17 Q788.822 1528.37 786.307 1523.5 Q783.825 1518.6 778.827 1518.6 M778.827 1513.5 Q786.816 1513.5 791.018 1519.84 Q795.251 1526.14 795.251 1538.17 Q795.251 1550.17 791.018 1556.5 Q786.816 1562.81 778.827 1562.81 Q770.839 1562.81 766.605 1556.5 Q762.404 1550.17 762.404 1538.17 Q762.404 1526.14 766.605 1519.84 Q770.839 1513.5 778.827 1513.5 Z" fill="#000000" fill-rule="evenodd" fill-opacity="1" /><polyline clip-path="url(#clip932)" style="stroke:#000000; stroke-linecap:butt; stroke-linejoin:round; stroke-width:2; stroke-opacity:0.1; fill:none" points="
  262.212,1358.19 1223.1,1358.19 
  "/>
<polyline clip-path="url(#clip932)" style="stroke:#000000; stroke-linecap:butt; stroke-linejoin:round; stroke-width:2; stroke-opacity:0.1; fill:none" points="
  262.212,995.349 1223.1,995.349 
  "/>
<polyline clip-path="url(#clip932)" style="stroke:#000000; stroke-linecap:butt; stroke-linejoin:round; stroke-width:2; stroke-opacity:0.1; fill:none" points="
  262.212,632.511 1223.1,632.511 
  "/>
<polyline clip-path="url(#clip932)" style="stroke:#000000; stroke-linecap:butt; stroke-linejoin:round; stroke-width:2; stroke-opacity:0.1; fill:none" points="
  262.212,269.672 1223.1,269.672 
  "/>
<polyline clip-path="url(#clip930)" style="stroke:#000000; stroke-linecap:butt; stroke-linejoin:round; stroke-width:4; stroke-opacity:1; fill:none" points="
  262.212,1393.02 262.212,162.272 
  "/>
<polyline clip-path="url(#clip930)" style="stroke:#000000; stroke-linecap:butt; stroke-linejoin:round; stroke-width:4; stroke-opacity:1; fill:none" points="
  262.212,1358.19 281.109,1358.19 
  "/>
<polyline clip-path="url(#clip930)" style="stroke:#000000; stroke-linecap:butt; stroke-linejoin:round; stroke-width:4; stroke-opacity:1; fill:none" points="
  262.212,995.349 281.109,995.349 
  "/>
<polyline clip-path="url(#clip930)" style="stroke:#000000; stroke-linecap:butt; stroke-linejoin:round; stroke-width:4; stroke-opacity:1; fill:none" points="
  262.212,632.511 281.109,632.511 
  "/>
<polyline clip-path="url(#clip930)" style="stroke:#000000; stroke-linecap:butt; stroke-linejoin:round; stroke-width:4; stroke-opacity:1; fill:none" points="
  262.212,269.672 281.109,269.672 
  "/>
<path clip-path="url(#clip930)" d="M190.267 1343.99 Q186.656 1343.99 184.827 1347.55 Q183.022 1351.09 183.022 1358.22 Q183.022 1365.33 184.827 1368.89 Q186.656 1372.43 190.267 1372.43 Q193.901 1372.43 195.707 1368.89 Q197.536 1365.33 197.536 1358.22 Q197.536 1351.09 195.707 1347.55 Q193.901 1343.99 190.267 1343.99 M190.267 1340.28 Q196.077 1340.28 199.133 1344.89 Q202.212 1349.47 202.212 1358.22 Q202.212 1366.95 199.133 1371.56 Q196.077 1376.14 190.267 1376.14 Q184.457 1376.14 181.378 1371.56 Q178.323 1366.95 178.323 1358.22 Q178.323 1349.47 181.378 1344.89 Q184.457 1340.28 190.267 1340.28 Z" fill="#000000" fill-rule="evenodd" fill-opacity="1" /><path clip-path="url(#clip930)" d="M181.309 978.069 L199.665 978.069 L199.665 982.004 L185.591 982.004 L185.591 990.476 Q186.61 990.129 187.628 989.967 Q188.647 989.782 189.665 989.782 Q195.452 989.782 198.832 992.953 Q202.212 996.124 202.212 1001.54 Q202.212 1007.12 198.739 1010.22 Q195.267 1013.3 188.948 1013.3 Q186.772 1013.3 184.503 1012.93 Q182.258 1012.56 179.851 1011.82 L179.851 1007.12 Q181.934 1008.25 184.156 1008.81 Q186.378 1009.37 188.855 1009.37 Q192.86 1009.37 195.198 1007.26 Q197.536 1005.15 197.536 1001.54 Q197.536 997.93 195.198 995.823 Q192.86 993.717 188.855 993.717 Q186.98 993.717 185.105 994.134 Q183.253 994.55 181.309 995.43 L181.309 978.069 Z" fill="#000000" fill-rule="evenodd" fill-opacity="1" /><path clip-path="url(#clip930)" d="M150.916 645.856 L158.554 645.856 L158.554 619.49 L150.244 621.157 L150.244 616.897 L158.508 615.231 L163.184 615.231 L163.184 645.856 L170.823 645.856 L170.823 649.791 L150.916 649.791 L150.916 645.856 Z" fill="#000000" fill-rule="evenodd" fill-opacity="1" /><path clip-path="url(#clip930)" d="M190.267 618.309 Q186.656 618.309 184.827 621.874 Q183.022 625.416 183.022 632.545 Q183.022 639.652 184.827 643.217 Q186.656 646.758 190.267 646.758 Q193.901 646.758 195.707 643.217 Q197.536 639.652 197.536 632.545 Q197.536 625.416 195.707 621.874 Q193.901 618.309 190.267 618.309 M190.267 614.606 Q196.077 614.606 199.133 619.212 Q202.212 623.795 202.212 632.545 Q202.212 641.272 199.133 645.879 Q196.077 650.462 190.267 650.462 Q184.457 650.462 181.378 645.879 Q178.323 641.272 178.323 632.545 Q178.323 623.795 181.378 619.212 Q184.457 614.606 190.267 614.606 Z" fill="#000000" fill-rule="evenodd" fill-opacity="1" /><path clip-path="url(#clip930)" d="M151.911 283.017 L159.55 283.017 L159.55 256.652 L151.24 258.318 L151.24 254.059 L159.503 252.392 L164.179 252.392 L164.179 283.017 L171.818 283.017 L171.818 286.952 L151.911 286.952 L151.911 283.017 Z" fill="#000000" fill-rule="evenodd" fill-opacity="1" /><path clip-path="url(#clip930)" d="M181.309 252.392 L199.665 252.392 L199.665 256.328 L185.591 256.328 L185.591 264.8 Q186.61 264.453 187.628 264.29 Q188.647 264.105 189.665 264.105 Q195.452 264.105 198.832 267.277 Q202.212 270.448 202.212 275.864 Q202.212 281.443 198.739 284.545 Q195.267 287.624 188.948 287.624 Q186.772 287.624 184.503 287.253 Q182.258 286.883 179.851 286.142 L179.851 281.443 Q181.934 282.577 184.156 283.133 Q186.378 283.689 188.855 283.689 Q192.86 283.689 195.198 281.582 Q197.536 279.476 197.536 275.864 Q197.536 272.253 195.198 270.147 Q192.86 268.04 188.855 268.04 Q186.98 268.04 185.105 268.457 Q183.253 268.874 181.309 269.753 L181.309 252.392 Z" fill="#000000" fill-rule="evenodd" fill-opacity="1" /><path clip-path="url(#clip930)" d="M40.3403 876.171 L40.3403 848.353 L45.6875 848.353 L71.3095 870.378 L71.3095 848.353 L75.9883 848.353 L75.9883 876.967 L70.6411 876.967 L45.0191 854.942 L45.0191 876.171 L40.3403 876.171 Z" fill="#000000" fill-rule="evenodd" fill-opacity="1" /><path clip-path="url(#clip930)" d="M26.5267 804.621 Q33.8473 808.886 41.0087 810.955 Q48.1701 813.023 55.5225 813.023 Q62.8749 813.023 70.1 810.955 Q77.2933 808.854 84.582 804.621 L84.582 809.713 Q77.1023 814.488 69.8772 816.875 Q62.6521 819.23 55.5225 819.23 Q48.4248 819.23 41.2315 816.875 Q34.0383 814.519 26.5267 809.713 L26.5267 804.621 Z" fill="#000000" fill-rule="evenodd" fill-opacity="1" /><path clip-path="url(#clip930)" d="M26.4631 793.481 L26.4631 787.592 L55.7135 787.592 L40.3403 770.119 L40.3403 762.639 L57.0185 781.545 L75.9883 761.843 L75.9883 769.482 L58.5781 787.592 L75.9883 787.592 L75.9883 793.481 L26.4631 793.481 Z" fill="#000000" fill-rule="evenodd" fill-opacity="1" /><path clip-path="url(#clip930)" d="M47.1835 727.755 Q43.2367 725.559 41.3588 722.503 Q39.481 719.448 39.481 715.31 Q39.481 709.74 43.3959 706.716 Q47.2789 703.692 54.4722 703.692 L75.9883 703.692 L75.9883 709.581 L54.6632 709.581 Q49.5388 709.581 47.0561 711.395 Q44.5735 713.209 44.5735 716.933 Q44.5735 721.485 47.5972 724.126 Q50.6209 726.768 55.8408 726.768 L75.9883 726.768 L75.9883 732.656 L54.6632 732.656 Q49.5069 732.656 47.0561 734.471 Q44.5735 736.285 44.5735 740.072 Q44.5735 744.56 47.6291 747.202 Q50.6528 749.844 55.8408 749.844 L75.9883 749.844 L75.9883 755.732 L40.3403 755.732 L40.3403 749.844 L45.8785 749.844 Q42.6002 747.839 41.0406 745.038 Q39.481 742.237 39.481 738.385 Q39.481 734.502 41.4543 731.797 Q43.4277 729.06 47.1835 727.755 Z" fill="#000000" fill-rule="evenodd" fill-opacity="1" /><path clip-path="url(#clip930)" d="M26.5267 692.934 L26.5267 687.842 Q34.0383 683.067 41.2315 680.712 Q48.4248 678.325 55.5225 678.325 Q62.6521 678.325 69.8772 680.712 Q77.1023 683.067 84.582 687.842 L84.582 692.934 Q77.2933 688.701 70.1 686.632 Q62.8749 684.532 55.5225 684.532 Q48.1701 684.532 41.0087 686.632 Q33.8473 688.701 26.5267 692.934 Z" fill="#000000" fill-rule="evenodd" fill-opacity="1" /><path clip-path="url(#clip930)" d="M679.359 35.3077 Q681.83 31.1758 687.947 27.5299 Q690.337 26.1121 697.71 26.1121 Q705.973 26.1121 711.118 32.6746 Q716.303 39.2371 716.303 49.9314 Q716.303 60.6258 711.118 67.1883 Q705.973 73.7508 697.71 73.7508 Q692.727 73.7508 689.122 71.8063 Q685.557 69.8214 683.207 65.7705 L683.207 89.8329 L675.713 89.8329 L675.713 50.3365 Q675.713 40.9789 679.359 35.3077 M708.566 49.9314 Q708.566 41.7081 705.163 37.0496 Q701.801 32.3505 695.887 32.3505 Q689.972 32.3505 686.57 37.0496 Q683.207 41.7081 683.207 49.9314 Q683.207 58.1548 686.57 62.8538 Q689.972 67.5124 695.887 67.5124 Q701.801 67.5124 705.163 62.8538 Q708.566 58.1548 708.566 49.9314 Z" fill="#000000" fill-rule="evenodd" fill-opacity="1" /><path clip-path="url(#clip930)" d="M763.132 86.3491 L763.132 92.1419 L720.03 92.1419 L720.03 86.3491 L763.132 86.3491 Z" fill="#000000" fill-rule="evenodd" fill-opacity="1" /><path clip-path="url(#clip930)" d="M788.693 17.4837 Q782.373 17.4837 779.173 23.7221 Q776.014 29.92 776.014 42.3968 Q776.014 54.833 779.173 61.0714 Q782.373 67.2693 788.693 67.2693 Q795.053 67.2693 798.213 61.0714 Q801.413 54.833 801.413 42.3968 Q801.413 29.92 798.213 23.7221 Q795.053 17.4837 788.693 17.4837 M788.693 11.0023 Q798.861 11.0023 804.208 19.0636 Q809.596 27.0843 809.596 42.3968 Q809.596 57.6687 804.208 65.73 Q798.861 73.7508 788.693 73.7508 Q778.525 73.7508 773.137 65.73 Q767.79 57.6687 767.79 42.3968 Q767.79 27.0843 773.137 19.0636 Q778.525 11.0023 788.693 11.0023 Z" fill="#000000" fill-rule="evenodd" fill-opacity="1" /><polyline clip-path="url(#clip932)" style="stroke:#009af9; stroke-linecap:butt; stroke-linejoin:round; stroke-width:4; stroke-opacity:1; fill:none" points="
  1185.37,1350.93 1164.55,1336.42 1144.07,1321.9 1123.9,1307.39 1104.07,1292.88 1084.55,1278.36 1065.34,1263.85 1046.45,1249.34 1027.86,1234.82 1009.59,1220.31 
  991.607,1205.8 973.926,1191.28 956.54,1176.77 939.445,1162.25 922.636,1147.74 906.112,1133.23 889.868,1118.71 873.9,1104.2 858.206,1089.69 842.783,1075.17 
  827.627,1060.66 812.734,1046.15 798.101,1031.63 783.725,1017.12 769.602,1002.61 755.729,988.092 742.103,973.579 728.72,959.065 715.457,944.552 700.112,930.038 
  686.449,915.525 673.921,901.011 661.633,886.497 649.58,871.984 637.759,857.47 626.166,842.957 614.798,828.443 603.651,813.93 592.722,799.416 582.008,784.903 
  571.504,770.389 561.208,755.876 551.116,741.362 541.225,726.849 531.532,712.335 522.033,697.822 512.726,683.308 503.606,668.794 494.67,654.281 485.917,639.767 
  477.341,625.254 468.94,610.74 460.711,596.227 452.65,581.713 444.755,567.2 437.022,552.686 429.447,538.173 422.028,523.659 414.762,509.146 407.644,494.632 
  400.672,480.119 393.843,465.605 387.152,451.092 380.598,436.578 374.177,422.064 367.885,407.551 361.719,393.037 355.676,378.524 349.754,364.01 343.949,349.497 
  338.258,334.983 332.679,320.47 327.208,305.956 321.844,291.443 316.584,276.929 311.425,262.416 306.365,247.902 301.402,233.389 296.534,218.875 291.759,204.361 
  
  "/>
<polyline clip-path="url(#clip932)" style="stroke:#e26f46; stroke-linecap:butt; stroke-linejoin:round; stroke-width:4; stroke-opacity:1; fill:none" points="
  1195.9,1358.19 1174.92,1343.67 1154.27,1329.16 1133.94,1314.65 1113.95,1300.13 1094.27,1285.62 1074.9,1271.11 1055.86,1256.59 1037.12,1242.08 1018.69,1227.57 
  1000.56,1213.05 982.729,1198.54 965.196,1184.02 947.956,1169.51 931.005,1155 914.339,1140.48 897.955,1125.97 881.85,1111.46 866.019,1096.94 850.461,1082.43 
  835.172,1067.92 820.147,1053.4 805.385,1038.89 790.881,1024.38 776.632,1009.86 762.634,995.349 748.885,980.835 735.381,966.322 722.119,951.808 707.736,937.295 
  692.803,922.781 680.155,908.268 667.747,893.754 655.577,879.241 643.641,864.727 631.934,850.214 620.454,835.7 609.197,821.187 598.16,806.673 587.338,792.16 
  576.73,777.646 566.33,763.132 556.137,748.619 546.146,734.105 536.354,719.592 526.759,705.078 517.356,690.565 508.142,676.051 499.115,661.538 490.271,647.024 
  481.607,632.511 473.119,617.997 464.804,603.484 456.66,588.97 448.682,574.457 440.868,559.943 433.215,545.429 425.719,530.916 418.376,516.402 411.185,501.889 
  404.14,487.375 397.24,472.862 390.48,458.348 383.859,443.835 377.371,429.321 371.015,414.808 364.786,400.294 358.682,385.781 352.7,371.267 346.837,356.754 
  341.089,342.24 335.455,327.727 329.93,313.213 324.513,298.699 319.201,284.186 313.991,269.672 308.882,255.159 303.871,240.645 298.956,226.132 294.135,211.618 
  289.406,197.105 
  "/>
<path clip-path="url(#clip930)" d="
M618.777 358.817 L1191.07 358.817 L1191.07 203.297 L618.777 203.297  Z
  " fill="#ffffff" fill-rule="evenodd" fill-opacity="1"/>
<polyline clip-path="url(#clip930)" style="stroke:#000000; stroke-linecap:butt; stroke-linejoin:round; stroke-width:4; stroke-opacity:1; fill:none" points="
  618.777,358.817 1191.07,358.817 1191.07,203.297 618.777,203.297 618.777,358.817 
  "/>
<polyline clip-path="url(#clip930)" style="stroke:#009af9; stroke-linecap:butt; stroke-linejoin:round; stroke-width:4; stroke-opacity:1; fill:none" points="
  658.777,255.137 898.777,255.137 
  "/>
<path clip-path="url(#clip930)" d="M959.286 247.487 L959.286 251.468 Q957.48 250.473 955.652 249.987 Q953.846 249.477 951.994 249.477 Q947.851 249.477 945.559 252.116 Q943.268 254.732 943.268 259.477 Q943.268 264.223 945.559 266.862 Q947.851 269.477 951.994 269.477 Q953.846 269.477 955.652 268.991 Q957.48 268.482 959.286 267.487 L959.286 271.422 Q957.504 272.255 955.582 272.672 Q953.684 273.088 951.531 273.088 Q945.675 273.088 942.226 269.408 Q938.777 265.727 938.777 259.477 Q938.777 253.135 942.249 249.501 Q945.744 245.866 951.809 245.866 Q953.777 245.866 955.652 246.283 Q957.527 246.677 959.286 247.487 Z" fill="#000000" fill-rule="evenodd" fill-opacity="1" /><path clip-path="url(#clip930)" d="M988.869 258.389 L988.869 260.473 L969.286 260.473 Q969.564 264.871 971.925 267.186 Q974.309 269.477 978.545 269.477 Q980.999 269.477 983.291 268.876 Q985.605 268.274 987.874 267.07 L987.874 271.098 Q985.582 272.07 983.175 272.579 Q980.767 273.088 978.291 273.088 Q972.087 273.088 968.453 269.477 Q964.842 265.866 964.842 259.709 Q964.842 253.343 968.267 249.616 Q971.716 245.866 977.55 245.866 Q982.781 245.866 985.814 249.246 Q988.869 252.602 988.869 258.389 M984.61 257.139 Q984.564 253.644 982.642 251.561 Q980.744 249.477 977.596 249.477 Q974.031 249.477 971.879 251.491 Q969.749 253.505 969.425 257.163 L984.61 257.139 Z" fill="#000000" fill-rule="evenodd" fill-opacity="1" /><path clip-path="url(#clip930)" d="M1017.41 256.769 L1017.41 272.417 L1013.15 272.417 L1013.15 256.908 Q1013.15 253.227 1011.72 251.399 Q1010.28 249.57 1007.41 249.57 Q1003.96 249.57 1001.97 251.769 Q999.98 253.968 999.98 257.764 L999.98 272.417 L995.698 272.417 L995.698 246.491 L999.98 246.491 L999.98 250.519 Q1001.51 248.181 1003.57 247.024 Q1005.65 245.866 1008.36 245.866 Q1012.83 245.866 1015.12 248.644 Q1017.41 251.399 1017.41 256.769 Z" fill="#000000" fill-rule="evenodd" fill-opacity="1" /><path clip-path="url(#clip930)" d="M1030.12 239.13 L1030.12 246.491 L1038.89 246.491 L1038.89 249.802 L1030.12 249.802 L1030.12 263.876 Q1030.12 267.047 1030.98 267.95 Q1031.86 268.852 1034.52 268.852 L1038.89 268.852 L1038.89 272.417 L1034.52 272.417 Q1029.59 272.417 1027.71 270.588 Q1025.84 268.737 1025.84 263.876 L1025.84 249.802 L1022.71 249.802 L1022.71 246.491 L1025.84 246.491 L1025.84 239.13 L1030.12 239.13 Z" fill="#000000" fill-rule="evenodd" fill-opacity="1" /><path clip-path="url(#clip930)" d="M1066.67 258.389 L1066.67 260.473 L1047.09 260.473 Q1047.36 264.871 1049.73 267.186 Q1052.11 269.477 1056.35 269.477 Q1058.8 269.477 1061.09 268.876 Q1063.41 268.274 1065.67 267.07 L1065.67 271.098 Q1063.38 272.07 1060.98 272.579 Q1058.57 273.088 1056.09 273.088 Q1049.89 273.088 1046.25 269.477 Q1042.64 265.866 1042.64 259.709 Q1042.64 253.343 1046.07 249.616 Q1049.52 245.866 1055.35 245.866 Q1060.58 245.866 1063.61 249.246 Q1066.67 252.602 1066.67 258.389 M1062.41 257.139 Q1062.36 253.644 1060.44 251.561 Q1058.54 249.477 1055.4 249.477 Q1051.83 249.477 1049.68 251.491 Q1047.55 253.505 1047.23 257.163 L1062.41 257.139 Z" fill="#000000" fill-rule="evenodd" fill-opacity="1" /><path clip-path="url(#clip930)" d="M1088.68 250.473 Q1087.97 250.056 1087.11 249.871 Q1086.28 249.663 1085.26 249.663 Q1081.65 249.663 1079.7 252.024 Q1077.78 254.362 1077.78 258.76 L1077.78 272.417 L1073.5 272.417 L1073.5 246.491 L1077.78 246.491 L1077.78 250.519 Q1079.12 248.158 1081.28 247.024 Q1083.43 245.866 1086.51 245.866 Q1086.95 245.866 1087.48 245.936 Q1088.01 245.982 1088.66 246.098 L1088.68 250.473 Z" fill="#000000" fill-rule="evenodd" fill-opacity="1" /><path clip-path="url(#clip930)" d="M1109.68 247.255 L1109.68 251.283 Q1107.87 250.357 1105.93 249.894 Q1103.98 249.431 1101.9 249.431 Q1098.73 249.431 1097.13 250.403 Q1095.56 251.376 1095.56 253.32 Q1095.56 254.802 1096.69 255.658 Q1097.83 256.491 1101.25 257.255 L1102.71 257.579 Q1107.25 258.552 1109.15 260.334 Q1111.07 262.093 1111.07 265.264 Q1111.07 268.876 1108.2 270.982 Q1105.35 273.088 1100.35 273.088 Q1098.27 273.088 1096 272.672 Q1093.75 272.278 1091.25 271.468 L1091.25 267.07 Q1093.61 268.297 1095.91 268.922 Q1098.2 269.524 1100.44 269.524 Q1103.45 269.524 1105.07 268.505 Q1106.69 267.463 1106.69 265.589 Q1106.69 263.852 1105.51 262.926 Q1104.35 262.001 1100.4 261.144 L1098.91 260.797 Q1094.96 259.964 1093.2 258.251 Q1091.44 256.514 1091.44 253.505 Q1091.44 249.848 1094.03 247.857 Q1096.62 245.866 1101.39 245.866 Q1103.75 245.866 1105.84 246.214 Q1107.92 246.561 1109.68 247.255 Z" fill="#000000" fill-rule="evenodd" fill-opacity="1" /><polyline clip-path="url(#clip930)" style="stroke:#e26f46; stroke-linecap:butt; stroke-linejoin:round; stroke-width:4; stroke-opacity:1; fill:none" points="
  658.777,306.977 898.777,306.977 
  "/>
<path clip-path="url(#clip930)" d="M955.281 288.239 L955.281 291.78 L951.207 291.78 Q948.916 291.78 948.013 292.706 Q947.133 293.632 947.133 296.04 L947.133 298.331 L954.147 298.331 L954.147 301.642 L947.133 301.642 L947.133 324.257 L942.851 324.257 L942.851 301.642 L938.777 301.642 L938.777 298.331 L942.851 298.331 L942.851 296.526 Q942.851 292.197 944.865 290.23 Q946.879 288.239 951.254 288.239 L955.281 288.239 Z" fill="#000000" fill-rule="evenodd" fill-opacity="1" /><path clip-path="url(#clip930)" d="M970.629 311.225 Q965.467 311.225 963.476 312.405 Q961.485 313.586 961.485 316.433 Q961.485 318.702 962.967 320.044 Q964.471 321.364 967.041 321.364 Q970.582 321.364 972.712 318.864 Q974.865 316.341 974.865 312.174 L974.865 311.225 L970.629 311.225 M979.124 309.466 L979.124 324.257 L974.865 324.257 L974.865 320.322 Q973.406 322.683 971.23 323.817 Q969.054 324.928 965.906 324.928 Q961.925 324.928 959.564 322.706 Q957.226 320.461 957.226 316.711 Q957.226 312.336 960.142 310.114 Q963.082 307.892 968.892 307.892 L974.865 307.892 L974.865 307.475 Q974.865 304.535 972.92 302.938 Q970.999 301.317 967.504 301.317 Q965.281 301.317 963.175 301.85 Q961.068 302.382 959.124 303.447 L959.124 299.512 Q961.462 298.609 963.661 298.169 Q965.86 297.706 967.943 297.706 Q973.568 297.706 976.346 300.623 Q979.124 303.54 979.124 309.466 Z" fill="#000000" fill-rule="evenodd" fill-opacity="1" /><path clip-path="url(#clip930)" d="M1006.55 299.327 L1006.55 303.308 Q1004.75 302.313 1002.92 301.827 Q1001.11 301.317 999.263 301.317 Q995.119 301.317 992.827 303.956 Q990.536 306.572 990.536 311.317 Q990.536 316.063 992.827 318.702 Q995.119 321.317 999.263 321.317 Q1001.11 321.317 1002.92 320.831 Q1004.75 320.322 1006.55 319.327 L1006.55 323.262 Q1004.77 324.095 1002.85 324.512 Q1000.95 324.928 998.8 324.928 Q992.943 324.928 989.494 321.248 Q986.045 317.567 986.045 311.317 Q986.045 304.975 989.517 301.341 Q993.013 297.706 999.077 297.706 Q1001.05 297.706 1002.92 298.123 Q1004.8 298.517 1006.55 299.327 Z" fill="#000000" fill-rule="evenodd" fill-opacity="1" /><path clip-path="url(#clip930)" d="M1036.14 310.229 L1036.14 312.313 L1016.55 312.313 Q1016.83 316.711 1019.19 319.026 Q1021.58 321.317 1025.81 321.317 Q1028.27 321.317 1030.56 320.716 Q1032.87 320.114 1035.14 318.91 L1035.14 322.938 Q1032.85 323.91 1030.44 324.419 Q1028.04 324.928 1025.56 324.928 Q1019.36 324.928 1015.72 321.317 Q1012.11 317.706 1012.11 311.549 Q1012.11 305.183 1015.54 301.456 Q1018.98 297.706 1024.82 297.706 Q1030.05 297.706 1033.08 301.086 Q1036.14 304.442 1036.14 310.229 M1031.88 308.979 Q1031.83 305.484 1029.91 303.401 Q1028.01 301.317 1024.86 301.317 Q1021.3 301.317 1019.15 303.331 Q1017.02 305.345 1016.69 309.003 L1031.88 308.979 Z" fill="#000000" fill-rule="evenodd" fill-opacity="1" /><path clip-path="url(#clip930)" d="M1059.66 299.095 L1059.66 303.123 Q1057.85 302.197 1055.91 301.734 Q1053.96 301.271 1051.88 301.271 Q1048.71 301.271 1047.11 302.243 Q1045.54 303.216 1045.54 305.16 Q1045.54 306.642 1046.67 307.498 Q1047.8 308.331 1051.23 309.095 L1052.69 309.419 Q1057.23 310.392 1059.12 312.174 Q1061.04 313.933 1061.04 317.104 Q1061.04 320.716 1058.17 322.822 Q1055.33 324.928 1050.33 324.928 Q1048.24 324.928 1045.98 324.512 Q1043.73 324.118 1041.23 323.308 L1041.23 318.91 Q1043.59 320.137 1045.88 320.762 Q1048.17 321.364 1050.42 321.364 Q1053.43 321.364 1055.05 320.345 Q1056.67 319.303 1056.67 317.429 Q1056.67 315.692 1055.49 314.766 Q1054.33 313.841 1050.37 312.984 L1048.89 312.637 Q1044.93 311.804 1043.17 310.091 Q1041.42 308.354 1041.42 305.345 Q1041.42 301.688 1044.01 299.697 Q1046.6 297.706 1051.37 297.706 Q1053.73 297.706 1055.81 298.054 Q1057.9 298.401 1059.66 299.095 Z" fill="#000000" fill-rule="evenodd" fill-opacity="1" /><path clip-path="url(#clip930)" d="
M1595.54 1393.02 L2556.43 1393.02 L2556.43 162.272 L1595.54 162.272  Z
  " fill="#ffffff" fill-rule="evenodd" fill-opacity="1"/>
<defs>
  <clipPath id="clip933">
    <rect x="1595" y="162" width="962" height="1232"/>
  </clipPath>
</defs>
<polyline clip-path="url(#clip933)" style="stroke:#000000; stroke-linecap:butt; stroke-linejoin:round; stroke-width:2; stroke-opacity:0.1; fill:none" points="
  1707.45,1393.02 1707.45,162.272 
  "/>
<polyline clip-path="url(#clip933)" style="stroke:#000000; stroke-linecap:butt; stroke-linejoin:round; stroke-width:2; stroke-opacity:0.1; fill:none" points="
  1915.15,1393.02 1915.15,162.272 
  "/>
<polyline clip-path="url(#clip933)" style="stroke:#000000; stroke-linecap:butt; stroke-linejoin:round; stroke-width:2; stroke-opacity:0.1; fill:none" points="
  2122.86,1393.02 2122.86,162.272 
  "/>
<polyline clip-path="url(#clip933)" style="stroke:#000000; stroke-linecap:butt; stroke-linejoin:round; stroke-width:2; stroke-opacity:0.1; fill:none" points="
  2330.56,1393.02 2330.56,162.272 
  "/>
<polyline clip-path="url(#clip933)" style="stroke:#000000; stroke-linecap:butt; stroke-linejoin:round; stroke-width:2; stroke-opacity:0.1; fill:none" points="
  2538.27,1393.02 2538.27,162.272 
  "/>
<polyline clip-path="url(#clip930)" style="stroke:#000000; stroke-linecap:butt; stroke-linejoin:round; stroke-width:4; stroke-opacity:1; fill:none" points="
  1595.54,1393.02 2556.43,1393.02 
  "/>
<polyline clip-path="url(#clip930)" style="stroke:#000000; stroke-linecap:butt; stroke-linejoin:round; stroke-width:4; stroke-opacity:1; fill:none" points="
  1707.45,1393.02 1707.45,1374.12 
  "/>
<polyline clip-path="url(#clip930)" style="stroke:#000000; stroke-linecap:butt; stroke-linejoin:round; stroke-width:4; stroke-opacity:1; fill:none" points="
  1915.15,1393.02 1915.15,1374.12 
  "/>
<polyline clip-path="url(#clip930)" style="stroke:#000000; stroke-linecap:butt; stroke-linejoin:round; stroke-width:4; stroke-opacity:1; fill:none" points="
  2122.86,1393.02 2122.86,1374.12 
  "/>
<polyline clip-path="url(#clip930)" style="stroke:#000000; stroke-linecap:butt; stroke-linejoin:round; stroke-width:4; stroke-opacity:1; fill:none" points="
  2330.56,1393.02 2330.56,1374.12 
  "/>
<polyline clip-path="url(#clip930)" style="stroke:#000000; stroke-linecap:butt; stroke-linejoin:round; stroke-width:4; stroke-opacity:1; fill:none" points="
  2538.27,1393.02 2538.27,1374.12 
  "/>
<path clip-path="url(#clip930)" d="M1686.22 1464.28 L1702.54 1464.28 L1702.54 1468.22 L1680.6 1468.22 L1680.6 1464.28 Q1683.26 1461.53 1687.84 1456.9 Q1692.45 1452.25 1693.63 1450.9 Q1695.87 1448.38 1696.75 1446.65 Q1697.66 1444.89 1697.66 1443.2 Q1697.66 1440.44 1695.71 1438.71 Q1693.79 1436.97 1690.69 1436.97 Q1688.49 1436.97 1686.04 1437.73 Q1683.6 1438.5 1680.83 1440.05 L1680.83 1435.33 Q1683.65 1434.19 1686.1 1433.61 Q1688.56 1433.03 1690.6 1433.03 Q1695.97 1433.03 1699.16 1435.72 Q1702.35 1438.41 1702.35 1442.9 Q1702.35 1445.03 1701.54 1446.95 Q1700.76 1448.84 1698.65 1451.44 Q1698.07 1452.11 1694.97 1455.33 Q1691.87 1458.52 1686.22 1464.28 Z" fill="#000000" fill-rule="evenodd" fill-opacity="1" /><path clip-path="url(#clip930)" d="M1722.35 1436.74 Q1718.74 1436.74 1716.91 1440.3 Q1715.11 1443.84 1715.11 1450.97 Q1715.11 1458.08 1716.91 1461.65 Q1718.74 1465.19 1722.35 1465.19 Q1725.99 1465.19 1727.79 1461.65 Q1729.62 1458.08 1729.62 1450.97 Q1729.62 1443.84 1727.79 1440.3 Q1725.99 1436.74 1722.35 1436.74 M1722.35 1433.03 Q1728.16 1433.03 1731.22 1437.64 Q1734.3 1442.22 1734.3 1450.97 Q1734.3 1459.7 1731.22 1464.31 Q1728.16 1468.89 1722.35 1468.89 Q1716.54 1468.89 1713.47 1464.31 Q1710.41 1459.7 1710.41 1450.97 Q1710.41 1442.22 1713.47 1437.64 Q1716.54 1433.03 1722.35 1433.03 Z" fill="#000000" fill-rule="evenodd" fill-opacity="1" /><path clip-path="url(#clip930)" d="M1903.32 1437.73 L1891.52 1456.18 L1903.32 1456.18 L1903.32 1437.73 M1902.1 1433.66 L1907.98 1433.66 L1907.98 1456.18 L1912.91 1456.18 L1912.91 1460.07 L1907.98 1460.07 L1907.98 1468.22 L1903.32 1468.22 L1903.32 1460.07 L1887.72 1460.07 L1887.72 1455.56 L1902.1 1433.66 Z" fill="#000000" fill-rule="evenodd" fill-opacity="1" /><path clip-path="url(#clip930)" d="M1930.64 1436.74 Q1927.03 1436.74 1925.2 1440.3 Q1923.39 1443.84 1923.39 1450.97 Q1923.39 1458.08 1925.2 1461.65 Q1927.03 1465.19 1930.64 1465.19 Q1934.27 1465.19 1936.08 1461.65 Q1937.91 1458.08 1937.91 1450.97 Q1937.91 1443.84 1936.08 1440.3 Q1934.27 1436.74 1930.64 1436.74 M1930.64 1433.03 Q1936.45 1433.03 1939.5 1437.64 Q1942.58 1442.22 1942.58 1450.97 Q1942.58 1459.7 1939.5 1464.31 Q1936.45 1468.89 1930.64 1468.89 Q1924.83 1468.89 1921.75 1464.31 Q1918.69 1459.7 1918.69 1450.97 Q1918.69 1442.22 1921.75 1437.64 Q1924.83 1433.03 1930.64 1433.03 Z" fill="#000000" fill-rule="evenodd" fill-opacity="1" /><path clip-path="url(#clip930)" d="M2108.26 1449.08 Q2105.12 1449.08 2103.26 1451.23 Q2101.44 1453.38 2101.44 1457.13 Q2101.44 1460.86 2103.26 1463.03 Q2105.12 1465.19 2108.26 1465.19 Q2111.41 1465.19 2113.24 1463.03 Q2115.09 1460.86 2115.09 1457.13 Q2115.09 1453.38 2113.24 1451.23 Q2111.41 1449.08 2108.26 1449.08 M2117.55 1434.42 L2117.55 1438.68 Q2115.79 1437.85 2113.98 1437.41 Q2112.2 1436.97 2110.44 1436.97 Q2105.81 1436.97 2103.36 1440.09 Q2100.93 1443.22 2100.58 1449.54 Q2101.94 1447.53 2104 1446.46 Q2106.07 1445.37 2108.54 1445.37 Q2113.75 1445.37 2116.76 1448.54 Q2119.79 1451.69 2119.79 1457.13 Q2119.79 1462.46 2116.64 1465.67 Q2113.5 1468.89 2108.26 1468.89 Q2102.27 1468.89 2099.1 1464.31 Q2095.93 1459.7 2095.93 1450.97 Q2095.93 1442.78 2099.82 1437.92 Q2103.7 1433.03 2110.25 1433.03 Q2112.01 1433.03 2113.8 1433.38 Q2115.6 1433.73 2117.55 1434.42 Z" fill="#000000" fill-rule="evenodd" fill-opacity="1" /><path clip-path="url(#clip930)" d="M2137.85 1436.74 Q2134.24 1436.74 2132.41 1440.3 Q2130.6 1443.84 2130.6 1450.97 Q2130.6 1458.08 2132.41 1461.65 Q2134.24 1465.19 2137.85 1465.19 Q2141.48 1465.19 2143.29 1461.65 Q2145.12 1458.08 2145.12 1450.97 Q2145.12 1443.84 2143.29 1440.3 Q2141.48 1436.74 2137.85 1436.74 M2137.85 1433.03 Q2143.66 1433.03 2146.71 1437.64 Q2149.79 1442.22 2149.79 1450.97 Q2149.79 1459.7 2146.71 1464.31 Q2143.66 1468.89 2137.85 1468.89 Q2132.04 1468.89 2128.96 1464.31 Q2125.9 1459.7 2125.9 1450.97 Q2125.9 1442.22 2128.96 1437.64 Q2132.04 1433.03 2137.85 1433.03 Z" fill="#000000" fill-rule="evenodd" fill-opacity="1" /><path clip-path="url(#clip930)" d="M2315.44 1451.81 Q2312.1 1451.81 2310.18 1453.59 Q2308.28 1455.37 2308.28 1458.5 Q2308.28 1461.62 2310.18 1463.4 Q2312.1 1465.19 2315.44 1465.19 Q2318.77 1465.19 2320.69 1463.4 Q2322.61 1461.6 2322.61 1458.5 Q2322.61 1455.37 2320.69 1453.59 Q2318.79 1451.81 2315.44 1451.81 M2310.76 1449.82 Q2307.75 1449.08 2306.06 1447.02 Q2304.4 1444.96 2304.4 1441.99 Q2304.4 1437.85 2307.34 1435.44 Q2310.3 1433.03 2315.44 1433.03 Q2320.6 1433.03 2323.54 1435.44 Q2326.48 1437.85 2326.48 1441.99 Q2326.48 1444.96 2324.79 1447.02 Q2323.12 1449.08 2320.14 1449.82 Q2323.52 1450.6 2325.39 1452.9 Q2327.29 1455.19 2327.29 1458.5 Q2327.29 1463.52 2324.21 1466.21 Q2321.16 1468.89 2315.44 1468.89 Q2309.72 1468.89 2306.64 1466.21 Q2303.59 1463.52 2303.59 1458.5 Q2303.59 1455.19 2305.48 1452.9 Q2307.38 1450.6 2310.76 1449.82 M2309.05 1442.43 Q2309.05 1445.12 2310.72 1446.62 Q2312.41 1448.13 2315.44 1448.13 Q2318.45 1448.13 2320.14 1446.62 Q2321.85 1445.12 2321.85 1442.43 Q2321.85 1439.75 2320.14 1438.24 Q2318.45 1436.74 2315.44 1436.74 Q2312.41 1436.74 2310.72 1438.24 Q2309.05 1439.75 2309.05 1442.43 Z" fill="#000000" fill-rule="evenodd" fill-opacity="1" /><path clip-path="url(#clip930)" d="M2345.6 1436.74 Q2341.99 1436.74 2340.16 1440.3 Q2338.35 1443.84 2338.35 1450.97 Q2338.35 1458.08 2340.16 1461.65 Q2341.99 1465.19 2345.6 1465.19 Q2349.23 1465.19 2351.04 1461.65 Q2352.87 1458.08 2352.87 1450.97 Q2352.87 1443.84 2351.04 1440.3 Q2349.23 1436.74 2345.6 1436.74 M2345.6 1433.03 Q2351.41 1433.03 2354.47 1437.64 Q2357.54 1442.22 2357.54 1450.97 Q2357.54 1459.7 2354.47 1464.31 Q2351.41 1468.89 2345.6 1468.89 Q2339.79 1468.89 2336.71 1464.31 Q2333.66 1459.7 2333.66 1450.97 Q2333.66 1442.22 2336.71 1437.64 Q2339.79 1433.03 2345.6 1433.03 Z" fill="#000000" fill-rule="evenodd" fill-opacity="1" /><path clip-path="url(#clip930)" d="M2497.88 1464.28 L2505.52 1464.28 L2505.52 1437.92 L2497.21 1439.59 L2497.21 1435.33 L2505.47 1433.66 L2510.15 1433.66 L2510.15 1464.28 L2517.78 1464.28 L2517.78 1468.22 L2497.88 1468.22 L2497.88 1464.28 Z" fill="#000000" fill-rule="evenodd" fill-opacity="1" /><path clip-path="url(#clip930)" d="M2537.23 1436.74 Q2533.62 1436.74 2531.79 1440.3 Q2529.98 1443.84 2529.98 1450.97 Q2529.98 1458.08 2531.79 1461.65 Q2533.62 1465.19 2537.23 1465.19 Q2540.86 1465.19 2542.67 1461.65 Q2544.5 1458.08 2544.5 1450.97 Q2544.5 1443.84 2542.67 1440.3 Q2540.86 1436.74 2537.23 1436.74 M2537.23 1433.03 Q2543.04 1433.03 2546.09 1437.64 Q2549.17 1442.22 2549.17 1450.97 Q2549.17 1459.7 2546.09 1464.31 Q2543.04 1468.89 2537.23 1468.89 Q2531.42 1468.89 2528.34 1464.31 Q2525.28 1459.7 2525.28 1450.97 Q2525.28 1442.22 2528.34 1437.64 Q2531.42 1433.03 2537.23 1433.03 Z" fill="#000000" fill-rule="evenodd" fill-opacity="1" /><path clip-path="url(#clip930)" d="M2567.39 1436.74 Q2563.78 1436.74 2561.95 1440.3 Q2560.15 1443.84 2560.15 1450.97 Q2560.15 1458.08 2561.95 1461.65 Q2563.78 1465.19 2567.39 1465.19 Q2571.03 1465.19 2572.83 1461.65 Q2574.66 1458.08 2574.66 1450.97 Q2574.66 1443.84 2572.83 1440.3 Q2571.03 1436.74 2567.39 1436.74 M2567.39 1433.03 Q2573.2 1433.03 2576.26 1437.64 Q2579.34 1442.22 2579.34 1450.97 Q2579.34 1459.7 2576.26 1464.31 Q2573.2 1468.89 2567.39 1468.89 Q2561.58 1468.89 2558.5 1464.31 Q2555.45 1459.7 2555.45 1450.97 Q2555.45 1442.22 2558.5 1437.64 Q2561.58 1433.03 2567.39 1433.03 Z" fill="#000000" fill-rule="evenodd" fill-opacity="1" /><path clip-path="url(#clip930)" d="M1937.09 1556.54 L1937.09 1575.44 L1931.2 1575.44 L1931.2 1526.24 L1937.09 1526.24 L1937.09 1531.65 Q1938.93 1528.46 1941.73 1526.94 Q1944.57 1525.38 1948.48 1525.38 Q1954.98 1525.38 1959.02 1530.53 Q1963.09 1535.69 1963.09 1544.09 Q1963.09 1552.49 1959.02 1557.65 Q1954.98 1562.81 1948.48 1562.81 Q1944.57 1562.81 1941.73 1561.28 Q1938.93 1559.72 1937.09 1556.54 M1957.01 1544.09 Q1957.01 1537.63 1954.34 1533.97 Q1951.7 1530.28 1947.05 1530.28 Q1942.4 1530.28 1939.73 1533.97 Q1937.09 1537.63 1937.09 1544.09 Q1937.09 1550.55 1939.73 1554.24 Q1942.4 1557.91 1947.05 1557.91 Q1951.7 1557.91 1954.34 1554.24 Q1957.01 1550.55 1957.01 1544.09 Z" fill="#000000" fill-rule="evenodd" fill-opacity="1" /><path clip-path="url(#clip930)" d="M1999.89 1572.71 L1999.89 1577.26 L1966.02 1577.26 L1966.02 1572.71 L1999.89 1572.71 Z" fill="#000000" fill-rule="evenodd" fill-opacity="1" /><path clip-path="url(#clip930)" d="M2019.97 1518.6 Q2015 1518.6 2012.49 1523.5 Q2010.01 1528.37 2010.01 1538.17 Q2010.01 1547.94 2012.49 1552.84 Q2015 1557.71 2019.97 1557.71 Q2024.97 1557.71 2027.45 1552.84 Q2029.96 1547.94 2029.96 1538.17 Q2029.96 1528.37 2027.45 1523.5 Q2024.97 1518.6 2019.97 1518.6 M2019.97 1513.5 Q2027.96 1513.5 2032.16 1519.84 Q2036.39 1526.14 2036.39 1538.17 Q2036.39 1550.17 2032.16 1556.5 Q2027.96 1562.81 2019.97 1562.81 Q2011.98 1562.81 2007.75 1556.5 Q2003.55 1550.17 2003.55 1538.17 Q2003.55 1526.14 2007.75 1519.84 Q2011.98 1513.5 2019.97 1513.5 Z" fill="#000000" fill-rule="evenodd" fill-opacity="1" /><path clip-path="url(#clip930)" d="M2081.65 1512.42 Q2077.39 1519.74 2075.32 1526.9 Q2073.25 1534.07 2073.25 1541.42 Q2073.25 1548.77 2075.32 1556 Q2077.42 1563.19 2081.65 1570.48 L2076.56 1570.48 Q2071.79 1563 2069.4 1555.77 Q2067.04 1548.55 2067.04 1541.42 Q2067.04 1534.32 2069.4 1527.13 Q2071.75 1519.93 2076.56 1512.42 L2081.65 1512.42 Z" fill="#000000" fill-rule="evenodd" fill-opacity="1" /><path clip-path="url(#clip930)" d="M2092.79 1512.36 L2098.68 1512.36 L2098.68 1541.61 L2116.16 1526.24 L2123.64 1526.24 L2104.73 1542.91 L2124.43 1561.88 L2116.79 1561.88 L2098.68 1544.47 L2098.68 1561.88 L2092.79 1561.88 L2092.79 1512.36 Z" fill="#000000" fill-rule="evenodd" fill-opacity="1" /><path clip-path="url(#clip930)" d="M2137.45 1519.65 L2137.45 1537.5 L2145.53 1537.5 Q2150.02 1537.5 2152.47 1535.18 Q2154.92 1532.86 2154.92 1528.56 Q2154.92 1524.29 2152.47 1521.97 Q2150.02 1519.65 2145.53 1519.65 L2137.45 1519.65 M2131.02 1514.36 L2145.53 1514.36 Q2153.52 1514.36 2157.6 1517.99 Q2161.7 1521.59 2161.7 1528.56 Q2161.7 1535.59 2157.6 1539.19 Q2153.52 1542.79 2145.53 1542.79 L2137.45 1542.79 L2137.45 1561.88 L2131.02 1561.88 L2131.02 1514.36 Z" fill="#000000" fill-rule="evenodd" fill-opacity="1" /><path clip-path="url(#clip930)" d="M2183.35 1543.96 Q2176.25 1543.96 2173.51 1545.59 Q2170.77 1547.21 2170.77 1551.13 Q2170.77 1554.24 2172.81 1556.09 Q2174.88 1557.91 2178.41 1557.91 Q2183.28 1557.91 2186.21 1554.47 Q2189.17 1551 2189.17 1545.27 L2189.17 1543.96 L2183.35 1543.96 M2195.03 1541.55 L2195.03 1561.88 L2189.17 1561.88 L2189.17 1556.47 Q2187.16 1559.72 2184.17 1561.28 Q2181.18 1562.81 2176.85 1562.81 Q2171.38 1562.81 2168.13 1559.75 Q2164.92 1556.66 2164.92 1551.51 Q2164.92 1545.49 2168.93 1542.44 Q2172.97 1539.38 2180.96 1539.38 L2189.17 1539.38 L2189.17 1538.81 Q2189.17 1534.77 2186.5 1532.57 Q2183.85 1530.34 2179.05 1530.34 Q2175.99 1530.34 2173.1 1531.07 Q2170.2 1531.81 2167.53 1533.27 L2167.53 1527.86 Q2170.74 1526.62 2173.76 1526.01 Q2176.79 1525.38 2179.65 1525.38 Q2187.39 1525.38 2191.21 1529.39 Q2195.03 1533.4 2195.03 1541.55 Z" fill="#000000" fill-rule="evenodd" fill-opacity="1" /><path clip-path="url(#clip930)" d="M2206.17 1512.42 L2211.26 1512.42 Q2216.03 1519.93 2218.39 1527.13 Q2220.78 1534.32 2220.78 1541.42 Q2220.78 1548.55 2218.39 1555.77 Q2216.03 1563 2211.26 1570.48 L2206.17 1570.48 Q2210.4 1563.19 2212.47 1556 Q2214.57 1548.77 2214.57 1541.42 Q2214.57 1534.07 2212.47 1526.9 Q2210.4 1519.74 2206.17 1512.42 Z" fill="#000000" fill-rule="evenodd" fill-opacity="1" /><polyline clip-path="url(#clip933)" style="stroke:#000000; stroke-linecap:butt; stroke-linejoin:round; stroke-width:2; stroke-opacity:0.1; fill:none" points="
  1595.54,1358.19 2556.43,1358.19 
  "/>
<polyline clip-path="url(#clip933)" style="stroke:#000000; stroke-linecap:butt; stroke-linejoin:round; stroke-width:2; stroke-opacity:0.1; fill:none" points="
  1595.54,995.349 2556.43,995.349 
  "/>
<polyline clip-path="url(#clip933)" style="stroke:#000000; stroke-linecap:butt; stroke-linejoin:round; stroke-width:2; stroke-opacity:0.1; fill:none" points="
  1595.54,632.511 2556.43,632.511 
  "/>
<polyline clip-path="url(#clip933)" style="stroke:#000000; stroke-linecap:butt; stroke-linejoin:round; stroke-width:2; stroke-opacity:0.1; fill:none" points="
  1595.54,269.672 2556.43,269.672 
  "/>
<polyline clip-path="url(#clip930)" style="stroke:#000000; stroke-linecap:butt; stroke-linejoin:round; stroke-width:4; stroke-opacity:1; fill:none" points="
  1595.54,1393.02 1595.54,162.272 
  "/>
<polyline clip-path="url(#clip930)" style="stroke:#000000; stroke-linecap:butt; stroke-linejoin:round; stroke-width:4; stroke-opacity:1; fill:none" points="
  1595.54,1358.19 1614.44,1358.19 
  "/>
<polyline clip-path="url(#clip930)" style="stroke:#000000; stroke-linecap:butt; stroke-linejoin:round; stroke-width:4; stroke-opacity:1; fill:none" points="
  1595.54,995.349 1614.44,995.349 
  "/>
<polyline clip-path="url(#clip930)" style="stroke:#000000; stroke-linecap:butt; stroke-linejoin:round; stroke-width:4; stroke-opacity:1; fill:none" points="
  1595.54,632.511 1614.44,632.511 
  "/>
<polyline clip-path="url(#clip930)" style="stroke:#000000; stroke-linecap:butt; stroke-linejoin:round; stroke-width:4; stroke-opacity:1; fill:none" points="
  1595.54,269.672 1614.44,269.672 
  "/>
<path clip-path="url(#clip930)" d="M1523.6 1343.99 Q1519.99 1343.99 1518.16 1347.55 Q1516.36 1351.09 1516.36 1358.22 Q1516.36 1365.33 1518.16 1368.89 Q1519.99 1372.43 1523.6 1372.43 Q1527.23 1372.43 1529.04 1368.89 Q1530.87 1365.33 1530.87 1358.22 Q1530.87 1351.09 1529.04 1347.55 Q1527.23 1343.99 1523.6 1343.99 M1523.6 1340.28 Q1529.41 1340.28 1532.47 1344.89 Q1535.54 1349.47 1535.54 1358.22 Q1535.54 1366.95 1532.47 1371.56 Q1529.41 1376.14 1523.6 1376.14 Q1517.79 1376.14 1514.71 1371.56 Q1511.66 1366.95 1511.66 1358.22 Q1511.66 1349.47 1514.71 1344.89 Q1517.79 1340.28 1523.6 1340.28 Z" fill="#000000" fill-rule="evenodd" fill-opacity="1" /><path clip-path="url(#clip930)" d="M1514.64 978.069 L1533 978.069 L1533 982.004 L1518.92 982.004 L1518.92 990.476 Q1519.94 990.129 1520.96 989.967 Q1521.98 989.782 1523 989.782 Q1528.79 989.782 1532.17 992.953 Q1535.54 996.124 1535.54 1001.54 Q1535.54 1007.12 1532.07 1010.22 Q1528.6 1013.3 1522.28 1013.3 Q1520.11 1013.3 1517.84 1012.93 Q1515.59 1012.56 1513.18 1011.82 L1513.18 1007.12 Q1515.27 1008.25 1517.49 1008.81 Q1519.71 1009.37 1522.19 1009.37 Q1526.19 1009.37 1528.53 1007.26 Q1530.87 1005.15 1530.87 1001.54 Q1530.87 997.93 1528.53 995.823 Q1526.19 993.717 1522.19 993.717 Q1520.31 993.717 1518.44 994.134 Q1516.59 994.55 1514.64 995.43 L1514.64 978.069 Z" fill="#000000" fill-rule="evenodd" fill-opacity="1" /><path clip-path="url(#clip930)" d="M1484.25 645.856 L1491.89 645.856 L1491.89 619.49 L1483.58 621.157 L1483.58 616.897 L1491.84 615.231 L1496.52 615.231 L1496.52 645.856 L1504.16 645.856 L1504.16 649.791 L1484.25 649.791 L1484.25 645.856 Z" fill="#000000" fill-rule="evenodd" fill-opacity="1" /><path clip-path="url(#clip930)" d="M1523.6 618.309 Q1519.99 618.309 1518.16 621.874 Q1516.36 625.416 1516.36 632.545 Q1516.36 639.652 1518.16 643.217 Q1519.99 646.758 1523.6 646.758 Q1527.23 646.758 1529.04 643.217 Q1530.87 639.652 1530.87 632.545 Q1530.87 625.416 1529.04 621.874 Q1527.23 618.309 1523.6 618.309 M1523.6 614.606 Q1529.41 614.606 1532.47 619.212 Q1535.54 623.795 1535.54 632.545 Q1535.54 641.272 1532.47 645.879 Q1529.41 650.462 1523.6 650.462 Q1517.79 650.462 1514.71 645.879 Q1511.66 641.272 1511.66 632.545 Q1511.66 623.795 1514.71 619.212 Q1517.79 614.606 1523.6 614.606 Z" fill="#000000" fill-rule="evenodd" fill-opacity="1" /><path clip-path="url(#clip930)" d="M1485.24 283.017 L1492.88 283.017 L1492.88 256.652 L1484.57 258.318 L1484.57 254.059 L1492.84 252.392 L1497.51 252.392 L1497.51 283.017 L1505.15 283.017 L1505.15 286.952 L1485.24 286.952 L1485.24 283.017 Z" fill="#000000" fill-rule="evenodd" fill-opacity="1" /><path clip-path="url(#clip930)" d="M1514.64 252.392 L1533 252.392 L1533 256.328 L1518.92 256.328 L1518.92 264.8 Q1519.94 264.453 1520.96 264.29 Q1521.98 264.105 1523 264.105 Q1528.79 264.105 1532.17 267.277 Q1535.54 270.448 1535.54 275.864 Q1535.54 281.443 1532.07 284.545 Q1528.6 287.624 1522.28 287.624 Q1520.11 287.624 1517.84 287.253 Q1515.59 286.883 1513.18 286.142 L1513.18 281.443 Q1515.27 282.577 1517.49 283.133 Q1519.71 283.689 1522.19 283.689 Q1526.19 283.689 1528.53 281.582 Q1530.87 279.476 1530.87 275.864 Q1530.87 272.253 1528.53 270.147 Q1526.19 268.04 1522.19 268.04 Q1520.31 268.04 1518.44 268.457 Q1516.59 268.874 1514.64 269.753 L1514.64 252.392 Z" fill="#000000" fill-rule="evenodd" fill-opacity="1" /><path clip-path="url(#clip930)" d="M1373.67 876.171 L1373.67 848.353 L1379.02 848.353 L1404.64 870.378 L1404.64 848.353 L1409.32 848.353 L1409.32 876.967 L1403.97 876.967 L1378.35 854.942 L1378.35 876.171 L1373.67 876.171 Z" fill="#000000" fill-rule="evenodd" fill-opacity="1" /><path clip-path="url(#clip930)" d="M1359.86 804.621 Q1367.18 808.886 1374.34 810.955 Q1381.5 813.023 1388.86 813.023 Q1396.21 813.023 1403.43 810.955 Q1410.63 808.854 1417.92 804.621 L1417.92 809.713 Q1410.44 814.488 1403.21 816.875 Q1395.99 819.23 1388.86 819.23 Q1381.76 819.23 1374.56 816.875 Q1367.37 814.519 1359.86 809.713 L1359.86 804.621 Z" fill="#000000" fill-rule="evenodd" fill-opacity="1" /><path clip-path="url(#clip930)" d="M1359.8 793.481 L1359.8 787.592 L1389.05 787.592 L1373.67 770.119 L1373.67 762.639 L1390.35 781.545 L1409.32 761.843 L1409.32 769.482 L1391.91 787.592 L1409.32 787.592 L1409.32 793.481 L1359.8 793.481 Z" fill="#000000" fill-rule="evenodd" fill-opacity="1" /><path clip-path="url(#clip930)" d="M1380.52 727.755 Q1376.57 725.559 1374.69 722.503 Q1372.81 719.448 1372.81 715.31 Q1372.81 709.74 1376.73 706.716 Q1380.61 703.692 1387.81 703.692 L1409.32 703.692 L1409.32 709.581 L1388 709.581 Q1382.87 709.581 1380.39 711.395 Q1377.91 713.209 1377.91 716.933 Q1377.91 721.485 1380.93 724.126 Q1383.95 726.768 1389.17 726.768 L1409.32 726.768 L1409.32 732.656 L1388 732.656 Q1382.84 732.656 1380.39 734.471 Q1377.91 736.285 1377.91 740.072 Q1377.91 744.56 1380.96 747.202 Q1383.99 749.844 1389.17 749.844 L1409.32 749.844 L1409.32 755.732 L1373.67 755.732 L1373.67 749.844 L1379.21 749.844 Q1375.93 747.839 1374.37 745.038 Q1372.81 742.237 1372.81 738.385 Q1372.81 734.502 1374.79 731.797 Q1376.76 729.06 1380.52 727.755 Z" fill="#000000" fill-rule="evenodd" fill-opacity="1" /><path clip-path="url(#clip930)" d="M1359.86 692.934 L1359.86 687.842 Q1367.37 683.067 1374.56 680.712 Q1381.76 678.325 1388.86 678.325 Q1395.99 678.325 1403.21 680.712 Q1410.44 683.067 1417.92 687.842 L1417.92 692.934 Q1410.63 688.701 1403.43 686.632 Q1396.21 684.532 1388.86 684.532 Q1381.5 684.532 1374.34 686.632 Q1367.18 688.701 1359.86 692.934 Z" fill="#000000" fill-rule="evenodd" fill-opacity="1" /><path clip-path="url(#clip930)" d="M1899.21 65.7705 L1899.21 89.8329 L1891.71 89.8329 L1891.71 27.2059 L1899.21 27.2059 L1899.21 34.0924 Q1901.56 30.0415 1905.12 28.0971 Q1908.73 26.1121 1913.71 26.1121 Q1921.97 26.1121 1927.12 32.6746 Q1932.3 39.2371 1932.3 49.9314 Q1932.3 60.6258 1927.12 67.1883 Q1921.97 73.7508 1913.71 73.7508 Q1908.73 73.7508 1905.12 71.8063 Q1901.56 69.8214 1899.21 65.7705 M1924.56 49.9314 Q1924.56 41.7081 1921.16 37.0496 Q1917.8 32.3505 1911.89 32.3505 Q1905.97 32.3505 1902.57 37.0496 Q1899.21 41.7081 1899.21 49.9314 Q1899.21 58.1548 1902.57 62.8538 Q1905.97 67.5124 1911.89 67.5124 Q1917.8 67.5124 1921.16 62.8538 Q1924.56 58.1548 1924.56 49.9314 Z" fill="#000000" fill-rule="evenodd" fill-opacity="1" /><path clip-path="url(#clip930)" d="M1979.13 86.3491 L1979.13 92.1419 L1936.03 92.1419 L1936.03 86.3491 L1979.13 86.3491 Z" fill="#000000" fill-rule="evenodd" fill-opacity="1" /><path clip-path="url(#clip930)" d="M2004.69 17.4837 Q1998.37 17.4837 1995.17 23.7221 Q1992.01 29.92 1992.01 42.3968 Q1992.01 54.833 1995.17 61.0714 Q1998.37 67.2693 2004.69 67.2693 Q2011.05 67.2693 2014.21 61.0714 Q2017.41 54.833 2017.41 42.3968 Q2017.41 29.92 2014.21 23.7221 Q2011.05 17.4837 2004.69 17.4837 M2004.69 11.0023 Q2014.86 11.0023 2020.21 19.0636 Q2025.59 27.0843 2025.59 42.3968 Q2025.59 57.6687 2020.21 65.73 Q2014.86 73.7508 2004.69 73.7508 Q1994.52 73.7508 1989.14 65.73 Q1983.79 57.6687 1983.79 42.3968 Q1983.79 27.0843 1989.14 19.0636 Q1994.52 11.0023 2004.69 11.0023 Z" fill="#000000" fill-rule="evenodd" fill-opacity="1" /><path clip-path="url(#clip930)" d="M2083.2 9.62495 Q2077.77 18.942 2075.14 28.0566 Q2072.5 37.1711 2072.5 46.5287 Q2072.5 55.8863 2075.14 65.0818 Q2077.81 74.2369 2083.2 83.5134 L2076.72 83.5134 Q2070.64 73.9938 2067.6 64.7983 Q2064.6 55.6027 2064.6 46.5287 Q2064.6 37.4952 2067.6 28.3401 Q2070.6 19.1851 2076.72 9.62495 L2083.2 9.62495 Z" fill="#000000" fill-rule="evenodd" fill-opacity="1" /><path clip-path="url(#clip930)" d="M2097.38 9.54393 L2104.87 9.54393 L2104.87 46.7717 L2127.11 27.2059 L2136.63 27.2059 L2112.57 48.4326 L2137.64 72.576 L2127.92 72.576 L2104.87 50.4176 L2104.87 72.576 L2097.38 72.576 L2097.38 9.54393 Z" fill="#000000" fill-rule="evenodd" fill-opacity="1" /><path clip-path="url(#clip930)" d="M2154.21 18.8205 L2154.21 41.5461 L2164.5 41.5461 Q2170.21 41.5461 2173.33 38.5889 Q2176.45 35.6318 2176.45 30.163 Q2176.45 24.7348 2173.33 21.7777 Q2170.21 18.8205 2164.5 18.8205 L2154.21 18.8205 M2146.03 12.096 L2164.5 12.096 Q2174.67 12.096 2179.85 16.714 Q2185.08 21.2916 2185.08 30.163 Q2185.08 39.1155 2179.85 43.6931 Q2174.67 48.2706 2164.5 48.2706 L2154.21 48.2706 L2154.21 72.576 L2146.03 72.576 L2146.03 12.096 Z" fill="#000000" fill-rule="evenodd" fill-opacity="1" /><path clip-path="url(#clip930)" d="M2212.62 49.7694 Q2203.59 49.7694 2200.11 51.8354 Q2196.62 53.9013 2196.62 58.8839 Q2196.62 62.8538 2199.22 65.2034 Q2201.85 67.5124 2206.35 67.5124 Q2212.54 67.5124 2216.27 63.1374 Q2220.04 58.7219 2220.04 51.4303 L2220.04 49.7694 L2212.62 49.7694 M2227.49 46.6907 L2227.49 72.576 L2220.04 72.576 L2220.04 65.6895 Q2217.49 69.8214 2213.68 71.8063 Q2209.87 73.7508 2204.36 73.7508 Q2197.39 73.7508 2193.26 69.8619 Q2189.17 65.9325 2189.17 59.3701 Q2189.17 51.7138 2194.27 47.825 Q2199.42 43.9361 2209.59 43.9361 L2220.04 43.9361 L2220.04 43.2069 Q2220.04 38.0623 2216.64 35.2672 Q2213.27 32.4315 2207.16 32.4315 Q2203.27 32.4315 2199.58 33.3632 Q2195.89 34.295 2192.49 36.1584 L2192.49 29.2718 Q2196.58 27.692 2200.43 26.9223 Q2204.28 26.1121 2207.93 26.1121 Q2217.77 26.1121 2222.63 31.2163 Q2227.49 36.3204 2227.49 46.6907 Z" fill="#000000" fill-rule="evenodd" fill-opacity="1" /><path clip-path="url(#clip930)" d="M2241.67 9.62495 L2248.15 9.62495 Q2254.23 19.1851 2257.23 28.3401 Q2260.26 37.4952 2260.26 46.5287 Q2260.26 55.6027 2257.23 64.7983 Q2254.23 73.9938 2248.15 83.5134 L2241.67 83.5134 Q2247.06 74.2369 2249.69 65.0818 Q2252.36 55.8863 2252.36 46.5287 Q2252.36 37.1711 2249.69 28.0566 Q2247.06 18.942 2241.67 9.62495 Z" fill="#000000" fill-rule="evenodd" fill-opacity="1" /><polyline clip-path="url(#clip933)" style="stroke:#009af9; stroke-linecap:butt; stroke-linejoin:round; stroke-width:4; stroke-opacity:1; fill:none" points="
  2517.57,1350.93 2494.58,1336.42 2472.03,1321.9 2449.92,1307.39 2428.24,1292.88 2406.98,1278.36 2386.14,1263.85 2365.7,1249.34 2345.68,1234.82 2326.04,1220.31 
  2306.8,1205.8 2287.94,1191.28 2269.46,1176.77 2251.35,1162.25 2233.6,1147.74 2216.22,1133.23 2199.18,1118.71 2182.49,1104.2 2166.14,1089.69 2150.13,1075.17 
  2134.45,1060.66 2119.08,1046.15 2104.04,1031.63 2089.31,1017.12 2074.88,1002.61 2060.76,988.092 2046.93,973.579 2033.39,959.065 2020.14,944.552 2007.2,930.038 
  1994.57,915.525 1982.22,901.011 1970.14,886.497 1958.32,871.984 1946.75,857.47 1935.44,842.957 1924.37,828.443 1913.55,813.93 1902.96,799.416 1892.61,784.903 
  1882.48,770.389 1872.58,755.876 1862.9,741.362 1853.43,726.849 1844.18,712.335 1835.13,697.822 1826.28,683.308 1817.63,668.794 1809.17,654.281 1800.91,639.767 
  1792.83,625.254 1784.93,610.74 1777.21,596.227 1769.67,581.713 1762.3,567.2 1755.1,552.686 1748.06,538.173 1741.18,523.659 1734.47,509.146 1727.9,494.632 
  1721.49,480.119 1715.22,465.605 1709.11,451.092 1703.13,436.578 1697.29,422.064 1691.59,407.551 1686.03,393.037 1680.59,378.524 1675.29,364.01 1670.11,349.497 
  1665.05,334.983 1660.11,320.47 1655.3,305.956 1650.6,291.443 1646.01,276.929 1641.54,262.416 1637.18,247.902 1632.92,233.389 1628.77,218.875 1624.72,204.361 
  
  "/>
<polyline clip-path="url(#clip933)" style="stroke:#e26f46; stroke-linecap:butt; stroke-linejoin:round; stroke-width:4; stroke-opacity:1; fill:none" points="
  2529.24,1358.19 2506.02,1343.67 2483.25,1329.16 2460.92,1314.65 2439.02,1300.13 2417.55,1285.62 2396.51,1271.11 2375.87,1256.59 2355.64,1242.08 2335.81,1227.57 
  2316.37,1213.05 2297.32,1198.54 2278.65,1184.02 2260.36,1169.51 2242.43,1155 2224.87,1140.48 2207.65,1125.97 2190.79,1111.46 2174.28,1096.94 2158.1,1082.43 
  2142.25,1067.92 2126.73,1053.4 2111.52,1038.89 2096.64,1024.38 2082.06,1009.86 2067.78,995.349 2053.81,980.835 2040.13,966.322 2026.73,951.808 2013.63,937.295 
  2000.85,922.781 1988.36,908.268 1976.15,893.754 1964.19,879.241 1952.5,864.727 1941.06,850.214 1929.88,835.7 1918.93,821.187 1908.23,806.673 1897.76,792.16 
  1887.52,777.646 1877.51,763.132 1867.71,748.619 1858.14,734.105 1848.78,719.592 1839.63,705.078 1830.68,690.565 1821.93,676.051 1813.38,661.538 1805.02,647.024 
  1796.85,632.511 1788.86,617.997 1781.05,603.484 1773.42,588.97 1765.97,574.457 1758.68,559.943 1751.56,545.429 1744.6,530.916 1737.81,516.402 1731.16,501.889 
  1724.68,487.375 1718.34,472.862 1712.15,458.348 1706.1,443.835 1700.19,429.321 1694.43,414.808 1688.79,400.294 1683.29,385.781 1677.92,371.267 1672.68,356.754 
  1667.56,342.24 1662.57,327.727 1657.69,313.213 1652.93,298.699 1648.29,284.186 1643.76,269.672 1639.34,255.159 1635.04,240.645 1630.83,226.132 1626.73,211.618 
  1622.74,197.105 
  "/>
<path clip-path="url(#clip930)" d="
M1952.11 358.817 L2524.4 358.817 L2524.4 203.297 L1952.11 203.297  Z
  " fill="#ffffff" fill-rule="evenodd" fill-opacity="1"/>
<polyline clip-path="url(#clip930)" style="stroke:#000000; stroke-linecap:butt; stroke-linejoin:round; stroke-width:4; stroke-opacity:1; fill:none" points="
  1952.11,358.817 2524.4,358.817 2524.4,203.297 1952.11,203.297 1952.11,358.817 
  "/>
<polyline clip-path="url(#clip930)" style="stroke:#009af9; stroke-linecap:butt; stroke-linejoin:round; stroke-width:4; stroke-opacity:1; fill:none" points="
  1992.11,255.137 2232.11,255.137 
  "/>
<path clip-path="url(#clip930)" d="M2292.62 247.487 L2292.62 251.468 Q2290.81 250.473 2288.99 249.987 Q2287.18 249.477 2285.33 249.477 Q2281.18 249.477 2278.89 252.116 Q2276.6 254.732 2276.6 259.477 Q2276.6 264.223 2278.89 266.862 Q2281.18 269.477 2285.33 269.477 Q2287.18 269.477 2288.99 268.991 Q2290.81 268.482 2292.62 267.487 L2292.62 271.422 Q2290.84 272.255 2288.92 272.672 Q2287.02 273.088 2284.86 273.088 Q2279.01 273.088 2275.56 269.408 Q2272.11 265.727 2272.11 259.477 Q2272.11 253.135 2275.58 249.501 Q2279.08 245.866 2285.14 245.866 Q2287.11 245.866 2288.99 246.283 Q2290.86 246.677 2292.62 247.487 Z" fill="#000000" fill-rule="evenodd" fill-opacity="1" /><path clip-path="url(#clip930)" d="M2322.2 258.389 L2322.2 260.473 L2302.62 260.473 Q2302.9 264.871 2305.26 267.186 Q2307.64 269.477 2311.88 269.477 Q2314.33 269.477 2316.62 268.876 Q2318.94 268.274 2321.21 267.07 L2321.21 271.098 Q2318.92 272.07 2316.51 272.579 Q2314.1 273.088 2311.62 273.088 Q2305.42 273.088 2301.79 269.477 Q2298.17 265.866 2298.17 259.709 Q2298.17 253.343 2301.6 249.616 Q2305.05 245.866 2310.88 245.866 Q2316.11 245.866 2319.15 249.246 Q2322.2 252.602 2322.2 258.389 M2317.94 257.139 Q2317.9 253.644 2315.98 251.561 Q2314.08 249.477 2310.93 249.477 Q2307.36 249.477 2305.21 251.491 Q2303.08 253.505 2302.76 257.163 L2317.94 257.139 Z" fill="#000000" fill-rule="evenodd" fill-opacity="1" /><path clip-path="url(#clip930)" d="M2350.74 256.769 L2350.74 272.417 L2346.48 272.417 L2346.48 256.908 Q2346.48 253.227 2345.05 251.399 Q2343.61 249.57 2340.74 249.57 Q2337.3 249.57 2335.3 251.769 Q2333.31 253.968 2333.31 257.764 L2333.31 272.417 L2329.03 272.417 L2329.03 246.491 L2333.31 246.491 L2333.31 250.519 Q2334.84 248.181 2336.9 247.024 Q2338.98 245.866 2341.69 245.866 Q2346.16 245.866 2348.45 248.644 Q2350.74 251.399 2350.74 256.769 Z" fill="#000000" fill-rule="evenodd" fill-opacity="1" /><path clip-path="url(#clip930)" d="M2363.45 239.13 L2363.45 246.491 L2372.23 246.491 L2372.23 249.802 L2363.45 249.802 L2363.45 263.876 Q2363.45 267.047 2364.31 267.95 Q2365.19 268.852 2367.85 268.852 L2372.23 268.852 L2372.23 272.417 L2367.85 272.417 Q2362.92 272.417 2361.04 270.588 Q2359.17 268.737 2359.17 263.876 L2359.17 249.802 L2356.04 249.802 L2356.04 246.491 L2359.17 246.491 L2359.17 239.13 L2363.45 239.13 Z" fill="#000000" fill-rule="evenodd" fill-opacity="1" /><path clip-path="url(#clip930)" d="M2400 258.389 L2400 260.473 L2380.42 260.473 Q2380.7 264.871 2383.06 267.186 Q2385.44 269.477 2389.68 269.477 Q2392.13 269.477 2394.42 268.876 Q2396.74 268.274 2399.01 267.07 L2399.01 271.098 Q2396.72 272.07 2394.31 272.579 Q2391.9 273.088 2389.42 273.088 Q2383.22 273.088 2379.59 269.477 Q2375.98 265.866 2375.98 259.709 Q2375.98 253.343 2379.4 249.616 Q2382.85 245.866 2388.68 245.866 Q2393.92 245.866 2396.95 249.246 Q2400 252.602 2400 258.389 M2395.74 257.139 Q2395.7 253.644 2393.78 251.561 Q2391.88 249.477 2388.73 249.477 Q2385.17 249.477 2383.01 251.491 Q2380.88 253.505 2380.56 257.163 L2395.74 257.139 Z" fill="#000000" fill-rule="evenodd" fill-opacity="1" /><path clip-path="url(#clip930)" d="M2422.02 250.473 Q2421.3 250.056 2420.44 249.871 Q2419.61 249.663 2418.59 249.663 Q2414.98 249.663 2413.04 252.024 Q2411.11 254.362 2411.11 258.76 L2411.11 272.417 L2406.83 272.417 L2406.83 246.491 L2411.11 246.491 L2411.11 250.519 Q2412.46 248.158 2414.61 247.024 Q2416.76 245.866 2419.84 245.866 Q2420.28 245.866 2420.81 245.936 Q2421.35 245.982 2421.99 246.098 L2422.02 250.473 Z" fill="#000000" fill-rule="evenodd" fill-opacity="1" /><path clip-path="url(#clip930)" d="M2443.01 247.255 L2443.01 251.283 Q2441.21 250.357 2439.26 249.894 Q2437.32 249.431 2435.23 249.431 Q2432.06 249.431 2430.47 250.403 Q2428.89 251.376 2428.89 253.32 Q2428.89 254.802 2430.03 255.658 Q2431.16 256.491 2434.59 257.255 L2436.04 257.579 Q2440.58 258.552 2442.48 260.334 Q2444.4 262.093 2444.4 265.264 Q2444.4 268.876 2441.53 270.982 Q2438.68 273.088 2433.68 273.088 Q2431.6 273.088 2429.33 272.672 Q2427.09 272.278 2424.59 271.468 L2424.59 267.07 Q2426.95 268.297 2429.24 268.922 Q2431.53 269.524 2433.78 269.524 Q2436.79 269.524 2438.41 268.505 Q2440.03 267.463 2440.03 265.589 Q2440.03 263.852 2438.85 262.926 Q2437.69 262.001 2433.73 261.144 L2432.25 260.797 Q2428.29 259.964 2426.53 258.251 Q2424.77 256.514 2424.77 253.505 Q2424.77 249.848 2427.36 247.857 Q2429.96 245.866 2434.73 245.866 Q2437.09 245.866 2439.17 246.214 Q2441.25 246.561 2443.01 247.255 Z" fill="#000000" fill-rule="evenodd" fill-opacity="1" /><polyline clip-path="url(#clip930)" style="stroke:#e26f46; stroke-linecap:butt; stroke-linejoin:round; stroke-width:4; stroke-opacity:1; fill:none" points="
  1992.11,306.977 2232.11,306.977 
  "/>
<path clip-path="url(#clip930)" d="M2288.61 288.239 L2288.61 291.78 L2284.54 291.78 Q2282.25 291.78 2281.35 292.706 Q2280.47 293.632 2280.47 296.04 L2280.47 298.331 L2287.48 298.331 L2287.48 301.642 L2280.47 301.642 L2280.47 324.257 L2276.18 324.257 L2276.18 301.642 L2272.11 301.642 L2272.11 298.331 L2276.18 298.331 L2276.18 296.526 Q2276.18 292.197 2278.2 290.23 Q2280.21 288.239 2284.59 288.239 L2288.61 288.239 Z" fill="#000000" fill-rule="evenodd" fill-opacity="1" /><path clip-path="url(#clip930)" d="M2303.96 311.225 Q2298.8 311.225 2296.81 312.405 Q2294.82 313.586 2294.82 316.433 Q2294.82 318.702 2296.3 320.044 Q2297.8 321.364 2300.37 321.364 Q2303.92 321.364 2306.05 318.864 Q2308.2 316.341 2308.2 312.174 L2308.2 311.225 L2303.96 311.225 M2312.46 309.466 L2312.46 324.257 L2308.2 324.257 L2308.2 320.322 Q2306.74 322.683 2304.56 323.817 Q2302.39 324.928 2299.24 324.928 Q2295.26 324.928 2292.9 322.706 Q2290.56 320.461 2290.56 316.711 Q2290.56 312.336 2293.48 310.114 Q2296.42 307.892 2302.23 307.892 L2308.2 307.892 L2308.2 307.475 Q2308.2 304.535 2306.25 302.938 Q2304.33 301.317 2300.84 301.317 Q2298.61 301.317 2296.51 301.85 Q2294.4 302.382 2292.46 303.447 L2292.46 299.512 Q2294.8 298.609 2296.99 298.169 Q2299.19 297.706 2301.28 297.706 Q2306.9 297.706 2309.68 300.623 Q2312.46 303.54 2312.46 309.466 Z" fill="#000000" fill-rule="evenodd" fill-opacity="1" /><path clip-path="url(#clip930)" d="M2339.89 299.327 L2339.89 303.308 Q2338.08 302.313 2336.25 301.827 Q2334.45 301.317 2332.6 301.317 Q2328.45 301.317 2326.16 303.956 Q2323.87 306.572 2323.87 311.317 Q2323.87 316.063 2326.16 318.702 Q2328.45 321.317 2332.6 321.317 Q2334.45 321.317 2336.25 320.831 Q2338.08 320.322 2339.89 319.327 L2339.89 323.262 Q2338.11 324.095 2336.18 324.512 Q2334.29 324.928 2332.13 324.928 Q2326.28 324.928 2322.83 321.248 Q2319.38 317.567 2319.38 311.317 Q2319.38 304.975 2322.85 301.341 Q2326.35 297.706 2332.41 297.706 Q2334.38 297.706 2336.25 298.123 Q2338.13 298.517 2339.89 299.327 Z" fill="#000000" fill-rule="evenodd" fill-opacity="1" /><path clip-path="url(#clip930)" d="M2369.47 310.229 L2369.47 312.313 L2349.89 312.313 Q2350.17 316.711 2352.53 319.026 Q2354.91 321.317 2359.15 321.317 Q2361.6 321.317 2363.89 320.716 Q2366.21 320.114 2368.48 318.91 L2368.48 322.938 Q2366.18 323.91 2363.78 324.419 Q2361.37 324.928 2358.89 324.928 Q2352.69 324.928 2349.05 321.317 Q2345.44 317.706 2345.44 311.549 Q2345.44 305.183 2348.87 301.456 Q2352.32 297.706 2358.15 297.706 Q2363.38 297.706 2366.42 301.086 Q2369.47 304.442 2369.47 310.229 M2365.21 308.979 Q2365.17 305.484 2363.24 303.401 Q2361.35 301.317 2358.2 301.317 Q2354.63 301.317 2352.48 303.331 Q2350.35 305.345 2350.03 309.003 L2365.21 308.979 Z" fill="#000000" fill-rule="evenodd" fill-opacity="1" /><path clip-path="url(#clip930)" d="M2392.99 299.095 L2392.99 303.123 Q2391.18 302.197 2389.24 301.734 Q2387.29 301.271 2385.21 301.271 Q2382.04 301.271 2380.44 302.243 Q2378.87 303.216 2378.87 305.16 Q2378.87 306.642 2380 307.498 Q2381.14 308.331 2384.56 309.095 L2386.02 309.419 Q2390.56 310.392 2392.46 312.174 Q2394.38 313.933 2394.38 317.104 Q2394.38 320.716 2391.51 322.822 Q2388.66 324.928 2383.66 324.928 Q2381.58 324.928 2379.31 324.512 Q2377.06 324.118 2374.56 323.308 L2374.56 318.91 Q2376.92 320.137 2379.22 320.762 Q2381.51 321.364 2383.75 321.364 Q2386.76 321.364 2388.38 320.345 Q2390 319.303 2390 317.429 Q2390 315.692 2388.82 314.766 Q2387.67 313.841 2383.71 312.984 L2382.23 312.637 Q2378.27 311.804 2376.51 310.091 Q2374.75 308.354 2374.75 305.345 Q2374.75 301.688 2377.34 299.697 Q2379.93 297.706 2384.7 297.706 Q2387.06 297.706 2389.15 298.054 Q2391.23 298.401 2392.99 299.095 Z" fill="#000000" fill-rule="evenodd" fill-opacity="1" /><path clip-path="url(#clip930)" d="
M2928.88 1393.02 L3889.76 1393.02 L3889.76 162.272 L2928.88 162.272  Z
  " fill="#ffffff" fill-rule="evenodd" fill-opacity="1"/>
<defs>
  <clipPath id="clip934">
    <rect x="2928" y="162" width="962" height="1232"/>
  </clipPath>
</defs>
<polyline clip-path="url(#clip934)" style="stroke:#000000; stroke-linecap:butt; stroke-linejoin:round; stroke-width:2; stroke-opacity:0.1; fill:none" points="
  2983.68,1393.02 2983.68,162.272 
  "/>
<polyline clip-path="url(#clip934)" style="stroke:#000000; stroke-linecap:butt; stroke-linejoin:round; stroke-width:2; stroke-opacity:0.1; fill:none" points="
  3194.66,1393.02 3194.66,162.272 
  "/>
<polyline clip-path="url(#clip934)" style="stroke:#000000; stroke-linecap:butt; stroke-linejoin:round; stroke-width:2; stroke-opacity:0.1; fill:none" points="
  3405.64,1393.02 3405.64,162.272 
  "/>
<polyline clip-path="url(#clip934)" style="stroke:#000000; stroke-linecap:butt; stroke-linejoin:round; stroke-width:2; stroke-opacity:0.1; fill:none" points="
  3616.62,1393.02 3616.62,162.272 
  "/>
<polyline clip-path="url(#clip934)" style="stroke:#000000; stroke-linecap:butt; stroke-linejoin:round; stroke-width:2; stroke-opacity:0.1; fill:none" points="
  3827.6,1393.02 3827.6,162.272 
  "/>
<polyline clip-path="url(#clip930)" style="stroke:#000000; stroke-linecap:butt; stroke-linejoin:round; stroke-width:4; stroke-opacity:1; fill:none" points="
  2928.88,1393.02 3889.76,1393.02 
  "/>
<polyline clip-path="url(#clip930)" style="stroke:#000000; stroke-linecap:butt; stroke-linejoin:round; stroke-width:4; stroke-opacity:1; fill:none" points="
  2983.68,1393.02 2983.68,1374.12 
  "/>
<polyline clip-path="url(#clip930)" style="stroke:#000000; stroke-linecap:butt; stroke-linejoin:round; stroke-width:4; stroke-opacity:1; fill:none" points="
  3194.66,1393.02 3194.66,1374.12 
  "/>
<polyline clip-path="url(#clip930)" style="stroke:#000000; stroke-linecap:butt; stroke-linejoin:round; stroke-width:4; stroke-opacity:1; fill:none" points="
  3405.64,1393.02 3405.64,1374.12 
  "/>
<polyline clip-path="url(#clip930)" style="stroke:#000000; stroke-linecap:butt; stroke-linejoin:round; stroke-width:4; stroke-opacity:1; fill:none" points="
  3616.62,1393.02 3616.62,1374.12 
  "/>
<polyline clip-path="url(#clip930)" style="stroke:#000000; stroke-linecap:butt; stroke-linejoin:round; stroke-width:4; stroke-opacity:1; fill:none" points="
  3827.6,1393.02 3827.6,1374.12 
  "/>
<path clip-path="url(#clip930)" d="M2974.07 1464.28 L2981.7 1464.28 L2981.7 1437.92 L2973.39 1439.59 L2973.39 1435.33 L2981.66 1433.66 L2986.33 1433.66 L2986.33 1464.28 L2993.97 1464.28 L2993.97 1468.22 L2974.07 1468.22 L2974.07 1464.28 Z" fill="#000000" fill-rule="evenodd" fill-opacity="1" /><path clip-path="url(#clip930)" d="M3189.31 1464.28 L3205.63 1464.28 L3205.63 1468.22 L3183.69 1468.22 L3183.69 1464.28 Q3186.35 1461.53 3190.94 1456.9 Q3195.54 1452.25 3196.72 1450.9 Q3198.97 1448.38 3199.85 1446.65 Q3200.75 1444.89 3200.75 1443.2 Q3200.75 1440.44 3198.81 1438.71 Q3196.88 1436.97 3193.78 1436.97 Q3191.58 1436.97 3189.13 1437.73 Q3186.7 1438.5 3183.92 1440.05 L3183.92 1435.33 Q3186.75 1434.19 3189.2 1433.61 Q3191.65 1433.03 3193.69 1433.03 Q3199.06 1433.03 3202.25 1435.72 Q3205.45 1438.41 3205.45 1442.9 Q3205.45 1445.03 3204.64 1446.95 Q3203.85 1448.84 3201.75 1451.44 Q3201.17 1452.11 3198.06 1455.33 Q3194.96 1458.52 3189.31 1464.28 Z" fill="#000000" fill-rule="evenodd" fill-opacity="1" /><path clip-path="url(#clip930)" d="M3409.89 1449.59 Q3413.24 1450.3 3415.12 1452.57 Q3417.02 1454.84 3417.02 1458.17 Q3417.02 1463.29 3413.5 1466.09 Q3409.98 1468.89 3403.5 1468.89 Q3401.32 1468.89 3399.01 1468.45 Q3396.72 1468.03 3394.26 1467.18 L3394.26 1462.66 Q3396.21 1463.8 3398.52 1464.38 Q3400.84 1464.96 3403.36 1464.96 Q3407.76 1464.96 3410.05 1463.22 Q3412.37 1461.48 3412.37 1458.17 Q3412.37 1455.12 3410.21 1453.4 Q3408.08 1451.67 3404.26 1451.67 L3400.24 1451.67 L3400.24 1447.83 L3404.45 1447.83 Q3407.9 1447.83 3409.73 1446.46 Q3411.55 1445.07 3411.55 1442.48 Q3411.55 1439.82 3409.66 1438.41 Q3407.78 1436.97 3404.26 1436.97 Q3402.34 1436.97 3400.14 1437.39 Q3397.94 1437.8 3395.3 1438.68 L3395.3 1434.52 Q3397.97 1433.78 3400.28 1433.41 Q3402.62 1433.03 3404.68 1433.03 Q3410 1433.03 3413.11 1435.47 Q3416.21 1437.87 3416.21 1441.99 Q3416.21 1444.86 3414.56 1446.85 Q3412.92 1448.82 3409.89 1449.59 Z" fill="#000000" fill-rule="evenodd" fill-opacity="1" /><path clip-path="url(#clip930)" d="M3619.63 1437.73 L3607.82 1456.18 L3619.63 1456.18 L3619.63 1437.73 M3618.4 1433.66 L3624.28 1433.66 L3624.28 1456.18 L3629.21 1456.18 L3629.21 1460.07 L3624.28 1460.07 L3624.28 1468.22 L3619.63 1468.22 L3619.63 1460.07 L3604.03 1460.07 L3604.03 1455.56 L3618.4 1433.66 Z" fill="#000000" fill-rule="evenodd" fill-opacity="1" /><path clip-path="url(#clip930)" d="M3817.88 1433.66 L3836.23 1433.66 L3836.23 1437.59 L3822.16 1437.59 L3822.16 1446.07 Q3823.18 1445.72 3824.19 1445.56 Q3825.21 1445.37 3826.23 1445.37 Q3832.02 1445.37 3835.4 1448.54 Q3838.78 1451.72 3838.78 1457.13 Q3838.78 1462.71 3835.31 1465.81 Q3831.83 1468.89 3825.51 1468.89 Q3823.34 1468.89 3821.07 1468.52 Q3818.82 1468.15 3816.42 1467.41 L3816.42 1462.71 Q3818.5 1463.84 3820.72 1464.4 Q3822.94 1464.96 3825.42 1464.96 Q3829.43 1464.96 3831.76 1462.85 Q3834.1 1460.74 3834.1 1457.13 Q3834.1 1453.52 3831.76 1451.41 Q3829.43 1449.31 3825.42 1449.31 Q3823.55 1449.31 3821.67 1449.72 Q3819.82 1450.14 3817.88 1451.02 L3817.88 1433.66 Z" fill="#000000" fill-rule="evenodd" fill-opacity="1" /><path clip-path="url(#clip930)" d="M3378.1 1545.3 L3376.7 1537.95 Q3375.26 1530.41 3369.6 1530.41 Q3365.33 1530.41 3363.39 1533.91 Q3360.94 1538.3 3360.94 1544.09 Q3360.94 1551.09 3363.33 1554.44 Q3365.75 1557.84 3369.6 1557.84 Q3373.86 1557.84 3376.16 1551.06 L3378.1 1545.3 M3381.38 1535.56 L3384.53 1526.24 L3389.75 1526.24 L3383.22 1545.56 L3384.49 1552.53 Q3384.78 1554.09 3385.9 1555.39 Q3387.2 1556.92 3388.22 1556.92 L3391.02 1556.92 L3391.02 1561.88 L3387.52 1561.88 Q3384.53 1561.88 3381.85 1559.21 Q3380.55 1557.87 3380.01 1555.07 Q3378.54 1558.61 3375.55 1561.37 Q3374.15 1562.68 3369.6 1562.68 Q3362.12 1562.68 3358.49 1557.84 Q3354.77 1552.84 3354.77 1544.09 Q3354.77 1534.73 3358.81 1530.34 Q3363.3 1525.44 3369.6 1525.44 Q3379.5 1525.44 3381.38 1535.56 Z" fill="#000000" fill-rule="evenodd" fill-opacity="1" /><path clip-path="url(#clip930)" d="M3427.37 1572.71 L3427.37 1577.26 L3393.5 1577.26 L3393.5 1572.71 L3427.37 1572.71 Z" fill="#000000" fill-rule="evenodd" fill-opacity="1" /><path clip-path="url(#clip930)" d="M3447.45 1518.6 Q3442.49 1518.6 3439.97 1523.5 Q3437.49 1528.37 3437.49 1538.17 Q3437.49 1547.94 3439.97 1552.84 Q3442.49 1557.71 3447.45 1557.71 Q3452.45 1557.71 3454.93 1552.84 Q3457.45 1547.94 3457.45 1538.17 Q3457.45 1528.37 3454.93 1523.5 Q3452.45 1518.6 3447.45 1518.6 M3447.45 1513.5 Q3455.44 1513.5 3459.64 1519.84 Q3463.88 1526.14 3463.88 1538.17 Q3463.88 1550.17 3459.64 1556.5 Q3455.44 1562.81 3447.45 1562.81 Q3439.46 1562.81 3435.23 1556.5 Q3431.03 1550.17 3431.03 1538.17 Q3431.03 1526.14 3435.23 1519.84 Q3439.46 1513.5 3447.45 1513.5 Z" fill="#000000" fill-rule="evenodd" fill-opacity="1" /><polyline clip-path="url(#clip934)" style="stroke:#000000; stroke-linecap:butt; stroke-linejoin:round; stroke-width:2; stroke-opacity:0.1; fill:none" points="
  2928.88,1358.19 3889.76,1358.19 
  "/>
<polyline clip-path="url(#clip934)" style="stroke:#000000; stroke-linecap:butt; stroke-linejoin:round; stroke-width:2; stroke-opacity:0.1; fill:none" points="
  2928.88,995.349 3889.76,995.349 
  "/>
<polyline clip-path="url(#clip934)" style="stroke:#000000; stroke-linecap:butt; stroke-linejoin:round; stroke-width:2; stroke-opacity:0.1; fill:none" points="
  2928.88,632.511 3889.76,632.511 
  "/>
<polyline clip-path="url(#clip934)" style="stroke:#000000; stroke-linecap:butt; stroke-linejoin:round; stroke-width:2; stroke-opacity:0.1; fill:none" points="
  2928.88,269.672 3889.76,269.672 
  "/>
<polyline clip-path="url(#clip930)" style="stroke:#000000; stroke-linecap:butt; stroke-linejoin:round; stroke-width:4; stroke-opacity:1; fill:none" points="
  2928.88,1393.02 2928.88,162.272 
  "/>
<polyline clip-path="url(#clip930)" style="stroke:#000000; stroke-linecap:butt; stroke-linejoin:round; stroke-width:4; stroke-opacity:1; fill:none" points="
  2928.88,1358.19 2947.78,1358.19 
  "/>
<polyline clip-path="url(#clip930)" style="stroke:#000000; stroke-linecap:butt; stroke-linejoin:round; stroke-width:4; stroke-opacity:1; fill:none" points="
  2928.88,995.349 2947.78,995.349 
  "/>
<polyline clip-path="url(#clip930)" style="stroke:#000000; stroke-linecap:butt; stroke-linejoin:round; stroke-width:4; stroke-opacity:1; fill:none" points="
  2928.88,632.511 2947.78,632.511 
  "/>
<polyline clip-path="url(#clip930)" style="stroke:#000000; stroke-linecap:butt; stroke-linejoin:round; stroke-width:4; stroke-opacity:1; fill:none" points="
  2928.88,269.672 2947.78,269.672 
  "/>
<path clip-path="url(#clip930)" d="M2856.93 1343.99 Q2853.32 1343.99 2851.49 1347.55 Q2849.69 1351.09 2849.69 1358.22 Q2849.69 1365.33 2851.49 1368.89 Q2853.32 1372.43 2856.93 1372.43 Q2860.57 1372.43 2862.37 1368.89 Q2864.2 1365.33 2864.2 1358.22 Q2864.2 1351.09 2862.37 1347.55 Q2860.57 1343.99 2856.93 1343.99 M2856.93 1340.28 Q2862.74 1340.28 2865.8 1344.89 Q2868.88 1349.47 2868.88 1358.22 Q2868.88 1366.95 2865.8 1371.56 Q2862.74 1376.14 2856.93 1376.14 Q2851.12 1376.14 2848.05 1371.56 Q2844.99 1366.95 2844.99 1358.22 Q2844.99 1349.47 2848.05 1344.89 Q2851.12 1340.28 2856.93 1340.28 Z" fill="#000000" fill-rule="evenodd" fill-opacity="1" /><path clip-path="url(#clip930)" d="M2847.98 978.069 L2866.33 978.069 L2866.33 982.004 L2852.26 982.004 L2852.26 990.476 Q2853.28 990.129 2854.3 989.967 Q2855.31 989.782 2856.33 989.782 Q2862.12 989.782 2865.5 992.953 Q2868.88 996.124 2868.88 1001.54 Q2868.88 1007.12 2865.41 1010.22 Q2861.93 1013.3 2855.61 1013.3 Q2853.44 1013.3 2851.17 1012.93 Q2848.92 1012.56 2846.52 1011.82 L2846.52 1007.12 Q2848.6 1008.25 2850.82 1008.81 Q2853.05 1009.37 2855.52 1009.37 Q2859.53 1009.37 2861.86 1007.26 Q2864.2 1005.15 2864.2 1001.54 Q2864.2 997.93 2861.86 995.823 Q2859.53 993.717 2855.52 993.717 Q2853.65 993.717 2851.77 994.134 Q2849.92 994.55 2847.98 995.43 L2847.98 978.069 Z" fill="#000000" fill-rule="evenodd" fill-opacity="1" /><path clip-path="url(#clip930)" d="M2817.58 645.856 L2825.22 645.856 L2825.22 619.49 L2816.91 621.157 L2816.91 616.897 L2825.17 615.231 L2829.85 615.231 L2829.85 645.856 L2837.49 645.856 L2837.49 649.791 L2817.58 649.791 L2817.58 645.856 Z" fill="#000000" fill-rule="evenodd" fill-opacity="1" /><path clip-path="url(#clip930)" d="M2856.93 618.309 Q2853.32 618.309 2851.49 621.874 Q2849.69 625.416 2849.69 632.545 Q2849.69 639.652 2851.49 643.217 Q2853.32 646.758 2856.93 646.758 Q2860.57 646.758 2862.37 643.217 Q2864.2 639.652 2864.2 632.545 Q2864.2 625.416 2862.37 621.874 Q2860.57 618.309 2856.93 618.309 M2856.93 614.606 Q2862.74 614.606 2865.8 619.212 Q2868.88 623.795 2868.88 632.545 Q2868.88 641.272 2865.8 645.879 Q2862.74 650.462 2856.93 650.462 Q2851.12 650.462 2848.05 645.879 Q2844.99 641.272 2844.99 632.545 Q2844.99 623.795 2848.05 619.212 Q2851.12 614.606 2856.93 614.606 Z" fill="#000000" fill-rule="evenodd" fill-opacity="1" /><path clip-path="url(#clip930)" d="M2818.58 283.017 L2826.22 283.017 L2826.22 256.652 L2817.91 258.318 L2817.91 254.059 L2826.17 252.392 L2830.85 252.392 L2830.85 283.017 L2838.48 283.017 L2838.48 286.952 L2818.58 286.952 L2818.58 283.017 Z" fill="#000000" fill-rule="evenodd" fill-opacity="1" /><path clip-path="url(#clip930)" d="M2847.98 252.392 L2866.33 252.392 L2866.33 256.328 L2852.26 256.328 L2852.26 264.8 Q2853.28 264.453 2854.3 264.29 Q2855.31 264.105 2856.33 264.105 Q2862.12 264.105 2865.5 267.277 Q2868.88 270.448 2868.88 275.864 Q2868.88 281.443 2865.41 284.545 Q2861.93 287.624 2855.61 287.624 Q2853.44 287.624 2851.17 287.253 Q2848.92 286.883 2846.52 286.142 L2846.52 281.443 Q2848.6 282.577 2850.82 283.133 Q2853.05 283.689 2855.52 283.689 Q2859.53 283.689 2861.86 281.582 Q2864.2 279.476 2864.2 275.864 Q2864.2 272.253 2861.86 270.147 Q2859.53 268.04 2855.52 268.04 Q2853.65 268.04 2851.77 268.457 Q2849.92 268.874 2847.98 269.753 L2847.98 252.392 Z" fill="#000000" fill-rule="evenodd" fill-opacity="1" /><path clip-path="url(#clip930)" d="M2707.01 876.171 L2707.01 848.353 L2712.35 848.353 L2737.98 870.378 L2737.98 848.353 L2742.65 848.353 L2742.65 876.967 L2737.31 876.967 L2711.69 854.942 L2711.69 876.171 L2707.01 876.171 Z" fill="#000000" fill-rule="evenodd" fill-opacity="1" /><path clip-path="url(#clip930)" d="M2693.19 804.621 Q2700.51 808.886 2707.68 810.955 Q2714.84 813.023 2722.19 813.023 Q2729.54 813.023 2736.77 810.955 Q2743.96 808.854 2751.25 804.621 L2751.25 809.713 Q2743.77 814.488 2736.54 816.875 Q2729.32 819.23 2722.19 819.23 Q2715.09 819.23 2707.9 816.875 Q2700.7 814.519 2693.19 809.713 L2693.19 804.621 Z" fill="#000000" fill-rule="evenodd" fill-opacity="1" /><path clip-path="url(#clip930)" d="M2693.13 793.481 L2693.13 787.592 L2722.38 787.592 L2707.01 770.119 L2707.01 762.639 L2723.69 781.545 L2742.65 761.843 L2742.65 769.482 L2725.24 787.592 L2742.65 787.592 L2742.65 793.481 L2693.13 793.481 Z" fill="#000000" fill-rule="evenodd" fill-opacity="1" /><path clip-path="url(#clip930)" d="M2713.85 727.755 Q2709.9 725.559 2708.03 722.503 Q2706.15 719.448 2706.15 715.31 Q2706.15 709.74 2710.06 706.716 Q2713.95 703.692 2721.14 703.692 L2742.65 703.692 L2742.65 709.581 L2721.33 709.581 Q2716.21 709.581 2713.72 711.395 Q2711.24 713.209 2711.24 716.933 Q2711.24 721.485 2714.26 724.126 Q2717.29 726.768 2722.51 726.768 L2742.65 726.768 L2742.65 732.656 L2721.33 732.656 Q2716.17 732.656 2713.72 734.471 Q2711.24 736.285 2711.24 740.072 Q2711.24 744.56 2714.3 747.202 Q2717.32 749.844 2722.51 749.844 L2742.65 749.844 L2742.65 755.732 L2707.01 755.732 L2707.01 749.844 L2712.55 749.844 Q2709.27 747.839 2707.71 745.038 Q2706.15 742.237 2706.15 738.385 Q2706.15 734.502 2708.12 731.797 Q2710.09 729.06 2713.85 727.755 Z" fill="#000000" fill-rule="evenodd" fill-opacity="1" /><path clip-path="url(#clip930)" d="M2693.19 692.934 L2693.19 687.842 Q2700.7 683.067 2707.9 680.712 Q2715.09 678.325 2722.19 678.325 Q2729.32 678.325 2736.54 680.712 Q2743.77 683.067 2751.25 687.842 L2751.25 692.934 Q2743.96 688.701 2736.77 686.632 Q2729.54 684.532 2722.19 684.532 Q2714.84 684.532 2707.68 686.632 Q2700.51 688.701 2693.19 692.934 Z" fill="#000000" fill-rule="evenodd" fill-opacity="1" /><path clip-path="url(#clip930)" d="M3369.58 51.4708 L3367.8 42.1132 Q3365.98 32.5126 3358.77 32.5126 Q3353.34 32.5126 3350.87 36.9686 Q3347.75 42.5588 3347.75 49.9314 Q3347.75 58.8434 3350.79 63.0969 Q3353.86 67.4314 3358.77 67.4314 Q3364.19 67.4314 3367.11 58.8029 L3369.58 51.4708 M3373.75 39.075 L3377.76 27.2059 L3384.41 27.2059 L3376.1 51.7949 L3377.72 60.6663 Q3378.09 62.6513 3379.51 64.3122 Q3381.17 66.2566 3382.46 66.2566 L3386.03 66.2566 L3386.03 72.576 L3381.57 72.576 Q3377.76 72.576 3374.36 69.1732 Q3372.7 67.4719 3372.01 63.9071 Q3370.15 68.4036 3366.34 71.9279 Q3364.56 73.5887 3358.77 73.5887 Q3349.25 73.5887 3344.63 67.4314 Q3339.89 61.0714 3339.89 49.9314 Q3339.89 38.0218 3345.03 32.4315 Q3350.74 26.1931 3358.77 26.1931 Q3371.36 26.1931 3373.75 39.075 Z" fill="#000000" fill-rule="evenodd" fill-opacity="1" /><path clip-path="url(#clip930)" d="M3432.29 86.3491 L3432.29 92.1419 L3389.19 92.1419 L3389.19 86.3491 L3432.29 86.3491 Z" fill="#000000" fill-rule="evenodd" fill-opacity="1" /><path clip-path="url(#clip930)" d="M3457.85 17.4837 Q3451.53 17.4837 3448.33 23.7221 Q3445.17 29.92 3445.17 42.3968 Q3445.17 54.833 3448.33 61.0714 Q3451.53 67.2693 3457.85 67.2693 Q3464.21 67.2693 3467.37 61.0714 Q3470.57 54.833 3470.57 42.3968 Q3470.57 29.92 3467.37 23.7221 Q3464.21 17.4837 3457.85 17.4837 M3457.85 11.0023 Q3468.02 11.0023 3473.37 19.0636 Q3478.75 27.0843 3478.75 42.3968 Q3478.75 57.6687 3473.37 65.73 Q3468.02 73.7508 3457.85 73.7508 Q3447.68 73.7508 3442.3 65.73 Q3436.95 57.6687 3436.95 42.3968 Q3436.95 27.0843 3442.3 19.0636 Q3447.68 11.0023 3457.85 11.0023 Z" fill="#000000" fill-rule="evenodd" fill-opacity="1" /><polyline clip-path="url(#clip934)" style="stroke:#009af9; stroke-linecap:butt; stroke-linejoin:round; stroke-width:4; stroke-opacity:1; fill:none" points="
  2957.86,1350.93 2961.5,1336.42 2965.23,1321.9 2969.04,1307.39 2972.95,1292.88 2976.94,1278.36 2981.03,1263.85 2985.21,1249.34 2989.5,1234.82 2993.88,1220.31 
  2998.38,1205.8 3002.97,1191.28 3007.68,1176.77 3012.5,1162.25 3017.44,1147.74 3022.49,1133.23 3027.67,1118.71 3032.97,1104.2 3038.4,1089.69 3043.96,1075.17 
  3049.66,1060.66 3055.49,1046.15 3061.47,1031.63 3067.6,1017.12 3073.88,1002.61 3080.31,988.092 3086.9,973.579 3093.65,959.065 3100.63,944.552 3109.1,930.038 
  3117.02,915.525 3124.62,901.011 3132.4,886.497 3140.38,871.984 3148.55,857.47 3156.93,842.957 3165.52,828.443 3174.31,813.93 3183.33,799.416 3192.58,784.903 
  3202.05,770.389 3211.76,755.876 3221.72,741.362 3231.92,726.849 3242.39,712.335 3253.11,697.822 3264.11,683.308 3275.38,668.794 3286.93,654.281 3298.78,639.767 
  3310.93,625.254 3323.39,610.74 3336.17,596.227 3349.28,581.713 3362.72,567.2 3376.5,552.686 3390.64,538.173 3405.15,523.659 3420.04,509.146 3435.31,494.632 
  3450.99,480.119 3467.09,465.605 3483.61,451.092 3500.58,436.578 3518.02,422.064 3535.93,407.551 3554.33,393.037 3573.25,378.524 3592.7,364.01 3612.71,349.497 
  3633.3,334.983 3654.48,320.47 3676.29,305.956 3698.75,291.443 3721.89,276.929 3745.73,262.416 3770.31,247.902 3795.65,233.389 3821.79,218.875 3848.76,204.361 
  
  "/>
<polyline clip-path="url(#clip934)" style="stroke:#e26f46; stroke-linecap:butt; stroke-linejoin:round; stroke-width:4; stroke-opacity:1; fill:none" points="
  2956.07,1358.19 2959.67,1343.67 2963.36,1329.16 2967.13,1314.65 2970.98,1300.13 2974.93,1285.62 2978.97,1271.11 2983.11,1256.59 2987.34,1242.08 2991.68,1227.57 
  2996.12,1213.05 3000.66,1198.54 3005.31,1184.02 3010.08,1169.51 3014.95,1155 3019.95,1140.48 3025.06,1125.97 3030.3,1111.46 3035.67,1096.94 3041.16,1082.43 
  3046.79,1067.92 3052.56,1053.4 3058.47,1038.89 3064.52,1024.38 3070.72,1009.86 3077.07,995.349 3083.58,980.835 3090.25,966.322 3097.09,951.808 3104.84,937.295 
  3113.29,922.781 3120.8,908.268 3128.49,893.754 3136.37,879.241 3144.44,864.727 3152.72,850.214 3161.2,835.7 3169.89,821.187 3178.8,806.673 3187.93,792.16 
  3197.29,777.646 3206.88,763.132 3216.71,748.619 3226.79,734.105 3237.12,719.592 3247.71,705.078 3258.57,690.565 3269.71,676.051 3281.12,661.538 3292.82,647.024 
  3304.82,632.511 3317.13,617.997 3329.74,603.484 3342.68,588.97 3355.95,574.457 3369.56,559.943 3383.53,545.429 3397.85,530.916 3412.54,516.402 3427.62,501.889 
  3443.1,487.375 3458.99,472.862 3475.3,458.348 3492.04,443.835 3509.24,429.321 3526.91,414.808 3545.06,400.294 3563.72,385.781 3582.91,371.267 3602.64,356.754 
  3622.93,342.24 3643.81,327.727 3665.31,313.213 3687.44,298.699 3710.23,284.186 3733.72,269.672 3757.93,255.159 3782.88,240.645 3808.62,226.132 3835.17,211.618 
  3862.57,197.105 
  "/>
<path clip-path="url(#clip930)" d="
M3285.44 358.817 L3857.73 358.817 L3857.73 203.297 L3285.44 203.297  Z
  " fill="#ffffff" fill-rule="evenodd" fill-opacity="1"/>
<polyline clip-path="url(#clip930)" style="stroke:#000000; stroke-linecap:butt; stroke-linejoin:round; stroke-width:4; stroke-opacity:1; fill:none" points="
  3285.44,358.817 3857.73,358.817 3857.73,203.297 3285.44,203.297 3285.44,358.817 
  "/>
<polyline clip-path="url(#clip930)" style="stroke:#009af9; stroke-linecap:butt; stroke-linejoin:round; stroke-width:4; stroke-opacity:1; fill:none" points="
  3325.44,255.137 3565.44,255.137 
  "/>
<path clip-path="url(#clip930)" d="M3625.95 247.487 L3625.95 251.468 Q3624.15 250.473 3622.32 249.987 Q3620.51 249.477 3618.66 249.477 Q3614.52 249.477 3612.23 252.116 Q3609.93 254.732 3609.93 259.477 Q3609.93 264.223 3612.23 266.862 Q3614.52 269.477 3618.66 269.477 Q3620.51 269.477 3622.32 268.991 Q3624.15 268.482 3625.95 267.487 L3625.95 271.422 Q3624.17 272.255 3622.25 272.672 Q3620.35 273.088 3618.2 273.088 Q3612.34 273.088 3608.89 269.408 Q3605.44 265.727 3605.44 259.477 Q3605.44 253.135 3608.92 249.501 Q3612.41 245.866 3618.48 245.866 Q3620.44 245.866 3622.32 246.283 Q3624.19 246.677 3625.95 247.487 Z" fill="#000000" fill-rule="evenodd" fill-opacity="1" /><path clip-path="url(#clip930)" d="M3655.54 258.389 L3655.54 260.473 L3635.95 260.473 Q3636.23 264.871 3638.59 267.186 Q3640.98 269.477 3645.21 269.477 Q3647.67 269.477 3649.96 268.876 Q3652.27 268.274 3654.54 267.07 L3654.54 271.098 Q3652.25 272.07 3649.84 272.579 Q3647.43 273.088 3644.96 273.088 Q3638.75 273.088 3635.12 269.477 Q3631.51 265.866 3631.51 259.709 Q3631.51 253.343 3634.93 249.616 Q3638.38 245.866 3644.22 245.866 Q3649.45 245.866 3652.48 249.246 Q3655.54 252.602 3655.54 258.389 M3651.28 257.139 Q3651.23 253.644 3649.31 251.561 Q3647.41 249.477 3644.26 249.477 Q3640.7 249.477 3638.55 251.491 Q3636.42 253.505 3636.09 257.163 L3651.28 257.139 Z" fill="#000000" fill-rule="evenodd" fill-opacity="1" /><path clip-path="url(#clip930)" d="M3684.08 256.769 L3684.08 272.417 L3679.82 272.417 L3679.82 256.908 Q3679.82 253.227 3678.38 251.399 Q3676.95 249.57 3674.08 249.57 Q3670.63 249.57 3668.64 251.769 Q3666.65 253.968 3666.65 257.764 L3666.65 272.417 L3662.36 272.417 L3662.36 246.491 L3666.65 246.491 L3666.65 250.519 Q3668.17 248.181 3670.23 247.024 Q3672.32 245.866 3675.03 245.866 Q3679.49 245.866 3681.79 248.644 Q3684.08 251.399 3684.08 256.769 Z" fill="#000000" fill-rule="evenodd" fill-opacity="1" /><path clip-path="url(#clip930)" d="M3696.79 239.13 L3696.79 246.491 L3705.56 246.491 L3705.56 249.802 L3696.79 249.802 L3696.79 263.876 Q3696.79 267.047 3697.64 267.95 Q3698.52 268.852 3701.18 268.852 L3705.56 268.852 L3705.56 272.417 L3701.18 272.417 Q3696.25 272.417 3694.38 270.588 Q3692.5 268.737 3692.5 263.876 L3692.5 249.802 L3689.38 249.802 L3689.38 246.491 L3692.5 246.491 L3692.5 239.13 L3696.79 239.13 Z" fill="#000000" fill-rule="evenodd" fill-opacity="1" /><path clip-path="url(#clip930)" d="M3733.34 258.389 L3733.34 260.473 L3713.75 260.473 Q3714.03 264.871 3716.39 267.186 Q3718.78 269.477 3723.01 269.477 Q3725.47 269.477 3727.76 268.876 Q3730.07 268.274 3732.34 267.07 L3732.34 271.098 Q3730.05 272.07 3727.64 272.579 Q3725.23 273.088 3722.76 273.088 Q3716.55 273.088 3712.92 269.477 Q3709.31 265.866 3709.31 259.709 Q3709.31 253.343 3712.73 249.616 Q3716.18 245.866 3722.02 245.866 Q3727.25 245.866 3730.28 249.246 Q3733.34 252.602 3733.34 258.389 M3729.08 257.139 Q3729.03 253.644 3727.11 251.561 Q3725.21 249.477 3722.06 249.477 Q3718.5 249.477 3716.35 251.491 Q3714.22 253.505 3713.89 257.163 L3729.08 257.139 Z" fill="#000000" fill-rule="evenodd" fill-opacity="1" /><path clip-path="url(#clip930)" d="M3755.35 250.473 Q3754.63 250.056 3753.78 249.871 Q3752.94 249.663 3751.92 249.663 Q3748.31 249.663 3746.37 252.024 Q3744.45 254.362 3744.45 258.76 L3744.45 272.417 L3740.17 272.417 L3740.17 246.491 L3744.45 246.491 L3744.45 250.519 Q3745.79 248.158 3747.94 247.024 Q3750.1 245.866 3753.17 245.866 Q3753.61 245.866 3754.15 245.936 Q3754.68 245.982 3755.33 246.098 L3755.35 250.473 Z" fill="#000000" fill-rule="evenodd" fill-opacity="1" /><path clip-path="url(#clip930)" d="M3776.35 247.255 L3776.35 251.283 Q3774.54 250.357 3772.6 249.894 Q3770.65 249.431 3768.57 249.431 Q3765.4 249.431 3763.8 250.403 Q3762.23 251.376 3762.23 253.32 Q3762.23 254.802 3763.36 255.658 Q3764.49 256.491 3767.92 257.255 L3769.38 257.579 Q3773.91 258.552 3775.81 260.334 Q3777.73 262.093 3777.73 265.264 Q3777.73 268.876 3774.86 270.982 Q3772.02 273.088 3767.02 273.088 Q3764.93 273.088 3762.66 272.672 Q3760.42 272.278 3757.92 271.468 L3757.92 267.07 Q3760.28 268.297 3762.57 268.922 Q3764.86 269.524 3767.11 269.524 Q3770.12 269.524 3771.74 268.505 Q3773.36 267.463 3773.36 265.589 Q3773.36 263.852 3772.18 262.926 Q3771.02 262.001 3767.06 261.144 L3765.58 260.797 Q3761.62 259.964 3759.86 258.251 Q3758.1 256.514 3758.1 253.505 Q3758.1 249.848 3760.7 247.857 Q3763.29 245.866 3768.06 245.866 Q3770.42 245.866 3772.5 246.214 Q3774.59 246.561 3776.35 247.255 Z" fill="#000000" fill-rule="evenodd" fill-opacity="1" /><polyline clip-path="url(#clip930)" style="stroke:#e26f46; stroke-linecap:butt; stroke-linejoin:round; stroke-width:4; stroke-opacity:1; fill:none" points="
  3325.44,306.977 3565.44,306.977 
  "/>
<path clip-path="url(#clip930)" d="M3621.95 288.239 L3621.95 291.78 L3617.87 291.78 Q3615.58 291.78 3614.68 292.706 Q3613.8 293.632 3613.8 296.04 L3613.8 298.331 L3620.81 298.331 L3620.81 301.642 L3613.8 301.642 L3613.8 324.257 L3609.52 324.257 L3609.52 301.642 L3605.44 301.642 L3605.44 298.331 L3609.52 298.331 L3609.52 296.526 Q3609.52 292.197 3611.53 290.23 Q3613.55 288.239 3617.92 288.239 L3621.95 288.239 Z" fill="#000000" fill-rule="evenodd" fill-opacity="1" /><path clip-path="url(#clip930)" d="M3637.3 311.225 Q3632.13 311.225 3630.14 312.405 Q3628.15 313.586 3628.15 316.433 Q3628.15 318.702 3629.63 320.044 Q3631.14 321.364 3633.71 321.364 Q3637.25 321.364 3639.38 318.864 Q3641.53 316.341 3641.53 312.174 L3641.53 311.225 L3637.3 311.225 M3645.79 309.466 L3645.79 324.257 L3641.53 324.257 L3641.53 320.322 Q3640.07 322.683 3637.9 323.817 Q3635.72 324.928 3632.57 324.928 Q3628.59 324.928 3626.23 322.706 Q3623.89 320.461 3623.89 316.711 Q3623.89 312.336 3626.81 310.114 Q3629.75 307.892 3635.56 307.892 L3641.53 307.892 L3641.53 307.475 Q3641.53 304.535 3639.59 302.938 Q3637.67 301.317 3634.17 301.317 Q3631.95 301.317 3629.84 301.85 Q3627.74 302.382 3625.79 303.447 L3625.79 299.512 Q3628.13 298.609 3630.33 298.169 Q3632.53 297.706 3634.61 297.706 Q3640.23 297.706 3643.01 300.623 Q3645.79 303.54 3645.79 309.466 Z" fill="#000000" fill-rule="evenodd" fill-opacity="1" /><path clip-path="url(#clip930)" d="M3673.22 299.327 L3673.22 303.308 Q3671.42 302.313 3669.59 301.827 Q3667.78 301.317 3665.93 301.317 Q3661.79 301.317 3659.49 303.956 Q3657.2 306.572 3657.2 311.317 Q3657.2 316.063 3659.49 318.702 Q3661.79 321.317 3665.93 321.317 Q3667.78 321.317 3669.59 320.831 Q3671.42 320.322 3673.22 319.327 L3673.22 323.262 Q3671.44 324.095 3669.52 324.512 Q3667.62 324.928 3665.47 324.928 Q3659.61 324.928 3656.16 321.248 Q3652.71 317.567 3652.71 311.317 Q3652.71 304.975 3656.18 301.341 Q3659.68 297.706 3665.74 297.706 Q3667.71 297.706 3669.59 298.123 Q3671.46 298.517 3673.22 299.327 Z" fill="#000000" fill-rule="evenodd" fill-opacity="1" /><path clip-path="url(#clip930)" d="M3702.8 310.229 L3702.8 312.313 L3683.22 312.313 Q3683.5 316.711 3685.86 319.026 Q3688.24 321.317 3692.48 321.317 Q3694.93 321.317 3697.23 320.716 Q3699.54 320.114 3701.81 318.91 L3701.81 322.938 Q3699.52 323.91 3697.11 324.419 Q3694.7 324.928 3692.23 324.928 Q3686.02 324.928 3682.39 321.317 Q3678.78 317.706 3678.78 311.549 Q3678.78 305.183 3682.2 301.456 Q3685.65 297.706 3691.48 297.706 Q3696.72 297.706 3699.75 301.086 Q3702.8 304.442 3702.8 310.229 M3698.54 308.979 Q3698.5 305.484 3696.58 303.401 Q3694.68 301.317 3691.53 301.317 Q3687.97 301.317 3685.81 303.331 Q3683.68 305.345 3683.36 309.003 L3698.54 308.979 Z" fill="#000000" fill-rule="evenodd" fill-opacity="1" /><path clip-path="url(#clip930)" d="M3726.32 299.095 L3726.32 303.123 Q3724.52 302.197 3722.57 301.734 Q3720.63 301.271 3718.54 301.271 Q3715.37 301.271 3713.78 302.243 Q3712.2 303.216 3712.2 305.16 Q3712.2 306.642 3713.34 307.498 Q3714.47 308.331 3717.9 309.095 L3719.35 309.419 Q3723.89 310.392 3725.79 312.174 Q3727.71 313.933 3727.71 317.104 Q3727.71 320.716 3724.84 322.822 Q3721.99 324.928 3716.99 324.928 Q3714.91 324.928 3712.64 324.512 Q3710.4 324.118 3707.9 323.308 L3707.9 318.91 Q3710.26 320.137 3712.55 320.762 Q3714.84 321.364 3717.09 321.364 Q3720.1 321.364 3721.72 320.345 Q3723.34 319.303 3723.34 317.429 Q3723.34 315.692 3722.16 314.766 Q3721 313.841 3717.04 312.984 L3715.56 312.637 Q3711.6 311.804 3709.84 310.091 Q3708.08 308.354 3708.08 305.345 Q3708.08 301.688 3710.67 299.697 Q3713.27 297.706 3718.04 297.706 Q3720.4 297.706 3722.48 298.054 Q3724.56 298.401 3726.32 299.095 Z" fill="#000000" fill-rule="evenodd" fill-opacity="1" /></svg>
