<?xml version="1.0" encoding="utf-8"?>
<svg xmlns="http://www.w3.org/2000/svg" xmlns:xlink="http://www.w3.org/1999/xlink" width="1000" height="400" viewBox="0 0 4000 1600">
<defs>
  <clipPath id="clip400">
    <rect x="0" y="0" width="4000" height="1600"/>
  </clipPath>
</defs>
<path clip-path="url(#clip400)" d="
M0 1600 L4000 1600 L4000 0 L0 0  Z
  " fill="#ffffff" fill-rule="evenodd" fill-opacity="1"/>
<defs>
  <clipPath id="clip401">
    <rect x="800" y="0" width="2801" height="1600"/>
  </clipPath>
</defs>
<path clip-path="url(#clip400)" d="
M235.429 1393.02 L1889.76 1393.02 L1889.76 162.272 L235.429 162.272  Z
  " fill="#ffffff" fill-rule="evenodd" fill-opacity="1"/>
<defs>
  <clipPath id="clip402">
    <rect x="235" y="162" width="1655" height="1232"/>
  </clipPath>
</defs>
<polyline clip-path="url(#clip402)" style="stroke:#000000; stroke-linecap:butt; stroke-linejoin:round; stroke-width:2; stroke-opacity:0.1; fill:none" points="
  564.612,1393.02 564.612,162.272 
  "/>
<polyline clip-path="url(#clip402)" style="stroke:#000000; stroke-linecap:butt; stroke-linejoin:round; stroke-width:2; stroke-opacity:0.1; fill:none" points="
  964.086,1393.02 964.086,162.272 
  "/>
<polyline clip-path="url(#clip402)" style="stroke:#000000; stroke-linecap:butt; stroke-linejoin:round; stroke-width:2; stroke-opacity:0.1; fill:none" points="
  1363.56,1393.02 1363.56,162.272 
  "/>
<polyline clip-path="url(#clip402)" style="stroke:#000000; stroke-linecap:butt; stroke-linejoin:round; stroke-width:2; stroke-opacity:0.1; fill:none" points="
  1763.03,1393.02 1763.03,162.272 
  "/>
<polyline clip-path="url(#clip400)" style="stroke:#000000; stroke-linecap:butt; stroke-linejoin:round; stroke-width:4; stroke-opacity:1; fill:none" points="
  235.429,1393.02 1889.76,1393.02 
  "/>
<polyline clip-path="url(#clip400)" style="stroke:#000000; stroke-linecap:butt; stroke-linejoin:round; stroke-width:4; stroke-opacity:1; fill:none" points="
  564.612,1393.02 564.612,1374.12 
  "/>
<polyline clip-path="url(#clip400)" style="stroke:#000000; stroke-linecap:butt; stroke-linejoin:round; stroke-width:4; stroke-opacity:1; fill:none" points="
  964.086,1393.02 964.086,1374.12 
  "/>
<polyline clip-path="url(#clip400)" style="stroke:#000000; stroke-linecap:butt; stroke-linejoin:round; stroke-width:4; stroke-opacity:1; fill:none" points="
  1363.56,1393.02 1363.56,1374.12 
  "/>
<polyline clip-path="url(#clip400)" style="stroke:#000000; stroke-linecap:butt; stroke-linejoin:round; stroke-width:4; stroke-opacity:1; fill:none" points="
  1763.03,1393.02 1763.03,1374.12 
  "/>
<path clip-path="url(#clip400)" d="M542.043 1436.74 Q538.432 1436.74 536.603 1440.3 Q534.797 1443.84 534.797 1450.97 Q534.797 1458.08 536.603 1461.65 Q538.432 1465.19 542.043 1465.19 Q545.677 1465.19 547.482 1461.65 Q549.311 1458.08 549.311 1450.97 Q549.311 1443.84 547.482 1440.3 Q545.677 1436.74 542.043 1436.74 M542.043 1433.03 Q547.853 1433.03 550.908 1437.64 Q553.987 1442.22 553.987 1450.97 Q553.987 1459.7 550.908 1464.31 Q547.853 1468.89 542.043 1468.89 Q536.232 1468.89 533.154 1464.31 Q530.098 1459.7 530.098 1450.97 Q530.098 1442.22 533.154 1437.64 Q536.232 1433.03 542.043 1433.03 Z" fill="#000000" fill-rule="evenodd" fill-opacity="1" /><path clip-path="url(#clip400)" d="M562.205 1462.34 L567.089 1462.34 L567.089 1468.22 L562.205 1468.22 L562.205 1462.34 Z" fill="#000000" fill-rule="evenodd" fill-opacity="1" /><path clip-path="url(#clip400)" d="M587.274 1451.81 Q583.941 1451.81 582.019 1453.59 Q580.121 1455.37 580.121 1458.5 Q580.121 1461.62 582.019 1463.4 Q583.941 1465.19 587.274 1465.19 Q590.607 1465.19 592.528 1463.4 Q594.45 1461.6 594.45 1458.5 Q594.45 1455.37 592.528 1453.59 Q590.63 1451.81 587.274 1451.81 M582.598 1449.82 Q579.589 1449.08 577.899 1447.02 Q576.232 1444.96 576.232 1441.99 Q576.232 1437.85 579.172 1435.44 Q582.135 1433.03 587.274 1433.03 Q592.436 1433.03 595.376 1435.44 Q598.315 1437.85 598.315 1441.99 Q598.315 1444.96 596.626 1447.02 Q594.959 1449.08 591.973 1449.82 Q595.353 1450.6 597.228 1452.9 Q599.126 1455.19 599.126 1458.5 Q599.126 1463.52 596.047 1466.21 Q592.991 1468.89 587.274 1468.89 Q581.556 1468.89 578.478 1466.21 Q575.422 1463.52 575.422 1458.5 Q575.422 1455.19 577.32 1452.9 Q579.218 1450.6 582.598 1449.82 M580.885 1442.43 Q580.885 1445.12 582.552 1446.62 Q584.241 1448.13 587.274 1448.13 Q590.283 1448.13 591.973 1446.62 Q593.686 1445.12 593.686 1442.43 Q593.686 1439.75 591.973 1438.24 Q590.283 1436.74 587.274 1436.74 Q584.241 1436.74 582.552 1438.24 Q580.885 1439.75 580.885 1442.43 Z" fill="#000000" fill-rule="evenodd" fill-opacity="1" /><path clip-path="url(#clip400)" d="M941.563 1436.74 Q937.952 1436.74 936.123 1440.3 Q934.318 1443.84 934.318 1450.97 Q934.318 1458.08 936.123 1461.65 Q937.952 1465.19 941.563 1465.19 Q945.197 1465.19 947.003 1461.65 Q948.832 1458.08 948.832 1450.97 Q948.832 1443.84 947.003 1440.3 Q945.197 1436.74 941.563 1436.74 M941.563 1433.03 Q947.373 1433.03 950.429 1437.64 Q953.508 1442.22 953.508 1450.97 Q953.508 1459.7 950.429 1464.31 Q947.373 1468.89 941.563 1468.89 Q935.753 1468.89 932.674 1464.31 Q929.619 1459.7 929.619 1450.97 Q929.619 1442.22 932.674 1437.64 Q935.753 1433.03 941.563 1433.03 Z" fill="#000000" fill-rule="evenodd" fill-opacity="1" /><path clip-path="url(#clip400)" d="M961.725 1462.34 L966.609 1462.34 L966.609 1468.22 L961.725 1468.22 L961.725 1462.34 Z" fill="#000000" fill-rule="evenodd" fill-opacity="1" /><path clip-path="url(#clip400)" d="M976.933 1467.5 L976.933 1463.24 Q978.693 1464.08 980.498 1464.52 Q982.304 1464.96 984.04 1464.96 Q988.669 1464.96 991.1 1461.85 Q993.554 1458.73 993.901 1452.39 Q992.558 1454.38 990.498 1455.44 Q988.438 1456.51 985.938 1456.51 Q980.753 1456.51 977.72 1453.38 Q974.711 1450.23 974.711 1444.79 Q974.711 1439.47 977.859 1436.25 Q981.007 1433.03 986.239 1433.03 Q992.234 1433.03 995.382 1437.64 Q998.554 1442.22 998.554 1450.97 Q998.554 1459.15 994.665 1464.03 Q990.799 1468.89 984.248 1468.89 Q982.489 1468.89 980.683 1468.54 Q978.878 1468.2 976.933 1467.5 M986.239 1452.85 Q989.387 1452.85 991.216 1450.7 Q993.067 1448.54 993.067 1444.79 Q993.067 1441.07 991.216 1438.91 Q989.387 1436.74 986.239 1436.74 Q983.091 1436.74 981.239 1438.91 Q979.41 1441.07 979.41 1444.79 Q979.41 1448.54 981.239 1450.7 Q983.091 1452.85 986.239 1452.85 Z" fill="#000000" fill-rule="evenodd" fill-opacity="1" /><path clip-path="url(#clip400)" d="M1330.71 1464.28 L1338.35 1464.28 L1338.35 1437.92 L1330.04 1439.59 L1330.04 1435.33 L1338.31 1433.66 L1342.98 1433.66 L1342.98 1464.28 L1350.62 1464.28 L1350.62 1468.22 L1330.71 1468.22 L1330.71 1464.28 Z" fill="#000000" fill-rule="evenodd" fill-opacity="1" /><path clip-path="url(#clip400)" d="M1360.07 1462.34 L1364.95 1462.34 L1364.95 1468.22 L1360.07 1468.22 L1360.07 1462.34 Z" fill="#000000" fill-rule="evenodd" fill-opacity="1" /><path clip-path="url(#clip400)" d="M1385.13 1436.74 Q1381.52 1436.74 1379.69 1440.3 Q1377.89 1443.84 1377.89 1450.97 Q1377.89 1458.08 1379.69 1461.65 Q1381.52 1465.19 1385.13 1465.19 Q1388.77 1465.19 1390.57 1461.65 Q1392.4 1458.08 1392.4 1450.97 Q1392.4 1443.84 1390.57 1440.3 Q1388.77 1436.74 1385.13 1436.74 M1385.13 1433.03 Q1390.94 1433.03 1394 1437.64 Q1397.08 1442.22 1397.08 1450.97 Q1397.08 1459.7 1394 1464.31 Q1390.94 1468.89 1385.13 1468.89 Q1379.32 1468.89 1376.25 1464.31 Q1373.19 1459.7 1373.19 1450.97 Q1373.19 1442.22 1376.25 1437.64 Q1379.32 1433.03 1385.13 1433.03 Z" fill="#000000" fill-rule="evenodd" fill-opacity="1" /><path clip-path="url(#clip400)" d="M1730.8 1464.28 L1738.44 1464.28 L1738.44 1437.92 L1730.13 1439.59 L1730.13 1435.33 L1738.39 1433.66 L1743.07 1433.66 L1743.07 1464.28 L1750.71 1464.28 L1750.71 1468.22 L1730.8 1468.22 L1730.8 1464.28 Z" fill="#000000" fill-rule="evenodd" fill-opacity="1" /><path clip-path="url(#clip400)" d="M1760.15 1462.34 L1765.04 1462.34 L1765.04 1468.22 L1760.15 1468.22 L1760.15 1462.34 Z" fill="#000000" fill-rule="evenodd" fill-opacity="1" /><path clip-path="url(#clip400)" d="M1776.03 1464.28 L1783.67 1464.28 L1783.67 1437.92 L1775.36 1439.59 L1775.36 1435.33 L1783.62 1433.66 L1788.3 1433.66 L1788.3 1464.28 L1795.94 1464.28 L1795.94 1468.22 L1776.03 1468.22 L1776.03 1464.28 Z" fill="#000000" fill-rule="evenodd" fill-opacity="1" /><path clip-path="url(#clip400)" d="M1049.52 1532.6 Q1051.46 1529.35 1056.26 1526.49 Q1058.14 1525.38 1063.93 1525.38 Q1070.43 1525.38 1074.47 1530.53 Q1078.54 1535.69 1078.54 1544.09 Q1078.54 1552.49 1074.47 1557.65 Q1070.43 1562.81 1063.93 1562.81 Q1060.02 1562.81 1057.19 1561.28 Q1054.38 1559.72 1052.54 1556.54 L1052.54 1575.44 L1046.65 1575.44 L1046.65 1544.41 Q1046.65 1537.06 1049.52 1532.6 M1072.46 1544.09 Q1072.46 1537.63 1069.79 1533.97 Q1067.15 1530.28 1062.5 1530.28 Q1057.85 1530.28 1055.18 1533.97 Q1052.54 1537.63 1052.54 1544.09 Q1052.54 1550.55 1055.18 1554.24 Q1057.85 1557.91 1062.5 1557.91 Q1067.15 1557.91 1069.79 1554.24 Q1072.46 1550.55 1072.46 1544.09 Z" fill="#000000" fill-rule="evenodd" fill-opacity="1" /><polyline clip-path="url(#clip402)" style="stroke:#000000; stroke-linecap:butt; stroke-linejoin:round; stroke-width:2; stroke-opacity:0.1; fill:none" points="
  235.429,1358.19 1889.76,1358.19 
  "/>
<polyline clip-path="url(#clip402)" style="stroke:#000000; stroke-linecap:butt; stroke-linejoin:round; stroke-width:2; stroke-opacity:0.1; fill:none" points="
  235.429,1094.3 1889.76,1094.3 
  "/>
<polyline clip-path="url(#clip402)" style="stroke:#000000; stroke-linecap:butt; stroke-linejoin:round; stroke-width:2; stroke-opacity:0.1; fill:none" points="
  235.429,830.422 1889.76,830.422 
  "/>
<polyline clip-path="url(#clip402)" style="stroke:#000000; stroke-linecap:butt; stroke-linejoin:round; stroke-width:2; stroke-opacity:0.1; fill:none" points="
  235.429,566.54 1889.76,566.54 
  "/>
<polyline clip-path="url(#clip402)" style="stroke:#000000; stroke-linecap:butt; stroke-linejoin:round; stroke-width:2; stroke-opacity:0.1; fill:none" points="
  235.429,302.658 1889.76,302.658 
  "/>
<polyline clip-path="url(#clip400)" style="stroke:#000000; stroke-linecap:butt; stroke-linejoin:round; stroke-width:4; stroke-opacity:1; fill:none" points="
  235.429,1393.02 235.429,162.272 
  "/>
<polyline clip-path="url(#clip400)" style="stroke:#000000; stroke-linecap:butt; stroke-linejoin:round; stroke-width:4; stroke-opacity:1; fill:none" points="
  235.429,1358.19 254.327,1358.19 
  "/>
<polyline clip-path="url(#clip400)" style="stroke:#000000; stroke-linecap:butt; stroke-linejoin:round; stroke-width:4; stroke-opacity:1; fill:none" points="
  235.429,1094.3 254.327,1094.3 
  "/>
<polyline clip-path="url(#clip400)" style="stroke:#000000; stroke-linecap:butt; stroke-linejoin:round; stroke-width:4; stroke-opacity:1; fill:none" points="
  235.429,830.422 254.327,830.422 
  "/>
<polyline clip-path="url(#clip400)" style="stroke:#000000; stroke-linecap:butt; stroke-linejoin:round; stroke-width:4; stroke-opacity:1; fill:none" points="
  235.429,566.54 254.327,566.54 
  "/>
<polyline clip-path="url(#clip400)" style="stroke:#000000; stroke-linecap:butt; stroke-linejoin:round; stroke-width:4; stroke-opacity:1; fill:none" points="
  235.429,302.658 254.327,302.658 
  "/>
<path clip-path="url(#clip400)" d="M163.485 1343.99 Q159.874 1343.99 158.045 1347.55 Q156.24 1351.09 156.24 1358.22 Q156.24 1365.33 158.045 1368.89 Q159.874 1372.43 163.485 1372.43 Q167.119 1372.43 168.925 1368.89 Q170.753 1365.33 170.753 1358.22 Q170.753 1351.09 168.925 1347.55 Q167.119 1343.99 163.485 1343.99 M163.485 1340.28 Q169.295 1340.28 172.351 1344.89 Q175.429 1349.47 175.429 1358.22 Q175.429 1366.95 172.351 1371.56 Q169.295 1376.14 163.485 1376.14 Q157.675 1376.14 154.596 1371.56 Q151.541 1366.95 151.541 1358.22 Q151.541 1349.47 154.596 1344.89 Q157.675 1340.28 163.485 1340.28 Z" fill="#000000" fill-rule="evenodd" fill-opacity="1" /><path clip-path="url(#clip400)" d="M155.522 1107.65 L163.161 1107.65 L163.161 1081.28 L154.851 1082.95 L154.851 1078.69 L163.115 1077.02 L167.79 1077.02 L167.79 1107.65 L175.429 1107.65 L175.429 1111.58 L155.522 1111.58 L155.522 1107.65 Z" fill="#000000" fill-rule="evenodd" fill-opacity="1" /><path clip-path="url(#clip400)" d="M159.11 843.767 L175.429 843.767 L175.429 847.702 L153.485 847.702 L153.485 843.767 Q156.147 841.013 160.73 836.383 Q165.337 831.73 166.517 830.388 Q168.763 827.865 169.642 826.129 Q170.545 824.369 170.545 822.679 Q170.545 819.925 168.601 818.189 Q166.679 816.453 163.578 816.453 Q161.378 816.453 158.925 817.217 Q156.494 817.98 153.716 819.531 L153.716 814.809 Q156.541 813.675 158.994 813.096 Q161.448 812.517 163.485 812.517 Q168.855 812.517 172.05 815.203 Q175.244 817.888 175.244 822.379 Q175.244 824.508 174.434 826.429 Q173.647 828.328 171.54 830.92 Q170.962 831.591 167.86 834.809 Q164.758 838.003 159.11 843.767 Z" fill="#000000" fill-rule="evenodd" fill-opacity="1" /><path clip-path="url(#clip400)" d="M168.3 565.186 Q171.656 565.904 173.531 568.172 Q175.429 570.441 175.429 573.774 Q175.429 578.89 171.911 581.69 Q168.392 584.491 161.911 584.491 Q159.735 584.491 157.42 584.052 Q155.129 583.635 152.675 582.778 L152.675 578.265 Q154.619 579.399 156.934 579.978 Q159.249 580.556 161.772 580.556 Q166.17 580.556 168.462 578.82 Q170.777 577.084 170.777 573.774 Q170.777 570.718 168.624 569.005 Q166.494 567.269 162.675 567.269 L158.647 567.269 L158.647 563.427 L162.86 563.427 Q166.309 563.427 168.138 562.061 Q169.966 560.672 169.966 558.079 Q169.966 555.417 168.068 554.005 Q166.193 552.57 162.675 552.57 Q160.753 552.57 158.554 552.987 Q156.355 553.404 153.716 554.283 L153.716 550.117 Q156.379 549.376 158.693 549.005 Q161.031 548.635 163.091 548.635 Q168.415 548.635 171.517 551.066 Q174.619 553.473 174.619 557.593 Q174.619 560.464 172.976 562.454 Q171.332 564.422 168.3 565.186 Z" fill="#000000" fill-rule="evenodd" fill-opacity="1" /><path clip-path="url(#clip400)" d="M165.846 289.452 L154.041 307.901 L165.846 307.901 L165.846 289.452 M164.619 285.378 L170.499 285.378 L170.499 307.901 L175.429 307.901 L175.429 311.79 L170.499 311.79 L170.499 319.938 L165.846 319.938 L165.846 311.79 L150.244 311.79 L150.244 307.276 L164.619 285.378 Z" fill="#000000" fill-rule="evenodd" fill-opacity="1" /><path clip-path="url(#clip400)" d="M40.3403 876.171 L40.3403 848.353 L45.6875 848.353 L71.3095 870.378 L71.3095 848.353 L75.9883 848.353 L75.9883 876.967 L70.6411 876.967 L45.0191 854.942 L45.0191 876.171 L40.3403 876.171 Z" fill="#000000" fill-rule="evenodd" fill-opacity="1" /><path clip-path="url(#clip400)" d="M26.5267 804.621 Q33.8473 808.886 41.0087 810.955 Q48.1701 813.023 55.5225 813.023 Q62.8749 813.023 70.1 810.955 Q77.2933 808.854 84.582 804.621 L84.582 809.713 Q77.1023 814.488 69.8772 816.875 Q62.6521 819.23 55.5225 819.23 Q48.4248 819.23 41.2315 816.875 Q34.0383 814.519 26.5267 809.713 L26.5267 804.621 Z" fill="#000000" fill-rule="evenodd" fill-opacity="1" /><path clip-path="url(#clip400)" d="M26.4631 793.481 L26.4631 787.592 L55.7135 787.592 L40.3403 770.119 L40.3403 762.639 L57.0185 781.545 L75.9883 761.843 L75.9883 769.482 L58.5781 787.592 L75.9883 787.592 L75.9883 793.481 L26.4631 793.481 Z" fill="#000000" fill-rule="evenodd" fill-opacity="1" /><path clip-path="url(#clip400)" d="M47.1835 727.755 Q43.2367 725.559 41.3588 722.503 Q39.481 719.448 39.481 715.31 Q39.481 709.74 43.3959 706.716 Q47.2789 703.692 54.4722 703.692 L75.9883 703.692 L75.9883 709.581 L54.6632 709.581 Q49.5388 709.581 47.0561 711.395 Q44.5735 713.209 44.5735 716.933 Q44.5735 721.485 47.5972 724.126 Q50.6209 726.768 55.8408 726.768 L75.9883 726.768 L75.9883 732.656 L54.6632 732.656 Q49.5069 732.656 47.0561 734.471 Q44.5735 736.285 44.5735 740.072 Q44.5735 744.56 47.6291 747.202 Q50.6528 749.844 55.8408 749.844 L75.9883 749.844 L75.9883 755.732 L40.3403 755.732 L40.3403 749.844 L45.8785 749.844 Q42.6002 747.839 41.0406 745.038 Q39.481 742.237 39.481 738.385 Q39.481 734.502 41.4543 731.797 Q43.4277 729.06 47.1835 727.755 Z" fill="#000000" fill-rule="evenodd" fill-opacity="1" /><path clip-path="url(#clip400)" d="M26.5267 692.934 L26.5267 687.842 Q34.0383 683.067 41.2315 680.712 Q48.4248 678.325 55.5225 678.325 Q62.6521 678.325 69.8772 680.712 Q77.1023 683.067 84.582 687.842 L84.582 692.934 Q77.2933 688.701 70.1 686.632 Q62.8749 684.532 55.5225 684.532 Q48.1701 684.532 41.0087 686.632 Q33.8473 688.701 26.5267 692.934 Z" fill="#000000" fill-rule="evenodd" fill-opacity="1" /><path clip-path="url(#clip400)" d="M1045.95 35.3077 Q1048.42 31.1758 1054.54 27.5299 Q1056.93 26.1121 1064.3 26.1121 Q1072.56 26.1121 1077.71 32.6746 Q1082.89 39.2371 1082.89 49.9314 Q1082.89 60.6258 1077.71 67.1883 Q1072.56 73.7508 1064.3 73.7508 Q1059.32 73.7508 1055.71 71.8063 Q1052.15 69.8214 1049.8 65.7705 L1049.8 89.8329 L1042.3 89.8329 L1042.3 50.3365 Q1042.3 40.9789 1045.95 35.3077 M1075.15 49.9314 Q1075.15 41.7081 1071.75 37.0496 Q1068.39 32.3505 1062.48 32.3505 Q1056.56 32.3505 1053.16 37.0496 Q1049.8 41.7081 1049.8 49.9314 Q1049.8 58.1548 1053.16 62.8538 Q1056.56 67.5124 1062.48 67.5124 Q1068.39 67.5124 1071.75 62.8538 Q1075.15 58.1548 1075.15 49.9314 Z" fill="#000000" fill-rule="evenodd" fill-opacity="1" /><polyline clip-path="url(#clip402)" style="stroke:#009af9; stroke-linecap:butt; stroke-linejoin:round; stroke-width:4; stroke-opacity:1; fill:none" points="
  1833.89,1351.59 1815.8,1338.4 1797.77,1325.2 1779.77,1312.01 1761.82,1298.81 1743.92,1285.62 1726.06,1272.43 1708.24,1259.23 1690.47,1246.04 1672.74,1232.84 
  1655.05,1219.65 1637.41,1206.45 1619.81,1193.26 1602.26,1180.07 1584.75,1166.87 1565.05,1153.68 1544.57,1140.48 1524.11,1127.29 1503.77,1114.1 1483.51,1100.9 
  1463.34,1087.71 1443.24,1074.51 1423.24,1061.32 1403.31,1048.13 1383.47,1034.93 1363.71,1021.74 1344.07,1008.54 1324.43,995.349 1304.92,982.155 1285.44,968.961 
  1266.11,955.767 1246.86,942.572 1227.67,929.378 1208.57,916.184 1189.54,902.99 1170.63,889.796 1151.74,876.602 1132.94,863.408 1114.19,850.214 1095.6,837.02 
  1077.05,823.825 1058.58,810.631 1040.18,797.437 1021.87,784.243 1003.63,771.049 985.473,757.855 967.391,744.661 949.386,731.467 931.458,718.272 913.644,705.078 
  895.85,691.884 878.139,678.69 860.51,665.496 842.964,652.302 825.501,639.108 808.12,625.914 790.821,612.719 773.527,599.525 756.356,586.331 739.259,573.137 
  722.236,559.943 705.287,546.749 688.412,533.555 671.611,520.361 654.883,507.167 638.228,493.972 621.646,480.778 605.136,467.584 588.699,454.39 572.335,441.196 
  556.042,428.002 539.821,414.808 523.671,401.614 507.593,388.419 491.586,375.225 475.65,362.031 459.785,348.837 443.991,335.643 428.267,322.449 412.614,309.255 
  397.03,296.061 381.455,282.867 366.004,269.672 350.622,256.478 335.309,243.284 320.064,230.09 304.888,216.896 289.779,203.702 
  "/>
<polyline clip-path="url(#clip402)" style="stroke:#e26f46; stroke-linecap:butt; stroke-linejoin:round; stroke-width:4; stroke-opacity:1; fill:none" points="
  1842.94,1358.19 1824.84,1344.99 1806.78,1331.8 1788.76,1318.6 1770.79,1305.41 1752.87,1292.22 1734.98,1279.02 1717.14,1265.83 1699.35,1252.63 1681.6,1239.44 
  1663.89,1226.25 1646.23,1213.05 1628.61,1199.86 1611.03,1186.66 1593.5,1173.47 1575.38,1160.28 1554.85,1147.08 1534.32,1133.89 1513.93,1120.69 1493.63,1107.5 
  1473.41,1094.3 1453.28,1081.11 1433.23,1067.92 1413.26,1054.72 1393.38,1041.53 1373.58,1028.33 1353.86,1015.14 1334.21,1001.95 1314.67,988.752 1295.19,975.558 
  1275.77,962.364 1256.48,949.17 1237.26,935.975 1218.11,922.781 1199.05,909.587 1180.06,896.393 1161.18,883.199 1142.33,870.005 1123.58,856.811 1104.91,843.617 
  1086.32,830.422 1067.8,817.228 1049.37,804.034 1031.02,790.84 1012.74,777.646 994.543,764.452 976.422,751.258 958.379,738.064 940.412,724.87 922.572,711.675 
  904.737,698.481 886.984,685.287 869.314,672.093 851.727,658.899 834.222,645.705 816.8,632.511 799.46,619.317 782.141,606.122 764.932,592.928 747.798,579.734 
  730.738,566.54 713.752,553.346 696.84,540.152 680.002,526.958 663.237,513.764 646.546,500.569 629.928,487.375 613.382,474.181 596.909,460.987 580.508,447.793 
  564.179,434.599 547.922,421.405 531.737,408.211 515.623,395.017 499.58,381.822 483.609,368.628 467.709,355.434 451.879,342.24 436.12,329.046 420.432,315.852 
  404.813,302.658 389.206,289.464 373.721,276.269 358.305,263.075 342.957,249.881 327.678,236.687 312.467,223.493 297.325,210.299 282.25,197.105 
  "/>
<path clip-path="url(#clip400)" d="
M1478.51 358.817 L1834.62 358.817 L1834.62 203.297 L1478.51 203.297  Z
  " fill="#ffffff" fill-rule="evenodd" fill-opacity="1"/>
<polyline clip-path="url(#clip400)" style="stroke:#000000; stroke-linecap:butt; stroke-linejoin:round; stroke-width:4; stroke-opacity:1; fill:none" points="
  1478.51,358.817 1834.62,358.817 1834.62,203.297 1478.51,203.297 1478.51,358.817 
  "/>
<polyline clip-path="url(#clip400)" style="stroke:#009af9; stroke-linecap:butt; stroke-linejoin:round; stroke-width:4; stroke-opacity:1; fill:none" points="
  1496.9,255.137 1607.18,255.137 
  "/>
<path clip-path="url(#clip400)" d="M1646.07 247.487 L1646.07 251.468 Q1644.27 250.473 1642.44 249.987 Q1640.63 249.477 1638.78 249.477 Q1634.64 249.477 1632.35 252.116 Q1630.06 254.732 1630.06 259.477 Q1630.06 264.223 1632.35 266.862 Q1634.64 269.477 1638.78 269.477 Q1640.63 269.477 1642.44 268.991 Q1644.27 268.482 1646.07 267.487 L1646.07 271.422 Q1644.29 272.255 1642.37 272.672 Q1640.47 273.088 1638.32 273.088 Q1632.46 273.088 1629.01 269.408 Q1625.57 265.727 1625.57 259.477 Q1625.57 253.135 1629.04 249.501 Q1632.53 245.866 1638.6 245.866 Q1640.57 245.866 1642.44 246.283 Q1644.32 246.677 1646.07 247.487 Z" fill="#000000" fill-rule="evenodd" fill-opacity="1" /><path clip-path="url(#clip400)" d="M1675.66 258.389 L1675.66 260.473 L1656.07 260.473 Q1656.35 264.871 1658.71 267.186 Q1661.1 269.477 1665.33 269.477 Q1667.79 269.477 1670.08 268.876 Q1672.39 268.274 1674.66 267.07 L1674.66 271.098 Q1672.37 272.07 1669.96 272.579 Q1667.56 273.088 1665.08 273.088 Q1658.88 273.088 1655.24 269.477 Q1651.63 265.866 1651.63 259.709 Q1651.63 253.343 1655.06 249.616 Q1658.51 245.866 1664.34 245.866 Q1669.57 245.866 1672.6 249.246 Q1675.66 252.602 1675.66 258.389 M1671.4 257.139 Q1671.35 253.644 1669.43 251.561 Q1667.53 249.477 1664.38 249.477 Q1660.82 249.477 1658.67 251.491 Q1656.54 253.505 1656.21 257.163 L1671.4 257.139 Z" fill="#000000" fill-rule="evenodd" fill-opacity="1" /><path clip-path="url(#clip400)" d="M1704.2 256.769 L1704.2 272.417 L1699.94 272.417 L1699.94 256.908 Q1699.94 253.227 1698.5 251.399 Q1697.07 249.57 1694.2 249.57 Q1690.75 249.57 1688.76 251.769 Q1686.77 253.968 1686.77 257.764 L1686.77 272.417 L1682.49 272.417 L1682.49 246.491 L1686.77 246.491 L1686.77 250.519 Q1688.3 248.181 1690.36 247.024 Q1692.44 245.866 1695.15 245.866 Q1699.62 245.866 1701.91 248.644 Q1704.2 251.399 1704.2 256.769 Z" fill="#000000" fill-rule="evenodd" fill-opacity="1" /><path clip-path="url(#clip400)" d="M1716.91 239.13 L1716.91 246.491 L1725.68 246.491 L1725.68 249.802 L1716.91 249.802 L1716.91 263.876 Q1716.91 267.047 1717.76 267.95 Q1718.64 268.852 1721.31 268.852 L1725.68 268.852 L1725.68 272.417 L1721.31 272.417 Q1716.38 272.417 1714.5 270.588 Q1712.63 268.737 1712.63 263.876 L1712.63 249.802 L1709.5 249.802 L1709.5 246.491 L1712.63 246.491 L1712.63 239.13 L1716.91 239.13 Z" fill="#000000" fill-rule="evenodd" fill-opacity="1" /><path clip-path="url(#clip400)" d="M1753.46 258.389 L1753.46 260.473 L1733.88 260.473 Q1734.15 264.871 1736.51 267.186 Q1738.9 269.477 1743.13 269.477 Q1745.59 269.477 1747.88 268.876 Q1750.19 268.274 1752.46 267.07 L1752.46 271.098 Q1750.17 272.07 1747.76 272.579 Q1745.36 273.088 1742.88 273.088 Q1736.68 273.088 1733.04 269.477 Q1729.43 265.866 1729.43 259.709 Q1729.43 253.343 1732.86 249.616 Q1736.31 245.866 1742.14 245.866 Q1747.37 245.866 1750.4 249.246 Q1753.46 252.602 1753.46 258.389 M1749.2 257.139 Q1749.15 253.644 1747.23 251.561 Q1745.33 249.477 1742.19 249.477 Q1738.62 249.477 1736.47 251.491 Q1734.34 253.505 1734.01 257.163 L1749.2 257.139 Z" fill="#000000" fill-rule="evenodd" fill-opacity="1" /><path clip-path="url(#clip400)" d="M1775.47 250.473 Q1774.75 250.056 1773.9 249.871 Q1773.06 249.663 1772.05 249.663 Q1768.44 249.663 1766.49 252.024 Q1764.57 254.362 1764.57 258.76 L1764.57 272.417 L1760.29 272.417 L1760.29 246.491 L1764.57 246.491 L1764.57 250.519 Q1765.91 248.158 1768.06 247.024 Q1770.22 245.866 1773.3 245.866 Q1773.74 245.866 1774.27 245.936 Q1774.8 245.982 1775.45 246.098 L1775.47 250.473 Z" fill="#000000" fill-rule="evenodd" fill-opacity="1" /><path clip-path="url(#clip400)" d="M1796.47 247.255 L1796.47 251.283 Q1794.66 250.357 1792.72 249.894 Q1790.77 249.431 1788.69 249.431 Q1785.52 249.431 1783.92 250.403 Q1782.35 251.376 1782.35 253.32 Q1782.35 254.802 1783.48 255.658 Q1784.62 256.491 1788.04 257.255 L1789.5 257.579 Q1794.04 258.552 1795.94 260.334 Q1797.86 262.093 1797.86 265.264 Q1797.86 268.876 1794.99 270.982 Q1792.14 273.088 1787.14 273.088 Q1785.06 273.088 1782.79 272.672 Q1780.54 272.278 1778.04 271.468 L1778.04 267.07 Q1780.4 268.297 1782.69 268.922 Q1784.99 269.524 1787.23 269.524 Q1790.24 269.524 1791.86 268.505 Q1793.48 267.463 1793.48 265.589 Q1793.48 263.852 1792.3 262.926 Q1791.14 262.001 1787.19 261.144 L1785.7 260.797 Q1781.75 259.964 1779.99 258.251 Q1778.23 256.514 1778.23 253.505 Q1778.23 249.848 1780.82 247.857 Q1783.41 245.866 1788.18 245.866 Q1790.54 245.866 1792.62 246.214 Q1794.71 246.561 1796.47 247.255 Z" fill="#000000" fill-rule="evenodd" fill-opacity="1" /><polyline clip-path="url(#clip400)" style="stroke:#e26f46; stroke-linecap:butt; stroke-linejoin:round; stroke-width:4; stroke-opacity:1; fill:none" points="
  1496.9,306.977 1607.18,306.977 
  "/>
<path clip-path="url(#clip400)" d="M1642.07 288.239 L1642.07 291.78 L1638 291.78 Q1635.7 291.78 1634.8 292.706 Q1633.92 293.632 1633.92 296.04 L1633.92 298.331 L1640.94 298.331 L1640.94 301.642 L1633.92 301.642 L1633.92 324.257 L1629.64 324.257 L1629.64 301.642 L1625.57 301.642 L1625.57 298.331 L1629.64 298.331 L1629.64 296.526 Q1629.64 292.197 1631.65 290.23 Q1633.67 288.239 1638.04 288.239 L1642.07 288.239 Z" fill="#000000" fill-rule="evenodd" fill-opacity="1" /><path clip-path="url(#clip400)" d="M1657.42 311.225 Q1652.26 311.225 1650.26 312.405 Q1648.27 313.586 1648.27 316.433 Q1648.27 318.702 1649.76 320.044 Q1651.26 321.364 1653.83 321.364 Q1657.37 321.364 1659.5 318.864 Q1661.65 316.341 1661.65 312.174 L1661.65 311.225 L1657.42 311.225 M1665.91 309.466 L1665.91 324.257 L1661.65 324.257 L1661.65 320.322 Q1660.2 322.683 1658.02 323.817 Q1655.84 324.928 1652.7 324.928 Q1648.71 324.928 1646.35 322.706 Q1644.01 320.461 1644.01 316.711 Q1644.01 312.336 1646.93 310.114 Q1649.87 307.892 1655.68 307.892 L1661.65 307.892 L1661.65 307.475 Q1661.65 304.535 1659.71 302.938 Q1657.79 301.317 1654.29 301.317 Q1652.07 301.317 1649.96 301.85 Q1647.86 302.382 1645.91 303.447 L1645.91 299.512 Q1648.25 298.609 1650.45 298.169 Q1652.65 297.706 1654.73 297.706 Q1660.36 297.706 1663.13 300.623 Q1665.91 303.54 1665.91 309.466 Z" fill="#000000" fill-rule="evenodd" fill-opacity="1" /><path clip-path="url(#clip400)" d="M1693.34 299.327 L1693.34 303.308 Q1691.54 302.313 1689.71 301.827 Q1687.9 301.317 1686.05 301.317 Q1681.91 301.317 1679.62 303.956 Q1677.32 306.572 1677.32 311.317 Q1677.32 316.063 1679.62 318.702 Q1681.91 321.317 1686.05 321.317 Q1687.9 321.317 1689.71 320.831 Q1691.54 320.322 1693.34 319.327 L1693.34 323.262 Q1691.56 324.095 1689.64 324.512 Q1687.74 324.928 1685.59 324.928 Q1679.73 324.928 1676.28 321.248 Q1672.83 317.567 1672.83 311.317 Q1672.83 304.975 1676.31 301.341 Q1679.8 297.706 1685.87 297.706 Q1687.83 297.706 1689.71 298.123 Q1691.58 298.517 1693.34 299.327 Z" fill="#000000" fill-rule="evenodd" fill-opacity="1" /><path clip-path="url(#clip400)" d="M1722.93 310.229 L1722.93 312.313 L1703.34 312.313 Q1703.62 316.711 1705.98 319.026 Q1708.37 321.317 1712.6 321.317 Q1715.06 321.317 1717.35 320.716 Q1719.66 320.114 1721.93 318.91 L1721.93 322.938 Q1719.64 323.91 1717.23 324.419 Q1714.82 324.928 1712.35 324.928 Q1706.14 324.928 1702.51 321.317 Q1698.9 317.706 1698.9 311.549 Q1698.9 305.183 1702.32 301.456 Q1705.77 297.706 1711.61 297.706 Q1716.84 297.706 1719.87 301.086 Q1722.93 304.442 1722.93 310.229 M1718.67 308.979 Q1718.62 305.484 1716.7 303.401 Q1714.8 301.317 1711.65 301.317 Q1708.09 301.317 1705.94 303.331 Q1703.81 305.345 1703.48 309.003 L1718.67 308.979 Z" fill="#000000" fill-rule="evenodd" fill-opacity="1" /><path clip-path="url(#clip400)" d="M1746.44 299.095 L1746.44 303.123 Q1744.64 302.197 1742.69 301.734 Q1740.75 301.271 1738.67 301.271 Q1735.5 301.271 1733.9 302.243 Q1732.32 303.216 1732.32 305.16 Q1732.32 306.642 1733.46 307.498 Q1734.59 308.331 1738.02 309.095 L1739.48 309.419 Q1744.01 310.392 1745.91 312.174 Q1747.83 313.933 1747.83 317.104 Q1747.83 320.716 1744.96 322.822 Q1742.12 324.928 1737.12 324.928 Q1735.03 324.928 1732.76 324.512 Q1730.52 324.118 1728.02 323.308 L1728.02 318.91 Q1730.38 320.137 1732.67 320.762 Q1734.96 321.364 1737.21 321.364 Q1740.22 321.364 1741.84 320.345 Q1743.46 319.303 1743.46 317.429 Q1743.46 315.692 1742.28 314.766 Q1741.12 313.841 1737.16 312.984 L1735.68 312.637 Q1731.72 311.804 1729.96 310.091 Q1728.2 308.354 1728.2 305.345 Q1728.2 301.688 1730.8 299.697 Q1733.39 297.706 1738.16 297.706 Q1740.52 297.706 1742.6 298.054 Q1744.69 298.401 1746.44 299.095 Z" fill="#000000" fill-rule="evenodd" fill-opacity="1" /><path clip-path="url(#clip400)" d="
M2235.43 1393.02 L3889.76 1393.02 L3889.76 162.272 L2235.43 162.272  Z
  " fill="#ffffff" fill-rule="evenodd" fill-opacity="1"/>
<defs>
  <clipPath id="clip403">
    <rect x="2235" y="162" width="1655" height="1232"/>
  </clipPath>
</defs>
<polyline clip-path="url(#clip403)" style="stroke:#000000; stroke-linecap:butt; stroke-linejoin:round; stroke-width:2; stroke-opacity:0.1; fill:none" points="
  2384.72,1393.02 2384.72,162.272 
  "/>
<polyline clip-path="url(#clip403)" style="stroke:#000000; stroke-linecap:butt; stroke-linejoin:round; stroke-width:2; stroke-opacity:0.1; fill:none" points="
  2778.83,1393.02 2778.83,162.272 
  "/>
<polyline clip-path="url(#clip403)" style="stroke:#000000; stroke-linecap:butt; stroke-linejoin:round; stroke-width:2; stroke-opacity:0.1; fill:none" points="
  3172.95,1393.02 3172.95,162.272 
  "/>
<polyline clip-path="url(#clip403)" style="stroke:#000000; stroke-linecap:butt; stroke-linejoin:round; stroke-width:2; stroke-opacity:0.1; fill:none" points="
  3567.06,1393.02 3567.06,162.272 
  "/>
<polyline clip-path="url(#clip400)" style="stroke:#000000; stroke-linecap:butt; stroke-linejoin:round; stroke-width:4; stroke-opacity:1; fill:none" points="
  2235.43,1393.02 3889.76,1393.02 
  "/>
<polyline clip-path="url(#clip400)" style="stroke:#000000; stroke-linecap:butt; stroke-linejoin:round; stroke-width:4; stroke-opacity:1; fill:none" points="
  2384.72,1393.02 2384.72,1374.12 
  "/>
<polyline clip-path="url(#clip400)" style="stroke:#000000; stroke-linecap:butt; stroke-linejoin:round; stroke-width:4; stroke-opacity:1; fill:none" points="
  2778.83,1393.02 2778.83,1374.12 
  "/>
<polyline clip-path="url(#clip400)" style="stroke:#000000; stroke-linecap:butt; stroke-linejoin:round; stroke-width:4; stroke-opacity:1; fill:none" points="
  3172.95,1393.02 3172.95,1374.12 
  "/>
<polyline clip-path="url(#clip400)" style="stroke:#000000; stroke-linecap:butt; stroke-linejoin:round; stroke-width:4; stroke-opacity:1; fill:none" points="
  3567.06,1393.02 3567.06,1374.12 
  "/>
<path clip-path="url(#clip400)" d="M2370.12 1449.08 Q2366.97 1449.08 2365.12 1451.23 Q2363.29 1453.38 2363.29 1457.13 Q2363.29 1460.86 2365.12 1463.03 Q2366.97 1465.19 2370.12 1465.19 Q2373.27 1465.19 2375.1 1463.03 Q2376.95 1460.86 2376.95 1457.13 Q2376.95 1453.38 2375.1 1451.23 Q2373.27 1449.08 2370.12 1449.08 M2379.4 1434.42 L2379.4 1438.68 Q2377.64 1437.85 2375.84 1437.41 Q2374.06 1436.97 2372.3 1436.97 Q2367.67 1436.97 2365.21 1440.09 Q2362.78 1443.22 2362.44 1449.54 Q2363.8 1447.53 2365.86 1446.46 Q2367.92 1445.37 2370.4 1445.37 Q2375.61 1445.37 2378.62 1448.54 Q2381.65 1451.69 2381.65 1457.13 Q2381.65 1462.46 2378.5 1465.67 Q2375.35 1468.89 2370.12 1468.89 Q2364.13 1468.89 2360.95 1464.31 Q2357.78 1459.7 2357.78 1450.97 Q2357.78 1442.78 2361.67 1437.92 Q2365.56 1433.03 2372.11 1433.03 Q2373.87 1433.03 2375.65 1433.38 Q2377.46 1433.73 2379.4 1434.42 Z" fill="#000000" fill-rule="evenodd" fill-opacity="1" /><path clip-path="url(#clip400)" d="M2399.7 1436.74 Q2396.09 1436.74 2394.26 1440.3 Q2392.46 1443.84 2392.46 1450.97 Q2392.46 1458.08 2394.26 1461.65 Q2396.09 1465.19 2399.7 1465.19 Q2403.34 1465.19 2405.14 1461.65 Q2406.97 1458.08 2406.97 1450.97 Q2406.97 1443.84 2405.14 1440.3 Q2403.34 1436.74 2399.7 1436.74 M2399.7 1433.03 Q2405.51 1433.03 2408.57 1437.64 Q2411.65 1442.22 2411.65 1450.97 Q2411.65 1459.7 2408.57 1464.31 Q2405.51 1468.89 2399.7 1468.89 Q2393.89 1468.89 2390.82 1464.31 Q2387.76 1459.7 2387.76 1450.97 Q2387.76 1442.22 2390.82 1437.64 Q2393.89 1433.03 2399.7 1433.03 Z" fill="#000000" fill-rule="evenodd" fill-opacity="1" /><path clip-path="url(#clip400)" d="M2752.19 1433.66 L2774.41 1433.66 L2774.41 1435.65 L2761.86 1468.22 L2756.98 1468.22 L2768.78 1437.59 L2752.19 1437.59 L2752.19 1433.66 Z" fill="#000000" fill-rule="evenodd" fill-opacity="1" /><path clip-path="url(#clip400)" d="M2793.53 1436.74 Q2789.92 1436.74 2788.09 1440.3 Q2786.28 1443.84 2786.28 1450.97 Q2786.28 1458.08 2788.09 1461.65 Q2789.92 1465.19 2793.53 1465.19 Q2797.16 1465.19 2798.97 1461.65 Q2800.8 1458.08 2800.8 1450.97 Q2800.8 1443.84 2798.97 1440.3 Q2797.16 1436.74 2793.53 1436.74 M2793.53 1433.03 Q2799.34 1433.03 2802.4 1437.64 Q2805.47 1442.22 2805.47 1450.97 Q2805.47 1459.7 2802.4 1464.31 Q2799.34 1468.89 2793.53 1468.89 Q2787.72 1468.89 2784.64 1464.31 Q2781.59 1459.7 2781.59 1450.97 Q2781.59 1442.22 2784.64 1437.64 Q2787.72 1433.03 2793.53 1433.03 Z" fill="#000000" fill-rule="evenodd" fill-opacity="1" /><path clip-path="url(#clip400)" d="M3157.82 1451.81 Q3154.49 1451.81 3152.56 1453.59 Q3150.67 1455.37 3150.67 1458.5 Q3150.67 1461.62 3152.56 1463.4 Q3154.49 1465.19 3157.82 1465.19 Q3161.15 1465.19 3163.07 1463.4 Q3165 1461.6 3165 1458.5 Q3165 1455.37 3163.07 1453.59 Q3161.18 1451.81 3157.82 1451.81 M3153.14 1449.82 Q3150.13 1449.08 3148.44 1447.02 Q3146.78 1444.96 3146.78 1441.99 Q3146.78 1437.85 3149.72 1435.44 Q3152.68 1433.03 3157.82 1433.03 Q3162.98 1433.03 3165.92 1435.44 Q3168.86 1437.85 3168.86 1441.99 Q3168.86 1444.96 3167.17 1447.02 Q3165.5 1449.08 3162.52 1449.82 Q3165.9 1450.6 3167.77 1452.9 Q3169.67 1455.19 3169.67 1458.5 Q3169.67 1463.52 3166.59 1466.21 Q3163.54 1468.89 3157.82 1468.89 Q3152.1 1468.89 3149.02 1466.21 Q3145.97 1463.52 3145.97 1458.5 Q3145.97 1455.19 3147.87 1452.9 Q3149.76 1450.6 3153.14 1449.82 M3151.43 1442.43 Q3151.43 1445.12 3153.1 1446.62 Q3154.79 1448.13 3157.82 1448.13 Q3160.83 1448.13 3162.52 1446.62 Q3164.23 1445.12 3164.23 1442.43 Q3164.23 1439.75 3162.52 1438.24 Q3160.83 1436.74 3157.82 1436.74 Q3154.79 1436.74 3153.1 1438.24 Q3151.43 1439.75 3151.43 1442.43 Z" fill="#000000" fill-rule="evenodd" fill-opacity="1" /><path clip-path="url(#clip400)" d="M3187.98 1436.74 Q3184.37 1436.74 3182.54 1440.3 Q3180.74 1443.84 3180.74 1450.97 Q3180.74 1458.08 3182.54 1461.65 Q3184.37 1465.19 3187.98 1465.19 Q3191.62 1465.19 3193.42 1461.65 Q3195.25 1458.08 3195.25 1450.97 Q3195.25 1443.84 3193.42 1440.3 Q3191.62 1436.74 3187.98 1436.74 M3187.98 1433.03 Q3193.79 1433.03 3196.85 1437.64 Q3199.93 1442.22 3199.93 1450.97 Q3199.93 1459.7 3196.85 1464.31 Q3193.79 1468.89 3187.98 1468.89 Q3182.17 1468.89 3179.09 1464.31 Q3176.04 1459.7 3176.04 1450.97 Q3176.04 1442.22 3179.09 1437.64 Q3182.17 1433.03 3187.98 1433.03 Z" fill="#000000" fill-rule="evenodd" fill-opacity="1" /><path clip-path="url(#clip400)" d="M3542.19 1467.5 L3542.19 1463.24 Q3543.95 1464.08 3545.75 1464.52 Q3547.56 1464.96 3549.3 1464.96 Q3553.93 1464.96 3556.36 1461.85 Q3558.81 1458.73 3559.16 1452.39 Q3557.81 1454.38 3555.75 1455.44 Q3553.69 1456.51 3551.19 1456.51 Q3546.01 1456.51 3542.98 1453.38 Q3539.97 1450.23 3539.97 1444.79 Q3539.97 1439.47 3543.12 1436.25 Q3546.26 1433.03 3551.5 1433.03 Q3557.49 1433.03 3560.64 1437.64 Q3563.81 1442.22 3563.81 1450.97 Q3563.81 1459.15 3559.92 1464.03 Q3556.06 1468.89 3549.5 1468.89 Q3547.75 1468.89 3545.94 1468.54 Q3544.13 1468.2 3542.19 1467.5 M3551.5 1452.85 Q3554.64 1452.85 3556.47 1450.7 Q3558.32 1448.54 3558.32 1444.79 Q3558.32 1441.07 3556.47 1438.91 Q3554.64 1436.74 3551.5 1436.74 Q3548.35 1436.74 3546.5 1438.91 Q3544.67 1441.07 3544.67 1444.79 Q3544.67 1448.54 3546.5 1450.7 Q3548.35 1452.85 3551.5 1452.85 Z" fill="#000000" fill-rule="evenodd" fill-opacity="1" /><path clip-path="url(#clip400)" d="M3582.21 1436.74 Q3578.6 1436.74 3576.77 1440.3 Q3574.97 1443.84 3574.97 1450.97 Q3574.97 1458.08 3576.77 1461.65 Q3578.6 1465.19 3582.21 1465.19 Q3585.85 1465.19 3587.65 1461.65 Q3589.48 1458.08 3589.48 1450.97 Q3589.48 1443.84 3587.65 1440.3 Q3585.85 1436.74 3582.21 1436.74 M3582.21 1433.03 Q3588.02 1433.03 3591.08 1437.64 Q3594.16 1442.22 3594.16 1450.97 Q3594.16 1459.7 3591.08 1464.31 Q3588.02 1468.89 3582.21 1468.89 Q3576.4 1468.89 3573.32 1464.31 Q3570.27 1459.7 3570.27 1450.97 Q3570.27 1442.22 3573.32 1437.64 Q3576.4 1433.03 3582.21 1433.03 Z" fill="#000000" fill-rule="evenodd" fill-opacity="1" /><path clip-path="url(#clip400)" d="M2960.73 1556.54 L2960.73 1575.44 L2954.84 1575.44 L2954.84 1526.24 L2960.73 1526.24 L2960.73 1531.65 Q2962.58 1528.46 2965.38 1526.94 Q2968.21 1525.38 2972.12 1525.38 Q2978.62 1525.38 2982.66 1530.53 Q2986.73 1535.69 2986.73 1544.09 Q2986.73 1552.49 2982.66 1557.65 Q2978.62 1562.81 2972.12 1562.81 Q2968.21 1562.81 2965.38 1561.28 Q2962.58 1559.72 2960.73 1556.54 M2980.65 1544.09 Q2980.65 1537.63 2977.98 1533.97 Q2975.34 1530.28 2970.69 1530.28 Q2966.04 1530.28 2963.37 1533.97 Q2960.73 1537.63 2960.73 1544.09 Q2960.73 1550.55 2963.37 1554.24 Q2966.04 1557.91 2970.69 1557.91 Q2975.34 1557.91 2977.98 1554.24 Q2980.65 1550.55 2980.65 1544.09 Z" fill="#000000" fill-rule="evenodd" fill-opacity="1" /><path clip-path="url(#clip400)" d="M3031.23 1512.42 Q3026.96 1519.74 3024.9 1526.9 Q3022.83 1534.07 3022.83 1541.42 Q3022.83 1548.77 3024.9 1556 Q3027 1563.19 3031.23 1570.48 L3026.14 1570.48 Q3021.36 1563 3018.98 1555.77 Q3016.62 1548.55 3016.62 1541.42 Q3016.62 1534.32 3018.98 1527.13 Q3021.33 1519.93 3026.14 1512.42 L3031.23 1512.42 Z" fill="#000000" fill-rule="evenodd" fill-opacity="1" /><path clip-path="url(#clip400)" d="M3042.37 1512.36 L3048.26 1512.36 L3048.26 1541.61 L3065.73 1526.24 L3073.21 1526.24 L3054.31 1542.91 L3074.01 1561.88 L3066.37 1561.88 L3048.26 1544.47 L3048.26 1561.88 L3042.37 1561.88 L3042.37 1512.36 Z" fill="#000000" fill-rule="evenodd" fill-opacity="1" /><path clip-path="url(#clip400)" d="M3087.02 1519.65 L3087.02 1537.5 L3095.11 1537.5 Q3099.6 1537.5 3102.05 1535.18 Q3104.5 1532.86 3104.5 1528.56 Q3104.5 1524.29 3102.05 1521.97 Q3099.6 1519.65 3095.11 1519.65 L3087.02 1519.65 M3080.6 1514.36 L3095.11 1514.36 Q3103.1 1514.36 3107.17 1517.99 Q3111.28 1521.59 3111.28 1528.56 Q3111.28 1535.59 3107.17 1539.19 Q3103.1 1542.79 3095.11 1542.79 L3087.02 1542.79 L3087.02 1561.88 L3080.6 1561.88 L3080.6 1514.36 Z" fill="#000000" fill-rule="evenodd" fill-opacity="1" /><path clip-path="url(#clip400)" d="M3132.92 1543.96 Q3125.82 1543.96 3123.09 1545.59 Q3120.35 1547.21 3120.35 1551.13 Q3120.35 1554.24 3122.39 1556.09 Q3124.46 1557.91 3127.99 1557.91 Q3132.86 1557.91 3135.79 1554.47 Q3138.75 1551 3138.75 1545.27 L3138.75 1543.96 L3132.92 1543.96 M3144.6 1541.55 L3144.6 1561.88 L3138.75 1561.88 L3138.75 1556.47 Q3136.74 1559.72 3133.75 1561.28 Q3130.76 1562.81 3126.43 1562.81 Q3120.95 1562.81 3117.71 1559.75 Q3114.49 1556.66 3114.49 1551.51 Q3114.49 1545.49 3118.5 1542.44 Q3122.55 1539.38 3130.53 1539.38 L3138.75 1539.38 L3138.75 1538.81 Q3138.75 1534.77 3136.07 1532.57 Q3133.43 1530.34 3128.62 1530.34 Q3125.57 1530.34 3122.67 1531.07 Q3119.78 1531.81 3117.1 1533.27 L3117.1 1527.86 Q3120.32 1526.62 3123.34 1526.01 Q3126.37 1525.38 3129.23 1525.38 Q3136.96 1525.38 3140.78 1529.39 Q3144.6 1533.4 3144.6 1541.55 Z" fill="#000000" fill-rule="evenodd" fill-opacity="1" /><path clip-path="url(#clip400)" d="M3155.74 1512.42 L3160.84 1512.42 Q3165.61 1519.93 3167.96 1527.13 Q3170.35 1534.32 3170.35 1541.42 Q3170.35 1548.55 3167.96 1555.77 Q3165.61 1563 3160.84 1570.48 L3155.74 1570.48 Q3159.98 1563.19 3162.04 1556 Q3164.15 1548.77 3164.15 1541.42 Q3164.15 1534.07 3162.04 1526.9 Q3159.98 1519.74 3155.74 1512.42 Z" fill="#000000" fill-rule="evenodd" fill-opacity="1" /><polyline clip-path="url(#clip403)" style="stroke:#000000; stroke-linecap:butt; stroke-linejoin:round; stroke-width:2; stroke-opacity:0.1; fill:none" points="
  2235.43,1358.19 3889.76,1358.19 
  "/>
<polyline clip-path="url(#clip403)" style="stroke:#000000; stroke-linecap:butt; stroke-linejoin:round; stroke-width:2; stroke-opacity:0.1; fill:none" points="
  2235.43,1094.3 3889.76,1094.3 
  "/>
<polyline clip-path="url(#clip403)" style="stroke:#000000; stroke-linecap:butt; stroke-linejoin:round; stroke-width:2; stroke-opacity:0.1; fill:none" points="
  2235.43,830.422 3889.76,830.422 
  "/>
<polyline clip-path="url(#clip403)" style="stroke:#000000; stroke-linecap:butt; stroke-linejoin:round; stroke-width:2; stroke-opacity:0.1; fill:none" points="
  2235.43,566.54 3889.76,566.54 
  "/>
<polyline clip-path="url(#clip403)" style="stroke:#000000; stroke-linecap:butt; stroke-linejoin:round; stroke-width:2; stroke-opacity:0.1; fill:none" points="
  2235.43,302.658 3889.76,302.658 
  "/>
<polyline clip-path="url(#clip400)" style="stroke:#000000; stroke-linecap:butt; stroke-linejoin:round; stroke-width:4; stroke-opacity:1; fill:none" points="
  2235.43,1393.02 2235.43,162.272 
  "/>
<polyline clip-path="url(#clip400)" style="stroke:#000000; stroke-linecap:butt; stroke-linejoin:round; stroke-width:4; stroke-opacity:1; fill:none" points="
  2235.43,1358.19 2254.33,1358.19 
  "/>
<polyline clip-path="url(#clip400)" style="stroke:#000000; stroke-linecap:butt; stroke-linejoin:round; stroke-width:4; stroke-opacity:1; fill:none" points="
  2235.43,1094.3 2254.33,1094.3 
  "/>
<polyline clip-path="url(#clip400)" style="stroke:#000000; stroke-linecap:butt; stroke-linejoin:round; stroke-width:4; stroke-opacity:1; fill:none" points="
  2235.43,830.422 2254.33,830.422 
  "/>
<polyline clip-path="url(#clip400)" style="stroke:#000000; stroke-linecap:butt; stroke-linejoin:round; stroke-width:4; stroke-opacity:1; fill:none" points="
  2235.43,566.54 2254.33,566.54 
  "/>
<polyline clip-path="url(#clip400)" style="stroke:#000000; stroke-linecap:butt; stroke-linejoin:round; stroke-width:4; stroke-opacity:1; fill:none" points="
  2235.43,302.658 2254.33,302.658 
  "/>
<path clip-path="url(#clip400)" d="M2163.48 1343.99 Q2159.87 1343.99 2158.05 1347.55 Q2156.24 1351.09 2156.24 1358.22 Q2156.24 1365.33 2158.05 1368.89 Q2159.87 1372.43 2163.48 1372.43 Q2167.12 1372.43 2168.92 1368.89 Q2170.75 1365.33 2170.75 1358.22 Q2170.75 1351.09 2168.92 1347.55 Q2167.12 1343.99 2163.48 1343.99 M2163.48 1340.28 Q2169.3 1340.28 2172.35 1344.89 Q2175.43 1349.47 2175.43 1358.22 Q2175.43 1366.95 2172.35 1371.56 Q2169.3 1376.14 2163.48 1376.14 Q2157.67 1376.14 2154.6 1371.56 Q2151.54 1366.95 2151.54 1358.22 Q2151.54 1349.47 2154.6 1344.89 Q2157.67 1340.28 2163.48 1340.28 Z" fill="#000000" fill-rule="evenodd" fill-opacity="1" /><path clip-path="url(#clip400)" d="M2155.52 1107.65 L2163.16 1107.65 L2163.16 1081.28 L2154.85 1082.95 L2154.85 1078.69 L2163.11 1077.02 L2167.79 1077.02 L2167.79 1107.65 L2175.43 1107.65 L2175.43 1111.58 L2155.52 1111.58 L2155.52 1107.65 Z" fill="#000000" fill-rule="evenodd" fill-opacity="1" /><path clip-path="url(#clip400)" d="M2159.11 843.767 L2175.43 843.767 L2175.43 847.702 L2153.49 847.702 L2153.49 843.767 Q2156.15 841.013 2160.73 836.383 Q2165.34 831.73 2166.52 830.388 Q2168.76 827.865 2169.64 826.129 Q2170.55 824.369 2170.55 822.679 Q2170.55 819.925 2168.6 818.189 Q2166.68 816.453 2163.58 816.453 Q2161.38 816.453 2158.92 817.217 Q2156.49 817.98 2153.72 819.531 L2153.72 814.809 Q2156.54 813.675 2158.99 813.096 Q2161.45 812.517 2163.48 812.517 Q2168.86 812.517 2172.05 815.203 Q2175.24 817.888 2175.24 822.379 Q2175.24 824.508 2174.43 826.429 Q2173.65 828.328 2171.54 830.92 Q2170.96 831.591 2167.86 834.809 Q2164.76 838.003 2159.11 843.767 Z" fill="#000000" fill-rule="evenodd" fill-opacity="1" /><path clip-path="url(#clip400)" d="M2168.3 565.186 Q2171.66 565.904 2173.53 568.172 Q2175.43 570.441 2175.43 573.774 Q2175.43 578.89 2171.91 581.69 Q2168.39 584.491 2161.91 584.491 Q2159.73 584.491 2157.42 584.052 Q2155.13 583.635 2152.67 582.778 L2152.67 578.265 Q2154.62 579.399 2156.93 579.978 Q2159.25 580.556 2161.77 580.556 Q2166.17 580.556 2168.46 578.82 Q2170.78 577.084 2170.78 573.774 Q2170.78 570.718 2168.62 569.005 Q2166.49 567.269 2162.67 567.269 L2158.65 567.269 L2158.65 563.427 L2162.86 563.427 Q2166.31 563.427 2168.14 562.061 Q2169.97 560.672 2169.97 558.079 Q2169.97 555.417 2168.07 554.005 Q2166.19 552.57 2162.67 552.57 Q2160.75 552.57 2158.55 552.987 Q2156.36 553.404 2153.72 554.283 L2153.72 550.117 Q2156.38 549.376 2158.69 549.005 Q2161.03 548.635 2163.09 548.635 Q2168.42 548.635 2171.52 551.066 Q2174.62 553.473 2174.62 557.593 Q2174.62 560.464 2172.98 562.454 Q2171.33 564.422 2168.3 565.186 Z" fill="#000000" fill-rule="evenodd" fill-opacity="1" /><path clip-path="url(#clip400)" d="M2165.85 289.452 L2154.04 307.901 L2165.85 307.901 L2165.85 289.452 M2164.62 285.378 L2170.5 285.378 L2170.5 307.901 L2175.43 307.901 L2175.43 311.79 L2170.5 311.79 L2170.5 319.938 L2165.85 319.938 L2165.85 311.79 L2150.24 311.79 L2150.24 307.276 L2164.62 285.378 Z" fill="#000000" fill-rule="evenodd" fill-opacity="1" /><path clip-path="url(#clip400)" d="M2040.34 876.171 L2040.34 848.353 L2045.69 848.353 L2071.31 870.378 L2071.31 848.353 L2075.99 848.353 L2075.99 876.967 L2070.64 876.967 L2045.02 854.942 L2045.02 876.171 L2040.34 876.171 Z" fill="#000000" fill-rule="evenodd" fill-opacity="1" /><path clip-path="url(#clip400)" d="M2026.53 804.621 Q2033.85 808.886 2041.01 810.955 Q2048.17 813.023 2055.52 813.023 Q2062.87 813.023 2070.1 810.955 Q2077.29 808.854 2084.58 804.621 L2084.58 809.713 Q2077.1 814.488 2069.88 816.875 Q2062.65 819.23 2055.52 819.23 Q2048.42 819.23 2041.23 816.875 Q2034.04 814.519 2026.53 809.713 L2026.53 804.621 Z" fill="#000000" fill-rule="evenodd" fill-opacity="1" /><path clip-path="url(#clip400)" d="M2026.46 793.481 L2026.46 787.592 L2055.71 787.592 L2040.34 770.119 L2040.34 762.639 L2057.02 781.545 L2075.99 761.843 L2075.99 769.482 L2058.58 787.592 L2075.99 787.592 L2075.99 793.481 L2026.46 793.481 Z" fill="#000000" fill-rule="evenodd" fill-opacity="1" /><path clip-path="url(#clip400)" d="M2047.18 727.755 Q2043.24 725.559 2041.36 722.503 Q2039.48 719.448 2039.48 715.31 Q2039.48 709.74 2043.4 706.716 Q2047.28 703.692 2054.47 703.692 L2075.99 703.692 L2075.99 709.581 L2054.66 709.581 Q2049.54 709.581 2047.06 711.395 Q2044.57 713.209 2044.57 716.933 Q2044.57 721.485 2047.6 724.126 Q2050.62 726.768 2055.84 726.768 L2075.99 726.768 L2075.99 732.656 L2054.66 732.656 Q2049.51 732.656 2047.06 734.471 Q2044.57 736.285 2044.57 740.072 Q2044.57 744.56 2047.63 747.202 Q2050.65 749.844 2055.84 749.844 L2075.99 749.844 L2075.99 755.732 L2040.34 755.732 L2040.34 749.844 L2045.88 749.844 Q2042.6 747.839 2041.04 745.038 Q2039.48 742.237 2039.48 738.385 Q2039.48 734.502 2041.45 731.797 Q2043.43 729.06 2047.18 727.755 Z" fill="#000000" fill-rule="evenodd" fill-opacity="1" /><path clip-path="url(#clip400)" d="M2026.53 692.934 L2026.53 687.842 Q2034.04 683.067 2041.23 680.712 Q2048.42 678.325 2055.52 678.325 Q2062.65 678.325 2069.88 680.712 Q2077.1 683.067 2084.58 687.842 L2084.58 692.934 Q2077.29 688.701 2070.1 686.632 Q2062.87 684.532 2055.52 684.532 Q2048.17 684.532 2041.01 686.632 Q2033.85 688.701 2026.53 692.934 Z" fill="#000000" fill-rule="evenodd" fill-opacity="1" /><path clip-path="url(#clip400)" d="M2932.95 65.7705 L2932.95 89.8329 L2925.45 89.8329 L2925.45 27.2059 L2932.95 27.2059 L2932.95 34.0924 Q2935.3 30.0415 2938.86 28.0971 Q2942.47 26.1121 2947.45 26.1121 Q2955.71 26.1121 2960.86 32.6746 Q2966.04 39.2371 2966.04 49.9314 Q2966.04 60.6258 2960.86 67.1883 Q2955.71 73.7508 2947.45 73.7508 Q2942.47 73.7508 2938.86 71.8063 Q2935.3 69.8214 2932.95 65.7705 M2958.31 49.9314 Q2958.31 41.7081 2954.9 37.0496 Q2951.54 32.3505 2945.63 32.3505 Q2939.71 32.3505 2936.31 37.0496 Q2932.95 41.7081 2932.95 49.9314 Q2932.95 58.1548 2936.31 62.8538 Q2939.71 67.5124 2945.63 67.5124 Q2951.54 67.5124 2954.9 62.8538 Q2958.31 58.1548 2958.31 49.9314 Z" fill="#000000" fill-rule="evenodd" fill-opacity="1" /><path clip-path="url(#clip400)" d="M3022.67 9.62495 Q3017.25 18.942 3014.61 28.0566 Q3011.98 37.1711 3011.98 46.5287 Q3011.98 55.8863 3014.61 65.0818 Q3017.29 74.2369 3022.67 83.5134 L3016.19 83.5134 Q3010.12 73.9938 3007.08 64.7983 Q3004.08 55.6027 3004.08 46.5287 Q3004.08 37.4952 3007.08 28.3401 Q3010.08 19.1851 3016.19 9.62495 L3022.67 9.62495 Z" fill="#000000" fill-rule="evenodd" fill-opacity="1" /><path clip-path="url(#clip400)" d="M3036.85 9.54393 L3044.35 9.54393 L3044.35 46.7717 L3066.59 27.2059 L3076.11 27.2059 L3052.04 48.4326 L3077.12 72.576 L3067.4 72.576 L3044.35 50.4176 L3044.35 72.576 L3036.85 72.576 L3036.85 9.54393 Z" fill="#000000" fill-rule="evenodd" fill-opacity="1" /><path clip-path="url(#clip400)" d="M3093.69 18.8205 L3093.69 41.5461 L3103.98 41.5461 Q3109.69 41.5461 3112.81 38.5889 Q3115.93 35.6318 3115.93 30.163 Q3115.93 24.7348 3112.81 21.7777 Q3109.69 18.8205 3103.98 18.8205 L3093.69 18.8205 M3085.5 12.096 L3103.98 12.096 Q3114.14 12.096 3119.33 16.714 Q3124.56 21.2916 3124.56 30.163 Q3124.56 39.1155 3119.33 43.6931 Q3114.14 48.2706 3103.98 48.2706 L3093.69 48.2706 L3093.69 72.576 L3085.5 72.576 L3085.5 12.096 Z" fill="#000000" fill-rule="evenodd" fill-opacity="1" /><path clip-path="url(#clip400)" d="M3152.1 49.7694 Q3143.07 49.7694 3139.58 51.8354 Q3136.1 53.9013 3136.1 58.8839 Q3136.1 62.8538 3138.69 65.2034 Q3141.33 67.5124 3145.82 67.5124 Q3152.02 67.5124 3155.75 63.1374 Q3159.51 58.7219 3159.51 51.4303 L3159.51 49.7694 L3152.1 49.7694 M3166.97 46.6907 L3166.97 72.576 L3159.51 72.576 L3159.51 65.6895 Q3156.96 69.8214 3153.15 71.8063 Q3149.35 73.7508 3143.84 73.7508 Q3136.87 73.7508 3132.74 69.8619 Q3128.65 65.9325 3128.65 59.3701 Q3128.65 51.7138 3133.75 47.825 Q3138.9 43.9361 3149.06 43.9361 L3159.51 43.9361 L3159.51 43.2069 Q3159.51 38.0623 3156.11 35.2672 Q3152.75 32.4315 3146.63 32.4315 Q3142.74 32.4315 3139.06 33.3632 Q3135.37 34.295 3131.97 36.1584 L3131.97 29.2718 Q3136.06 27.692 3139.91 26.9223 Q3143.76 26.1121 3147.4 26.1121 Q3157.25 26.1121 3162.11 31.2163 Q3166.97 36.3204 3166.97 46.6907 Z" fill="#000000" fill-rule="evenodd" fill-opacity="1" /><path clip-path="url(#clip400)" d="M3181.15 9.62495 L3187.63 9.62495 Q3193.7 19.1851 3196.7 28.3401 Q3199.74 37.4952 3199.74 46.5287 Q3199.74 55.6027 3196.7 64.7983 Q3193.7 73.9938 3187.63 83.5134 L3181.15 83.5134 Q3186.53 74.2369 3189.17 65.0818 Q3191.84 55.8863 3191.84 46.5287 Q3191.84 37.1711 3189.17 28.0566 Q3186.53 18.942 3181.15 9.62495 Z" fill="#000000" fill-rule="evenodd" fill-opacity="1" /><polyline clip-path="url(#clip403)" style="stroke:#009af9; stroke-linecap:butt; stroke-linejoin:round; stroke-width:4; stroke-opacity:1; fill:none" points="
  3832.13,1351.59 3810.56,1338.4 3789.09,1325.2 3767.7,1312.01 3746.4,1298.81 3725.18,1285.62 3704.05,1272.43 3683.01,1259.23 3662.05,1246.04 3641.18,1232.84 
  3620.4,1219.65 3599.7,1206.45 3579.09,1193.26 3558.56,1180.07 3538.11,1166.87 3517.76,1153.68 3497.5,1140.48 3477.34,1127.29 3457.28,1114.1 3437.32,1100.9 
  3417.46,1087.71 3397.69,1074.51 3378.03,1061.32 3358.45,1048.13 3338.98,1034.93 3319.6,1021.74 3300.31,1008.54 3281.12,995.349 3262.03,982.155 3243.03,968.961 
  3224.12,955.767 3205.31,942.572 3186.59,929.378 3167.96,916.184 3149.43,902.99 3130.98,889.796 3112.63,876.602 3094.37,863.408 3076.2,850.214 3058.12,837.02 
  3040.13,823.825 3022.23,810.631 3004.42,797.437 2986.7,784.243 2969.06,771.049 2951.52,757.855 2934.06,744.661 2916.69,731.467 2899.41,718.272 2882.21,705.078 
  2865.1,691.884 2848.07,678.69 2831.13,665.496 2814.28,652.302 2797.51,639.108 2780.82,625.914 2764.22,612.719 2747.7,599.525 2731.27,586.331 2714.92,573.137 
  2698.65,559.943 2682.46,546.749 2666.36,533.555 2650.33,520.361 2634.39,507.167 2618.53,493.972 2602.75,480.778 2587.05,467.584 2571.43,454.39 2555.88,441.196 
  2540.42,428.002 2525.04,414.808 2509.73,401.614 2494.5,388.419 2479.35,375.225 2464.28,362.031 2449.28,348.837 2434.36,335.643 2419.52,322.449 2404.75,309.255 
  2390.06,296.061 2375.44,282.867 2360.9,269.672 2346.44,256.478 2332.04,243.284 2317.73,230.09 2303.48,216.896 2289.31,203.702 
  "/>
<polyline clip-path="url(#clip403)" style="stroke:#e26f46; stroke-linecap:butt; stroke-linejoin:round; stroke-width:4; stroke-opacity:1; fill:none" points="
  3842.94,1358.19 3821.34,1344.99 3799.82,1331.8 3778.38,1318.6 3757.04,1305.41 3735.78,1292.22 3714.61,1279.02 3693.52,1265.83 3672.52,1252.63 3651.61,1239.44 
  3630.78,1226.25 3610.04,1213.05 3589.38,1199.86 3568.81,1186.66 3548.32,1173.47 3527.92,1160.28 3507.62,1147.08 3487.41,1133.89 3467.3,1120.69 3447.29,1107.5 
  3427.38,1094.3 3407.57,1081.11 3387.85,1067.92 3368.23,1054.72 3348.7,1041.53 3329.28,1028.33 3309.94,1015.14 3290.71,1001.95 3271.57,988.752 3252.52,975.558 
  3233.56,962.364 3214.7,949.17 3195.94,935.975 3177.26,922.781 3158.68,909.587 3140.19,896.393 3121.8,883.199 3103.49,870.005 3085.27,856.811 3067.15,843.617 
  3049.11,830.422 3031.17,817.228 3013.31,804.034 2995.55,790.84 2977.87,777.646 2960.28,764.452 2942.78,751.258 2925.36,738.064 2908.04,724.87 2890.8,711.675 
  2873.64,698.481 2856.57,685.287 2839.59,672.093 2822.7,658.899 2805.88,645.705 2789.16,632.511 2772.51,619.317 2755.95,606.122 2739.48,592.928 2723.08,579.734 
  2706.77,566.54 2690.55,553.346 2674.4,540.152 2658.34,526.958 2642.35,513.764 2626.45,500.569 2610.63,487.375 2594.89,474.181 2579.23,460.987 2563.64,447.793 
  2548.14,434.599 2532.72,421.405 2517.37,408.211 2502.11,395.017 2486.92,381.822 2471.81,368.628 2456.77,355.434 2441.81,342.24 2426.93,329.046 2412.13,315.852 
  2397.4,302.658 2382.74,289.464 2368.16,276.269 2353.66,263.075 2339.23,249.881 2324.88,236.687 2310.59,223.493 2296.39,210.299 2282.25,197.105 
  "/>
<path clip-path="url(#clip400)" d="
M3478.51 358.817 L3834.62 358.817 L3834.62 203.297 L3478.51 203.297  Z
  " fill="#ffffff" fill-rule="evenodd" fill-opacity="1"/>
<polyline clip-path="url(#clip400)" style="stroke:#000000; stroke-linecap:butt; stroke-linejoin:round; stroke-width:4; stroke-opacity:1; fill:none" points="
  3478.51,358.817 3834.62,358.817 3834.62,203.297 3478.51,203.297 3478.51,358.817 
  "/>
<polyline clip-path="url(#clip400)" style="stroke:#009af9; stroke-linecap:butt; stroke-linejoin:round; stroke-width:4; stroke-opacity:1; fill:none" points="
  3496.9,255.137 3607.18,255.137 
  "/>
<path clip-path="url(#clip400)" d="M3646.07 247.487 L3646.07 251.468 Q3644.27 250.473 3642.44 249.987 Q3640.63 249.477 3638.78 249.477 Q3634.64 249.477 3632.35 252.116 Q3630.06 254.732 3630.06 259.477 Q3630.06 264.223 3632.35 266.862 Q3634.64 269.477 3638.78 269.477 Q3640.63 269.477 3642.44 268.991 Q3644.27 268.482 3646.07 267.487 L3646.07 271.422 Q3644.29 272.255 3642.37 272.672 Q3640.47 273.088 3638.32 273.088 Q3632.46 273.088 3629.01 269.408 Q3625.57 265.727 3625.57 259.477 Q3625.57 253.135 3629.04 249.501 Q3632.53 245.866 3638.6 245.866 Q3640.57 245.866 3642.44 246.283 Q3644.32 246.677 3646.07 247.487 Z" fill="#000000" fill-rule="evenodd" fill-opacity="1" /><path clip-path="url(#clip400)" d="M3675.66 258.389 L3675.66 260.473 L3656.07 260.473 Q3656.35 264.871 3658.71 267.186 Q3661.1 269.477 3665.33 269.477 Q3667.79 269.477 3670.08 268.876 Q3672.39 268.274 3674.66 267.07 L3674.66 271.098 Q3672.37 272.07 3669.96 272.579 Q3667.56 273.088 3665.08 273.088 Q3658.88 273.088 3655.24 269.477 Q3651.63 265.866 3651.63 259.709 Q3651.63 253.343 3655.06 249.616 Q3658.51 245.866 3664.34 245.866 Q3669.57 245.866 3672.6 249.246 Q3675.66 252.602 3675.66 258.389 M3671.4 257.139 Q3671.35 253.644 3669.43 251.561 Q3667.53 249.477 3664.38 249.477 Q3660.82 249.477 3658.67 251.491 Q3656.54 253.505 3656.21 257.163 L3671.4 257.139 Z" fill="#000000" fill-rule="evenodd" fill-opacity="1" /><path clip-path="url(#clip400)" d="M3704.2 256.769 L3704.2 272.417 L3699.94 272.417 L3699.94 256.908 Q3699.94 253.227 3698.5 251.399 Q3697.07 249.57 3694.2 249.57 Q3690.75 249.57 3688.76 251.769 Q3686.77 253.968 3686.77 257.764 L3686.77 272.417 L3682.49 272.417 L3682.49 246.491 L3686.77 246.491 L3686.77 250.519 Q3688.3 248.181 3690.36 247.024 Q3692.44 245.866 3695.15 245.866 Q3699.62 245.866 3701.91 248.644 Q3704.2 251.399 3704.2 256.769 Z" fill="#000000" fill-rule="evenodd" fill-opacity="1" /><path clip-path="url(#clip400)" d="M3716.91 239.13 L3716.91 246.491 L3725.68 246.491 L3725.68 249.802 L3716.91 249.802 L3716.91 263.876 Q3716.91 267.047 3717.76 267.95 Q3718.64 268.852 3721.31 268.852 L3725.68 268.852 L3725.68 272.417 L3721.31 272.417 Q3716.38 272.417 3714.5 270.588 Q3712.63 268.737 3712.63 263.876 L3712.63 249.802 L3709.5 249.802 L3709.5 246.491 L3712.63 246.491 L3712.63 239.13 L3716.91 239.13 Z" fill="#000000" fill-rule="evenodd" fill-opacity="1" /><path clip-path="url(#clip400)" d="M3753.46 258.389 L3753.46 260.473 L3733.88 260.473 Q3734.15 264.871 3736.51 267.186 Q3738.9 269.477 3743.13 269.477 Q3745.59 269.477 3747.88 268.876 Q3750.19 268.274 3752.46 267.07 L3752.46 271.098 Q3750.17 272.07 3747.76 272.579 Q3745.36 273.088 3742.88 273.088 Q3736.68 273.088 3733.04 269.477 Q3729.43 265.866 3729.43 259.709 Q3729.43 253.343 3732.86 249.616 Q3736.31 245.866 3742.14 245.866 Q3747.37 245.866 3750.4 249.246 Q3753.46 252.602 3753.46 258.389 M3749.2 257.139 Q3749.15 253.644 3747.23 251.561 Q3745.33 249.477 3742.19 249.477 Q3738.62 249.477 3736.47 251.491 Q3734.34 253.505 3734.01 257.163 L3749.2 257.139 Z" fill="#000000" fill-rule="evenodd" fill-opacity="1" /><path clip-path="url(#clip400)" d="M3775.47 250.473 Q3774.75 250.056 3773.9 249.871 Q3773.06 249.663 3772.05 249.663 Q3768.44 249.663 3766.49 252.024 Q3764.57 254.362 3764.57 258.76 L3764.57 272.417 L3760.29 272.417 L3760.29 246.491 L3764.57 246.491 L3764.57 250.519 Q3765.91 248.158 3768.06 247.024 Q3770.22 245.866 3773.3 245.866 Q3773.74 245.866 3774.27 245.936 Q3774.8 245.982 3775.45 246.098 L3775.47 250.473 Z" fill="#000000" fill-rule="evenodd" fill-opacity="1" /><path clip-path="url(#clip400)" d="M3796.47 247.255 L3796.47 251.283 Q3794.66 250.357 3792.72 249.894 Q3790.77 249.431 3788.69 249.431 Q3785.52 249.431 3783.92 250.403 Q3782.35 251.376 3782.35 253.32 Q3782.35 254.802 3783.48 255.658 Q3784.62 256.491 3788.04 257.255 L3789.5 257.579 Q3794.04 258.552 3795.94 260.334 Q3797.86 262.093 3797.86 265.264 Q3797.86 268.876 3794.99 270.982 Q3792.14 273.088 3787.14 273.088 Q3785.06 273.088 3782.79 272.672 Q3780.54 272.278 3778.04 271.468 L3778.04 267.07 Q3780.4 268.297 3782.69 268.922 Q3784.99 269.524 3787.23 269.524 Q3790.24 269.524 3791.86 268.505 Q3793.48 267.463 3793.48 265.589 Q3793.48 263.852 3792.3 262.926 Q3791.14 262.001 3787.19 261.144 L3785.7 260.797 Q3781.75 259.964 3779.99 258.251 Q3778.23 256.514 3778.23 253.505 Q3778.23 249.848 3780.82 247.857 Q3783.41 245.866 3788.18 245.866 Q3790.54 245.866 3792.62 246.214 Q3794.71 246.561 3796.47 247.255 Z" fill="#000000" fill-rule="evenodd" fill-opacity="1" /><polyline clip-path="url(#clip400)" style="stroke:#e26f46; stroke-linecap:butt; stroke-linejoin:round; stroke-width:4; stroke-opacity:1; fill:none" points="
  3496.9,306.977 3607.18,306.977 
  "/>
<path clip-path="url(#clip400)" d="M3642.07 288.239 L3642.07 291.78 L3638 291.78 Q3635.7 291.78 3634.8 292.706 Q3633.92 293.632 3633.92 296.04 L3633.92 298.331 L3640.94 298.331 L3640.94 301.642 L3633.92 301.642 L3633.92 324.257 L3629.64 324.257 L3629.64 301.642 L3625.57 301.642 L3625.57 298.331 L3629.64 298.331 L3629.64 296.526 Q3629.64 292.197 3631.65 290.23 Q3633.67 288.239 3638.04 288.239 L3642.07 288.239 Z" fill="#000000" fill-rule="evenodd" fill-opacity="1" /><path clip-path="url(#clip400)" d="M3657.42 311.225 Q3652.26 311.225 3650.26 312.405 Q3648.27 313.586 3648.27 316.433 Q3648.27 318.702 3649.76 320.044 Q3651.26 321.364 3653.83 321.364 Q3657.37 321.364 3659.5 318.864 Q3661.65 316.341 3661.65 312.174 L3661.65 311.225 L3657.42 311.225 M3665.91 309.466 L3665.91 324.257 L3661.65 324.257 L3661.65 320.322 Q3660.2 322.683 3658.02 323.817 Q3655.84 324.928 3652.7 324.928 Q3648.71 324.928 3646.35 322.706 Q3644.01 320.461 3644.01 316.711 Q3644.01 312.336 3646.93 310.114 Q3649.87 307.892 3655.68 307.892 L3661.65 307.892 L3661.65 307.475 Q3661.65 304.535 3659.71 302.938 Q3657.79 301.317 3654.29 301.317 Q3652.07 301.317 3649.96 301.85 Q3647.86 302.382 3645.91 303.447 L3645.91 299.512 Q3648.25 298.609 3650.45 298.169 Q3652.65 297.706 3654.73 297.706 Q3660.36 297.706 3663.13 300.623 Q3665.91 303.54 3665.91 309.466 Z" fill="#000000" fill-rule="evenodd" fill-opacity="1" /><path clip-path="url(#clip400)" d="M3693.34 299.327 L3693.34 303.308 Q3691.54 302.313 3689.71 301.827 Q3687.9 301.317 3686.05 301.317 Q3681.91 301.317 3679.62 303.956 Q3677.32 306.572 3677.32 311.317 Q3677.32 316.063 3679.62 318.702 Q3681.91 321.317 3686.05 321.317 Q3687.9 321.317 3689.71 320.831 Q3691.54 320.322 3693.34 319.327 L3693.34 323.262 Q3691.56 324.095 3689.64 324.512 Q3687.74 324.928 3685.59 324.928 Q3679.73 324.928 3676.28 321.248 Q3672.83 317.567 3672.83 311.317 Q3672.83 304.975 3676.31 301.341 Q3679.8 297.706 3685.87 297.706 Q3687.83 297.706 3689.71 298.123 Q3691.58 298.517 3693.34 299.327 Z" fill="#000000" fill-rule="evenodd" fill-opacity="1" /><path clip-path="url(#clip400)" d="M3722.93 310.229 L3722.93 312.313 L3703.34 312.313 Q3703.62 316.711 3705.98 319.026 Q3708.37 321.317 3712.6 321.317 Q3715.06 321.317 3717.35 320.716 Q3719.66 320.114 3721.93 318.91 L3721.93 322.938 Q3719.64 323.91 3717.23 324.419 Q3714.82 324.928 3712.35 324.928 Q3706.14 324.928 3702.51 321.317 Q3698.9 317.706 3698.9 311.549 Q3698.9 305.183 3702.32 301.456 Q3705.77 297.706 3711.61 297.706 Q3716.84 297.706 3719.87 301.086 Q3722.93 304.442 3722.93 310.229 M3718.67 308.979 Q3718.62 305.484 3716.7 303.401 Q3714.8 301.317 3711.65 301.317 Q3708.09 301.317 3705.94 303.331 Q3703.81 305.345 3703.48 309.003 L3718.67 308.979 Z" fill="#000000" fill-rule="evenodd" fill-opacity="1" /><path clip-path="url(#clip400)" d="M3746.44 299.095 L3746.44 303.123 Q3744.64 302.197 3742.69 301.734 Q3740.75 301.271 3738.67 301.271 Q3735.5 301.271 3733.9 302.243 Q3732.32 303.216 3732.32 305.16 Q3732.32 306.642 3733.46 307.498 Q3734.59 308.331 3738.02 309.095 L3739.48 309.419 Q3744.01 310.392 3745.91 312.174 Q3747.83 313.933 3747.83 317.104 Q3747.83 320.716 3744.96 322.822 Q3742.12 324.928 3737.12 324.928 Q3735.03 324.928 3732.76 324.512 Q3730.52 324.118 3728.02 323.308 L3728.02 318.91 Q3730.38 320.137 3732.67 320.762 Q3734.96 321.364 3737.21 321.364 Q3740.22 321.364 3741.84 320.345 Q3743.46 319.303 3743.46 317.429 Q3743.46 315.692 3742.28 314.766 Q3741.12 313.841 3737.16 312.984 L3735.68 312.637 Q3731.72 311.804 3729.96 310.091 Q3728.2 308.354 3728.2 305.345 Q3728.2 301.688 3730.8 299.697 Q3733.39 297.706 3738.16 297.706 Q3740.52 297.706 3742.6 298.054 Q3744.69 298.401 3746.44 299.095 Z" fill="#000000" fill-rule="evenodd" fill-opacity="1" /></svg>
