<?xml version="1.0" encoding="utf-8"?>
<svg xmlns="http://www.w3.org/2000/svg" xmlns:xlink="http://www.w3.org/1999/xlink" width="1000" height="400" viewBox="0 0 4000 1600">
<defs>
  <clipPath id="clip760">
    <rect x="0" y="0" width="4000" height="1600"/>
  </clipPath>
</defs>
<path clip-path="url(#clip760)" d="
M0 1600 L4000 1600 L4000 0 L0 0  Z
  " fill="#ffffff" fill-rule="evenodd" fill-opacity="1"/>
<defs>
  <clipPath id="clip761">
    <rect x="800" y="0" width="2801" height="1600"/>
  </clipPath>
</defs>
<path clip-path="url(#clip760)" d="
M234.133 1393.02 L3889.76 1393.02 L3889.76 162.272 L234.133 162.272  Z
  " fill="#ffffff" fill-rule="evenodd" fill-opacity="1"/>
<defs>
  <clipPath id="clip762">
    <rect x="234" y="162" width="3657" height="1232"/>
  </clipPath>
</defs>
<polyline clip-path="url(#clip762)" style="stroke:#000000; stroke-linecap:butt; stroke-linejoin:round; stroke-width:2; stroke-opacity:0.1; fill:none" points="
  703.151,1393.02 703.151,162.272 
  "/>
<polyline clip-path="url(#clip762)" style="stroke:#000000; stroke-linecap:butt; stroke-linejoin:round; stroke-width:2; stroke-opacity:0.1; fill:none" points="
  1284.88,1393.02 1284.88,162.272 
  "/>
<polyline clip-path="url(#clip762)" style="stroke:#000000; stroke-linecap:butt; stroke-linejoin:round; stroke-width:2; stroke-opacity:0.1; fill:none" points="
  1866.6,1393.02 1866.6,162.272 
  "/>
<polyline clip-path="url(#clip762)" style="stroke:#000000; stroke-linecap:butt; stroke-linejoin:round; stroke-width:2; stroke-opacity:0.1; fill:none" points="
  2448.33,1393.02 2448.33,162.272 
  "/>
<polyline clip-path="url(#clip762)" style="stroke:#000000; stroke-linecap:butt; stroke-linejoin:round; stroke-width:2; stroke-opacity:0.1; fill:none" points="
  3030.06,1393.02 3030.06,162.272 
  "/>
<polyline clip-path="url(#clip762)" style="stroke:#000000; stroke-linecap:butt; stroke-linejoin:round; stroke-width:2; stroke-opacity:0.1; fill:none" points="
  3611.78,1393.02 3611.78,162.272 
  "/>
<polyline clip-path="url(#clip760)" style="stroke:#000000; stroke-linecap:butt; stroke-linejoin:round; stroke-width:4; stroke-opacity:1; fill:none" points="
  234.133,1393.02 3889.76,1393.02 
  "/>
<polyline clip-path="url(#clip760)" style="stroke:#000000; stroke-linecap:butt; stroke-linejoin:round; stroke-width:4; stroke-opacity:1; fill:none" points="
  703.151,1393.02 703.151,1374.12 
  "/>
<polyline clip-path="url(#clip760)" style="stroke:#000000; stroke-linecap:butt; stroke-linejoin:round; stroke-width:4; stroke-opacity:1; fill:none" points="
  1284.88,1393.02 1284.88,1374.12 
  "/>
<polyline clip-path="url(#clip760)" style="stroke:#000000; stroke-linecap:butt; stroke-linejoin:round; stroke-width:4; stroke-opacity:1; fill:none" points="
  1866.6,1393.02 1866.6,1374.12 
  "/>
<polyline clip-path="url(#clip760)" style="stroke:#000000; stroke-linecap:butt; stroke-linejoin:round; stroke-width:4; stroke-opacity:1; fill:none" points="
  2448.33,1393.02 2448.33,1374.12 
  "/>
<polyline clip-path="url(#clip760)" style="stroke:#000000; stroke-linecap:butt; stroke-linejoin:round; stroke-width:4; stroke-opacity:1; fill:none" points="
  3030.06,1393.02 3030.06,1374.12 
  "/>
<polyline clip-path="url(#clip760)" style="stroke:#000000; stroke-linecap:butt; stroke-linejoin:round; stroke-width:4; stroke-opacity:1; fill:none" points="
  3611.78,1393.02 3611.78,1374.12 
  "/>
<path clip-path="url(#clip760)" d="M677.006 1433.66 L699.228 1433.66 L699.228 1435.65 L686.682 1468.22 L681.797 1468.22 L693.603 1437.59 L677.006 1437.59 L677.006 1433.66 Z" fill="#000000" fill-rule="evenodd" fill-opacity="1" /><path clip-path="url(#clip760)" d="M708.394 1433.66 L726.751 1433.66 L726.751 1437.59 L712.677 1437.59 L712.677 1446.07 Q713.695 1445.72 714.714 1445.56 Q715.732 1445.37 716.751 1445.37 Q722.538 1445.37 725.918 1448.54 Q729.297 1451.72 729.297 1457.13 Q729.297 1462.71 725.825 1465.81 Q722.353 1468.89 716.033 1468.89 Q713.857 1468.89 711.589 1468.52 Q709.344 1468.15 706.936 1467.41 L706.936 1462.71 Q709.019 1463.84 711.242 1464.4 Q713.464 1464.96 715.941 1464.96 Q719.945 1464.96 722.283 1462.85 Q724.621 1460.74 724.621 1457.13 Q724.621 1453.52 722.283 1451.41 Q719.945 1449.31 715.941 1449.31 Q714.066 1449.31 712.191 1449.72 Q710.339 1450.14 708.394 1451.02 L708.394 1433.66 Z" fill="#000000" fill-rule="evenodd" fill-opacity="1" /><path clip-path="url(#clip760)" d="M1269.75 1451.81 Q1266.42 1451.81 1264.5 1453.59 Q1262.6 1455.37 1262.6 1458.5 Q1262.6 1461.62 1264.5 1463.4 Q1266.42 1465.19 1269.75 1465.19 Q1273.08 1465.19 1275.01 1463.4 Q1276.93 1461.6 1276.93 1458.5 Q1276.93 1455.37 1275.01 1453.59 Q1273.11 1451.81 1269.75 1451.81 M1265.07 1449.82 Q1262.07 1449.08 1260.38 1447.02 Q1258.71 1444.96 1258.71 1441.99 Q1258.71 1437.85 1261.65 1435.44 Q1264.61 1433.03 1269.75 1433.03 Q1274.91 1433.03 1277.85 1435.44 Q1280.79 1437.85 1280.79 1441.99 Q1280.79 1444.96 1279.1 1447.02 Q1277.44 1449.08 1274.45 1449.82 Q1277.83 1450.6 1279.7 1452.9 Q1281.6 1455.19 1281.6 1458.5 Q1281.6 1463.52 1278.52 1466.21 Q1275.47 1468.89 1269.75 1468.89 Q1264.03 1468.89 1260.95 1466.21 Q1257.9 1463.52 1257.9 1458.5 Q1257.9 1455.19 1259.8 1452.9 Q1261.7 1450.6 1265.07 1449.82 M1263.36 1442.43 Q1263.36 1445.12 1265.03 1446.62 Q1266.72 1448.13 1269.75 1448.13 Q1272.76 1448.13 1274.45 1446.62 Q1276.16 1445.12 1276.16 1442.43 Q1276.16 1439.75 1274.45 1438.24 Q1272.76 1436.74 1269.75 1436.74 Q1266.72 1436.74 1265.03 1438.24 Q1263.36 1439.75 1263.36 1442.43 Z" fill="#000000" fill-rule="evenodd" fill-opacity="1" /><path clip-path="url(#clip760)" d="M1299.91 1436.74 Q1296.3 1436.74 1294.47 1440.3 Q1292.67 1443.84 1292.67 1450.97 Q1292.67 1458.08 1294.47 1461.65 Q1296.3 1465.19 1299.91 1465.19 Q1303.55 1465.19 1305.35 1461.65 Q1307.18 1458.08 1307.18 1450.97 Q1307.18 1443.84 1305.35 1440.3 Q1303.55 1436.74 1299.91 1436.74 M1299.91 1433.03 Q1305.72 1433.03 1308.78 1437.64 Q1311.86 1442.22 1311.86 1450.97 Q1311.86 1459.7 1308.78 1464.31 Q1305.72 1468.89 1299.91 1468.89 Q1294.1 1468.89 1291.02 1464.31 Q1287.97 1459.7 1287.97 1450.97 Q1287.97 1442.22 1291.02 1437.64 Q1294.1 1433.03 1299.91 1433.03 Z" fill="#000000" fill-rule="evenodd" fill-opacity="1" /><path clip-path="url(#clip760)" d="M1851.98 1451.81 Q1848.64 1451.81 1846.72 1453.59 Q1844.82 1455.37 1844.82 1458.5 Q1844.82 1461.62 1846.72 1463.4 Q1848.64 1465.19 1851.98 1465.19 Q1855.31 1465.19 1857.23 1463.4 Q1859.15 1461.6 1859.15 1458.5 Q1859.15 1455.37 1857.23 1453.59 Q1855.33 1451.81 1851.98 1451.81 M1847.3 1449.82 Q1844.29 1449.08 1842.6 1447.02 Q1840.93 1444.96 1840.93 1441.99 Q1840.93 1437.85 1843.87 1435.44 Q1846.84 1433.03 1851.98 1433.03 Q1857.14 1433.03 1860.08 1435.44 Q1863.02 1437.85 1863.02 1441.99 Q1863.02 1444.96 1861.33 1447.02 Q1859.66 1449.08 1856.67 1449.82 Q1860.05 1450.6 1861.93 1452.9 Q1863.83 1455.19 1863.83 1458.5 Q1863.83 1463.52 1860.75 1466.21 Q1857.69 1468.89 1851.98 1468.89 Q1846.26 1468.89 1843.18 1466.21 Q1840.12 1463.52 1840.12 1458.5 Q1840.12 1455.19 1842.02 1452.9 Q1843.92 1450.6 1847.3 1449.82 M1845.59 1442.43 Q1845.59 1445.12 1847.25 1446.62 Q1848.94 1448.13 1851.98 1448.13 Q1854.98 1448.13 1856.67 1446.62 Q1858.39 1445.12 1858.39 1442.43 Q1858.39 1439.75 1856.67 1438.24 Q1854.98 1436.74 1851.98 1436.74 Q1848.94 1436.74 1847.25 1438.24 Q1845.59 1439.75 1845.59 1442.43 Z" fill="#000000" fill-rule="evenodd" fill-opacity="1" /><path clip-path="url(#clip760)" d="M1872.18 1433.66 L1890.54 1433.66 L1890.54 1437.59 L1876.47 1437.59 L1876.47 1446.07 Q1877.48 1445.72 1878.5 1445.56 Q1879.52 1445.37 1880.54 1445.37 Q1886.33 1445.37 1889.71 1448.54 Q1893.09 1451.72 1893.09 1457.13 Q1893.09 1462.71 1889.61 1465.81 Q1886.14 1468.89 1879.82 1468.89 Q1877.65 1468.89 1875.38 1468.52 Q1873.13 1468.15 1870.73 1467.41 L1870.73 1462.71 Q1872.81 1463.84 1875.03 1464.4 Q1877.25 1464.96 1879.73 1464.96 Q1883.73 1464.96 1886.07 1462.85 Q1888.41 1460.74 1888.41 1457.13 Q1888.41 1453.52 1886.07 1451.41 Q1883.73 1449.31 1879.73 1449.31 Q1877.85 1449.31 1875.98 1449.72 Q1874.13 1450.14 1872.18 1451.02 L1872.18 1433.66 Z" fill="#000000" fill-rule="evenodd" fill-opacity="1" /><path clip-path="url(#clip760)" d="M2423.46 1467.5 L2423.46 1463.24 Q2425.22 1464.08 2427.02 1464.52 Q2428.83 1464.96 2430.57 1464.96 Q2435.19 1464.96 2437.63 1461.85 Q2440.08 1458.73 2440.43 1452.39 Q2439.08 1454.38 2437.02 1455.44 Q2434.96 1456.51 2432.46 1456.51 Q2427.28 1456.51 2424.25 1453.38 Q2421.24 1450.23 2421.24 1444.79 Q2421.24 1439.47 2424.38 1436.25 Q2427.53 1433.03 2432.76 1433.03 Q2438.76 1433.03 2441.91 1437.64 Q2445.08 1442.22 2445.08 1450.97 Q2445.08 1459.15 2441.19 1464.03 Q2437.32 1468.89 2430.77 1468.89 Q2429.01 1468.89 2427.21 1468.54 Q2425.4 1468.2 2423.46 1467.5 M2432.76 1452.85 Q2435.91 1452.85 2437.74 1450.7 Q2439.59 1448.54 2439.59 1444.79 Q2439.59 1441.07 2437.74 1438.91 Q2435.91 1436.74 2432.76 1436.74 Q2429.62 1436.74 2427.76 1438.91 Q2425.94 1441.07 2425.94 1444.79 Q2425.94 1448.54 2427.76 1450.7 Q2429.62 1452.85 2432.76 1452.85 Z" fill="#000000" fill-rule="evenodd" fill-opacity="1" /><path clip-path="url(#clip760)" d="M2463.48 1436.74 Q2459.87 1436.74 2458.04 1440.3 Q2456.24 1443.84 2456.24 1450.97 Q2456.24 1458.08 2458.04 1461.65 Q2459.87 1465.19 2463.48 1465.19 Q2467.12 1465.19 2468.92 1461.65 Q2470.75 1458.08 2470.75 1450.97 Q2470.75 1443.84 2468.92 1440.3 Q2467.12 1436.74 2463.48 1436.74 M2463.48 1433.03 Q2469.29 1433.03 2472.35 1437.64 Q2475.43 1442.22 2475.43 1450.97 Q2475.43 1459.7 2472.35 1464.31 Q2469.29 1468.89 2463.48 1468.89 Q2457.67 1468.89 2454.59 1464.31 Q2451.54 1459.7 2451.54 1450.97 Q2451.54 1442.22 2454.59 1437.64 Q2457.67 1433.03 2463.48 1433.03 Z" fill="#000000" fill-rule="evenodd" fill-opacity="1" /><path clip-path="url(#clip760)" d="M3005.68 1467.5 L3005.68 1463.24 Q3007.44 1464.08 3009.25 1464.52 Q3011.05 1464.96 3012.79 1464.96 Q3017.42 1464.96 3019.85 1461.85 Q3022.3 1458.73 3022.65 1452.39 Q3021.31 1454.38 3019.25 1455.44 Q3017.19 1456.51 3014.69 1456.51 Q3009.5 1456.51 3006.47 1453.38 Q3003.46 1450.23 3003.46 1444.79 Q3003.46 1439.47 3006.61 1436.25 Q3009.76 1433.03 3014.99 1433.03 Q3020.98 1433.03 3024.13 1437.64 Q3027.3 1442.22 3027.3 1450.97 Q3027.3 1459.15 3023.41 1464.03 Q3019.55 1468.89 3013 1468.89 Q3011.24 1468.89 3009.43 1468.54 Q3007.63 1468.2 3005.68 1467.5 M3014.99 1452.85 Q3018.14 1452.85 3019.97 1450.7 Q3021.82 1448.54 3021.82 1444.79 Q3021.82 1441.07 3019.97 1438.91 Q3018.14 1436.74 3014.99 1436.74 Q3011.84 1436.74 3009.99 1438.91 Q3008.16 1441.07 3008.16 1444.79 Q3008.16 1448.54 3009.99 1450.7 Q3011.84 1452.85 3014.99 1452.85 Z" fill="#000000" fill-rule="evenodd" fill-opacity="1" /><path clip-path="url(#clip760)" d="M3035.75 1433.66 L3054.11 1433.66 L3054.11 1437.59 L3040.03 1437.59 L3040.03 1446.07 Q3041.05 1445.72 3042.07 1445.56 Q3043.09 1445.37 3044.11 1445.37 Q3049.9 1445.37 3053.28 1448.54 Q3056.66 1451.72 3056.66 1457.13 Q3056.66 1462.71 3053.18 1465.81 Q3049.71 1468.89 3043.39 1468.89 Q3041.22 1468.89 3038.95 1468.52 Q3036.7 1468.15 3034.29 1467.41 L3034.29 1462.71 Q3036.38 1463.84 3038.6 1464.4 Q3040.82 1464.96 3043.3 1464.96 Q3047.3 1464.96 3049.64 1462.85 Q3051.98 1460.74 3051.98 1457.13 Q3051.98 1453.52 3049.64 1451.41 Q3047.3 1449.31 3043.3 1449.31 Q3041.42 1449.31 3039.55 1449.72 Q3037.7 1450.14 3035.75 1451.02 L3035.75 1433.66 Z" fill="#000000" fill-rule="evenodd" fill-opacity="1" /><path clip-path="url(#clip760)" d="M3571.39 1464.28 L3579.03 1464.28 L3579.03 1437.92 L3570.72 1439.59 L3570.72 1435.33 L3578.98 1433.66 L3583.66 1433.66 L3583.66 1464.28 L3591.3 1464.28 L3591.3 1468.22 L3571.39 1468.22 L3571.39 1464.28 Z" fill="#000000" fill-rule="evenodd" fill-opacity="1" /><path clip-path="url(#clip760)" d="M3610.74 1436.74 Q3607.13 1436.74 3605.3 1440.3 Q3603.5 1443.84 3603.5 1450.97 Q3603.5 1458.08 3605.3 1461.65 Q3607.13 1465.19 3610.74 1465.19 Q3614.38 1465.19 3616.18 1461.65 Q3618.01 1458.08 3618.01 1450.97 Q3618.01 1443.84 3616.18 1440.3 Q3614.38 1436.74 3610.74 1436.74 M3610.74 1433.03 Q3616.55 1433.03 3619.61 1437.64 Q3622.69 1442.22 3622.69 1450.97 Q3622.69 1459.7 3619.61 1464.31 Q3616.55 1468.89 3610.74 1468.89 Q3604.93 1468.89 3601.85 1464.31 Q3598.8 1459.7 3598.8 1450.97 Q3598.8 1442.22 3601.85 1437.64 Q3604.93 1433.03 3610.74 1433.03 Z" fill="#000000" fill-rule="evenodd" fill-opacity="1" /><path clip-path="url(#clip760)" d="M3640.9 1436.74 Q3637.29 1436.74 3635.46 1440.3 Q3633.66 1443.84 3633.66 1450.97 Q3633.66 1458.08 3635.46 1461.65 Q3637.29 1465.19 3640.9 1465.19 Q3644.54 1465.19 3646.34 1461.65 Q3648.17 1458.08 3648.17 1450.97 Q3648.17 1443.84 3646.34 1440.3 Q3644.54 1436.74 3640.9 1436.74 M3640.9 1433.03 Q3646.71 1433.03 3649.77 1437.64 Q3652.85 1442.22 3652.85 1450.97 Q3652.85 1459.7 3649.77 1464.31 Q3646.71 1468.89 3640.9 1468.89 Q3635.09 1468.89 3632.02 1464.31 Q3628.96 1459.7 3628.96 1450.97 Q3628.96 1442.22 3632.02 1437.64 Q3635.09 1433.03 3640.9 1433.03 Z" fill="#000000" fill-rule="evenodd" fill-opacity="1" /><path clip-path="url(#clip760)" d="M1960.08 1556.54 L1960.08 1575.44 L1954.19 1575.44 L1954.19 1526.24 L1960.08 1526.24 L1960.08 1531.65 Q1961.93 1528.46 1964.73 1526.94 Q1967.56 1525.38 1971.48 1525.38 Q1977.97 1525.38 1982.01 1530.53 Q1986.09 1535.69 1986.09 1544.09 Q1986.09 1552.49 1982.01 1557.65 Q1977.97 1562.81 1971.48 1562.81 Q1967.56 1562.81 1964.73 1561.28 Q1961.93 1559.72 1960.08 1556.54 M1980.01 1544.09 Q1980.01 1537.63 1977.33 1533.97 Q1974.69 1530.28 1970.04 1530.28 Q1965.4 1530.28 1962.72 1533.97 Q1960.08 1537.63 1960.08 1544.09 Q1960.08 1550.55 1962.72 1554.24 Q1965.4 1557.91 1970.04 1557.91 Q1974.69 1557.91 1977.33 1554.24 Q1980.01 1550.55 1980.01 1544.09 Z" fill="#000000" fill-rule="evenodd" fill-opacity="1" /><path clip-path="url(#clip760)" d="M2030.58 1512.42 Q2026.32 1519.74 2024.25 1526.9 Q2022.18 1534.07 2022.18 1541.42 Q2022.18 1548.77 2024.25 1556 Q2026.35 1563.19 2030.58 1570.48 L2025.49 1570.48 Q2020.71 1563 2018.33 1555.77 Q2015.97 1548.55 2015.97 1541.42 Q2015.97 1534.32 2018.33 1527.13 Q2020.68 1519.93 2025.49 1512.42 L2030.58 1512.42 Z" fill="#000000" fill-rule="evenodd" fill-opacity="1" /><path clip-path="url(#clip760)" d="M2041.72 1512.36 L2047.61 1512.36 L2047.61 1541.61 L2065.08 1526.24 L2072.56 1526.24 L2053.66 1542.91 L2073.36 1561.88 L2065.72 1561.88 L2047.61 1544.47 L2047.61 1561.88 L2041.72 1561.88 L2041.72 1512.36 Z" fill="#000000" fill-rule="evenodd" fill-opacity="1" /><path clip-path="url(#clip760)" d="M2086.38 1519.65 L2086.38 1537.5 L2094.46 1537.5 Q2098.95 1537.5 2101.4 1535.18 Q2103.85 1532.86 2103.85 1528.56 Q2103.85 1524.29 2101.4 1521.97 Q2098.95 1519.65 2094.46 1519.65 L2086.38 1519.65 M2079.95 1514.36 L2094.46 1514.36 Q2102.45 1514.36 2106.52 1517.99 Q2110.63 1521.59 2110.63 1528.56 Q2110.63 1535.59 2106.52 1539.19 Q2102.45 1542.79 2094.46 1542.79 L2086.38 1542.79 L2086.38 1561.88 L2079.95 1561.88 L2079.95 1514.36 Z" fill="#000000" fill-rule="evenodd" fill-opacity="1" /><path clip-path="url(#clip760)" d="M2132.27 1543.96 Q2125.18 1543.96 2122.44 1545.59 Q2119.7 1547.21 2119.7 1551.13 Q2119.7 1554.24 2121.74 1556.09 Q2123.81 1557.91 2127.34 1557.91 Q2132.21 1557.91 2135.14 1554.47 Q2138.1 1551 2138.1 1545.27 L2138.1 1543.96 L2132.27 1543.96 M2143.95 1541.55 L2143.95 1561.88 L2138.1 1561.88 L2138.1 1556.47 Q2136.09 1559.72 2133.1 1561.28 Q2130.11 1562.81 2125.78 1562.81 Q2120.31 1562.81 2117.06 1559.75 Q2113.84 1556.66 2113.84 1551.51 Q2113.84 1545.49 2117.86 1542.44 Q2121.9 1539.38 2129.89 1539.38 L2138.1 1539.38 L2138.1 1538.81 Q2138.1 1534.77 2135.42 1532.57 Q2132.78 1530.34 2127.98 1530.34 Q2124.92 1530.34 2122.02 1531.07 Q2119.13 1531.81 2116.45 1533.27 L2116.45 1527.86 Q2119.67 1526.62 2122.69 1526.01 Q2125.72 1525.38 2128.58 1525.38 Q2136.32 1525.38 2140.14 1529.39 Q2143.95 1533.4 2143.95 1541.55 Z" fill="#000000" fill-rule="evenodd" fill-opacity="1" /><path clip-path="url(#clip760)" d="M2155.09 1512.42 L2160.19 1512.42 Q2164.96 1519.93 2167.32 1527.13 Q2169.7 1534.32 2169.7 1541.42 Q2169.7 1548.55 2167.32 1555.77 Q2164.96 1563 2160.19 1570.48 L2155.09 1570.48 Q2159.33 1563.19 2161.4 1556 Q2163.5 1548.77 2163.5 1541.42 Q2163.5 1534.07 2161.4 1526.9 Q2159.33 1519.74 2155.09 1512.42 Z" fill="#000000" fill-rule="evenodd" fill-opacity="1" /><polyline clip-path="url(#clip762)" style="stroke:#000000; stroke-linecap:butt; stroke-linejoin:round; stroke-width:2; stroke-opacity:0.1; fill:none" points="
  234.133,1358.19 3889.76,1358.19 
  "/>
<polyline clip-path="url(#clip762)" style="stroke:#000000; stroke-linecap:butt; stroke-linejoin:round; stroke-width:2; stroke-opacity:0.1; fill:none" points="
  234.133,971.16 3889.76,971.16 
  "/>
<polyline clip-path="url(#clip762)" style="stroke:#000000; stroke-linecap:butt; stroke-linejoin:round; stroke-width:2; stroke-opacity:0.1; fill:none" points="
  234.133,584.132 3889.76,584.132 
  "/>
<polyline clip-path="url(#clip762)" style="stroke:#000000; stroke-linecap:butt; stroke-linejoin:round; stroke-width:2; stroke-opacity:0.1; fill:none" points="
  234.133,197.105 3889.76,197.105 
  "/>
<polyline clip-path="url(#clip760)" style="stroke:#000000; stroke-linecap:butt; stroke-linejoin:round; stroke-width:4; stroke-opacity:1; fill:none" points="
  234.133,1393.02 234.133,162.272 
  "/>
<polyline clip-path="url(#clip760)" style="stroke:#000000; stroke-linecap:butt; stroke-linejoin:round; stroke-width:4; stroke-opacity:1; fill:none" points="
  234.133,1358.19 253.031,1358.19 
  "/>
<polyline clip-path="url(#clip760)" style="stroke:#000000; stroke-linecap:butt; stroke-linejoin:round; stroke-width:4; stroke-opacity:1; fill:none" points="
  234.133,971.16 253.031,971.16 
  "/>
<polyline clip-path="url(#clip760)" style="stroke:#000000; stroke-linecap:butt; stroke-linejoin:round; stroke-width:4; stroke-opacity:1; fill:none" points="
  234.133,584.132 253.031,584.132 
  "/>
<polyline clip-path="url(#clip760)" style="stroke:#000000; stroke-linecap:butt; stroke-linejoin:round; stroke-width:4; stroke-opacity:1; fill:none" points="
  234.133,197.105 253.031,197.105 
  "/>
<path clip-path="url(#clip760)" d="M162.189 1343.99 Q158.578 1343.99 156.749 1347.55 Q154.943 1351.09 154.943 1358.22 Q154.943 1365.33 156.749 1368.89 Q158.578 1372.43 162.189 1372.43 Q165.823 1372.43 167.628 1368.89 Q169.457 1365.33 169.457 1358.22 Q169.457 1351.09 167.628 1347.55 Q165.823 1343.99 162.189 1343.99 M162.189 1340.28 Q167.999 1340.28 171.054 1344.89 Q174.133 1349.47 174.133 1358.22 Q174.133 1366.95 171.054 1371.56 Q167.999 1376.14 162.189 1376.14 Q156.379 1376.14 153.3 1371.56 Q150.244 1366.95 150.244 1358.22 Q150.244 1349.47 153.3 1344.89 Q156.379 1340.28 162.189 1340.28 Z" fill="#000000" fill-rule="evenodd" fill-opacity="1" /><path clip-path="url(#clip760)" d="M154.226 984.505 L161.865 984.505 L161.865 958.139 L153.554 959.806 L153.554 955.546 L161.818 953.88 L166.494 953.88 L166.494 984.505 L174.133 984.505 L174.133 988.44 L154.226 988.44 L154.226 984.505 Z" fill="#000000" fill-rule="evenodd" fill-opacity="1" /><path clip-path="url(#clip760)" d="M157.814 597.477 L174.133 597.477 L174.133 601.412 L152.189 601.412 L152.189 597.477 Q154.851 594.722 159.434 590.093 Q164.041 585.44 165.221 584.098 Q167.466 581.574 168.346 579.838 Q169.249 578.079 169.249 576.389 Q169.249 573.635 167.304 571.899 Q165.383 570.162 162.281 570.162 Q160.082 570.162 157.629 570.926 Q155.198 571.69 152.42 573.241 L152.42 568.519 Q155.244 567.385 157.698 566.806 Q160.152 566.227 162.189 566.227 Q167.559 566.227 170.753 568.912 Q173.948 571.598 173.948 576.088 Q173.948 578.218 173.138 580.139 Q172.351 582.037 170.244 584.63 Q169.665 585.301 166.564 588.519 Q163.462 591.713 157.814 597.477 Z" fill="#000000" fill-rule="evenodd" fill-opacity="1" /><path clip-path="url(#clip760)" d="M167.003 195.751 Q170.36 196.468 172.235 198.737 Q174.133 201.005 174.133 204.338 Q174.133 209.454 170.615 212.255 Q167.096 215.056 160.615 215.056 Q158.439 215.056 156.124 214.616 Q153.832 214.2 151.379 213.343 L151.379 208.829 Q153.323 209.963 155.638 210.542 Q157.953 211.121 160.476 211.121 Q164.874 211.121 167.165 209.385 Q169.48 207.649 169.48 204.338 Q169.48 201.283 167.328 199.57 Q165.198 197.834 161.378 197.834 L157.351 197.834 L157.351 193.991 L161.564 193.991 Q165.013 193.991 166.841 192.626 Q168.67 191.237 168.67 188.644 Q168.67 185.982 166.772 184.57 Q164.897 183.135 161.378 183.135 Q159.457 183.135 157.258 183.552 Q155.059 183.968 152.42 184.848 L152.42 180.681 Q155.082 179.94 157.397 179.57 Q159.735 179.2 161.795 179.2 Q167.119 179.2 170.221 181.63 Q173.323 184.038 173.323 188.158 Q173.323 191.028 171.679 193.019 Q170.036 194.987 167.003 195.751 Z" fill="#000000" fill-rule="evenodd" fill-opacity="1" /><path clip-path="url(#clip760)" d="M40.3403 876.171 L40.3403 848.353 L45.6875 848.353 L71.3095 870.378 L71.3095 848.353 L75.9883 848.353 L75.9883 876.967 L70.6411 876.967 L45.0191 854.942 L45.0191 876.171 L40.3403 876.171 Z" fill="#000000" fill-rule="evenodd" fill-opacity="1" /><path clip-path="url(#clip760)" d="M26.5267 804.621 Q33.8473 808.886 41.0087 810.955 Q48.1701 813.023 55.5225 813.023 Q62.8749 813.023 70.1 810.955 Q77.2933 808.854 84.582 804.621 L84.582 809.713 Q77.1023 814.488 69.8772 816.875 Q62.6521 819.23 55.5225 819.23 Q48.4248 819.23 41.2315 816.875 Q34.0383 814.519 26.5267 809.713 L26.5267 804.621 Z" fill="#000000" fill-rule="evenodd" fill-opacity="1" /><path clip-path="url(#clip760)" d="M26.4631 793.481 L26.4631 787.592 L55.7135 787.592 L40.3403 770.119 L40.3403 762.639 L57.0185 781.545 L75.9883 761.843 L75.9883 769.482 L58.5781 787.592 L75.9883 787.592 L75.9883 793.481 L26.4631 793.481 Z" fill="#000000" fill-rule="evenodd" fill-opacity="1" /><path clip-path="url(#clip760)" d="M47.1835 727.755 Q43.2367 725.559 41.3588 722.503 Q39.481 719.448 39.481 715.31 Q39.481 709.74 43.3959 706.716 Q47.2789 703.692 54.4722 703.692 L75.9883 703.692 L75.9883 709.581 L54.6632 709.581 Q49.5388 709.581 47.0561 711.395 Q44.5735 713.209 44.5735 716.933 Q44.5735 721.485 47.5972 724.126 Q50.6209 726.768 55.8408 726.768 L75.9883 726.768 L75.9883 732.656 L54.6632 732.656 Q49.5069 732.656 47.0561 734.471 Q44.5735 736.285 44.5735 740.072 Q44.5735 744.56 47.6291 747.202 Q50.6528 749.844 55.8408 749.844 L75.9883 749.844 L75.9883 755.732 L40.3403 755.732 L40.3403 749.844 L45.8785 749.844 Q42.6002 747.839 41.0406 745.038 Q39.481 742.237 39.481 738.385 Q39.481 734.502 41.4543 731.797 Q43.4277 729.06 47.1835 727.755 Z" fill="#000000" fill-rule="evenodd" fill-opacity="1" /><path clip-path="url(#clip760)" d="M26.5267 692.934 L26.5267 687.842 Q34.0383 683.067 41.2315 680.712 Q48.4248 678.325 55.5225 678.325 Q62.6521 678.325 69.8772 680.712 Q77.1023 683.067 84.582 687.842 L84.582 692.934 Q77.2933 688.701 70.1 686.632 Q62.8749 684.532 55.5225 684.532 Q48.1701 684.532 41.0087 686.632 Q33.8473 688.701 26.5267 692.934 Z" fill="#000000" fill-rule="evenodd" fill-opacity="1" /><path clip-path="url(#clip760)" d="M1932.3 65.7705 L1932.3 89.8329 L1924.81 89.8329 L1924.81 27.2059 L1932.3 27.2059 L1932.3 34.0924 Q1934.65 30.0415 1938.21 28.0971 Q1941.82 26.1121 1946.8 26.1121 Q1955.07 26.1121 1960.21 32.6746 Q1965.4 39.2371 1965.4 49.9314 Q1965.4 60.6258 1960.21 67.1883 Q1955.07 73.7508 1946.8 73.7508 Q1941.82 73.7508 1938.21 71.8063 Q1934.65 69.8214 1932.3 65.7705 M1957.66 49.9314 Q1957.66 41.7081 1954.26 37.0496 Q1950.89 32.3505 1944.98 32.3505 Q1939.06 32.3505 1935.66 37.0496 Q1932.3 41.7081 1932.3 49.9314 Q1932.3 58.1548 1935.66 62.8538 Q1939.06 67.5124 1944.98 67.5124 Q1950.89 67.5124 1954.26 62.8538 Q1957.66 58.1548 1957.66 49.9314 Z" fill="#000000" fill-rule="evenodd" fill-opacity="1" /><path clip-path="url(#clip760)" d="M2022.03 9.62495 Q2016.6 18.942 2013.97 28.0566 Q2011.33 37.1711 2011.33 46.5287 Q2011.33 55.8863 2013.97 65.0818 Q2016.64 74.2369 2022.03 83.5134 L2015.55 83.5134 Q2009.47 73.9938 2006.43 64.7983 Q2003.43 55.6027 2003.43 46.5287 Q2003.43 37.4952 2006.43 28.3401 Q2009.43 19.1851 2015.55 9.62495 L2022.03 9.62495 Z" fill="#000000" fill-rule="evenodd" fill-opacity="1" /><path clip-path="url(#clip760)" d="M2036.2 9.54393 L2043.7 9.54393 L2043.7 46.7717 L2065.94 27.2059 L2075.46 27.2059 L2051.4 48.4326 L2076.47 72.576 L2066.75 72.576 L2043.7 50.4176 L2043.7 72.576 L2036.2 72.576 L2036.2 9.54393 Z" fill="#000000" fill-rule="evenodd" fill-opacity="1" /><path clip-path="url(#clip760)" d="M2093.04 18.8205 L2093.04 41.5461 L2103.33 41.5461 Q2109.04 41.5461 2112.16 38.5889 Q2115.28 35.6318 2115.28 30.163 Q2115.28 24.7348 2112.16 21.7777 Q2109.04 18.8205 2103.33 18.8205 L2093.04 18.8205 M2084.86 12.096 L2103.33 12.096 Q2113.5 12.096 2118.68 16.714 Q2123.91 21.2916 2123.91 30.163 Q2123.91 39.1155 2118.68 43.6931 Q2113.5 48.2706 2103.33 48.2706 L2093.04 48.2706 L2093.04 72.576 L2084.86 72.576 L2084.86 12.096 Z" fill="#000000" fill-rule="evenodd" fill-opacity="1" /><path clip-path="url(#clip760)" d="M2151.45 49.7694 Q2142.42 49.7694 2138.94 51.8354 Q2135.45 53.9013 2135.45 58.8839 Q2135.45 62.8538 2138.04 65.2034 Q2140.68 67.5124 2145.17 67.5124 Q2151.37 67.5124 2155.1 63.1374 Q2158.87 58.7219 2158.87 51.4303 L2158.87 49.7694 L2151.45 49.7694 M2166.32 46.6907 L2166.32 72.576 L2158.87 72.576 L2158.87 65.6895 Q2156.31 69.8214 2152.51 71.8063 Q2148.7 73.7508 2143.19 73.7508 Q2136.22 73.7508 2132.09 69.8619 Q2128 65.9325 2128 59.3701 Q2128 51.7138 2133.1 47.825 Q2138.25 43.9361 2148.41 43.9361 L2158.87 43.9361 L2158.87 43.2069 Q2158.87 38.0623 2155.46 35.2672 Q2152.1 32.4315 2145.98 32.4315 Q2142.1 32.4315 2138.41 33.3632 Q2134.72 34.295 2131.32 36.1584 L2131.32 29.2718 Q2135.41 27.692 2139.26 26.9223 Q2143.11 26.1121 2146.75 26.1121 Q2156.6 26.1121 2161.46 31.2163 Q2166.32 36.3204 2166.32 46.6907 Z" fill="#000000" fill-rule="evenodd" fill-opacity="1" /><path clip-path="url(#clip760)" d="M2180.5 9.62495 L2186.98 9.62495 Q2193.06 19.1851 2196.05 28.3401 Q2199.09 37.4952 2199.09 46.5287 Q2199.09 55.6027 2196.05 64.7983 Q2193.06 73.9938 2186.98 83.5134 L2180.5 83.5134 Q2185.89 74.2369 2188.52 65.0818 Q2191.19 55.8863 2191.19 46.5287 Q2191.19 37.1711 2188.52 28.0566 Q2185.89 18.942 2180.5 9.62495 Z" fill="#000000" fill-rule="evenodd" fill-opacity="1" /><polyline clip-path="url(#clip762)" style="stroke:#009af9; stroke-linecap:butt; stroke-linejoin:round; stroke-width:4; stroke-opacity:1; fill:none" points="
  3753.21,1348.51 3687.27,1329.16 3621.64,1309.81 3556.33,1290.46 3491.32,1271.11 3426.63,1251.75 3362.25,1232.4 3298.18,1213.05 3234.42,1193.7 3170.96,1174.35 
  3107.8,1155 3044.95,1135.65 2982.41,1116.3 2920.16,1096.94 2858.22,1077.59 2796.57,1058.24 2735.22,1038.89 2674.17,1019.54 2613.41,1000.19 2552.95,980.835 
  2492.78,961.484 2432.9,942.133 2373.32,922.781 2314.02,903.43 2255.01,884.079 2196.28,864.727 2137.85,845.376 2079.69,826.024 2021.83,806.673 1964.24,787.322 
  1906.93,767.97 1849.91,748.619 1793.16,729.268 1736.69,709.916 1680.5,690.565 1624.58,671.213 1568.94,651.862 1513.57,632.511 1458.48,613.159 1403.65,593.808 
  1349.09,574.457 1294.81,555.105 1240.79,535.754 1187.03,516.402 1133.54,497.051 1080.32,477.7 1027.36,458.348 974.66,438.997 922.222,419.646 870.044,400.294 
  818.124,380.943 766.463,361.591 715.058,342.24 663.909,322.889 613.014,303.537 562.373,284.186 511.984,264.835 461.846,245.483 411.959,226.132 362.32,206.78 
  
  "/>
<polyline clip-path="url(#clip762)" style="stroke:#e26f46; stroke-linecap:butt; stroke-linejoin:round; stroke-width:4; stroke-opacity:1; fill:none" points="
  3786.3,1358.19 3720.2,1338.84 3654.42,1319.48 3588.94,1300.13 3523.79,1280.78 3458.94,1261.43 3394.4,1242.08 3330.18,1222.73 3266.26,1203.38 3202.65,1184.02 
  3139.34,1164.67 3076.34,1145.32 3013.64,1125.97 2951.25,1106.62 2889.15,1087.27 2827.36,1067.92 2765.86,1048.57 2704.66,1029.21 2643.75,1009.86 2583.15,990.511 
  2522.83,971.16 2462.81,951.808 2403.07,932.457 2343.63,913.106 2284.48,893.754 2225.61,874.403 2167.03,855.051 2108.74,835.7 2050.72,816.349 1993,796.997 
  1935.55,777.646 1878.39,758.295 1821.5,738.943 1764.89,719.592 1708.56,700.24 1652.51,680.889 1596.73,661.538 1541.22,642.186 1485.99,622.835 1431.03,603.484 
  1376.34,584.132 1321.92,564.781 1267.76,545.429 1213.88,526.078 1160.25,506.727 1106.9,487.375 1053.81,468.024 1000.98,448.673 948.409,429.321 896.101,409.97 
  844.052,390.618 792.261,371.267 740.728,351.916 689.451,332.564 638.43,313.213 587.662,293.862 537.147,274.51 486.884,255.159 436.871,235.807 387.108,216.456 
  337.594,197.105 
  "/>
<path clip-path="url(#clip760)" d="
M3189.44 358.817 L3767.91 358.817 L3767.91 203.297 L3189.44 203.297  Z
  " fill="#ffffff" fill-rule="evenodd" fill-opacity="1"/>
<polyline clip-path="url(#clip760)" style="stroke:#000000; stroke-linecap:butt; stroke-linejoin:round; stroke-width:4; stroke-opacity:1; fill:none" points="
  3189.44,358.817 3767.91,358.817 3767.91,203.297 3189.44,203.297 3189.44,358.817 
  "/>
<polyline clip-path="url(#clip760)" style="stroke:#009af9; stroke-linecap:butt; stroke-linejoin:round; stroke-width:4; stroke-opacity:1; fill:none" points="
  3230.06,255.137 3473.76,255.137 
  "/>
<path clip-path="url(#clip760)" d="M3534.89 247.487 L3534.89 251.468 Q3533.09 250.473 3531.26 249.987 Q3529.45 249.477 3527.6 249.477 Q3523.46 249.477 3521.16 252.116 Q3518.87 254.732 3518.87 259.477 Q3518.87 264.223 3521.16 266.862 Q3523.46 269.477 3527.6 269.477 Q3529.45 269.477 3531.26 268.991 Q3533.09 268.482 3534.89 267.487 L3534.89 271.422 Q3533.11 272.255 3531.19 272.672 Q3529.29 273.088 3527.14 273.088 Q3521.28 273.088 3517.83 269.408 Q3514.38 265.727 3514.38 259.477 Q3514.38 253.135 3517.85 249.501 Q3521.35 245.866 3527.41 245.866 Q3529.38 245.866 3531.26 246.283 Q3533.13 246.677 3534.89 247.487 Z" fill="#000000" fill-rule="evenodd" fill-opacity="1" /><path clip-path="url(#clip760)" d="M3564.47 258.389 L3564.47 260.473 L3544.89 260.473 Q3545.17 264.871 3547.53 267.186 Q3549.91 269.477 3554.15 269.477 Q3556.6 269.477 3558.9 268.876 Q3561.21 268.274 3563.48 267.07 L3563.48 271.098 Q3561.19 272.07 3558.78 272.579 Q3556.37 273.088 3553.9 273.088 Q3547.69 273.088 3544.06 269.477 Q3540.45 265.866 3540.45 259.709 Q3540.45 253.343 3543.87 249.616 Q3547.32 245.866 3553.16 245.866 Q3558.39 245.866 3561.42 249.246 Q3564.47 252.602 3564.47 258.389 M3560.22 257.139 Q3560.17 253.644 3558.25 251.561 Q3556.35 249.477 3553.2 249.477 Q3549.64 249.477 3547.48 251.491 Q3545.35 253.505 3545.03 257.163 L3560.22 257.139 Z" fill="#000000" fill-rule="evenodd" fill-opacity="1" /><path clip-path="url(#clip760)" d="M3593.02 256.769 L3593.02 272.417 L3588.76 272.417 L3588.76 256.908 Q3588.76 253.227 3587.32 251.399 Q3585.89 249.57 3583.02 249.57 Q3579.57 249.57 3577.58 251.769 Q3575.59 253.968 3575.59 257.764 L3575.59 272.417 L3571.3 272.417 L3571.3 246.491 L3575.59 246.491 L3575.59 250.519 Q3577.11 248.181 3579.17 247.024 Q3581.26 245.866 3583.97 245.866 Q3588.43 245.866 3590.72 248.644 Q3593.02 251.399 3593.02 256.769 Z" fill="#000000" fill-rule="evenodd" fill-opacity="1" /><path clip-path="url(#clip760)" d="M3605.72 239.13 L3605.72 246.491 L3614.5 246.491 L3614.5 249.802 L3605.72 249.802 L3605.72 263.876 Q3605.72 267.047 3606.58 267.95 Q3607.46 268.852 3610.12 268.852 L3614.5 268.852 L3614.5 272.417 L3610.12 272.417 Q3605.19 272.417 3603.32 270.588 Q3601.44 268.737 3601.44 263.876 L3601.44 249.802 L3598.32 249.802 L3598.32 246.491 L3601.44 246.491 L3601.44 239.13 L3605.72 239.13 Z" fill="#000000" fill-rule="evenodd" fill-opacity="1" /><path clip-path="url(#clip760)" d="M3642.28 258.389 L3642.28 260.473 L3622.69 260.473 Q3622.97 264.871 3625.33 267.186 Q3627.72 269.477 3631.95 269.477 Q3634.4 269.477 3636.7 268.876 Q3639.01 268.274 3641.28 267.07 L3641.28 271.098 Q3638.99 272.07 3636.58 272.579 Q3634.17 273.088 3631.7 273.088 Q3625.49 273.088 3621.86 269.477 Q3618.25 265.866 3618.25 259.709 Q3618.25 253.343 3621.67 249.616 Q3625.12 245.866 3630.96 245.866 Q3636.19 245.866 3639.22 249.246 Q3642.28 252.602 3642.28 258.389 M3638.02 257.139 Q3637.97 253.644 3636.05 251.561 Q3634.15 249.477 3631 249.477 Q3627.44 249.477 3625.28 251.491 Q3623.16 253.505 3622.83 257.163 L3638.02 257.139 Z" fill="#000000" fill-rule="evenodd" fill-opacity="1" /><path clip-path="url(#clip760)" d="M3664.29 250.473 Q3663.57 250.056 3662.71 249.871 Q3661.88 249.663 3660.86 249.663 Q3657.25 249.663 3655.31 252.024 Q3653.39 254.362 3653.39 258.76 L3653.39 272.417 L3649.1 272.417 L3649.1 246.491 L3653.39 246.491 L3653.39 250.519 Q3654.73 248.158 3656.88 247.024 Q3659.03 245.866 3662.11 245.866 Q3662.55 245.866 3663.09 245.936 Q3663.62 245.982 3664.27 246.098 L3664.29 250.473 Z" fill="#000000" fill-rule="evenodd" fill-opacity="1" /><path clip-path="url(#clip760)" d="M3685.28 247.255 L3685.28 251.283 Q3683.48 250.357 3681.53 249.894 Q3679.59 249.431 3677.51 249.431 Q3674.34 249.431 3672.74 250.403 Q3671.16 251.376 3671.16 253.32 Q3671.16 254.802 3672.3 255.658 Q3673.43 256.491 3676.86 257.255 L3678.32 257.579 Q3682.85 258.552 3684.75 260.334 Q3686.67 262.093 3686.67 265.264 Q3686.67 268.876 3683.8 270.982 Q3680.96 273.088 3675.96 273.088 Q3673.87 273.088 3671.6 272.672 Q3669.36 272.278 3666.86 271.468 L3666.86 267.07 Q3669.22 268.297 3671.51 268.922 Q3673.8 269.524 3676.05 269.524 Q3679.06 269.524 3680.68 268.505 Q3682.3 267.463 3682.3 265.589 Q3682.3 263.852 3681.12 262.926 Q3679.96 262.001 3676 261.144 L3674.52 260.797 Q3670.56 259.964 3668.8 258.251 Q3667.04 256.514 3667.04 253.505 Q3667.04 249.848 3669.64 247.857 Q3672.23 245.866 3677 245.866 Q3679.36 245.866 3681.44 246.214 Q3683.53 246.561 3685.28 247.255 Z" fill="#000000" fill-rule="evenodd" fill-opacity="1" /><polyline clip-path="url(#clip760)" style="stroke:#e26f46; stroke-linecap:butt; stroke-linejoin:round; stroke-width:4; stroke-opacity:1; fill:none" points="
  3230.06,306.977 3473.76,306.977 
  "/>
<path clip-path="url(#clip760)" d="M3530.89 288.239 L3530.89 291.78 L3526.81 291.78 Q3524.52 291.78 3523.62 292.706 Q3522.74 293.632 3522.74 296.04 L3522.74 298.331 L3529.75 298.331 L3529.75 301.642 L3522.74 301.642 L3522.74 324.257 L3518.46 324.257 L3518.46 301.642 L3514.38 301.642 L3514.38 298.331 L3518.46 298.331 L3518.46 296.526 Q3518.46 292.197 3520.47 290.23 Q3522.48 288.239 3526.86 288.239 L3530.89 288.239 Z" fill="#000000" fill-rule="evenodd" fill-opacity="1" /><path clip-path="url(#clip760)" d="M3546.23 311.225 Q3541.07 311.225 3539.08 312.405 Q3537.09 313.586 3537.09 316.433 Q3537.09 318.702 3538.57 320.044 Q3540.08 321.364 3542.65 321.364 Q3546.19 321.364 3548.32 318.864 Q3550.47 316.341 3550.47 312.174 L3550.47 311.225 L3546.23 311.225 M3554.73 309.466 L3554.73 324.257 L3550.47 324.257 L3550.47 320.322 Q3549.01 322.683 3546.84 323.817 Q3544.66 324.928 3541.51 324.928 Q3537.53 324.928 3535.17 322.706 Q3532.83 320.461 3532.83 316.711 Q3532.83 312.336 3535.75 310.114 Q3538.69 307.892 3544.5 307.892 L3550.47 307.892 L3550.47 307.475 Q3550.47 304.535 3548.53 302.938 Q3546.6 301.317 3543.11 301.317 Q3540.89 301.317 3538.78 301.85 Q3536.67 302.382 3534.73 303.447 L3534.73 299.512 Q3537.07 298.609 3539.27 298.169 Q3541.47 297.706 3543.55 297.706 Q3549.17 297.706 3551.95 300.623 Q3554.73 303.54 3554.73 309.466 Z" fill="#000000" fill-rule="evenodd" fill-opacity="1" /><path clip-path="url(#clip760)" d="M3582.16 299.327 L3582.16 303.308 Q3580.35 302.313 3578.53 301.827 Q3576.72 301.317 3574.87 301.317 Q3570.72 301.317 3568.43 303.956 Q3566.14 306.572 3566.14 311.317 Q3566.14 316.063 3568.43 318.702 Q3570.72 321.317 3574.87 321.317 Q3576.72 321.317 3578.53 320.831 Q3580.35 320.322 3582.16 319.327 L3582.16 323.262 Q3580.38 324.095 3578.46 324.512 Q3576.56 324.928 3574.41 324.928 Q3568.55 324.928 3565.1 321.248 Q3561.65 317.567 3561.65 311.317 Q3561.65 304.975 3565.12 301.341 Q3568.62 297.706 3574.68 297.706 Q3576.65 297.706 3578.53 298.123 Q3580.4 298.517 3582.16 299.327 Z" fill="#000000" fill-rule="evenodd" fill-opacity="1" /><path clip-path="url(#clip760)" d="M3611.74 310.229 L3611.74 312.313 L3592.16 312.313 Q3592.44 316.711 3594.8 319.026 Q3597.18 321.317 3601.42 321.317 Q3603.87 321.317 3606.16 320.716 Q3608.48 320.114 3610.75 318.91 L3610.75 322.938 Q3608.46 323.91 3606.05 324.419 Q3603.64 324.928 3601.16 324.928 Q3594.96 324.928 3591.33 321.317 Q3587.72 317.706 3587.72 311.549 Q3587.72 305.183 3591.14 301.456 Q3594.59 297.706 3600.42 297.706 Q3605.66 297.706 3608.69 301.086 Q3611.74 304.442 3611.74 310.229 M3607.48 308.979 Q3607.44 305.484 3605.52 303.401 Q3603.62 301.317 3600.47 301.317 Q3596.91 301.317 3594.75 303.331 Q3592.62 305.345 3592.3 309.003 L3607.48 308.979 Z" fill="#000000" fill-rule="evenodd" fill-opacity="1" /><path clip-path="url(#clip760)" d="M3635.26 299.095 L3635.26 303.123 Q3633.46 302.197 3631.51 301.734 Q3629.57 301.271 3627.48 301.271 Q3624.31 301.271 3622.72 302.243 Q3621.14 303.216 3621.14 305.16 Q3621.14 306.642 3622.28 307.498 Q3623.41 308.331 3626.84 309.095 L3628.29 309.419 Q3632.83 310.392 3634.73 312.174 Q3636.65 313.933 3636.65 317.104 Q3636.65 320.716 3633.78 322.822 Q3630.93 324.928 3625.93 324.928 Q3623.85 324.928 3621.58 324.512 Q3619.34 324.118 3616.84 323.308 L3616.84 318.91 Q3619.2 320.137 3621.49 320.762 Q3623.78 321.364 3626.03 321.364 Q3629.03 321.364 3630.65 320.345 Q3632.28 319.303 3632.28 317.429 Q3632.28 315.692 3631.09 314.766 Q3629.94 313.841 3625.98 312.984 L3624.5 312.637 Q3620.54 311.804 3618.78 310.091 Q3617.02 308.354 3617.02 305.345 Q3617.02 301.688 3619.61 299.697 Q3622.21 297.706 3626.97 297.706 Q3629.34 297.706 3631.42 298.054 Q3633.5 298.401 3635.26 299.095 Z" fill="#000000" fill-rule="evenodd" fill-opacity="1" /></svg>
