<?xml version="1.0" encoding="utf-8"?>
<svg xmlns="http://www.w3.org/2000/svg" xmlns:xlink="http://www.w3.org/1999/xlink" width="1000" height="400" viewBox="0 0 4000 1600">
<defs>
  <clipPath id="clip030">
    <rect x="0" y="0" width="4000" height="1600"/>
  </clipPath>
</defs>
<path clip-path="url(#clip030)" d="
M0 1600 L4000 1600 L4000 0 L0 0  Z
  " fill="#ffffff" fill-rule="evenodd" fill-opacity="1"/>
<defs>
  <clipPath id="clip031">
    <rect x="800" y="0" width="2801" height="1600"/>
  </clipPath>
</defs>
<path clip-path="url(#clip030)" d="
M262.212 1393.02 L3889.76 1393.02 L3889.76 162.272 L262.212 162.272  Z
  " fill="#ffffff" fill-rule="evenodd" fill-opacity="1"/>
<defs>
  <clipPath id="clip032">
    <rect x="262" y="162" width="3629" height="1232"/>
  </clipPath>
</defs>
<polyline clip-path="url(#clip032)" style="stroke:#000000; stroke-linecap:butt; stroke-linejoin:round; stroke-width:2; stroke-opacity:0.1; fill:none" points="
  715.097,1393.02 715.097,162.272 
  "/>
<polyline clip-path="url(#clip032)" style="stroke:#000000; stroke-linecap:butt; stroke-linejoin:round; stroke-width:2; stroke-opacity:0.1; fill:none" points="
  1491.54,1393.02 1491.54,162.272 
  "/>
<polyline clip-path="url(#clip032)" style="stroke:#000000; stroke-linecap:butt; stroke-linejoin:round; stroke-width:2; stroke-opacity:0.1; fill:none" points="
  2267.98,1393.02 2267.98,162.272 
  "/>
<polyline clip-path="url(#clip032)" style="stroke:#000000; stroke-linecap:butt; stroke-linejoin:round; stroke-width:2; stroke-opacity:0.1; fill:none" points="
  3044.43,1393.02 3044.43,162.272 
  "/>
<polyline clip-path="url(#clip032)" style="stroke:#000000; stroke-linecap:butt; stroke-linejoin:round; stroke-width:2; stroke-opacity:0.1; fill:none" points="
  3820.87,1393.02 3820.87,162.272 
  "/>
<polyline clip-path="url(#clip030)" style="stroke:#000000; stroke-linecap:butt; stroke-linejoin:round; stroke-width:4; stroke-opacity:1; fill:none" points="
  262.212,1393.02 3889.76,1393.02 
  "/>
<polyline clip-path="url(#clip030)" style="stroke:#000000; stroke-linecap:butt; stroke-linejoin:round; stroke-width:4; stroke-opacity:1; fill:none" points="
  715.097,1393.02 715.097,1374.12 
  "/>
<polyline clip-path="url(#clip030)" style="stroke:#000000; stroke-linecap:butt; stroke-linejoin:round; stroke-width:4; stroke-opacity:1; fill:none" points="
  1491.54,1393.02 1491.54,1374.12 
  "/>
<polyline clip-path="url(#clip030)" style="stroke:#000000; stroke-linecap:butt; stroke-linejoin:round; stroke-width:4; stroke-opacity:1; fill:none" points="
  2267.98,1393.02 2267.98,1374.12 
  "/>
<polyline clip-path="url(#clip030)" style="stroke:#000000; stroke-linecap:butt; stroke-linejoin:round; stroke-width:4; stroke-opacity:1; fill:none" points="
  3044.43,1393.02 3044.43,1374.12 
  "/>
<polyline clip-path="url(#clip030)" style="stroke:#000000; stroke-linecap:butt; stroke-linejoin:round; stroke-width:4; stroke-opacity:1; fill:none" points="
  3820.87,1393.02 3820.87,1374.12 
  "/>
<path clip-path="url(#clip030)" d="M693.87 1464.28 L710.19 1464.28 L710.19 1468.22 L688.246 1468.22 L688.246 1464.28 Q690.908 1461.53 695.491 1456.9 Q700.097 1452.25 701.278 1450.9 Q703.523 1448.38 704.403 1446.65 Q705.306 1444.89 705.306 1443.2 Q705.306 1440.44 703.361 1438.71 Q701.44 1436.97 698.338 1436.97 Q696.139 1436.97 693.685 1437.73 Q691.255 1438.5 688.477 1440.05 L688.477 1435.33 Q691.301 1434.19 693.755 1433.61 Q696.208 1433.03 698.245 1433.03 Q703.616 1433.03 706.81 1435.72 Q710.005 1438.41 710.005 1442.9 Q710.005 1445.03 709.194 1446.95 Q708.407 1448.84 706.301 1451.44 Q705.722 1452.11 702.62 1455.33 Q699.519 1458.52 693.87 1464.28 Z" fill="#000000" fill-rule="evenodd" fill-opacity="1" /><path clip-path="url(#clip030)" d="M730.005 1436.74 Q726.393 1436.74 724.565 1440.3 Q722.759 1443.84 722.759 1450.97 Q722.759 1458.08 724.565 1461.65 Q726.393 1465.19 730.005 1465.19 Q733.639 1465.19 735.444 1461.65 Q737.273 1458.08 737.273 1450.97 Q737.273 1443.84 735.444 1440.3 Q733.639 1436.74 730.005 1436.74 M730.005 1433.03 Q735.815 1433.03 738.87 1437.64 Q741.949 1442.22 741.949 1450.97 Q741.949 1459.7 738.87 1464.31 Q735.815 1468.89 730.005 1468.89 Q724.194 1468.89 721.116 1464.31 Q718.06 1459.7 718.06 1450.97 Q718.06 1442.22 721.116 1437.64 Q724.194 1433.03 730.005 1433.03 Z" fill="#000000" fill-rule="evenodd" fill-opacity="1" /><path clip-path="url(#clip030)" d="M1479.71 1437.73 L1467.91 1456.18 L1479.71 1456.18 L1479.71 1437.73 M1478.49 1433.66 L1484.37 1433.66 L1484.37 1456.18 L1489.3 1456.18 L1489.3 1460.07 L1484.37 1460.07 L1484.37 1468.22 L1479.71 1468.22 L1479.71 1460.07 L1464.11 1460.07 L1464.11 1455.56 L1478.49 1433.66 Z" fill="#000000" fill-rule="evenodd" fill-opacity="1" /><path clip-path="url(#clip030)" d="M1507.03 1436.74 Q1503.42 1436.74 1501.59 1440.3 Q1499.78 1443.84 1499.78 1450.97 Q1499.78 1458.08 1501.59 1461.65 Q1503.42 1465.19 1507.03 1465.19 Q1510.66 1465.19 1512.47 1461.65 Q1514.3 1458.08 1514.3 1450.97 Q1514.3 1443.84 1512.47 1440.3 Q1510.66 1436.74 1507.03 1436.74 M1507.03 1433.03 Q1512.84 1433.03 1515.89 1437.64 Q1518.97 1442.22 1518.97 1450.97 Q1518.97 1459.7 1515.89 1464.31 Q1512.84 1468.89 1507.03 1468.89 Q1501.22 1468.89 1498.14 1464.31 Q1495.08 1459.7 1495.08 1450.97 Q1495.08 1442.22 1498.14 1437.64 Q1501.22 1433.03 1507.03 1433.03 Z" fill="#000000" fill-rule="evenodd" fill-opacity="1" /><path clip-path="url(#clip030)" d="M2253.39 1449.08 Q2250.24 1449.08 2248.39 1451.23 Q2246.56 1453.38 2246.56 1457.13 Q2246.56 1460.86 2248.39 1463.03 Q2250.24 1465.19 2253.39 1465.19 Q2256.54 1465.19 2258.37 1463.03 Q2260.22 1460.86 2260.22 1457.13 Q2260.22 1453.38 2258.37 1451.23 Q2256.54 1449.08 2253.39 1449.08 M2262.67 1434.42 L2262.67 1438.68 Q2260.91 1437.85 2259.11 1437.41 Q2257.33 1436.97 2255.57 1436.97 Q2250.94 1436.97 2248.48 1440.09 Q2246.05 1443.22 2245.7 1449.54 Q2247.07 1447.53 2249.13 1446.46 Q2251.19 1445.37 2253.67 1445.37 Q2258.88 1445.37 2261.89 1448.54 Q2264.92 1451.69 2264.92 1457.13 Q2264.92 1462.46 2261.77 1465.67 Q2258.62 1468.89 2253.39 1468.89 Q2247.39 1468.89 2244.22 1464.31 Q2241.05 1459.7 2241.05 1450.97 Q2241.05 1442.78 2244.94 1437.92 Q2248.83 1433.03 2255.38 1433.03 Q2257.14 1433.03 2258.92 1433.38 Q2260.73 1433.73 2262.67 1434.42 Z" fill="#000000" fill-rule="evenodd" fill-opacity="1" /><path clip-path="url(#clip030)" d="M2282.97 1436.74 Q2279.36 1436.74 2277.53 1440.3 Q2275.73 1443.84 2275.73 1450.97 Q2275.73 1458.08 2277.53 1461.65 Q2279.36 1465.19 2282.97 1465.19 Q2286.61 1465.19 2288.41 1461.65 Q2290.24 1458.08 2290.24 1450.97 Q2290.24 1443.84 2288.41 1440.3 Q2286.61 1436.74 2282.97 1436.74 M2282.97 1433.03 Q2288.78 1433.03 2291.84 1437.64 Q2294.92 1442.22 2294.92 1450.97 Q2294.92 1459.7 2291.84 1464.31 Q2288.78 1468.89 2282.97 1468.89 Q2277.16 1468.89 2274.08 1464.31 Q2271.03 1459.7 2271.03 1450.97 Q2271.03 1442.22 2274.08 1437.64 Q2277.16 1433.03 2282.97 1433.03 Z" fill="#000000" fill-rule="evenodd" fill-opacity="1" /><path clip-path="url(#clip030)" d="M3029.3 1451.81 Q3025.97 1451.81 3024.05 1453.59 Q3022.15 1455.37 3022.15 1458.5 Q3022.15 1461.62 3024.05 1463.4 Q3025.97 1465.19 3029.3 1465.19 Q3032.63 1465.19 3034.56 1463.4 Q3036.48 1461.6 3036.48 1458.5 Q3036.48 1455.37 3034.56 1453.59 Q3032.66 1451.81 3029.3 1451.81 M3024.63 1449.82 Q3021.62 1449.08 3019.93 1447.02 Q3018.26 1444.96 3018.26 1441.99 Q3018.26 1437.85 3021.2 1435.44 Q3024.16 1433.03 3029.3 1433.03 Q3034.46 1433.03 3037.4 1435.44 Q3040.34 1437.85 3040.34 1441.99 Q3040.34 1444.96 3038.65 1447.02 Q3036.99 1449.08 3034 1449.82 Q3037.38 1450.6 3039.26 1452.9 Q3041.15 1455.19 3041.15 1458.5 Q3041.15 1463.52 3038.07 1466.21 Q3035.02 1468.89 3029.3 1468.89 Q3023.58 1468.89 3020.51 1466.21 Q3017.45 1463.52 3017.45 1458.5 Q3017.45 1455.19 3019.35 1452.9 Q3021.25 1450.6 3024.63 1449.82 M3022.91 1442.43 Q3022.91 1445.12 3024.58 1446.62 Q3026.27 1448.13 3029.3 1448.13 Q3032.31 1448.13 3034 1446.62 Q3035.71 1445.12 3035.71 1442.43 Q3035.71 1439.75 3034 1438.24 Q3032.31 1436.74 3029.3 1436.74 Q3026.27 1436.74 3024.58 1438.24 Q3022.91 1439.75 3022.91 1442.43 Z" fill="#000000" fill-rule="evenodd" fill-opacity="1" /><path clip-path="url(#clip030)" d="M3059.46 1436.74 Q3055.85 1436.74 3054.02 1440.3 Q3052.22 1443.84 3052.22 1450.97 Q3052.22 1458.08 3054.02 1461.65 Q3055.85 1465.19 3059.46 1465.19 Q3063.1 1465.19 3064.9 1461.65 Q3066.73 1458.08 3066.73 1450.97 Q3066.73 1443.84 3064.9 1440.3 Q3063.1 1436.74 3059.46 1436.74 M3059.46 1433.03 Q3065.27 1433.03 3068.33 1437.64 Q3071.41 1442.22 3071.41 1450.97 Q3071.41 1459.7 3068.33 1464.31 Q3065.27 1468.89 3059.46 1468.89 Q3053.65 1468.89 3050.57 1464.31 Q3047.52 1459.7 3047.52 1450.97 Q3047.52 1442.22 3050.57 1437.64 Q3053.65 1433.03 3059.46 1433.03 Z" fill="#000000" fill-rule="evenodd" fill-opacity="1" /><path clip-path="url(#clip030)" d="M3780.48 1464.28 L3788.12 1464.28 L3788.12 1437.92 L3779.81 1439.59 L3779.81 1435.33 L3788.07 1433.66 L3792.75 1433.66 L3792.75 1464.28 L3800.39 1464.28 L3800.39 1468.22 L3780.48 1468.22 L3780.48 1464.28 Z" fill="#000000" fill-rule="evenodd" fill-opacity="1" /><path clip-path="url(#clip030)" d="M3819.83 1436.74 Q3816.22 1436.74 3814.39 1440.3 Q3812.59 1443.84 3812.59 1450.97 Q3812.59 1458.08 3814.39 1461.65 Q3816.22 1465.19 3819.83 1465.19 Q3823.47 1465.19 3825.27 1461.65 Q3827.1 1458.08 3827.1 1450.97 Q3827.1 1443.84 3825.27 1440.3 Q3823.47 1436.74 3819.83 1436.74 M3819.83 1433.03 Q3825.64 1433.03 3828.7 1437.64 Q3831.78 1442.22 3831.78 1450.97 Q3831.78 1459.7 3828.7 1464.31 Q3825.64 1468.89 3819.83 1468.89 Q3814.02 1468.89 3810.94 1464.31 Q3807.89 1459.7 3807.89 1450.97 Q3807.89 1442.22 3810.94 1437.64 Q3814.02 1433.03 3819.83 1433.03 Z" fill="#000000" fill-rule="evenodd" fill-opacity="1" /><path clip-path="url(#clip030)" d="M3849.99 1436.74 Q3846.38 1436.74 3844.55 1440.3 Q3842.75 1443.84 3842.75 1450.97 Q3842.75 1458.08 3844.55 1461.65 Q3846.38 1465.19 3849.99 1465.19 Q3853.63 1465.19 3855.43 1461.65 Q3857.26 1458.08 3857.26 1450.97 Q3857.26 1443.84 3855.43 1440.3 Q3853.63 1436.74 3849.99 1436.74 M3849.99 1433.03 Q3855.8 1433.03 3858.86 1437.64 Q3861.94 1442.22 3861.94 1450.97 Q3861.94 1459.7 3858.86 1464.31 Q3855.8 1468.89 3849.99 1468.89 Q3844.18 1468.89 3841.1 1464.31 Q3838.05 1459.7 3838.05 1450.97 Q3838.05 1442.22 3841.1 1437.64 Q3844.18 1433.03 3849.99 1433.03 Z" fill="#000000" fill-rule="evenodd" fill-opacity="1" /><path clip-path="url(#clip030)" d="M1974.12 1556.54 L1974.12 1575.44 L1968.23 1575.44 L1968.23 1526.24 L1974.12 1526.24 L1974.12 1531.65 Q1975.97 1528.46 1978.77 1526.94 Q1981.6 1525.38 1985.52 1525.38 Q1992.01 1525.38 1996.05 1530.53 Q2000.12 1535.69 2000.12 1544.09 Q2000.12 1552.49 1996.05 1557.65 Q1992.01 1562.81 1985.52 1562.81 Q1981.6 1562.81 1978.77 1561.28 Q1975.97 1559.72 1974.12 1556.54 M1994.05 1544.09 Q1994.05 1537.63 1991.37 1533.97 Q1988.73 1530.28 1984.08 1530.28 Q1979.44 1530.28 1976.76 1533.97 Q1974.12 1537.63 1974.12 1544.09 Q1974.12 1550.55 1976.76 1554.24 Q1979.44 1557.91 1984.08 1557.91 Q1988.73 1557.91 1991.37 1554.24 Q1994.05 1550.55 1994.05 1544.09 Z" fill="#000000" fill-rule="evenodd" fill-opacity="1" /><path clip-path="url(#clip030)" d="M2044.62 1512.42 Q2040.36 1519.74 2038.29 1526.9 Q2036.22 1534.07 2036.22 1541.42 Q2036.22 1548.77 2038.29 1556 Q2040.39 1563.19 2044.62 1570.48 L2039.53 1570.48 Q2034.75 1563 2032.37 1555.77 Q2030.01 1548.55 2030.01 1541.42 Q2030.01 1534.32 2032.37 1527.13 Q2034.72 1519.93 2039.53 1512.42 L2044.62 1512.42 Z" fill="#000000" fill-rule="evenodd" fill-opacity="1" /><path clip-path="url(#clip030)" d="M2055.76 1512.36 L2061.65 1512.36 L2061.65 1541.61 L2079.12 1526.24 L2086.6 1526.24 L2067.7 1542.91 L2087.4 1561.88 L2079.76 1561.88 L2061.65 1544.47 L2061.65 1561.88 L2055.76 1561.88 L2055.76 1512.36 Z" fill="#000000" fill-rule="evenodd" fill-opacity="1" /><path clip-path="url(#clip030)" d="M2100.42 1519.65 L2100.42 1537.5 L2108.5 1537.5 Q2112.99 1537.5 2115.44 1535.18 Q2117.89 1532.86 2117.89 1528.56 Q2117.89 1524.29 2115.44 1521.97 Q2112.99 1519.65 2108.5 1519.65 L2100.42 1519.65 M2093.99 1514.36 L2108.5 1514.36 Q2116.49 1514.36 2120.56 1517.99 Q2124.67 1521.59 2124.67 1528.56 Q2124.67 1535.59 2120.56 1539.19 Q2116.49 1542.79 2108.5 1542.79 L2100.42 1542.79 L2100.42 1561.88 L2093.99 1561.88 L2093.99 1514.36 Z" fill="#000000" fill-rule="evenodd" fill-opacity="1" /><path clip-path="url(#clip030)" d="M2146.31 1543.96 Q2139.22 1543.96 2136.48 1545.59 Q2133.74 1547.21 2133.74 1551.13 Q2133.74 1554.24 2135.78 1556.09 Q2137.85 1557.91 2141.38 1557.91 Q2146.25 1557.91 2149.18 1554.47 Q2152.14 1551 2152.14 1545.27 L2152.14 1543.96 L2146.31 1543.96 M2157.99 1541.55 L2157.99 1561.88 L2152.14 1561.88 L2152.14 1556.47 Q2150.13 1559.72 2147.14 1561.28 Q2144.15 1562.81 2139.82 1562.81 Q2134.35 1562.81 2131.1 1559.75 Q2127.88 1556.66 2127.88 1551.51 Q2127.88 1545.49 2131.89 1542.44 Q2135.94 1539.38 2143.93 1539.38 L2152.14 1539.38 L2152.14 1538.81 Q2152.14 1534.77 2149.46 1532.57 Q2146.82 1530.34 2142.02 1530.34 Q2138.96 1530.34 2136.06 1531.07 Q2133.17 1531.81 2130.49 1533.27 L2130.49 1527.86 Q2133.71 1526.62 2136.73 1526.01 Q2139.76 1525.38 2142.62 1525.38 Q2150.36 1525.38 2154.17 1529.39 Q2157.99 1533.4 2157.99 1541.55 Z" fill="#000000" fill-rule="evenodd" fill-opacity="1" /><path clip-path="url(#clip030)" d="M2169.13 1512.42 L2174.23 1512.42 Q2179 1519.93 2181.36 1527.13 Q2183.74 1534.32 2183.74 1541.42 Q2183.74 1548.55 2181.36 1555.77 Q2179 1563 2174.23 1570.48 L2169.13 1570.48 Q2173.37 1563.19 2175.44 1556 Q2177.54 1548.77 2177.54 1541.42 Q2177.54 1534.07 2175.44 1526.9 Q2173.37 1519.74 2169.13 1512.42 Z" fill="#000000" fill-rule="evenodd" fill-opacity="1" /><polyline clip-path="url(#clip032)" style="stroke:#000000; stroke-linecap:butt; stroke-linejoin:round; stroke-width:2; stroke-opacity:0.1; fill:none" points="
  262.212,1358.19 3889.76,1358.19 
  "/>
<polyline clip-path="url(#clip032)" style="stroke:#000000; stroke-linecap:butt; stroke-linejoin:round; stroke-width:2; stroke-opacity:0.1; fill:none" points="
  262.212,995.349 3889.76,995.349 
  "/>
<polyline clip-path="url(#clip032)" style="stroke:#000000; stroke-linecap:butt; stroke-linejoin:round; stroke-width:2; stroke-opacity:0.1; fill:none" points="
  262.212,632.511 3889.76,632.511 
  "/>
<polyline clip-path="url(#clip032)" style="stroke:#000000; stroke-linecap:butt; stroke-linejoin:round; stroke-width:2; stroke-opacity:0.1; fill:none" points="
  262.212,269.672 3889.76,269.672 
  "/>
<polyline clip-path="url(#clip030)" style="stroke:#000000; stroke-linecap:butt; stroke-linejoin:round; stroke-width:4; stroke-opacity:1; fill:none" points="
  262.212,1393.02 262.212,162.272 
  "/>
<polyline clip-path="url(#clip030)" style="stroke:#000000; stroke-linecap:butt; stroke-linejoin:round; stroke-width:4; stroke-opacity:1; fill:none" points="
  262.212,1358.19 281.109,1358.19 
  "/>
<polyline clip-path="url(#clip030)" style="stroke:#000000; stroke-linecap:butt; stroke-linejoin:round; stroke-width:4; stroke-opacity:1; fill:none" points="
  262.212,995.349 281.109,995.349 
  "/>
<polyline clip-path="url(#clip030)" style="stroke:#000000; stroke-linecap:butt; stroke-linejoin:round; stroke-width:4; stroke-opacity:1; fill:none" points="
  262.212,632.511 281.109,632.511 
  "/>
<polyline clip-path="url(#clip030)" style="stroke:#000000; stroke-linecap:butt; stroke-linejoin:round; stroke-width:4; stroke-opacity:1; fill:none" points="
  262.212,269.672 281.109,269.672 
  "/>
<path clip-path="url(#clip030)" d="M190.267 1343.99 Q186.656 1343.99 184.827 1347.55 Q183.022 1351.09 183.022 1358.22 Q183.022 1365.33 184.827 1368.89 Q186.656 1372.43 190.267 1372.43 Q193.901 1372.43 195.707 1368.89 Q197.536 1365.33 197.536 1358.22 Q197.536 1351.09 195.707 1347.55 Q193.901 1343.99 190.267 1343.99 M190.267 1340.28 Q196.077 1340.28 199.133 1344.89 Q202.212 1349.47 202.212 1358.22 Q202.212 1366.95 199.133 1371.56 Q196.077 1376.14 190.267 1376.14 Q184.457 1376.14 181.378 1371.56 Q178.323 1366.95 178.323 1358.22 Q178.323 1349.47 181.378 1344.89 Q184.457 1340.28 190.267 1340.28 Z" fill="#000000" fill-rule="evenodd" fill-opacity="1" /><path clip-path="url(#clip030)" d="M181.309 978.069 L199.665 978.069 L199.665 982.004 L185.591 982.004 L185.591 990.476 Q186.61 990.129 187.628 989.967 Q188.647 989.782 189.665 989.782 Q195.452 989.782 198.832 992.953 Q202.212 996.124 202.212 1001.54 Q202.212 1007.12 198.739 1010.22 Q195.267 1013.3 188.948 1013.3 Q186.772 1013.3 184.503 1012.93 Q182.258 1012.56 179.851 1011.82 L179.851 1007.12 Q181.934 1008.25 184.156 1008.81 Q186.378 1009.37 188.855 1009.37 Q192.86 1009.37 195.198 1007.26 Q197.536 1005.15 197.536 1001.54 Q197.536 997.93 195.198 995.823 Q192.86 993.717 188.855 993.717 Q186.98 993.717 185.105 994.134 Q183.253 994.55 181.309 995.43 L181.309 978.069 Z" fill="#000000" fill-rule="evenodd" fill-opacity="1" /><path clip-path="url(#clip030)" d="M150.916 645.856 L158.554 645.856 L158.554 619.49 L150.244 621.157 L150.244 616.897 L158.508 615.231 L163.184 615.231 L163.184 645.856 L170.823 645.856 L170.823 649.791 L150.916 649.791 L150.916 645.856 Z" fill="#000000" fill-rule="evenodd" fill-opacity="1" /><path clip-path="url(#clip030)" d="M190.267 618.309 Q186.656 618.309 184.827 621.874 Q183.022 625.416 183.022 632.545 Q183.022 639.652 184.827 643.217 Q186.656 646.758 190.267 646.758 Q193.901 646.758 195.707 643.217 Q197.536 639.652 197.536 632.545 Q197.536 625.416 195.707 621.874 Q193.901 618.309 190.267 618.309 M190.267 614.606 Q196.077 614.606 199.133 619.212 Q202.212 623.795 202.212 632.545 Q202.212 641.272 199.133 645.879 Q196.077 650.462 190.267 650.462 Q184.457 650.462 181.378 645.879 Q178.323 641.272 178.323 632.545 Q178.323 623.795 181.378 619.212 Q184.457 614.606 190.267 614.606 Z" fill="#000000" fill-rule="evenodd" fill-opacity="1" /><path clip-path="url(#clip030)" d="M151.911 283.017 L159.55 283.017 L159.55 256.652 L151.24 258.318 L151.24 254.059 L159.503 252.392 L164.179 252.392 L164.179 283.017 L171.818 283.017 L171.818 286.952 L151.911 286.952 L151.911 283.017 Z" fill="#000000" fill-rule="evenodd" fill-opacity="1" /><path clip-path="url(#clip030)" d="M181.309 252.392 L199.665 252.392 L199.665 256.328 L185.591 256.328 L185.591 264.8 Q186.61 264.453 187.628 264.29 Q188.647 264.105 189.665 264.105 Q195.452 264.105 198.832 267.277 Q202.212 270.448 202.212 275.864 Q202.212 281.443 198.739 284.545 Q195.267 287.624 188.948 287.624 Q186.772 287.624 184.503 287.253 Q182.258 286.883 179.851 286.142 L179.851 281.443 Q181.934 282.577 184.156 283.133 Q186.378 283.689 188.855 283.689 Q192.86 283.689 195.198 281.582 Q197.536 279.476 197.536 275.864 Q197.536 272.253 195.198 270.147 Q192.86 268.04 188.855 268.04 Q186.98 268.04 185.105 268.457 Q183.253 268.874 181.309 269.753 L181.309 252.392 Z" fill="#000000" fill-rule="evenodd" fill-opacity="1" /><path clip-path="url(#clip030)" d="M40.3403 876.171 L40.3403 848.353 L45.6875 848.353 L71.3095 870.378 L71.3095 848.353 L75.9883 848.353 L75.9883 876.967 L70.6411 876.967 L45.0191 854.942 L45.0191 876.171 L40.3403 876.171 Z" fill="#000000" fill-rule="evenodd" fill-opacity="1" /><path clip-path="url(#clip030)" d="M26.5267 804.621 Q33.8473 808.886 41.0087 810.955 Q48.1701 813.023 55.5225 813.023 Q62.8749 813.023 70.1 810.955 Q77.2933 808.854 84.582 804.621 L84.582 809.713 Q77.1023 814.488 69.8772 816.875 Q62.6521 819.23 55.5225 819.23 Q48.4248 819.23 41.2315 816.875 Q34.0383 814.519 26.5267 809.713 L26.5267 804.621 Z" fill="#000000" fill-rule="evenodd" fill-opacity="1" /><path clip-path="url(#clip030)" d="M26.4631 793.481 L26.4631 787.592 L55.7135 787.592 L40.3403 770.119 L40.3403 762.639 L57.0185 781.545 L75.9883 761.843 L75.9883 769.482 L58.5781 787.592 L75.9883 787.592 L75.9883 793.481 L26.4631 793.481 Z" fill="#000000" fill-rule="evenodd" fill-opacity="1" /><path clip-path="url(#clip030)" d="M47.1835 727.755 Q43.2367 725.559 41.3588 722.503 Q39.481 719.448 39.481 715.31 Q39.481 709.74 43.3959 706.716 Q47.2789 703.692 54.4722 703.692 L75.9883 703.692 L75.9883 709.581 L54.6632 709.581 Q49.5388 709.581 47.0561 711.395 Q44.5735 713.209 44.5735 716.933 Q44.5735 721.485 47.5972 724.126 Q50.6209 726.768 55.8408 726.768 L75.9883 726.768 L75.9883 732.656 L54.6632 732.656 Q49.5069 732.656 47.0561 734.471 Q44.5735 736.285 44.5735 740.072 Q44.5735 744.56 47.6291 747.202 Q50.6528 749.844 55.8408 749.844 L75.9883 749.844 L75.9883 755.732 L40.3403 755.732 L40.3403 749.844 L45.8785 749.844 Q42.6002 747.839 41.0406 745.038 Q39.481 742.237 39.481 738.385 Q39.481 734.502 41.4543 731.797 Q43.4277 729.06 47.1835 727.755 Z" fill="#000000" fill-rule="evenodd" fill-opacity="1" /><path clip-path="url(#clip030)" d="M26.5267 692.934 L26.5267 687.842 Q34.0383 683.067 41.2315 680.712 Q48.4248 678.325 55.5225 678.325 Q62.6521 678.325 69.8772 680.712 Q77.1023 683.067 84.582 687.842 L84.582 692.934 Q77.2933 688.701 70.1 686.632 Q62.8749 684.532 55.5225 684.532 Q48.1701 684.532 41.0087 686.632 Q33.8473 688.701 26.5267 692.934 Z" fill="#000000" fill-rule="evenodd" fill-opacity="1" /><path clip-path="url(#clip030)" d="M1946.34 65.7705 L1946.34 89.8329 L1938.84 89.8329 L1938.84 27.2059 L1946.34 27.2059 L1946.34 34.0924 Q1948.69 30.0415 1952.25 28.0971 Q1955.86 26.1121 1960.84 26.1121 Q1969.1 26.1121 1974.25 32.6746 Q1979.43 39.2371 1979.43 49.9314 Q1979.43 60.6258 1974.25 67.1883 Q1969.1 73.7508 1960.84 73.7508 Q1955.86 73.7508 1952.25 71.8063 Q1948.69 69.8214 1946.34 65.7705 M1971.7 49.9314 Q1971.7 41.7081 1968.29 37.0496 Q1964.93 32.3505 1959.02 32.3505 Q1953.1 32.3505 1949.7 37.0496 Q1946.34 41.7081 1946.34 49.9314 Q1946.34 58.1548 1949.7 62.8538 Q1953.1 67.5124 1959.02 67.5124 Q1964.93 67.5124 1968.29 62.8538 Q1971.7 58.1548 1971.7 49.9314 Z" fill="#000000" fill-rule="evenodd" fill-opacity="1" /><path clip-path="url(#clip030)" d="M2036.07 9.62495 Q2030.64 18.942 2028 28.0566 Q2025.37 37.1711 2025.37 46.5287 Q2025.37 55.8863 2028 65.0818 Q2030.68 74.2369 2036.07 83.5134 L2029.58 83.5134 Q2023.51 73.9938 2020.47 64.7983 Q2017.47 55.6027 2017.47 46.5287 Q2017.47 37.4952 2020.47 28.3401 Q2023.47 19.1851 2029.58 9.62495 L2036.07 9.62495 Z" fill="#000000" fill-rule="evenodd" fill-opacity="1" /><path clip-path="url(#clip030)" d="M2050.24 9.54393 L2057.74 9.54393 L2057.74 46.7717 L2079.98 27.2059 L2089.5 27.2059 L2065.44 48.4326 L2090.51 72.576 L2080.79 72.576 L2057.74 50.4176 L2057.74 72.576 L2050.24 72.576 L2050.24 9.54393 Z" fill="#000000" fill-rule="evenodd" fill-opacity="1" /><path clip-path="url(#clip030)" d="M2107.08 18.8205 L2107.08 41.5461 L2117.37 41.5461 Q2123.08 41.5461 2126.2 38.5889 Q2129.32 35.6318 2129.32 30.163 Q2129.32 24.7348 2126.2 21.7777 Q2123.08 18.8205 2117.37 18.8205 L2107.08 18.8205 M2098.9 12.096 L2117.37 12.096 Q2127.54 12.096 2132.72 16.714 Q2137.95 21.2916 2137.95 30.163 Q2137.95 39.1155 2132.72 43.6931 Q2127.54 48.2706 2117.37 48.2706 L2107.08 48.2706 L2107.08 72.576 L2098.9 72.576 L2098.9 12.096 Z" fill="#000000" fill-rule="evenodd" fill-opacity="1" /><path clip-path="url(#clip030)" d="M2165.49 49.7694 Q2156.46 49.7694 2152.98 51.8354 Q2149.49 53.9013 2149.49 58.8839 Q2149.49 62.8538 2152.08 65.2034 Q2154.72 67.5124 2159.21 67.5124 Q2165.41 67.5124 2169.14 63.1374 Q2172.91 58.7219 2172.91 51.4303 L2172.91 49.7694 L2165.49 49.7694 M2180.36 46.6907 L2180.36 72.576 L2172.91 72.576 L2172.91 65.6895 Q2170.35 69.8214 2166.55 71.8063 Q2162.74 73.7508 2157.23 73.7508 Q2150.26 73.7508 2146.13 69.8619 Q2142.04 65.9325 2142.04 59.3701 Q2142.04 51.7138 2147.14 47.825 Q2152.29 43.9361 2162.45 43.9361 L2172.91 43.9361 L2172.91 43.2069 Q2172.91 38.0623 2169.5 35.2672 Q2166.14 32.4315 2160.02 32.4315 Q2156.13 32.4315 2152.45 33.3632 Q2148.76 34.295 2145.36 36.1584 L2145.36 29.2718 Q2149.45 27.692 2153.3 26.9223 Q2157.15 26.1121 2160.79 26.1121 Q2170.64 26.1121 2175.5 31.2163 Q2180.36 36.3204 2180.36 46.6907 Z" fill="#000000" fill-rule="evenodd" fill-opacity="1" /><path clip-path="url(#clip030)" d="M2194.54 9.62495 L2201.02 9.62495 Q2207.1 19.1851 2210.09 28.3401 Q2213.13 37.4952 2213.13 46.5287 Q2213.13 55.6027 2210.09 64.7983 Q2207.1 73.9938 2201.02 83.5134 L2194.54 83.5134 Q2199.93 74.2369 2202.56 65.0818 Q2205.23 55.8863 2205.23 46.5287 Q2205.23 37.1711 2202.56 28.0566 Q2199.93 18.942 2194.54 9.62495 Z" fill="#000000" fill-rule="evenodd" fill-opacity="1" /><polyline clip-path="url(#clip032)" style="stroke:#009af9; stroke-linecap:butt; stroke-linejoin:round; stroke-width:4; stroke-opacity:1; fill:none" points="
  3743.49,1350.93 3657.52,1336.42 3573.21,1321.9 3490.53,1307.39 3409.44,1292.88 3329.93,1278.36 3251.96,1263.85 3175.52,1249.34 3100.57,1234.82 3027.09,1220.31 
  2955.07,1205.8 2884.46,1191.28 2815.25,1176.77 2747.42,1162.25 2680.94,1147.74 2615.79,1133.23 2551.95,1118.71 2489.39,1104.2 2428.09,1089.69 2368.03,1075.17 
  2309.19,1060.66 2251.55,1046.15 2195.08,1031.63 2139.77,1017.12 2085.6,1002.61 2032.53,988.092 1980.56,973.579 1929.67,959.065 1879.84,944.552 1831.06,930.038 
  1783.31,915.525 1736.56,901.011 1690.81,886.497 1646.03,871.984 1602.21,857.47 1559.32,842.957 1517.36,828.443 1476.3,813.93 1436.12,799.416 1396.82,784.903 
  1358.37,770.389 1320.76,755.876 1283.96,741.362 1247.98,726.849 1212.78,712.335 1178.35,697.822 1144.69,683.308 1111.77,668.794 1079.58,654.281 1048.1,639.767 
  1017.32,625.254 987.224,610.74 957.802,596.227 929.038,581.713 900.918,567.2 873.431,552.686 846.562,538.173 820.3,523.659 794.632,509.146 769.547,494.632 
  745.027,480.119 721.05,465.605 697.606,451.092 674.686,436.578 652.28,422.064 630.38,407.551 608.977,393.037 588.062,378.524 567.63,364.01 547.67,349.497 
  528.177,334.983 509.143,320.47 490.56,305.956 472.421,291.443 454.72,276.929 437.449,262.416 420.602,247.902 404.172,233.389 388.152,218.875 372.537,204.361 
  
  "/>
<polyline clip-path="url(#clip032)" style="stroke:#e26f46; stroke-linecap:butt; stroke-linejoin:round; stroke-width:4; stroke-opacity:1; fill:none" points="
  3787.1,1358.19 3700.3,1343.67 3615.16,1329.16 3531.67,1314.65 3449.79,1300.13 3369.49,1285.62 3290.75,1271.11 3213.55,1256.59 3137.86,1242.08 3063.65,1227.57 
  2990.9,1213.05 2919.59,1198.54 2849.68,1184.02 2781.17,1169.51 2714.01,1155 2648.2,1140.48 2583.71,1125.97 2520.51,1111.46 2458.58,1096.94 2397.91,1082.43 
  2338.46,1067.92 2280.23,1053.4 2223.17,1038.89 2167.29,1024.38 2112.54,1009.86 2058.93,995.349 2006.41,980.835 1954.98,966.322 1904.63,951.808 1855.32,937.295 
  1807.06,922.781 1759.81,908.268 1713.57,893.754 1668.3,879.241 1624,864.727 1580.65,850.214 1538.23,835.7 1496.72,821.187 1456.1,806.673 1416.36,792.16 
  1377.49,777.646 1339.46,763.132 1302.26,748.619 1265.87,734.105 1230.28,719.592 1195.47,705.078 1161.43,690.565 1128.14,676.051 1095.58,661.538 1063.75,647.024 
  1032.62,632.511 1002.19,617.997 972.43,603.484 943.338,588.97 914.898,574.457 887.096,559.943 859.92,545.429 833.356,530.916 807.392,516.402 782.017,501.889 
  757.218,487.375 732.971,472.862 709.262,458.348 686.081,443.835 663.419,429.321 641.267,414.808 619.617,400.294 598.459,385.781 577.786,371.267 557.591,356.754 
  537.866,342.24 518.603,327.727 499.795,313.213 481.436,298.699 463.516,284.186 446.031,269.672 428.973,255.159 412.335,240.645 396.111,226.132 380.294,211.618 
  364.878,197.105 
  "/>
<path clip-path="url(#clip030)" d="
M3193.49 358.817 L3768.85 358.817 L3768.85 203.297 L3193.49 203.297  Z
  " fill="#ffffff" fill-rule="evenodd" fill-opacity="1"/>
<polyline clip-path="url(#clip030)" style="stroke:#000000; stroke-linecap:butt; stroke-linejoin:round; stroke-width:4; stroke-opacity:1; fill:none" points="
  3193.49,358.817 3768.85,358.817 3768.85,203.297 3193.49,203.297 3193.49,358.817 
  "/>
<polyline clip-path="url(#clip030)" style="stroke:#009af9; stroke-linecap:butt; stroke-linejoin:round; stroke-width:4; stroke-opacity:1; fill:none" points="
  3233.8,255.137 3475.64,255.137 
  "/>
<path clip-path="url(#clip030)" d="M3536.45 247.487 L3536.45 251.468 Q3534.65 250.473 3532.82 249.987 Q3531.01 249.477 3529.16 249.477 Q3525.02 249.477 3522.72 252.116 Q3520.43 254.732 3520.43 259.477 Q3520.43 264.223 3522.72 266.862 Q3525.02 269.477 3529.16 269.477 Q3531.01 269.477 3532.82 268.991 Q3534.65 268.482 3536.45 267.487 L3536.45 271.422 Q3534.67 272.255 3532.75 272.672 Q3530.85 273.088 3528.7 273.088 Q3522.84 273.088 3519.39 269.408 Q3515.94 265.727 3515.94 259.477 Q3515.94 253.135 3519.41 249.501 Q3522.91 245.866 3528.97 245.866 Q3530.94 245.866 3532.82 246.283 Q3534.69 246.677 3536.45 247.487 Z" fill="#000000" fill-rule="evenodd" fill-opacity="1" /><path clip-path="url(#clip030)" d="M3566.03 258.389 L3566.03 260.473 L3546.45 260.473 Q3546.73 264.871 3549.09 267.186 Q3551.47 269.477 3555.71 269.477 Q3558.16 269.477 3560.46 268.876 Q3562.77 268.274 3565.04 267.07 L3565.04 271.098 Q3562.75 272.07 3560.34 272.579 Q3557.93 273.088 3555.46 273.088 Q3549.25 273.088 3545.62 269.477 Q3542.01 265.866 3542.01 259.709 Q3542.01 253.343 3545.43 249.616 Q3548.88 245.866 3554.72 245.866 Q3559.95 245.866 3562.98 249.246 Q3566.03 252.602 3566.03 258.389 M3561.78 257.139 Q3561.73 253.644 3559.81 251.561 Q3557.91 249.477 3554.76 249.477 Q3551.2 249.477 3549.04 251.491 Q3546.91 253.505 3546.59 257.163 L3561.78 257.139 Z" fill="#000000" fill-rule="evenodd" fill-opacity="1" /><path clip-path="url(#clip030)" d="M3594.58 256.769 L3594.58 272.417 L3590.32 272.417 L3590.32 256.908 Q3590.32 253.227 3588.88 251.399 Q3587.45 249.57 3584.58 249.57 Q3581.13 249.57 3579.14 251.769 Q3577.15 253.968 3577.15 257.764 L3577.15 272.417 L3572.86 272.417 L3572.86 246.491 L3577.15 246.491 L3577.15 250.519 Q3578.67 248.181 3580.73 247.024 Q3582.82 245.866 3585.53 245.866 Q3589.99 245.866 3592.28 248.644 Q3594.58 251.399 3594.58 256.769 Z" fill="#000000" fill-rule="evenodd" fill-opacity="1" /><path clip-path="url(#clip030)" d="M3607.28 239.13 L3607.28 246.491 L3616.06 246.491 L3616.06 249.802 L3607.28 249.802 L3607.28 263.876 Q3607.28 267.047 3608.14 267.95 Q3609.02 268.852 3611.68 268.852 L3616.06 268.852 L3616.06 272.417 L3611.68 272.417 Q3606.75 272.417 3604.88 270.588 Q3603 268.737 3603 263.876 L3603 249.802 L3599.88 249.802 L3599.88 246.491 L3603 246.491 L3603 239.13 L3607.28 239.13 Z" fill="#000000" fill-rule="evenodd" fill-opacity="1" /><path clip-path="url(#clip030)" d="M3643.84 258.389 L3643.84 260.473 L3624.25 260.473 Q3624.53 264.871 3626.89 267.186 Q3629.28 269.477 3633.51 269.477 Q3635.96 269.477 3638.26 268.876 Q3640.57 268.274 3642.84 267.07 L3642.84 271.098 Q3640.55 272.07 3638.14 272.579 Q3635.73 273.088 3633.26 273.088 Q3627.05 273.088 3623.42 269.477 Q3619.81 265.866 3619.81 259.709 Q3619.81 253.343 3623.23 249.616 Q3626.68 245.866 3632.52 245.866 Q3637.75 245.866 3640.78 249.246 Q3643.84 252.602 3643.84 258.389 M3639.58 257.139 Q3639.53 253.644 3637.61 251.561 Q3635.71 249.477 3632.56 249.477 Q3629 249.477 3626.84 251.491 Q3624.71 253.505 3624.39 257.163 L3639.58 257.139 Z" fill="#000000" fill-rule="evenodd" fill-opacity="1" /><path clip-path="url(#clip030)" d="M3665.85 250.473 Q3665.13 250.056 3664.27 249.871 Q3663.44 249.663 3662.42 249.663 Q3658.81 249.663 3656.87 252.024 Q3654.95 254.362 3654.95 258.76 L3654.95 272.417 L3650.66 272.417 L3650.66 246.491 L3654.95 246.491 L3654.95 250.519 Q3656.29 248.158 3658.44 247.024 Q3660.59 245.866 3663.67 245.866 Q3664.11 245.866 3664.65 245.936 Q3665.18 245.982 3665.83 246.098 L3665.85 250.473 Z" fill="#000000" fill-rule="evenodd" fill-opacity="1" /><path clip-path="url(#clip030)" d="M3686.84 247.255 L3686.84 251.283 Q3685.04 250.357 3683.09 249.894 Q3681.15 249.431 3679.07 249.431 Q3675.9 249.431 3674.3 250.403 Q3672.72 251.376 3672.72 253.32 Q3672.72 254.802 3673.86 255.658 Q3674.99 256.491 3678.42 257.255 L3679.88 257.579 Q3684.41 258.552 3686.31 260.334 Q3688.23 262.093 3688.23 265.264 Q3688.23 268.876 3685.36 270.982 Q3682.52 273.088 3677.52 273.088 Q3675.43 273.088 3673.16 272.672 Q3670.92 272.278 3668.42 271.468 L3668.42 267.07 Q3670.78 268.297 3673.07 268.922 Q3675.36 269.524 3677.61 269.524 Q3680.62 269.524 3682.24 268.505 Q3683.86 267.463 3683.86 265.589 Q3683.86 263.852 3682.68 262.926 Q3681.52 262.001 3677.56 261.144 L3676.08 260.797 Q3672.12 259.964 3670.36 258.251 Q3668.6 256.514 3668.6 253.505 Q3668.6 249.848 3671.2 247.857 Q3673.79 245.866 3678.56 245.866 Q3680.92 245.866 3683 246.214 Q3685.08 246.561 3686.84 247.255 Z" fill="#000000" fill-rule="evenodd" fill-opacity="1" /><polyline clip-path="url(#clip030)" style="stroke:#e26f46; stroke-linecap:butt; stroke-linejoin:round; stroke-width:4; stroke-opacity:1; fill:none" points="
  3233.8,306.977 3475.64,306.977 
  "/>
<path clip-path="url(#clip030)" d="M3532.45 288.239 L3532.45 291.78 L3528.37 291.78 Q3526.08 291.78 3525.18 292.706 Q3524.3 293.632 3524.3 296.04 L3524.3 298.331 L3531.31 298.331 L3531.31 301.642 L3524.3 301.642 L3524.3 324.257 L3520.02 324.257 L3520.02 301.642 L3515.94 301.642 L3515.94 298.331 L3520.02 298.331 L3520.02 296.526 Q3520.02 292.197 3522.03 290.23 Q3524.04 288.239 3528.42 288.239 L3532.45 288.239 Z" fill="#000000" fill-rule="evenodd" fill-opacity="1" /><path clip-path="url(#clip030)" d="M3547.79 311.225 Q3542.63 311.225 3540.64 312.405 Q3538.65 313.586 3538.65 316.433 Q3538.65 318.702 3540.13 320.044 Q3541.64 321.364 3544.21 321.364 Q3547.75 321.364 3549.88 318.864 Q3552.03 316.341 3552.03 312.174 L3552.03 311.225 L3547.79 311.225 M3556.29 309.466 L3556.29 324.257 L3552.03 324.257 L3552.03 320.322 Q3550.57 322.683 3548.4 323.817 Q3546.22 324.928 3543.07 324.928 Q3539.09 324.928 3536.73 322.706 Q3534.39 320.461 3534.39 316.711 Q3534.39 312.336 3537.31 310.114 Q3540.25 307.892 3546.06 307.892 L3552.03 307.892 L3552.03 307.475 Q3552.03 304.535 3550.09 302.938 Q3548.16 301.317 3544.67 301.317 Q3542.45 301.317 3540.34 301.85 Q3538.23 302.382 3536.29 303.447 L3536.29 299.512 Q3538.63 298.609 3540.83 298.169 Q3543.03 297.706 3545.11 297.706 Q3550.73 297.706 3553.51 300.623 Q3556.29 303.54 3556.29 309.466 Z" fill="#000000" fill-rule="evenodd" fill-opacity="1" /><path clip-path="url(#clip030)" d="M3583.72 299.327 L3583.72 303.308 Q3581.91 302.313 3580.09 301.827 Q3578.28 301.317 3576.43 301.317 Q3572.28 301.317 3569.99 303.956 Q3567.7 306.572 3567.7 311.317 Q3567.7 316.063 3569.99 318.702 Q3572.28 321.317 3576.43 321.317 Q3578.28 321.317 3580.09 320.831 Q3581.91 320.322 3583.72 319.327 L3583.72 323.262 Q3581.94 324.095 3580.02 324.512 Q3578.12 324.928 3575.97 324.928 Q3570.11 324.928 3566.66 321.248 Q3563.21 317.567 3563.21 311.317 Q3563.21 304.975 3566.68 301.341 Q3570.18 297.706 3576.24 297.706 Q3578.21 297.706 3580.09 298.123 Q3581.96 298.517 3583.72 299.327 Z" fill="#000000" fill-rule="evenodd" fill-opacity="1" /><path clip-path="url(#clip030)" d="M3613.3 310.229 L3613.3 312.313 L3593.72 312.313 Q3594 316.711 3596.36 319.026 Q3598.74 321.317 3602.98 321.317 Q3605.43 321.317 3607.72 320.716 Q3610.04 320.114 3612.31 318.91 L3612.31 322.938 Q3610.02 323.91 3607.61 324.419 Q3605.2 324.928 3602.72 324.928 Q3596.52 324.928 3592.89 321.317 Q3589.28 317.706 3589.28 311.549 Q3589.28 305.183 3592.7 301.456 Q3596.15 297.706 3601.98 297.706 Q3607.22 297.706 3610.25 301.086 Q3613.3 304.442 3613.3 310.229 M3609.04 308.979 Q3609 305.484 3607.08 303.401 Q3605.18 301.317 3602.03 301.317 Q3598.47 301.317 3596.31 303.331 Q3594.18 305.345 3593.86 309.003 L3609.04 308.979 Z" fill="#000000" fill-rule="evenodd" fill-opacity="1" /><path clip-path="url(#clip030)" d="M3636.82 299.095 L3636.82 303.123 Q3635.02 302.197 3633.07 301.734 Q3631.13 301.271 3629.04 301.271 Q3625.87 301.271 3624.28 302.243 Q3622.7 303.216 3622.7 305.16 Q3622.7 306.642 3623.84 307.498 Q3624.97 308.331 3628.4 309.095 L3629.85 309.419 Q3634.39 310.392 3636.29 312.174 Q3638.21 313.933 3638.21 317.104 Q3638.21 320.716 3635.34 322.822 Q3632.49 324.928 3627.49 324.928 Q3625.41 324.928 3623.14 324.512 Q3620.9 324.118 3618.4 323.308 L3618.4 318.91 Q3620.76 320.137 3623.05 320.762 Q3625.34 321.364 3627.59 321.364 Q3630.59 321.364 3632.21 320.345 Q3633.84 319.303 3633.84 317.429 Q3633.84 315.692 3632.65 314.766 Q3631.5 313.841 3627.54 312.984 L3626.06 312.637 Q3622.1 311.804 3620.34 310.091 Q3618.58 308.354 3618.58 305.345 Q3618.58 301.688 3621.17 299.697 Q3623.77 297.706 3628.53 297.706 Q3630.9 297.706 3632.98 298.054 Q3635.06 298.401 3636.82 299.095 Z" fill="#000000" fill-rule="evenodd" fill-opacity="1" /></svg>
