<?xml version="1.0" encoding="utf-8"?>
<svg xmlns="http://www.w3.org/2000/svg" xmlns:xlink="http://www.w3.org/1999/xlink" width="1000" height="400" viewBox="0 0 4000 1600">
<defs>
  <clipPath id="clip450">
    <rect x="0" y="0" width="4000" height="1600"/>
  </clipPath>
</defs>
<path clip-path="url(#clip450)" d="M0 1600 L4000 1600 L4000 0 L0 0  Z" fill="#ffffff" fill-rule="evenodd" fill-opacity="1"/>
<defs>
  <clipPath id="clip451">
    <rect x="800" y="0" width="2801" height="1600"/>
  </clipPath>
</defs>
<path clip-path="url(#clip450)" d="M279.364 1393.02 L1889.76 1393.02 L1889.76 162.272 L279.364 162.272  Z" fill="#ffffff" fill-rule="evenodd" fill-opacity="1"/>
<defs>
  <clipPath id="clip452">
    <rect x="279" y="162" width="1611" height="1232"/>
  </clipPath>
</defs>
<polyline clip-path="url(#clip452)" style="stroke:#000000; stroke-linecap:round; stroke-linejoin:round; stroke-width:2; stroke-opacity:0.1; fill:none" points="560.029,1393.02 560.029,162.272 "/>
<polyline clip-path="url(#clip452)" style="stroke:#000000; stroke-linecap:round; stroke-linejoin:round; stroke-width:2; stroke-opacity:0.1; fill:none" points="846.895,1393.02 846.895,162.272 "/>
<polyline clip-path="url(#clip452)" style="stroke:#000000; stroke-linecap:round; stroke-linejoin:round; stroke-width:2; stroke-opacity:0.1; fill:none" points="1133.76,1393.02 1133.76,162.272 "/>
<polyline clip-path="url(#clip452)" style="stroke:#000000; stroke-linecap:round; stroke-linejoin:round; stroke-width:2; stroke-opacity:0.1; fill:none" points="1420.63,1393.02 1420.63,162.272 "/>
<polyline clip-path="url(#clip452)" style="stroke:#000000; stroke-linecap:round; stroke-linejoin:round; stroke-width:2; stroke-opacity:0.1; fill:none" points="1707.49,1393.02 1707.49,162.272 "/>
<polyline clip-path="url(#clip450)" style="stroke:#000000; stroke-linecap:round; stroke-linejoin:round; stroke-width:4; stroke-opacity:1; fill:none" points="279.364,1393.02 1889.76,1393.02 "/>
<polyline clip-path="url(#clip450)" style="stroke:#000000; stroke-linecap:round; stroke-linejoin:round; stroke-width:4; stroke-opacity:1; fill:none" points="560.029,1393.02 560.029,1374.12 "/>
<polyline clip-path="url(#clip450)" style="stroke:#000000; stroke-linecap:round; stroke-linejoin:round; stroke-width:4; stroke-opacity:1; fill:none" points="846.895,1393.02 846.895,1374.12 "/>
<polyline clip-path="url(#clip450)" style="stroke:#000000; stroke-linecap:round; stroke-linejoin:round; stroke-width:4; stroke-opacity:1; fill:none" points="1133.76,1393.02 1133.76,1374.12 "/>
<polyline clip-path="url(#clip450)" style="stroke:#000000; stroke-linecap:round; stroke-linejoin:round; stroke-width:4; stroke-opacity:1; fill:none" points="1420.63,1393.02 1420.63,1374.12 "/>
<polyline clip-path="url(#clip450)" style="stroke:#000000; stroke-linecap:round; stroke-linejoin:round; stroke-width:4; stroke-opacity:1; fill:none" points="1707.49,1393.02 1707.49,1374.12 "/>
<path clip-path="url(#clip450)" d="M512.147 1464.28 L519.786 1464.28 L519.786 1437.92 L511.476 1439.59 L511.476 1435.33 L519.739 1433.66 L524.415 1433.66 L524.415 1464.28 L532.054 1464.28 L532.054 1468.22 L512.147 1468.22 L512.147 1464.28 Z" fill="#000000" fill-rule="nonzero" fill-opacity="1" /><path clip-path="url(#clip450)" d="M541.499 1462.34 L546.383 1462.34 L546.383 1468.22 L541.499 1468.22 L541.499 1462.34 Z" fill="#000000" fill-rule="nonzero" fill-opacity="1" /><path clip-path="url(#clip450)" d="M566.568 1436.74 Q562.957 1436.74 561.128 1440.3 Q559.323 1443.84 559.323 1450.97 Q559.323 1458.08 561.128 1461.65 Q562.957 1465.19 566.568 1465.19 Q570.202 1465.19 572.008 1461.65 Q573.836 1458.08 573.836 1450.97 Q573.836 1443.84 572.008 1440.3 Q570.202 1436.74 566.568 1436.74 M566.568 1433.03 Q572.378 1433.03 575.434 1437.64 Q578.512 1442.22 578.512 1450.97 Q578.512 1459.7 575.434 1464.31 Q572.378 1468.89 566.568 1468.89 Q560.758 1468.89 557.679 1464.31 Q554.623 1459.7 554.623 1450.97 Q554.623 1442.22 557.679 1437.64 Q560.758 1433.03 566.568 1433.03 Z" fill="#000000" fill-rule="nonzero" fill-opacity="1" /><path clip-path="url(#clip450)" d="M596.73 1451.81 Q593.396 1451.81 591.475 1453.59 Q589.577 1455.37 589.577 1458.5 Q589.577 1461.62 591.475 1463.4 Q593.396 1465.19 596.73 1465.19 Q600.063 1465.19 601.984 1463.4 Q603.906 1461.6 603.906 1458.5 Q603.906 1455.37 601.984 1453.59 Q600.086 1451.81 596.73 1451.81 M592.054 1449.82 Q589.045 1449.08 587.355 1447.02 Q585.688 1444.96 585.688 1441.99 Q585.688 1437.85 588.628 1435.44 Q591.591 1433.03 596.73 1433.03 Q601.892 1433.03 604.832 1435.44 Q607.771 1437.85 607.771 1441.99 Q607.771 1444.96 606.082 1447.02 Q604.415 1449.08 601.429 1449.82 Q604.808 1450.6 606.683 1452.9 Q608.582 1455.19 608.582 1458.5 Q608.582 1463.52 605.503 1466.21 Q602.447 1468.89 596.73 1468.89 Q591.012 1468.89 587.933 1466.21 Q584.878 1463.52 584.878 1458.5 Q584.878 1455.19 586.776 1452.9 Q588.674 1450.6 592.054 1449.82 M590.341 1442.43 Q590.341 1445.12 592.008 1446.62 Q593.697 1448.13 596.73 1448.13 Q599.739 1448.13 601.429 1446.62 Q603.142 1445.12 603.142 1442.43 Q603.142 1439.75 601.429 1438.24 Q599.739 1436.74 596.73 1436.74 Q593.697 1436.74 592.008 1438.24 Q590.341 1439.75 590.341 1442.43 Z" fill="#000000" fill-rule="nonzero" fill-opacity="1" /><path clip-path="url(#clip450)" d="M799.58 1464.28 L807.219 1464.28 L807.219 1437.92 L798.909 1439.59 L798.909 1435.33 L807.173 1433.66 L811.849 1433.66 L811.849 1464.28 L819.488 1464.28 L819.488 1468.22 L799.58 1468.22 L799.58 1464.28 Z" fill="#000000" fill-rule="nonzero" fill-opacity="1" /><path clip-path="url(#clip450)" d="M828.932 1462.34 L833.816 1462.34 L833.816 1468.22 L828.932 1468.22 L828.932 1462.34 Z" fill="#000000" fill-rule="nonzero" fill-opacity="1" /><path clip-path="url(#clip450)" d="M844.811 1464.28 L852.45 1464.28 L852.45 1437.92 L844.14 1439.59 L844.14 1435.33 L852.404 1433.66 L857.08 1433.66 L857.08 1464.28 L864.719 1464.28 L864.719 1468.22 L844.811 1468.22 L844.811 1464.28 Z" fill="#000000" fill-rule="nonzero" fill-opacity="1" /><path clip-path="url(#clip450)" d="M874.973 1464.28 L882.612 1464.28 L882.612 1437.92 L874.302 1439.59 L874.302 1435.33 L882.566 1433.66 L887.242 1433.66 L887.242 1464.28 L894.881 1464.28 L894.881 1468.22 L874.973 1468.22 L874.973 1464.28 Z" fill="#000000" fill-rule="nonzero" fill-opacity="1" /><path clip-path="url(#clip450)" d="M1085.59 1464.28 L1093.23 1464.28 L1093.23 1437.92 L1084.92 1439.59 L1084.92 1435.33 L1093.18 1433.66 L1097.86 1433.66 L1097.86 1464.28 L1105.5 1464.28 L1105.5 1468.22 L1085.59 1468.22 L1085.59 1464.28 Z" fill="#000000" fill-rule="nonzero" fill-opacity="1" /><path clip-path="url(#clip450)" d="M1114.94 1462.34 L1119.83 1462.34 L1119.83 1468.22 L1114.94 1468.22 L1114.94 1462.34 Z" fill="#000000" fill-rule="nonzero" fill-opacity="1" /><path clip-path="url(#clip450)" d="M1130.82 1464.28 L1138.46 1464.28 L1138.46 1437.92 L1130.15 1439.59 L1130.15 1435.33 L1138.41 1433.66 L1143.09 1433.66 L1143.09 1464.28 L1150.73 1464.28 L1150.73 1468.22 L1130.82 1468.22 L1130.82 1464.28 Z" fill="#000000" fill-rule="nonzero" fill-opacity="1" /><path clip-path="url(#clip450)" d="M1173.02 1437.73 L1161.21 1456.18 L1173.02 1456.18 L1173.02 1437.73 M1171.79 1433.66 L1177.67 1433.66 L1177.67 1456.18 L1182.6 1456.18 L1182.6 1460.07 L1177.67 1460.07 L1177.67 1468.22 L1173.02 1468.22 L1173.02 1460.07 L1157.42 1460.07 L1157.42 1455.56 L1171.79 1433.66 Z" fill="#000000" fill-rule="nonzero" fill-opacity="1" /><path clip-path="url(#clip450)" d="M1373.15 1464.28 L1380.79 1464.28 L1380.79 1437.92 L1372.48 1439.59 L1372.48 1435.33 L1380.74 1433.66 L1385.42 1433.66 L1385.42 1464.28 L1393.06 1464.28 L1393.06 1468.22 L1373.15 1468.22 L1373.15 1464.28 Z" fill="#000000" fill-rule="nonzero" fill-opacity="1" /><path clip-path="url(#clip450)" d="M1402.5 1462.34 L1407.39 1462.34 L1407.39 1468.22 L1402.5 1468.22 L1402.5 1462.34 Z" fill="#000000" fill-rule="nonzero" fill-opacity="1" /><path clip-path="url(#clip450)" d="M1418.38 1464.28 L1426.02 1464.28 L1426.02 1437.92 L1417.71 1439.59 L1417.71 1435.33 L1425.97 1433.66 L1430.65 1433.66 L1430.65 1464.28 L1438.29 1464.28 L1438.29 1468.22 L1418.38 1468.22 L1418.38 1464.28 Z" fill="#000000" fill-rule="nonzero" fill-opacity="1" /><path clip-path="url(#clip450)" d="M1446.55 1433.66 L1468.78 1433.66 L1468.78 1435.65 L1456.23 1468.22 L1451.34 1468.22 L1463.15 1437.59 L1446.55 1437.59 L1446.55 1433.66 Z" fill="#000000" fill-rule="nonzero" fill-opacity="1" /><path clip-path="url(#clip450)" d="M1659.57 1464.28 L1667.2 1464.28 L1667.2 1437.92 L1658.89 1439.59 L1658.89 1435.33 L1667.16 1433.66 L1671.83 1433.66 L1671.83 1464.28 L1679.47 1464.28 L1679.47 1468.22 L1659.57 1468.22 L1659.57 1464.28 Z" fill="#000000" fill-rule="nonzero" fill-opacity="1" /><path clip-path="url(#clip450)" d="M1688.92 1462.34 L1693.8 1462.34 L1693.8 1468.22 L1688.92 1468.22 L1688.92 1462.34 Z" fill="#000000" fill-rule="nonzero" fill-opacity="1" /><path clip-path="url(#clip450)" d="M1708.01 1464.28 L1724.33 1464.28 L1724.33 1468.22 L1702.39 1468.22 L1702.39 1464.28 Q1705.05 1461.53 1709.63 1456.9 Q1714.24 1452.25 1715.42 1450.9 Q1717.67 1448.38 1718.55 1446.65 Q1719.45 1444.89 1719.45 1443.2 Q1719.45 1440.44 1717.51 1438.71 Q1715.58 1436.97 1712.48 1436.97 Q1710.28 1436.97 1707.83 1437.73 Q1705.4 1438.5 1702.62 1440.05 L1702.62 1435.33 Q1705.45 1434.19 1707.9 1433.61 Q1710.35 1433.03 1712.39 1433.03 Q1717.76 1433.03 1720.95 1435.72 Q1724.15 1438.41 1724.15 1442.9 Q1724.15 1445.03 1723.34 1446.95 Q1722.55 1448.84 1720.44 1451.44 Q1719.87 1452.11 1716.76 1455.33 Q1713.66 1458.52 1708.01 1464.28 Z" fill="#000000" fill-rule="nonzero" fill-opacity="1" /><path clip-path="url(#clip450)" d="M1744.15 1436.74 Q1740.54 1436.74 1738.71 1440.3 Q1736.9 1443.84 1736.9 1450.97 Q1736.9 1458.08 1738.71 1461.65 Q1740.54 1465.19 1744.15 1465.19 Q1747.78 1465.19 1749.59 1461.65 Q1751.42 1458.08 1751.42 1450.97 Q1751.42 1443.84 1749.59 1440.3 Q1747.78 1436.74 1744.15 1436.74 M1744.15 1433.03 Q1749.96 1433.03 1753.01 1437.64 Q1756.09 1442.22 1756.09 1450.97 Q1756.09 1459.7 1753.01 1464.31 Q1749.96 1468.89 1744.15 1468.89 Q1738.34 1468.89 1735.26 1464.31 Q1732.2 1459.7 1732.2 1450.97 Q1732.2 1442.22 1735.26 1437.64 Q1738.34 1433.03 1744.15 1433.03 Z" fill="#000000" fill-rule="nonzero" fill-opacity="1" /><path clip-path="url(#clip450)" d="M1071.48 1532.6 Q1073.42 1529.35 1078.23 1526.49 Q1080.11 1525.38 1085.9 1525.38 Q1092.39 1525.38 1096.44 1530.53 Q1100.51 1535.69 1100.51 1544.09 Q1100.51 1552.49 1096.44 1557.65 Q1092.39 1562.81 1085.9 1562.81 Q1081.99 1562.81 1079.15 1561.28 Q1076.35 1559.72 1074.51 1556.54 L1074.51 1575.44 L1068.62 1575.44 L1068.62 1544.41 Q1068.62 1537.06 1071.48 1532.6 M1094.43 1544.09 Q1094.43 1537.63 1091.76 1533.97 Q1089.12 1530.28 1084.47 1530.28 Q1079.82 1530.28 1077.15 1533.97 Q1074.51 1537.63 1074.51 1544.09 Q1074.51 1550.55 1077.15 1554.24 Q1079.82 1557.91 1084.47 1557.91 Q1089.12 1557.91 1091.76 1554.24 Q1094.43 1550.55 1094.43 1544.09 Z" fill="#000000" fill-rule="nonzero" fill-opacity="1" /><polyline clip-path="url(#clip452)" style="stroke:#000000; stroke-linecap:round; stroke-linejoin:round; stroke-width:2; stroke-opacity:0.1; fill:none" points="279.364,1358.19 1889.76,1358.19 "/>
<polyline clip-path="url(#clip452)" style="stroke:#000000; stroke-linecap:round; stroke-linejoin:round; stroke-width:2; stroke-opacity:0.1; fill:none" points="279.364,971.16 1889.76,971.16 "/>
<polyline clip-path="url(#clip452)" style="stroke:#000000; stroke-linecap:round; stroke-linejoin:round; stroke-width:2; stroke-opacity:0.1; fill:none" points="279.364,584.132 1889.76,584.132 "/>
<polyline clip-path="url(#clip452)" style="stroke:#000000; stroke-linecap:round; stroke-linejoin:round; stroke-width:2; stroke-opacity:0.1; fill:none" points="279.364,197.105 1889.76,197.105 "/>
<polyline clip-path="url(#clip450)" style="stroke:#000000; stroke-linecap:round; stroke-linejoin:round; stroke-width:4; stroke-opacity:1; fill:none" points="279.364,1393.02 279.364,162.272 "/>
<polyline clip-path="url(#clip450)" style="stroke:#000000; stroke-linecap:round; stroke-linejoin:round; stroke-width:4; stroke-opacity:1; fill:none" points="279.364,1358.19 298.262,1358.19 "/>
<polyline clip-path="url(#clip450)" style="stroke:#000000; stroke-linecap:round; stroke-linejoin:round; stroke-width:4; stroke-opacity:1; fill:none" points="279.364,971.16 298.262,971.16 "/>
<polyline clip-path="url(#clip450)" style="stroke:#000000; stroke-linecap:round; stroke-linejoin:round; stroke-width:4; stroke-opacity:1; fill:none" points="279.364,584.132 298.262,584.132 "/>
<polyline clip-path="url(#clip450)" style="stroke:#000000; stroke-linecap:round; stroke-linejoin:round; stroke-width:4; stroke-opacity:1; fill:none" points="279.364,197.105 298.262,197.105 "/>
<path clip-path="url(#clip450)" d="M162.189 1343.99 Q158.578 1343.99 156.749 1347.55 Q154.943 1351.09 154.943 1358.22 Q154.943 1365.33 156.749 1368.89 Q158.578 1372.43 162.189 1372.43 Q165.823 1372.43 167.628 1368.89 Q169.457 1365.33 169.457 1358.22 Q169.457 1351.09 167.628 1347.55 Q165.823 1343.99 162.189 1343.99 M162.189 1340.28 Q167.999 1340.28 171.054 1344.89 Q174.133 1349.47 174.133 1358.22 Q174.133 1366.95 171.054 1371.56 Q167.999 1376.14 162.189 1376.14 Q156.379 1376.14 153.3 1371.56 Q150.244 1366.95 150.244 1358.22 Q150.244 1349.47 153.3 1344.89 Q156.379 1340.28 162.189 1340.28 Z" fill="#000000" fill-rule="nonzero" fill-opacity="1" /><path clip-path="url(#clip450)" d="M182.351 1369.59 L187.235 1369.59 L187.235 1375.47 L182.351 1375.47 L182.351 1369.59 Z" fill="#000000" fill-rule="nonzero" fill-opacity="1" /><path clip-path="url(#clip450)" d="M207.42 1343.99 Q203.809 1343.99 201.98 1347.55 Q200.175 1351.09 200.175 1358.22 Q200.175 1365.33 201.98 1368.89 Q203.809 1372.43 207.42 1372.43 Q211.054 1372.43 212.86 1368.89 Q214.688 1365.33 214.688 1358.22 Q214.688 1351.09 212.86 1347.55 Q211.054 1343.99 207.42 1343.99 M207.42 1340.28 Q213.23 1340.28 216.286 1344.89 Q219.364 1349.47 219.364 1358.22 Q219.364 1366.95 216.286 1371.56 Q213.23 1376.14 207.42 1376.14 Q201.61 1376.14 198.531 1371.56 Q195.476 1366.95 195.476 1358.22 Q195.476 1349.47 198.531 1344.89 Q201.61 1340.28 207.42 1340.28 Z" fill="#000000" fill-rule="nonzero" fill-opacity="1" /><path clip-path="url(#clip450)" d="M163.184 956.958 Q159.573 956.958 157.744 960.523 Q155.939 964.065 155.939 971.194 Q155.939 978.301 157.744 981.866 Q159.573 985.407 163.184 985.407 Q166.818 985.407 168.624 981.866 Q170.453 978.301 170.453 971.194 Q170.453 964.065 168.624 960.523 Q166.818 956.958 163.184 956.958 M163.184 953.255 Q168.994 953.255 172.05 957.861 Q175.128 962.445 175.128 971.194 Q175.128 979.921 172.05 984.528 Q168.994 989.111 163.184 989.111 Q157.374 989.111 154.295 984.528 Q151.24 979.921 151.24 971.194 Q151.24 962.445 154.295 957.861 Q157.374 953.255 163.184 953.255 Z" fill="#000000" fill-rule="nonzero" fill-opacity="1" /><path clip-path="url(#clip450)" d="M183.346 982.56 L188.23 982.56 L188.23 988.44 L183.346 988.44 L183.346 982.56 Z" fill="#000000" fill-rule="nonzero" fill-opacity="1" /><path clip-path="url(#clip450)" d="M198.462 953.88 L216.818 953.88 L216.818 957.815 L202.744 957.815 L202.744 966.287 Q203.763 965.94 204.781 965.778 Q205.8 965.593 206.818 965.593 Q212.605 965.593 215.985 968.764 Q219.364 971.935 219.364 977.352 Q219.364 982.931 215.892 986.032 Q212.42 989.111 206.1 989.111 Q203.925 989.111 201.656 988.741 Q199.411 988.37 197.003 987.63 L197.003 982.931 Q199.087 984.065 201.309 984.62 Q203.531 985.176 206.008 985.176 Q210.012 985.176 212.35 983.069 Q214.688 980.963 214.688 977.352 Q214.688 973.741 212.35 971.634 Q210.012 969.528 206.008 969.528 Q204.133 969.528 202.258 969.944 Q200.406 970.361 198.462 971.241 L198.462 953.88 Z" fill="#000000" fill-rule="nonzero" fill-opacity="1" /><path clip-path="url(#clip450)" d="M152.999 597.477 L160.638 597.477 L160.638 571.111 L152.328 572.778 L152.328 568.519 L160.591 566.852 L165.267 566.852 L165.267 597.477 L172.906 597.477 L172.906 601.412 L152.999 601.412 L152.999 597.477 Z" fill="#000000" fill-rule="nonzero" fill-opacity="1" /><path clip-path="url(#clip450)" d="M182.351 595.533 L187.235 595.533 L187.235 601.412 L182.351 601.412 L182.351 595.533 Z" fill="#000000" fill-rule="nonzero" fill-opacity="1" /><path clip-path="url(#clip450)" d="M207.42 569.931 Q203.809 569.931 201.98 573.496 Q200.175 577.037 200.175 584.167 Q200.175 591.273 201.98 594.838 Q203.809 598.38 207.42 598.38 Q211.054 598.38 212.86 594.838 Q214.688 591.273 214.688 584.167 Q214.688 577.037 212.86 573.496 Q211.054 569.931 207.42 569.931 M207.42 566.227 Q213.23 566.227 216.286 570.834 Q219.364 575.417 219.364 584.167 Q219.364 592.894 216.286 597.5 Q213.23 602.084 207.42 602.084 Q201.61 602.084 198.531 597.5 Q195.476 592.894 195.476 584.167 Q195.476 575.417 198.531 570.834 Q201.61 566.227 207.42 566.227 Z" fill="#000000" fill-rule="nonzero" fill-opacity="1" /><path clip-path="url(#clip450)" d="M153.994 210.45 L161.633 210.45 L161.633 184.084 L153.323 185.751 L153.323 181.491 L161.587 179.825 L166.263 179.825 L166.263 210.45 L173.902 210.45 L173.902 214.385 L153.994 214.385 L153.994 210.45 Z" fill="#000000" fill-rule="nonzero" fill-opacity="1" /><path clip-path="url(#clip450)" d="M183.346 208.505 L188.23 208.505 L188.23 214.385 L183.346 214.385 L183.346 208.505 Z" fill="#000000" fill-rule="nonzero" fill-opacity="1" /><path clip-path="url(#clip450)" d="M198.462 179.825 L216.818 179.825 L216.818 183.76 L202.744 183.76 L202.744 192.232 Q203.763 191.885 204.781 191.723 Q205.8 191.538 206.818 191.538 Q212.605 191.538 215.985 194.709 Q219.364 197.88 219.364 203.297 Q219.364 208.875 215.892 211.977 Q212.42 215.056 206.1 215.056 Q203.925 215.056 201.656 214.686 Q199.411 214.315 197.003 213.575 L197.003 208.875 Q199.087 210.01 201.309 210.565 Q203.531 211.121 206.008 211.121 Q210.012 211.121 212.35 209.014 Q214.688 206.908 214.688 203.297 Q214.688 199.686 212.35 197.579 Q210.012 195.473 206.008 195.473 Q204.133 195.473 202.258 195.889 Q200.406 196.306 198.462 197.186 L198.462 179.825 Z" fill="#000000" fill-rule="nonzero" fill-opacity="1" /><path clip-path="url(#clip450)" d="M40.3403 876.171 L40.3403 848.353 L45.6875 848.353 L71.3095 870.378 L71.3095 848.353 L75.9883 848.353 L75.9883 876.967 L70.6411 876.967 L45.0191 854.942 L45.0191 876.171 L40.3403 876.171 Z" fill="#000000" fill-rule="nonzero" fill-opacity="1" /><path clip-path="url(#clip450)" d="M26.5267 804.621 Q33.8473 808.886 41.0087 810.955 Q48.1701 813.023 55.5225 813.023 Q62.8749 813.023 70.1 810.955 Q77.2933 808.854 84.582 804.621 L84.582 809.713 Q77.1023 814.488 69.8772 816.875 Q62.6521 819.23 55.5225 819.23 Q48.4248 819.23 41.2315 816.875 Q34.0383 814.519 26.5267 809.713 L26.5267 804.621 Z" fill="#000000" fill-rule="nonzero" fill-opacity="1" /><path clip-path="url(#clip450)" d="M26.4631 793.481 L26.4631 787.592 L55.7135 787.592 L40.3403 770.119 L40.3403 762.639 L57.0185 781.545 L75.9883 761.843 L75.9883 769.482 L58.5781 787.592 L75.9883 787.592 L75.9883 793.481 L26.4631 793.481 Z" fill="#000000" fill-rule="nonzero" fill-opacity="1" /><path clip-path="url(#clip450)" d="M47.1835 727.755 Q43.2367 725.559 41.3588 722.503 Q39.481 719.448 39.481 715.31 Q39.481 709.74 43.3959 706.716 Q47.2789 703.692 54.4722 703.692 L75.9883 703.692 L75.9883 709.581 L54.6632 709.581 Q49.5388 709.581 47.0561 711.395 Q44.5735 713.209 44.5735 716.933 Q44.5735 721.485 47.5972 724.126 Q50.6209 726.768 55.8408 726.768 L75.9883 726.768 L75.9883 732.656 L54.6632 732.656 Q49.5069 732.656 47.0561 734.471 Q44.5735 736.285 44.5735 740.072 Q44.5735 744.56 47.6291 747.202 Q50.6528 749.844 55.8408 749.844 L75.9883 749.844 L75.9883 755.732 L40.3403 755.732 L40.3403 749.844 L45.8785 749.844 Q42.6002 747.839 41.0406 745.038 Q39.481 742.237 39.481 738.385 Q39.481 734.502 41.4543 731.797 Q43.4277 729.06 47.1835 727.755 Z" fill="#000000" fill-rule="nonzero" fill-opacity="1" /><path clip-path="url(#clip450)" d="M26.5267 692.934 L26.5267 687.842 Q34.0383 683.067 41.2315 680.712 Q48.4248 678.325 55.5225 678.325 Q62.6521 678.325 69.8772 680.712 Q77.1023 683.067 84.582 687.842 L84.582 692.934 Q77.2933 688.701 70.1 686.632 Q62.8749 684.532 55.5225 684.532 Q48.1701 684.532 41.0087 686.632 Q33.8473 688.701 26.5267 692.934 Z" fill="#000000" fill-rule="nonzero" fill-opacity="1" /><path clip-path="url(#clip450)" d="M1067.91 35.3077 Q1070.39 31.1758 1076.5 27.5299 Q1078.89 26.1121 1086.27 26.1121 Q1094.53 26.1121 1099.67 32.6746 Q1104.86 39.2371 1104.86 49.9314 Q1104.86 60.6258 1099.67 67.1883 Q1094.53 73.7508 1086.27 73.7508 Q1081.28 73.7508 1077.68 71.8063 Q1074.11 69.8214 1071.76 65.7705 L1071.76 89.8329 L1064.27 89.8329 L1064.27 50.3365 Q1064.27 40.9789 1067.91 35.3077 M1097.12 49.9314 Q1097.12 41.7081 1093.72 37.0496 Q1090.36 32.3505 1084.44 32.3505 Q1078.53 32.3505 1075.13 37.0496 Q1071.76 41.7081 1071.76 49.9314 Q1071.76 58.1548 1075.13 62.8538 Q1078.53 67.5124 1084.44 67.5124 Q1090.36 67.5124 1093.72 62.8538 Q1097.12 58.1548 1097.12 49.9314 Z" fill="#000000" fill-rule="nonzero" fill-opacity="1" /><polyline clip-path="url(#clip452)" style="stroke:#009af9; stroke-linecap:round; stroke-linejoin:round; stroke-width:4; stroke-opacity:1; fill:none" points="1819.91,1338.84 1771.46,1300.13 1723.13,1261.43 1674.91,1222.73 1626.83,1184.02 1578.86,1145.32 1531.01,1106.62 1483.29,1067.92 1435.68,1029.21 1388.2,990.511 1340.84,951.808 1293.6,913.106 1241,874.403 1186.79,835.7 1132.81,796.997 1079.06,758.295 1025.53,719.592 972.248,680.889 919.163,642.186 866.319,603.484 813.672,564.781 761.284,526.078 709.119,487.375 657.178,448.673 605.459,409.97 553.961,371.267 502.684,332.564 451.626,293.862 400.788,255.159 350.169,216.456 "/>
<polyline clip-path="url(#clip452)" style="stroke:#e26f46; stroke-linecap:round; stroke-linejoin:round; stroke-width:4; stroke-opacity:1; fill:none" points="1844.19,1358.19 1795.67,1319.48 1747.28,1280.78 1699,1242.08 1650.85,1203.38 1602.83,1164.67 1554.92,1125.97 1507.13,1087.27 1459.47,1048.57 1411.93,1009.86 1364.51,971.16 1317.21,932.457 1268.19,893.754 1213.87,855.051 1159.77,816.349 1105.9,777.646 1052.26,738.943 998.854,700.24 945.661,661.538 892.713,622.835 839.951,584.132 787.45,545.429 735.174,506.727 683.121,468.024 631.291,429.321 579.683,390.618 528.295,351.916 477.127,313.213 426.18,274.51 375.451,235.807 324.942,197.105 "/>
<path clip-path="url(#clip450)" d="M1502.75 358.817 L1836.08 358.817 L1836.08 203.297 L1502.75 203.297  Z" fill="#ffffff" fill-rule="evenodd" fill-opacity="1"/>
<polyline clip-path="url(#clip450)" style="stroke:#000000; stroke-linecap:round; stroke-linejoin:round; stroke-width:4; stroke-opacity:1; fill:none" points="1502.75,358.817 1836.08,358.817 1836.08,203.297 1502.75,203.297 1502.75,358.817 "/>
<polyline clip-path="url(#clip450)" style="stroke:#009af9; stroke-linecap:round; stroke-linejoin:round; stroke-width:4; stroke-opacity:1; fill:none" points="1520.65,255.137 1628.01,255.137 "/>
<path clip-path="url(#clip450)" d="M1666.41 247.487 L1666.41 251.468 Q1664.6 250.473 1662.77 249.987 Q1660.97 249.477 1659.12 249.477 Q1654.97 249.477 1652.68 252.116 Q1650.39 254.732 1650.39 259.477 Q1650.39 264.223 1652.68 266.862 Q1654.97 269.477 1659.12 269.477 Q1660.97 269.477 1662.77 268.991 Q1664.6 268.482 1666.41 267.487 L1666.41 271.422 Q1664.63 272.255 1662.71 272.672 Q1660.81 273.088 1658.65 273.088 Q1652.8 273.088 1649.35 269.408 Q1645.9 265.727 1645.9 259.477 Q1645.9 253.135 1649.37 249.501 Q1652.87 245.866 1658.93 245.866 Q1660.9 245.866 1662.77 246.283 Q1664.65 246.677 1666.41 247.487 Z" fill="#000000" fill-rule="nonzero" fill-opacity="1" /><path clip-path="url(#clip450)" d="M1695.99 258.389 L1695.99 260.473 L1676.41 260.473 Q1676.69 264.871 1679.05 267.186 Q1681.43 269.477 1685.67 269.477 Q1688.12 269.477 1690.41 268.876 Q1692.73 268.274 1695 267.07 L1695 271.098 Q1692.71 272.07 1690.3 272.579 Q1687.89 273.088 1685.41 273.088 Q1679.21 273.088 1675.58 269.477 Q1671.96 265.866 1671.96 259.709 Q1671.96 253.343 1675.39 249.616 Q1678.84 245.866 1684.67 245.866 Q1689.9 245.866 1692.94 249.246 Q1695.99 252.602 1695.99 258.389 M1691.73 257.139 Q1691.69 253.644 1689.77 251.561 Q1687.87 249.477 1684.72 249.477 Q1681.15 249.477 1679 251.491 Q1676.87 253.505 1676.55 257.163 L1691.73 257.139 Z" fill="#000000" fill-rule="nonzero" fill-opacity="1" /><path clip-path="url(#clip450)" d="M1724.53 256.769 L1724.53 272.417 L1720.27 272.417 L1720.27 256.908 Q1720.27 253.227 1718.84 251.399 Q1717.4 249.57 1714.53 249.57 Q1711.08 249.57 1709.09 251.769 Q1707.1 253.968 1707.1 257.764 L1707.1 272.417 L1702.82 272.417 L1702.82 246.491 L1707.1 246.491 L1707.1 250.519 Q1708.63 248.181 1710.69 247.024 Q1712.77 245.866 1715.48 245.866 Q1719.95 245.866 1722.24 248.644 Q1724.53 251.399 1724.53 256.769 Z" fill="#000000" fill-rule="nonzero" fill-opacity="1" /><path clip-path="url(#clip450)" d="M1737.24 239.13 L1737.24 246.491 L1746.01 246.491 L1746.01 249.802 L1737.24 249.802 L1737.24 263.876 Q1737.24 267.047 1738.1 267.95 Q1738.98 268.852 1741.64 268.852 L1746.01 268.852 L1746.01 272.417 L1741.64 272.417 Q1736.71 272.417 1734.83 270.588 Q1732.96 268.737 1732.96 263.876 L1732.96 249.802 L1729.83 249.802 L1729.83 246.491 L1732.96 246.491 L1732.96 239.13 L1737.24 239.13 Z" fill="#000000" fill-rule="nonzero" fill-opacity="1" /><path clip-path="url(#clip450)" d="M1773.79 258.389 L1773.79 260.473 L1754.21 260.473 Q1754.49 264.871 1756.85 267.186 Q1759.23 269.477 1763.47 269.477 Q1765.92 269.477 1768.21 268.876 Q1770.53 268.274 1772.8 267.07 L1772.8 271.098 Q1770.51 272.07 1768.1 272.579 Q1765.69 273.088 1763.21 273.088 Q1757.01 273.088 1753.38 269.477 Q1749.76 265.866 1749.76 259.709 Q1749.76 253.343 1753.19 249.616 Q1756.64 245.866 1762.47 245.866 Q1767.7 245.866 1770.74 249.246 Q1773.79 252.602 1773.79 258.389 M1769.53 257.139 Q1769.49 253.644 1767.57 251.561 Q1765.67 249.477 1762.52 249.477 Q1758.95 249.477 1756.8 251.491 Q1754.67 253.505 1754.35 257.163 L1769.53 257.139 Z" fill="#000000" fill-rule="nonzero" fill-opacity="1" /><path clip-path="url(#clip450)" d="M1795.81 250.473 Q1795.09 250.056 1794.23 249.871 Q1793.4 249.663 1792.38 249.663 Q1788.77 249.663 1786.82 252.024 Q1784.9 254.362 1784.9 258.76 L1784.9 272.417 L1780.62 272.417 L1780.62 246.491 L1784.9 246.491 L1784.9 250.519 Q1786.25 248.158 1788.4 247.024 Q1790.55 245.866 1793.63 245.866 Q1794.07 245.866 1794.6 245.936 Q1795.14 245.982 1795.78 246.098 L1795.81 250.473 Z" fill="#000000" fill-rule="nonzero" fill-opacity="1" /><path clip-path="url(#clip450)" d="M1816.8 247.255 L1816.8 251.283 Q1815 250.357 1813.05 249.894 Q1811.11 249.431 1809.02 249.431 Q1805.85 249.431 1804.26 250.403 Q1802.68 251.376 1802.68 253.32 Q1802.68 254.802 1803.82 255.658 Q1804.95 256.491 1808.38 257.255 L1809.83 257.579 Q1814.37 258.552 1816.27 260.334 Q1818.19 262.093 1818.19 265.264 Q1818.19 268.876 1815.32 270.982 Q1812.47 273.088 1807.47 273.088 Q1805.39 273.088 1803.12 272.672 Q1800.88 272.278 1798.38 271.468 L1798.38 267.07 Q1800.74 268.297 1803.03 268.922 Q1805.32 269.524 1807.57 269.524 Q1810.57 269.524 1812.2 268.505 Q1813.82 267.463 1813.82 265.589 Q1813.82 263.852 1812.63 262.926 Q1811.48 262.001 1807.52 261.144 L1806.04 260.797 Q1802.08 259.964 1800.32 258.251 Q1798.56 256.514 1798.56 253.505 Q1798.56 249.848 1801.15 247.857 Q1803.75 245.866 1808.51 245.866 Q1810.88 245.866 1812.96 246.214 Q1815.04 246.561 1816.8 247.255 Z" fill="#000000" fill-rule="nonzero" fill-opacity="1" /><polyline clip-path="url(#clip450)" style="stroke:#e26f46; stroke-linecap:round; stroke-linejoin:round; stroke-width:4; stroke-opacity:1; fill:none" points="1520.65,306.977 1628.01,306.977 "/>
<path clip-path="url(#clip450)" d="M1662.4 288.239 L1662.4 291.78 L1658.33 291.78 Q1656.04 291.78 1655.14 292.706 Q1654.26 293.632 1654.26 296.04 L1654.26 298.331 L1661.27 298.331 L1661.27 301.642 L1654.26 301.642 L1654.26 324.257 L1649.97 324.257 L1649.97 301.642 L1645.9 301.642 L1645.9 298.331 L1649.97 298.331 L1649.97 296.526 Q1649.97 292.197 1651.99 290.23 Q1654 288.239 1658.38 288.239 L1662.4 288.239 Z" fill="#000000" fill-rule="nonzero" fill-opacity="1" /><path clip-path="url(#clip450)" d="M1677.75 311.225 Q1672.59 311.225 1670.6 312.405 Q1668.61 313.586 1668.61 316.433 Q1668.61 318.702 1670.09 320.044 Q1671.59 321.364 1674.16 321.364 Q1677.71 321.364 1679.83 318.864 Q1681.99 316.341 1681.99 312.174 L1681.99 311.225 L1677.75 311.225 M1686.25 309.466 L1686.25 324.257 L1681.99 324.257 L1681.99 320.322 Q1680.53 322.683 1678.35 323.817 Q1676.18 324.928 1673.03 324.928 Q1669.05 324.928 1666.69 322.706 Q1664.35 320.461 1664.35 316.711 Q1664.35 312.336 1667.27 310.114 Q1670.21 307.892 1676.02 307.892 L1681.99 307.892 L1681.99 307.475 Q1681.99 304.535 1680.04 302.938 Q1678.12 301.317 1674.63 301.317 Q1672.4 301.317 1670.3 301.85 Q1668.19 302.382 1666.25 303.447 L1666.25 299.512 Q1668.58 298.609 1670.78 298.169 Q1672.98 297.706 1675.07 297.706 Q1680.69 297.706 1683.47 300.623 Q1686.25 303.54 1686.25 309.466 Z" fill="#000000" fill-rule="nonzero" fill-opacity="1" /><path clip-path="url(#clip450)" d="M1713.68 299.327 L1713.68 303.308 Q1711.87 302.313 1710.04 301.827 Q1708.24 301.317 1706.39 301.317 Q1702.24 301.317 1699.95 303.956 Q1697.66 306.572 1697.66 311.317 Q1697.66 316.063 1699.95 318.702 Q1702.24 321.317 1706.39 321.317 Q1708.24 321.317 1710.04 320.831 Q1711.87 320.322 1713.68 319.327 L1713.68 323.262 Q1711.89 324.095 1709.97 324.512 Q1708.08 324.928 1705.92 324.928 Q1700.07 324.928 1696.62 321.248 Q1693.17 317.567 1693.17 311.317 Q1693.17 304.975 1696.64 301.341 Q1700.14 297.706 1706.2 297.706 Q1708.17 297.706 1710.04 298.123 Q1711.92 298.517 1713.68 299.327 Z" fill="#000000" fill-rule="nonzero" fill-opacity="1" /><path clip-path="url(#clip450)" d="M1743.26 310.229 L1743.26 312.313 L1723.68 312.313 Q1723.95 316.711 1726.32 319.026 Q1728.7 321.317 1732.94 321.317 Q1735.39 321.317 1737.68 320.716 Q1740 320.114 1742.26 318.91 L1742.26 322.938 Q1739.97 323.91 1737.57 324.419 Q1735.16 324.928 1732.68 324.928 Q1726.48 324.928 1722.84 321.317 Q1719.23 317.706 1719.23 311.549 Q1719.23 305.183 1722.66 301.456 Q1726.11 297.706 1731.94 297.706 Q1737.17 297.706 1740.2 301.086 Q1743.26 304.442 1743.26 310.229 M1739 308.979 Q1738.95 305.484 1737.03 303.401 Q1735.14 301.317 1731.99 301.317 Q1728.42 301.317 1726.27 303.331 Q1724.14 305.345 1723.82 309.003 L1739 308.979 Z" fill="#000000" fill-rule="nonzero" fill-opacity="1" /><path clip-path="url(#clip450)" d="M1766.78 299.095 L1766.78 303.123 Q1764.97 302.197 1763.03 301.734 Q1761.08 301.271 1759 301.271 Q1755.83 301.271 1754.23 302.243 Q1752.66 303.216 1752.66 305.16 Q1752.66 306.642 1753.79 307.498 Q1754.93 308.331 1758.35 309.095 L1759.81 309.419 Q1764.35 310.392 1766.25 312.174 Q1768.17 313.933 1768.17 317.104 Q1768.17 320.716 1765.3 322.822 Q1762.45 324.928 1757.45 324.928 Q1755.37 324.928 1753.1 324.512 Q1750.85 324.118 1748.35 323.308 L1748.35 318.91 Q1750.71 320.137 1753.01 320.762 Q1755.3 321.364 1757.54 321.364 Q1760.55 321.364 1762.17 320.345 Q1763.79 319.303 1763.79 317.429 Q1763.79 315.692 1762.61 314.766 Q1761.45 313.841 1757.5 312.984 L1756.01 312.637 Q1752.06 311.804 1750.3 310.091 Q1748.54 308.354 1748.54 305.345 Q1748.54 301.688 1751.13 299.697 Q1753.72 297.706 1758.49 297.706 Q1760.85 297.706 1762.94 298.054 Q1765.02 298.401 1766.78 299.095 Z" fill="#000000" fill-rule="nonzero" fill-opacity="1" /><path clip-path="url(#clip450)" d="M2279.36 1393.02 L3889.76 1393.02 L3889.76 162.272 L2279.36 162.272  Z" fill="#ffffff" fill-rule="evenodd" fill-opacity="1"/>
<defs>
  <clipPath id="clip453">
    <rect x="2279" y="162" width="1611" height="1232"/>
  </clipPath>
</defs>
<polyline clip-path="url(#clip453)" style="stroke:#000000; stroke-linecap:round; stroke-linejoin:round; stroke-width:2; stroke-opacity:0.1; fill:none" points="2319.29,1393.02 2319.29,162.272 "/>
<polyline clip-path="url(#clip453)" style="stroke:#000000; stroke-linecap:round; stroke-linejoin:round; stroke-width:2; stroke-opacity:0.1; fill:none" points="2773.67,1393.02 2773.67,162.272 "/>
<polyline clip-path="url(#clip453)" style="stroke:#000000; stroke-linecap:round; stroke-linejoin:round; stroke-width:2; stroke-opacity:0.1; fill:none" points="3228.05,1393.02 3228.05,162.272 "/>
<polyline clip-path="url(#clip453)" style="stroke:#000000; stroke-linecap:round; stroke-linejoin:round; stroke-width:2; stroke-opacity:0.1; fill:none" points="3682.43,1393.02 3682.43,162.272 "/>
<polyline clip-path="url(#clip450)" style="stroke:#000000; stroke-linecap:round; stroke-linejoin:round; stroke-width:4; stroke-opacity:1; fill:none" points="2279.36,1393.02 3889.76,1393.02 "/>
<polyline clip-path="url(#clip450)" style="stroke:#000000; stroke-linecap:round; stroke-linejoin:round; stroke-width:4; stroke-opacity:1; fill:none" points="2319.29,1393.02 2319.29,1374.12 "/>
<polyline clip-path="url(#clip450)" style="stroke:#000000; stroke-linecap:round; stroke-linejoin:round; stroke-width:4; stroke-opacity:1; fill:none" points="2773.67,1393.02 2773.67,1374.12 "/>
<polyline clip-path="url(#clip450)" style="stroke:#000000; stroke-linecap:round; stroke-linejoin:round; stroke-width:4; stroke-opacity:1; fill:none" points="3228.05,1393.02 3228.05,1374.12 "/>
<polyline clip-path="url(#clip450)" style="stroke:#000000; stroke-linecap:round; stroke-linejoin:round; stroke-width:4; stroke-opacity:1; fill:none" points="3682.43,1393.02 3682.43,1374.12 "/>
<path clip-path="url(#clip450)" d="M2304.66 1451.81 Q2301.33 1451.81 2299.41 1453.59 Q2297.51 1455.37 2297.51 1458.5 Q2297.51 1461.62 2299.41 1463.4 Q2301.33 1465.19 2304.66 1465.19 Q2308 1465.19 2309.92 1463.4 Q2311.84 1461.6 2311.84 1458.5 Q2311.84 1455.37 2309.92 1453.59 Q2308.02 1451.81 2304.66 1451.81 M2299.99 1449.82 Q2296.98 1449.08 2295.29 1447.02 Q2293.62 1444.96 2293.62 1441.99 Q2293.62 1437.85 2296.56 1435.44 Q2299.52 1433.03 2304.66 1433.03 Q2309.83 1433.03 2312.77 1435.44 Q2315.7 1437.85 2315.7 1441.99 Q2315.7 1444.96 2314.02 1447.02 Q2312.35 1449.08 2309.36 1449.82 Q2312.74 1450.6 2314.62 1452.9 Q2316.52 1455.19 2316.52 1458.5 Q2316.52 1463.52 2313.44 1466.21 Q2310.38 1468.89 2304.66 1468.89 Q2298.95 1468.89 2295.87 1466.21 Q2292.81 1463.52 2292.81 1458.5 Q2292.81 1455.19 2294.71 1452.9 Q2296.61 1450.6 2299.99 1449.82 M2298.27 1442.43 Q2298.27 1445.12 2299.94 1446.62 Q2301.63 1448.13 2304.66 1448.13 Q2307.67 1448.13 2309.36 1446.62 Q2311.08 1445.12 2311.08 1442.43 Q2311.08 1439.75 2309.36 1438.24 Q2307.67 1436.74 2304.66 1436.74 Q2301.63 1436.74 2299.94 1438.24 Q2298.27 1439.75 2298.27 1442.43 Z" fill="#000000" fill-rule="nonzero" fill-opacity="1" /><path clip-path="url(#clip450)" d="M2324.87 1433.66 L2343.23 1433.66 L2343.23 1437.59 L2329.15 1437.59 L2329.15 1446.07 Q2330.17 1445.72 2331.19 1445.56 Q2332.21 1445.37 2333.23 1445.37 Q2339.01 1445.37 2342.39 1448.54 Q2345.77 1451.72 2345.77 1457.13 Q2345.77 1462.71 2342.3 1465.81 Q2338.83 1468.89 2332.51 1468.89 Q2330.33 1468.89 2328.07 1468.52 Q2325.82 1468.15 2323.41 1467.41 L2323.41 1462.71 Q2325.5 1463.84 2327.72 1464.4 Q2329.94 1464.96 2332.42 1464.96 Q2336.42 1464.96 2338.76 1462.85 Q2341.1 1460.74 2341.1 1457.13 Q2341.1 1453.52 2338.76 1451.41 Q2336.42 1449.31 2332.42 1449.31 Q2330.54 1449.31 2328.67 1449.72 Q2326.82 1450.14 2324.87 1451.02 L2324.87 1433.66 Z" fill="#000000" fill-rule="nonzero" fill-opacity="1" /><path clip-path="url(#clip450)" d="M2748.8 1467.5 L2748.8 1463.24 Q2750.56 1464.08 2752.36 1464.52 Q2754.17 1464.96 2755.91 1464.96 Q2760.53 1464.96 2762.97 1461.85 Q2765.42 1458.73 2765.77 1452.39 Q2764.42 1454.38 2762.36 1455.44 Q2760.3 1456.51 2757.8 1456.51 Q2752.62 1456.51 2749.59 1453.38 Q2746.58 1450.23 2746.58 1444.79 Q2746.58 1439.47 2749.72 1436.25 Q2752.87 1433.03 2758.1 1433.03 Q2764.1 1433.03 2767.25 1437.64 Q2770.42 1442.22 2770.42 1450.97 Q2770.42 1459.15 2766.53 1464.03 Q2762.66 1468.89 2756.11 1468.89 Q2754.35 1468.89 2752.55 1468.54 Q2750.74 1468.2 2748.8 1467.5 M2758.1 1452.85 Q2761.25 1452.85 2763.08 1450.7 Q2764.93 1448.54 2764.93 1444.79 Q2764.93 1441.07 2763.08 1438.91 Q2761.25 1436.74 2758.1 1436.74 Q2754.96 1436.74 2753.1 1438.91 Q2751.28 1441.07 2751.28 1444.79 Q2751.28 1448.54 2753.1 1450.7 Q2754.96 1452.85 2758.1 1452.85 Z" fill="#000000" fill-rule="nonzero" fill-opacity="1" /><path clip-path="url(#clip450)" d="M2788.82 1436.74 Q2785.21 1436.74 2783.38 1440.3 Q2781.58 1443.84 2781.58 1450.97 Q2781.58 1458.08 2783.38 1461.65 Q2785.21 1465.19 2788.82 1465.19 Q2792.46 1465.19 2794.26 1461.65 Q2796.09 1458.08 2796.09 1450.97 Q2796.09 1443.84 2794.26 1440.3 Q2792.46 1436.74 2788.82 1436.74 M2788.82 1433.03 Q2794.63 1433.03 2797.69 1437.64 Q2800.77 1442.22 2800.77 1450.97 Q2800.77 1459.7 2797.69 1464.31 Q2794.63 1468.89 2788.82 1468.89 Q2783.01 1468.89 2779.93 1464.31 Q2776.88 1459.7 2776.88 1450.97 Q2776.88 1442.22 2779.93 1437.64 Q2783.01 1433.03 2788.82 1433.03 Z" fill="#000000" fill-rule="nonzero" fill-opacity="1" /><path clip-path="url(#clip450)" d="M3203.67 1467.5 L3203.67 1463.24 Q3205.43 1464.08 3207.24 1464.52 Q3209.04 1464.96 3210.78 1464.96 Q3215.41 1464.96 3217.84 1461.85 Q3220.29 1458.73 3220.64 1452.39 Q3219.3 1454.38 3217.24 1455.44 Q3215.18 1456.51 3212.68 1456.51 Q3207.49 1456.51 3204.46 1453.38 Q3201.45 1450.23 3201.45 1444.79 Q3201.45 1439.47 3204.6 1436.25 Q3207.75 1433.03 3212.98 1433.03 Q3218.98 1433.03 3222.12 1437.64 Q3225.29 1442.22 3225.29 1450.97 Q3225.29 1459.15 3221.41 1464.03 Q3217.54 1468.89 3210.99 1468.89 Q3209.23 1468.89 3207.42 1468.54 Q3205.62 1468.2 3203.67 1467.5 M3212.98 1452.85 Q3216.13 1452.85 3217.96 1450.7 Q3219.81 1448.54 3219.81 1444.79 Q3219.81 1441.07 3217.96 1438.91 Q3216.13 1436.74 3212.98 1436.74 Q3209.83 1436.74 3207.98 1438.91 Q3206.15 1441.07 3206.15 1444.79 Q3206.15 1448.54 3207.98 1450.7 Q3209.83 1452.85 3212.98 1452.85 Z" fill="#000000" fill-rule="nonzero" fill-opacity="1" /><path clip-path="url(#clip450)" d="M3233.74 1433.66 L3252.1 1433.66 L3252.1 1437.59 L3238.03 1437.59 L3238.03 1446.07 Q3239.04 1445.72 3240.06 1445.56 Q3241.08 1445.37 3242.1 1445.37 Q3247.89 1445.37 3251.27 1448.54 Q3254.65 1451.72 3254.65 1457.13 Q3254.65 1462.71 3251.17 1465.81 Q3247.7 1468.89 3241.38 1468.89 Q3239.21 1468.89 3236.94 1468.52 Q3234.69 1468.15 3232.29 1467.41 L3232.29 1462.71 Q3234.37 1463.84 3236.59 1464.4 Q3238.81 1464.96 3241.29 1464.96 Q3245.29 1464.96 3247.63 1462.85 Q3249.97 1460.74 3249.97 1457.13 Q3249.97 1453.52 3247.63 1451.41 Q3245.29 1449.31 3241.29 1449.31 Q3239.42 1449.31 3237.54 1449.72 Q3235.69 1450.14 3233.74 1451.02 L3233.74 1433.66 Z" fill="#000000" fill-rule="nonzero" fill-opacity="1" /><path clip-path="url(#clip450)" d="M3642.03 1464.28 L3649.67 1464.28 L3649.67 1437.92 L3641.36 1439.59 L3641.36 1435.33 L3649.63 1433.66 L3654.3 1433.66 L3654.3 1464.28 L3661.94 1464.28 L3661.94 1468.22 L3642.03 1468.22 L3642.03 1464.28 Z" fill="#000000" fill-rule="nonzero" fill-opacity="1" /><path clip-path="url(#clip450)" d="M3681.39 1436.74 Q3677.78 1436.74 3675.95 1440.3 Q3674.14 1443.84 3674.14 1450.97 Q3674.14 1458.08 3675.95 1461.65 Q3677.78 1465.19 3681.39 1465.19 Q3685.02 1465.19 3686.83 1461.65 Q3688.65 1458.08 3688.65 1450.97 Q3688.65 1443.84 3686.83 1440.3 Q3685.02 1436.74 3681.39 1436.74 M3681.39 1433.03 Q3687.2 1433.03 3690.25 1437.64 Q3693.33 1442.22 3693.33 1450.97 Q3693.33 1459.7 3690.25 1464.31 Q3687.2 1468.89 3681.39 1468.89 Q3675.58 1468.89 3672.5 1464.31 Q3669.44 1459.7 3669.44 1450.97 Q3669.44 1442.22 3672.5 1437.64 Q3675.58 1433.03 3681.39 1433.03 Z" fill="#000000" fill-rule="nonzero" fill-opacity="1" /><path clip-path="url(#clip450)" d="M3711.55 1436.74 Q3707.94 1436.74 3706.11 1440.3 Q3704.3 1443.84 3704.3 1450.97 Q3704.3 1458.08 3706.11 1461.65 Q3707.94 1465.19 3711.55 1465.19 Q3715.18 1465.19 3716.99 1461.65 Q3718.82 1458.08 3718.82 1450.97 Q3718.82 1443.84 3716.99 1440.3 Q3715.18 1436.74 3711.55 1436.74 M3711.55 1433.03 Q3717.36 1433.03 3720.41 1437.64 Q3723.49 1442.22 3723.49 1450.97 Q3723.49 1459.7 3720.41 1464.31 Q3717.36 1468.89 3711.55 1468.89 Q3705.74 1468.89 3702.66 1464.31 Q3699.6 1459.7 3699.6 1450.97 Q3699.6 1442.22 3702.66 1437.64 Q3705.74 1433.03 3711.55 1433.03 Z" fill="#000000" fill-rule="nonzero" fill-opacity="1" /><path clip-path="url(#clip450)" d="M2982.7 1556.54 L2982.7 1575.44 L2976.81 1575.44 L2976.81 1526.24 L2982.7 1526.24 L2982.7 1531.65 Q2984.54 1528.46 2987.34 1526.94 Q2990.18 1525.38 2994.09 1525.38 Q3000.58 1525.38 3004.63 1530.53 Q3008.7 1535.69 3008.7 1544.09 Q3008.7 1552.49 3004.63 1557.65 Q3000.58 1562.81 2994.09 1562.81 Q2990.18 1562.81 2987.34 1561.28 Q2984.54 1559.72 2982.7 1556.54 M3002.62 1544.09 Q3002.62 1537.63 2999.95 1533.97 Q2997.31 1530.28 2992.66 1530.28 Q2988.01 1530.28 2985.34 1533.97 Q2982.7 1537.63 2982.7 1544.09 Q2982.7 1550.55 2985.34 1554.24 Q2988.01 1557.91 2992.66 1557.91 Q2997.31 1557.91 2999.95 1554.24 Q3002.62 1550.55 3002.62 1544.09 Z" fill="#000000" fill-rule="nonzero" fill-opacity="1" /><path clip-path="url(#clip450)" d="M3053.2 1512.42 Q3048.93 1519.74 3046.86 1526.9 Q3044.79 1534.07 3044.79 1541.42 Q3044.79 1548.77 3046.86 1556 Q3048.96 1563.19 3053.2 1570.48 L3048.1 1570.48 Q3043.33 1563 3040.94 1555.77 Q3038.59 1548.55 3038.59 1541.42 Q3038.59 1534.32 3040.94 1527.13 Q3043.3 1519.93 3048.1 1512.42 L3053.2 1512.42 Z" fill="#000000" fill-rule="nonzero" fill-opacity="1" /><path clip-path="url(#clip450)" d="M3064.34 1512.36 L3070.23 1512.36 L3070.23 1541.61 L3087.7 1526.24 L3095.18 1526.24 L3076.27 1542.91 L3095.97 1561.88 L3088.34 1561.88 L3070.23 1544.47 L3070.23 1561.88 L3064.34 1561.88 L3064.34 1512.36 Z" fill="#000000" fill-rule="nonzero" fill-opacity="1" /><path clip-path="url(#clip450)" d="M3108.99 1519.65 L3108.99 1537.5 L3117.08 1537.5 Q3121.56 1537.5 3124.02 1535.18 Q3126.47 1532.86 3126.47 1528.56 Q3126.47 1524.29 3124.02 1521.97 Q3121.56 1519.65 3117.08 1519.65 L3108.99 1519.65 M3102.56 1514.36 L3117.08 1514.36 Q3125.07 1514.36 3129.14 1517.99 Q3133.25 1521.59 3133.25 1528.56 Q3133.25 1535.59 3129.14 1539.19 Q3125.07 1542.79 3117.08 1542.79 L3108.99 1542.79 L3108.99 1561.88 L3102.56 1561.88 L3102.56 1514.36 Z" fill="#000000" fill-rule="nonzero" fill-opacity="1" /><path clip-path="url(#clip450)" d="M3154.89 1543.96 Q3147.79 1543.96 3145.05 1545.59 Q3142.32 1547.21 3142.32 1551.13 Q3142.32 1554.24 3144.35 1556.09 Q3146.42 1557.91 3149.96 1557.91 Q3154.83 1557.91 3157.75 1554.47 Q3160.71 1551 3160.71 1545.27 L3160.71 1543.96 L3154.89 1543.96 M3166.57 1541.55 L3166.57 1561.88 L3160.71 1561.88 L3160.71 1556.47 Q3158.71 1559.72 3155.72 1561.28 Q3152.72 1562.81 3148.4 1562.81 Q3142.92 1562.81 3139.68 1559.75 Q3136.46 1556.66 3136.46 1551.51 Q3136.46 1545.49 3140.47 1542.44 Q3144.51 1539.38 3152.5 1539.38 L3160.71 1539.38 L3160.71 1538.81 Q3160.71 1534.77 3158.04 1532.57 Q3155.4 1530.34 3150.59 1530.34 Q3147.54 1530.34 3144.64 1531.07 Q3141.74 1531.81 3139.07 1533.27 L3139.07 1527.86 Q3142.29 1526.62 3145.31 1526.01 Q3148.33 1525.38 3151.2 1525.38 Q3158.93 1525.38 3162.75 1529.39 Q3166.57 1533.4 3166.57 1541.55 Z" fill="#000000" fill-rule="nonzero" fill-opacity="1" /><path clip-path="url(#clip450)" d="M3177.71 1512.42 L3182.8 1512.42 Q3187.58 1519.93 3189.93 1527.13 Q3192.32 1534.32 3192.32 1541.42 Q3192.32 1548.55 3189.93 1555.77 Q3187.58 1563 3182.8 1570.48 L3177.71 1570.48 Q3181.94 1563.19 3184.01 1556 Q3186.11 1548.77 3186.11 1541.42 Q3186.11 1534.07 3184.01 1526.9 Q3181.94 1519.74 3177.71 1512.42 Z" fill="#000000" fill-rule="nonzero" fill-opacity="1" /><polyline clip-path="url(#clip453)" style="stroke:#000000; stroke-linecap:round; stroke-linejoin:round; stroke-width:2; stroke-opacity:0.1; fill:none" points="2279.36,1358.19 3889.76,1358.19 "/>
<polyline clip-path="url(#clip453)" style="stroke:#000000; stroke-linecap:round; stroke-linejoin:round; stroke-width:2; stroke-opacity:0.1; fill:none" points="2279.36,971.16 3889.76,971.16 "/>
<polyline clip-path="url(#clip453)" style="stroke:#000000; stroke-linecap:round; stroke-linejoin:round; stroke-width:2; stroke-opacity:0.1; fill:none" points="2279.36,584.132 3889.76,584.132 "/>
<polyline clip-path="url(#clip453)" style="stroke:#000000; stroke-linecap:round; stroke-linejoin:round; stroke-width:2; stroke-opacity:0.1; fill:none" points="2279.36,197.105 3889.76,197.105 "/>
<polyline clip-path="url(#clip450)" style="stroke:#000000; stroke-linecap:round; stroke-linejoin:round; stroke-width:4; stroke-opacity:1; fill:none" points="2279.36,1393.02 2279.36,162.272 "/>
<polyline clip-path="url(#clip450)" style="stroke:#000000; stroke-linecap:round; stroke-linejoin:round; stroke-width:4; stroke-opacity:1; fill:none" points="2279.36,1358.19 2298.26,1358.19 "/>
<polyline clip-path="url(#clip450)" style="stroke:#000000; stroke-linecap:round; stroke-linejoin:round; stroke-width:4; stroke-opacity:1; fill:none" points="2279.36,971.16 2298.26,971.16 "/>
<polyline clip-path="url(#clip450)" style="stroke:#000000; stroke-linecap:round; stroke-linejoin:round; stroke-width:4; stroke-opacity:1; fill:none" points="2279.36,584.132 2298.26,584.132 "/>
<polyline clip-path="url(#clip450)" style="stroke:#000000; stroke-linecap:round; stroke-linejoin:round; stroke-width:4; stroke-opacity:1; fill:none" points="2279.36,197.105 2298.26,197.105 "/>
<path clip-path="url(#clip450)" d="M2162.19 1343.99 Q2158.58 1343.99 2156.75 1347.55 Q2154.94 1351.09 2154.94 1358.22 Q2154.94 1365.33 2156.75 1368.89 Q2158.58 1372.43 2162.19 1372.43 Q2165.82 1372.43 2167.63 1368.89 Q2169.46 1365.33 2169.46 1358.22 Q2169.46 1351.09 2167.63 1347.55 Q2165.82 1343.99 2162.19 1343.99 M2162.19 1340.28 Q2168 1340.28 2171.05 1344.89 Q2174.13 1349.47 2174.13 1358.22 Q2174.13 1366.95 2171.05 1371.56 Q2168 1376.14 2162.19 1376.14 Q2156.38 1376.14 2153.3 1371.56 Q2150.24 1366.95 2150.24 1358.22 Q2150.24 1349.47 2153.3 1344.89 Q2156.38 1340.28 2162.19 1340.28 Z" fill="#000000" fill-rule="nonzero" fill-opacity="1" /><path clip-path="url(#clip450)" d="M2182.35 1369.59 L2187.23 1369.59 L2187.23 1375.47 L2182.35 1375.47 L2182.35 1369.59 Z" fill="#000000" fill-rule="nonzero" fill-opacity="1" /><path clip-path="url(#clip450)" d="M2207.42 1343.99 Q2203.81 1343.99 2201.98 1347.55 Q2200.17 1351.09 2200.17 1358.22 Q2200.17 1365.33 2201.98 1368.89 Q2203.81 1372.43 2207.42 1372.43 Q2211.05 1372.43 2212.86 1368.89 Q2214.69 1365.33 2214.69 1358.22 Q2214.69 1351.09 2212.86 1347.55 Q2211.05 1343.99 2207.42 1343.99 M2207.42 1340.28 Q2213.23 1340.28 2216.29 1344.89 Q2219.36 1349.47 2219.36 1358.22 Q2219.36 1366.95 2216.29 1371.56 Q2213.23 1376.14 2207.42 1376.14 Q2201.61 1376.14 2198.53 1371.56 Q2195.48 1366.95 2195.48 1358.22 Q2195.48 1349.47 2198.53 1344.89 Q2201.61 1340.28 2207.42 1340.28 Z" fill="#000000" fill-rule="nonzero" fill-opacity="1" /><path clip-path="url(#clip450)" d="M2163.18 956.958 Q2159.57 956.958 2157.74 960.523 Q2155.94 964.065 2155.94 971.194 Q2155.94 978.301 2157.74 981.866 Q2159.57 985.407 2163.18 985.407 Q2166.82 985.407 2168.62 981.866 Q2170.45 978.301 2170.45 971.194 Q2170.45 964.065 2168.62 960.523 Q2166.82 956.958 2163.18 956.958 M2163.18 953.255 Q2168.99 953.255 2172.05 957.861 Q2175.13 962.445 2175.13 971.194 Q2175.13 979.921 2172.05 984.528 Q2168.99 989.111 2163.18 989.111 Q2157.37 989.111 2154.3 984.528 Q2151.24 979.921 2151.24 971.194 Q2151.24 962.445 2154.3 957.861 Q2157.37 953.255 2163.18 953.255 Z" fill="#000000" fill-rule="nonzero" fill-opacity="1" /><path clip-path="url(#clip450)" d="M2183.35 982.56 L2188.23 982.56 L2188.23 988.44 L2183.35 988.44 L2183.35 982.56 Z" fill="#000000" fill-rule="nonzero" fill-opacity="1" /><path clip-path="url(#clip450)" d="M2198.46 953.88 L2216.82 953.88 L2216.82 957.815 L2202.74 957.815 L2202.74 966.287 Q2203.76 965.94 2204.78 965.778 Q2205.8 965.593 2206.82 965.593 Q2212.61 965.593 2215.98 968.764 Q2219.36 971.935 2219.36 977.352 Q2219.36 982.931 2215.89 986.032 Q2212.42 989.111 2206.1 989.111 Q2203.92 989.111 2201.66 988.741 Q2199.41 988.37 2197 987.63 L2197 982.931 Q2199.09 984.065 2201.31 984.62 Q2203.53 985.176 2206.01 985.176 Q2210.01 985.176 2212.35 983.069 Q2214.69 980.963 2214.69 977.352 Q2214.69 973.741 2212.35 971.634 Q2210.01 969.528 2206.01 969.528 Q2204.13 969.528 2202.26 969.944 Q2200.41 970.361 2198.46 971.241 L2198.46 953.88 Z" fill="#000000" fill-rule="nonzero" fill-opacity="1" /><path clip-path="url(#clip450)" d="M2153 597.477 L2160.64 597.477 L2160.64 571.111 L2152.33 572.778 L2152.33 568.519 L2160.59 566.852 L2165.27 566.852 L2165.27 597.477 L2172.91 597.477 L2172.91 601.412 L2153 601.412 L2153 597.477 Z" fill="#000000" fill-rule="nonzero" fill-opacity="1" /><path clip-path="url(#clip450)" d="M2182.35 595.533 L2187.23 595.533 L2187.23 601.412 L2182.35 601.412 L2182.35 595.533 Z" fill="#000000" fill-rule="nonzero" fill-opacity="1" /><path clip-path="url(#clip450)" d="M2207.42 569.931 Q2203.81 569.931 2201.98 573.496 Q2200.17 577.037 2200.17 584.167 Q2200.17 591.273 2201.98 594.838 Q2203.81 598.38 2207.42 598.38 Q2211.05 598.38 2212.86 594.838 Q2214.69 591.273 2214.69 584.167 Q2214.69 577.037 2212.86 573.496 Q2211.05 569.931 2207.42 569.931 M2207.42 566.227 Q2213.23 566.227 2216.29 570.834 Q2219.36 575.417 2219.36 584.167 Q2219.36 592.894 2216.29 597.5 Q2213.23 602.084 2207.42 602.084 Q2201.61 602.084 2198.53 597.5 Q2195.48 592.894 2195.48 584.167 Q2195.48 575.417 2198.53 570.834 Q2201.61 566.227 2207.42 566.227 Z" fill="#000000" fill-rule="nonzero" fill-opacity="1" /><path clip-path="url(#clip450)" d="M2153.99 210.45 L2161.63 210.45 L2161.63 184.084 L2153.32 185.751 L2153.32 181.491 L2161.59 179.825 L2166.26 179.825 L2166.26 210.45 L2173.9 210.45 L2173.9 214.385 L2153.99 214.385 L2153.99 210.45 Z" fill="#000000" fill-rule="nonzero" fill-opacity="1" /><path clip-path="url(#clip450)" d="M2183.35 208.505 L2188.23 208.505 L2188.23 214.385 L2183.35 214.385 L2183.35 208.505 Z" fill="#000000" fill-rule="nonzero" fill-opacity="1" /><path clip-path="url(#clip450)" d="M2198.46 179.825 L2216.82 179.825 L2216.82 183.76 L2202.74 183.76 L2202.74 192.232 Q2203.76 191.885 2204.78 191.723 Q2205.8 191.538 2206.82 191.538 Q2212.61 191.538 2215.98 194.709 Q2219.36 197.88 2219.36 203.297 Q2219.36 208.875 2215.89 211.977 Q2212.42 215.056 2206.1 215.056 Q2203.92 215.056 2201.66 214.686 Q2199.41 214.315 2197 213.575 L2197 208.875 Q2199.09 210.01 2201.31 210.565 Q2203.53 211.121 2206.01 211.121 Q2210.01 211.121 2212.35 209.014 Q2214.69 206.908 2214.69 203.297 Q2214.69 199.686 2212.35 197.579 Q2210.01 195.473 2206.01 195.473 Q2204.13 195.473 2202.26 195.889 Q2200.41 196.306 2198.46 197.186 L2198.46 179.825 Z" fill="#000000" fill-rule="nonzero" fill-opacity="1" /><path clip-path="url(#clip450)" d="M2040.34 876.171 L2040.34 848.353 L2045.69 848.353 L2071.31 870.378 L2071.31 848.353 L2075.99 848.353 L2075.99 876.967 L2070.64 876.967 L2045.02 854.942 L2045.02 876.171 L2040.34 876.171 Z" fill="#000000" fill-rule="nonzero" fill-opacity="1" /><path clip-path="url(#clip450)" d="M2026.53 804.621 Q2033.85 808.886 2041.01 810.955 Q2048.17 813.023 2055.52 813.023 Q2062.87 813.023 2070.1 810.955 Q2077.29 808.854 2084.58 804.621 L2084.58 809.713 Q2077.1 814.488 2069.88 816.875 Q2062.65 819.23 2055.52 819.23 Q2048.42 819.23 2041.23 816.875 Q2034.04 814.519 2026.53 809.713 L2026.53 804.621 Z" fill="#000000" fill-rule="nonzero" fill-opacity="1" /><path clip-path="url(#clip450)" d="M2026.46 793.481 L2026.46 787.592 L2055.71 787.592 L2040.34 770.119 L2040.34 762.639 L2057.02 781.545 L2075.99 761.843 L2075.99 769.482 L2058.58 787.592 L2075.99 787.592 L2075.99 793.481 L2026.46 793.481 Z" fill="#000000" fill-rule="nonzero" fill-opacity="1" /><path clip-path="url(#clip450)" d="M2047.18 727.755 Q2043.24 725.559 2041.36 722.503 Q2039.48 719.448 2039.48 715.31 Q2039.48 709.74 2043.4 706.716 Q2047.28 703.692 2054.47 703.692 L2075.99 703.692 L2075.99 709.581 L2054.66 709.581 Q2049.54 709.581 2047.06 711.395 Q2044.57 713.209 2044.57 716.933 Q2044.57 721.485 2047.6 724.126 Q2050.62 726.768 2055.84 726.768 L2075.99 726.768 L2075.99 732.656 L2054.66 732.656 Q2049.51 732.656 2047.06 734.471 Q2044.57 736.285 2044.57 740.072 Q2044.57 744.56 2047.63 747.202 Q2050.65 749.844 2055.84 749.844 L2075.99 749.844 L2075.99 755.732 L2040.34 755.732 L2040.34 749.844 L2045.88 749.844 Q2042.6 747.839 2041.04 745.038 Q2039.48 742.237 2039.48 738.385 Q2039.48 734.502 2041.45 731.797 Q2043.43 729.06 2047.18 727.755 Z" fill="#000000" fill-rule="nonzero" fill-opacity="1" /><path clip-path="url(#clip450)" d="M2026.53 692.934 L2026.53 687.842 Q2034.04 683.067 2041.23 680.712 Q2048.42 678.325 2055.52 678.325 Q2062.65 678.325 2069.88 680.712 Q2077.1 683.067 2084.58 687.842 L2084.58 692.934 Q2077.29 688.701 2070.1 686.632 Q2062.87 684.532 2055.52 684.532 Q2048.17 684.532 2041.01 686.632 Q2033.85 688.701 2026.53 692.934 Z" fill="#000000" fill-rule="nonzero" fill-opacity="1" /><path clip-path="url(#clip450)" d="M2954.91 65.7705 L2954.91 89.8329 L2947.42 89.8329 L2947.42 27.2059 L2954.91 27.2059 L2954.91 34.0924 Q2957.26 30.0415 2960.83 28.0971 Q2964.43 26.1121 2969.42 26.1121 Q2977.68 26.1121 2982.83 32.6746 Q2988.01 39.2371 2988.01 49.9314 Q2988.01 60.6258 2982.83 67.1883 Q2977.68 73.7508 2969.42 73.7508 Q2964.43 73.7508 2960.83 71.8063 Q2957.26 69.8214 2954.91 65.7705 M2980.27 49.9314 Q2980.27 41.7081 2976.87 37.0496 Q2973.51 32.3505 2967.59 32.3505 Q2961.68 32.3505 2958.28 37.0496 Q2954.91 41.7081 2954.91 49.9314 Q2954.91 58.1548 2958.28 62.8538 Q2961.68 67.5124 2967.59 67.5124 Q2973.51 67.5124 2976.87 62.8538 Q2980.27 58.1548 2980.27 49.9314 Z" fill="#000000" fill-rule="nonzero" fill-opacity="1" /><path clip-path="url(#clip450)" d="M3044.64 9.62495 Q3039.21 18.942 3036.58 28.0566 Q3033.95 37.1711 3033.95 46.5287 Q3033.95 55.8863 3036.58 65.0818 Q3039.25 74.2369 3044.64 83.5134 L3038.16 83.5134 Q3032.08 73.9938 3029.05 64.7983 Q3026.05 55.6027 3026.05 46.5287 Q3026.05 37.4952 3029.05 28.3401 Q3032.04 19.1851 3038.16 9.62495 L3044.64 9.62495 Z" fill="#000000" fill-rule="nonzero" fill-opacity="1" /><path clip-path="url(#clip450)" d="M3058.82 9.54393 L3066.31 9.54393 L3066.31 46.7717 L3088.55 27.2059 L3098.07 27.2059 L3074.01 48.4326 L3099.09 72.576 L3089.36 72.576 L3066.31 50.4176 L3066.31 72.576 L3058.82 72.576 L3058.82 9.54393 Z" fill="#000000" fill-rule="nonzero" fill-opacity="1" /><path clip-path="url(#clip450)" d="M3115.65 18.8205 L3115.65 41.5461 L3125.94 41.5461 Q3131.66 41.5461 3134.77 38.5889 Q3137.89 35.6318 3137.89 30.163 Q3137.89 24.7348 3134.77 21.7777 Q3131.66 18.8205 3125.94 18.8205 L3115.65 18.8205 M3107.47 12.096 L3125.94 12.096 Q3136.11 12.096 3141.3 16.714 Q3146.52 21.2916 3146.52 30.163 Q3146.52 39.1155 3141.3 43.6931 Q3136.11 48.2706 3125.94 48.2706 L3115.65 48.2706 L3115.65 72.576 L3107.47 72.576 L3107.47 12.096 Z" fill="#000000" fill-rule="nonzero" fill-opacity="1" /><path clip-path="url(#clip450)" d="M3174.07 49.7694 Q3165.04 49.7694 3161.55 51.8354 Q3158.07 53.9013 3158.07 58.8839 Q3158.07 62.8538 3160.66 65.2034 Q3163.29 67.5124 3167.79 67.5124 Q3173.99 67.5124 3177.71 63.1374 Q3181.48 58.7219 3181.48 51.4303 L3181.48 49.7694 L3174.07 49.7694 M3188.94 46.6907 L3188.94 72.576 L3181.48 72.576 L3181.48 65.6895 Q3178.93 69.8214 3175.12 71.8063 Q3171.31 73.7508 3165.8 73.7508 Q3158.84 73.7508 3154.71 69.8619 Q3150.61 65.9325 3150.61 59.3701 Q3150.61 51.7138 3155.72 47.825 Q3160.86 43.9361 3171.03 43.9361 L3181.48 43.9361 L3181.48 43.2069 Q3181.48 38.0623 3178.08 35.2672 Q3174.72 32.4315 3168.6 32.4315 Q3164.71 32.4315 3161.02 33.3632 Q3157.34 34.295 3153.94 36.1584 L3153.94 29.2718 Q3158.03 27.692 3161.88 26.9223 Q3165.72 26.1121 3169.37 26.1121 Q3179.21 26.1121 3184.07 31.2163 Q3188.94 36.3204 3188.94 46.6907 Z" fill="#000000" fill-rule="nonzero" fill-opacity="1" /><path clip-path="url(#clip450)" d="M3203.11 9.62495 L3209.6 9.62495 Q3215.67 19.1851 3218.67 28.3401 Q3221.71 37.4952 3221.71 46.5287 Q3221.71 55.6027 3218.67 64.7983 Q3215.67 73.9938 3209.6 83.5134 L3203.11 83.5134 Q3208.5 74.2369 3211.13 65.0818 Q3213.81 55.8863 3213.81 46.5287 Q3213.81 37.1711 3211.13 28.0566 Q3208.5 18.942 3203.11 9.62495 Z" fill="#000000" fill-rule="nonzero" fill-opacity="1" /><polyline clip-path="url(#clip453)" style="stroke:#009af9; stroke-linecap:round; stroke-linejoin:round; stroke-width:4; stroke-opacity:1; fill:none" points="3817.15,1338.84 3763.25,1300.13 3709.58,1261.43 3656.13,1222.73 3602.9,1184.02 3549.9,1145.32 3497.12,1106.62 3444.57,1067.92 3392.23,1029.21 3340.12,990.511 3288.23,951.808 3236.56,913.106 3185.12,874.403 3133.93,835.7 3082.99,796.997 3032.31,758.295 2981.87,719.592 2931.69,680.889 2881.75,642.186 2832.06,603.484 2782.61,564.781 2733.41,526.078 2684.46,487.375 2635.74,448.673 2587.27,409.97 2539.04,371.267 2491.04,332.564 2443.29,293.862 2395.77,255.159 2348.49,216.456 "/>
<polyline clip-path="url(#clip453)" style="stroke:#e26f46; stroke-linecap:round; stroke-linejoin:round; stroke-width:4; stroke-opacity:1; fill:none" points="3844.19,1358.19 3790.17,1319.48 3736.39,1280.78 3682.82,1242.08 3629.49,1203.38 3576.37,1164.67 3523.48,1125.97 3470.82,1087.27 3418.37,1048.57 3366.15,1009.86 3314.15,971.16 3262.37,932.457 3210.81,893.754 3159.49,855.051 3108.43,816.349 3057.62,777.646 3007.06,738.943 2956.75,700.24 2906.69,661.538 2856.87,622.835 2807.31,584.132 2757.98,545.429 2708.9,506.727 2660.07,468.024 2611.48,429.321 2563.12,390.618 2515.01,351.916 2467.14,313.213 2419.5,274.51 2372.1,235.807 2324.94,197.105 "/>
<path clip-path="url(#clip450)" d="M3502.75 358.817 L3836.08 358.817 L3836.08 203.297 L3502.75 203.297  Z" fill="#ffffff" fill-rule="evenodd" fill-opacity="1"/>
<polyline clip-path="url(#clip450)" style="stroke:#000000; stroke-linecap:round; stroke-linejoin:round; stroke-width:4; stroke-opacity:1; fill:none" points="3502.75,358.817 3836.08,358.817 3836.08,203.297 3502.75,203.297 3502.75,358.817 "/>
<polyline clip-path="url(#clip450)" style="stroke:#009af9; stroke-linecap:round; stroke-linejoin:round; stroke-width:4; stroke-opacity:1; fill:none" points="3520.65,255.137 3628.01,255.137 "/>
<path clip-path="url(#clip450)" d="M3666.41 247.487 L3666.41 251.468 Q3664.6 250.473 3662.77 249.987 Q3660.97 249.477 3659.12 249.477 Q3654.97 249.477 3652.68 252.116 Q3650.39 254.732 3650.39 259.477 Q3650.39 264.223 3652.68 266.862 Q3654.97 269.477 3659.12 269.477 Q3660.97 269.477 3662.77 268.991 Q3664.6 268.482 3666.41 267.487 L3666.41 271.422 Q3664.63 272.255 3662.71 272.672 Q3660.81 273.088 3658.65 273.088 Q3652.8 273.088 3649.35 269.408 Q3645.9 265.727 3645.9 259.477 Q3645.9 253.135 3649.37 249.501 Q3652.87 245.866 3658.93 245.866 Q3660.9 245.866 3662.77 246.283 Q3664.65 246.677 3666.41 247.487 Z" fill="#000000" fill-rule="nonzero" fill-opacity="1" /><path clip-path="url(#clip450)" d="M3695.99 258.389 L3695.99 260.473 L3676.41 260.473 Q3676.69 264.871 3679.05 267.186 Q3681.43 269.477 3685.67 269.477 Q3688.12 269.477 3690.41 268.876 Q3692.73 268.274 3695 267.07 L3695 271.098 Q3692.71 272.07 3690.3 272.579 Q3687.89 273.088 3685.41 273.088 Q3679.21 273.088 3675.58 269.477 Q3671.96 265.866 3671.96 259.709 Q3671.96 253.343 3675.39 249.616 Q3678.84 245.866 3684.67 245.866 Q3689.9 245.866 3692.94 249.246 Q3695.99 252.602 3695.99 258.389 M3691.73 257.139 Q3691.69 253.644 3689.77 251.561 Q3687.87 249.477 3684.72 249.477 Q3681.15 249.477 3679 251.491 Q3676.87 253.505 3676.55 257.163 L3691.73 257.139 Z" fill="#000000" fill-rule="nonzero" fill-opacity="1" /><path clip-path="url(#clip450)" d="M3724.53 256.769 L3724.53 272.417 L3720.27 272.417 L3720.27 256.908 Q3720.27 253.227 3718.84 251.399 Q3717.4 249.57 3714.53 249.57 Q3711.08 249.57 3709.09 251.769 Q3707.1 253.968 3707.1 257.764 L3707.1 272.417 L3702.82 272.417 L3702.82 246.491 L3707.1 246.491 L3707.1 250.519 Q3708.63 248.181 3710.69 247.024 Q3712.77 245.866 3715.48 245.866 Q3719.95 245.866 3722.24 248.644 Q3724.53 251.399 3724.53 256.769 Z" fill="#000000" fill-rule="nonzero" fill-opacity="1" /><path clip-path="url(#clip450)" d="M3737.24 239.13 L3737.24 246.491 L3746.01 246.491 L3746.01 249.802 L3737.24 249.802 L3737.24 263.876 Q3737.24 267.047 3738.1 267.95 Q3738.98 268.852 3741.64 268.852 L3746.01 268.852 L3746.01 272.417 L3741.64 272.417 Q3736.71 272.417 3734.83 270.588 Q3732.96 268.737 3732.96 263.876 L3732.96 249.802 L3729.83 249.802 L3729.83 246.491 L3732.96 246.491 L3732.96 239.13 L3737.24 239.13 Z" fill="#000000" fill-rule="nonzero" fill-opacity="1" /><path clip-path="url(#clip450)" d="M3773.79 258.389 L3773.79 260.473 L3754.21 260.473 Q3754.49 264.871 3756.85 267.186 Q3759.23 269.477 3763.47 269.477 Q3765.92 269.477 3768.21 268.876 Q3770.53 268.274 3772.8 267.07 L3772.8 271.098 Q3770.51 272.07 3768.1 272.579 Q3765.69 273.088 3763.21 273.088 Q3757.01 273.088 3753.38 269.477 Q3749.76 265.866 3749.76 259.709 Q3749.76 253.343 3753.19 249.616 Q3756.64 245.866 3762.47 245.866 Q3767.7 245.866 3770.74 249.246 Q3773.79 252.602 3773.79 258.389 M3769.53 257.139 Q3769.49 253.644 3767.57 251.561 Q3765.67 249.477 3762.52 249.477 Q3758.95 249.477 3756.8 251.491 Q3754.67 253.505 3754.35 257.163 L3769.53 257.139 Z" fill="#000000" fill-rule="nonzero" fill-opacity="1" /><path clip-path="url(#clip450)" d="M3795.81 250.473 Q3795.09 250.056 3794.23 249.871 Q3793.4 249.663 3792.38 249.663 Q3788.77 249.663 3786.82 252.024 Q3784.9 254.362 3784.9 258.76 L3784.9 272.417 L3780.62 272.417 L3780.62 246.491 L3784.9 246.491 L3784.9 250.519 Q3786.25 248.158 3788.4 247.024 Q3790.55 245.866 3793.63 245.866 Q3794.07 245.866 3794.6 245.936 Q3795.14 245.982 3795.78 246.098 L3795.81 250.473 Z" fill="#000000" fill-rule="nonzero" fill-opacity="1" /><path clip-path="url(#clip450)" d="M3816.8 247.255 L3816.8 251.283 Q3815 250.357 3813.05 249.894 Q3811.11 249.431 3809.02 249.431 Q3805.85 249.431 3804.26 250.403 Q3802.68 251.376 3802.68 253.32 Q3802.68 254.802 3803.82 255.658 Q3804.95 256.491 3808.38 257.255 L3809.83 257.579 Q3814.37 258.552 3816.27 260.334 Q3818.19 262.093 3818.19 265.264 Q3818.19 268.876 3815.32 270.982 Q3812.47 273.088 3807.47 273.088 Q3805.39 273.088 3803.12 272.672 Q3800.88 272.278 3798.38 271.468 L3798.38 267.07 Q3800.74 268.297 3803.03 268.922 Q3805.32 269.524 3807.57 269.524 Q3810.57 269.524 3812.2 268.505 Q3813.82 267.463 3813.82 265.589 Q3813.82 263.852 3812.63 262.926 Q3811.48 262.001 3807.52 261.144 L3806.04 260.797 Q3802.08 259.964 3800.32 258.251 Q3798.56 256.514 3798.56 253.505 Q3798.56 249.848 3801.15 247.857 Q3803.75 245.866 3808.51 245.866 Q3810.88 245.866 3812.96 246.214 Q3815.04 246.561 3816.8 247.255 Z" fill="#000000" fill-rule="nonzero" fill-opacity="1" /><polyline clip-path="url(#clip450)" style="stroke:#e26f46; stroke-linecap:round; stroke-linejoin:round; stroke-width:4; stroke-opacity:1; fill:none" points="3520.65,306.977 3628.01,306.977 "/>
<path clip-path="url(#clip450)" d="M3662.4 288.239 L3662.4 291.78 L3658.33 291.78 Q3656.04 291.78 3655.14 292.706 Q3654.26 293.632 3654.26 296.04 L3654.26 298.331 L3661.27 298.331 L3661.27 301.642 L3654.26 301.642 L3654.26 324.257 L3649.97 324.257 L3649.97 301.642 L3645.9 301.642 L3645.9 298.331 L3649.97 298.331 L3649.97 296.526 Q3649.97 292.197 3651.99 290.23 Q3654 288.239 3658.38 288.239 L3662.4 288.239 Z" fill="#000000" fill-rule="nonzero" fill-opacity="1" /><path clip-path="url(#clip450)" d="M3677.75 311.225 Q3672.59 311.225 3670.6 312.405 Q3668.61 313.586 3668.61 316.433 Q3668.61 318.702 3670.09 320.044 Q3671.59 321.364 3674.16 321.364 Q3677.71 321.364 3679.83 318.864 Q3681.99 316.341 3681.99 312.174 L3681.99 311.225 L3677.75 311.225 M3686.25 309.466 L3686.25 324.257 L3681.99 324.257 L3681.99 320.322 Q3680.53 322.683 3678.35 323.817 Q3676.18 324.928 3673.03 324.928 Q3669.05 324.928 3666.69 322.706 Q3664.35 320.461 3664.35 316.711 Q3664.35 312.336 3667.27 310.114 Q3670.21 307.892 3676.02 307.892 L3681.99 307.892 L3681.99 307.475 Q3681.99 304.535 3680.04 302.938 Q3678.12 301.317 3674.63 301.317 Q3672.4 301.317 3670.3 301.85 Q3668.19 302.382 3666.25 303.447 L3666.25 299.512 Q3668.58 298.609 3670.78 298.169 Q3672.98 297.706 3675.07 297.706 Q3680.69 297.706 3683.47 300.623 Q3686.25 303.54 3686.25 309.466 Z" fill="#000000" fill-rule="nonzero" fill-opacity="1" /><path clip-path="url(#clip450)" d="M3713.68 299.327 L3713.68 303.308 Q3711.87 302.313 3710.04 301.827 Q3708.24 301.317 3706.39 301.317 Q3702.24 301.317 3699.95 303.956 Q3697.66 306.572 3697.66 311.317 Q3697.66 316.063 3699.95 318.702 Q3702.24 321.317 3706.39 321.317 Q3708.24 321.317 3710.04 320.831 Q3711.87 320.322 3713.68 319.327 L3713.68 323.262 Q3711.89 324.095 3709.97 324.512 Q3708.08 324.928 3705.92 324.928 Q3700.07 324.928 3696.62 321.248 Q3693.17 317.567 3693.17 311.317 Q3693.17 304.975 3696.64 301.341 Q3700.14 297.706 3706.2 297.706 Q3708.17 297.706 3710.04 298.123 Q3711.92 298.517 3713.68 299.327 Z" fill="#000000" fill-rule="nonzero" fill-opacity="1" /><path clip-path="url(#clip450)" d="M3743.26 310.229 L3743.26 312.313 L3723.68 312.313 Q3723.95 316.711 3726.32 319.026 Q3728.7 321.317 3732.94 321.317 Q3735.39 321.317 3737.68 320.716 Q3740 320.114 3742.26 318.91 L3742.26 322.938 Q3739.97 323.91 3737.57 324.419 Q3735.16 324.928 3732.68 324.928 Q3726.48 324.928 3722.84 321.317 Q3719.23 317.706 3719.23 311.549 Q3719.23 305.183 3722.66 301.456 Q3726.11 297.706 3731.94 297.706 Q3737.17 297.706 3740.2 301.086 Q3743.26 304.442 3743.26 310.229 M3739 308.979 Q3738.95 305.484 3737.03 303.401 Q3735.14 301.317 3731.99 301.317 Q3728.42 301.317 3726.27 303.331 Q3724.14 305.345 3723.82 309.003 L3739 308.979 Z" fill="#000000" fill-rule="nonzero" fill-opacity="1" /><path clip-path="url(#clip450)" d="M3766.78 299.095 L3766.78 303.123 Q3764.97 302.197 3763.03 301.734 Q3761.08 301.271 3759 301.271 Q3755.83 301.271 3754.23 302.243 Q3752.66 303.216 3752.66 305.16 Q3752.66 306.642 3753.79 307.498 Q3754.93 308.331 3758.35 309.095 L3759.81 309.419 Q3764.35 310.392 3766.25 312.174 Q3768.17 313.933 3768.17 317.104 Q3768.17 320.716 3765.3 322.822 Q3762.45 324.928 3757.45 324.928 Q3755.37 324.928 3753.1 324.512 Q3750.85 324.118 3748.35 323.308 L3748.35 318.91 Q3750.71 320.137 3753.01 320.762 Q3755.3 321.364 3757.54 321.364 Q3760.55 321.364 3762.17 320.345 Q3763.79 319.303 3763.79 317.429 Q3763.79 315.692 3762.61 314.766 Q3761.45 313.841 3757.5 312.984 L3756.01 312.637 Q3752.06 311.804 3750.3 310.091 Q3748.54 308.354 3748.54 305.345 Q3748.54 301.688 3751.13 299.697 Q3753.72 297.706 3758.49 297.706 Q3760.85 297.706 3762.94 298.054 Q3765.02 298.401 3766.78 299.095 Z" fill="#000000" fill-rule="nonzero" fill-opacity="1" /></svg>
