<?xml version="1.0" encoding="utf-8"?>
<svg xmlns="http://www.w3.org/2000/svg" xmlns:xlink="http://www.w3.org/1999/xlink" width="1000" height="400" viewBox="0 0 4000 1600">
<defs>
  <clipPath id="clip060">
    <rect x="0" y="0" width="4000" height="1600"/>
  </clipPath>
</defs>
<path clip-path="url(#clip060)" d="
M0 1600 L4000 1600 L4000 0 L0 0  Z
  " fill="#ffffff" fill-rule="evenodd" fill-opacity="1"/>
<defs>
  <clipPath id="clip061">
    <rect x="800" y="0" width="2801" height="1600"/>
  </clipPath>
</defs>
<path clip-path="url(#clip060)" d="
M262.212 1393.02 L3889.76 1393.02 L3889.76 162.272 L262.212 162.272  Z
  " fill="#ffffff" fill-rule="evenodd" fill-opacity="1"/>
<defs>
  <clipPath id="clip062">
    <rect x="262" y="162" width="3629" height="1232"/>
  </clipPath>
</defs>
<polyline clip-path="url(#clip062)" style="stroke:#000000; stroke-linecap:butt; stroke-linejoin:round; stroke-width:2; stroke-opacity:0.1; fill:none" points="
  767.604,1393.02 767.604,162.272 
  "/>
<polyline clip-path="url(#clip062)" style="stroke:#000000; stroke-linecap:butt; stroke-linejoin:round; stroke-width:2; stroke-opacity:0.1; fill:none" points="
  1510.41,1393.02 1510.41,162.272 
  "/>
<polyline clip-path="url(#clip062)" style="stroke:#000000; stroke-linecap:butt; stroke-linejoin:round; stroke-width:2; stroke-opacity:0.1; fill:none" points="
  2253.21,1393.02 2253.21,162.272 
  "/>
<polyline clip-path="url(#clip062)" style="stroke:#000000; stroke-linecap:butt; stroke-linejoin:round; stroke-width:2; stroke-opacity:0.1; fill:none" points="
  2996.01,1393.02 2996.01,162.272 
  "/>
<polyline clip-path="url(#clip062)" style="stroke:#000000; stroke-linecap:butt; stroke-linejoin:round; stroke-width:2; stroke-opacity:0.1; fill:none" points="
  3738.82,1393.02 3738.82,162.272 
  "/>
<polyline clip-path="url(#clip060)" style="stroke:#000000; stroke-linecap:butt; stroke-linejoin:round; stroke-width:4; stroke-opacity:1; fill:none" points="
  262.212,1393.02 3889.76,1393.02 
  "/>
<polyline clip-path="url(#clip060)" style="stroke:#000000; stroke-linecap:butt; stroke-linejoin:round; stroke-width:4; stroke-opacity:1; fill:none" points="
  767.604,1393.02 767.604,1374.12 
  "/>
<polyline clip-path="url(#clip060)" style="stroke:#000000; stroke-linecap:butt; stroke-linejoin:round; stroke-width:4; stroke-opacity:1; fill:none" points="
  1510.41,1393.02 1510.41,1374.12 
  "/>
<polyline clip-path="url(#clip060)" style="stroke:#000000; stroke-linecap:butt; stroke-linejoin:round; stroke-width:4; stroke-opacity:1; fill:none" points="
  2253.21,1393.02 2253.21,1374.12 
  "/>
<polyline clip-path="url(#clip060)" style="stroke:#000000; stroke-linecap:butt; stroke-linejoin:round; stroke-width:4; stroke-opacity:1; fill:none" points="
  2996.01,1393.02 2996.01,1374.12 
  "/>
<polyline clip-path="url(#clip060)" style="stroke:#000000; stroke-linecap:butt; stroke-linejoin:round; stroke-width:4; stroke-opacity:1; fill:none" points="
  3738.82,1393.02 3738.82,1374.12 
  "/>
<path clip-path="url(#clip060)" d="M746.378 1464.28 L762.697 1464.28 L762.697 1468.22 L740.753 1468.22 L740.753 1464.28 Q743.415 1461.53 747.998 1456.9 Q752.605 1452.25 753.785 1450.9 Q756.03 1448.38 756.91 1446.65 Q757.813 1444.89 757.813 1443.2 Q757.813 1440.44 755.868 1438.71 Q753.947 1436.97 750.845 1436.97 Q748.646 1436.97 746.193 1437.73 Q743.762 1438.5 740.984 1440.05 L740.984 1435.33 Q743.808 1434.19 746.262 1433.61 Q748.716 1433.03 750.753 1433.03 Q756.123 1433.03 759.317 1435.72 Q762.512 1438.41 762.512 1442.9 Q762.512 1445.03 761.702 1446.95 Q760.915 1448.84 758.808 1451.44 Q758.23 1452.11 755.128 1455.33 Q752.026 1458.52 746.378 1464.28 Z" fill="#000000" fill-rule="evenodd" fill-opacity="1" /><path clip-path="url(#clip060)" d="M782.512 1436.74 Q778.901 1436.74 777.072 1440.3 Q775.266 1443.84 775.266 1450.97 Q775.266 1458.08 777.072 1461.65 Q778.901 1465.19 782.512 1465.19 Q786.146 1465.19 787.952 1461.65 Q789.78 1458.08 789.78 1450.97 Q789.78 1443.84 787.952 1440.3 Q786.146 1436.74 782.512 1436.74 M782.512 1433.03 Q788.322 1433.03 791.377 1437.64 Q794.456 1442.22 794.456 1450.97 Q794.456 1459.7 791.377 1464.31 Q788.322 1468.89 782.512 1468.89 Q776.702 1468.89 773.623 1464.31 Q770.567 1459.7 770.567 1450.97 Q770.567 1442.22 773.623 1437.64 Q776.702 1433.03 782.512 1433.03 Z" fill="#000000" fill-rule="evenodd" fill-opacity="1" /><path clip-path="url(#clip060)" d="M1498.58 1437.73 L1486.77 1456.18 L1498.58 1456.18 L1498.58 1437.73 M1497.35 1433.66 L1503.23 1433.66 L1503.23 1456.18 L1508.16 1456.18 L1508.16 1460.07 L1503.23 1460.07 L1503.23 1468.22 L1498.58 1468.22 L1498.58 1460.07 L1482.98 1460.07 L1482.98 1455.56 L1497.35 1433.66 Z" fill="#000000" fill-rule="evenodd" fill-opacity="1" /><path clip-path="url(#clip060)" d="M1525.89 1436.74 Q1522.28 1436.74 1520.45 1440.3 Q1518.65 1443.84 1518.65 1450.97 Q1518.65 1458.08 1520.45 1461.65 Q1522.28 1465.19 1525.89 1465.19 Q1529.53 1465.19 1531.33 1461.65 Q1533.16 1458.08 1533.16 1450.97 Q1533.16 1443.84 1531.33 1440.3 Q1529.53 1436.74 1525.89 1436.74 M1525.89 1433.03 Q1531.7 1433.03 1534.76 1437.64 Q1537.84 1442.22 1537.84 1450.97 Q1537.84 1459.7 1534.76 1464.31 Q1531.7 1468.89 1525.89 1468.89 Q1520.08 1468.89 1517 1464.31 Q1513.95 1459.7 1513.95 1450.97 Q1513.95 1442.22 1517 1437.64 Q1520.08 1433.03 1525.89 1433.03 Z" fill="#000000" fill-rule="evenodd" fill-opacity="1" /><path clip-path="url(#clip060)" d="M2238.61 1449.08 Q2235.47 1449.08 2233.61 1451.23 Q2231.79 1453.38 2231.79 1457.13 Q2231.79 1460.86 2233.61 1463.03 Q2235.47 1465.19 2238.61 1465.19 Q2241.76 1465.19 2243.59 1463.03 Q2245.44 1460.86 2245.44 1457.13 Q2245.44 1453.38 2243.59 1451.23 Q2241.76 1449.08 2238.61 1449.08 M2247.9 1434.42 L2247.9 1438.68 Q2246.14 1437.85 2244.33 1437.41 Q2242.55 1436.97 2240.79 1436.97 Q2236.16 1436.97 2233.71 1440.09 Q2231.28 1443.22 2230.93 1449.54 Q2232.3 1447.53 2234.36 1446.46 Q2236.42 1445.37 2238.89 1445.37 Q2244.1 1445.37 2247.11 1448.54 Q2250.14 1451.69 2250.14 1457.13 Q2250.14 1462.46 2246.99 1465.67 Q2243.85 1468.89 2238.61 1468.89 Q2232.62 1468.89 2229.45 1464.31 Q2226.28 1459.7 2226.28 1450.97 Q2226.28 1442.78 2230.17 1437.92 Q2234.05 1433.03 2240.61 1433.03 Q2242.36 1433.03 2244.15 1433.38 Q2245.95 1433.73 2247.9 1434.42 Z" fill="#000000" fill-rule="evenodd" fill-opacity="1" /><path clip-path="url(#clip060)" d="M2268.2 1436.74 Q2264.59 1436.74 2262.76 1440.3 Q2260.95 1443.84 2260.95 1450.97 Q2260.95 1458.08 2262.76 1461.65 Q2264.59 1465.19 2268.2 1465.19 Q2271.83 1465.19 2273.64 1461.65 Q2275.47 1458.08 2275.47 1450.97 Q2275.47 1443.84 2273.64 1440.3 Q2271.83 1436.74 2268.2 1436.74 M2268.2 1433.03 Q2274.01 1433.03 2277.06 1437.64 Q2280.14 1442.22 2280.14 1450.97 Q2280.14 1459.7 2277.06 1464.31 Q2274.01 1468.89 2268.2 1468.89 Q2262.39 1468.89 2259.31 1464.31 Q2256.25 1459.7 2256.25 1450.97 Q2256.25 1442.22 2259.31 1437.64 Q2262.39 1433.03 2268.2 1433.03 Z" fill="#000000" fill-rule="evenodd" fill-opacity="1" /><path clip-path="url(#clip060)" d="M2980.89 1451.81 Q2977.55 1451.81 2975.63 1453.59 Q2973.73 1455.37 2973.73 1458.5 Q2973.73 1461.62 2975.63 1463.4 Q2977.55 1465.19 2980.89 1465.19 Q2984.22 1465.19 2986.14 1463.4 Q2988.06 1461.6 2988.06 1458.5 Q2988.06 1455.37 2986.14 1453.59 Q2984.24 1451.81 2980.89 1451.81 M2976.21 1449.82 Q2973.2 1449.08 2971.51 1447.02 Q2969.84 1444.96 2969.84 1441.99 Q2969.84 1437.85 2972.78 1435.44 Q2975.75 1433.03 2980.89 1433.03 Q2986.05 1433.03 2988.99 1435.44 Q2991.93 1437.85 2991.93 1441.99 Q2991.93 1444.96 2990.24 1447.02 Q2988.57 1449.08 2985.58 1449.82 Q2988.96 1450.6 2990.84 1452.9 Q2992.74 1455.19 2992.74 1458.5 Q2992.74 1463.52 2989.66 1466.21 Q2986.6 1468.89 2980.89 1468.89 Q2975.17 1468.89 2972.09 1466.21 Q2969.03 1463.52 2969.03 1458.5 Q2969.03 1455.19 2970.93 1452.9 Q2972.83 1450.6 2976.21 1449.82 M2974.5 1442.43 Q2974.5 1445.12 2976.16 1446.62 Q2977.85 1448.13 2980.89 1448.13 Q2983.89 1448.13 2985.58 1446.62 Q2987.3 1445.12 2987.3 1442.43 Q2987.3 1439.75 2985.58 1438.24 Q2983.89 1436.74 2980.89 1436.74 Q2977.85 1436.74 2976.16 1438.24 Q2974.5 1439.75 2974.5 1442.43 Z" fill="#000000" fill-rule="evenodd" fill-opacity="1" /><path clip-path="url(#clip060)" d="M3011.05 1436.74 Q3007.44 1436.74 3005.61 1440.3 Q3003.8 1443.84 3003.8 1450.97 Q3003.8 1458.08 3005.61 1461.65 Q3007.44 1465.19 3011.05 1465.19 Q3014.68 1465.19 3016.49 1461.65 Q3018.32 1458.08 3018.32 1450.97 Q3018.32 1443.84 3016.49 1440.3 Q3014.68 1436.74 3011.05 1436.74 M3011.05 1433.03 Q3016.86 1433.03 3019.91 1437.64 Q3022.99 1442.22 3022.99 1450.97 Q3022.99 1459.7 3019.91 1464.31 Q3016.86 1468.89 3011.05 1468.89 Q3005.24 1468.89 3002.16 1464.31 Q2999.1 1459.7 2999.1 1450.97 Q2999.1 1442.22 3002.16 1437.64 Q3005.24 1433.03 3011.05 1433.03 Z" fill="#000000" fill-rule="evenodd" fill-opacity="1" /><path clip-path="url(#clip060)" d="M3698.42 1464.28 L3706.06 1464.28 L3706.06 1437.92 L3697.75 1439.59 L3697.75 1435.33 L3706.01 1433.66 L3710.69 1433.66 L3710.69 1464.28 L3718.33 1464.28 L3718.33 1468.22 L3698.42 1468.22 L3698.42 1464.28 Z" fill="#000000" fill-rule="evenodd" fill-opacity="1" /><path clip-path="url(#clip060)" d="M3737.77 1436.74 Q3734.16 1436.74 3732.33 1440.3 Q3730.53 1443.84 3730.53 1450.97 Q3730.53 1458.08 3732.33 1461.65 Q3734.16 1465.19 3737.77 1465.19 Q3741.41 1465.19 3743.21 1461.65 Q3745.04 1458.08 3745.04 1450.97 Q3745.04 1443.84 3743.21 1440.3 Q3741.41 1436.74 3737.77 1436.74 M3737.77 1433.03 Q3743.58 1433.03 3746.64 1437.64 Q3749.72 1442.22 3749.72 1450.97 Q3749.72 1459.7 3746.64 1464.31 Q3743.58 1468.89 3737.77 1468.89 Q3731.96 1468.89 3728.88 1464.31 Q3725.83 1459.7 3725.83 1450.97 Q3725.83 1442.22 3728.88 1437.64 Q3731.96 1433.03 3737.77 1433.03 Z" fill="#000000" fill-rule="evenodd" fill-opacity="1" /><path clip-path="url(#clip060)" d="M3767.94 1436.74 Q3764.32 1436.74 3762.5 1440.3 Q3760.69 1443.84 3760.69 1450.97 Q3760.69 1458.08 3762.5 1461.65 Q3764.32 1465.19 3767.94 1465.19 Q3771.57 1465.19 3773.38 1461.65 Q3775.2 1458.08 3775.2 1450.97 Q3775.2 1443.84 3773.38 1440.3 Q3771.57 1436.74 3767.94 1436.74 M3767.94 1433.03 Q3773.75 1433.03 3776.8 1437.64 Q3779.88 1442.22 3779.88 1450.97 Q3779.88 1459.7 3776.8 1464.31 Q3773.75 1468.89 3767.94 1468.89 Q3762.13 1468.89 3759.05 1464.31 Q3755.99 1459.7 3755.99 1450.97 Q3755.99 1442.22 3759.05 1437.64 Q3762.13 1433.03 3767.94 1433.03 Z" fill="#000000" fill-rule="evenodd" fill-opacity="1" /><path clip-path="url(#clip060)" d="M1974.12 1556.54 L1974.12 1575.44 L1968.23 1575.44 L1968.23 1526.24 L1974.12 1526.24 L1974.12 1531.65 Q1975.97 1528.46 1978.77 1526.94 Q1981.6 1525.38 1985.52 1525.38 Q1992.01 1525.38 1996.05 1530.53 Q2000.12 1535.69 2000.12 1544.09 Q2000.12 1552.49 1996.05 1557.65 Q1992.01 1562.81 1985.52 1562.81 Q1981.6 1562.81 1978.77 1561.28 Q1975.97 1559.72 1974.12 1556.54 M1994.05 1544.09 Q1994.05 1537.63 1991.37 1533.97 Q1988.73 1530.28 1984.08 1530.28 Q1979.44 1530.28 1976.76 1533.97 Q1974.12 1537.63 1974.12 1544.09 Q1974.12 1550.55 1976.76 1554.24 Q1979.44 1557.91 1984.08 1557.91 Q1988.73 1557.91 1991.37 1554.24 Q1994.05 1550.55 1994.05 1544.09 Z" fill="#000000" fill-rule="evenodd" fill-opacity="1" /><path clip-path="url(#clip060)" d="M2044.62 1512.42 Q2040.36 1519.74 2038.29 1526.9 Q2036.22 1534.07 2036.22 1541.42 Q2036.22 1548.77 2038.29 1556 Q2040.39 1563.19 2044.62 1570.48 L2039.53 1570.48 Q2034.75 1563 2032.37 1555.77 Q2030.01 1548.55 2030.01 1541.42 Q2030.01 1534.32 2032.37 1527.13 Q2034.72 1519.93 2039.53 1512.42 L2044.62 1512.42 Z" fill="#000000" fill-rule="evenodd" fill-opacity="1" /><path clip-path="url(#clip060)" d="M2055.76 1512.36 L2061.65 1512.36 L2061.65 1541.61 L2079.12 1526.24 L2086.6 1526.24 L2067.7 1542.91 L2087.4 1561.88 L2079.76 1561.88 L2061.65 1544.47 L2061.65 1561.88 L2055.76 1561.88 L2055.76 1512.36 Z" fill="#000000" fill-rule="evenodd" fill-opacity="1" /><path clip-path="url(#clip060)" d="M2100.42 1519.65 L2100.42 1537.5 L2108.5 1537.5 Q2112.99 1537.5 2115.44 1535.18 Q2117.89 1532.86 2117.89 1528.56 Q2117.89 1524.29 2115.44 1521.97 Q2112.99 1519.65 2108.5 1519.65 L2100.42 1519.65 M2093.99 1514.36 L2108.5 1514.36 Q2116.49 1514.36 2120.56 1517.99 Q2124.67 1521.59 2124.67 1528.56 Q2124.67 1535.59 2120.56 1539.19 Q2116.49 1542.79 2108.5 1542.79 L2100.42 1542.79 L2100.42 1561.88 L2093.99 1561.88 L2093.99 1514.36 Z" fill="#000000" fill-rule="evenodd" fill-opacity="1" /><path clip-path="url(#clip060)" d="M2146.31 1543.96 Q2139.22 1543.96 2136.48 1545.59 Q2133.74 1547.21 2133.74 1551.13 Q2133.74 1554.24 2135.78 1556.09 Q2137.85 1557.91 2141.38 1557.91 Q2146.25 1557.91 2149.18 1554.47 Q2152.14 1551 2152.14 1545.27 L2152.14 1543.96 L2146.31 1543.96 M2157.99 1541.55 L2157.99 1561.88 L2152.14 1561.88 L2152.14 1556.47 Q2150.13 1559.72 2147.14 1561.28 Q2144.15 1562.81 2139.82 1562.81 Q2134.35 1562.81 2131.1 1559.75 Q2127.88 1556.66 2127.88 1551.51 Q2127.88 1545.49 2131.89 1542.44 Q2135.94 1539.38 2143.93 1539.38 L2152.14 1539.38 L2152.14 1538.81 Q2152.14 1534.77 2149.46 1532.57 Q2146.82 1530.34 2142.02 1530.34 Q2138.96 1530.34 2136.06 1531.07 Q2133.17 1531.81 2130.49 1533.27 L2130.49 1527.86 Q2133.71 1526.62 2136.73 1526.01 Q2139.76 1525.38 2142.62 1525.38 Q2150.36 1525.38 2154.17 1529.39 Q2157.99 1533.4 2157.99 1541.55 Z" fill="#000000" fill-rule="evenodd" fill-opacity="1" /><path clip-path="url(#clip060)" d="M2169.13 1512.42 L2174.23 1512.42 Q2179 1519.93 2181.36 1527.13 Q2183.74 1534.32 2183.74 1541.42 Q2183.74 1548.55 2181.36 1555.77 Q2179 1563 2174.23 1570.48 L2169.13 1570.48 Q2173.37 1563.19 2175.44 1556 Q2177.54 1548.77 2177.54 1541.42 Q2177.54 1534.07 2175.44 1526.9 Q2173.37 1519.74 2169.13 1512.42 Z" fill="#000000" fill-rule="evenodd" fill-opacity="1" /><polyline clip-path="url(#clip062)" style="stroke:#000000; stroke-linecap:butt; stroke-linejoin:round; stroke-width:2; stroke-opacity:0.1; fill:none" points="
  262.212,1358.19 3889.76,1358.19 
  "/>
<polyline clip-path="url(#clip062)" style="stroke:#000000; stroke-linecap:butt; stroke-linejoin:round; stroke-width:2; stroke-opacity:0.1; fill:none" points="
  262.212,1016.69 3889.76,1016.69 
  "/>
<polyline clip-path="url(#clip062)" style="stroke:#000000; stroke-linecap:butt; stroke-linejoin:round; stroke-width:2; stroke-opacity:0.1; fill:none" points="
  262.212,675.198 3889.76,675.198 
  "/>
<polyline clip-path="url(#clip062)" style="stroke:#000000; stroke-linecap:butt; stroke-linejoin:round; stroke-width:2; stroke-opacity:0.1; fill:none" points="
  262.212,333.703 3889.76,333.703 
  "/>
<polyline clip-path="url(#clip060)" style="stroke:#000000; stroke-linecap:butt; stroke-linejoin:round; stroke-width:4; stroke-opacity:1; fill:none" points="
  262.212,1393.02 262.212,162.272 
  "/>
<polyline clip-path="url(#clip060)" style="stroke:#000000; stroke-linecap:butt; stroke-linejoin:round; stroke-width:4; stroke-opacity:1; fill:none" points="
  262.212,1358.19 281.109,1358.19 
  "/>
<polyline clip-path="url(#clip060)" style="stroke:#000000; stroke-linecap:butt; stroke-linejoin:round; stroke-width:4; stroke-opacity:1; fill:none" points="
  262.212,1016.69 281.109,1016.69 
  "/>
<polyline clip-path="url(#clip060)" style="stroke:#000000; stroke-linecap:butt; stroke-linejoin:round; stroke-width:4; stroke-opacity:1; fill:none" points="
  262.212,675.198 281.109,675.198 
  "/>
<polyline clip-path="url(#clip060)" style="stroke:#000000; stroke-linecap:butt; stroke-linejoin:round; stroke-width:4; stroke-opacity:1; fill:none" points="
  262.212,333.703 281.109,333.703 
  "/>
<path clip-path="url(#clip060)" d="M190.267 1343.99 Q186.656 1343.99 184.827 1347.55 Q183.022 1351.09 183.022 1358.22 Q183.022 1365.33 184.827 1368.89 Q186.656 1372.43 190.267 1372.43 Q193.901 1372.43 195.707 1368.89 Q197.536 1365.33 197.536 1358.22 Q197.536 1351.09 195.707 1347.55 Q193.901 1343.99 190.267 1343.99 M190.267 1340.28 Q196.077 1340.28 199.133 1344.89 Q202.212 1349.47 202.212 1358.22 Q202.212 1366.95 199.133 1371.56 Q196.077 1376.14 190.267 1376.14 Q184.457 1376.14 181.378 1371.56 Q178.323 1366.95 178.323 1358.22 Q178.323 1349.47 181.378 1344.89 Q184.457 1340.28 190.267 1340.28 Z" fill="#000000" fill-rule="evenodd" fill-opacity="1" /><path clip-path="url(#clip060)" d="M181.309 999.412 L199.665 999.412 L199.665 1003.35 L185.591 1003.35 L185.591 1011.82 Q186.61 1011.47 187.628 1011.31 Q188.647 1011.13 189.665 1011.13 Q195.452 1011.13 198.832 1014.3 Q202.212 1017.47 202.212 1022.88 Q202.212 1028.46 198.739 1031.56 Q195.267 1034.64 188.948 1034.64 Q186.772 1034.64 184.503 1034.27 Q182.258 1033.9 179.851 1033.16 L179.851 1028.46 Q181.934 1029.6 184.156 1030.15 Q186.378 1030.71 188.855 1030.71 Q192.86 1030.71 195.198 1028.6 Q197.536 1026.5 197.536 1022.88 Q197.536 1019.27 195.198 1017.17 Q192.86 1015.06 188.855 1015.06 Q186.98 1015.06 185.105 1015.48 Q183.253 1015.89 181.309 1016.77 L181.309 999.412 Z" fill="#000000" fill-rule="evenodd" fill-opacity="1" /><path clip-path="url(#clip060)" d="M150.916 688.542 L158.554 688.542 L158.554 662.177 L150.244 663.843 L150.244 659.584 L158.508 657.918 L163.184 657.918 L163.184 688.542 L170.823 688.542 L170.823 692.478 L150.916 692.478 L150.916 688.542 Z" fill="#000000" fill-rule="evenodd" fill-opacity="1" /><path clip-path="url(#clip060)" d="M190.267 660.996 Q186.656 660.996 184.827 664.561 Q183.022 668.103 183.022 675.232 Q183.022 682.339 184.827 685.903 Q186.656 689.445 190.267 689.445 Q193.901 689.445 195.707 685.903 Q197.536 682.339 197.536 675.232 Q197.536 668.103 195.707 664.561 Q193.901 660.996 190.267 660.996 M190.267 657.293 Q196.077 657.293 199.133 661.899 Q202.212 666.482 202.212 675.232 Q202.212 683.959 199.133 688.566 Q196.077 693.149 190.267 693.149 Q184.457 693.149 181.378 688.566 Q178.323 683.959 178.323 675.232 Q178.323 666.482 181.378 661.899 Q184.457 657.293 190.267 657.293 Z" fill="#000000" fill-rule="evenodd" fill-opacity="1" /><path clip-path="url(#clip060)" d="M151.911 347.048 L159.55 347.048 L159.55 320.682 L151.24 322.349 L151.24 318.089 L159.503 316.423 L164.179 316.423 L164.179 347.048 L171.818 347.048 L171.818 350.983 L151.911 350.983 L151.911 347.048 Z" fill="#000000" fill-rule="evenodd" fill-opacity="1" /><path clip-path="url(#clip060)" d="M181.309 316.423 L199.665 316.423 L199.665 320.358 L185.591 320.358 L185.591 328.83 Q186.61 328.483 187.628 328.321 Q188.647 328.136 189.665 328.136 Q195.452 328.136 198.832 331.307 Q202.212 334.478 202.212 339.895 Q202.212 345.473 198.739 348.575 Q195.267 351.654 188.948 351.654 Q186.772 351.654 184.503 351.284 Q182.258 350.913 179.851 350.172 L179.851 345.473 Q181.934 346.608 184.156 347.163 Q186.378 347.719 188.855 347.719 Q192.86 347.719 195.198 345.612 Q197.536 343.506 197.536 339.895 Q197.536 336.284 195.198 334.177 Q192.86 332.071 188.855 332.071 Q186.98 332.071 185.105 332.487 Q183.253 332.904 181.309 333.784 L181.309 316.423 Z" fill="#000000" fill-rule="evenodd" fill-opacity="1" /><path clip-path="url(#clip060)" d="M40.3403 876.171 L40.3403 848.353 L45.6875 848.353 L71.3095 870.378 L71.3095 848.353 L75.9883 848.353 L75.9883 876.967 L70.6411 876.967 L45.0191 854.942 L45.0191 876.171 L40.3403 876.171 Z" fill="#000000" fill-rule="evenodd" fill-opacity="1" /><path clip-path="url(#clip060)" d="M26.5267 804.621 Q33.8473 808.886 41.0087 810.955 Q48.1701 813.023 55.5225 813.023 Q62.8749 813.023 70.1 810.955 Q77.2933 808.854 84.582 804.621 L84.582 809.713 Q77.1023 814.488 69.8772 816.875 Q62.6521 819.23 55.5225 819.23 Q48.4248 819.23 41.2315 816.875 Q34.0383 814.519 26.5267 809.713 L26.5267 804.621 Z" fill="#000000" fill-rule="evenodd" fill-opacity="1" /><path clip-path="url(#clip060)" d="M26.4631 793.481 L26.4631 787.592 L55.7135 787.592 L40.3403 770.119 L40.3403 762.639 L57.0185 781.545 L75.9883 761.843 L75.9883 769.482 L58.5781 787.592 L75.9883 787.592 L75.9883 793.481 L26.4631 793.481 Z" fill="#000000" fill-rule="evenodd" fill-opacity="1" /><path clip-path="url(#clip060)" d="M47.1835 727.755 Q43.2367 725.559 41.3588 722.503 Q39.481 719.448 39.481 715.31 Q39.481 709.74 43.3959 706.716 Q47.2789 703.692 54.4722 703.692 L75.9883 703.692 L75.9883 709.581 L54.6632 709.581 Q49.5388 709.581 47.0561 711.395 Q44.5735 713.209 44.5735 716.933 Q44.5735 721.485 47.5972 724.126 Q50.6209 726.768 55.8408 726.768 L75.9883 726.768 L75.9883 732.656 L54.6632 732.656 Q49.5069 732.656 47.0561 734.471 Q44.5735 736.285 44.5735 740.072 Q44.5735 744.56 47.6291 747.202 Q50.6528 749.844 55.8408 749.844 L75.9883 749.844 L75.9883 755.732 L40.3403 755.732 L40.3403 749.844 L45.8785 749.844 Q42.6002 747.839 41.0406 745.038 Q39.481 742.237 39.481 738.385 Q39.481 734.502 41.4543 731.797 Q43.4277 729.06 47.1835 727.755 Z" fill="#000000" fill-rule="evenodd" fill-opacity="1" /><path clip-path="url(#clip060)" d="M26.5267 692.934 L26.5267 687.842 Q34.0383 683.067 41.2315 680.712 Q48.4248 678.325 55.5225 678.325 Q62.6521 678.325 69.8772 680.712 Q77.1023 683.067 84.582 687.842 L84.582 692.934 Q77.2933 688.701 70.1 686.632 Q62.8749 684.532 55.5225 684.532 Q48.1701 684.532 41.0087 686.632 Q33.8473 688.701 26.5267 692.934 Z" fill="#000000" fill-rule="evenodd" fill-opacity="1" /><path clip-path="url(#clip060)" d="M1946.34 65.7705 L1946.34 89.8329 L1938.84 89.8329 L1938.84 27.2059 L1946.34 27.2059 L1946.34 34.0924 Q1948.69 30.0415 1952.25 28.0971 Q1955.86 26.1121 1960.84 26.1121 Q1969.1 26.1121 1974.25 32.6746 Q1979.43 39.2371 1979.43 49.9314 Q1979.43 60.6258 1974.25 67.1883 Q1969.1 73.7508 1960.84 73.7508 Q1955.86 73.7508 1952.25 71.8063 Q1948.69 69.8214 1946.34 65.7705 M1971.7 49.9314 Q1971.7 41.7081 1968.29 37.0496 Q1964.93 32.3505 1959.02 32.3505 Q1953.1 32.3505 1949.7 37.0496 Q1946.34 41.7081 1946.34 49.9314 Q1946.34 58.1548 1949.7 62.8538 Q1953.1 67.5124 1959.02 67.5124 Q1964.93 67.5124 1968.29 62.8538 Q1971.7 58.1548 1971.7 49.9314 Z" fill="#000000" fill-rule="evenodd" fill-opacity="1" /><path clip-path="url(#clip060)" d="M2036.07 9.62495 Q2030.64 18.942 2028 28.0566 Q2025.37 37.1711 2025.37 46.5287 Q2025.37 55.8863 2028 65.0818 Q2030.68 74.2369 2036.07 83.5134 L2029.58 83.5134 Q2023.51 73.9938 2020.47 64.7983 Q2017.47 55.6027 2017.47 46.5287 Q2017.47 37.4952 2020.47 28.3401 Q2023.47 19.1851 2029.58 9.62495 L2036.07 9.62495 Z" fill="#000000" fill-rule="evenodd" fill-opacity="1" /><path clip-path="url(#clip060)" d="M2050.24 9.54393 L2057.74 9.54393 L2057.74 46.7717 L2079.98 27.2059 L2089.5 27.2059 L2065.44 48.4326 L2090.51 72.576 L2080.79 72.576 L2057.74 50.4176 L2057.74 72.576 L2050.24 72.576 L2050.24 9.54393 Z" fill="#000000" fill-rule="evenodd" fill-opacity="1" /><path clip-path="url(#clip060)" d="M2107.08 18.8205 L2107.08 41.5461 L2117.37 41.5461 Q2123.08 41.5461 2126.2 38.5889 Q2129.32 35.6318 2129.32 30.163 Q2129.32 24.7348 2126.2 21.7777 Q2123.08 18.8205 2117.37 18.8205 L2107.08 18.8205 M2098.9 12.096 L2117.37 12.096 Q2127.54 12.096 2132.72 16.714 Q2137.95 21.2916 2137.95 30.163 Q2137.95 39.1155 2132.72 43.6931 Q2127.54 48.2706 2117.37 48.2706 L2107.08 48.2706 L2107.08 72.576 L2098.9 72.576 L2098.9 12.096 Z" fill="#000000" fill-rule="evenodd" fill-opacity="1" /><path clip-path="url(#clip060)" d="M2165.49 49.7694 Q2156.46 49.7694 2152.98 51.8354 Q2149.49 53.9013 2149.49 58.8839 Q2149.49 62.8538 2152.08 65.2034 Q2154.72 67.5124 2159.21 67.5124 Q2165.41 67.5124 2169.14 63.1374 Q2172.91 58.7219 2172.91 51.4303 L2172.91 49.7694 L2165.49 49.7694 M2180.36 46.6907 L2180.36 72.576 L2172.91 72.576 L2172.91 65.6895 Q2170.35 69.8214 2166.55 71.8063 Q2162.74 73.7508 2157.23 73.7508 Q2150.26 73.7508 2146.13 69.8619 Q2142.04 65.9325 2142.04 59.3701 Q2142.04 51.7138 2147.14 47.825 Q2152.29 43.9361 2162.45 43.9361 L2172.91 43.9361 L2172.91 43.2069 Q2172.91 38.0623 2169.5 35.2672 Q2166.14 32.4315 2160.02 32.4315 Q2156.13 32.4315 2152.45 33.3632 Q2148.76 34.295 2145.36 36.1584 L2145.36 29.2718 Q2149.45 27.692 2153.3 26.9223 Q2157.15 26.1121 2160.79 26.1121 Q2170.64 26.1121 2175.5 31.2163 Q2180.36 36.3204 2180.36 46.6907 Z" fill="#000000" fill-rule="evenodd" fill-opacity="1" /><path clip-path="url(#clip060)" d="M2194.54 9.62495 L2201.02 9.62495 Q2207.1 19.1851 2210.09 28.3401 Q2213.13 37.4952 2213.13 46.5287 Q2213.13 55.6027 2210.09 64.7983 Q2207.1 73.9938 2201.02 83.5134 L2194.54 83.5134 Q2199.93 74.2369 2202.56 65.0818 Q2205.23 55.8863 2205.23 46.5287 Q2205.23 37.1711 2202.56 28.0566 Q2199.93 18.942 2194.54 9.62495 Z" fill="#000000" fill-rule="evenodd" fill-opacity="1" /><polyline clip-path="url(#clip062)" style="stroke:#009af9; stroke-linecap:butt; stroke-linejoin:round; stroke-width:4; stroke-opacity:1; fill:none" points="
  3769.04,1355.28 3733.12,1349.48 3697.44,1343.67 3662.01,1337.87 3626.82,1332.06 3591.88,1326.26 3557.19,1320.45 3522.78,1314.65 3488.65,1308.84 3454.81,1303.04 
  3421.25,1297.23 3387.96,1291.42 3354.95,1285.62 3322.21,1279.81 3289.75,1274.01 3257.55,1268.2 3225.62,1262.4 3193.96,1256.59 3162.57,1250.79 3131.44,1244.98 
  3100.56,1239.18 3069.95,1233.37 3039.59,1227.57 3009.49,1221.76 2979.64,1215.95 2950.05,1210.15 2920.7,1204.34 2891.6,1198.54 2862.75,1192.73 2834.14,1186.93 
  2805.78,1181.12 2777.65,1175.32 2749.77,1169.51 2722.12,1163.71 2694.71,1157.9 2667.53,1152.1 2640.58,1146.29 2613.87,1140.48 2587.38,1134.68 2561.12,1128.87 
  2535.09,1123.07 2509.28,1117.26 2483.69,1111.46 2458.32,1105.65 2433.17,1099.85 2408.24,1094.04 2383.53,1088.24 2359.02,1082.43 2334.74,1076.62 2310.66,1070.82 
  2286.79,1065.01 2263.13,1059.21 2239.67,1053.4 2216.42,1047.6 2193.37,1041.79 2170.53,1035.99 2147.88,1030.18 2125.43,1024.38 2103.18,1018.57 2081.13,1012.77 
  2059.26,1006.96 2037.6,1001.15 2016.12,995.349 1994.84,989.544 1973.74,983.738 1952.83,977.933 1932.11,972.127 1911.58,966.322 1891.23,960.516 1871.06,954.711 
  1851.07,948.906 1831.26,943.1 1811.63,937.295 1792.18,931.489 1772.9,925.684 1753.8,919.879 1734.87,914.073 1716.12,908.268 1697.53,902.462 1679.11,896.657 
  1660.86,890.852 1642.78,885.046 1624.86,879.241 1607.11,873.435 1589.51,867.63 1572.08,861.824 1554.81,856.019 1537.7,850.214 1520.74,844.408 1503.94,838.603 
  1487.3,832.797 1470.81,826.992 1454.47,821.187 1438.28,815.381 1422.24,809.576 1406.35,803.77 1390.61,797.965 1375.02,792.16 1359.56,786.354 1344.26,780.549 
  1329.09,774.743 1314.07,768.938 1299.19,763.132 1284.44,757.327 1269.84,751.522 1255.37,745.716 1241.04,739.911 1226.84,734.105 1212.77,728.3 1198.84,722.495 
  1185.03,716.689 1171.36,710.884 1157.82,705.078 1144.4,699.273 1131.11,693.468 1117.94,687.662 1104.9,681.857 1091.99,676.051 1079.19,670.246 1066.52,664.44 
  1053.96,658.635 1041.53,652.83 1029.21,647.024 1017.02,641.219 1004.93,635.413 992.966,629.608 981.113,623.803 969.373,617.997 957.745,612.192 946.228,606.386 
  934.822,600.581 923.526,594.775 912.337,588.97 901.257,583.165 890.283,577.359 879.415,571.554 868.652,565.748 857.99,559.943 847.429,554.138 836.967,548.332 
  826.604,542.527 816.339,536.721 806.171,530.916 796.1,525.111 786.125,519.305 776.245,513.5 766.46,507.694 756.769,501.889 747.17,496.083 737.665,490.278 
  728.251,484.473 718.928,478.667 709.696,472.862 700.554,467.056 691.502,461.251 682.538,455.446 673.662,449.64 664.875,443.835 656.174,438.029 647.559,432.224 
  639.031,426.419 630.588,420.613 622.229,414.808 613.955,409.002 605.764,403.197 597.657,397.391 589.631,391.586 581.688,385.781 573.826,379.975 566.045,374.17 
  558.345,368.364 550.724,362.559 543.182,356.754 535.719,350.948 528.335,345.143 521.028,339.337 513.798,333.532 506.645,327.727 499.568,321.921 492.566,316.116 
  485.64,310.31 478.788,304.505 472.011,298.699 465.307,292.894 458.676,287.089 452.118,281.283 445.632,275.478 439.217,269.672 432.874,263.867 426.602,258.062 
  420.399,252.256 414.266,246.451 408.202,240.645 402.207,234.84 396.28,229.034 390.421,223.229 384.628,217.424 378.903,211.618 373.244,205.813 367.65,200.007 
  
  "/>
<polyline clip-path="url(#clip062)" style="stroke:#e26f46; stroke-linecap:butt; stroke-linejoin:round; stroke-width:4; stroke-opacity:1; fill:none" points="
  3787.1,1358.19 3751.05,1352.38 3715.25,1346.58 3679.69,1340.77 3644.39,1334.97 3609.32,1329.16 3574.5,1323.35 3539.95,1317.55 3505.68,1311.74 3471.7,1305.94 
  3437.99,1300.13 3404.57,1294.33 3371.42,1288.52 3338.54,1282.72 3305.94,1276.91 3273.61,1271.11 3241.55,1265.3 3209.76,1259.5 3178.23,1253.69 3146.97,1247.88 
  3115.97,1242.08 3085.22,1236.27 3054.74,1230.47 3024.51,1224.66 2994.54,1218.86 2964.81,1213.05 2935.34,1207.25 2906.12,1201.44 2877.15,1195.64 2848.42,1189.83 
  2819.93,1184.02 2791.68,1178.22 2763.68,1172.41 2735.91,1166.61 2708.38,1160.8 2681.09,1155 2654.03,1149.19 2627.2,1143.39 2600.59,1137.58 2574.22,1131.78 
  2548.08,1125.97 2522.15,1120.17 2496.45,1114.36 2470.98,1108.55 2445.72,1102.75 2420.68,1096.94 2395.86,1091.14 2371.25,1085.33 2346.85,1079.53 2322.67,1073.72 
  2298.7,1067.92 2274.93,1062.11 2251.37,1056.31 2228.02,1050.5 2204.87,1044.69 2181.93,1038.89 2159.18,1033.08 2136.63,1027.28 2114.28,1021.47 2092.13,1015.67 
  2070.17,1009.86 2048.41,1004.06 2026.83,998.252 2005.45,992.446 1984.26,986.641 1963.26,980.835 1942.45,975.03 1921.82,969.225 1901.38,963.419 1881.12,957.614 
  1861.04,951.808 1841.14,946.003 1821.43,940.198 1801.89,934.392 1782.52,928.587 1763.33,922.781 1744.32,916.976 1725.47,911.17 1706.8,905.365 1688.3,899.56 
  1669.97,893.754 1651.8,887.949 1633.8,882.143 1615.96,876.338 1598.29,870.533 1580.78,864.727 1563.43,858.922 1546.23,853.116 1529.2,847.311 1512.32,841.506 
  1495.6,835.7 1479.03,829.895 1462.62,824.089 1446.36,818.284 1430.24,812.478 1414.28,806.673 1398.46,800.868 1382.8,795.062 1367.27,789.257 1351.89,783.451 
  1336.66,777.646 1321.56,771.841 1306.61,766.035 1291.8,760.23 1277.12,754.424 1262.59,748.619 1248.19,742.814 1233.92,737.008 1219.79,731.203 1205.79,725.397 
  1191.92,719.592 1178.18,713.786 1164.57,707.981 1151.09,702.176 1137.74,696.37 1124.51,690.565 1111.41,684.759 1098.43,678.954 1085.57,673.149 1072.84,667.343 
  1060.23,661.538 1047.73,655.732 1035.36,649.927 1023.1,644.121 1010.96,638.316 998.936,632.511 987.025,626.705 975.229,620.9 963.545,615.094 951.973,609.289 
  940.512,603.484 929.16,597.678 917.918,591.873 906.784,586.067 895.757,580.262 884.836,574.457 874.021,568.651 863.309,562.846 852.697,557.04 842.185,551.235 
  831.773,545.429 821.459,539.624 811.243,533.819 801.124,528.013 791.101,522.208 781.173,516.402 771.341,510.597 761.603,504.792 751.958,498.986 742.406,493.181 
  732.946,487.375 723.578,481.57 714.301,475.765 705.114,469.959 696.017,464.154 687.009,458.348 678.089,452.543 669.258,446.737 660.513,440.932 651.856,435.127 
  643.284,429.321 634.799,423.516 626.398,417.71 618.082,411.905 609.849,406.1 601.7,400.294 593.634,394.489 585.65,388.683 577.747,382.878 569.926,377.073 
  562.185,371.267 554.524,365.462 546.943,359.656 539.441,353.851 532.017,348.045 524.671,342.24 517.403,336.435 510.212,330.629 503.097,324.824 496.057,319.018 
  489.094,313.213 482.205,307.408 475.39,301.602 468.649,295.797 461.982,289.991 455.388,284.186 448.866,278.381 442.416,272.575 436.037,266.77 429.729,260.964 
  423.491,255.159 417.324,249.353 411.225,243.548 405.196,237.743 399.235,231.937 393.342,226.132 387.516,220.326 381.757,214.521 376.065,208.716 370.439,202.91 
  364.878,197.105 
  "/>
<path clip-path="url(#clip060)" d="
M3193.49 358.817 L3768.85 358.817 L3768.85 203.297 L3193.49 203.297  Z
  " fill="#ffffff" fill-rule="evenodd" fill-opacity="1"/>
<polyline clip-path="url(#clip060)" style="stroke:#000000; stroke-linecap:butt; stroke-linejoin:round; stroke-width:4; stroke-opacity:1; fill:none" points="
  3193.49,358.817 3768.85,358.817 3768.85,203.297 3193.49,203.297 3193.49,358.817 
  "/>
<polyline clip-path="url(#clip060)" style="stroke:#009af9; stroke-linecap:butt; stroke-linejoin:round; stroke-width:4; stroke-opacity:1; fill:none" points="
  3233.8,255.137 3475.64,255.137 
  "/>
<path clip-path="url(#clip060)" d="M3536.45 247.487 L3536.45 251.468 Q3534.65 250.473 3532.82 249.987 Q3531.01 249.477 3529.16 249.477 Q3525.02 249.477 3522.72 252.116 Q3520.43 254.732 3520.43 259.477 Q3520.43 264.223 3522.72 266.862 Q3525.02 269.477 3529.16 269.477 Q3531.01 269.477 3532.82 268.991 Q3534.65 268.482 3536.45 267.487 L3536.45 271.422 Q3534.67 272.255 3532.75 272.672 Q3530.85 273.088 3528.7 273.088 Q3522.84 273.088 3519.39 269.408 Q3515.94 265.727 3515.94 259.477 Q3515.94 253.135 3519.41 249.501 Q3522.91 245.866 3528.97 245.866 Q3530.94 245.866 3532.82 246.283 Q3534.69 246.677 3536.45 247.487 Z" fill="#000000" fill-rule="evenodd" fill-opacity="1" /><path clip-path="url(#clip060)" d="M3566.03 258.389 L3566.03 260.473 L3546.45 260.473 Q3546.73 264.871 3549.09 267.186 Q3551.47 269.477 3555.71 269.477 Q3558.16 269.477 3560.46 268.876 Q3562.77 268.274 3565.04 267.07 L3565.04 271.098 Q3562.75 272.07 3560.34 272.579 Q3557.93 273.088 3555.46 273.088 Q3549.25 273.088 3545.62 269.477 Q3542.01 265.866 3542.01 259.709 Q3542.01 253.343 3545.43 249.616 Q3548.88 245.866 3554.72 245.866 Q3559.95 245.866 3562.98 249.246 Q3566.03 252.602 3566.03 258.389 M3561.78 257.139 Q3561.73 253.644 3559.81 251.561 Q3557.91 249.477 3554.76 249.477 Q3551.2 249.477 3549.04 251.491 Q3546.91 253.505 3546.59 257.163 L3561.78 257.139 Z" fill="#000000" fill-rule="evenodd" fill-opacity="1" /><path clip-path="url(#clip060)" d="M3594.58 256.769 L3594.58 272.417 L3590.32 272.417 L3590.32 256.908 Q3590.32 253.227 3588.88 251.399 Q3587.45 249.57 3584.58 249.57 Q3581.13 249.57 3579.14 251.769 Q3577.15 253.968 3577.15 257.764 L3577.15 272.417 L3572.86 272.417 L3572.86 246.491 L3577.15 246.491 L3577.15 250.519 Q3578.67 248.181 3580.73 247.024 Q3582.82 245.866 3585.53 245.866 Q3589.99 245.866 3592.28 248.644 Q3594.58 251.399 3594.58 256.769 Z" fill="#000000" fill-rule="evenodd" fill-opacity="1" /><path clip-path="url(#clip060)" d="M3607.28 239.13 L3607.28 246.491 L3616.06 246.491 L3616.06 249.802 L3607.28 249.802 L3607.28 263.876 Q3607.28 267.047 3608.14 267.95 Q3609.02 268.852 3611.68 268.852 L3616.06 268.852 L3616.06 272.417 L3611.68 272.417 Q3606.75 272.417 3604.88 270.588 Q3603 268.737 3603 263.876 L3603 249.802 L3599.88 249.802 L3599.88 246.491 L3603 246.491 L3603 239.13 L3607.28 239.13 Z" fill="#000000" fill-rule="evenodd" fill-opacity="1" /><path clip-path="url(#clip060)" d="M3643.84 258.389 L3643.84 260.473 L3624.25 260.473 Q3624.53 264.871 3626.89 267.186 Q3629.28 269.477 3633.51 269.477 Q3635.96 269.477 3638.26 268.876 Q3640.57 268.274 3642.84 267.07 L3642.84 271.098 Q3640.55 272.07 3638.14 272.579 Q3635.73 273.088 3633.26 273.088 Q3627.05 273.088 3623.42 269.477 Q3619.81 265.866 3619.81 259.709 Q3619.81 253.343 3623.23 249.616 Q3626.68 245.866 3632.52 245.866 Q3637.75 245.866 3640.78 249.246 Q3643.84 252.602 3643.84 258.389 M3639.58 257.139 Q3639.53 253.644 3637.61 251.561 Q3635.71 249.477 3632.56 249.477 Q3629 249.477 3626.84 251.491 Q3624.71 253.505 3624.39 257.163 L3639.58 257.139 Z" fill="#000000" fill-rule="evenodd" fill-opacity="1" /><path clip-path="url(#clip060)" d="M3665.85 250.473 Q3665.13 250.056 3664.27 249.871 Q3663.44 249.663 3662.42 249.663 Q3658.81 249.663 3656.87 252.024 Q3654.95 254.362 3654.95 258.76 L3654.95 272.417 L3650.66 272.417 L3650.66 246.491 L3654.95 246.491 L3654.95 250.519 Q3656.29 248.158 3658.44 247.024 Q3660.59 245.866 3663.67 245.866 Q3664.11 245.866 3664.65 245.936 Q3665.18 245.982 3665.83 246.098 L3665.85 250.473 Z" fill="#000000" fill-rule="evenodd" fill-opacity="1" /><path clip-path="url(#clip060)" d="M3686.84 247.255 L3686.84 251.283 Q3685.04 250.357 3683.09 249.894 Q3681.15 249.431 3679.07 249.431 Q3675.9 249.431 3674.3 250.403 Q3672.72 251.376 3672.72 253.32 Q3672.72 254.802 3673.86 255.658 Q3674.99 256.491 3678.42 257.255 L3679.88 257.579 Q3684.41 258.552 3686.31 260.334 Q3688.23 262.093 3688.23 265.264 Q3688.23 268.876 3685.36 270.982 Q3682.52 273.088 3677.52 273.088 Q3675.43 273.088 3673.16 272.672 Q3670.92 272.278 3668.42 271.468 L3668.42 267.07 Q3670.78 268.297 3673.07 268.922 Q3675.36 269.524 3677.61 269.524 Q3680.62 269.524 3682.24 268.505 Q3683.86 267.463 3683.86 265.589 Q3683.86 263.852 3682.68 262.926 Q3681.52 262.001 3677.56 261.144 L3676.08 260.797 Q3672.12 259.964 3670.36 258.251 Q3668.6 256.514 3668.6 253.505 Q3668.6 249.848 3671.2 247.857 Q3673.79 245.866 3678.56 245.866 Q3680.92 245.866 3683 246.214 Q3685.08 246.561 3686.84 247.255 Z" fill="#000000" fill-rule="evenodd" fill-opacity="1" /><polyline clip-path="url(#clip060)" style="stroke:#e26f46; stroke-linecap:butt; stroke-linejoin:round; stroke-width:4; stroke-opacity:1; fill:none" points="
  3233.8,306.977 3475.64,306.977 
  "/>
<path clip-path="url(#clip060)" d="M3532.45 288.239 L3532.45 291.78 L3528.37 291.78 Q3526.08 291.78 3525.18 292.706 Q3524.3 293.632 3524.3 296.04 L3524.3 298.331 L3531.31 298.331 L3531.31 301.642 L3524.3 301.642 L3524.3 324.257 L3520.02 324.257 L3520.02 301.642 L3515.94 301.642 L3515.94 298.331 L3520.02 298.331 L3520.02 296.526 Q3520.02 292.197 3522.03 290.23 Q3524.04 288.239 3528.42 288.239 L3532.45 288.239 Z" fill="#000000" fill-rule="evenodd" fill-opacity="1" /><path clip-path="url(#clip060)" d="M3547.79 311.225 Q3542.63 311.225 3540.64 312.405 Q3538.65 313.586 3538.65 316.433 Q3538.65 318.702 3540.13 320.044 Q3541.64 321.364 3544.21 321.364 Q3547.75 321.364 3549.88 318.864 Q3552.03 316.341 3552.03 312.174 L3552.03 311.225 L3547.79 311.225 M3556.29 309.466 L3556.29 324.257 L3552.03 324.257 L3552.03 320.322 Q3550.57 322.683 3548.4 323.817 Q3546.22 324.928 3543.07 324.928 Q3539.09 324.928 3536.73 322.706 Q3534.39 320.461 3534.39 316.711 Q3534.39 312.336 3537.31 310.114 Q3540.25 307.892 3546.06 307.892 L3552.03 307.892 L3552.03 307.475 Q3552.03 304.535 3550.09 302.938 Q3548.16 301.317 3544.67 301.317 Q3542.45 301.317 3540.34 301.85 Q3538.23 302.382 3536.29 303.447 L3536.29 299.512 Q3538.63 298.609 3540.83 298.169 Q3543.03 297.706 3545.11 297.706 Q3550.73 297.706 3553.51 300.623 Q3556.29 303.54 3556.29 309.466 Z" fill="#000000" fill-rule="evenodd" fill-opacity="1" /><path clip-path="url(#clip060)" d="M3583.72 299.327 L3583.72 303.308 Q3581.91 302.313 3580.09 301.827 Q3578.28 301.317 3576.43 301.317 Q3572.28 301.317 3569.99 303.956 Q3567.7 306.572 3567.7 311.317 Q3567.7 316.063 3569.99 318.702 Q3572.28 321.317 3576.43 321.317 Q3578.28 321.317 3580.09 320.831 Q3581.91 320.322 3583.72 319.327 L3583.72 323.262 Q3581.94 324.095 3580.02 324.512 Q3578.12 324.928 3575.97 324.928 Q3570.11 324.928 3566.66 321.248 Q3563.21 317.567 3563.21 311.317 Q3563.21 304.975 3566.68 301.341 Q3570.18 297.706 3576.24 297.706 Q3578.21 297.706 3580.09 298.123 Q3581.96 298.517 3583.72 299.327 Z" fill="#000000" fill-rule="evenodd" fill-opacity="1" /><path clip-path="url(#clip060)" d="M3613.3 310.229 L3613.3 312.313 L3593.72 312.313 Q3594 316.711 3596.36 319.026 Q3598.74 321.317 3602.98 321.317 Q3605.43 321.317 3607.72 320.716 Q3610.04 320.114 3612.31 318.91 L3612.31 322.938 Q3610.02 323.91 3607.61 324.419 Q3605.2 324.928 3602.72 324.928 Q3596.52 324.928 3592.89 321.317 Q3589.28 317.706 3589.28 311.549 Q3589.28 305.183 3592.7 301.456 Q3596.15 297.706 3601.98 297.706 Q3607.22 297.706 3610.25 301.086 Q3613.3 304.442 3613.3 310.229 M3609.04 308.979 Q3609 305.484 3607.08 303.401 Q3605.18 301.317 3602.03 301.317 Q3598.47 301.317 3596.31 303.331 Q3594.18 305.345 3593.86 309.003 L3609.04 308.979 Z" fill="#000000" fill-rule="evenodd" fill-opacity="1" /><path clip-path="url(#clip060)" d="M3636.82 299.095 L3636.82 303.123 Q3635.02 302.197 3633.07 301.734 Q3631.13 301.271 3629.04 301.271 Q3625.87 301.271 3624.28 302.243 Q3622.7 303.216 3622.7 305.16 Q3622.7 306.642 3623.84 307.498 Q3624.97 308.331 3628.4 309.095 L3629.85 309.419 Q3634.39 310.392 3636.29 312.174 Q3638.21 313.933 3638.21 317.104 Q3638.21 320.716 3635.34 322.822 Q3632.49 324.928 3627.49 324.928 Q3625.41 324.928 3623.14 324.512 Q3620.9 324.118 3618.4 323.308 L3618.4 318.91 Q3620.76 320.137 3623.05 320.762 Q3625.34 321.364 3627.59 321.364 Q3630.59 321.364 3632.21 320.345 Q3633.84 319.303 3633.84 317.429 Q3633.84 315.692 3632.65 314.766 Q3631.5 313.841 3627.54 312.984 L3626.06 312.637 Q3622.1 311.804 3620.34 310.091 Q3618.58 308.354 3618.58 305.345 Q3618.58 301.688 3621.17 299.697 Q3623.77 297.706 3628.53 297.706 Q3630.9 297.706 3632.98 298.054 Q3635.06 298.401 3636.82 299.095 Z" fill="#000000" fill-rule="evenodd" fill-opacity="1" /></svg>
