<?xml version="1.0" encoding="utf-8"?>
<svg xmlns="http://www.w3.org/2000/svg" xmlns:xlink="http://www.w3.org/1999/xlink" width="1000" height="400" viewBox="0 0 4000 1600">
<defs>
  <clipPath id="clip030">
    <rect x="0" y="0" width="4000" height="1600"/>
  </clipPath>
</defs>
<path clip-path="url(#clip030)" d="
M0 1600 L4000 1600 L4000 0 L0 0  Z
  " fill="#ffffff" fill-rule="evenodd" fill-opacity="1"/>
<defs>
  <clipPath id="clip031">
    <rect x="800" y="0" width="2801" height="1600"/>
  </clipPath>
</defs>
<path clip-path="url(#clip030)" d="
M262.212 1393.02 L3889.76 1393.02 L3889.76 162.272 L262.212 162.272  Z
  " fill="#ffffff" fill-rule="evenodd" fill-opacity="1"/>
<defs>
  <clipPath id="clip032">
    <rect x="262" y="162" width="3629" height="1232"/>
  </clipPath>
</defs>
<polyline clip-path="url(#clip032)" style="stroke:#000000; stroke-linecap:butt; stroke-linejoin:round; stroke-width:2; stroke-opacity:0.1; fill:none" points="
  741.733,1393.02 741.733,162.272 
  "/>
<polyline clip-path="url(#clip032)" style="stroke:#000000; stroke-linecap:butt; stroke-linejoin:round; stroke-width:2; stroke-opacity:0.1; fill:none" points="
  1511.44,1393.02 1511.44,162.272 
  "/>
<polyline clip-path="url(#clip032)" style="stroke:#000000; stroke-linecap:butt; stroke-linejoin:round; stroke-width:2; stroke-opacity:0.1; fill:none" points="
  2281.16,1393.02 2281.16,162.272 
  "/>
<polyline clip-path="url(#clip032)" style="stroke:#000000; stroke-linecap:butt; stroke-linejoin:round; stroke-width:2; stroke-opacity:0.1; fill:none" points="
  3050.87,1393.02 3050.87,162.272 
  "/>
<polyline clip-path="url(#clip032)" style="stroke:#000000; stroke-linecap:butt; stroke-linejoin:round; stroke-width:2; stroke-opacity:0.1; fill:none" points="
  3820.58,1393.02 3820.58,162.272 
  "/>
<polyline clip-path="url(#clip030)" style="stroke:#000000; stroke-linecap:butt; stroke-linejoin:round; stroke-width:4; stroke-opacity:1; fill:none" points="
  262.212,1393.02 3889.76,1393.02 
  "/>
<polyline clip-path="url(#clip030)" style="stroke:#000000; stroke-linecap:butt; stroke-linejoin:round; stroke-width:4; stroke-opacity:1; fill:none" points="
  741.733,1393.02 741.733,1374.12 
  "/>
<polyline clip-path="url(#clip030)" style="stroke:#000000; stroke-linecap:butt; stroke-linejoin:round; stroke-width:4; stroke-opacity:1; fill:none" points="
  1511.44,1393.02 1511.44,1374.12 
  "/>
<polyline clip-path="url(#clip030)" style="stroke:#000000; stroke-linecap:butt; stroke-linejoin:round; stroke-width:4; stroke-opacity:1; fill:none" points="
  2281.16,1393.02 2281.16,1374.12 
  "/>
<polyline clip-path="url(#clip030)" style="stroke:#000000; stroke-linecap:butt; stroke-linejoin:round; stroke-width:4; stroke-opacity:1; fill:none" points="
  3050.87,1393.02 3050.87,1374.12 
  "/>
<polyline clip-path="url(#clip030)" style="stroke:#000000; stroke-linecap:butt; stroke-linejoin:round; stroke-width:4; stroke-opacity:1; fill:none" points="
  3820.58,1393.02 3820.58,1374.12 
  "/>
<path clip-path="url(#clip030)" d="M720.506 1464.28 L736.826 1464.28 L736.826 1468.22 L714.882 1468.22 L714.882 1464.28 Q717.544 1461.53 722.127 1456.9 Q726.733 1452.25 727.914 1450.9 Q730.159 1448.38 731.039 1446.65 Q731.942 1444.89 731.942 1443.2 Q731.942 1440.44 729.997 1438.71 Q728.076 1436.97 724.974 1436.97 Q722.775 1436.97 720.321 1437.73 Q717.891 1438.5 715.113 1440.05 L715.113 1435.33 Q717.937 1434.19 720.391 1433.61 Q722.844 1433.03 724.881 1433.03 Q730.252 1433.03 733.446 1435.72 Q736.641 1438.41 736.641 1442.9 Q736.641 1445.03 735.83 1446.95 Q735.043 1448.84 732.937 1451.44 Q732.358 1452.11 729.256 1455.33 Q726.155 1458.52 720.506 1464.28 Z" fill="#000000" fill-rule="evenodd" fill-opacity="1" /><path clip-path="url(#clip030)" d="M756.641 1436.74 Q753.029 1436.74 751.201 1440.3 Q749.395 1443.84 749.395 1450.97 Q749.395 1458.08 751.201 1461.65 Q753.029 1465.19 756.641 1465.19 Q760.275 1465.19 762.08 1461.65 Q763.909 1458.08 763.909 1450.97 Q763.909 1443.84 762.08 1440.3 Q760.275 1436.74 756.641 1436.74 M756.641 1433.03 Q762.451 1433.03 765.506 1437.64 Q768.585 1442.22 768.585 1450.97 Q768.585 1459.7 765.506 1464.31 Q762.451 1468.89 756.641 1468.89 Q750.83 1468.89 747.752 1464.31 Q744.696 1459.7 744.696 1450.97 Q744.696 1442.22 747.752 1437.64 Q750.83 1433.03 756.641 1433.03 Z" fill="#000000" fill-rule="evenodd" fill-opacity="1" /><path clip-path="url(#clip030)" d="M1499.62 1437.73 L1487.81 1456.18 L1499.62 1456.18 L1499.62 1437.73 M1498.39 1433.66 L1504.27 1433.66 L1504.27 1456.18 L1509.2 1456.18 L1509.2 1460.07 L1504.27 1460.07 L1504.27 1468.22 L1499.62 1468.22 L1499.62 1460.07 L1484.01 1460.07 L1484.01 1455.56 L1498.39 1433.66 Z" fill="#000000" fill-rule="evenodd" fill-opacity="1" /><path clip-path="url(#clip030)" d="M1526.93 1436.74 Q1523.32 1436.74 1521.49 1440.3 Q1519.69 1443.84 1519.69 1450.97 Q1519.69 1458.08 1521.49 1461.65 Q1523.32 1465.19 1526.93 1465.19 Q1530.57 1465.19 1532.37 1461.65 Q1534.2 1458.08 1534.2 1450.97 Q1534.2 1443.84 1532.37 1440.3 Q1530.57 1436.74 1526.93 1436.74 M1526.93 1433.03 Q1532.74 1433.03 1535.8 1437.64 Q1538.88 1442.22 1538.88 1450.97 Q1538.88 1459.7 1535.8 1464.31 Q1532.74 1468.89 1526.93 1468.89 Q1521.12 1468.89 1518.04 1464.31 Q1514.99 1459.7 1514.99 1450.97 Q1514.99 1442.22 1518.04 1437.64 Q1521.12 1433.03 1526.93 1433.03 Z" fill="#000000" fill-rule="evenodd" fill-opacity="1" /><path clip-path="url(#clip030)" d="M2266.56 1449.08 Q2263.41 1449.08 2261.56 1451.23 Q2259.73 1453.38 2259.73 1457.13 Q2259.73 1460.86 2261.56 1463.03 Q2263.41 1465.19 2266.56 1465.19 Q2269.71 1465.19 2271.54 1463.03 Q2273.39 1460.86 2273.39 1457.13 Q2273.39 1453.38 2271.54 1451.23 Q2269.71 1449.08 2266.56 1449.08 M2275.84 1434.42 L2275.84 1438.68 Q2274.08 1437.85 2272.28 1437.41 Q2270.5 1436.97 2268.74 1436.97 Q2264.11 1436.97 2261.65 1440.09 Q2259.22 1443.22 2258.88 1449.54 Q2260.24 1447.53 2262.3 1446.46 Q2264.36 1445.37 2266.84 1445.37 Q2272.05 1445.37 2275.06 1448.54 Q2278.09 1451.69 2278.09 1457.13 Q2278.09 1462.46 2274.94 1465.67 Q2271.79 1468.89 2266.56 1468.89 Q2260.57 1468.89 2257.4 1464.31 Q2254.22 1459.7 2254.22 1450.97 Q2254.22 1442.78 2258.11 1437.92 Q2262 1433.03 2268.55 1433.03 Q2270.31 1433.03 2272.09 1433.38 Q2273.9 1433.73 2275.84 1434.42 Z" fill="#000000" fill-rule="evenodd" fill-opacity="1" /><path clip-path="url(#clip030)" d="M2296.14 1436.74 Q2292.53 1436.74 2290.71 1440.3 Q2288.9 1443.84 2288.9 1450.97 Q2288.9 1458.08 2290.71 1461.65 Q2292.53 1465.19 2296.14 1465.19 Q2299.78 1465.19 2301.58 1461.65 Q2303.41 1458.08 2303.41 1450.97 Q2303.41 1443.84 2301.58 1440.3 Q2299.78 1436.74 2296.14 1436.74 M2296.14 1433.03 Q2301.95 1433.03 2305.01 1437.64 Q2308.09 1442.22 2308.09 1450.97 Q2308.09 1459.7 2305.01 1464.31 Q2301.95 1468.89 2296.14 1468.89 Q2290.33 1468.89 2287.26 1464.31 Q2284.2 1459.7 2284.2 1450.97 Q2284.2 1442.22 2287.26 1437.64 Q2290.33 1433.03 2296.14 1433.03 Z" fill="#000000" fill-rule="evenodd" fill-opacity="1" /><path clip-path="url(#clip030)" d="M3035.74 1451.81 Q3032.41 1451.81 3030.49 1453.59 Q3028.59 1455.37 3028.59 1458.5 Q3028.59 1461.62 3030.49 1463.4 Q3032.41 1465.19 3035.74 1465.19 Q3039.07 1465.19 3041 1463.4 Q3042.92 1461.6 3042.92 1458.5 Q3042.92 1455.37 3041 1453.59 Q3039.1 1451.81 3035.74 1451.81 M3031.06 1449.82 Q3028.06 1449.08 3026.37 1447.02 Q3024.7 1444.96 3024.7 1441.99 Q3024.7 1437.85 3027.64 1435.44 Q3030.6 1433.03 3035.74 1433.03 Q3040.9 1433.03 3043.84 1435.44 Q3046.78 1437.85 3046.78 1441.99 Q3046.78 1444.96 3045.09 1447.02 Q3043.43 1449.08 3040.44 1449.82 Q3043.82 1450.6 3045.69 1452.9 Q3047.59 1455.19 3047.59 1458.5 Q3047.59 1463.52 3044.51 1466.21 Q3041.46 1468.89 3035.74 1468.89 Q3030.02 1468.89 3026.94 1466.21 Q3023.89 1463.52 3023.89 1458.5 Q3023.89 1455.19 3025.79 1452.9 Q3027.69 1450.6 3031.06 1449.82 M3029.35 1442.43 Q3029.35 1445.12 3031.02 1446.62 Q3032.71 1448.13 3035.74 1448.13 Q3038.75 1448.13 3040.44 1446.62 Q3042.15 1445.12 3042.15 1442.43 Q3042.15 1439.75 3040.44 1438.24 Q3038.75 1436.74 3035.74 1436.74 Q3032.71 1436.74 3031.02 1438.24 Q3029.35 1439.75 3029.35 1442.43 Z" fill="#000000" fill-rule="evenodd" fill-opacity="1" /><path clip-path="url(#clip030)" d="M3065.9 1436.74 Q3062.29 1436.74 3060.46 1440.3 Q3058.66 1443.84 3058.66 1450.97 Q3058.66 1458.08 3060.46 1461.65 Q3062.29 1465.19 3065.9 1465.19 Q3069.54 1465.19 3071.34 1461.65 Q3073.17 1458.08 3073.17 1450.97 Q3073.17 1443.84 3071.34 1440.3 Q3069.54 1436.74 3065.9 1436.74 M3065.9 1433.03 Q3071.71 1433.03 3074.77 1437.64 Q3077.85 1442.22 3077.85 1450.97 Q3077.85 1459.7 3074.77 1464.31 Q3071.71 1468.89 3065.9 1468.89 Q3060.09 1468.89 3057.01 1464.31 Q3053.96 1459.7 3053.96 1450.97 Q3053.96 1442.22 3057.01 1437.64 Q3060.09 1433.03 3065.9 1433.03 Z" fill="#000000" fill-rule="evenodd" fill-opacity="1" /><path clip-path="url(#clip030)" d="M3780.19 1464.28 L3787.83 1464.28 L3787.83 1437.92 L3779.52 1439.59 L3779.52 1435.33 L3787.78 1433.66 L3792.45 1433.66 L3792.45 1464.28 L3800.09 1464.28 L3800.09 1468.22 L3780.19 1468.22 L3780.19 1464.28 Z" fill="#000000" fill-rule="evenodd" fill-opacity="1" /><path clip-path="url(#clip030)" d="M3819.54 1436.74 Q3815.93 1436.74 3814.1 1440.3 Q3812.29 1443.84 3812.29 1450.97 Q3812.29 1458.08 3814.1 1461.65 Q3815.93 1465.19 3819.54 1465.19 Q3823.17 1465.19 3824.98 1461.65 Q3826.81 1458.08 3826.81 1450.97 Q3826.81 1443.84 3824.98 1440.3 Q3823.17 1436.74 3819.54 1436.74 M3819.54 1433.03 Q3825.35 1433.03 3828.4 1437.64 Q3831.48 1442.22 3831.48 1450.97 Q3831.48 1459.7 3828.4 1464.31 Q3825.35 1468.89 3819.54 1468.89 Q3813.73 1468.89 3810.65 1464.31 Q3807.59 1459.7 3807.59 1450.97 Q3807.59 1442.22 3810.65 1437.64 Q3813.73 1433.03 3819.54 1433.03 Z" fill="#000000" fill-rule="evenodd" fill-opacity="1" /><path clip-path="url(#clip030)" d="M3849.7 1436.74 Q3846.09 1436.74 3844.26 1440.3 Q3842.45 1443.84 3842.45 1450.97 Q3842.45 1458.08 3844.26 1461.65 Q3846.09 1465.19 3849.7 1465.19 Q3853.33 1465.19 3855.14 1461.65 Q3856.97 1458.08 3856.97 1450.97 Q3856.97 1443.84 3855.14 1440.3 Q3853.33 1436.74 3849.7 1436.74 M3849.7 1433.03 Q3855.51 1433.03 3858.57 1437.64 Q3861.64 1442.22 3861.64 1450.97 Q3861.64 1459.7 3858.57 1464.31 Q3855.51 1468.89 3849.7 1468.89 Q3843.89 1468.89 3840.81 1464.31 Q3837.76 1459.7 3837.76 1450.97 Q3837.76 1442.22 3840.81 1437.64 Q3843.89 1433.03 3849.7 1433.03 Z" fill="#000000" fill-rule="evenodd" fill-opacity="1" /><path clip-path="url(#clip030)" d="M1974.12 1556.54 L1974.12 1575.44 L1968.23 1575.44 L1968.23 1526.24 L1974.12 1526.24 L1974.12 1531.65 Q1975.97 1528.46 1978.77 1526.94 Q1981.6 1525.38 1985.52 1525.38 Q1992.01 1525.38 1996.05 1530.53 Q2000.12 1535.69 2000.12 1544.09 Q2000.12 1552.49 1996.05 1557.65 Q1992.01 1562.81 1985.52 1562.81 Q1981.6 1562.81 1978.77 1561.28 Q1975.97 1559.72 1974.12 1556.54 M1994.05 1544.09 Q1994.05 1537.63 1991.37 1533.97 Q1988.73 1530.28 1984.08 1530.28 Q1979.44 1530.28 1976.76 1533.97 Q1974.12 1537.63 1974.12 1544.09 Q1974.12 1550.55 1976.76 1554.24 Q1979.44 1557.91 1984.08 1557.91 Q1988.73 1557.91 1991.37 1554.24 Q1994.05 1550.55 1994.05 1544.09 Z" fill="#000000" fill-rule="evenodd" fill-opacity="1" /><path clip-path="url(#clip030)" d="M2044.62 1512.42 Q2040.36 1519.74 2038.29 1526.9 Q2036.22 1534.07 2036.22 1541.42 Q2036.22 1548.77 2038.29 1556 Q2040.39 1563.19 2044.62 1570.48 L2039.53 1570.48 Q2034.75 1563 2032.37 1555.77 Q2030.01 1548.55 2030.01 1541.42 Q2030.01 1534.32 2032.37 1527.13 Q2034.72 1519.93 2039.53 1512.42 L2044.62 1512.42 Z" fill="#000000" fill-rule="evenodd" fill-opacity="1" /><path clip-path="url(#clip030)" d="M2055.76 1512.36 L2061.65 1512.36 L2061.65 1541.61 L2079.12 1526.24 L2086.6 1526.24 L2067.7 1542.91 L2087.4 1561.88 L2079.76 1561.88 L2061.65 1544.47 L2061.65 1561.88 L2055.76 1561.88 L2055.76 1512.36 Z" fill="#000000" fill-rule="evenodd" fill-opacity="1" /><path clip-path="url(#clip030)" d="M2100.42 1519.65 L2100.42 1537.5 L2108.5 1537.5 Q2112.99 1537.5 2115.44 1535.18 Q2117.89 1532.86 2117.89 1528.56 Q2117.89 1524.29 2115.44 1521.97 Q2112.99 1519.65 2108.5 1519.65 L2100.42 1519.65 M2093.99 1514.36 L2108.5 1514.36 Q2116.49 1514.36 2120.56 1517.99 Q2124.67 1521.59 2124.67 1528.56 Q2124.67 1535.59 2120.56 1539.19 Q2116.49 1542.79 2108.5 1542.79 L2100.42 1542.79 L2100.42 1561.88 L2093.99 1561.88 L2093.99 1514.36 Z" fill="#000000" fill-rule="evenodd" fill-opacity="1" /><path clip-path="url(#clip030)" d="M2146.31 1543.96 Q2139.22 1543.96 2136.48 1545.59 Q2133.74 1547.21 2133.74 1551.13 Q2133.74 1554.24 2135.78 1556.09 Q2137.85 1557.91 2141.38 1557.91 Q2146.25 1557.91 2149.18 1554.47 Q2152.14 1551 2152.14 1545.27 L2152.14 1543.96 L2146.31 1543.96 M2157.99 1541.55 L2157.99 1561.88 L2152.14 1561.88 L2152.14 1556.47 Q2150.13 1559.72 2147.14 1561.28 Q2144.15 1562.81 2139.82 1562.81 Q2134.35 1562.81 2131.1 1559.75 Q2127.88 1556.66 2127.88 1551.51 Q2127.88 1545.49 2131.89 1542.44 Q2135.94 1539.38 2143.93 1539.38 L2152.14 1539.38 L2152.14 1538.81 Q2152.14 1534.77 2149.46 1532.57 Q2146.82 1530.34 2142.02 1530.34 Q2138.96 1530.34 2136.06 1531.07 Q2133.17 1531.81 2130.49 1533.27 L2130.49 1527.86 Q2133.71 1526.62 2136.73 1526.01 Q2139.76 1525.38 2142.62 1525.38 Q2150.36 1525.38 2154.17 1529.39 Q2157.99 1533.4 2157.99 1541.55 Z" fill="#000000" fill-rule="evenodd" fill-opacity="1" /><path clip-path="url(#clip030)" d="M2169.13 1512.42 L2174.23 1512.42 Q2179 1519.93 2181.36 1527.13 Q2183.74 1534.32 2183.74 1541.42 Q2183.74 1548.55 2181.36 1555.77 Q2179 1563 2174.23 1570.48 L2169.13 1570.48 Q2173.37 1563.19 2175.44 1556 Q2177.54 1548.77 2177.54 1541.42 Q2177.54 1534.07 2175.44 1526.9 Q2173.37 1519.74 2169.13 1512.42 Z" fill="#000000" fill-rule="evenodd" fill-opacity="1" /><polyline clip-path="url(#clip032)" style="stroke:#000000; stroke-linecap:butt; stroke-linejoin:round; stroke-width:2; stroke-opacity:0.1; fill:none" points="
  262.212,1358.19 3889.76,1358.19 
  "/>
<polyline clip-path="url(#clip032)" style="stroke:#000000; stroke-linecap:butt; stroke-linejoin:round; stroke-width:2; stroke-opacity:0.1; fill:none" points="
  262.212,1004.2 3889.76,1004.2 
  "/>
<polyline clip-path="url(#clip032)" style="stroke:#000000; stroke-linecap:butt; stroke-linejoin:round; stroke-width:2; stroke-opacity:0.1; fill:none" points="
  262.212,650.21 3889.76,650.21 
  "/>
<polyline clip-path="url(#clip032)" style="stroke:#000000; stroke-linecap:butt; stroke-linejoin:round; stroke-width:2; stroke-opacity:0.1; fill:none" points="
  262.212,296.222 3889.76,296.222 
  "/>
<polyline clip-path="url(#clip030)" style="stroke:#000000; stroke-linecap:butt; stroke-linejoin:round; stroke-width:4; stroke-opacity:1; fill:none" points="
  262.212,1393.02 262.212,162.272 
  "/>
<polyline clip-path="url(#clip030)" style="stroke:#000000; stroke-linecap:butt; stroke-linejoin:round; stroke-width:4; stroke-opacity:1; fill:none" points="
  262.212,1358.19 281.109,1358.19 
  "/>
<polyline clip-path="url(#clip030)" style="stroke:#000000; stroke-linecap:butt; stroke-linejoin:round; stroke-width:4; stroke-opacity:1; fill:none" points="
  262.212,1004.2 281.109,1004.2 
  "/>
<polyline clip-path="url(#clip030)" style="stroke:#000000; stroke-linecap:butt; stroke-linejoin:round; stroke-width:4; stroke-opacity:1; fill:none" points="
  262.212,650.21 281.109,650.21 
  "/>
<polyline clip-path="url(#clip030)" style="stroke:#000000; stroke-linecap:butt; stroke-linejoin:round; stroke-width:4; stroke-opacity:1; fill:none" points="
  262.212,296.222 281.109,296.222 
  "/>
<path clip-path="url(#clip030)" d="M190.267 1343.99 Q186.656 1343.99 184.827 1347.55 Q183.022 1351.09 183.022 1358.22 Q183.022 1365.33 184.827 1368.89 Q186.656 1372.43 190.267 1372.43 Q193.901 1372.43 195.707 1368.89 Q197.536 1365.33 197.536 1358.22 Q197.536 1351.09 195.707 1347.55 Q193.901 1343.99 190.267 1343.99 M190.267 1340.28 Q196.077 1340.28 199.133 1344.89 Q202.212 1349.47 202.212 1358.22 Q202.212 1366.95 199.133 1371.56 Q196.077 1376.14 190.267 1376.14 Q184.457 1376.14 181.378 1371.56 Q178.323 1366.95 178.323 1358.22 Q178.323 1349.47 181.378 1344.89 Q184.457 1340.28 190.267 1340.28 Z" fill="#000000" fill-rule="evenodd" fill-opacity="1" /><path clip-path="url(#clip030)" d="M181.309 986.919 L199.665 986.919 L199.665 990.854 L185.591 990.854 L185.591 999.326 Q186.61 998.979 187.628 998.817 Q188.647 998.632 189.665 998.632 Q195.452 998.632 198.832 1001.8 Q202.212 1004.97 202.212 1010.39 Q202.212 1015.97 198.739 1019.07 Q195.267 1022.15 188.948 1022.15 Q186.772 1022.15 184.503 1021.78 Q182.258 1021.41 179.851 1020.67 L179.851 1015.97 Q181.934 1017.1 184.156 1017.66 Q186.378 1018.21 188.855 1018.21 Q192.86 1018.21 195.198 1016.11 Q197.536 1014 197.536 1010.39 Q197.536 1006.78 195.198 1004.67 Q192.86 1002.57 188.855 1002.57 Q186.98 1002.57 185.105 1002.98 Q183.253 1003.4 181.309 1004.28 L181.309 986.919 Z" fill="#000000" fill-rule="evenodd" fill-opacity="1" /><path clip-path="url(#clip030)" d="M150.916 663.555 L158.554 663.555 L158.554 637.189 L150.244 638.856 L150.244 634.597 L158.508 632.93 L163.184 632.93 L163.184 663.555 L170.823 663.555 L170.823 667.49 L150.916 667.49 L150.916 663.555 Z" fill="#000000" fill-rule="evenodd" fill-opacity="1" /><path clip-path="url(#clip030)" d="M190.267 636.009 Q186.656 636.009 184.827 639.574 Q183.022 643.115 183.022 650.245 Q183.022 657.351 184.827 660.916 Q186.656 664.458 190.267 664.458 Q193.901 664.458 195.707 660.916 Q197.536 657.351 197.536 650.245 Q197.536 643.115 195.707 639.574 Q193.901 636.009 190.267 636.009 M190.267 632.305 Q196.077 632.305 199.133 636.912 Q202.212 641.495 202.212 650.245 Q202.212 658.972 199.133 663.578 Q196.077 668.161 190.267 668.161 Q184.457 668.161 181.378 663.578 Q178.323 658.972 178.323 650.245 Q178.323 641.495 181.378 636.912 Q184.457 632.305 190.267 632.305 Z" fill="#000000" fill-rule="evenodd" fill-opacity="1" /><path clip-path="url(#clip030)" d="M151.911 309.566 L159.55 309.566 L159.55 283.201 L151.24 284.867 L151.24 280.608 L159.503 278.942 L164.179 278.942 L164.179 309.566 L171.818 309.566 L171.818 313.502 L151.911 313.502 L151.911 309.566 Z" fill="#000000" fill-rule="evenodd" fill-opacity="1" /><path clip-path="url(#clip030)" d="M181.309 278.942 L199.665 278.942 L199.665 282.877 L185.591 282.877 L185.591 291.349 Q186.61 291.002 187.628 290.84 Q188.647 290.654 189.665 290.654 Q195.452 290.654 198.832 293.826 Q202.212 296.997 202.212 302.414 Q202.212 307.992 198.739 311.094 Q195.267 314.173 188.948 314.173 Q186.772 314.173 184.503 313.802 Q182.258 313.432 179.851 312.691 L179.851 307.992 Q181.934 309.127 184.156 309.682 Q186.378 310.238 188.855 310.238 Q192.86 310.238 195.198 308.131 Q197.536 306.025 197.536 302.414 Q197.536 298.803 195.198 296.696 Q192.86 294.59 188.855 294.59 Q186.98 294.59 185.105 295.006 Q183.253 295.423 181.309 296.303 L181.309 278.942 Z" fill="#000000" fill-rule="evenodd" fill-opacity="1" /><path clip-path="url(#clip030)" d="M40.3403 876.171 L40.3403 848.353 L45.6875 848.353 L71.3095 870.378 L71.3095 848.353 L75.9883 848.353 L75.9883 876.967 L70.6411 876.967 L45.0191 854.942 L45.0191 876.171 L40.3403 876.171 Z" fill="#000000" fill-rule="evenodd" fill-opacity="1" /><path clip-path="url(#clip030)" d="M26.5267 804.621 Q33.8473 808.886 41.0087 810.955 Q48.1701 813.023 55.5225 813.023 Q62.8749 813.023 70.1 810.955 Q77.2933 808.854 84.582 804.621 L84.582 809.713 Q77.1023 814.488 69.8772 816.875 Q62.6521 819.23 55.5225 819.23 Q48.4248 819.23 41.2315 816.875 Q34.0383 814.519 26.5267 809.713 L26.5267 804.621 Z" fill="#000000" fill-rule="evenodd" fill-opacity="1" /><path clip-path="url(#clip030)" d="M26.4631 793.481 L26.4631 787.592 L55.7135 787.592 L40.3403 770.119 L40.3403 762.639 L57.0185 781.545 L75.9883 761.843 L75.9883 769.482 L58.5781 787.592 L75.9883 787.592 L75.9883 793.481 L26.4631 793.481 Z" fill="#000000" fill-rule="evenodd" fill-opacity="1" /><path clip-path="url(#clip030)" d="M47.1835 727.755 Q43.2367 725.559 41.3588 722.503 Q39.481 719.448 39.481 715.31 Q39.481 709.74 43.3959 706.716 Q47.2789 703.692 54.4722 703.692 L75.9883 703.692 L75.9883 709.581 L54.6632 709.581 Q49.5388 709.581 47.0561 711.395 Q44.5735 713.209 44.5735 716.933 Q44.5735 721.485 47.5972 724.126 Q50.6209 726.768 55.8408 726.768 L75.9883 726.768 L75.9883 732.656 L54.6632 732.656 Q49.5069 732.656 47.0561 734.471 Q44.5735 736.285 44.5735 740.072 Q44.5735 744.56 47.6291 747.202 Q50.6528 749.844 55.8408 749.844 L75.9883 749.844 L75.9883 755.732 L40.3403 755.732 L40.3403 749.844 L45.8785 749.844 Q42.6002 747.839 41.0406 745.038 Q39.481 742.237 39.481 738.385 Q39.481 734.502 41.4543 731.797 Q43.4277 729.06 47.1835 727.755 Z" fill="#000000" fill-rule="evenodd" fill-opacity="1" /><path clip-path="url(#clip030)" d="M26.5267 692.934 L26.5267 687.842 Q34.0383 683.067 41.2315 680.712 Q48.4248 678.325 55.5225 678.325 Q62.6521 678.325 69.8772 680.712 Q77.1023 683.067 84.582 687.842 L84.582 692.934 Q77.2933 688.701 70.1 686.632 Q62.8749 684.532 55.5225 684.532 Q48.1701 684.532 41.0087 686.632 Q33.8473 688.701 26.5267 692.934 Z" fill="#000000" fill-rule="evenodd" fill-opacity="1" /><path clip-path="url(#clip030)" d="M1946.34 65.7705 L1946.34 89.8329 L1938.84 89.8329 L1938.84 27.2059 L1946.34 27.2059 L1946.34 34.0924 Q1948.69 30.0415 1952.25 28.0971 Q1955.86 26.1121 1960.84 26.1121 Q1969.1 26.1121 1974.25 32.6746 Q1979.43 39.2371 1979.43 49.9314 Q1979.43 60.6258 1974.25 67.1883 Q1969.1 73.7508 1960.84 73.7508 Q1955.86 73.7508 1952.25 71.8063 Q1948.69 69.8214 1946.34 65.7705 M1971.7 49.9314 Q1971.7 41.7081 1968.29 37.0496 Q1964.93 32.3505 1959.02 32.3505 Q1953.1 32.3505 1949.7 37.0496 Q1946.34 41.7081 1946.34 49.9314 Q1946.34 58.1548 1949.7 62.8538 Q1953.1 67.5124 1959.02 67.5124 Q1964.93 67.5124 1968.29 62.8538 Q1971.7 58.1548 1971.7 49.9314 Z" fill="#000000" fill-rule="evenodd" fill-opacity="1" /><path clip-path="url(#clip030)" d="M2036.07 9.62495 Q2030.64 18.942 2028 28.0566 Q2025.37 37.1711 2025.37 46.5287 Q2025.37 55.8863 2028 65.0818 Q2030.68 74.2369 2036.07 83.5134 L2029.58 83.5134 Q2023.51 73.9938 2020.47 64.7983 Q2017.47 55.6027 2017.47 46.5287 Q2017.47 37.4952 2020.47 28.3401 Q2023.47 19.1851 2029.58 9.62495 L2036.07 9.62495 Z" fill="#000000" fill-rule="evenodd" fill-opacity="1" /><path clip-path="url(#clip030)" d="M2050.24 9.54393 L2057.74 9.54393 L2057.74 46.7717 L2079.98 27.2059 L2089.5 27.2059 L2065.44 48.4326 L2090.51 72.576 L2080.79 72.576 L2057.74 50.4176 L2057.74 72.576 L2050.24 72.576 L2050.24 9.54393 Z" fill="#000000" fill-rule="evenodd" fill-opacity="1" /><path clip-path="url(#clip030)" d="M2107.08 18.8205 L2107.08 41.5461 L2117.37 41.5461 Q2123.08 41.5461 2126.2 38.5889 Q2129.32 35.6318 2129.32 30.163 Q2129.32 24.7348 2126.2 21.7777 Q2123.08 18.8205 2117.37 18.8205 L2107.08 18.8205 M2098.9 12.096 L2117.37 12.096 Q2127.54 12.096 2132.72 16.714 Q2137.95 21.2916 2137.95 30.163 Q2137.95 39.1155 2132.72 43.6931 Q2127.54 48.2706 2117.37 48.2706 L2107.08 48.2706 L2107.08 72.576 L2098.9 72.576 L2098.9 12.096 Z" fill="#000000" fill-rule="evenodd" fill-opacity="1" /><path clip-path="url(#clip030)" d="M2165.49 49.7694 Q2156.46 49.7694 2152.98 51.8354 Q2149.49 53.9013 2149.49 58.8839 Q2149.49 62.8538 2152.08 65.2034 Q2154.72 67.5124 2159.21 67.5124 Q2165.41 67.5124 2169.14 63.1374 Q2172.91 58.7219 2172.91 51.4303 L2172.91 49.7694 L2165.49 49.7694 M2180.36 46.6907 L2180.36 72.576 L2172.91 72.576 L2172.91 65.6895 Q2170.35 69.8214 2166.55 71.8063 Q2162.74 73.7508 2157.23 73.7508 Q2150.26 73.7508 2146.13 69.8619 Q2142.04 65.9325 2142.04 59.3701 Q2142.04 51.7138 2147.14 47.825 Q2152.29 43.9361 2162.45 43.9361 L2172.91 43.9361 L2172.91 43.2069 Q2172.91 38.0623 2169.5 35.2672 Q2166.14 32.4315 2160.02 32.4315 Q2156.13 32.4315 2152.45 33.3632 Q2148.76 34.295 2145.36 36.1584 L2145.36 29.2718 Q2149.45 27.692 2153.3 26.9223 Q2157.15 26.1121 2160.79 26.1121 Q2170.64 26.1121 2175.5 31.2163 Q2180.36 36.3204 2180.36 46.6907 Z" fill="#000000" fill-rule="evenodd" fill-opacity="1" /><path clip-path="url(#clip030)" d="M2194.54 9.62495 L2201.02 9.62495 Q2207.1 19.1851 2210.09 28.3401 Q2213.13 37.4952 2213.13 46.5287 Q2213.13 55.6027 2210.09 64.7983 Q2207.1 73.9938 2201.02 83.5134 L2194.54 83.5134 Q2199.93 74.2369 2202.56 65.0818 Q2205.23 55.8863 2205.23 46.5287 Q2205.23 37.1711 2202.56 28.0566 Q2199.93 18.942 2194.54 9.62495 Z" fill="#000000" fill-rule="evenodd" fill-opacity="1" /><polyline clip-path="url(#clip032)" style="stroke:#009af9; stroke-linecap:butt; stroke-linejoin:round; stroke-width:4; stroke-opacity:1; fill:none" points="
  3743.85,1351.11 3658.61,1336.95 3575,1322.79 3493,1308.63 3412.6,1294.47 3333.75,1280.31 3256.44,1266.15 3180.63,1251.99 3106.32,1237.83 3033.46,1223.67 
  2962.04,1209.51 2892.02,1195.35 2823.4,1181.19 2756.14,1167.03 2690.22,1152.87 2625.62,1138.71 2562.32,1124.55 2500.29,1110.4 2439.51,1096.24 2379.96,1082.08 
  2321.62,1067.92 2264.47,1053.76 2208.49,1039.6 2153.64,1025.44 2099.93,1011.28 2047.32,997.119 1995.79,982.959 1945.34,968.8 1895.94,954.64 1847.57,940.481 
  1800.23,926.321 1753.88,912.162 1708.52,898.002 1664.13,883.843 1620.68,869.683 1578.17,855.523 1536.57,841.364 1495.86,827.204 1456.03,813.045 1417.07,798.885 
  1378.95,784.726 1341.66,770.566 1305.19,756.407 1269.52,742.247 1234.63,728.088 1200.5,713.928 1167.13,699.768 1134.5,685.609 1102.59,671.449 1071.38,657.29 
  1040.87,643.13 1011.04,628.971 981.881,614.811 953.37,600.652 925.498,586.492 898.253,572.333 871.622,558.173 845.592,544.014 820.151,529.854 795.288,515.694 
  770.986,501.535 747.223,487.375 723.988,473.216 701.272,459.056 679.066,444.897 657.362,430.737 636.151,416.578 615.424,402.418 595.175,388.259 575.395,374.099 
  556.078,359.939 537.215,345.78 518.8,331.62 500.826,317.461 483.285,303.301 466.171,289.142 449.477,274.982 433.197,260.823 417.323,246.663 401.85,232.504 
  386.771,218.344 372.08,204.184 
  "/>
<polyline clip-path="url(#clip032)" style="stroke:#e26f46; stroke-linecap:butt; stroke-linejoin:round; stroke-width:4; stroke-opacity:1; fill:none" points="
  3787.1,1358.19 3701.02,1344.03 3616.6,1329.87 3533.8,1315.71 3452.6,1301.55 3372.98,1287.39 3294.9,1273.23 3218.35,1259.07 3143.29,1244.91 3069.71,1230.75 
  2997.57,1216.59 2926.85,1202.43 2857.54,1188.27 2789.6,1174.11 2723.02,1159.95 2657.76,1145.79 2593.81,1131.63 2531.15,1117.48 2469.75,1103.32 2409.59,1089.16 
  2350.65,1075 2292.9,1060.84 2236.33,1046.68 2180.92,1032.52 2126.65,1018.36 2073.49,1004.2 2021.42,990.039 1970.43,975.88 1920.51,961.72 1871.63,947.56 
  1823.77,933.401 1776.93,919.241 1731.08,905.082 1686.21,890.922 1642.29,876.763 1599.31,862.603 1557.25,848.444 1516.1,834.284 1475.84,820.125 1436.44,805.965 
  1397.91,791.806 1360.21,777.646 1323.33,763.486 1287.26,749.327 1251.98,735.167 1217.47,721.008 1183.72,706.848 1150.72,692.689 1118.45,678.529 1086.9,664.37 
  1056.04,650.21 1025.88,636.051 996.38,621.891 967.545,607.731 939.355,593.572 911.798,579.412 884.861,565.253 858.532,551.093 832.798,536.934 807.648,522.774 
  783.069,508.615 759.038,494.455 735.54,480.296 712.565,466.136 690.106,451.976 668.152,437.817 646.695,423.657 625.727,409.498 605.24,395.338 585.227,381.179 
  565.679,367.019 546.59,352.86 527.952,338.7 509.759,324.541 492.002,310.381 474.675,296.222 457.772,282.062 441.286,267.902 425.21,253.743 409.537,239.583 
  394.262,225.424 379.378,211.264 364.878,197.105 
  "/>
<path clip-path="url(#clip030)" d="
M3193.49 358.817 L3768.85 358.817 L3768.85 203.297 L3193.49 203.297  Z
  " fill="#ffffff" fill-rule="evenodd" fill-opacity="1"/>
<polyline clip-path="url(#clip030)" style="stroke:#000000; stroke-linecap:butt; stroke-linejoin:round; stroke-width:4; stroke-opacity:1; fill:none" points="
  3193.49,358.817 3768.85,358.817 3768.85,203.297 3193.49,203.297 3193.49,358.817 
  "/>
<polyline clip-path="url(#clip030)" style="stroke:#009af9; stroke-linecap:butt; stroke-linejoin:round; stroke-width:4; stroke-opacity:1; fill:none" points="
  3233.8,255.137 3475.64,255.137 
  "/>
<path clip-path="url(#clip030)" d="M3536.45 247.487 L3536.45 251.468 Q3534.65 250.473 3532.82 249.987 Q3531.01 249.477 3529.16 249.477 Q3525.02 249.477 3522.72 252.116 Q3520.43 254.732 3520.43 259.477 Q3520.43 264.223 3522.72 266.862 Q3525.02 269.477 3529.16 269.477 Q3531.01 269.477 3532.82 268.991 Q3534.65 268.482 3536.45 267.487 L3536.45 271.422 Q3534.67 272.255 3532.75 272.672 Q3530.85 273.088 3528.7 273.088 Q3522.84 273.088 3519.39 269.408 Q3515.94 265.727 3515.94 259.477 Q3515.94 253.135 3519.41 249.501 Q3522.91 245.866 3528.97 245.866 Q3530.94 245.866 3532.82 246.283 Q3534.69 246.677 3536.45 247.487 Z" fill="#000000" fill-rule="evenodd" fill-opacity="1" /><path clip-path="url(#clip030)" d="M3566.03 258.389 L3566.03 260.473 L3546.45 260.473 Q3546.73 264.871 3549.09 267.186 Q3551.47 269.477 3555.71 269.477 Q3558.16 269.477 3560.46 268.876 Q3562.77 268.274 3565.04 267.07 L3565.04 271.098 Q3562.75 272.07 3560.34 272.579 Q3557.93 273.088 3555.46 273.088 Q3549.25 273.088 3545.62 269.477 Q3542.01 265.866 3542.01 259.709 Q3542.01 253.343 3545.43 249.616 Q3548.88 245.866 3554.72 245.866 Q3559.95 245.866 3562.98 249.246 Q3566.03 252.602 3566.03 258.389 M3561.78 257.139 Q3561.73 253.644 3559.81 251.561 Q3557.91 249.477 3554.76 249.477 Q3551.2 249.477 3549.04 251.491 Q3546.91 253.505 3546.59 257.163 L3561.78 257.139 Z" fill="#000000" fill-rule="evenodd" fill-opacity="1" /><path clip-path="url(#clip030)" d="M3594.58 256.769 L3594.58 272.417 L3590.32 272.417 L3590.32 256.908 Q3590.32 253.227 3588.88 251.399 Q3587.45 249.57 3584.58 249.57 Q3581.13 249.57 3579.14 251.769 Q3577.15 253.968 3577.15 257.764 L3577.15 272.417 L3572.86 272.417 L3572.86 246.491 L3577.15 246.491 L3577.15 250.519 Q3578.67 248.181 3580.73 247.024 Q3582.82 245.866 3585.53 245.866 Q3589.99 245.866 3592.28 248.644 Q3594.58 251.399 3594.58 256.769 Z" fill="#000000" fill-rule="evenodd" fill-opacity="1" /><path clip-path="url(#clip030)" d="M3607.28 239.13 L3607.28 246.491 L3616.06 246.491 L3616.06 249.802 L3607.28 249.802 L3607.28 263.876 Q3607.28 267.047 3608.14 267.95 Q3609.02 268.852 3611.68 268.852 L3616.06 268.852 L3616.06 272.417 L3611.68 272.417 Q3606.75 272.417 3604.88 270.588 Q3603 268.737 3603 263.876 L3603 249.802 L3599.88 249.802 L3599.88 246.491 L3603 246.491 L3603 239.13 L3607.28 239.13 Z" fill="#000000" fill-rule="evenodd" fill-opacity="1" /><path clip-path="url(#clip030)" d="M3643.84 258.389 L3643.84 260.473 L3624.25 260.473 Q3624.53 264.871 3626.89 267.186 Q3629.28 269.477 3633.51 269.477 Q3635.96 269.477 3638.26 268.876 Q3640.57 268.274 3642.84 267.07 L3642.84 271.098 Q3640.55 272.07 3638.14 272.579 Q3635.73 273.088 3633.26 273.088 Q3627.05 273.088 3623.42 269.477 Q3619.81 265.866 3619.81 259.709 Q3619.81 253.343 3623.23 249.616 Q3626.68 245.866 3632.52 245.866 Q3637.75 245.866 3640.78 249.246 Q3643.84 252.602 3643.84 258.389 M3639.58 257.139 Q3639.53 253.644 3637.61 251.561 Q3635.71 249.477 3632.56 249.477 Q3629 249.477 3626.84 251.491 Q3624.71 253.505 3624.39 257.163 L3639.58 257.139 Z" fill="#000000" fill-rule="evenodd" fill-opacity="1" /><path clip-path="url(#clip030)" d="M3665.85 250.473 Q3665.13 250.056 3664.27 249.871 Q3663.44 249.663 3662.42 249.663 Q3658.81 249.663 3656.87 252.024 Q3654.95 254.362 3654.95 258.76 L3654.95 272.417 L3650.66 272.417 L3650.66 246.491 L3654.95 246.491 L3654.95 250.519 Q3656.29 248.158 3658.44 247.024 Q3660.59 245.866 3663.67 245.866 Q3664.11 245.866 3664.65 245.936 Q3665.18 245.982 3665.83 246.098 L3665.85 250.473 Z" fill="#000000" fill-rule="evenodd" fill-opacity="1" /><path clip-path="url(#clip030)" d="M3686.84 247.255 L3686.84 251.283 Q3685.04 250.357 3683.09 249.894 Q3681.15 249.431 3679.07 249.431 Q3675.9 249.431 3674.3 250.403 Q3672.72 251.376 3672.72 253.32 Q3672.72 254.802 3673.86 255.658 Q3674.99 256.491 3678.42 257.255 L3679.88 257.579 Q3684.41 258.552 3686.31 260.334 Q3688.23 262.093 3688.23 265.264 Q3688.23 268.876 3685.36 270.982 Q3682.52 273.088 3677.52 273.088 Q3675.43 273.088 3673.16 272.672 Q3670.92 272.278 3668.42 271.468 L3668.42 267.07 Q3670.78 268.297 3673.07 268.922 Q3675.36 269.524 3677.61 269.524 Q3680.62 269.524 3682.24 268.505 Q3683.86 267.463 3683.86 265.589 Q3683.86 263.852 3682.68 262.926 Q3681.52 262.001 3677.56 261.144 L3676.08 260.797 Q3672.12 259.964 3670.36 258.251 Q3668.6 256.514 3668.6 253.505 Q3668.6 249.848 3671.2 247.857 Q3673.79 245.866 3678.56 245.866 Q3680.92 245.866 3683 246.214 Q3685.08 246.561 3686.84 247.255 Z" fill="#000000" fill-rule="evenodd" fill-opacity="1" /><polyline clip-path="url(#clip030)" style="stroke:#e26f46; stroke-linecap:butt; stroke-linejoin:round; stroke-width:4; stroke-opacity:1; fill:none" points="
  3233.8,306.977 3475.64,306.977 
  "/>
<path clip-path="url(#clip030)" d="M3532.45 288.239 L3532.45 291.78 L3528.37 291.78 Q3526.08 291.78 3525.18 292.706 Q3524.3 293.632 3524.3 296.04 L3524.3 298.331 L3531.31 298.331 L3531.31 301.642 L3524.3 301.642 L3524.3 324.257 L3520.02 324.257 L3520.02 301.642 L3515.94 301.642 L3515.94 298.331 L3520.02 298.331 L3520.02 296.526 Q3520.02 292.197 3522.03 290.23 Q3524.04 288.239 3528.42 288.239 L3532.45 288.239 Z" fill="#000000" fill-rule="evenodd" fill-opacity="1" /><path clip-path="url(#clip030)" d="M3547.79 311.225 Q3542.63 311.225 3540.64 312.405 Q3538.65 313.586 3538.65 316.433 Q3538.65 318.702 3540.13 320.044 Q3541.64 321.364 3544.21 321.364 Q3547.75 321.364 3549.88 318.864 Q3552.03 316.341 3552.03 312.174 L3552.03 311.225 L3547.79 311.225 M3556.29 309.466 L3556.29 324.257 L3552.03 324.257 L3552.03 320.322 Q3550.57 322.683 3548.4 323.817 Q3546.22 324.928 3543.07 324.928 Q3539.09 324.928 3536.73 322.706 Q3534.39 320.461 3534.39 316.711 Q3534.39 312.336 3537.31 310.114 Q3540.25 307.892 3546.06 307.892 L3552.03 307.892 L3552.03 307.475 Q3552.03 304.535 3550.09 302.938 Q3548.16 301.317 3544.67 301.317 Q3542.45 301.317 3540.34 301.85 Q3538.23 302.382 3536.29 303.447 L3536.29 299.512 Q3538.63 298.609 3540.83 298.169 Q3543.03 297.706 3545.11 297.706 Q3550.73 297.706 3553.51 300.623 Q3556.29 303.54 3556.29 309.466 Z" fill="#000000" fill-rule="evenodd" fill-opacity="1" /><path clip-path="url(#clip030)" d="M3583.72 299.327 L3583.72 303.308 Q3581.91 302.313 3580.09 301.827 Q3578.28 301.317 3576.43 301.317 Q3572.28 301.317 3569.99 303.956 Q3567.7 306.572 3567.7 311.317 Q3567.7 316.063 3569.99 318.702 Q3572.28 321.317 3576.43 321.317 Q3578.28 321.317 3580.09 320.831 Q3581.91 320.322 3583.72 319.327 L3583.72 323.262 Q3581.94 324.095 3580.02 324.512 Q3578.12 324.928 3575.97 324.928 Q3570.11 324.928 3566.66 321.248 Q3563.21 317.567 3563.21 311.317 Q3563.21 304.975 3566.68 301.341 Q3570.18 297.706 3576.24 297.706 Q3578.21 297.706 3580.09 298.123 Q3581.96 298.517 3583.72 299.327 Z" fill="#000000" fill-rule="evenodd" fill-opacity="1" /><path clip-path="url(#clip030)" d="M3613.3 310.229 L3613.3 312.313 L3593.72 312.313 Q3594 316.711 3596.36 319.026 Q3598.74 321.317 3602.98 321.317 Q3605.43 321.317 3607.72 320.716 Q3610.04 320.114 3612.31 318.91 L3612.31 322.938 Q3610.02 323.91 3607.61 324.419 Q3605.2 324.928 3602.72 324.928 Q3596.52 324.928 3592.89 321.317 Q3589.28 317.706 3589.28 311.549 Q3589.28 305.183 3592.7 301.456 Q3596.15 297.706 3601.98 297.706 Q3607.22 297.706 3610.25 301.086 Q3613.3 304.442 3613.3 310.229 M3609.04 308.979 Q3609 305.484 3607.08 303.401 Q3605.18 301.317 3602.03 301.317 Q3598.47 301.317 3596.31 303.331 Q3594.18 305.345 3593.86 309.003 L3609.04 308.979 Z" fill="#000000" fill-rule="evenodd" fill-opacity="1" /><path clip-path="url(#clip030)" d="M3636.82 299.095 L3636.82 303.123 Q3635.02 302.197 3633.07 301.734 Q3631.13 301.271 3629.04 301.271 Q3625.87 301.271 3624.28 302.243 Q3622.7 303.216 3622.7 305.16 Q3622.7 306.642 3623.84 307.498 Q3624.97 308.331 3628.4 309.095 L3629.85 309.419 Q3634.39 310.392 3636.29 312.174 Q3638.21 313.933 3638.21 317.104 Q3638.21 320.716 3635.34 322.822 Q3632.49 324.928 3627.49 324.928 Q3625.41 324.928 3623.14 324.512 Q3620.9 324.118 3618.4 323.308 L3618.4 318.91 Q3620.76 320.137 3623.05 320.762 Q3625.34 321.364 3627.59 321.364 Q3630.59 321.364 3632.21 320.345 Q3633.84 319.303 3633.84 317.429 Q3633.84 315.692 3632.65 314.766 Q3631.5 313.841 3627.54 312.984 L3626.06 312.637 Q3622.1 311.804 3620.34 310.091 Q3618.58 308.354 3618.58 305.345 Q3618.58 301.688 3621.17 299.697 Q3623.77 297.706 3628.53 297.706 Q3630.9 297.706 3632.98 298.054 Q3635.06 298.401 3636.82 299.095 Z" fill="#000000" fill-rule="evenodd" fill-opacity="1" /></svg>
