<?xml version="1.0" encoding="utf-8"?>
<svg xmlns="http://www.w3.org/2000/svg" xmlns:xlink="http://www.w3.org/1999/xlink" width="1000" height="400" viewBox="0 0 4000 1600">
<defs>
  <clipPath id="clip890">
    <rect x="0" y="0" width="4000" height="1600"/>
  </clipPath>
</defs>
<path clip-path="url(#clip890)" d="
M0 1600 L4000 1600 L4000 0 L0 0  Z
  " fill="#ffffff" fill-rule="evenodd" fill-opacity="1"/>
<defs>
  <clipPath id="clip891">
    <rect x="800" y="0" width="2801" height="1600"/>
  </clipPath>
</defs>
<path clip-path="url(#clip890)" d="
M235.429 1393.02 L3889.76 1393.02 L3889.76 162.272 L235.429 162.272  Z
  " fill="#ffffff" fill-rule="evenodd" fill-opacity="1"/>
<defs>
  <clipPath id="clip892">
    <rect x="235" y="162" width="3655" height="1232"/>
  </clipPath>
</defs>
<polyline clip-path="url(#clip892)" style="stroke:#000000; stroke-linecap:butt; stroke-linejoin:round; stroke-width:2; stroke-opacity:0.1; fill:none" points="
  912.188,1393.02 912.188,162.272 
  "/>
<polyline clip-path="url(#clip892)" style="stroke:#000000; stroke-linecap:butt; stroke-linejoin:round; stroke-width:2; stroke-opacity:0.1; fill:none" points="
  1823.46,1393.02 1823.46,162.272 
  "/>
<polyline clip-path="url(#clip892)" style="stroke:#000000; stroke-linecap:butt; stroke-linejoin:round; stroke-width:2; stroke-opacity:0.1; fill:none" points="
  2734.73,1393.02 2734.73,162.272 
  "/>
<polyline clip-path="url(#clip892)" style="stroke:#000000; stroke-linecap:butt; stroke-linejoin:round; stroke-width:2; stroke-opacity:0.1; fill:none" points="
  3646,1393.02 3646,162.272 
  "/>
<polyline clip-path="url(#clip890)" style="stroke:#000000; stroke-linecap:butt; stroke-linejoin:round; stroke-width:4; stroke-opacity:1; fill:none" points="
  235.429,1393.02 3889.76,1393.02 
  "/>
<polyline clip-path="url(#clip890)" style="stroke:#000000; stroke-linecap:butt; stroke-linejoin:round; stroke-width:4; stroke-opacity:1; fill:none" points="
  912.188,1393.02 912.188,1374.12 
  "/>
<polyline clip-path="url(#clip890)" style="stroke:#000000; stroke-linecap:butt; stroke-linejoin:round; stroke-width:4; stroke-opacity:1; fill:none" points="
  1823.46,1393.02 1823.46,1374.12 
  "/>
<polyline clip-path="url(#clip890)" style="stroke:#000000; stroke-linecap:butt; stroke-linejoin:round; stroke-width:4; stroke-opacity:1; fill:none" points="
  2734.73,1393.02 2734.73,1374.12 
  "/>
<polyline clip-path="url(#clip890)" style="stroke:#000000; stroke-linecap:butt; stroke-linejoin:round; stroke-width:4; stroke-opacity:1; fill:none" points="
  3646,1393.02 3646,1374.12 
  "/>
<path clip-path="url(#clip890)" d="M885.545 1433.66 L907.767 1433.66 L907.767 1435.65 L895.22 1468.22 L890.336 1468.22 L902.142 1437.59 L885.545 1437.59 L885.545 1433.66 Z" fill="#000000" fill-rule="evenodd" fill-opacity="1" /><path clip-path="url(#clip890)" d="M926.887 1436.74 Q923.276 1436.74 921.447 1440.3 Q919.642 1443.84 919.642 1450.97 Q919.642 1458.08 921.447 1461.65 Q923.276 1465.19 926.887 1465.19 Q930.521 1465.19 932.327 1461.65 Q934.155 1458.08 934.155 1450.97 Q934.155 1443.84 932.327 1440.3 Q930.521 1436.74 926.887 1436.74 M926.887 1433.03 Q932.697 1433.03 935.753 1437.64 Q938.831 1442.22 938.831 1450.97 Q938.831 1459.7 935.753 1464.31 Q932.697 1468.89 926.887 1468.89 Q921.077 1468.89 917.998 1464.31 Q914.942 1459.7 914.942 1450.97 Q914.942 1442.22 917.998 1437.64 Q921.077 1433.03 926.887 1433.03 Z" fill="#000000" fill-rule="evenodd" fill-opacity="1" /><path clip-path="url(#clip890)" d="M1808.33 1451.81 Q1805 1451.81 1803.08 1453.59 Q1801.18 1455.37 1801.18 1458.5 Q1801.18 1461.62 1803.08 1463.4 Q1805 1465.19 1808.33 1465.19 Q1811.67 1465.19 1813.59 1463.4 Q1815.51 1461.6 1815.51 1458.5 Q1815.51 1455.37 1813.59 1453.59 Q1811.69 1451.81 1808.33 1451.81 M1803.66 1449.82 Q1800.65 1449.08 1798.96 1447.02 Q1797.29 1444.96 1797.29 1441.99 Q1797.29 1437.85 1800.23 1435.44 Q1803.19 1433.03 1808.33 1433.03 Q1813.49 1433.03 1816.43 1435.44 Q1819.37 1437.85 1819.37 1441.99 Q1819.37 1444.96 1817.68 1447.02 Q1816.02 1449.08 1813.03 1449.82 Q1816.41 1450.6 1818.29 1452.9 Q1820.18 1455.19 1820.18 1458.5 Q1820.18 1463.52 1817.11 1466.21 Q1814.05 1468.89 1808.33 1468.89 Q1802.61 1468.89 1799.54 1466.21 Q1796.48 1463.52 1796.48 1458.5 Q1796.48 1455.19 1798.38 1452.9 Q1800.28 1450.6 1803.66 1449.82 M1801.94 1442.43 Q1801.94 1445.12 1803.61 1446.62 Q1805.3 1448.13 1808.33 1448.13 Q1811.34 1448.13 1813.03 1446.62 Q1814.74 1445.12 1814.74 1442.43 Q1814.74 1439.75 1813.03 1438.24 Q1811.34 1436.74 1808.33 1436.74 Q1805.3 1436.74 1803.61 1438.24 Q1801.94 1439.75 1801.94 1442.43 Z" fill="#000000" fill-rule="evenodd" fill-opacity="1" /><path clip-path="url(#clip890)" d="M1838.49 1436.74 Q1834.88 1436.74 1833.05 1440.3 Q1831.25 1443.84 1831.25 1450.97 Q1831.25 1458.08 1833.05 1461.65 Q1834.88 1465.19 1838.49 1465.19 Q1842.13 1465.19 1843.93 1461.65 Q1845.76 1458.08 1845.76 1450.97 Q1845.76 1443.84 1843.93 1440.3 Q1842.13 1436.74 1838.49 1436.74 M1838.49 1433.03 Q1844.3 1433.03 1847.36 1437.64 Q1850.44 1442.22 1850.44 1450.97 Q1850.44 1459.7 1847.36 1464.31 Q1844.3 1468.89 1838.49 1468.89 Q1832.68 1468.89 1829.61 1464.31 Q1826.55 1459.7 1826.55 1450.97 Q1826.55 1442.22 1829.61 1437.64 Q1832.68 1433.03 1838.49 1433.03 Z" fill="#000000" fill-rule="evenodd" fill-opacity="1" /><path clip-path="url(#clip890)" d="M2709.86 1467.5 L2709.86 1463.24 Q2711.62 1464.08 2713.42 1464.52 Q2715.23 1464.96 2716.97 1464.96 Q2721.6 1464.96 2724.03 1461.85 Q2726.48 1458.73 2726.83 1452.39 Q2725.48 1454.38 2723.42 1455.44 Q2721.36 1456.51 2718.86 1456.51 Q2713.68 1456.51 2710.65 1453.38 Q2707.64 1450.23 2707.64 1444.79 Q2707.64 1439.47 2710.78 1436.25 Q2713.93 1433.03 2719.16 1433.03 Q2725.16 1433.03 2728.31 1437.64 Q2731.48 1442.22 2731.48 1450.97 Q2731.48 1459.15 2727.59 1464.03 Q2723.72 1468.89 2717.17 1468.89 Q2715.41 1468.89 2713.61 1468.54 Q2711.8 1468.2 2709.86 1467.5 M2719.16 1452.85 Q2722.31 1452.85 2724.14 1450.7 Q2725.99 1448.54 2725.99 1444.79 Q2725.99 1441.07 2724.14 1438.91 Q2722.31 1436.74 2719.16 1436.74 Q2716.02 1436.74 2714.16 1438.91 Q2712.34 1441.07 2712.34 1444.79 Q2712.34 1448.54 2714.16 1450.7 Q2716.02 1452.85 2719.16 1452.85 Z" fill="#000000" fill-rule="evenodd" fill-opacity="1" /><path clip-path="url(#clip890)" d="M2749.88 1436.74 Q2746.27 1436.74 2744.44 1440.3 Q2742.64 1443.84 2742.64 1450.97 Q2742.64 1458.08 2744.44 1461.65 Q2746.27 1465.19 2749.88 1465.19 Q2753.52 1465.19 2755.32 1461.65 Q2757.15 1458.08 2757.15 1450.97 Q2757.15 1443.84 2755.32 1440.3 Q2753.52 1436.74 2749.88 1436.74 M2749.88 1433.03 Q2755.69 1433.03 2758.75 1437.64 Q2761.83 1442.22 2761.83 1450.97 Q2761.83 1459.7 2758.75 1464.31 Q2755.69 1468.89 2749.88 1468.89 Q2744.07 1468.89 2740.99 1464.31 Q2737.94 1459.7 2737.94 1450.97 Q2737.94 1442.22 2740.99 1437.64 Q2744.07 1433.03 2749.88 1433.03 Z" fill="#000000" fill-rule="evenodd" fill-opacity="1" /><path clip-path="url(#clip890)" d="M3605.61 1464.28 L3613.25 1464.28 L3613.25 1437.92 L3604.94 1439.59 L3604.94 1435.33 L3613.2 1433.66 L3617.88 1433.66 L3617.88 1464.28 L3625.52 1464.28 L3625.52 1468.22 L3605.61 1468.22 L3605.61 1464.28 Z" fill="#000000" fill-rule="evenodd" fill-opacity="1" /><path clip-path="url(#clip890)" d="M3644.96 1436.74 Q3641.35 1436.74 3639.52 1440.3 Q3637.72 1443.84 3637.72 1450.97 Q3637.72 1458.08 3639.52 1461.65 Q3641.35 1465.19 3644.96 1465.19 Q3648.6 1465.19 3650.4 1461.65 Q3652.23 1458.08 3652.23 1450.97 Q3652.23 1443.84 3650.4 1440.3 Q3648.6 1436.74 3644.96 1436.74 M3644.96 1433.03 Q3650.77 1433.03 3653.83 1437.64 Q3656.91 1442.22 3656.91 1450.97 Q3656.91 1459.7 3653.83 1464.31 Q3650.77 1468.89 3644.96 1468.89 Q3639.15 1468.89 3636.07 1464.31 Q3633.02 1459.7 3633.02 1450.97 Q3633.02 1442.22 3636.07 1437.64 Q3639.15 1433.03 3644.96 1433.03 Z" fill="#000000" fill-rule="evenodd" fill-opacity="1" /><path clip-path="url(#clip890)" d="M3675.12 1436.74 Q3671.51 1436.74 3669.68 1440.3 Q3667.88 1443.84 3667.88 1450.97 Q3667.88 1458.08 3669.68 1461.65 Q3671.51 1465.19 3675.12 1465.19 Q3678.76 1465.19 3680.56 1461.65 Q3682.39 1458.08 3682.39 1450.97 Q3682.39 1443.84 3680.56 1440.3 Q3678.76 1436.74 3675.12 1436.74 M3675.12 1433.03 Q3680.93 1433.03 3683.99 1437.64 Q3687.07 1442.22 3687.07 1450.97 Q3687.07 1459.7 3683.99 1464.31 Q3680.93 1468.89 3675.12 1468.89 Q3669.31 1468.89 3666.23 1464.31 Q3663.18 1459.7 3663.18 1450.97 Q3663.18 1442.22 3666.23 1437.64 Q3669.31 1433.03 3675.12 1433.03 Z" fill="#000000" fill-rule="evenodd" fill-opacity="1" /><path clip-path="url(#clip890)" d="M1960.73 1556.54 L1960.73 1575.44 L1954.84 1575.44 L1954.84 1526.24 L1960.73 1526.24 L1960.73 1531.65 Q1962.58 1528.46 1965.38 1526.94 Q1968.21 1525.38 1972.12 1525.38 Q1978.62 1525.38 1982.66 1530.53 Q1986.73 1535.69 1986.73 1544.09 Q1986.73 1552.49 1982.66 1557.65 Q1978.62 1562.81 1972.12 1562.81 Q1968.21 1562.81 1965.38 1561.28 Q1962.58 1559.72 1960.73 1556.54 M1980.65 1544.09 Q1980.65 1537.63 1977.98 1533.97 Q1975.34 1530.28 1970.69 1530.28 Q1966.04 1530.28 1963.37 1533.97 Q1960.73 1537.63 1960.73 1544.09 Q1960.73 1550.55 1963.37 1554.24 Q1966.04 1557.91 1970.69 1557.91 Q1975.34 1557.91 1977.98 1554.24 Q1980.65 1550.55 1980.65 1544.09 Z" fill="#000000" fill-rule="evenodd" fill-opacity="1" /><path clip-path="url(#clip890)" d="M2031.23 1512.42 Q2026.96 1519.74 2024.9 1526.9 Q2022.83 1534.07 2022.83 1541.42 Q2022.83 1548.77 2024.9 1556 Q2027 1563.19 2031.23 1570.48 L2026.14 1570.48 Q2021.36 1563 2018.98 1555.77 Q2016.62 1548.55 2016.62 1541.42 Q2016.62 1534.32 2018.98 1527.13 Q2021.33 1519.93 2026.14 1512.42 L2031.23 1512.42 Z" fill="#000000" fill-rule="evenodd" fill-opacity="1" /><path clip-path="url(#clip890)" d="M2042.37 1512.36 L2048.26 1512.36 L2048.26 1541.61 L2065.73 1526.24 L2073.21 1526.24 L2054.31 1542.91 L2074.01 1561.88 L2066.37 1561.88 L2048.26 1544.47 L2048.26 1561.88 L2042.37 1561.88 L2042.37 1512.36 Z" fill="#000000" fill-rule="evenodd" fill-opacity="1" /><path clip-path="url(#clip890)" d="M2087.02 1519.65 L2087.02 1537.5 L2095.11 1537.5 Q2099.6 1537.5 2102.05 1535.18 Q2104.5 1532.86 2104.5 1528.56 Q2104.5 1524.29 2102.05 1521.97 Q2099.6 1519.65 2095.11 1519.65 L2087.02 1519.65 M2080.6 1514.36 L2095.11 1514.36 Q2103.1 1514.36 2107.17 1517.99 Q2111.28 1521.59 2111.28 1528.56 Q2111.28 1535.59 2107.17 1539.19 Q2103.1 1542.79 2095.11 1542.79 L2087.02 1542.79 L2087.02 1561.88 L2080.6 1561.88 L2080.6 1514.36 Z" fill="#000000" fill-rule="evenodd" fill-opacity="1" /><path clip-path="url(#clip890)" d="M2132.92 1543.96 Q2125.82 1543.96 2123.09 1545.59 Q2120.35 1547.21 2120.35 1551.13 Q2120.35 1554.24 2122.39 1556.09 Q2124.46 1557.91 2127.99 1557.91 Q2132.86 1557.91 2135.79 1554.47 Q2138.75 1551 2138.75 1545.27 L2138.75 1543.96 L2132.92 1543.96 M2144.6 1541.55 L2144.6 1561.88 L2138.75 1561.88 L2138.75 1556.47 Q2136.74 1559.72 2133.75 1561.28 Q2130.76 1562.81 2126.43 1562.81 Q2120.95 1562.81 2117.71 1559.75 Q2114.49 1556.66 2114.49 1551.51 Q2114.49 1545.49 2118.5 1542.44 Q2122.55 1539.38 2130.53 1539.38 L2138.75 1539.38 L2138.75 1538.81 Q2138.75 1534.77 2136.07 1532.57 Q2133.43 1530.34 2128.62 1530.34 Q2125.57 1530.34 2122.67 1531.07 Q2119.78 1531.81 2117.1 1533.27 L2117.1 1527.86 Q2120.32 1526.62 2123.34 1526.01 Q2126.37 1525.38 2129.23 1525.38 Q2136.96 1525.38 2140.78 1529.39 Q2144.6 1533.4 2144.6 1541.55 Z" fill="#000000" fill-rule="evenodd" fill-opacity="1" /><path clip-path="url(#clip890)" d="M2155.74 1512.42 L2160.84 1512.42 Q2165.61 1519.93 2167.96 1527.13 Q2170.35 1534.32 2170.35 1541.42 Q2170.35 1548.55 2167.96 1555.77 Q2165.61 1563 2160.84 1570.48 L2155.74 1570.48 Q2159.98 1563.19 2162.04 1556 Q2164.15 1548.77 2164.15 1541.42 Q2164.15 1534.07 2162.04 1526.9 Q2159.98 1519.74 2155.74 1512.42 Z" fill="#000000" fill-rule="evenodd" fill-opacity="1" /><polyline clip-path="url(#clip892)" style="stroke:#000000; stroke-linecap:butt; stroke-linejoin:round; stroke-width:2; stroke-opacity:0.1; fill:none" points="
  235.429,1358.19 3889.76,1358.19 
  "/>
<polyline clip-path="url(#clip892)" style="stroke:#000000; stroke-linecap:butt; stroke-linejoin:round; stroke-width:2; stroke-opacity:0.1; fill:none" points="
  235.429,1067.92 3889.76,1067.92 
  "/>
<polyline clip-path="url(#clip892)" style="stroke:#000000; stroke-linecap:butt; stroke-linejoin:round; stroke-width:2; stroke-opacity:0.1; fill:none" points="
  235.429,777.646 3889.76,777.646 
  "/>
<polyline clip-path="url(#clip892)" style="stroke:#000000; stroke-linecap:butt; stroke-linejoin:round; stroke-width:2; stroke-opacity:0.1; fill:none" points="
  235.429,487.375 3889.76,487.375 
  "/>
<polyline clip-path="url(#clip892)" style="stroke:#000000; stroke-linecap:butt; stroke-linejoin:round; stroke-width:2; stroke-opacity:0.1; fill:none" points="
  235.429,197.105 3889.76,197.105 
  "/>
<polyline clip-path="url(#clip890)" style="stroke:#000000; stroke-linecap:butt; stroke-linejoin:round; stroke-width:4; stroke-opacity:1; fill:none" points="
  235.429,1393.02 235.429,162.272 
  "/>
<polyline clip-path="url(#clip890)" style="stroke:#000000; stroke-linecap:butt; stroke-linejoin:round; stroke-width:4; stroke-opacity:1; fill:none" points="
  235.429,1358.19 254.327,1358.19 
  "/>
<polyline clip-path="url(#clip890)" style="stroke:#000000; stroke-linecap:butt; stroke-linejoin:round; stroke-width:4; stroke-opacity:1; fill:none" points="
  235.429,1067.92 254.327,1067.92 
  "/>
<polyline clip-path="url(#clip890)" style="stroke:#000000; stroke-linecap:butt; stroke-linejoin:round; stroke-width:4; stroke-opacity:1; fill:none" points="
  235.429,777.646 254.327,777.646 
  "/>
<polyline clip-path="url(#clip890)" style="stroke:#000000; stroke-linecap:butt; stroke-linejoin:round; stroke-width:4; stroke-opacity:1; fill:none" points="
  235.429,487.375 254.327,487.375 
  "/>
<polyline clip-path="url(#clip890)" style="stroke:#000000; stroke-linecap:butt; stroke-linejoin:round; stroke-width:4; stroke-opacity:1; fill:none" points="
  235.429,197.105 254.327,197.105 
  "/>
<path clip-path="url(#clip890)" d="M163.485 1343.99 Q159.874 1343.99 158.045 1347.55 Q156.24 1351.09 156.24 1358.22 Q156.24 1365.33 158.045 1368.89 Q159.874 1372.43 163.485 1372.43 Q167.119 1372.43 168.925 1368.89 Q170.753 1365.33 170.753 1358.22 Q170.753 1351.09 168.925 1347.55 Q167.119 1343.99 163.485 1343.99 M163.485 1340.28 Q169.295 1340.28 172.351 1344.89 Q175.429 1349.47 175.429 1358.22 Q175.429 1366.95 172.351 1371.56 Q169.295 1376.14 163.485 1376.14 Q157.675 1376.14 154.596 1371.56 Q151.541 1366.95 151.541 1358.22 Q151.541 1349.47 154.596 1344.89 Q157.675 1340.28 163.485 1340.28 Z" fill="#000000" fill-rule="evenodd" fill-opacity="1" /><path clip-path="url(#clip890)" d="M155.522 1081.26 L163.161 1081.26 L163.161 1054.9 L154.851 1056.56 L154.851 1052.3 L163.115 1050.64 L167.79 1050.64 L167.79 1081.26 L175.429 1081.26 L175.429 1085.2 L155.522 1085.2 L155.522 1081.26 Z" fill="#000000" fill-rule="evenodd" fill-opacity="1" /><path clip-path="url(#clip890)" d="M159.11 790.991 L175.429 790.991 L175.429 794.926 L153.485 794.926 L153.485 790.991 Q156.147 788.236 160.73 783.607 Q165.337 778.954 166.517 777.611 Q168.763 775.088 169.642 773.352 Q170.545 771.593 170.545 769.903 Q170.545 767.148 168.601 765.412 Q166.679 763.676 163.578 763.676 Q161.378 763.676 158.925 764.44 Q156.494 765.204 153.716 766.755 L153.716 762.033 Q156.541 760.898 158.994 760.32 Q161.448 759.741 163.485 759.741 Q168.855 759.741 172.05 762.426 Q175.244 765.111 175.244 769.602 Q175.244 771.732 174.434 773.653 Q173.647 775.551 171.54 778.144 Q170.962 778.815 167.86 782.033 Q164.758 785.227 159.11 790.991 Z" fill="#000000" fill-rule="evenodd" fill-opacity="1" /><path clip-path="url(#clip890)" d="M168.3 486.021 Q171.656 486.739 173.531 489.007 Q175.429 491.276 175.429 494.609 Q175.429 499.725 171.911 502.526 Q168.392 505.327 161.911 505.327 Q159.735 505.327 157.42 504.887 Q155.129 504.47 152.675 503.614 L152.675 499.1 Q154.619 500.234 156.934 500.813 Q159.249 501.391 161.772 501.391 Q166.17 501.391 168.462 499.655 Q170.777 497.919 170.777 494.609 Q170.777 491.554 168.624 489.841 Q166.494 488.105 162.675 488.105 L158.647 488.105 L158.647 484.262 L162.86 484.262 Q166.309 484.262 168.138 482.896 Q169.966 481.507 169.966 478.915 Q169.966 476.253 168.068 474.841 Q166.193 473.406 162.675 473.406 Q160.753 473.406 158.554 473.822 Q156.355 474.239 153.716 475.118 L153.716 470.952 Q156.379 470.211 158.693 469.841 Q161.031 469.47 163.091 469.47 Q168.415 469.47 171.517 471.901 Q174.619 474.308 174.619 478.429 Q174.619 481.299 172.976 483.29 Q171.332 485.257 168.3 486.021 Z" fill="#000000" fill-rule="evenodd" fill-opacity="1" /><path clip-path="url(#clip890)" d="M165.846 183.899 L154.041 202.348 L165.846 202.348 L165.846 183.899 M164.619 179.825 L170.499 179.825 L170.499 202.348 L175.429 202.348 L175.429 206.237 L170.499 206.237 L170.499 214.385 L165.846 214.385 L165.846 206.237 L150.244 206.237 L150.244 201.723 L164.619 179.825 Z" fill="#000000" fill-rule="evenodd" fill-opacity="1" /><path clip-path="url(#clip890)" d="M40.3403 876.171 L40.3403 848.353 L45.6875 848.353 L71.3095 870.378 L71.3095 848.353 L75.9883 848.353 L75.9883 876.967 L70.6411 876.967 L45.0191 854.942 L45.0191 876.171 L40.3403 876.171 Z" fill="#000000" fill-rule="evenodd" fill-opacity="1" /><path clip-path="url(#clip890)" d="M26.5267 804.621 Q33.8473 808.886 41.0087 810.955 Q48.1701 813.023 55.5225 813.023 Q62.8749 813.023 70.1 810.955 Q77.2933 808.854 84.582 804.621 L84.582 809.713 Q77.1023 814.488 69.8772 816.875 Q62.6521 819.23 55.5225 819.23 Q48.4248 819.23 41.2315 816.875 Q34.0383 814.519 26.5267 809.713 L26.5267 804.621 Z" fill="#000000" fill-rule="evenodd" fill-opacity="1" /><path clip-path="url(#clip890)" d="M26.4631 793.481 L26.4631 787.592 L55.7135 787.592 L40.3403 770.119 L40.3403 762.639 L57.0185 781.545 L75.9883 761.843 L75.9883 769.482 L58.5781 787.592 L75.9883 787.592 L75.9883 793.481 L26.4631 793.481 Z" fill="#000000" fill-rule="evenodd" fill-opacity="1" /><path clip-path="url(#clip890)" d="M47.1835 727.755 Q43.2367 725.559 41.3588 722.503 Q39.481 719.448 39.481 715.31 Q39.481 709.74 43.3959 706.716 Q47.2789 703.692 54.4722 703.692 L75.9883 703.692 L75.9883 709.581 L54.6632 709.581 Q49.5388 709.581 47.0561 711.395 Q44.5735 713.209 44.5735 716.933 Q44.5735 721.485 47.5972 724.126 Q50.6209 726.768 55.8408 726.768 L75.9883 726.768 L75.9883 732.656 L54.6632 732.656 Q49.5069 732.656 47.0561 734.471 Q44.5735 736.285 44.5735 740.072 Q44.5735 744.56 47.6291 747.202 Q50.6528 749.844 55.8408 749.844 L75.9883 749.844 L75.9883 755.732 L40.3403 755.732 L40.3403 749.844 L45.8785 749.844 Q42.6002 747.839 41.0406 745.038 Q39.481 742.237 39.481 738.385 Q39.481 734.502 41.4543 731.797 Q43.4277 729.06 47.1835 727.755 Z" fill="#000000" fill-rule="evenodd" fill-opacity="1" /><path clip-path="url(#clip890)" d="M26.5267 692.934 L26.5267 687.842 Q34.0383 683.067 41.2315 680.712 Q48.4248 678.325 55.5225 678.325 Q62.6521 678.325 69.8772 680.712 Q77.1023 683.067 84.582 687.842 L84.582 692.934 Q77.2933 688.701 70.1 686.632 Q62.8749 684.532 55.5225 684.532 Q48.1701 684.532 41.0087 686.632 Q33.8473 688.701 26.5267 692.934 Z" fill="#000000" fill-rule="evenodd" fill-opacity="1" /><path clip-path="url(#clip890)" d="M1932.95 65.7705 L1932.95 89.8329 L1925.45 89.8329 L1925.45 27.2059 L1932.95 27.2059 L1932.95 34.0924 Q1935.3 30.0415 1938.86 28.0971 Q1942.47 26.1121 1947.45 26.1121 Q1955.71 26.1121 1960.86 32.6746 Q1966.04 39.2371 1966.04 49.9314 Q1966.04 60.6258 1960.86 67.1883 Q1955.71 73.7508 1947.45 73.7508 Q1942.47 73.7508 1938.86 71.8063 Q1935.3 69.8214 1932.95 65.7705 M1958.31 49.9314 Q1958.31 41.7081 1954.9 37.0496 Q1951.54 32.3505 1945.63 32.3505 Q1939.71 32.3505 1936.31 37.0496 Q1932.95 41.7081 1932.95 49.9314 Q1932.95 58.1548 1936.31 62.8538 Q1939.71 67.5124 1945.63 67.5124 Q1951.54 67.5124 1954.9 62.8538 Q1958.31 58.1548 1958.31 49.9314 Z" fill="#000000" fill-rule="evenodd" fill-opacity="1" /><path clip-path="url(#clip890)" d="M2022.67 9.62495 Q2017.25 18.942 2014.61 28.0566 Q2011.98 37.1711 2011.98 46.5287 Q2011.98 55.8863 2014.61 65.0818 Q2017.29 74.2369 2022.67 83.5134 L2016.19 83.5134 Q2010.12 73.9938 2007.08 64.7983 Q2004.08 55.6027 2004.08 46.5287 Q2004.08 37.4952 2007.08 28.3401 Q2010.08 19.1851 2016.19 9.62495 L2022.67 9.62495 Z" fill="#000000" fill-rule="evenodd" fill-opacity="1" /><path clip-path="url(#clip890)" d="M2036.85 9.54393 L2044.35 9.54393 L2044.35 46.7717 L2066.59 27.2059 L2076.11 27.2059 L2052.04 48.4326 L2077.12 72.576 L2067.4 72.576 L2044.35 50.4176 L2044.35 72.576 L2036.85 72.576 L2036.85 9.54393 Z" fill="#000000" fill-rule="evenodd" fill-opacity="1" /><path clip-path="url(#clip890)" d="M2093.69 18.8205 L2093.69 41.5461 L2103.98 41.5461 Q2109.69 41.5461 2112.81 38.5889 Q2115.93 35.6318 2115.93 30.163 Q2115.93 24.7348 2112.81 21.7777 Q2109.69 18.8205 2103.98 18.8205 L2093.69 18.8205 M2085.5 12.096 L2103.98 12.096 Q2114.14 12.096 2119.33 16.714 Q2124.56 21.2916 2124.56 30.163 Q2124.56 39.1155 2119.33 43.6931 Q2114.14 48.2706 2103.98 48.2706 L2093.69 48.2706 L2093.69 72.576 L2085.5 72.576 L2085.5 12.096 Z" fill="#000000" fill-rule="evenodd" fill-opacity="1" /><path clip-path="url(#clip890)" d="M2152.1 49.7694 Q2143.07 49.7694 2139.58 51.8354 Q2136.1 53.9013 2136.1 58.8839 Q2136.1 62.8538 2138.69 65.2034 Q2141.33 67.5124 2145.82 67.5124 Q2152.02 67.5124 2155.75 63.1374 Q2159.51 58.7219 2159.51 51.4303 L2159.51 49.7694 L2152.1 49.7694 M2166.97 46.6907 L2166.97 72.576 L2159.51 72.576 L2159.51 65.6895 Q2156.96 69.8214 2153.15 71.8063 Q2149.35 73.7508 2143.84 73.7508 Q2136.87 73.7508 2132.74 69.8619 Q2128.65 65.9325 2128.65 59.3701 Q2128.65 51.7138 2133.75 47.825 Q2138.9 43.9361 2149.06 43.9361 L2159.51 43.9361 L2159.51 43.2069 Q2159.51 38.0623 2156.11 35.2672 Q2152.75 32.4315 2146.63 32.4315 Q2142.74 32.4315 2139.06 33.3632 Q2135.37 34.295 2131.97 36.1584 L2131.97 29.2718 Q2136.06 27.692 2139.91 26.9223 Q2143.76 26.1121 2147.4 26.1121 Q2157.25 26.1121 2162.11 31.2163 Q2166.97 36.3204 2166.97 46.6907 Z" fill="#000000" fill-rule="evenodd" fill-opacity="1" /><path clip-path="url(#clip890)" d="M2181.15 9.62495 L2187.63 9.62495 Q2193.7 19.1851 2196.7 28.3401 Q2199.74 37.4952 2199.74 46.5287 Q2199.74 55.6027 2196.7 64.7983 Q2193.7 73.9938 2187.63 83.5134 L2181.15 83.5134 Q2186.53 74.2369 2189.17 65.0818 Q2191.84 55.8863 2191.84 46.5287 Q2191.84 37.1711 2189.17 28.0566 Q2186.53 18.942 2181.15 9.62495 Z" fill="#000000" fill-rule="evenodd" fill-opacity="1" /><polyline clip-path="url(#clip892)" style="stroke:#009af9; stroke-linecap:butt; stroke-linejoin:round; stroke-width:4; stroke-opacity:1; fill:none" points="
  3760.33,1350.93 3708.51,1336.42 3656.93,1321.9 3605.6,1307.39 3554.52,1292.88 3503.68,1278.36 3453.09,1263.85 3402.74,1249.34 3352.63,1234.82 3302.76,1220.31 
  3253.13,1205.8 3203.75,1191.28 3154.6,1176.77 3105.68,1162.25 3057.01,1147.74 3008.57,1133.23 2960.36,1118.71 2912.39,1104.2 2864.65,1089.69 2817.14,1075.17 
  2769.86,1060.66 2722.81,1046.15 2675.99,1031.63 2629.4,1017.12 2583.04,1002.61 2536.9,988.092 2490.99,973.579 2445.3,959.065 2399.83,944.552 2354.59,930.038 
  2309.57,915.525 2264.76,901.011 2220.18,886.497 2175.82,871.984 2131.67,857.47 2087.74,842.957 2044.03,828.443 2000.53,813.93 1957.25,799.416 1914.18,784.903 
  1871.32,770.389 1828.67,755.876 1786.24,741.362 1744.01,726.849 1702,712.335 1660.19,697.822 1618.58,683.308 1577.19,668.794 1536,654.281 1495.01,639.767 
  1454.23,625.254 1413.65,610.74 1373.27,596.227 1333.1,581.713 1293.12,567.2 1253.35,552.686 1213.77,538.173 1174.39,523.659 1135.21,509.146 1096.22,494.632 
  1057.43,480.119 1018.83,465.605 980.429,451.092 942.219,436.578 904.2,422.064 866.372,407.551 828.735,393.037 791.288,378.524 754.029,364.01 716.957,349.497 
  680.073,334.983 643.376,320.47 606.864,305.956 570.536,291.443 534.392,276.929 498.432,262.416 462.653,247.902 427.057,233.389 391.641,218.875 356.405,204.361 
  
  "/>
<polyline clip-path="url(#clip892)" style="stroke:#e26f46; stroke-linecap:butt; stroke-linejoin:round; stroke-width:4; stroke-opacity:1; fill:none" points="
  3786.34,1358.19 3734.39,1343.67 3682.69,1329.16 3631.24,1314.65 3580.03,1300.13 3529.07,1285.62 3478.35,1271.11 3427.88,1256.59 3377.65,1242.08 3327.66,1227.57 
  3277.92,1213.05 3228.41,1198.54 3179.14,1184.02 3130.11,1169.51 3081.32,1155 3032.76,1140.48 2984.43,1125.97 2936.35,1111.46 2888.49,1096.94 2840.86,1082.43 
  2793.47,1067.92 2746.31,1053.4 2699.38,1038.89 2652.67,1024.38 2606.19,1009.86 2559.94,995.349 2513.92,980.835 2468.11,966.322 2422.54,951.808 2377.18,937.295 
  2332.05,922.781 2287.14,908.268 2242.45,893.754 2197.97,879.241 2153.72,864.727 2109.68,850.214 2065.86,835.7 2022.25,821.187 1978.86,806.673 1935.69,792.16 
  1892.72,777.646 1849.97,763.132 1807.43,748.619 1765.1,734.105 1722.98,719.592 1681.06,705.078 1639.36,690.565 1597.86,676.051 1556.57,661.538 1515.48,647.024 
  1474.6,632.511 1433.92,617.997 1393.44,603.484 1353.16,588.97 1313.09,574.457 1273.21,559.943 1233.53,545.429 1194.06,530.916 1154.77,516.402 1115.69,501.889 
  1076.8,487.375 1038.11,472.862 999.607,458.348 961.3,443.835 923.185,429.321 885.262,414.808 847.53,400.294 809.988,385.781 772.635,371.267 735.47,356.754 
  698.492,342.24 661.701,327.727 625.097,313.213 588.677,298.699 552.441,284.186 516.389,269.672 480.52,255.159 444.832,240.645 409.326,226.132 374,211.618 
  338.854,197.105 
  "/>
<path clip-path="url(#clip890)" d="
M3189.62 358.817 L3767.95 358.817 L3767.95 203.297 L3189.62 203.297  Z
  " fill="#ffffff" fill-rule="evenodd" fill-opacity="1"/>
<polyline clip-path="url(#clip890)" style="stroke:#000000; stroke-linecap:butt; stroke-linejoin:round; stroke-width:4; stroke-opacity:1; fill:none" points="
  3189.62,358.817 3767.95,358.817 3767.95,203.297 3189.62,203.297 3189.62,358.817 
  "/>
<polyline clip-path="url(#clip890)" style="stroke:#009af9; stroke-linecap:butt; stroke-linejoin:round; stroke-width:4; stroke-opacity:1; fill:none" points="
  3230.23,255.137 3473.85,255.137 
  "/>
<path clip-path="url(#clip890)" d="M3534.96 247.487 L3534.96 251.468 Q3533.16 250.473 3531.33 249.987 Q3529.52 249.477 3527.67 249.477 Q3523.53 249.477 3521.24 252.116 Q3518.95 254.732 3518.95 259.477 Q3518.95 264.223 3521.24 266.862 Q3523.53 269.477 3527.67 269.477 Q3529.52 269.477 3531.33 268.991 Q3533.16 268.482 3534.96 267.487 L3534.96 271.422 Q3533.18 272.255 3531.26 272.672 Q3529.36 273.088 3527.21 273.088 Q3521.35 273.088 3517.9 269.408 Q3514.45 265.727 3514.45 259.477 Q3514.45 253.135 3517.93 249.501 Q3521.42 245.866 3527.49 245.866 Q3529.45 245.866 3531.33 246.283 Q3533.2 246.677 3534.96 247.487 Z" fill="#000000" fill-rule="evenodd" fill-opacity="1" /><path clip-path="url(#clip890)" d="M3564.55 258.389 L3564.55 260.473 L3544.96 260.473 Q3545.24 264.871 3547.6 267.186 Q3549.99 269.477 3554.22 269.477 Q3556.68 269.477 3558.97 268.876 Q3561.28 268.274 3563.55 267.07 L3563.55 271.098 Q3561.26 272.07 3558.85 272.579 Q3556.44 273.088 3553.97 273.088 Q3547.76 273.088 3544.13 269.477 Q3540.52 265.866 3540.52 259.709 Q3540.52 253.343 3543.95 249.616 Q3547.39 245.866 3553.23 245.866 Q3558.46 245.866 3561.49 249.246 Q3564.55 252.602 3564.55 258.389 M3560.29 257.139 Q3560.24 253.644 3558.32 251.561 Q3556.42 249.477 3553.27 249.477 Q3549.71 249.477 3547.56 251.491 Q3545.43 253.505 3545.1 257.163 L3560.29 257.139 Z" fill="#000000" fill-rule="evenodd" fill-opacity="1" /><path clip-path="url(#clip890)" d="M3593.09 256.769 L3593.09 272.417 L3588.83 272.417 L3588.83 256.908 Q3588.83 253.227 3587.39 251.399 Q3585.96 249.57 3583.09 249.57 Q3579.64 249.57 3577.65 251.769 Q3575.66 253.968 3575.66 257.764 L3575.66 272.417 L3571.38 272.417 L3571.38 246.491 L3575.66 246.491 L3575.66 250.519 Q3577.19 248.181 3579.25 247.024 Q3581.33 245.866 3584.04 245.866 Q3588.5 245.866 3590.8 248.644 Q3593.09 251.399 3593.09 256.769 Z" fill="#000000" fill-rule="evenodd" fill-opacity="1" /><path clip-path="url(#clip890)" d="M3605.8 239.13 L3605.8 246.491 L3614.57 246.491 L3614.57 249.802 L3605.8 249.802 L3605.8 263.876 Q3605.8 267.047 3606.65 267.95 Q3607.53 268.852 3610.19 268.852 L3614.57 268.852 L3614.57 272.417 L3610.19 272.417 Q3605.26 272.417 3603.39 270.588 Q3601.51 268.737 3601.51 263.876 L3601.51 249.802 L3598.39 249.802 L3598.39 246.491 L3601.51 246.491 L3601.51 239.13 L3605.8 239.13 Z" fill="#000000" fill-rule="evenodd" fill-opacity="1" /><path clip-path="url(#clip890)" d="M3642.35 258.389 L3642.35 260.473 L3622.76 260.473 Q3623.04 264.871 3625.4 267.186 Q3627.79 269.477 3632.02 269.477 Q3634.48 269.477 3636.77 268.876 Q3639.08 268.274 3641.35 267.07 L3641.35 271.098 Q3639.06 272.07 3636.65 272.579 Q3634.25 273.088 3631.77 273.088 Q3625.56 273.088 3621.93 269.477 Q3618.32 265.866 3618.32 259.709 Q3618.32 253.343 3621.75 249.616 Q3625.19 245.866 3631.03 245.866 Q3636.26 245.866 3639.29 249.246 Q3642.35 252.602 3642.35 258.389 M3638.09 257.139 Q3638.04 253.644 3636.12 251.561 Q3634.22 249.477 3631.07 249.477 Q3627.51 249.477 3625.36 251.491 Q3623.23 253.505 3622.9 257.163 L3638.09 257.139 Z" fill="#000000" fill-rule="evenodd" fill-opacity="1" /><path clip-path="url(#clip890)" d="M3664.36 250.473 Q3663.64 250.056 3662.79 249.871 Q3661.95 249.663 3660.94 249.663 Q3657.32 249.663 3655.38 252.024 Q3653.46 254.362 3653.46 258.76 L3653.46 272.417 L3649.18 272.417 L3649.18 246.491 L3653.46 246.491 L3653.46 250.519 Q3654.8 248.158 3656.95 247.024 Q3659.11 245.866 3662.19 245.866 Q3662.62 245.866 3663.16 245.936 Q3663.69 245.982 3664.34 246.098 L3664.36 250.473 Z" fill="#000000" fill-rule="evenodd" fill-opacity="1" /><path clip-path="url(#clip890)" d="M3685.36 247.255 L3685.36 251.283 Q3683.55 250.357 3681.61 249.894 Q3679.66 249.431 3677.58 249.431 Q3674.41 249.431 3672.81 250.403 Q3671.24 251.376 3671.24 253.32 Q3671.24 254.802 3672.37 255.658 Q3673.5 256.491 3676.93 257.255 L3678.39 257.579 Q3682.93 258.552 3684.82 260.334 Q3686.75 262.093 3686.75 265.264 Q3686.75 268.876 3683.87 270.982 Q3681.03 273.088 3676.03 273.088 Q3673.94 273.088 3671.68 272.672 Q3669.43 272.278 3666.93 271.468 L3666.93 267.07 Q3669.29 268.297 3671.58 268.922 Q3673.87 269.524 3676.12 269.524 Q3679.13 269.524 3680.75 268.505 Q3682.37 267.463 3682.37 265.589 Q3682.37 263.852 3681.19 262.926 Q3680.03 262.001 3676.07 261.144 L3674.59 260.797 Q3670.63 259.964 3668.87 258.251 Q3667.12 256.514 3667.12 253.505 Q3667.12 249.848 3669.71 247.857 Q3672.3 245.866 3677.07 245.866 Q3679.43 245.866 3681.51 246.214 Q3683.6 246.561 3685.36 247.255 Z" fill="#000000" fill-rule="evenodd" fill-opacity="1" /><polyline clip-path="url(#clip890)" style="stroke:#e26f46; stroke-linecap:butt; stroke-linejoin:round; stroke-width:4; stroke-opacity:1; fill:none" points="
  3230.23,306.977 3473.85,306.977 
  "/>
<path clip-path="url(#clip890)" d="M3530.96 288.239 L3530.96 291.78 L3526.88 291.78 Q3524.59 291.78 3523.69 292.706 Q3522.81 293.632 3522.81 296.04 L3522.81 298.331 L3529.82 298.331 L3529.82 301.642 L3522.81 301.642 L3522.81 324.257 L3518.53 324.257 L3518.53 301.642 L3514.45 301.642 L3514.45 298.331 L3518.53 298.331 L3518.53 296.526 Q3518.53 292.197 3520.54 290.23 Q3522.56 288.239 3526.93 288.239 L3530.96 288.239 Z" fill="#000000" fill-rule="evenodd" fill-opacity="1" /><path clip-path="url(#clip890)" d="M3546.31 311.225 Q3541.14 311.225 3539.15 312.405 Q3537.16 313.586 3537.16 316.433 Q3537.16 318.702 3538.64 320.044 Q3540.15 321.364 3542.72 321.364 Q3546.26 321.364 3548.39 318.864 Q3550.54 316.341 3550.54 312.174 L3550.54 311.225 L3546.31 311.225 M3554.8 309.466 L3554.8 324.257 L3550.54 324.257 L3550.54 320.322 Q3549.08 322.683 3546.91 323.817 Q3544.73 324.928 3541.58 324.928 Q3537.6 324.928 3535.24 322.706 Q3532.9 320.461 3532.9 316.711 Q3532.9 312.336 3535.82 310.114 Q3538.76 307.892 3544.57 307.892 L3550.54 307.892 L3550.54 307.475 Q3550.54 304.535 3548.6 302.938 Q3546.68 301.317 3543.18 301.317 Q3540.96 301.317 3538.85 301.85 Q3536.75 302.382 3534.8 303.447 L3534.8 299.512 Q3537.14 298.609 3539.34 298.169 Q3541.54 297.706 3543.62 297.706 Q3549.25 297.706 3552.02 300.623 Q3554.8 303.54 3554.8 309.466 Z" fill="#000000" fill-rule="evenodd" fill-opacity="1" /><path clip-path="url(#clip890)" d="M3582.23 299.327 L3582.23 303.308 Q3580.43 302.313 3578.6 301.827 Q3576.79 301.317 3574.94 301.317 Q3570.8 301.317 3568.51 303.956 Q3566.21 306.572 3566.21 311.317 Q3566.21 316.063 3568.51 318.702 Q3570.8 321.317 3574.94 321.317 Q3576.79 321.317 3578.6 320.831 Q3580.43 320.322 3582.23 319.327 L3582.23 323.262 Q3580.45 324.095 3578.53 324.512 Q3576.63 324.928 3574.48 324.928 Q3568.62 324.928 3565.17 321.248 Q3561.72 317.567 3561.72 311.317 Q3561.72 304.975 3565.19 301.341 Q3568.69 297.706 3574.76 297.706 Q3576.72 297.706 3578.6 298.123 Q3580.47 298.517 3582.23 299.327 Z" fill="#000000" fill-rule="evenodd" fill-opacity="1" /><path clip-path="url(#clip890)" d="M3611.82 310.229 L3611.82 312.313 L3592.23 312.313 Q3592.51 316.711 3594.87 319.026 Q3597.25 321.317 3601.49 321.317 Q3603.94 321.317 3606.24 320.716 Q3608.55 320.114 3610.82 318.91 L3610.82 322.938 Q3608.53 323.91 3606.12 324.419 Q3603.71 324.928 3601.24 324.928 Q3595.03 324.928 3591.4 321.317 Q3587.79 317.706 3587.79 311.549 Q3587.79 305.183 3591.21 301.456 Q3594.66 297.706 3600.5 297.706 Q3605.73 297.706 3608.76 301.086 Q3611.82 304.442 3611.82 310.229 M3607.56 308.979 Q3607.51 305.484 3605.59 303.401 Q3603.69 301.317 3600.54 301.317 Q3596.98 301.317 3594.82 303.331 Q3592.69 305.345 3592.37 309.003 L3607.56 308.979 Z" fill="#000000" fill-rule="evenodd" fill-opacity="1" /><path clip-path="url(#clip890)" d="M3635.33 299.095 L3635.33 303.123 Q3633.53 302.197 3631.58 301.734 Q3629.64 301.271 3627.56 301.271 Q3624.38 301.271 3622.79 302.243 Q3621.21 303.216 3621.21 305.16 Q3621.21 306.642 3622.35 307.498 Q3623.48 308.331 3626.91 309.095 L3628.37 309.419 Q3632.9 310.392 3634.8 312.174 Q3636.72 313.933 3636.72 317.104 Q3636.72 320.716 3633.85 322.822 Q3631 324.928 3626 324.928 Q3623.92 324.928 3621.65 324.512 Q3619.41 324.118 3616.91 323.308 L3616.91 318.91 Q3619.27 320.137 3621.56 320.762 Q3623.85 321.364 3626.1 321.364 Q3629.11 321.364 3630.73 320.345 Q3632.35 319.303 3632.35 317.429 Q3632.35 315.692 3631.17 314.766 Q3630.01 313.841 3626.05 312.984 L3624.57 312.637 Q3620.61 311.804 3618.85 310.091 Q3617.09 308.354 3617.09 305.345 Q3617.09 301.688 3619.69 299.697 Q3622.28 297.706 3627.05 297.706 Q3629.41 297.706 3631.49 298.054 Q3633.57 298.401 3635.33 299.095 Z" fill="#000000" fill-rule="evenodd" fill-opacity="1" /></svg>
