<?xml version="1.0" encoding="utf-8"?>
<svg xmlns="http://www.w3.org/2000/svg" xmlns:xlink="http://www.w3.org/1999/xlink" width="1000" height="400" viewBox="0 0 4000 1600">
<defs>
  <clipPath id="clip620">
    <rect x="0" y="0" width="4000" height="1600"/>
  </clipPath>
</defs>
<path clip-path="url(#clip620)" d="M0 1600 L4000 1600 L4000 0 L0 0  Z" fill="#ffffff" fill-rule="evenodd" fill-opacity="1"/>
<defs>
  <clipPath id="clip621">
    <rect x="800" y="0" width="2801" height="1600"/>
  </clipPath>
</defs>
<path clip-path="url(#clip620)" d="M234.133 1393.02 L1889.76 1393.02 L1889.76 162.272 L234.133 162.272  Z" fill="#ffffff" fill-rule="evenodd" fill-opacity="1"/>
<defs>
  <clipPath id="clip622">
    <rect x="234" y="162" width="1657" height="1232"/>
  </clipPath>
</defs>
<polyline clip-path="url(#clip622)" style="stroke:#000000; stroke-linecap:round; stroke-linejoin:round; stroke-width:2; stroke-opacity:0.1; fill:none" points="381.221,1393.02 381.221,162.272 "/>
<polyline clip-path="url(#clip622)" style="stroke:#000000; stroke-linecap:round; stroke-linejoin:round; stroke-width:2; stroke-opacity:0.1; fill:none" points="618.577,1393.02 618.577,162.272 "/>
<polyline clip-path="url(#clip622)" style="stroke:#000000; stroke-linecap:round; stroke-linejoin:round; stroke-width:2; stroke-opacity:0.1; fill:none" points="855.933,1393.02 855.933,162.272 "/>
<polyline clip-path="url(#clip622)" style="stroke:#000000; stroke-linecap:round; stroke-linejoin:round; stroke-width:2; stroke-opacity:0.1; fill:none" points="1093.29,1393.02 1093.29,162.272 "/>
<polyline clip-path="url(#clip622)" style="stroke:#000000; stroke-linecap:round; stroke-linejoin:round; stroke-width:2; stroke-opacity:0.1; fill:none" points="1330.64,1393.02 1330.64,162.272 "/>
<polyline clip-path="url(#clip622)" style="stroke:#000000; stroke-linecap:round; stroke-linejoin:round; stroke-width:2; stroke-opacity:0.1; fill:none" points="1568,1393.02 1568,162.272 "/>
<polyline clip-path="url(#clip622)" style="stroke:#000000; stroke-linecap:round; stroke-linejoin:round; stroke-width:2; stroke-opacity:0.1; fill:none" points="1805.36,1393.02 1805.36,162.272 "/>
<polyline clip-path="url(#clip620)" style="stroke:#000000; stroke-linecap:round; stroke-linejoin:round; stroke-width:4; stroke-opacity:1; fill:none" points="234.133,1393.02 1889.76,1393.02 "/>
<polyline clip-path="url(#clip620)" style="stroke:#000000; stroke-linecap:round; stroke-linejoin:round; stroke-width:4; stroke-opacity:1; fill:none" points="381.221,1393.02 381.221,1374.12 "/>
<polyline clip-path="url(#clip620)" style="stroke:#000000; stroke-linecap:round; stroke-linejoin:round; stroke-width:4; stroke-opacity:1; fill:none" points="618.577,1393.02 618.577,1374.12 "/>
<polyline clip-path="url(#clip620)" style="stroke:#000000; stroke-linecap:round; stroke-linejoin:round; stroke-width:4; stroke-opacity:1; fill:none" points="855.933,1393.02 855.933,1374.12 "/>
<polyline clip-path="url(#clip620)" style="stroke:#000000; stroke-linecap:round; stroke-linejoin:round; stroke-width:4; stroke-opacity:1; fill:none" points="1093.29,1393.02 1093.29,1374.12 "/>
<polyline clip-path="url(#clip620)" style="stroke:#000000; stroke-linecap:round; stroke-linejoin:round; stroke-width:4; stroke-opacity:1; fill:none" points="1330.64,1393.02 1330.64,1374.12 "/>
<polyline clip-path="url(#clip620)" style="stroke:#000000; stroke-linecap:round; stroke-linejoin:round; stroke-width:4; stroke-opacity:1; fill:none" points="1568,1393.02 1568,1374.12 "/>
<polyline clip-path="url(#clip620)" style="stroke:#000000; stroke-linecap:round; stroke-linejoin:round; stroke-width:4; stroke-opacity:1; fill:none" points="1805.36,1393.02 1805.36,1374.12 "/>
<path clip-path="url(#clip620)" d="M344.022 1436.74 Q340.411 1436.74 338.582 1440.3 Q336.777 1443.84 336.777 1450.97 Q336.777 1458.08 338.582 1461.65 Q340.411 1465.19 344.022 1465.19 Q347.656 1465.19 349.462 1461.65 Q351.291 1458.08 351.291 1450.97 Q351.291 1443.84 349.462 1440.3 Q347.656 1436.74 344.022 1436.74 M344.022 1433.03 Q349.832 1433.03 352.888 1437.64 Q355.966 1442.22 355.966 1450.97 Q355.966 1459.7 352.888 1464.31 Q349.832 1468.89 344.022 1468.89 Q338.212 1468.89 335.133 1464.31 Q332.078 1459.7 332.078 1450.97 Q332.078 1442.22 335.133 1437.64 Q338.212 1433.03 344.022 1433.03 Z" fill="#000000" fill-rule="nonzero" fill-opacity="1" /><path clip-path="url(#clip620)" d="M364.184 1462.34 L369.068 1462.34 L369.068 1468.22 L364.184 1468.22 L364.184 1462.34 Z" fill="#000000" fill-rule="nonzero" fill-opacity="1" /><path clip-path="url(#clip620)" d="M389.253 1451.81 Q385.92 1451.81 383.999 1453.59 Q382.101 1455.37 382.101 1458.5 Q382.101 1461.62 383.999 1463.4 Q385.92 1465.19 389.253 1465.19 Q392.587 1465.19 394.508 1463.4 Q396.429 1461.6 396.429 1458.5 Q396.429 1455.37 394.508 1453.59 Q392.61 1451.81 389.253 1451.81 M384.577 1449.82 Q381.568 1449.08 379.878 1447.02 Q378.212 1444.96 378.212 1441.99 Q378.212 1437.85 381.152 1435.44 Q384.114 1433.03 389.253 1433.03 Q394.415 1433.03 397.355 1435.44 Q400.295 1437.85 400.295 1441.99 Q400.295 1444.96 398.605 1447.02 Q396.938 1449.08 393.952 1449.82 Q397.332 1450.6 399.207 1452.9 Q401.105 1455.19 401.105 1458.5 Q401.105 1463.52 398.026 1466.21 Q394.971 1468.89 389.253 1468.89 Q383.536 1468.89 380.457 1466.21 Q377.402 1463.52 377.402 1458.5 Q377.402 1455.19 379.3 1452.9 Q381.198 1450.6 384.577 1449.82 M382.864 1442.43 Q382.864 1445.12 384.531 1446.62 Q386.221 1448.13 389.253 1448.13 Q392.263 1448.13 393.952 1446.62 Q395.665 1445.12 395.665 1442.43 Q395.665 1439.75 393.952 1438.24 Q392.263 1436.74 389.253 1436.74 Q386.221 1436.74 384.531 1438.24 Q382.864 1439.75 382.864 1442.43 Z" fill="#000000" fill-rule="nonzero" fill-opacity="1" /><path clip-path="url(#clip620)" d="M409.462 1433.66 L427.818 1433.66 L427.818 1437.59 L413.744 1437.59 L413.744 1446.07 Q414.762 1445.72 415.781 1445.56 Q416.8 1445.37 417.818 1445.37 Q423.605 1445.37 426.985 1448.54 Q430.364 1451.72 430.364 1457.13 Q430.364 1462.71 426.892 1465.81 Q423.42 1468.89 417.1 1468.89 Q414.925 1468.89 412.656 1468.52 Q410.411 1468.15 408.003 1467.41 L408.003 1462.71 Q410.087 1463.84 412.309 1464.4 Q414.531 1464.96 417.008 1464.96 Q421.012 1464.96 423.35 1462.85 Q425.688 1460.74 425.688 1457.13 Q425.688 1453.52 423.35 1451.41 Q421.012 1449.31 417.008 1449.31 Q415.133 1449.31 413.258 1449.72 Q411.406 1450.14 409.462 1451.02 L409.462 1433.66 Z" fill="#000000" fill-rule="nonzero" fill-opacity="1" /><path clip-path="url(#clip620)" d="M580.88 1436.74 Q577.269 1436.74 575.441 1440.3 Q573.635 1443.84 573.635 1450.97 Q573.635 1458.08 575.441 1461.65 Q577.269 1465.19 580.88 1465.19 Q584.515 1465.19 586.32 1461.65 Q588.149 1458.08 588.149 1450.97 Q588.149 1443.84 586.32 1440.3 Q584.515 1436.74 580.88 1436.74 M580.88 1433.03 Q586.691 1433.03 589.746 1437.64 Q592.825 1442.22 592.825 1450.97 Q592.825 1459.7 589.746 1464.31 Q586.691 1468.89 580.88 1468.89 Q575.07 1468.89 571.992 1464.31 Q568.936 1459.7 568.936 1450.97 Q568.936 1442.22 571.992 1437.64 Q575.07 1433.03 580.88 1433.03 Z" fill="#000000" fill-rule="nonzero" fill-opacity="1" /><path clip-path="url(#clip620)" d="M601.042 1462.34 L605.927 1462.34 L605.927 1468.22 L601.042 1468.22 L601.042 1462.34 Z" fill="#000000" fill-rule="nonzero" fill-opacity="1" /><path clip-path="url(#clip620)" d="M616.251 1467.5 L616.251 1463.24 Q618.01 1464.08 619.815 1464.52 Q621.621 1464.96 623.357 1464.96 Q627.987 1464.96 630.417 1461.85 Q632.871 1458.73 633.218 1452.39 Q631.876 1454.38 629.815 1455.44 Q627.755 1456.51 625.255 1456.51 Q620.07 1456.51 617.038 1453.38 Q614.028 1450.23 614.028 1444.79 Q614.028 1439.47 617.177 1436.25 Q620.325 1433.03 625.556 1433.03 Q631.551 1433.03 634.7 1437.64 Q637.871 1442.22 637.871 1450.97 Q637.871 1459.15 633.982 1464.03 Q630.116 1468.89 623.565 1468.89 Q621.806 1468.89 620.001 1468.54 Q618.195 1468.2 616.251 1467.5 M625.556 1452.85 Q628.704 1452.85 630.533 1450.7 Q632.385 1448.54 632.385 1444.79 Q632.385 1441.07 630.533 1438.91 Q628.704 1436.74 625.556 1436.74 Q622.408 1436.74 620.556 1438.91 Q618.727 1441.07 618.727 1444.79 Q618.727 1448.54 620.556 1450.7 Q622.408 1452.85 625.556 1452.85 Z" fill="#000000" fill-rule="nonzero" fill-opacity="1" /><path clip-path="url(#clip620)" d="M656.274 1436.74 Q652.662 1436.74 650.834 1440.3 Q649.028 1443.84 649.028 1450.97 Q649.028 1458.08 650.834 1461.65 Q652.662 1465.19 656.274 1465.19 Q659.908 1465.19 661.713 1461.65 Q663.542 1458.08 663.542 1450.97 Q663.542 1443.84 661.713 1440.3 Q659.908 1436.74 656.274 1436.74 M656.274 1433.03 Q662.084 1433.03 665.139 1437.64 Q668.218 1442.22 668.218 1450.97 Q668.218 1459.7 665.139 1464.31 Q662.084 1468.89 656.274 1468.89 Q650.463 1468.89 647.385 1464.31 Q644.329 1459.7 644.329 1450.97 Q644.329 1442.22 647.385 1437.64 Q650.463 1433.03 656.274 1433.03 Z" fill="#000000" fill-rule="nonzero" fill-opacity="1" /><path clip-path="url(#clip620)" d="M818.734 1436.74 Q815.123 1436.74 813.294 1440.3 Q811.489 1443.84 811.489 1450.97 Q811.489 1458.08 813.294 1461.65 Q815.123 1465.19 818.734 1465.19 Q822.368 1465.19 824.174 1461.65 Q826.003 1458.08 826.003 1450.97 Q826.003 1443.84 824.174 1440.3 Q822.368 1436.74 818.734 1436.74 M818.734 1433.03 Q824.544 1433.03 827.6 1437.64 Q830.678 1442.22 830.678 1450.97 Q830.678 1459.7 827.6 1464.31 Q824.544 1468.89 818.734 1468.89 Q812.924 1468.89 809.845 1464.31 Q806.79 1459.7 806.79 1450.97 Q806.79 1442.22 809.845 1437.64 Q812.924 1433.03 818.734 1433.03 Z" fill="#000000" fill-rule="nonzero" fill-opacity="1" /><path clip-path="url(#clip620)" d="M838.896 1462.34 L843.78 1462.34 L843.78 1468.22 L838.896 1468.22 L838.896 1462.34 Z" fill="#000000" fill-rule="nonzero" fill-opacity="1" /><path clip-path="url(#clip620)" d="M854.104 1467.5 L854.104 1463.24 Q855.864 1464.08 857.669 1464.52 Q859.475 1464.96 861.211 1464.96 Q865.84 1464.96 868.271 1461.85 Q870.725 1458.73 871.072 1452.39 Q869.729 1454.38 867.669 1455.44 Q865.609 1456.51 863.109 1456.51 Q857.924 1456.51 854.891 1453.38 Q851.882 1450.23 851.882 1444.79 Q851.882 1439.47 855.03 1436.25 Q858.178 1433.03 863.41 1433.03 Q869.405 1433.03 872.553 1437.64 Q875.725 1442.22 875.725 1450.97 Q875.725 1459.15 871.836 1464.03 Q867.97 1468.89 861.419 1468.89 Q859.66 1468.89 857.854 1468.54 Q856.049 1468.2 854.104 1467.5 M863.41 1452.85 Q866.558 1452.85 868.387 1450.7 Q870.238 1448.54 870.238 1444.79 Q870.238 1441.07 868.387 1438.91 Q866.558 1436.74 863.41 1436.74 Q860.262 1436.74 858.41 1438.91 Q856.581 1441.07 856.581 1444.79 Q856.581 1448.54 858.41 1450.7 Q860.262 1452.85 863.41 1452.85 Z" fill="#000000" fill-rule="nonzero" fill-opacity="1" /><path clip-path="url(#clip620)" d="M884.174 1433.66 L902.53 1433.66 L902.53 1437.59 L888.456 1437.59 L888.456 1446.07 Q889.474 1445.72 890.493 1445.56 Q891.511 1445.37 892.53 1445.37 Q898.317 1445.37 901.697 1448.54 Q905.076 1451.72 905.076 1457.13 Q905.076 1462.71 901.604 1465.81 Q898.132 1468.89 891.812 1468.89 Q889.636 1468.89 887.368 1468.52 Q885.123 1468.15 882.715 1467.41 L882.715 1462.71 Q884.799 1463.84 887.021 1464.4 Q889.243 1464.96 891.72 1464.96 Q895.724 1464.96 898.062 1462.85 Q900.4 1460.74 900.4 1457.13 Q900.4 1453.52 898.062 1451.41 Q895.724 1449.31 891.72 1449.31 Q889.845 1449.31 887.97 1449.72 Q886.118 1450.14 884.174 1451.02 L884.174 1433.66 Z" fill="#000000" fill-rule="nonzero" fill-opacity="1" /><path clip-path="url(#clip620)" d="M1045.36 1464.28 L1053 1464.28 L1053 1437.92 L1044.69 1439.59 L1044.69 1435.33 L1052.95 1433.66 L1057.63 1433.66 L1057.63 1464.28 L1065.27 1464.28 L1065.27 1468.22 L1045.36 1468.22 L1045.36 1464.28 Z" fill="#000000" fill-rule="nonzero" fill-opacity="1" /><path clip-path="url(#clip620)" d="M1074.71 1462.34 L1079.6 1462.34 L1079.6 1468.22 L1074.71 1468.22 L1074.71 1462.34 Z" fill="#000000" fill-rule="nonzero" fill-opacity="1" /><path clip-path="url(#clip620)" d="M1099.78 1436.74 Q1096.17 1436.74 1094.34 1440.3 Q1092.54 1443.84 1092.54 1450.97 Q1092.54 1458.08 1094.34 1461.65 Q1096.17 1465.19 1099.78 1465.19 Q1103.42 1465.19 1105.22 1461.65 Q1107.05 1458.08 1107.05 1450.97 Q1107.05 1443.84 1105.22 1440.3 Q1103.42 1436.74 1099.78 1436.74 M1099.78 1433.03 Q1105.59 1433.03 1108.65 1437.64 Q1111.73 1442.22 1111.73 1450.97 Q1111.73 1459.7 1108.65 1464.31 Q1105.59 1468.89 1099.78 1468.89 Q1093.97 1468.89 1090.89 1464.31 Q1087.84 1459.7 1087.84 1450.97 Q1087.84 1442.22 1090.89 1437.64 Q1093.97 1433.03 1099.78 1433.03 Z" fill="#000000" fill-rule="nonzero" fill-opacity="1" /><path clip-path="url(#clip620)" d="M1129.94 1436.74 Q1126.33 1436.74 1124.5 1440.3 Q1122.7 1443.84 1122.7 1450.97 Q1122.7 1458.08 1124.5 1461.65 Q1126.33 1465.19 1129.94 1465.19 Q1133.58 1465.19 1135.38 1461.65 Q1137.21 1458.08 1137.21 1450.97 Q1137.21 1443.84 1135.38 1440.3 Q1133.58 1436.74 1129.94 1436.74 M1129.94 1433.03 Q1135.75 1433.03 1138.81 1437.64 Q1141.89 1442.22 1141.89 1450.97 Q1141.89 1459.7 1138.81 1464.31 Q1135.75 1468.89 1129.94 1468.89 Q1124.13 1468.89 1121.06 1464.31 Q1118 1459.7 1118 1450.97 Q1118 1442.22 1121.06 1437.64 Q1124.13 1433.03 1129.94 1433.03 Z" fill="#000000" fill-rule="nonzero" fill-opacity="1" /><path clip-path="url(#clip620)" d="M1283.21 1464.28 L1290.85 1464.28 L1290.85 1437.92 L1282.54 1439.59 L1282.54 1435.33 L1290.81 1433.66 L1295.48 1433.66 L1295.48 1464.28 L1303.12 1464.28 L1303.12 1468.22 L1283.21 1468.22 L1283.21 1464.28 Z" fill="#000000" fill-rule="nonzero" fill-opacity="1" /><path clip-path="url(#clip620)" d="M1312.57 1462.34 L1317.45 1462.34 L1317.45 1468.22 L1312.57 1468.22 L1312.57 1462.34 Z" fill="#000000" fill-rule="nonzero" fill-opacity="1" /><path clip-path="url(#clip620)" d="M1337.64 1436.74 Q1334.02 1436.74 1332.2 1440.3 Q1330.39 1443.84 1330.39 1450.97 Q1330.39 1458.08 1332.2 1461.65 Q1334.02 1465.19 1337.64 1465.19 Q1341.27 1465.19 1343.08 1461.65 Q1344.9 1458.08 1344.9 1450.97 Q1344.9 1443.84 1343.08 1440.3 Q1341.27 1436.74 1337.64 1436.74 M1337.64 1433.03 Q1343.45 1433.03 1346.5 1437.64 Q1349.58 1442.22 1349.58 1450.97 Q1349.58 1459.7 1346.5 1464.31 Q1343.45 1468.89 1337.64 1468.89 Q1331.83 1468.89 1328.75 1464.31 Q1325.69 1459.7 1325.69 1450.97 Q1325.69 1442.22 1328.75 1437.64 Q1331.83 1433.03 1337.64 1433.03 Z" fill="#000000" fill-rule="nonzero" fill-opacity="1" /><path clip-path="url(#clip620)" d="M1357.84 1433.66 L1376.2 1433.66 L1376.2 1437.59 L1362.13 1437.59 L1362.13 1446.07 Q1363.14 1445.72 1364.16 1445.56 Q1365.18 1445.37 1366.2 1445.37 Q1371.99 1445.37 1375.37 1448.54 Q1378.75 1451.72 1378.75 1457.13 Q1378.75 1462.71 1375.27 1465.81 Q1371.8 1468.89 1365.48 1468.89 Q1363.31 1468.89 1361.04 1468.52 Q1358.79 1468.15 1356.39 1467.41 L1356.39 1462.71 Q1358.47 1463.84 1360.69 1464.4 Q1362.91 1464.96 1365.39 1464.96 Q1369.39 1464.96 1371.73 1462.85 Q1374.07 1460.74 1374.07 1457.13 Q1374.07 1453.52 1371.73 1451.41 Q1369.39 1449.31 1365.39 1449.31 Q1363.52 1449.31 1361.64 1449.72 Q1359.79 1450.14 1357.84 1451.02 L1357.84 1433.66 Z" fill="#000000" fill-rule="nonzero" fill-opacity="1" /><path clip-path="url(#clip620)" d="M1520.07 1464.28 L1527.71 1464.28 L1527.71 1437.92 L1519.4 1439.59 L1519.4 1435.33 L1527.67 1433.66 L1532.34 1433.66 L1532.34 1464.28 L1539.98 1464.28 L1539.98 1468.22 L1520.07 1468.22 L1520.07 1464.28 Z" fill="#000000" fill-rule="nonzero" fill-opacity="1" /><path clip-path="url(#clip620)" d="M1549.42 1462.34 L1554.31 1462.34 L1554.31 1468.22 L1549.42 1468.22 L1549.42 1462.34 Z" fill="#000000" fill-rule="nonzero" fill-opacity="1" /><path clip-path="url(#clip620)" d="M1565.3 1464.28 L1572.94 1464.28 L1572.94 1437.92 L1564.63 1439.59 L1564.63 1435.33 L1572.9 1433.66 L1577.57 1433.66 L1577.57 1464.28 L1585.21 1464.28 L1585.21 1468.22 L1565.3 1468.22 L1565.3 1464.28 Z" fill="#000000" fill-rule="nonzero" fill-opacity="1" /><path clip-path="url(#clip620)" d="M1604.66 1436.74 Q1601.04 1436.74 1599.22 1440.3 Q1597.41 1443.84 1597.41 1450.97 Q1597.41 1458.08 1599.22 1461.65 Q1601.04 1465.19 1604.66 1465.19 Q1608.29 1465.19 1610.1 1461.65 Q1611.92 1458.08 1611.92 1450.97 Q1611.92 1443.84 1610.1 1440.3 Q1608.29 1436.74 1604.66 1436.74 M1604.66 1433.03 Q1610.47 1433.03 1613.52 1437.64 Q1616.6 1442.22 1616.6 1450.97 Q1616.6 1459.7 1613.52 1464.31 Q1610.47 1468.89 1604.66 1468.89 Q1598.85 1468.89 1595.77 1464.31 Q1592.71 1459.7 1592.71 1450.97 Q1592.71 1442.22 1595.77 1437.64 Q1598.85 1433.03 1604.66 1433.03 Z" fill="#000000" fill-rule="nonzero" fill-opacity="1" /><path clip-path="url(#clip620)" d="M1757.93 1464.28 L1765.57 1464.28 L1765.57 1437.92 L1757.26 1439.59 L1757.26 1435.33 L1765.52 1433.66 L1770.2 1433.66 L1770.2 1464.28 L1777.83 1464.28 L1777.83 1468.22 L1757.93 1468.22 L1757.93 1464.28 Z" fill="#000000" fill-rule="nonzero" fill-opacity="1" /><path clip-path="url(#clip620)" d="M1787.28 1462.34 L1792.16 1462.34 L1792.16 1468.22 L1787.28 1468.22 L1787.28 1462.34 Z" fill="#000000" fill-rule="nonzero" fill-opacity="1" /><path clip-path="url(#clip620)" d="M1803.16 1464.28 L1810.8 1464.28 L1810.8 1437.92 L1802.49 1439.59 L1802.49 1435.33 L1810.75 1433.66 L1815.43 1433.66 L1815.43 1464.28 L1823.07 1464.28 L1823.07 1468.22 L1803.16 1468.22 L1803.16 1464.28 Z" fill="#000000" fill-rule="nonzero" fill-opacity="1" /><path clip-path="url(#clip620)" d="M1832.56 1433.66 L1850.91 1433.66 L1850.91 1437.59 L1836.84 1437.59 L1836.84 1446.07 Q1837.86 1445.72 1838.88 1445.56 Q1839.89 1445.37 1840.91 1445.37 Q1846.7 1445.37 1850.08 1448.54 Q1853.46 1451.72 1853.46 1457.13 Q1853.46 1462.71 1849.99 1465.81 Q1846.51 1468.89 1840.19 1468.89 Q1838.02 1468.89 1835.75 1468.52 Q1833.5 1468.15 1831.1 1467.41 L1831.1 1462.71 Q1833.18 1463.84 1835.4 1464.4 Q1837.63 1464.96 1840.1 1464.96 Q1844.11 1464.96 1846.44 1462.85 Q1848.78 1460.74 1848.78 1457.13 Q1848.78 1453.52 1846.44 1451.41 Q1844.11 1449.31 1840.1 1449.31 Q1838.23 1449.31 1836.35 1449.72 Q1834.5 1450.14 1832.56 1451.02 L1832.56 1433.66 Z" fill="#000000" fill-rule="nonzero" fill-opacity="1" /><path clip-path="url(#clip620)" d="M1048.87 1532.6 Q1050.81 1529.35 1055.61 1526.49 Q1057.49 1525.38 1063.29 1525.38 Q1069.78 1525.38 1073.82 1530.53 Q1077.89 1535.69 1077.89 1544.09 Q1077.89 1552.49 1073.82 1557.65 Q1069.78 1562.81 1063.29 1562.81 Q1059.37 1562.81 1056.54 1561.28 Q1053.74 1559.72 1051.89 1556.54 L1051.89 1575.44 L1046 1575.44 L1046 1544.41 Q1046 1537.06 1048.87 1532.6 M1071.82 1544.09 Q1071.82 1537.63 1069.14 1533.97 Q1066.5 1530.28 1061.85 1530.28 Q1057.21 1530.28 1054.53 1533.97 Q1051.89 1537.63 1051.89 1544.09 Q1051.89 1550.55 1054.53 1554.24 Q1057.21 1557.91 1061.85 1557.91 Q1066.5 1557.91 1069.14 1554.24 Q1071.82 1550.55 1071.82 1544.09 Z" fill="#000000" fill-rule="nonzero" fill-opacity="1" /><polyline clip-path="url(#clip622)" style="stroke:#000000; stroke-linecap:round; stroke-linejoin:round; stroke-width:2; stroke-opacity:0.1; fill:none" points="234.133,1358.19 1889.76,1358.19 "/>
<polyline clip-path="url(#clip622)" style="stroke:#000000; stroke-linecap:round; stroke-linejoin:round; stroke-width:2; stroke-opacity:0.1; fill:none" points="234.133,1048.57 1889.76,1048.57 "/>
<polyline clip-path="url(#clip622)" style="stroke:#000000; stroke-linecap:round; stroke-linejoin:round; stroke-width:2; stroke-opacity:0.1; fill:none" points="234.133,738.943 1889.76,738.943 "/>
<polyline clip-path="url(#clip622)" style="stroke:#000000; stroke-linecap:round; stroke-linejoin:round; stroke-width:2; stroke-opacity:0.1; fill:none" points="234.133,429.321 1889.76,429.321 "/>
<polyline clip-path="url(#clip620)" style="stroke:#000000; stroke-linecap:round; stroke-linejoin:round; stroke-width:4; stroke-opacity:1; fill:none" points="234.133,1393.02 234.133,162.272 "/>
<polyline clip-path="url(#clip620)" style="stroke:#000000; stroke-linecap:round; stroke-linejoin:round; stroke-width:4; stroke-opacity:1; fill:none" points="234.133,1358.19 253.031,1358.19 "/>
<polyline clip-path="url(#clip620)" style="stroke:#000000; stroke-linecap:round; stroke-linejoin:round; stroke-width:4; stroke-opacity:1; fill:none" points="234.133,1048.57 253.031,1048.57 "/>
<polyline clip-path="url(#clip620)" style="stroke:#000000; stroke-linecap:round; stroke-linejoin:round; stroke-width:4; stroke-opacity:1; fill:none" points="234.133,738.943 253.031,738.943 "/>
<polyline clip-path="url(#clip620)" style="stroke:#000000; stroke-linecap:round; stroke-linejoin:round; stroke-width:4; stroke-opacity:1; fill:none" points="234.133,429.321 253.031,429.321 "/>
<path clip-path="url(#clip620)" d="M162.189 1343.99 Q158.578 1343.99 156.749 1347.55 Q154.943 1351.09 154.943 1358.22 Q154.943 1365.33 156.749 1368.89 Q158.578 1372.43 162.189 1372.43 Q165.823 1372.43 167.628 1368.89 Q169.457 1365.33 169.457 1358.22 Q169.457 1351.09 167.628 1347.55 Q165.823 1343.99 162.189 1343.99 M162.189 1340.28 Q167.999 1340.28 171.054 1344.89 Q174.133 1349.47 174.133 1358.22 Q174.133 1366.95 171.054 1371.56 Q167.999 1376.14 162.189 1376.14 Q156.379 1376.14 153.3 1371.56 Q150.244 1366.95 150.244 1358.22 Q150.244 1349.47 153.3 1344.89 Q156.379 1340.28 162.189 1340.28 Z" fill="#000000" fill-rule="nonzero" fill-opacity="1" /><path clip-path="url(#clip620)" d="M154.226 1061.91 L161.865 1061.91 L161.865 1035.54 L153.554 1037.21 L153.554 1032.95 L161.818 1031.29 L166.494 1031.29 L166.494 1061.91 L174.133 1061.91 L174.133 1065.85 L154.226 1065.85 L154.226 1061.91 Z" fill="#000000" fill-rule="nonzero" fill-opacity="1" /><path clip-path="url(#clip620)" d="M157.814 752.288 L174.133 752.288 L174.133 756.223 L152.189 756.223 L152.189 752.288 Q154.851 749.533 159.434 744.904 Q164.041 740.251 165.221 738.909 Q167.466 736.385 168.346 734.649 Q169.249 732.89 169.249 731.2 Q169.249 728.446 167.304 726.71 Q165.383 724.973 162.281 724.973 Q160.082 724.973 157.629 725.737 Q155.198 726.501 152.42 728.052 L152.42 723.33 Q155.244 722.196 157.698 721.617 Q160.152 721.038 162.189 721.038 Q167.559 721.038 170.753 723.723 Q173.948 726.409 173.948 730.899 Q173.948 733.029 173.138 734.95 Q172.351 736.848 170.244 739.441 Q169.665 740.112 166.564 743.33 Q163.462 746.524 157.814 752.288 Z" fill="#000000" fill-rule="nonzero" fill-opacity="1" /><path clip-path="url(#clip620)" d="M167.003 427.967 Q170.36 428.685 172.235 430.953 Q174.133 433.222 174.133 436.555 Q174.133 441.671 170.615 444.472 Q167.096 447.273 160.615 447.273 Q158.439 447.273 156.124 446.833 Q153.832 446.416 151.379 445.56 L151.379 441.046 Q153.323 442.18 155.638 442.759 Q157.953 443.337 160.476 443.337 Q164.874 443.337 167.165 441.601 Q169.48 439.865 169.48 436.555 Q169.48 433.499 167.328 431.786 Q165.198 430.05 161.378 430.05 L157.351 430.05 L157.351 426.208 L161.564 426.208 Q165.013 426.208 166.841 424.842 Q168.67 423.453 168.67 420.861 Q168.67 418.199 166.772 416.787 Q164.897 415.351 161.378 415.351 Q159.457 415.351 157.258 415.768 Q155.059 416.185 152.42 417.064 L152.42 412.898 Q155.082 412.157 157.397 411.787 Q159.735 411.416 161.795 411.416 Q167.119 411.416 170.221 413.847 Q173.323 416.254 173.323 420.375 Q173.323 423.245 171.679 425.236 Q170.036 427.203 167.003 427.967 Z" fill="#000000" fill-rule="nonzero" fill-opacity="1" /><path clip-path="url(#clip620)" d="M40.3403 876.171 L40.3403 848.353 L45.6875 848.353 L71.3095 870.378 L71.3095 848.353 L75.9883 848.353 L75.9883 876.967 L70.6411 876.967 L45.0191 854.942 L45.0191 876.171 L40.3403 876.171 Z" fill="#000000" fill-rule="nonzero" fill-opacity="1" /><path clip-path="url(#clip620)" d="M26.5267 804.621 Q33.8473 808.886 41.0087 810.955 Q48.1701 813.023 55.5225 813.023 Q62.8749 813.023 70.1 810.955 Q77.2933 808.854 84.582 804.621 L84.582 809.713 Q77.1023 814.488 69.8772 816.875 Q62.6521 819.23 55.5225 819.23 Q48.4248 819.23 41.2315 816.875 Q34.0383 814.519 26.5267 809.713 L26.5267 804.621 Z" fill="#000000" fill-rule="nonzero" fill-opacity="1" /><path clip-path="url(#clip620)" d="M26.4631 793.481 L26.4631 787.592 L55.7135 787.592 L40.3403 770.119 L40.3403 762.639 L57.0185 781.545 L75.9883 761.843 L75.9883 769.482 L58.5781 787.592 L75.9883 787.592 L75.9883 793.481 L26.4631 793.481 Z" fill="#000000" fill-rule="nonzero" fill-opacity="1" /><path clip-path="url(#clip620)" d="M47.1835 727.755 Q43.2367 725.559 41.3588 722.503 Q39.481 719.448 39.481 715.31 Q39.481 709.74 43.3959 706.716 Q47.2789 703.692 54.4722 703.692 L75.9883 703.692 L75.9883 709.581 L54.6632 709.581 Q49.5388 709.581 47.0561 711.395 Q44.5735 713.209 44.5735 716.933 Q44.5735 721.485 47.5972 724.126 Q50.6209 726.768 55.8408 726.768 L75.9883 726.768 L75.9883 732.656 L54.6632 732.656 Q49.5069 732.656 47.0561 734.471 Q44.5735 736.285 44.5735 740.072 Q44.5735 744.56 47.6291 747.202 Q50.6528 749.844 55.8408 749.844 L75.9883 749.844 L75.9883 755.732 L40.3403 755.732 L40.3403 749.844 L45.8785 749.844 Q42.6002 747.839 41.0406 745.038 Q39.481 742.237 39.481 738.385 Q39.481 734.502 41.4543 731.797 Q43.4277 729.06 47.1835 727.755 Z" fill="#000000" fill-rule="nonzero" fill-opacity="1" /><path clip-path="url(#clip620)" d="M26.5267 692.934 L26.5267 687.842 Q34.0383 683.067 41.2315 680.712 Q48.4248 678.325 55.5225 678.325 Q62.6521 678.325 69.8772 680.712 Q77.1023 683.067 84.582 687.842 L84.582 692.934 Q77.2933 688.701 70.1 686.632 Q62.8749 684.532 55.5225 684.532 Q48.1701 684.532 41.0087 686.632 Q33.8473 688.701 26.5267 692.934 Z" fill="#000000" fill-rule="nonzero" fill-opacity="1" /><path clip-path="url(#clip620)" d="M1045.3 35.3077 Q1047.77 31.1758 1053.89 27.5299 Q1056.28 26.1121 1063.65 26.1121 Q1071.91 26.1121 1077.06 32.6746 Q1082.24 39.2371 1082.24 49.9314 Q1082.24 60.6258 1077.06 67.1883 Q1071.91 73.7508 1063.65 73.7508 Q1058.67 73.7508 1055.06 71.8063 Q1051.5 69.8214 1049.15 65.7705 L1049.15 89.8329 L1041.65 89.8329 L1041.65 50.3365 Q1041.65 40.9789 1045.3 35.3077 M1074.51 49.9314 Q1074.51 41.7081 1071.1 37.0496 Q1067.74 32.3505 1061.83 32.3505 Q1055.91 32.3505 1052.51 37.0496 Q1049.15 41.7081 1049.15 49.9314 Q1049.15 58.1548 1052.51 62.8538 Q1055.91 67.5124 1061.83 67.5124 Q1067.74 67.5124 1071.1 62.8538 Q1074.51 58.1548 1074.51 49.9314 Z" fill="#000000" fill-rule="nonzero" fill-opacity="1" /><polyline clip-path="url(#clip622)" style="stroke:#009af9; stroke-linecap:round; stroke-linejoin:round; stroke-width:4; stroke-opacity:1; fill:none" points="1831.76,1350.45 1809.5,1334.97 1787.3,1319.48 1765.15,1304 1743.06,1288.52 1721.02,1273.04 1699.04,1257.56 1677.11,1242.08 1655.23,1226.6 1633.41,1211.12 1611.64,1195.64 1589.93,1180.15 1568.27,1164.67 1546.66,1149.19 1525.11,1133.71 1503.61,1118.23 1482.16,1102.75 1460.77,1087.27 1439.43,1071.79 1418.15,1056.31 1396.92,1040.82 1375.74,1025.34 1354.61,1009.86 1333.54,994.381 1312.53,978.9 1291.56,963.419 1270.65,947.938 1249.79,932.457 1228.99,916.976 1208.24,901.495 1187.54,886.014 1166.89,870.533 1146.3,855.051 1125.76,839.57 1105.27,824.089 1084.84,808.608 1064.46,793.127 1044.13,777.646 1023.85,762.165 1003.63,746.684 983.462,731.203 963.344,715.722 943.279,700.24 923.266,684.759 903.305,669.278 883.397,653.797 863.542,638.316 843.738,622.835 823.987,607.354 804.288,591.873 784.642,576.392 765.047,560.911 745.504,545.429 726.014,529.948 706.575,514.467 687.188,498.986 667.854,483.505 647.768,468.024 626.068,452.543 604.459,437.062 582.939,421.581 561.51,406.1 540.172,390.618 518.923,375.137 497.764,359.656 476.695,344.175 455.716,328.694 434.826,313.213 414.026,297.732 393.315,282.251 372.692,266.77 352.159,251.289 331.715,235.807 311.359,220.326 291.091,204.845 "/>
<polyline clip-path="url(#clip622)" style="stroke:#e26f46; stroke-linecap:round; stroke-linejoin:round; stroke-width:4; stroke-opacity:1; fill:none" points="1842.91,1358.19 1820.62,1342.71 1798.39,1327.23 1776.22,1311.74 1754.1,1296.26 1732.04,1280.78 1710.02,1265.3 1688.07,1249.82 1666.16,1234.34 1644.31,1218.86 1622.52,1203.38 1600.78,1187.9 1579.09,1172.41 1557.46,1156.93 1535.88,1141.45 1514.35,1125.97 1492.88,1110.49 1471.46,1095.01 1450.09,1079.53 1428.78,1064.05 1407.52,1048.57 1386.32,1033.08 1365.17,1017.6 1344.07,1002.12 1323.03,986.641 1302.04,971.16 1281.1,955.679 1260.21,940.198 1239.38,924.716 1218.61,909.235 1197.88,893.754 1177.21,878.273 1156.59,862.792 1136.02,847.311 1115.51,831.83 1095.05,816.349 1074.64,800.868 1054.29,785.387 1033.99,769.905 1013.74,754.424 993.54,738.943 973.396,723.462 953.305,707.981 933.266,692.5 913.279,677.019 893.345,661.538 873.463,646.057 853.634,630.576 833.856,615.094 814.131,599.613 794.459,584.132 774.838,568.651 755.269,553.17 735.753,537.689 716.288,522.208 696.875,506.727 677.514,491.246 658.206,475.765 636.907,460.283 615.252,444.802 593.688,429.321 572.214,413.84 550.83,398.359 529.536,382.878 508.332,367.397 487.219,351.916 466.195,336.435 445.26,320.954 424.415,305.472 403.659,289.991 382.992,274.51 362.415,259.029 341.926,243.548 321.526,228.067 301.214,212.586 280.991,197.105 "/>
<path clip-path="url(#clip620)" d="M1496.72 358.817 L1834.58 358.817 L1834.58 203.297 L1496.72 203.297  Z" fill="#ffffff" fill-rule="evenodd" fill-opacity="1"/>
<polyline clip-path="url(#clip620)" style="stroke:#000000; stroke-linecap:round; stroke-linejoin:round; stroke-width:4; stroke-opacity:1; fill:none" points="1496.72,358.817 1834.58,358.817 1834.58,203.297 1496.72,203.297 1496.72,358.817 "/>
<polyline clip-path="url(#clip620)" style="stroke:#009af9; stroke-linecap:round; stroke-linejoin:round; stroke-width:4; stroke-opacity:1; fill:none" points="1515.12,255.137 1625.49,255.137 "/>
<path clip-path="url(#clip620)" d="M1664.4 247.487 L1664.4 251.468 Q1662.59 250.473 1660.76 249.987 Q1658.96 249.477 1657.11 249.477 Q1652.96 249.477 1650.67 252.116 Q1648.38 254.732 1648.38 259.477 Q1648.38 264.223 1650.67 266.862 Q1652.96 269.477 1657.11 269.477 Q1658.96 269.477 1660.76 268.991 Q1662.59 268.482 1664.4 267.487 L1664.4 271.422 Q1662.62 272.255 1660.69 272.672 Q1658.8 273.088 1656.64 273.088 Q1650.79 273.088 1647.34 269.408 Q1643.89 265.727 1643.89 259.477 Q1643.89 253.135 1647.36 249.501 Q1650.86 245.866 1656.92 245.866 Q1658.89 245.866 1660.76 246.283 Q1662.64 246.677 1664.4 247.487 Z" fill="#000000" fill-rule="nonzero" fill-opacity="1" /><path clip-path="url(#clip620)" d="M1693.98 258.389 L1693.98 260.473 L1674.4 260.473 Q1674.68 264.871 1677.04 267.186 Q1679.42 269.477 1683.66 269.477 Q1686.11 269.477 1688.4 268.876 Q1690.72 268.274 1692.99 267.07 L1692.99 271.098 Q1690.69 272.07 1688.29 272.579 Q1685.88 273.088 1683.4 273.088 Q1677.2 273.088 1673.57 269.477 Q1669.95 265.866 1669.95 259.709 Q1669.95 253.343 1673.38 249.616 Q1676.83 245.866 1682.66 245.866 Q1687.89 245.866 1690.93 249.246 Q1693.98 252.602 1693.98 258.389 M1689.72 257.139 Q1689.68 253.644 1687.75 251.561 Q1685.86 249.477 1682.71 249.477 Q1679.14 249.477 1676.99 251.491 Q1674.86 253.505 1674.54 257.163 L1689.72 257.139 Z" fill="#000000" fill-rule="nonzero" fill-opacity="1" /><path clip-path="url(#clip620)" d="M1722.52 256.769 L1722.52 272.417 L1718.26 272.417 L1718.26 256.908 Q1718.26 253.227 1716.83 251.399 Q1715.39 249.57 1712.52 249.57 Q1709.07 249.57 1707.08 251.769 Q1705.09 253.968 1705.09 257.764 L1705.09 272.417 L1700.81 272.417 L1700.81 246.491 L1705.09 246.491 L1705.09 250.519 Q1706.62 248.181 1708.68 247.024 Q1710.76 245.866 1713.47 245.866 Q1717.94 245.866 1720.23 248.644 Q1722.52 251.399 1722.52 256.769 Z" fill="#000000" fill-rule="nonzero" fill-opacity="1" /><path clip-path="url(#clip620)" d="M1735.23 239.13 L1735.23 246.491 L1744 246.491 L1744 249.802 L1735.23 249.802 L1735.23 263.876 Q1735.23 267.047 1736.09 267.95 Q1736.97 268.852 1739.63 268.852 L1744 268.852 L1744 272.417 L1739.63 272.417 Q1734.7 272.417 1732.82 270.588 Q1730.95 268.737 1730.95 263.876 L1730.95 249.802 L1727.82 249.802 L1727.82 246.491 L1730.95 246.491 L1730.95 239.13 L1735.23 239.13 Z" fill="#000000" fill-rule="nonzero" fill-opacity="1" /><path clip-path="url(#clip620)" d="M1771.78 258.389 L1771.78 260.473 L1752.2 260.473 Q1752.48 264.871 1754.84 267.186 Q1757.22 269.477 1761.46 269.477 Q1763.91 269.477 1766.2 268.876 Q1768.52 268.274 1770.79 267.07 L1770.79 271.098 Q1768.5 272.07 1766.09 272.579 Q1763.68 273.088 1761.2 273.088 Q1755 273.088 1751.37 269.477 Q1747.75 265.866 1747.75 259.709 Q1747.75 253.343 1751.18 249.616 Q1754.63 245.866 1760.46 245.866 Q1765.69 245.866 1768.73 249.246 Q1771.78 252.602 1771.78 258.389 M1767.52 257.139 Q1767.48 253.644 1765.56 251.561 Q1763.66 249.477 1760.51 249.477 Q1756.94 249.477 1754.79 251.491 Q1752.66 253.505 1752.34 257.163 L1767.52 257.139 Z" fill="#000000" fill-rule="nonzero" fill-opacity="1" /><path clip-path="url(#clip620)" d="M1793.8 250.473 Q1793.08 250.056 1792.22 249.871 Q1791.39 249.663 1790.37 249.663 Q1786.76 249.663 1784.81 252.024 Q1782.89 254.362 1782.89 258.76 L1782.89 272.417 L1778.61 272.417 L1778.61 246.491 L1782.89 246.491 L1782.89 250.519 Q1784.24 248.158 1786.39 247.024 Q1788.54 245.866 1791.62 245.866 Q1792.06 245.866 1792.59 245.936 Q1793.12 245.982 1793.77 246.098 L1793.8 250.473 Z" fill="#000000" fill-rule="nonzero" fill-opacity="1" /><path clip-path="url(#clip620)" d="M1814.79 247.255 L1814.79 251.283 Q1812.99 250.357 1811.04 249.894 Q1809.1 249.431 1807.01 249.431 Q1803.84 249.431 1802.25 250.403 Q1800.67 251.376 1800.67 253.32 Q1800.67 254.802 1801.81 255.658 Q1802.94 256.491 1806.37 257.255 L1807.82 257.579 Q1812.36 258.552 1814.26 260.334 Q1816.18 262.093 1816.18 265.264 Q1816.18 268.876 1813.31 270.982 Q1810.46 273.088 1805.46 273.088 Q1803.38 273.088 1801.11 272.672 Q1798.87 272.278 1796.37 271.468 L1796.37 267.07 Q1798.73 268.297 1801.02 268.922 Q1803.31 269.524 1805.56 269.524 Q1808.56 269.524 1810.18 268.505 Q1811.81 267.463 1811.81 265.589 Q1811.81 263.852 1810.62 262.926 Q1809.47 262.001 1805.51 261.144 L1804.03 260.797 Q1800.07 259.964 1798.31 258.251 Q1796.55 256.514 1796.55 253.505 Q1796.55 249.848 1799.14 247.857 Q1801.74 245.866 1806.5 245.866 Q1808.87 245.866 1810.95 246.214 Q1813.03 246.561 1814.79 247.255 Z" fill="#000000" fill-rule="nonzero" fill-opacity="1" /><polyline clip-path="url(#clip620)" style="stroke:#e26f46; stroke-linecap:round; stroke-linejoin:round; stroke-width:4; stroke-opacity:1; fill:none" points="1515.12,306.977 1625.49,306.977 "/>
<path clip-path="url(#clip620)" d="M1660.39 288.239 L1660.39 291.78 L1656.32 291.78 Q1654.03 291.78 1653.13 292.706 Q1652.25 293.632 1652.25 296.04 L1652.25 298.331 L1659.26 298.331 L1659.26 301.642 L1652.25 301.642 L1652.25 324.257 L1647.96 324.257 L1647.96 301.642 L1643.89 301.642 L1643.89 298.331 L1647.96 298.331 L1647.96 296.526 Q1647.96 292.197 1649.98 290.23 Q1651.99 288.239 1656.37 288.239 L1660.39 288.239 Z" fill="#000000" fill-rule="nonzero" fill-opacity="1" /><path clip-path="url(#clip620)" d="M1675.74 311.225 Q1670.58 311.225 1668.59 312.405 Q1666.6 313.586 1666.6 316.433 Q1666.6 318.702 1668.08 320.044 Q1669.58 321.364 1672.15 321.364 Q1675.69 321.364 1677.82 318.864 Q1679.98 316.341 1679.98 312.174 L1679.98 311.225 L1675.74 311.225 M1684.24 309.466 L1684.24 324.257 L1679.98 324.257 L1679.98 320.322 Q1678.52 322.683 1676.34 323.817 Q1674.17 324.928 1671.02 324.928 Q1667.04 324.928 1664.68 322.706 Q1662.34 320.461 1662.34 316.711 Q1662.34 312.336 1665.26 310.114 Q1668.19 307.892 1674.01 307.892 L1679.98 307.892 L1679.98 307.475 Q1679.98 304.535 1678.03 302.938 Q1676.11 301.317 1672.62 301.317 Q1670.39 301.317 1668.29 301.85 Q1666.18 302.382 1664.24 303.447 L1664.24 299.512 Q1666.57 298.609 1668.77 298.169 Q1670.97 297.706 1673.06 297.706 Q1678.68 297.706 1681.46 300.623 Q1684.24 303.54 1684.24 309.466 Z" fill="#000000" fill-rule="nonzero" fill-opacity="1" /><path clip-path="url(#clip620)" d="M1711.67 299.327 L1711.67 303.308 Q1709.86 302.313 1708.03 301.827 Q1706.23 301.317 1704.38 301.317 Q1700.23 301.317 1697.94 303.956 Q1695.65 306.572 1695.65 311.317 Q1695.65 316.063 1697.94 318.702 Q1700.23 321.317 1704.38 321.317 Q1706.23 321.317 1708.03 320.831 Q1709.86 320.322 1711.67 319.327 L1711.67 323.262 Q1709.88 324.095 1707.96 324.512 Q1706.07 324.928 1703.91 324.928 Q1698.06 324.928 1694.61 321.248 Q1691.16 317.567 1691.16 311.317 Q1691.16 304.975 1694.63 301.341 Q1698.13 297.706 1704.19 297.706 Q1706.16 297.706 1708.03 298.123 Q1709.91 298.517 1711.67 299.327 Z" fill="#000000" fill-rule="nonzero" fill-opacity="1" /><path clip-path="url(#clip620)" d="M1741.25 310.229 L1741.25 312.313 L1721.67 312.313 Q1721.94 316.711 1724.31 319.026 Q1726.69 321.317 1730.93 321.317 Q1733.38 321.317 1735.67 320.716 Q1737.99 320.114 1740.25 318.91 L1740.25 322.938 Q1737.96 323.91 1735.56 324.419 Q1733.15 324.928 1730.67 324.928 Q1724.47 324.928 1720.83 321.317 Q1717.22 317.706 1717.22 311.549 Q1717.22 305.183 1720.65 301.456 Q1724.1 297.706 1729.93 297.706 Q1735.16 297.706 1738.19 301.086 Q1741.25 304.442 1741.25 310.229 M1736.99 308.979 Q1736.94 305.484 1735.02 303.401 Q1733.13 301.317 1729.98 301.317 Q1726.41 301.317 1724.26 303.331 Q1722.13 305.345 1721.81 309.003 L1736.99 308.979 Z" fill="#000000" fill-rule="nonzero" fill-opacity="1" /><path clip-path="url(#clip620)" d="M1764.77 299.095 L1764.77 303.123 Q1762.96 302.197 1761.02 301.734 Q1759.07 301.271 1756.99 301.271 Q1753.82 301.271 1752.22 302.243 Q1750.65 303.216 1750.65 305.16 Q1750.65 306.642 1751.78 307.498 Q1752.92 308.331 1756.34 309.095 L1757.8 309.419 Q1762.34 310.392 1764.24 312.174 Q1766.16 313.933 1766.16 317.104 Q1766.16 320.716 1763.29 322.822 Q1760.44 324.928 1755.44 324.928 Q1753.36 324.928 1751.09 324.512 Q1748.84 324.118 1746.34 323.308 L1746.34 318.91 Q1748.7 320.137 1751 320.762 Q1753.29 321.364 1755.53 321.364 Q1758.54 321.364 1760.16 320.345 Q1761.78 319.303 1761.78 317.429 Q1761.78 315.692 1760.6 314.766 Q1759.44 313.841 1755.49 312.984 L1754 312.637 Q1750.05 311.804 1748.29 310.091 Q1746.53 308.354 1746.53 305.345 Q1746.53 301.688 1749.12 299.697 Q1751.71 297.706 1756.48 297.706 Q1758.84 297.706 1760.93 298.054 Q1763.01 298.401 1764.77 299.095 Z" fill="#000000" fill-rule="nonzero" fill-opacity="1" /><path clip-path="url(#clip620)" d="M2234.13 1393.02 L3889.76 1393.02 L3889.76 162.272 L2234.13 162.272  Z" fill="#ffffff" fill-rule="evenodd" fill-opacity="1"/>
<defs>
  <clipPath id="clip623">
    <rect x="2234" y="162" width="1657" height="1232"/>
  </clipPath>
</defs>
<polyline clip-path="url(#clip623)" style="stroke:#000000; stroke-linecap:round; stroke-linejoin:round; stroke-width:2; stroke-opacity:0.1; fill:none" points="2557.91,1393.02 2557.91,162.272 "/>
<polyline clip-path="url(#clip623)" style="stroke:#000000; stroke-linecap:round; stroke-linejoin:round; stroke-width:2; stroke-opacity:0.1; fill:none" points="2986.24,1393.02 2986.24,162.272 "/>
<polyline clip-path="url(#clip623)" style="stroke:#000000; stroke-linecap:round; stroke-linejoin:round; stroke-width:2; stroke-opacity:0.1; fill:none" points="3414.57,1393.02 3414.57,162.272 "/>
<polyline clip-path="url(#clip623)" style="stroke:#000000; stroke-linecap:round; stroke-linejoin:round; stroke-width:2; stroke-opacity:0.1; fill:none" points="3842.91,1393.02 3842.91,162.272 "/>
<polyline clip-path="url(#clip620)" style="stroke:#000000; stroke-linecap:round; stroke-linejoin:round; stroke-width:4; stroke-opacity:1; fill:none" points="2234.13,1393.02 3889.76,1393.02 "/>
<polyline clip-path="url(#clip620)" style="stroke:#000000; stroke-linecap:round; stroke-linejoin:round; stroke-width:4; stroke-opacity:1; fill:none" points="2557.91,1393.02 2557.91,1374.12 "/>
<polyline clip-path="url(#clip620)" style="stroke:#000000; stroke-linecap:round; stroke-linejoin:round; stroke-width:4; stroke-opacity:1; fill:none" points="2986.24,1393.02 2986.24,1374.12 "/>
<polyline clip-path="url(#clip620)" style="stroke:#000000; stroke-linecap:round; stroke-linejoin:round; stroke-width:4; stroke-opacity:1; fill:none" points="3414.57,1393.02 3414.57,1374.12 "/>
<polyline clip-path="url(#clip620)" style="stroke:#000000; stroke-linecap:round; stroke-linejoin:round; stroke-width:4; stroke-opacity:1; fill:none" points="3842.91,1393.02 3842.91,1374.12 "/>
<path clip-path="url(#clip620)" d="M2531.26 1433.66 L2553.49 1433.66 L2553.49 1435.65 L2540.94 1468.22 L2536.06 1468.22 L2547.86 1437.59 L2531.26 1437.59 L2531.26 1433.66 Z" fill="#000000" fill-rule="nonzero" fill-opacity="1" /><path clip-path="url(#clip620)" d="M2572.61 1436.74 Q2569 1436.74 2567.17 1440.3 Q2565.36 1443.84 2565.36 1450.97 Q2565.36 1458.08 2567.17 1461.65 Q2569 1465.19 2572.61 1465.19 Q2576.24 1465.19 2578.05 1461.65 Q2579.87 1458.08 2579.87 1450.97 Q2579.87 1443.84 2578.05 1440.3 Q2576.24 1436.74 2572.61 1436.74 M2572.61 1433.03 Q2578.42 1433.03 2581.47 1437.64 Q2584.55 1442.22 2584.55 1450.97 Q2584.55 1459.7 2581.47 1464.31 Q2578.42 1468.89 2572.61 1468.89 Q2566.8 1468.89 2563.72 1464.31 Q2560.66 1459.7 2560.66 1450.97 Q2560.66 1442.22 2563.72 1437.64 Q2566.8 1433.03 2572.61 1433.03 Z" fill="#000000" fill-rule="nonzero" fill-opacity="1" /><path clip-path="url(#clip620)" d="M2971.11 1451.81 Q2967.78 1451.81 2965.86 1453.59 Q2963.96 1455.37 2963.96 1458.5 Q2963.96 1461.62 2965.86 1463.4 Q2967.78 1465.19 2971.11 1465.19 Q2974.45 1465.19 2976.37 1463.4 Q2978.29 1461.6 2978.29 1458.5 Q2978.29 1455.37 2976.37 1453.59 Q2974.47 1451.81 2971.11 1451.81 M2966.44 1449.82 Q2963.43 1449.08 2961.74 1447.02 Q2960.07 1444.96 2960.07 1441.99 Q2960.07 1437.85 2963.01 1435.44 Q2965.97 1433.03 2971.11 1433.03 Q2976.27 1433.03 2979.21 1435.44 Q2982.15 1437.85 2982.15 1441.99 Q2982.15 1444.96 2980.46 1447.02 Q2978.8 1449.08 2975.81 1449.82 Q2979.19 1450.6 2981.07 1452.9 Q2982.96 1455.19 2982.96 1458.5 Q2982.96 1463.52 2979.89 1466.21 Q2976.83 1468.89 2971.11 1468.89 Q2965.4 1468.89 2962.32 1466.21 Q2959.26 1463.52 2959.26 1458.5 Q2959.26 1455.19 2961.16 1452.9 Q2963.06 1450.6 2966.44 1449.82 M2964.72 1442.43 Q2964.72 1445.12 2966.39 1446.62 Q2968.08 1448.13 2971.11 1448.13 Q2974.12 1448.13 2975.81 1446.62 Q2977.52 1445.12 2977.52 1442.43 Q2977.52 1439.75 2975.81 1438.24 Q2974.12 1436.74 2971.11 1436.74 Q2968.08 1436.74 2966.39 1438.24 Q2964.72 1439.75 2964.72 1442.43 Z" fill="#000000" fill-rule="nonzero" fill-opacity="1" /><path clip-path="url(#clip620)" d="M3001.27 1436.74 Q2997.66 1436.74 2995.84 1440.3 Q2994.03 1443.84 2994.03 1450.97 Q2994.03 1458.08 2995.84 1461.65 Q2997.66 1465.19 3001.27 1465.19 Q3004.91 1465.19 3006.71 1461.65 Q3008.54 1458.08 3008.54 1450.97 Q3008.54 1443.84 3006.71 1440.3 Q3004.91 1436.74 3001.27 1436.74 M3001.27 1433.03 Q3007.09 1433.03 3010.14 1437.64 Q3013.22 1442.22 3013.22 1450.97 Q3013.22 1459.7 3010.14 1464.31 Q3007.09 1468.89 3001.27 1468.89 Q2995.46 1468.89 2992.39 1464.31 Q2989.33 1459.7 2989.33 1450.97 Q2989.33 1442.22 2992.39 1437.64 Q2995.46 1433.03 3001.27 1433.03 Z" fill="#000000" fill-rule="nonzero" fill-opacity="1" /><path clip-path="url(#clip620)" d="M3389.7 1467.5 L3389.7 1463.24 Q3391.46 1464.08 3393.27 1464.52 Q3395.07 1464.96 3396.81 1464.96 Q3401.44 1464.96 3403.87 1461.85 Q3406.32 1458.73 3406.67 1452.39 Q3405.33 1454.38 3403.27 1455.44 Q3401.21 1456.51 3398.71 1456.51 Q3393.52 1456.51 3390.49 1453.38 Q3387.48 1450.23 3387.48 1444.79 Q3387.48 1439.47 3390.63 1436.25 Q3393.77 1433.03 3399.01 1433.03 Q3405 1433.03 3408.15 1437.64 Q3411.32 1442.22 3411.32 1450.97 Q3411.32 1459.15 3407.43 1464.03 Q3403.57 1468.89 3397.02 1468.89 Q3395.26 1468.89 3393.45 1468.54 Q3391.65 1468.2 3389.7 1467.5 M3399.01 1452.85 Q3402.15 1452.85 3403.98 1450.7 Q3405.83 1448.54 3405.83 1444.79 Q3405.83 1441.07 3403.98 1438.91 Q3402.15 1436.74 3399.01 1436.74 Q3395.86 1436.74 3394.01 1438.91 Q3392.18 1441.07 3392.18 1444.79 Q3392.18 1448.54 3394.01 1450.7 Q3395.86 1452.85 3399.01 1452.85 Z" fill="#000000" fill-rule="nonzero" fill-opacity="1" /><path clip-path="url(#clip620)" d="M3429.72 1436.74 Q3426.11 1436.74 3424.28 1440.3 Q3422.48 1443.84 3422.48 1450.97 Q3422.48 1458.08 3424.28 1461.65 Q3426.11 1465.19 3429.72 1465.19 Q3433.36 1465.19 3435.16 1461.65 Q3436.99 1458.08 3436.99 1450.97 Q3436.99 1443.84 3435.16 1440.3 Q3433.36 1436.74 3429.72 1436.74 M3429.72 1433.03 Q3435.53 1433.03 3438.59 1437.64 Q3441.67 1442.22 3441.67 1450.97 Q3441.67 1459.7 3438.59 1464.31 Q3435.53 1468.89 3429.72 1468.89 Q3423.91 1468.89 3420.83 1464.31 Q3417.78 1459.7 3417.78 1450.97 Q3417.78 1442.22 3420.83 1437.64 Q3423.91 1433.03 3429.72 1433.03 Z" fill="#000000" fill-rule="nonzero" fill-opacity="1" /><path clip-path="url(#clip620)" d="M3802.51 1464.28 L3810.15 1464.28 L3810.15 1437.92 L3801.84 1439.59 L3801.84 1435.33 L3810.11 1433.66 L3814.78 1433.66 L3814.78 1464.28 L3822.42 1464.28 L3822.42 1468.22 L3802.51 1468.22 L3802.51 1464.28 Z" fill="#000000" fill-rule="nonzero" fill-opacity="1" /><path clip-path="url(#clip620)" d="M3841.86 1436.74 Q3838.25 1436.74 3836.42 1440.3 Q3834.62 1443.84 3834.62 1450.97 Q3834.62 1458.08 3836.42 1461.65 Q3838.25 1465.19 3841.86 1465.19 Q3845.5 1465.19 3847.3 1461.65 Q3849.13 1458.08 3849.13 1450.97 Q3849.13 1443.84 3847.3 1440.3 Q3845.5 1436.74 3841.86 1436.74 M3841.86 1433.03 Q3847.67 1433.03 3850.73 1437.64 Q3853.81 1442.22 3853.81 1450.97 Q3853.81 1459.7 3850.73 1464.31 Q3847.67 1468.89 3841.86 1468.89 Q3836.05 1468.89 3832.98 1464.31 Q3829.92 1459.7 3829.92 1450.97 Q3829.92 1442.22 3832.98 1437.64 Q3836.05 1433.03 3841.86 1433.03 Z" fill="#000000" fill-rule="nonzero" fill-opacity="1" /><path clip-path="url(#clip620)" d="M3872.03 1436.74 Q3868.42 1436.74 3866.59 1440.3 Q3864.78 1443.84 3864.78 1450.97 Q3864.78 1458.08 3866.59 1461.65 Q3868.42 1465.19 3872.03 1465.19 Q3875.66 1465.19 3877.47 1461.65 Q3879.29 1458.08 3879.29 1450.97 Q3879.29 1443.84 3877.47 1440.3 Q3875.66 1436.74 3872.03 1436.74 M3872.03 1433.03 Q3877.84 1433.03 3880.89 1437.64 Q3883.97 1442.22 3883.97 1450.97 Q3883.97 1459.7 3880.89 1464.31 Q3877.84 1468.89 3872.03 1468.89 Q3866.22 1468.89 3863.14 1464.31 Q3860.08 1459.7 3860.08 1450.97 Q3860.08 1442.22 3863.14 1437.64 Q3866.22 1433.03 3872.03 1433.03 Z" fill="#000000" fill-rule="nonzero" fill-opacity="1" /><path clip-path="url(#clip620)" d="M2960.08 1556.54 L2960.08 1575.44 L2954.19 1575.44 L2954.19 1526.24 L2960.08 1526.24 L2960.08 1531.65 Q2961.93 1528.46 2964.73 1526.94 Q2967.56 1525.38 2971.48 1525.38 Q2977.97 1525.38 2982.01 1530.53 Q2986.09 1535.69 2986.09 1544.09 Q2986.09 1552.49 2982.01 1557.65 Q2977.97 1562.81 2971.48 1562.81 Q2967.56 1562.81 2964.73 1561.28 Q2961.93 1559.72 2960.08 1556.54 M2980.01 1544.09 Q2980.01 1537.63 2977.33 1533.97 Q2974.69 1530.28 2970.04 1530.28 Q2965.4 1530.28 2962.72 1533.97 Q2960.08 1537.63 2960.08 1544.09 Q2960.08 1550.55 2962.72 1554.24 Q2965.4 1557.91 2970.04 1557.91 Q2974.69 1557.91 2977.33 1554.24 Q2980.01 1550.55 2980.01 1544.09 Z" fill="#000000" fill-rule="nonzero" fill-opacity="1" /><path clip-path="url(#clip620)" d="M3030.58 1512.42 Q3026.32 1519.74 3024.25 1526.9 Q3022.18 1534.07 3022.18 1541.42 Q3022.18 1548.77 3024.25 1556 Q3026.35 1563.19 3030.58 1570.48 L3025.49 1570.48 Q3020.71 1563 3018.33 1555.77 Q3015.97 1548.55 3015.97 1541.42 Q3015.97 1534.32 3018.33 1527.13 Q3020.68 1519.93 3025.49 1512.42 L3030.58 1512.42 Z" fill="#000000" fill-rule="nonzero" fill-opacity="1" /><path clip-path="url(#clip620)" d="M3041.72 1512.36 L3047.61 1512.36 L3047.61 1541.61 L3065.08 1526.24 L3072.56 1526.24 L3053.66 1542.91 L3073.36 1561.88 L3065.72 1561.88 L3047.61 1544.47 L3047.61 1561.88 L3041.72 1561.88 L3041.72 1512.36 Z" fill="#000000" fill-rule="nonzero" fill-opacity="1" /><path clip-path="url(#clip620)" d="M3086.38 1519.65 L3086.38 1537.5 L3094.46 1537.5 Q3098.95 1537.5 3101.4 1535.18 Q3103.85 1532.86 3103.85 1528.56 Q3103.85 1524.29 3101.4 1521.97 Q3098.95 1519.65 3094.46 1519.65 L3086.38 1519.65 M3079.95 1514.36 L3094.46 1514.36 Q3102.45 1514.36 3106.52 1517.99 Q3110.63 1521.59 3110.63 1528.56 Q3110.63 1535.59 3106.52 1539.19 Q3102.45 1542.79 3094.46 1542.79 L3086.38 1542.79 L3086.38 1561.88 L3079.95 1561.88 L3079.95 1514.36 Z" fill="#000000" fill-rule="nonzero" fill-opacity="1" /><path clip-path="url(#clip620)" d="M3132.27 1543.96 Q3125.18 1543.96 3122.44 1545.59 Q3119.7 1547.21 3119.7 1551.13 Q3119.7 1554.24 3121.74 1556.09 Q3123.81 1557.91 3127.34 1557.91 Q3132.21 1557.91 3135.14 1554.47 Q3138.1 1551 3138.1 1545.27 L3138.1 1543.96 L3132.27 1543.96 M3143.95 1541.55 L3143.95 1561.88 L3138.1 1561.88 L3138.1 1556.47 Q3136.09 1559.72 3133.1 1561.28 Q3130.11 1562.81 3125.78 1562.81 Q3120.31 1562.81 3117.06 1559.75 Q3113.84 1556.66 3113.84 1551.51 Q3113.84 1545.49 3117.86 1542.44 Q3121.9 1539.38 3129.89 1539.38 L3138.1 1539.38 L3138.1 1538.81 Q3138.1 1534.77 3135.42 1532.57 Q3132.78 1530.34 3127.98 1530.34 Q3124.92 1530.34 3122.02 1531.07 Q3119.13 1531.81 3116.45 1533.27 L3116.45 1527.86 Q3119.67 1526.62 3122.69 1526.01 Q3125.72 1525.38 3128.58 1525.38 Q3136.32 1525.38 3140.14 1529.39 Q3143.95 1533.4 3143.95 1541.55 Z" fill="#000000" fill-rule="nonzero" fill-opacity="1" /><path clip-path="url(#clip620)" d="M3155.09 1512.42 L3160.19 1512.42 Q3164.96 1519.93 3167.32 1527.13 Q3169.7 1534.32 3169.7 1541.42 Q3169.7 1548.55 3167.32 1555.77 Q3164.96 1563 3160.19 1570.48 L3155.09 1570.48 Q3159.33 1563.19 3161.4 1556 Q3163.5 1548.77 3163.5 1541.42 Q3163.5 1534.07 3161.4 1526.9 Q3159.33 1519.74 3155.09 1512.42 Z" fill="#000000" fill-rule="nonzero" fill-opacity="1" /><polyline clip-path="url(#clip623)" style="stroke:#000000; stroke-linecap:round; stroke-linejoin:round; stroke-width:2; stroke-opacity:0.1; fill:none" points="2234.13,1358.19 3889.76,1358.19 "/>
<polyline clip-path="url(#clip623)" style="stroke:#000000; stroke-linecap:round; stroke-linejoin:round; stroke-width:2; stroke-opacity:0.1; fill:none" points="2234.13,1048.57 3889.76,1048.57 "/>
<polyline clip-path="url(#clip623)" style="stroke:#000000; stroke-linecap:round; stroke-linejoin:round; stroke-width:2; stroke-opacity:0.1; fill:none" points="2234.13,738.943 3889.76,738.943 "/>
<polyline clip-path="url(#clip623)" style="stroke:#000000; stroke-linecap:round; stroke-linejoin:round; stroke-width:2; stroke-opacity:0.1; fill:none" points="2234.13,429.321 3889.76,429.321 "/>
<polyline clip-path="url(#clip620)" style="stroke:#000000; stroke-linecap:round; stroke-linejoin:round; stroke-width:4; stroke-opacity:1; fill:none" points="2234.13,1393.02 2234.13,162.272 "/>
<polyline clip-path="url(#clip620)" style="stroke:#000000; stroke-linecap:round; stroke-linejoin:round; stroke-width:4; stroke-opacity:1; fill:none" points="2234.13,1358.19 2253.03,1358.19 "/>
<polyline clip-path="url(#clip620)" style="stroke:#000000; stroke-linecap:round; stroke-linejoin:round; stroke-width:4; stroke-opacity:1; fill:none" points="2234.13,1048.57 2253.03,1048.57 "/>
<polyline clip-path="url(#clip620)" style="stroke:#000000; stroke-linecap:round; stroke-linejoin:round; stroke-width:4; stroke-opacity:1; fill:none" points="2234.13,738.943 2253.03,738.943 "/>
<polyline clip-path="url(#clip620)" style="stroke:#000000; stroke-linecap:round; stroke-linejoin:round; stroke-width:4; stroke-opacity:1; fill:none" points="2234.13,429.321 2253.03,429.321 "/>
<path clip-path="url(#clip620)" d="M2162.19 1343.99 Q2158.58 1343.99 2156.75 1347.55 Q2154.94 1351.09 2154.94 1358.22 Q2154.94 1365.33 2156.75 1368.89 Q2158.58 1372.43 2162.19 1372.43 Q2165.82 1372.43 2167.63 1368.89 Q2169.46 1365.33 2169.46 1358.22 Q2169.46 1351.09 2167.63 1347.55 Q2165.82 1343.99 2162.19 1343.99 M2162.19 1340.28 Q2168 1340.28 2171.05 1344.89 Q2174.13 1349.47 2174.13 1358.22 Q2174.13 1366.95 2171.05 1371.56 Q2168 1376.14 2162.19 1376.14 Q2156.38 1376.14 2153.3 1371.56 Q2150.24 1366.95 2150.24 1358.22 Q2150.24 1349.47 2153.3 1344.89 Q2156.38 1340.28 2162.19 1340.28 Z" fill="#000000" fill-rule="nonzero" fill-opacity="1" /><path clip-path="url(#clip620)" d="M2154.23 1061.91 L2161.86 1061.91 L2161.86 1035.54 L2153.55 1037.21 L2153.55 1032.95 L2161.82 1031.29 L2166.49 1031.29 L2166.49 1061.91 L2174.13 1061.91 L2174.13 1065.85 L2154.23 1065.85 L2154.23 1061.91 Z" fill="#000000" fill-rule="nonzero" fill-opacity="1" /><path clip-path="url(#clip620)" d="M2157.81 752.288 L2174.13 752.288 L2174.13 756.223 L2152.19 756.223 L2152.19 752.288 Q2154.85 749.533 2159.43 744.904 Q2164.04 740.251 2165.22 738.909 Q2167.47 736.385 2168.35 734.649 Q2169.25 732.89 2169.25 731.2 Q2169.25 728.446 2167.3 726.71 Q2165.38 724.973 2162.28 724.973 Q2160.08 724.973 2157.63 725.737 Q2155.2 726.501 2152.42 728.052 L2152.42 723.33 Q2155.24 722.196 2157.7 721.617 Q2160.15 721.038 2162.19 721.038 Q2167.56 721.038 2170.75 723.723 Q2173.95 726.409 2173.95 730.899 Q2173.95 733.029 2173.14 734.95 Q2172.35 736.848 2170.24 739.441 Q2169.67 740.112 2166.56 743.33 Q2163.46 746.524 2157.81 752.288 Z" fill="#000000" fill-rule="nonzero" fill-opacity="1" /><path clip-path="url(#clip620)" d="M2167 427.967 Q2170.36 428.685 2172.23 430.953 Q2174.13 433.222 2174.13 436.555 Q2174.13 441.671 2170.61 444.472 Q2167.1 447.273 2160.61 447.273 Q2158.44 447.273 2156.12 446.833 Q2153.83 446.416 2151.38 445.56 L2151.38 441.046 Q2153.32 442.18 2155.64 442.759 Q2157.95 443.337 2160.48 443.337 Q2164.87 443.337 2167.17 441.601 Q2169.48 439.865 2169.48 436.555 Q2169.48 433.499 2167.33 431.786 Q2165.2 430.05 2161.38 430.05 L2157.35 430.05 L2157.35 426.208 L2161.56 426.208 Q2165.01 426.208 2166.84 424.842 Q2168.67 423.453 2168.67 420.861 Q2168.67 418.199 2166.77 416.787 Q2164.9 415.351 2161.38 415.351 Q2159.46 415.351 2157.26 415.768 Q2155.06 416.185 2152.42 417.064 L2152.42 412.898 Q2155.08 412.157 2157.4 411.787 Q2159.73 411.416 2161.8 411.416 Q2167.12 411.416 2170.22 413.847 Q2173.32 416.254 2173.32 420.375 Q2173.32 423.245 2171.68 425.236 Q2170.04 427.203 2167 427.967 Z" fill="#000000" fill-rule="nonzero" fill-opacity="1" /><path clip-path="url(#clip620)" d="M2040.34 876.171 L2040.34 848.353 L2045.69 848.353 L2071.31 870.378 L2071.31 848.353 L2075.99 848.353 L2075.99 876.967 L2070.64 876.967 L2045.02 854.942 L2045.02 876.171 L2040.34 876.171 Z" fill="#000000" fill-rule="nonzero" fill-opacity="1" /><path clip-path="url(#clip620)" d="M2026.53 804.621 Q2033.85 808.886 2041.01 810.955 Q2048.17 813.023 2055.52 813.023 Q2062.87 813.023 2070.1 810.955 Q2077.29 808.854 2084.58 804.621 L2084.58 809.713 Q2077.1 814.488 2069.88 816.875 Q2062.65 819.23 2055.52 819.23 Q2048.42 819.23 2041.23 816.875 Q2034.04 814.519 2026.53 809.713 L2026.53 804.621 Z" fill="#000000" fill-rule="nonzero" fill-opacity="1" /><path clip-path="url(#clip620)" d="M2026.46 793.481 L2026.46 787.592 L2055.71 787.592 L2040.34 770.119 L2040.34 762.639 L2057.02 781.545 L2075.99 761.843 L2075.99 769.482 L2058.58 787.592 L2075.99 787.592 L2075.99 793.481 L2026.46 793.481 Z" fill="#000000" fill-rule="nonzero" fill-opacity="1" /><path clip-path="url(#clip620)" d="M2047.18 727.755 Q2043.24 725.559 2041.36 722.503 Q2039.48 719.448 2039.48 715.31 Q2039.48 709.74 2043.4 706.716 Q2047.28 703.692 2054.47 703.692 L2075.99 703.692 L2075.99 709.581 L2054.66 709.581 Q2049.54 709.581 2047.06 711.395 Q2044.57 713.209 2044.57 716.933 Q2044.57 721.485 2047.6 724.126 Q2050.62 726.768 2055.84 726.768 L2075.99 726.768 L2075.99 732.656 L2054.66 732.656 Q2049.51 732.656 2047.06 734.471 Q2044.57 736.285 2044.57 740.072 Q2044.57 744.56 2047.63 747.202 Q2050.65 749.844 2055.84 749.844 L2075.99 749.844 L2075.99 755.732 L2040.34 755.732 L2040.34 749.844 L2045.88 749.844 Q2042.6 747.839 2041.04 745.038 Q2039.48 742.237 2039.48 738.385 Q2039.48 734.502 2041.45 731.797 Q2043.43 729.06 2047.18 727.755 Z" fill="#000000" fill-rule="nonzero" fill-opacity="1" /><path clip-path="url(#clip620)" d="M2026.53 692.934 L2026.53 687.842 Q2034.04 683.067 2041.23 680.712 Q2048.42 678.325 2055.52 678.325 Q2062.65 678.325 2069.88 680.712 Q2077.1 683.067 2084.58 687.842 L2084.58 692.934 Q2077.29 688.701 2070.1 686.632 Q2062.87 684.532 2055.52 684.532 Q2048.17 684.532 2041.01 686.632 Q2033.85 688.701 2026.53 692.934 Z" fill="#000000" fill-rule="nonzero" fill-opacity="1" /><path clip-path="url(#clip620)" d="M2932.3 65.7705 L2932.3 89.8329 L2924.81 89.8329 L2924.81 27.2059 L2932.3 27.2059 L2932.3 34.0924 Q2934.65 30.0415 2938.21 28.0971 Q2941.82 26.1121 2946.8 26.1121 Q2955.07 26.1121 2960.21 32.6746 Q2965.4 39.2371 2965.4 49.9314 Q2965.4 60.6258 2960.21 67.1883 Q2955.07 73.7508 2946.8 73.7508 Q2941.82 73.7508 2938.21 71.8063 Q2934.65 69.8214 2932.3 65.7705 M2957.66 49.9314 Q2957.66 41.7081 2954.26 37.0496 Q2950.89 32.3505 2944.98 32.3505 Q2939.06 32.3505 2935.66 37.0496 Q2932.3 41.7081 2932.3 49.9314 Q2932.3 58.1548 2935.66 62.8538 Q2939.06 67.5124 2944.98 67.5124 Q2950.89 67.5124 2954.26 62.8538 Q2957.66 58.1548 2957.66 49.9314 Z" fill="#000000" fill-rule="nonzero" fill-opacity="1" /><path clip-path="url(#clip620)" d="M3022.03 9.62495 Q3016.6 18.942 3013.97 28.0566 Q3011.33 37.1711 3011.33 46.5287 Q3011.33 55.8863 3013.97 65.0818 Q3016.64 74.2369 3022.03 83.5134 L3015.55 83.5134 Q3009.47 73.9938 3006.43 64.7983 Q3003.43 55.6027 3003.43 46.5287 Q3003.43 37.4952 3006.43 28.3401 Q3009.43 19.1851 3015.55 9.62495 L3022.03 9.62495 Z" fill="#000000" fill-rule="nonzero" fill-opacity="1" /><path clip-path="url(#clip620)" d="M3036.2 9.54393 L3043.7 9.54393 L3043.7 46.7717 L3065.94 27.2059 L3075.46 27.2059 L3051.4 48.4326 L3076.47 72.576 L3066.75 72.576 L3043.7 50.4176 L3043.7 72.576 L3036.2 72.576 L3036.2 9.54393 Z" fill="#000000" fill-rule="nonzero" fill-opacity="1" /><path clip-path="url(#clip620)" d="M3093.04 18.8205 L3093.04 41.5461 L3103.33 41.5461 Q3109.04 41.5461 3112.16 38.5889 Q3115.28 35.6318 3115.28 30.163 Q3115.28 24.7348 3112.16 21.7777 Q3109.04 18.8205 3103.33 18.8205 L3093.04 18.8205 M3084.86 12.096 L3103.33 12.096 Q3113.5 12.096 3118.68 16.714 Q3123.91 21.2916 3123.91 30.163 Q3123.91 39.1155 3118.68 43.6931 Q3113.5 48.2706 3103.33 48.2706 L3093.04 48.2706 L3093.04 72.576 L3084.86 72.576 L3084.86 12.096 Z" fill="#000000" fill-rule="nonzero" fill-opacity="1" /><path clip-path="url(#clip620)" d="M3151.45 49.7694 Q3142.42 49.7694 3138.94 51.8354 Q3135.45 53.9013 3135.45 58.8839 Q3135.45 62.8538 3138.04 65.2034 Q3140.68 67.5124 3145.17 67.5124 Q3151.37 67.5124 3155.1 63.1374 Q3158.87 58.7219 3158.87 51.4303 L3158.87 49.7694 L3151.45 49.7694 M3166.32 46.6907 L3166.32 72.576 L3158.87 72.576 L3158.87 65.6895 Q3156.31 69.8214 3152.51 71.8063 Q3148.7 73.7508 3143.19 73.7508 Q3136.22 73.7508 3132.09 69.8619 Q3128 65.9325 3128 59.3701 Q3128 51.7138 3133.1 47.825 Q3138.25 43.9361 3148.41 43.9361 L3158.87 43.9361 L3158.87 43.2069 Q3158.87 38.0623 3155.46 35.2672 Q3152.1 32.4315 3145.98 32.4315 Q3142.1 32.4315 3138.41 33.3632 Q3134.72 34.295 3131.32 36.1584 L3131.32 29.2718 Q3135.41 27.692 3139.26 26.9223 Q3143.11 26.1121 3146.75 26.1121 Q3156.6 26.1121 3161.46 31.2163 Q3166.32 36.3204 3166.32 46.6907 Z" fill="#000000" fill-rule="nonzero" fill-opacity="1" /><path clip-path="url(#clip620)" d="M3180.5 9.62495 L3186.98 9.62495 Q3193.06 19.1851 3196.05 28.3401 Q3199.09 37.4952 3199.09 46.5287 Q3199.09 55.6027 3196.05 64.7983 Q3193.06 73.9938 3186.98 83.5134 L3180.5 83.5134 Q3185.89 74.2369 3188.52 65.0818 Q3191.19 55.8863 3191.19 46.5287 Q3191.19 37.1711 3188.52 28.0566 Q3185.89 18.942 3180.5 9.62495 Z" fill="#000000" fill-rule="nonzero" fill-opacity="1" /><polyline clip-path="url(#clip623)" style="stroke:#009af9; stroke-linecap:round; stroke-linejoin:round; stroke-width:4; stroke-opacity:1; fill:none" points="3830.75,1350.45 3806.53,1334.97 3782.4,1319.48 3758.36,1304 3734.43,1288.52 3710.59,1273.04 3686.85,1257.56 3663.21,1242.08 3639.67,1226.6 3616.22,1211.12 3592.87,1195.64 3569.61,1180.15 3546.45,1164.67 3523.39,1149.19 3500.42,1133.71 3477.54,1118.23 3454.77,1102.75 3432.08,1087.27 3409.49,1071.79 3387,1056.31 3364.6,1040.82 3342.29,1025.34 3320.08,1009.86 3297.96,994.381 3275.93,978.9 3254,963.419 3232.16,947.938 3210.41,932.457 3188.75,916.976 3167.19,901.495 3145.72,886.014 3124.34,870.533 3103.05,855.051 3081.85,839.57 3060.74,824.089 3039.72,808.608 3018.79,793.127 2997.96,777.646 2977.21,762.165 2956.55,746.684 2935.98,731.203 2915.5,715.722 2895.11,700.24 2874.81,684.759 2854.6,669.278 2834.47,653.797 2814.44,638.316 2794.49,622.835 2774.63,607.354 2754.85,591.873 2735.17,576.392 2715.57,560.911 2696.05,545.429 2676.62,529.948 2657.28,514.467 2638.03,498.986 2618.86,483.505 2599.77,468.024 2580.78,452.543 2561.89,437.062 2543.09,421.581 2524.39,406.1 2505.78,390.618 2487.26,375.137 2468.84,359.656 2450.52,344.175 2432.28,328.694 2414.14,313.213 2396.09,297.732 2378.13,282.251 2360.27,266.77 2342.49,251.289 2324.81,235.807 2307.21,220.326 2289.71,204.845 "/>
<polyline clip-path="url(#clip623)" style="stroke:#e26f46; stroke-linecap:round; stroke-linejoin:round; stroke-width:4; stroke-opacity:1; fill:none" points="3842.91,1358.19 3818.63,1342.71 3794.45,1327.23 3770.37,1311.74 3746.38,1296.26 3722.5,1280.78 3698.71,1265.3 3675.02,1249.82 3651.43,1234.34 3627.93,1218.86 3604.53,1203.38 3581.23,1187.9 3558.02,1172.41 3534.91,1156.93 3511.89,1141.45 3488.97,1125.97 3466.14,1110.49 3443.41,1095.01 3420.78,1079.53 3398.23,1064.05 3375.79,1048.57 3353.43,1033.08 3331.17,1017.6 3309.01,1002.12 3286.93,986.641 3264.95,971.16 3243.07,955.679 3221.27,940.198 3199.57,924.716 3177.96,909.235 3156.44,893.754 3135.01,878.273 3113.68,862.792 3092.43,847.311 3071.28,831.83 3050.22,816.349 3029.25,800.868 3008.36,785.387 2987.57,769.905 2966.87,754.424 2946.26,738.943 2925.73,723.462 2905.3,707.981 2884.95,692.5 2864.69,677.019 2844.53,661.538 2824.44,646.057 2804.45,630.576 2784.55,615.094 2764.73,599.613 2745,584.132 2725.35,568.651 2705.8,553.17 2686.33,537.689 2666.94,522.208 2647.64,506.727 2628.43,491.246 2609.31,475.765 2590.27,460.283 2571.33,444.802 2552.48,429.321 2533.73,413.84 2515.07,398.359 2496.51,382.878 2478.04,367.397 2459.67,351.916 2441.39,336.435 2423.2,320.954 2405.1,305.472 2387.1,289.991 2369.19,274.51 2351.37,259.029 2333.64,243.548 2316,228.067 2298.45,212.586 2280.99,197.105 "/>
<path clip-path="url(#clip620)" d="M3496.72 358.817 L3834.58 358.817 L3834.58 203.297 L3496.72 203.297  Z" fill="#ffffff" fill-rule="evenodd" fill-opacity="1"/>
<polyline clip-path="url(#clip620)" style="stroke:#000000; stroke-linecap:round; stroke-linejoin:round; stroke-width:4; stroke-opacity:1; fill:none" points="3496.72,358.817 3834.58,358.817 3834.58,203.297 3496.72,203.297 3496.72,358.817 "/>
<polyline clip-path="url(#clip620)" style="stroke:#009af9; stroke-linecap:round; stroke-linejoin:round; stroke-width:4; stroke-opacity:1; fill:none" points="3515.12,255.137 3625.49,255.137 "/>
<path clip-path="url(#clip620)" d="M3664.4 247.487 L3664.4 251.468 Q3662.59 250.473 3660.76 249.987 Q3658.96 249.477 3657.11 249.477 Q3652.96 249.477 3650.67 252.116 Q3648.38 254.732 3648.38 259.477 Q3648.38 264.223 3650.67 266.862 Q3652.96 269.477 3657.11 269.477 Q3658.96 269.477 3660.76 268.991 Q3662.59 268.482 3664.4 267.487 L3664.4 271.422 Q3662.62 272.255 3660.69 272.672 Q3658.8 273.088 3656.64 273.088 Q3650.79 273.088 3647.34 269.408 Q3643.89 265.727 3643.89 259.477 Q3643.89 253.135 3647.36 249.501 Q3650.86 245.866 3656.92 245.866 Q3658.89 245.866 3660.76 246.283 Q3662.64 246.677 3664.4 247.487 Z" fill="#000000" fill-rule="nonzero" fill-opacity="1" /><path clip-path="url(#clip620)" d="M3693.98 258.389 L3693.98 260.473 L3674.4 260.473 Q3674.68 264.871 3677.04 267.186 Q3679.42 269.477 3683.66 269.477 Q3686.11 269.477 3688.4 268.876 Q3690.72 268.274 3692.99 267.07 L3692.99 271.098 Q3690.69 272.07 3688.29 272.579 Q3685.88 273.088 3683.4 273.088 Q3677.2 273.088 3673.57 269.477 Q3669.95 265.866 3669.95 259.709 Q3669.95 253.343 3673.38 249.616 Q3676.83 245.866 3682.66 245.866 Q3687.89 245.866 3690.93 249.246 Q3693.98 252.602 3693.98 258.389 M3689.72 257.139 Q3689.68 253.644 3687.75 251.561 Q3685.86 249.477 3682.71 249.477 Q3679.14 249.477 3676.99 251.491 Q3674.86 253.505 3674.54 257.163 L3689.72 257.139 Z" fill="#000000" fill-rule="nonzero" fill-opacity="1" /><path clip-path="url(#clip620)" d="M3722.52 256.769 L3722.52 272.417 L3718.26 272.417 L3718.26 256.908 Q3718.26 253.227 3716.83 251.399 Q3715.39 249.57 3712.52 249.57 Q3709.07 249.57 3707.08 251.769 Q3705.09 253.968 3705.09 257.764 L3705.09 272.417 L3700.81 272.417 L3700.81 246.491 L3705.09 246.491 L3705.09 250.519 Q3706.62 248.181 3708.68 247.024 Q3710.76 245.866 3713.47 245.866 Q3717.94 245.866 3720.23 248.644 Q3722.52 251.399 3722.52 256.769 Z" fill="#000000" fill-rule="nonzero" fill-opacity="1" /><path clip-path="url(#clip620)" d="M3735.23 239.13 L3735.23 246.491 L3744 246.491 L3744 249.802 L3735.23 249.802 L3735.23 263.876 Q3735.23 267.047 3736.09 267.95 Q3736.97 268.852 3739.63 268.852 L3744 268.852 L3744 272.417 L3739.63 272.417 Q3734.7 272.417 3732.82 270.588 Q3730.95 268.737 3730.95 263.876 L3730.95 249.802 L3727.82 249.802 L3727.82 246.491 L3730.95 246.491 L3730.95 239.13 L3735.23 239.13 Z" fill="#000000" fill-rule="nonzero" fill-opacity="1" /><path clip-path="url(#clip620)" d="M3771.78 258.389 L3771.78 260.473 L3752.2 260.473 Q3752.48 264.871 3754.84 267.186 Q3757.22 269.477 3761.46 269.477 Q3763.91 269.477 3766.2 268.876 Q3768.52 268.274 3770.79 267.07 L3770.79 271.098 Q3768.5 272.07 3766.09 272.579 Q3763.68 273.088 3761.2 273.088 Q3755 273.088 3751.37 269.477 Q3747.75 265.866 3747.75 259.709 Q3747.75 253.343 3751.18 249.616 Q3754.63 245.866 3760.46 245.866 Q3765.69 245.866 3768.73 249.246 Q3771.78 252.602 3771.78 258.389 M3767.52 257.139 Q3767.48 253.644 3765.56 251.561 Q3763.66 249.477 3760.51 249.477 Q3756.94 249.477 3754.79 251.491 Q3752.66 253.505 3752.34 257.163 L3767.52 257.139 Z" fill="#000000" fill-rule="nonzero" fill-opacity="1" /><path clip-path="url(#clip620)" d="M3793.8 250.473 Q3793.08 250.056 3792.22 249.871 Q3791.39 249.663 3790.37 249.663 Q3786.76 249.663 3784.81 252.024 Q3782.89 254.362 3782.89 258.76 L3782.89 272.417 L3778.61 272.417 L3778.61 246.491 L3782.89 246.491 L3782.89 250.519 Q3784.24 248.158 3786.39 247.024 Q3788.54 245.866 3791.62 245.866 Q3792.06 245.866 3792.59 245.936 Q3793.12 245.982 3793.77 246.098 L3793.8 250.473 Z" fill="#000000" fill-rule="nonzero" fill-opacity="1" /><path clip-path="url(#clip620)" d="M3814.79 247.255 L3814.79 251.283 Q3812.99 250.357 3811.04 249.894 Q3809.1 249.431 3807.01 249.431 Q3803.84 249.431 3802.25 250.403 Q3800.67 251.376 3800.67 253.32 Q3800.67 254.802 3801.81 255.658 Q3802.94 256.491 3806.37 257.255 L3807.82 257.579 Q3812.36 258.552 3814.26 260.334 Q3816.18 262.093 3816.18 265.264 Q3816.18 268.876 3813.31 270.982 Q3810.46 273.088 3805.46 273.088 Q3803.38 273.088 3801.11 272.672 Q3798.87 272.278 3796.37 271.468 L3796.37 267.07 Q3798.73 268.297 3801.02 268.922 Q3803.31 269.524 3805.56 269.524 Q3808.56 269.524 3810.18 268.505 Q3811.81 267.463 3811.81 265.589 Q3811.81 263.852 3810.62 262.926 Q3809.47 262.001 3805.51 261.144 L3804.03 260.797 Q3800.07 259.964 3798.31 258.251 Q3796.55 256.514 3796.55 253.505 Q3796.55 249.848 3799.14 247.857 Q3801.74 245.866 3806.5 245.866 Q3808.87 245.866 3810.95 246.214 Q3813.03 246.561 3814.79 247.255 Z" fill="#000000" fill-rule="nonzero" fill-opacity="1" /><polyline clip-path="url(#clip620)" style="stroke:#e26f46; stroke-linecap:round; stroke-linejoin:round; stroke-width:4; stroke-opacity:1; fill:none" points="3515.12,306.977 3625.49,306.977 "/>
<path clip-path="url(#clip620)" d="M3660.39 288.239 L3660.39 291.78 L3656.32 291.78 Q3654.03 291.78 3653.13 292.706 Q3652.25 293.632 3652.25 296.04 L3652.25 298.331 L3659.26 298.331 L3659.26 301.642 L3652.25 301.642 L3652.25 324.257 L3647.96 324.257 L3647.96 301.642 L3643.89 301.642 L3643.89 298.331 L3647.96 298.331 L3647.96 296.526 Q3647.96 292.197 3649.98 290.23 Q3651.99 288.239 3656.37 288.239 L3660.39 288.239 Z" fill="#000000" fill-rule="nonzero" fill-opacity="1" /><path clip-path="url(#clip620)" d="M3675.74 311.225 Q3670.58 311.225 3668.59 312.405 Q3666.6 313.586 3666.6 316.433 Q3666.6 318.702 3668.08 320.044 Q3669.58 321.364 3672.15 321.364 Q3675.69 321.364 3677.82 318.864 Q3679.98 316.341 3679.98 312.174 L3679.98 311.225 L3675.74 311.225 M3684.24 309.466 L3684.24 324.257 L3679.98 324.257 L3679.98 320.322 Q3678.52 322.683 3676.34 323.817 Q3674.17 324.928 3671.02 324.928 Q3667.04 324.928 3664.68 322.706 Q3662.34 320.461 3662.34 316.711 Q3662.34 312.336 3665.26 310.114 Q3668.19 307.892 3674.01 307.892 L3679.98 307.892 L3679.98 307.475 Q3679.98 304.535 3678.03 302.938 Q3676.11 301.317 3672.62 301.317 Q3670.39 301.317 3668.29 301.85 Q3666.18 302.382 3664.24 303.447 L3664.24 299.512 Q3666.57 298.609 3668.77 298.169 Q3670.97 297.706 3673.06 297.706 Q3678.68 297.706 3681.46 300.623 Q3684.24 303.54 3684.24 309.466 Z" fill="#000000" fill-rule="nonzero" fill-opacity="1" /><path clip-path="url(#clip620)" d="M3711.67 299.327 L3711.67 303.308 Q3709.86 302.313 3708.03 301.827 Q3706.23 301.317 3704.38 301.317 Q3700.23 301.317 3697.94 303.956 Q3695.65 306.572 3695.65 311.317 Q3695.65 316.063 3697.94 318.702 Q3700.23 321.317 3704.38 321.317 Q3706.23 321.317 3708.03 320.831 Q3709.86 320.322 3711.67 319.327 L3711.67 323.262 Q3709.88 324.095 3707.96 324.512 Q3706.07 324.928 3703.91 324.928 Q3698.06 324.928 3694.61 321.248 Q3691.16 317.567 3691.16 311.317 Q3691.16 304.975 3694.63 301.341 Q3698.13 297.706 3704.19 297.706 Q3706.16 297.706 3708.03 298.123 Q3709.91 298.517 3711.67 299.327 Z" fill="#000000" fill-rule="nonzero" fill-opacity="1" /><path clip-path="url(#clip620)" d="M3741.25 310.229 L3741.25 312.313 L3721.67 312.313 Q3721.94 316.711 3724.31 319.026 Q3726.69 321.317 3730.93 321.317 Q3733.38 321.317 3735.67 320.716 Q3737.99 320.114 3740.25 318.91 L3740.25 322.938 Q3737.96 323.91 3735.56 324.419 Q3733.15 324.928 3730.67 324.928 Q3724.47 324.928 3720.83 321.317 Q3717.22 317.706 3717.22 311.549 Q3717.22 305.183 3720.65 301.456 Q3724.1 297.706 3729.93 297.706 Q3735.16 297.706 3738.19 301.086 Q3741.25 304.442 3741.25 310.229 M3736.99 308.979 Q3736.94 305.484 3735.02 303.401 Q3733.13 301.317 3729.98 301.317 Q3726.41 301.317 3724.26 303.331 Q3722.13 305.345 3721.81 309.003 L3736.99 308.979 Z" fill="#000000" fill-rule="nonzero" fill-opacity="1" /><path clip-path="url(#clip620)" d="M3764.77 299.095 L3764.77 303.123 Q3762.96 302.197 3761.02 301.734 Q3759.07 301.271 3756.99 301.271 Q3753.82 301.271 3752.22 302.243 Q3750.65 303.216 3750.65 305.16 Q3750.65 306.642 3751.78 307.498 Q3752.92 308.331 3756.34 309.095 L3757.8 309.419 Q3762.34 310.392 3764.24 312.174 Q3766.16 313.933 3766.16 317.104 Q3766.16 320.716 3763.29 322.822 Q3760.44 324.928 3755.44 324.928 Q3753.36 324.928 3751.09 324.512 Q3748.84 324.118 3746.34 323.308 L3746.34 318.91 Q3748.7 320.137 3751 320.762 Q3753.29 321.364 3755.53 321.364 Q3758.54 321.364 3760.16 320.345 Q3761.78 319.303 3761.78 317.429 Q3761.78 315.692 3760.6 314.766 Q3759.44 313.841 3755.49 312.984 L3754 312.637 Q3750.05 311.804 3748.29 310.091 Q3746.53 308.354 3746.53 305.345 Q3746.53 301.688 3749.12 299.697 Q3751.71 297.706 3756.48 297.706 Q3758.84 297.706 3760.93 298.054 Q3763.01 298.401 3764.77 299.095 Z" fill="#000000" fill-rule="nonzero" fill-opacity="1" /></svg>
