<?xml version="1.0" encoding="utf-8"?>
<svg xmlns="http://www.w3.org/2000/svg" xmlns:xlink="http://www.w3.org/1999/xlink" width="600" height="400" viewBox="0 0 2400 1600">
<defs>
  <clipPath id="clip620">
    <rect x="0" y="0" width="2400" height="1600"/>
  </clipPath>
</defs>
<path clip-path="url(#clip620)" d="
M0 1600 L2400 1600 L2400 0 L0 0  Z
  " fill="#ffffff" fill-rule="evenodd" fill-opacity="1"/>
<defs>
  <clipPath id="clip621">
    <rect x="480" y="0" width="1681" height="1600"/>
  </clipPath>
</defs>
<path clip-path="url(#clip620)" d="
M237.141 1360.19 L1089.76 1360.19 L1089.76 186.464 L237.141 186.464  Z
  " fill="#ffffff" fill-rule="evenodd" fill-opacity="1"/>
<defs>
  <clipPath id="clip622">
    <rect x="237" y="186" width="854" height="1175"/>
  </clipPath>
</defs>
<polyline clip-path="url(#clip622)" style="stroke:#000000; stroke-linecap:butt; stroke-linejoin:round; stroke-width:2; stroke-opacity:0.1; fill:none" points="
  354.689,1360.19 354.689,186.464 
  "/>
<polyline clip-path="url(#clip622)" style="stroke:#000000; stroke-linecap:butt; stroke-linejoin:round; stroke-width:2; stroke-opacity:0.1; fill:none" points="
  490.663,1360.19 490.663,186.464 
  "/>
<polyline clip-path="url(#clip622)" style="stroke:#000000; stroke-linecap:butt; stroke-linejoin:round; stroke-width:2; stroke-opacity:0.1; fill:none" points="
  626.636,1360.19 626.636,186.464 
  "/>
<polyline clip-path="url(#clip622)" style="stroke:#000000; stroke-linecap:butt; stroke-linejoin:round; stroke-width:2; stroke-opacity:0.1; fill:none" points="
  762.61,1360.19 762.61,186.464 
  "/>
<polyline clip-path="url(#clip622)" style="stroke:#000000; stroke-linecap:butt; stroke-linejoin:round; stroke-width:2; stroke-opacity:0.1; fill:none" points="
  898.584,1360.19 898.584,186.464 
  "/>
<polyline clip-path="url(#clip622)" style="stroke:#000000; stroke-linecap:butt; stroke-linejoin:round; stroke-width:2; stroke-opacity:0.1; fill:none" points="
  1034.56,1360.19 1034.56,186.464 
  "/>
<polyline clip-path="url(#clip620)" style="stroke:#000000; stroke-linecap:butt; stroke-linejoin:round; stroke-width:4; stroke-opacity:1; fill:none" points="
  237.141,1360.19 1089.76,1360.19 
  "/>
<polyline clip-path="url(#clip620)" style="stroke:#000000; stroke-linecap:butt; stroke-linejoin:round; stroke-width:4; stroke-opacity:1; fill:none" points="
  354.689,1360.19 354.689,1341.29 
  "/>
<polyline clip-path="url(#clip620)" style="stroke:#000000; stroke-linecap:butt; stroke-linejoin:round; stroke-width:4; stroke-opacity:1; fill:none" points="
  490.663,1360.19 490.663,1341.29 
  "/>
<polyline clip-path="url(#clip620)" style="stroke:#000000; stroke-linecap:butt; stroke-linejoin:round; stroke-width:4; stroke-opacity:1; fill:none" points="
  626.636,1360.19 626.636,1341.29 
  "/>
<polyline clip-path="url(#clip620)" style="stroke:#000000; stroke-linecap:butt; stroke-linejoin:round; stroke-width:4; stroke-opacity:1; fill:none" points="
  762.61,1360.19 762.61,1341.29 
  "/>
<polyline clip-path="url(#clip620)" style="stroke:#000000; stroke-linecap:butt; stroke-linejoin:round; stroke-width:4; stroke-opacity:1; fill:none" points="
  898.584,1360.19 898.584,1341.29 
  "/>
<polyline clip-path="url(#clip620)" style="stroke:#000000; stroke-linecap:butt; stroke-linejoin:round; stroke-width:4; stroke-opacity:1; fill:none" points="
  1034.56,1360.19 1034.56,1341.29 
  "/>
<path clip-path="url(#clip620)" d="M316.992 1391.11 Q313.381 1391.11 311.553 1394.67 Q309.747 1398.21 309.747 1405.34 Q309.747 1412.45 311.553 1416.01 Q313.381 1419.56 316.992 1419.56 Q320.627 1419.56 322.432 1416.01 Q324.261 1412.45 324.261 1405.34 Q324.261 1398.21 322.432 1394.67 Q320.627 1391.11 316.992 1391.11 M316.992 1387.4 Q322.803 1387.4 325.858 1392.01 Q328.937 1396.59 328.937 1405.34 Q328.937 1414.07 325.858 1418.68 Q322.803 1423.26 316.992 1423.26 Q311.182 1423.26 308.104 1418.68 Q305.048 1414.07 305.048 1405.34 Q305.048 1396.59 308.104 1392.01 Q311.182 1387.4 316.992 1387.4 Z" fill="#000000" fill-rule="evenodd" fill-opacity="1" /><path clip-path="url(#clip620)" d="M337.154 1416.71 L342.039 1416.71 L342.039 1422.59 L337.154 1422.59 L337.154 1416.71 Z" fill="#000000" fill-rule="evenodd" fill-opacity="1" /><path clip-path="url(#clip620)" d="M352.363 1421.87 L352.363 1417.61 Q354.122 1418.44 355.927 1418.88 Q357.733 1419.32 359.469 1419.32 Q364.099 1419.32 366.529 1416.22 Q368.983 1413.1 369.33 1406.75 Q367.988 1408.75 365.927 1409.81 Q363.867 1410.87 361.367 1410.87 Q356.182 1410.87 353.15 1407.75 Q350.14 1404.6 350.14 1399.16 Q350.14 1393.84 353.289 1390.62 Q356.437 1387.4 361.668 1387.4 Q367.663 1387.4 370.812 1392.01 Q373.983 1396.59 373.983 1405.34 Q373.983 1413.51 370.094 1418.4 Q366.228 1423.26 359.677 1423.26 Q357.918 1423.26 356.113 1422.91 Q354.307 1422.56 352.363 1421.87 M361.668 1407.22 Q364.816 1407.22 366.645 1405.06 Q368.497 1402.91 368.497 1399.16 Q368.497 1395.44 366.645 1393.28 Q364.816 1391.11 361.668 1391.11 Q358.52 1391.11 356.668 1393.28 Q354.839 1395.44 354.839 1399.16 Q354.839 1402.91 356.668 1405.06 Q358.52 1407.22 361.668 1407.22 Z" fill="#000000" fill-rule="evenodd" fill-opacity="1" /><path clip-path="url(#clip620)" d="M392.386 1391.11 Q388.774 1391.11 386.946 1394.67 Q385.14 1398.21 385.14 1405.34 Q385.14 1412.45 386.946 1416.01 Q388.774 1419.56 392.386 1419.56 Q396.02 1419.56 397.825 1416.01 Q399.654 1412.45 399.654 1405.34 Q399.654 1398.21 397.825 1394.67 Q396.02 1391.11 392.386 1391.11 M392.386 1387.4 Q398.196 1387.4 401.251 1392.01 Q404.33 1396.59 404.33 1405.34 Q404.33 1414.07 401.251 1418.68 Q398.196 1423.26 392.386 1423.26 Q386.575 1423.26 383.497 1418.68 Q380.441 1414.07 380.441 1405.34 Q380.441 1396.59 383.497 1392.01 Q386.575 1387.4 392.386 1387.4 Z" fill="#000000" fill-rule="evenodd" fill-opacity="1" /><path clip-path="url(#clip620)" d="M453.464 1391.11 Q449.853 1391.11 448.024 1394.67 Q446.218 1398.21 446.218 1405.34 Q446.218 1412.45 448.024 1416.01 Q449.853 1419.56 453.464 1419.56 Q457.098 1419.56 458.904 1416.01 Q460.732 1412.45 460.732 1405.34 Q460.732 1398.21 458.904 1394.67 Q457.098 1391.11 453.464 1391.11 M453.464 1387.4 Q459.274 1387.4 462.329 1392.01 Q465.408 1396.59 465.408 1405.34 Q465.408 1414.07 462.329 1418.68 Q459.274 1423.26 453.464 1423.26 Q447.654 1423.26 444.575 1418.68 Q441.519 1414.07 441.519 1405.34 Q441.519 1396.59 444.575 1392.01 Q447.654 1387.4 453.464 1387.4 Z" fill="#000000" fill-rule="evenodd" fill-opacity="1" /><path clip-path="url(#clip620)" d="M473.626 1416.71 L478.51 1416.71 L478.51 1422.59 L473.626 1422.59 L473.626 1416.71 Z" fill="#000000" fill-rule="evenodd" fill-opacity="1" /><path clip-path="url(#clip620)" d="M488.834 1421.87 L488.834 1417.61 Q490.593 1418.44 492.399 1418.88 Q494.204 1419.32 495.94 1419.32 Q500.57 1419.32 503.001 1416.22 Q505.454 1413.1 505.801 1406.75 Q504.459 1408.75 502.399 1409.81 Q500.339 1410.87 497.839 1410.87 Q492.653 1410.87 489.621 1407.75 Q486.612 1404.6 486.612 1399.16 Q486.612 1393.84 489.76 1390.62 Q492.908 1387.4 498.139 1387.4 Q504.135 1387.4 507.283 1392.01 Q510.454 1396.59 510.454 1405.34 Q510.454 1413.51 506.565 1418.4 Q502.7 1423.26 496.149 1423.26 Q494.39 1423.26 492.584 1422.91 Q490.778 1422.56 488.834 1421.87 M498.139 1407.22 Q501.288 1407.22 503.116 1405.06 Q504.968 1402.91 504.968 1399.16 Q504.968 1395.44 503.116 1393.28 Q501.288 1391.11 498.139 1391.11 Q494.991 1391.11 493.14 1393.28 Q491.311 1395.44 491.311 1399.16 Q491.311 1402.91 493.14 1405.06 Q494.991 1407.22 498.139 1407.22 Z" fill="#000000" fill-rule="evenodd" fill-opacity="1" /><path clip-path="url(#clip620)" d="M518.903 1388.03 L537.26 1388.03 L537.26 1391.96 L523.186 1391.96 L523.186 1400.44 Q524.204 1400.09 525.223 1399.93 Q526.241 1399.74 527.26 1399.74 Q533.047 1399.74 536.426 1402.91 Q539.806 1406.08 539.806 1411.5 Q539.806 1417.08 536.334 1420.18 Q532.862 1423.26 526.542 1423.26 Q524.366 1423.26 522.098 1422.89 Q519.852 1422.52 517.445 1421.78 L517.445 1417.08 Q519.528 1418.21 521.75 1418.77 Q523.973 1419.32 526.45 1419.32 Q530.454 1419.32 532.792 1417.22 Q535.13 1415.11 535.13 1411.5 Q535.13 1407.89 532.792 1405.78 Q530.454 1403.68 526.45 1403.68 Q524.575 1403.68 522.7 1404.09 Q520.848 1404.51 518.903 1405.39 L518.903 1388.03 Z" fill="#000000" fill-rule="evenodd" fill-opacity="1" /><path clip-path="url(#clip620)" d="M578.708 1418.65 L586.347 1418.65 L586.347 1392.29 L578.037 1393.95 L578.037 1389.69 L586.301 1388.03 L590.977 1388.03 L590.977 1418.65 L598.616 1418.65 L598.616 1422.59 L578.708 1422.59 L578.708 1418.65 Z" fill="#000000" fill-rule="evenodd" fill-opacity="1" /><path clip-path="url(#clip620)" d="M608.06 1416.71 L612.944 1416.71 L612.944 1422.59 L608.06 1422.59 L608.06 1416.71 Z" fill="#000000" fill-rule="evenodd" fill-opacity="1" /><path clip-path="url(#clip620)" d="M633.129 1391.11 Q629.518 1391.11 627.69 1394.67 Q625.884 1398.21 625.884 1405.34 Q625.884 1412.45 627.69 1416.01 Q629.518 1419.56 633.129 1419.56 Q636.764 1419.56 638.569 1416.01 Q640.398 1412.45 640.398 1405.34 Q640.398 1398.21 638.569 1394.67 Q636.764 1391.11 633.129 1391.11 M633.129 1387.4 Q638.939 1387.4 641.995 1392.01 Q645.074 1396.59 645.074 1405.34 Q645.074 1414.07 641.995 1418.68 Q638.939 1423.26 633.129 1423.26 Q627.319 1423.26 624.24 1418.68 Q621.185 1414.07 621.185 1405.34 Q621.185 1396.59 624.24 1392.01 Q627.319 1387.4 633.129 1387.4 Z" fill="#000000" fill-rule="evenodd" fill-opacity="1" /><path clip-path="url(#clip620)" d="M663.291 1391.11 Q659.68 1391.11 657.851 1394.67 Q656.046 1398.21 656.046 1405.34 Q656.046 1412.45 657.851 1416.01 Q659.68 1419.56 663.291 1419.56 Q666.925 1419.56 668.731 1416.01 Q670.56 1412.45 670.56 1405.34 Q670.56 1398.21 668.731 1394.67 Q666.925 1391.11 663.291 1391.11 M663.291 1387.4 Q669.101 1387.4 672.157 1392.01 Q675.236 1396.59 675.236 1405.34 Q675.236 1414.07 672.157 1418.68 Q669.101 1423.26 663.291 1423.26 Q657.481 1423.26 654.402 1418.68 Q651.347 1414.07 651.347 1405.34 Q651.347 1396.59 654.402 1392.01 Q657.481 1387.4 663.291 1387.4 Z" fill="#000000" fill-rule="evenodd" fill-opacity="1" /><path clip-path="url(#clip620)" d="M715.18 1418.65 L722.819 1418.65 L722.819 1392.29 L714.508 1393.95 L714.508 1389.69 L722.772 1388.03 L727.448 1388.03 L727.448 1418.65 L735.087 1418.65 L735.087 1422.59 L715.18 1422.59 L715.18 1418.65 Z" fill="#000000" fill-rule="evenodd" fill-opacity="1" /><path clip-path="url(#clip620)" d="M744.531 1416.71 L749.416 1416.71 L749.416 1422.59 L744.531 1422.59 L744.531 1416.71 Z" fill="#000000" fill-rule="evenodd" fill-opacity="1" /><path clip-path="url(#clip620)" d="M769.601 1391.11 Q765.99 1391.11 764.161 1394.67 Q762.355 1398.21 762.355 1405.34 Q762.355 1412.45 764.161 1416.01 Q765.99 1419.56 769.601 1419.56 Q773.235 1419.56 775.04 1416.01 Q776.869 1412.45 776.869 1405.34 Q776.869 1398.21 775.04 1394.67 Q773.235 1391.11 769.601 1391.11 M769.601 1387.4 Q775.411 1387.4 778.466 1392.01 Q781.545 1396.59 781.545 1405.34 Q781.545 1414.07 778.466 1418.68 Q775.411 1423.26 769.601 1423.26 Q763.791 1423.26 760.712 1418.68 Q757.656 1414.07 757.656 1405.34 Q757.656 1396.59 760.712 1392.01 Q763.791 1387.4 769.601 1387.4 Z" fill="#000000" fill-rule="evenodd" fill-opacity="1" /><path clip-path="url(#clip620)" d="M789.809 1388.03 L808.165 1388.03 L808.165 1391.96 L794.091 1391.96 L794.091 1400.44 Q795.11 1400.09 796.128 1399.93 Q797.147 1399.74 798.165 1399.74 Q803.952 1399.74 807.332 1402.91 Q810.712 1406.08 810.712 1411.5 Q810.712 1417.08 807.239 1420.18 Q803.767 1423.26 797.448 1423.26 Q795.272 1423.26 793.003 1422.89 Q790.758 1422.52 788.351 1421.78 L788.351 1417.08 Q790.434 1418.21 792.656 1418.77 Q794.878 1419.32 797.355 1419.32 Q801.36 1419.32 803.698 1417.22 Q806.036 1415.11 806.036 1411.5 Q806.036 1407.89 803.698 1405.78 Q801.36 1403.68 797.355 1403.68 Q795.48 1403.68 793.605 1404.09 Q791.753 1404.51 789.809 1405.39 L789.809 1388.03 Z" fill="#000000" fill-rule="evenodd" fill-opacity="1" /><path clip-path="url(#clip620)" d="M850.656 1418.65 L858.294 1418.65 L858.294 1392.29 L849.984 1393.95 L849.984 1389.69 L858.248 1388.03 L862.924 1388.03 L862.924 1418.65 L870.563 1418.65 L870.563 1422.59 L850.656 1422.59 L850.656 1418.65 Z" fill="#000000" fill-rule="evenodd" fill-opacity="1" /><path clip-path="url(#clip620)" d="M880.007 1416.71 L884.892 1416.71 L884.892 1422.59 L880.007 1422.59 L880.007 1416.71 Z" fill="#000000" fill-rule="evenodd" fill-opacity="1" /><path clip-path="url(#clip620)" d="M895.887 1418.65 L903.526 1418.65 L903.526 1392.29 L895.216 1393.95 L895.216 1389.69 L903.479 1388.03 L908.155 1388.03 L908.155 1418.65 L915.794 1418.65 L915.794 1422.59 L895.887 1422.59 L895.887 1418.65 Z" fill="#000000" fill-rule="evenodd" fill-opacity="1" /><path clip-path="url(#clip620)" d="M935.239 1391.11 Q931.627 1391.11 929.799 1394.67 Q927.993 1398.21 927.993 1405.34 Q927.993 1412.45 929.799 1416.01 Q931.627 1419.56 935.239 1419.56 Q938.873 1419.56 940.678 1416.01 Q942.507 1412.45 942.507 1405.34 Q942.507 1398.21 940.678 1394.67 Q938.873 1391.11 935.239 1391.11 M935.239 1387.4 Q941.049 1387.4 944.104 1392.01 Q947.183 1396.59 947.183 1405.34 Q947.183 1414.07 944.104 1418.68 Q941.049 1423.26 935.239 1423.26 Q929.428 1423.26 926.35 1418.68 Q923.294 1414.07 923.294 1405.34 Q923.294 1396.59 926.35 1392.01 Q929.428 1387.4 935.239 1387.4 Z" fill="#000000" fill-rule="evenodd" fill-opacity="1" /><path clip-path="url(#clip620)" d="M987.127 1418.65 L994.766 1418.65 L994.766 1392.29 L986.456 1393.95 L986.456 1389.69 L994.72 1388.03 L999.395 1388.03 L999.395 1418.65 L1007.03 1418.65 L1007.03 1422.59 L987.127 1422.59 L987.127 1418.65 Z" fill="#000000" fill-rule="evenodd" fill-opacity="1" /><path clip-path="url(#clip620)" d="M1016.48 1416.71 L1021.36 1416.71 L1021.36 1422.59 L1016.48 1422.59 L1016.48 1416.71 Z" fill="#000000" fill-rule="evenodd" fill-opacity="1" /><path clip-path="url(#clip620)" d="M1032.36 1418.65 L1040 1418.65 L1040 1392.29 L1031.69 1393.95 L1031.69 1389.69 L1039.95 1388.03 L1044.63 1388.03 L1044.63 1418.65 L1052.27 1418.65 L1052.27 1422.59 L1032.36 1422.59 L1032.36 1418.65 Z" fill="#000000" fill-rule="evenodd" fill-opacity="1" /><path clip-path="url(#clip620)" d="M1061.76 1388.03 L1080.11 1388.03 L1080.11 1391.96 L1066.04 1391.96 L1066.04 1400.44 Q1067.06 1400.09 1068.08 1399.93 Q1069.09 1399.74 1070.11 1399.74 Q1075.9 1399.74 1079.28 1402.91 Q1082.66 1406.08 1082.66 1411.5 Q1082.66 1417.08 1079.19 1420.18 Q1075.71 1423.26 1069.4 1423.26 Q1067.22 1423.26 1064.95 1422.89 Q1062.71 1422.52 1060.3 1421.78 L1060.3 1417.08 Q1062.38 1418.21 1064.6 1418.77 Q1066.83 1419.32 1069.3 1419.32 Q1073.31 1419.32 1075.65 1417.22 Q1077.98 1415.11 1077.98 1411.5 Q1077.98 1407.89 1075.65 1405.78 Q1073.31 1403.68 1069.3 1403.68 Q1067.43 1403.68 1065.55 1404.09 Q1063.7 1404.51 1061.76 1405.39 L1061.76 1388.03 Z" fill="#000000" fill-rule="evenodd" fill-opacity="1" /><path clip-path="url(#clip620)" d="M650.371 1475.77 Q652.312 1472.52 657.119 1469.66 Q658.996 1468.54 664.789 1468.54 Q671.282 1468.54 675.324 1473.7 Q679.399 1478.86 679.399 1487.26 Q679.399 1495.66 675.324 1500.82 Q671.282 1505.97 664.789 1505.97 Q660.874 1505.97 658.042 1504.45 Q655.241 1502.89 653.395 1499.7 L653.395 1518.61 L647.506 1518.61 L647.506 1487.58 Q647.506 1480.23 650.371 1475.77 M673.319 1487.26 Q673.319 1480.8 670.646 1477.14 Q668.004 1473.45 663.357 1473.45 Q658.71 1473.45 656.036 1477.14 Q653.395 1480.8 653.395 1487.26 Q653.395 1493.72 656.036 1497.41 Q658.71 1501.07 663.357 1501.07 Q668.004 1501.07 670.646 1497.41 Q673.319 1493.72 673.319 1487.26 Z" fill="#000000" fill-rule="evenodd" fill-opacity="1" /><polyline clip-path="url(#clip622)" style="stroke:#000000; stroke-linecap:butt; stroke-linejoin:round; stroke-width:2; stroke-opacity:0.1; fill:none" points="
  237.141,1326.97 1089.76,1326.97 
  "/>
<polyline clip-path="url(#clip622)" style="stroke:#000000; stroke-linecap:butt; stroke-linejoin:round; stroke-width:2; stroke-opacity:0.1; fill:none" points="
  237.141,957.874 1089.76,957.874 
  "/>
<polyline clip-path="url(#clip622)" style="stroke:#000000; stroke-linecap:butt; stroke-linejoin:round; stroke-width:2; stroke-opacity:0.1; fill:none" points="
  237.141,588.778 1089.76,588.778 
  "/>
<polyline clip-path="url(#clip622)" style="stroke:#000000; stroke-linecap:butt; stroke-linejoin:round; stroke-width:2; stroke-opacity:0.1; fill:none" points="
  237.141,219.683 1089.76,219.683 
  "/>
<polyline clip-path="url(#clip620)" style="stroke:#000000; stroke-linecap:butt; stroke-linejoin:round; stroke-width:4; stroke-opacity:1; fill:none" points="
  237.141,1360.19 237.141,186.464 
  "/>
<polyline clip-path="url(#clip620)" style="stroke:#000000; stroke-linecap:butt; stroke-linejoin:round; stroke-width:4; stroke-opacity:1; fill:none" points="
  237.141,1326.97 256.039,1326.97 
  "/>
<polyline clip-path="url(#clip620)" style="stroke:#000000; stroke-linecap:butt; stroke-linejoin:round; stroke-width:4; stroke-opacity:1; fill:none" points="
  237.141,957.874 256.039,957.874 
  "/>
<polyline clip-path="url(#clip620)" style="stroke:#000000; stroke-linecap:butt; stroke-linejoin:round; stroke-width:4; stroke-opacity:1; fill:none" points="
  237.141,588.778 256.039,588.778 
  "/>
<polyline clip-path="url(#clip620)" style="stroke:#000000; stroke-linecap:butt; stroke-linejoin:round; stroke-width:4; stroke-opacity:1; fill:none" points="
  237.141,219.683 256.039,219.683 
  "/>
<path clip-path="url(#clip620)" d="M189.197 1312.77 Q185.586 1312.77 183.757 1316.33 Q181.951 1319.87 181.951 1327 Q181.951 1334.11 183.757 1337.68 Q185.586 1341.22 189.197 1341.22 Q192.831 1341.22 194.636 1337.68 Q196.465 1334.11 196.465 1327 Q196.465 1319.87 194.636 1316.33 Q192.831 1312.77 189.197 1312.77 M189.197 1309.06 Q195.007 1309.06 198.062 1313.67 Q201.141 1318.25 201.141 1327 Q201.141 1335.73 198.062 1340.34 Q195.007 1344.92 189.197 1344.92 Q183.387 1344.92 180.308 1340.34 Q177.252 1335.73 177.252 1327 Q177.252 1318.25 180.308 1313.67 Q183.387 1309.06 189.197 1309.06 Z" fill="#000000" fill-rule="evenodd" fill-opacity="1" /><path clip-path="url(#clip620)" d="M181.234 971.219 L188.873 971.219 L188.873 944.853 L180.562 946.52 L180.562 942.26 L188.826 940.594 L193.502 940.594 L193.502 971.219 L201.141 971.219 L201.141 975.154 L181.234 975.154 L181.234 971.219 Z" fill="#000000" fill-rule="evenodd" fill-opacity="1" /><path clip-path="url(#clip620)" d="M184.822 602.123 L201.141 602.123 L201.141 606.058 L179.197 606.058 L179.197 602.123 Q181.859 599.368 186.442 594.739 Q191.049 590.086 192.229 588.744 Q194.474 586.22 195.354 584.484 Q196.257 582.725 196.257 581.035 Q196.257 578.281 194.312 576.545 Q192.391 574.808 189.289 574.808 Q187.09 574.808 184.637 575.572 Q182.206 576.336 179.428 577.887 L179.428 573.165 Q182.252 572.031 184.706 571.452 Q187.16 570.873 189.197 570.873 Q194.567 570.873 197.761 573.558 Q200.956 576.244 200.956 580.734 Q200.956 582.864 200.146 584.785 Q199.359 586.683 197.252 589.276 Q196.673 589.947 193.572 593.165 Q190.47 596.359 184.822 602.123 Z" fill="#000000" fill-rule="evenodd" fill-opacity="1" /><path clip-path="url(#clip620)" d="M194.011 218.329 Q197.368 219.046 199.243 221.315 Q201.141 223.583 201.141 226.917 Q201.141 232.032 197.623 234.833 Q194.104 237.634 187.623 237.634 Q185.447 237.634 183.132 237.194 Q180.84 236.778 178.387 235.921 L178.387 231.407 Q180.331 232.542 182.646 233.12 Q184.961 233.699 187.484 233.699 Q191.882 233.699 194.173 231.963 Q196.488 230.227 196.488 226.917 Q196.488 223.861 194.336 222.148 Q192.206 220.412 188.386 220.412 L184.359 220.412 L184.359 216.569 L188.572 216.569 Q192.021 216.569 193.849 215.204 Q195.678 213.815 195.678 211.222 Q195.678 208.56 193.78 207.148 Q191.905 205.713 188.386 205.713 Q186.465 205.713 184.266 206.13 Q182.067 206.546 179.428 207.426 L179.428 203.259 Q182.09 202.519 184.405 202.148 Q186.743 201.778 188.803 201.778 Q194.127 201.778 197.229 204.208 Q200.331 206.616 200.331 210.736 Q200.331 213.606 198.687 215.597 Q197.044 217.565 194.011 218.329 Z" fill="#000000" fill-rule="evenodd" fill-opacity="1" /><path clip-path="url(#clip620)" d="M91.3483 871.851 L91.3483 844.033 L96.6955 844.033 L122.317 866.058 L122.317 844.033 L126.996 844.033 L126.996 872.647 L121.649 872.647 L96.0271 850.622 L96.0271 871.851 L91.3483 871.851 Z" fill="#000000" fill-rule="evenodd" fill-opacity="1" /><path clip-path="url(#clip620)" d="M77.5347 800.301 Q84.8553 804.566 92.0167 806.635 Q99.1781 808.703 106.531 808.703 Q113.883 808.703 121.108 806.635 Q128.301 804.534 135.59 800.301 L135.59 805.393 Q128.11 810.168 120.885 812.555 Q113.66 814.91 106.531 814.91 Q99.4328 814.91 92.2395 812.555 Q85.0463 810.199 77.5347 805.393 L77.5347 800.301 Z" fill="#000000" fill-rule="evenodd" fill-opacity="1" /><path clip-path="url(#clip620)" d="M77.4711 789.161 L77.4711 783.272 L106.722 783.272 L91.3483 765.799 L91.3483 758.319 L108.026 777.225 L126.996 757.523 L126.996 765.162 L109.586 783.272 L126.996 783.272 L126.996 789.161 L77.4711 789.161 Z" fill="#000000" fill-rule="evenodd" fill-opacity="1" /><path clip-path="url(#clip620)" d="M98.1915 723.435 Q94.2447 721.239 92.3668 718.183 Q90.489 715.128 90.489 710.99 Q90.489 705.42 94.4039 702.396 Q98.2869 699.372 105.48 699.372 L126.996 699.372 L126.996 705.261 L105.671 705.261 Q100.547 705.261 98.0641 707.075 Q95.5815 708.889 95.5815 712.613 Q95.5815 717.165 98.6052 719.806 Q101.629 722.448 106.849 722.448 L126.996 722.448 L126.996 728.336 L105.671 728.336 Q100.515 728.336 98.0641 730.151 Q95.5815 731.965 95.5815 735.752 Q95.5815 740.24 98.6371 742.882 Q101.661 745.524 106.849 745.524 L126.996 745.524 L126.996 751.412 L91.3483 751.412 L91.3483 745.524 L96.8865 745.524 Q93.6082 743.519 92.0486 740.718 Q90.489 737.917 90.489 734.065 Q90.489 730.182 92.4623 727.477 Q94.4357 724.74 98.1915 723.435 Z" fill="#000000" fill-rule="evenodd" fill-opacity="1" /><path clip-path="url(#clip620)" d="M77.5347 688.614 L77.5347 683.522 Q85.0463 678.747 92.2395 676.392 Q99.4328 674.005 106.531 674.005 Q113.66 674.005 120.885 676.392 Q128.11 678.747 135.59 683.522 L135.59 688.614 Q128.301 684.381 121.108 682.312 Q113.883 680.212 106.531 680.212 Q99.1781 680.212 92.0167 682.312 Q84.8553 684.381 77.5347 688.614 Z" fill="#000000" fill-rule="evenodd" fill-opacity="1" /><path clip-path="url(#clip620)" d="M646.803 35.3077 Q649.274 31.1758 655.391 27.5299 Q657.781 26.1121 665.154 26.1121 Q673.418 26.1121 678.562 32.6746 Q683.747 39.2371 683.747 49.9314 Q683.747 60.6258 678.562 67.1883 Q673.418 73.7508 665.154 73.7508 Q660.171 73.7508 656.566 71.8063 Q653.001 69.8214 650.652 65.7705 L650.652 89.8329 L643.157 89.8329 L643.157 50.3365 Q643.157 40.9789 646.803 35.3077 M676.01 49.9314 Q676.01 41.7081 672.607 37.0496 Q669.245 32.3505 663.331 32.3505 Q657.417 32.3505 654.014 37.0496 Q650.652 41.7081 650.652 49.9314 Q650.652 58.1548 654.014 62.8538 Q657.417 67.5124 663.331 67.5124 Q669.245 67.5124 672.607 62.8538 Q676.01 58.1548 676.01 49.9314 Z" fill="#000000" fill-rule="evenodd" fill-opacity="1" /><polyline clip-path="url(#clip622)" style="stroke:#009af9; stroke-linecap:butt; stroke-linejoin:round; stroke-width:4; stroke-opacity:1; fill:none" points="
  1058.06,1317.74 1043.06,1299.29 1028.07,1280.83 1013.14,1262.38 998.264,1243.92 983.45,1225.47 968.696,1207.01 954.034,1188.56 939.378,1170.1 924.804,1151.65 
  910.287,1133.19 895.828,1114.74 881.427,1096.28 867.084,1077.83 852.799,1059.37 838.588,1040.92 824.406,1022.47 810.295,1004.01 796.214,985.556 782.235,967.101 
  768.302,948.646 754.421,930.192 740.617,911.737 726.828,893.282 713.1,874.827 699.453,856.372 685.849,837.918 672.302,819.463 658.811,801.008 645.376,782.553 
  631.995,764.099 618.669,745.644 605.421,727.189 592.19,708.734 579.02,690.28 565.913,671.825 552.869,653.37 539.887,634.915 526.913,616.46 514.021,598.006 
  501.182,579.551 488.398,561.096 475.666,542.641 462.988,524.187 450.363,505.732 437.791,487.277 425.273,468.822 412.807,450.367 400.394,431.913 388.034,413.458 
  375.727,395.003 363.434,376.548 351.224,358.094 339.065,339.639 326.958,321.184 314.901,302.729 302.895,284.275 290.939,265.82 279.035,247.365 267.18,228.91 
  
  "/>
<polyline clip-path="url(#clip622)" style="stroke:#e26f46; stroke-linecap:butt; stroke-linejoin:round; stroke-width:4; stroke-opacity:1; fill:none" points="
  1065.63,1326.97 1050.57,1308.51 1035.56,1290.06 1020.6,1271.6 1005.69,1253.15 990.849,1234.7 976.065,1216.24 961.342,1197.79 946.676,1179.33 932.084,1160.88 
  917.538,1142.42 903.05,1123.97 888.62,1105.51 874.248,1087.06 859.934,1068.6 845.679,1050.15 831.482,1031.69 817.343,1013.24 803.261,994.783 789.22,976.328 
  775.263,957.874 761.355,939.419 747.501,920.964 733.713,902.509 719.961,884.055 706.275,865.6 692.643,847.145 679.068,828.69 665.55,810.236 652.087,791.781 
  638.678,773.326 625.325,754.871 612.06,736.416 598.798,717.962 585.597,699.507 572.459,681.052 559.383,662.597 546.37,644.143 533.379,625.688 520.46,607.233 
  507.595,588.778 494.783,570.323 482.025,551.869 469.32,533.414 456.669,514.959 444.071,496.504 431.525,478.05 419.033,459.595 406.594,441.14 394.208,422.685 
  381.874,404.231 369.594,385.776 357.323,367.321 345.138,348.866 333.005,330.411 320.923,311.957 308.891,293.502 296.911,275.047 284.981,256.592 273.101,238.138 
  261.272,219.683 
  "/>
<path clip-path="url(#clip620)" d="
M794.316 381.108 L1061.34 381.108 L1061.34 225.588 L794.316 225.588  Z
  " fill="#ffffff" fill-rule="evenodd" fill-opacity="1"/>
<polyline clip-path="url(#clip620)" style="stroke:#000000; stroke-linecap:butt; stroke-linejoin:round; stroke-width:4; stroke-opacity:1; fill:none" points="
  794.316,381.108 1061.34,381.108 1061.34,225.588 794.316,225.588 794.316,381.108 
  "/>
<polyline clip-path="url(#clip620)" style="stroke:#009af9; stroke-linecap:butt; stroke-linejoin:round; stroke-width:4; stroke-opacity:1; fill:none" points="
  803.79,277.428 860.632,277.428 
  "/>
<path clip-path="url(#clip620)" d="M890.614 269.778 L890.614 273.759 Q888.809 272.764 886.98 272.278 Q885.174 271.769 883.323 271.769 Q879.179 271.769 876.887 274.408 Q874.596 277.023 874.596 281.769 Q874.596 286.514 876.887 289.153 Q879.179 291.769 883.323 291.769 Q885.174 291.769 886.98 291.282 Q888.809 290.773 890.614 289.778 L890.614 293.713 Q888.832 294.546 886.911 294.963 Q885.012 295.38 882.86 295.38 Q877.003 295.38 873.554 291.699 Q870.105 288.019 870.105 281.769 Q870.105 275.426 873.577 271.792 Q877.073 268.158 883.137 268.158 Q885.105 268.158 886.98 268.574 Q888.855 268.968 890.614 269.778 Z" fill="#000000" fill-rule="evenodd" fill-opacity="1" /><path clip-path="url(#clip620)" d="M920.197 280.681 L920.197 282.764 L900.614 282.764 Q900.892 287.162 903.253 289.477 Q905.637 291.769 909.873 291.769 Q912.327 291.769 914.619 291.167 Q916.934 290.565 919.202 289.361 L919.202 293.389 Q916.91 294.361 914.503 294.87 Q912.096 295.38 909.619 295.38 Q903.415 295.38 899.781 291.769 Q896.17 288.157 896.17 282 Q896.17 275.634 899.596 271.908 Q903.045 268.158 908.878 268.158 Q914.11 268.158 917.142 271.537 Q920.197 274.894 920.197 280.681 M915.938 279.431 Q915.892 275.935 913.971 273.852 Q912.072 271.769 908.924 271.769 Q905.36 271.769 903.207 273.783 Q901.077 275.796 900.753 279.454 L915.938 279.431 Z" fill="#000000" fill-rule="evenodd" fill-opacity="1" /><path clip-path="url(#clip620)" d="M948.739 279.06 L948.739 294.708 L944.48 294.708 L944.48 279.199 Q944.48 275.519 943.045 273.69 Q941.609 271.861 938.739 271.861 Q935.29 271.861 933.299 274.06 Q931.308 276.259 931.308 280.056 L931.308 294.708 L927.026 294.708 L927.026 268.783 L931.308 268.783 L931.308 272.81 Q932.836 270.472 934.896 269.315 Q936.98 268.158 939.688 268.158 Q944.156 268.158 946.447 270.935 Q948.739 273.69 948.739 279.06 Z" fill="#000000" fill-rule="evenodd" fill-opacity="1" /><path clip-path="url(#clip620)" d="M961.447 261.422 L961.447 268.783 L970.22 268.783 L970.22 272.093 L961.447 272.093 L961.447 286.167 Q961.447 289.338 962.304 290.241 Q963.183 291.144 965.845 291.144 L970.22 291.144 L970.22 294.708 L965.845 294.708 Q960.915 294.708 959.04 292.88 Q957.165 291.028 957.165 286.167 L957.165 272.093 L954.04 272.093 L954.04 268.783 L957.165 268.783 L957.165 261.422 L961.447 261.422 Z" fill="#000000" fill-rule="evenodd" fill-opacity="1" /><path clip-path="url(#clip620)" d="M997.998 280.681 L997.998 282.764 L978.415 282.764 Q978.692 287.162 981.054 289.477 Q983.438 291.769 987.674 291.769 Q990.128 291.769 992.419 291.167 Q994.734 290.565 997.003 289.361 L997.003 293.389 Q994.711 294.361 992.304 294.87 Q989.896 295.38 987.419 295.38 Q981.216 295.38 977.581 291.769 Q973.97 288.157 973.97 282 Q973.97 275.634 977.396 271.908 Q980.845 268.158 986.679 268.158 Q991.91 268.158 994.942 271.537 Q997.998 274.894 997.998 280.681 M993.739 279.431 Q993.692 275.935 991.771 273.852 Q989.873 271.769 986.725 271.769 Q983.16 271.769 981.007 273.783 Q978.878 275.796 978.554 279.454 L993.739 279.431 Z" fill="#000000" fill-rule="evenodd" fill-opacity="1" /><path clip-path="url(#clip620)" d="M1020.01 272.764 Q1019.29 272.347 1018.44 272.162 Q1017.6 271.954 1016.59 271.954 Q1012.97 271.954 1011.03 274.315 Q1009.11 276.653 1009.11 281.051 L1009.11 294.708 L1004.83 294.708 L1004.83 268.783 L1009.11 268.783 L1009.11 272.81 Q1010.45 270.449 1012.6 269.315 Q1014.76 268.158 1017.84 268.158 Q1018.28 268.158 1018.81 268.227 Q1019.34 268.273 1019.99 268.389 L1020.01 272.764 Z" fill="#000000" fill-rule="evenodd" fill-opacity="1" /><path clip-path="url(#clip620)" d="M1041.01 269.546 L1041.01 273.574 Q1039.2 272.648 1037.26 272.185 Q1035.31 271.722 1033.23 271.722 Q1030.06 271.722 1028.46 272.695 Q1026.89 273.667 1026.89 275.611 Q1026.89 277.093 1028.02 277.949 Q1029.16 278.783 1032.58 279.546 L1034.04 279.87 Q1038.58 280.843 1040.47 282.625 Q1042.4 284.384 1042.4 287.556 Q1042.4 291.167 1039.53 293.273 Q1036.68 295.38 1031.68 295.38 Q1029.59 295.38 1027.33 294.963 Q1025.08 294.569 1022.58 293.759 L1022.58 289.361 Q1024.94 290.588 1027.23 291.213 Q1029.53 291.815 1031.77 291.815 Q1034.78 291.815 1036.4 290.796 Q1038.02 289.755 1038.02 287.88 Q1038.02 286.144 1036.84 285.218 Q1035.68 284.292 1031.72 283.435 L1030.24 283.088 Q1026.28 282.255 1024.53 280.542 Q1022.77 278.806 1022.77 275.796 Q1022.77 272.139 1025.36 270.148 Q1027.95 268.158 1032.72 268.158 Q1035.08 268.158 1037.16 268.505 Q1039.25 268.852 1041.01 269.546 Z" fill="#000000" fill-rule="evenodd" fill-opacity="1" /><polyline clip-path="url(#clip620)" style="stroke:#e26f46; stroke-linecap:butt; stroke-linejoin:round; stroke-width:4; stroke-opacity:1; fill:none" points="
  803.79,329.268 860.632,329.268 
  "/>
<path clip-path="url(#clip620)" d="M886.61 310.53 L886.61 314.072 L882.536 314.072 Q880.244 314.072 879.341 314.998 Q878.462 315.924 878.462 318.331 L878.462 320.623 L885.475 320.623 L885.475 323.933 L878.462 323.933 L878.462 346.548 L874.179 346.548 L874.179 323.933 L870.105 323.933 L870.105 320.623 L874.179 320.623 L874.179 318.817 Q874.179 314.488 876.193 312.521 Q878.207 310.53 882.582 310.53 L886.61 310.53 Z" fill="#000000" fill-rule="evenodd" fill-opacity="1" /><path clip-path="url(#clip620)" d="M901.957 333.516 Q896.795 333.516 894.804 334.697 Q892.813 335.877 892.813 338.724 Q892.813 340.993 894.295 342.335 Q895.799 343.655 898.369 343.655 Q901.91 343.655 904.04 341.155 Q906.193 338.632 906.193 334.465 L906.193 333.516 L901.957 333.516 M910.452 331.757 L910.452 346.548 L906.193 346.548 L906.193 342.613 Q904.735 344.974 902.559 346.109 Q900.383 347.22 897.235 347.22 Q893.253 347.22 890.892 344.997 Q888.554 342.752 888.554 339.002 Q888.554 334.627 891.471 332.405 Q894.411 330.183 900.221 330.183 L906.193 330.183 L906.193 329.766 Q906.193 326.826 904.248 325.229 Q902.327 323.609 898.832 323.609 Q896.61 323.609 894.503 324.141 Q892.397 324.673 890.452 325.738 L890.452 321.803 Q892.79 320.9 894.989 320.461 Q897.188 319.998 899.272 319.998 Q904.897 319.998 907.674 322.914 Q910.452 325.831 910.452 331.757 Z" fill="#000000" fill-rule="evenodd" fill-opacity="1" /><path clip-path="url(#clip620)" d="M937.883 321.618 L937.883 325.599 Q936.077 324.604 934.248 324.118 Q932.443 323.609 930.591 323.609 Q926.447 323.609 924.156 326.248 Q921.864 328.863 921.864 333.609 Q921.864 338.354 924.156 340.993 Q926.447 343.609 930.591 343.609 Q932.443 343.609 934.248 343.122 Q936.077 342.613 937.883 341.618 L937.883 345.553 Q936.1 346.386 934.179 346.803 Q932.281 347.22 930.128 347.22 Q924.271 347.22 920.822 343.539 Q917.373 339.859 917.373 333.609 Q917.373 327.266 920.846 323.632 Q924.341 319.998 930.406 319.998 Q932.373 319.998 934.248 320.414 Q936.123 320.808 937.883 321.618 Z" fill="#000000" fill-rule="evenodd" fill-opacity="1" /><path clip-path="url(#clip620)" d="M967.466 332.521 L967.466 334.604 L947.882 334.604 Q948.16 339.002 950.521 341.317 Q952.906 343.609 957.142 343.609 Q959.595 343.609 961.887 343.007 Q964.202 342.405 966.47 341.201 L966.47 345.229 Q964.179 346.201 961.771 346.71 Q959.364 347.22 956.887 347.22 Q950.683 347.22 947.049 343.609 Q943.438 339.997 943.438 333.84 Q943.438 327.474 946.864 323.748 Q950.313 319.998 956.146 319.998 Q961.378 319.998 964.41 323.377 Q967.466 326.734 967.466 332.521 M963.206 331.271 Q963.16 327.775 961.239 325.692 Q959.341 323.609 956.193 323.609 Q952.628 323.609 950.475 325.623 Q948.345 327.636 948.021 331.294 L963.206 331.271 Z" fill="#000000" fill-rule="evenodd" fill-opacity="1" /><path clip-path="url(#clip620)" d="M990.984 321.386 L990.984 325.414 Q989.179 324.488 987.234 324.025 Q985.29 323.562 983.206 323.562 Q980.035 323.562 978.438 324.535 Q976.864 325.507 976.864 327.451 Q976.864 328.933 977.998 329.789 Q979.132 330.623 982.558 331.386 L984.017 331.71 Q988.554 332.683 990.452 334.465 Q992.373 336.224 992.373 339.396 Q992.373 343.007 989.503 345.113 Q986.655 347.22 981.655 347.22 Q979.572 347.22 977.304 346.803 Q975.058 346.409 972.558 345.599 L972.558 341.201 Q974.919 342.428 977.211 343.053 Q979.503 343.655 981.748 343.655 Q984.757 343.655 986.378 342.636 Q987.998 341.595 987.998 339.72 Q987.998 337.984 986.817 337.058 Q985.66 336.132 981.702 335.275 L980.22 334.928 Q976.262 334.095 974.503 332.382 Q972.743 330.646 972.743 327.636 Q972.743 323.979 975.336 321.988 Q977.929 319.998 982.697 319.998 Q985.058 319.998 987.142 320.345 Q989.225 320.692 990.984 321.386 Z" fill="#000000" fill-rule="evenodd" fill-opacity="1" /><path clip-path="url(#clip620)" d="
M1437.14 1360.19 L2289.76 1360.19 L2289.76 186.464 L1437.14 186.464  Z
  " fill="#ffffff" fill-rule="evenodd" fill-opacity="1"/>
<defs>
  <clipPath id="clip623">
    <rect x="1437" y="186" width="854" height="1175"/>
  </clipPath>
</defs>
<polyline clip-path="url(#clip623)" style="stroke:#000000; stroke-linecap:butt; stroke-linejoin:round; stroke-width:2; stroke-opacity:0.1; fill:none" points="
  1546.72,1360.19 1546.72,186.464 
  "/>
<polyline clip-path="url(#clip623)" style="stroke:#000000; stroke-linecap:butt; stroke-linejoin:round; stroke-width:2; stroke-opacity:0.1; fill:none" points="
  1682.36,1360.19 1682.36,186.464 
  "/>
<polyline clip-path="url(#clip623)" style="stroke:#000000; stroke-linecap:butt; stroke-linejoin:round; stroke-width:2; stroke-opacity:0.1; fill:none" points="
  1818.01,1360.19 1818.01,186.464 
  "/>
<polyline clip-path="url(#clip623)" style="stroke:#000000; stroke-linecap:butt; stroke-linejoin:round; stroke-width:2; stroke-opacity:0.1; fill:none" points="
  1953.65,1360.19 1953.65,186.464 
  "/>
<polyline clip-path="url(#clip623)" style="stroke:#000000; stroke-linecap:butt; stroke-linejoin:round; stroke-width:2; stroke-opacity:0.1; fill:none" points="
  2089.3,1360.19 2089.3,186.464 
  "/>
<polyline clip-path="url(#clip623)" style="stroke:#000000; stroke-linecap:butt; stroke-linejoin:round; stroke-width:2; stroke-opacity:0.1; fill:none" points="
  2224.94,1360.19 2224.94,186.464 
  "/>
<polyline clip-path="url(#clip620)" style="stroke:#000000; stroke-linecap:butt; stroke-linejoin:round; stroke-width:4; stroke-opacity:1; fill:none" points="
  1437.14,1360.19 2289.76,1360.19 
  "/>
<polyline clip-path="url(#clip620)" style="stroke:#000000; stroke-linecap:butt; stroke-linejoin:round; stroke-width:4; stroke-opacity:1; fill:none" points="
  1546.72,1360.19 1546.72,1341.29 
  "/>
<polyline clip-path="url(#clip620)" style="stroke:#000000; stroke-linecap:butt; stroke-linejoin:round; stroke-width:4; stroke-opacity:1; fill:none" points="
  1682.36,1360.19 1682.36,1341.29 
  "/>
<polyline clip-path="url(#clip620)" style="stroke:#000000; stroke-linecap:butt; stroke-linejoin:round; stroke-width:4; stroke-opacity:1; fill:none" points="
  1818.01,1360.19 1818.01,1341.29 
  "/>
<polyline clip-path="url(#clip620)" style="stroke:#000000; stroke-linecap:butt; stroke-linejoin:round; stroke-width:4; stroke-opacity:1; fill:none" points="
  1953.65,1360.19 1953.65,1341.29 
  "/>
<polyline clip-path="url(#clip620)" style="stroke:#000000; stroke-linecap:butt; stroke-linejoin:round; stroke-width:4; stroke-opacity:1; fill:none" points="
  2089.3,1360.19 2089.3,1341.29 
  "/>
<polyline clip-path="url(#clip620)" style="stroke:#000000; stroke-linecap:butt; stroke-linejoin:round; stroke-width:4; stroke-opacity:1; fill:none" points="
  2224.94,1360.19 2224.94,1341.29 
  "/>
<path clip-path="url(#clip620)" d="M1520.57 1388.03 L1542.8 1388.03 L1542.8 1390.02 L1530.25 1422.59 L1525.37 1422.59 L1537.17 1391.96 L1520.57 1391.96 L1520.57 1388.03 Z" fill="#000000" fill-rule="evenodd" fill-opacity="1" /><path clip-path="url(#clip620)" d="M1551.96 1388.03 L1570.32 1388.03 L1570.32 1391.96 L1556.25 1391.96 L1556.25 1400.44 Q1557.26 1400.09 1558.28 1399.93 Q1559.3 1399.74 1560.32 1399.74 Q1566.11 1399.74 1569.49 1402.91 Q1572.87 1406.08 1572.87 1411.5 Q1572.87 1417.08 1569.39 1420.18 Q1565.92 1423.26 1559.6 1423.26 Q1557.43 1423.26 1555.16 1422.89 Q1552.91 1422.52 1550.51 1421.78 L1550.51 1417.08 Q1552.59 1418.21 1554.81 1418.77 Q1557.03 1419.32 1559.51 1419.32 Q1563.51 1419.32 1565.85 1417.22 Q1568.19 1415.11 1568.19 1411.5 Q1568.19 1407.89 1565.85 1405.78 Q1563.51 1403.68 1559.51 1403.68 Q1557.63 1403.68 1555.76 1404.09 Q1553.91 1404.51 1551.96 1405.39 L1551.96 1388.03 Z" fill="#000000" fill-rule="evenodd" fill-opacity="1" /><path clip-path="url(#clip620)" d="M1667.24 1406.18 Q1663.9 1406.18 1661.98 1407.96 Q1660.08 1409.74 1660.08 1412.87 Q1660.08 1415.99 1661.98 1417.77 Q1663.9 1419.56 1667.24 1419.56 Q1670.57 1419.56 1672.49 1417.77 Q1674.41 1415.97 1674.41 1412.87 Q1674.41 1409.74 1672.49 1407.96 Q1670.59 1406.18 1667.24 1406.18 M1662.56 1404.19 Q1659.55 1403.44 1657.86 1401.38 Q1656.2 1399.32 1656.2 1396.36 Q1656.2 1392.22 1659.14 1389.81 Q1662.1 1387.4 1667.24 1387.4 Q1672.4 1387.4 1675.34 1389.81 Q1678.28 1392.22 1678.28 1396.36 Q1678.28 1399.32 1676.59 1401.38 Q1674.92 1403.44 1671.94 1404.19 Q1675.32 1404.97 1677.19 1407.26 Q1679.09 1409.56 1679.09 1412.87 Q1679.09 1417.89 1676.01 1420.57 Q1672.95 1423.26 1667.24 1423.26 Q1661.52 1423.26 1658.44 1420.57 Q1655.39 1417.89 1655.39 1412.87 Q1655.39 1409.56 1657.28 1407.26 Q1659.18 1404.97 1662.56 1404.19 M1660.85 1396.8 Q1660.85 1399.49 1662.51 1400.99 Q1664.2 1402.5 1667.24 1402.5 Q1670.25 1402.5 1671.94 1400.99 Q1673.65 1399.49 1673.65 1396.8 Q1673.65 1394.12 1671.94 1392.61 Q1670.25 1391.11 1667.24 1391.11 Q1664.2 1391.11 1662.51 1392.61 Q1660.85 1394.12 1660.85 1396.8 Z" fill="#000000" fill-rule="evenodd" fill-opacity="1" /><path clip-path="url(#clip620)" d="M1697.4 1391.11 Q1693.79 1391.11 1691.96 1394.67 Q1690.15 1398.21 1690.15 1405.34 Q1690.15 1412.45 1691.96 1416.01 Q1693.79 1419.56 1697.4 1419.56 Q1701.03 1419.56 1702.84 1416.01 Q1704.67 1412.45 1704.67 1405.34 Q1704.67 1398.21 1702.84 1394.67 Q1701.03 1391.11 1697.4 1391.11 M1697.4 1387.4 Q1703.21 1387.4 1706.26 1392.01 Q1709.34 1396.59 1709.34 1405.34 Q1709.34 1414.07 1706.26 1418.68 Q1703.21 1423.26 1697.4 1423.26 Q1691.59 1423.26 1688.51 1418.68 Q1685.45 1414.07 1685.45 1405.34 Q1685.45 1396.59 1688.51 1392.01 Q1691.59 1387.4 1697.4 1387.4 Z" fill="#000000" fill-rule="evenodd" fill-opacity="1" /><path clip-path="url(#clip620)" d="M1803.38 1406.18 Q1800.05 1406.18 1798.12 1407.96 Q1796.23 1409.74 1796.23 1412.87 Q1796.23 1415.99 1798.12 1417.77 Q1800.05 1419.56 1803.38 1419.56 Q1806.71 1419.56 1808.63 1417.77 Q1810.55 1415.97 1810.55 1412.87 Q1810.55 1409.74 1808.63 1407.96 Q1806.74 1406.18 1803.38 1406.18 M1798.7 1404.19 Q1795.69 1403.44 1794 1401.38 Q1792.34 1399.32 1792.34 1396.36 Q1792.34 1392.22 1795.28 1389.81 Q1798.24 1387.4 1803.38 1387.4 Q1808.54 1387.4 1811.48 1389.81 Q1814.42 1392.22 1814.42 1396.36 Q1814.42 1399.32 1812.73 1401.38 Q1811.06 1403.44 1808.08 1404.19 Q1811.46 1404.97 1813.33 1407.26 Q1815.23 1409.56 1815.23 1412.87 Q1815.23 1417.89 1812.15 1420.57 Q1809.1 1423.26 1803.38 1423.26 Q1797.66 1423.26 1794.58 1420.57 Q1791.53 1417.89 1791.53 1412.87 Q1791.53 1409.56 1793.42 1407.26 Q1795.32 1404.97 1798.7 1404.19 M1796.99 1396.8 Q1796.99 1399.49 1798.66 1400.99 Q1800.35 1402.5 1803.38 1402.5 Q1806.39 1402.5 1808.08 1400.99 Q1809.79 1399.49 1809.79 1396.8 Q1809.79 1394.12 1808.08 1392.61 Q1806.39 1391.11 1803.38 1391.11 Q1800.35 1391.11 1798.66 1392.61 Q1796.99 1394.12 1796.99 1396.8 Z" fill="#000000" fill-rule="evenodd" fill-opacity="1" /><path clip-path="url(#clip620)" d="M1823.59 1388.03 L1841.94 1388.03 L1841.94 1391.96 L1827.87 1391.96 L1827.87 1400.44 Q1828.89 1400.09 1829.91 1399.93 Q1830.92 1399.74 1831.94 1399.74 Q1837.73 1399.74 1841.11 1402.91 Q1844.49 1406.08 1844.49 1411.5 Q1844.49 1417.08 1841.02 1420.18 Q1837.55 1423.26 1831.23 1423.26 Q1829.05 1423.26 1826.78 1422.89 Q1824.54 1422.52 1822.13 1421.78 L1822.13 1417.08 Q1824.21 1418.21 1826.43 1418.77 Q1828.66 1419.32 1831.13 1419.32 Q1835.14 1419.32 1837.48 1417.22 Q1839.81 1415.11 1839.81 1411.5 Q1839.81 1407.89 1837.48 1405.78 Q1835.14 1403.68 1831.13 1403.68 Q1829.26 1403.68 1827.38 1404.09 Q1825.53 1404.51 1823.59 1405.39 L1823.59 1388.03 Z" fill="#000000" fill-rule="evenodd" fill-opacity="1" /><path clip-path="url(#clip620)" d="M1928.78 1421.87 L1928.78 1417.61 Q1930.54 1418.44 1932.34 1418.88 Q1934.15 1419.32 1935.89 1419.32 Q1940.52 1419.32 1942.95 1416.22 Q1945.4 1413.1 1945.75 1406.75 Q1944.4 1408.75 1942.34 1409.81 Q1940.28 1410.87 1937.78 1410.87 Q1932.6 1410.87 1929.57 1407.75 Q1926.56 1404.6 1926.56 1399.16 Q1926.56 1393.84 1929.71 1390.62 Q1932.85 1387.4 1938.08 1387.4 Q1944.08 1387.4 1947.23 1392.01 Q1950.4 1396.59 1950.4 1405.34 Q1950.4 1413.51 1946.51 1418.4 Q1942.65 1423.26 1936.09 1423.26 Q1934.33 1423.26 1932.53 1422.91 Q1930.72 1422.56 1928.78 1421.87 M1938.08 1407.22 Q1941.23 1407.22 1943.06 1405.06 Q1944.91 1402.91 1944.91 1399.16 Q1944.91 1395.44 1943.06 1393.28 Q1941.23 1391.11 1938.08 1391.11 Q1934.94 1391.11 1933.08 1393.28 Q1931.26 1395.44 1931.26 1399.16 Q1931.26 1402.91 1933.08 1405.06 Q1934.94 1407.22 1938.08 1407.22 Z" fill="#000000" fill-rule="evenodd" fill-opacity="1" /><path clip-path="url(#clip620)" d="M1968.8 1391.11 Q1965.19 1391.11 1963.36 1394.67 Q1961.56 1398.21 1961.56 1405.34 Q1961.56 1412.45 1963.36 1416.01 Q1965.19 1419.56 1968.8 1419.56 Q1972.44 1419.56 1974.24 1416.01 Q1976.07 1412.45 1976.07 1405.34 Q1976.07 1398.21 1974.24 1394.67 Q1972.44 1391.11 1968.8 1391.11 M1968.8 1387.4 Q1974.61 1387.4 1977.67 1392.01 Q1980.75 1396.59 1980.75 1405.34 Q1980.75 1414.07 1977.67 1418.68 Q1974.61 1423.26 1968.8 1423.26 Q1962.99 1423.26 1959.91 1418.68 Q1956.86 1414.07 1956.86 1405.34 Q1956.86 1396.59 1959.91 1392.01 Q1962.99 1387.4 1968.8 1387.4 Z" fill="#000000" fill-rule="evenodd" fill-opacity="1" /><path clip-path="url(#clip620)" d="M2064.92 1421.87 L2064.92 1417.61 Q2066.68 1418.44 2068.49 1418.88 Q2070.29 1419.32 2072.03 1419.32 Q2076.66 1419.32 2079.09 1416.22 Q2081.54 1413.1 2081.89 1406.75 Q2080.55 1408.75 2078.49 1409.81 Q2076.43 1410.87 2073.93 1410.87 Q2068.74 1410.87 2065.71 1407.75 Q2062.7 1404.6 2062.7 1399.16 Q2062.7 1393.84 2065.85 1390.62 Q2069 1387.4 2074.23 1387.4 Q2080.22 1387.4 2083.37 1392.01 Q2086.54 1396.59 2086.54 1405.34 Q2086.54 1413.51 2082.65 1418.4 Q2078.79 1423.26 2072.24 1423.26 Q2070.48 1423.26 2068.67 1422.91 Q2066.87 1422.56 2064.92 1421.87 M2074.23 1407.22 Q2077.37 1407.22 2079.2 1405.06 Q2081.06 1402.91 2081.06 1399.16 Q2081.06 1395.44 2079.2 1393.28 Q2077.37 1391.11 2074.23 1391.11 Q2071.08 1391.11 2069.23 1393.28 Q2067.4 1395.44 2067.4 1399.16 Q2067.4 1402.91 2069.23 1405.06 Q2071.08 1407.22 2074.23 1407.22 Z" fill="#000000" fill-rule="evenodd" fill-opacity="1" /><path clip-path="url(#clip620)" d="M2094.99 1388.03 L2113.35 1388.03 L2113.35 1391.96 L2099.27 1391.96 L2099.27 1400.44 Q2100.29 1400.09 2101.31 1399.93 Q2102.33 1399.74 2103.35 1399.74 Q2109.13 1399.74 2112.51 1402.91 Q2115.89 1406.08 2115.89 1411.5 Q2115.89 1417.08 2112.42 1420.18 Q2108.95 1423.26 2102.63 1423.26 Q2100.45 1423.26 2098.18 1422.89 Q2095.94 1422.52 2093.53 1421.78 L2093.53 1417.08 Q2095.62 1418.21 2097.84 1418.77 Q2100.06 1419.32 2102.54 1419.32 Q2106.54 1419.32 2108.88 1417.22 Q2111.22 1415.11 2111.22 1411.5 Q2111.22 1407.89 2108.88 1405.78 Q2106.54 1403.68 2102.54 1403.68 Q2100.66 1403.68 2098.79 1404.09 Q2096.93 1404.51 2094.99 1405.39 L2094.99 1388.03 Z" fill="#000000" fill-rule="evenodd" fill-opacity="1" /><path clip-path="url(#clip620)" d="M2184.55 1418.65 L2192.19 1418.65 L2192.19 1392.29 L2183.88 1393.95 L2183.88 1389.69 L2192.14 1388.03 L2196.81 1388.03 L2196.81 1418.65 L2204.45 1418.65 L2204.45 1422.59 L2184.55 1422.59 L2184.55 1418.65 Z" fill="#000000" fill-rule="evenodd" fill-opacity="1" /><path clip-path="url(#clip620)" d="M2223.9 1391.11 Q2220.29 1391.11 2218.46 1394.67 Q2216.65 1398.21 2216.65 1405.34 Q2216.65 1412.45 2218.46 1416.01 Q2220.29 1419.56 2223.9 1419.56 Q2227.53 1419.56 2229.34 1416.01 Q2231.17 1412.45 2231.17 1405.34 Q2231.17 1398.21 2229.34 1394.67 Q2227.53 1391.11 2223.9 1391.11 M2223.9 1387.4 Q2229.71 1387.4 2232.76 1392.01 Q2235.84 1396.59 2235.84 1405.34 Q2235.84 1414.07 2232.76 1418.68 Q2229.71 1423.26 2223.9 1423.26 Q2218.09 1423.26 2215.01 1418.68 Q2211.95 1414.07 2211.95 1405.34 Q2211.95 1396.59 2215.01 1392.01 Q2218.09 1387.4 2223.9 1387.4 Z" fill="#000000" fill-rule="evenodd" fill-opacity="1" /><path clip-path="url(#clip620)" d="M2254.06 1391.11 Q2250.45 1391.11 2248.62 1394.67 Q2246.81 1398.21 2246.81 1405.34 Q2246.81 1412.45 2248.62 1416.01 Q2250.45 1419.56 2254.06 1419.56 Q2257.69 1419.56 2259.5 1416.01 Q2261.33 1412.45 2261.33 1405.34 Q2261.33 1398.21 2259.5 1394.67 Q2257.69 1391.11 2254.06 1391.11 M2254.06 1387.4 Q2259.87 1387.4 2262.93 1392.01 Q2266 1396.59 2266 1405.34 Q2266 1414.07 2262.93 1418.68 Q2259.87 1423.26 2254.06 1423.26 Q2248.25 1423.26 2245.17 1418.68 Q2242.12 1414.07 2242.12 1405.34 Q2242.12 1396.59 2245.17 1392.01 Q2248.25 1387.4 2254.06 1387.4 Z" fill="#000000" fill-rule="evenodd" fill-opacity="1" /><path clip-path="url(#clip620)" d="M1761.59 1499.7 L1761.59 1518.61 L1755.7 1518.61 L1755.7 1469.4 L1761.59 1469.4 L1761.59 1474.81 Q1763.43 1471.63 1766.23 1470.1 Q1769.06 1468.54 1772.98 1468.54 Q1779.47 1468.54 1783.52 1473.7 Q1787.59 1478.86 1787.59 1487.26 Q1787.59 1495.66 1783.52 1500.82 Q1779.47 1505.97 1772.98 1505.97 Q1769.06 1505.97 1766.23 1504.45 Q1763.43 1502.89 1761.59 1499.7 M1781.51 1487.26 Q1781.51 1480.8 1778.84 1477.14 Q1776.19 1473.45 1771.55 1473.45 Q1766.9 1473.45 1764.23 1477.14 Q1761.59 1480.8 1761.59 1487.26 Q1761.59 1493.72 1764.23 1497.41 Q1766.9 1501.07 1771.55 1501.07 Q1776.19 1501.07 1778.84 1497.41 Q1781.51 1493.72 1781.51 1487.26 Z" fill="#000000" fill-rule="evenodd" fill-opacity="1" /><path clip-path="url(#clip620)" d="M1832.09 1455.59 Q1827.82 1462.91 1825.75 1470.07 Q1823.68 1477.23 1823.68 1484.59 Q1823.68 1491.94 1825.75 1499.16 Q1827.85 1506.36 1832.09 1513.65 L1826.99 1513.65 Q1822.22 1506.17 1819.83 1498.94 Q1817.48 1491.72 1817.48 1484.59 Q1817.48 1477.49 1819.83 1470.29 Q1822.19 1463.1 1826.99 1455.59 L1832.09 1455.59 Z" fill="#000000" fill-rule="evenodd" fill-opacity="1" /><path clip-path="url(#clip620)" d="M1843.23 1455.53 L1849.11 1455.53 L1849.11 1484.78 L1866.59 1469.4 L1874.07 1469.4 L1855.16 1486.08 L1874.86 1505.05 L1867.22 1505.05 L1849.11 1487.64 L1849.11 1505.05 L1843.23 1505.05 L1843.23 1455.53 Z" fill="#000000" fill-rule="evenodd" fill-opacity="1" /><path clip-path="url(#clip620)" d="M1887.88 1462.82 L1887.88 1480.67 L1895.97 1480.67 Q1900.45 1480.67 1902.9 1478.35 Q1905.35 1476.02 1905.35 1471.73 Q1905.35 1467.46 1902.9 1465.14 Q1900.45 1462.82 1895.97 1462.82 L1887.88 1462.82 M1881.45 1457.53 L1895.97 1457.53 Q1903.95 1457.53 1908.03 1461.16 Q1912.13 1464.76 1912.13 1471.73 Q1912.13 1478.76 1908.03 1482.36 Q1903.95 1485.95 1895.97 1485.95 L1887.88 1485.95 L1887.88 1505.05 L1881.45 1505.05 L1881.45 1457.53 Z" fill="#000000" fill-rule="evenodd" fill-opacity="1" /><path clip-path="url(#clip620)" d="M1933.78 1487.13 Q1926.68 1487.13 1923.94 1488.76 Q1921.21 1490.38 1921.21 1494.29 Q1921.21 1497.41 1923.24 1499.26 Q1925.31 1501.07 1928.84 1501.07 Q1933.71 1501.07 1936.64 1497.64 Q1939.6 1494.17 1939.6 1488.44 L1939.6 1487.13 L1933.78 1487.13 M1945.46 1484.71 L1945.46 1505.05 L1939.6 1505.05 L1939.6 1499.64 Q1937.6 1502.89 1934.61 1504.45 Q1931.61 1505.97 1927.28 1505.97 Q1921.81 1505.97 1918.56 1502.92 Q1915.35 1499.83 1915.35 1494.68 Q1915.35 1488.66 1919.36 1485.6 Q1923.4 1482.55 1931.39 1482.55 L1939.6 1482.55 L1939.6 1481.98 Q1939.6 1477.93 1936.93 1475.74 Q1934.29 1473.51 1929.48 1473.51 Q1926.43 1473.51 1923.53 1474.24 Q1920.63 1474.97 1917.96 1476.44 L1917.96 1471.03 Q1921.17 1469.79 1924.2 1469.18 Q1927.22 1468.54 1930.09 1468.54 Q1937.82 1468.54 1941.64 1472.55 Q1945.46 1476.57 1945.46 1484.71 Z" fill="#000000" fill-rule="evenodd" fill-opacity="1" /><path clip-path="url(#clip620)" d="M1956.6 1455.59 L1961.69 1455.59 Q1966.47 1463.1 1968.82 1470.29 Q1971.21 1477.49 1971.21 1484.59 Q1971.21 1491.72 1968.82 1498.94 Q1966.47 1506.17 1961.69 1513.65 L1956.6 1513.65 Q1960.83 1506.36 1962.9 1499.16 Q1965 1491.94 1965 1484.59 Q1965 1477.23 1962.9 1470.07 Q1960.83 1462.91 1956.6 1455.59 Z" fill="#000000" fill-rule="evenodd" fill-opacity="1" /><polyline clip-path="url(#clip623)" style="stroke:#000000; stroke-linecap:butt; stroke-linejoin:round; stroke-width:2; stroke-opacity:0.1; fill:none" points="
  1437.14,1326.97 2289.76,1326.97 
  "/>
<polyline clip-path="url(#clip623)" style="stroke:#000000; stroke-linecap:butt; stroke-linejoin:round; stroke-width:2; stroke-opacity:0.1; fill:none" points="
  1437.14,957.874 2289.76,957.874 
  "/>
<polyline clip-path="url(#clip623)" style="stroke:#000000; stroke-linecap:butt; stroke-linejoin:round; stroke-width:2; stroke-opacity:0.1; fill:none" points="
  1437.14,588.778 2289.76,588.778 
  "/>
<polyline clip-path="url(#clip623)" style="stroke:#000000; stroke-linecap:butt; stroke-linejoin:round; stroke-width:2; stroke-opacity:0.1; fill:none" points="
  1437.14,219.683 2289.76,219.683 
  "/>
<polyline clip-path="url(#clip620)" style="stroke:#000000; stroke-linecap:butt; stroke-linejoin:round; stroke-width:4; stroke-opacity:1; fill:none" points="
  1437.14,1360.19 1437.14,186.464 
  "/>
<polyline clip-path="url(#clip620)" style="stroke:#000000; stroke-linecap:butt; stroke-linejoin:round; stroke-width:4; stroke-opacity:1; fill:none" points="
  1437.14,1326.97 1456.04,1326.97 
  "/>
<polyline clip-path="url(#clip620)" style="stroke:#000000; stroke-linecap:butt; stroke-linejoin:round; stroke-width:4; stroke-opacity:1; fill:none" points="
  1437.14,957.874 1456.04,957.874 
  "/>
<polyline clip-path="url(#clip620)" style="stroke:#000000; stroke-linecap:butt; stroke-linejoin:round; stroke-width:4; stroke-opacity:1; fill:none" points="
  1437.14,588.778 1456.04,588.778 
  "/>
<polyline clip-path="url(#clip620)" style="stroke:#000000; stroke-linecap:butt; stroke-linejoin:round; stroke-width:4; stroke-opacity:1; fill:none" points="
  1437.14,219.683 1456.04,219.683 
  "/>
<path clip-path="url(#clip620)" d="M1389.2 1312.77 Q1385.59 1312.77 1383.76 1316.33 Q1381.95 1319.87 1381.95 1327 Q1381.95 1334.11 1383.76 1337.68 Q1385.59 1341.22 1389.2 1341.22 Q1392.83 1341.22 1394.64 1337.68 Q1396.47 1334.11 1396.47 1327 Q1396.47 1319.87 1394.64 1316.33 Q1392.83 1312.77 1389.2 1312.77 M1389.2 1309.06 Q1395.01 1309.06 1398.06 1313.67 Q1401.14 1318.25 1401.14 1327 Q1401.14 1335.73 1398.06 1340.34 Q1395.01 1344.92 1389.2 1344.92 Q1383.39 1344.92 1380.31 1340.34 Q1377.25 1335.73 1377.25 1327 Q1377.25 1318.25 1380.31 1313.67 Q1383.39 1309.06 1389.2 1309.06 Z" fill="#000000" fill-rule="evenodd" fill-opacity="1" /><path clip-path="url(#clip620)" d="M1381.23 971.219 L1388.87 971.219 L1388.87 944.853 L1380.56 946.52 L1380.56 942.26 L1388.83 940.594 L1393.5 940.594 L1393.5 971.219 L1401.14 971.219 L1401.14 975.154 L1381.23 975.154 L1381.23 971.219 Z" fill="#000000" fill-rule="evenodd" fill-opacity="1" /><path clip-path="url(#clip620)" d="M1384.82 602.123 L1401.14 602.123 L1401.14 606.058 L1379.2 606.058 L1379.2 602.123 Q1381.86 599.368 1386.44 594.739 Q1391.05 590.086 1392.23 588.744 Q1394.47 586.22 1395.35 584.484 Q1396.26 582.725 1396.26 581.035 Q1396.26 578.281 1394.31 576.545 Q1392.39 574.808 1389.29 574.808 Q1387.09 574.808 1384.64 575.572 Q1382.21 576.336 1379.43 577.887 L1379.43 573.165 Q1382.25 572.031 1384.71 571.452 Q1387.16 570.873 1389.2 570.873 Q1394.57 570.873 1397.76 573.558 Q1400.96 576.244 1400.96 580.734 Q1400.96 582.864 1400.15 584.785 Q1399.36 586.683 1397.25 589.276 Q1396.67 589.947 1393.57 593.165 Q1390.47 596.359 1384.82 602.123 Z" fill="#000000" fill-rule="evenodd" fill-opacity="1" /><path clip-path="url(#clip620)" d="M1394.01 218.329 Q1397.37 219.046 1399.24 221.315 Q1401.14 223.583 1401.14 226.917 Q1401.14 232.032 1397.62 234.833 Q1394.1 237.634 1387.62 237.634 Q1385.45 237.634 1383.13 237.194 Q1380.84 236.778 1378.39 235.921 L1378.39 231.407 Q1380.33 232.542 1382.65 233.12 Q1384.96 233.699 1387.48 233.699 Q1391.88 233.699 1394.17 231.963 Q1396.49 230.227 1396.49 226.917 Q1396.49 223.861 1394.34 222.148 Q1392.21 220.412 1388.39 220.412 L1384.36 220.412 L1384.36 216.569 L1388.57 216.569 Q1392.02 216.569 1393.85 215.204 Q1395.68 213.815 1395.68 211.222 Q1395.68 208.56 1393.78 207.148 Q1391.9 205.713 1388.39 205.713 Q1386.47 205.713 1384.27 206.13 Q1382.07 206.546 1379.43 207.426 L1379.43 203.259 Q1382.09 202.519 1384.41 202.148 Q1386.74 201.778 1388.8 201.778 Q1394.13 201.778 1397.23 204.208 Q1400.33 206.616 1400.33 210.736 Q1400.33 213.606 1398.69 215.597 Q1397.04 217.565 1394.01 218.329 Z" fill="#000000" fill-rule="evenodd" fill-opacity="1" /><path clip-path="url(#clip620)" d="M1291.35 871.851 L1291.35 844.033 L1296.7 844.033 L1322.32 866.058 L1322.32 844.033 L1327 844.033 L1327 872.647 L1321.65 872.647 L1296.03 850.622 L1296.03 871.851 L1291.35 871.851 Z" fill="#000000" fill-rule="evenodd" fill-opacity="1" /><path clip-path="url(#clip620)" d="M1277.53 800.301 Q1284.86 804.566 1292.02 806.635 Q1299.18 808.703 1306.53 808.703 Q1313.88 808.703 1321.11 806.635 Q1328.3 804.534 1335.59 800.301 L1335.59 805.393 Q1328.11 810.168 1320.89 812.555 Q1313.66 814.91 1306.53 814.91 Q1299.43 814.91 1292.24 812.555 Q1285.05 810.199 1277.53 805.393 L1277.53 800.301 Z" fill="#000000" fill-rule="evenodd" fill-opacity="1" /><path clip-path="url(#clip620)" d="M1277.47 789.161 L1277.47 783.272 L1306.72 783.272 L1291.35 765.799 L1291.35 758.319 L1308.03 777.225 L1327 757.523 L1327 765.162 L1309.59 783.272 L1327 783.272 L1327 789.161 L1277.47 789.161 Z" fill="#000000" fill-rule="evenodd" fill-opacity="1" /><path clip-path="url(#clip620)" d="M1298.19 723.435 Q1294.24 721.239 1292.37 718.183 Q1290.49 715.128 1290.49 710.99 Q1290.49 705.42 1294.4 702.396 Q1298.29 699.372 1305.48 699.372 L1327 699.372 L1327 705.261 L1305.67 705.261 Q1300.55 705.261 1298.06 707.075 Q1295.58 708.889 1295.58 712.613 Q1295.58 717.165 1298.61 719.806 Q1301.63 722.448 1306.85 722.448 L1327 722.448 L1327 728.336 L1305.67 728.336 Q1300.51 728.336 1298.06 730.151 Q1295.58 731.965 1295.58 735.752 Q1295.58 740.24 1298.64 742.882 Q1301.66 745.524 1306.85 745.524 L1327 745.524 L1327 751.412 L1291.35 751.412 L1291.35 745.524 L1296.89 745.524 Q1293.61 743.519 1292.05 740.718 Q1290.49 737.917 1290.49 734.065 Q1290.49 730.182 1292.46 727.477 Q1294.44 724.74 1298.19 723.435 Z" fill="#000000" fill-rule="evenodd" fill-opacity="1" /><path clip-path="url(#clip620)" d="M1277.53 688.614 L1277.53 683.522 Q1285.05 678.747 1292.24 676.392 Q1299.43 674.005 1306.53 674.005 Q1313.66 674.005 1320.89 676.392 Q1328.11 678.747 1335.59 683.522 L1335.59 688.614 Q1328.3 684.381 1321.11 682.312 Q1313.88 680.212 1306.53 680.212 Q1299.18 680.212 1292.02 682.312 Q1284.86 684.381 1277.53 688.614 Z" fill="#000000" fill-rule="evenodd" fill-opacity="1" /><path clip-path="url(#clip620)" d="M1733.8 65.7705 L1733.8 89.8329 L1726.31 89.8329 L1726.31 27.2059 L1733.8 27.2059 L1733.8 34.0924 Q1736.15 30.0415 1739.72 28.0971 Q1743.32 26.1121 1748.31 26.1121 Q1756.57 26.1121 1761.71 32.6746 Q1766.9 39.2371 1766.9 49.9314 Q1766.9 60.6258 1761.71 67.1883 Q1756.57 73.7508 1748.31 73.7508 Q1743.32 73.7508 1739.72 71.8063 Q1736.15 69.8214 1733.8 65.7705 M1759.16 49.9314 Q1759.16 41.7081 1755.76 37.0496 Q1752.4 32.3505 1746.48 32.3505 Q1740.57 32.3505 1737.17 37.0496 Q1733.8 41.7081 1733.8 49.9314 Q1733.8 58.1548 1737.17 62.8538 Q1740.57 67.5124 1746.48 67.5124 Q1752.4 67.5124 1755.76 62.8538 Q1759.16 58.1548 1759.16 49.9314 Z" fill="#000000" fill-rule="evenodd" fill-opacity="1" /><path clip-path="url(#clip620)" d="M1823.53 9.62495 Q1818.1 18.942 1815.47 28.0566 Q1812.84 37.1711 1812.84 46.5287 Q1812.84 55.8863 1815.47 65.0818 Q1818.14 74.2369 1823.53 83.5134 L1817.05 83.5134 Q1810.97 73.9938 1807.93 64.7983 Q1804.94 55.6027 1804.94 46.5287 Q1804.94 37.4952 1807.93 28.3401 Q1810.93 19.1851 1817.05 9.62495 L1823.53 9.62495 Z" fill="#000000" fill-rule="evenodd" fill-opacity="1" /><path clip-path="url(#clip620)" d="M1837.71 9.54393 L1845.2 9.54393 L1845.2 46.7717 L1867.44 27.2059 L1876.96 27.2059 L1852.9 48.4326 L1877.97 72.576 L1868.25 72.576 L1845.2 50.4176 L1845.2 72.576 L1837.71 72.576 L1837.71 9.54393 Z" fill="#000000" fill-rule="evenodd" fill-opacity="1" /><path clip-path="url(#clip620)" d="M1894.54 18.8205 L1894.54 41.5461 L1904.83 41.5461 Q1910.54 41.5461 1913.66 38.5889 Q1916.78 35.6318 1916.78 30.163 Q1916.78 24.7348 1913.66 21.7777 Q1910.54 18.8205 1904.83 18.8205 L1894.54 18.8205 M1886.36 12.096 L1904.83 12.096 Q1915 12.096 1920.19 16.714 Q1925.41 21.2916 1925.41 30.163 Q1925.41 39.1155 1920.19 43.6931 Q1915 48.2706 1904.83 48.2706 L1894.54 48.2706 L1894.54 72.576 L1886.36 72.576 L1886.36 12.096 Z" fill="#000000" fill-rule="evenodd" fill-opacity="1" /><path clip-path="url(#clip620)" d="M1952.96 49.7694 Q1943.92 49.7694 1940.44 51.8354 Q1936.96 53.9013 1936.96 58.8839 Q1936.96 62.8538 1939.55 65.2034 Q1942.18 67.5124 1946.68 67.5124 Q1952.88 67.5124 1956.6 63.1374 Q1960.37 58.7219 1960.37 51.4303 L1960.37 49.7694 L1952.96 49.7694 M1967.82 46.6907 L1967.82 72.576 L1960.37 72.576 L1960.37 65.6895 Q1957.82 69.8214 1954.01 71.8063 Q1950.2 73.7508 1944.69 73.7508 Q1937.73 73.7508 1933.59 69.8619 Q1929.5 65.9325 1929.5 59.3701 Q1929.5 51.7138 1934.61 47.825 Q1939.75 43.9361 1949.92 43.9361 L1960.37 43.9361 L1960.37 43.2069 Q1960.37 38.0623 1956.97 35.2672 Q1953.61 32.4315 1947.49 32.4315 Q1943.6 32.4315 1939.91 33.3632 Q1936.23 34.295 1932.82 36.1584 L1932.82 29.2718 Q1936.92 27.692 1940.76 26.9223 Q1944.61 26.1121 1948.26 26.1121 Q1958.1 26.1121 1962.96 31.2163 Q1967.82 36.3204 1967.82 46.6907 Z" fill="#000000" fill-rule="evenodd" fill-opacity="1" /><path clip-path="url(#clip620)" d="M1982 9.62495 L1988.48 9.62495 Q1994.56 19.1851 1997.56 28.3401 Q2000.6 37.4952 2000.6 46.5287 Q2000.6 55.6027 1997.56 64.7983 Q1994.56 73.9938 1988.48 83.5134 L1982 83.5134 Q1987.39 74.2369 1990.02 65.0818 Q1992.7 55.8863 1992.7 46.5287 Q1992.7 37.1711 1990.02 28.0566 Q1987.39 18.942 1982 9.62495 Z" fill="#000000" fill-rule="evenodd" fill-opacity="1" /><polyline clip-path="url(#clip623)" style="stroke:#009af9; stroke-linecap:butt; stroke-linejoin:round; stroke-width:4; stroke-opacity:1; fill:none" points="
  2257.91,1317.74 2242.53,1299.29 2227.23,1280.83 2211.99,1262.38 2196.83,1243.92 2181.74,1225.47 2166.73,1207.01 2151.78,1188.56 2136.91,1170.1 2122.11,1151.65 
  2107.38,1133.19 2092.72,1114.74 2078.13,1096.28 2063.61,1077.83 2049.16,1059.37 2034.78,1040.92 2020.47,1022.47 2006.24,1004.01 1992.06,985.556 1977.96,967.101 
  1963.93,948.646 1949.96,930.192 1936.06,911.737 1922.23,893.282 1908.47,874.827 1894.77,856.372 1881.14,837.918 1867.58,819.463 1854.08,801.008 1840.65,782.553 
  1827.29,764.099 1813.99,745.644 1800.75,727.189 1787.58,708.734 1774.48,690.28 1761.43,671.825 1748.46,653.37 1735.54,634.915 1722.69,616.46 1709.9,598.006 
  1697.18,579.551 1684.52,561.096 1671.92,542.641 1659.38,524.187 1646.91,505.732 1634.49,487.277 1622.14,468.822 1609.85,450.367 1597.62,431.913 1585.45,413.458 
  1573.34,395.003 1561.29,376.548 1549.31,358.094 1537.38,339.639 1525.51,321.184 1513.7,302.729 1501.94,284.275 1490.25,265.82 1478.62,247.365 1467.04,228.91 
  
  "/>
<polyline clip-path="url(#clip623)" style="stroke:#e26f46; stroke-linecap:butt; stroke-linejoin:round; stroke-width:4; stroke-opacity:1; fill:none" points="
  2265.63,1326.97 2250.22,1308.51 2234.87,1290.06 2219.6,1271.6 2204.4,1253.15 2189.28,1234.7 2174.22,1216.24 2159.24,1197.79 2144.34,1179.33 2129.5,1160.88 
  2114.73,1142.42 2100.04,1123.97 2085.41,1105.51 2070.86,1087.06 2056.38,1068.6 2041.96,1050.15 2027.62,1031.69 2013.35,1013.24 1999.14,994.783 1985,976.328 
  1970.94,957.874 1956.94,939.419 1943,920.964 1929.14,902.509 1915.34,884.055 1901.61,865.6 1887.95,847.145 1874.35,828.69 1860.82,810.236 1847.36,791.781 
  1833.96,773.326 1820.63,754.871 1807.36,736.416 1794.16,717.962 1781.02,699.507 1767.95,681.052 1754.94,662.597 1741.99,644.143 1729.11,625.688 1716.29,607.233 
  1703.53,588.778 1690.84,570.323 1678.21,551.869 1665.64,533.414 1653.14,514.959 1640.69,496.504 1628.31,478.05 1615.99,459.595 1603.73,441.14 1591.53,422.685 
  1579.39,404.231 1567.31,385.776 1555.29,367.321 1543.33,348.866 1531.43,330.411 1519.59,311.957 1507.81,293.502 1496.09,275.047 1484.43,256.592 1472.82,238.138 
  1461.27,219.683 
  "/>
<path clip-path="url(#clip620)" d="
M1994.32 381.108 L2261.34 381.108 L2261.34 225.588 L1994.32 225.588  Z
  " fill="#ffffff" fill-rule="evenodd" fill-opacity="1"/>
<polyline clip-path="url(#clip620)" style="stroke:#000000; stroke-linecap:butt; stroke-linejoin:round; stroke-width:4; stroke-opacity:1; fill:none" points="
  1994.32,381.108 2261.34,381.108 2261.34,225.588 1994.32,225.588 1994.32,381.108 
  "/>
<polyline clip-path="url(#clip620)" style="stroke:#009af9; stroke-linecap:butt; stroke-linejoin:round; stroke-width:4; stroke-opacity:1; fill:none" points="
  2003.79,277.428 2060.63,277.428 
  "/>
<path clip-path="url(#clip620)" d="M2090.61 269.778 L2090.61 273.759 Q2088.81 272.764 2086.98 272.278 Q2085.17 271.769 2083.32 271.769 Q2079.18 271.769 2076.89 274.408 Q2074.6 277.023 2074.6 281.769 Q2074.6 286.514 2076.89 289.153 Q2079.18 291.769 2083.32 291.769 Q2085.17 291.769 2086.98 291.282 Q2088.81 290.773 2090.61 289.778 L2090.61 293.713 Q2088.83 294.546 2086.91 294.963 Q2085.01 295.38 2082.86 295.38 Q2077 295.38 2073.55 291.699 Q2070.11 288.019 2070.11 281.769 Q2070.11 275.426 2073.58 271.792 Q2077.07 268.158 2083.14 268.158 Q2085.11 268.158 2086.98 268.574 Q2088.86 268.968 2090.61 269.778 Z" fill="#000000" fill-rule="evenodd" fill-opacity="1" /><path clip-path="url(#clip620)" d="M2120.2 280.681 L2120.2 282.764 L2100.61 282.764 Q2100.89 287.162 2103.25 289.477 Q2105.64 291.769 2109.87 291.769 Q2112.33 291.769 2114.62 291.167 Q2116.93 290.565 2119.2 289.361 L2119.2 293.389 Q2116.91 294.361 2114.5 294.87 Q2112.1 295.38 2109.62 295.38 Q2103.42 295.38 2099.78 291.769 Q2096.17 288.157 2096.17 282 Q2096.17 275.634 2099.6 271.908 Q2103.04 268.158 2108.88 268.158 Q2114.11 268.158 2117.14 271.537 Q2120.2 274.894 2120.2 280.681 M2115.94 279.431 Q2115.89 275.935 2113.97 273.852 Q2112.07 271.769 2108.92 271.769 Q2105.36 271.769 2103.21 273.783 Q2101.08 275.796 2100.75 279.454 L2115.94 279.431 Z" fill="#000000" fill-rule="evenodd" fill-opacity="1" /><path clip-path="url(#clip620)" d="M2148.74 279.06 L2148.74 294.708 L2144.48 294.708 L2144.48 279.199 Q2144.48 275.519 2143.04 273.69 Q2141.61 271.861 2138.74 271.861 Q2135.29 271.861 2133.3 274.06 Q2131.31 276.259 2131.31 280.056 L2131.31 294.708 L2127.03 294.708 L2127.03 268.783 L2131.31 268.783 L2131.31 272.81 Q2132.84 270.472 2134.9 269.315 Q2136.98 268.158 2139.69 268.158 Q2144.16 268.158 2146.45 270.935 Q2148.74 273.69 2148.74 279.06 Z" fill="#000000" fill-rule="evenodd" fill-opacity="1" /><path clip-path="url(#clip620)" d="M2161.45 261.422 L2161.45 268.783 L2170.22 268.783 L2170.22 272.093 L2161.45 272.093 L2161.45 286.167 Q2161.45 289.338 2162.3 290.241 Q2163.18 291.144 2165.85 291.144 L2170.22 291.144 L2170.22 294.708 L2165.85 294.708 Q2160.91 294.708 2159.04 292.88 Q2157.16 291.028 2157.16 286.167 L2157.16 272.093 L2154.04 272.093 L2154.04 268.783 L2157.16 268.783 L2157.16 261.422 L2161.45 261.422 Z" fill="#000000" fill-rule="evenodd" fill-opacity="1" /><path clip-path="url(#clip620)" d="M2198 280.681 L2198 282.764 L2178.41 282.764 Q2178.69 287.162 2181.05 289.477 Q2183.44 291.769 2187.67 291.769 Q2190.13 291.769 2192.42 291.167 Q2194.73 290.565 2197 289.361 L2197 293.389 Q2194.71 294.361 2192.3 294.87 Q2189.9 295.38 2187.42 295.38 Q2181.22 295.38 2177.58 291.769 Q2173.97 288.157 2173.97 282 Q2173.97 275.634 2177.4 271.908 Q2180.85 268.158 2186.68 268.158 Q2191.91 268.158 2194.94 271.537 Q2198 274.894 2198 280.681 M2193.74 279.431 Q2193.69 275.935 2191.77 273.852 Q2189.87 271.769 2186.72 271.769 Q2183.16 271.769 2181.01 273.783 Q2178.88 275.796 2178.55 279.454 L2193.74 279.431 Z" fill="#000000" fill-rule="evenodd" fill-opacity="1" /><path clip-path="url(#clip620)" d="M2220.01 272.764 Q2219.29 272.347 2218.44 272.162 Q2217.6 271.954 2216.59 271.954 Q2212.97 271.954 2211.03 274.315 Q2209.11 276.653 2209.11 281.051 L2209.11 294.708 L2204.83 294.708 L2204.83 268.783 L2209.11 268.783 L2209.11 272.81 Q2210.45 270.449 2212.6 269.315 Q2214.76 268.158 2217.84 268.158 Q2218.28 268.158 2218.81 268.227 Q2219.34 268.273 2219.99 268.389 L2220.01 272.764 Z" fill="#000000" fill-rule="evenodd" fill-opacity="1" /><path clip-path="url(#clip620)" d="M2241.01 269.546 L2241.01 273.574 Q2239.2 272.648 2237.26 272.185 Q2235.31 271.722 2233.23 271.722 Q2230.06 271.722 2228.46 272.695 Q2226.89 273.667 2226.89 275.611 Q2226.89 277.093 2228.02 277.949 Q2229.16 278.783 2232.58 279.546 L2234.04 279.87 Q2238.58 280.843 2240.47 282.625 Q2242.4 284.384 2242.4 287.556 Q2242.4 291.167 2239.53 293.273 Q2236.68 295.38 2231.68 295.38 Q2229.59 295.38 2227.33 294.963 Q2225.08 294.569 2222.58 293.759 L2222.58 289.361 Q2224.94 290.588 2227.23 291.213 Q2229.53 291.815 2231.77 291.815 Q2234.78 291.815 2236.4 290.796 Q2238.02 289.755 2238.02 287.88 Q2238.02 286.144 2236.84 285.218 Q2235.68 284.292 2231.72 283.435 L2230.24 283.088 Q2226.28 282.255 2224.53 280.542 Q2222.77 278.806 2222.77 275.796 Q2222.77 272.139 2225.36 270.148 Q2227.95 268.158 2232.72 268.158 Q2235.08 268.158 2237.16 268.505 Q2239.25 268.852 2241.01 269.546 Z" fill="#000000" fill-rule="evenodd" fill-opacity="1" /><polyline clip-path="url(#clip620)" style="stroke:#e26f46; stroke-linecap:butt; stroke-linejoin:round; stroke-width:4; stroke-opacity:1; fill:none" points="
  2003.79,329.268 2060.63,329.268 
  "/>
<path clip-path="url(#clip620)" d="M2086.61 310.53 L2086.61 314.072 L2082.54 314.072 Q2080.24 314.072 2079.34 314.998 Q2078.46 315.924 2078.46 318.331 L2078.46 320.623 L2085.48 320.623 L2085.48 323.933 L2078.46 323.933 L2078.46 346.548 L2074.18 346.548 L2074.18 323.933 L2070.11 323.933 L2070.11 320.623 L2074.18 320.623 L2074.18 318.817 Q2074.18 314.488 2076.19 312.521 Q2078.21 310.53 2082.58 310.53 L2086.61 310.53 Z" fill="#000000" fill-rule="evenodd" fill-opacity="1" /><path clip-path="url(#clip620)" d="M2101.96 333.516 Q2096.79 333.516 2094.8 334.697 Q2092.81 335.877 2092.81 338.724 Q2092.81 340.993 2094.29 342.335 Q2095.8 343.655 2098.37 343.655 Q2101.91 343.655 2104.04 341.155 Q2106.19 338.632 2106.19 334.465 L2106.19 333.516 L2101.96 333.516 M2110.45 331.757 L2110.45 346.548 L2106.19 346.548 L2106.19 342.613 Q2104.73 344.974 2102.56 346.109 Q2100.38 347.22 2097.23 347.22 Q2093.25 347.22 2090.89 344.997 Q2088.55 342.752 2088.55 339.002 Q2088.55 334.627 2091.47 332.405 Q2094.41 330.183 2100.22 330.183 L2106.19 330.183 L2106.19 329.766 Q2106.19 326.826 2104.25 325.229 Q2102.33 323.609 2098.83 323.609 Q2096.61 323.609 2094.5 324.141 Q2092.4 324.673 2090.45 325.738 L2090.45 321.803 Q2092.79 320.9 2094.99 320.461 Q2097.19 319.998 2099.27 319.998 Q2104.9 319.998 2107.67 322.914 Q2110.45 325.831 2110.45 331.757 Z" fill="#000000" fill-rule="evenodd" fill-opacity="1" /><path clip-path="url(#clip620)" d="M2137.88 321.618 L2137.88 325.599 Q2136.08 324.604 2134.25 324.118 Q2132.44 323.609 2130.59 323.609 Q2126.45 323.609 2124.16 326.248 Q2121.86 328.863 2121.86 333.609 Q2121.86 338.354 2124.16 340.993 Q2126.45 343.609 2130.59 343.609 Q2132.44 343.609 2134.25 343.122 Q2136.08 342.613 2137.88 341.618 L2137.88 345.553 Q2136.1 346.386 2134.18 346.803 Q2132.28 347.22 2130.13 347.22 Q2124.27 347.22 2120.82 343.539 Q2117.37 339.859 2117.37 333.609 Q2117.37 327.266 2120.85 323.632 Q2124.34 319.998 2130.41 319.998 Q2132.37 319.998 2134.25 320.414 Q2136.12 320.808 2137.88 321.618 Z" fill="#000000" fill-rule="evenodd" fill-opacity="1" /><path clip-path="url(#clip620)" d="M2167.47 332.521 L2167.47 334.604 L2147.88 334.604 Q2148.16 339.002 2150.52 341.317 Q2152.91 343.609 2157.14 343.609 Q2159.6 343.609 2161.89 343.007 Q2164.2 342.405 2166.47 341.201 L2166.47 345.229 Q2164.18 346.201 2161.77 346.71 Q2159.36 347.22 2156.89 347.22 Q2150.68 347.22 2147.05 343.609 Q2143.44 339.997 2143.44 333.84 Q2143.44 327.474 2146.86 323.748 Q2150.31 319.998 2156.15 319.998 Q2161.38 319.998 2164.41 323.377 Q2167.47 326.734 2167.47 332.521 M2163.21 331.271 Q2163.16 327.775 2161.24 325.692 Q2159.34 323.609 2156.19 323.609 Q2152.63 323.609 2150.48 325.623 Q2148.35 327.636 2148.02 331.294 L2163.21 331.271 Z" fill="#000000" fill-rule="evenodd" fill-opacity="1" /><path clip-path="url(#clip620)" d="M2190.98 321.386 L2190.98 325.414 Q2189.18 324.488 2187.23 324.025 Q2185.29 323.562 2183.21 323.562 Q2180.04 323.562 2178.44 324.535 Q2176.86 325.507 2176.86 327.451 Q2176.86 328.933 2178 329.789 Q2179.13 330.623 2182.56 331.386 L2184.02 331.71 Q2188.55 332.683 2190.45 334.465 Q2192.37 336.224 2192.37 339.396 Q2192.37 343.007 2189.5 345.113 Q2186.66 347.22 2181.66 347.22 Q2179.57 347.22 2177.3 346.803 Q2175.06 346.409 2172.56 345.599 L2172.56 341.201 Q2174.92 342.428 2177.21 343.053 Q2179.5 343.655 2181.75 343.655 Q2184.76 343.655 2186.38 342.636 Q2188 341.595 2188 339.72 Q2188 337.984 2186.82 337.058 Q2185.66 336.132 2181.7 335.275 L2180.22 334.928 Q2176.26 334.095 2174.5 332.382 Q2172.74 330.646 2172.74 327.636 Q2172.74 323.979 2175.34 321.988 Q2177.93 319.998 2182.7 319.998 Q2185.06 319.998 2187.14 320.345 Q2189.22 320.692 2190.98 321.386 Z" fill="#000000" fill-rule="evenodd" fill-opacity="1" /></svg>
