<?xml version="1.0" encoding="utf-8"?>
<svg xmlns="http://www.w3.org/2000/svg" xmlns:xlink="http://www.w3.org/1999/xlink" width="1000" height="400" viewBox="0 0 4000 1600">
<defs>
  <clipPath id="clip400">
    <rect x="0" y="0" width="4000" height="1600"/>
  </clipPath>
</defs>
<path clip-path="url(#clip400)" d="M0 1600 L4000 1600 L4000 0 L0 0  Z" fill="#ffffff" fill-rule="evenodd" fill-opacity="1"/>
<defs>
  <clipPath id="clip401">
    <rect x="800" y="0" width="2801" height="1600"/>
  </clipPath>
</defs>
<path clip-path="url(#clip400)" d="M262.212 1393.02 L1889.76 1393.02 L1889.76 162.272 L262.212 162.272  Z" fill="#ffffff" fill-rule="evenodd" fill-opacity="1"/>
<defs>
  <clipPath id="clip402">
    <rect x="262" y="162" width="1629" height="1232"/>
  </clipPath>
</defs>
<polyline clip-path="url(#clip402)" style="stroke:#000000; stroke-linecap:round; stroke-linejoin:round; stroke-width:2; stroke-opacity:0.1; fill:none" points="325.022,1393.02 325.022,162.272 "/>
<polyline clip-path="url(#clip402)" style="stroke:#000000; stroke-linecap:round; stroke-linejoin:round; stroke-width:2; stroke-opacity:0.1; fill:none" points="644.408,1393.02 644.408,162.272 "/>
<polyline clip-path="url(#clip402)" style="stroke:#000000; stroke-linecap:round; stroke-linejoin:round; stroke-width:2; stroke-opacity:0.1; fill:none" points="963.794,1393.02 963.794,162.272 "/>
<polyline clip-path="url(#clip402)" style="stroke:#000000; stroke-linecap:round; stroke-linejoin:round; stroke-width:2; stroke-opacity:0.1; fill:none" points="1283.18,1393.02 1283.18,162.272 "/>
<polyline clip-path="url(#clip402)" style="stroke:#000000; stroke-linecap:round; stroke-linejoin:round; stroke-width:2; stroke-opacity:0.1; fill:none" points="1602.57,1393.02 1602.57,162.272 "/>
<polyline clip-path="url(#clip402)" style="stroke:#000000; stroke-linecap:round; stroke-linejoin:round; stroke-width:2; stroke-opacity:0.1; fill:none" points="262.212,1358.19 1889.76,1358.19 "/>
<polyline clip-path="url(#clip402)" style="stroke:#000000; stroke-linecap:round; stroke-linejoin:round; stroke-width:2; stroke-opacity:0.1; fill:none" points="262.212,1004.2 1889.76,1004.2 "/>
<polyline clip-path="url(#clip402)" style="stroke:#000000; stroke-linecap:round; stroke-linejoin:round; stroke-width:2; stroke-opacity:0.1; fill:none" points="262.212,650.21 1889.76,650.21 "/>
<polyline clip-path="url(#clip402)" style="stroke:#000000; stroke-linecap:round; stroke-linejoin:round; stroke-width:2; stroke-opacity:0.1; fill:none" points="262.212,296.222 1889.76,296.222 "/>
<polyline clip-path="url(#clip400)" style="stroke:#000000; stroke-linecap:round; stroke-linejoin:round; stroke-width:4; stroke-opacity:1; fill:none" points="262.212,1393.02 1889.76,1393.02 "/>
<polyline clip-path="url(#clip400)" style="stroke:#000000; stroke-linecap:round; stroke-linejoin:round; stroke-width:4; stroke-opacity:1; fill:none" points="325.022,1393.02 325.022,1374.12 "/>
<polyline clip-path="url(#clip400)" style="stroke:#000000; stroke-linecap:round; stroke-linejoin:round; stroke-width:4; stroke-opacity:1; fill:none" points="644.408,1393.02 644.408,1374.12 "/>
<polyline clip-path="url(#clip400)" style="stroke:#000000; stroke-linecap:round; stroke-linejoin:round; stroke-width:4; stroke-opacity:1; fill:none" points="963.794,1393.02 963.794,1374.12 "/>
<polyline clip-path="url(#clip400)" style="stroke:#000000; stroke-linecap:round; stroke-linejoin:round; stroke-width:4; stroke-opacity:1; fill:none" points="1283.18,1393.02 1283.18,1374.12 "/>
<polyline clip-path="url(#clip400)" style="stroke:#000000; stroke-linecap:round; stroke-linejoin:round; stroke-width:4; stroke-opacity:1; fill:none" points="1602.57,1393.02 1602.57,1374.12 "/>
<path clip-path="url(#clip400)" d="M303.205 1436.74 Q299.594 1436.74 297.765 1440.3 Q295.96 1443.84 295.96 1450.97 Q295.96 1458.08 297.765 1461.65 Q299.594 1465.19 303.205 1465.19 Q306.839 1465.19 308.645 1461.65 Q310.473 1458.08 310.473 1450.97 Q310.473 1443.84 308.645 1440.3 Q306.839 1436.74 303.205 1436.74 M303.205 1433.03 Q309.015 1433.03 312.071 1437.64 Q315.149 1442.22 315.149 1450.97 Q315.149 1459.7 312.071 1464.31 Q309.015 1468.89 303.205 1468.89 Q297.395 1468.89 294.316 1464.31 Q291.26 1459.7 291.26 1450.97 Q291.26 1442.22 294.316 1437.64 Q297.395 1433.03 303.205 1433.03 Z" fill="#000000" fill-rule="nonzero" fill-opacity="1" /><path clip-path="url(#clip400)" d="M323.367 1462.34 L328.251 1462.34 L328.251 1468.22 L323.367 1468.22 L323.367 1462.34 Z" fill="#000000" fill-rule="nonzero" fill-opacity="1" /><path clip-path="url(#clip400)" d="M342.464 1464.28 L358.783 1464.28 L358.783 1468.22 L336.839 1468.22 L336.839 1464.28 Q339.501 1461.53 344.084 1456.9 Q348.691 1452.25 349.871 1450.9 Q352.117 1448.38 352.996 1446.65 Q353.899 1444.89 353.899 1443.2 Q353.899 1440.44 351.955 1438.71 Q350.033 1436.97 346.931 1436.97 Q344.732 1436.97 342.279 1437.73 Q339.848 1438.5 337.07 1440.05 L337.07 1435.33 Q339.894 1434.19 342.348 1433.61 Q344.802 1433.03 346.839 1433.03 Q352.209 1433.03 355.404 1435.72 Q358.598 1438.41 358.598 1442.9 Q358.598 1445.03 357.788 1446.95 Q357.001 1448.84 354.894 1451.44 Q354.316 1452.11 351.214 1455.33 Q348.112 1458.52 342.464 1464.28 Z" fill="#000000" fill-rule="nonzero" fill-opacity="1" /><path clip-path="url(#clip400)" d="M621.55 1436.74 Q617.938 1436.74 616.11 1440.3 Q614.304 1443.84 614.304 1450.97 Q614.304 1458.08 616.11 1461.65 Q617.938 1465.19 621.55 1465.19 Q625.184 1465.19 626.989 1461.65 Q628.818 1458.08 628.818 1450.97 Q628.818 1443.84 626.989 1440.3 Q625.184 1436.74 621.55 1436.74 M621.55 1433.03 Q627.36 1433.03 630.415 1437.64 Q633.494 1442.22 633.494 1450.97 Q633.494 1459.7 630.415 1464.31 Q627.36 1468.89 621.55 1468.89 Q615.739 1468.89 612.661 1464.31 Q609.605 1459.7 609.605 1450.97 Q609.605 1442.22 612.661 1437.64 Q615.739 1433.03 621.55 1433.03 Z" fill="#000000" fill-rule="nonzero" fill-opacity="1" /><path clip-path="url(#clip400)" d="M641.711 1462.34 L646.596 1462.34 L646.596 1468.22 L641.711 1468.22 L641.711 1462.34 Z" fill="#000000" fill-rule="nonzero" fill-opacity="1" /><path clip-path="url(#clip400)" d="M669.628 1437.73 L657.822 1456.18 L669.628 1456.18 L669.628 1437.73 M668.401 1433.66 L674.281 1433.66 L674.281 1456.18 L679.211 1456.18 L679.211 1460.07 L674.281 1460.07 L674.281 1468.22 L669.628 1468.22 L669.628 1460.07 L654.026 1460.07 L654.026 1455.56 L668.401 1433.66 Z" fill="#000000" fill-rule="nonzero" fill-opacity="1" /><path clip-path="url(#clip400)" d="M941.098 1436.74 Q937.487 1436.74 935.658 1440.3 Q933.853 1443.84 933.853 1450.97 Q933.853 1458.08 935.658 1461.65 Q937.487 1465.19 941.098 1465.19 Q944.732 1465.19 946.538 1461.65 Q948.366 1458.08 948.366 1450.97 Q948.366 1443.84 946.538 1440.3 Q944.732 1436.74 941.098 1436.74 M941.098 1433.03 Q946.908 1433.03 949.964 1437.64 Q953.042 1442.22 953.042 1450.97 Q953.042 1459.7 949.964 1464.31 Q946.908 1468.89 941.098 1468.89 Q935.288 1468.89 932.209 1464.31 Q929.153 1459.7 929.153 1450.97 Q929.153 1442.22 932.209 1437.64 Q935.288 1433.03 941.098 1433.03 Z" fill="#000000" fill-rule="nonzero" fill-opacity="1" /><path clip-path="url(#clip400)" d="M961.26 1462.34 L966.144 1462.34 L966.144 1468.22 L961.26 1468.22 L961.26 1462.34 Z" fill="#000000" fill-rule="nonzero" fill-opacity="1" /><path clip-path="url(#clip400)" d="M986.908 1449.08 Q983.76 1449.08 981.908 1451.23 Q980.079 1453.38 980.079 1457.13 Q980.079 1460.86 981.908 1463.03 Q983.76 1465.19 986.908 1465.19 Q990.056 1465.19 991.885 1463.03 Q993.736 1460.86 993.736 1457.13 Q993.736 1453.38 991.885 1451.23 Q990.056 1449.08 986.908 1449.08 M996.19 1434.42 L996.19 1438.68 Q994.431 1437.85 992.625 1437.41 Q990.843 1436.97 989.084 1436.97 Q984.454 1436.97 982 1440.09 Q979.57 1443.22 979.223 1449.54 Q980.588 1447.53 982.649 1446.46 Q984.709 1445.37 987.186 1445.37 Q992.394 1445.37 995.403 1448.54 Q998.436 1451.69 998.436 1457.13 Q998.436 1462.46 995.287 1465.67 Q992.139 1468.89 986.908 1468.89 Q980.912 1468.89 977.741 1464.31 Q974.57 1459.7 974.57 1450.97 Q974.57 1442.78 978.459 1437.92 Q982.348 1433.03 988.899 1433.03 Q990.658 1433.03 992.44 1433.38 Q994.246 1433.73 996.19 1434.42 Z" fill="#000000" fill-rule="nonzero" fill-opacity="1" /><path clip-path="url(#clip400)" d="M1260.61 1436.74 Q1257 1436.74 1255.17 1440.3 Q1253.37 1443.84 1253.37 1450.97 Q1253.37 1458.08 1255.17 1461.65 Q1257 1465.19 1260.61 1465.19 Q1264.25 1465.19 1266.05 1461.65 Q1267.88 1458.08 1267.88 1450.97 Q1267.88 1443.84 1266.05 1440.3 Q1264.25 1436.74 1260.61 1436.74 M1260.61 1433.03 Q1266.42 1433.03 1269.48 1437.64 Q1272.56 1442.22 1272.56 1450.97 Q1272.56 1459.7 1269.48 1464.31 Q1266.42 1468.89 1260.61 1468.89 Q1254.8 1468.89 1251.72 1464.31 Q1248.67 1459.7 1248.67 1450.97 Q1248.67 1442.22 1251.72 1437.64 Q1254.8 1433.03 1260.61 1433.03 Z" fill="#000000" fill-rule="nonzero" fill-opacity="1" /><path clip-path="url(#clip400)" d="M1280.77 1462.34 L1285.66 1462.34 L1285.66 1468.22 L1280.77 1468.22 L1280.77 1462.34 Z" fill="#000000" fill-rule="nonzero" fill-opacity="1" /><path clip-path="url(#clip400)" d="M1305.84 1451.81 Q1302.51 1451.81 1300.59 1453.59 Q1298.69 1455.37 1298.69 1458.5 Q1298.69 1461.62 1300.59 1463.4 Q1302.51 1465.19 1305.84 1465.19 Q1309.18 1465.19 1311.1 1463.4 Q1313.02 1461.6 1313.02 1458.5 Q1313.02 1455.37 1311.1 1453.59 Q1309.2 1451.81 1305.84 1451.81 M1301.17 1449.82 Q1298.16 1449.08 1296.47 1447.02 Q1294.8 1444.96 1294.8 1441.99 Q1294.8 1437.85 1297.74 1435.44 Q1300.7 1433.03 1305.84 1433.03 Q1311 1433.03 1313.94 1435.44 Q1316.88 1437.85 1316.88 1441.99 Q1316.88 1444.96 1315.19 1447.02 Q1313.53 1449.08 1310.54 1449.82 Q1313.92 1450.6 1315.8 1452.9 Q1317.69 1455.19 1317.69 1458.5 Q1317.69 1463.52 1314.62 1466.21 Q1311.56 1468.89 1305.84 1468.89 Q1300.13 1468.89 1297.05 1466.21 Q1293.99 1463.52 1293.99 1458.5 Q1293.99 1455.19 1295.89 1452.9 Q1297.79 1450.6 1301.17 1449.82 M1299.45 1442.43 Q1299.45 1445.12 1301.12 1446.62 Q1302.81 1448.13 1305.84 1448.13 Q1308.85 1448.13 1310.54 1446.62 Q1312.25 1445.12 1312.25 1442.43 Q1312.25 1439.75 1310.54 1438.24 Q1308.85 1436.74 1305.84 1436.74 Q1302.81 1436.74 1301.12 1438.24 Q1299.45 1439.75 1299.45 1442.43 Z" fill="#000000" fill-rule="nonzero" fill-opacity="1" /><path clip-path="url(#clip400)" d="M1569.72 1464.28 L1577.36 1464.28 L1577.36 1437.92 L1569.05 1439.59 L1569.05 1435.33 L1577.31 1433.66 L1581.99 1433.66 L1581.99 1464.28 L1589.63 1464.28 L1589.63 1468.22 L1569.72 1468.22 L1569.72 1464.28 Z" fill="#000000" fill-rule="nonzero" fill-opacity="1" /><path clip-path="url(#clip400)" d="M1599.07 1462.34 L1603.96 1462.34 L1603.96 1468.22 L1599.07 1468.22 L1599.07 1462.34 Z" fill="#000000" fill-rule="nonzero" fill-opacity="1" /><path clip-path="url(#clip400)" d="M1624.14 1436.74 Q1620.53 1436.74 1618.7 1440.3 Q1616.9 1443.84 1616.9 1450.97 Q1616.9 1458.08 1618.7 1461.65 Q1620.53 1465.19 1624.14 1465.19 Q1627.78 1465.19 1629.58 1461.65 Q1631.41 1458.08 1631.41 1450.97 Q1631.41 1443.84 1629.58 1440.3 Q1627.78 1436.74 1624.14 1436.74 M1624.14 1433.03 Q1629.95 1433.03 1633.01 1437.64 Q1636.09 1442.22 1636.09 1450.97 Q1636.09 1459.7 1633.01 1464.31 Q1629.95 1468.89 1624.14 1468.89 Q1618.33 1468.89 1615.25 1464.31 Q1612.2 1459.7 1612.2 1450.97 Q1612.2 1442.22 1615.25 1437.64 Q1618.33 1433.03 1624.14 1433.03 Z" fill="#000000" fill-rule="nonzero" fill-opacity="1" /><path clip-path="url(#clip400)" d="M1062.91 1532.6 Q1064.85 1529.35 1069.65 1526.49 Q1071.53 1525.38 1077.32 1525.38 Q1083.82 1525.38 1087.86 1530.53 Q1091.93 1535.69 1091.93 1544.09 Q1091.93 1552.49 1087.86 1557.65 Q1083.82 1562.81 1077.32 1562.81 Q1073.41 1562.81 1070.58 1561.28 Q1067.78 1559.72 1065.93 1556.54 L1065.93 1575.44 L1060.04 1575.44 L1060.04 1544.41 Q1060.04 1537.06 1062.91 1532.6 M1085.85 1544.09 Q1085.85 1537.63 1083.18 1533.97 Q1080.54 1530.28 1075.89 1530.28 Q1071.25 1530.28 1068.57 1533.97 Q1065.93 1537.63 1065.93 1544.09 Q1065.93 1550.55 1068.57 1554.24 Q1071.25 1557.91 1075.89 1557.91 Q1080.54 1557.91 1083.18 1554.24 Q1085.85 1550.55 1085.85 1544.09 Z" fill="#000000" fill-rule="nonzero" fill-opacity="1" /><polyline clip-path="url(#clip400)" style="stroke:#000000; stroke-linecap:round; stroke-linejoin:round; stroke-width:4; stroke-opacity:1; fill:none" points="262.212,1393.02 262.212,162.272 "/>
<polyline clip-path="url(#clip400)" style="stroke:#000000; stroke-linecap:round; stroke-linejoin:round; stroke-width:4; stroke-opacity:1; fill:none" points="262.212,1358.19 281.109,1358.19 "/>
<polyline clip-path="url(#clip400)" style="stroke:#000000; stroke-linecap:round; stroke-linejoin:round; stroke-width:4; stroke-opacity:1; fill:none" points="262.212,1004.2 281.109,1004.2 "/>
<polyline clip-path="url(#clip400)" style="stroke:#000000; stroke-linecap:round; stroke-linejoin:round; stroke-width:4; stroke-opacity:1; fill:none" points="262.212,650.21 281.109,650.21 "/>
<polyline clip-path="url(#clip400)" style="stroke:#000000; stroke-linecap:round; stroke-linejoin:round; stroke-width:4; stroke-opacity:1; fill:none" points="262.212,296.222 281.109,296.222 "/>
<path clip-path="url(#clip400)" d="M190.267 1343.99 Q186.656 1343.99 184.827 1347.55 Q183.022 1351.09 183.022 1358.22 Q183.022 1365.33 184.827 1368.89 Q186.656 1372.43 190.267 1372.43 Q193.901 1372.43 195.707 1368.89 Q197.536 1365.33 197.536 1358.22 Q197.536 1351.09 195.707 1347.55 Q193.901 1343.99 190.267 1343.99 M190.267 1340.28 Q196.077 1340.28 199.133 1344.89 Q202.212 1349.47 202.212 1358.22 Q202.212 1366.95 199.133 1371.56 Q196.077 1376.14 190.267 1376.14 Q184.457 1376.14 181.378 1371.56 Q178.323 1366.95 178.323 1358.22 Q178.323 1349.47 181.378 1344.89 Q184.457 1340.28 190.267 1340.28 Z" fill="#000000" fill-rule="nonzero" fill-opacity="1" /><path clip-path="url(#clip400)" d="M181.309 986.919 L199.665 986.919 L199.665 990.854 L185.591 990.854 L185.591 999.326 Q186.61 998.979 187.628 998.817 Q188.647 998.632 189.665 998.632 Q195.452 998.632 198.832 1001.8 Q202.212 1004.97 202.212 1010.39 Q202.212 1015.97 198.739 1019.07 Q195.267 1022.15 188.948 1022.15 Q186.772 1022.15 184.503 1021.78 Q182.258 1021.41 179.851 1020.67 L179.851 1015.97 Q181.934 1017.1 184.156 1017.66 Q186.378 1018.21 188.855 1018.21 Q192.86 1018.21 195.198 1016.11 Q197.536 1014 197.536 1010.39 Q197.536 1006.78 195.198 1004.67 Q192.86 1002.57 188.855 1002.57 Q186.98 1002.57 185.105 1002.98 Q183.253 1003.4 181.309 1004.28 L181.309 986.919 Z" fill="#000000" fill-rule="nonzero" fill-opacity="1" /><path clip-path="url(#clip400)" d="M150.916 663.555 L158.554 663.555 L158.554 637.189 L150.244 638.856 L150.244 634.597 L158.508 632.93 L163.184 632.93 L163.184 663.555 L170.823 663.555 L170.823 667.49 L150.916 667.49 L150.916 663.555 Z" fill="#000000" fill-rule="nonzero" fill-opacity="1" /><path clip-path="url(#clip400)" d="M190.267 636.009 Q186.656 636.009 184.827 639.574 Q183.022 643.115 183.022 650.245 Q183.022 657.351 184.827 660.916 Q186.656 664.458 190.267 664.458 Q193.901 664.458 195.707 660.916 Q197.536 657.351 197.536 650.245 Q197.536 643.115 195.707 639.574 Q193.901 636.009 190.267 636.009 M190.267 632.305 Q196.077 632.305 199.133 636.912 Q202.212 641.495 202.212 650.245 Q202.212 658.972 199.133 663.578 Q196.077 668.161 190.267 668.161 Q184.457 668.161 181.378 663.578 Q178.323 658.972 178.323 650.245 Q178.323 641.495 181.378 636.912 Q184.457 632.305 190.267 632.305 Z" fill="#000000" fill-rule="nonzero" fill-opacity="1" /><path clip-path="url(#clip400)" d="M151.911 309.566 L159.55 309.566 L159.55 283.201 L151.24 284.867 L151.24 280.608 L159.503 278.942 L164.179 278.942 L164.179 309.566 L171.818 309.566 L171.818 313.502 L151.911 313.502 L151.911 309.566 Z" fill="#000000" fill-rule="nonzero" fill-opacity="1" /><path clip-path="url(#clip400)" d="M181.309 278.942 L199.665 278.942 L199.665 282.877 L185.591 282.877 L185.591 291.349 Q186.61 291.002 187.628 290.84 Q188.647 290.654 189.665 290.654 Q195.452 290.654 198.832 293.826 Q202.212 296.997 202.212 302.414 Q202.212 307.992 198.739 311.094 Q195.267 314.173 188.948 314.173 Q186.772 314.173 184.503 313.802 Q182.258 313.432 179.851 312.691 L179.851 307.992 Q181.934 309.127 184.156 309.682 Q186.378 310.238 188.855 310.238 Q192.86 310.238 195.198 308.131 Q197.536 306.025 197.536 302.414 Q197.536 298.803 195.198 296.696 Q192.86 294.59 188.855 294.59 Q186.98 294.59 185.105 295.006 Q183.253 295.423 181.309 296.303 L181.309 278.942 Z" fill="#000000" fill-rule="nonzero" fill-opacity="1" /><path clip-path="url(#clip400)" d="M40.3403 876.171 L40.3403 848.353 L45.6875 848.353 L71.3095 870.378 L71.3095 848.353 L75.9883 848.353 L75.9883 876.967 L70.6411 876.967 L45.0191 854.942 L45.0191 876.171 L40.3403 876.171 Z" fill="#000000" fill-rule="nonzero" fill-opacity="1" /><path clip-path="url(#clip400)" d="M26.5267 804.621 Q33.8473 808.886 41.0087 810.955 Q48.1701 813.023 55.5225 813.023 Q62.8749 813.023 70.1 810.955 Q77.2933 808.854 84.582 804.621 L84.582 809.713 Q77.1023 814.488 69.8772 816.875 Q62.6521 819.23 55.5225 819.23 Q48.4248 819.23 41.2315 816.875 Q34.0383 814.519 26.5267 809.713 L26.5267 804.621 Z" fill="#000000" fill-rule="nonzero" fill-opacity="1" /><path clip-path="url(#clip400)" d="M26.4631 793.481 L26.4631 787.592 L55.7135 787.592 L40.3403 770.119 L40.3403 762.639 L57.0185 781.545 L75.9883 761.843 L75.9883 769.482 L58.5781 787.592 L75.9883 787.592 L75.9883 793.481 L26.4631 793.481 Z" fill="#000000" fill-rule="nonzero" fill-opacity="1" /><path clip-path="url(#clip400)" d="M47.1835 727.755 Q43.2367 725.559 41.3588 722.503 Q39.481 719.448 39.481 715.31 Q39.481 709.74 43.3959 706.716 Q47.2789 703.692 54.4722 703.692 L75.9883 703.692 L75.9883 709.581 L54.6632 709.581 Q49.5388 709.581 47.0561 711.395 Q44.5735 713.209 44.5735 716.933 Q44.5735 721.485 47.5972 724.126 Q50.6209 726.768 55.8408 726.768 L75.9883 726.768 L75.9883 732.656 L54.6632 732.656 Q49.5069 732.656 47.0561 734.471 Q44.5735 736.285 44.5735 740.072 Q44.5735 744.56 47.6291 747.202 Q50.6528 749.844 55.8408 749.844 L75.9883 749.844 L75.9883 755.732 L40.3403 755.732 L40.3403 749.844 L45.8785 749.844 Q42.6002 747.839 41.0406 745.038 Q39.481 742.237 39.481 738.385 Q39.481 734.502 41.4543 731.797 Q43.4277 729.06 47.1835 727.755 Z" fill="#000000" fill-rule="nonzero" fill-opacity="1" /><path clip-path="url(#clip400)" d="M26.5267 692.934 L26.5267 687.842 Q34.0383 683.067 41.2315 680.712 Q48.4248 678.325 55.5225 678.325 Q62.6521 678.325 69.8772 680.712 Q77.1023 683.067 84.582 687.842 L84.582 692.934 Q77.2933 688.701 70.1 686.632 Q62.8749 684.532 55.5225 684.532 Q48.1701 684.532 41.0087 686.632 Q33.8473 688.701 26.5267 692.934 Z" fill="#000000" fill-rule="nonzero" fill-opacity="1" /><path clip-path="url(#clip400)" d="M1059.34 35.3077 Q1061.81 31.1758 1067.93 27.5299 Q1070.32 26.1121 1077.69 26.1121 Q1085.95 26.1121 1091.1 32.6746 Q1096.28 39.2371 1096.28 49.9314 Q1096.28 60.6258 1091.1 67.1883 Q1085.95 73.7508 1077.69 73.7508 Q1072.71 73.7508 1069.1 71.8063 Q1065.54 69.8214 1063.19 65.7705 L1063.19 89.8329 L1055.69 89.8329 L1055.69 50.3365 Q1055.69 40.9789 1059.34 35.3077 M1088.55 49.9314 Q1088.55 41.7081 1085.14 37.0496 Q1081.78 32.3505 1075.87 32.3505 Q1069.95 32.3505 1066.55 37.0496 Q1063.19 41.7081 1063.19 49.9314 Q1063.19 58.1548 1066.55 62.8538 Q1069.95 67.5124 1075.87 67.5124 Q1081.78 67.5124 1085.14 62.8538 Q1088.55 58.1548 1088.55 49.9314 Z" fill="#000000" fill-rule="nonzero" fill-opacity="1" /><polyline clip-path="url(#clip402)" style="stroke:#009af9; stroke-linecap:round; stroke-linejoin:round; stroke-width:4; stroke-opacity:1; fill:none" points="1826.03,1351.11 1791.07,1336.95 1756.68,1322.79 1722.86,1308.63 1689.58,1294.47 1656.86,1280.31 1624.66,1266.15 1593,1251.99 1561.86,1237.83 1531.25,1223.67 1501.14,1209.51 1471.54,1195.35 1442.43,1181.19 1413.82,1167.03 1385.7,1152.87 1358.06,1138.71 1330.89,1124.55 1304.19,1110.4 1277.95,1096.24 1252.17,1082.08 1226.85,1067.92 1201.96,1053.76 1177.52,1039.6 1153.51,1025.44 1129.92,1011.28 1106.76,997.119 1084.02,982.959 1061.52,968.8 1039.38,954.64 1017.63,940.481 996.266,926.321 975.283,912.162 954.677,898.002 934.445,883.843 914.582,869.683 895.084,855.523 875.948,841.364 857.169,827.204 838.744,813.045 820.668,798.885 802.937,784.726 785.547,770.566 768.493,756.407 751.772,742.247 735.379,728.088 719.309,713.928 703.558,699.768 688.121,685.609 672.993,671.449 658.169,657.29 643.644,643.13 629.412,628.971 615.469,614.811 601.807,600.652 588.422,586.492 575.307,572.333 562.455,558.173 549.861,544.014 537.517,529.854 525.417,515.694 513.865,501.535 502.588,487.375 491.511,473.216 480.627,459.056 469.929,444.897 459.412,430.737 449.068,416.578 438.894,402.418 428.884,388.259 419.034,374.099 409.341,359.939 399.801,345.78 390.41,331.62 381.167,317.461 372.069,303.301 363.114,289.142 354.3,274.982 345.625,260.823 337.088,246.663 328.688,232.504 320.422,218.344 312.29,204.184 "/>
<polyline clip-path="url(#clip402)" style="stroke:#e26f46; stroke-linecap:round; stroke-linejoin:round; stroke-width:4; stroke-opacity:1; fill:none" points="1843.7,1358.19 1808.47,1344.03 1773.81,1329.87 1739.7,1315.71 1706.15,1301.55 1673.15,1287.39 1640.69,1273.23 1608.77,1259.07 1577.37,1244.91 1546.49,1230.75 1516.13,1216.59 1486.27,1202.43 1456.92,1188.27 1428.07,1174.11 1399.7,1159.95 1371.82,1145.79 1344.42,1131.63 1317.48,1117.48 1291.01,1103.32 1265.01,1089.16 1239.45,1075 1214.35,1060.84 1189.68,1046.68 1165.46,1032.52 1141.66,1018.36 1118.29,1004.2 1095.34,990.039 1072.73,975.88 1050.4,961.72 1028.46,947.56 1006.9,933.401 985.727,919.241 964.933,905.082 944.515,890.922 924.468,876.763 904.788,862.603 885.471,848.444 866.514,834.284 847.912,820.125 829.662,805.965 811.759,791.806 794.199,777.646 776.978,763.486 760.092,749.327 743.535,735.167 727.304,721.008 711.394,706.848 695.8,692.689 680.518,678.529 665.543,664.37 650.869,650.21 636.492,636.051 622.405,621.891 608.603,607.731 595.081,593.572 581.831,579.412 568.848,565.253 556.126,551.093 543.658,536.934 531.437,522.774 519.581,508.615 508.201,494.455 497.025,480.296 486.045,466.136 475.255,451.976 464.648,437.817 454.219,423.657 443.96,409.498 433.869,395.338 423.94,381.179 414.168,367.019 404.552,352.86 395.087,338.7 385.77,324.541 376.6,310.381 367.574,296.222 358.689,282.062 349.945,267.902 341.339,253.743 332.871,239.583 324.538,225.424 316.34,211.264 308.274,197.105 "/>
<path clip-path="url(#clip400)" d="M1500.47 358.817 L1835.51 358.817 L1835.51 203.297 L1500.47 203.297  Z" fill="#ffffff" fill-rule="evenodd" fill-opacity="1"/>
<polyline clip-path="url(#clip400)" style="stroke:#000000; stroke-linecap:round; stroke-linejoin:round; stroke-width:4; stroke-opacity:1; fill:none" points="1500.47,358.817 1835.51,358.817 1835.51,203.297 1500.47,203.297 1500.47,358.817 "/>
<polyline clip-path="url(#clip400)" style="stroke:#009af9; stroke-linecap:round; stroke-linejoin:round; stroke-width:4; stroke-opacity:1; fill:none" points="1518.55,255.137 1627.05,255.137 "/>
<path clip-path="url(#clip400)" d="M1665.65 247.487 L1665.65 251.468 Q1663.84 250.473 1662.01 249.987 Q1660.21 249.477 1658.35 249.477 Q1654.21 249.477 1651.92 252.116 Q1649.63 254.732 1649.63 259.477 Q1649.63 264.223 1651.92 266.862 Q1654.21 269.477 1658.35 269.477 Q1660.21 269.477 1662.01 268.991 Q1663.84 268.482 1665.65 267.487 L1665.65 271.422 Q1663.86 272.255 1661.94 272.672 Q1660.04 273.088 1657.89 273.088 Q1652.04 273.088 1648.59 269.408 Q1645.14 265.727 1645.14 259.477 Q1645.14 253.135 1648.61 249.501 Q1652.1 245.866 1658.17 245.866 Q1660.14 245.866 1662.01 246.283 Q1663.89 246.677 1665.65 247.487 Z" fill="#000000" fill-rule="nonzero" fill-opacity="1" /><path clip-path="url(#clip400)" d="M1695.23 258.389 L1695.23 260.473 L1675.65 260.473 Q1675.92 264.871 1678.29 267.186 Q1680.67 269.477 1684.91 269.477 Q1687.36 269.477 1689.65 268.876 Q1691.97 268.274 1694.23 267.07 L1694.23 271.098 Q1691.94 272.07 1689.54 272.579 Q1687.13 273.088 1684.65 273.088 Q1678.45 273.088 1674.81 269.477 Q1671.2 265.866 1671.2 259.709 Q1671.2 253.343 1674.63 249.616 Q1678.08 245.866 1683.91 245.866 Q1689.14 245.866 1692.17 249.246 Q1695.23 252.602 1695.23 258.389 M1690.97 257.139 Q1690.92 253.644 1689 251.561 Q1687.1 249.477 1683.96 249.477 Q1680.39 249.477 1678.24 251.491 Q1676.11 253.505 1675.79 257.163 L1690.97 257.139 Z" fill="#000000" fill-rule="nonzero" fill-opacity="1" /><path clip-path="url(#clip400)" d="M1723.77 256.769 L1723.77 272.417 L1719.51 272.417 L1719.51 256.908 Q1719.51 253.227 1718.08 251.399 Q1716.64 249.57 1713.77 249.57 Q1710.32 249.57 1708.33 251.769 Q1706.34 253.968 1706.34 257.764 L1706.34 272.417 L1702.06 272.417 L1702.06 246.491 L1706.34 246.491 L1706.34 250.519 Q1707.87 248.181 1709.93 247.024 Q1712.01 245.866 1714.72 245.866 Q1719.19 245.866 1721.48 248.644 Q1723.77 251.399 1723.77 256.769 Z" fill="#000000" fill-rule="nonzero" fill-opacity="1" /><path clip-path="url(#clip400)" d="M1736.48 239.13 L1736.48 246.491 L1745.25 246.491 L1745.25 249.802 L1736.48 249.802 L1736.48 263.876 Q1736.48 267.047 1737.34 267.95 Q1738.22 268.852 1740.88 268.852 L1745.25 268.852 L1745.25 272.417 L1740.88 272.417 Q1735.95 272.417 1734.07 270.588 Q1732.2 268.737 1732.2 263.876 L1732.2 249.802 L1729.07 249.802 L1729.07 246.491 L1732.2 246.491 L1732.2 239.13 L1736.48 239.13 Z" fill="#000000" fill-rule="nonzero" fill-opacity="1" /><path clip-path="url(#clip400)" d="M1773.03 258.389 L1773.03 260.473 L1753.45 260.473 Q1753.72 264.871 1756.09 267.186 Q1758.47 269.477 1762.71 269.477 Q1765.16 269.477 1767.45 268.876 Q1769.77 268.274 1772.03 267.07 L1772.03 271.098 Q1769.74 272.07 1767.34 272.579 Q1764.93 273.088 1762.45 273.088 Q1756.25 273.088 1752.61 269.477 Q1749 265.866 1749 259.709 Q1749 253.343 1752.43 249.616 Q1755.88 245.866 1761.71 245.866 Q1766.94 245.866 1769.97 249.246 Q1773.03 252.602 1773.03 258.389 M1768.77 257.139 Q1768.72 253.644 1766.8 251.561 Q1764.91 249.477 1761.76 249.477 Q1758.19 249.477 1756.04 251.491 Q1753.91 253.505 1753.59 257.163 L1768.77 257.139 Z" fill="#000000" fill-rule="nonzero" fill-opacity="1" /><path clip-path="url(#clip400)" d="M1795.04 250.473 Q1794.33 250.056 1793.47 249.871 Q1792.64 249.663 1791.62 249.663 Q1788.01 249.663 1786.06 252.024 Q1784.14 254.362 1784.14 258.76 L1784.14 272.417 L1779.86 272.417 L1779.86 246.491 L1784.14 246.491 L1784.14 250.519 Q1785.48 248.158 1787.64 247.024 Q1789.79 245.866 1792.87 245.866 Q1793.31 245.866 1793.84 245.936 Q1794.37 245.982 1795.02 246.098 L1795.04 250.473 Z" fill="#000000" fill-rule="nonzero" fill-opacity="1" /><path clip-path="url(#clip400)" d="M1816.04 247.255 L1816.04 251.283 Q1814.23 250.357 1812.29 249.894 Q1810.34 249.431 1808.26 249.431 Q1805.09 249.431 1803.49 250.403 Q1801.92 251.376 1801.92 253.32 Q1801.92 254.802 1803.05 255.658 Q1804.19 256.491 1807.61 257.255 L1809.07 257.579 Q1813.61 258.552 1815.51 260.334 Q1817.43 262.093 1817.43 265.264 Q1817.43 268.876 1814.56 270.982 Q1811.71 273.088 1806.71 273.088 Q1804.63 273.088 1802.36 272.672 Q1800.11 272.278 1797.61 271.468 L1797.61 267.07 Q1799.97 268.297 1802.27 268.922 Q1804.56 269.524 1806.8 269.524 Q1809.81 269.524 1811.43 268.505 Q1813.05 267.463 1813.05 265.589 Q1813.05 263.852 1811.87 262.926 Q1810.72 262.001 1806.76 261.144 L1805.28 260.797 Q1801.32 259.964 1799.56 258.251 Q1797.8 256.514 1797.8 253.505 Q1797.8 249.848 1800.39 247.857 Q1802.98 245.866 1807.75 245.866 Q1810.11 245.866 1812.2 246.214 Q1814.28 246.561 1816.04 247.255 Z" fill="#000000" fill-rule="nonzero" fill-opacity="1" /><polyline clip-path="url(#clip400)" style="stroke:#e26f46; stroke-linecap:round; stroke-linejoin:round; stroke-width:4; stroke-opacity:1; fill:none" points="1518.55,306.977 1627.05,306.977 "/>
<path clip-path="url(#clip400)" d="M1661.64 288.239 L1661.64 291.78 L1657.57 291.78 Q1655.28 291.78 1654.37 292.706 Q1653.49 293.632 1653.49 296.04 L1653.49 298.331 L1660.51 298.331 L1660.51 301.642 L1653.49 301.642 L1653.49 324.257 L1649.21 324.257 L1649.21 301.642 L1645.14 301.642 L1645.14 298.331 L1649.21 298.331 L1649.21 296.526 Q1649.21 292.197 1651.23 290.23 Q1653.24 288.239 1657.61 288.239 L1661.64 288.239 Z" fill="#000000" fill-rule="nonzero" fill-opacity="1" /><path clip-path="url(#clip400)" d="M1676.99 311.225 Q1671.83 311.225 1669.84 312.405 Q1667.85 313.586 1667.85 316.433 Q1667.85 318.702 1669.33 320.044 Q1670.83 321.364 1673.4 321.364 Q1676.94 321.364 1679.07 318.864 Q1681.23 316.341 1681.23 312.174 L1681.23 311.225 L1676.99 311.225 M1685.48 309.466 L1685.48 324.257 L1681.23 324.257 L1681.23 320.322 Q1679.77 322.683 1677.59 323.817 Q1675.41 324.928 1672.27 324.928 Q1668.29 324.928 1665.92 322.706 Q1663.59 320.461 1663.59 316.711 Q1663.59 312.336 1666.5 310.114 Q1669.44 307.892 1675.25 307.892 L1681.23 307.892 L1681.23 307.475 Q1681.23 304.535 1679.28 302.938 Q1677.36 301.317 1673.86 301.317 Q1671.64 301.317 1669.54 301.85 Q1667.43 302.382 1665.48 303.447 L1665.48 299.512 Q1667.82 298.609 1670.02 298.169 Q1672.22 297.706 1674.3 297.706 Q1679.93 297.706 1682.71 300.623 Q1685.48 303.54 1685.48 309.466 Z" fill="#000000" fill-rule="nonzero" fill-opacity="1" /><path clip-path="url(#clip400)" d="M1712.91 299.327 L1712.91 303.308 Q1711.11 302.313 1709.28 301.827 Q1707.48 301.317 1705.62 301.317 Q1701.48 301.317 1699.19 303.956 Q1696.9 306.572 1696.9 311.317 Q1696.9 316.063 1699.19 318.702 Q1701.48 321.317 1705.62 321.317 Q1707.48 321.317 1709.28 320.831 Q1711.11 320.322 1712.91 319.327 L1712.91 323.262 Q1711.13 324.095 1709.21 324.512 Q1707.31 324.928 1705.16 324.928 Q1699.3 324.928 1695.85 321.248 Q1692.41 317.567 1692.41 311.317 Q1692.41 304.975 1695.88 301.341 Q1699.37 297.706 1705.44 297.706 Q1707.41 297.706 1709.28 298.123 Q1711.16 298.517 1712.91 299.327 Z" fill="#000000" fill-rule="nonzero" fill-opacity="1" /><path clip-path="url(#clip400)" d="M1742.5 310.229 L1742.5 312.313 L1722.91 312.313 Q1723.19 316.711 1725.55 319.026 Q1727.94 321.317 1732.17 321.317 Q1734.63 321.317 1736.92 320.716 Q1739.23 320.114 1741.5 318.91 L1741.5 322.938 Q1739.21 323.91 1736.8 324.419 Q1734.4 324.928 1731.92 324.928 Q1725.72 324.928 1722.08 321.317 Q1718.47 317.706 1718.47 311.549 Q1718.47 305.183 1721.9 301.456 Q1725.35 297.706 1731.18 297.706 Q1736.41 297.706 1739.44 301.086 Q1742.5 304.442 1742.5 310.229 M1738.24 308.979 Q1738.19 305.484 1736.27 303.401 Q1734.37 301.317 1731.22 301.317 Q1727.66 301.317 1725.51 303.331 Q1723.38 305.345 1723.05 309.003 L1738.24 308.979 Z" fill="#000000" fill-rule="nonzero" fill-opacity="1" /><path clip-path="url(#clip400)" d="M1766.02 299.095 L1766.02 303.123 Q1764.21 302.197 1762.27 301.734 Q1760.32 301.271 1758.24 301.271 Q1755.07 301.271 1753.47 302.243 Q1751.9 303.216 1751.9 305.16 Q1751.9 306.642 1753.03 307.498 Q1754.16 308.331 1757.59 309.095 L1759.05 309.419 Q1763.59 310.392 1765.48 312.174 Q1767.41 313.933 1767.41 317.104 Q1767.41 320.716 1764.53 322.822 Q1761.69 324.928 1756.69 324.928 Q1754.6 324.928 1752.34 324.512 Q1750.09 324.118 1747.59 323.308 L1747.59 318.91 Q1749.95 320.137 1752.24 320.762 Q1754.53 321.364 1756.78 321.364 Q1759.79 321.364 1761.41 320.345 Q1763.03 319.303 1763.03 317.429 Q1763.03 315.692 1761.85 314.766 Q1760.69 313.841 1756.73 312.984 L1755.25 312.637 Q1751.29 311.804 1749.53 310.091 Q1747.78 308.354 1747.78 305.345 Q1747.78 301.688 1750.37 299.697 Q1752.96 297.706 1757.73 297.706 Q1760.09 297.706 1762.17 298.054 Q1764.26 298.401 1766.02 299.095 Z" fill="#000000" fill-rule="nonzero" fill-opacity="1" /><path clip-path="url(#clip400)" d="M2262.21 1393.02 L3889.76 1393.02 L3889.76 162.272 L2262.21 162.272  Z" fill="#ffffff" fill-rule="evenodd" fill-opacity="1"/>
<defs>
  <clipPath id="clip403">
    <rect x="2262" y="162" width="1629" height="1232"/>
  </clipPath>
</defs>
<polyline clip-path="url(#clip403)" style="stroke:#000000; stroke-linecap:round; stroke-linejoin:round; stroke-width:2; stroke-opacity:0.1; fill:none" points="2477.36,1393.02 2477.36,162.272 "/>
<polyline clip-path="url(#clip403)" style="stroke:#000000; stroke-linecap:round; stroke-linejoin:round; stroke-width:2; stroke-opacity:0.1; fill:none" points="2822.7,1393.02 2822.7,162.272 "/>
<polyline clip-path="url(#clip403)" style="stroke:#000000; stroke-linecap:round; stroke-linejoin:round; stroke-width:2; stroke-opacity:0.1; fill:none" points="3168.04,1393.02 3168.04,162.272 "/>
<polyline clip-path="url(#clip403)" style="stroke:#000000; stroke-linecap:round; stroke-linejoin:round; stroke-width:2; stroke-opacity:0.1; fill:none" points="3513.38,1393.02 3513.38,162.272 "/>
<polyline clip-path="url(#clip403)" style="stroke:#000000; stroke-linecap:round; stroke-linejoin:round; stroke-width:2; stroke-opacity:0.1; fill:none" points="3858.72,1393.02 3858.72,162.272 "/>
<polyline clip-path="url(#clip403)" style="stroke:#000000; stroke-linecap:round; stroke-linejoin:round; stroke-width:2; stroke-opacity:0.1; fill:none" points="2262.21,1358.19 3889.76,1358.19 "/>
<polyline clip-path="url(#clip403)" style="stroke:#000000; stroke-linecap:round; stroke-linejoin:round; stroke-width:2; stroke-opacity:0.1; fill:none" points="2262.21,1004.2 3889.76,1004.2 "/>
<polyline clip-path="url(#clip403)" style="stroke:#000000; stroke-linecap:round; stroke-linejoin:round; stroke-width:2; stroke-opacity:0.1; fill:none" points="2262.21,650.21 3889.76,650.21 "/>
<polyline clip-path="url(#clip403)" style="stroke:#000000; stroke-linecap:round; stroke-linejoin:round; stroke-width:2; stroke-opacity:0.1; fill:none" points="2262.21,296.222 3889.76,296.222 "/>
<polyline clip-path="url(#clip400)" style="stroke:#000000; stroke-linecap:round; stroke-linejoin:round; stroke-width:4; stroke-opacity:1; fill:none" points="2262.21,1393.02 3889.76,1393.02 "/>
<polyline clip-path="url(#clip400)" style="stroke:#000000; stroke-linecap:round; stroke-linejoin:round; stroke-width:4; stroke-opacity:1; fill:none" points="2477.36,1393.02 2477.36,1374.12 "/>
<polyline clip-path="url(#clip400)" style="stroke:#000000; stroke-linecap:round; stroke-linejoin:round; stroke-width:4; stroke-opacity:1; fill:none" points="2822.7,1393.02 2822.7,1374.12 "/>
<polyline clip-path="url(#clip400)" style="stroke:#000000; stroke-linecap:round; stroke-linejoin:round; stroke-width:4; stroke-opacity:1; fill:none" points="3168.04,1393.02 3168.04,1374.12 "/>
<polyline clip-path="url(#clip400)" style="stroke:#000000; stroke-linecap:round; stroke-linejoin:round; stroke-width:4; stroke-opacity:1; fill:none" points="3513.38,1393.02 3513.38,1374.12 "/>
<polyline clip-path="url(#clip400)" style="stroke:#000000; stroke-linecap:round; stroke-linejoin:round; stroke-width:4; stroke-opacity:1; fill:none" points="3858.72,1393.02 3858.72,1374.12 "/>
<path clip-path="url(#clip400)" d="M2456.13 1464.28 L2472.45 1464.28 L2472.45 1468.22 L2450.5 1468.22 L2450.5 1464.28 Q2453.17 1461.53 2457.75 1456.9 Q2462.36 1452.25 2463.54 1450.9 Q2465.78 1448.38 2466.66 1446.65 Q2467.56 1444.89 2467.56 1443.2 Q2467.56 1440.44 2465.62 1438.71 Q2463.7 1436.97 2460.6 1436.97 Q2458.4 1436.97 2455.94 1437.73 Q2453.51 1438.5 2450.74 1440.05 L2450.74 1435.33 Q2453.56 1434.19 2456.01 1433.61 Q2458.47 1433.03 2460.5 1433.03 Q2465.87 1433.03 2469.07 1435.72 Q2472.26 1438.41 2472.26 1442.9 Q2472.26 1445.03 2471.45 1446.95 Q2470.67 1448.84 2468.56 1451.44 Q2467.98 1452.11 2464.88 1455.33 Q2461.78 1458.52 2456.13 1464.28 Z" fill="#000000" fill-rule="nonzero" fill-opacity="1" /><path clip-path="url(#clip400)" d="M2492.26 1436.74 Q2488.65 1436.74 2486.82 1440.3 Q2485.02 1443.84 2485.02 1450.97 Q2485.02 1458.08 2486.82 1461.65 Q2488.65 1465.19 2492.26 1465.19 Q2495.9 1465.19 2497.7 1461.65 Q2499.53 1458.08 2499.53 1450.97 Q2499.53 1443.84 2497.7 1440.3 Q2495.9 1436.74 2492.26 1436.74 M2492.26 1433.03 Q2498.07 1433.03 2501.13 1437.64 Q2504.21 1442.22 2504.21 1450.97 Q2504.21 1459.7 2501.13 1464.31 Q2498.07 1468.89 2492.26 1468.89 Q2486.45 1468.89 2483.37 1464.31 Q2480.32 1459.7 2480.32 1450.97 Q2480.32 1442.22 2483.37 1437.64 Q2486.45 1433.03 2492.26 1433.03 Z" fill="#000000" fill-rule="nonzero" fill-opacity="1" /><path clip-path="url(#clip400)" d="M2810.87 1437.73 L2799.06 1456.18 L2810.87 1456.18 L2810.87 1437.73 M2809.64 1433.66 L2815.52 1433.66 L2815.52 1456.18 L2820.45 1456.18 L2820.45 1460.07 L2815.52 1460.07 L2815.52 1468.22 L2810.87 1468.22 L2810.87 1460.07 L2795.27 1460.07 L2795.27 1455.56 L2809.64 1433.66 Z" fill="#000000" fill-rule="nonzero" fill-opacity="1" /><path clip-path="url(#clip400)" d="M2838.18 1436.74 Q2834.57 1436.74 2832.74 1440.3 Q2830.94 1443.84 2830.94 1450.97 Q2830.94 1458.08 2832.74 1461.65 Q2834.57 1465.19 2838.18 1465.19 Q2841.82 1465.19 2843.62 1461.65 Q2845.45 1458.08 2845.45 1450.97 Q2845.45 1443.84 2843.62 1440.3 Q2841.82 1436.74 2838.18 1436.74 M2838.18 1433.03 Q2843.99 1433.03 2847.05 1437.64 Q2850.13 1442.22 2850.13 1450.97 Q2850.13 1459.7 2847.05 1464.31 Q2843.99 1468.89 2838.18 1468.89 Q2832.37 1468.89 2829.29 1464.31 Q2826.24 1459.7 2826.24 1450.97 Q2826.24 1442.22 2829.29 1437.64 Q2832.37 1433.03 2838.18 1433.03 Z" fill="#000000" fill-rule="nonzero" fill-opacity="1" /><path clip-path="url(#clip400)" d="M3153.44 1449.08 Q3150.3 1449.08 3148.44 1451.23 Q3146.62 1453.38 3146.62 1457.13 Q3146.62 1460.86 3148.44 1463.03 Q3150.3 1465.19 3153.44 1465.19 Q3156.59 1465.19 3158.42 1463.03 Q3160.27 1460.86 3160.27 1457.13 Q3160.27 1453.38 3158.42 1451.23 Q3156.59 1449.08 3153.44 1449.08 M3162.73 1434.42 L3162.73 1438.68 Q3160.97 1437.85 3159.16 1437.41 Q3157.38 1436.97 3155.62 1436.97 Q3150.99 1436.97 3148.54 1440.09 Q3146.11 1443.22 3145.76 1449.54 Q3147.13 1447.53 3149.19 1446.46 Q3151.25 1445.37 3153.72 1445.37 Q3158.93 1445.37 3161.94 1448.54 Q3164.97 1451.69 3164.97 1457.13 Q3164.97 1462.46 3161.82 1465.67 Q3158.68 1468.89 3153.44 1468.89 Q3147.45 1468.89 3144.28 1464.31 Q3141.11 1459.7 3141.11 1450.97 Q3141.11 1442.78 3145 1437.92 Q3148.88 1433.03 3155.44 1433.03 Q3157.19 1433.03 3158.98 1433.38 Q3160.78 1433.73 3162.73 1434.42 Z" fill="#000000" fill-rule="nonzero" fill-opacity="1" /><path clip-path="url(#clip400)" d="M3183.03 1436.74 Q3179.42 1436.74 3177.59 1440.3 Q3175.78 1443.84 3175.78 1450.97 Q3175.78 1458.08 3177.59 1461.65 Q3179.42 1465.19 3183.03 1465.19 Q3186.66 1465.19 3188.47 1461.65 Q3190.3 1458.08 3190.3 1450.97 Q3190.3 1443.84 3188.47 1440.3 Q3186.66 1436.74 3183.03 1436.74 M3183.03 1433.03 Q3188.84 1433.03 3191.89 1437.64 Q3194.97 1442.22 3194.97 1450.97 Q3194.97 1459.7 3191.89 1464.31 Q3188.84 1468.89 3183.03 1468.89 Q3177.22 1468.89 3174.14 1464.31 Q3171.08 1459.7 3171.08 1450.97 Q3171.08 1442.22 3174.14 1437.64 Q3177.22 1433.03 3183.03 1433.03 Z" fill="#000000" fill-rule="nonzero" fill-opacity="1" /><path clip-path="url(#clip400)" d="M3498.25 1451.81 Q3494.92 1451.81 3493 1453.59 Q3491.1 1455.37 3491.1 1458.5 Q3491.1 1461.62 3493 1463.4 Q3494.92 1465.19 3498.25 1465.19 Q3501.59 1465.19 3503.51 1463.4 Q3505.43 1461.6 3505.43 1458.5 Q3505.43 1455.37 3503.51 1453.59 Q3501.61 1451.81 3498.25 1451.81 M3493.58 1449.82 Q3490.57 1449.08 3488.88 1447.02 Q3487.21 1444.96 3487.21 1441.99 Q3487.21 1437.85 3490.15 1435.44 Q3493.12 1433.03 3498.25 1433.03 Q3503.42 1433.03 3506.36 1435.44 Q3509.3 1437.85 3509.3 1441.99 Q3509.3 1444.96 3507.61 1447.02 Q3505.94 1449.08 3502.95 1449.82 Q3506.33 1450.6 3508.21 1452.9 Q3510.11 1455.19 3510.11 1458.5 Q3510.11 1463.52 3507.03 1466.21 Q3503.97 1468.89 3498.25 1468.89 Q3492.54 1468.89 3489.46 1466.21 Q3486.4 1463.52 3486.4 1458.5 Q3486.4 1455.19 3488.3 1452.9 Q3490.2 1450.6 3493.58 1449.82 M3491.87 1442.43 Q3491.87 1445.12 3493.53 1446.62 Q3495.22 1448.13 3498.25 1448.13 Q3501.26 1448.13 3502.95 1446.62 Q3504.67 1445.12 3504.67 1442.43 Q3504.67 1439.75 3502.95 1438.24 Q3501.26 1436.74 3498.25 1436.74 Q3495.22 1436.74 3493.53 1438.24 Q3491.87 1439.75 3491.87 1442.43 Z" fill="#000000" fill-rule="nonzero" fill-opacity="1" /><path clip-path="url(#clip400)" d="M3528.42 1436.74 Q3524.8 1436.74 3522.98 1440.3 Q3521.17 1443.84 3521.17 1450.97 Q3521.17 1458.08 3522.98 1461.65 Q3524.8 1465.19 3528.42 1465.19 Q3532.05 1465.19 3533.86 1461.65 Q3535.68 1458.08 3535.68 1450.97 Q3535.68 1443.84 3533.86 1440.3 Q3532.05 1436.74 3528.42 1436.74 M3528.42 1433.03 Q3534.23 1433.03 3537.28 1437.64 Q3540.36 1442.22 3540.36 1450.97 Q3540.36 1459.7 3537.28 1464.31 Q3534.23 1468.89 3528.42 1468.89 Q3522.61 1468.89 3519.53 1464.31 Q3516.47 1459.7 3516.47 1450.97 Q3516.47 1442.22 3519.53 1437.64 Q3522.61 1433.03 3528.42 1433.03 Z" fill="#000000" fill-rule="nonzero" fill-opacity="1" /><path clip-path="url(#clip400)" d="M3818.33 1464.28 L3825.97 1464.28 L3825.97 1437.92 L3817.66 1439.59 L3817.66 1435.33 L3825.92 1433.66 L3830.6 1433.66 L3830.6 1464.28 L3838.24 1464.28 L3838.24 1468.22 L3818.33 1468.22 L3818.33 1464.28 Z" fill="#000000" fill-rule="nonzero" fill-opacity="1" /><path clip-path="url(#clip400)" d="M3857.68 1436.74 Q3854.07 1436.74 3852.24 1440.3 Q3850.44 1443.84 3850.44 1450.97 Q3850.44 1458.08 3852.24 1461.65 Q3854.07 1465.19 3857.68 1465.19 Q3861.32 1465.19 3863.12 1461.65 Q3864.95 1458.08 3864.95 1450.97 Q3864.95 1443.84 3863.12 1440.3 Q3861.32 1436.74 3857.68 1436.74 M3857.68 1433.03 Q3863.49 1433.03 3866.55 1437.64 Q3869.63 1442.22 3869.63 1450.97 Q3869.63 1459.7 3866.55 1464.31 Q3863.49 1468.89 3857.68 1468.89 Q3851.87 1468.89 3848.79 1464.31 Q3845.74 1459.7 3845.74 1450.97 Q3845.74 1442.22 3848.79 1437.64 Q3851.87 1433.03 3857.68 1433.03 Z" fill="#000000" fill-rule="nonzero" fill-opacity="1" /><path clip-path="url(#clip400)" d="M3887.84 1436.74 Q3884.23 1436.74 3882.4 1440.3 Q3880.6 1443.84 3880.6 1450.97 Q3880.6 1458.08 3882.4 1461.65 Q3884.23 1465.19 3887.84 1465.19 Q3891.48 1465.19 3893.28 1461.65 Q3895.11 1458.08 3895.11 1450.97 Q3895.11 1443.84 3893.28 1440.3 Q3891.48 1436.74 3887.84 1436.74 M3887.84 1433.03 Q3893.65 1433.03 3896.71 1437.64 Q3899.79 1442.22 3899.79 1450.97 Q3899.79 1459.7 3896.71 1464.31 Q3893.65 1468.89 3887.84 1468.89 Q3882.03 1468.89 3878.95 1464.31 Q3875.9 1459.7 3875.9 1450.97 Q3875.9 1442.22 3878.95 1437.64 Q3882.03 1433.03 3887.84 1433.03 Z" fill="#000000" fill-rule="nonzero" fill-opacity="1" /><path clip-path="url(#clip400)" d="M2974.12 1556.54 L2974.12 1575.44 L2968.23 1575.44 L2968.23 1526.24 L2974.12 1526.24 L2974.12 1531.65 Q2975.97 1528.46 2978.77 1526.94 Q2981.6 1525.38 2985.52 1525.38 Q2992.01 1525.38 2996.05 1530.53 Q3000.12 1535.69 3000.12 1544.09 Q3000.12 1552.49 2996.05 1557.65 Q2992.01 1562.81 2985.52 1562.81 Q2981.6 1562.81 2978.77 1561.28 Q2975.97 1559.72 2974.12 1556.54 M2994.05 1544.09 Q2994.05 1537.63 2991.37 1533.97 Q2988.73 1530.28 2984.08 1530.28 Q2979.44 1530.28 2976.76 1533.97 Q2974.12 1537.63 2974.12 1544.09 Q2974.12 1550.55 2976.76 1554.24 Q2979.44 1557.91 2984.08 1557.91 Q2988.73 1557.91 2991.37 1554.24 Q2994.05 1550.55 2994.05 1544.09 Z" fill="#000000" fill-rule="nonzero" fill-opacity="1" /><path clip-path="url(#clip400)" d="M3044.62 1512.42 Q3040.36 1519.74 3038.29 1526.9 Q3036.22 1534.07 3036.22 1541.42 Q3036.22 1548.77 3038.29 1556 Q3040.39 1563.19 3044.62 1570.48 L3039.53 1570.48 Q3034.75 1563 3032.37 1555.77 Q3030.01 1548.55 3030.01 1541.42 Q3030.01 1534.32 3032.37 1527.13 Q3034.72 1519.93 3039.53 1512.42 L3044.62 1512.42 Z" fill="#000000" fill-rule="nonzero" fill-opacity="1" /><path clip-path="url(#clip400)" d="M3055.76 1512.36 L3061.65 1512.36 L3061.65 1541.61 L3079.12 1526.24 L3086.6 1526.24 L3067.7 1542.91 L3087.4 1561.88 L3079.76 1561.88 L3061.65 1544.47 L3061.65 1561.88 L3055.76 1561.88 L3055.76 1512.36 Z" fill="#000000" fill-rule="nonzero" fill-opacity="1" /><path clip-path="url(#clip400)" d="M3100.42 1519.65 L3100.42 1537.5 L3108.5 1537.5 Q3112.99 1537.5 3115.44 1535.18 Q3117.89 1532.86 3117.89 1528.56 Q3117.89 1524.29 3115.44 1521.97 Q3112.99 1519.65 3108.5 1519.65 L3100.42 1519.65 M3093.99 1514.36 L3108.5 1514.36 Q3116.49 1514.36 3120.56 1517.99 Q3124.67 1521.59 3124.67 1528.56 Q3124.67 1535.59 3120.56 1539.19 Q3116.49 1542.79 3108.5 1542.79 L3100.42 1542.79 L3100.42 1561.88 L3093.99 1561.88 L3093.99 1514.36 Z" fill="#000000" fill-rule="nonzero" fill-opacity="1" /><path clip-path="url(#clip400)" d="M3146.31 1543.96 Q3139.22 1543.96 3136.48 1545.59 Q3133.74 1547.21 3133.74 1551.13 Q3133.74 1554.24 3135.78 1556.09 Q3137.85 1557.91 3141.38 1557.91 Q3146.25 1557.91 3149.18 1554.47 Q3152.14 1551 3152.14 1545.27 L3152.14 1543.96 L3146.31 1543.96 M3157.99 1541.55 L3157.99 1561.88 L3152.14 1561.88 L3152.14 1556.47 Q3150.13 1559.72 3147.14 1561.28 Q3144.15 1562.81 3139.82 1562.81 Q3134.35 1562.81 3131.1 1559.75 Q3127.88 1556.66 3127.88 1551.51 Q3127.88 1545.49 3131.89 1542.44 Q3135.94 1539.38 3143.93 1539.38 L3152.14 1539.38 L3152.14 1538.81 Q3152.14 1534.77 3149.46 1532.57 Q3146.82 1530.34 3142.02 1530.34 Q3138.96 1530.34 3136.06 1531.07 Q3133.17 1531.81 3130.49 1533.27 L3130.49 1527.86 Q3133.71 1526.62 3136.73 1526.01 Q3139.76 1525.38 3142.62 1525.38 Q3150.36 1525.38 3154.17 1529.39 Q3157.99 1533.4 3157.99 1541.55 Z" fill="#000000" fill-rule="nonzero" fill-opacity="1" /><path clip-path="url(#clip400)" d="M3169.13 1512.42 L3174.23 1512.42 Q3179 1519.93 3181.36 1527.13 Q3183.74 1534.32 3183.74 1541.42 Q3183.74 1548.55 3181.36 1555.77 Q3179 1563 3174.23 1570.48 L3169.13 1570.48 Q3173.37 1563.19 3175.44 1556 Q3177.54 1548.77 3177.54 1541.42 Q3177.54 1534.07 3175.44 1526.9 Q3173.37 1519.74 3169.13 1512.42 Z" fill="#000000" fill-rule="nonzero" fill-opacity="1" /><polyline clip-path="url(#clip400)" style="stroke:#000000; stroke-linecap:round; stroke-linejoin:round; stroke-width:4; stroke-opacity:1; fill:none" points="2262.21,1393.02 2262.21,162.272 "/>
<polyline clip-path="url(#clip400)" style="stroke:#000000; stroke-linecap:round; stroke-linejoin:round; stroke-width:4; stroke-opacity:1; fill:none" points="2262.21,1358.19 2281.11,1358.19 "/>
<polyline clip-path="url(#clip400)" style="stroke:#000000; stroke-linecap:round; stroke-linejoin:round; stroke-width:4; stroke-opacity:1; fill:none" points="2262.21,1004.2 2281.11,1004.2 "/>
<polyline clip-path="url(#clip400)" style="stroke:#000000; stroke-linecap:round; stroke-linejoin:round; stroke-width:4; stroke-opacity:1; fill:none" points="2262.21,650.21 2281.11,650.21 "/>
<polyline clip-path="url(#clip400)" style="stroke:#000000; stroke-linecap:round; stroke-linejoin:round; stroke-width:4; stroke-opacity:1; fill:none" points="2262.21,296.222 2281.11,296.222 "/>
<path clip-path="url(#clip400)" d="M2190.27 1343.99 Q2186.66 1343.99 2184.83 1347.55 Q2183.02 1351.09 2183.02 1358.22 Q2183.02 1365.33 2184.83 1368.89 Q2186.66 1372.43 2190.27 1372.43 Q2193.9 1372.43 2195.71 1368.89 Q2197.54 1365.33 2197.54 1358.22 Q2197.54 1351.09 2195.71 1347.55 Q2193.9 1343.99 2190.27 1343.99 M2190.27 1340.28 Q2196.08 1340.28 2199.13 1344.89 Q2202.21 1349.47 2202.21 1358.22 Q2202.21 1366.95 2199.13 1371.56 Q2196.08 1376.14 2190.27 1376.14 Q2184.46 1376.14 2181.38 1371.56 Q2178.32 1366.95 2178.32 1358.22 Q2178.32 1349.47 2181.38 1344.89 Q2184.46 1340.28 2190.27 1340.28 Z" fill="#000000" fill-rule="nonzero" fill-opacity="1" /><path clip-path="url(#clip400)" d="M2181.31 986.919 L2199.67 986.919 L2199.67 990.854 L2185.59 990.854 L2185.59 999.326 Q2186.61 998.979 2187.63 998.817 Q2188.65 998.632 2189.67 998.632 Q2195.45 998.632 2198.83 1001.8 Q2202.21 1004.97 2202.21 1010.39 Q2202.21 1015.97 2198.74 1019.07 Q2195.27 1022.15 2188.95 1022.15 Q2186.77 1022.15 2184.5 1021.78 Q2182.26 1021.41 2179.85 1020.67 L2179.85 1015.97 Q2181.93 1017.1 2184.16 1017.66 Q2186.38 1018.21 2188.86 1018.21 Q2192.86 1018.21 2195.2 1016.11 Q2197.54 1014 2197.54 1010.39 Q2197.54 1006.78 2195.2 1004.67 Q2192.86 1002.57 2188.86 1002.57 Q2186.98 1002.57 2185.11 1002.98 Q2183.25 1003.4 2181.31 1004.28 L2181.31 986.919 Z" fill="#000000" fill-rule="nonzero" fill-opacity="1" /><path clip-path="url(#clip400)" d="M2150.92 663.555 L2158.55 663.555 L2158.55 637.189 L2150.24 638.856 L2150.24 634.597 L2158.51 632.93 L2163.18 632.93 L2163.18 663.555 L2170.82 663.555 L2170.82 667.49 L2150.92 667.49 L2150.92 663.555 Z" fill="#000000" fill-rule="nonzero" fill-opacity="1" /><path clip-path="url(#clip400)" d="M2190.27 636.009 Q2186.66 636.009 2184.83 639.574 Q2183.02 643.115 2183.02 650.245 Q2183.02 657.351 2184.83 660.916 Q2186.66 664.458 2190.27 664.458 Q2193.9 664.458 2195.71 660.916 Q2197.54 657.351 2197.54 650.245 Q2197.54 643.115 2195.71 639.574 Q2193.9 636.009 2190.27 636.009 M2190.27 632.305 Q2196.08 632.305 2199.13 636.912 Q2202.21 641.495 2202.21 650.245 Q2202.21 658.972 2199.13 663.578 Q2196.08 668.161 2190.27 668.161 Q2184.46 668.161 2181.38 663.578 Q2178.32 658.972 2178.32 650.245 Q2178.32 641.495 2181.38 636.912 Q2184.46 632.305 2190.27 632.305 Z" fill="#000000" fill-rule="nonzero" fill-opacity="1" /><path clip-path="url(#clip400)" d="M2151.91 309.566 L2159.55 309.566 L2159.55 283.201 L2151.24 284.867 L2151.24 280.608 L2159.5 278.942 L2164.18 278.942 L2164.18 309.566 L2171.82 309.566 L2171.82 313.502 L2151.91 313.502 L2151.91 309.566 Z" fill="#000000" fill-rule="nonzero" fill-opacity="1" /><path clip-path="url(#clip400)" d="M2181.31 278.942 L2199.67 278.942 L2199.67 282.877 L2185.59 282.877 L2185.59 291.349 Q2186.61 291.002 2187.63 290.84 Q2188.65 290.654 2189.67 290.654 Q2195.45 290.654 2198.83 293.826 Q2202.21 296.997 2202.21 302.414 Q2202.21 307.992 2198.74 311.094 Q2195.27 314.173 2188.95 314.173 Q2186.77 314.173 2184.5 313.802 Q2182.26 313.432 2179.85 312.691 L2179.85 307.992 Q2181.93 309.127 2184.16 309.682 Q2186.38 310.238 2188.86 310.238 Q2192.86 310.238 2195.2 308.131 Q2197.54 306.025 2197.54 302.414 Q2197.54 298.803 2195.2 296.696 Q2192.86 294.59 2188.86 294.59 Q2186.98 294.59 2185.11 295.006 Q2183.25 295.423 2181.31 296.303 L2181.31 278.942 Z" fill="#000000" fill-rule="nonzero" fill-opacity="1" /><path clip-path="url(#clip400)" d="M2040.34 876.171 L2040.34 848.353 L2045.69 848.353 L2071.31 870.378 L2071.31 848.353 L2075.99 848.353 L2075.99 876.967 L2070.64 876.967 L2045.02 854.942 L2045.02 876.171 L2040.34 876.171 Z" fill="#000000" fill-rule="nonzero" fill-opacity="1" /><path clip-path="url(#clip400)" d="M2026.53 804.621 Q2033.85 808.886 2041.01 810.955 Q2048.17 813.023 2055.52 813.023 Q2062.87 813.023 2070.1 810.955 Q2077.29 808.854 2084.58 804.621 L2084.58 809.713 Q2077.1 814.488 2069.88 816.875 Q2062.65 819.23 2055.52 819.23 Q2048.42 819.23 2041.23 816.875 Q2034.04 814.519 2026.53 809.713 L2026.53 804.621 Z" fill="#000000" fill-rule="nonzero" fill-opacity="1" /><path clip-path="url(#clip400)" d="M2026.46 793.481 L2026.46 787.592 L2055.71 787.592 L2040.34 770.119 L2040.34 762.639 L2057.02 781.545 L2075.99 761.843 L2075.99 769.482 L2058.58 787.592 L2075.99 787.592 L2075.99 793.481 L2026.46 793.481 Z" fill="#000000" fill-rule="nonzero" fill-opacity="1" /><path clip-path="url(#clip400)" d="M2047.18 727.755 Q2043.24 725.559 2041.36 722.503 Q2039.48 719.448 2039.48 715.31 Q2039.48 709.74 2043.4 706.716 Q2047.28 703.692 2054.47 703.692 L2075.99 703.692 L2075.99 709.581 L2054.66 709.581 Q2049.54 709.581 2047.06 711.395 Q2044.57 713.209 2044.57 716.933 Q2044.57 721.485 2047.6 724.126 Q2050.62 726.768 2055.84 726.768 L2075.99 726.768 L2075.99 732.656 L2054.66 732.656 Q2049.51 732.656 2047.06 734.471 Q2044.57 736.285 2044.57 740.072 Q2044.57 744.56 2047.63 747.202 Q2050.65 749.844 2055.84 749.844 L2075.99 749.844 L2075.99 755.732 L2040.34 755.732 L2040.34 749.844 L2045.88 749.844 Q2042.6 747.839 2041.04 745.038 Q2039.48 742.237 2039.48 738.385 Q2039.48 734.502 2041.45 731.797 Q2043.43 729.06 2047.18 727.755 Z" fill="#000000" fill-rule="nonzero" fill-opacity="1" /><path clip-path="url(#clip400)" d="M2026.53 692.934 L2026.53 687.842 Q2034.04 683.067 2041.23 680.712 Q2048.42 678.325 2055.52 678.325 Q2062.65 678.325 2069.88 680.712 Q2077.1 683.067 2084.58 687.842 L2084.58 692.934 Q2077.29 688.701 2070.1 686.632 Q2062.87 684.532 2055.52 684.532 Q2048.17 684.532 2041.01 686.632 Q2033.85 688.701 2026.53 692.934 Z" fill="#000000" fill-rule="nonzero" fill-opacity="1" /><path clip-path="url(#clip400)" d="M2946.34 65.7705 L2946.34 89.8329 L2938.84 89.8329 L2938.84 27.2059 L2946.34 27.2059 L2946.34 34.0924 Q2948.69 30.0415 2952.25 28.0971 Q2955.86 26.1121 2960.84 26.1121 Q2969.1 26.1121 2974.25 32.6746 Q2979.43 39.2371 2979.43 49.9314 Q2979.43 60.6258 2974.25 67.1883 Q2969.1 73.7508 2960.84 73.7508 Q2955.86 73.7508 2952.25 71.8063 Q2948.69 69.8214 2946.34 65.7705 M2971.7 49.9314 Q2971.7 41.7081 2968.29 37.0496 Q2964.93 32.3505 2959.02 32.3505 Q2953.1 32.3505 2949.7 37.0496 Q2946.34 41.7081 2946.34 49.9314 Q2946.34 58.1548 2949.7 62.8538 Q2953.1 67.5124 2959.02 67.5124 Q2964.93 67.5124 2968.29 62.8538 Q2971.7 58.1548 2971.7 49.9314 Z" fill="#000000" fill-rule="nonzero" fill-opacity="1" /><path clip-path="url(#clip400)" d="M3036.07 9.62495 Q3030.64 18.942 3028 28.0566 Q3025.37 37.1711 3025.37 46.5287 Q3025.37 55.8863 3028 65.0818 Q3030.68 74.2369 3036.07 83.5134 L3029.58 83.5134 Q3023.51 73.9938 3020.47 64.7983 Q3017.47 55.6027 3017.47 46.5287 Q3017.47 37.4952 3020.47 28.3401 Q3023.47 19.1851 3029.58 9.62495 L3036.07 9.62495 Z" fill="#000000" fill-rule="nonzero" fill-opacity="1" /><path clip-path="url(#clip400)" d="M3050.24 9.54393 L3057.74 9.54393 L3057.74 46.7717 L3079.98 27.2059 L3089.5 27.2059 L3065.44 48.4326 L3090.51 72.576 L3080.79 72.576 L3057.74 50.4176 L3057.74 72.576 L3050.24 72.576 L3050.24 9.54393 Z" fill="#000000" fill-rule="nonzero" fill-opacity="1" /><path clip-path="url(#clip400)" d="M3107.08 18.8205 L3107.08 41.5461 L3117.37 41.5461 Q3123.08 41.5461 3126.2 38.5889 Q3129.32 35.6318 3129.32 30.163 Q3129.32 24.7348 3126.2 21.7777 Q3123.08 18.8205 3117.37 18.8205 L3107.08 18.8205 M3098.9 12.096 L3117.37 12.096 Q3127.54 12.096 3132.72 16.714 Q3137.95 21.2916 3137.95 30.163 Q3137.95 39.1155 3132.72 43.6931 Q3127.54 48.2706 3117.37 48.2706 L3107.08 48.2706 L3107.08 72.576 L3098.9 72.576 L3098.9 12.096 Z" fill="#000000" fill-rule="nonzero" fill-opacity="1" /><path clip-path="url(#clip400)" d="M3165.49 49.7694 Q3156.46 49.7694 3152.98 51.8354 Q3149.49 53.9013 3149.49 58.8839 Q3149.49 62.8538 3152.08 65.2034 Q3154.72 67.5124 3159.21 67.5124 Q3165.41 67.5124 3169.14 63.1374 Q3172.91 58.7219 3172.91 51.4303 L3172.91 49.7694 L3165.49 49.7694 M3180.36 46.6907 L3180.36 72.576 L3172.91 72.576 L3172.91 65.6895 Q3170.35 69.8214 3166.55 71.8063 Q3162.74 73.7508 3157.23 73.7508 Q3150.26 73.7508 3146.13 69.8619 Q3142.04 65.9325 3142.04 59.3701 Q3142.04 51.7138 3147.14 47.825 Q3152.29 43.9361 3162.45 43.9361 L3172.91 43.9361 L3172.91 43.2069 Q3172.91 38.0623 3169.5 35.2672 Q3166.14 32.4315 3160.02 32.4315 Q3156.13 32.4315 3152.45 33.3632 Q3148.76 34.295 3145.36 36.1584 L3145.36 29.2718 Q3149.45 27.692 3153.3 26.9223 Q3157.15 26.1121 3160.79 26.1121 Q3170.64 26.1121 3175.5 31.2163 Q3180.36 36.3204 3180.36 46.6907 Z" fill="#000000" fill-rule="nonzero" fill-opacity="1" /><path clip-path="url(#clip400)" d="M3194.54 9.62495 L3201.02 9.62495 Q3207.1 19.1851 3210.09 28.3401 Q3213.13 37.4952 3213.13 46.5287 Q3213.13 55.6027 3210.09 64.7983 Q3207.1 73.9938 3201.02 83.5134 L3194.54 83.5134 Q3199.93 74.2369 3202.56 65.0818 Q3205.23 55.8863 3205.23 46.5287 Q3205.23 37.1711 3202.56 28.0566 Q3199.93 18.942 3194.54 9.62495 Z" fill="#000000" fill-rule="nonzero" fill-opacity="1" /><polyline clip-path="url(#clip403)" style="stroke:#009af9; stroke-linecap:round; stroke-linejoin:round; stroke-width:4; stroke-opacity:1; fill:none" points="3824.3,1351.11 3786.05,1336.95 3748.54,1322.79 3711.75,1308.63 3675.68,1294.47 3640.3,1280.31 3605.61,1266.15 3571.6,1251.99 3538.26,1237.83 3505.57,1223.67 3473.53,1209.51 3442.11,1195.35 3411.33,1181.19 3381.15,1167.03 3351.57,1152.87 3322.59,1138.71 3294.19,1124.55 3266.36,1110.4 3239.09,1096.24 3212.37,1082.08 3186.2,1067.92 3160.55,1053.76 3135.43,1039.6 3110.83,1025.44 3086.73,1011.28 3063.12,997.119 3040.01,982.959 3017.37,968.8 2995.2,954.64 2973.5,940.481 2952.26,926.321 2931.47,912.162 2911.12,898.002 2891.2,883.843 2871.71,869.683 2852.63,855.523 2833.97,841.364 2815.7,827.204 2797.84,813.045 2780.35,798.885 2763.25,784.726 2746.52,770.566 2730.16,756.407 2714.15,742.247 2698.5,728.088 2683.19,713.928 2668.22,699.768 2653.57,685.609 2639.26,671.449 2625.26,657.29 2611.57,643.13 2598.18,628.971 2585.1,614.811 2572.31,600.652 2559.8,586.492 2547.58,572.333 2535.63,558.173 2523.95,544.014 2512.54,529.854 2501.38,515.694 2490.48,501.535 2479.82,487.375 2469.39,473.216 2459.2,459.056 2449.24,444.897 2439.5,430.737 2429.98,416.578 2420.69,402.418 2411.6,388.259 2402.73,374.099 2394.06,359.939 2385.6,345.78 2377.33,331.62 2369.27,317.461 2361.4,303.301 2353.72,289.142 2346.23,274.982 2338.93,260.823 2331.81,246.663 2324.86,232.504 2318.1,218.344 2311.51,204.184 "/>
<polyline clip-path="url(#clip403)" style="stroke:#e26f46; stroke-linecap:round; stroke-linejoin:round; stroke-width:4; stroke-opacity:1; fill:none" points="3843.7,1358.19 3805.08,1344.03 3767.2,1329.87 3730.06,1315.71 3693.63,1301.55 3657.9,1287.39 3622.87,1273.23 3588.52,1259.07 3554.85,1244.91 3521.83,1230.75 3489.47,1216.59 3457.74,1202.43 3426.64,1188.27 3396.16,1174.11 3366.29,1159.95 3337.01,1145.79 3308.32,1131.63 3280.2,1117.48 3252.65,1103.32 3225.66,1089.16 3199.22,1075 3173.31,1060.84 3147.93,1046.68 3123.07,1032.52 3098.72,1018.36 3074.87,1004.2 3051.51,990.039 3028.63,975.88 3006.23,961.72 2984.3,947.56 2962.83,933.401 2941.81,919.241 2921.24,905.082 2901.11,890.922 2881.4,876.763 2862.12,862.603 2843.25,848.444 2824.79,834.284 2806.72,820.125 2789.05,805.965 2771.76,791.806 2754.84,777.646 2738.3,763.486 2722.11,749.327 2706.28,735.167 2690.8,721.008 2675.66,706.848 2660.85,692.689 2646.38,678.529 2632.22,664.37 2618.37,650.21 2604.84,636.051 2591.61,621.891 2578.67,607.731 2566.02,593.572 2553.66,579.412 2541.57,565.253 2529.76,551.093 2518.21,536.934 2506.93,522.774 2495.9,508.615 2485.12,494.455 2474.58,480.296 2464.27,466.136 2454.19,451.976 2444.34,437.817 2434.72,423.657 2425.31,409.498 2416.12,395.338 2407.14,381.179 2398.37,367.019 2389.8,352.86 2381.44,338.7 2373.28,324.541 2365.31,310.381 2357.54,296.222 2349.95,282.062 2342.56,267.902 2335.34,253.743 2328.31,239.583 2321.46,225.424 2314.78,211.264 2308.27,197.105 "/>
<path clip-path="url(#clip400)" d="M3500.47 358.817 L3835.51 358.817 L3835.51 203.297 L3500.47 203.297  Z" fill="#ffffff" fill-rule="evenodd" fill-opacity="1"/>
<polyline clip-path="url(#clip400)" style="stroke:#000000; stroke-linecap:round; stroke-linejoin:round; stroke-width:4; stroke-opacity:1; fill:none" points="3500.47,358.817 3835.51,358.817 3835.51,203.297 3500.47,203.297 3500.47,358.817 "/>
<polyline clip-path="url(#clip400)" style="stroke:#009af9; stroke-linecap:round; stroke-linejoin:round; stroke-width:4; stroke-opacity:1; fill:none" points="3518.55,255.137 3627.05,255.137 "/>
<path clip-path="url(#clip400)" d="M3665.65 247.487 L3665.65 251.468 Q3663.84 250.473 3662.01 249.987 Q3660.21 249.477 3658.35 249.477 Q3654.21 249.477 3651.92 252.116 Q3649.63 254.732 3649.63 259.477 Q3649.63 264.223 3651.92 266.862 Q3654.21 269.477 3658.35 269.477 Q3660.21 269.477 3662.01 268.991 Q3663.84 268.482 3665.65 267.487 L3665.65 271.422 Q3663.86 272.255 3661.94 272.672 Q3660.04 273.088 3657.89 273.088 Q3652.04 273.088 3648.59 269.408 Q3645.14 265.727 3645.14 259.477 Q3645.14 253.135 3648.61 249.501 Q3652.1 245.866 3658.17 245.866 Q3660.14 245.866 3662.01 246.283 Q3663.89 246.677 3665.65 247.487 Z" fill="#000000" fill-rule="nonzero" fill-opacity="1" /><path clip-path="url(#clip400)" d="M3695.23 258.389 L3695.23 260.473 L3675.65 260.473 Q3675.92 264.871 3678.29 267.186 Q3680.67 269.477 3684.91 269.477 Q3687.36 269.477 3689.65 268.876 Q3691.97 268.274 3694.23 267.07 L3694.23 271.098 Q3691.94 272.07 3689.54 272.579 Q3687.13 273.088 3684.65 273.088 Q3678.45 273.088 3674.81 269.477 Q3671.2 265.866 3671.2 259.709 Q3671.2 253.343 3674.63 249.616 Q3678.08 245.866 3683.91 245.866 Q3689.14 245.866 3692.17 249.246 Q3695.23 252.602 3695.23 258.389 M3690.97 257.139 Q3690.92 253.644 3689 251.561 Q3687.1 249.477 3683.96 249.477 Q3680.39 249.477 3678.24 251.491 Q3676.11 253.505 3675.79 257.163 L3690.97 257.139 Z" fill="#000000" fill-rule="nonzero" fill-opacity="1" /><path clip-path="url(#clip400)" d="M3723.77 256.769 L3723.77 272.417 L3719.51 272.417 L3719.51 256.908 Q3719.51 253.227 3718.08 251.399 Q3716.64 249.57 3713.77 249.57 Q3710.32 249.57 3708.33 251.769 Q3706.34 253.968 3706.34 257.764 L3706.34 272.417 L3702.06 272.417 L3702.06 246.491 L3706.34 246.491 L3706.34 250.519 Q3707.87 248.181 3709.93 247.024 Q3712.01 245.866 3714.72 245.866 Q3719.19 245.866 3721.48 248.644 Q3723.77 251.399 3723.77 256.769 Z" fill="#000000" fill-rule="nonzero" fill-opacity="1" /><path clip-path="url(#clip400)" d="M3736.48 239.13 L3736.48 246.491 L3745.25 246.491 L3745.25 249.802 L3736.48 249.802 L3736.48 263.876 Q3736.48 267.047 3737.34 267.95 Q3738.22 268.852 3740.88 268.852 L3745.25 268.852 L3745.25 272.417 L3740.88 272.417 Q3735.95 272.417 3734.07 270.588 Q3732.2 268.737 3732.2 263.876 L3732.2 249.802 L3729.07 249.802 L3729.07 246.491 L3732.2 246.491 L3732.2 239.13 L3736.48 239.13 Z" fill="#000000" fill-rule="nonzero" fill-opacity="1" /><path clip-path="url(#clip400)" d="M3773.03 258.389 L3773.03 260.473 L3753.45 260.473 Q3753.72 264.871 3756.09 267.186 Q3758.47 269.477 3762.71 269.477 Q3765.16 269.477 3767.45 268.876 Q3769.77 268.274 3772.03 267.07 L3772.03 271.098 Q3769.74 272.07 3767.34 272.579 Q3764.93 273.088 3762.45 273.088 Q3756.25 273.088 3752.61 269.477 Q3749 265.866 3749 259.709 Q3749 253.343 3752.43 249.616 Q3755.88 245.866 3761.71 245.866 Q3766.94 245.866 3769.97 249.246 Q3773.03 252.602 3773.03 258.389 M3768.77 257.139 Q3768.72 253.644 3766.8 251.561 Q3764.91 249.477 3761.76 249.477 Q3758.19 249.477 3756.04 251.491 Q3753.91 253.505 3753.59 257.163 L3768.77 257.139 Z" fill="#000000" fill-rule="nonzero" fill-opacity="1" /><path clip-path="url(#clip400)" d="M3795.04 250.473 Q3794.33 250.056 3793.47 249.871 Q3792.64 249.663 3791.62 249.663 Q3788.01 249.663 3786.06 252.024 Q3784.14 254.362 3784.14 258.76 L3784.14 272.417 L3779.86 272.417 L3779.86 246.491 L3784.14 246.491 L3784.14 250.519 Q3785.48 248.158 3787.64 247.024 Q3789.79 245.866 3792.87 245.866 Q3793.31 245.866 3793.84 245.936 Q3794.37 245.982 3795.02 246.098 L3795.04 250.473 Z" fill="#000000" fill-rule="nonzero" fill-opacity="1" /><path clip-path="url(#clip400)" d="M3816.04 247.255 L3816.04 251.283 Q3814.23 250.357 3812.29 249.894 Q3810.34 249.431 3808.26 249.431 Q3805.09 249.431 3803.49 250.403 Q3801.92 251.376 3801.92 253.32 Q3801.92 254.802 3803.05 255.658 Q3804.19 256.491 3807.61 257.255 L3809.07 257.579 Q3813.61 258.552 3815.51 260.334 Q3817.43 262.093 3817.43 265.264 Q3817.43 268.876 3814.56 270.982 Q3811.71 273.088 3806.71 273.088 Q3804.63 273.088 3802.36 272.672 Q3800.11 272.278 3797.61 271.468 L3797.61 267.07 Q3799.97 268.297 3802.27 268.922 Q3804.56 269.524 3806.8 269.524 Q3809.81 269.524 3811.43 268.505 Q3813.05 267.463 3813.05 265.589 Q3813.05 263.852 3811.87 262.926 Q3810.72 262.001 3806.76 261.144 L3805.28 260.797 Q3801.32 259.964 3799.56 258.251 Q3797.8 256.514 3797.8 253.505 Q3797.8 249.848 3800.39 247.857 Q3802.98 245.866 3807.75 245.866 Q3810.11 245.866 3812.2 246.214 Q3814.28 246.561 3816.04 247.255 Z" fill="#000000" fill-rule="nonzero" fill-opacity="1" /><polyline clip-path="url(#clip400)" style="stroke:#e26f46; stroke-linecap:round; stroke-linejoin:round; stroke-width:4; stroke-opacity:1; fill:none" points="3518.55,306.977 3627.05,306.977 "/>
<path clip-path="url(#clip400)" d="M3661.64 288.239 L3661.64 291.78 L3657.57 291.78 Q3655.28 291.78 3654.37 292.706 Q3653.49 293.632 3653.49 296.04 L3653.49 298.331 L3660.51 298.331 L3660.51 301.642 L3653.49 301.642 L3653.49 324.257 L3649.21 324.257 L3649.21 301.642 L3645.14 301.642 L3645.14 298.331 L3649.21 298.331 L3649.21 296.526 Q3649.21 292.197 3651.23 290.23 Q3653.24 288.239 3657.61 288.239 L3661.64 288.239 Z" fill="#000000" fill-rule="nonzero" fill-opacity="1" /><path clip-path="url(#clip400)" d="M3676.99 311.225 Q3671.83 311.225 3669.84 312.405 Q3667.85 313.586 3667.85 316.433 Q3667.85 318.702 3669.33 320.044 Q3670.83 321.364 3673.4 321.364 Q3676.94 321.364 3679.07 318.864 Q3681.23 316.341 3681.23 312.174 L3681.23 311.225 L3676.99 311.225 M3685.48 309.466 L3685.48 324.257 L3681.23 324.257 L3681.23 320.322 Q3679.77 322.683 3677.59 323.817 Q3675.41 324.928 3672.27 324.928 Q3668.29 324.928 3665.92 322.706 Q3663.59 320.461 3663.59 316.711 Q3663.59 312.336 3666.5 310.114 Q3669.44 307.892 3675.25 307.892 L3681.23 307.892 L3681.23 307.475 Q3681.23 304.535 3679.28 302.938 Q3677.36 301.317 3673.86 301.317 Q3671.64 301.317 3669.54 301.85 Q3667.43 302.382 3665.48 303.447 L3665.48 299.512 Q3667.82 298.609 3670.02 298.169 Q3672.22 297.706 3674.3 297.706 Q3679.93 297.706 3682.71 300.623 Q3685.48 303.54 3685.48 309.466 Z" fill="#000000" fill-rule="nonzero" fill-opacity="1" /><path clip-path="url(#clip400)" d="M3712.91 299.327 L3712.91 303.308 Q3711.11 302.313 3709.28 301.827 Q3707.48 301.317 3705.62 301.317 Q3701.48 301.317 3699.19 303.956 Q3696.9 306.572 3696.9 311.317 Q3696.9 316.063 3699.19 318.702 Q3701.48 321.317 3705.62 321.317 Q3707.48 321.317 3709.28 320.831 Q3711.11 320.322 3712.91 319.327 L3712.91 323.262 Q3711.13 324.095 3709.21 324.512 Q3707.31 324.928 3705.16 324.928 Q3699.3 324.928 3695.85 321.248 Q3692.41 317.567 3692.41 311.317 Q3692.41 304.975 3695.88 301.341 Q3699.37 297.706 3705.44 297.706 Q3707.41 297.706 3709.28 298.123 Q3711.16 298.517 3712.91 299.327 Z" fill="#000000" fill-rule="nonzero" fill-opacity="1" /><path clip-path="url(#clip400)" d="M3742.5 310.229 L3742.5 312.313 L3722.91 312.313 Q3723.19 316.711 3725.55 319.026 Q3727.94 321.317 3732.17 321.317 Q3734.63 321.317 3736.92 320.716 Q3739.23 320.114 3741.5 318.91 L3741.5 322.938 Q3739.21 323.91 3736.8 324.419 Q3734.4 324.928 3731.92 324.928 Q3725.72 324.928 3722.08 321.317 Q3718.47 317.706 3718.47 311.549 Q3718.47 305.183 3721.9 301.456 Q3725.35 297.706 3731.18 297.706 Q3736.41 297.706 3739.44 301.086 Q3742.5 304.442 3742.5 310.229 M3738.24 308.979 Q3738.19 305.484 3736.27 303.401 Q3734.37 301.317 3731.22 301.317 Q3727.66 301.317 3725.51 303.331 Q3723.38 305.345 3723.05 309.003 L3738.24 308.979 Z" fill="#000000" fill-rule="nonzero" fill-opacity="1" /><path clip-path="url(#clip400)" d="M3766.02 299.095 L3766.02 303.123 Q3764.21 302.197 3762.27 301.734 Q3760.32 301.271 3758.24 301.271 Q3755.07 301.271 3753.47 302.243 Q3751.9 303.216 3751.9 305.16 Q3751.9 306.642 3753.03 307.498 Q3754.16 308.331 3757.59 309.095 L3759.05 309.419 Q3763.59 310.392 3765.48 312.174 Q3767.41 313.933 3767.41 317.104 Q3767.41 320.716 3764.53 322.822 Q3761.69 324.928 3756.69 324.928 Q3754.6 324.928 3752.34 324.512 Q3750.09 324.118 3747.59 323.308 L3747.59 318.91 Q3749.95 320.137 3752.24 320.762 Q3754.53 321.364 3756.78 321.364 Q3759.79 321.364 3761.41 320.345 Q3763.03 319.303 3763.03 317.429 Q3763.03 315.692 3761.85 314.766 Q3760.69 313.841 3756.73 312.984 L3755.25 312.637 Q3751.29 311.804 3749.53 310.091 Q3747.78 308.354 3747.78 305.345 Q3747.78 301.688 3750.37 299.697 Q3752.96 297.706 3757.73 297.706 Q3760.09 297.706 3762.17 298.054 Q3764.26 298.401 3766.02 299.095 Z" fill="#000000" fill-rule="nonzero" fill-opacity="1" /></svg>
