<?xml version="1.0" encoding="utf-8"?>
<svg xmlns="http://www.w3.org/2000/svg" xmlns:xlink="http://www.w3.org/1999/xlink" width="1000" height="400" viewBox="0 0 4000 1600">
<defs>
  <clipPath id="clip440">
    <rect x="0" y="0" width="4000" height="1600"/>
  </clipPath>
</defs>
<path clip-path="url(#clip440)" d="
M0 1600 L4000 1600 L4000 0 L0 0  Z
  " fill="#ffffff" fill-rule="evenodd" fill-opacity="1"/>
<defs>
  <clipPath id="clip441">
    <rect x="800" y="0" width="2801" height="1600"/>
  </clipPath>
</defs>
<path clip-path="url(#clip440)" d="
M262.212 1393.02 L1889.76 1393.02 L1889.76 162.272 L262.212 162.272  Z
  " fill="#ffffff" fill-rule="evenodd" fill-opacity="1"/>
<defs>
  <clipPath id="clip442">
    <rect x="262" y="162" width="1629" height="1232"/>
  </clipPath>
</defs>
<polyline clip-path="url(#clip442)" style="stroke:#000000; stroke-linecap:butt; stroke-linejoin:round; stroke-width:2; stroke-opacity:0.1; fill:none" points="
  341.632,1393.02 341.632,162.272 
  "/>
<polyline clip-path="url(#clip442)" style="stroke:#000000; stroke-linecap:butt; stroke-linejoin:round; stroke-width:2; stroke-opacity:0.1; fill:none" points="
  651.971,1393.02 651.971,162.272 
  "/>
<polyline clip-path="url(#clip442)" style="stroke:#000000; stroke-linecap:butt; stroke-linejoin:round; stroke-width:2; stroke-opacity:0.1; fill:none" points="
  962.309,1393.02 962.309,162.272 
  "/>
<polyline clip-path="url(#clip442)" style="stroke:#000000; stroke-linecap:butt; stroke-linejoin:round; stroke-width:2; stroke-opacity:0.1; fill:none" points="
  1272.65,1393.02 1272.65,162.272 
  "/>
<polyline clip-path="url(#clip442)" style="stroke:#000000; stroke-linecap:butt; stroke-linejoin:round; stroke-width:2; stroke-opacity:0.1; fill:none" points="
  1582.99,1393.02 1582.99,162.272 
  "/>
<polyline clip-path="url(#clip440)" style="stroke:#000000; stroke-linecap:butt; stroke-linejoin:round; stroke-width:4; stroke-opacity:1; fill:none" points="
  262.212,1393.02 1889.76,1393.02 
  "/>
<polyline clip-path="url(#clip440)" style="stroke:#000000; stroke-linecap:butt; stroke-linejoin:round; stroke-width:4; stroke-opacity:1; fill:none" points="
  341.632,1393.02 341.632,1374.12 
  "/>
<polyline clip-path="url(#clip440)" style="stroke:#000000; stroke-linecap:butt; stroke-linejoin:round; stroke-width:4; stroke-opacity:1; fill:none" points="
  651.971,1393.02 651.971,1374.12 
  "/>
<polyline clip-path="url(#clip440)" style="stroke:#000000; stroke-linecap:butt; stroke-linejoin:round; stroke-width:4; stroke-opacity:1; fill:none" points="
  962.309,1393.02 962.309,1374.12 
  "/>
<polyline clip-path="url(#clip440)" style="stroke:#000000; stroke-linecap:butt; stroke-linejoin:round; stroke-width:4; stroke-opacity:1; fill:none" points="
  1272.65,1393.02 1272.65,1374.12 
  "/>
<polyline clip-path="url(#clip440)" style="stroke:#000000; stroke-linecap:butt; stroke-linejoin:round; stroke-width:4; stroke-opacity:1; fill:none" points="
  1582.99,1393.02 1582.99,1374.12 
  "/>
<path clip-path="url(#clip440)" d="M319.815 1436.74 Q316.204 1436.74 314.375 1440.3 Q312.569 1443.84 312.569 1450.97 Q312.569 1458.08 314.375 1461.65 Q316.204 1465.19 319.815 1465.19 Q323.449 1465.19 325.255 1461.65 Q327.083 1458.08 327.083 1450.97 Q327.083 1443.84 325.255 1440.3 Q323.449 1436.74 319.815 1436.74 M319.815 1433.03 Q325.625 1433.03 328.68 1437.64 Q331.759 1442.22 331.759 1450.97 Q331.759 1459.7 328.68 1464.31 Q325.625 1468.89 319.815 1468.89 Q314.005 1468.89 310.926 1464.31 Q307.87 1459.7 307.87 1450.97 Q307.87 1442.22 310.926 1437.64 Q314.005 1433.03 319.815 1433.03 Z" fill="#000000" fill-rule="evenodd" fill-opacity="1" /><path clip-path="url(#clip440)" d="M339.977 1462.34 L344.861 1462.34 L344.861 1468.22 L339.977 1468.22 L339.977 1462.34 Z" fill="#000000" fill-rule="evenodd" fill-opacity="1" /><path clip-path="url(#clip440)" d="M359.074 1464.28 L375.393 1464.28 L375.393 1468.22 L353.449 1468.22 L353.449 1464.28 Q356.111 1461.53 360.694 1456.9 Q365.301 1452.25 366.481 1450.9 Q368.727 1448.38 369.606 1446.65 Q370.509 1444.89 370.509 1443.2 Q370.509 1440.44 368.564 1438.71 Q366.643 1436.97 363.541 1436.97 Q361.342 1436.97 358.889 1437.73 Q356.458 1438.5 353.68 1440.05 L353.68 1435.33 Q356.504 1434.19 358.958 1433.61 Q361.412 1433.03 363.449 1433.03 Q368.819 1433.03 372.014 1435.72 Q375.208 1438.41 375.208 1442.9 Q375.208 1445.03 374.398 1446.95 Q373.611 1448.84 371.504 1451.44 Q370.926 1452.11 367.824 1455.33 Q364.722 1458.52 359.074 1464.28 Z" fill="#000000" fill-rule="evenodd" fill-opacity="1" /><path clip-path="url(#clip440)" d="M629.112 1436.74 Q625.501 1436.74 623.672 1440.3 Q621.867 1443.84 621.867 1450.97 Q621.867 1458.08 623.672 1461.65 Q625.501 1465.19 629.112 1465.19 Q632.746 1465.19 634.552 1461.65 Q636.38 1458.08 636.38 1450.97 Q636.38 1443.84 634.552 1440.3 Q632.746 1436.74 629.112 1436.74 M629.112 1433.03 Q634.922 1433.03 637.978 1437.64 Q641.056 1442.22 641.056 1450.97 Q641.056 1459.7 637.978 1464.31 Q634.922 1468.89 629.112 1468.89 Q623.302 1468.89 620.223 1464.31 Q617.168 1459.7 617.168 1450.97 Q617.168 1442.22 620.223 1437.64 Q623.302 1433.03 629.112 1433.03 Z" fill="#000000" fill-rule="evenodd" fill-opacity="1" /><path clip-path="url(#clip440)" d="M649.274 1462.34 L654.158 1462.34 L654.158 1468.22 L649.274 1468.22 L649.274 1462.34 Z" fill="#000000" fill-rule="evenodd" fill-opacity="1" /><path clip-path="url(#clip440)" d="M677.19 1437.73 L665.385 1456.18 L677.19 1456.18 L677.19 1437.73 M675.964 1433.66 L681.843 1433.66 L681.843 1456.18 L686.774 1456.18 L686.774 1460.07 L681.843 1460.07 L681.843 1468.22 L677.19 1468.22 L677.19 1460.07 L661.589 1460.07 L661.589 1455.56 L675.964 1433.66 Z" fill="#000000" fill-rule="evenodd" fill-opacity="1" /><path clip-path="url(#clip440)" d="M939.613 1436.74 Q936.002 1436.74 934.173 1440.3 Q932.367 1443.84 932.367 1450.97 Q932.367 1458.08 934.173 1461.65 Q936.002 1465.19 939.613 1465.19 Q943.247 1465.19 945.053 1461.65 Q946.881 1458.08 946.881 1450.97 Q946.881 1443.84 945.053 1440.3 Q943.247 1436.74 939.613 1436.74 M939.613 1433.03 Q945.423 1433.03 948.479 1437.64 Q951.557 1442.22 951.557 1450.97 Q951.557 1459.7 948.479 1464.31 Q945.423 1468.89 939.613 1468.89 Q933.803 1468.89 930.724 1464.31 Q927.668 1459.7 927.668 1450.97 Q927.668 1442.22 930.724 1437.64 Q933.803 1433.03 939.613 1433.03 Z" fill="#000000" fill-rule="evenodd" fill-opacity="1" /><path clip-path="url(#clip440)" d="M959.775 1462.34 L964.659 1462.34 L964.659 1468.22 L959.775 1468.22 L959.775 1462.34 Z" fill="#000000" fill-rule="evenodd" fill-opacity="1" /><path clip-path="url(#clip440)" d="M985.423 1449.08 Q982.275 1449.08 980.423 1451.23 Q978.594 1453.38 978.594 1457.13 Q978.594 1460.86 980.423 1463.03 Q982.275 1465.19 985.423 1465.19 Q988.571 1465.19 990.4 1463.03 Q992.251 1460.86 992.251 1457.13 Q992.251 1453.38 990.4 1451.23 Q988.571 1449.08 985.423 1449.08 M994.705 1434.42 L994.705 1438.68 Q992.946 1437.85 991.14 1437.41 Q989.358 1436.97 987.599 1436.97 Q982.969 1436.97 980.515 1440.09 Q978.085 1443.22 977.738 1449.54 Q979.103 1447.53 981.164 1446.46 Q983.224 1445.37 985.701 1445.37 Q990.909 1445.37 993.918 1448.54 Q996.95 1451.69 996.95 1457.13 Q996.95 1462.46 993.802 1465.67 Q990.654 1468.89 985.423 1468.89 Q979.427 1468.89 976.256 1464.31 Q973.085 1459.7 973.085 1450.97 Q973.085 1442.78 976.974 1437.92 Q980.863 1433.03 987.413 1433.03 Q989.173 1433.03 990.955 1433.38 Q992.761 1433.73 994.705 1434.42 Z" fill="#000000" fill-rule="evenodd" fill-opacity="1" /><path clip-path="url(#clip440)" d="M1250.08 1436.74 Q1246.47 1436.74 1244.64 1440.3 Q1242.83 1443.84 1242.83 1450.97 Q1242.83 1458.08 1244.64 1461.65 Q1246.47 1465.19 1250.08 1465.19 Q1253.71 1465.19 1255.52 1461.65 Q1257.35 1458.08 1257.35 1450.97 Q1257.35 1443.84 1255.52 1440.3 Q1253.71 1436.74 1250.08 1436.74 M1250.08 1433.03 Q1255.89 1433.03 1258.94 1437.64 Q1262.02 1442.22 1262.02 1450.97 Q1262.02 1459.7 1258.94 1464.31 Q1255.89 1468.89 1250.08 1468.89 Q1244.27 1468.89 1241.19 1464.31 Q1238.13 1459.7 1238.13 1450.97 Q1238.13 1442.22 1241.19 1437.64 Q1244.27 1433.03 1250.08 1433.03 Z" fill="#000000" fill-rule="evenodd" fill-opacity="1" /><path clip-path="url(#clip440)" d="M1270.24 1462.34 L1275.13 1462.34 L1275.13 1468.22 L1270.24 1468.22 L1270.24 1462.34 Z" fill="#000000" fill-rule="evenodd" fill-opacity="1" /><path clip-path="url(#clip440)" d="M1295.31 1451.81 Q1291.98 1451.81 1290.06 1453.59 Q1288.16 1455.37 1288.16 1458.5 Q1288.16 1461.62 1290.06 1463.4 Q1291.98 1465.19 1295.31 1465.19 Q1298.64 1465.19 1300.56 1463.4 Q1302.49 1461.6 1302.49 1458.5 Q1302.49 1455.37 1300.56 1453.59 Q1298.67 1451.81 1295.31 1451.81 M1290.63 1449.82 Q1287.63 1449.08 1285.94 1447.02 Q1284.27 1444.96 1284.27 1441.99 Q1284.27 1437.85 1287.21 1435.44 Q1290.17 1433.03 1295.31 1433.03 Q1300.47 1433.03 1303.41 1435.44 Q1306.35 1437.85 1306.35 1441.99 Q1306.35 1444.96 1304.66 1447.02 Q1303 1449.08 1300.01 1449.82 Q1303.39 1450.6 1305.26 1452.9 Q1307.16 1455.19 1307.16 1458.5 Q1307.16 1463.52 1304.08 1466.21 Q1301.03 1468.89 1295.31 1468.89 Q1289.59 1468.89 1286.51 1466.21 Q1283.46 1463.52 1283.46 1458.5 Q1283.46 1455.19 1285.36 1452.9 Q1287.25 1450.6 1290.63 1449.82 M1288.92 1442.43 Q1288.92 1445.12 1290.59 1446.62 Q1292.28 1448.13 1295.31 1448.13 Q1298.32 1448.13 1300.01 1446.62 Q1301.72 1445.12 1301.72 1442.43 Q1301.72 1439.75 1300.01 1438.24 Q1298.32 1436.74 1295.31 1436.74 Q1292.28 1436.74 1290.59 1438.24 Q1288.92 1439.75 1288.92 1442.43 Z" fill="#000000" fill-rule="evenodd" fill-opacity="1" /><path clip-path="url(#clip440)" d="M1550.14 1464.28 L1557.78 1464.28 L1557.78 1437.92 L1549.47 1439.59 L1549.47 1435.33 L1557.73 1433.66 L1562.41 1433.66 L1562.41 1464.28 L1570.05 1464.28 L1570.05 1468.22 L1550.14 1468.22 L1550.14 1464.28 Z" fill="#000000" fill-rule="evenodd" fill-opacity="1" /><path clip-path="url(#clip440)" d="M1579.49 1462.34 L1584.38 1462.34 L1584.38 1468.22 L1579.49 1468.22 L1579.49 1462.34 Z" fill="#000000" fill-rule="evenodd" fill-opacity="1" /><path clip-path="url(#clip440)" d="M1604.56 1436.74 Q1600.95 1436.74 1599.12 1440.3 Q1597.32 1443.84 1597.32 1450.97 Q1597.32 1458.08 1599.12 1461.65 Q1600.95 1465.19 1604.56 1465.19 Q1608.2 1465.19 1610 1461.65 Q1611.83 1458.08 1611.83 1450.97 Q1611.83 1443.84 1610 1440.3 Q1608.2 1436.74 1604.56 1436.74 M1604.56 1433.03 Q1610.37 1433.03 1613.43 1437.64 Q1616.51 1442.22 1616.51 1450.97 Q1616.51 1459.7 1613.43 1464.31 Q1610.37 1468.89 1604.56 1468.89 Q1598.75 1468.89 1595.67 1464.31 Q1592.62 1459.7 1592.62 1450.97 Q1592.62 1442.22 1595.67 1437.64 Q1598.75 1433.03 1604.56 1433.03 Z" fill="#000000" fill-rule="evenodd" fill-opacity="1" /><path clip-path="url(#clip440)" d="M1062.91 1532.6 Q1064.85 1529.35 1069.65 1526.49 Q1071.53 1525.38 1077.32 1525.38 Q1083.82 1525.38 1087.86 1530.53 Q1091.93 1535.69 1091.93 1544.09 Q1091.93 1552.49 1087.86 1557.65 Q1083.82 1562.81 1077.32 1562.81 Q1073.41 1562.81 1070.58 1561.28 Q1067.78 1559.72 1065.93 1556.54 L1065.93 1575.44 L1060.04 1575.44 L1060.04 1544.41 Q1060.04 1537.06 1062.91 1532.6 M1085.85 1544.09 Q1085.85 1537.63 1083.18 1533.97 Q1080.54 1530.28 1075.89 1530.28 Q1071.25 1530.28 1068.57 1533.97 Q1065.93 1537.63 1065.93 1544.09 Q1065.93 1550.55 1068.57 1554.24 Q1071.25 1557.91 1075.89 1557.91 Q1080.54 1557.91 1083.18 1554.24 Q1085.85 1550.55 1085.85 1544.09 Z" fill="#000000" fill-rule="evenodd" fill-opacity="1" /><polyline clip-path="url(#clip442)" style="stroke:#000000; stroke-linecap:butt; stroke-linejoin:round; stroke-width:2; stroke-opacity:0.1; fill:none" points="
  262.212,1358.19 1889.76,1358.19 
  "/>
<polyline clip-path="url(#clip442)" style="stroke:#000000; stroke-linecap:butt; stroke-linejoin:round; stroke-width:2; stroke-opacity:0.1; fill:none" points="
  262.212,1016.69 1889.76,1016.69 
  "/>
<polyline clip-path="url(#clip442)" style="stroke:#000000; stroke-linecap:butt; stroke-linejoin:round; stroke-width:2; stroke-opacity:0.1; fill:none" points="
  262.212,675.198 1889.76,675.198 
  "/>
<polyline clip-path="url(#clip442)" style="stroke:#000000; stroke-linecap:butt; stroke-linejoin:round; stroke-width:2; stroke-opacity:0.1; fill:none" points="
  262.212,333.703 1889.76,333.703 
  "/>
<polyline clip-path="url(#clip440)" style="stroke:#000000; stroke-linecap:butt; stroke-linejoin:round; stroke-width:4; stroke-opacity:1; fill:none" points="
  262.212,1393.02 262.212,162.272 
  "/>
<polyline clip-path="url(#clip440)" style="stroke:#000000; stroke-linecap:butt; stroke-linejoin:round; stroke-width:4; stroke-opacity:1; fill:none" points="
  262.212,1358.19 281.109,1358.19 
  "/>
<polyline clip-path="url(#clip440)" style="stroke:#000000; stroke-linecap:butt; stroke-linejoin:round; stroke-width:4; stroke-opacity:1; fill:none" points="
  262.212,1016.69 281.109,1016.69 
  "/>
<polyline clip-path="url(#clip440)" style="stroke:#000000; stroke-linecap:butt; stroke-linejoin:round; stroke-width:4; stroke-opacity:1; fill:none" points="
  262.212,675.198 281.109,675.198 
  "/>
<polyline clip-path="url(#clip440)" style="stroke:#000000; stroke-linecap:butt; stroke-linejoin:round; stroke-width:4; stroke-opacity:1; fill:none" points="
  262.212,333.703 281.109,333.703 
  "/>
<path clip-path="url(#clip440)" d="M190.267 1343.99 Q186.656 1343.99 184.827 1347.55 Q183.022 1351.09 183.022 1358.22 Q183.022 1365.33 184.827 1368.89 Q186.656 1372.43 190.267 1372.43 Q193.901 1372.43 195.707 1368.89 Q197.536 1365.33 197.536 1358.22 Q197.536 1351.09 195.707 1347.55 Q193.901 1343.99 190.267 1343.99 M190.267 1340.28 Q196.077 1340.28 199.133 1344.89 Q202.212 1349.47 202.212 1358.22 Q202.212 1366.95 199.133 1371.56 Q196.077 1376.14 190.267 1376.14 Q184.457 1376.14 181.378 1371.56 Q178.323 1366.95 178.323 1358.22 Q178.323 1349.47 181.378 1344.89 Q184.457 1340.28 190.267 1340.28 Z" fill="#000000" fill-rule="evenodd" fill-opacity="1" /><path clip-path="url(#clip440)" d="M181.309 999.412 L199.665 999.412 L199.665 1003.35 L185.591 1003.35 L185.591 1011.82 Q186.61 1011.47 187.628 1011.31 Q188.647 1011.13 189.665 1011.13 Q195.452 1011.13 198.832 1014.3 Q202.212 1017.47 202.212 1022.88 Q202.212 1028.46 198.739 1031.56 Q195.267 1034.64 188.948 1034.64 Q186.772 1034.64 184.503 1034.27 Q182.258 1033.9 179.851 1033.16 L179.851 1028.46 Q181.934 1029.6 184.156 1030.15 Q186.378 1030.71 188.855 1030.71 Q192.86 1030.71 195.198 1028.6 Q197.536 1026.5 197.536 1022.88 Q197.536 1019.27 195.198 1017.17 Q192.86 1015.06 188.855 1015.06 Q186.98 1015.06 185.105 1015.48 Q183.253 1015.89 181.309 1016.77 L181.309 999.412 Z" fill="#000000" fill-rule="evenodd" fill-opacity="1" /><path clip-path="url(#clip440)" d="M150.916 688.542 L158.554 688.542 L158.554 662.177 L150.244 663.843 L150.244 659.584 L158.508 657.918 L163.184 657.918 L163.184 688.542 L170.823 688.542 L170.823 692.478 L150.916 692.478 L150.916 688.542 Z" fill="#000000" fill-rule="evenodd" fill-opacity="1" /><path clip-path="url(#clip440)" d="M190.267 660.996 Q186.656 660.996 184.827 664.561 Q183.022 668.103 183.022 675.232 Q183.022 682.339 184.827 685.903 Q186.656 689.445 190.267 689.445 Q193.901 689.445 195.707 685.903 Q197.536 682.339 197.536 675.232 Q197.536 668.103 195.707 664.561 Q193.901 660.996 190.267 660.996 M190.267 657.293 Q196.077 657.293 199.133 661.899 Q202.212 666.482 202.212 675.232 Q202.212 683.959 199.133 688.566 Q196.077 693.149 190.267 693.149 Q184.457 693.149 181.378 688.566 Q178.323 683.959 178.323 675.232 Q178.323 666.482 181.378 661.899 Q184.457 657.293 190.267 657.293 Z" fill="#000000" fill-rule="evenodd" fill-opacity="1" /><path clip-path="url(#clip440)" d="M151.911 347.048 L159.55 347.048 L159.55 320.682 L151.24 322.349 L151.24 318.089 L159.503 316.423 L164.179 316.423 L164.179 347.048 L171.818 347.048 L171.818 350.983 L151.911 350.983 L151.911 347.048 Z" fill="#000000" fill-rule="evenodd" fill-opacity="1" /><path clip-path="url(#clip440)" d="M181.309 316.423 L199.665 316.423 L199.665 320.358 L185.591 320.358 L185.591 328.83 Q186.61 328.483 187.628 328.321 Q188.647 328.136 189.665 328.136 Q195.452 328.136 198.832 331.307 Q202.212 334.478 202.212 339.895 Q202.212 345.473 198.739 348.575 Q195.267 351.654 188.948 351.654 Q186.772 351.654 184.503 351.284 Q182.258 350.913 179.851 350.172 L179.851 345.473 Q181.934 346.608 184.156 347.163 Q186.378 347.719 188.855 347.719 Q192.86 347.719 195.198 345.612 Q197.536 343.506 197.536 339.895 Q197.536 336.284 195.198 334.177 Q192.86 332.071 188.855 332.071 Q186.98 332.071 185.105 332.487 Q183.253 332.904 181.309 333.784 L181.309 316.423 Z" fill="#000000" fill-rule="evenodd" fill-opacity="1" /><path clip-path="url(#clip440)" d="M40.3403 876.171 L40.3403 848.353 L45.6875 848.353 L71.3095 870.378 L71.3095 848.353 L75.9883 848.353 L75.9883 876.967 L70.6411 876.967 L45.0191 854.942 L45.0191 876.171 L40.3403 876.171 Z" fill="#000000" fill-rule="evenodd" fill-opacity="1" /><path clip-path="url(#clip440)" d="M26.5267 804.621 Q33.8473 808.886 41.0087 810.955 Q48.1701 813.023 55.5225 813.023 Q62.8749 813.023 70.1 810.955 Q77.2933 808.854 84.582 804.621 L84.582 809.713 Q77.1023 814.488 69.8772 816.875 Q62.6521 819.23 55.5225 819.23 Q48.4248 819.23 41.2315 816.875 Q34.0383 814.519 26.5267 809.713 L26.5267 804.621 Z" fill="#000000" fill-rule="evenodd" fill-opacity="1" /><path clip-path="url(#clip440)" d="M26.4631 793.481 L26.4631 787.592 L55.7135 787.592 L40.3403 770.119 L40.3403 762.639 L57.0185 781.545 L75.9883 761.843 L75.9883 769.482 L58.5781 787.592 L75.9883 787.592 L75.9883 793.481 L26.4631 793.481 Z" fill="#000000" fill-rule="evenodd" fill-opacity="1" /><path clip-path="url(#clip440)" d="M47.1835 727.755 Q43.2367 725.559 41.3588 722.503 Q39.481 719.448 39.481 715.31 Q39.481 709.74 43.3959 706.716 Q47.2789 703.692 54.4722 703.692 L75.9883 703.692 L75.9883 709.581 L54.6632 709.581 Q49.5388 709.581 47.0561 711.395 Q44.5735 713.209 44.5735 716.933 Q44.5735 721.485 47.5972 724.126 Q50.6209 726.768 55.8408 726.768 L75.9883 726.768 L75.9883 732.656 L54.6632 732.656 Q49.5069 732.656 47.0561 734.471 Q44.5735 736.285 44.5735 740.072 Q44.5735 744.56 47.6291 747.202 Q50.6528 749.844 55.8408 749.844 L75.9883 749.844 L75.9883 755.732 L40.3403 755.732 L40.3403 749.844 L45.8785 749.844 Q42.6002 747.839 41.0406 745.038 Q39.481 742.237 39.481 738.385 Q39.481 734.502 41.4543 731.797 Q43.4277 729.06 47.1835 727.755 Z" fill="#000000" fill-rule="evenodd" fill-opacity="1" /><path clip-path="url(#clip440)" d="M26.5267 692.934 L26.5267 687.842 Q34.0383 683.067 41.2315 680.712 Q48.4248 678.325 55.5225 678.325 Q62.6521 678.325 69.8772 680.712 Q77.1023 683.067 84.582 687.842 L84.582 692.934 Q77.2933 688.701 70.1 686.632 Q62.8749 684.532 55.5225 684.532 Q48.1701 684.532 41.0087 686.632 Q33.8473 688.701 26.5267 692.934 Z" fill="#000000" fill-rule="evenodd" fill-opacity="1" /><path clip-path="url(#clip440)" d="M1059.34 35.3077 Q1061.81 31.1758 1067.93 27.5299 Q1070.32 26.1121 1077.69 26.1121 Q1085.95 26.1121 1091.1 32.6746 Q1096.28 39.2371 1096.28 49.9314 Q1096.28 60.6258 1091.1 67.1883 Q1085.95 73.7508 1077.69 73.7508 Q1072.71 73.7508 1069.1 71.8063 Q1065.54 69.8214 1063.19 65.7705 L1063.19 89.8329 L1055.69 89.8329 L1055.69 50.3365 Q1055.69 40.9789 1059.34 35.3077 M1088.55 49.9314 Q1088.55 41.7081 1085.14 37.0496 Q1081.78 32.3505 1075.87 32.3505 Q1069.95 32.3505 1066.55 37.0496 Q1063.19 41.7081 1063.19 49.9314 Q1063.19 58.1548 1066.55 62.8538 Q1069.95 67.5124 1075.87 67.5124 Q1081.78 67.5124 1085.14 62.8538 Q1088.55 58.1548 1088.55 49.9314 Z" fill="#000000" fill-rule="evenodd" fill-opacity="1" /><polyline clip-path="url(#clip442)" style="stroke:#009af9; stroke-linecap:butt; stroke-linejoin:round; stroke-width:4; stroke-opacity:1; fill:none" points="
  1837.47,1355.28 1825.06,1349.48 1812.7,1343.67 1800.38,1337.87 1788.12,1332.06 1775.91,1326.26 1762.52,1320.45 1748.25,1314.65 1734.09,1308.84 1720.02,1303.04 
  1706.05,1297.23 1692.18,1291.42 1678.4,1285.62 1664.74,1279.81 1651.14,1274.01 1637.64,1268.2 1624.26,1262.4 1610.96,1256.59 1597.77,1250.79 1584.65,1244.98 
  1571.63,1239.18 1558.7,1233.37 1545.87,1227.57 1533.13,1221.76 1520.48,1215.95 1507.92,1210.15 1495.46,1204.34 1483.07,1198.54 1470.78,1192.73 1458.59,1186.93 
  1446.46,1181.12 1434.44,1175.32 1422.5,1169.51 1410.65,1163.71 1398.89,1157.9 1387.21,1152.1 1375.61,1146.29 1364.11,1140.48 1352.69,1134.68 1341.35,1128.87 
  1330.09,1123.07 1318.92,1117.26 1307.81,1111.46 1296.8,1105.65 1285.88,1099.85 1275.03,1094.04 1264.27,1088.24 1253.58,1082.43 1242.98,1076.62 1232.46,1070.82 
  1222.01,1065.01 1211.65,1059.21 1201.36,1053.4 1191.15,1047.6 1181.02,1041.79 1170.96,1035.99 1160.98,1030.18 1151.08,1024.38 1141.25,1018.57 1131.51,1012.77 
  1121.81,1006.96 1112.14,1001.15 1102.54,995.349 1093,989.544 1083.54,983.738 1074.15,977.933 1064.83,972.127 1055.57,966.322 1046.39,960.516 1037.28,954.711 
  1028.23,948.906 1019.25,943.1 1010.35,937.295 1001.51,931.489 992.735,925.684 984.031,919.879 975.395,914.073 966.825,908.268 958.322,902.462 949.886,896.657 
  941.515,890.852 933.21,885.046 924.97,879.241 916.815,873.435 908.707,867.63 900.663,861.824 892.683,856.019 884.768,850.214 876.916,844.408 869.127,838.603 
  861.402,832.797 853.739,826.992 846.139,821.187 838.601,815.381 831.124,809.576 823.709,803.77 816.355,797.965 809.062,792.16 801.83,786.354 794.657,780.549 
  787.545,774.743 780.491,768.938 773.479,763.132 766.546,757.327 759.671,751.522 752.854,745.716 746.094,739.911 739.392,734.105 732.746,728.3 726.156,722.495 
  719.622,716.689 713.144,710.884 706.721,705.078 700.353,699.273 694.039,693.468 687.778,687.662 681.572,681.857 675.418,676.051 669.317,670.246 663.268,664.44 
  657.27,658.635 651.324,652.83 645.429,647.024 639.584,641.219 633.788,635.413 628.042,629.608 622.345,623.803 616.696,617.997 611.111,612.192 605.553,606.386 
  600.043,600.581 594.579,594.775 589.161,588.97 583.789,583.165 578.461,577.359 573.178,571.554 568.035,565.748 562.975,559.943 557.967,554.138 552.997,548.332 
  548.064,542.527 543.168,536.721 538.308,530.916 533.484,525.111 528.695,519.305 523.94,513.5 519.219,507.694 514.532,501.889 509.878,496.083 505.256,490.278 
  500.686,484.473 496.125,478.667 491.597,472.862 487.099,467.056 482.633,461.251 478.197,455.446 473.792,449.64 469.416,443.835 465.07,438.029 460.753,432.224 
  456.465,426.419 452.206,420.613 447.975,414.808 443.773,409.002 439.598,403.197 435.451,397.391 431.332,391.586 427.24,385.781 423.175,379.975 419.137,374.17 
  415.126,368.364 411.142,362.559 407.183,356.754 403.252,350.948 399.346,345.143 395.467,339.337 391.613,333.532 387.786,327.727 383.984,321.921 380.207,316.116 
  376.456,310.31 372.731,304.505 369.031,298.699 365.356,292.894 361.689,287.089 358.066,281.283 354.468,275.478 350.895,269.672 347.345,263.867 343.821,258.062 
  340.321,252.256 336.845,246.451 333.393,240.645 329.966,234.84 326.563,229.034 323.184,223.229 319.829,217.424 316.498,211.618 313.191,205.813 309.907,200.007 
  
  "/>
<polyline clip-path="url(#clip442)" style="stroke:#e26f46; stroke-linecap:butt; stroke-linejoin:round; stroke-width:4; stroke-opacity:1; fill:none" points="
  1843.7,1358.19 1831.26,1352.38 1818.87,1346.58 1806.53,1340.77 1794.25,1334.97 1782.01,1329.16 1769.71,1323.35 1755.37,1317.55 1741.16,1311.74 1727.04,1305.94 
  1713.02,1300.13 1699.1,1294.33 1685.28,1288.52 1671.55,1282.72 1657.92,1276.91 1644.36,1271.11 1630.94,1265.3 1617.6,1259.5 1604.35,1253.69 1591.2,1247.88 
  1578.11,1242.08 1565.16,1236.27 1552.28,1230.47 1539.49,1224.66 1526.79,1218.86 1514.19,1213.05 1501.69,1207.25 1489.25,1201.44 1476.92,1195.64 1464.67,1189.83 
  1452.53,1184.02 1440.44,1178.22 1428.46,1172.41 1416.56,1166.61 1404.76,1160.8 1393.04,1155 1381.4,1149.19 1369.85,1143.39 1358.39,1137.58 1347.01,1131.78 
  1335.71,1125.97 1324.5,1120.17 1313.37,1114.36 1302.3,1108.55 1291.33,1102.75 1280.44,1096.94 1269.64,1091.14 1258.92,1085.33 1248.27,1079.53 1237.71,1073.72 
  1227.22,1067.92 1216.82,1062.11 1206.49,1056.31 1196.24,1050.5 1186.07,1044.69 1175.98,1038.89 1165.96,1033.08 1156.02,1027.28 1146.16,1021.47 1136.37,1015.67 
  1126.66,1009.86 1116.97,1004.06 1107.33,998.252 1097.76,992.446 1088.26,986.641 1078.84,980.835 1069.48,975.03 1060.19,969.225 1050.97,963.419 1041.82,957.614 
  1032.75,951.808 1023.73,946.003 1014.79,940.198 1005.92,934.392 997.113,928.587 988.375,922.781 979.705,916.976 971.102,911.17 962.565,905.365 954.096,899.56 
  945.692,893.754 937.355,887.949 929.082,882.143 920.894,876.338 912.753,870.533 904.677,864.727 896.665,858.922 888.717,853.116 880.834,847.311 873.014,841.506 
  865.257,835.7 857.563,829.895 849.931,824.089 842.362,818.284 834.855,812.478 827.409,806.673 820.025,800.868 812.701,795.062 805.438,789.257 798.236,783.451 
  791.093,777.646 784.011,771.841 776.987,766.035 770.005,760.23 763.101,754.424 756.255,748.619 749.467,742.814 742.736,737.008 736.062,731.203 729.444,725.397 
  722.882,719.592 716.376,713.786 709.926,707.981 703.53,702.176 697.189,696.37 690.902,690.565 684.668,684.759 678.488,678.954 672.361,673.149 666.286,667.343 
  660.263,661.538 654.291,655.732 648.37,649.927 642.5,644.121 636.68,638.316 630.909,632.511 625.187,626.705 619.514,620.9 613.889,615.094 608.326,609.289 
  602.792,603.484 597.305,597.678 591.864,591.873 586.469,586.067 581.119,580.262 575.814,574.457 570.559,568.651 565.495,562.846 560.467,557.04 555.478,551.235 
  550.526,545.429 545.612,539.624 540.734,533.819 535.892,528.013 531.085,522.208 526.313,516.402 521.575,510.597 516.872,504.792 512.201,498.986 507.563,493.181 
  502.958,487.375 498.402,481.57 493.857,475.765 489.344,469.959 484.862,464.154 480.411,458.348 475.991,452.543 471.6,446.737 467.239,440.932 462.908,435.127 
  458.606,429.321 454.332,423.516 450.087,417.71 445.871,411.905 441.682,406.1 437.521,400.294 433.388,394.489 429.283,388.683 425.204,382.878 421.153,377.073 
  417.128,371.267 413.13,365.462 409.159,359.656 405.214,353.851 401.296,348.045 397.403,342.24 393.537,336.435 389.696,330.629 385.882,324.824 382.092,319.018 
  378.329,313.213 374.59,307.408 370.878,301.602 367.19,295.797 363.527,289.991 359.875,284.186 356.264,278.381 352.678,272.575 349.117,266.77 345.58,260.964 
  342.068,255.159 338.58,249.353 335.116,243.548 331.677,237.743 328.262,231.937 324.87,226.132 321.503,220.326 318.16,214.521 314.841,208.716 311.546,202.91 
  308.274,197.105 
  "/>
<path clip-path="url(#clip440)" d="
M1482.38 358.817 L1835.51 358.817 L1835.51 203.297 L1482.38 203.297  Z
  " fill="#ffffff" fill-rule="evenodd" fill-opacity="1"/>
<polyline clip-path="url(#clip440)" style="stroke:#000000; stroke-linecap:butt; stroke-linejoin:round; stroke-width:4; stroke-opacity:1; fill:none" points="
  1482.38,358.817 1835.51,358.817 1835.51,203.297 1482.38,203.297 1482.38,358.817 
  "/>
<polyline clip-path="url(#clip440)" style="stroke:#009af9; stroke-linecap:butt; stroke-linejoin:round; stroke-width:4; stroke-opacity:1; fill:none" points="
  1500.47,255.137 1608.97,255.137 
  "/>
<path clip-path="url(#clip440)" d="M1647.56 247.487 L1647.56 251.468 Q1645.76 250.473 1643.93 249.987 Q1642.12 249.477 1640.27 249.477 Q1636.13 249.477 1633.84 252.116 Q1631.54 254.732 1631.54 259.477 Q1631.54 264.223 1633.84 266.862 Q1636.13 269.477 1640.27 269.477 Q1642.12 269.477 1643.93 268.991 Q1645.76 268.482 1647.56 267.487 L1647.56 271.422 Q1645.78 272.255 1643.86 272.672 Q1641.96 273.088 1639.81 273.088 Q1633.95 273.088 1630.5 269.408 Q1627.05 265.727 1627.05 259.477 Q1627.05 253.135 1630.53 249.501 Q1634.02 245.866 1640.09 245.866 Q1642.05 245.866 1643.93 246.283 Q1645.8 246.677 1647.56 247.487 Z" fill="#000000" fill-rule="evenodd" fill-opacity="1" /><path clip-path="url(#clip440)" d="M1677.15 258.389 L1677.15 260.473 L1657.56 260.473 Q1657.84 264.871 1660.2 267.186 Q1662.59 269.477 1666.82 269.477 Q1669.28 269.477 1671.57 268.876 Q1673.88 268.274 1676.15 267.07 L1676.15 271.098 Q1673.86 272.07 1671.45 272.579 Q1669.04 273.088 1666.57 273.088 Q1660.36 273.088 1656.73 269.477 Q1653.12 265.866 1653.12 259.709 Q1653.12 253.343 1656.54 249.616 Q1659.99 245.866 1665.83 245.866 Q1671.06 245.866 1674.09 249.246 Q1677.15 252.602 1677.15 258.389 M1672.89 257.139 Q1672.84 253.644 1670.92 251.561 Q1669.02 249.477 1665.87 249.477 Q1662.31 249.477 1660.16 251.491 Q1658.03 253.505 1657.7 257.163 L1672.89 257.139 Z" fill="#000000" fill-rule="evenodd" fill-opacity="1" /><path clip-path="url(#clip440)" d="M1705.69 256.769 L1705.69 272.417 L1701.43 272.417 L1701.43 256.908 Q1701.43 253.227 1699.99 251.399 Q1698.56 249.57 1695.69 249.57 Q1692.24 249.57 1690.25 251.769 Q1688.26 253.968 1688.26 257.764 L1688.26 272.417 L1683.97 272.417 L1683.97 246.491 L1688.26 246.491 L1688.26 250.519 Q1689.78 248.181 1691.84 247.024 Q1693.93 245.866 1696.64 245.866 Q1701.1 245.866 1703.4 248.644 Q1705.69 251.399 1705.69 256.769 Z" fill="#000000" fill-rule="evenodd" fill-opacity="1" /><path clip-path="url(#clip440)" d="M1718.4 239.13 L1718.4 246.491 L1727.17 246.491 L1727.17 249.802 L1718.4 249.802 L1718.4 263.876 Q1718.4 267.047 1719.25 267.95 Q1720.13 268.852 1722.79 268.852 L1727.17 268.852 L1727.17 272.417 L1722.79 272.417 Q1717.86 272.417 1715.99 270.588 Q1714.11 268.737 1714.11 263.876 L1714.11 249.802 L1710.99 249.802 L1710.99 246.491 L1714.11 246.491 L1714.11 239.13 L1718.4 239.13 Z" fill="#000000" fill-rule="evenodd" fill-opacity="1" /><path clip-path="url(#clip440)" d="M1754.95 258.389 L1754.95 260.473 L1735.36 260.473 Q1735.64 264.871 1738 267.186 Q1740.39 269.477 1744.62 269.477 Q1747.08 269.477 1749.37 268.876 Q1751.68 268.274 1753.95 267.07 L1753.95 271.098 Q1751.66 272.07 1749.25 272.579 Q1746.84 273.088 1744.37 273.088 Q1738.16 273.088 1734.53 269.477 Q1730.92 265.866 1730.92 259.709 Q1730.92 253.343 1734.34 249.616 Q1737.79 245.866 1743.63 245.866 Q1748.86 245.866 1751.89 249.246 Q1754.95 252.602 1754.95 258.389 M1750.69 257.139 Q1750.64 253.644 1748.72 251.561 Q1746.82 249.477 1743.67 249.477 Q1740.11 249.477 1737.96 251.491 Q1735.83 253.505 1735.5 257.163 L1750.69 257.139 Z" fill="#000000" fill-rule="evenodd" fill-opacity="1" /><path clip-path="url(#clip440)" d="M1776.96 250.473 Q1776.24 250.056 1775.39 249.871 Q1774.55 249.663 1773.53 249.663 Q1769.92 249.663 1767.98 252.024 Q1766.06 254.362 1766.06 258.76 L1766.06 272.417 L1761.77 272.417 L1761.77 246.491 L1766.06 246.491 L1766.06 250.519 Q1767.4 248.158 1769.55 247.024 Q1771.71 245.866 1774.78 245.866 Q1775.22 245.866 1775.76 245.936 Q1776.29 245.982 1776.94 246.098 L1776.96 250.473 Z" fill="#000000" fill-rule="evenodd" fill-opacity="1" /><path clip-path="url(#clip440)" d="M1797.96 247.255 L1797.96 251.283 Q1796.15 250.357 1794.21 249.894 Q1792.26 249.431 1790.18 249.431 Q1787.01 249.431 1785.41 250.403 Q1783.84 251.376 1783.84 253.32 Q1783.84 254.802 1784.97 255.658 Q1786.1 256.491 1789.53 257.255 L1790.99 257.579 Q1795.52 258.552 1797.42 260.334 Q1799.34 262.093 1799.34 265.264 Q1799.34 268.876 1796.47 270.982 Q1793.63 273.088 1788.63 273.088 Q1786.54 273.088 1784.27 272.672 Q1782.03 272.278 1779.53 271.468 L1779.53 267.07 Q1781.89 268.297 1784.18 268.922 Q1786.47 269.524 1788.72 269.524 Q1791.73 269.524 1793.35 268.505 Q1794.97 267.463 1794.97 265.589 Q1794.97 263.852 1793.79 262.926 Q1792.63 262.001 1788.67 261.144 L1787.19 260.797 Q1783.23 259.964 1781.47 258.251 Q1779.71 256.514 1779.71 253.505 Q1779.71 249.848 1782.31 247.857 Q1784.9 245.866 1789.67 245.866 Q1792.03 245.866 1794.11 246.214 Q1796.2 246.561 1797.96 247.255 Z" fill="#000000" fill-rule="evenodd" fill-opacity="1" /><polyline clip-path="url(#clip440)" style="stroke:#e26f46; stroke-linecap:butt; stroke-linejoin:round; stroke-width:4; stroke-opacity:1; fill:none" points="
  1500.47,306.977 1608.97,306.977 
  "/>
<path clip-path="url(#clip440)" d="M1643.56 288.239 L1643.56 291.78 L1639.48 291.78 Q1637.19 291.78 1636.29 292.706 Q1635.41 293.632 1635.41 296.04 L1635.41 298.331 L1642.42 298.331 L1642.42 301.642 L1635.41 301.642 L1635.41 324.257 L1631.13 324.257 L1631.13 301.642 L1627.05 301.642 L1627.05 298.331 L1631.13 298.331 L1631.13 296.526 Q1631.13 292.197 1633.14 290.23 Q1635.16 288.239 1639.53 288.239 L1643.56 288.239 Z" fill="#000000" fill-rule="evenodd" fill-opacity="1" /><path clip-path="url(#clip440)" d="M1658.91 311.225 Q1653.74 311.225 1651.75 312.405 Q1649.76 313.586 1649.76 316.433 Q1649.76 318.702 1651.24 320.044 Q1652.75 321.364 1655.32 321.364 Q1658.86 321.364 1660.99 318.864 Q1663.14 316.341 1663.14 312.174 L1663.14 311.225 L1658.91 311.225 M1667.4 309.466 L1667.4 324.257 L1663.14 324.257 L1663.14 320.322 Q1661.68 322.683 1659.51 323.817 Q1657.33 324.928 1654.18 324.928 Q1650.2 324.928 1647.84 322.706 Q1645.5 320.461 1645.5 316.711 Q1645.5 312.336 1648.42 310.114 Q1651.36 307.892 1657.17 307.892 L1663.14 307.892 L1663.14 307.475 Q1663.14 304.535 1661.2 302.938 Q1659.28 301.317 1655.78 301.317 Q1653.56 301.317 1651.45 301.85 Q1649.35 302.382 1647.4 303.447 L1647.4 299.512 Q1649.74 298.609 1651.94 298.169 Q1654.14 297.706 1656.22 297.706 Q1661.84 297.706 1664.62 300.623 Q1667.4 303.54 1667.4 309.466 Z" fill="#000000" fill-rule="evenodd" fill-opacity="1" /><path clip-path="url(#clip440)" d="M1694.83 299.327 L1694.83 303.308 Q1693.03 302.313 1691.2 301.827 Q1689.39 301.317 1687.54 301.317 Q1683.4 301.317 1681.1 303.956 Q1678.81 306.572 1678.81 311.317 Q1678.81 316.063 1681.1 318.702 Q1683.4 321.317 1687.54 321.317 Q1689.39 321.317 1691.2 320.831 Q1693.03 320.322 1694.83 319.327 L1694.83 323.262 Q1693.05 324.095 1691.13 324.512 Q1689.23 324.928 1687.08 324.928 Q1681.22 324.928 1677.77 321.248 Q1674.32 317.567 1674.32 311.317 Q1674.32 304.975 1677.79 301.341 Q1681.29 297.706 1687.35 297.706 Q1689.32 297.706 1691.2 298.123 Q1693.07 298.517 1694.83 299.327 Z" fill="#000000" fill-rule="evenodd" fill-opacity="1" /><path clip-path="url(#clip440)" d="M1724.41 310.229 L1724.41 312.313 L1704.83 312.313 Q1705.11 316.711 1707.47 319.026 Q1709.85 321.317 1714.09 321.317 Q1716.54 321.317 1718.84 320.716 Q1721.15 320.114 1723.42 318.91 L1723.42 322.938 Q1721.13 323.91 1718.72 324.419 Q1716.31 324.928 1713.84 324.928 Q1707.63 324.928 1704 321.317 Q1700.39 317.706 1700.39 311.549 Q1700.39 305.183 1703.81 301.456 Q1707.26 297.706 1713.09 297.706 Q1718.33 297.706 1721.36 301.086 Q1724.41 304.442 1724.41 310.229 M1720.15 308.979 Q1720.11 305.484 1718.19 303.401 Q1716.29 301.317 1713.14 301.317 Q1709.58 301.317 1707.42 303.331 Q1705.29 305.345 1704.97 309.003 L1720.15 308.979 Z" fill="#000000" fill-rule="evenodd" fill-opacity="1" /><path clip-path="url(#clip440)" d="M1747.93 299.095 L1747.93 303.123 Q1746.13 302.197 1744.18 301.734 Q1742.24 301.271 1740.15 301.271 Q1736.98 301.271 1735.39 302.243 Q1733.81 303.216 1733.81 305.16 Q1733.81 306.642 1734.95 307.498 Q1736.08 308.331 1739.51 309.095 L1740.96 309.419 Q1745.5 310.392 1747.4 312.174 Q1749.32 313.933 1749.32 317.104 Q1749.32 320.716 1746.45 322.822 Q1743.6 324.928 1738.6 324.928 Q1736.52 324.928 1734.25 324.512 Q1732.01 324.118 1729.51 323.308 L1729.51 318.91 Q1731.87 320.137 1734.16 320.762 Q1736.45 321.364 1738.7 321.364 Q1741.71 321.364 1743.33 320.345 Q1744.95 319.303 1744.95 317.429 Q1744.95 315.692 1743.77 314.766 Q1742.61 313.841 1738.65 312.984 L1737.17 312.637 Q1733.21 311.804 1731.45 310.091 Q1729.69 308.354 1729.69 305.345 Q1729.69 301.688 1732.28 299.697 Q1734.88 297.706 1739.65 297.706 Q1742.01 297.706 1744.09 298.054 Q1746.17 298.401 1747.93 299.095 Z" fill="#000000" fill-rule="evenodd" fill-opacity="1" /><path clip-path="url(#clip440)" d="
M2262.21 1393.02 L3889.76 1393.02 L3889.76 162.272 L2262.21 162.272  Z
  " fill="#ffffff" fill-rule="evenodd" fill-opacity="1"/>
<defs>
  <clipPath id="clip443">
    <rect x="2262" y="162" width="1629" height="1232"/>
  </clipPath>
</defs>
<polyline clip-path="url(#clip443)" style="stroke:#000000; stroke-linecap:butt; stroke-linejoin:round; stroke-width:2; stroke-opacity:0.1; fill:none" points="
  2488.96,1393.02 2488.96,162.272 
  "/>
<polyline clip-path="url(#clip443)" style="stroke:#000000; stroke-linecap:butt; stroke-linejoin:round; stroke-width:2; stroke-opacity:0.1; fill:none" points="
  2822.23,1393.02 2822.23,162.272 
  "/>
<polyline clip-path="url(#clip443)" style="stroke:#000000; stroke-linecap:butt; stroke-linejoin:round; stroke-width:2; stroke-opacity:0.1; fill:none" points="
  3155.5,1393.02 3155.5,162.272 
  "/>
<polyline clip-path="url(#clip443)" style="stroke:#000000; stroke-linecap:butt; stroke-linejoin:round; stroke-width:2; stroke-opacity:0.1; fill:none" points="
  3488.77,1393.02 3488.77,162.272 
  "/>
<polyline clip-path="url(#clip443)" style="stroke:#000000; stroke-linecap:butt; stroke-linejoin:round; stroke-width:2; stroke-opacity:0.1; fill:none" points="
  3822.04,1393.02 3822.04,162.272 
  "/>
<polyline clip-path="url(#clip440)" style="stroke:#000000; stroke-linecap:butt; stroke-linejoin:round; stroke-width:4; stroke-opacity:1; fill:none" points="
  2262.21,1393.02 3889.76,1393.02 
  "/>
<polyline clip-path="url(#clip440)" style="stroke:#000000; stroke-linecap:butt; stroke-linejoin:round; stroke-width:4; stroke-opacity:1; fill:none" points="
  2488.96,1393.02 2488.96,1374.12 
  "/>
<polyline clip-path="url(#clip440)" style="stroke:#000000; stroke-linecap:butt; stroke-linejoin:round; stroke-width:4; stroke-opacity:1; fill:none" points="
  2822.23,1393.02 2822.23,1374.12 
  "/>
<polyline clip-path="url(#clip440)" style="stroke:#000000; stroke-linecap:butt; stroke-linejoin:round; stroke-width:4; stroke-opacity:1; fill:none" points="
  3155.5,1393.02 3155.5,1374.12 
  "/>
<polyline clip-path="url(#clip440)" style="stroke:#000000; stroke-linecap:butt; stroke-linejoin:round; stroke-width:4; stroke-opacity:1; fill:none" points="
  3488.77,1393.02 3488.77,1374.12 
  "/>
<polyline clip-path="url(#clip440)" style="stroke:#000000; stroke-linecap:butt; stroke-linejoin:round; stroke-width:4; stroke-opacity:1; fill:none" points="
  3822.04,1393.02 3822.04,1374.12 
  "/>
<path clip-path="url(#clip440)" d="M2467.74 1464.28 L2484.06 1464.28 L2484.06 1468.22 L2462.11 1468.22 L2462.11 1464.28 Q2464.77 1461.53 2469.36 1456.9 Q2473.96 1452.25 2475.14 1450.9 Q2477.39 1448.38 2478.27 1446.65 Q2479.17 1444.89 2479.17 1443.2 Q2479.17 1440.44 2477.23 1438.71 Q2475.31 1436.97 2472.2 1436.97 Q2470 1436.97 2467.55 1437.73 Q2465.12 1438.5 2462.34 1440.05 L2462.34 1435.33 Q2465.17 1434.19 2467.62 1433.61 Q2470.07 1433.03 2472.11 1433.03 Q2477.48 1433.03 2480.68 1435.72 Q2483.87 1438.41 2483.87 1442.9 Q2483.87 1445.03 2483.06 1446.95 Q2482.27 1448.84 2480.17 1451.44 Q2479.59 1452.11 2476.49 1455.33 Q2473.38 1458.52 2467.74 1464.28 Z" fill="#000000" fill-rule="evenodd" fill-opacity="1" /><path clip-path="url(#clip440)" d="M2503.87 1436.74 Q2500.26 1436.74 2498.43 1440.3 Q2496.63 1443.84 2496.63 1450.97 Q2496.63 1458.08 2498.43 1461.65 Q2500.26 1465.19 2503.87 1465.19 Q2507.5 1465.19 2509.31 1461.65 Q2511.14 1458.08 2511.14 1450.97 Q2511.14 1443.84 2509.31 1440.3 Q2507.5 1436.74 2503.87 1436.74 M2503.87 1433.03 Q2509.68 1433.03 2512.74 1437.64 Q2515.81 1442.22 2515.81 1450.97 Q2515.81 1459.7 2512.74 1464.31 Q2509.68 1468.89 2503.87 1468.89 Q2498.06 1468.89 2494.98 1464.31 Q2491.93 1459.7 2491.93 1450.97 Q2491.93 1442.22 2494.98 1437.64 Q2498.06 1433.03 2503.87 1433.03 Z" fill="#000000" fill-rule="evenodd" fill-opacity="1" /><path clip-path="url(#clip440)" d="M2810.4 1437.73 L2798.6 1456.18 L2810.4 1456.18 L2810.4 1437.73 M2809.18 1433.66 L2815.06 1433.66 L2815.06 1456.18 L2819.99 1456.18 L2819.99 1460.07 L2815.06 1460.07 L2815.06 1468.22 L2810.4 1468.22 L2810.4 1460.07 L2794.8 1460.07 L2794.8 1455.56 L2809.18 1433.66 Z" fill="#000000" fill-rule="evenodd" fill-opacity="1" /><path clip-path="url(#clip440)" d="M2837.72 1436.74 Q2834.11 1436.74 2832.28 1440.3 Q2830.47 1443.84 2830.47 1450.97 Q2830.47 1458.08 2832.28 1461.65 Q2834.11 1465.19 2837.72 1465.19 Q2841.35 1465.19 2843.16 1461.65 Q2844.99 1458.08 2844.99 1450.97 Q2844.99 1443.84 2843.16 1440.3 Q2841.35 1436.74 2837.72 1436.74 M2837.72 1433.03 Q2843.53 1433.03 2846.58 1437.64 Q2849.66 1442.22 2849.66 1450.97 Q2849.66 1459.7 2846.58 1464.31 Q2843.53 1468.89 2837.72 1468.89 Q2831.91 1468.89 2828.83 1464.31 Q2825.77 1459.7 2825.77 1450.97 Q2825.77 1442.22 2828.83 1437.64 Q2831.91 1433.03 2837.72 1433.03 Z" fill="#000000" fill-rule="evenodd" fill-opacity="1" /><path clip-path="url(#clip440)" d="M3140.91 1449.08 Q3137.76 1449.08 3135.91 1451.23 Q3134.08 1453.38 3134.08 1457.13 Q3134.08 1460.86 3135.91 1463.03 Q3137.76 1465.19 3140.91 1465.19 Q3144.05 1465.19 3145.88 1463.03 Q3147.73 1460.86 3147.73 1457.13 Q3147.73 1453.38 3145.88 1451.23 Q3144.05 1449.08 3140.91 1449.08 M3150.19 1434.42 L3150.19 1438.68 Q3148.43 1437.85 3146.62 1437.41 Q3144.84 1436.97 3143.08 1436.97 Q3138.45 1436.97 3136 1440.09 Q3133.57 1443.22 3133.22 1449.54 Q3134.59 1447.53 3136.65 1446.46 Q3138.71 1445.37 3141.18 1445.37 Q3146.39 1445.37 3149.4 1448.54 Q3152.43 1451.69 3152.43 1457.13 Q3152.43 1462.46 3149.29 1465.67 Q3146.14 1468.89 3140.91 1468.89 Q3134.91 1468.89 3131.74 1464.31 Q3128.57 1459.7 3128.57 1450.97 Q3128.57 1442.78 3132.46 1437.92 Q3136.35 1433.03 3142.9 1433.03 Q3144.66 1433.03 3146.44 1433.38 Q3148.24 1433.73 3150.19 1434.42 Z" fill="#000000" fill-rule="evenodd" fill-opacity="1" /><path clip-path="url(#clip440)" d="M3170.49 1436.74 Q3166.88 1436.74 3165.05 1440.3 Q3163.24 1443.84 3163.24 1450.97 Q3163.24 1458.08 3165.05 1461.65 Q3166.88 1465.19 3170.49 1465.19 Q3174.12 1465.19 3175.93 1461.65 Q3177.76 1458.08 3177.76 1450.97 Q3177.76 1443.84 3175.93 1440.3 Q3174.12 1436.74 3170.49 1436.74 M3170.49 1433.03 Q3176.3 1433.03 3179.35 1437.64 Q3182.43 1442.22 3182.43 1450.97 Q3182.43 1459.7 3179.35 1464.31 Q3176.3 1468.89 3170.49 1468.89 Q3164.68 1468.89 3161.6 1464.31 Q3158.54 1459.7 3158.54 1450.97 Q3158.54 1442.22 3161.6 1437.64 Q3164.68 1433.03 3170.49 1433.03 Z" fill="#000000" fill-rule="evenodd" fill-opacity="1" /><path clip-path="url(#clip440)" d="M3473.64 1451.81 Q3470.31 1451.81 3468.39 1453.59 Q3466.49 1455.37 3466.49 1458.5 Q3466.49 1461.62 3468.39 1463.4 Q3470.31 1465.19 3473.64 1465.19 Q3476.98 1465.19 3478.9 1463.4 Q3480.82 1461.6 3480.82 1458.5 Q3480.82 1455.37 3478.9 1453.59 Q3477 1451.81 3473.64 1451.81 M3468.97 1449.82 Q3465.96 1449.08 3464.27 1447.02 Q3462.6 1444.96 3462.6 1441.99 Q3462.6 1437.85 3465.54 1435.44 Q3468.5 1433.03 3473.64 1433.03 Q3478.8 1433.03 3481.74 1435.44 Q3484.68 1437.85 3484.68 1441.99 Q3484.68 1444.96 3482.99 1447.02 Q3481.33 1449.08 3478.34 1449.82 Q3481.72 1450.6 3483.6 1452.9 Q3485.49 1455.19 3485.49 1458.5 Q3485.49 1463.52 3482.42 1466.21 Q3479.36 1468.89 3473.64 1468.89 Q3467.92 1468.89 3464.85 1466.21 Q3461.79 1463.52 3461.79 1458.5 Q3461.79 1455.19 3463.69 1452.9 Q3465.59 1450.6 3468.97 1449.82 M3467.25 1442.43 Q3467.25 1445.12 3468.92 1446.62 Q3470.61 1448.13 3473.64 1448.13 Q3476.65 1448.13 3478.34 1446.62 Q3480.05 1445.12 3480.05 1442.43 Q3480.05 1439.75 3478.34 1438.24 Q3476.65 1436.74 3473.64 1436.74 Q3470.61 1436.74 3468.92 1438.24 Q3467.25 1439.75 3467.25 1442.43 Z" fill="#000000" fill-rule="evenodd" fill-opacity="1" /><path clip-path="url(#clip440)" d="M3503.8 1436.74 Q3500.19 1436.74 3498.36 1440.3 Q3496.56 1443.84 3496.56 1450.97 Q3496.56 1458.08 3498.36 1461.65 Q3500.19 1465.19 3503.8 1465.19 Q3507.44 1465.19 3509.24 1461.65 Q3511.07 1458.08 3511.07 1450.97 Q3511.07 1443.84 3509.24 1440.3 Q3507.44 1436.74 3503.8 1436.74 M3503.8 1433.03 Q3509.61 1433.03 3512.67 1437.64 Q3515.75 1442.22 3515.75 1450.97 Q3515.75 1459.7 3512.67 1464.31 Q3509.61 1468.89 3503.8 1468.89 Q3497.99 1468.89 3494.92 1464.31 Q3491.86 1459.7 3491.86 1450.97 Q3491.86 1442.22 3494.92 1437.64 Q3497.99 1433.03 3503.8 1433.03 Z" fill="#000000" fill-rule="evenodd" fill-opacity="1" /><path clip-path="url(#clip440)" d="M3781.65 1464.28 L3789.28 1464.28 L3789.28 1437.92 L3780.97 1439.59 L3780.97 1435.33 L3789.24 1433.66 L3793.91 1433.66 L3793.91 1464.28 L3801.55 1464.28 L3801.55 1468.22 L3781.65 1468.22 L3781.65 1464.28 Z" fill="#000000" fill-rule="evenodd" fill-opacity="1" /><path clip-path="url(#clip440)" d="M3821 1436.74 Q3817.39 1436.74 3815.56 1440.3 Q3813.75 1443.84 3813.75 1450.97 Q3813.75 1458.08 3815.56 1461.65 Q3817.39 1465.19 3821 1465.19 Q3824.63 1465.19 3826.44 1461.65 Q3828.27 1458.08 3828.27 1450.97 Q3828.27 1443.84 3826.44 1440.3 Q3824.63 1436.74 3821 1436.74 M3821 1433.03 Q3826.81 1433.03 3829.86 1437.64 Q3832.94 1442.22 3832.94 1450.97 Q3832.94 1459.7 3829.86 1464.31 Q3826.81 1468.89 3821 1468.89 Q3815.19 1468.89 3812.11 1464.31 Q3809.05 1459.7 3809.05 1450.97 Q3809.05 1442.22 3812.11 1437.64 Q3815.19 1433.03 3821 1433.03 Z" fill="#000000" fill-rule="evenodd" fill-opacity="1" /><path clip-path="url(#clip440)" d="M3851.16 1436.74 Q3847.55 1436.74 3845.72 1440.3 Q3843.91 1443.84 3843.91 1450.97 Q3843.91 1458.08 3845.72 1461.65 Q3847.55 1465.19 3851.16 1465.19 Q3854.79 1465.19 3856.6 1461.65 Q3858.43 1458.08 3858.43 1450.97 Q3858.43 1443.84 3856.6 1440.3 Q3854.79 1436.74 3851.16 1436.74 M3851.16 1433.03 Q3856.97 1433.03 3860.02 1437.64 Q3863.1 1442.22 3863.1 1450.97 Q3863.1 1459.7 3860.02 1464.31 Q3856.97 1468.89 3851.16 1468.89 Q3845.35 1468.89 3842.27 1464.31 Q3839.21 1459.7 3839.21 1450.97 Q3839.21 1442.22 3842.27 1437.64 Q3845.35 1433.03 3851.16 1433.03 Z" fill="#000000" fill-rule="evenodd" fill-opacity="1" /><path clip-path="url(#clip440)" d="M2974.12 1556.54 L2974.12 1575.44 L2968.23 1575.44 L2968.23 1526.24 L2974.12 1526.24 L2974.12 1531.65 Q2975.97 1528.46 2978.77 1526.94 Q2981.6 1525.38 2985.52 1525.38 Q2992.01 1525.38 2996.05 1530.53 Q3000.12 1535.69 3000.12 1544.09 Q3000.12 1552.49 2996.05 1557.65 Q2992.01 1562.81 2985.52 1562.81 Q2981.6 1562.81 2978.77 1561.28 Q2975.97 1559.72 2974.12 1556.54 M2994.05 1544.09 Q2994.05 1537.63 2991.37 1533.97 Q2988.73 1530.28 2984.08 1530.28 Q2979.44 1530.28 2976.76 1533.97 Q2974.12 1537.63 2974.12 1544.09 Q2974.12 1550.55 2976.76 1554.24 Q2979.44 1557.91 2984.08 1557.91 Q2988.73 1557.91 2991.37 1554.24 Q2994.05 1550.55 2994.05 1544.09 Z" fill="#000000" fill-rule="evenodd" fill-opacity="1" /><path clip-path="url(#clip440)" d="M3044.62 1512.42 Q3040.36 1519.74 3038.29 1526.9 Q3036.22 1534.07 3036.22 1541.42 Q3036.22 1548.77 3038.29 1556 Q3040.39 1563.19 3044.62 1570.48 L3039.53 1570.48 Q3034.75 1563 3032.37 1555.77 Q3030.01 1548.55 3030.01 1541.42 Q3030.01 1534.32 3032.37 1527.13 Q3034.72 1519.93 3039.53 1512.42 L3044.62 1512.42 Z" fill="#000000" fill-rule="evenodd" fill-opacity="1" /><path clip-path="url(#clip440)" d="M3055.76 1512.36 L3061.65 1512.36 L3061.65 1541.61 L3079.12 1526.24 L3086.6 1526.24 L3067.7 1542.91 L3087.4 1561.88 L3079.76 1561.88 L3061.65 1544.47 L3061.65 1561.88 L3055.76 1561.88 L3055.76 1512.36 Z" fill="#000000" fill-rule="evenodd" fill-opacity="1" /><path clip-path="url(#clip440)" d="M3100.42 1519.65 L3100.42 1537.5 L3108.5 1537.5 Q3112.99 1537.5 3115.44 1535.18 Q3117.89 1532.86 3117.89 1528.56 Q3117.89 1524.29 3115.44 1521.97 Q3112.99 1519.65 3108.5 1519.65 L3100.42 1519.65 M3093.99 1514.36 L3108.5 1514.36 Q3116.49 1514.36 3120.56 1517.99 Q3124.67 1521.59 3124.67 1528.56 Q3124.67 1535.59 3120.56 1539.19 Q3116.49 1542.79 3108.5 1542.79 L3100.42 1542.79 L3100.42 1561.88 L3093.99 1561.88 L3093.99 1514.36 Z" fill="#000000" fill-rule="evenodd" fill-opacity="1" /><path clip-path="url(#clip440)" d="M3146.31 1543.96 Q3139.22 1543.96 3136.48 1545.59 Q3133.74 1547.21 3133.74 1551.13 Q3133.74 1554.24 3135.78 1556.09 Q3137.85 1557.91 3141.38 1557.91 Q3146.25 1557.91 3149.18 1554.47 Q3152.14 1551 3152.14 1545.27 L3152.14 1543.96 L3146.31 1543.96 M3157.99 1541.55 L3157.99 1561.88 L3152.14 1561.88 L3152.14 1556.47 Q3150.13 1559.72 3147.14 1561.28 Q3144.15 1562.81 3139.82 1562.81 Q3134.35 1562.81 3131.1 1559.75 Q3127.88 1556.66 3127.88 1551.51 Q3127.88 1545.49 3131.89 1542.44 Q3135.94 1539.38 3143.93 1539.38 L3152.14 1539.38 L3152.14 1538.81 Q3152.14 1534.77 3149.46 1532.57 Q3146.82 1530.34 3142.02 1530.34 Q3138.96 1530.34 3136.06 1531.07 Q3133.17 1531.81 3130.49 1533.27 L3130.49 1527.86 Q3133.71 1526.62 3136.73 1526.01 Q3139.76 1525.38 3142.62 1525.38 Q3150.36 1525.38 3154.17 1529.39 Q3157.99 1533.4 3157.99 1541.55 Z" fill="#000000" fill-rule="evenodd" fill-opacity="1" /><path clip-path="url(#clip440)" d="M3169.13 1512.42 L3174.23 1512.42 Q3179 1519.93 3181.36 1527.13 Q3183.74 1534.32 3183.74 1541.42 Q3183.74 1548.55 3181.36 1555.77 Q3179 1563 3174.23 1570.48 L3169.13 1570.48 Q3173.37 1563.19 3175.44 1556 Q3177.54 1548.77 3177.54 1541.42 Q3177.54 1534.07 3175.44 1526.9 Q3173.37 1519.74 3169.13 1512.42 Z" fill="#000000" fill-rule="evenodd" fill-opacity="1" /><polyline clip-path="url(#clip443)" style="stroke:#000000; stroke-linecap:butt; stroke-linejoin:round; stroke-width:2; stroke-opacity:0.1; fill:none" points="
  2262.21,1358.19 3889.76,1358.19 
  "/>
<polyline clip-path="url(#clip443)" style="stroke:#000000; stroke-linecap:butt; stroke-linejoin:round; stroke-width:2; stroke-opacity:0.1; fill:none" points="
  2262.21,1016.69 3889.76,1016.69 
  "/>
<polyline clip-path="url(#clip443)" style="stroke:#000000; stroke-linecap:butt; stroke-linejoin:round; stroke-width:2; stroke-opacity:0.1; fill:none" points="
  2262.21,675.198 3889.76,675.198 
  "/>
<polyline clip-path="url(#clip443)" style="stroke:#000000; stroke-linecap:butt; stroke-linejoin:round; stroke-width:2; stroke-opacity:0.1; fill:none" points="
  2262.21,333.703 3889.76,333.703 
  "/>
<polyline clip-path="url(#clip440)" style="stroke:#000000; stroke-linecap:butt; stroke-linejoin:round; stroke-width:4; stroke-opacity:1; fill:none" points="
  2262.21,1393.02 2262.21,162.272 
  "/>
<polyline clip-path="url(#clip440)" style="stroke:#000000; stroke-linecap:butt; stroke-linejoin:round; stroke-width:4; stroke-opacity:1; fill:none" points="
  2262.21,1358.19 2281.11,1358.19 
  "/>
<polyline clip-path="url(#clip440)" style="stroke:#000000; stroke-linecap:butt; stroke-linejoin:round; stroke-width:4; stroke-opacity:1; fill:none" points="
  2262.21,1016.69 2281.11,1016.69 
  "/>
<polyline clip-path="url(#clip440)" style="stroke:#000000; stroke-linecap:butt; stroke-linejoin:round; stroke-width:4; stroke-opacity:1; fill:none" points="
  2262.21,675.198 2281.11,675.198 
  "/>
<polyline clip-path="url(#clip440)" style="stroke:#000000; stroke-linecap:butt; stroke-linejoin:round; stroke-width:4; stroke-opacity:1; fill:none" points="
  2262.21,333.703 2281.11,333.703 
  "/>
<path clip-path="url(#clip440)" d="M2190.27 1343.99 Q2186.66 1343.99 2184.83 1347.55 Q2183.02 1351.09 2183.02 1358.22 Q2183.02 1365.33 2184.83 1368.89 Q2186.66 1372.43 2190.27 1372.43 Q2193.9 1372.43 2195.71 1368.89 Q2197.54 1365.33 2197.54 1358.22 Q2197.54 1351.09 2195.71 1347.55 Q2193.9 1343.99 2190.27 1343.99 M2190.27 1340.28 Q2196.08 1340.28 2199.13 1344.89 Q2202.21 1349.47 2202.21 1358.22 Q2202.21 1366.95 2199.13 1371.56 Q2196.08 1376.14 2190.27 1376.14 Q2184.46 1376.14 2181.38 1371.56 Q2178.32 1366.95 2178.32 1358.22 Q2178.32 1349.47 2181.38 1344.89 Q2184.46 1340.28 2190.27 1340.28 Z" fill="#000000" fill-rule="evenodd" fill-opacity="1" /><path clip-path="url(#clip440)" d="M2181.31 999.412 L2199.67 999.412 L2199.67 1003.35 L2185.59 1003.35 L2185.59 1011.82 Q2186.61 1011.47 2187.63 1011.31 Q2188.65 1011.13 2189.67 1011.13 Q2195.45 1011.13 2198.83 1014.3 Q2202.21 1017.47 2202.21 1022.88 Q2202.21 1028.46 2198.74 1031.56 Q2195.27 1034.64 2188.95 1034.64 Q2186.77 1034.64 2184.5 1034.27 Q2182.26 1033.9 2179.85 1033.16 L2179.85 1028.46 Q2181.93 1029.6 2184.16 1030.15 Q2186.38 1030.71 2188.86 1030.71 Q2192.86 1030.71 2195.2 1028.6 Q2197.54 1026.5 2197.54 1022.88 Q2197.54 1019.27 2195.2 1017.17 Q2192.86 1015.06 2188.86 1015.06 Q2186.98 1015.06 2185.11 1015.48 Q2183.25 1015.89 2181.31 1016.77 L2181.31 999.412 Z" fill="#000000" fill-rule="evenodd" fill-opacity="1" /><path clip-path="url(#clip440)" d="M2150.92 688.542 L2158.55 688.542 L2158.55 662.177 L2150.24 663.843 L2150.24 659.584 L2158.51 657.918 L2163.18 657.918 L2163.18 688.542 L2170.82 688.542 L2170.82 692.478 L2150.92 692.478 L2150.92 688.542 Z" fill="#000000" fill-rule="evenodd" fill-opacity="1" /><path clip-path="url(#clip440)" d="M2190.27 660.996 Q2186.66 660.996 2184.83 664.561 Q2183.02 668.103 2183.02 675.232 Q2183.02 682.339 2184.83 685.903 Q2186.66 689.445 2190.27 689.445 Q2193.9 689.445 2195.71 685.903 Q2197.54 682.339 2197.54 675.232 Q2197.54 668.103 2195.71 664.561 Q2193.9 660.996 2190.27 660.996 M2190.27 657.293 Q2196.08 657.293 2199.13 661.899 Q2202.21 666.482 2202.21 675.232 Q2202.21 683.959 2199.13 688.566 Q2196.08 693.149 2190.27 693.149 Q2184.46 693.149 2181.38 688.566 Q2178.32 683.959 2178.32 675.232 Q2178.32 666.482 2181.38 661.899 Q2184.46 657.293 2190.27 657.293 Z" fill="#000000" fill-rule="evenodd" fill-opacity="1" /><path clip-path="url(#clip440)" d="M2151.91 347.048 L2159.55 347.048 L2159.55 320.682 L2151.24 322.349 L2151.24 318.089 L2159.5 316.423 L2164.18 316.423 L2164.18 347.048 L2171.82 347.048 L2171.82 350.983 L2151.91 350.983 L2151.91 347.048 Z" fill="#000000" fill-rule="evenodd" fill-opacity="1" /><path clip-path="url(#clip440)" d="M2181.31 316.423 L2199.67 316.423 L2199.67 320.358 L2185.59 320.358 L2185.59 328.83 Q2186.61 328.483 2187.63 328.321 Q2188.65 328.136 2189.67 328.136 Q2195.45 328.136 2198.83 331.307 Q2202.21 334.478 2202.21 339.895 Q2202.21 345.473 2198.74 348.575 Q2195.27 351.654 2188.95 351.654 Q2186.77 351.654 2184.5 351.284 Q2182.26 350.913 2179.85 350.172 L2179.85 345.473 Q2181.93 346.608 2184.16 347.163 Q2186.38 347.719 2188.86 347.719 Q2192.86 347.719 2195.2 345.612 Q2197.54 343.506 2197.54 339.895 Q2197.54 336.284 2195.2 334.177 Q2192.86 332.071 2188.86 332.071 Q2186.98 332.071 2185.11 332.487 Q2183.25 332.904 2181.31 333.784 L2181.31 316.423 Z" fill="#000000" fill-rule="evenodd" fill-opacity="1" /><path clip-path="url(#clip440)" d="M2040.34 876.171 L2040.34 848.353 L2045.69 848.353 L2071.31 870.378 L2071.31 848.353 L2075.99 848.353 L2075.99 876.967 L2070.64 876.967 L2045.02 854.942 L2045.02 876.171 L2040.34 876.171 Z" fill="#000000" fill-rule="evenodd" fill-opacity="1" /><path clip-path="url(#clip440)" d="M2026.53 804.621 Q2033.85 808.886 2041.01 810.955 Q2048.17 813.023 2055.52 813.023 Q2062.87 813.023 2070.1 810.955 Q2077.29 808.854 2084.58 804.621 L2084.58 809.713 Q2077.1 814.488 2069.88 816.875 Q2062.65 819.23 2055.52 819.23 Q2048.42 819.23 2041.23 816.875 Q2034.04 814.519 2026.53 809.713 L2026.53 804.621 Z" fill="#000000" fill-rule="evenodd" fill-opacity="1" /><path clip-path="url(#clip440)" d="M2026.46 793.481 L2026.46 787.592 L2055.71 787.592 L2040.34 770.119 L2040.34 762.639 L2057.02 781.545 L2075.99 761.843 L2075.99 769.482 L2058.58 787.592 L2075.99 787.592 L2075.99 793.481 L2026.46 793.481 Z" fill="#000000" fill-rule="evenodd" fill-opacity="1" /><path clip-path="url(#clip440)" d="M2047.18 727.755 Q2043.24 725.559 2041.36 722.503 Q2039.48 719.448 2039.48 715.31 Q2039.48 709.74 2043.4 706.716 Q2047.28 703.692 2054.47 703.692 L2075.99 703.692 L2075.99 709.581 L2054.66 709.581 Q2049.54 709.581 2047.06 711.395 Q2044.57 713.209 2044.57 716.933 Q2044.57 721.485 2047.6 724.126 Q2050.62 726.768 2055.84 726.768 L2075.99 726.768 L2075.99 732.656 L2054.66 732.656 Q2049.51 732.656 2047.06 734.471 Q2044.57 736.285 2044.57 740.072 Q2044.57 744.56 2047.63 747.202 Q2050.65 749.844 2055.84 749.844 L2075.99 749.844 L2075.99 755.732 L2040.34 755.732 L2040.34 749.844 L2045.88 749.844 Q2042.6 747.839 2041.04 745.038 Q2039.48 742.237 2039.48 738.385 Q2039.48 734.502 2041.45 731.797 Q2043.43 729.06 2047.18 727.755 Z" fill="#000000" fill-rule="evenodd" fill-opacity="1" /><path clip-path="url(#clip440)" d="M2026.53 692.934 L2026.53 687.842 Q2034.04 683.067 2041.23 680.712 Q2048.42 678.325 2055.52 678.325 Q2062.65 678.325 2069.88 680.712 Q2077.1 683.067 2084.58 687.842 L2084.58 692.934 Q2077.29 688.701 2070.1 686.632 Q2062.87 684.532 2055.52 684.532 Q2048.17 684.532 2041.01 686.632 Q2033.85 688.701 2026.53 692.934 Z" fill="#000000" fill-rule="evenodd" fill-opacity="1" /><path clip-path="url(#clip440)" d="M2946.34 65.7705 L2946.34 89.8329 L2938.84 89.8329 L2938.84 27.2059 L2946.34 27.2059 L2946.34 34.0924 Q2948.69 30.0415 2952.25 28.0971 Q2955.86 26.1121 2960.84 26.1121 Q2969.1 26.1121 2974.25 32.6746 Q2979.43 39.2371 2979.43 49.9314 Q2979.43 60.6258 2974.25 67.1883 Q2969.1 73.7508 2960.84 73.7508 Q2955.86 73.7508 2952.25 71.8063 Q2948.69 69.8214 2946.34 65.7705 M2971.7 49.9314 Q2971.7 41.7081 2968.29 37.0496 Q2964.93 32.3505 2959.02 32.3505 Q2953.1 32.3505 2949.7 37.0496 Q2946.34 41.7081 2946.34 49.9314 Q2946.34 58.1548 2949.7 62.8538 Q2953.1 67.5124 2959.02 67.5124 Q2964.93 67.5124 2968.29 62.8538 Q2971.7 58.1548 2971.7 49.9314 Z" fill="#000000" fill-rule="evenodd" fill-opacity="1" /><path clip-path="url(#clip440)" d="M3036.07 9.62495 Q3030.64 18.942 3028 28.0566 Q3025.37 37.1711 3025.37 46.5287 Q3025.37 55.8863 3028 65.0818 Q3030.68 74.2369 3036.07 83.5134 L3029.58 83.5134 Q3023.51 73.9938 3020.47 64.7983 Q3017.47 55.6027 3017.47 46.5287 Q3017.47 37.4952 3020.47 28.3401 Q3023.47 19.1851 3029.58 9.62495 L3036.07 9.62495 Z" fill="#000000" fill-rule="evenodd" fill-opacity="1" /><path clip-path="url(#clip440)" d="M3050.24 9.54393 L3057.74 9.54393 L3057.74 46.7717 L3079.98 27.2059 L3089.5 27.2059 L3065.44 48.4326 L3090.51 72.576 L3080.79 72.576 L3057.74 50.4176 L3057.74 72.576 L3050.24 72.576 L3050.24 9.54393 Z" fill="#000000" fill-rule="evenodd" fill-opacity="1" /><path clip-path="url(#clip440)" d="M3107.08 18.8205 L3107.08 41.5461 L3117.37 41.5461 Q3123.08 41.5461 3126.2 38.5889 Q3129.32 35.6318 3129.32 30.163 Q3129.32 24.7348 3126.2 21.7777 Q3123.08 18.8205 3117.37 18.8205 L3107.08 18.8205 M3098.9 12.096 L3117.37 12.096 Q3127.54 12.096 3132.72 16.714 Q3137.95 21.2916 3137.95 30.163 Q3137.95 39.1155 3132.72 43.6931 Q3127.54 48.2706 3117.37 48.2706 L3107.08 48.2706 L3107.08 72.576 L3098.9 72.576 L3098.9 12.096 Z" fill="#000000" fill-rule="evenodd" fill-opacity="1" /><path clip-path="url(#clip440)" d="M3165.49 49.7694 Q3156.46 49.7694 3152.98 51.8354 Q3149.49 53.9013 3149.49 58.8839 Q3149.49 62.8538 3152.08 65.2034 Q3154.72 67.5124 3159.21 67.5124 Q3165.41 67.5124 3169.14 63.1374 Q3172.91 58.7219 3172.91 51.4303 L3172.91 49.7694 L3165.49 49.7694 M3180.36 46.6907 L3180.36 72.576 L3172.91 72.576 L3172.91 65.6895 Q3170.35 69.8214 3166.55 71.8063 Q3162.74 73.7508 3157.23 73.7508 Q3150.26 73.7508 3146.13 69.8619 Q3142.04 65.9325 3142.04 59.3701 Q3142.04 51.7138 3147.14 47.825 Q3152.29 43.9361 3162.45 43.9361 L3172.91 43.9361 L3172.91 43.2069 Q3172.91 38.0623 3169.5 35.2672 Q3166.14 32.4315 3160.02 32.4315 Q3156.13 32.4315 3152.45 33.3632 Q3148.76 34.295 3145.36 36.1584 L3145.36 29.2718 Q3149.45 27.692 3153.3 26.9223 Q3157.15 26.1121 3160.79 26.1121 Q3170.64 26.1121 3175.5 31.2163 Q3180.36 36.3204 3180.36 46.6907 Z" fill="#000000" fill-rule="evenodd" fill-opacity="1" /><path clip-path="url(#clip440)" d="M3194.54 9.62495 L3201.02 9.62495 Q3207.1 19.1851 3210.09 28.3401 Q3213.13 37.4952 3213.13 46.5287 Q3213.13 55.6027 3210.09 64.7983 Q3207.1 73.9938 3201.02 83.5134 L3194.54 83.5134 Q3199.93 74.2369 3202.56 65.0818 Q3205.23 55.8863 3205.23 46.5287 Q3205.23 37.1711 3202.56 28.0566 Q3199.93 18.942 3194.54 9.62495 Z" fill="#000000" fill-rule="evenodd" fill-opacity="1" /><polyline clip-path="url(#clip443)" style="stroke:#009af9; stroke-linecap:butt; stroke-linejoin:round; stroke-width:4; stroke-opacity:1; fill:none" points="
  3835.6,1355.28 3819.48,1349.48 3803.48,1343.67 3787.58,1337.87 3771.79,1332.06 3756.11,1326.26 3740.55,1320.45 3725.11,1314.65 3709.8,1308.84 3694.62,1303.04 
  3679.56,1297.23 3664.62,1291.42 3649.81,1285.62 3635.12,1279.81 3620.56,1274.01 3606.11,1268.2 3591.79,1262.4 3577.58,1256.59 3563.5,1250.79 3549.53,1244.98 
  3535.68,1239.18 3521.94,1233.37 3508.32,1227.57 3494.82,1221.76 3481.43,1215.95 3468.15,1210.15 3454.98,1204.34 3441.92,1198.54 3428.98,1192.73 3416.14,1186.93 
  3403.42,1181.12 3390.8,1175.32 3378.29,1169.51 3365.88,1163.71 3353.58,1157.9 3341.39,1152.1 3329.3,1146.29 3317.31,1140.48 3305.43,1134.68 3293.65,1128.87 
  3281.97,1123.07 3270.39,1117.26 3258.91,1111.46 3247.53,1105.65 3236.24,1099.85 3225.06,1094.04 3213.97,1088.24 3202.98,1082.43 3192.08,1076.62 3181.28,1070.82 
  3170.57,1065.01 3159.95,1059.21 3149.43,1053.4 3139,1047.6 3128.65,1041.79 3118.4,1035.99 3108.24,1030.18 3098.17,1024.38 3088.19,1018.57 3078.29,1012.77 
  3068.48,1006.96 3058.76,1001.15 3049.13,995.349 3039.58,989.544 3030.11,983.738 3020.73,977.933 3011.44,972.127 3002.22,966.322 2993.09,960.516 2984.04,954.711 
  2975.08,948.906 2966.19,943.1 2957.38,937.295 2948.65,931.489 2940.01,925.684 2931.44,919.879 2922.94,914.073 2914.53,908.268 2906.19,902.462 2897.92,896.657 
  2889.74,890.852 2881.62,885.046 2873.58,879.241 2865.62,873.435 2857.72,867.63 2849.9,861.824 2842.15,856.019 2834.48,850.214 2826.87,844.408 2819.33,838.603 
  2811.86,832.797 2804.46,826.992 2797.13,821.187 2789.87,815.381 2782.68,809.576 2775.55,803.77 2768.48,797.965 2761.49,792.16 2754.55,786.354 2747.69,780.549 
  2740.88,774.743 2734.14,768.938 2727.47,763.132 2720.85,757.327 2714.3,751.522 2707.81,745.716 2701.37,739.911 2695,734.105 2688.69,728.3 2682.44,722.495 
  2676.25,716.689 2670.11,710.884 2664.04,705.078 2658.02,699.273 2652.05,693.468 2646.15,687.662 2640.3,681.857 2634.5,676.051 2628.76,670.246 2623.08,664.44 
  2617.44,658.635 2611.86,652.83 2606.34,647.024 2600.87,641.219 2595.44,635.413 2590.07,629.608 2584.76,623.803 2579.49,617.997 2574.27,612.192 2569.11,606.386 
  2563.99,600.581 2558.92,594.775 2553.9,588.97 2548.93,583.165 2544,577.359 2539.13,571.554 2534.3,565.748 2529.52,559.943 2524.78,554.138 2520.08,548.332 
  2515.43,542.527 2510.83,536.721 2506.27,530.916 2501.75,525.111 2497.27,519.305 2492.84,513.5 2488.45,507.694 2484.1,501.889 2479.8,496.083 2475.53,490.278 
  2471.31,484.473 2467.12,478.667 2462.98,472.862 2458.88,467.056 2454.82,461.251 2450.8,455.446 2446.81,449.64 2442.87,443.835 2438.97,438.029 2435.1,432.224 
  2431.28,426.419 2427.49,420.613 2423.74,414.808 2420.03,409.002 2416.35,403.197 2412.71,397.391 2409.11,391.586 2405.55,385.781 2402.02,379.975 2398.53,374.17 
  2395.08,368.364 2391.66,362.559 2388.27,356.754 2384.92,350.948 2381.61,345.143 2378.33,339.337 2375.09,333.532 2371.88,327.727 2368.7,321.921 2365.56,316.116 
  2362.46,310.31 2359.38,304.505 2356.34,298.699 2353.33,292.894 2350.36,287.089 2347.42,281.283 2344.51,275.478 2341.63,269.672 2338.78,263.867 2335.97,258.062 
  2333.18,252.256 2330.43,246.451 2327.71,240.645 2325.02,234.84 2322.36,229.034 2319.73,223.229 2317.14,217.424 2314.57,211.618 2312.03,205.813 2309.52,200.007 
  
  "/>
<polyline clip-path="url(#clip443)" style="stroke:#e26f46; stroke-linecap:butt; stroke-linejoin:round; stroke-width:4; stroke-opacity:1; fill:none" points="
  3843.7,1358.19 3827.53,1352.38 3811.46,1346.58 3795.51,1340.77 3779.67,1334.97 3763.94,1329.16 3748.32,1323.35 3732.81,1317.55 3717.44,1311.74 3702.19,1305.94 
  3687.07,1300.13 3672.07,1294.33 3657.2,1288.52 3642.45,1282.72 3627.82,1276.91 3613.32,1271.11 3598.94,1265.3 3584.67,1259.5 3570.53,1253.69 3556.5,1247.88 
  3542.59,1242.08 3528.8,1236.27 3515.12,1230.47 3501.56,1224.66 3488.11,1218.86 3474.77,1213.05 3461.55,1207.25 3448.44,1201.44 3435.44,1195.64 3422.55,1189.83 
  3409.77,1184.02 3397.09,1178.22 3384.53,1172.41 3372.07,1166.61 3359.72,1160.8 3347.47,1155 3335.33,1149.19 3323.29,1143.39 3311.36,1137.58 3299.53,1131.78 
  3287.8,1125.97 3276.17,1120.17 3264.64,1114.36 3253.21,1108.55 3241.87,1102.75 3230.64,1096.94 3219.5,1091.14 3208.46,1085.33 3197.52,1079.53 3186.67,1073.72 
  3175.91,1067.92 3165.25,1062.11 3154.68,1056.31 3144.2,1050.5 3133.81,1044.69 3123.52,1038.89 3113.31,1033.08 3103.2,1027.28 3093.17,1021.47 3083.23,1015.67 
  3073.38,1009.86 3063.61,1004.06 3053.93,998.252 3044.34,992.446 3034.83,986.641 3025.41,980.835 3016.07,975.03 3006.82,969.225 2997.65,963.419 2988.56,957.614 
  2979.55,951.808 2970.62,946.003 2961.77,940.198 2953.01,934.392 2944.32,928.587 2935.71,922.781 2927.18,916.976 2918.72,911.17 2910.35,905.365 2902.05,899.56 
  2893.82,893.754 2885.67,887.949 2877.59,882.143 2869.59,876.338 2861.66,870.533 2853.8,864.727 2846.02,858.922 2838.31,853.116 2830.66,847.311 2823.09,841.506 
  2815.59,835.7 2808.16,829.895 2800.79,824.089 2793.49,818.284 2786.27,812.478 2779.1,806.673 2772.01,800.868 2764.98,795.062 2758.01,789.257 2751.11,783.451 
  2744.28,777.646 2737.51,771.841 2730.8,766.035 2724.15,760.23 2717.57,754.424 2711.04,748.619 2704.58,742.814 2698.18,737.008 2691.84,731.203 2685.56,725.397 
  2679.34,719.592 2673.17,713.786 2667.07,707.981 2661.02,702.176 2655.03,696.37 2649.09,690.565 2643.22,684.759 2637.39,678.954 2631.62,673.149 2625.91,667.343 
  2620.25,661.538 2614.65,655.732 2609.09,649.927 2603.6,644.121 2598.15,638.316 2592.75,632.511 2587.41,626.705 2582.12,620.9 2576.87,615.094 2571.68,609.289 
  2566.54,603.484 2561.45,597.678 2556.4,591.873 2551.41,586.067 2546.46,580.262 2541.56,574.457 2536.71,568.651 2531.9,562.846 2527.14,557.04 2522.42,551.235 
  2517.75,545.429 2513.13,539.624 2508.54,533.819 2504,528.013 2499.51,522.208 2495.05,516.402 2490.64,510.597 2486.27,504.792 2481.94,498.986 2477.66,493.181 
  2473.41,487.375 2469.21,481.57 2465.05,475.765 2460.93,469.959 2456.84,464.154 2452.8,458.348 2448.8,452.543 2444.84,446.737 2440.92,440.932 2437.03,435.127 
  2433.19,429.321 2429.38,423.516 2425.61,417.71 2421.88,411.905 2418.18,406.1 2414.53,400.294 2410.91,394.489 2407.33,388.683 2403.78,382.878 2400.27,377.073 
  2396.8,371.267 2393.36,365.462 2389.96,359.656 2386.59,353.851 2383.26,348.045 2379.97,342.24 2376.71,336.435 2373.48,330.629 2370.29,324.824 2367.13,319.018 
  2364.01,313.213 2360.91,307.408 2357.86,301.602 2354.83,295.797 2351.84,289.991 2348.88,284.186 2345.96,278.381 2343.06,272.575 2340.2,266.77 2337.37,260.964 
  2334.57,255.159 2331.8,249.353 2329.07,243.548 2326.36,237.743 2323.69,231.937 2321.04,226.132 2318.43,220.326 2315.85,214.521 2313.29,208.716 2310.77,202.91 
  2308.27,197.105 
  "/>
<path clip-path="url(#clip440)" d="
M3482.38 358.817 L3835.51 358.817 L3835.51 203.297 L3482.38 203.297  Z
  " fill="#ffffff" fill-rule="evenodd" fill-opacity="1"/>
<polyline clip-path="url(#clip440)" style="stroke:#000000; stroke-linecap:butt; stroke-linejoin:round; stroke-width:4; stroke-opacity:1; fill:none" points="
  3482.38,358.817 3835.51,358.817 3835.51,203.297 3482.38,203.297 3482.38,358.817 
  "/>
<polyline clip-path="url(#clip440)" style="stroke:#009af9; stroke-linecap:butt; stroke-linejoin:round; stroke-width:4; stroke-opacity:1; fill:none" points="
  3500.47,255.137 3608.97,255.137 
  "/>
<path clip-path="url(#clip440)" d="M3647.56 247.487 L3647.56 251.468 Q3645.76 250.473 3643.93 249.987 Q3642.12 249.477 3640.27 249.477 Q3636.13 249.477 3633.84 252.116 Q3631.54 254.732 3631.54 259.477 Q3631.54 264.223 3633.84 266.862 Q3636.13 269.477 3640.27 269.477 Q3642.12 269.477 3643.93 268.991 Q3645.76 268.482 3647.56 267.487 L3647.56 271.422 Q3645.78 272.255 3643.86 272.672 Q3641.96 273.088 3639.81 273.088 Q3633.95 273.088 3630.5 269.408 Q3627.05 265.727 3627.05 259.477 Q3627.05 253.135 3630.53 249.501 Q3634.02 245.866 3640.09 245.866 Q3642.05 245.866 3643.93 246.283 Q3645.8 246.677 3647.56 247.487 Z" fill="#000000" fill-rule="evenodd" fill-opacity="1" /><path clip-path="url(#clip440)" d="M3677.15 258.389 L3677.15 260.473 L3657.56 260.473 Q3657.84 264.871 3660.2 267.186 Q3662.59 269.477 3666.82 269.477 Q3669.28 269.477 3671.57 268.876 Q3673.88 268.274 3676.15 267.07 L3676.15 271.098 Q3673.86 272.07 3671.45 272.579 Q3669.04 273.088 3666.57 273.088 Q3660.36 273.088 3656.73 269.477 Q3653.12 265.866 3653.12 259.709 Q3653.12 253.343 3656.54 249.616 Q3659.99 245.866 3665.83 245.866 Q3671.06 245.866 3674.09 249.246 Q3677.15 252.602 3677.15 258.389 M3672.89 257.139 Q3672.84 253.644 3670.92 251.561 Q3669.02 249.477 3665.87 249.477 Q3662.31 249.477 3660.16 251.491 Q3658.03 253.505 3657.7 257.163 L3672.89 257.139 Z" fill="#000000" fill-rule="evenodd" fill-opacity="1" /><path clip-path="url(#clip440)" d="M3705.69 256.769 L3705.69 272.417 L3701.43 272.417 L3701.43 256.908 Q3701.43 253.227 3699.99 251.399 Q3698.56 249.57 3695.69 249.57 Q3692.24 249.57 3690.25 251.769 Q3688.26 253.968 3688.26 257.764 L3688.26 272.417 L3683.97 272.417 L3683.97 246.491 L3688.26 246.491 L3688.26 250.519 Q3689.78 248.181 3691.84 247.024 Q3693.93 245.866 3696.64 245.866 Q3701.1 245.866 3703.4 248.644 Q3705.69 251.399 3705.69 256.769 Z" fill="#000000" fill-rule="evenodd" fill-opacity="1" /><path clip-path="url(#clip440)" d="M3718.4 239.13 L3718.4 246.491 L3727.17 246.491 L3727.17 249.802 L3718.4 249.802 L3718.4 263.876 Q3718.4 267.047 3719.25 267.95 Q3720.13 268.852 3722.79 268.852 L3727.17 268.852 L3727.17 272.417 L3722.79 272.417 Q3717.86 272.417 3715.99 270.588 Q3714.11 268.737 3714.11 263.876 L3714.11 249.802 L3710.99 249.802 L3710.99 246.491 L3714.11 246.491 L3714.11 239.13 L3718.4 239.13 Z" fill="#000000" fill-rule="evenodd" fill-opacity="1" /><path clip-path="url(#clip440)" d="M3754.95 258.389 L3754.95 260.473 L3735.36 260.473 Q3735.64 264.871 3738 267.186 Q3740.39 269.477 3744.62 269.477 Q3747.08 269.477 3749.37 268.876 Q3751.68 268.274 3753.95 267.07 L3753.95 271.098 Q3751.66 272.07 3749.25 272.579 Q3746.84 273.088 3744.37 273.088 Q3738.16 273.088 3734.53 269.477 Q3730.92 265.866 3730.92 259.709 Q3730.92 253.343 3734.34 249.616 Q3737.79 245.866 3743.63 245.866 Q3748.86 245.866 3751.89 249.246 Q3754.95 252.602 3754.95 258.389 M3750.69 257.139 Q3750.64 253.644 3748.72 251.561 Q3746.82 249.477 3743.67 249.477 Q3740.11 249.477 3737.96 251.491 Q3735.83 253.505 3735.5 257.163 L3750.69 257.139 Z" fill="#000000" fill-rule="evenodd" fill-opacity="1" /><path clip-path="url(#clip440)" d="M3776.96 250.473 Q3776.24 250.056 3775.39 249.871 Q3774.55 249.663 3773.53 249.663 Q3769.92 249.663 3767.98 252.024 Q3766.06 254.362 3766.06 258.76 L3766.06 272.417 L3761.77 272.417 L3761.77 246.491 L3766.06 246.491 L3766.06 250.519 Q3767.4 248.158 3769.55 247.024 Q3771.71 245.866 3774.78 245.866 Q3775.22 245.866 3775.76 245.936 Q3776.29 245.982 3776.94 246.098 L3776.96 250.473 Z" fill="#000000" fill-rule="evenodd" fill-opacity="1" /><path clip-path="url(#clip440)" d="M3797.96 247.255 L3797.96 251.283 Q3796.15 250.357 3794.21 249.894 Q3792.26 249.431 3790.18 249.431 Q3787.01 249.431 3785.41 250.403 Q3783.84 251.376 3783.84 253.32 Q3783.84 254.802 3784.97 255.658 Q3786.1 256.491 3789.53 257.255 L3790.99 257.579 Q3795.52 258.552 3797.42 260.334 Q3799.34 262.093 3799.34 265.264 Q3799.34 268.876 3796.47 270.982 Q3793.63 273.088 3788.63 273.088 Q3786.54 273.088 3784.27 272.672 Q3782.03 272.278 3779.53 271.468 L3779.53 267.07 Q3781.89 268.297 3784.18 268.922 Q3786.47 269.524 3788.72 269.524 Q3791.73 269.524 3793.35 268.505 Q3794.97 267.463 3794.97 265.589 Q3794.97 263.852 3793.79 262.926 Q3792.63 262.001 3788.67 261.144 L3787.19 260.797 Q3783.23 259.964 3781.47 258.251 Q3779.71 256.514 3779.71 253.505 Q3779.71 249.848 3782.31 247.857 Q3784.9 245.866 3789.67 245.866 Q3792.03 245.866 3794.11 246.214 Q3796.2 246.561 3797.96 247.255 Z" fill="#000000" fill-rule="evenodd" fill-opacity="1" /><polyline clip-path="url(#clip440)" style="stroke:#e26f46; stroke-linecap:butt; stroke-linejoin:round; stroke-width:4; stroke-opacity:1; fill:none" points="
  3500.47,306.977 3608.97,306.977 
  "/>
<path clip-path="url(#clip440)" d="M3643.56 288.239 L3643.56 291.78 L3639.48 291.78 Q3637.19 291.78 3636.29 292.706 Q3635.41 293.632 3635.41 296.04 L3635.41 298.331 L3642.42 298.331 L3642.42 301.642 L3635.41 301.642 L3635.41 324.257 L3631.13 324.257 L3631.13 301.642 L3627.05 301.642 L3627.05 298.331 L3631.13 298.331 L3631.13 296.526 Q3631.13 292.197 3633.14 290.23 Q3635.16 288.239 3639.53 288.239 L3643.56 288.239 Z" fill="#000000" fill-rule="evenodd" fill-opacity="1" /><path clip-path="url(#clip440)" d="M3658.91 311.225 Q3653.74 311.225 3651.75 312.405 Q3649.76 313.586 3649.76 316.433 Q3649.76 318.702 3651.24 320.044 Q3652.75 321.364 3655.32 321.364 Q3658.86 321.364 3660.99 318.864 Q3663.14 316.341 3663.14 312.174 L3663.14 311.225 L3658.91 311.225 M3667.4 309.466 L3667.4 324.257 L3663.14 324.257 L3663.14 320.322 Q3661.68 322.683 3659.51 323.817 Q3657.33 324.928 3654.18 324.928 Q3650.2 324.928 3647.84 322.706 Q3645.5 320.461 3645.5 316.711 Q3645.5 312.336 3648.42 310.114 Q3651.36 307.892 3657.17 307.892 L3663.14 307.892 L3663.14 307.475 Q3663.14 304.535 3661.2 302.938 Q3659.28 301.317 3655.78 301.317 Q3653.56 301.317 3651.45 301.85 Q3649.35 302.382 3647.4 303.447 L3647.4 299.512 Q3649.74 298.609 3651.94 298.169 Q3654.14 297.706 3656.22 297.706 Q3661.84 297.706 3664.62 300.623 Q3667.4 303.54 3667.4 309.466 Z" fill="#000000" fill-rule="evenodd" fill-opacity="1" /><path clip-path="url(#clip440)" d="M3694.83 299.327 L3694.83 303.308 Q3693.03 302.313 3691.2 301.827 Q3689.39 301.317 3687.54 301.317 Q3683.4 301.317 3681.1 303.956 Q3678.81 306.572 3678.81 311.317 Q3678.81 316.063 3681.1 318.702 Q3683.4 321.317 3687.54 321.317 Q3689.39 321.317 3691.2 320.831 Q3693.03 320.322 3694.83 319.327 L3694.83 323.262 Q3693.05 324.095 3691.13 324.512 Q3689.23 324.928 3687.08 324.928 Q3681.22 324.928 3677.77 321.248 Q3674.32 317.567 3674.32 311.317 Q3674.32 304.975 3677.79 301.341 Q3681.29 297.706 3687.35 297.706 Q3689.32 297.706 3691.2 298.123 Q3693.07 298.517 3694.83 299.327 Z" fill="#000000" fill-rule="evenodd" fill-opacity="1" /><path clip-path="url(#clip440)" d="M3724.41 310.229 L3724.41 312.313 L3704.83 312.313 Q3705.11 316.711 3707.47 319.026 Q3709.85 321.317 3714.09 321.317 Q3716.54 321.317 3718.84 320.716 Q3721.15 320.114 3723.42 318.91 L3723.42 322.938 Q3721.13 323.91 3718.72 324.419 Q3716.31 324.928 3713.84 324.928 Q3707.63 324.928 3704 321.317 Q3700.39 317.706 3700.39 311.549 Q3700.39 305.183 3703.81 301.456 Q3707.26 297.706 3713.09 297.706 Q3718.33 297.706 3721.36 301.086 Q3724.41 304.442 3724.41 310.229 M3720.15 308.979 Q3720.11 305.484 3718.19 303.401 Q3716.29 301.317 3713.14 301.317 Q3709.58 301.317 3707.42 303.331 Q3705.29 305.345 3704.97 309.003 L3720.15 308.979 Z" fill="#000000" fill-rule="evenodd" fill-opacity="1" /><path clip-path="url(#clip440)" d="M3747.93 299.095 L3747.93 303.123 Q3746.13 302.197 3744.18 301.734 Q3742.24 301.271 3740.15 301.271 Q3736.98 301.271 3735.39 302.243 Q3733.81 303.216 3733.81 305.16 Q3733.81 306.642 3734.95 307.498 Q3736.08 308.331 3739.51 309.095 L3740.96 309.419 Q3745.5 310.392 3747.4 312.174 Q3749.32 313.933 3749.32 317.104 Q3749.32 320.716 3746.45 322.822 Q3743.6 324.928 3738.6 324.928 Q3736.52 324.928 3734.25 324.512 Q3732.01 324.118 3729.51 323.308 L3729.51 318.91 Q3731.87 320.137 3734.16 320.762 Q3736.45 321.364 3738.7 321.364 Q3741.71 321.364 3743.33 320.345 Q3744.95 319.303 3744.95 317.429 Q3744.95 315.692 3743.77 314.766 Q3742.61 313.841 3738.65 312.984 L3737.17 312.637 Q3733.21 311.804 3731.45 310.091 Q3729.69 308.354 3729.69 305.345 Q3729.69 301.688 3732.28 299.697 Q3734.88 297.706 3739.65 297.706 Q3742.01 297.706 3744.09 298.054 Q3746.17 298.401 3747.93 299.095 Z" fill="#000000" fill-rule="evenodd" fill-opacity="1" /></svg>
