<?xml version="1.0" encoding="utf-8"?>
<svg xmlns="http://www.w3.org/2000/svg" xmlns:xlink="http://www.w3.org/1999/xlink" width="1000" height="400" viewBox="0 0 4000 1600">
<defs>
  <clipPath id="clip390">
    <rect x="0" y="0" width="4000" height="1600"/>
  </clipPath>
</defs>
<path clip-path="url(#clip390)" d="
M0 1600 L4000 1600 L4000 0 L0 0  Z
  " fill="#ffffff" fill-rule="evenodd" fill-opacity="1"/>
<defs>
  <clipPath id="clip391">
    <rect x="800" y="0" width="2801" height="1600"/>
  </clipPath>
</defs>
<path clip-path="url(#clip390)" d="
M262.212 1393.02 L1223.1 1393.02 L1223.1 162.272 L262.212 162.272  Z
  " fill="#ffffff" fill-rule="evenodd" fill-opacity="1"/>
<defs>
  <clipPath id="clip392">
    <rect x="262" y="162" width="962" height="1232"/>
  </clipPath>
</defs>
<polyline clip-path="url(#clip392)" style="stroke:#000000; stroke-linecap:butt; stroke-linejoin:round; stroke-width:2; stroke-opacity:0.1; fill:none" points="
  305.503,1393.02 305.503,162.272 
  "/>
<polyline clip-path="url(#clip392)" style="stroke:#000000; stroke-linecap:butt; stroke-linejoin:round; stroke-width:2; stroke-opacity:0.1; fill:none" points="
  492.842,1393.02 492.842,162.272 
  "/>
<polyline clip-path="url(#clip392)" style="stroke:#000000; stroke-linecap:butt; stroke-linejoin:round; stroke-width:2; stroke-opacity:0.1; fill:none" points="
  680.181,1393.02 680.181,162.272 
  "/>
<polyline clip-path="url(#clip392)" style="stroke:#000000; stroke-linecap:butt; stroke-linejoin:round; stroke-width:2; stroke-opacity:0.1; fill:none" points="
  867.52,1393.02 867.52,162.272 
  "/>
<polyline clip-path="url(#clip392)" style="stroke:#000000; stroke-linecap:butt; stroke-linejoin:round; stroke-width:2; stroke-opacity:0.1; fill:none" points="
  1054.86,1393.02 1054.86,162.272 
  "/>
<polyline clip-path="url(#clip390)" style="stroke:#000000; stroke-linecap:butt; stroke-linejoin:round; stroke-width:4; stroke-opacity:1; fill:none" points="
  262.212,1393.02 1223.1,1393.02 
  "/>
<polyline clip-path="url(#clip390)" style="stroke:#000000; stroke-linecap:butt; stroke-linejoin:round; stroke-width:4; stroke-opacity:1; fill:none" points="
  305.503,1393.02 305.503,1374.12 
  "/>
<polyline clip-path="url(#clip390)" style="stroke:#000000; stroke-linecap:butt; stroke-linejoin:round; stroke-width:4; stroke-opacity:1; fill:none" points="
  492.842,1393.02 492.842,1374.12 
  "/>
<polyline clip-path="url(#clip390)" style="stroke:#000000; stroke-linecap:butt; stroke-linejoin:round; stroke-width:4; stroke-opacity:1; fill:none" points="
  680.181,1393.02 680.181,1374.12 
  "/>
<polyline clip-path="url(#clip390)" style="stroke:#000000; stroke-linecap:butt; stroke-linejoin:round; stroke-width:4; stroke-opacity:1; fill:none" points="
  867.52,1393.02 867.52,1374.12 
  "/>
<polyline clip-path="url(#clip390)" style="stroke:#000000; stroke-linecap:butt; stroke-linejoin:round; stroke-width:4; stroke-opacity:1; fill:none" points="
  1054.86,1393.02 1054.86,1374.12 
  "/>
<path clip-path="url(#clip390)" d="M283.686 1436.74 Q280.074 1436.74 278.246 1440.3 Q276.44 1443.84 276.44 1450.97 Q276.44 1458.08 278.246 1461.65 Q280.074 1465.19 283.686 1465.19 Q287.32 1465.19 289.125 1461.65 Q290.954 1458.08 290.954 1450.97 Q290.954 1443.84 289.125 1440.3 Q287.32 1436.74 283.686 1436.74 M283.686 1433.03 Q289.496 1433.03 292.551 1437.64 Q295.63 1442.22 295.63 1450.97 Q295.63 1459.7 292.551 1464.31 Q289.496 1468.89 283.686 1468.89 Q277.875 1468.89 274.797 1464.31 Q271.741 1459.7 271.741 1450.97 Q271.741 1442.22 274.797 1437.64 Q277.875 1433.03 283.686 1433.03 Z" fill="#000000" fill-rule="evenodd" fill-opacity="1" /><path clip-path="url(#clip390)" d="M303.847 1462.34 L308.732 1462.34 L308.732 1468.22 L303.847 1468.22 L303.847 1462.34 Z" fill="#000000" fill-rule="evenodd" fill-opacity="1" /><path clip-path="url(#clip390)" d="M322.945 1464.28 L339.264 1464.28 L339.264 1468.22 L317.32 1468.22 L317.32 1464.28 Q319.982 1461.53 324.565 1456.9 Q329.171 1452.25 330.352 1450.9 Q332.597 1448.38 333.477 1446.65 Q334.38 1444.89 334.38 1443.2 Q334.38 1440.44 332.435 1438.71 Q330.514 1436.97 327.412 1436.97 Q325.213 1436.97 322.759 1437.73 Q320.329 1438.5 317.551 1440.05 L317.551 1435.33 Q320.375 1434.19 322.829 1433.61 Q325.283 1433.03 327.32 1433.03 Q332.69 1433.03 335.884 1435.72 Q339.079 1438.41 339.079 1442.9 Q339.079 1445.03 338.269 1446.95 Q337.482 1448.84 335.375 1451.44 Q334.796 1452.11 331.695 1455.33 Q328.593 1458.52 322.945 1464.28 Z" fill="#000000" fill-rule="evenodd" fill-opacity="1" /><path clip-path="url(#clip390)" d="M469.983 1436.74 Q466.372 1436.74 464.543 1440.3 Q462.738 1443.84 462.738 1450.97 Q462.738 1458.08 464.543 1461.65 Q466.372 1465.19 469.983 1465.19 Q473.617 1465.19 475.423 1461.65 Q477.252 1458.08 477.252 1450.97 Q477.252 1443.84 475.423 1440.3 Q473.617 1436.74 469.983 1436.74 M469.983 1433.03 Q475.793 1433.03 478.849 1437.64 Q481.928 1442.22 481.928 1450.97 Q481.928 1459.7 478.849 1464.31 Q475.793 1468.89 469.983 1468.89 Q464.173 1468.89 461.094 1464.31 Q458.039 1459.7 458.039 1450.97 Q458.039 1442.22 461.094 1437.64 Q464.173 1433.03 469.983 1433.03 Z" fill="#000000" fill-rule="evenodd" fill-opacity="1" /><path clip-path="url(#clip390)" d="M490.145 1462.34 L495.029 1462.34 L495.029 1468.22 L490.145 1468.22 L490.145 1462.34 Z" fill="#000000" fill-rule="evenodd" fill-opacity="1" /><path clip-path="url(#clip390)" d="M518.062 1437.73 L506.256 1456.18 L518.062 1456.18 L518.062 1437.73 M516.835 1433.66 L522.714 1433.66 L522.714 1456.18 L527.645 1456.18 L527.645 1460.07 L522.714 1460.07 L522.714 1468.22 L518.062 1468.22 L518.062 1460.07 L502.46 1460.07 L502.46 1455.56 L516.835 1433.66 Z" fill="#000000" fill-rule="evenodd" fill-opacity="1" /><path clip-path="url(#clip390)" d="M657.484 1436.74 Q653.873 1436.74 652.045 1440.3 Q650.239 1443.84 650.239 1450.97 Q650.239 1458.08 652.045 1461.65 Q653.873 1465.19 657.484 1465.19 Q661.119 1465.19 662.924 1461.65 Q664.753 1458.08 664.753 1450.97 Q664.753 1443.84 662.924 1440.3 Q661.119 1436.74 657.484 1436.74 M657.484 1433.03 Q663.295 1433.03 666.35 1437.64 Q669.429 1442.22 669.429 1450.97 Q669.429 1459.7 666.35 1464.31 Q663.295 1468.89 657.484 1468.89 Q651.674 1468.89 648.596 1464.31 Q645.54 1459.7 645.54 1450.97 Q645.54 1442.22 648.596 1437.64 Q651.674 1433.03 657.484 1433.03 Z" fill="#000000" fill-rule="evenodd" fill-opacity="1" /><path clip-path="url(#clip390)" d="M677.646 1462.34 L682.531 1462.34 L682.531 1468.22 L677.646 1468.22 L677.646 1462.34 Z" fill="#000000" fill-rule="evenodd" fill-opacity="1" /><path clip-path="url(#clip390)" d="M703.294 1449.08 Q700.146 1449.08 698.294 1451.23 Q696.466 1453.38 696.466 1457.13 Q696.466 1460.86 698.294 1463.03 Q700.146 1465.19 703.294 1465.19 Q706.443 1465.19 708.271 1463.03 Q710.123 1460.86 710.123 1457.13 Q710.123 1453.38 708.271 1451.23 Q706.443 1449.08 703.294 1449.08 M712.577 1434.42 L712.577 1438.68 Q710.817 1437.85 709.012 1437.41 Q707.23 1436.97 705.47 1436.97 Q700.841 1436.97 698.387 1440.09 Q695.956 1443.22 695.609 1449.54 Q696.975 1447.53 699.035 1446.46 Q701.095 1445.37 703.572 1445.37 Q708.78 1445.37 711.79 1448.54 Q714.822 1451.69 714.822 1457.13 Q714.822 1462.46 711.674 1465.67 Q708.526 1468.89 703.294 1468.89 Q697.299 1468.89 694.128 1464.31 Q690.956 1459.7 690.956 1450.97 Q690.956 1442.78 694.845 1437.92 Q698.734 1433.03 705.285 1433.03 Q707.044 1433.03 708.827 1433.38 Q710.632 1433.73 712.577 1434.42 Z" fill="#000000" fill-rule="evenodd" fill-opacity="1" /><path clip-path="url(#clip390)" d="M844.951 1436.74 Q841.34 1436.74 839.511 1440.3 Q837.706 1443.84 837.706 1450.97 Q837.706 1458.08 839.511 1461.65 Q841.34 1465.19 844.951 1465.19 Q848.585 1465.19 850.391 1461.65 Q852.22 1458.08 852.22 1450.97 Q852.22 1443.84 850.391 1440.3 Q848.585 1436.74 844.951 1436.74 M844.951 1433.03 Q850.761 1433.03 853.817 1437.64 Q856.895 1442.22 856.895 1450.97 Q856.895 1459.7 853.817 1464.31 Q850.761 1468.89 844.951 1468.89 Q839.141 1468.89 836.062 1464.31 Q833.007 1459.7 833.007 1450.97 Q833.007 1442.22 836.062 1437.64 Q839.141 1433.03 844.951 1433.03 Z" fill="#000000" fill-rule="evenodd" fill-opacity="1" /><path clip-path="url(#clip390)" d="M865.113 1462.34 L869.997 1462.34 L869.997 1468.22 L865.113 1468.22 L865.113 1462.34 Z" fill="#000000" fill-rule="evenodd" fill-opacity="1" /><path clip-path="url(#clip390)" d="M890.182 1451.81 Q886.849 1451.81 884.928 1453.59 Q883.03 1455.37 883.03 1458.5 Q883.03 1461.62 884.928 1463.4 Q886.849 1465.19 890.182 1465.19 Q893.516 1465.19 895.437 1463.4 Q897.358 1461.6 897.358 1458.5 Q897.358 1455.37 895.437 1453.59 Q893.539 1451.81 890.182 1451.81 M885.506 1449.82 Q882.497 1449.08 880.807 1447.02 Q879.141 1444.96 879.141 1441.99 Q879.141 1437.85 882.08 1435.44 Q885.043 1433.03 890.182 1433.03 Q895.344 1433.03 898.284 1435.44 Q901.224 1437.85 901.224 1441.99 Q901.224 1444.96 899.534 1447.02 Q897.867 1449.08 894.881 1449.82 Q898.261 1450.6 900.136 1452.9 Q902.034 1455.19 902.034 1458.5 Q902.034 1463.52 898.955 1466.21 Q895.9 1468.89 890.182 1468.89 Q884.465 1468.89 881.386 1466.21 Q878.33 1463.52 878.33 1458.5 Q878.33 1455.19 880.229 1452.9 Q882.127 1450.6 885.506 1449.82 M883.793 1442.43 Q883.793 1445.12 885.46 1446.62 Q887.15 1448.13 890.182 1448.13 Q893.192 1448.13 894.881 1446.62 Q896.594 1445.12 896.594 1442.43 Q896.594 1439.75 894.881 1438.24 Q893.192 1436.74 890.182 1436.74 Q887.15 1436.74 885.46 1438.24 Q883.793 1439.75 883.793 1442.43 Z" fill="#000000" fill-rule="evenodd" fill-opacity="1" /><path clip-path="url(#clip390)" d="M1022.01 1464.28 L1029.65 1464.28 L1029.65 1437.92 L1021.34 1439.59 L1021.34 1435.33 L1029.61 1433.66 L1034.28 1433.66 L1034.28 1464.28 L1041.92 1464.28 L1041.92 1468.22 L1022.01 1468.22 L1022.01 1464.28 Z" fill="#000000" fill-rule="evenodd" fill-opacity="1" /><path clip-path="url(#clip390)" d="M1051.36 1462.34 L1056.25 1462.34 L1056.25 1468.22 L1051.36 1468.22 L1051.36 1462.34 Z" fill="#000000" fill-rule="evenodd" fill-opacity="1" /><path clip-path="url(#clip390)" d="M1076.43 1436.74 Q1072.82 1436.74 1070.99 1440.3 Q1069.19 1443.84 1069.19 1450.97 Q1069.19 1458.08 1070.99 1461.65 Q1072.82 1465.19 1076.43 1465.19 Q1080.07 1465.19 1081.87 1461.65 Q1083.7 1458.08 1083.7 1450.97 Q1083.7 1443.84 1081.87 1440.3 Q1080.07 1436.74 1076.43 1436.74 M1076.43 1433.03 Q1082.24 1433.03 1085.3 1437.64 Q1088.38 1442.22 1088.38 1450.97 Q1088.38 1459.7 1085.3 1464.31 Q1082.24 1468.89 1076.43 1468.89 Q1070.62 1468.89 1067.54 1464.31 Q1064.49 1459.7 1064.49 1450.97 Q1064.49 1442.22 1067.54 1437.64 Q1070.62 1433.03 1076.43 1433.03 Z" fill="#000000" fill-rule="evenodd" fill-opacity="1" /><path clip-path="url(#clip390)" d="M692.922 1532.6 Q694.864 1529.35 699.67 1526.49 Q701.548 1525.38 707.341 1525.38 Q713.834 1525.38 717.876 1530.53 Q721.95 1535.69 721.95 1544.09 Q721.95 1552.49 717.876 1557.65 Q713.834 1562.81 707.341 1562.81 Q703.426 1562.81 700.593 1561.28 Q697.792 1559.72 695.946 1556.54 L695.946 1575.44 L690.058 1575.44 L690.058 1544.41 Q690.058 1537.06 692.922 1532.6 M715.871 1544.09 Q715.871 1537.63 713.197 1533.97 Q710.555 1530.28 705.908 1530.28 Q701.261 1530.28 698.588 1533.97 Q695.946 1537.63 695.946 1544.09 Q695.946 1550.55 698.588 1554.24 Q701.261 1557.91 705.908 1557.91 Q710.555 1557.91 713.197 1554.24 Q715.871 1550.55 715.871 1544.09 Z" fill="#000000" fill-rule="evenodd" fill-opacity="1" /><path clip-path="url(#clip390)" d="M758.744 1572.71 L758.744 1577.26 L724.878 1577.26 L724.878 1572.71 L758.744 1572.71 Z" fill="#000000" fill-rule="evenodd" fill-opacity="1" /><path clip-path="url(#clip390)" d="M778.827 1518.6 Q773.862 1518.6 771.348 1523.5 Q768.865 1528.37 768.865 1538.17 Q768.865 1547.94 771.348 1552.84 Q773.862 1557.71 778.827 1557.71 Q783.825 1557.71 786.307 1552.84 Q788.822 1547.94 788.822 1538.17 Q788.822 1528.37 786.307 1523.5 Q783.825 1518.6 778.827 1518.6 M778.827 1513.5 Q786.816 1513.5 791.018 1519.84 Q795.251 1526.14 795.251 1538.17 Q795.251 1550.17 791.018 1556.5 Q786.816 1562.81 778.827 1562.81 Q770.839 1562.81 766.605 1556.5 Q762.404 1550.17 762.404 1538.17 Q762.404 1526.14 766.605 1519.84 Q770.839 1513.5 778.827 1513.5 Z" fill="#000000" fill-rule="evenodd" fill-opacity="1" /><polyline clip-path="url(#clip392)" style="stroke:#000000; stroke-linecap:butt; stroke-linejoin:round; stroke-width:2; stroke-opacity:0.1; fill:none" points="
  262.212,1358.19 1223.1,1358.19 
  "/>
<polyline clip-path="url(#clip392)" style="stroke:#000000; stroke-linecap:butt; stroke-linejoin:round; stroke-width:2; stroke-opacity:0.1; fill:none" points="
  262.212,1004.2 1223.1,1004.2 
  "/>
<polyline clip-path="url(#clip392)" style="stroke:#000000; stroke-linecap:butt; stroke-linejoin:round; stroke-width:2; stroke-opacity:0.1; fill:none" points="
  262.212,650.21 1223.1,650.21 
  "/>
<polyline clip-path="url(#clip392)" style="stroke:#000000; stroke-linecap:butt; stroke-linejoin:round; stroke-width:2; stroke-opacity:0.1; fill:none" points="
  262.212,296.222 1223.1,296.222 
  "/>
<polyline clip-path="url(#clip390)" style="stroke:#000000; stroke-linecap:butt; stroke-linejoin:round; stroke-width:4; stroke-opacity:1; fill:none" points="
  262.212,1393.02 262.212,162.272 
  "/>
<polyline clip-path="url(#clip390)" style="stroke:#000000; stroke-linecap:butt; stroke-linejoin:round; stroke-width:4; stroke-opacity:1; fill:none" points="
  262.212,1358.19 281.109,1358.19 
  "/>
<polyline clip-path="url(#clip390)" style="stroke:#000000; stroke-linecap:butt; stroke-linejoin:round; stroke-width:4; stroke-opacity:1; fill:none" points="
  262.212,1004.2 281.109,1004.2 
  "/>
<polyline clip-path="url(#clip390)" style="stroke:#000000; stroke-linecap:butt; stroke-linejoin:round; stroke-width:4; stroke-opacity:1; fill:none" points="
  262.212,650.21 281.109,650.21 
  "/>
<polyline clip-path="url(#clip390)" style="stroke:#000000; stroke-linecap:butt; stroke-linejoin:round; stroke-width:4; stroke-opacity:1; fill:none" points="
  262.212,296.222 281.109,296.222 
  "/>
<path clip-path="url(#clip390)" d="M190.267 1343.99 Q186.656 1343.99 184.827 1347.55 Q183.022 1351.09 183.022 1358.22 Q183.022 1365.33 184.827 1368.89 Q186.656 1372.43 190.267 1372.43 Q193.901 1372.43 195.707 1368.89 Q197.536 1365.33 197.536 1358.22 Q197.536 1351.09 195.707 1347.55 Q193.901 1343.99 190.267 1343.99 M190.267 1340.28 Q196.077 1340.28 199.133 1344.89 Q202.212 1349.47 202.212 1358.22 Q202.212 1366.95 199.133 1371.56 Q196.077 1376.14 190.267 1376.14 Q184.457 1376.14 181.378 1371.56 Q178.323 1366.95 178.323 1358.22 Q178.323 1349.47 181.378 1344.89 Q184.457 1340.28 190.267 1340.28 Z" fill="#000000" fill-rule="evenodd" fill-opacity="1" /><path clip-path="url(#clip390)" d="M181.309 986.919 L199.665 986.919 L199.665 990.854 L185.591 990.854 L185.591 999.326 Q186.61 998.979 187.628 998.817 Q188.647 998.632 189.665 998.632 Q195.452 998.632 198.832 1001.8 Q202.212 1004.97 202.212 1010.39 Q202.212 1015.97 198.739 1019.07 Q195.267 1022.15 188.948 1022.15 Q186.772 1022.15 184.503 1021.78 Q182.258 1021.41 179.851 1020.67 L179.851 1015.97 Q181.934 1017.1 184.156 1017.66 Q186.378 1018.21 188.855 1018.21 Q192.86 1018.21 195.198 1016.11 Q197.536 1014 197.536 1010.39 Q197.536 1006.78 195.198 1004.67 Q192.86 1002.57 188.855 1002.57 Q186.98 1002.57 185.105 1002.98 Q183.253 1003.4 181.309 1004.28 L181.309 986.919 Z" fill="#000000" fill-rule="evenodd" fill-opacity="1" /><path clip-path="url(#clip390)" d="M150.916 663.555 L158.554 663.555 L158.554 637.189 L150.244 638.856 L150.244 634.597 L158.508 632.93 L163.184 632.93 L163.184 663.555 L170.823 663.555 L170.823 667.49 L150.916 667.49 L150.916 663.555 Z" fill="#000000" fill-rule="evenodd" fill-opacity="1" /><path clip-path="url(#clip390)" d="M190.267 636.009 Q186.656 636.009 184.827 639.574 Q183.022 643.115 183.022 650.245 Q183.022 657.351 184.827 660.916 Q186.656 664.458 190.267 664.458 Q193.901 664.458 195.707 660.916 Q197.536 657.351 197.536 650.245 Q197.536 643.115 195.707 639.574 Q193.901 636.009 190.267 636.009 M190.267 632.305 Q196.077 632.305 199.133 636.912 Q202.212 641.495 202.212 650.245 Q202.212 658.972 199.133 663.578 Q196.077 668.161 190.267 668.161 Q184.457 668.161 181.378 663.578 Q178.323 658.972 178.323 650.245 Q178.323 641.495 181.378 636.912 Q184.457 632.305 190.267 632.305 Z" fill="#000000" fill-rule="evenodd" fill-opacity="1" /><path clip-path="url(#clip390)" d="M151.911 309.566 L159.55 309.566 L159.55 283.201 L151.24 284.867 L151.24 280.608 L159.503 278.942 L164.179 278.942 L164.179 309.566 L171.818 309.566 L171.818 313.502 L151.911 313.502 L151.911 309.566 Z" fill="#000000" fill-rule="evenodd" fill-opacity="1" /><path clip-path="url(#clip390)" d="M181.309 278.942 L199.665 278.942 L199.665 282.877 L185.591 282.877 L185.591 291.349 Q186.61 291.002 187.628 290.84 Q188.647 290.654 189.665 290.654 Q195.452 290.654 198.832 293.826 Q202.212 296.997 202.212 302.414 Q202.212 307.992 198.739 311.094 Q195.267 314.173 188.948 314.173 Q186.772 314.173 184.503 313.802 Q182.258 313.432 179.851 312.691 L179.851 307.992 Q181.934 309.127 184.156 309.682 Q186.378 310.238 188.855 310.238 Q192.86 310.238 195.198 308.131 Q197.536 306.025 197.536 302.414 Q197.536 298.803 195.198 296.696 Q192.86 294.59 188.855 294.59 Q186.98 294.59 185.105 295.006 Q183.253 295.423 181.309 296.303 L181.309 278.942 Z" fill="#000000" fill-rule="evenodd" fill-opacity="1" /><path clip-path="url(#clip390)" d="M40.3403 876.171 L40.3403 848.353 L45.6875 848.353 L71.3095 870.378 L71.3095 848.353 L75.9883 848.353 L75.9883 876.967 L70.6411 876.967 L45.0191 854.942 L45.0191 876.171 L40.3403 876.171 Z" fill="#000000" fill-rule="evenodd" fill-opacity="1" /><path clip-path="url(#clip390)" d="M26.5267 804.621 Q33.8473 808.886 41.0087 810.955 Q48.1701 813.023 55.5225 813.023 Q62.8749 813.023 70.1 810.955 Q77.2933 808.854 84.582 804.621 L84.582 809.713 Q77.1023 814.488 69.8772 816.875 Q62.6521 819.23 55.5225 819.23 Q48.4248 819.23 41.2315 816.875 Q34.0383 814.519 26.5267 809.713 L26.5267 804.621 Z" fill="#000000" fill-rule="evenodd" fill-opacity="1" /><path clip-path="url(#clip390)" d="M26.4631 793.481 L26.4631 787.592 L55.7135 787.592 L40.3403 770.119 L40.3403 762.639 L57.0185 781.545 L75.9883 761.843 L75.9883 769.482 L58.5781 787.592 L75.9883 787.592 L75.9883 793.481 L26.4631 793.481 Z" fill="#000000" fill-rule="evenodd" fill-opacity="1" /><path clip-path="url(#clip390)" d="M47.1835 727.755 Q43.2367 725.559 41.3588 722.503 Q39.481 719.448 39.481 715.31 Q39.481 709.74 43.3959 706.716 Q47.2789 703.692 54.4722 703.692 L75.9883 703.692 L75.9883 709.581 L54.6632 709.581 Q49.5388 709.581 47.0561 711.395 Q44.5735 713.209 44.5735 716.933 Q44.5735 721.485 47.5972 724.126 Q50.6209 726.768 55.8408 726.768 L75.9883 726.768 L75.9883 732.656 L54.6632 732.656 Q49.5069 732.656 47.0561 734.471 Q44.5735 736.285 44.5735 740.072 Q44.5735 744.56 47.6291 747.202 Q50.6528 749.844 55.8408 749.844 L75.9883 749.844 L75.9883 755.732 L40.3403 755.732 L40.3403 749.844 L45.8785 749.844 Q42.6002 747.839 41.0406 745.038 Q39.481 742.237 39.481 738.385 Q39.481 734.502 41.4543 731.797 Q43.4277 729.06 47.1835 727.755 Z" fill="#000000" fill-rule="evenodd" fill-opacity="1" /><path clip-path="url(#clip390)" d="M26.5267 692.934 L26.5267 687.842 Q34.0383 683.067 41.2315 680.712 Q48.4248 678.325 55.5225 678.325 Q62.6521 678.325 69.8772 680.712 Q77.1023 683.067 84.582 687.842 L84.582 692.934 Q77.2933 688.701 70.1 686.632 Q62.8749 684.532 55.5225 684.532 Q48.1701 684.532 41.0087 686.632 Q33.8473 688.701 26.5267 692.934 Z" fill="#000000" fill-rule="evenodd" fill-opacity="1" /><path clip-path="url(#clip390)" d="M679.359 35.3077 Q681.83 31.1758 687.947 27.5299 Q690.337 26.1121 697.71 26.1121 Q705.973 26.1121 711.118 32.6746 Q716.303 39.2371 716.303 49.9314 Q716.303 60.6258 711.118 67.1883 Q705.973 73.7508 697.71 73.7508 Q692.727 73.7508 689.122 71.8063 Q685.557 69.8214 683.207 65.7705 L683.207 89.8329 L675.713 89.8329 L675.713 50.3365 Q675.713 40.9789 679.359 35.3077 M708.566 49.9314 Q708.566 41.7081 705.163 37.0496 Q701.801 32.3505 695.887 32.3505 Q689.972 32.3505 686.57 37.0496 Q683.207 41.7081 683.207 49.9314 Q683.207 58.1548 686.57 62.8538 Q689.972 67.5124 695.887 67.5124 Q701.801 67.5124 705.163 62.8538 Q708.566 58.1548 708.566 49.9314 Z" fill="#000000" fill-rule="evenodd" fill-opacity="1" /><path clip-path="url(#clip390)" d="M763.132 86.3491 L763.132 92.1419 L720.03 92.1419 L720.03 86.3491 L763.132 86.3491 Z" fill="#000000" fill-rule="evenodd" fill-opacity="1" /><path clip-path="url(#clip390)" d="M788.693 17.4837 Q782.373 17.4837 779.173 23.7221 Q776.014 29.92 776.014 42.3968 Q776.014 54.833 779.173 61.0714 Q782.373 67.2693 788.693 67.2693 Q795.053 67.2693 798.213 61.0714 Q801.413 54.833 801.413 42.3968 Q801.413 29.92 798.213 23.7221 Q795.053 17.4837 788.693 17.4837 M788.693 11.0023 Q798.861 11.0023 804.208 19.0636 Q809.596 27.0843 809.596 42.3968 Q809.596 57.6687 804.208 65.73 Q798.861 73.7508 788.693 73.7508 Q778.525 73.7508 773.137 65.73 Q767.79 57.6687 767.79 42.3968 Q767.79 27.0843 773.137 19.0636 Q778.525 11.0023 788.693 11.0023 Z" fill="#000000" fill-rule="evenodd" fill-opacity="1" /><polyline clip-path="url(#clip392)" style="stroke:#009af9; stroke-linecap:butt; stroke-linejoin:round; stroke-width:4; stroke-opacity:1; fill:none" points="
  1185.49,1351.11 1164.9,1336.95 1144.64,1322.79 1124.71,1308.63 1105.09,1294.47 1085.79,1280.31 1066.79,1266.15 1048.11,1251.99 1029.73,1237.83 1011.66,1223.67 
  993.879,1209.51 976.395,1195.35 959.202,1181.19 942.297,1167.03 925.675,1152.87 909.334,1138.71 893.271,1124.55 877.482,1110.4 861.963,1096.24 846.712,1082.08 
  831.724,1067.92 816.997,1053.76 802.526,1039.6 788.31,1025.44 774.344,1011.28 760.626,997.119 747.152,982.959 733.918,968.8 720.918,954.64 708.073,940.481 
  695.453,926.321 683.056,912.162 670.881,898.002 658.924,883.843 647.183,869.683 635.656,855.523 624.339,841.364 613.231,827.204 602.329,813.045 591.63,798.885 
  581.132,784.726 570.832,770.566 560.728,756.407 550.816,742.247 541.095,728.088 531.562,713.928 522.213,699.768 513.047,685.609 504.061,671.449 495.251,657.29 
  486.615,643.13 478.151,628.971 469.856,614.811 461.727,600.652 453.762,586.492 445.957,572.333 438.31,558.173 430.818,544.014 423.478,529.854 416.288,515.694 
  409.245,501.535 402.345,487.375 395.587,473.216 388.967,459.056 382.482,444.897 376.13,430.737 369.909,416.578 363.814,402.418 357.867,388.259 352.152,374.099 
  346.55,359.939 341.057,345.78 335.671,331.62 330.39,317.461 325.211,303.301 320.131,289.142 315.15,274.982 310.263,260.823 305.471,246.663 300.77,232.504 
  296.158,218.344 291.635,204.184 
  "/>
<polyline clip-path="url(#clip392)" style="stroke:#e26f46; stroke-linecap:butt; stroke-linejoin:round; stroke-width:4; stroke-opacity:1; fill:none" points="
  1195.9,1358.19 1175.15,1344.03 1154.73,1329.87 1134.63,1315.71 1114.86,1301.55 1095.4,1287.39 1076.25,1273.23 1057.41,1259.07 1038.89,1244.91 1020.66,1230.75 
  1002.73,1216.59 985.101,1202.43 967.763,1188.27 950.714,1174.11 933.951,1159.95 917.47,1145.79 901.268,1131.63 885.343,1117.48 869.689,1103.32 854.304,1089.16 
  839.185,1075 824.328,1060.84 809.729,1046.68 795.387,1032.52 781.296,1018.36 767.454,1004.2 753.859,990.039 740.505,975.88 727.391,961.72 714.467,947.56 
  701.735,933.401 689.227,919.241 676.941,905.082 664.875,890.922 653.026,876.763 641.393,862.603 629.971,848.444 618.76,834.284 607.754,820.125 596.954,805.965 
  586.356,791.806 575.958,777.646 565.756,763.486 555.748,749.327 545.932,735.167 536.305,721.008 526.864,706.848 517.607,692.689 508.532,678.529 499.634,664.37 
  490.911,650.21 482.362,636.051 473.983,621.891 465.771,607.731 457.724,593.572 449.839,579.412 442.114,565.253 434.544,551.093 427.129,536.934 419.865,522.774 
  412.748,508.615 405.777,494.455 398.948,480.296 392.26,466.136 385.708,451.976 379.29,437.817 373.004,423.657 366.846,409.498 360.813,395.338 354.996,381.179 
  349.337,367.019 343.79,352.86 338.351,338.7 333.018,324.541 327.788,310.381 322.659,296.222 317.629,282.062 312.695,267.902 307.855,253.743 303.109,239.583 
  298.453,225.424 293.886,211.264 289.406,197.105 
  "/>
<path clip-path="url(#clip390)" d="
M912.012 358.817 L1191.07 358.817 L1191.07 203.297 L912.012 203.297  Z
  " fill="#ffffff" fill-rule="evenodd" fill-opacity="1"/>
<polyline clip-path="url(#clip390)" style="stroke:#000000; stroke-linecap:butt; stroke-linejoin:round; stroke-width:4; stroke-opacity:1; fill:none" points="
  912.012,358.817 1191.07,358.817 1191.07,203.297 912.012,203.297 912.012,358.817 
  "/>
<polyline clip-path="url(#clip390)" style="stroke:#009af9; stroke-linecap:butt; stroke-linejoin:round; stroke-width:4; stroke-opacity:1; fill:none" points="
  922.688,255.137 986.747,255.137 
  "/>
<path clip-path="url(#clip390)" d="M1017.93 247.487 L1017.93 251.468 Q1016.13 250.473 1014.3 249.987 Q1012.49 249.477 1010.64 249.477 Q1006.5 249.477 1004.21 252.116 Q1001.91 254.732 1001.91 259.477 Q1001.91 264.223 1004.21 266.862 Q1006.5 269.477 1010.64 269.477 Q1012.49 269.477 1014.3 268.991 Q1016.13 268.482 1017.93 267.487 L1017.93 271.422 Q1016.15 272.255 1014.23 272.672 Q1012.33 273.088 1010.18 273.088 Q1004.32 273.088 1000.87 269.408 Q997.424 265.727 997.424 259.477 Q997.424 253.135 1000.9 249.501 Q1004.39 245.866 1010.46 245.866 Q1012.42 245.866 1014.3 246.283 Q1016.17 246.677 1017.93 247.487 Z" fill="#000000" fill-rule="evenodd" fill-opacity="1" /><path clip-path="url(#clip390)" d="M1047.52 258.389 L1047.52 260.473 L1027.93 260.473 Q1028.21 264.871 1030.57 267.186 Q1032.96 269.477 1037.19 269.477 Q1039.65 269.477 1041.94 268.876 Q1044.25 268.274 1046.52 267.07 L1046.52 271.098 Q1044.23 272.07 1041.82 272.579 Q1039.41 273.088 1036.94 273.088 Q1030.73 273.088 1027.1 269.477 Q1023.49 265.866 1023.49 259.709 Q1023.49 253.343 1026.91 249.616 Q1030.36 245.866 1036.2 245.866 Q1041.43 245.866 1044.46 249.246 Q1047.52 252.602 1047.52 258.389 M1043.26 257.139 Q1043.21 253.644 1041.29 251.561 Q1039.39 249.477 1036.24 249.477 Q1032.68 249.477 1030.53 251.491 Q1028.4 253.505 1028.07 257.163 L1043.26 257.139 Z" fill="#000000" fill-rule="evenodd" fill-opacity="1" /><path clip-path="url(#clip390)" d="M1076.06 256.769 L1076.06 272.417 L1071.8 272.417 L1071.8 256.908 Q1071.8 253.227 1070.36 251.399 Q1068.93 249.57 1066.06 249.57 Q1062.61 249.57 1060.62 251.769 Q1058.63 253.968 1058.63 257.764 L1058.63 272.417 L1054.34 272.417 L1054.34 246.491 L1058.63 246.491 L1058.63 250.519 Q1060.15 248.181 1062.22 247.024 Q1064.3 245.866 1067.01 245.866 Q1071.47 245.866 1073.77 248.644 Q1076.06 251.399 1076.06 256.769 Z" fill="#000000" fill-rule="evenodd" fill-opacity="1" /><path clip-path="url(#clip390)" d="M1088.77 239.13 L1088.77 246.491 L1097.54 246.491 L1097.54 249.802 L1088.77 249.802 L1088.77 263.876 Q1088.77 267.047 1089.62 267.95 Q1090.5 268.852 1093.16 268.852 L1097.54 268.852 L1097.54 272.417 L1093.16 272.417 Q1088.23 272.417 1086.36 270.588 Q1084.48 268.737 1084.48 263.876 L1084.48 249.802 L1081.36 249.802 L1081.36 246.491 L1084.48 246.491 L1084.48 239.13 L1088.77 239.13 Z" fill="#000000" fill-rule="evenodd" fill-opacity="1" /><path clip-path="url(#clip390)" d="M1125.32 258.389 L1125.32 260.473 L1105.73 260.473 Q1106.01 264.871 1108.37 267.186 Q1110.76 269.477 1114.99 269.477 Q1117.45 269.477 1119.74 268.876 Q1122.05 268.274 1124.32 267.07 L1124.32 271.098 Q1122.03 272.07 1119.62 272.579 Q1117.21 273.088 1114.74 273.088 Q1108.53 273.088 1104.9 269.477 Q1101.29 265.866 1101.29 259.709 Q1101.29 253.343 1104.71 249.616 Q1108.16 245.866 1114 245.866 Q1119.23 245.866 1122.26 249.246 Q1125.32 252.602 1125.32 258.389 M1121.06 257.139 Q1121.01 253.644 1119.09 251.561 Q1117.19 249.477 1114.04 249.477 Q1110.48 249.477 1108.33 251.491 Q1106.2 253.505 1105.87 257.163 L1121.06 257.139 Z" fill="#000000" fill-rule="evenodd" fill-opacity="1" /><path clip-path="url(#clip390)" d="M1147.33 250.473 Q1146.61 250.056 1145.76 249.871 Q1144.92 249.663 1143.9 249.663 Q1140.29 249.663 1138.35 252.024 Q1136.43 254.362 1136.43 258.76 L1136.43 272.417 L1132.15 272.417 L1132.15 246.491 L1136.43 246.491 L1136.43 250.519 Q1137.77 248.158 1139.92 247.024 Q1142.08 245.866 1145.15 245.866 Q1145.59 245.866 1146.13 245.936 Q1146.66 245.982 1147.31 246.098 L1147.33 250.473 Z" fill="#000000" fill-rule="evenodd" fill-opacity="1" /><path clip-path="url(#clip390)" d="M1168.33 247.255 L1168.33 251.283 Q1166.52 250.357 1164.58 249.894 Q1162.63 249.431 1160.55 249.431 Q1157.38 249.431 1155.78 250.403 Q1154.21 251.376 1154.21 253.32 Q1154.21 254.802 1155.34 255.658 Q1156.47 256.491 1159.9 257.255 L1161.36 257.579 Q1165.9 258.552 1167.79 260.334 Q1169.71 262.093 1169.71 265.264 Q1169.71 268.876 1166.84 270.982 Q1164 273.088 1159 273.088 Q1156.91 273.088 1154.65 272.672 Q1152.4 272.278 1149.9 271.468 L1149.9 267.07 Q1152.26 268.297 1154.55 268.922 Q1156.84 269.524 1159.09 269.524 Q1162.1 269.524 1163.72 268.505 Q1165.34 267.463 1165.34 265.589 Q1165.34 263.852 1164.16 262.926 Q1163 262.001 1159.04 261.144 L1157.56 260.797 Q1153.6 259.964 1151.84 258.251 Q1150.09 256.514 1150.09 253.505 Q1150.09 249.848 1152.68 247.857 Q1155.27 245.866 1160.04 245.866 Q1162.4 245.866 1164.48 246.214 Q1166.57 246.561 1168.33 247.255 Z" fill="#000000" fill-rule="evenodd" fill-opacity="1" /><polyline clip-path="url(#clip390)" style="stroke:#e26f46; stroke-linecap:butt; stroke-linejoin:round; stroke-width:4; stroke-opacity:1; fill:none" points="
  922.688,306.977 986.747,306.977 
  "/>
<path clip-path="url(#clip390)" d="M1013.93 288.239 L1013.93 291.78 L1009.85 291.78 Q1007.56 291.78 1006.66 292.706 Q1005.78 293.632 1005.78 296.04 L1005.78 298.331 L1012.79 298.331 L1012.79 301.642 L1005.78 301.642 L1005.78 324.257 L1001.5 324.257 L1001.5 301.642 L997.424 301.642 L997.424 298.331 L1001.5 298.331 L1001.5 296.526 Q1001.5 292.197 1003.51 290.23 Q1005.53 288.239 1009.9 288.239 L1013.93 288.239 Z" fill="#000000" fill-rule="evenodd" fill-opacity="1" /><path clip-path="url(#clip390)" d="M1029.28 311.225 Q1024.11 311.225 1022.12 312.405 Q1020.13 313.586 1020.13 316.433 Q1020.13 318.702 1021.61 320.044 Q1023.12 321.364 1025.69 321.364 Q1029.23 321.364 1031.36 318.864 Q1033.51 316.341 1033.51 312.174 L1033.51 311.225 L1029.28 311.225 M1037.77 309.466 L1037.77 324.257 L1033.51 324.257 L1033.51 320.322 Q1032.05 322.683 1029.88 323.817 Q1027.7 324.928 1024.55 324.928 Q1020.57 324.928 1018.21 322.706 Q1015.87 320.461 1015.87 316.711 Q1015.87 312.336 1018.79 310.114 Q1021.73 307.892 1027.54 307.892 L1033.51 307.892 L1033.51 307.475 Q1033.51 304.535 1031.57 302.938 Q1029.65 301.317 1026.15 301.317 Q1023.93 301.317 1021.82 301.85 Q1019.72 302.382 1017.77 303.447 L1017.77 299.512 Q1020.11 298.609 1022.31 298.169 Q1024.51 297.706 1026.59 297.706 Q1032.22 297.706 1034.99 300.623 Q1037.77 303.54 1037.77 309.466 Z" fill="#000000" fill-rule="evenodd" fill-opacity="1" /><path clip-path="url(#clip390)" d="M1065.2 299.327 L1065.2 303.308 Q1063.4 302.313 1061.57 301.827 Q1059.76 301.317 1057.91 301.317 Q1053.77 301.317 1051.47 303.956 Q1049.18 306.572 1049.18 311.317 Q1049.18 316.063 1051.47 318.702 Q1053.77 321.317 1057.91 321.317 Q1059.76 321.317 1061.57 320.831 Q1063.4 320.322 1065.2 319.327 L1065.2 323.262 Q1063.42 324.095 1061.5 324.512 Q1059.6 324.928 1057.45 324.928 Q1051.59 324.928 1048.14 321.248 Q1044.69 317.567 1044.69 311.317 Q1044.69 304.975 1048.16 301.341 Q1051.66 297.706 1057.72 297.706 Q1059.69 297.706 1061.57 298.123 Q1063.44 298.517 1065.2 299.327 Z" fill="#000000" fill-rule="evenodd" fill-opacity="1" /><path clip-path="url(#clip390)" d="M1094.78 310.229 L1094.78 312.313 L1075.2 312.313 Q1075.48 316.711 1077.84 319.026 Q1080.22 321.317 1084.46 321.317 Q1086.91 321.317 1089.21 320.716 Q1091.52 320.114 1093.79 318.91 L1093.79 322.938 Q1091.5 323.91 1089.09 324.419 Q1086.68 324.928 1084.21 324.928 Q1078 324.928 1074.37 321.317 Q1070.76 317.706 1070.76 311.549 Q1070.76 305.183 1074.18 301.456 Q1077.63 297.706 1083.47 297.706 Q1088.7 297.706 1091.73 301.086 Q1094.78 304.442 1094.78 310.229 M1090.53 308.979 Q1090.48 305.484 1088.56 303.401 Q1086.66 301.317 1083.51 301.317 Q1079.95 301.317 1077.79 303.331 Q1075.66 305.345 1075.34 309.003 L1090.53 308.979 Z" fill="#000000" fill-rule="evenodd" fill-opacity="1" /><path clip-path="url(#clip390)" d="M1118.3 299.095 L1118.3 303.123 Q1116.5 302.197 1114.55 301.734 Q1112.61 301.271 1110.53 301.271 Q1107.35 301.271 1105.76 302.243 Q1104.18 303.216 1104.18 305.16 Q1104.18 306.642 1105.32 307.498 Q1106.45 308.331 1109.88 309.095 L1111.34 309.419 Q1115.87 310.392 1117.77 312.174 Q1119.69 313.933 1119.69 317.104 Q1119.69 320.716 1116.82 322.822 Q1113.97 324.928 1108.97 324.928 Q1106.89 324.928 1104.62 324.512 Q1102.38 324.118 1099.88 323.308 L1099.88 318.91 Q1102.24 320.137 1104.53 320.762 Q1106.82 321.364 1109.07 321.364 Q1112.08 321.364 1113.7 320.345 Q1115.32 319.303 1115.32 317.429 Q1115.32 315.692 1114.14 314.766 Q1112.98 313.841 1109.02 312.984 L1107.54 312.637 Q1103.58 311.804 1101.82 310.091 Q1100.06 308.354 1100.06 305.345 Q1100.06 301.688 1102.65 299.697 Q1105.25 297.706 1110.02 297.706 Q1112.38 297.706 1114.46 298.054 Q1116.54 298.401 1118.3 299.095 Z" fill="#000000" fill-rule="evenodd" fill-opacity="1" /><path clip-path="url(#clip390)" d="
M1595.54 1393.02 L2556.43 1393.02 L2556.43 162.272 L1595.54 162.272  Z
  " fill="#ffffff" fill-rule="evenodd" fill-opacity="1"/>
<defs>
  <clipPath id="clip393">
    <rect x="1595" y="162" width="962" height="1232"/>
  </clipPath>
</defs>
<polyline clip-path="url(#clip393)" style="stroke:#000000; stroke-linecap:butt; stroke-linejoin:round; stroke-width:2; stroke-opacity:0.1; fill:none" points="
  1715.11,1393.02 1715.11,162.272 
  "/>
<polyline clip-path="url(#clip393)" style="stroke:#000000; stroke-linecap:butt; stroke-linejoin:round; stroke-width:2; stroke-opacity:0.1; fill:none" points="
  1920.88,1393.02 1920.88,162.272 
  "/>
<polyline clip-path="url(#clip393)" style="stroke:#000000; stroke-linecap:butt; stroke-linejoin:round; stroke-width:2; stroke-opacity:0.1; fill:none" points="
  2126.65,1393.02 2126.65,162.272 
  "/>
<polyline clip-path="url(#clip393)" style="stroke:#000000; stroke-linecap:butt; stroke-linejoin:round; stroke-width:2; stroke-opacity:0.1; fill:none" points="
  2332.42,1393.02 2332.42,162.272 
  "/>
<polyline clip-path="url(#clip393)" style="stroke:#000000; stroke-linecap:butt; stroke-linejoin:round; stroke-width:2; stroke-opacity:0.1; fill:none" points="
  2538.19,1393.02 2538.19,162.272 
  "/>
<polyline clip-path="url(#clip390)" style="stroke:#000000; stroke-linecap:butt; stroke-linejoin:round; stroke-width:4; stroke-opacity:1; fill:none" points="
  1595.54,1393.02 2556.43,1393.02 
  "/>
<polyline clip-path="url(#clip390)" style="stroke:#000000; stroke-linecap:butt; stroke-linejoin:round; stroke-width:4; stroke-opacity:1; fill:none" points="
  1715.11,1393.02 1715.11,1374.12 
  "/>
<polyline clip-path="url(#clip390)" style="stroke:#000000; stroke-linecap:butt; stroke-linejoin:round; stroke-width:4; stroke-opacity:1; fill:none" points="
  1920.88,1393.02 1920.88,1374.12 
  "/>
<polyline clip-path="url(#clip390)" style="stroke:#000000; stroke-linecap:butt; stroke-linejoin:round; stroke-width:4; stroke-opacity:1; fill:none" points="
  2126.65,1393.02 2126.65,1374.12 
  "/>
<polyline clip-path="url(#clip390)" style="stroke:#000000; stroke-linecap:butt; stroke-linejoin:round; stroke-width:4; stroke-opacity:1; fill:none" points="
  2332.42,1393.02 2332.42,1374.12 
  "/>
<polyline clip-path="url(#clip390)" style="stroke:#000000; stroke-linecap:butt; stroke-linejoin:round; stroke-width:4; stroke-opacity:1; fill:none" points="
  2538.19,1393.02 2538.19,1374.12 
  "/>
<path clip-path="url(#clip390)" d="M1693.88 1464.28 L1710.2 1464.28 L1710.2 1468.22 L1688.26 1468.22 L1688.26 1464.28 Q1690.92 1461.53 1695.5 1456.9 Q1700.11 1452.25 1701.29 1450.9 Q1703.53 1448.38 1704.41 1446.65 Q1705.32 1444.89 1705.32 1443.2 Q1705.32 1440.44 1703.37 1438.71 Q1701.45 1436.97 1698.35 1436.97 Q1696.15 1436.97 1693.7 1437.73 Q1691.27 1438.5 1688.49 1440.05 L1688.49 1435.33 Q1691.31 1434.19 1693.77 1433.61 Q1696.22 1433.03 1698.26 1433.03 Q1703.63 1433.03 1706.82 1435.72 Q1710.01 1438.41 1710.01 1442.9 Q1710.01 1445.03 1709.2 1446.95 Q1708.42 1448.84 1706.31 1451.44 Q1705.73 1452.11 1702.63 1455.33 Q1699.53 1458.52 1693.88 1464.28 Z" fill="#000000" fill-rule="evenodd" fill-opacity="1" /><path clip-path="url(#clip390)" d="M1730.01 1436.74 Q1726.4 1436.74 1724.58 1440.3 Q1722.77 1443.84 1722.77 1450.97 Q1722.77 1458.08 1724.58 1461.65 Q1726.4 1465.19 1730.01 1465.19 Q1733.65 1465.19 1735.45 1461.65 Q1737.28 1458.08 1737.28 1450.97 Q1737.28 1443.84 1735.45 1440.3 Q1733.65 1436.74 1730.01 1436.74 M1730.01 1433.03 Q1735.82 1433.03 1738.88 1437.64 Q1741.96 1442.22 1741.96 1450.97 Q1741.96 1459.7 1738.88 1464.31 Q1735.82 1468.89 1730.01 1468.89 Q1724.2 1468.89 1721.13 1464.31 Q1718.07 1459.7 1718.07 1450.97 Q1718.07 1442.22 1721.13 1437.64 Q1724.2 1433.03 1730.01 1433.03 Z" fill="#000000" fill-rule="evenodd" fill-opacity="1" /><path clip-path="url(#clip390)" d="M1909.05 1437.73 L1897.24 1456.18 L1909.05 1456.18 L1909.05 1437.73 M1907.82 1433.66 L1913.7 1433.66 L1913.7 1456.18 L1918.63 1456.18 L1918.63 1460.07 L1913.7 1460.07 L1913.7 1468.22 L1909.05 1468.22 L1909.05 1460.07 L1893.45 1460.07 L1893.45 1455.56 L1907.82 1433.66 Z" fill="#000000" fill-rule="evenodd" fill-opacity="1" /><path clip-path="url(#clip390)" d="M1936.36 1436.74 Q1932.75 1436.74 1930.92 1440.3 Q1929.12 1443.84 1929.12 1450.97 Q1929.12 1458.08 1930.92 1461.65 Q1932.75 1465.19 1936.36 1465.19 Q1940 1465.19 1941.8 1461.65 Q1943.63 1458.08 1943.63 1450.97 Q1943.63 1443.84 1941.8 1440.3 Q1940 1436.74 1936.36 1436.74 M1936.36 1433.03 Q1942.17 1433.03 1945.23 1437.64 Q1948.31 1442.22 1948.31 1450.97 Q1948.31 1459.7 1945.23 1464.31 Q1942.17 1468.89 1936.36 1468.89 Q1930.55 1468.89 1927.47 1464.31 Q1924.42 1459.7 1924.42 1450.97 Q1924.42 1442.22 1927.47 1437.64 Q1930.55 1433.03 1936.36 1433.03 Z" fill="#000000" fill-rule="evenodd" fill-opacity="1" /><path clip-path="url(#clip390)" d="M2112.05 1449.08 Q2108.9 1449.08 2107.05 1451.23 Q2105.22 1453.38 2105.22 1457.13 Q2105.22 1460.86 2107.05 1463.03 Q2108.9 1465.19 2112.05 1465.19 Q2115.2 1465.19 2117.03 1463.03 Q2118.88 1460.86 2118.88 1457.13 Q2118.88 1453.38 2117.03 1451.23 Q2115.2 1449.08 2112.05 1449.08 M2121.33 1434.42 L2121.33 1438.68 Q2119.58 1437.85 2117.77 1437.41 Q2115.99 1436.97 2114.23 1436.97 Q2109.6 1436.97 2107.14 1440.09 Q2104.71 1443.22 2104.37 1449.54 Q2105.73 1447.53 2107.79 1446.46 Q2109.85 1445.37 2112.33 1445.37 Q2117.54 1445.37 2120.55 1448.54 Q2123.58 1451.69 2123.58 1457.13 Q2123.58 1462.46 2120.43 1465.67 Q2117.28 1468.89 2112.05 1468.89 Q2106.06 1468.89 2102.89 1464.31 Q2099.71 1459.7 2099.71 1450.97 Q2099.71 1442.78 2103.6 1437.92 Q2107.49 1433.03 2114.04 1433.03 Q2115.8 1433.03 2117.58 1433.38 Q2119.39 1433.73 2121.33 1434.42 Z" fill="#000000" fill-rule="evenodd" fill-opacity="1" /><path clip-path="url(#clip390)" d="M2141.64 1436.74 Q2138.02 1436.74 2136.2 1440.3 Q2134.39 1443.84 2134.39 1450.97 Q2134.39 1458.08 2136.2 1461.65 Q2138.02 1465.19 2141.64 1465.19 Q2145.27 1465.19 2147.08 1461.65 Q2148.9 1458.08 2148.9 1450.97 Q2148.9 1443.84 2147.08 1440.3 Q2145.27 1436.74 2141.64 1436.74 M2141.64 1433.03 Q2147.45 1433.03 2150.5 1437.64 Q2153.58 1442.22 2153.58 1450.97 Q2153.58 1459.7 2150.5 1464.31 Q2147.45 1468.89 2141.64 1468.89 Q2135.83 1468.89 2132.75 1464.31 Q2129.69 1459.7 2129.69 1450.97 Q2129.69 1442.22 2132.75 1437.64 Q2135.83 1433.03 2141.64 1433.03 Z" fill="#000000" fill-rule="evenodd" fill-opacity="1" /><path clip-path="url(#clip390)" d="M2317.29 1451.81 Q2313.96 1451.81 2312.03 1453.59 Q2310.14 1455.37 2310.14 1458.5 Q2310.14 1461.62 2312.03 1463.4 Q2313.96 1465.19 2317.29 1465.19 Q2320.62 1465.19 2322.54 1463.4 Q2324.47 1461.6 2324.47 1458.5 Q2324.47 1455.37 2322.54 1453.59 Q2320.65 1451.81 2317.29 1451.81 M2312.61 1449.82 Q2309.6 1449.08 2307.91 1447.02 Q2306.25 1444.96 2306.25 1441.99 Q2306.25 1437.85 2309.19 1435.44 Q2312.15 1433.03 2317.29 1433.03 Q2322.45 1433.03 2325.39 1435.44 Q2328.33 1437.85 2328.33 1441.99 Q2328.33 1444.96 2326.64 1447.02 Q2324.97 1449.08 2321.99 1449.82 Q2325.37 1450.6 2327.24 1452.9 Q2329.14 1455.19 2329.14 1458.5 Q2329.14 1463.52 2326.06 1466.21 Q2323.01 1468.89 2317.29 1468.89 Q2311.57 1468.89 2308.49 1466.21 Q2305.44 1463.52 2305.44 1458.5 Q2305.44 1455.19 2307.34 1452.9 Q2309.23 1450.6 2312.61 1449.82 M2310.9 1442.43 Q2310.9 1445.12 2312.57 1446.62 Q2314.26 1448.13 2317.29 1448.13 Q2320.3 1448.13 2321.99 1446.62 Q2323.7 1445.12 2323.7 1442.43 Q2323.7 1439.75 2321.99 1438.24 Q2320.3 1436.74 2317.29 1436.74 Q2314.26 1436.74 2312.57 1438.24 Q2310.9 1439.75 2310.9 1442.43 Z" fill="#000000" fill-rule="evenodd" fill-opacity="1" /><path clip-path="url(#clip390)" d="M2347.45 1436.74 Q2343.84 1436.74 2342.01 1440.3 Q2340.21 1443.84 2340.21 1450.97 Q2340.21 1458.08 2342.01 1461.65 Q2343.84 1465.19 2347.45 1465.19 Q2351.09 1465.19 2352.89 1461.65 Q2354.72 1458.08 2354.72 1450.97 Q2354.72 1443.84 2352.89 1440.3 Q2351.09 1436.74 2347.45 1436.74 M2347.45 1433.03 Q2353.26 1433.03 2356.32 1437.64 Q2359.4 1442.22 2359.4 1450.97 Q2359.4 1459.7 2356.32 1464.31 Q2353.26 1468.89 2347.45 1468.89 Q2341.64 1468.89 2338.56 1464.31 Q2335.51 1459.7 2335.51 1450.97 Q2335.51 1442.22 2338.56 1437.64 Q2341.64 1433.03 2347.45 1433.03 Z" fill="#000000" fill-rule="evenodd" fill-opacity="1" /><path clip-path="url(#clip390)" d="M2497.79 1464.28 L2505.43 1464.28 L2505.43 1437.92 L2497.12 1439.59 L2497.12 1435.33 L2505.39 1433.66 L2510.06 1433.66 L2510.06 1464.28 L2517.7 1464.28 L2517.7 1468.22 L2497.79 1468.22 L2497.79 1464.28 Z" fill="#000000" fill-rule="evenodd" fill-opacity="1" /><path clip-path="url(#clip390)" d="M2537.14 1436.74 Q2533.53 1436.74 2531.71 1440.3 Q2529.9 1443.84 2529.9 1450.97 Q2529.9 1458.08 2531.71 1461.65 Q2533.53 1465.19 2537.14 1465.19 Q2540.78 1465.19 2542.58 1461.65 Q2544.41 1458.08 2544.41 1450.97 Q2544.41 1443.84 2542.58 1440.3 Q2540.78 1436.74 2537.14 1436.74 M2537.14 1433.03 Q2542.96 1433.03 2546.01 1437.64 Q2549.09 1442.22 2549.09 1450.97 Q2549.09 1459.7 2546.01 1464.31 Q2542.96 1468.89 2537.14 1468.89 Q2531.33 1468.89 2528.26 1464.31 Q2525.2 1459.7 2525.2 1450.97 Q2525.2 1442.22 2528.26 1437.64 Q2531.33 1433.03 2537.14 1433.03 Z" fill="#000000" fill-rule="evenodd" fill-opacity="1" /><path clip-path="url(#clip390)" d="M2567.31 1436.74 Q2563.7 1436.74 2561.87 1440.3 Q2560.06 1443.84 2560.06 1450.97 Q2560.06 1458.08 2561.87 1461.65 Q2563.7 1465.19 2567.31 1465.19 Q2570.94 1465.19 2572.75 1461.65 Q2574.58 1458.08 2574.58 1450.97 Q2574.58 1443.84 2572.75 1440.3 Q2570.94 1436.74 2567.31 1436.74 M2567.31 1433.03 Q2573.12 1433.03 2576.17 1437.64 Q2579.25 1442.22 2579.25 1450.97 Q2579.25 1459.7 2576.17 1464.31 Q2573.12 1468.89 2567.31 1468.89 Q2561.5 1468.89 2558.42 1464.31 Q2555.36 1459.7 2555.36 1450.97 Q2555.36 1442.22 2558.42 1437.64 Q2561.5 1433.03 2567.31 1433.03 Z" fill="#000000" fill-rule="evenodd" fill-opacity="1" /><path clip-path="url(#clip390)" d="M1937.09 1556.54 L1937.09 1575.44 L1931.2 1575.44 L1931.2 1526.24 L1937.09 1526.24 L1937.09 1531.65 Q1938.93 1528.46 1941.73 1526.94 Q1944.57 1525.38 1948.48 1525.38 Q1954.98 1525.38 1959.02 1530.53 Q1963.09 1535.69 1963.09 1544.09 Q1963.09 1552.49 1959.02 1557.65 Q1954.98 1562.81 1948.48 1562.81 Q1944.57 1562.81 1941.73 1561.28 Q1938.93 1559.72 1937.09 1556.54 M1957.01 1544.09 Q1957.01 1537.63 1954.34 1533.97 Q1951.7 1530.28 1947.05 1530.28 Q1942.4 1530.28 1939.73 1533.97 Q1937.09 1537.63 1937.09 1544.09 Q1937.09 1550.55 1939.73 1554.24 Q1942.4 1557.91 1947.05 1557.91 Q1951.7 1557.91 1954.34 1554.24 Q1957.01 1550.55 1957.01 1544.09 Z" fill="#000000" fill-rule="evenodd" fill-opacity="1" /><path clip-path="url(#clip390)" d="M1999.89 1572.71 L1999.89 1577.26 L1966.02 1577.26 L1966.02 1572.71 L1999.89 1572.71 Z" fill="#000000" fill-rule="evenodd" fill-opacity="1" /><path clip-path="url(#clip390)" d="M2019.97 1518.6 Q2015 1518.6 2012.49 1523.5 Q2010.01 1528.37 2010.01 1538.17 Q2010.01 1547.94 2012.49 1552.84 Q2015 1557.71 2019.97 1557.71 Q2024.97 1557.71 2027.45 1552.84 Q2029.96 1547.94 2029.96 1538.17 Q2029.96 1528.37 2027.45 1523.5 Q2024.97 1518.6 2019.97 1518.6 M2019.97 1513.5 Q2027.96 1513.5 2032.16 1519.84 Q2036.39 1526.14 2036.39 1538.17 Q2036.39 1550.17 2032.16 1556.5 Q2027.96 1562.81 2019.97 1562.81 Q2011.98 1562.81 2007.75 1556.5 Q2003.55 1550.17 2003.55 1538.17 Q2003.55 1526.14 2007.75 1519.84 Q2011.98 1513.5 2019.97 1513.5 Z" fill="#000000" fill-rule="evenodd" fill-opacity="1" /><path clip-path="url(#clip390)" d="M2081.65 1512.42 Q2077.39 1519.74 2075.32 1526.9 Q2073.25 1534.07 2073.25 1541.42 Q2073.25 1548.77 2075.32 1556 Q2077.42 1563.19 2081.65 1570.48 L2076.56 1570.48 Q2071.79 1563 2069.4 1555.77 Q2067.04 1548.55 2067.04 1541.42 Q2067.04 1534.32 2069.4 1527.13 Q2071.75 1519.93 2076.56 1512.42 L2081.65 1512.42 Z" fill="#000000" fill-rule="evenodd" fill-opacity="1" /><path clip-path="url(#clip390)" d="M2092.79 1512.36 L2098.68 1512.36 L2098.68 1541.61 L2116.16 1526.24 L2123.64 1526.24 L2104.73 1542.91 L2124.43 1561.88 L2116.79 1561.88 L2098.68 1544.47 L2098.68 1561.88 L2092.79 1561.88 L2092.79 1512.36 Z" fill="#000000" fill-rule="evenodd" fill-opacity="1" /><path clip-path="url(#clip390)" d="M2137.45 1519.65 L2137.45 1537.5 L2145.53 1537.5 Q2150.02 1537.5 2152.47 1535.18 Q2154.92 1532.86 2154.92 1528.56 Q2154.92 1524.29 2152.47 1521.97 Q2150.02 1519.65 2145.53 1519.65 L2137.45 1519.65 M2131.02 1514.36 L2145.53 1514.36 Q2153.52 1514.36 2157.6 1517.99 Q2161.7 1521.59 2161.7 1528.56 Q2161.7 1535.59 2157.6 1539.19 Q2153.52 1542.79 2145.53 1542.79 L2137.45 1542.79 L2137.45 1561.88 L2131.02 1561.88 L2131.02 1514.36 Z" fill="#000000" fill-rule="evenodd" fill-opacity="1" /><path clip-path="url(#clip390)" d="M2183.35 1543.96 Q2176.25 1543.96 2173.51 1545.59 Q2170.77 1547.21 2170.77 1551.13 Q2170.77 1554.24 2172.81 1556.09 Q2174.88 1557.91 2178.41 1557.91 Q2183.28 1557.91 2186.21 1554.47 Q2189.17 1551 2189.17 1545.27 L2189.17 1543.96 L2183.35 1543.96 M2195.03 1541.55 L2195.03 1561.88 L2189.17 1561.88 L2189.17 1556.47 Q2187.16 1559.72 2184.17 1561.28 Q2181.18 1562.81 2176.85 1562.81 Q2171.38 1562.81 2168.13 1559.75 Q2164.92 1556.66 2164.92 1551.51 Q2164.92 1545.49 2168.93 1542.44 Q2172.97 1539.38 2180.96 1539.38 L2189.17 1539.38 L2189.17 1538.81 Q2189.17 1534.77 2186.5 1532.57 Q2183.85 1530.34 2179.05 1530.34 Q2175.99 1530.34 2173.1 1531.07 Q2170.2 1531.81 2167.53 1533.27 L2167.53 1527.86 Q2170.74 1526.62 2173.76 1526.01 Q2176.79 1525.38 2179.65 1525.38 Q2187.39 1525.38 2191.21 1529.39 Q2195.03 1533.4 2195.03 1541.55 Z" fill="#000000" fill-rule="evenodd" fill-opacity="1" /><path clip-path="url(#clip390)" d="M2206.17 1512.42 L2211.26 1512.42 Q2216.03 1519.93 2218.39 1527.13 Q2220.78 1534.32 2220.78 1541.42 Q2220.78 1548.55 2218.39 1555.77 Q2216.03 1563 2211.26 1570.48 L2206.17 1570.48 Q2210.4 1563.19 2212.47 1556 Q2214.57 1548.77 2214.57 1541.42 Q2214.57 1534.07 2212.47 1526.9 Q2210.4 1519.74 2206.17 1512.42 Z" fill="#000000" fill-rule="evenodd" fill-opacity="1" /><polyline clip-path="url(#clip393)" style="stroke:#000000; stroke-linecap:butt; stroke-linejoin:round; stroke-width:2; stroke-opacity:0.1; fill:none" points="
  1595.54,1358.19 2556.43,1358.19 
  "/>
<polyline clip-path="url(#clip393)" style="stroke:#000000; stroke-linecap:butt; stroke-linejoin:round; stroke-width:2; stroke-opacity:0.1; fill:none" points="
  1595.54,1004.2 2556.43,1004.2 
  "/>
<polyline clip-path="url(#clip393)" style="stroke:#000000; stroke-linecap:butt; stroke-linejoin:round; stroke-width:2; stroke-opacity:0.1; fill:none" points="
  1595.54,650.21 2556.43,650.21 
  "/>
<polyline clip-path="url(#clip393)" style="stroke:#000000; stroke-linecap:butt; stroke-linejoin:round; stroke-width:2; stroke-opacity:0.1; fill:none" points="
  1595.54,296.222 2556.43,296.222 
  "/>
<polyline clip-path="url(#clip390)" style="stroke:#000000; stroke-linecap:butt; stroke-linejoin:round; stroke-width:4; stroke-opacity:1; fill:none" points="
  1595.54,1393.02 1595.54,162.272 
  "/>
<polyline clip-path="url(#clip390)" style="stroke:#000000; stroke-linecap:butt; stroke-linejoin:round; stroke-width:4; stroke-opacity:1; fill:none" points="
  1595.54,1358.19 1614.44,1358.19 
  "/>
<polyline clip-path="url(#clip390)" style="stroke:#000000; stroke-linecap:butt; stroke-linejoin:round; stroke-width:4; stroke-opacity:1; fill:none" points="
  1595.54,1004.2 1614.44,1004.2 
  "/>
<polyline clip-path="url(#clip390)" style="stroke:#000000; stroke-linecap:butt; stroke-linejoin:round; stroke-width:4; stroke-opacity:1; fill:none" points="
  1595.54,650.21 1614.44,650.21 
  "/>
<polyline clip-path="url(#clip390)" style="stroke:#000000; stroke-linecap:butt; stroke-linejoin:round; stroke-width:4; stroke-opacity:1; fill:none" points="
  1595.54,296.222 1614.44,296.222 
  "/>
<path clip-path="url(#clip390)" d="M1523.6 1343.99 Q1519.99 1343.99 1518.16 1347.55 Q1516.36 1351.09 1516.36 1358.22 Q1516.36 1365.33 1518.16 1368.89 Q1519.99 1372.43 1523.6 1372.43 Q1527.23 1372.43 1529.04 1368.89 Q1530.87 1365.33 1530.87 1358.22 Q1530.87 1351.09 1529.04 1347.55 Q1527.23 1343.99 1523.6 1343.99 M1523.6 1340.28 Q1529.41 1340.28 1532.47 1344.89 Q1535.54 1349.47 1535.54 1358.22 Q1535.54 1366.95 1532.47 1371.56 Q1529.41 1376.14 1523.6 1376.14 Q1517.79 1376.14 1514.71 1371.56 Q1511.66 1366.95 1511.66 1358.22 Q1511.66 1349.47 1514.71 1344.89 Q1517.79 1340.28 1523.6 1340.28 Z" fill="#000000" fill-rule="evenodd" fill-opacity="1" /><path clip-path="url(#clip390)" d="M1514.64 986.919 L1533 986.919 L1533 990.854 L1518.92 990.854 L1518.92 999.326 Q1519.94 998.979 1520.96 998.817 Q1521.98 998.632 1523 998.632 Q1528.79 998.632 1532.17 1001.8 Q1535.54 1004.97 1535.54 1010.39 Q1535.54 1015.97 1532.07 1019.07 Q1528.6 1022.15 1522.28 1022.15 Q1520.11 1022.15 1517.84 1021.78 Q1515.59 1021.41 1513.18 1020.67 L1513.18 1015.97 Q1515.27 1017.1 1517.49 1017.66 Q1519.71 1018.21 1522.19 1018.21 Q1526.19 1018.21 1528.53 1016.11 Q1530.87 1014 1530.87 1010.39 Q1530.87 1006.78 1528.53 1004.67 Q1526.19 1002.57 1522.19 1002.57 Q1520.31 1002.57 1518.44 1002.98 Q1516.59 1003.4 1514.64 1004.28 L1514.64 986.919 Z" fill="#000000" fill-rule="evenodd" fill-opacity="1" /><path clip-path="url(#clip390)" d="M1484.25 663.555 L1491.89 663.555 L1491.89 637.189 L1483.58 638.856 L1483.58 634.597 L1491.84 632.93 L1496.52 632.93 L1496.52 663.555 L1504.16 663.555 L1504.16 667.49 L1484.25 667.49 L1484.25 663.555 Z" fill="#000000" fill-rule="evenodd" fill-opacity="1" /><path clip-path="url(#clip390)" d="M1523.6 636.009 Q1519.99 636.009 1518.16 639.574 Q1516.36 643.115 1516.36 650.245 Q1516.36 657.351 1518.16 660.916 Q1519.99 664.458 1523.6 664.458 Q1527.23 664.458 1529.04 660.916 Q1530.87 657.351 1530.87 650.245 Q1530.87 643.115 1529.04 639.574 Q1527.23 636.009 1523.6 636.009 M1523.6 632.305 Q1529.41 632.305 1532.47 636.912 Q1535.54 641.495 1535.54 650.245 Q1535.54 658.972 1532.47 663.578 Q1529.41 668.161 1523.6 668.161 Q1517.79 668.161 1514.71 663.578 Q1511.66 658.972 1511.66 650.245 Q1511.66 641.495 1514.71 636.912 Q1517.79 632.305 1523.6 632.305 Z" fill="#000000" fill-rule="evenodd" fill-opacity="1" /><path clip-path="url(#clip390)" d="M1485.24 309.566 L1492.88 309.566 L1492.88 283.201 L1484.57 284.867 L1484.57 280.608 L1492.84 278.942 L1497.51 278.942 L1497.51 309.566 L1505.15 309.566 L1505.15 313.502 L1485.24 313.502 L1485.24 309.566 Z" fill="#000000" fill-rule="evenodd" fill-opacity="1" /><path clip-path="url(#clip390)" d="M1514.64 278.942 L1533 278.942 L1533 282.877 L1518.92 282.877 L1518.92 291.349 Q1519.94 291.002 1520.96 290.84 Q1521.98 290.654 1523 290.654 Q1528.79 290.654 1532.17 293.826 Q1535.54 296.997 1535.54 302.414 Q1535.54 307.992 1532.07 311.094 Q1528.6 314.173 1522.28 314.173 Q1520.11 314.173 1517.84 313.802 Q1515.59 313.432 1513.18 312.691 L1513.18 307.992 Q1515.27 309.127 1517.49 309.682 Q1519.71 310.238 1522.19 310.238 Q1526.19 310.238 1528.53 308.131 Q1530.87 306.025 1530.87 302.414 Q1530.87 298.803 1528.53 296.696 Q1526.19 294.59 1522.19 294.59 Q1520.31 294.59 1518.44 295.006 Q1516.59 295.423 1514.64 296.303 L1514.64 278.942 Z" fill="#000000" fill-rule="evenodd" fill-opacity="1" /><path clip-path="url(#clip390)" d="M1373.67 876.171 L1373.67 848.353 L1379.02 848.353 L1404.64 870.378 L1404.64 848.353 L1409.32 848.353 L1409.32 876.967 L1403.97 876.967 L1378.35 854.942 L1378.35 876.171 L1373.67 876.171 Z" fill="#000000" fill-rule="evenodd" fill-opacity="1" /><path clip-path="url(#clip390)" d="M1359.86 804.621 Q1367.18 808.886 1374.34 810.955 Q1381.5 813.023 1388.86 813.023 Q1396.21 813.023 1403.43 810.955 Q1410.63 808.854 1417.92 804.621 L1417.92 809.713 Q1410.44 814.488 1403.21 816.875 Q1395.99 819.23 1388.86 819.23 Q1381.76 819.23 1374.56 816.875 Q1367.37 814.519 1359.86 809.713 L1359.86 804.621 Z" fill="#000000" fill-rule="evenodd" fill-opacity="1" /><path clip-path="url(#clip390)" d="M1359.8 793.481 L1359.8 787.592 L1389.05 787.592 L1373.67 770.119 L1373.67 762.639 L1390.35 781.545 L1409.32 761.843 L1409.32 769.482 L1391.91 787.592 L1409.32 787.592 L1409.32 793.481 L1359.8 793.481 Z" fill="#000000" fill-rule="evenodd" fill-opacity="1" /><path clip-path="url(#clip390)" d="M1380.52 727.755 Q1376.57 725.559 1374.69 722.503 Q1372.81 719.448 1372.81 715.31 Q1372.81 709.74 1376.73 706.716 Q1380.61 703.692 1387.81 703.692 L1409.32 703.692 L1409.32 709.581 L1388 709.581 Q1382.87 709.581 1380.39 711.395 Q1377.91 713.209 1377.91 716.933 Q1377.91 721.485 1380.93 724.126 Q1383.95 726.768 1389.17 726.768 L1409.32 726.768 L1409.32 732.656 L1388 732.656 Q1382.84 732.656 1380.39 734.471 Q1377.91 736.285 1377.91 740.072 Q1377.91 744.56 1380.96 747.202 Q1383.99 749.844 1389.17 749.844 L1409.32 749.844 L1409.32 755.732 L1373.67 755.732 L1373.67 749.844 L1379.21 749.844 Q1375.93 747.839 1374.37 745.038 Q1372.81 742.237 1372.81 738.385 Q1372.81 734.502 1374.79 731.797 Q1376.76 729.06 1380.52 727.755 Z" fill="#000000" fill-rule="evenodd" fill-opacity="1" /><path clip-path="url(#clip390)" d="M1359.86 692.934 L1359.86 687.842 Q1367.37 683.067 1374.56 680.712 Q1381.76 678.325 1388.86 678.325 Q1395.99 678.325 1403.21 680.712 Q1410.44 683.067 1417.92 687.842 L1417.92 692.934 Q1410.63 688.701 1403.43 686.632 Q1396.21 684.532 1388.86 684.532 Q1381.5 684.532 1374.34 686.632 Q1367.18 688.701 1359.86 692.934 Z" fill="#000000" fill-rule="evenodd" fill-opacity="1" /><path clip-path="url(#clip390)" d="M1899.21 65.7705 L1899.21 89.8329 L1891.71 89.8329 L1891.71 27.2059 L1899.21 27.2059 L1899.21 34.0924 Q1901.56 30.0415 1905.12 28.0971 Q1908.73 26.1121 1913.71 26.1121 Q1921.97 26.1121 1927.12 32.6746 Q1932.3 39.2371 1932.3 49.9314 Q1932.3 60.6258 1927.12 67.1883 Q1921.97 73.7508 1913.71 73.7508 Q1908.73 73.7508 1905.12 71.8063 Q1901.56 69.8214 1899.21 65.7705 M1924.56 49.9314 Q1924.56 41.7081 1921.16 37.0496 Q1917.8 32.3505 1911.89 32.3505 Q1905.97 32.3505 1902.57 37.0496 Q1899.21 41.7081 1899.21 49.9314 Q1899.21 58.1548 1902.57 62.8538 Q1905.97 67.5124 1911.89 67.5124 Q1917.8 67.5124 1921.16 62.8538 Q1924.56 58.1548 1924.56 49.9314 Z" fill="#000000" fill-rule="evenodd" fill-opacity="1" /><path clip-path="url(#clip390)" d="M1979.13 86.3491 L1979.13 92.1419 L1936.03 92.1419 L1936.03 86.3491 L1979.13 86.3491 Z" fill="#000000" fill-rule="evenodd" fill-opacity="1" /><path clip-path="url(#clip390)" d="M2004.69 17.4837 Q1998.37 17.4837 1995.17 23.7221 Q1992.01 29.92 1992.01 42.3968 Q1992.01 54.833 1995.17 61.0714 Q1998.37 67.2693 2004.69 67.2693 Q2011.05 67.2693 2014.21 61.0714 Q2017.41 54.833 2017.41 42.3968 Q2017.41 29.92 2014.21 23.7221 Q2011.05 17.4837 2004.69 17.4837 M2004.69 11.0023 Q2014.86 11.0023 2020.21 19.0636 Q2025.59 27.0843 2025.59 42.3968 Q2025.59 57.6687 2020.21 65.73 Q2014.86 73.7508 2004.69 73.7508 Q1994.52 73.7508 1989.14 65.73 Q1983.79 57.6687 1983.79 42.3968 Q1983.79 27.0843 1989.14 19.0636 Q1994.52 11.0023 2004.69 11.0023 Z" fill="#000000" fill-rule="evenodd" fill-opacity="1" /><path clip-path="url(#clip390)" d="M2083.2 9.62495 Q2077.77 18.942 2075.14 28.0566 Q2072.5 37.1711 2072.5 46.5287 Q2072.5 55.8863 2075.14 65.0818 Q2077.81 74.2369 2083.2 83.5134 L2076.72 83.5134 Q2070.64 73.9938 2067.6 64.7983 Q2064.6 55.6027 2064.6 46.5287 Q2064.6 37.4952 2067.6 28.3401 Q2070.6 19.1851 2076.72 9.62495 L2083.2 9.62495 Z" fill="#000000" fill-rule="evenodd" fill-opacity="1" /><path clip-path="url(#clip390)" d="M2097.38 9.54393 L2104.87 9.54393 L2104.87 46.7717 L2127.11 27.2059 L2136.63 27.2059 L2112.57 48.4326 L2137.64 72.576 L2127.92 72.576 L2104.87 50.4176 L2104.87 72.576 L2097.38 72.576 L2097.38 9.54393 Z" fill="#000000" fill-rule="evenodd" fill-opacity="1" /><path clip-path="url(#clip390)" d="M2154.21 18.8205 L2154.21 41.5461 L2164.5 41.5461 Q2170.21 41.5461 2173.33 38.5889 Q2176.45 35.6318 2176.45 30.163 Q2176.45 24.7348 2173.33 21.7777 Q2170.21 18.8205 2164.5 18.8205 L2154.21 18.8205 M2146.03 12.096 L2164.5 12.096 Q2174.67 12.096 2179.85 16.714 Q2185.08 21.2916 2185.08 30.163 Q2185.08 39.1155 2179.85 43.6931 Q2174.67 48.2706 2164.5 48.2706 L2154.21 48.2706 L2154.21 72.576 L2146.03 72.576 L2146.03 12.096 Z" fill="#000000" fill-rule="evenodd" fill-opacity="1" /><path clip-path="url(#clip390)" d="M2212.62 49.7694 Q2203.59 49.7694 2200.11 51.8354 Q2196.62 53.9013 2196.62 58.8839 Q2196.62 62.8538 2199.22 65.2034 Q2201.85 67.5124 2206.35 67.5124 Q2212.54 67.5124 2216.27 63.1374 Q2220.04 58.7219 2220.04 51.4303 L2220.04 49.7694 L2212.62 49.7694 M2227.49 46.6907 L2227.49 72.576 L2220.04 72.576 L2220.04 65.6895 Q2217.49 69.8214 2213.68 71.8063 Q2209.87 73.7508 2204.36 73.7508 Q2197.39 73.7508 2193.26 69.8619 Q2189.17 65.9325 2189.17 59.3701 Q2189.17 51.7138 2194.27 47.825 Q2199.42 43.9361 2209.59 43.9361 L2220.04 43.9361 L2220.04 43.2069 Q2220.04 38.0623 2216.64 35.2672 Q2213.27 32.4315 2207.16 32.4315 Q2203.27 32.4315 2199.58 33.3632 Q2195.89 34.295 2192.49 36.1584 L2192.49 29.2718 Q2196.58 27.692 2200.43 26.9223 Q2204.28 26.1121 2207.93 26.1121 Q2217.77 26.1121 2222.63 31.2163 Q2227.49 36.3204 2227.49 46.6907 Z" fill="#000000" fill-rule="evenodd" fill-opacity="1" /><path clip-path="url(#clip390)" d="M2241.67 9.62495 L2248.15 9.62495 Q2254.23 19.1851 2257.23 28.3401 Q2260.26 37.4952 2260.26 46.5287 Q2260.26 55.6027 2257.23 64.7983 Q2254.23 73.9938 2248.15 83.5134 L2241.67 83.5134 Q2247.06 74.2369 2249.69 65.0818 Q2252.36 55.8863 2252.36 46.5287 Q2252.36 37.1711 2249.69 28.0566 Q2247.06 18.942 2241.67 9.62495 Z" fill="#000000" fill-rule="evenodd" fill-opacity="1" /><polyline clip-path="url(#clip393)" style="stroke:#009af9; stroke-linecap:butt; stroke-linejoin:round; stroke-width:4; stroke-opacity:1; fill:none" points="
  2517.68,1351.11 2494.9,1336.95 2472.56,1322.79 2450.66,1308.63 2429.18,1294.47 2408.12,1280.31 2387.47,1266.15 2367.23,1251.99 2347.39,1237.83 2327.94,1223.67 
  2308.87,1209.51 2290.19,1195.35 2271.88,1181.19 2253.94,1167.03 2236.36,1152.87 2219.13,1138.71 2202.26,1124.55 2185.72,1110.4 2169.53,1096.24 2153.66,1082.08 
  2138.13,1067.92 2122.91,1053.76 2108,1039.6 2093.41,1025.44 2079.12,1011.28 2065.13,997.119 2051.43,982.959 2038.01,968.8 2024.89,954.64 2012.04,940.481 
  1999.46,926.321 1987.15,912.162 1975.11,898.002 1963.33,883.843 1951.8,869.683 1940.53,855.523 1929.5,841.364 1918.71,827.204 1908.16,813.045 1897.84,798.885 
  1887.75,784.726 1877.88,770.566 1868.24,756.407 1858.81,742.247 1849.59,728.088 1840.58,713.928 1831.77,699.768 1823.16,685.609 1814.75,671.449 1806.53,657.29 
  1798.49,643.13 1790.65,628.971 1782.98,614.811 1775.49,600.652 1768.17,586.492 1761.02,572.333 1754.04,558.173 1747.22,544.014 1740.56,529.854 1734.06,515.694 
  1727.71,501.535 1721.51,487.375 1715.46,473.216 1709.56,459.056 1703.79,444.897 1698.16,430.737 1692.67,416.578 1687.31,402.418 1682.08,388.259 1676.98,374.099 
  1672,359.939 1667.13,345.78 1662.39,331.62 1657.76,317.461 1653.24,303.301 1648.83,289.142 1644.54,274.982 1640.34,260.823 1636.25,246.663 1632.27,232.504 
  1628.38,218.344 1624.6,204.184 
  "/>
<polyline clip-path="url(#clip393)" style="stroke:#e26f46; stroke-linecap:butt; stroke-linejoin:round; stroke-width:4; stroke-opacity:1; fill:none" points="
  2529.24,1358.19 2506.23,1344.03 2483.68,1329.87 2461.56,1315.71 2439.86,1301.55 2418.6,1287.39 2397.74,1273.23 2377.3,1259.07 2357.26,1244.91 2337.61,1230.75 
  2318.36,1216.59 2299.49,1202.43 2280.99,1188.27 2262.87,1174.11 2245.11,1159.95 2227.7,1145.79 2210.65,1131.63 2193.95,1117.48 2177.58,1103.32 2161.56,1089.16 
  2145.86,1075 2130.48,1060.84 2115.42,1046.68 2100.67,1032.52 2086.23,1018.36 2072.09,1004.2 2058.24,990.039 2044.69,975.88 2031.42,961.72 2018.43,947.56 
  2005.71,933.401 1993.27,919.241 1981.1,905.082 1969.19,890.922 1957.53,876.763 1946.13,862.603 1934.98,848.444 1924.07,834.284 1913.4,820.125 1902.97,805.965 
  1892.77,791.806 1882.79,777.646 1873.03,763.486 1863.5,749.327 1854.17,735.167 1845.06,721.008 1836.15,706.848 1827.44,692.689 1818.93,678.529 1810.61,664.37 
  1802.49,650.21 1794.55,636.051 1786.79,621.891 1779.21,607.731 1771.81,593.572 1764.57,579.412 1757.51,565.253 1750.61,551.093 1743.87,536.934 1737.29,522.774 
  1730.87,508.615 1724.59,494.455 1718.47,480.296 1712.49,466.136 1706.66,451.976 1700.96,437.817 1695.4,423.657 1689.97,409.498 1684.68,395.338 1679.51,381.179 
  1674.47,367.019 1669.55,352.86 1664.75,338.7 1660.06,324.541 1655.49,310.381 1651.02,296.222 1646.67,282.062 1642.43,267.902 1638.29,253.743 1634.25,239.583 
  1630.31,225.424 1626.48,211.264 1622.74,197.105 
  "/>
<path clip-path="url(#clip390)" d="
M2245.35 358.817 L2524.4 358.817 L2524.4 203.297 L2245.35 203.297  Z
  " fill="#ffffff" fill-rule="evenodd" fill-opacity="1"/>
<polyline clip-path="url(#clip390)" style="stroke:#000000; stroke-linecap:butt; stroke-linejoin:round; stroke-width:4; stroke-opacity:1; fill:none" points="
  2245.35,358.817 2524.4,358.817 2524.4,203.297 2245.35,203.297 2245.35,358.817 
  "/>
<polyline clip-path="url(#clip390)" style="stroke:#009af9; stroke-linecap:butt; stroke-linejoin:round; stroke-width:4; stroke-opacity:1; fill:none" points="
  2256.02,255.137 2320.08,255.137 
  "/>
<path clip-path="url(#clip390)" d="M2351.27 247.487 L2351.27 251.468 Q2349.46 250.473 2347.63 249.987 Q2345.83 249.477 2343.97 249.477 Q2339.83 249.477 2337.54 252.116 Q2335.25 254.732 2335.25 259.477 Q2335.25 264.223 2337.54 266.862 Q2339.83 269.477 2343.97 269.477 Q2345.83 269.477 2347.63 268.991 Q2349.46 268.482 2351.27 267.487 L2351.27 271.422 Q2349.48 272.255 2347.56 272.672 Q2345.66 273.088 2343.51 273.088 Q2337.66 273.088 2334.21 269.408 Q2330.76 265.727 2330.76 259.477 Q2330.76 253.135 2334.23 249.501 Q2337.72 245.866 2343.79 245.866 Q2345.76 245.866 2347.63 246.283 Q2349.51 246.677 2351.27 247.487 Z" fill="#000000" fill-rule="evenodd" fill-opacity="1" /><path clip-path="url(#clip390)" d="M2380.85 258.389 L2380.85 260.473 L2361.27 260.473 Q2361.54 264.871 2363.91 267.186 Q2366.29 269.477 2370.53 269.477 Q2372.98 269.477 2375.27 268.876 Q2377.59 268.274 2379.85 267.07 L2379.85 271.098 Q2377.56 272.07 2375.16 272.579 Q2372.75 273.088 2370.27 273.088 Q2364.07 273.088 2360.43 269.477 Q2356.82 265.866 2356.82 259.709 Q2356.82 253.343 2360.25 249.616 Q2363.7 245.866 2369.53 245.866 Q2374.76 245.866 2377.79 249.246 Q2380.85 252.602 2380.85 258.389 M2376.59 257.139 Q2376.54 253.644 2374.62 251.561 Q2372.72 249.477 2369.58 249.477 Q2366.01 249.477 2363.86 251.491 Q2361.73 253.505 2361.41 257.163 L2376.59 257.139 Z" fill="#000000" fill-rule="evenodd" fill-opacity="1" /><path clip-path="url(#clip390)" d="M2409.39 256.769 L2409.39 272.417 L2405.13 272.417 L2405.13 256.908 Q2405.13 253.227 2403.7 251.399 Q2402.26 249.57 2399.39 249.57 Q2395.94 249.57 2393.95 251.769 Q2391.96 253.968 2391.96 257.764 L2391.96 272.417 L2387.68 272.417 L2387.68 246.491 L2391.96 246.491 L2391.96 250.519 Q2393.49 248.181 2395.55 247.024 Q2397.63 245.866 2400.34 245.866 Q2404.81 245.866 2407.1 248.644 Q2409.39 251.399 2409.39 256.769 Z" fill="#000000" fill-rule="evenodd" fill-opacity="1" /><path clip-path="url(#clip390)" d="M2422.1 239.13 L2422.1 246.491 L2430.87 246.491 L2430.87 249.802 L2422.1 249.802 L2422.1 263.876 Q2422.1 267.047 2422.96 267.95 Q2423.84 268.852 2426.5 268.852 L2430.87 268.852 L2430.87 272.417 L2426.5 272.417 Q2421.57 272.417 2419.69 270.588 Q2417.82 268.737 2417.82 263.876 L2417.82 249.802 L2414.69 249.802 L2414.69 246.491 L2417.82 246.491 L2417.82 239.13 L2422.1 239.13 Z" fill="#000000" fill-rule="evenodd" fill-opacity="1" /><path clip-path="url(#clip390)" d="M2458.65 258.389 L2458.65 260.473 L2439.07 260.473 Q2439.34 264.871 2441.71 267.186 Q2444.09 269.477 2448.33 269.477 Q2450.78 269.477 2453.07 268.876 Q2455.39 268.274 2457.65 267.07 L2457.65 271.098 Q2455.36 272.07 2452.96 272.579 Q2450.55 273.088 2448.07 273.088 Q2441.87 273.088 2438.23 269.477 Q2434.62 265.866 2434.62 259.709 Q2434.62 253.343 2438.05 249.616 Q2441.5 245.866 2447.33 245.866 Q2452.56 245.866 2455.59 249.246 Q2458.65 252.602 2458.65 258.389 M2454.39 257.139 Q2454.34 253.644 2452.42 251.561 Q2450.53 249.477 2447.38 249.477 Q2443.81 249.477 2441.66 251.491 Q2439.53 253.505 2439.21 257.163 L2454.39 257.139 Z" fill="#000000" fill-rule="evenodd" fill-opacity="1" /><path clip-path="url(#clip390)" d="M2480.66 250.473 Q2479.95 250.056 2479.09 249.871 Q2478.26 249.663 2477.24 249.663 Q2473.63 249.663 2471.68 252.024 Q2469.76 254.362 2469.76 258.76 L2469.76 272.417 L2465.48 272.417 L2465.48 246.491 L2469.76 246.491 L2469.76 250.519 Q2471.1 248.158 2473.26 247.024 Q2475.41 245.866 2478.49 245.866 Q2478.93 245.866 2479.46 245.936 Q2479.99 245.982 2480.64 246.098 L2480.66 250.473 Z" fill="#000000" fill-rule="evenodd" fill-opacity="1" /><path clip-path="url(#clip390)" d="M2501.66 247.255 L2501.66 251.283 Q2499.85 250.357 2497.91 249.894 Q2495.96 249.431 2493.88 249.431 Q2490.71 249.431 2489.11 250.403 Q2487.54 251.376 2487.54 253.32 Q2487.54 254.802 2488.67 255.658 Q2489.81 256.491 2493.23 257.255 L2494.69 257.579 Q2499.23 258.552 2501.13 260.334 Q2503.05 262.093 2503.05 265.264 Q2503.05 268.876 2500.18 270.982 Q2497.33 273.088 2492.33 273.088 Q2490.25 273.088 2487.98 272.672 Q2485.73 272.278 2483.23 271.468 L2483.23 267.07 Q2485.59 268.297 2487.89 268.922 Q2490.18 269.524 2492.42 269.524 Q2495.43 269.524 2497.05 268.505 Q2498.67 267.463 2498.67 265.589 Q2498.67 263.852 2497.49 262.926 Q2496.33 262.001 2492.38 261.144 L2490.9 260.797 Q2486.94 259.964 2485.18 258.251 Q2483.42 256.514 2483.42 253.505 Q2483.42 249.848 2486.01 247.857 Q2488.6 245.866 2493.37 245.866 Q2495.73 245.866 2497.82 246.214 Q2499.9 246.561 2501.66 247.255 Z" fill="#000000" fill-rule="evenodd" fill-opacity="1" /><polyline clip-path="url(#clip390)" style="stroke:#e26f46; stroke-linecap:butt; stroke-linejoin:round; stroke-width:4; stroke-opacity:1; fill:none" points="
  2256.02,306.977 2320.08,306.977 
  "/>
<path clip-path="url(#clip390)" d="M2347.26 288.239 L2347.26 291.78 L2343.19 291.78 Q2340.9 291.78 2339.99 292.706 Q2339.11 293.632 2339.11 296.04 L2339.11 298.331 L2346.13 298.331 L2346.13 301.642 L2339.11 301.642 L2339.11 324.257 L2334.83 324.257 L2334.83 301.642 L2330.76 301.642 L2330.76 298.331 L2334.83 298.331 L2334.83 296.526 Q2334.83 292.197 2336.85 290.23 Q2338.86 288.239 2343.23 288.239 L2347.26 288.239 Z" fill="#000000" fill-rule="evenodd" fill-opacity="1" /><path clip-path="url(#clip390)" d="M2362.61 311.225 Q2357.45 311.225 2355.46 312.405 Q2353.47 313.586 2353.47 316.433 Q2353.47 318.702 2354.95 320.044 Q2356.45 321.364 2359.02 321.364 Q2362.56 321.364 2364.69 318.864 Q2366.84 316.341 2366.84 312.174 L2366.84 311.225 L2362.61 311.225 M2371.1 309.466 L2371.1 324.257 L2366.84 324.257 L2366.84 320.322 Q2365.39 322.683 2363.21 323.817 Q2361.03 324.928 2357.89 324.928 Q2353.91 324.928 2351.54 322.706 Q2349.21 320.461 2349.21 316.711 Q2349.21 312.336 2352.12 310.114 Q2355.06 307.892 2360.87 307.892 L2366.84 307.892 L2366.84 307.475 Q2366.84 304.535 2364.9 302.938 Q2362.98 301.317 2359.48 301.317 Q2357.26 301.317 2355.16 301.85 Q2353.05 302.382 2351.1 303.447 L2351.1 299.512 Q2353.44 298.609 2355.64 298.169 Q2357.84 297.706 2359.92 297.706 Q2365.55 297.706 2368.33 300.623 Q2371.1 303.54 2371.1 309.466 Z" fill="#000000" fill-rule="evenodd" fill-opacity="1" /><path clip-path="url(#clip390)" d="M2398.53 299.327 L2398.53 303.308 Q2396.73 302.313 2394.9 301.827 Q2393.09 301.317 2391.24 301.317 Q2387.1 301.317 2384.81 303.956 Q2382.52 306.572 2382.52 311.317 Q2382.52 316.063 2384.81 318.702 Q2387.1 321.317 2391.24 321.317 Q2393.09 321.317 2394.9 320.831 Q2396.73 320.322 2398.53 319.327 L2398.53 323.262 Q2396.75 324.095 2394.83 324.512 Q2392.93 324.928 2390.78 324.928 Q2384.92 324.928 2381.47 321.248 Q2378.03 317.567 2378.03 311.317 Q2378.03 304.975 2381.5 301.341 Q2384.99 297.706 2391.06 297.706 Q2393.03 297.706 2394.9 298.123 Q2396.78 298.517 2398.53 299.327 Z" fill="#000000" fill-rule="evenodd" fill-opacity="1" /><path clip-path="url(#clip390)" d="M2428.12 310.229 L2428.12 312.313 L2408.53 312.313 Q2408.81 316.711 2411.17 319.026 Q2413.56 321.317 2417.79 321.317 Q2420.25 321.317 2422.54 320.716 Q2424.85 320.114 2427.12 318.91 L2427.12 322.938 Q2424.83 323.91 2422.42 324.419 Q2420.02 324.928 2417.54 324.928 Q2411.34 324.928 2407.7 321.317 Q2404.09 317.706 2404.09 311.549 Q2404.09 305.183 2407.52 301.456 Q2410.97 297.706 2416.8 297.706 Q2422.03 297.706 2425.06 301.086 Q2428.12 304.442 2428.12 310.229 M2423.86 308.979 Q2423.81 305.484 2421.89 303.401 Q2419.99 301.317 2416.84 301.317 Q2413.28 301.317 2411.13 303.331 Q2409 305.345 2408.67 309.003 L2423.86 308.979 Z" fill="#000000" fill-rule="evenodd" fill-opacity="1" /><path clip-path="url(#clip390)" d="M2451.64 299.095 L2451.64 303.123 Q2449.83 302.197 2447.89 301.734 Q2445.94 301.271 2443.86 301.271 Q2440.69 301.271 2439.09 302.243 Q2437.52 303.216 2437.52 305.16 Q2437.52 306.642 2438.65 307.498 Q2439.78 308.331 2443.21 309.095 L2444.67 309.419 Q2449.21 310.392 2451.1 312.174 Q2453.03 313.933 2453.03 317.104 Q2453.03 320.716 2450.15 322.822 Q2447.31 324.928 2442.31 324.928 Q2440.22 324.928 2437.96 324.512 Q2435.71 324.118 2433.21 323.308 L2433.21 318.91 Q2435.57 320.137 2437.86 320.762 Q2440.15 321.364 2442.4 321.364 Q2445.41 321.364 2447.03 320.345 Q2448.65 319.303 2448.65 317.429 Q2448.65 315.692 2447.47 314.766 Q2446.31 313.841 2442.35 312.984 L2440.87 312.637 Q2436.91 311.804 2435.15 310.091 Q2433.4 308.354 2433.4 305.345 Q2433.4 301.688 2435.99 299.697 Q2438.58 297.706 2443.35 297.706 Q2445.71 297.706 2447.79 298.054 Q2449.88 298.401 2451.64 299.095 Z" fill="#000000" fill-rule="evenodd" fill-opacity="1" /><path clip-path="url(#clip390)" d="
M2928.88 1393.02 L3889.76 1393.02 L3889.76 162.272 L2928.88 162.272  Z
  " fill="#ffffff" fill-rule="evenodd" fill-opacity="1"/>
<defs>
  <clipPath id="clip394">
    <rect x="2928" y="162" width="962" height="1232"/>
  </clipPath>
</defs>
<polyline clip-path="url(#clip394)" style="stroke:#000000; stroke-linecap:butt; stroke-linejoin:round; stroke-width:2; stroke-opacity:0.1; fill:none" points="
  2981.86,1393.02 2981.86,162.272 
  "/>
<polyline clip-path="url(#clip394)" style="stroke:#000000; stroke-linecap:butt; stroke-linejoin:round; stroke-width:2; stroke-opacity:0.1; fill:none" points="
  3178.89,1393.02 3178.89,162.272 
  "/>
<polyline clip-path="url(#clip394)" style="stroke:#000000; stroke-linecap:butt; stroke-linejoin:round; stroke-width:2; stroke-opacity:0.1; fill:none" points="
  3375.91,1393.02 3375.91,162.272 
  "/>
<polyline clip-path="url(#clip394)" style="stroke:#000000; stroke-linecap:butt; stroke-linejoin:round; stroke-width:2; stroke-opacity:0.1; fill:none" points="
  3572.94,1393.02 3572.94,162.272 
  "/>
<polyline clip-path="url(#clip394)" style="stroke:#000000; stroke-linecap:butt; stroke-linejoin:round; stroke-width:2; stroke-opacity:0.1; fill:none" points="
  3769.97,1393.02 3769.97,162.272 
  "/>
<polyline clip-path="url(#clip390)" style="stroke:#000000; stroke-linecap:butt; stroke-linejoin:round; stroke-width:4; stroke-opacity:1; fill:none" points="
  2928.88,1393.02 3889.76,1393.02 
  "/>
<polyline clip-path="url(#clip390)" style="stroke:#000000; stroke-linecap:butt; stroke-linejoin:round; stroke-width:4; stroke-opacity:1; fill:none" points="
  2981.86,1393.02 2981.86,1374.12 
  "/>
<polyline clip-path="url(#clip390)" style="stroke:#000000; stroke-linecap:butt; stroke-linejoin:round; stroke-width:4; stroke-opacity:1; fill:none" points="
  3178.89,1393.02 3178.89,1374.12 
  "/>
<polyline clip-path="url(#clip390)" style="stroke:#000000; stroke-linecap:butt; stroke-linejoin:round; stroke-width:4; stroke-opacity:1; fill:none" points="
  3375.91,1393.02 3375.91,1374.12 
  "/>
<polyline clip-path="url(#clip390)" style="stroke:#000000; stroke-linecap:butt; stroke-linejoin:round; stroke-width:4; stroke-opacity:1; fill:none" points="
  3572.94,1393.02 3572.94,1374.12 
  "/>
<polyline clip-path="url(#clip390)" style="stroke:#000000; stroke-linecap:butt; stroke-linejoin:round; stroke-width:4; stroke-opacity:1; fill:none" points="
  3769.97,1393.02 3769.97,1374.12 
  "/>
<path clip-path="url(#clip390)" d="M2972.24 1464.28 L2979.88 1464.28 L2979.88 1437.92 L2971.57 1439.59 L2971.57 1435.33 L2979.83 1433.66 L2984.51 1433.66 L2984.51 1464.28 L2992.15 1464.28 L2992.15 1468.22 L2972.24 1468.22 L2972.24 1464.28 Z" fill="#000000" fill-rule="evenodd" fill-opacity="1" /><path clip-path="url(#clip390)" d="M3173.54 1464.28 L3189.86 1464.28 L3189.86 1468.22 L3167.91 1468.22 L3167.91 1464.28 Q3170.58 1461.53 3175.16 1456.9 Q3179.77 1452.25 3180.95 1450.9 Q3183.19 1448.38 3184.07 1446.65 Q3184.97 1444.89 3184.97 1443.2 Q3184.97 1440.44 3183.03 1438.71 Q3181.11 1436.97 3178.01 1436.97 Q3175.81 1436.97 3173.35 1437.73 Q3170.92 1438.5 3168.15 1440.05 L3168.15 1435.33 Q3170.97 1434.19 3173.42 1433.61 Q3175.88 1433.03 3177.91 1433.03 Q3183.28 1433.03 3186.48 1435.72 Q3189.67 1438.41 3189.67 1442.9 Q3189.67 1445.03 3188.86 1446.95 Q3188.08 1448.84 3185.97 1451.44 Q3185.39 1452.11 3182.29 1455.33 Q3179.19 1458.52 3173.54 1464.28 Z" fill="#000000" fill-rule="evenodd" fill-opacity="1" /><path clip-path="url(#clip390)" d="M3380.16 1449.59 Q3383.52 1450.3 3385.39 1452.57 Q3387.29 1454.84 3387.29 1458.17 Q3387.29 1463.29 3383.77 1466.09 Q3380.25 1468.89 3373.77 1468.89 Q3371.6 1468.89 3369.28 1468.45 Q3366.99 1468.03 3364.54 1467.18 L3364.54 1462.66 Q3366.48 1463.8 3368.8 1464.38 Q3371.11 1464.96 3373.63 1464.96 Q3378.03 1464.96 3380.32 1463.22 Q3382.64 1461.48 3382.64 1458.17 Q3382.64 1455.12 3380.49 1453.4 Q3378.36 1451.67 3374.54 1451.67 L3370.51 1451.67 L3370.51 1447.83 L3374.72 1447.83 Q3378.17 1447.83 3380 1446.46 Q3381.83 1445.07 3381.83 1442.48 Q3381.83 1439.82 3379.93 1438.41 Q3378.06 1436.97 3374.54 1436.97 Q3372.62 1436.97 3370.42 1437.39 Q3368.22 1437.8 3365.58 1438.68 L3365.58 1434.52 Q3368.24 1433.78 3370.56 1433.41 Q3372.89 1433.03 3374.95 1433.03 Q3380.28 1433.03 3383.38 1435.47 Q3386.48 1437.87 3386.48 1441.99 Q3386.48 1444.86 3384.84 1446.85 Q3383.19 1448.82 3380.16 1449.59 Z" fill="#000000" fill-rule="evenodd" fill-opacity="1" /><path clip-path="url(#clip390)" d="M3575.95 1437.73 L3564.15 1456.18 L3575.95 1456.18 L3575.95 1437.73 M3574.72 1433.66 L3580.6 1433.66 L3580.6 1456.18 L3585.53 1456.18 L3585.53 1460.07 L3580.6 1460.07 L3580.6 1468.22 L3575.95 1468.22 L3575.95 1460.07 L3560.35 1460.07 L3560.35 1455.56 L3574.72 1433.66 Z" fill="#000000" fill-rule="evenodd" fill-opacity="1" /><path clip-path="url(#clip390)" d="M3760.25 1433.66 L3778.6 1433.66 L3778.6 1437.59 L3764.53 1437.59 L3764.53 1446.07 Q3765.55 1445.72 3766.57 1445.56 Q3767.59 1445.37 3768.6 1445.37 Q3774.39 1445.37 3777.77 1448.54 Q3781.15 1451.72 3781.15 1457.13 Q3781.15 1462.71 3777.68 1465.81 Q3774.21 1468.89 3767.89 1468.89 Q3765.71 1468.89 3763.44 1468.52 Q3761.2 1468.15 3758.79 1467.41 L3758.79 1462.71 Q3760.87 1463.84 3763.1 1464.4 Q3765.32 1464.96 3767.79 1464.96 Q3771.8 1464.96 3774.14 1462.85 Q3776.47 1460.74 3776.47 1457.13 Q3776.47 1453.52 3774.14 1451.41 Q3771.8 1449.31 3767.79 1449.31 Q3765.92 1449.31 3764.04 1449.72 Q3762.19 1450.14 3760.25 1451.02 L3760.25 1433.66 Z" fill="#000000" fill-rule="evenodd" fill-opacity="1" /><path clip-path="url(#clip390)" d="M3378.1 1545.3 L3376.7 1537.95 Q3375.26 1530.41 3369.6 1530.41 Q3365.33 1530.41 3363.39 1533.91 Q3360.94 1538.3 3360.94 1544.09 Q3360.94 1551.09 3363.33 1554.44 Q3365.75 1557.84 3369.6 1557.84 Q3373.86 1557.84 3376.16 1551.06 L3378.1 1545.3 M3381.38 1535.56 L3384.53 1526.24 L3389.75 1526.24 L3383.22 1545.56 L3384.49 1552.53 Q3384.78 1554.09 3385.9 1555.39 Q3387.2 1556.92 3388.22 1556.92 L3391.02 1556.92 L3391.02 1561.88 L3387.52 1561.88 Q3384.53 1561.88 3381.85 1559.21 Q3380.55 1557.87 3380.01 1555.07 Q3378.54 1558.61 3375.55 1561.37 Q3374.15 1562.68 3369.6 1562.68 Q3362.12 1562.68 3358.49 1557.84 Q3354.77 1552.84 3354.77 1544.09 Q3354.77 1534.73 3358.81 1530.34 Q3363.3 1525.44 3369.6 1525.44 Q3379.5 1525.44 3381.38 1535.56 Z" fill="#000000" fill-rule="evenodd" fill-opacity="1" /><path clip-path="url(#clip390)" d="M3427.37 1572.71 L3427.37 1577.26 L3393.5 1577.26 L3393.5 1572.71 L3427.37 1572.71 Z" fill="#000000" fill-rule="evenodd" fill-opacity="1" /><path clip-path="url(#clip390)" d="M3447.45 1518.6 Q3442.49 1518.6 3439.97 1523.5 Q3437.49 1528.37 3437.49 1538.17 Q3437.49 1547.94 3439.97 1552.84 Q3442.49 1557.71 3447.45 1557.71 Q3452.45 1557.71 3454.93 1552.84 Q3457.45 1547.94 3457.45 1538.17 Q3457.45 1528.37 3454.93 1523.5 Q3452.45 1518.6 3447.45 1518.6 M3447.45 1513.5 Q3455.44 1513.5 3459.64 1519.84 Q3463.88 1526.14 3463.88 1538.17 Q3463.88 1550.17 3459.64 1556.5 Q3455.44 1562.81 3447.45 1562.81 Q3439.46 1562.81 3435.23 1556.5 Q3431.03 1550.17 3431.03 1538.17 Q3431.03 1526.14 3435.23 1519.84 Q3439.46 1513.5 3447.45 1513.5 Z" fill="#000000" fill-rule="evenodd" fill-opacity="1" /><polyline clip-path="url(#clip394)" style="stroke:#000000; stroke-linecap:butt; stroke-linejoin:round; stroke-width:2; stroke-opacity:0.1; fill:none" points="
  2928.88,1358.19 3889.76,1358.19 
  "/>
<polyline clip-path="url(#clip394)" style="stroke:#000000; stroke-linecap:butt; stroke-linejoin:round; stroke-width:2; stroke-opacity:0.1; fill:none" points="
  2928.88,1004.2 3889.76,1004.2 
  "/>
<polyline clip-path="url(#clip394)" style="stroke:#000000; stroke-linecap:butt; stroke-linejoin:round; stroke-width:2; stroke-opacity:0.1; fill:none" points="
  2928.88,650.21 3889.76,650.21 
  "/>
<polyline clip-path="url(#clip394)" style="stroke:#000000; stroke-linecap:butt; stroke-linejoin:round; stroke-width:2; stroke-opacity:0.1; fill:none" points="
  2928.88,296.222 3889.76,296.222 
  "/>
<polyline clip-path="url(#clip390)" style="stroke:#000000; stroke-linecap:butt; stroke-linejoin:round; stroke-width:4; stroke-opacity:1; fill:none" points="
  2928.88,1393.02 2928.88,162.272 
  "/>
<polyline clip-path="url(#clip390)" style="stroke:#000000; stroke-linecap:butt; stroke-linejoin:round; stroke-width:4; stroke-opacity:1; fill:none" points="
  2928.88,1358.19 2947.78,1358.19 
  "/>
<polyline clip-path="url(#clip390)" style="stroke:#000000; stroke-linecap:butt; stroke-linejoin:round; stroke-width:4; stroke-opacity:1; fill:none" points="
  2928.88,1004.2 2947.78,1004.2 
  "/>
<polyline clip-path="url(#clip390)" style="stroke:#000000; stroke-linecap:butt; stroke-linejoin:round; stroke-width:4; stroke-opacity:1; fill:none" points="
  2928.88,650.21 2947.78,650.21 
  "/>
<polyline clip-path="url(#clip390)" style="stroke:#000000; stroke-linecap:butt; stroke-linejoin:round; stroke-width:4; stroke-opacity:1; fill:none" points="
  2928.88,296.222 2947.78,296.222 
  "/>
<path clip-path="url(#clip390)" d="M2856.93 1343.99 Q2853.32 1343.99 2851.49 1347.55 Q2849.69 1351.09 2849.69 1358.22 Q2849.69 1365.33 2851.49 1368.89 Q2853.32 1372.43 2856.93 1372.43 Q2860.57 1372.43 2862.37 1368.89 Q2864.2 1365.33 2864.2 1358.22 Q2864.2 1351.09 2862.37 1347.55 Q2860.57 1343.99 2856.93 1343.99 M2856.93 1340.28 Q2862.74 1340.28 2865.8 1344.89 Q2868.88 1349.47 2868.88 1358.22 Q2868.88 1366.95 2865.8 1371.56 Q2862.74 1376.14 2856.93 1376.14 Q2851.12 1376.14 2848.05 1371.56 Q2844.99 1366.95 2844.99 1358.22 Q2844.99 1349.47 2848.05 1344.89 Q2851.12 1340.28 2856.93 1340.28 Z" fill="#000000" fill-rule="evenodd" fill-opacity="1" /><path clip-path="url(#clip390)" d="M2847.98 986.919 L2866.33 986.919 L2866.33 990.854 L2852.26 990.854 L2852.26 999.326 Q2853.28 998.979 2854.3 998.817 Q2855.31 998.632 2856.33 998.632 Q2862.12 998.632 2865.5 1001.8 Q2868.88 1004.97 2868.88 1010.39 Q2868.88 1015.97 2865.41 1019.07 Q2861.93 1022.15 2855.61 1022.15 Q2853.44 1022.15 2851.17 1021.78 Q2848.92 1021.41 2846.52 1020.67 L2846.52 1015.97 Q2848.6 1017.1 2850.82 1017.66 Q2853.05 1018.21 2855.52 1018.21 Q2859.53 1018.21 2861.86 1016.11 Q2864.2 1014 2864.2 1010.39 Q2864.2 1006.78 2861.86 1004.67 Q2859.53 1002.57 2855.52 1002.57 Q2853.65 1002.57 2851.77 1002.98 Q2849.92 1003.4 2847.98 1004.28 L2847.98 986.919 Z" fill="#000000" fill-rule="evenodd" fill-opacity="1" /><path clip-path="url(#clip390)" d="M2817.58 663.555 L2825.22 663.555 L2825.22 637.189 L2816.91 638.856 L2816.91 634.597 L2825.17 632.93 L2829.85 632.93 L2829.85 663.555 L2837.49 663.555 L2837.49 667.49 L2817.58 667.49 L2817.58 663.555 Z" fill="#000000" fill-rule="evenodd" fill-opacity="1" /><path clip-path="url(#clip390)" d="M2856.93 636.009 Q2853.32 636.009 2851.49 639.574 Q2849.69 643.115 2849.69 650.245 Q2849.69 657.351 2851.49 660.916 Q2853.32 664.458 2856.93 664.458 Q2860.57 664.458 2862.37 660.916 Q2864.2 657.351 2864.2 650.245 Q2864.2 643.115 2862.37 639.574 Q2860.57 636.009 2856.93 636.009 M2856.93 632.305 Q2862.74 632.305 2865.8 636.912 Q2868.88 641.495 2868.88 650.245 Q2868.88 658.972 2865.8 663.578 Q2862.74 668.161 2856.93 668.161 Q2851.12 668.161 2848.05 663.578 Q2844.99 658.972 2844.99 650.245 Q2844.99 641.495 2848.05 636.912 Q2851.12 632.305 2856.93 632.305 Z" fill="#000000" fill-rule="evenodd" fill-opacity="1" /><path clip-path="url(#clip390)" d="M2818.58 309.566 L2826.22 309.566 L2826.22 283.201 L2817.91 284.867 L2817.91 280.608 L2826.17 278.942 L2830.85 278.942 L2830.85 309.566 L2838.48 309.566 L2838.48 313.502 L2818.58 313.502 L2818.58 309.566 Z" fill="#000000" fill-rule="evenodd" fill-opacity="1" /><path clip-path="url(#clip390)" d="M2847.98 278.942 L2866.33 278.942 L2866.33 282.877 L2852.26 282.877 L2852.26 291.349 Q2853.28 291.002 2854.3 290.84 Q2855.31 290.654 2856.33 290.654 Q2862.12 290.654 2865.5 293.826 Q2868.88 296.997 2868.88 302.414 Q2868.88 307.992 2865.41 311.094 Q2861.93 314.173 2855.61 314.173 Q2853.44 314.173 2851.17 313.802 Q2848.92 313.432 2846.52 312.691 L2846.52 307.992 Q2848.6 309.127 2850.82 309.682 Q2853.05 310.238 2855.52 310.238 Q2859.53 310.238 2861.86 308.131 Q2864.2 306.025 2864.2 302.414 Q2864.2 298.803 2861.86 296.696 Q2859.53 294.59 2855.52 294.59 Q2853.65 294.59 2851.77 295.006 Q2849.92 295.423 2847.98 296.303 L2847.98 278.942 Z" fill="#000000" fill-rule="evenodd" fill-opacity="1" /><path clip-path="url(#clip390)" d="M2707.01 876.171 L2707.01 848.353 L2712.35 848.353 L2737.98 870.378 L2737.98 848.353 L2742.65 848.353 L2742.65 876.967 L2737.31 876.967 L2711.69 854.942 L2711.69 876.171 L2707.01 876.171 Z" fill="#000000" fill-rule="evenodd" fill-opacity="1" /><path clip-path="url(#clip390)" d="M2693.19 804.621 Q2700.51 808.886 2707.68 810.955 Q2714.84 813.023 2722.19 813.023 Q2729.54 813.023 2736.77 810.955 Q2743.96 808.854 2751.25 804.621 L2751.25 809.713 Q2743.77 814.488 2736.54 816.875 Q2729.32 819.23 2722.19 819.23 Q2715.09 819.23 2707.9 816.875 Q2700.7 814.519 2693.19 809.713 L2693.19 804.621 Z" fill="#000000" fill-rule="evenodd" fill-opacity="1" /><path clip-path="url(#clip390)" d="M2693.13 793.481 L2693.13 787.592 L2722.38 787.592 L2707.01 770.119 L2707.01 762.639 L2723.69 781.545 L2742.65 761.843 L2742.65 769.482 L2725.24 787.592 L2742.65 787.592 L2742.65 793.481 L2693.13 793.481 Z" fill="#000000" fill-rule="evenodd" fill-opacity="1" /><path clip-path="url(#clip390)" d="M2713.85 727.755 Q2709.9 725.559 2708.03 722.503 Q2706.15 719.448 2706.15 715.31 Q2706.15 709.74 2710.06 706.716 Q2713.95 703.692 2721.14 703.692 L2742.65 703.692 L2742.65 709.581 L2721.33 709.581 Q2716.21 709.581 2713.72 711.395 Q2711.24 713.209 2711.24 716.933 Q2711.24 721.485 2714.26 724.126 Q2717.29 726.768 2722.51 726.768 L2742.65 726.768 L2742.65 732.656 L2721.33 732.656 Q2716.17 732.656 2713.72 734.471 Q2711.24 736.285 2711.24 740.072 Q2711.24 744.56 2714.3 747.202 Q2717.32 749.844 2722.51 749.844 L2742.65 749.844 L2742.65 755.732 L2707.01 755.732 L2707.01 749.844 L2712.55 749.844 Q2709.27 747.839 2707.71 745.038 Q2706.15 742.237 2706.15 738.385 Q2706.15 734.502 2708.12 731.797 Q2710.09 729.06 2713.85 727.755 Z" fill="#000000" fill-rule="evenodd" fill-opacity="1" /><path clip-path="url(#clip390)" d="M2693.19 692.934 L2693.19 687.842 Q2700.7 683.067 2707.9 680.712 Q2715.09 678.325 2722.19 678.325 Q2729.32 678.325 2736.54 680.712 Q2743.77 683.067 2751.25 687.842 L2751.25 692.934 Q2743.96 688.701 2736.77 686.632 Q2729.54 684.532 2722.19 684.532 Q2714.84 684.532 2707.68 686.632 Q2700.51 688.701 2693.19 692.934 Z" fill="#000000" fill-rule="evenodd" fill-opacity="1" /><path clip-path="url(#clip390)" d="M3369.58 51.4708 L3367.8 42.1132 Q3365.98 32.5126 3358.77 32.5126 Q3353.34 32.5126 3350.87 36.9686 Q3347.75 42.5588 3347.75 49.9314 Q3347.75 58.8434 3350.79 63.0969 Q3353.86 67.4314 3358.77 67.4314 Q3364.19 67.4314 3367.11 58.8029 L3369.58 51.4708 M3373.75 39.075 L3377.76 27.2059 L3384.41 27.2059 L3376.1 51.7949 L3377.72 60.6663 Q3378.09 62.6513 3379.51 64.3122 Q3381.17 66.2566 3382.46 66.2566 L3386.03 66.2566 L3386.03 72.576 L3381.57 72.576 Q3377.76 72.576 3374.36 69.1732 Q3372.7 67.4719 3372.01 63.9071 Q3370.15 68.4036 3366.34 71.9279 Q3364.56 73.5887 3358.77 73.5887 Q3349.25 73.5887 3344.63 67.4314 Q3339.89 61.0714 3339.89 49.9314 Q3339.89 38.0218 3345.03 32.4315 Q3350.74 26.1931 3358.77 26.1931 Q3371.36 26.1931 3373.75 39.075 Z" fill="#000000" fill-rule="evenodd" fill-opacity="1" /><path clip-path="url(#clip390)" d="M3432.29 86.3491 L3432.29 92.1419 L3389.19 92.1419 L3389.19 86.3491 L3432.29 86.3491 Z" fill="#000000" fill-rule="evenodd" fill-opacity="1" /><path clip-path="url(#clip390)" d="M3457.85 17.4837 Q3451.53 17.4837 3448.33 23.7221 Q3445.17 29.92 3445.17 42.3968 Q3445.17 54.833 3448.33 61.0714 Q3451.53 67.2693 3457.85 67.2693 Q3464.21 67.2693 3467.37 61.0714 Q3470.57 54.833 3470.57 42.3968 Q3470.57 29.92 3467.37 23.7221 Q3464.21 17.4837 3457.85 17.4837 M3457.85 11.0023 Q3468.02 11.0023 3473.37 19.0636 Q3478.75 27.0843 3478.75 42.3968 Q3478.75 57.6687 3473.37 65.73 Q3468.02 73.7508 3457.85 73.7508 Q3447.68 73.7508 3442.3 65.73 Q3436.95 57.6687 3436.95 42.3968 Q3436.95 27.0843 3442.3 19.0636 Q3447.68 11.0023 3457.85 11.0023 Z" fill="#000000" fill-rule="evenodd" fill-opacity="1" /><polyline clip-path="url(#clip394)" style="stroke:#009af9; stroke-linecap:butt; stroke-linejoin:round; stroke-width:4; stroke-opacity:1; fill:none" points="
  2957.74,1351.11 2961.14,1336.95 2964.62,1322.79 2968.19,1308.63 2971.83,1294.47 2975.56,1280.31 2979.38,1266.15 2983.29,1251.99 2987.29,1237.83 2991.38,1223.67 
  2995.58,1209.51 2999.87,1195.35 3004.27,1181.19 3008.77,1167.03 3013.38,1152.87 3018.1,1138.71 3022.93,1124.55 3027.88,1110.4 3032.96,1096.24 3038.15,1082.08 
  3043.47,1067.92 3048.92,1053.76 3054.5,1039.6 3060.23,1025.44 3066.09,1011.28 3072.09,997.119 3078.25,982.959 3084.55,968.8 3091.02,954.64 3097.68,940.481 
  3104.52,926.321 3111.54,912.162 3118.74,898.002 3126.12,883.843 3133.69,869.683 3141.46,855.523 3149.44,841.364 3157.62,827.204 3166.01,813.045 3174.63,798.885 
  3183.46,784.726 3192.54,770.566 3201.84,756.407 3211.4,742.247 3221.2,728.088 3231.26,713.928 3241.59,699.768 3252.2,685.609 3263.08,671.449 3274.25,657.29 
  3285.72,643.13 3297.5,628.971 3309.59,614.811 3322.01,600.652 3334.76,586.492 3347.85,572.333 3361.3,558.173 3375.12,544.014 3389.31,529.854 3403.88,515.694 
  3418.86,501.535 3434.26,487.375 3450.08,473.216 3466.34,459.056 3483.06,444.897 3500.25,430.737 3517.93,416.578 3536.12,402.418 3554.76,388.259 3573.57,374.099 
  3592.91,359.939 3612.83,345.78 3633.33,331.62 3654.44,317.461 3676.2,303.301 3698.61,289.142 3721.72,274.982 3745.56,260.823 3770.14,246.663 3795.5,232.504 
  3821.69,218.344 3848.72,204.184 
  "/>
<polyline clip-path="url(#clip394)" style="stroke:#e26f46; stroke-linecap:butt; stroke-linejoin:round; stroke-width:4; stroke-opacity:1; fill:none" points="
  2956.07,1358.19 2959.43,1344.03 2962.87,1329.87 2966.39,1315.71 2970,1301.55 2973.68,1287.39 2977.46,1273.23 2981.32,1259.07 2985.28,1244.91 2989.32,1230.75 
  2993.47,1216.59 2997.71,1202.43 3002.06,1188.27 3006.5,1174.11 3011.06,1159.95 3015.72,1145.79 3020.5,1131.63 3025.39,1117.48 3030.4,1103.32 3035.54,1089.16 
  3040.79,1075 3046.18,1060.84 3051.7,1046.68 3057.35,1032.52 3063.14,1018.36 3069.07,1004.2 3075.15,990.039 3081.38,975.88 3087.76,961.72 3094.33,947.56 
  3101.08,933.401 3108.01,919.241 3115.11,905.082 3122.4,890.922 3129.88,876.763 3137.55,862.603 3145.43,848.444 3153.5,834.284 3161.79,820.125 3170.29,805.965 
  3179.02,791.806 3187.97,777.646 3197.16,763.486 3206.59,749.327 3216.27,735.167 3226.2,721.008 3236.4,706.848 3246.86,692.689 3257.6,678.529 3268.63,664.37 
  3279.95,650.21 3291.57,636.051 3303.51,621.891 3315.76,607.731 3328.34,593.572 3341.26,579.412 3354.53,565.253 3368.16,551.093 3382.16,536.934 3396.55,522.774 
  3411.32,508.615 3426.51,494.455 3442.11,480.296 3458.15,466.136 3474.64,451.976 3491.6,437.817 3509.03,423.657 3526.96,409.498 3545.41,395.338 3564.1,381.179 
  3583.17,367.019 3602.8,352.86 3623,338.7 3643.81,324.541 3665.24,310.381 3687.32,296.222 3710.08,282.062 3733.55,267.902 3757.75,253.743 3782.72,239.583 
  3808.49,225.424 3835.1,211.264 3862.57,197.105 
  "/>
<path clip-path="url(#clip390)" d="
M3578.68 358.817 L3857.73 358.817 L3857.73 203.297 L3578.68 203.297  Z
  " fill="#ffffff" fill-rule="evenodd" fill-opacity="1"/>
<polyline clip-path="url(#clip390)" style="stroke:#000000; stroke-linecap:butt; stroke-linejoin:round; stroke-width:4; stroke-opacity:1; fill:none" points="
  3578.68,358.817 3857.73,358.817 3857.73,203.297 3578.68,203.297 3578.68,358.817 
  "/>
<polyline clip-path="url(#clip390)" style="stroke:#009af9; stroke-linecap:butt; stroke-linejoin:round; stroke-width:4; stroke-opacity:1; fill:none" points="
  3589.35,255.137 3653.41,255.137 
  "/>
<path clip-path="url(#clip390)" d="M3684.6 247.487 L3684.6 251.468 Q3682.79 250.473 3680.97 249.987 Q3679.16 249.477 3677.31 249.477 Q3673.16 249.477 3670.87 252.116 Q3668.58 254.732 3668.58 259.477 Q3668.58 264.223 3670.87 266.862 Q3673.16 269.477 3677.31 269.477 Q3679.16 269.477 3680.97 268.991 Q3682.79 268.482 3684.6 267.487 L3684.6 271.422 Q3682.82 272.255 3680.9 272.672 Q3679 273.088 3676.85 273.088 Q3670.99 273.088 3667.54 269.408 Q3664.09 265.727 3664.09 259.477 Q3664.09 253.135 3667.56 249.501 Q3671.06 245.866 3677.12 245.866 Q3679.09 245.866 3680.97 246.283 Q3682.84 246.677 3684.6 247.487 Z" fill="#000000" fill-rule="evenodd" fill-opacity="1" /><path clip-path="url(#clip390)" d="M3714.18 258.389 L3714.18 260.473 L3694.6 260.473 Q3694.88 264.871 3697.24 267.186 Q3699.62 269.477 3703.86 269.477 Q3706.31 269.477 3708.6 268.876 Q3710.92 268.274 3713.19 267.07 L3713.19 271.098 Q3710.9 272.07 3708.49 272.579 Q3706.08 273.088 3703.6 273.088 Q3697.4 273.088 3693.77 269.477 Q3690.16 265.866 3690.16 259.709 Q3690.16 253.343 3693.58 249.616 Q3697.03 245.866 3702.86 245.866 Q3708.09 245.866 3711.13 249.246 Q3714.18 252.602 3714.18 258.389 M3709.92 257.139 Q3709.88 253.644 3707.96 251.561 Q3706.06 249.477 3702.91 249.477 Q3699.34 249.477 3697.19 251.491 Q3695.06 253.505 3694.74 257.163 L3709.92 257.139 Z" fill="#000000" fill-rule="evenodd" fill-opacity="1" /><path clip-path="url(#clip390)" d="M3742.72 256.769 L3742.72 272.417 L3738.47 272.417 L3738.47 256.908 Q3738.47 253.227 3737.03 251.399 Q3735.59 249.57 3732.72 249.57 Q3729.28 249.57 3727.28 251.769 Q3725.29 253.968 3725.29 257.764 L3725.29 272.417 L3721.01 272.417 L3721.01 246.491 L3725.29 246.491 L3725.29 250.519 Q3726.82 248.181 3728.88 247.024 Q3730.97 245.866 3733.67 245.866 Q3738.14 245.866 3740.43 248.644 Q3742.72 251.399 3742.72 256.769 Z" fill="#000000" fill-rule="evenodd" fill-opacity="1" /><path clip-path="url(#clip390)" d="M3755.43 239.13 L3755.43 246.491 L3764.21 246.491 L3764.21 249.802 L3755.43 249.802 L3755.43 263.876 Q3755.43 267.047 3756.29 267.95 Q3757.17 268.852 3759.83 268.852 L3764.21 268.852 L3764.21 272.417 L3759.83 272.417 Q3754.9 272.417 3753.03 270.588 Q3751.15 268.737 3751.15 263.876 L3751.15 249.802 L3748.03 249.802 L3748.03 246.491 L3751.15 246.491 L3751.15 239.13 L3755.43 239.13 Z" fill="#000000" fill-rule="evenodd" fill-opacity="1" /><path clip-path="url(#clip390)" d="M3791.98 258.389 L3791.98 260.473 L3772.4 260.473 Q3772.68 264.871 3775.04 267.186 Q3777.42 269.477 3781.66 269.477 Q3784.11 269.477 3786.4 268.876 Q3788.72 268.274 3790.99 267.07 L3790.99 271.098 Q3788.7 272.07 3786.29 272.579 Q3783.88 273.088 3781.4 273.088 Q3775.2 273.088 3771.57 269.477 Q3767.96 265.866 3767.96 259.709 Q3767.96 253.343 3771.38 249.616 Q3774.83 245.866 3780.66 245.866 Q3785.9 245.866 3788.93 249.246 Q3791.98 252.602 3791.98 258.389 M3787.72 257.139 Q3787.68 253.644 3785.76 251.561 Q3783.86 249.477 3780.71 249.477 Q3777.15 249.477 3774.99 251.491 Q3772.86 253.505 3772.54 257.163 L3787.72 257.139 Z" fill="#000000" fill-rule="evenodd" fill-opacity="1" /><path clip-path="url(#clip390)" d="M3814 250.473 Q3813.28 250.056 3812.42 249.871 Q3811.59 249.663 3810.57 249.663 Q3806.96 249.663 3805.02 252.024 Q3803.09 254.362 3803.09 258.76 L3803.09 272.417 L3798.81 272.417 L3798.81 246.491 L3803.09 246.491 L3803.09 250.519 Q3804.44 248.158 3806.59 247.024 Q3808.74 245.866 3811.82 245.866 Q3812.26 245.866 3812.79 245.936 Q3813.33 245.982 3813.97 246.098 L3814 250.473 Z" fill="#000000" fill-rule="evenodd" fill-opacity="1" /><path clip-path="url(#clip390)" d="M3834.99 247.255 L3834.99 251.283 Q3833.19 250.357 3831.24 249.894 Q3829.3 249.431 3827.21 249.431 Q3824.04 249.431 3822.45 250.403 Q3820.87 251.376 3820.87 253.32 Q3820.87 254.802 3822.01 255.658 Q3823.14 256.491 3826.57 257.255 L3828.02 257.579 Q3832.56 258.552 3834.46 260.334 Q3836.38 262.093 3836.38 265.264 Q3836.38 268.876 3833.51 270.982 Q3830.66 273.088 3825.66 273.088 Q3823.58 273.088 3821.31 272.672 Q3819.07 272.278 3816.57 271.468 L3816.57 267.07 Q3818.93 268.297 3821.22 268.922 Q3823.51 269.524 3825.76 269.524 Q3828.77 269.524 3830.39 268.505 Q3832.01 267.463 3832.01 265.589 Q3832.01 263.852 3830.83 262.926 Q3829.67 262.001 3825.71 261.144 L3824.23 260.797 Q3820.27 259.964 3818.51 258.251 Q3816.75 256.514 3816.75 253.505 Q3816.75 249.848 3819.34 247.857 Q3821.94 245.866 3826.71 245.866 Q3829.07 245.866 3831.15 246.214 Q3833.23 246.561 3834.99 247.255 Z" fill="#000000" fill-rule="evenodd" fill-opacity="1" /><polyline clip-path="url(#clip390)" style="stroke:#e26f46; stroke-linecap:butt; stroke-linejoin:round; stroke-width:4; stroke-opacity:1; fill:none" points="
  3589.35,306.977 3653.41,306.977 
  "/>
<path clip-path="url(#clip390)" d="M3680.6 288.239 L3680.6 291.78 L3676.52 291.78 Q3674.23 291.78 3673.33 292.706 Q3672.45 293.632 3672.45 296.04 L3672.45 298.331 L3679.46 298.331 L3679.46 301.642 L3672.45 301.642 L3672.45 324.257 L3668.16 324.257 L3668.16 301.642 L3664.09 301.642 L3664.09 298.331 L3668.16 298.331 L3668.16 296.526 Q3668.16 292.197 3670.18 290.23 Q3672.19 288.239 3676.57 288.239 L3680.6 288.239 Z" fill="#000000" fill-rule="evenodd" fill-opacity="1" /><path clip-path="url(#clip390)" d="M3695.94 311.225 Q3690.78 311.225 3688.79 312.405 Q3686.8 313.586 3686.8 316.433 Q3686.8 318.702 3688.28 320.044 Q3689.78 321.364 3692.35 321.364 Q3695.9 321.364 3698.03 318.864 Q3700.18 316.341 3700.18 312.174 L3700.18 311.225 L3695.94 311.225 M3704.44 309.466 L3704.44 324.257 L3700.18 324.257 L3700.18 320.322 Q3698.72 322.683 3696.54 323.817 Q3694.37 324.928 3691.22 324.928 Q3687.24 324.928 3684.88 322.706 Q3682.54 320.461 3682.54 316.711 Q3682.54 312.336 3685.46 310.114 Q3688.4 307.892 3694.21 307.892 L3700.18 307.892 L3700.18 307.475 Q3700.18 304.535 3698.23 302.938 Q3696.31 301.317 3692.82 301.317 Q3690.59 301.317 3688.49 301.85 Q3686.38 302.382 3684.44 303.447 L3684.44 299.512 Q3686.78 298.609 3688.97 298.169 Q3691.17 297.706 3693.26 297.706 Q3698.88 297.706 3701.66 300.623 Q3704.44 303.54 3704.44 309.466 Z" fill="#000000" fill-rule="evenodd" fill-opacity="1" /><path clip-path="url(#clip390)" d="M3731.87 299.327 L3731.87 303.308 Q3730.06 302.313 3728.23 301.827 Q3726.43 301.317 3724.58 301.317 Q3720.43 301.317 3718.14 303.956 Q3715.85 306.572 3715.85 311.317 Q3715.85 316.063 3718.14 318.702 Q3720.43 321.317 3724.58 321.317 Q3726.43 321.317 3728.23 320.831 Q3730.06 320.322 3731.87 319.327 L3731.87 323.262 Q3730.09 324.095 3728.16 324.512 Q3726.27 324.928 3724.11 324.928 Q3718.26 324.928 3714.81 321.248 Q3711.36 317.567 3711.36 311.317 Q3711.36 304.975 3714.83 301.341 Q3718.33 297.706 3724.39 297.706 Q3726.36 297.706 3728.23 298.123 Q3730.11 298.517 3731.87 299.327 Z" fill="#000000" fill-rule="evenodd" fill-opacity="1" /><path clip-path="url(#clip390)" d="M3761.45 310.229 L3761.45 312.313 L3741.87 312.313 Q3742.15 316.711 3744.51 319.026 Q3746.89 321.317 3751.13 321.317 Q3753.58 321.317 3755.87 320.716 Q3758.19 320.114 3760.46 318.91 L3760.46 322.938 Q3758.16 323.91 3755.76 324.419 Q3753.35 324.928 3750.87 324.928 Q3744.67 324.928 3741.03 321.317 Q3737.42 317.706 3737.42 311.549 Q3737.42 305.183 3740.85 301.456 Q3744.3 297.706 3750.13 297.706 Q3755.36 297.706 3758.4 301.086 Q3761.45 304.442 3761.45 310.229 M3757.19 308.979 Q3757.15 305.484 3755.22 303.401 Q3753.33 301.317 3750.18 301.317 Q3746.61 301.317 3744.46 303.331 Q3742.33 305.345 3742.01 309.003 L3757.19 308.979 Z" fill="#000000" fill-rule="evenodd" fill-opacity="1" /><path clip-path="url(#clip390)" d="M3784.97 299.095 L3784.97 303.123 Q3783.16 302.197 3781.22 301.734 Q3779.28 301.271 3777.19 301.271 Q3774.02 301.271 3772.42 302.243 Q3770.85 303.216 3770.85 305.16 Q3770.85 306.642 3771.98 307.498 Q3773.12 308.331 3776.54 309.095 L3778 309.419 Q3782.54 310.392 3784.44 312.174 Q3786.36 313.933 3786.36 317.104 Q3786.36 320.716 3783.49 322.822 Q3780.64 324.928 3775.64 324.928 Q3773.56 324.928 3771.29 324.512 Q3769.04 324.118 3766.54 323.308 L3766.54 318.91 Q3768.9 320.137 3771.2 320.762 Q3773.49 321.364 3775.73 321.364 Q3778.74 321.364 3780.36 320.345 Q3781.98 319.303 3781.98 317.429 Q3781.98 315.692 3780.8 314.766 Q3779.65 313.841 3775.69 312.984 L3774.21 312.637 Q3770.25 311.804 3768.49 310.091 Q3766.73 308.354 3766.73 305.345 Q3766.73 301.688 3769.32 299.697 Q3771.91 297.706 3776.68 297.706 Q3779.04 297.706 3781.13 298.054 Q3783.21 298.401 3784.97 299.095 Z" fill="#000000" fill-rule="evenodd" fill-opacity="1" /></svg>
