<?xml version="1.0" encoding="utf-8"?>
<svg xmlns="http://www.w3.org/2000/svg" xmlns:xlink="http://www.w3.org/1999/xlink" width="600" height="400" viewBox="0 0 2400 1600">
<defs>
  <clipPath id="clip220">
    <rect x="0" y="0" width="2400" height="1600"/>
  </clipPath>
</defs>
<path clip-path="url(#clip220)" d="
M0 1600 L2400 1600 L2400 0 L0 0  Z
  " fill="#ffffff" fill-rule="evenodd" fill-opacity="1"/>
<defs>
  <clipPath id="clip221">
    <rect x="480" y="0" width="1681" height="1600"/>
  </clipPath>
</defs>
<path clip-path="url(#clip220)" d="
M265.22 1360.19 L1089.76 1360.19 L1089.76 186.464 L265.22 186.464  Z
  " fill="#ffffff" fill-rule="evenodd" fill-opacity="1"/>
<defs>
  <clipPath id="clip222">
    <rect x="265" y="186" width="826" height="1175"/>
  </clipPath>
</defs>
<polyline clip-path="url(#clip222)" style="stroke:#000000; stroke-linecap:butt; stroke-linejoin:round; stroke-width:2; stroke-opacity:0.1; fill:none" points="
  305.455,1360.19 305.455,186.464 
  "/>
<polyline clip-path="url(#clip222)" style="stroke:#000000; stroke-linecap:butt; stroke-linejoin:round; stroke-width:2; stroke-opacity:0.1; fill:none" points="
  462.678,1360.19 462.678,186.464 
  "/>
<polyline clip-path="url(#clip222)" style="stroke:#000000; stroke-linecap:butt; stroke-linejoin:round; stroke-width:2; stroke-opacity:0.1; fill:none" points="
  619.9,1360.19 619.9,186.464 
  "/>
<polyline clip-path="url(#clip222)" style="stroke:#000000; stroke-linecap:butt; stroke-linejoin:round; stroke-width:2; stroke-opacity:0.1; fill:none" points="
  777.123,1360.19 777.123,186.464 
  "/>
<polyline clip-path="url(#clip222)" style="stroke:#000000; stroke-linecap:butt; stroke-linejoin:round; stroke-width:2; stroke-opacity:0.1; fill:none" points="
  934.346,1360.19 934.346,186.464 
  "/>
<polyline clip-path="url(#clip220)" style="stroke:#000000; stroke-linecap:butt; stroke-linejoin:round; stroke-width:4; stroke-opacity:1; fill:none" points="
  265.22,1360.19 1089.76,1360.19 
  "/>
<polyline clip-path="url(#clip220)" style="stroke:#000000; stroke-linecap:butt; stroke-linejoin:round; stroke-width:4; stroke-opacity:1; fill:none" points="
  305.455,1360.19 305.455,1341.29 
  "/>
<polyline clip-path="url(#clip220)" style="stroke:#000000; stroke-linecap:butt; stroke-linejoin:round; stroke-width:4; stroke-opacity:1; fill:none" points="
  462.678,1360.19 462.678,1341.29 
  "/>
<polyline clip-path="url(#clip220)" style="stroke:#000000; stroke-linecap:butt; stroke-linejoin:round; stroke-width:4; stroke-opacity:1; fill:none" points="
  619.9,1360.19 619.9,1341.29 
  "/>
<polyline clip-path="url(#clip220)" style="stroke:#000000; stroke-linecap:butt; stroke-linejoin:round; stroke-width:4; stroke-opacity:1; fill:none" points="
  777.123,1360.19 777.123,1341.29 
  "/>
<polyline clip-path="url(#clip220)" style="stroke:#000000; stroke-linecap:butt; stroke-linejoin:round; stroke-width:4; stroke-opacity:1; fill:none" points="
  934.346,1360.19 934.346,1341.29 
  "/>
<path clip-path="url(#clip220)" d="M283.638 1391.11 Q280.027 1391.11 278.198 1394.67 Q276.393 1398.21 276.393 1405.34 Q276.393 1412.45 278.198 1416.01 Q280.027 1419.56 283.638 1419.56 Q287.272 1419.56 289.078 1416.01 Q290.907 1412.45 290.907 1405.34 Q290.907 1398.21 289.078 1394.67 Q287.272 1391.11 283.638 1391.11 M283.638 1387.4 Q289.448 1387.4 292.504 1392.01 Q295.583 1396.59 295.583 1405.34 Q295.583 1414.07 292.504 1418.68 Q289.448 1423.26 283.638 1423.26 Q277.828 1423.26 274.749 1418.68 Q271.694 1414.07 271.694 1405.34 Q271.694 1396.59 274.749 1392.01 Q277.828 1387.4 283.638 1387.4 Z" fill="#000000" fill-rule="evenodd" fill-opacity="1" /><path clip-path="url(#clip220)" d="M303.8 1416.71 L308.684 1416.71 L308.684 1422.59 L303.8 1422.59 L303.8 1416.71 Z" fill="#000000" fill-rule="evenodd" fill-opacity="1" /><path clip-path="url(#clip220)" d="M322.897 1418.65 L339.217 1418.65 L339.217 1422.59 L317.272 1422.59 L317.272 1418.65 Q319.934 1415.9 324.518 1411.27 Q329.124 1406.62 330.305 1405.27 Q332.55 1402.75 333.43 1401.01 Q334.332 1399.25 334.332 1397.56 Q334.332 1394.81 332.388 1393.07 Q330.467 1391.34 327.365 1391.34 Q325.166 1391.34 322.712 1392.1 Q320.281 1392.87 317.504 1394.42 L317.504 1389.69 Q320.328 1388.56 322.781 1387.98 Q325.235 1387.4 327.272 1387.4 Q332.642 1387.4 335.837 1390.09 Q339.031 1392.77 339.031 1397.26 Q339.031 1399.39 338.221 1401.31 Q337.434 1403.21 335.328 1405.81 Q334.749 1406.48 331.647 1409.69 Q328.545 1412.89 322.897 1418.65 Z" fill="#000000" fill-rule="evenodd" fill-opacity="1" /><path clip-path="url(#clip220)" d="M439.819 1391.11 Q436.208 1391.11 434.379 1394.67 Q432.574 1398.21 432.574 1405.34 Q432.574 1412.45 434.379 1416.01 Q436.208 1419.56 439.819 1419.56 Q443.453 1419.56 445.259 1416.01 Q447.088 1412.45 447.088 1405.34 Q447.088 1398.21 445.259 1394.67 Q443.453 1391.11 439.819 1391.11 M439.819 1387.4 Q445.629 1387.4 448.685 1392.01 Q451.764 1396.59 451.764 1405.34 Q451.764 1414.07 448.685 1418.68 Q445.629 1423.26 439.819 1423.26 Q434.009 1423.26 430.93 1418.68 Q427.875 1414.07 427.875 1405.34 Q427.875 1396.59 430.93 1392.01 Q434.009 1387.4 439.819 1387.4 Z" fill="#000000" fill-rule="evenodd" fill-opacity="1" /><path clip-path="url(#clip220)" d="M459.981 1416.71 L464.865 1416.71 L464.865 1422.59 L459.981 1422.59 L459.981 1416.71 Z" fill="#000000" fill-rule="evenodd" fill-opacity="1" /><path clip-path="url(#clip220)" d="M487.898 1392.1 L476.092 1410.55 L487.898 1410.55 L487.898 1392.1 M486.671 1388.03 L492.55 1388.03 L492.55 1410.55 L497.481 1410.55 L497.481 1414.44 L492.55 1414.44 L492.55 1422.59 L487.898 1422.59 L487.898 1414.44 L472.296 1414.44 L472.296 1409.93 L486.671 1388.03 Z" fill="#000000" fill-rule="evenodd" fill-opacity="1" /><path clip-path="url(#clip220)" d="M597.204 1391.11 Q593.593 1391.11 591.764 1394.67 Q589.958 1398.21 589.958 1405.34 Q589.958 1412.45 591.764 1416.01 Q593.593 1419.56 597.204 1419.56 Q600.838 1419.56 602.644 1416.01 Q604.472 1412.45 604.472 1405.34 Q604.472 1398.21 602.644 1394.67 Q600.838 1391.11 597.204 1391.11 M597.204 1387.4 Q603.014 1387.4 606.07 1392.01 Q609.148 1396.59 609.148 1405.34 Q609.148 1414.07 606.07 1418.68 Q603.014 1423.26 597.204 1423.26 Q591.394 1423.26 588.315 1418.68 Q585.259 1414.07 585.259 1405.34 Q585.259 1396.59 588.315 1392.01 Q591.394 1387.4 597.204 1387.4 Z" fill="#000000" fill-rule="evenodd" fill-opacity="1" /><path clip-path="url(#clip220)" d="M617.366 1416.71 L622.25 1416.71 L622.25 1422.59 L617.366 1422.59 L617.366 1416.71 Z" fill="#000000" fill-rule="evenodd" fill-opacity="1" /><path clip-path="url(#clip220)" d="M643.014 1403.44 Q639.866 1403.44 638.014 1405.6 Q636.185 1407.75 636.185 1411.5 Q636.185 1415.23 638.014 1417.4 Q639.866 1419.56 643.014 1419.56 Q646.162 1419.56 647.991 1417.4 Q649.842 1415.23 649.842 1411.5 Q649.842 1407.75 647.991 1405.6 Q646.162 1403.44 643.014 1403.44 M652.296 1388.79 L652.296 1393.05 Q650.537 1392.22 648.731 1391.78 Q646.949 1391.34 645.19 1391.34 Q640.56 1391.34 638.106 1394.46 Q635.676 1397.59 635.329 1403.91 Q636.694 1401.89 638.755 1400.83 Q640.815 1399.74 643.292 1399.74 Q648.5 1399.74 651.509 1402.91 Q654.541 1406.06 654.541 1411.5 Q654.541 1416.82 651.393 1420.04 Q648.245 1423.26 643.014 1423.26 Q637.018 1423.26 633.847 1418.68 Q630.676 1414.07 630.676 1405.34 Q630.676 1397.15 634.565 1392.29 Q638.454 1387.4 645.004 1387.4 Q646.764 1387.4 648.546 1387.75 Q650.352 1388.1 652.296 1388.79 Z" fill="#000000" fill-rule="evenodd" fill-opacity="1" /><path clip-path="url(#clip220)" d="M754.554 1391.11 Q750.943 1391.11 749.114 1394.67 Q747.308 1398.21 747.308 1405.34 Q747.308 1412.45 749.114 1416.01 Q750.943 1419.56 754.554 1419.56 Q758.188 1419.56 759.994 1416.01 Q761.822 1412.45 761.822 1405.34 Q761.822 1398.21 759.994 1394.67 Q758.188 1391.11 754.554 1391.11 M754.554 1387.4 Q760.364 1387.4 763.419 1392.01 Q766.498 1396.59 766.498 1405.34 Q766.498 1414.07 763.419 1418.68 Q760.364 1423.26 754.554 1423.26 Q748.744 1423.26 745.665 1418.68 Q742.609 1414.07 742.609 1405.34 Q742.609 1396.59 745.665 1392.01 Q748.744 1387.4 754.554 1387.4 Z" fill="#000000" fill-rule="evenodd" fill-opacity="1" /><path clip-path="url(#clip220)" d="M774.716 1416.71 L779.6 1416.71 L779.6 1422.59 L774.716 1422.59 L774.716 1416.71 Z" fill="#000000" fill-rule="evenodd" fill-opacity="1" /><path clip-path="url(#clip220)" d="M799.785 1406.18 Q796.452 1406.18 794.53 1407.96 Q792.632 1409.74 792.632 1412.87 Q792.632 1415.99 794.53 1417.77 Q796.452 1419.56 799.785 1419.56 Q803.118 1419.56 805.04 1417.77 Q806.961 1415.97 806.961 1412.87 Q806.961 1409.74 805.04 1407.96 Q803.142 1406.18 799.785 1406.18 M795.109 1404.19 Q792.1 1403.44 790.41 1401.38 Q788.743 1399.32 788.743 1396.36 Q788.743 1392.22 791.683 1389.81 Q794.646 1387.4 799.785 1387.4 Q804.947 1387.4 807.887 1389.81 Q810.827 1392.22 810.827 1396.36 Q810.827 1399.32 809.137 1401.38 Q807.47 1403.44 804.484 1404.19 Q807.864 1404.97 809.739 1407.26 Q811.637 1409.56 811.637 1412.87 Q811.637 1417.89 808.558 1420.57 Q805.503 1423.26 799.785 1423.26 Q794.067 1423.26 790.989 1420.57 Q787.933 1417.89 787.933 1412.87 Q787.933 1409.56 789.831 1407.26 Q791.73 1404.97 795.109 1404.19 M793.396 1396.8 Q793.396 1399.49 795.063 1400.99 Q796.753 1402.5 799.785 1402.5 Q802.794 1402.5 804.484 1400.99 Q806.197 1399.49 806.197 1396.8 Q806.197 1394.12 804.484 1392.61 Q802.794 1391.11 799.785 1391.11 Q796.753 1391.11 795.063 1392.61 Q793.396 1394.12 793.396 1396.8 Z" fill="#000000" fill-rule="evenodd" fill-opacity="1" /><path clip-path="url(#clip220)" d="M901.499 1418.65 L909.138 1418.65 L909.138 1392.29 L900.827 1393.95 L900.827 1389.69 L909.091 1388.03 L913.767 1388.03 L913.767 1418.65 L921.406 1418.65 L921.406 1422.59 L901.499 1422.59 L901.499 1418.65 Z" fill="#000000" fill-rule="evenodd" fill-opacity="1" /><path clip-path="url(#clip220)" d="M930.85 1416.71 L935.735 1416.71 L935.735 1422.59 L930.85 1422.59 L930.85 1416.71 Z" fill="#000000" fill-rule="evenodd" fill-opacity="1" /><path clip-path="url(#clip220)" d="M955.92 1391.11 Q952.309 1391.11 950.48 1394.67 Q948.674 1398.21 948.674 1405.34 Q948.674 1412.45 950.48 1416.01 Q952.309 1419.56 955.92 1419.56 Q959.554 1419.56 961.36 1416.01 Q963.188 1412.45 963.188 1405.34 Q963.188 1398.21 961.36 1394.67 Q959.554 1391.11 955.92 1391.11 M955.92 1387.4 Q961.73 1387.4 964.785 1392.01 Q967.864 1396.59 967.864 1405.34 Q967.864 1414.07 964.785 1418.68 Q961.73 1423.26 955.92 1423.26 Q950.11 1423.26 947.031 1418.68 Q943.975 1414.07 943.975 1405.34 Q943.975 1396.59 947.031 1392.01 Q950.11 1387.4 955.92 1387.4 Z" fill="#000000" fill-rule="evenodd" fill-opacity="1" /><path clip-path="url(#clip220)" d="M664.41 1475.77 Q666.352 1472.52 671.158 1469.66 Q673.036 1468.54 678.828 1468.54 Q685.322 1468.54 689.364 1473.7 Q693.438 1478.86 693.438 1487.26 Q693.438 1495.66 689.364 1500.82 Q685.322 1505.97 678.828 1505.97 Q674.914 1505.97 672.081 1504.45 Q669.28 1502.89 667.434 1499.7 L667.434 1518.61 L661.546 1518.61 L661.546 1487.58 Q661.546 1480.23 664.41 1475.77 M687.359 1487.26 Q687.359 1480.8 684.685 1477.14 Q682.043 1473.45 677.396 1473.45 Q672.749 1473.45 670.076 1477.14 Q667.434 1480.8 667.434 1487.26 Q667.434 1493.72 670.076 1497.41 Q672.749 1501.07 677.396 1501.07 Q682.043 1501.07 684.685 1497.41 Q687.359 1493.72 687.359 1487.26 Z" fill="#000000" fill-rule="evenodd" fill-opacity="1" /><polyline clip-path="url(#clip222)" style="stroke:#000000; stroke-linecap:butt; stroke-linejoin:round; stroke-width:2; stroke-opacity:0.1; fill:none" points="
  265.22,1326.97 1089.76,1326.97 
  "/>
<polyline clip-path="url(#clip222)" style="stroke:#000000; stroke-linecap:butt; stroke-linejoin:round; stroke-width:2; stroke-opacity:0.1; fill:none" points="
  265.22,1001.3 1089.76,1001.3 
  "/>
<polyline clip-path="url(#clip222)" style="stroke:#000000; stroke-linecap:butt; stroke-linejoin:round; stroke-width:2; stroke-opacity:0.1; fill:none" points="
  265.22,675.624 1089.76,675.624 
  "/>
<polyline clip-path="url(#clip222)" style="stroke:#000000; stroke-linecap:butt; stroke-linejoin:round; stroke-width:2; stroke-opacity:0.1; fill:none" points="
  265.22,349.952 1089.76,349.952 
  "/>
<polyline clip-path="url(#clip220)" style="stroke:#000000; stroke-linecap:butt; stroke-linejoin:round; stroke-width:4; stroke-opacity:1; fill:none" points="
  265.22,1360.19 265.22,186.464 
  "/>
<polyline clip-path="url(#clip220)" style="stroke:#000000; stroke-linecap:butt; stroke-linejoin:round; stroke-width:4; stroke-opacity:1; fill:none" points="
  265.22,1326.97 284.117,1326.97 
  "/>
<polyline clip-path="url(#clip220)" style="stroke:#000000; stroke-linecap:butt; stroke-linejoin:round; stroke-width:4; stroke-opacity:1; fill:none" points="
  265.22,1001.3 284.117,1001.3 
  "/>
<polyline clip-path="url(#clip220)" style="stroke:#000000; stroke-linecap:butt; stroke-linejoin:round; stroke-width:4; stroke-opacity:1; fill:none" points="
  265.22,675.624 284.117,675.624 
  "/>
<polyline clip-path="url(#clip220)" style="stroke:#000000; stroke-linecap:butt; stroke-linejoin:round; stroke-width:4; stroke-opacity:1; fill:none" points="
  265.22,349.952 284.117,349.952 
  "/>
<path clip-path="url(#clip220)" d="M217.275 1312.77 Q213.664 1312.77 211.835 1316.33 Q210.03 1319.87 210.03 1327 Q210.03 1334.11 211.835 1337.68 Q213.664 1341.22 217.275 1341.22 Q220.909 1341.22 222.715 1337.68 Q224.544 1334.11 224.544 1327 Q224.544 1319.87 222.715 1316.33 Q220.909 1312.77 217.275 1312.77 M217.275 1309.06 Q223.085 1309.06 226.141 1313.67 Q229.22 1318.25 229.22 1327 Q229.22 1335.73 226.141 1340.34 Q223.085 1344.92 217.275 1344.92 Q211.465 1344.92 208.386 1340.34 Q205.331 1335.73 205.331 1327 Q205.331 1318.25 208.386 1313.67 Q211.465 1309.06 217.275 1309.06 Z" fill="#000000" fill-rule="evenodd" fill-opacity="1" /><path clip-path="url(#clip220)" d="M208.317 984.017 L226.673 984.017 L226.673 987.952 L212.599 987.952 L212.599 996.424 Q213.618 996.077 214.636 995.915 Q215.655 995.73 216.673 995.73 Q222.46 995.73 225.84 998.901 Q229.22 1002.07 229.22 1007.49 Q229.22 1013.07 225.747 1016.17 Q222.275 1019.25 215.956 1019.25 Q213.78 1019.25 211.511 1018.88 Q209.266 1018.51 206.859 1017.77 L206.859 1013.07 Q208.942 1014.2 211.164 1014.76 Q213.386 1015.31 215.863 1015.31 Q219.868 1015.31 222.206 1013.21 Q224.544 1011.1 224.544 1007.49 Q224.544 1003.88 222.206 1001.77 Q219.868 999.665 215.863 999.665 Q213.988 999.665 212.113 1000.08 Q210.261 1000.5 208.317 1001.38 L208.317 984.017 Z" fill="#000000" fill-rule="evenodd" fill-opacity="1" /><path clip-path="url(#clip220)" d="M177.924 688.969 L185.562 688.969 L185.562 662.603 L177.252 664.27 L177.252 660.011 L185.516 658.344 L190.192 658.344 L190.192 688.969 L197.831 688.969 L197.831 692.904 L177.924 692.904 L177.924 688.969 Z" fill="#000000" fill-rule="evenodd" fill-opacity="1" /><path clip-path="url(#clip220)" d="M217.275 661.423 Q213.664 661.423 211.835 664.988 Q210.03 668.529 210.03 675.659 Q210.03 682.765 211.835 686.33 Q213.664 689.872 217.275 689.872 Q220.909 689.872 222.715 686.33 Q224.544 682.765 224.544 675.659 Q224.544 668.529 222.715 664.988 Q220.909 661.423 217.275 661.423 M217.275 657.719 Q223.085 657.719 226.141 662.326 Q229.22 666.909 229.22 675.659 Q229.22 684.386 226.141 688.992 Q223.085 693.576 217.275 693.576 Q211.465 693.576 208.386 688.992 Q205.331 684.386 205.331 675.659 Q205.331 666.909 208.386 662.326 Q211.465 657.719 217.275 657.719 Z" fill="#000000" fill-rule="evenodd" fill-opacity="1" /><path clip-path="url(#clip220)" d="M178.919 363.297 L186.558 363.297 L186.558 336.931 L178.248 338.598 L178.248 334.338 L186.511 332.672 L191.187 332.672 L191.187 363.297 L198.826 363.297 L198.826 367.232 L178.919 367.232 L178.919 363.297 Z" fill="#000000" fill-rule="evenodd" fill-opacity="1" /><path clip-path="url(#clip220)" d="M208.317 332.672 L226.673 332.672 L226.673 336.607 L212.599 336.607 L212.599 345.079 Q213.618 344.732 214.636 344.57 Q215.655 344.385 216.673 344.385 Q222.46 344.385 225.84 347.556 Q229.22 350.727 229.22 356.144 Q229.22 361.723 225.747 364.824 Q222.275 367.903 215.956 367.903 Q213.78 367.903 211.511 367.533 Q209.266 367.162 206.859 366.422 L206.859 361.723 Q208.942 362.857 211.164 363.412 Q213.386 363.968 215.863 363.968 Q219.868 363.968 222.206 361.861 Q224.544 359.755 224.544 356.144 Q224.544 352.533 222.206 350.426 Q219.868 348.32 215.863 348.32 Q213.988 348.32 212.113 348.737 Q210.261 349.153 208.317 350.033 L208.317 332.672 Z" fill="#000000" fill-rule="evenodd" fill-opacity="1" /><path clip-path="url(#clip220)" d="M91.3483 871.851 L91.3483 844.033 L96.6955 844.033 L122.317 866.058 L122.317 844.033 L126.996 844.033 L126.996 872.647 L121.649 872.647 L96.0271 850.622 L96.0271 871.851 L91.3483 871.851 Z" fill="#000000" fill-rule="evenodd" fill-opacity="1" /><path clip-path="url(#clip220)" d="M77.5347 800.301 Q84.8553 804.566 92.0167 806.635 Q99.1781 808.703 106.531 808.703 Q113.883 808.703 121.108 806.635 Q128.301 804.534 135.59 800.301 L135.59 805.393 Q128.11 810.168 120.885 812.555 Q113.66 814.91 106.531 814.91 Q99.4328 814.91 92.2395 812.555 Q85.0463 810.199 77.5347 805.393 L77.5347 800.301 Z" fill="#000000" fill-rule="evenodd" fill-opacity="1" /><path clip-path="url(#clip220)" d="M77.4711 789.161 L77.4711 783.272 L106.722 783.272 L91.3483 765.799 L91.3483 758.319 L108.026 777.225 L126.996 757.523 L126.996 765.162 L109.586 783.272 L126.996 783.272 L126.996 789.161 L77.4711 789.161 Z" fill="#000000" fill-rule="evenodd" fill-opacity="1" /><path clip-path="url(#clip220)" d="M98.1915 723.435 Q94.2447 721.239 92.3668 718.183 Q90.489 715.128 90.489 710.99 Q90.489 705.42 94.4039 702.396 Q98.2869 699.372 105.48 699.372 L126.996 699.372 L126.996 705.261 L105.671 705.261 Q100.547 705.261 98.0641 707.075 Q95.5815 708.889 95.5815 712.613 Q95.5815 717.165 98.6052 719.806 Q101.629 722.448 106.849 722.448 L126.996 722.448 L126.996 728.336 L105.671 728.336 Q100.515 728.336 98.0641 730.151 Q95.5815 731.965 95.5815 735.752 Q95.5815 740.24 98.6371 742.882 Q101.661 745.524 106.849 745.524 L126.996 745.524 L126.996 751.412 L91.3483 751.412 L91.3483 745.524 L96.8865 745.524 Q93.6082 743.519 92.0486 740.718 Q90.489 737.917 90.489 734.065 Q90.489 730.182 92.4623 727.477 Q94.4357 724.74 98.1915 723.435 Z" fill="#000000" fill-rule="evenodd" fill-opacity="1" /><path clip-path="url(#clip220)" d="M77.5347 688.614 L77.5347 683.522 Q85.0463 678.747 92.2395 676.392 Q99.4328 674.005 106.531 674.005 Q113.66 674.005 120.885 676.392 Q128.11 678.747 135.59 683.522 L135.59 688.614 Q128.301 684.381 121.108 682.312 Q113.883 680.212 106.531 680.212 Q99.1781 680.212 92.0167 682.312 Q84.8553 684.381 77.5347 688.614 Z" fill="#000000" fill-rule="evenodd" fill-opacity="1" /><path clip-path="url(#clip220)" d="M660.842 35.3077 Q663.314 31.1758 669.43 27.5299 Q671.82 26.1121 679.193 26.1121 Q687.457 26.1121 692.602 32.6746 Q697.787 39.2371 697.787 49.9314 Q697.787 60.6258 692.602 67.1883 Q687.457 73.7508 679.193 73.7508 Q674.21 73.7508 670.605 71.8063 Q667.04 69.8214 664.691 65.7705 L664.691 89.8329 L657.197 89.8329 L657.197 50.3365 Q657.197 40.9789 660.842 35.3077 M690.049 49.9314 Q690.049 41.7081 686.647 37.0496 Q683.284 32.3505 677.37 32.3505 Q671.456 32.3505 668.053 37.0496 Q664.691 41.7081 664.691 49.9314 Q664.691 58.1548 668.053 62.8538 Q671.456 67.5124 677.37 67.5124 Q683.284 67.5124 686.647 62.8538 Q690.049 58.1548 690.049 49.9314 Z" fill="#000000" fill-rule="evenodd" fill-opacity="1" /><polyline clip-path="url(#clip222)" style="stroke:#009af9; stroke-linecap:butt; stroke-linejoin:round; stroke-width:4; stroke-opacity:1; fill:none" points="
  1063.27,1324.2 1056.98,1318.66 1050.72,1313.13 1044.48,1307.59 1038.27,1302.06 1032.09,1296.52 1025.3,1290.98 1018.07,1285.45 1010.9,1279.91 1003.77,1274.37 
  996.692,1268.84 989.664,1263.3 982.685,1257.76 975.763,1252.23 968.873,1246.69 962.034,1241.15 955.254,1235.62 948.518,1230.08 941.835,1224.55 935.188,1219.01 
  928.593,1213.47 922.044,1207.94 915.543,1202.4 909.088,1196.86 902.679,1191.33 896.316,1185.79 890.003,1180.25 883.727,1174.72 877.501,1169.18 871.325,1163.64 
  865.181,1158.11 859.089,1152.57 853.041,1147.04 847.037,1141.5 841.077,1135.96 835.16,1130.43 829.287,1124.89 823.458,1119.35 817.671,1113.82 811.927,1108.28 
  806.226,1102.74 800.567,1097.21 794.938,1091.67 789.361,1086.13 783.825,1080.6 778.331,1075.06 772.878,1069.53 767.465,1063.99 762.093,1058.45 756.762,1052.92 
  751.47,1047.38 746.218,1041.84 741.007,1036.31 735.834,1030.77 730.701,1025.23 725.607,1019.7 720.552,1014.16 715.535,1008.62 710.557,1003.09 705.619,997.551 
  700.709,992.015 695.807,986.479 690.941,980.942 686.112,975.406 681.318,969.869 676.56,964.333 671.837,958.796 667.149,953.26 662.497,947.724 657.88,942.187 
  653.297,936.651 648.75,931.114 644.237,925.578 639.759,920.041 635.315,914.505 630.905,908.969 626.53,903.432 622.188,897.896 617.88,892.359 613.606,886.823 
  609.366,881.286 605.158,875.75 600.984,870.214 596.852,864.677 592.744,859.141 588.669,853.604 584.627,848.068 580.617,842.531 576.639,836.995 572.693,831.459 
  568.779,825.922 564.897,820.386 561.047,814.849 557.228,809.313 553.44,803.776 549.683,798.24 545.958,792.703 542.263,787.167 538.599,781.631 534.965,776.094 
  531.362,770.558 527.788,765.021 524.236,759.485 520.724,753.948 517.241,748.412 513.787,742.876 510.362,737.339 506.967,731.803 503.6,726.266 500.261,720.73 
  496.951,715.193 493.669,709.657 490.415,704.121 487.189,698.584 483.99,693.048 480.819,687.511 477.674,681.975 474.557,676.438 471.466,670.902 468.401,665.366 
  465.363,659.829 462.35,654.293 459.364,648.756 456.402,643.22 453.466,637.683 450.555,632.147 447.669,626.611 444.807,621.074 441.978,615.538 439.162,610.001 
  436.37,604.465 433.602,598.928 430.857,593.392 428.136,587.856 425.437,582.319 422.76,576.783 420.155,571.246 417.591,565.71 415.054,560.173 412.536,554.637 
  410.037,549.101 407.557,543.564 405.095,538.028 402.651,532.491 400.224,526.955 397.815,521.418 395.424,515.882 393.049,510.345 390.691,504.809 388.35,499.273 
  386.035,493.736 383.724,488.2 381.43,482.663 379.151,477.127 376.889,471.59 374.641,466.054 372.409,460.518 370.193,454.981 367.991,449.445 365.804,443.908 
  363.632,438.372 361.474,432.835 359.331,427.299 357.201,421.763 355.087,416.226 352.986,410.69 350.899,405.153 348.826,399.617 346.766,394.08 344.721,388.544 
  342.689,383.008 340.67,377.471 338.665,371.935 336.673,366.398 334.694,360.862 332.729,355.325 330.777,349.789 328.837,344.253 326.911,338.716 324.998,333.18 
  323.098,327.643 321.21,322.107 319.336,316.57 317.474,311.034 315.616,305.498 313.781,299.961 311.958,294.425 310.148,288.888 308.35,283.352 306.564,277.815 
  304.791,272.279 303.03,266.743 301.281,261.206 299.545,255.67 297.821,250.133 296.109,244.597 294.409,239.06 292.722,233.524 291.046,227.987 289.383,222.451 
  
  "/>
<polyline clip-path="url(#clip222)" style="stroke:#e26f46; stroke-linecap:butt; stroke-linejoin:round; stroke-width:4; stroke-opacity:1; fill:none" points="
  1066.43,1326.97 1060.13,1321.43 1053.85,1315.9 1047.6,1310.36 1041.37,1304.82 1035.18,1299.29 1028.94,1293.75 1021.68,1288.21 1014.48,1282.68 1007.33,1277.14 
  1000.22,1271.6 993.172,1266.07 986.168,1260.53 979.214,1255 972.308,1249.46 965.44,1243.92 958.639,1238.39 951.881,1232.85 945.168,1227.31 938.504,1221.78 
  931.875,1216.24 925.312,1210.7 918.788,1205.17 912.31,1199.63 905.878,1194.09 899.492,1188.56 893.16,1183.02 886.859,1177.49 880.608,1171.95 874.407,1166.41 
  868.255,1160.88 862.13,1155.34 856.059,1149.8 850.033,1144.27 844.051,1138.73 838.113,1133.19 832.218,1127.66 826.367,1122.12 820.559,1116.58 814.794,1111.05 
  809.071,1105.51 803.391,1099.98 797.753,1094.44 792.144,1088.9 786.588,1083.37 781.073,1077.83 775.599,1072.29 770.166,1066.76 764.774,1061.22 759.422,1055.68 
  754.111,1050.15 748.839,1044.61 743.608,1039.07 738.415,1033.54 733.263,1028 728.149,1022.47 723.074,1016.93 718.039,1011.39 713.041,1005.86 708.082,1000.32 
  703.164,994.783 698.253,989.247 693.37,983.71 688.522,978.174 683.71,972.638 678.934,967.101 674.194,961.565 669.489,956.028 664.819,950.492 660.184,944.955 
  655.584,939.419 651.019,933.882 646.489,928.346 641.994,922.81 637.532,917.273 633.106,911.737 628.713,906.2 624.355,900.664 620.03,895.127 615.739,889.591 
  611.482,884.055 607.258,878.518 603.067,872.982 598.919,867.445 594.794,861.909 590.703,856.372 586.644,850.836 582.618,845.3 578.624,839.763 574.662,834.227 
  570.732,828.69 566.834,823.154 562.968,817.617 559.133,812.081 555.33,806.545 551.558,801.008 547.817,795.472 544.107,789.935 540.427,784.399 536.778,778.862 
  533.16,773.326 529.571,767.79 526.013,762.253 522.476,756.717 518.978,751.18 515.51,745.644 512.071,740.107 508.661,734.571 505.28,729.035 501.927,723.498 
  498.603,717.962 495.307,712.425 492.039,706.889 488.799,701.352 485.586,695.816 482.401,690.28 479.243,684.743 476.112,679.207 473.008,673.67 469.93,668.134 
  466.879,662.597 463.853,657.061 460.854,651.524 457.88,645.988 454.931,640.452 452.008,634.915 449.109,629.379 446.235,623.842 443.385,618.306 440.567,612.769 
  437.763,607.233 434.983,601.697 432.227,596.16 429.494,590.624 426.783,585.087 424.096,579.551 421.433,574.014 418.868,568.478 416.32,562.942 413.793,557.405 
  411.284,551.869 408.795,546.332 406.323,540.796 403.87,535.259 401.435,529.723 399.018,524.187 396.617,518.65 394.234,513.114 391.868,507.577 389.519,502.041 
  387.186,496.504 384.877,490.968 382.575,485.432 380.289,479.895 378.018,474.359 375.763,468.822 373.523,463.286 371.299,457.749 369.09,452.213 366.896,446.677 
  364.716,441.14 362.551,435.604 360.4,430.067 358.264,424.531 356.142,418.994 354.034,413.458 351.94,407.922 349.86,402.385 347.794,396.849 345.742,391.312 
  343.703,385.776 341.678,380.239 339.666,374.703 337.667,369.166 335.682,363.63 333.71,358.094 331.751,352.557 329.805,347.021 327.873,341.484 325.953,335.948 
  324.046,330.411 322.153,324.875 320.272,319.339 318.403,313.802 316.548,308.266 314.697,302.729 312.868,297.193 311.051,291.656 309.247,286.12 307.455,280.584 
  305.676,275.047 303.909,269.511 302.154,263.974 300.412,258.438 298.682,252.901 296.964,247.365 295.258,241.829 293.564,236.292 291.883,230.756 290.213,225.219 
  288.556,219.683 
  "/>
<path clip-path="url(#clip220)" d="
M798.372 381.108 L1062.28 381.108 L1062.28 225.588 L798.372 225.588  Z
  " fill="#ffffff" fill-rule="evenodd" fill-opacity="1"/>
<polyline clip-path="url(#clip220)" style="stroke:#000000; stroke-linecap:butt; stroke-linejoin:round; stroke-width:4; stroke-opacity:1; fill:none" points="
  798.372,381.108 1062.28,381.108 1062.28,225.588 798.372,225.588 798.372,381.108 
  "/>
<polyline clip-path="url(#clip220)" style="stroke:#009af9; stroke-linecap:butt; stroke-linejoin:round; stroke-width:4; stroke-opacity:1; fill:none" points="
  807.534,277.428 862.503,277.428 
  "/>
<path clip-path="url(#clip220)" d="M892.174 269.778 L892.174 273.759 Q890.369 272.764 888.54 272.278 Q886.734 271.769 884.883 271.769 Q880.739 271.769 878.447 274.408 Q876.156 277.023 876.156 281.769 Q876.156 286.514 878.447 289.153 Q880.739 291.769 884.883 291.769 Q886.734 291.769 888.54 291.282 Q890.369 290.773 892.174 289.778 L892.174 293.713 Q890.392 294.546 888.47 294.963 Q886.572 295.38 884.42 295.38 Q878.563 295.38 875.114 291.699 Q871.665 288.019 871.665 281.769 Q871.665 275.426 875.137 271.792 Q878.633 268.158 884.697 268.158 Q886.665 268.158 888.54 268.574 Q890.415 268.968 892.174 269.778 Z" fill="#000000" fill-rule="evenodd" fill-opacity="1" /><path clip-path="url(#clip220)" d="M921.757 280.681 L921.757 282.764 L902.174 282.764 Q902.452 287.162 904.813 289.477 Q907.197 291.769 911.433 291.769 Q913.887 291.769 916.179 291.167 Q918.493 290.565 920.762 289.361 L920.762 293.389 Q918.47 294.361 916.063 294.87 Q913.656 295.38 911.179 295.38 Q904.975 295.38 901.341 291.769 Q897.73 288.157 897.73 282 Q897.73 275.634 901.156 271.908 Q904.605 268.158 910.438 268.158 Q915.669 268.158 918.702 271.537 Q921.757 274.894 921.757 280.681 M917.498 279.431 Q917.452 275.935 915.531 273.852 Q913.632 271.769 910.484 271.769 Q906.919 271.769 904.767 273.783 Q902.637 275.796 902.313 279.454 L917.498 279.431 Z" fill="#000000" fill-rule="evenodd" fill-opacity="1" /><path clip-path="url(#clip220)" d="M950.299 279.06 L950.299 294.708 L946.04 294.708 L946.04 279.199 Q946.04 275.519 944.604 273.69 Q943.169 271.861 940.299 271.861 Q936.85 271.861 934.859 274.06 Q932.868 276.259 932.868 280.056 L932.868 294.708 L928.586 294.708 L928.586 268.783 L932.868 268.783 L932.868 272.81 Q934.396 270.472 936.456 269.315 Q938.54 268.158 941.248 268.158 Q945.716 268.158 948.007 270.935 Q950.299 273.69 950.299 279.06 Z" fill="#000000" fill-rule="evenodd" fill-opacity="1" /><path clip-path="url(#clip220)" d="M963.007 261.422 L963.007 268.783 L971.78 268.783 L971.78 272.093 L963.007 272.093 L963.007 286.167 Q963.007 289.338 963.864 290.241 Q964.743 291.144 967.405 291.144 L971.78 291.144 L971.78 294.708 L967.405 294.708 Q962.475 294.708 960.6 292.88 Q958.725 291.028 958.725 286.167 L958.725 272.093 L955.6 272.093 L955.6 268.783 L958.725 268.783 L958.725 261.422 L963.007 261.422 Z" fill="#000000" fill-rule="evenodd" fill-opacity="1" /><path clip-path="url(#clip220)" d="M999.558 280.681 L999.558 282.764 L979.975 282.764 Q980.252 287.162 982.614 289.477 Q984.998 291.769 989.234 291.769 Q991.688 291.769 993.979 291.167 Q996.294 290.565 998.562 289.361 L998.562 293.389 Q996.271 294.361 993.863 294.87 Q991.456 295.38 988.979 295.38 Q982.776 295.38 979.141 291.769 Q975.53 288.157 975.53 282 Q975.53 275.634 978.956 271.908 Q982.405 268.158 988.238 268.158 Q993.47 268.158 996.502 271.537 Q999.558 274.894 999.558 280.681 M995.299 279.431 Q995.252 275.935 993.331 273.852 Q991.433 271.769 988.285 271.769 Q984.72 271.769 982.567 273.783 Q980.438 275.796 980.114 279.454 L995.299 279.431 Z" fill="#000000" fill-rule="evenodd" fill-opacity="1" /><path clip-path="url(#clip220)" d="M1021.57 272.764 Q1020.85 272.347 1020 272.162 Q1019.16 271.954 1018.15 271.954 Q1014.53 271.954 1012.59 274.315 Q1010.67 276.653 1010.67 281.051 L1010.67 294.708 L1006.39 294.708 L1006.39 268.783 L1010.67 268.783 L1010.67 272.81 Q1012.01 270.449 1014.16 269.315 Q1016.32 268.158 1019.4 268.158 Q1019.84 268.158 1020.37 268.227 Q1020.9 268.273 1021.55 268.389 L1021.57 272.764 Z" fill="#000000" fill-rule="evenodd" fill-opacity="1" /><path clip-path="url(#clip220)" d="M1042.57 269.546 L1042.57 273.574 Q1040.76 272.648 1038.82 272.185 Q1036.87 271.722 1034.79 271.722 Q1031.62 271.722 1030.02 272.695 Q1028.45 273.667 1028.45 275.611 Q1028.45 277.093 1029.58 277.949 Q1030.72 278.783 1034.14 279.546 L1035.6 279.87 Q1040.14 280.843 1042.03 282.625 Q1043.96 284.384 1043.96 287.556 Q1043.96 291.167 1041.09 293.273 Q1038.24 295.38 1033.24 295.38 Q1031.15 295.38 1028.89 294.963 Q1026.64 294.569 1024.14 293.759 L1024.14 289.361 Q1026.5 290.588 1028.79 291.213 Q1031.09 291.815 1033.33 291.815 Q1036.34 291.815 1037.96 290.796 Q1039.58 289.755 1039.58 287.88 Q1039.58 286.144 1038.4 285.218 Q1037.24 284.292 1033.28 283.435 L1031.8 283.088 Q1027.84 282.255 1026.09 280.542 Q1024.33 278.806 1024.33 275.796 Q1024.33 272.139 1026.92 270.148 Q1029.51 268.158 1034.28 268.158 Q1036.64 268.158 1038.72 268.505 Q1040.81 268.852 1042.57 269.546 Z" fill="#000000" fill-rule="evenodd" fill-opacity="1" /><polyline clip-path="url(#clip220)" style="stroke:#e26f46; stroke-linecap:butt; stroke-linejoin:round; stroke-width:4; stroke-opacity:1; fill:none" points="
  807.534,329.268 862.503,329.268 
  "/>
<path clip-path="url(#clip220)" d="M888.17 310.53 L888.17 314.072 L884.096 314.072 Q881.804 314.072 880.901 314.998 Q880.021 315.924 880.021 318.331 L880.021 320.623 L887.035 320.623 L887.035 323.933 L880.021 323.933 L880.021 346.548 L875.739 346.548 L875.739 323.933 L871.665 323.933 L871.665 320.623 L875.739 320.623 L875.739 318.817 Q875.739 314.488 877.753 312.521 Q879.767 310.53 884.142 310.53 L888.17 310.53 Z" fill="#000000" fill-rule="evenodd" fill-opacity="1" /><path clip-path="url(#clip220)" d="M903.517 333.516 Q898.355 333.516 896.364 334.697 Q894.373 335.877 894.373 338.724 Q894.373 340.993 895.855 342.335 Q897.359 343.655 899.929 343.655 Q903.47 343.655 905.6 341.155 Q907.753 338.632 907.753 334.465 L907.753 333.516 L903.517 333.516 M912.012 331.757 L912.012 346.548 L907.753 346.548 L907.753 342.613 Q906.294 344.974 904.119 346.109 Q901.943 347.22 898.795 347.22 Q894.813 347.22 892.452 344.997 Q890.114 342.752 890.114 339.002 Q890.114 334.627 893.031 332.405 Q895.97 330.183 901.781 330.183 L907.753 330.183 L907.753 329.766 Q907.753 326.826 905.808 325.229 Q903.887 323.609 900.392 323.609 Q898.17 323.609 896.063 324.141 Q893.957 324.673 892.012 325.738 L892.012 321.803 Q894.35 320.9 896.549 320.461 Q898.748 319.998 900.832 319.998 Q906.457 319.998 909.234 322.914 Q912.012 325.831 912.012 331.757 Z" fill="#000000" fill-rule="evenodd" fill-opacity="1" /><path clip-path="url(#clip220)" d="M939.442 321.618 L939.442 325.599 Q937.637 324.604 935.808 324.118 Q934.003 323.609 932.151 323.609 Q928.007 323.609 925.716 326.248 Q923.424 328.863 923.424 333.609 Q923.424 338.354 925.716 340.993 Q928.007 343.609 932.151 343.609 Q934.003 343.609 935.808 343.122 Q937.637 342.613 939.442 341.618 L939.442 345.553 Q937.66 346.386 935.739 346.803 Q933.841 347.22 931.688 347.22 Q925.831 347.22 922.382 343.539 Q918.933 339.859 918.933 333.609 Q918.933 327.266 922.405 323.632 Q925.901 319.998 931.966 319.998 Q933.933 319.998 935.808 320.414 Q937.683 320.808 939.442 321.618 Z" fill="#000000" fill-rule="evenodd" fill-opacity="1" /><path clip-path="url(#clip220)" d="M969.026 332.521 L969.026 334.604 L949.442 334.604 Q949.72 339.002 952.081 341.317 Q954.466 343.609 958.702 343.609 Q961.155 343.609 963.447 343.007 Q965.762 342.405 968.03 341.201 L968.03 345.229 Q965.739 346.201 963.331 346.71 Q960.924 347.22 958.447 347.22 Q952.243 347.22 948.609 343.609 Q944.998 339.997 944.998 333.84 Q944.998 327.474 948.424 323.748 Q951.873 319.998 957.706 319.998 Q962.938 319.998 965.97 323.377 Q969.026 326.734 969.026 332.521 M964.766 331.271 Q964.72 327.775 962.799 325.692 Q960.901 323.609 957.753 323.609 Q954.188 323.609 952.035 325.623 Q949.905 327.636 949.581 331.294 L964.766 331.271 Z" fill="#000000" fill-rule="evenodd" fill-opacity="1" /><path clip-path="url(#clip220)" d="M992.544 321.386 L992.544 325.414 Q990.738 324.488 988.794 324.025 Q986.85 323.562 984.766 323.562 Q981.595 323.562 979.998 324.535 Q978.424 325.507 978.424 327.451 Q978.424 328.933 979.558 329.789 Q980.692 330.623 984.118 331.386 L985.576 331.71 Q990.113 332.683 992.012 334.465 Q993.933 336.224 993.933 339.396 Q993.933 343.007 991.063 345.113 Q988.215 347.22 983.215 347.22 Q981.132 347.22 978.864 346.803 Q976.618 346.409 974.118 345.599 L974.118 341.201 Q976.479 342.428 978.771 343.053 Q981.063 343.655 983.308 343.655 Q986.317 343.655 987.938 342.636 Q989.558 341.595 989.558 339.72 Q989.558 337.984 988.377 337.058 Q987.22 336.132 983.262 335.275 L981.78 334.928 Q977.822 334.095 976.063 332.382 Q974.303 330.646 974.303 327.636 Q974.303 323.979 976.896 321.988 Q979.489 319.998 984.257 319.998 Q986.618 319.998 988.701 320.345 Q990.785 320.692 992.544 321.386 Z" fill="#000000" fill-rule="evenodd" fill-opacity="1" /><path clip-path="url(#clip220)" d="
M1465.22 1360.19 L2289.76 1360.19 L2289.76 186.464 L1465.22 186.464  Z
  " fill="#ffffff" fill-rule="evenodd" fill-opacity="1"/>
<defs>
  <clipPath id="clip223">
    <rect x="1465" y="186" width="826" height="1175"/>
  </clipPath>
</defs>
<polyline clip-path="url(#clip223)" style="stroke:#000000; stroke-linecap:butt; stroke-linejoin:round; stroke-width:2; stroke-opacity:0.1; fill:none" points="
  1580.1,1360.19 1580.1,186.464 
  "/>
<polyline clip-path="url(#clip223)" style="stroke:#000000; stroke-linecap:butt; stroke-linejoin:round; stroke-width:2; stroke-opacity:0.1; fill:none" points="
  1748.93,1360.19 1748.93,186.464 
  "/>
<polyline clip-path="url(#clip223)" style="stroke:#000000; stroke-linecap:butt; stroke-linejoin:round; stroke-width:2; stroke-opacity:0.1; fill:none" points="
  1917.77,1360.19 1917.77,186.464 
  "/>
<polyline clip-path="url(#clip223)" style="stroke:#000000; stroke-linecap:butt; stroke-linejoin:round; stroke-width:2; stroke-opacity:0.1; fill:none" points="
  2086.61,1360.19 2086.61,186.464 
  "/>
<polyline clip-path="url(#clip223)" style="stroke:#000000; stroke-linecap:butt; stroke-linejoin:round; stroke-width:2; stroke-opacity:0.1; fill:none" points="
  2255.45,1360.19 2255.45,186.464 
  "/>
<polyline clip-path="url(#clip220)" style="stroke:#000000; stroke-linecap:butt; stroke-linejoin:round; stroke-width:4; stroke-opacity:1; fill:none" points="
  1465.22,1360.19 2289.76,1360.19 
  "/>
<polyline clip-path="url(#clip220)" style="stroke:#000000; stroke-linecap:butt; stroke-linejoin:round; stroke-width:4; stroke-opacity:1; fill:none" points="
  1580.1,1360.19 1580.1,1341.29 
  "/>
<polyline clip-path="url(#clip220)" style="stroke:#000000; stroke-linecap:butt; stroke-linejoin:round; stroke-width:4; stroke-opacity:1; fill:none" points="
  1748.93,1360.19 1748.93,1341.29 
  "/>
<polyline clip-path="url(#clip220)" style="stroke:#000000; stroke-linecap:butt; stroke-linejoin:round; stroke-width:4; stroke-opacity:1; fill:none" points="
  1917.77,1360.19 1917.77,1341.29 
  "/>
<polyline clip-path="url(#clip220)" style="stroke:#000000; stroke-linecap:butt; stroke-linejoin:round; stroke-width:4; stroke-opacity:1; fill:none" points="
  2086.61,1360.19 2086.61,1341.29 
  "/>
<polyline clip-path="url(#clip220)" style="stroke:#000000; stroke-linecap:butt; stroke-linejoin:round; stroke-width:4; stroke-opacity:1; fill:none" points="
  2255.45,1360.19 2255.45,1341.29 
  "/>
<path clip-path="url(#clip220)" d="M1558.87 1418.65 L1575.19 1418.65 L1575.19 1422.59 L1553.24 1422.59 L1553.24 1418.65 Q1555.91 1415.9 1560.49 1411.27 Q1565.1 1406.62 1566.28 1405.27 Q1568.52 1402.75 1569.4 1401.01 Q1570.3 1399.25 1570.3 1397.56 Q1570.3 1394.81 1568.36 1393.07 Q1566.44 1391.34 1563.34 1391.34 Q1561.14 1391.34 1558.68 1392.1 Q1556.25 1392.87 1553.48 1394.42 L1553.48 1389.69 Q1556.3 1388.56 1558.75 1387.98 Q1561.21 1387.4 1563.24 1387.4 Q1568.61 1387.4 1571.81 1390.09 Q1575 1392.77 1575 1397.26 Q1575 1399.39 1574.19 1401.31 Q1573.41 1403.21 1571.3 1405.81 Q1570.72 1406.48 1567.62 1409.69 Q1564.52 1412.89 1558.87 1418.65 Z" fill="#000000" fill-rule="evenodd" fill-opacity="1" /><path clip-path="url(#clip220)" d="M1595 1391.11 Q1591.39 1391.11 1589.56 1394.67 Q1587.76 1398.21 1587.76 1405.34 Q1587.76 1412.45 1589.56 1416.01 Q1591.39 1419.56 1595 1419.56 Q1598.64 1419.56 1600.44 1416.01 Q1602.27 1412.45 1602.27 1405.34 Q1602.27 1398.21 1600.44 1394.67 Q1598.64 1391.11 1595 1391.11 M1595 1387.4 Q1600.81 1387.4 1603.87 1392.01 Q1606.95 1396.59 1606.95 1405.34 Q1606.95 1414.07 1603.87 1418.68 Q1600.81 1423.26 1595 1423.26 Q1589.19 1423.26 1586.11 1418.68 Q1583.06 1414.07 1583.06 1405.34 Q1583.06 1396.59 1586.11 1392.01 Q1589.19 1387.4 1595 1387.4 Z" fill="#000000" fill-rule="evenodd" fill-opacity="1" /><path clip-path="url(#clip220)" d="M1737.11 1392.1 L1725.3 1410.55 L1737.11 1410.55 L1737.11 1392.1 M1735.88 1388.03 L1741.76 1388.03 L1741.76 1410.55 L1746.69 1410.55 L1746.69 1414.44 L1741.76 1414.44 L1741.76 1422.59 L1737.11 1422.59 L1737.11 1414.44 L1721.5 1414.44 L1721.5 1409.93 L1735.88 1388.03 Z" fill="#000000" fill-rule="evenodd" fill-opacity="1" /><path clip-path="url(#clip220)" d="M1764.42 1391.11 Q1760.81 1391.11 1758.98 1394.67 Q1757.18 1398.21 1757.18 1405.34 Q1757.18 1412.45 1758.98 1416.01 Q1760.81 1419.56 1764.42 1419.56 Q1768.06 1419.56 1769.86 1416.01 Q1771.69 1412.45 1771.69 1405.34 Q1771.69 1398.21 1769.86 1394.67 Q1768.06 1391.11 1764.42 1391.11 M1764.42 1387.4 Q1770.23 1387.4 1773.29 1392.01 Q1776.37 1396.59 1776.37 1405.34 Q1776.37 1414.07 1773.29 1418.68 Q1770.23 1423.26 1764.42 1423.26 Q1758.61 1423.26 1755.53 1418.68 Q1752.48 1414.07 1752.48 1405.34 Q1752.48 1396.59 1755.53 1392.01 Q1758.61 1387.4 1764.42 1387.4 Z" fill="#000000" fill-rule="evenodd" fill-opacity="1" /><path clip-path="url(#clip220)" d="M1903.18 1403.44 Q1900.03 1403.44 1898.18 1405.6 Q1896.35 1407.75 1896.35 1411.5 Q1896.35 1415.23 1898.18 1417.4 Q1900.03 1419.56 1903.18 1419.56 Q1906.33 1419.56 1908.16 1417.4 Q1910.01 1415.23 1910.01 1411.5 Q1910.01 1407.75 1908.16 1405.6 Q1906.33 1403.44 1903.18 1403.44 M1912.46 1388.79 L1912.46 1393.05 Q1910.7 1392.22 1908.9 1391.78 Q1907.11 1391.34 1905.36 1391.34 Q1900.73 1391.34 1898.27 1394.46 Q1895.84 1397.59 1895.49 1403.91 Q1896.86 1401.89 1898.92 1400.83 Q1900.98 1399.74 1903.46 1399.74 Q1908.67 1399.74 1911.67 1402.91 Q1914.71 1406.06 1914.71 1411.5 Q1914.71 1416.82 1911.56 1420.04 Q1908.41 1423.26 1903.18 1423.26 Q1897.18 1423.26 1894.01 1418.68 Q1890.84 1414.07 1890.84 1405.34 Q1890.84 1397.15 1894.73 1392.29 Q1898.62 1387.4 1905.17 1387.4 Q1906.93 1387.4 1908.71 1387.75 Q1910.52 1388.1 1912.46 1388.79 Z" fill="#000000" fill-rule="evenodd" fill-opacity="1" /><path clip-path="url(#clip220)" d="M1932.76 1391.11 Q1929.15 1391.11 1927.32 1394.67 Q1925.52 1398.21 1925.52 1405.34 Q1925.52 1412.45 1927.32 1416.01 Q1929.15 1419.56 1932.76 1419.56 Q1936.4 1419.56 1938.2 1416.01 Q1940.03 1412.45 1940.03 1405.34 Q1940.03 1398.21 1938.2 1394.67 Q1936.4 1391.11 1932.76 1391.11 M1932.76 1387.4 Q1938.57 1387.4 1941.63 1392.01 Q1944.71 1396.59 1944.71 1405.34 Q1944.71 1414.07 1941.63 1418.68 Q1938.57 1423.26 1932.76 1423.26 Q1926.95 1423.26 1923.87 1418.68 Q1920.82 1414.07 1920.82 1405.34 Q1920.82 1396.59 1923.87 1392.01 Q1926.95 1387.4 1932.76 1387.4 Z" fill="#000000" fill-rule="evenodd" fill-opacity="1" /><path clip-path="url(#clip220)" d="M2071.49 1406.18 Q2068.15 1406.18 2066.23 1407.96 Q2064.33 1409.74 2064.33 1412.87 Q2064.33 1415.99 2066.23 1417.77 Q2068.15 1419.56 2071.49 1419.56 Q2074.82 1419.56 2076.74 1417.77 Q2078.66 1415.97 2078.66 1412.87 Q2078.66 1409.74 2076.74 1407.96 Q2074.84 1406.18 2071.49 1406.18 M2066.81 1404.19 Q2063.8 1403.44 2062.11 1401.38 Q2060.44 1399.32 2060.44 1396.36 Q2060.44 1392.22 2063.38 1389.81 Q2066.35 1387.4 2071.49 1387.4 Q2076.65 1387.4 2079.59 1389.81 Q2082.53 1392.22 2082.53 1396.36 Q2082.53 1399.32 2080.84 1401.38 Q2079.17 1403.44 2076.19 1404.19 Q2079.57 1404.97 2081.44 1407.26 Q2083.34 1409.56 2083.34 1412.87 Q2083.34 1417.89 2080.26 1420.57 Q2077.2 1423.26 2071.49 1423.26 Q2065.77 1423.26 2062.69 1420.57 Q2059.63 1417.89 2059.63 1412.87 Q2059.63 1409.56 2061.53 1407.26 Q2063.43 1404.97 2066.81 1404.19 M2065.1 1396.8 Q2065.1 1399.49 2066.76 1400.99 Q2068.45 1402.5 2071.49 1402.5 Q2074.5 1402.5 2076.19 1400.99 Q2077.9 1399.49 2077.9 1396.8 Q2077.9 1394.12 2076.19 1392.61 Q2074.5 1391.11 2071.49 1391.11 Q2068.45 1391.11 2066.76 1392.61 Q2065.1 1394.12 2065.1 1396.8 Z" fill="#000000" fill-rule="evenodd" fill-opacity="1" /><path clip-path="url(#clip220)" d="M2101.65 1391.11 Q2098.04 1391.11 2096.21 1394.67 Q2094.4 1398.21 2094.4 1405.34 Q2094.4 1412.45 2096.21 1416.01 Q2098.04 1419.56 2101.65 1419.56 Q2105.28 1419.56 2107.09 1416.01 Q2108.92 1412.45 2108.92 1405.34 Q2108.92 1398.21 2107.09 1394.67 Q2105.28 1391.11 2101.65 1391.11 M2101.65 1387.4 Q2107.46 1387.4 2110.51 1392.01 Q2113.59 1396.59 2113.59 1405.34 Q2113.59 1414.07 2110.51 1418.68 Q2107.46 1423.26 2101.65 1423.26 Q2095.84 1423.26 2092.76 1418.68 Q2089.7 1414.07 2089.7 1405.34 Q2089.7 1396.59 2092.76 1392.01 Q2095.84 1387.4 2101.65 1387.4 Z" fill="#000000" fill-rule="evenodd" fill-opacity="1" /><path clip-path="url(#clip220)" d="M2215.06 1418.65 L2222.7 1418.65 L2222.7 1392.29 L2214.39 1393.95 L2214.39 1389.69 L2222.65 1388.03 L2227.33 1388.03 L2227.33 1418.65 L2234.97 1418.65 L2234.97 1422.59 L2215.06 1422.59 L2215.06 1418.65 Z" fill="#000000" fill-rule="evenodd" fill-opacity="1" /><path clip-path="url(#clip220)" d="M2254.41 1391.11 Q2250.8 1391.11 2248.97 1394.67 Q2247.17 1398.21 2247.17 1405.34 Q2247.17 1412.45 2248.97 1416.01 Q2250.8 1419.56 2254.41 1419.56 Q2258.05 1419.56 2259.85 1416.01 Q2261.68 1412.45 2261.68 1405.34 Q2261.68 1398.21 2259.85 1394.67 Q2258.05 1391.11 2254.41 1391.11 M2254.41 1387.4 Q2260.22 1387.4 2263.28 1392.01 Q2266.36 1396.59 2266.36 1405.34 Q2266.36 1414.07 2263.28 1418.68 Q2260.22 1423.26 2254.41 1423.26 Q2248.6 1423.26 2245.52 1418.68 Q2242.47 1414.07 2242.47 1405.34 Q2242.47 1396.59 2245.52 1392.01 Q2248.6 1387.4 2254.41 1387.4 Z" fill="#000000" fill-rule="evenodd" fill-opacity="1" /><path clip-path="url(#clip220)" d="M2284.57 1391.11 Q2280.96 1391.11 2279.13 1394.67 Q2277.33 1398.21 2277.33 1405.34 Q2277.33 1412.45 2279.13 1416.01 Q2280.96 1419.56 2284.57 1419.56 Q2288.21 1419.56 2290.01 1416.01 Q2291.84 1412.45 2291.84 1405.34 Q2291.84 1398.21 2290.01 1394.67 Q2288.21 1391.11 2284.57 1391.11 M2284.57 1387.4 Q2290.38 1387.4 2293.44 1392.01 Q2296.52 1396.59 2296.52 1405.34 Q2296.52 1414.07 2293.44 1418.68 Q2290.38 1423.26 2284.57 1423.26 Q2278.76 1423.26 2275.68 1418.68 Q2272.63 1414.07 2272.63 1405.34 Q2272.63 1396.59 2275.68 1392.01 Q2278.76 1387.4 2284.57 1387.4 Z" fill="#000000" fill-rule="evenodd" fill-opacity="1" /><path clip-path="url(#clip220)" d="M1775.62 1499.7 L1775.62 1518.61 L1769.74 1518.61 L1769.74 1469.4 L1775.62 1469.4 L1775.62 1474.81 Q1777.47 1471.63 1780.27 1470.1 Q1783.1 1468.54 1787.02 1468.54 Q1793.51 1468.54 1797.55 1473.7 Q1801.63 1478.86 1801.63 1487.26 Q1801.63 1495.66 1797.55 1500.82 Q1793.51 1505.97 1787.02 1505.97 Q1783.1 1505.97 1780.27 1504.45 Q1777.47 1502.89 1775.62 1499.7 M1795.55 1487.26 Q1795.55 1480.8 1792.88 1477.14 Q1790.23 1473.45 1785.59 1473.45 Q1780.94 1473.45 1778.27 1477.14 Q1775.62 1480.8 1775.62 1487.26 Q1775.62 1493.72 1778.27 1497.41 Q1780.94 1501.07 1785.59 1501.07 Q1790.23 1501.07 1792.88 1497.41 Q1795.55 1493.72 1795.55 1487.26 Z" fill="#000000" fill-rule="evenodd" fill-opacity="1" /><path clip-path="url(#clip220)" d="M1846.12 1455.59 Q1841.86 1462.91 1839.79 1470.07 Q1837.72 1477.23 1837.72 1484.59 Q1837.72 1491.94 1839.79 1499.16 Q1841.89 1506.36 1846.12 1513.65 L1841.03 1513.65 Q1836.26 1506.17 1833.87 1498.94 Q1831.52 1491.72 1831.52 1484.59 Q1831.52 1477.49 1833.87 1470.29 Q1836.23 1463.1 1841.03 1455.59 L1846.12 1455.59 Z" fill="#000000" fill-rule="evenodd" fill-opacity="1" /><path clip-path="url(#clip220)" d="M1857.26 1455.53 L1863.15 1455.53 L1863.15 1484.78 L1880.63 1469.4 L1888.11 1469.4 L1869.2 1486.08 L1888.9 1505.05 L1881.26 1505.05 L1863.15 1487.64 L1863.15 1505.05 L1857.26 1505.05 L1857.26 1455.53 Z" fill="#000000" fill-rule="evenodd" fill-opacity="1" /><path clip-path="url(#clip220)" d="M1901.92 1462.82 L1901.92 1480.67 L1910 1480.67 Q1914.49 1480.67 1916.94 1478.35 Q1919.39 1476.02 1919.39 1471.73 Q1919.39 1467.46 1916.94 1465.14 Q1914.49 1462.82 1910 1462.82 L1901.92 1462.82 M1895.49 1457.53 L1910 1457.53 Q1917.99 1457.53 1922.07 1461.16 Q1926.17 1464.76 1926.17 1471.73 Q1926.17 1478.76 1922.07 1482.36 Q1917.99 1485.95 1910 1485.95 L1901.92 1485.95 L1901.92 1505.05 L1895.49 1505.05 L1895.49 1457.53 Z" fill="#000000" fill-rule="evenodd" fill-opacity="1" /><path clip-path="url(#clip220)" d="M1947.82 1487.13 Q1940.72 1487.13 1937.98 1488.76 Q1935.24 1490.38 1935.24 1494.29 Q1935.24 1497.41 1937.28 1499.26 Q1939.35 1501.07 1942.88 1501.07 Q1947.75 1501.07 1950.68 1497.64 Q1953.64 1494.17 1953.64 1488.44 L1953.64 1487.13 L1947.82 1487.13 M1959.5 1484.71 L1959.5 1505.05 L1953.64 1505.05 L1953.64 1499.64 Q1951.64 1502.89 1948.64 1504.45 Q1945.65 1505.97 1941.32 1505.97 Q1935.85 1505.97 1932.6 1502.92 Q1929.39 1499.83 1929.39 1494.68 Q1929.39 1488.66 1933.4 1485.6 Q1937.44 1482.55 1945.43 1482.55 L1953.64 1482.55 L1953.64 1481.98 Q1953.64 1477.93 1950.97 1475.74 Q1948.33 1473.51 1943.52 1473.51 Q1940.46 1473.51 1937.57 1474.24 Q1934.67 1474.97 1932 1476.44 L1932 1471.03 Q1935.21 1469.79 1938.24 1469.18 Q1941.26 1468.54 1944.12 1468.54 Q1951.86 1468.54 1955.68 1472.55 Q1959.5 1476.57 1959.5 1484.71 Z" fill="#000000" fill-rule="evenodd" fill-opacity="1" /><path clip-path="url(#clip220)" d="M1970.64 1455.59 L1975.73 1455.59 Q1980.5 1463.1 1982.86 1470.29 Q1985.25 1477.49 1985.25 1484.59 Q1985.25 1491.72 1982.86 1498.94 Q1980.5 1506.17 1975.73 1513.65 L1970.64 1513.65 Q1974.87 1506.36 1976.94 1499.16 Q1979.04 1491.94 1979.04 1484.59 Q1979.04 1477.23 1976.94 1470.07 Q1974.87 1462.91 1970.64 1455.59 Z" fill="#000000" fill-rule="evenodd" fill-opacity="1" /><polyline clip-path="url(#clip223)" style="stroke:#000000; stroke-linecap:butt; stroke-linejoin:round; stroke-width:2; stroke-opacity:0.1; fill:none" points="
  1465.22,1326.97 2289.76,1326.97 
  "/>
<polyline clip-path="url(#clip223)" style="stroke:#000000; stroke-linecap:butt; stroke-linejoin:round; stroke-width:2; stroke-opacity:0.1; fill:none" points="
  1465.22,1001.3 2289.76,1001.3 
  "/>
<polyline clip-path="url(#clip223)" style="stroke:#000000; stroke-linecap:butt; stroke-linejoin:round; stroke-width:2; stroke-opacity:0.1; fill:none" points="
  1465.22,675.624 2289.76,675.624 
  "/>
<polyline clip-path="url(#clip223)" style="stroke:#000000; stroke-linecap:butt; stroke-linejoin:round; stroke-width:2; stroke-opacity:0.1; fill:none" points="
  1465.22,349.952 2289.76,349.952 
  "/>
<polyline clip-path="url(#clip220)" style="stroke:#000000; stroke-linecap:butt; stroke-linejoin:round; stroke-width:4; stroke-opacity:1; fill:none" points="
  1465.22,1360.19 1465.22,186.464 
  "/>
<polyline clip-path="url(#clip220)" style="stroke:#000000; stroke-linecap:butt; stroke-linejoin:round; stroke-width:4; stroke-opacity:1; fill:none" points="
  1465.22,1326.97 1484.12,1326.97 
  "/>
<polyline clip-path="url(#clip220)" style="stroke:#000000; stroke-linecap:butt; stroke-linejoin:round; stroke-width:4; stroke-opacity:1; fill:none" points="
  1465.22,1001.3 1484.12,1001.3 
  "/>
<polyline clip-path="url(#clip220)" style="stroke:#000000; stroke-linecap:butt; stroke-linejoin:round; stroke-width:4; stroke-opacity:1; fill:none" points="
  1465.22,675.624 1484.12,675.624 
  "/>
<polyline clip-path="url(#clip220)" style="stroke:#000000; stroke-linecap:butt; stroke-linejoin:round; stroke-width:4; stroke-opacity:1; fill:none" points="
  1465.22,349.952 1484.12,349.952 
  "/>
<path clip-path="url(#clip220)" d="M1417.28 1312.77 Q1413.66 1312.77 1411.84 1316.33 Q1410.03 1319.87 1410.03 1327 Q1410.03 1334.11 1411.84 1337.68 Q1413.66 1341.22 1417.28 1341.22 Q1420.91 1341.22 1422.72 1337.68 Q1424.54 1334.11 1424.54 1327 Q1424.54 1319.87 1422.72 1316.33 Q1420.91 1312.77 1417.28 1312.77 M1417.28 1309.06 Q1423.09 1309.06 1426.14 1313.67 Q1429.22 1318.25 1429.22 1327 Q1429.22 1335.73 1426.14 1340.34 Q1423.09 1344.92 1417.28 1344.92 Q1411.47 1344.92 1408.39 1340.34 Q1405.33 1335.73 1405.33 1327 Q1405.33 1318.25 1408.39 1313.67 Q1411.47 1309.06 1417.28 1309.06 Z" fill="#000000" fill-rule="evenodd" fill-opacity="1" /><path clip-path="url(#clip220)" d="M1408.32 984.017 L1426.67 984.017 L1426.67 987.952 L1412.6 987.952 L1412.6 996.424 Q1413.62 996.077 1414.64 995.915 Q1415.65 995.73 1416.67 995.73 Q1422.46 995.73 1425.84 998.901 Q1429.22 1002.07 1429.22 1007.49 Q1429.22 1013.07 1425.75 1016.17 Q1422.28 1019.25 1415.96 1019.25 Q1413.78 1019.25 1411.51 1018.88 Q1409.27 1018.51 1406.86 1017.77 L1406.86 1013.07 Q1408.94 1014.2 1411.16 1014.76 Q1413.39 1015.31 1415.86 1015.31 Q1419.87 1015.31 1422.21 1013.21 Q1424.54 1011.1 1424.54 1007.49 Q1424.54 1003.88 1422.21 1001.77 Q1419.87 999.665 1415.86 999.665 Q1413.99 999.665 1412.11 1000.08 Q1410.26 1000.5 1408.32 1001.38 L1408.32 984.017 Z" fill="#000000" fill-rule="evenodd" fill-opacity="1" /><path clip-path="url(#clip220)" d="M1377.92 688.969 L1385.56 688.969 L1385.56 662.603 L1377.25 664.27 L1377.25 660.011 L1385.52 658.344 L1390.19 658.344 L1390.19 688.969 L1397.83 688.969 L1397.83 692.904 L1377.92 692.904 L1377.92 688.969 Z" fill="#000000" fill-rule="evenodd" fill-opacity="1" /><path clip-path="url(#clip220)" d="M1417.28 661.423 Q1413.66 661.423 1411.84 664.988 Q1410.03 668.529 1410.03 675.659 Q1410.03 682.765 1411.84 686.33 Q1413.66 689.872 1417.28 689.872 Q1420.91 689.872 1422.72 686.33 Q1424.54 682.765 1424.54 675.659 Q1424.54 668.529 1422.72 664.988 Q1420.91 661.423 1417.28 661.423 M1417.28 657.719 Q1423.09 657.719 1426.14 662.326 Q1429.22 666.909 1429.22 675.659 Q1429.22 684.386 1426.14 688.992 Q1423.09 693.576 1417.28 693.576 Q1411.47 693.576 1408.39 688.992 Q1405.33 684.386 1405.33 675.659 Q1405.33 666.909 1408.39 662.326 Q1411.47 657.719 1417.28 657.719 Z" fill="#000000" fill-rule="evenodd" fill-opacity="1" /><path clip-path="url(#clip220)" d="M1378.92 363.297 L1386.56 363.297 L1386.56 336.931 L1378.25 338.598 L1378.25 334.338 L1386.51 332.672 L1391.19 332.672 L1391.19 363.297 L1398.83 363.297 L1398.83 367.232 L1378.92 367.232 L1378.92 363.297 Z" fill="#000000" fill-rule="evenodd" fill-opacity="1" /><path clip-path="url(#clip220)" d="M1408.32 332.672 L1426.67 332.672 L1426.67 336.607 L1412.6 336.607 L1412.6 345.079 Q1413.62 344.732 1414.64 344.57 Q1415.65 344.385 1416.67 344.385 Q1422.46 344.385 1425.84 347.556 Q1429.22 350.727 1429.22 356.144 Q1429.22 361.723 1425.75 364.824 Q1422.28 367.903 1415.96 367.903 Q1413.78 367.903 1411.51 367.533 Q1409.27 367.162 1406.86 366.422 L1406.86 361.723 Q1408.94 362.857 1411.16 363.412 Q1413.39 363.968 1415.86 363.968 Q1419.87 363.968 1422.21 361.861 Q1424.54 359.755 1424.54 356.144 Q1424.54 352.533 1422.21 350.426 Q1419.87 348.32 1415.86 348.32 Q1413.99 348.32 1412.11 348.737 Q1410.26 349.153 1408.32 350.033 L1408.32 332.672 Z" fill="#000000" fill-rule="evenodd" fill-opacity="1" /><path clip-path="url(#clip220)" d="M1291.35 871.851 L1291.35 844.033 L1296.7 844.033 L1322.32 866.058 L1322.32 844.033 L1327 844.033 L1327 872.647 L1321.65 872.647 L1296.03 850.622 L1296.03 871.851 L1291.35 871.851 Z" fill="#000000" fill-rule="evenodd" fill-opacity="1" /><path clip-path="url(#clip220)" d="M1277.53 800.301 Q1284.86 804.566 1292.02 806.635 Q1299.18 808.703 1306.53 808.703 Q1313.88 808.703 1321.11 806.635 Q1328.3 804.534 1335.59 800.301 L1335.59 805.393 Q1328.11 810.168 1320.89 812.555 Q1313.66 814.91 1306.53 814.91 Q1299.43 814.91 1292.24 812.555 Q1285.05 810.199 1277.53 805.393 L1277.53 800.301 Z" fill="#000000" fill-rule="evenodd" fill-opacity="1" /><path clip-path="url(#clip220)" d="M1277.47 789.161 L1277.47 783.272 L1306.72 783.272 L1291.35 765.799 L1291.35 758.319 L1308.03 777.225 L1327 757.523 L1327 765.162 L1309.59 783.272 L1327 783.272 L1327 789.161 L1277.47 789.161 Z" fill="#000000" fill-rule="evenodd" fill-opacity="1" /><path clip-path="url(#clip220)" d="M1298.19 723.435 Q1294.24 721.239 1292.37 718.183 Q1290.49 715.128 1290.49 710.99 Q1290.49 705.42 1294.4 702.396 Q1298.29 699.372 1305.48 699.372 L1327 699.372 L1327 705.261 L1305.67 705.261 Q1300.55 705.261 1298.06 707.075 Q1295.58 708.889 1295.58 712.613 Q1295.58 717.165 1298.61 719.806 Q1301.63 722.448 1306.85 722.448 L1327 722.448 L1327 728.336 L1305.67 728.336 Q1300.51 728.336 1298.06 730.151 Q1295.58 731.965 1295.58 735.752 Q1295.58 740.24 1298.64 742.882 Q1301.66 745.524 1306.85 745.524 L1327 745.524 L1327 751.412 L1291.35 751.412 L1291.35 745.524 L1296.89 745.524 Q1293.61 743.519 1292.05 740.718 Q1290.49 737.917 1290.49 734.065 Q1290.49 730.182 1292.46 727.477 Q1294.44 724.74 1298.19 723.435 Z" fill="#000000" fill-rule="evenodd" fill-opacity="1" /><path clip-path="url(#clip220)" d="M1277.53 688.614 L1277.53 683.522 Q1285.05 678.747 1292.24 676.392 Q1299.43 674.005 1306.53 674.005 Q1313.66 674.005 1320.89 676.392 Q1328.11 678.747 1335.59 683.522 L1335.59 688.614 Q1328.3 684.381 1321.11 682.312 Q1313.88 680.212 1306.53 680.212 Q1299.18 680.212 1292.02 682.312 Q1284.86 684.381 1277.53 688.614 Z" fill="#000000" fill-rule="evenodd" fill-opacity="1" /><path clip-path="url(#clip220)" d="M1747.84 65.7705 L1747.84 89.8329 L1740.35 89.8329 L1740.35 27.2059 L1747.84 27.2059 L1747.84 34.0924 Q1750.19 30.0415 1753.76 28.0971 Q1757.36 26.1121 1762.34 26.1121 Q1770.61 26.1121 1775.75 32.6746 Q1780.94 39.2371 1780.94 49.9314 Q1780.94 60.6258 1775.75 67.1883 Q1770.61 73.7508 1762.34 73.7508 Q1757.36 73.7508 1753.76 71.8063 Q1750.19 69.8214 1747.84 65.7705 M1773.2 49.9314 Q1773.2 41.7081 1769.8 37.0496 Q1766.44 32.3505 1760.52 32.3505 Q1754.61 32.3505 1751.2 37.0496 Q1747.84 41.7081 1747.84 49.9314 Q1747.84 58.1548 1751.2 62.8538 Q1754.61 67.5124 1760.52 67.5124 Q1766.44 67.5124 1769.8 62.8538 Q1773.2 58.1548 1773.2 49.9314 Z" fill="#000000" fill-rule="evenodd" fill-opacity="1" /><path clip-path="url(#clip220)" d="M1837.57 9.62495 Q1832.14 18.942 1829.51 28.0566 Q1826.88 37.1711 1826.88 46.5287 Q1826.88 55.8863 1829.51 65.0818 Q1832.18 74.2369 1837.57 83.5134 L1831.09 83.5134 Q1825.01 73.9938 1821.97 64.7983 Q1818.98 55.6027 1818.98 46.5287 Q1818.98 37.4952 1821.97 28.3401 Q1824.97 19.1851 1831.09 9.62495 L1837.57 9.62495 Z" fill="#000000" fill-rule="evenodd" fill-opacity="1" /><path clip-path="url(#clip220)" d="M1851.75 9.54393 L1859.24 9.54393 L1859.24 46.7717 L1881.48 27.2059 L1891 27.2059 L1866.94 48.4326 L1892.01 72.576 L1882.29 72.576 L1859.24 50.4176 L1859.24 72.576 L1851.75 72.576 L1851.75 9.54393 Z" fill="#000000" fill-rule="evenodd" fill-opacity="1" /><path clip-path="url(#clip220)" d="M1908.58 18.8205 L1908.58 41.5461 L1918.87 41.5461 Q1924.58 41.5461 1927.7 38.5889 Q1930.82 35.6318 1930.82 30.163 Q1930.82 24.7348 1927.7 21.7777 Q1924.58 18.8205 1918.87 18.8205 L1908.58 18.8205 M1900.4 12.096 L1918.87 12.096 Q1929.04 12.096 1934.22 16.714 Q1939.45 21.2916 1939.45 30.163 Q1939.45 39.1155 1934.22 43.6931 Q1929.04 48.2706 1918.87 48.2706 L1908.58 48.2706 L1908.58 72.576 L1900.4 72.576 L1900.4 12.096 Z" fill="#000000" fill-rule="evenodd" fill-opacity="1" /><path clip-path="url(#clip220)" d="M1967 49.7694 Q1957.96 49.7694 1954.48 51.8354 Q1951 53.9013 1951 58.8839 Q1951 62.8538 1953.59 65.2034 Q1956.22 67.5124 1960.72 67.5124 Q1966.92 67.5124 1970.64 63.1374 Q1974.41 58.7219 1974.41 51.4303 L1974.41 49.7694 L1967 49.7694 M1981.86 46.6907 L1981.86 72.576 L1974.41 72.576 L1974.41 65.6895 Q1971.86 69.8214 1968.05 71.8063 Q1964.24 73.7508 1958.73 73.7508 Q1951.77 73.7508 1947.63 69.8619 Q1943.54 65.9325 1943.54 59.3701 Q1943.54 51.7138 1948.65 47.825 Q1953.79 43.9361 1963.96 43.9361 L1974.41 43.9361 L1974.41 43.2069 Q1974.41 38.0623 1971.01 35.2672 Q1967.64 32.4315 1961.53 32.4315 Q1957.64 32.4315 1953.95 33.3632 Q1950.27 34.295 1946.86 36.1584 L1946.86 29.2718 Q1950.95 27.692 1954.8 26.9223 Q1958.65 26.1121 1962.3 26.1121 Q1972.14 26.1121 1977 31.2163 Q1981.86 36.3204 1981.86 46.6907 Z" fill="#000000" fill-rule="evenodd" fill-opacity="1" /><path clip-path="url(#clip220)" d="M1996.04 9.62495 L2002.52 9.62495 Q2008.6 19.1851 2011.6 28.3401 Q2014.64 37.4952 2014.64 46.5287 Q2014.64 55.6027 2011.6 64.7983 Q2008.6 73.9938 2002.52 83.5134 L1996.04 83.5134 Q2001.43 74.2369 2004.06 65.0818 Q2006.74 55.8863 2006.74 46.5287 Q2006.74 37.1711 2004.06 28.0566 Q2001.43 18.942 1996.04 9.62495 Z" fill="#000000" fill-rule="evenodd" fill-opacity="1" /><polyline clip-path="url(#clip223)" style="stroke:#009af9; stroke-linecap:butt; stroke-linejoin:round; stroke-width:4; stroke-opacity:1; fill:none" points="
  2262.32,1324.2 2254.16,1318.66 2246.05,1313.13 2238,1307.59 2230,1302.06 2222.06,1296.52 2214.17,1290.98 2206.35,1285.45 2198.59,1279.91 2190.9,1274.37 
  2183.27,1268.84 2175.7,1263.3 2168.2,1257.76 2160.76,1252.23 2153.38,1246.69 2146.06,1241.15 2138.8,1235.62 2131.61,1230.08 2124.47,1224.55 2117.4,1219.01 
  2110.38,1213.47 2103.42,1207.94 2096.52,1202.4 2089.68,1196.86 2082.89,1191.33 2076.17,1185.79 2069.5,1180.25 2062.88,1174.72 2056.32,1169.18 2049.82,1163.64 
  2043.37,1158.11 2036.98,1152.57 2030.64,1147.04 2024.36,1141.5 2018.13,1135.96 2011.95,1130.43 2005.82,1124.89 1999.75,1119.35 1993.73,1113.82 1987.76,1108.28 
  1981.85,1102.74 1975.98,1097.21 1970.16,1091.67 1964.4,1086.13 1958.68,1080.6 1953.01,1075.06 1947.4,1069.53 1941.83,1063.99 1936.31,1058.45 1930.83,1052.92 
  1925.41,1047.38 1920.03,1041.84 1914.7,1036.31 1909.41,1030.77 1904.17,1025.23 1898.98,1019.7 1893.83,1014.16 1888.73,1008.62 1883.67,1003.09 1878.66,997.551 
  1873.69,992.015 1868.77,986.479 1863.88,980.942 1859.05,975.406 1854.25,969.869 1849.5,964.333 1844.79,958.796 1840.12,953.26 1835.5,947.724 1830.91,942.187 
  1826.37,936.651 1821.87,931.114 1817.4,925.578 1812.98,920.041 1808.6,914.505 1804.26,908.969 1799.96,903.432 1795.69,897.896 1791.47,892.359 1787.28,886.823 
  1783.13,881.286 1779.02,875.75 1774.95,870.214 1770.91,864.677 1766.92,859.141 1762.95,853.604 1759.03,848.068 1755.14,842.531 1751.28,836.995 1747.47,831.459 
  1743.68,825.922 1739.93,820.386 1736.22,814.849 1732.54,809.313 1728.9,803.776 1725.28,798.24 1721.71,792.703 1718.16,787.167 1714.65,781.631 1711.17,776.094 
  1707.72,770.558 1704.31,765.021 1700.92,759.485 1697.57,753.948 1694.25,748.412 1690.96,742.876 1687.71,737.339 1684.48,731.803 1681.28,726.266 1678.11,720.73 
  1674.98,715.193 1671.87,709.657 1668.79,704.121 1665.74,698.584 1662.72,693.048 1659.73,687.511 1656.76,681.975 1653.83,676.438 1650.92,670.902 1648.04,665.366 
  1645.19,659.829 1642.36,654.293 1639.56,648.756 1636.79,643.22 1634.04,637.683 1631.32,632.147 1628.63,626.611 1625.96,621.074 1623.31,615.538 1620.7,610.001 
  1618.1,604.465 1615.54,598.928 1612.99,593.392 1610.47,587.856 1607.98,582.319 1605.51,576.783 1603.06,571.246 1600.64,565.71 1598.24,560.173 1595.86,554.637 
  1593.51,549.101 1591.17,543.564 1588.86,538.028 1586.57,532.491 1584.31,526.955 1582.06,521.418 1579.84,515.882 1577.63,510.345 1575.45,504.809 1573.29,499.273 
  1571.15,493.736 1569.03,488.2 1566.93,482.663 1564.86,477.127 1562.8,471.59 1560.76,466.054 1558.74,460.518 1556.75,454.981 1554.77,449.445 1552.81,443.908 
  1550.87,438.372 1548.95,432.835 1547.05,427.299 1545.17,421.763 1543.31,416.226 1541.47,410.69 1539.64,405.153 1537.84,399.617 1536.05,394.08 1534.28,388.544 
  1532.53,383.008 1530.8,377.471 1529.08,371.935 1527.39,366.398 1525.71,360.862 1524.05,355.325 1522.41,349.789 1520.78,344.253 1519.17,338.716 1517.58,333.18 
  1516,327.643 1514.45,322.107 1512.91,316.57 1511.38,311.034 1509.88,305.498 1508.39,299.961 1506.91,294.425 1505.45,288.888 1504.01,283.352 1502.59,277.815 
  1501.18,272.279 1499.78,266.743 1498.4,261.206 1497.04,255.67 1495.69,250.133 1494.36,244.597 1493.04,239.06 1491.74,233.524 1490.46,227.987 1489.19,222.451 
  
  "/>
<polyline clip-path="url(#clip223)" style="stroke:#e26f46; stroke-linecap:butt; stroke-linejoin:round; stroke-width:4; stroke-opacity:1; fill:none" points="
  2266.43,1326.97 2258.23,1321.43 2250.1,1315.9 2242.01,1310.36 2233.99,1304.82 2226.02,1299.29 2218.1,1293.75 2210.25,1288.21 2202.46,1282.68 2194.74,1277.14 
  2187.08,1271.6 2179.48,1266.07 2171.94,1260.53 2164.47,1255 2157.06,1249.46 2149.71,1243.92 2142.43,1238.39 2135.2,1232.85 2128.03,1227.31 2120.93,1221.78 
  2113.88,1216.24 2106.89,1210.7 2099.96,1205.17 2093.09,1199.63 2086.28,1194.09 2079.52,1188.56 2072.82,1183.02 2066.18,1177.49 2059.6,1171.95 2053.06,1166.41 
  2046.59,1160.88 2040.17,1155.34 2033.8,1149.8 2027.49,1144.27 2021.24,1138.73 2015.03,1133.19 2008.88,1127.66 2002.78,1122.12 1996.74,1116.58 1990.74,1111.05 
  1984.8,1105.51 1978.91,1099.98 1973.06,1094.44 1967.27,1088.9 1961.53,1083.37 1955.84,1077.83 1950.2,1072.29 1944.6,1066.76 1939.06,1061.22 1933.56,1055.68 
  1928.11,1050.15 1922.71,1044.61 1917.36,1039.07 1912.05,1033.54 1906.79,1028 1901.57,1022.47 1896.4,1016.93 1891.28,1011.39 1886.2,1005.86 1881.16,1000.32 
  1876.17,994.783 1871.22,989.247 1866.32,983.71 1861.46,978.174 1856.64,972.638 1851.87,967.101 1847.14,961.565 1842.45,956.028 1837.8,950.492 1833.2,944.955 
  1828.63,939.419 1824.11,933.882 1819.63,928.346 1815.19,922.81 1810.79,917.273 1806.42,911.737 1802.1,906.2 1797.82,900.664 1793.58,895.127 1789.37,889.591 
  1785.2,884.055 1781.07,878.518 1776.98,872.982 1772.93,867.445 1768.91,861.909 1764.93,856.372 1760.99,850.836 1757.08,845.3 1753.21,839.763 1749.37,834.227 
  1745.57,828.69 1741.8,823.154 1738.07,817.617 1734.38,812.081 1730.71,806.545 1727.09,801.008 1723.49,795.472 1719.93,789.935 1716.4,784.399 1712.9,778.862 
  1709.44,773.326 1706.01,767.79 1702.61,762.253 1699.25,756.717 1695.91,751.18 1692.61,745.644 1689.33,740.107 1686.09,734.571 1682.88,729.035 1679.69,723.498 
  1676.54,717.962 1673.42,712.425 1670.33,706.889 1667.26,701.352 1664.23,695.816 1661.22,690.28 1658.24,684.743 1655.29,679.207 1652.37,673.67 1649.48,668.134 
  1646.61,662.597 1643.77,657.061 1640.96,651.524 1638.17,645.988 1635.41,640.452 1632.68,634.915 1629.97,629.379 1627.29,623.842 1624.63,618.306 1622,612.769 
  1619.4,607.233 1616.82,601.697 1614.26,596.16 1611.73,590.624 1609.22,585.087 1606.74,579.551 1604.28,574.014 1601.85,568.478 1599.44,562.942 1597.05,557.405 
  1594.68,551.869 1592.34,546.332 1590.01,540.796 1587.71,535.259 1585.44,529.723 1583.18,524.187 1580.94,518.65 1578.73,513.114 1576.54,507.577 1574.37,502.041 
  1572.22,496.504 1570.09,490.968 1567.98,485.432 1565.89,479.895 1563.82,474.359 1561.78,468.822 1559.75,463.286 1557.74,457.749 1555.75,452.213 1553.79,446.677 
  1551.84,441.14 1549.91,435.604 1548,430.067 1546.11,424.531 1544.24,418.994 1542.39,413.458 1540.55,407.922 1538.74,402.385 1536.94,396.849 1535.16,391.312 
  1533.4,385.776 1531.66,380.239 1529.94,374.703 1528.23,369.166 1526.55,363.63 1524.88,358.094 1523.22,352.557 1521.59,347.021 1519.97,341.484 1518.37,335.948 
  1516.79,330.411 1515.22,324.875 1513.68,319.339 1512.14,313.802 1510.63,308.266 1509.13,302.729 1507.65,297.193 1506.18,291.656 1504.73,286.12 1503.3,280.584 
  1501.88,275.047 1500.48,269.511 1499.09,263.974 1497.72,258.438 1496.37,252.901 1495.03,247.365 1493.7,241.829 1492.39,236.292 1491.1,230.756 1489.82,225.219 
  1488.56,219.683 
  "/>
<path clip-path="url(#clip220)" d="
M1998.37 381.108 L2262.28 381.108 L2262.28 225.588 L1998.37 225.588  Z
  " fill="#ffffff" fill-rule="evenodd" fill-opacity="1"/>
<polyline clip-path="url(#clip220)" style="stroke:#000000; stroke-linecap:butt; stroke-linejoin:round; stroke-width:4; stroke-opacity:1; fill:none" points="
  1998.37,381.108 2262.28,381.108 2262.28,225.588 1998.37,225.588 1998.37,381.108 
  "/>
<polyline clip-path="url(#clip220)" style="stroke:#009af9; stroke-linecap:butt; stroke-linejoin:round; stroke-width:4; stroke-opacity:1; fill:none" points="
  2007.53,277.428 2062.5,277.428 
  "/>
<path clip-path="url(#clip220)" d="M2092.17 269.778 L2092.17 273.759 Q2090.37 272.764 2088.54 272.278 Q2086.73 271.769 2084.88 271.769 Q2080.74 271.769 2078.45 274.408 Q2076.16 277.023 2076.16 281.769 Q2076.16 286.514 2078.45 289.153 Q2080.74 291.769 2084.88 291.769 Q2086.73 291.769 2088.54 291.282 Q2090.37 290.773 2092.17 289.778 L2092.17 293.713 Q2090.39 294.546 2088.47 294.963 Q2086.57 295.38 2084.42 295.38 Q2078.56 295.38 2075.11 291.699 Q2071.67 288.019 2071.67 281.769 Q2071.67 275.426 2075.14 271.792 Q2078.63 268.158 2084.7 268.158 Q2086.66 268.158 2088.54 268.574 Q2090.41 268.968 2092.17 269.778 Z" fill="#000000" fill-rule="evenodd" fill-opacity="1" /><path clip-path="url(#clip220)" d="M2121.76 280.681 L2121.76 282.764 L2102.17 282.764 Q2102.45 287.162 2104.81 289.477 Q2107.2 291.769 2111.43 291.769 Q2113.89 291.769 2116.18 291.167 Q2118.49 290.565 2120.76 289.361 L2120.76 293.389 Q2118.47 294.361 2116.06 294.87 Q2113.66 295.38 2111.18 295.38 Q2104.98 295.38 2101.34 291.769 Q2097.73 288.157 2097.73 282 Q2097.73 275.634 2101.16 271.908 Q2104.6 268.158 2110.44 268.158 Q2115.67 268.158 2118.7 271.537 Q2121.76 274.894 2121.76 280.681 M2117.5 279.431 Q2117.45 275.935 2115.53 273.852 Q2113.63 271.769 2110.48 271.769 Q2106.92 271.769 2104.77 273.783 Q2102.64 275.796 2102.31 279.454 L2117.5 279.431 Z" fill="#000000" fill-rule="evenodd" fill-opacity="1" /><path clip-path="url(#clip220)" d="M2150.3 279.06 L2150.3 294.708 L2146.04 294.708 L2146.04 279.199 Q2146.04 275.519 2144.6 273.69 Q2143.17 271.861 2140.3 271.861 Q2136.85 271.861 2134.86 274.06 Q2132.87 276.259 2132.87 280.056 L2132.87 294.708 L2128.59 294.708 L2128.59 268.783 L2132.87 268.783 L2132.87 272.81 Q2134.4 270.472 2136.46 269.315 Q2138.54 268.158 2141.25 268.158 Q2145.72 268.158 2148.01 270.935 Q2150.3 273.69 2150.3 279.06 Z" fill="#000000" fill-rule="evenodd" fill-opacity="1" /><path clip-path="url(#clip220)" d="M2163.01 261.422 L2163.01 268.783 L2171.78 268.783 L2171.78 272.093 L2163.01 272.093 L2163.01 286.167 Q2163.01 289.338 2163.86 290.241 Q2164.74 291.144 2167.41 291.144 L2171.78 291.144 L2171.78 294.708 L2167.41 294.708 Q2162.47 294.708 2160.6 292.88 Q2158.72 291.028 2158.72 286.167 L2158.72 272.093 L2155.6 272.093 L2155.6 268.783 L2158.72 268.783 L2158.72 261.422 L2163.01 261.422 Z" fill="#000000" fill-rule="evenodd" fill-opacity="1" /><path clip-path="url(#clip220)" d="M2199.56 280.681 L2199.56 282.764 L2179.97 282.764 Q2180.25 287.162 2182.61 289.477 Q2185 291.769 2189.23 291.769 Q2191.69 291.769 2193.98 291.167 Q2196.29 290.565 2198.56 289.361 L2198.56 293.389 Q2196.27 294.361 2193.86 294.87 Q2191.46 295.38 2188.98 295.38 Q2182.78 295.38 2179.14 291.769 Q2175.53 288.157 2175.53 282 Q2175.53 275.634 2178.96 271.908 Q2182.41 268.158 2188.24 268.158 Q2193.47 268.158 2196.5 271.537 Q2199.56 274.894 2199.56 280.681 M2195.3 279.431 Q2195.25 275.935 2193.33 273.852 Q2191.43 271.769 2188.28 271.769 Q2184.72 271.769 2182.57 273.783 Q2180.44 275.796 2180.11 279.454 L2195.3 279.431 Z" fill="#000000" fill-rule="evenodd" fill-opacity="1" /><path clip-path="url(#clip220)" d="M2221.57 272.764 Q2220.85 272.347 2220 272.162 Q2219.16 271.954 2218.15 271.954 Q2214.53 271.954 2212.59 274.315 Q2210.67 276.653 2210.67 281.051 L2210.67 294.708 L2206.39 294.708 L2206.39 268.783 L2210.67 268.783 L2210.67 272.81 Q2212.01 270.449 2214.16 269.315 Q2216.32 268.158 2219.4 268.158 Q2219.84 268.158 2220.37 268.227 Q2220.9 268.273 2221.55 268.389 L2221.57 272.764 Z" fill="#000000" fill-rule="evenodd" fill-opacity="1" /><path clip-path="url(#clip220)" d="M2242.57 269.546 L2242.57 273.574 Q2240.76 272.648 2238.82 272.185 Q2236.87 271.722 2234.79 271.722 Q2231.62 271.722 2230.02 272.695 Q2228.45 273.667 2228.45 275.611 Q2228.45 277.093 2229.58 277.949 Q2230.72 278.783 2234.14 279.546 L2235.6 279.87 Q2240.14 280.843 2242.03 282.625 Q2243.96 284.384 2243.96 287.556 Q2243.96 291.167 2241.09 293.273 Q2238.24 295.38 2233.24 295.38 Q2231.15 295.38 2228.89 294.963 Q2226.64 294.569 2224.14 293.759 L2224.14 289.361 Q2226.5 290.588 2228.79 291.213 Q2231.09 291.815 2233.33 291.815 Q2236.34 291.815 2237.96 290.796 Q2239.58 289.755 2239.58 287.88 Q2239.58 286.144 2238.4 285.218 Q2237.24 284.292 2233.28 283.435 L2231.8 283.088 Q2227.84 282.255 2226.09 280.542 Q2224.33 278.806 2224.33 275.796 Q2224.33 272.139 2226.92 270.148 Q2229.51 268.158 2234.28 268.158 Q2236.64 268.158 2238.72 268.505 Q2240.81 268.852 2242.57 269.546 Z" fill="#000000" fill-rule="evenodd" fill-opacity="1" /><polyline clip-path="url(#clip220)" style="stroke:#e26f46; stroke-linecap:butt; stroke-linejoin:round; stroke-width:4; stroke-opacity:1; fill:none" points="
  2007.53,329.268 2062.5,329.268 
  "/>
<path clip-path="url(#clip220)" d="M2088.17 310.53 L2088.17 314.072 L2084.1 314.072 Q2081.8 314.072 2080.9 314.998 Q2080.02 315.924 2080.02 318.331 L2080.02 320.623 L2087.04 320.623 L2087.04 323.933 L2080.02 323.933 L2080.02 346.548 L2075.74 346.548 L2075.74 323.933 L2071.67 323.933 L2071.67 320.623 L2075.74 320.623 L2075.74 318.817 Q2075.74 314.488 2077.75 312.521 Q2079.77 310.53 2084.14 310.53 L2088.17 310.53 Z" fill="#000000" fill-rule="evenodd" fill-opacity="1" /><path clip-path="url(#clip220)" d="M2103.52 333.516 Q2098.35 333.516 2096.36 334.697 Q2094.37 335.877 2094.37 338.724 Q2094.37 340.993 2095.85 342.335 Q2097.36 343.655 2099.93 343.655 Q2103.47 343.655 2105.6 341.155 Q2107.75 338.632 2107.75 334.465 L2107.75 333.516 L2103.52 333.516 M2112.01 331.757 L2112.01 346.548 L2107.75 346.548 L2107.75 342.613 Q2106.29 344.974 2104.12 346.109 Q2101.94 347.22 2098.79 347.22 Q2094.81 347.22 2092.45 344.997 Q2090.11 342.752 2090.11 339.002 Q2090.11 334.627 2093.03 332.405 Q2095.97 330.183 2101.78 330.183 L2107.75 330.183 L2107.75 329.766 Q2107.75 326.826 2105.81 325.229 Q2103.89 323.609 2100.39 323.609 Q2098.17 323.609 2096.06 324.141 Q2093.96 324.673 2092.01 325.738 L2092.01 321.803 Q2094.35 320.9 2096.55 320.461 Q2098.75 319.998 2100.83 319.998 Q2106.46 319.998 2109.23 322.914 Q2112.01 325.831 2112.01 331.757 Z" fill="#000000" fill-rule="evenodd" fill-opacity="1" /><path clip-path="url(#clip220)" d="M2139.44 321.618 L2139.44 325.599 Q2137.64 324.604 2135.81 324.118 Q2134 323.609 2132.15 323.609 Q2128.01 323.609 2125.72 326.248 Q2123.42 328.863 2123.42 333.609 Q2123.42 338.354 2125.72 340.993 Q2128.01 343.609 2132.15 343.609 Q2134 343.609 2135.81 343.122 Q2137.64 342.613 2139.44 341.618 L2139.44 345.553 Q2137.66 346.386 2135.74 346.803 Q2133.84 347.22 2131.69 347.22 Q2125.83 347.22 2122.38 343.539 Q2118.93 339.859 2118.93 333.609 Q2118.93 327.266 2122.41 323.632 Q2125.9 319.998 2131.97 319.998 Q2133.93 319.998 2135.81 320.414 Q2137.68 320.808 2139.44 321.618 Z" fill="#000000" fill-rule="evenodd" fill-opacity="1" /><path clip-path="url(#clip220)" d="M2169.03 332.521 L2169.03 334.604 L2149.44 334.604 Q2149.72 339.002 2152.08 341.317 Q2154.47 343.609 2158.7 343.609 Q2161.16 343.609 2163.45 343.007 Q2165.76 342.405 2168.03 341.201 L2168.03 345.229 Q2165.74 346.201 2163.33 346.71 Q2160.92 347.22 2158.45 347.22 Q2152.24 347.22 2148.61 343.609 Q2145 339.997 2145 333.84 Q2145 327.474 2148.42 323.748 Q2151.87 319.998 2157.71 319.998 Q2162.94 319.998 2165.97 323.377 Q2169.03 326.734 2169.03 332.521 M2164.77 331.271 Q2164.72 327.775 2162.8 325.692 Q2160.9 323.609 2157.75 323.609 Q2154.19 323.609 2152.03 325.623 Q2149.91 327.636 2149.58 331.294 L2164.77 331.271 Z" fill="#000000" fill-rule="evenodd" fill-opacity="1" /><path clip-path="url(#clip220)" d="M2192.54 321.386 L2192.54 325.414 Q2190.74 324.488 2188.79 324.025 Q2186.85 323.562 2184.77 323.562 Q2181.59 323.562 2180 324.535 Q2178.42 325.507 2178.42 327.451 Q2178.42 328.933 2179.56 329.789 Q2180.69 330.623 2184.12 331.386 L2185.58 331.71 Q2190.11 332.683 2192.01 334.465 Q2193.93 336.224 2193.93 339.396 Q2193.93 343.007 2191.06 345.113 Q2188.22 347.22 2183.22 347.22 Q2181.13 347.22 2178.86 346.803 Q2176.62 346.409 2174.12 345.599 L2174.12 341.201 Q2176.48 342.428 2178.77 343.053 Q2181.06 343.655 2183.31 343.655 Q2186.32 343.655 2187.94 342.636 Q2189.56 341.595 2189.56 339.72 Q2189.56 337.984 2188.38 337.058 Q2187.22 336.132 2183.26 335.275 L2181.78 334.928 Q2177.82 334.095 2176.06 332.382 Q2174.3 330.646 2174.3 327.636 Q2174.3 323.979 2176.9 321.988 Q2179.49 319.998 2184.26 319.998 Q2186.62 319.998 2188.7 320.345 Q2190.78 320.692 2192.54 321.386 Z" fill="#000000" fill-rule="evenodd" fill-opacity="1" /></svg>
