<?xml version="1.0" encoding="utf-8"?>
<svg xmlns="http://www.w3.org/2000/svg" xmlns:xlink="http://www.w3.org/1999/xlink" width="600" height="400" viewBox="0 0 2400 1600">
<defs>
  <clipPath id="clip010">
    <rect x="0" y="0" width="2400" height="1600"/>
  </clipPath>
</defs>
<path clip-path="url(#clip010)" d="
M0 1600 L2400 1600 L2400 0 L0 0  Z
  " fill="#ffffff" fill-rule="evenodd" fill-opacity="1"/>
<defs>
  <clipPath id="clip011">
    <rect x="480" y="0" width="1681" height="1600"/>
  </clipPath>
</defs>
<path clip-path="url(#clip010)" d="
M237.141 1360.19 L1089.76 1360.19 L1089.76 186.464 L237.141 186.464  Z
  " fill="#ffffff" fill-rule="evenodd" fill-opacity="1"/>
<defs>
  <clipPath id="clip012">
    <rect x="237" y="186" width="854" height="1175"/>
  </clipPath>
</defs>
<polyline clip-path="url(#clip012)" style="stroke:#000000; stroke-linecap:butt; stroke-linejoin:round; stroke-width:2; stroke-opacity:0.1; fill:none" points="
  312.889,1360.19 312.889,186.464 
  "/>
<polyline clip-path="url(#clip012)" style="stroke:#000000; stroke-linecap:butt; stroke-linejoin:round; stroke-width:2; stroke-opacity:0.1; fill:none" points="
  435.123,1360.19 435.123,186.464 
  "/>
<polyline clip-path="url(#clip012)" style="stroke:#000000; stroke-linecap:butt; stroke-linejoin:round; stroke-width:2; stroke-opacity:0.1; fill:none" points="
  557.358,1360.19 557.358,186.464 
  "/>
<polyline clip-path="url(#clip012)" style="stroke:#000000; stroke-linecap:butt; stroke-linejoin:round; stroke-width:2; stroke-opacity:0.1; fill:none" points="
  679.592,1360.19 679.592,186.464 
  "/>
<polyline clip-path="url(#clip012)" style="stroke:#000000; stroke-linecap:butt; stroke-linejoin:round; stroke-width:2; stroke-opacity:0.1; fill:none" points="
  801.827,1360.19 801.827,186.464 
  "/>
<polyline clip-path="url(#clip012)" style="stroke:#000000; stroke-linecap:butt; stroke-linejoin:round; stroke-width:2; stroke-opacity:0.1; fill:none" points="
  924.061,1360.19 924.061,186.464 
  "/>
<polyline clip-path="url(#clip012)" style="stroke:#000000; stroke-linecap:butt; stroke-linejoin:round; stroke-width:2; stroke-opacity:0.1; fill:none" points="
  1046.3,1360.19 1046.3,186.464 
  "/>
<polyline clip-path="url(#clip010)" style="stroke:#000000; stroke-linecap:butt; stroke-linejoin:round; stroke-width:4; stroke-opacity:1; fill:none" points="
  237.141,1360.19 1089.76,1360.19 
  "/>
<polyline clip-path="url(#clip010)" style="stroke:#000000; stroke-linecap:butt; stroke-linejoin:round; stroke-width:4; stroke-opacity:1; fill:none" points="
  312.889,1360.19 312.889,1341.29 
  "/>
<polyline clip-path="url(#clip010)" style="stroke:#000000; stroke-linecap:butt; stroke-linejoin:round; stroke-width:4; stroke-opacity:1; fill:none" points="
  435.123,1360.19 435.123,1341.29 
  "/>
<polyline clip-path="url(#clip010)" style="stroke:#000000; stroke-linecap:butt; stroke-linejoin:round; stroke-width:4; stroke-opacity:1; fill:none" points="
  557.358,1360.19 557.358,1341.29 
  "/>
<polyline clip-path="url(#clip010)" style="stroke:#000000; stroke-linecap:butt; stroke-linejoin:round; stroke-width:4; stroke-opacity:1; fill:none" points="
  679.592,1360.19 679.592,1341.29 
  "/>
<polyline clip-path="url(#clip010)" style="stroke:#000000; stroke-linecap:butt; stroke-linejoin:round; stroke-width:4; stroke-opacity:1; fill:none" points="
  801.827,1360.19 801.827,1341.29 
  "/>
<polyline clip-path="url(#clip010)" style="stroke:#000000; stroke-linecap:butt; stroke-linejoin:round; stroke-width:4; stroke-opacity:1; fill:none" points="
  924.061,1360.19 924.061,1341.29 
  "/>
<polyline clip-path="url(#clip010)" style="stroke:#000000; stroke-linecap:butt; stroke-linejoin:round; stroke-width:4; stroke-opacity:1; fill:none" points="
  1046.3,1360.19 1046.3,1341.29 
  "/>
<path clip-path="url(#clip010)" d="M275.69 1391.11 Q272.079 1391.11 270.25 1394.67 Q268.445 1398.21 268.445 1405.34 Q268.445 1412.45 270.25 1416.01 Q272.079 1419.56 275.69 1419.56 Q279.324 1419.56 281.13 1416.01 Q282.959 1412.45 282.959 1405.34 Q282.959 1398.21 281.13 1394.67 Q279.324 1391.11 275.69 1391.11 M275.69 1387.4 Q281.5 1387.4 284.556 1392.01 Q287.634 1396.59 287.634 1405.34 Q287.634 1414.07 284.556 1418.68 Q281.5 1423.26 275.69 1423.26 Q269.88 1423.26 266.801 1418.68 Q263.746 1414.07 263.746 1405.34 Q263.746 1396.59 266.801 1392.01 Q269.88 1387.4 275.69 1387.4 Z" fill="#000000" fill-rule="evenodd" fill-opacity="1" /><path clip-path="url(#clip010)" d="M295.852 1416.71 L300.736 1416.71 L300.736 1422.59 L295.852 1422.59 L295.852 1416.71 Z" fill="#000000" fill-rule="evenodd" fill-opacity="1" /><path clip-path="url(#clip010)" d="M320.921 1406.18 Q317.588 1406.18 315.667 1407.96 Q313.769 1409.74 313.769 1412.87 Q313.769 1415.99 315.667 1417.77 Q317.588 1419.56 320.921 1419.56 Q324.255 1419.56 326.176 1417.77 Q328.097 1415.97 328.097 1412.87 Q328.097 1409.74 326.176 1407.96 Q324.278 1406.18 320.921 1406.18 M316.245 1404.19 Q313.236 1403.44 311.546 1401.38 Q309.88 1399.32 309.88 1396.36 Q309.88 1392.22 312.819 1389.81 Q315.782 1387.4 320.921 1387.4 Q326.083 1387.4 329.023 1389.81 Q331.963 1392.22 331.963 1396.36 Q331.963 1399.32 330.273 1401.38 Q328.606 1403.44 325.62 1404.19 Q329 1404.97 330.875 1407.26 Q332.773 1409.56 332.773 1412.87 Q332.773 1417.89 329.694 1420.57 Q326.639 1423.26 320.921 1423.26 Q315.204 1423.26 312.125 1420.57 Q309.069 1417.89 309.069 1412.87 Q309.069 1409.56 310.968 1407.26 Q312.866 1404.97 316.245 1404.19 M314.532 1396.8 Q314.532 1399.49 316.199 1400.99 Q317.889 1402.5 320.921 1402.5 Q323.931 1402.5 325.62 1400.99 Q327.333 1399.49 327.333 1396.8 Q327.333 1394.12 325.62 1392.61 Q323.931 1391.11 320.921 1391.11 Q317.889 1391.11 316.199 1392.61 Q314.532 1394.12 314.532 1396.8 Z" fill="#000000" fill-rule="evenodd" fill-opacity="1" /><path clip-path="url(#clip010)" d="M341.13 1388.03 L359.486 1388.03 L359.486 1391.96 L345.412 1391.96 L345.412 1400.44 Q346.43 1400.09 347.449 1399.93 Q348.467 1399.74 349.486 1399.74 Q355.273 1399.74 358.653 1402.91 Q362.032 1406.08 362.032 1411.5 Q362.032 1417.08 358.56 1420.18 Q355.088 1423.26 348.768 1423.26 Q346.592 1423.26 344.324 1422.89 Q342.079 1422.52 339.671 1421.78 L339.671 1417.08 Q341.755 1418.21 343.977 1418.77 Q346.199 1419.32 348.676 1419.32 Q352.68 1419.32 355.018 1417.22 Q357.356 1415.11 357.356 1411.5 Q357.356 1407.89 355.018 1405.78 Q352.68 1403.68 348.676 1403.68 Q346.801 1403.68 344.926 1404.09 Q343.074 1404.51 341.13 1405.39 L341.13 1388.03 Z" fill="#000000" fill-rule="evenodd" fill-opacity="1" /><path clip-path="url(#clip010)" d="M397.427 1391.11 Q393.816 1391.11 391.987 1394.67 Q390.181 1398.21 390.181 1405.34 Q390.181 1412.45 391.987 1416.01 Q393.816 1419.56 397.427 1419.56 Q401.061 1419.56 402.867 1416.01 Q404.695 1412.45 404.695 1405.34 Q404.695 1398.21 402.867 1394.67 Q401.061 1391.11 397.427 1391.11 M397.427 1387.4 Q403.237 1387.4 406.293 1392.01 Q409.371 1396.59 409.371 1405.34 Q409.371 1414.07 406.293 1418.68 Q403.237 1423.26 397.427 1423.26 Q391.617 1423.26 388.538 1418.68 Q385.482 1414.07 385.482 1405.34 Q385.482 1396.59 388.538 1392.01 Q391.617 1387.4 397.427 1387.4 Z" fill="#000000" fill-rule="evenodd" fill-opacity="1" /><path clip-path="url(#clip010)" d="M417.589 1416.71 L422.473 1416.71 L422.473 1422.59 L417.589 1422.59 L417.589 1416.71 Z" fill="#000000" fill-rule="evenodd" fill-opacity="1" /><path clip-path="url(#clip010)" d="M432.797 1421.87 L432.797 1417.61 Q434.556 1418.44 436.362 1418.88 Q438.167 1419.32 439.903 1419.32 Q444.533 1419.32 446.964 1416.22 Q449.417 1413.1 449.764 1406.75 Q448.422 1408.75 446.362 1409.81 Q444.302 1410.87 441.802 1410.87 Q436.616 1410.87 433.584 1407.75 Q430.575 1404.6 430.575 1399.16 Q430.575 1393.84 433.723 1390.62 Q436.871 1387.4 442.103 1387.4 Q448.098 1387.4 451.246 1392.01 Q454.417 1396.59 454.417 1405.34 Q454.417 1413.51 450.528 1418.4 Q446.663 1423.26 440.112 1423.26 Q438.353 1423.26 436.547 1422.91 Q434.741 1422.56 432.797 1421.87 M442.103 1407.22 Q445.251 1407.22 447.079 1405.06 Q448.931 1402.91 448.931 1399.16 Q448.931 1395.44 447.079 1393.28 Q445.251 1391.11 442.103 1391.11 Q438.954 1391.11 437.103 1393.28 Q435.274 1395.44 435.274 1399.16 Q435.274 1402.91 437.103 1405.06 Q438.954 1407.22 442.103 1407.22 Z" fill="#000000" fill-rule="evenodd" fill-opacity="1" /><path clip-path="url(#clip010)" d="M472.82 1391.11 Q469.209 1391.11 467.38 1394.67 Q465.575 1398.21 465.575 1405.34 Q465.575 1412.45 467.38 1416.01 Q469.209 1419.56 472.82 1419.56 Q476.454 1419.56 478.26 1416.01 Q480.088 1412.45 480.088 1405.34 Q480.088 1398.21 478.26 1394.67 Q476.454 1391.11 472.82 1391.11 M472.82 1387.4 Q478.63 1387.4 481.686 1392.01 Q484.764 1396.59 484.764 1405.34 Q484.764 1414.07 481.686 1418.68 Q478.63 1423.26 472.82 1423.26 Q467.01 1423.26 463.931 1418.68 Q460.876 1414.07 460.876 1405.34 Q460.876 1396.59 463.931 1392.01 Q467.01 1387.4 472.82 1387.4 Z" fill="#000000" fill-rule="evenodd" fill-opacity="1" /><path clip-path="url(#clip010)" d="M520.159 1391.11 Q516.548 1391.11 514.719 1394.67 Q512.914 1398.21 512.914 1405.34 Q512.914 1412.45 514.719 1416.01 Q516.548 1419.56 520.159 1419.56 Q523.793 1419.56 525.599 1416.01 Q527.427 1412.45 527.427 1405.34 Q527.427 1398.21 525.599 1394.67 Q523.793 1391.11 520.159 1391.11 M520.159 1387.4 Q525.969 1387.4 529.025 1392.01 Q532.103 1396.59 532.103 1405.34 Q532.103 1414.07 529.025 1418.68 Q525.969 1423.26 520.159 1423.26 Q514.349 1423.26 511.27 1418.68 Q508.215 1414.07 508.215 1405.34 Q508.215 1396.59 511.27 1392.01 Q514.349 1387.4 520.159 1387.4 Z" fill="#000000" fill-rule="evenodd" fill-opacity="1" /><path clip-path="url(#clip010)" d="M540.321 1416.71 L545.205 1416.71 L545.205 1422.59 L540.321 1422.59 L540.321 1416.71 Z" fill="#000000" fill-rule="evenodd" fill-opacity="1" /><path clip-path="url(#clip010)" d="M555.529 1421.87 L555.529 1417.61 Q557.288 1418.44 559.094 1418.88 Q560.899 1419.32 562.636 1419.32 Q567.265 1419.32 569.696 1416.22 Q572.149 1413.1 572.497 1406.75 Q571.154 1408.75 569.094 1409.81 Q567.034 1410.87 564.534 1410.87 Q559.349 1410.87 556.316 1407.75 Q553.307 1404.6 553.307 1399.16 Q553.307 1393.84 556.455 1390.62 Q559.603 1387.4 564.835 1387.4 Q570.83 1387.4 573.978 1392.01 Q577.149 1396.59 577.149 1405.34 Q577.149 1413.51 573.261 1418.4 Q569.395 1423.26 562.844 1423.26 Q561.085 1423.26 559.279 1422.91 Q557.474 1422.56 555.529 1421.87 M564.835 1407.22 Q567.983 1407.22 569.811 1405.06 Q571.663 1402.91 571.663 1399.16 Q571.663 1395.44 569.811 1393.28 Q567.983 1391.11 564.835 1391.11 Q561.687 1391.11 559.835 1393.28 Q558.006 1395.44 558.006 1399.16 Q558.006 1402.91 559.835 1405.06 Q561.687 1407.22 564.835 1407.22 Z" fill="#000000" fill-rule="evenodd" fill-opacity="1" /><path clip-path="url(#clip010)" d="M585.598 1388.03 L603.955 1388.03 L603.955 1391.96 L589.881 1391.96 L589.881 1400.44 Q590.899 1400.09 591.918 1399.93 Q592.936 1399.74 593.955 1399.74 Q599.742 1399.74 603.121 1402.91 Q606.501 1406.08 606.501 1411.5 Q606.501 1417.08 603.029 1420.18 Q599.557 1423.26 593.237 1423.26 Q591.061 1423.26 588.793 1422.89 Q586.547 1422.52 584.14 1421.78 L584.14 1417.08 Q586.223 1418.21 588.446 1418.77 Q590.668 1419.32 593.145 1419.32 Q597.149 1419.32 599.487 1417.22 Q601.825 1415.11 601.825 1411.5 Q601.825 1407.89 599.487 1405.78 Q597.149 1403.68 593.145 1403.68 Q591.27 1403.68 589.395 1404.09 Q587.543 1404.51 585.598 1405.39 L585.598 1388.03 Z" fill="#000000" fill-rule="evenodd" fill-opacity="1" /><path clip-path="url(#clip010)" d="M631.664 1418.65 L639.303 1418.65 L639.303 1392.29 L630.993 1393.95 L630.993 1389.69 L639.257 1388.03 L643.933 1388.03 L643.933 1418.65 L651.572 1418.65 L651.572 1422.59 L631.664 1422.59 L631.664 1418.65 Z" fill="#000000" fill-rule="evenodd" fill-opacity="1" /><path clip-path="url(#clip010)" d="M661.016 1416.71 L665.9 1416.71 L665.9 1422.59 L661.016 1422.59 L661.016 1416.71 Z" fill="#000000" fill-rule="evenodd" fill-opacity="1" /><path clip-path="url(#clip010)" d="M686.085 1391.11 Q682.474 1391.11 680.646 1394.67 Q678.84 1398.21 678.84 1405.34 Q678.84 1412.45 680.646 1416.01 Q682.474 1419.56 686.085 1419.56 Q689.72 1419.56 691.525 1416.01 Q693.354 1412.45 693.354 1405.34 Q693.354 1398.21 691.525 1394.67 Q689.72 1391.11 686.085 1391.11 M686.085 1387.4 Q691.895 1387.4 694.951 1392.01 Q698.03 1396.59 698.03 1405.34 Q698.03 1414.07 694.951 1418.68 Q691.895 1423.26 686.085 1423.26 Q680.275 1423.26 677.196 1418.68 Q674.141 1414.07 674.141 1405.34 Q674.141 1396.59 677.196 1392.01 Q680.275 1387.4 686.085 1387.4 Z" fill="#000000" fill-rule="evenodd" fill-opacity="1" /><path clip-path="url(#clip010)" d="M716.247 1391.11 Q712.636 1391.11 710.807 1394.67 Q709.002 1398.21 709.002 1405.34 Q709.002 1412.45 710.807 1416.01 Q712.636 1419.56 716.247 1419.56 Q719.881 1419.56 721.687 1416.01 Q723.516 1412.45 723.516 1405.34 Q723.516 1398.21 721.687 1394.67 Q719.881 1391.11 716.247 1391.11 M716.247 1387.4 Q722.057 1387.4 725.113 1392.01 Q728.192 1396.59 728.192 1405.34 Q728.192 1414.07 725.113 1418.68 Q722.057 1423.26 716.247 1423.26 Q710.437 1423.26 707.358 1418.68 Q704.303 1414.07 704.303 1405.34 Q704.303 1396.59 707.358 1392.01 Q710.437 1387.4 716.247 1387.4 Z" fill="#000000" fill-rule="evenodd" fill-opacity="1" /><path clip-path="url(#clip010)" d="M754.396 1418.65 L762.035 1418.65 L762.035 1392.29 L753.725 1393.95 L753.725 1389.69 L761.989 1388.03 L766.665 1388.03 L766.665 1418.65 L774.304 1418.65 L774.304 1422.59 L754.396 1422.59 L754.396 1418.65 Z" fill="#000000" fill-rule="evenodd" fill-opacity="1" /><path clip-path="url(#clip010)" d="M783.748 1416.71 L788.632 1416.71 L788.632 1422.59 L783.748 1422.59 L783.748 1416.71 Z" fill="#000000" fill-rule="evenodd" fill-opacity="1" /><path clip-path="url(#clip010)" d="M808.817 1391.11 Q805.206 1391.11 803.378 1394.67 Q801.572 1398.21 801.572 1405.34 Q801.572 1412.45 803.378 1416.01 Q805.206 1419.56 808.817 1419.56 Q812.452 1419.56 814.257 1416.01 Q816.086 1412.45 816.086 1405.34 Q816.086 1398.21 814.257 1394.67 Q812.452 1391.11 808.817 1391.11 M808.817 1387.4 Q814.628 1387.4 817.683 1392.01 Q820.762 1396.59 820.762 1405.34 Q820.762 1414.07 817.683 1418.68 Q814.628 1423.26 808.817 1423.26 Q803.007 1423.26 799.929 1418.68 Q796.873 1414.07 796.873 1405.34 Q796.873 1396.59 799.929 1392.01 Q803.007 1387.4 808.817 1387.4 Z" fill="#000000" fill-rule="evenodd" fill-opacity="1" /><path clip-path="url(#clip010)" d="M829.026 1388.03 L847.382 1388.03 L847.382 1391.96 L833.308 1391.96 L833.308 1400.44 Q834.327 1400.09 835.345 1399.93 Q836.364 1399.74 837.382 1399.74 Q843.169 1399.74 846.549 1402.91 Q849.928 1406.08 849.928 1411.5 Q849.928 1417.08 846.456 1420.18 Q842.984 1423.26 836.665 1423.26 Q834.489 1423.26 832.22 1422.89 Q829.975 1422.52 827.567 1421.78 L827.567 1417.08 Q829.651 1418.21 831.873 1418.77 Q834.095 1419.32 836.572 1419.32 Q840.577 1419.32 842.914 1417.22 Q845.252 1415.11 845.252 1411.5 Q845.252 1407.89 842.914 1405.78 Q840.577 1403.68 836.572 1403.68 Q834.697 1403.68 832.822 1404.09 Q830.97 1404.51 829.026 1405.39 L829.026 1388.03 Z" fill="#000000" fill-rule="evenodd" fill-opacity="1" /><path clip-path="url(#clip010)" d="M876.133 1418.65 L883.772 1418.65 L883.772 1392.29 L875.462 1393.95 L875.462 1389.69 L883.726 1388.03 L888.402 1388.03 L888.402 1418.65 L896.04 1418.65 L896.04 1422.59 L876.133 1422.59 L876.133 1418.65 Z" fill="#000000" fill-rule="evenodd" fill-opacity="1" /><path clip-path="url(#clip010)" d="M905.485 1416.71 L910.369 1416.71 L910.369 1422.59 L905.485 1422.59 L905.485 1416.71 Z" fill="#000000" fill-rule="evenodd" fill-opacity="1" /><path clip-path="url(#clip010)" d="M921.364 1418.65 L929.003 1418.65 L929.003 1392.29 L920.693 1393.95 L920.693 1389.69 L928.957 1388.03 L933.633 1388.03 L933.633 1418.65 L941.272 1418.65 L941.272 1422.59 L921.364 1422.59 L921.364 1418.65 Z" fill="#000000" fill-rule="evenodd" fill-opacity="1" /><path clip-path="url(#clip010)" d="M960.716 1391.11 Q957.105 1391.11 955.276 1394.67 Q953.471 1398.21 953.471 1405.34 Q953.471 1412.45 955.276 1416.01 Q957.105 1419.56 960.716 1419.56 Q964.35 1419.56 966.156 1416.01 Q967.985 1412.45 967.985 1405.34 Q967.985 1398.21 966.156 1394.67 Q964.35 1391.11 960.716 1391.11 M960.716 1387.4 Q966.526 1387.4 969.582 1392.01 Q972.66 1396.59 972.66 1405.34 Q972.66 1414.07 969.582 1418.68 Q966.526 1423.26 960.716 1423.26 Q954.906 1423.26 951.827 1418.68 Q948.772 1414.07 948.772 1405.34 Q948.772 1396.59 951.827 1392.01 Q954.906 1387.4 960.716 1387.4 Z" fill="#000000" fill-rule="evenodd" fill-opacity="1" /><path clip-path="url(#clip010)" d="M998.865 1418.65 L1006.5 1418.65 L1006.5 1392.29 L998.194 1393.95 L998.194 1389.69 L1006.46 1388.03 L1011.13 1388.03 L1011.13 1418.65 L1018.77 1418.65 L1018.77 1422.59 L998.865 1422.59 L998.865 1418.65 Z" fill="#000000" fill-rule="evenodd" fill-opacity="1" /><path clip-path="url(#clip010)" d="M1028.22 1416.71 L1033.1 1416.71 L1033.1 1422.59 L1028.22 1422.59 L1028.22 1416.71 Z" fill="#000000" fill-rule="evenodd" fill-opacity="1" /><path clip-path="url(#clip010)" d="M1044.1 1418.65 L1051.74 1418.65 L1051.74 1392.29 L1043.43 1393.95 L1043.43 1389.69 L1051.69 1388.03 L1056.37 1388.03 L1056.37 1418.65 L1064 1418.65 L1064 1422.59 L1044.1 1422.59 L1044.1 1418.65 Z" fill="#000000" fill-rule="evenodd" fill-opacity="1" /><path clip-path="url(#clip010)" d="M1073.49 1388.03 L1091.85 1388.03 L1091.85 1391.96 L1077.78 1391.96 L1077.78 1400.44 Q1078.8 1400.09 1079.81 1399.93 Q1080.83 1399.74 1081.85 1399.74 Q1087.64 1399.74 1091.02 1402.91 Q1094.4 1406.08 1094.4 1411.5 Q1094.4 1417.08 1090.93 1420.18 Q1087.45 1423.26 1081.13 1423.26 Q1078.96 1423.26 1076.69 1422.89 Q1074.44 1422.52 1072.04 1421.78 L1072.04 1417.08 Q1074.12 1418.21 1076.34 1418.77 Q1078.56 1419.32 1081.04 1419.32 Q1085.05 1419.32 1087.38 1417.22 Q1089.72 1415.11 1089.72 1411.5 Q1089.72 1407.89 1087.38 1405.78 Q1085.05 1403.68 1081.04 1403.68 Q1079.17 1403.68 1077.29 1404.09 Q1075.44 1404.51 1073.49 1405.39 L1073.49 1388.03 Z" fill="#000000" fill-rule="evenodd" fill-opacity="1" /><path clip-path="url(#clip010)" d="M650.371 1475.77 Q652.312 1472.52 657.119 1469.66 Q658.996 1468.54 664.789 1468.54 Q671.282 1468.54 675.324 1473.7 Q679.399 1478.86 679.399 1487.26 Q679.399 1495.66 675.324 1500.82 Q671.282 1505.97 664.789 1505.97 Q660.874 1505.97 658.042 1504.45 Q655.241 1502.89 653.395 1499.7 L653.395 1518.61 L647.506 1518.61 L647.506 1487.58 Q647.506 1480.23 650.371 1475.77 M673.319 1487.26 Q673.319 1480.8 670.646 1477.14 Q668.004 1473.45 663.357 1473.45 Q658.71 1473.45 656.036 1477.14 Q653.395 1480.8 653.395 1487.26 Q653.395 1493.72 656.036 1497.41 Q658.71 1501.07 663.357 1501.07 Q668.004 1501.07 670.646 1497.41 Q673.319 1493.72 673.319 1487.26 Z" fill="#000000" fill-rule="evenodd" fill-opacity="1" /><polyline clip-path="url(#clip012)" style="stroke:#000000; stroke-linecap:butt; stroke-linejoin:round; stroke-width:2; stroke-opacity:0.1; fill:none" points="
  237.141,1326.97 1089.76,1326.97 
  "/>
<polyline clip-path="url(#clip012)" style="stroke:#000000; stroke-linecap:butt; stroke-linejoin:round; stroke-width:2; stroke-opacity:0.1; fill:none" points="
  237.141,1031.69 1089.76,1031.69 
  "/>
<polyline clip-path="url(#clip012)" style="stroke:#000000; stroke-linecap:butt; stroke-linejoin:round; stroke-width:2; stroke-opacity:0.1; fill:none" points="
  237.141,736.416 1089.76,736.416 
  "/>
<polyline clip-path="url(#clip012)" style="stroke:#000000; stroke-linecap:butt; stroke-linejoin:round; stroke-width:2; stroke-opacity:0.1; fill:none" points="
  237.141,441.14 1089.76,441.14 
  "/>
<polyline clip-path="url(#clip010)" style="stroke:#000000; stroke-linecap:butt; stroke-linejoin:round; stroke-width:4; stroke-opacity:1; fill:none" points="
  237.141,1360.19 237.141,186.464 
  "/>
<polyline clip-path="url(#clip010)" style="stroke:#000000; stroke-linecap:butt; stroke-linejoin:round; stroke-width:4; stroke-opacity:1; fill:none" points="
  237.141,1326.97 256.039,1326.97 
  "/>
<polyline clip-path="url(#clip010)" style="stroke:#000000; stroke-linecap:butt; stroke-linejoin:round; stroke-width:4; stroke-opacity:1; fill:none" points="
  237.141,1031.69 256.039,1031.69 
  "/>
<polyline clip-path="url(#clip010)" style="stroke:#000000; stroke-linecap:butt; stroke-linejoin:round; stroke-width:4; stroke-opacity:1; fill:none" points="
  237.141,736.416 256.039,736.416 
  "/>
<polyline clip-path="url(#clip010)" style="stroke:#000000; stroke-linecap:butt; stroke-linejoin:round; stroke-width:4; stroke-opacity:1; fill:none" points="
  237.141,441.14 256.039,441.14 
  "/>
<path clip-path="url(#clip010)" d="M189.197 1312.77 Q185.586 1312.77 183.757 1316.33 Q181.951 1319.87 181.951 1327 Q181.951 1334.11 183.757 1337.68 Q185.586 1341.22 189.197 1341.22 Q192.831 1341.22 194.636 1337.68 Q196.465 1334.11 196.465 1327 Q196.465 1319.87 194.636 1316.33 Q192.831 1312.77 189.197 1312.77 M189.197 1309.06 Q195.007 1309.06 198.062 1313.67 Q201.141 1318.25 201.141 1327 Q201.141 1335.73 198.062 1340.34 Q195.007 1344.92 189.197 1344.92 Q183.387 1344.92 180.308 1340.34 Q177.252 1335.73 177.252 1327 Q177.252 1318.25 180.308 1313.67 Q183.387 1309.06 189.197 1309.06 Z" fill="#000000" fill-rule="evenodd" fill-opacity="1" /><path clip-path="url(#clip010)" d="M181.234 1045.04 L188.873 1045.04 L188.873 1018.67 L180.562 1020.34 L180.562 1016.08 L188.826 1014.41 L193.502 1014.41 L193.502 1045.04 L201.141 1045.04 L201.141 1048.97 L181.234 1048.97 L181.234 1045.04 Z" fill="#000000" fill-rule="evenodd" fill-opacity="1" /><path clip-path="url(#clip010)" d="M184.822 749.761 L201.141 749.761 L201.141 753.696 L179.197 753.696 L179.197 749.761 Q181.859 747.007 186.442 742.377 Q191.049 737.724 192.229 736.382 Q194.474 733.859 195.354 732.122 Q196.257 730.363 196.257 728.673 Q196.257 725.919 194.312 724.183 Q192.391 722.447 189.289 722.447 Q187.09 722.447 184.637 723.21 Q182.206 723.974 179.428 725.525 L179.428 720.803 Q182.252 719.669 184.706 719.09 Q187.16 718.511 189.197 718.511 Q194.567 718.511 197.761 721.197 Q200.956 723.882 200.956 728.373 Q200.956 730.502 200.146 732.423 Q199.359 734.322 197.252 736.914 Q196.673 737.585 193.572 740.803 Q190.47 743.997 184.822 749.761 Z" fill="#000000" fill-rule="evenodd" fill-opacity="1" /><path clip-path="url(#clip010)" d="M194.011 439.786 Q197.368 440.504 199.243 442.772 Q201.141 445.041 201.141 448.374 Q201.141 453.49 197.623 456.29 Q194.104 459.091 187.623 459.091 Q185.447 459.091 183.132 458.652 Q180.84 458.235 178.387 457.378 L178.387 452.865 Q180.331 453.999 182.646 454.578 Q184.961 455.156 187.484 455.156 Q191.882 455.156 194.173 453.42 Q196.488 451.684 196.488 448.374 Q196.488 445.318 194.336 443.605 Q192.206 441.869 188.386 441.869 L184.359 441.869 L184.359 438.027 L188.572 438.027 Q192.021 438.027 193.849 436.661 Q195.678 435.272 195.678 432.679 Q195.678 430.017 193.78 428.605 Q191.905 427.17 188.386 427.17 Q186.465 427.17 184.266 427.587 Q182.067 428.004 179.428 428.883 L179.428 424.717 Q182.09 423.976 184.405 423.605 Q186.743 423.235 188.803 423.235 Q194.127 423.235 197.229 425.666 Q200.331 428.073 200.331 432.193 Q200.331 435.064 198.687 437.054 Q197.044 439.022 194.011 439.786 Z" fill="#000000" fill-rule="evenodd" fill-opacity="1" /><path clip-path="url(#clip010)" d="M91.3483 871.851 L91.3483 844.033 L96.6955 844.033 L122.317 866.058 L122.317 844.033 L126.996 844.033 L126.996 872.647 L121.649 872.647 L96.0271 850.622 L96.0271 871.851 L91.3483 871.851 Z" fill="#000000" fill-rule="evenodd" fill-opacity="1" /><path clip-path="url(#clip010)" d="M77.5347 800.301 Q84.8553 804.566 92.0167 806.635 Q99.1781 808.703 106.531 808.703 Q113.883 808.703 121.108 806.635 Q128.301 804.534 135.59 800.301 L135.59 805.393 Q128.11 810.168 120.885 812.555 Q113.66 814.91 106.531 814.91 Q99.4328 814.91 92.2395 812.555 Q85.0463 810.199 77.5347 805.393 L77.5347 800.301 Z" fill="#000000" fill-rule="evenodd" fill-opacity="1" /><path clip-path="url(#clip010)" d="M77.4711 789.161 L77.4711 783.272 L106.722 783.272 L91.3483 765.799 L91.3483 758.319 L108.026 777.225 L126.996 757.523 L126.996 765.162 L109.586 783.272 L126.996 783.272 L126.996 789.161 L77.4711 789.161 Z" fill="#000000" fill-rule="evenodd" fill-opacity="1" /><path clip-path="url(#clip010)" d="M98.1915 723.435 Q94.2447 721.239 92.3668 718.183 Q90.489 715.128 90.489 710.99 Q90.489 705.42 94.4039 702.396 Q98.2869 699.372 105.48 699.372 L126.996 699.372 L126.996 705.261 L105.671 705.261 Q100.547 705.261 98.0641 707.075 Q95.5815 708.889 95.5815 712.613 Q95.5815 717.165 98.6052 719.806 Q101.629 722.448 106.849 722.448 L126.996 722.448 L126.996 728.336 L105.671 728.336 Q100.515 728.336 98.0641 730.151 Q95.5815 731.965 95.5815 735.752 Q95.5815 740.24 98.6371 742.882 Q101.661 745.524 106.849 745.524 L126.996 745.524 L126.996 751.412 L91.3483 751.412 L91.3483 745.524 L96.8865 745.524 Q93.6082 743.519 92.0486 740.718 Q90.489 737.917 90.489 734.065 Q90.489 730.182 92.4623 727.477 Q94.4357 724.74 98.1915 723.435 Z" fill="#000000" fill-rule="evenodd" fill-opacity="1" /><path clip-path="url(#clip010)" d="M77.5347 688.614 L77.5347 683.522 Q85.0463 678.747 92.2395 676.392 Q99.4328 674.005 106.531 674.005 Q113.66 674.005 120.885 676.392 Q128.11 678.747 135.59 683.522 L135.59 688.614 Q128.301 684.381 121.108 682.312 Q113.883 680.212 106.531 680.212 Q99.1781 680.212 92.0167 682.312 Q84.8553 684.381 77.5347 688.614 Z" fill="#000000" fill-rule="evenodd" fill-opacity="1" /><path clip-path="url(#clip010)" d="M646.803 35.3077 Q649.274 31.1758 655.391 27.5299 Q657.781 26.1121 665.154 26.1121 Q673.418 26.1121 678.562 32.6746 Q683.747 39.2371 683.747 49.9314 Q683.747 60.6258 678.562 67.1883 Q673.418 73.7508 665.154 73.7508 Q660.171 73.7508 656.566 71.8063 Q653.001 69.8214 650.652 65.7705 L650.652 89.8329 L643.157 89.8329 L643.157 50.3365 Q643.157 40.9789 646.803 35.3077 M676.01 49.9314 Q676.01 41.7081 672.607 37.0496 Q669.245 32.3505 663.331 32.3505 Q657.417 32.3505 654.014 37.0496 Q650.652 41.7081 650.652 49.9314 Q650.652 58.1548 654.014 62.8538 Q657.417 67.5124 663.331 67.5124 Q669.245 67.5124 672.607 62.8538 Q676.01 58.1548 676.01 49.9314 Z" fill="#000000" fill-rule="evenodd" fill-opacity="1" /><polyline clip-path="url(#clip012)" style="stroke:#009af9; stroke-linecap:butt; stroke-linejoin:round; stroke-width:4; stroke-opacity:1; fill:none" points="
  1059.89,1319.59 1048.43,1304.82 1037,1290.06 1025.59,1275.3 1014.21,1260.53 1002.86,1245.77 991.543,1231 980.249,1216.24 968.983,1201.48 957.745,1186.71 
  946.535,1171.95 935.352,1157.19 924.197,1142.42 913.07,1127.66 901.971,1112.89 890.899,1098.13 879.855,1083.37 868.839,1068.6 857.85,1053.84 846.889,1039.07 
  835.955,1024.31 825.049,1009.55 814.17,994.783 803.319,980.019 792.495,965.256 781.699,950.492 770.93,935.728 760.189,920.964 749.475,906.2 738.788,891.437 
  728.129,876.673 717.497,861.909 706.892,847.145 696.314,832.381 685.764,817.617 675.241,802.854 664.745,788.09 654.276,773.326 643.835,758.562 633.42,743.798 
  623.033,729.035 612.673,714.271 602.339,699.507 592.033,684.743 581.754,669.979 571.502,655.215 561.276,640.452 551.078,625.688 540.906,610.924 530.762,596.16 
  520.644,581.396 510.553,566.633 500.489,551.869 490.452,537.105 480.441,522.341 470.457,507.577 460.5,492.813 450.157,478.05 438.986,463.286 427.863,448.522 
  416.788,433.758 405.758,418.994 394.773,404.231 383.833,389.467 372.937,374.703 362.086,359.939 351.279,345.175 340.518,330.411 329.802,315.648 319.132,300.884 
  308.508,286.12 297.93,271.356 287.399,256.592 276.913,241.829 266.474,227.065 
  "/>
<polyline clip-path="url(#clip012)" style="stroke:#e26f46; stroke-linecap:butt; stroke-linejoin:round; stroke-width:4; stroke-opacity:1; fill:none" points="
  1065.63,1326.97 1054.16,1312.21 1042.71,1297.44 1031.29,1282.68 1019.9,1267.91 1008.54,1253.15 997.2,1238.39 985.893,1223.62 974.613,1208.86 963.361,1194.09 
  952.137,1179.33 940.94,1164.57 929.771,1149.8 918.63,1135.04 907.517,1120.28 896.432,1105.51 885.374,1090.75 874.343,1075.98 863.341,1061.22 852.366,1046.46 
  841.418,1031.69 830.498,1016.93 819.606,1002.17 808.741,987.401 797.904,972.638 787.094,957.874 776.311,943.11 765.556,928.346 754.828,913.582 744.128,898.818 
  733.455,884.055 722.809,869.291 712.191,854.527 701.6,839.763 691.036,824.999 680.499,810.236 669.99,795.472 659.507,780.708 649.052,765.944 638.624,751.18 
  628.223,736.416 617.849,721.653 607.503,706.889 597.183,692.125 586.89,677.361 576.624,662.597 566.386,647.834 556.174,633.07 545.989,618.306 535.831,603.542 
  525.7,588.778 515.595,574.014 505.518,559.251 495.467,544.487 485.443,529.723 475.446,514.959 465.475,500.195 455.531,485.432 444.565,470.668 433.419,455.904 
  422.32,441.14 411.268,426.376 400.26,411.612 389.298,396.849 378.379,382.085 367.506,367.321 356.677,352.557 345.893,337.793 335.154,323.03 324.461,308.266 
  313.814,293.502 303.214,278.738 292.659,263.974 282.15,249.21 271.688,234.447 261.272,219.683 
  "/>
<path clip-path="url(#clip010)" d="
M794.316 381.108 L1061.34 381.108 L1061.34 225.588 L794.316 225.588  Z
  " fill="#ffffff" fill-rule="evenodd" fill-opacity="1"/>
<polyline clip-path="url(#clip010)" style="stroke:#000000; stroke-linecap:butt; stroke-linejoin:round; stroke-width:4; stroke-opacity:1; fill:none" points="
  794.316,381.108 1061.34,381.108 1061.34,225.588 794.316,225.588 794.316,381.108 
  "/>
<polyline clip-path="url(#clip010)" style="stroke:#009af9; stroke-linecap:butt; stroke-linejoin:round; stroke-width:4; stroke-opacity:1; fill:none" points="
  803.79,277.428 860.632,277.428 
  "/>
<path clip-path="url(#clip010)" d="M890.614 269.778 L890.614 273.759 Q888.809 272.764 886.98 272.278 Q885.174 271.769 883.323 271.769 Q879.179 271.769 876.887 274.408 Q874.596 277.023 874.596 281.769 Q874.596 286.514 876.887 289.153 Q879.179 291.769 883.323 291.769 Q885.174 291.769 886.98 291.282 Q888.809 290.773 890.614 289.778 L890.614 293.713 Q888.832 294.546 886.911 294.963 Q885.012 295.38 882.86 295.38 Q877.003 295.38 873.554 291.699 Q870.105 288.019 870.105 281.769 Q870.105 275.426 873.577 271.792 Q877.073 268.158 883.137 268.158 Q885.105 268.158 886.98 268.574 Q888.855 268.968 890.614 269.778 Z" fill="#000000" fill-rule="evenodd" fill-opacity="1" /><path clip-path="url(#clip010)" d="M920.197 280.681 L920.197 282.764 L900.614 282.764 Q900.892 287.162 903.253 289.477 Q905.637 291.769 909.873 291.769 Q912.327 291.769 914.619 291.167 Q916.934 290.565 919.202 289.361 L919.202 293.389 Q916.91 294.361 914.503 294.87 Q912.096 295.38 909.619 295.38 Q903.415 295.38 899.781 291.769 Q896.17 288.157 896.17 282 Q896.17 275.634 899.596 271.908 Q903.045 268.158 908.878 268.158 Q914.11 268.158 917.142 271.537 Q920.197 274.894 920.197 280.681 M915.938 279.431 Q915.892 275.935 913.971 273.852 Q912.072 271.769 908.924 271.769 Q905.36 271.769 903.207 273.783 Q901.077 275.796 900.753 279.454 L915.938 279.431 Z" fill="#000000" fill-rule="evenodd" fill-opacity="1" /><path clip-path="url(#clip010)" d="M948.739 279.06 L948.739 294.708 L944.48 294.708 L944.48 279.199 Q944.48 275.519 943.045 273.69 Q941.609 271.861 938.739 271.861 Q935.29 271.861 933.299 274.06 Q931.308 276.259 931.308 280.056 L931.308 294.708 L927.026 294.708 L927.026 268.783 L931.308 268.783 L931.308 272.81 Q932.836 270.472 934.896 269.315 Q936.98 268.158 939.688 268.158 Q944.156 268.158 946.447 270.935 Q948.739 273.69 948.739 279.06 Z" fill="#000000" fill-rule="evenodd" fill-opacity="1" /><path clip-path="url(#clip010)" d="M961.447 261.422 L961.447 268.783 L970.22 268.783 L970.22 272.093 L961.447 272.093 L961.447 286.167 Q961.447 289.338 962.304 290.241 Q963.183 291.144 965.845 291.144 L970.22 291.144 L970.22 294.708 L965.845 294.708 Q960.915 294.708 959.04 292.88 Q957.165 291.028 957.165 286.167 L957.165 272.093 L954.04 272.093 L954.04 268.783 L957.165 268.783 L957.165 261.422 L961.447 261.422 Z" fill="#000000" fill-rule="evenodd" fill-opacity="1" /><path clip-path="url(#clip010)" d="M997.998 280.681 L997.998 282.764 L978.415 282.764 Q978.692 287.162 981.054 289.477 Q983.438 291.769 987.674 291.769 Q990.128 291.769 992.419 291.167 Q994.734 290.565 997.003 289.361 L997.003 293.389 Q994.711 294.361 992.304 294.87 Q989.896 295.38 987.419 295.38 Q981.216 295.38 977.581 291.769 Q973.97 288.157 973.97 282 Q973.97 275.634 977.396 271.908 Q980.845 268.158 986.679 268.158 Q991.91 268.158 994.942 271.537 Q997.998 274.894 997.998 280.681 M993.739 279.431 Q993.692 275.935 991.771 273.852 Q989.873 271.769 986.725 271.769 Q983.16 271.769 981.007 273.783 Q978.878 275.796 978.554 279.454 L993.739 279.431 Z" fill="#000000" fill-rule="evenodd" fill-opacity="1" /><path clip-path="url(#clip010)" d="M1020.01 272.764 Q1019.29 272.347 1018.44 272.162 Q1017.6 271.954 1016.59 271.954 Q1012.97 271.954 1011.03 274.315 Q1009.11 276.653 1009.11 281.051 L1009.11 294.708 L1004.83 294.708 L1004.83 268.783 L1009.11 268.783 L1009.11 272.81 Q1010.45 270.449 1012.6 269.315 Q1014.76 268.158 1017.84 268.158 Q1018.28 268.158 1018.81 268.227 Q1019.34 268.273 1019.99 268.389 L1020.01 272.764 Z" fill="#000000" fill-rule="evenodd" fill-opacity="1" /><path clip-path="url(#clip010)" d="M1041.01 269.546 L1041.01 273.574 Q1039.2 272.648 1037.26 272.185 Q1035.31 271.722 1033.23 271.722 Q1030.06 271.722 1028.46 272.695 Q1026.89 273.667 1026.89 275.611 Q1026.89 277.093 1028.02 277.949 Q1029.16 278.783 1032.58 279.546 L1034.04 279.87 Q1038.58 280.843 1040.47 282.625 Q1042.4 284.384 1042.4 287.556 Q1042.4 291.167 1039.53 293.273 Q1036.68 295.38 1031.68 295.38 Q1029.59 295.38 1027.33 294.963 Q1025.08 294.569 1022.58 293.759 L1022.58 289.361 Q1024.94 290.588 1027.23 291.213 Q1029.53 291.815 1031.77 291.815 Q1034.78 291.815 1036.4 290.796 Q1038.02 289.755 1038.02 287.88 Q1038.02 286.144 1036.84 285.218 Q1035.68 284.292 1031.72 283.435 L1030.24 283.088 Q1026.28 282.255 1024.53 280.542 Q1022.77 278.806 1022.77 275.796 Q1022.77 272.139 1025.36 270.148 Q1027.95 268.158 1032.72 268.158 Q1035.08 268.158 1037.16 268.505 Q1039.25 268.852 1041.01 269.546 Z" fill="#000000" fill-rule="evenodd" fill-opacity="1" /><polyline clip-path="url(#clip010)" style="stroke:#e26f46; stroke-linecap:butt; stroke-linejoin:round; stroke-width:4; stroke-opacity:1; fill:none" points="
  803.79,329.268 860.632,329.268 
  "/>
<path clip-path="url(#clip010)" d="M886.61 310.53 L886.61 314.072 L882.536 314.072 Q880.244 314.072 879.341 314.998 Q878.462 315.924 878.462 318.331 L878.462 320.623 L885.475 320.623 L885.475 323.933 L878.462 323.933 L878.462 346.548 L874.179 346.548 L874.179 323.933 L870.105 323.933 L870.105 320.623 L874.179 320.623 L874.179 318.817 Q874.179 314.488 876.193 312.521 Q878.207 310.53 882.582 310.53 L886.61 310.53 Z" fill="#000000" fill-rule="evenodd" fill-opacity="1" /><path clip-path="url(#clip010)" d="M901.957 333.516 Q896.795 333.516 894.804 334.697 Q892.813 335.877 892.813 338.724 Q892.813 340.993 894.295 342.335 Q895.799 343.655 898.369 343.655 Q901.91 343.655 904.04 341.155 Q906.193 338.632 906.193 334.465 L906.193 333.516 L901.957 333.516 M910.452 331.757 L910.452 346.548 L906.193 346.548 L906.193 342.613 Q904.735 344.974 902.559 346.109 Q900.383 347.22 897.235 347.22 Q893.253 347.22 890.892 344.997 Q888.554 342.752 888.554 339.002 Q888.554 334.627 891.471 332.405 Q894.411 330.183 900.221 330.183 L906.193 330.183 L906.193 329.766 Q906.193 326.826 904.248 325.229 Q902.327 323.609 898.832 323.609 Q896.61 323.609 894.503 324.141 Q892.397 324.673 890.452 325.738 L890.452 321.803 Q892.79 320.9 894.989 320.461 Q897.188 319.998 899.272 319.998 Q904.897 319.998 907.674 322.914 Q910.452 325.831 910.452 331.757 Z" fill="#000000" fill-rule="evenodd" fill-opacity="1" /><path clip-path="url(#clip010)" d="M937.883 321.618 L937.883 325.599 Q936.077 324.604 934.248 324.118 Q932.443 323.609 930.591 323.609 Q926.447 323.609 924.156 326.248 Q921.864 328.863 921.864 333.609 Q921.864 338.354 924.156 340.993 Q926.447 343.609 930.591 343.609 Q932.443 343.609 934.248 343.122 Q936.077 342.613 937.883 341.618 L937.883 345.553 Q936.1 346.386 934.179 346.803 Q932.281 347.22 930.128 347.22 Q924.271 347.22 920.822 343.539 Q917.373 339.859 917.373 333.609 Q917.373 327.266 920.846 323.632 Q924.341 319.998 930.406 319.998 Q932.373 319.998 934.248 320.414 Q936.123 320.808 937.883 321.618 Z" fill="#000000" fill-rule="evenodd" fill-opacity="1" /><path clip-path="url(#clip010)" d="M967.466 332.521 L967.466 334.604 L947.882 334.604 Q948.16 339.002 950.521 341.317 Q952.906 343.609 957.142 343.609 Q959.595 343.609 961.887 343.007 Q964.202 342.405 966.47 341.201 L966.47 345.229 Q964.179 346.201 961.771 346.71 Q959.364 347.22 956.887 347.22 Q950.683 347.22 947.049 343.609 Q943.438 339.997 943.438 333.84 Q943.438 327.474 946.864 323.748 Q950.313 319.998 956.146 319.998 Q961.378 319.998 964.41 323.377 Q967.466 326.734 967.466 332.521 M963.206 331.271 Q963.16 327.775 961.239 325.692 Q959.341 323.609 956.193 323.609 Q952.628 323.609 950.475 325.623 Q948.345 327.636 948.021 331.294 L963.206 331.271 Z" fill="#000000" fill-rule="evenodd" fill-opacity="1" /><path clip-path="url(#clip010)" d="M990.984 321.386 L990.984 325.414 Q989.179 324.488 987.234 324.025 Q985.29 323.562 983.206 323.562 Q980.035 323.562 978.438 324.535 Q976.864 325.507 976.864 327.451 Q976.864 328.933 977.998 329.789 Q979.132 330.623 982.558 331.386 L984.017 331.71 Q988.554 332.683 990.452 334.465 Q992.373 336.224 992.373 339.396 Q992.373 343.007 989.503 345.113 Q986.655 347.22 981.655 347.22 Q979.572 347.22 977.304 346.803 Q975.058 346.409 972.558 345.599 L972.558 341.201 Q974.919 342.428 977.211 343.053 Q979.503 343.655 981.748 343.655 Q984.757 343.655 986.378 342.636 Q987.998 341.595 987.998 339.72 Q987.998 337.984 986.817 337.058 Q985.66 336.132 981.702 335.275 L980.22 334.928 Q976.262 334.095 974.503 332.382 Q972.743 330.646 972.743 327.636 Q972.743 323.979 975.336 321.988 Q977.929 319.998 982.697 319.998 Q985.058 319.998 987.142 320.345 Q989.225 320.692 990.984 321.386 Z" fill="#000000" fill-rule="evenodd" fill-opacity="1" /><path clip-path="url(#clip010)" d="
M1437.14 1360.19 L2289.76 1360.19 L2289.76 186.464 L1437.14 186.464  Z
  " fill="#ffffff" fill-rule="evenodd" fill-opacity="1"/>
<defs>
  <clipPath id="clip013">
    <rect x="1437" y="186" width="854" height="1175"/>
  </clipPath>
</defs>
<polyline clip-path="url(#clip013)" style="stroke:#000000; stroke-linecap:butt; stroke-linejoin:round; stroke-width:2; stroke-opacity:0.1; fill:none" points="
  1603.88,1360.19 1603.88,186.464 
  "/>
<polyline clip-path="url(#clip013)" style="stroke:#000000; stroke-linecap:butt; stroke-linejoin:round; stroke-width:2; stroke-opacity:0.1; fill:none" points="
  1824.46,1360.19 1824.46,186.464 
  "/>
<polyline clip-path="url(#clip013)" style="stroke:#000000; stroke-linecap:butt; stroke-linejoin:round; stroke-width:2; stroke-opacity:0.1; fill:none" points="
  2045.05,1360.19 2045.05,186.464 
  "/>
<polyline clip-path="url(#clip013)" style="stroke:#000000; stroke-linecap:butt; stroke-linejoin:round; stroke-width:2; stroke-opacity:0.1; fill:none" points="
  2265.63,1360.19 2265.63,186.464 
  "/>
<polyline clip-path="url(#clip010)" style="stroke:#000000; stroke-linecap:butt; stroke-linejoin:round; stroke-width:4; stroke-opacity:1; fill:none" points="
  1437.14,1360.19 2289.76,1360.19 
  "/>
<polyline clip-path="url(#clip010)" style="stroke:#000000; stroke-linecap:butt; stroke-linejoin:round; stroke-width:4; stroke-opacity:1; fill:none" points="
  1603.88,1360.19 1603.88,1341.29 
  "/>
<polyline clip-path="url(#clip010)" style="stroke:#000000; stroke-linecap:butt; stroke-linejoin:round; stroke-width:4; stroke-opacity:1; fill:none" points="
  1824.46,1360.19 1824.46,1341.29 
  "/>
<polyline clip-path="url(#clip010)" style="stroke:#000000; stroke-linecap:butt; stroke-linejoin:round; stroke-width:4; stroke-opacity:1; fill:none" points="
  2045.05,1360.19 2045.05,1341.29 
  "/>
<polyline clip-path="url(#clip010)" style="stroke:#000000; stroke-linecap:butt; stroke-linejoin:round; stroke-width:4; stroke-opacity:1; fill:none" points="
  2265.63,1360.19 2265.63,1341.29 
  "/>
<path clip-path="url(#clip010)" d="M1577.24 1388.03 L1599.46 1388.03 L1599.46 1390.02 L1586.91 1422.59 L1582.03 1422.59 L1593.83 1391.96 L1577.24 1391.96 L1577.24 1388.03 Z" fill="#000000" fill-rule="evenodd" fill-opacity="1" /><path clip-path="url(#clip010)" d="M1618.58 1391.11 Q1614.97 1391.11 1613.14 1394.67 Q1611.33 1398.21 1611.33 1405.34 Q1611.33 1412.45 1613.14 1416.01 Q1614.97 1419.56 1618.58 1419.56 Q1622.21 1419.56 1624.02 1416.01 Q1625.85 1412.45 1625.85 1405.34 Q1625.85 1398.21 1624.02 1394.67 Q1622.21 1391.11 1618.58 1391.11 M1618.58 1387.4 Q1624.39 1387.4 1627.45 1392.01 Q1630.52 1396.59 1630.52 1405.34 Q1630.52 1414.07 1627.45 1418.68 Q1624.39 1423.26 1618.58 1423.26 Q1612.77 1423.26 1609.69 1418.68 Q1606.64 1414.07 1606.64 1405.34 Q1606.64 1396.59 1609.69 1392.01 Q1612.77 1387.4 1618.58 1387.4 Z" fill="#000000" fill-rule="evenodd" fill-opacity="1" /><path clip-path="url(#clip010)" d="M1809.34 1406.18 Q1806 1406.18 1804.08 1407.96 Q1802.18 1409.74 1802.18 1412.87 Q1802.18 1415.99 1804.08 1417.77 Q1806 1419.56 1809.34 1419.56 Q1812.67 1419.56 1814.59 1417.77 Q1816.51 1415.97 1816.51 1412.87 Q1816.51 1409.74 1814.59 1407.96 Q1812.69 1406.18 1809.34 1406.18 M1804.66 1404.19 Q1801.65 1403.44 1799.96 1401.38 Q1798.3 1399.32 1798.3 1396.36 Q1798.3 1392.22 1801.24 1389.81 Q1804.2 1387.4 1809.34 1387.4 Q1814.5 1387.4 1817.44 1389.81 Q1820.38 1392.22 1820.38 1396.36 Q1820.38 1399.32 1818.69 1401.38 Q1817.02 1403.44 1814.04 1404.19 Q1817.42 1404.97 1819.29 1407.26 Q1821.19 1409.56 1821.19 1412.87 Q1821.19 1417.89 1818.11 1420.57 Q1815.05 1423.26 1809.34 1423.26 Q1803.62 1423.26 1800.54 1420.57 Q1797.49 1417.89 1797.49 1412.87 Q1797.49 1409.56 1799.38 1407.26 Q1801.28 1404.97 1804.66 1404.19 M1802.95 1396.8 Q1802.95 1399.49 1804.62 1400.99 Q1806.3 1402.5 1809.34 1402.5 Q1812.35 1402.5 1814.04 1400.99 Q1815.75 1399.49 1815.75 1396.8 Q1815.75 1394.12 1814.04 1392.61 Q1812.35 1391.11 1809.34 1391.11 Q1806.3 1391.11 1804.62 1392.61 Q1802.95 1394.12 1802.95 1396.8 Z" fill="#000000" fill-rule="evenodd" fill-opacity="1" /><path clip-path="url(#clip010)" d="M1839.5 1391.11 Q1835.89 1391.11 1834.06 1394.67 Q1832.25 1398.21 1832.25 1405.34 Q1832.25 1412.45 1834.06 1416.01 Q1835.89 1419.56 1839.5 1419.56 Q1843.13 1419.56 1844.94 1416.01 Q1846.77 1412.45 1846.77 1405.34 Q1846.77 1398.21 1844.94 1394.67 Q1843.13 1391.11 1839.5 1391.11 M1839.5 1387.4 Q1845.31 1387.4 1848.36 1392.01 Q1851.44 1396.59 1851.44 1405.34 Q1851.44 1414.07 1848.36 1418.68 Q1845.31 1423.26 1839.5 1423.26 Q1833.69 1423.26 1830.61 1418.68 Q1827.55 1414.07 1827.55 1405.34 Q1827.55 1396.59 1830.61 1392.01 Q1833.69 1387.4 1839.5 1387.4 Z" fill="#000000" fill-rule="evenodd" fill-opacity="1" /><path clip-path="url(#clip010)" d="M2020.18 1421.87 L2020.18 1417.61 Q2021.94 1418.44 2023.74 1418.88 Q2025.55 1419.32 2027.28 1419.32 Q2031.91 1419.32 2034.34 1416.22 Q2036.8 1413.1 2037.14 1406.75 Q2035.8 1408.75 2033.74 1409.81 Q2031.68 1410.87 2029.18 1410.87 Q2024 1410.87 2020.96 1407.75 Q2017.95 1404.6 2017.95 1399.16 Q2017.95 1393.84 2021.1 1390.62 Q2024.25 1387.4 2029.48 1387.4 Q2035.48 1387.4 2038.63 1392.01 Q2041.8 1396.59 2041.8 1405.34 Q2041.8 1413.51 2037.91 1418.4 Q2034.04 1423.26 2027.49 1423.26 Q2025.73 1423.26 2023.93 1422.91 Q2022.12 1422.56 2020.18 1421.87 M2029.48 1407.22 Q2032.63 1407.22 2034.46 1405.06 Q2036.31 1402.91 2036.31 1399.16 Q2036.31 1395.44 2034.46 1393.28 Q2032.63 1391.11 2029.48 1391.11 Q2026.33 1391.11 2024.48 1393.28 Q2022.65 1395.44 2022.65 1399.16 Q2022.65 1402.91 2024.48 1405.06 Q2026.33 1407.22 2029.48 1407.22 Z" fill="#000000" fill-rule="evenodd" fill-opacity="1" /><path clip-path="url(#clip010)" d="M2060.2 1391.11 Q2056.59 1391.11 2054.76 1394.67 Q2052.95 1398.21 2052.95 1405.34 Q2052.95 1412.45 2054.76 1416.01 Q2056.59 1419.56 2060.2 1419.56 Q2063.83 1419.56 2065.64 1416.01 Q2067.47 1412.45 2067.47 1405.34 Q2067.47 1398.21 2065.64 1394.67 Q2063.83 1391.11 2060.2 1391.11 M2060.2 1387.4 Q2066.01 1387.4 2069.06 1392.01 Q2072.14 1396.59 2072.14 1405.34 Q2072.14 1414.07 2069.06 1418.68 Q2066.01 1423.26 2060.2 1423.26 Q2054.39 1423.26 2051.31 1418.68 Q2048.25 1414.07 2048.25 1405.34 Q2048.25 1396.59 2051.31 1392.01 Q2054.39 1387.4 2060.2 1387.4 Z" fill="#000000" fill-rule="evenodd" fill-opacity="1" /><path clip-path="url(#clip010)" d="M2225.24 1418.65 L2232.88 1418.65 L2232.88 1392.29 L2224.57 1393.95 L2224.57 1389.69 L2232.83 1388.03 L2237.51 1388.03 L2237.51 1418.65 L2245.15 1418.65 L2245.15 1422.59 L2225.24 1422.59 L2225.24 1418.65 Z" fill="#000000" fill-rule="evenodd" fill-opacity="1" /><path clip-path="url(#clip010)" d="M2264.59 1391.11 Q2260.98 1391.11 2259.15 1394.67 Q2257.35 1398.21 2257.35 1405.34 Q2257.35 1412.45 2259.15 1416.01 Q2260.98 1419.56 2264.59 1419.56 Q2268.23 1419.56 2270.03 1416.01 Q2271.86 1412.45 2271.86 1405.34 Q2271.86 1398.21 2270.03 1394.67 Q2268.23 1391.11 2264.59 1391.11 M2264.59 1387.4 Q2270.4 1387.4 2273.46 1392.01 Q2276.54 1396.59 2276.54 1405.34 Q2276.54 1414.07 2273.46 1418.68 Q2270.4 1423.26 2264.59 1423.26 Q2258.78 1423.26 2255.7 1418.68 Q2252.65 1414.07 2252.65 1405.34 Q2252.65 1396.59 2255.7 1392.01 Q2258.78 1387.4 2264.59 1387.4 Z" fill="#000000" fill-rule="evenodd" fill-opacity="1" /><path clip-path="url(#clip010)" d="M2294.75 1391.11 Q2291.14 1391.11 2289.31 1394.67 Q2287.51 1398.21 2287.51 1405.34 Q2287.51 1412.45 2289.31 1416.01 Q2291.14 1419.56 2294.75 1419.56 Q2298.39 1419.56 2300.19 1416.01 Q2302.02 1412.45 2302.02 1405.34 Q2302.02 1398.21 2300.19 1394.67 Q2298.39 1391.11 2294.75 1391.11 M2294.75 1387.4 Q2300.56 1387.4 2303.62 1392.01 Q2306.7 1396.59 2306.7 1405.34 Q2306.7 1414.07 2303.62 1418.68 Q2300.56 1423.26 2294.75 1423.26 Q2288.94 1423.26 2285.86 1418.68 Q2282.81 1414.07 2282.81 1405.34 Q2282.81 1396.59 2285.86 1392.01 Q2288.94 1387.4 2294.75 1387.4 Z" fill="#000000" fill-rule="evenodd" fill-opacity="1" /><path clip-path="url(#clip010)" d="M1761.59 1499.7 L1761.59 1518.61 L1755.7 1518.61 L1755.7 1469.4 L1761.59 1469.4 L1761.59 1474.81 Q1763.43 1471.63 1766.23 1470.1 Q1769.06 1468.54 1772.98 1468.54 Q1779.47 1468.54 1783.52 1473.7 Q1787.59 1478.86 1787.59 1487.26 Q1787.59 1495.66 1783.52 1500.82 Q1779.47 1505.97 1772.98 1505.97 Q1769.06 1505.97 1766.23 1504.45 Q1763.43 1502.89 1761.59 1499.7 M1781.51 1487.26 Q1781.51 1480.8 1778.84 1477.14 Q1776.19 1473.45 1771.55 1473.45 Q1766.9 1473.45 1764.23 1477.14 Q1761.59 1480.8 1761.59 1487.26 Q1761.59 1493.72 1764.23 1497.41 Q1766.9 1501.07 1771.55 1501.07 Q1776.19 1501.07 1778.84 1497.41 Q1781.51 1493.72 1781.51 1487.26 Z" fill="#000000" fill-rule="evenodd" fill-opacity="1" /><path clip-path="url(#clip010)" d="M1832.09 1455.59 Q1827.82 1462.91 1825.75 1470.07 Q1823.68 1477.23 1823.68 1484.59 Q1823.68 1491.94 1825.75 1499.16 Q1827.85 1506.36 1832.09 1513.65 L1826.99 1513.65 Q1822.22 1506.17 1819.83 1498.94 Q1817.48 1491.72 1817.48 1484.59 Q1817.48 1477.49 1819.83 1470.29 Q1822.19 1463.1 1826.99 1455.59 L1832.09 1455.59 Z" fill="#000000" fill-rule="evenodd" fill-opacity="1" /><path clip-path="url(#clip010)" d="M1843.23 1455.53 L1849.11 1455.53 L1849.11 1484.78 L1866.59 1469.4 L1874.07 1469.4 L1855.16 1486.08 L1874.86 1505.05 L1867.22 1505.05 L1849.11 1487.64 L1849.11 1505.05 L1843.23 1505.05 L1843.23 1455.53 Z" fill="#000000" fill-rule="evenodd" fill-opacity="1" /><path clip-path="url(#clip010)" d="M1887.88 1462.82 L1887.88 1480.67 L1895.97 1480.67 Q1900.45 1480.67 1902.9 1478.35 Q1905.35 1476.02 1905.35 1471.73 Q1905.35 1467.46 1902.9 1465.14 Q1900.45 1462.82 1895.97 1462.82 L1887.88 1462.82 M1881.45 1457.53 L1895.97 1457.53 Q1903.95 1457.53 1908.03 1461.16 Q1912.13 1464.76 1912.13 1471.73 Q1912.13 1478.76 1908.03 1482.36 Q1903.95 1485.95 1895.97 1485.95 L1887.88 1485.95 L1887.88 1505.05 L1881.45 1505.05 L1881.45 1457.53 Z" fill="#000000" fill-rule="evenodd" fill-opacity="1" /><path clip-path="url(#clip010)" d="M1933.78 1487.13 Q1926.68 1487.13 1923.94 1488.76 Q1921.21 1490.38 1921.21 1494.29 Q1921.21 1497.41 1923.24 1499.26 Q1925.31 1501.07 1928.84 1501.07 Q1933.71 1501.07 1936.64 1497.64 Q1939.6 1494.17 1939.6 1488.44 L1939.6 1487.13 L1933.78 1487.13 M1945.46 1484.71 L1945.46 1505.05 L1939.6 1505.05 L1939.6 1499.64 Q1937.6 1502.89 1934.61 1504.45 Q1931.61 1505.97 1927.28 1505.97 Q1921.81 1505.97 1918.56 1502.92 Q1915.35 1499.83 1915.35 1494.68 Q1915.35 1488.66 1919.36 1485.6 Q1923.4 1482.55 1931.39 1482.55 L1939.6 1482.55 L1939.6 1481.98 Q1939.6 1477.93 1936.93 1475.74 Q1934.29 1473.51 1929.48 1473.51 Q1926.43 1473.51 1923.53 1474.24 Q1920.63 1474.97 1917.96 1476.44 L1917.96 1471.03 Q1921.17 1469.79 1924.2 1469.18 Q1927.22 1468.54 1930.09 1468.54 Q1937.82 1468.54 1941.64 1472.55 Q1945.46 1476.57 1945.46 1484.71 Z" fill="#000000" fill-rule="evenodd" fill-opacity="1" /><path clip-path="url(#clip010)" d="M1956.6 1455.59 L1961.69 1455.59 Q1966.47 1463.1 1968.82 1470.29 Q1971.21 1477.49 1971.21 1484.59 Q1971.21 1491.72 1968.82 1498.94 Q1966.47 1506.17 1961.69 1513.65 L1956.6 1513.65 Q1960.83 1506.36 1962.9 1499.16 Q1965 1491.94 1965 1484.59 Q1965 1477.23 1962.9 1470.07 Q1960.83 1462.91 1956.6 1455.59 Z" fill="#000000" fill-rule="evenodd" fill-opacity="1" /><polyline clip-path="url(#clip013)" style="stroke:#000000; stroke-linecap:butt; stroke-linejoin:round; stroke-width:2; stroke-opacity:0.1; fill:none" points="
  1437.14,1326.97 2289.76,1326.97 
  "/>
<polyline clip-path="url(#clip013)" style="stroke:#000000; stroke-linecap:butt; stroke-linejoin:round; stroke-width:2; stroke-opacity:0.1; fill:none" points="
  1437.14,1031.69 2289.76,1031.69 
  "/>
<polyline clip-path="url(#clip013)" style="stroke:#000000; stroke-linecap:butt; stroke-linejoin:round; stroke-width:2; stroke-opacity:0.1; fill:none" points="
  1437.14,736.416 2289.76,736.416 
  "/>
<polyline clip-path="url(#clip013)" style="stroke:#000000; stroke-linecap:butt; stroke-linejoin:round; stroke-width:2; stroke-opacity:0.1; fill:none" points="
  1437.14,441.14 2289.76,441.14 
  "/>
<polyline clip-path="url(#clip010)" style="stroke:#000000; stroke-linecap:butt; stroke-linejoin:round; stroke-width:4; stroke-opacity:1; fill:none" points="
  1437.14,1360.19 1437.14,186.464 
  "/>
<polyline clip-path="url(#clip010)" style="stroke:#000000; stroke-linecap:butt; stroke-linejoin:round; stroke-width:4; stroke-opacity:1; fill:none" points="
  1437.14,1326.97 1456.04,1326.97 
  "/>
<polyline clip-path="url(#clip010)" style="stroke:#000000; stroke-linecap:butt; stroke-linejoin:round; stroke-width:4; stroke-opacity:1; fill:none" points="
  1437.14,1031.69 1456.04,1031.69 
  "/>
<polyline clip-path="url(#clip010)" style="stroke:#000000; stroke-linecap:butt; stroke-linejoin:round; stroke-width:4; stroke-opacity:1; fill:none" points="
  1437.14,736.416 1456.04,736.416 
  "/>
<polyline clip-path="url(#clip010)" style="stroke:#000000; stroke-linecap:butt; stroke-linejoin:round; stroke-width:4; stroke-opacity:1; fill:none" points="
  1437.14,441.14 1456.04,441.14 
  "/>
<path clip-path="url(#clip010)" d="M1389.2 1312.77 Q1385.59 1312.77 1383.76 1316.33 Q1381.95 1319.87 1381.95 1327 Q1381.95 1334.11 1383.76 1337.68 Q1385.59 1341.22 1389.2 1341.22 Q1392.83 1341.22 1394.64 1337.68 Q1396.47 1334.11 1396.47 1327 Q1396.47 1319.87 1394.64 1316.33 Q1392.83 1312.77 1389.2 1312.77 M1389.2 1309.06 Q1395.01 1309.06 1398.06 1313.67 Q1401.14 1318.25 1401.14 1327 Q1401.14 1335.73 1398.06 1340.34 Q1395.01 1344.92 1389.2 1344.92 Q1383.39 1344.92 1380.31 1340.34 Q1377.25 1335.73 1377.25 1327 Q1377.25 1318.25 1380.31 1313.67 Q1383.39 1309.06 1389.2 1309.06 Z" fill="#000000" fill-rule="evenodd" fill-opacity="1" /><path clip-path="url(#clip010)" d="M1381.23 1045.04 L1388.87 1045.04 L1388.87 1018.67 L1380.56 1020.34 L1380.56 1016.08 L1388.83 1014.41 L1393.5 1014.41 L1393.5 1045.04 L1401.14 1045.04 L1401.14 1048.97 L1381.23 1048.97 L1381.23 1045.04 Z" fill="#000000" fill-rule="evenodd" fill-opacity="1" /><path clip-path="url(#clip010)" d="M1384.82 749.761 L1401.14 749.761 L1401.14 753.696 L1379.2 753.696 L1379.2 749.761 Q1381.86 747.007 1386.44 742.377 Q1391.05 737.724 1392.23 736.382 Q1394.47 733.859 1395.35 732.122 Q1396.26 730.363 1396.26 728.673 Q1396.26 725.919 1394.31 724.183 Q1392.39 722.447 1389.29 722.447 Q1387.09 722.447 1384.64 723.21 Q1382.21 723.974 1379.43 725.525 L1379.43 720.803 Q1382.25 719.669 1384.71 719.09 Q1387.16 718.511 1389.2 718.511 Q1394.57 718.511 1397.76 721.197 Q1400.96 723.882 1400.96 728.373 Q1400.96 730.502 1400.15 732.423 Q1399.36 734.322 1397.25 736.914 Q1396.67 737.585 1393.57 740.803 Q1390.47 743.997 1384.82 749.761 Z" fill="#000000" fill-rule="evenodd" fill-opacity="1" /><path clip-path="url(#clip010)" d="M1394.01 439.786 Q1397.37 440.504 1399.24 442.772 Q1401.14 445.041 1401.14 448.374 Q1401.14 453.49 1397.62 456.29 Q1394.1 459.091 1387.62 459.091 Q1385.45 459.091 1383.13 458.652 Q1380.84 458.235 1378.39 457.378 L1378.39 452.865 Q1380.33 453.999 1382.65 454.578 Q1384.96 455.156 1387.48 455.156 Q1391.88 455.156 1394.17 453.42 Q1396.49 451.684 1396.49 448.374 Q1396.49 445.318 1394.34 443.605 Q1392.21 441.869 1388.39 441.869 L1384.36 441.869 L1384.36 438.027 L1388.57 438.027 Q1392.02 438.027 1393.85 436.661 Q1395.68 435.272 1395.68 432.679 Q1395.68 430.017 1393.78 428.605 Q1391.9 427.17 1388.39 427.17 Q1386.47 427.17 1384.27 427.587 Q1382.07 428.004 1379.43 428.883 L1379.43 424.717 Q1382.09 423.976 1384.41 423.605 Q1386.74 423.235 1388.8 423.235 Q1394.13 423.235 1397.23 425.666 Q1400.33 428.073 1400.33 432.193 Q1400.33 435.064 1398.69 437.054 Q1397.04 439.022 1394.01 439.786 Z" fill="#000000" fill-rule="evenodd" fill-opacity="1" /><path clip-path="url(#clip010)" d="M1291.35 871.851 L1291.35 844.033 L1296.7 844.033 L1322.32 866.058 L1322.32 844.033 L1327 844.033 L1327 872.647 L1321.65 872.647 L1296.03 850.622 L1296.03 871.851 L1291.35 871.851 Z" fill="#000000" fill-rule="evenodd" fill-opacity="1" /><path clip-path="url(#clip010)" d="M1277.53 800.301 Q1284.86 804.566 1292.02 806.635 Q1299.18 808.703 1306.53 808.703 Q1313.88 808.703 1321.11 806.635 Q1328.3 804.534 1335.59 800.301 L1335.59 805.393 Q1328.11 810.168 1320.89 812.555 Q1313.66 814.91 1306.53 814.91 Q1299.43 814.91 1292.24 812.555 Q1285.05 810.199 1277.53 805.393 L1277.53 800.301 Z" fill="#000000" fill-rule="evenodd" fill-opacity="1" /><path clip-path="url(#clip010)" d="M1277.47 789.161 L1277.47 783.272 L1306.72 783.272 L1291.35 765.799 L1291.35 758.319 L1308.03 777.225 L1327 757.523 L1327 765.162 L1309.59 783.272 L1327 783.272 L1327 789.161 L1277.47 789.161 Z" fill="#000000" fill-rule="evenodd" fill-opacity="1" /><path clip-path="url(#clip010)" d="M1298.19 723.435 Q1294.24 721.239 1292.37 718.183 Q1290.49 715.128 1290.49 710.99 Q1290.49 705.42 1294.4 702.396 Q1298.29 699.372 1305.48 699.372 L1327 699.372 L1327 705.261 L1305.67 705.261 Q1300.55 705.261 1298.06 707.075 Q1295.58 708.889 1295.58 712.613 Q1295.58 717.165 1298.61 719.806 Q1301.63 722.448 1306.85 722.448 L1327 722.448 L1327 728.336 L1305.67 728.336 Q1300.51 728.336 1298.06 730.151 Q1295.58 731.965 1295.58 735.752 Q1295.58 740.24 1298.64 742.882 Q1301.66 745.524 1306.85 745.524 L1327 745.524 L1327 751.412 L1291.35 751.412 L1291.35 745.524 L1296.89 745.524 Q1293.61 743.519 1292.05 740.718 Q1290.49 737.917 1290.49 734.065 Q1290.49 730.182 1292.46 727.477 Q1294.44 724.74 1298.19 723.435 Z" fill="#000000" fill-rule="evenodd" fill-opacity="1" /><path clip-path="url(#clip010)" d="M1277.53 688.614 L1277.53 683.522 Q1285.05 678.747 1292.24 676.392 Q1299.43 674.005 1306.53 674.005 Q1313.66 674.005 1320.89 676.392 Q1328.11 678.747 1335.59 683.522 L1335.59 688.614 Q1328.3 684.381 1321.11 682.312 Q1313.88 680.212 1306.53 680.212 Q1299.18 680.212 1292.02 682.312 Q1284.86 684.381 1277.53 688.614 Z" fill="#000000" fill-rule="evenodd" fill-opacity="1" /><path clip-path="url(#clip010)" d="M1733.8 65.7705 L1733.8 89.8329 L1726.31 89.8329 L1726.31 27.2059 L1733.8 27.2059 L1733.8 34.0924 Q1736.15 30.0415 1739.72 28.0971 Q1743.32 26.1121 1748.31 26.1121 Q1756.57 26.1121 1761.71 32.6746 Q1766.9 39.2371 1766.9 49.9314 Q1766.9 60.6258 1761.71 67.1883 Q1756.57 73.7508 1748.31 73.7508 Q1743.32 73.7508 1739.72 71.8063 Q1736.15 69.8214 1733.8 65.7705 M1759.16 49.9314 Q1759.16 41.7081 1755.76 37.0496 Q1752.4 32.3505 1746.48 32.3505 Q1740.57 32.3505 1737.17 37.0496 Q1733.8 41.7081 1733.8 49.9314 Q1733.8 58.1548 1737.17 62.8538 Q1740.57 67.5124 1746.48 67.5124 Q1752.4 67.5124 1755.76 62.8538 Q1759.16 58.1548 1759.16 49.9314 Z" fill="#000000" fill-rule="evenodd" fill-opacity="1" /><path clip-path="url(#clip010)" d="M1823.53 9.62495 Q1818.1 18.942 1815.47 28.0566 Q1812.84 37.1711 1812.84 46.5287 Q1812.84 55.8863 1815.47 65.0818 Q1818.14 74.2369 1823.53 83.5134 L1817.05 83.5134 Q1810.97 73.9938 1807.93 64.7983 Q1804.94 55.6027 1804.94 46.5287 Q1804.94 37.4952 1807.93 28.3401 Q1810.93 19.1851 1817.05 9.62495 L1823.53 9.62495 Z" fill="#000000" fill-rule="evenodd" fill-opacity="1" /><path clip-path="url(#clip010)" d="M1837.71 9.54393 L1845.2 9.54393 L1845.2 46.7717 L1867.44 27.2059 L1876.96 27.2059 L1852.9 48.4326 L1877.97 72.576 L1868.25 72.576 L1845.2 50.4176 L1845.2 72.576 L1837.71 72.576 L1837.71 9.54393 Z" fill="#000000" fill-rule="evenodd" fill-opacity="1" /><path clip-path="url(#clip010)" d="M1894.54 18.8205 L1894.54 41.5461 L1904.83 41.5461 Q1910.54 41.5461 1913.66 38.5889 Q1916.78 35.6318 1916.78 30.163 Q1916.78 24.7348 1913.66 21.7777 Q1910.54 18.8205 1904.83 18.8205 L1894.54 18.8205 M1886.36 12.096 L1904.83 12.096 Q1915 12.096 1920.19 16.714 Q1925.41 21.2916 1925.41 30.163 Q1925.41 39.1155 1920.19 43.6931 Q1915 48.2706 1904.83 48.2706 L1894.54 48.2706 L1894.54 72.576 L1886.36 72.576 L1886.36 12.096 Z" fill="#000000" fill-rule="evenodd" fill-opacity="1" /><path clip-path="url(#clip010)" d="M1952.96 49.7694 Q1943.92 49.7694 1940.44 51.8354 Q1936.96 53.9013 1936.96 58.8839 Q1936.96 62.8538 1939.55 65.2034 Q1942.18 67.5124 1946.68 67.5124 Q1952.88 67.5124 1956.6 63.1374 Q1960.37 58.7219 1960.37 51.4303 L1960.37 49.7694 L1952.96 49.7694 M1967.82 46.6907 L1967.82 72.576 L1960.37 72.576 L1960.37 65.6895 Q1957.82 69.8214 1954.01 71.8063 Q1950.2 73.7508 1944.69 73.7508 Q1937.73 73.7508 1933.59 69.8619 Q1929.5 65.9325 1929.5 59.3701 Q1929.5 51.7138 1934.61 47.825 Q1939.75 43.9361 1949.92 43.9361 L1960.37 43.9361 L1960.37 43.2069 Q1960.37 38.0623 1956.97 35.2672 Q1953.61 32.4315 1947.49 32.4315 Q1943.6 32.4315 1939.91 33.3632 Q1936.23 34.295 1932.82 36.1584 L1932.82 29.2718 Q1936.92 27.692 1940.76 26.9223 Q1944.61 26.1121 1948.26 26.1121 Q1958.1 26.1121 1962.96 31.2163 Q1967.82 36.3204 1967.82 46.6907 Z" fill="#000000" fill-rule="evenodd" fill-opacity="1" /><path clip-path="url(#clip010)" d="M1982 9.62495 L1988.48 9.62495 Q1994.56 19.1851 1997.56 28.3401 Q2000.6 37.4952 2000.6 46.5287 Q2000.6 55.6027 1997.56 64.7983 Q1994.56 73.9938 1988.48 83.5134 L1982 83.5134 Q1987.39 74.2369 1990.02 65.0818 Q1992.7 55.8863 1992.7 46.5287 Q1992.7 37.1711 1990.02 28.0566 Q1987.39 18.942 1982 9.62495 Z" fill="#000000" fill-rule="evenodd" fill-opacity="1" /><polyline clip-path="url(#clip013)" style="stroke:#009af9; stroke-linecap:butt; stroke-linejoin:round; stroke-width:4; stroke-opacity:1; fill:none" points="
  2259.38,1319.59 2246.9,1304.82 2234.47,1290.06 2222.09,1275.3 2209.77,1260.53 2197.49,1245.77 2185.27,1231 2173.09,1216.24 2160.97,1201.48 2148.89,1186.71 
  2136.87,1171.95 2124.89,1157.19 2112.96,1142.42 2101.09,1127.66 2089.26,1112.89 2077.48,1098.13 2065.75,1083.37 2054.07,1068.6 2042.43,1053.84 2030.85,1039.07 
  2019.31,1024.31 2007.83,1009.55 1996.39,994.783 1984.99,980.019 1973.65,965.256 1962.36,950.492 1951.11,935.728 1939.91,920.964 1928.76,906.2 1917.65,891.437 
  1906.59,876.673 1895.58,861.909 1884.62,847.145 1873.7,832.381 1862.83,817.617 1852.01,802.854 1841.23,788.09 1830.5,773.326 1819.81,758.562 1809.18,743.798 
  1798.58,729.035 1788.04,714.271 1777.54,699.507 1767.08,684.743 1756.67,669.979 1746.31,655.215 1735.99,640.452 1725.72,625.688 1715.49,610.924 1705.3,596.16 
  1695.17,581.396 1685.07,566.633 1675.02,551.869 1665.02,537.105 1655.06,522.341 1645.14,507.577 1635.27,492.813 1625.44,478.05 1615.66,463.286 1605.93,448.522 
  1596.25,433.758 1586.62,418.994 1577.04,404.231 1567.5,389.467 1558.01,374.703 1548.58,359.939 1539.18,345.175 1529.84,330.411 1520.55,315.648 1511.3,300.884 
  1502.1,286.12 1492.94,271.356 1483.84,256.592 1474.78,241.829 1465.76,227.065 
  "/>
<polyline clip-path="url(#clip013)" style="stroke:#e26f46; stroke-linecap:butt; stroke-linejoin:round; stroke-width:4; stroke-opacity:1; fill:none" points="
  2265.63,1326.97 2253.13,1312.21 2240.68,1297.44 2228.28,1282.68 2215.93,1267.91 2203.63,1253.15 2191.37,1238.39 2179.17,1223.62 2167.02,1208.86 2154.92,1194.09 
  2142.87,1179.33 2130.87,1164.57 2118.92,1149.8 2107.02,1135.04 2095.17,1120.28 2083.36,1105.51 2071.61,1090.75 2059.9,1075.98 2048.24,1061.22 2036.63,1046.46 
  2025.07,1031.69 2013.56,1016.93 2002.1,1002.17 1990.68,987.401 1979.32,972.638 1968,957.874 1956.73,943.11 1945.5,928.346 1934.33,913.582 1923.2,898.818 
  1912.12,884.055 1901.08,869.291 1890.09,854.527 1879.15,839.763 1868.26,824.999 1857.41,810.236 1846.61,795.472 1835.86,780.708 1825.15,765.944 1814.49,751.18 
  1803.87,736.416 1793.3,721.653 1782.78,706.889 1772.3,692.125 1761.87,677.361 1751.48,662.597 1741.14,647.834 1730.85,633.07 1720.6,618.306 1710.39,603.542 
  1700.23,588.778 1690.11,574.014 1680.04,559.251 1670.01,544.487 1660.03,529.723 1650.09,514.959 1640.2,500.195 1630.35,485.432 1620.55,470.668 1610.79,455.904 
  1601.08,441.14 1591.43,426.376 1581.82,411.612 1572.26,396.849 1562.75,382.085 1553.29,367.321 1543.87,352.557 1534.51,337.793 1525.19,323.03 1515.92,308.266 
  1506.69,293.502 1497.52,278.738 1488.38,263.974 1479.3,249.21 1470.26,234.447 1461.27,219.683 
  "/>
<path clip-path="url(#clip010)" d="
M1994.32 381.108 L2261.34 381.108 L2261.34 225.588 L1994.32 225.588  Z
  " fill="#ffffff" fill-rule="evenodd" fill-opacity="1"/>
<polyline clip-path="url(#clip010)" style="stroke:#000000; stroke-linecap:butt; stroke-linejoin:round; stroke-width:4; stroke-opacity:1; fill:none" points="
  1994.32,381.108 2261.34,381.108 2261.34,225.588 1994.32,225.588 1994.32,381.108 
  "/>
<polyline clip-path="url(#clip010)" style="stroke:#009af9; stroke-linecap:butt; stroke-linejoin:round; stroke-width:4; stroke-opacity:1; fill:none" points="
  2003.79,277.428 2060.63,277.428 
  "/>
<path clip-path="url(#clip010)" d="M2090.61 269.778 L2090.61 273.759 Q2088.81 272.764 2086.98 272.278 Q2085.17 271.769 2083.32 271.769 Q2079.18 271.769 2076.89 274.408 Q2074.6 277.023 2074.6 281.769 Q2074.6 286.514 2076.89 289.153 Q2079.18 291.769 2083.32 291.769 Q2085.17 291.769 2086.98 291.282 Q2088.81 290.773 2090.61 289.778 L2090.61 293.713 Q2088.83 294.546 2086.91 294.963 Q2085.01 295.38 2082.86 295.38 Q2077 295.38 2073.55 291.699 Q2070.11 288.019 2070.11 281.769 Q2070.11 275.426 2073.58 271.792 Q2077.07 268.158 2083.14 268.158 Q2085.11 268.158 2086.98 268.574 Q2088.86 268.968 2090.61 269.778 Z" fill="#000000" fill-rule="evenodd" fill-opacity="1" /><path clip-path="url(#clip010)" d="M2120.2 280.681 L2120.2 282.764 L2100.61 282.764 Q2100.89 287.162 2103.25 289.477 Q2105.64 291.769 2109.87 291.769 Q2112.33 291.769 2114.62 291.167 Q2116.93 290.565 2119.2 289.361 L2119.2 293.389 Q2116.91 294.361 2114.5 294.87 Q2112.1 295.38 2109.62 295.38 Q2103.42 295.38 2099.78 291.769 Q2096.17 288.157 2096.17 282 Q2096.17 275.634 2099.6 271.908 Q2103.04 268.158 2108.88 268.158 Q2114.11 268.158 2117.14 271.537 Q2120.2 274.894 2120.2 280.681 M2115.94 279.431 Q2115.89 275.935 2113.97 273.852 Q2112.07 271.769 2108.92 271.769 Q2105.36 271.769 2103.21 273.783 Q2101.08 275.796 2100.75 279.454 L2115.94 279.431 Z" fill="#000000" fill-rule="evenodd" fill-opacity="1" /><path clip-path="url(#clip010)" d="M2148.74 279.06 L2148.74 294.708 L2144.48 294.708 L2144.48 279.199 Q2144.48 275.519 2143.04 273.69 Q2141.61 271.861 2138.74 271.861 Q2135.29 271.861 2133.3 274.06 Q2131.31 276.259 2131.31 280.056 L2131.31 294.708 L2127.03 294.708 L2127.03 268.783 L2131.31 268.783 L2131.31 272.81 Q2132.84 270.472 2134.9 269.315 Q2136.98 268.158 2139.69 268.158 Q2144.16 268.158 2146.45 270.935 Q2148.74 273.69 2148.74 279.06 Z" fill="#000000" fill-rule="evenodd" fill-opacity="1" /><path clip-path="url(#clip010)" d="M2161.45 261.422 L2161.45 268.783 L2170.22 268.783 L2170.22 272.093 L2161.45 272.093 L2161.45 286.167 Q2161.45 289.338 2162.3 290.241 Q2163.18 291.144 2165.85 291.144 L2170.22 291.144 L2170.22 294.708 L2165.85 294.708 Q2160.91 294.708 2159.04 292.88 Q2157.16 291.028 2157.16 286.167 L2157.16 272.093 L2154.04 272.093 L2154.04 268.783 L2157.16 268.783 L2157.16 261.422 L2161.45 261.422 Z" fill="#000000" fill-rule="evenodd" fill-opacity="1" /><path clip-path="url(#clip010)" d="M2198 280.681 L2198 282.764 L2178.41 282.764 Q2178.69 287.162 2181.05 289.477 Q2183.44 291.769 2187.67 291.769 Q2190.13 291.769 2192.42 291.167 Q2194.73 290.565 2197 289.361 L2197 293.389 Q2194.71 294.361 2192.3 294.87 Q2189.9 295.38 2187.42 295.38 Q2181.22 295.38 2177.58 291.769 Q2173.97 288.157 2173.97 282 Q2173.97 275.634 2177.4 271.908 Q2180.85 268.158 2186.68 268.158 Q2191.91 268.158 2194.94 271.537 Q2198 274.894 2198 280.681 M2193.74 279.431 Q2193.69 275.935 2191.77 273.852 Q2189.87 271.769 2186.72 271.769 Q2183.16 271.769 2181.01 273.783 Q2178.88 275.796 2178.55 279.454 L2193.74 279.431 Z" fill="#000000" fill-rule="evenodd" fill-opacity="1" /><path clip-path="url(#clip010)" d="M2220.01 272.764 Q2219.29 272.347 2218.44 272.162 Q2217.6 271.954 2216.59 271.954 Q2212.97 271.954 2211.03 274.315 Q2209.11 276.653 2209.11 281.051 L2209.11 294.708 L2204.83 294.708 L2204.83 268.783 L2209.11 268.783 L2209.11 272.81 Q2210.45 270.449 2212.6 269.315 Q2214.76 268.158 2217.84 268.158 Q2218.28 268.158 2218.81 268.227 Q2219.34 268.273 2219.99 268.389 L2220.01 272.764 Z" fill="#000000" fill-rule="evenodd" fill-opacity="1" /><path clip-path="url(#clip010)" d="M2241.01 269.546 L2241.01 273.574 Q2239.2 272.648 2237.26 272.185 Q2235.31 271.722 2233.23 271.722 Q2230.06 271.722 2228.46 272.695 Q2226.89 273.667 2226.89 275.611 Q2226.89 277.093 2228.02 277.949 Q2229.16 278.783 2232.58 279.546 L2234.04 279.87 Q2238.58 280.843 2240.47 282.625 Q2242.4 284.384 2242.4 287.556 Q2242.4 291.167 2239.53 293.273 Q2236.68 295.38 2231.68 295.38 Q2229.59 295.38 2227.33 294.963 Q2225.08 294.569 2222.58 293.759 L2222.58 289.361 Q2224.94 290.588 2227.23 291.213 Q2229.53 291.815 2231.77 291.815 Q2234.78 291.815 2236.4 290.796 Q2238.02 289.755 2238.02 287.88 Q2238.02 286.144 2236.84 285.218 Q2235.68 284.292 2231.72 283.435 L2230.24 283.088 Q2226.28 282.255 2224.53 280.542 Q2222.77 278.806 2222.77 275.796 Q2222.77 272.139 2225.36 270.148 Q2227.95 268.158 2232.72 268.158 Q2235.08 268.158 2237.16 268.505 Q2239.25 268.852 2241.01 269.546 Z" fill="#000000" fill-rule="evenodd" fill-opacity="1" /><polyline clip-path="url(#clip010)" style="stroke:#e26f46; stroke-linecap:butt; stroke-linejoin:round; stroke-width:4; stroke-opacity:1; fill:none" points="
  2003.79,329.268 2060.63,329.268 
  "/>
<path clip-path="url(#clip010)" d="M2086.61 310.53 L2086.61 314.072 L2082.54 314.072 Q2080.24 314.072 2079.34 314.998 Q2078.46 315.924 2078.46 318.331 L2078.46 320.623 L2085.48 320.623 L2085.48 323.933 L2078.46 323.933 L2078.46 346.548 L2074.18 346.548 L2074.18 323.933 L2070.11 323.933 L2070.11 320.623 L2074.18 320.623 L2074.18 318.817 Q2074.18 314.488 2076.19 312.521 Q2078.21 310.53 2082.58 310.53 L2086.61 310.53 Z" fill="#000000" fill-rule="evenodd" fill-opacity="1" /><path clip-path="url(#clip010)" d="M2101.96 333.516 Q2096.79 333.516 2094.8 334.697 Q2092.81 335.877 2092.81 338.724 Q2092.81 340.993 2094.29 342.335 Q2095.8 343.655 2098.37 343.655 Q2101.91 343.655 2104.04 341.155 Q2106.19 338.632 2106.19 334.465 L2106.19 333.516 L2101.96 333.516 M2110.45 331.757 L2110.45 346.548 L2106.19 346.548 L2106.19 342.613 Q2104.73 344.974 2102.56 346.109 Q2100.38 347.22 2097.23 347.22 Q2093.25 347.22 2090.89 344.997 Q2088.55 342.752 2088.55 339.002 Q2088.55 334.627 2091.47 332.405 Q2094.41 330.183 2100.22 330.183 L2106.19 330.183 L2106.19 329.766 Q2106.19 326.826 2104.25 325.229 Q2102.33 323.609 2098.83 323.609 Q2096.61 323.609 2094.5 324.141 Q2092.4 324.673 2090.45 325.738 L2090.45 321.803 Q2092.79 320.9 2094.99 320.461 Q2097.19 319.998 2099.27 319.998 Q2104.9 319.998 2107.67 322.914 Q2110.45 325.831 2110.45 331.757 Z" fill="#000000" fill-rule="evenodd" fill-opacity="1" /><path clip-path="url(#clip010)" d="M2137.88 321.618 L2137.88 325.599 Q2136.08 324.604 2134.25 324.118 Q2132.44 323.609 2130.59 323.609 Q2126.45 323.609 2124.16 326.248 Q2121.86 328.863 2121.86 333.609 Q2121.86 338.354 2124.16 340.993 Q2126.45 343.609 2130.59 343.609 Q2132.44 343.609 2134.25 343.122 Q2136.08 342.613 2137.88 341.618 L2137.88 345.553 Q2136.1 346.386 2134.18 346.803 Q2132.28 347.22 2130.13 347.22 Q2124.27 347.22 2120.82 343.539 Q2117.37 339.859 2117.37 333.609 Q2117.37 327.266 2120.85 323.632 Q2124.34 319.998 2130.41 319.998 Q2132.37 319.998 2134.25 320.414 Q2136.12 320.808 2137.88 321.618 Z" fill="#000000" fill-rule="evenodd" fill-opacity="1" /><path clip-path="url(#clip010)" d="M2167.47 332.521 L2167.47 334.604 L2147.88 334.604 Q2148.16 339.002 2150.52 341.317 Q2152.91 343.609 2157.14 343.609 Q2159.6 343.609 2161.89 343.007 Q2164.2 342.405 2166.47 341.201 L2166.47 345.229 Q2164.18 346.201 2161.77 346.71 Q2159.36 347.22 2156.89 347.22 Q2150.68 347.22 2147.05 343.609 Q2143.44 339.997 2143.44 333.84 Q2143.44 327.474 2146.86 323.748 Q2150.31 319.998 2156.15 319.998 Q2161.38 319.998 2164.41 323.377 Q2167.47 326.734 2167.47 332.521 M2163.21 331.271 Q2163.16 327.775 2161.24 325.692 Q2159.34 323.609 2156.19 323.609 Q2152.63 323.609 2150.48 325.623 Q2148.35 327.636 2148.02 331.294 L2163.21 331.271 Z" fill="#000000" fill-rule="evenodd" fill-opacity="1" /><path clip-path="url(#clip010)" d="M2190.98 321.386 L2190.98 325.414 Q2189.18 324.488 2187.23 324.025 Q2185.29 323.562 2183.21 323.562 Q2180.04 323.562 2178.44 324.535 Q2176.86 325.507 2176.86 327.451 Q2176.86 328.933 2178 329.789 Q2179.13 330.623 2182.56 331.386 L2184.02 331.71 Q2188.55 332.683 2190.45 334.465 Q2192.37 336.224 2192.37 339.396 Q2192.37 343.007 2189.5 345.113 Q2186.66 347.22 2181.66 347.22 Q2179.57 347.22 2177.3 346.803 Q2175.06 346.409 2172.56 345.599 L2172.56 341.201 Q2174.92 342.428 2177.21 343.053 Q2179.5 343.655 2181.75 343.655 Q2184.76 343.655 2186.38 342.636 Q2188 341.595 2188 339.72 Q2188 337.984 2186.82 337.058 Q2185.66 336.132 2181.7 335.275 L2180.22 334.928 Q2176.26 334.095 2174.5 332.382 Q2172.74 330.646 2172.74 327.636 Q2172.74 323.979 2175.34 321.988 Q2177.93 319.998 2182.7 319.998 Q2185.06 319.998 2187.14 320.345 Q2189.22 320.692 2190.98 321.386 Z" fill="#000000" fill-rule="evenodd" fill-opacity="1" /></svg>
