<?xml version="1.0" encoding="utf-8"?>
<svg xmlns="http://www.w3.org/2000/svg" xmlns:xlink="http://www.w3.org/1999/xlink" width="1000" height="400" viewBox="0 0 4000 1600">
<defs>
  <clipPath id="clip670">
    <rect x="0" y="0" width="4000" height="1600"/>
  </clipPath>
</defs>
<path clip-path="url(#clip670)" d="
M0 1600 L4000 1600 L4000 0 L0 0  Z
  " fill="#ffffff" fill-rule="evenodd" fill-opacity="1"/>
<defs>
  <clipPath id="clip671">
    <rect x="800" y="0" width="2801" height="1600"/>
  </clipPath>
</defs>
<path clip-path="url(#clip670)" d="
M279.364 1393.02 L3889.76 1393.02 L3889.76 162.272 L279.364 162.272  Z
  " fill="#ffffff" fill-rule="evenodd" fill-opacity="1"/>
<defs>
  <clipPath id="clip672">
    <rect x="279" y="162" width="3611" height="1232"/>
  </clipPath>
</defs>
<polyline clip-path="url(#clip672)" style="stroke:#000000; stroke-linecap:butt; stroke-linejoin:round; stroke-width:2; stroke-opacity:0.1; fill:none" points="
  367.543,1393.02 367.543,162.272 
  "/>
<polyline clip-path="url(#clip672)" style="stroke:#000000; stroke-linecap:butt; stroke-linejoin:round; stroke-width:2; stroke-opacity:0.1; fill:none" points="
  1386.62,1393.02 1386.62,162.272 
  "/>
<polyline clip-path="url(#clip672)" style="stroke:#000000; stroke-linecap:butt; stroke-linejoin:round; stroke-width:2; stroke-opacity:0.1; fill:none" points="
  2405.71,1393.02 2405.71,162.272 
  "/>
<polyline clip-path="url(#clip672)" style="stroke:#000000; stroke-linecap:butt; stroke-linejoin:round; stroke-width:2; stroke-opacity:0.1; fill:none" points="
  3424.79,1393.02 3424.79,162.272 
  "/>
<polyline clip-path="url(#clip670)" style="stroke:#000000; stroke-linecap:butt; stroke-linejoin:round; stroke-width:4; stroke-opacity:1; fill:none" points="
  279.364,1393.02 3889.76,1393.02 
  "/>
<polyline clip-path="url(#clip670)" style="stroke:#000000; stroke-linecap:butt; stroke-linejoin:round; stroke-width:4; stroke-opacity:1; fill:none" points="
  367.543,1393.02 367.543,1374.12 
  "/>
<polyline clip-path="url(#clip670)" style="stroke:#000000; stroke-linecap:butt; stroke-linejoin:round; stroke-width:4; stroke-opacity:1; fill:none" points="
  1386.62,1393.02 1386.62,1374.12 
  "/>
<polyline clip-path="url(#clip670)" style="stroke:#000000; stroke-linecap:butt; stroke-linejoin:round; stroke-width:4; stroke-opacity:1; fill:none" points="
  2405.71,1393.02 2405.71,1374.12 
  "/>
<polyline clip-path="url(#clip670)" style="stroke:#000000; stroke-linecap:butt; stroke-linejoin:round; stroke-width:4; stroke-opacity:1; fill:none" points="
  3424.79,1393.02 3424.79,1374.12 
  "/>
<path clip-path="url(#clip670)" d="M352.913 1451.81 Q349.58 1451.81 347.658 1453.59 Q345.76 1455.37 345.76 1458.5 Q345.76 1461.62 347.658 1463.4 Q349.58 1465.19 352.913 1465.19 Q356.246 1465.19 358.168 1463.4 Q360.089 1461.6 360.089 1458.5 Q360.089 1455.37 358.168 1453.59 Q356.27 1451.81 352.913 1451.81 M348.237 1449.82 Q345.228 1449.08 343.538 1447.02 Q341.871 1444.96 341.871 1441.99 Q341.871 1437.85 344.811 1435.44 Q347.774 1433.03 352.913 1433.03 Q358.075 1433.03 361.015 1435.44 Q363.955 1437.85 363.955 1441.99 Q363.955 1444.96 362.265 1447.02 Q360.598 1449.08 357.612 1449.82 Q360.992 1450.6 362.867 1452.9 Q364.765 1455.19 364.765 1458.5 Q364.765 1463.52 361.686 1466.21 Q358.631 1468.89 352.913 1468.89 Q347.195 1468.89 344.117 1466.21 Q341.061 1463.52 341.061 1458.5 Q341.061 1455.19 342.959 1452.9 Q344.858 1450.6 348.237 1449.82 M346.524 1442.43 Q346.524 1445.12 348.191 1446.62 Q349.881 1448.13 352.913 1448.13 Q355.922 1448.13 357.612 1446.62 Q359.325 1445.12 359.325 1442.43 Q359.325 1439.75 357.612 1438.24 Q355.922 1436.74 352.913 1436.74 Q349.881 1436.74 348.191 1438.24 Q346.524 1439.75 346.524 1442.43 Z" fill="#000000" fill-rule="evenodd" fill-opacity="1" /><path clip-path="url(#clip670)" d="M373.121 1433.66 L391.478 1433.66 L391.478 1437.59 L377.404 1437.59 L377.404 1446.07 Q378.422 1445.72 379.441 1445.56 Q380.459 1445.37 381.478 1445.37 Q387.265 1445.37 390.644 1448.54 Q394.024 1451.72 394.024 1457.13 Q394.024 1462.71 390.552 1465.81 Q387.08 1468.89 380.76 1468.89 Q378.584 1468.89 376.316 1468.52 Q374.07 1468.15 371.663 1467.41 L371.663 1462.71 Q373.746 1463.84 375.968 1464.4 Q378.191 1464.96 380.668 1464.96 Q384.672 1464.96 387.01 1462.85 Q389.348 1460.74 389.348 1457.13 Q389.348 1453.52 387.01 1451.41 Q384.672 1449.31 380.668 1449.31 Q378.793 1449.31 376.918 1449.72 Q375.066 1450.14 373.121 1451.02 L373.121 1433.66 Z" fill="#000000" fill-rule="evenodd" fill-opacity="1" /><path clip-path="url(#clip670)" d="M1361.75 1467.5 L1361.75 1463.24 Q1363.51 1464.08 1365.32 1464.52 Q1367.12 1464.96 1368.86 1464.96 Q1373.49 1464.96 1375.92 1461.85 Q1378.37 1458.73 1378.72 1452.39 Q1377.38 1454.38 1375.32 1455.44 Q1373.26 1456.51 1370.76 1456.51 Q1365.57 1456.51 1362.54 1453.38 Q1359.53 1450.23 1359.53 1444.79 Q1359.53 1439.47 1362.68 1436.25 Q1365.83 1433.03 1371.06 1433.03 Q1377.05 1433.03 1380.2 1437.64 Q1383.37 1442.22 1383.37 1450.97 Q1383.37 1459.15 1379.48 1464.03 Q1375.62 1468.89 1369.07 1468.89 Q1367.31 1468.89 1365.5 1468.54 Q1363.7 1468.2 1361.75 1467.5 M1371.06 1452.85 Q1374.21 1452.85 1376.03 1450.7 Q1377.89 1448.54 1377.89 1444.79 Q1377.89 1441.07 1376.03 1438.91 Q1374.21 1436.74 1371.06 1436.74 Q1367.91 1436.74 1366.06 1438.91 Q1364.23 1441.07 1364.23 1444.79 Q1364.23 1448.54 1366.06 1450.7 Q1367.91 1452.85 1371.06 1452.85 Z" fill="#000000" fill-rule="evenodd" fill-opacity="1" /><path clip-path="url(#clip670)" d="M1401.78 1436.74 Q1398.16 1436.74 1396.34 1440.3 Q1394.53 1443.84 1394.53 1450.97 Q1394.53 1458.08 1396.34 1461.65 Q1398.16 1465.19 1401.78 1465.19 Q1405.41 1465.19 1407.22 1461.65 Q1409.04 1458.08 1409.04 1450.97 Q1409.04 1443.84 1407.22 1440.3 Q1405.41 1436.74 1401.78 1436.74 M1401.78 1433.03 Q1407.59 1433.03 1410.64 1437.64 Q1413.72 1442.22 1413.72 1450.97 Q1413.72 1459.7 1410.64 1464.31 Q1407.59 1468.89 1401.78 1468.89 Q1395.97 1468.89 1392.89 1464.31 Q1389.83 1459.7 1389.83 1450.97 Q1389.83 1442.22 1392.89 1437.64 Q1395.97 1433.03 1401.78 1433.03 Z" fill="#000000" fill-rule="evenodd" fill-opacity="1" /><path clip-path="url(#clip670)" d="M2381.33 1467.5 L2381.33 1463.24 Q2383.09 1464.08 2384.9 1464.52 Q2386.7 1464.96 2388.44 1464.96 Q2393.07 1464.96 2395.5 1461.85 Q2397.95 1458.73 2398.3 1452.39 Q2396.96 1454.38 2394.9 1455.44 Q2392.84 1456.51 2390.34 1456.51 Q2385.15 1456.51 2382.12 1453.38 Q2379.11 1450.23 2379.11 1444.79 Q2379.11 1439.47 2382.26 1436.25 Q2385.41 1433.03 2390.64 1433.03 Q2396.63 1433.03 2399.78 1437.64 Q2402.95 1442.22 2402.95 1450.97 Q2402.95 1459.15 2399.06 1464.03 Q2395.2 1468.89 2388.65 1468.89 Q2386.89 1468.89 2385.08 1468.54 Q2383.28 1468.2 2381.33 1467.5 M2390.64 1452.85 Q2393.79 1452.85 2395.61 1450.7 Q2397.47 1448.54 2397.47 1444.79 Q2397.47 1441.07 2395.61 1438.91 Q2393.79 1436.74 2390.64 1436.74 Q2387.49 1436.74 2385.64 1438.91 Q2383.81 1441.07 2383.81 1444.79 Q2383.81 1448.54 2385.64 1450.7 Q2387.49 1452.85 2390.64 1452.85 Z" fill="#000000" fill-rule="evenodd" fill-opacity="1" /><path clip-path="url(#clip670)" d="M2411.4 1433.66 L2429.76 1433.66 L2429.76 1437.59 L2415.68 1437.59 L2415.68 1446.07 Q2416.7 1445.72 2417.72 1445.56 Q2418.74 1445.37 2419.76 1445.37 Q2425.54 1445.37 2428.92 1448.54 Q2432.3 1451.72 2432.3 1457.13 Q2432.3 1462.71 2428.83 1465.81 Q2425.36 1468.89 2419.04 1468.89 Q2416.86 1468.89 2414.6 1468.52 Q2412.35 1468.15 2409.94 1467.41 L2409.94 1462.71 Q2412.03 1463.84 2414.25 1464.4 Q2416.47 1464.96 2418.95 1464.96 Q2422.95 1464.96 2425.29 1462.85 Q2427.63 1460.74 2427.63 1457.13 Q2427.63 1453.52 2425.29 1451.41 Q2422.95 1449.31 2418.95 1449.31 Q2417.07 1449.31 2415.2 1449.72 Q2413.35 1450.14 2411.4 1451.02 L2411.4 1433.66 Z" fill="#000000" fill-rule="evenodd" fill-opacity="1" /><path clip-path="url(#clip670)" d="M3384.4 1464.28 L3392.03 1464.28 L3392.03 1437.92 L3383.72 1439.59 L3383.72 1435.33 L3391.99 1433.66 L3396.66 1433.66 L3396.66 1464.28 L3404.3 1464.28 L3404.3 1468.22 L3384.4 1468.22 L3384.4 1464.28 Z" fill="#000000" fill-rule="evenodd" fill-opacity="1" /><path clip-path="url(#clip670)" d="M3423.75 1436.74 Q3420.14 1436.74 3418.31 1440.3 Q3416.5 1443.84 3416.5 1450.97 Q3416.5 1458.08 3418.31 1461.65 Q3420.14 1465.19 3423.75 1465.19 Q3427.38 1465.19 3429.19 1461.65 Q3431.02 1458.08 3431.02 1450.97 Q3431.02 1443.84 3429.19 1440.3 Q3427.38 1436.74 3423.75 1436.74 M3423.75 1433.03 Q3429.56 1433.03 3432.61 1437.64 Q3435.69 1442.22 3435.69 1450.97 Q3435.69 1459.7 3432.61 1464.31 Q3429.56 1468.89 3423.75 1468.89 Q3417.94 1468.89 3414.86 1464.31 Q3411.8 1459.7 3411.8 1450.97 Q3411.8 1442.22 3414.86 1437.64 Q3417.94 1433.03 3423.75 1433.03 Z" fill="#000000" fill-rule="evenodd" fill-opacity="1" /><path clip-path="url(#clip670)" d="M3453.91 1436.74 Q3450.3 1436.74 3448.47 1440.3 Q3446.66 1443.84 3446.66 1450.97 Q3446.66 1458.08 3448.47 1461.65 Q3450.3 1465.19 3453.91 1465.19 Q3457.54 1465.19 3459.35 1461.65 Q3461.18 1458.08 3461.18 1450.97 Q3461.18 1443.84 3459.35 1440.3 Q3457.54 1436.74 3453.91 1436.74 M3453.91 1433.03 Q3459.72 1433.03 3462.78 1437.64 Q3465.85 1442.22 3465.85 1450.97 Q3465.85 1459.7 3462.78 1464.31 Q3459.72 1468.89 3453.91 1468.89 Q3448.1 1468.89 3445.02 1464.31 Q3441.97 1459.7 3441.97 1450.97 Q3441.97 1442.22 3445.02 1437.64 Q3448.1 1433.03 3453.91 1433.03 Z" fill="#000000" fill-rule="evenodd" fill-opacity="1" /><path clip-path="url(#clip670)" d="M1982.7 1556.54 L1982.7 1575.44 L1976.81 1575.44 L1976.81 1526.24 L1982.7 1526.24 L1982.7 1531.65 Q1984.54 1528.46 1987.34 1526.94 Q1990.18 1525.38 1994.09 1525.38 Q2000.58 1525.38 2004.63 1530.53 Q2008.7 1535.69 2008.7 1544.09 Q2008.7 1552.49 2004.63 1557.65 Q2000.58 1562.81 1994.09 1562.81 Q1990.18 1562.81 1987.34 1561.28 Q1984.54 1559.72 1982.7 1556.54 M2002.62 1544.09 Q2002.62 1537.63 1999.95 1533.97 Q1997.31 1530.28 1992.66 1530.28 Q1988.01 1530.28 1985.34 1533.97 Q1982.7 1537.63 1982.7 1544.09 Q1982.7 1550.55 1985.34 1554.24 Q1988.01 1557.91 1992.66 1557.91 Q1997.31 1557.91 1999.95 1554.24 Q2002.62 1550.55 2002.62 1544.09 Z" fill="#000000" fill-rule="evenodd" fill-opacity="1" /><path clip-path="url(#clip670)" d="M2053.2 1512.42 Q2048.93 1519.74 2046.86 1526.9 Q2044.79 1534.07 2044.79 1541.42 Q2044.79 1548.77 2046.86 1556 Q2048.96 1563.19 2053.2 1570.48 L2048.1 1570.48 Q2043.33 1563 2040.94 1555.77 Q2038.59 1548.55 2038.59 1541.42 Q2038.59 1534.32 2040.94 1527.13 Q2043.3 1519.93 2048.1 1512.42 L2053.2 1512.42 Z" fill="#000000" fill-rule="evenodd" fill-opacity="1" /><path clip-path="url(#clip670)" d="M2064.34 1512.36 L2070.23 1512.36 L2070.23 1541.61 L2087.7 1526.24 L2095.18 1526.24 L2076.27 1542.91 L2095.97 1561.88 L2088.34 1561.88 L2070.23 1544.47 L2070.23 1561.88 L2064.34 1561.88 L2064.34 1512.36 Z" fill="#000000" fill-rule="evenodd" fill-opacity="1" /><path clip-path="url(#clip670)" d="M2108.99 1519.65 L2108.99 1537.5 L2117.08 1537.5 Q2121.56 1537.5 2124.02 1535.18 Q2126.47 1532.86 2126.47 1528.56 Q2126.47 1524.29 2124.02 1521.97 Q2121.56 1519.65 2117.08 1519.65 L2108.99 1519.65 M2102.56 1514.36 L2117.08 1514.36 Q2125.07 1514.36 2129.14 1517.99 Q2133.25 1521.59 2133.25 1528.56 Q2133.25 1535.59 2129.14 1539.19 Q2125.07 1542.79 2117.08 1542.79 L2108.99 1542.79 L2108.99 1561.88 L2102.56 1561.88 L2102.56 1514.36 Z" fill="#000000" fill-rule="evenodd" fill-opacity="1" /><path clip-path="url(#clip670)" d="M2154.89 1543.96 Q2147.79 1543.96 2145.05 1545.59 Q2142.32 1547.21 2142.32 1551.13 Q2142.32 1554.24 2144.35 1556.09 Q2146.42 1557.91 2149.96 1557.91 Q2154.83 1557.91 2157.75 1554.47 Q2160.71 1551 2160.71 1545.27 L2160.71 1543.96 L2154.89 1543.96 M2166.57 1541.55 L2166.57 1561.88 L2160.71 1561.88 L2160.71 1556.47 Q2158.71 1559.72 2155.72 1561.28 Q2152.72 1562.81 2148.4 1562.81 Q2142.92 1562.81 2139.68 1559.75 Q2136.46 1556.66 2136.46 1551.51 Q2136.46 1545.49 2140.47 1542.44 Q2144.51 1539.38 2152.5 1539.38 L2160.71 1539.38 L2160.71 1538.81 Q2160.71 1534.77 2158.04 1532.57 Q2155.4 1530.34 2150.59 1530.34 Q2147.54 1530.34 2144.64 1531.07 Q2141.74 1531.81 2139.07 1533.27 L2139.07 1527.86 Q2142.29 1526.62 2145.31 1526.01 Q2148.33 1525.38 2151.2 1525.38 Q2158.93 1525.38 2162.75 1529.39 Q2166.57 1533.4 2166.57 1541.55 Z" fill="#000000" fill-rule="evenodd" fill-opacity="1" /><path clip-path="url(#clip670)" d="M2177.71 1512.42 L2182.8 1512.42 Q2187.58 1519.93 2189.93 1527.13 Q2192.32 1534.32 2192.32 1541.42 Q2192.32 1548.55 2189.93 1555.77 Q2187.58 1563 2182.8 1570.48 L2177.71 1570.48 Q2181.94 1563.19 2184.01 1556 Q2186.11 1548.77 2186.11 1541.42 Q2186.11 1534.07 2184.01 1526.9 Q2181.94 1519.74 2177.71 1512.42 Z" fill="#000000" fill-rule="evenodd" fill-opacity="1" /><polyline clip-path="url(#clip672)" style="stroke:#000000; stroke-linecap:butt; stroke-linejoin:round; stroke-width:2; stroke-opacity:0.1; fill:none" points="
  279.364,1358.19 3889.76,1358.19 
  "/>
<polyline clip-path="url(#clip672)" style="stroke:#000000; stroke-linecap:butt; stroke-linejoin:round; stroke-width:2; stroke-opacity:0.1; fill:none" points="
  279.364,971.16 3889.76,971.16 
  "/>
<polyline clip-path="url(#clip672)" style="stroke:#000000; stroke-linecap:butt; stroke-linejoin:round; stroke-width:2; stroke-opacity:0.1; fill:none" points="
  279.364,584.132 3889.76,584.132 
  "/>
<polyline clip-path="url(#clip672)" style="stroke:#000000; stroke-linecap:butt; stroke-linejoin:round; stroke-width:2; stroke-opacity:0.1; fill:none" points="
  279.364,197.105 3889.76,197.105 
  "/>
<polyline clip-path="url(#clip670)" style="stroke:#000000; stroke-linecap:butt; stroke-linejoin:round; stroke-width:4; stroke-opacity:1; fill:none" points="
  279.364,1393.02 279.364,162.272 
  "/>
<polyline clip-path="url(#clip670)" style="stroke:#000000; stroke-linecap:butt; stroke-linejoin:round; stroke-width:4; stroke-opacity:1; fill:none" points="
  279.364,1358.19 298.262,1358.19 
  "/>
<polyline clip-path="url(#clip670)" style="stroke:#000000; stroke-linecap:butt; stroke-linejoin:round; stroke-width:4; stroke-opacity:1; fill:none" points="
  279.364,971.16 298.262,971.16 
  "/>
<polyline clip-path="url(#clip670)" style="stroke:#000000; stroke-linecap:butt; stroke-linejoin:round; stroke-width:4; stroke-opacity:1; fill:none" points="
  279.364,584.132 298.262,584.132 
  "/>
<polyline clip-path="url(#clip670)" style="stroke:#000000; stroke-linecap:butt; stroke-linejoin:round; stroke-width:4; stroke-opacity:1; fill:none" points="
  279.364,197.105 298.262,197.105 
  "/>
<path clip-path="url(#clip670)" d="M162.189 1343.99 Q158.578 1343.99 156.749 1347.55 Q154.943 1351.09 154.943 1358.22 Q154.943 1365.33 156.749 1368.89 Q158.578 1372.43 162.189 1372.43 Q165.823 1372.43 167.628 1368.89 Q169.457 1365.33 169.457 1358.22 Q169.457 1351.09 167.628 1347.55 Q165.823 1343.99 162.189 1343.99 M162.189 1340.28 Q167.999 1340.28 171.054 1344.89 Q174.133 1349.47 174.133 1358.22 Q174.133 1366.95 171.054 1371.56 Q167.999 1376.14 162.189 1376.14 Q156.379 1376.14 153.3 1371.56 Q150.244 1366.95 150.244 1358.22 Q150.244 1349.47 153.3 1344.89 Q156.379 1340.28 162.189 1340.28 Z" fill="#000000" fill-rule="evenodd" fill-opacity="1" /><path clip-path="url(#clip670)" d="M182.351 1369.59 L187.235 1369.59 L187.235 1375.47 L182.351 1375.47 L182.351 1369.59 Z" fill="#000000" fill-rule="evenodd" fill-opacity="1" /><path clip-path="url(#clip670)" d="M207.42 1343.99 Q203.809 1343.99 201.98 1347.55 Q200.175 1351.09 200.175 1358.22 Q200.175 1365.33 201.98 1368.89 Q203.809 1372.43 207.42 1372.43 Q211.054 1372.43 212.86 1368.89 Q214.688 1365.33 214.688 1358.22 Q214.688 1351.09 212.86 1347.55 Q211.054 1343.99 207.42 1343.99 M207.42 1340.28 Q213.23 1340.28 216.286 1344.89 Q219.364 1349.47 219.364 1358.22 Q219.364 1366.95 216.286 1371.56 Q213.23 1376.14 207.42 1376.14 Q201.61 1376.14 198.531 1371.56 Q195.476 1366.95 195.476 1358.22 Q195.476 1349.47 198.531 1344.89 Q201.61 1340.28 207.42 1340.28 Z" fill="#000000" fill-rule="evenodd" fill-opacity="1" /><path clip-path="url(#clip670)" d="M163.184 956.958 Q159.573 956.958 157.744 960.523 Q155.939 964.065 155.939 971.194 Q155.939 978.301 157.744 981.866 Q159.573 985.407 163.184 985.407 Q166.818 985.407 168.624 981.866 Q170.453 978.301 170.453 971.194 Q170.453 964.065 168.624 960.523 Q166.818 956.958 163.184 956.958 M163.184 953.255 Q168.994 953.255 172.05 957.861 Q175.128 962.445 175.128 971.194 Q175.128 979.921 172.05 984.528 Q168.994 989.111 163.184 989.111 Q157.374 989.111 154.295 984.528 Q151.24 979.921 151.24 971.194 Q151.24 962.445 154.295 957.861 Q157.374 953.255 163.184 953.255 Z" fill="#000000" fill-rule="evenodd" fill-opacity="1" /><path clip-path="url(#clip670)" d="M183.346 982.56 L188.23 982.56 L188.23 988.44 L183.346 988.44 L183.346 982.56 Z" fill="#000000" fill-rule="evenodd" fill-opacity="1" /><path clip-path="url(#clip670)" d="M198.462 953.88 L216.818 953.88 L216.818 957.815 L202.744 957.815 L202.744 966.287 Q203.763 965.94 204.781 965.778 Q205.8 965.593 206.818 965.593 Q212.605 965.593 215.985 968.764 Q219.364 971.935 219.364 977.352 Q219.364 982.931 215.892 986.032 Q212.42 989.111 206.1 989.111 Q203.925 989.111 201.656 988.741 Q199.411 988.37 197.003 987.63 L197.003 982.931 Q199.087 984.065 201.309 984.62 Q203.531 985.176 206.008 985.176 Q210.012 985.176 212.35 983.069 Q214.688 980.963 214.688 977.352 Q214.688 973.741 212.35 971.634 Q210.012 969.528 206.008 969.528 Q204.133 969.528 202.258 969.944 Q200.406 970.361 198.462 971.241 L198.462 953.88 Z" fill="#000000" fill-rule="evenodd" fill-opacity="1" /><path clip-path="url(#clip670)" d="M152.999 597.477 L160.638 597.477 L160.638 571.111 L152.328 572.778 L152.328 568.519 L160.591 566.852 L165.267 566.852 L165.267 597.477 L172.906 597.477 L172.906 601.412 L152.999 601.412 L152.999 597.477 Z" fill="#000000" fill-rule="evenodd" fill-opacity="1" /><path clip-path="url(#clip670)" d="M182.351 595.533 L187.235 595.533 L187.235 601.412 L182.351 601.412 L182.351 595.533 Z" fill="#000000" fill-rule="evenodd" fill-opacity="1" /><path clip-path="url(#clip670)" d="M207.42 569.931 Q203.809 569.931 201.98 573.496 Q200.175 577.037 200.175 584.167 Q200.175 591.273 201.98 594.838 Q203.809 598.38 207.42 598.38 Q211.054 598.38 212.86 594.838 Q214.688 591.273 214.688 584.167 Q214.688 577.037 212.86 573.496 Q211.054 569.931 207.42 569.931 M207.42 566.227 Q213.23 566.227 216.286 570.834 Q219.364 575.417 219.364 584.167 Q219.364 592.894 216.286 597.5 Q213.23 602.084 207.42 602.084 Q201.61 602.084 198.531 597.5 Q195.476 592.894 195.476 584.167 Q195.476 575.417 198.531 570.834 Q201.61 566.227 207.42 566.227 Z" fill="#000000" fill-rule="evenodd" fill-opacity="1" /><path clip-path="url(#clip670)" d="M153.994 210.45 L161.633 210.45 L161.633 184.084 L153.323 185.751 L153.323 181.491 L161.587 179.825 L166.263 179.825 L166.263 210.45 L173.902 210.45 L173.902 214.385 L153.994 214.385 L153.994 210.45 Z" fill="#000000" fill-rule="evenodd" fill-opacity="1" /><path clip-path="url(#clip670)" d="M183.346 208.505 L188.23 208.505 L188.23 214.385 L183.346 214.385 L183.346 208.505 Z" fill="#000000" fill-rule="evenodd" fill-opacity="1" /><path clip-path="url(#clip670)" d="M198.462 179.825 L216.818 179.825 L216.818 183.76 L202.744 183.76 L202.744 192.232 Q203.763 191.885 204.781 191.723 Q205.8 191.538 206.818 191.538 Q212.605 191.538 215.985 194.709 Q219.364 197.88 219.364 203.297 Q219.364 208.875 215.892 211.977 Q212.42 215.056 206.1 215.056 Q203.925 215.056 201.656 214.686 Q199.411 214.315 197.003 213.575 L197.003 208.875 Q199.087 210.01 201.309 210.565 Q203.531 211.121 206.008 211.121 Q210.012 211.121 212.35 209.014 Q214.688 206.908 214.688 203.297 Q214.688 199.686 212.35 197.579 Q210.012 195.473 206.008 195.473 Q204.133 195.473 202.258 195.889 Q200.406 196.306 198.462 197.186 L198.462 179.825 Z" fill="#000000" fill-rule="evenodd" fill-opacity="1" /><path clip-path="url(#clip670)" d="M40.3403 876.171 L40.3403 848.353 L45.6875 848.353 L71.3095 870.378 L71.3095 848.353 L75.9883 848.353 L75.9883 876.967 L70.6411 876.967 L45.0191 854.942 L45.0191 876.171 L40.3403 876.171 Z" fill="#000000" fill-rule="evenodd" fill-opacity="1" /><path clip-path="url(#clip670)" d="M26.5267 804.621 Q33.8473 808.886 41.0087 810.955 Q48.1701 813.023 55.5225 813.023 Q62.8749 813.023 70.1 810.955 Q77.2933 808.854 84.582 804.621 L84.582 809.713 Q77.1023 814.488 69.8772 816.875 Q62.6521 819.23 55.5225 819.23 Q48.4248 819.23 41.2315 816.875 Q34.0383 814.519 26.5267 809.713 L26.5267 804.621 Z" fill="#000000" fill-rule="evenodd" fill-opacity="1" /><path clip-path="url(#clip670)" d="M26.4631 793.481 L26.4631 787.592 L55.7135 787.592 L40.3403 770.119 L40.3403 762.639 L57.0185 781.545 L75.9883 761.843 L75.9883 769.482 L58.5781 787.592 L75.9883 787.592 L75.9883 793.481 L26.4631 793.481 Z" fill="#000000" fill-rule="evenodd" fill-opacity="1" /><path clip-path="url(#clip670)" d="M47.1835 727.755 Q43.2367 725.559 41.3588 722.503 Q39.481 719.448 39.481 715.31 Q39.481 709.74 43.3959 706.716 Q47.2789 703.692 54.4722 703.692 L75.9883 703.692 L75.9883 709.581 L54.6632 709.581 Q49.5388 709.581 47.0561 711.395 Q44.5735 713.209 44.5735 716.933 Q44.5735 721.485 47.5972 724.126 Q50.6209 726.768 55.8408 726.768 L75.9883 726.768 L75.9883 732.656 L54.6632 732.656 Q49.5069 732.656 47.0561 734.471 Q44.5735 736.285 44.5735 740.072 Q44.5735 744.56 47.6291 747.202 Q50.6528 749.844 55.8408 749.844 L75.9883 749.844 L75.9883 755.732 L40.3403 755.732 L40.3403 749.844 L45.8785 749.844 Q42.6002 747.839 41.0406 745.038 Q39.481 742.237 39.481 738.385 Q39.481 734.502 41.4543 731.797 Q43.4277 729.06 47.1835 727.755 Z" fill="#000000" fill-rule="evenodd" fill-opacity="1" /><path clip-path="url(#clip670)" d="M26.5267 692.934 L26.5267 687.842 Q34.0383 683.067 41.2315 680.712 Q48.4248 678.325 55.5225 678.325 Q62.6521 678.325 69.8772 680.712 Q77.1023 683.067 84.582 687.842 L84.582 692.934 Q77.2933 688.701 70.1 686.632 Q62.8749 684.532 55.5225 684.532 Q48.1701 684.532 41.0087 686.632 Q33.8473 688.701 26.5267 692.934 Z" fill="#000000" fill-rule="evenodd" fill-opacity="1" /><path clip-path="url(#clip670)" d="M1954.91 65.7705 L1954.91 89.8329 L1947.42 89.8329 L1947.42 27.2059 L1954.91 27.2059 L1954.91 34.0924 Q1957.26 30.0415 1960.83 28.0971 Q1964.43 26.1121 1969.42 26.1121 Q1977.68 26.1121 1982.83 32.6746 Q1988.01 39.2371 1988.01 49.9314 Q1988.01 60.6258 1982.83 67.1883 Q1977.68 73.7508 1969.42 73.7508 Q1964.43 73.7508 1960.83 71.8063 Q1957.26 69.8214 1954.91 65.7705 M1980.27 49.9314 Q1980.27 41.7081 1976.87 37.0496 Q1973.51 32.3505 1967.59 32.3505 Q1961.68 32.3505 1958.28 37.0496 Q1954.91 41.7081 1954.91 49.9314 Q1954.91 58.1548 1958.28 62.8538 Q1961.68 67.5124 1967.59 67.5124 Q1973.51 67.5124 1976.87 62.8538 Q1980.27 58.1548 1980.27 49.9314 Z" fill="#000000" fill-rule="evenodd" fill-opacity="1" /><path clip-path="url(#clip670)" d="M2044.64 9.62495 Q2039.21 18.942 2036.58 28.0566 Q2033.95 37.1711 2033.95 46.5287 Q2033.95 55.8863 2036.58 65.0818 Q2039.25 74.2369 2044.64 83.5134 L2038.16 83.5134 Q2032.08 73.9938 2029.05 64.7983 Q2026.05 55.6027 2026.05 46.5287 Q2026.05 37.4952 2029.05 28.3401 Q2032.04 19.1851 2038.16 9.62495 L2044.64 9.62495 Z" fill="#000000" fill-rule="evenodd" fill-opacity="1" /><path clip-path="url(#clip670)" d="M2058.82 9.54393 L2066.31 9.54393 L2066.31 46.7717 L2088.55 27.2059 L2098.07 27.2059 L2074.01 48.4326 L2099.09 72.576 L2089.36 72.576 L2066.31 50.4176 L2066.31 72.576 L2058.82 72.576 L2058.82 9.54393 Z" fill="#000000" fill-rule="evenodd" fill-opacity="1" /><path clip-path="url(#clip670)" d="M2115.65 18.8205 L2115.65 41.5461 L2125.94 41.5461 Q2131.66 41.5461 2134.77 38.5889 Q2137.89 35.6318 2137.89 30.163 Q2137.89 24.7348 2134.77 21.7777 Q2131.66 18.8205 2125.94 18.8205 L2115.65 18.8205 M2107.47 12.096 L2125.94 12.096 Q2136.11 12.096 2141.3 16.714 Q2146.52 21.2916 2146.52 30.163 Q2146.52 39.1155 2141.3 43.6931 Q2136.11 48.2706 2125.94 48.2706 L2115.65 48.2706 L2115.65 72.576 L2107.47 72.576 L2107.47 12.096 Z" fill="#000000" fill-rule="evenodd" fill-opacity="1" /><path clip-path="url(#clip670)" d="M2174.07 49.7694 Q2165.04 49.7694 2161.55 51.8354 Q2158.07 53.9013 2158.07 58.8839 Q2158.07 62.8538 2160.66 65.2034 Q2163.29 67.5124 2167.79 67.5124 Q2173.99 67.5124 2177.71 63.1374 Q2181.48 58.7219 2181.48 51.4303 L2181.48 49.7694 L2174.07 49.7694 M2188.94 46.6907 L2188.94 72.576 L2181.48 72.576 L2181.48 65.6895 Q2178.93 69.8214 2175.12 71.8063 Q2171.31 73.7508 2165.8 73.7508 Q2158.84 73.7508 2154.71 69.8619 Q2150.61 65.9325 2150.61 59.3701 Q2150.61 51.7138 2155.72 47.825 Q2160.86 43.9361 2171.03 43.9361 L2181.48 43.9361 L2181.48 43.2069 Q2181.48 38.0623 2178.08 35.2672 Q2174.72 32.4315 2168.6 32.4315 Q2164.71 32.4315 2161.02 33.3632 Q2157.34 34.295 2153.94 36.1584 L2153.94 29.2718 Q2158.03 27.692 2161.88 26.9223 Q2165.72 26.1121 2169.37 26.1121 Q2179.21 26.1121 2184.07 31.2163 Q2188.94 36.3204 2188.94 46.6907 Z" fill="#000000" fill-rule="evenodd" fill-opacity="1" /><path clip-path="url(#clip670)" d="M2203.11 9.62495 L2209.6 9.62495 Q2215.67 19.1851 2218.67 28.3401 Q2221.71 37.4952 2221.71 46.5287 Q2221.71 55.6027 2218.67 64.7983 Q2215.67 73.9938 2209.6 83.5134 L2203.11 83.5134 Q2208.5 74.2369 2211.13 65.0818 Q2213.81 55.8863 2213.81 46.5287 Q2213.81 37.1711 2211.13 28.0566 Q2208.5 18.942 2203.11 9.62495 Z" fill="#000000" fill-rule="evenodd" fill-opacity="1" /><polyline clip-path="url(#clip672)" style="stroke:#009af9; stroke-linecap:butt; stroke-linejoin:round; stroke-width:4; stroke-opacity:1; fill:none" points="
  3726.97,1338.84 3606.12,1300.13 3485.78,1261.43 3365.94,1222.73 3246.61,1184.02 3127.77,1145.32 3009.44,1106.62 2891.6,1067.92 2774.27,1029.21 2657.43,990.511 
  2541.08,951.808 2425.23,913.106 2309.9,874.403 2195.13,835.7 2080.93,796.997 1967.29,758.295 1854.21,719.592 1741.69,680.889 1629.74,642.186 1518.33,603.484 
  1407.48,564.781 1297.18,526.078 1187.43,487.375 1078.23,448.673 969.564,409.97 861.444,371.267 753.863,332.564 646.82,293.862 540.311,255.159 434.335,216.456 
  
  "/>
<polyline clip-path="url(#clip672)" style="stroke:#e26f46; stroke-linecap:butt; stroke-linejoin:round; stroke-width:4; stroke-opacity:1; fill:none" points="
  3787.58,1358.19 3666.48,1319.48 3545.89,1280.78 3425.8,1242.08 3306.21,1203.38 3187.13,1164.67 3068.54,1125.97 2950.46,1087.27 2832.87,1048.57 2715.79,1009.86 
  2599.19,971.16 2483.1,932.457 2367.5,893.754 2252.44,855.051 2137.96,816.349 2024.04,777.646 1910.68,738.943 1797.88,700.24 1685.65,661.538 1573.96,622.835 
  1462.84,584.132 1352.26,545.429 1242.24,506.727 1132.76,468.024 1023.83,429.321 915.436,390.618 807.586,351.916 700.275,313.213 593.499,274.51 487.256,235.807 
  381.545,197.105 
  "/>
<path clip-path="url(#clip670)" d="
M3195.97 358.817 L3769.42 358.817 L3769.42 203.297 L3195.97 203.297  Z
  " fill="#ffffff" fill-rule="evenodd" fill-opacity="1"/>
<polyline clip-path="url(#clip670)" style="stroke:#000000; stroke-linecap:butt; stroke-linejoin:round; stroke-width:4; stroke-opacity:1; fill:none" points="
  3195.97,358.817 3769.42,358.817 3769.42,203.297 3195.97,203.297 3195.97,358.817 
  "/>
<polyline clip-path="url(#clip670)" style="stroke:#009af9; stroke-linecap:butt; stroke-linejoin:round; stroke-width:4; stroke-opacity:1; fill:none" points="
  3236.09,255.137 3476.78,255.137 
  "/>
<path clip-path="url(#clip670)" d="M3537.4 247.487 L3537.4 251.468 Q3535.6 250.473 3533.77 249.987 Q3531.96 249.477 3530.11 249.477 Q3525.97 249.477 3523.68 252.116 Q3521.39 254.732 3521.39 259.477 Q3521.39 264.223 3523.68 266.862 Q3525.97 269.477 3530.11 269.477 Q3531.96 269.477 3533.77 268.991 Q3535.6 268.482 3537.4 267.487 L3537.4 271.422 Q3535.62 272.255 3533.7 272.672 Q3531.8 273.088 3529.65 273.088 Q3523.79 273.088 3520.34 269.408 Q3516.9 265.727 3516.9 259.477 Q3516.9 253.135 3520.37 249.501 Q3523.86 245.866 3529.93 245.866 Q3531.9 245.866 3533.77 246.283 Q3535.65 246.677 3537.4 247.487 Z" fill="#000000" fill-rule="evenodd" fill-opacity="1" /><path clip-path="url(#clip670)" d="M3566.99 258.389 L3566.99 260.473 L3547.4 260.473 Q3547.68 264.871 3550.04 267.186 Q3552.43 269.477 3556.66 269.477 Q3559.12 269.477 3561.41 268.876 Q3563.72 268.274 3565.99 267.07 L3565.99 271.098 Q3563.7 272.07 3561.29 272.579 Q3558.89 273.088 3556.41 273.088 Q3550.21 273.088 3546.57 269.477 Q3542.96 265.866 3542.96 259.709 Q3542.96 253.343 3546.39 249.616 Q3549.83 245.866 3555.67 245.866 Q3560.9 245.866 3563.93 249.246 Q3566.99 252.602 3566.99 258.389 M3562.73 257.139 Q3562.68 253.644 3560.76 251.561 Q3558.86 249.477 3555.71 249.477 Q3552.15 249.477 3550 251.491 Q3547.87 253.505 3547.54 257.163 L3562.73 257.139 Z" fill="#000000" fill-rule="evenodd" fill-opacity="1" /><path clip-path="url(#clip670)" d="M3595.53 256.769 L3595.53 272.417 L3591.27 272.417 L3591.27 256.908 Q3591.27 253.227 3589.83 251.399 Q3588.4 249.57 3585.53 249.57 Q3582.08 249.57 3580.09 251.769 Q3578.1 253.968 3578.1 257.764 L3578.1 272.417 L3573.82 272.417 L3573.82 246.491 L3578.1 246.491 L3578.1 250.519 Q3579.63 248.181 3581.69 247.024 Q3583.77 245.866 3586.48 245.866 Q3590.95 245.866 3593.24 248.644 Q3595.53 251.399 3595.53 256.769 Z" fill="#000000" fill-rule="evenodd" fill-opacity="1" /><path clip-path="url(#clip670)" d="M3608.24 239.13 L3608.24 246.491 L3617.01 246.491 L3617.01 249.802 L3608.24 249.802 L3608.24 263.876 Q3608.24 267.047 3609.09 267.95 Q3609.97 268.852 3612.64 268.852 L3617.01 268.852 L3617.01 272.417 L3612.64 272.417 Q3607.7 272.417 3605.83 270.588 Q3603.96 268.737 3603.96 263.876 L3603.96 249.802 L3600.83 249.802 L3600.83 246.491 L3603.96 246.491 L3603.96 239.13 L3608.24 239.13 Z" fill="#000000" fill-rule="evenodd" fill-opacity="1" /><path clip-path="url(#clip670)" d="M3644.79 258.389 L3644.79 260.473 L3625.2 260.473 Q3625.48 264.871 3627.84 267.186 Q3630.23 269.477 3634.46 269.477 Q3636.92 269.477 3639.21 268.876 Q3641.52 268.274 3643.79 267.07 L3643.79 271.098 Q3641.5 272.07 3639.09 272.579 Q3636.69 273.088 3634.21 273.088 Q3628.01 273.088 3624.37 269.477 Q3620.76 265.866 3620.76 259.709 Q3620.76 253.343 3624.19 249.616 Q3627.64 245.866 3633.47 245.866 Q3638.7 245.866 3641.73 249.246 Q3644.79 252.602 3644.79 258.389 M3640.53 257.139 Q3640.48 253.644 3638.56 251.561 Q3636.66 249.477 3633.52 249.477 Q3629.95 249.477 3627.8 251.491 Q3625.67 253.505 3625.34 257.163 L3640.53 257.139 Z" fill="#000000" fill-rule="evenodd" fill-opacity="1" /><path clip-path="url(#clip670)" d="M3666.8 250.473 Q3666.08 250.056 3665.23 249.871 Q3664.39 249.663 3663.38 249.663 Q3659.76 249.663 3657.82 252.024 Q3655.9 254.362 3655.9 258.76 L3655.9 272.417 L3651.62 272.417 L3651.62 246.491 L3655.9 246.491 L3655.9 250.519 Q3657.24 248.158 3659.39 247.024 Q3661.55 245.866 3664.63 245.866 Q3665.07 245.866 3665.6 245.936 Q3666.13 245.982 3666.78 246.098 L3666.8 250.473 Z" fill="#000000" fill-rule="evenodd" fill-opacity="1" /><path clip-path="url(#clip670)" d="M3687.8 247.255 L3687.8 251.283 Q3685.99 250.357 3684.05 249.894 Q3682.1 249.431 3680.02 249.431 Q3676.85 249.431 3675.25 250.403 Q3673.68 251.376 3673.68 253.32 Q3673.68 254.802 3674.81 255.658 Q3675.95 256.491 3679.37 257.255 L3680.83 257.579 Q3685.37 258.552 3687.26 260.334 Q3689.19 262.093 3689.19 265.264 Q3689.19 268.876 3686.32 270.982 Q3683.47 273.088 3678.47 273.088 Q3676.39 273.088 3674.12 272.672 Q3671.87 272.278 3669.37 271.468 L3669.37 267.07 Q3671.73 268.297 3674.02 268.922 Q3676.32 269.524 3678.56 269.524 Q3681.57 269.524 3683.19 268.505 Q3684.81 267.463 3684.81 265.589 Q3684.81 263.852 3683.63 262.926 Q3682.47 262.001 3678.51 261.144 L3677.03 260.797 Q3673.08 259.964 3671.32 258.251 Q3669.56 256.514 3669.56 253.505 Q3669.56 249.848 3672.15 247.857 Q3674.74 245.866 3679.51 245.866 Q3681.87 245.866 3683.95 246.214 Q3686.04 246.561 3687.8 247.255 Z" fill="#000000" fill-rule="evenodd" fill-opacity="1" /><polyline clip-path="url(#clip670)" style="stroke:#e26f46; stroke-linecap:butt; stroke-linejoin:round; stroke-width:4; stroke-opacity:1; fill:none" points="
  3236.09,306.977 3476.78,306.977 
  "/>
<path clip-path="url(#clip670)" d="M3533.4 288.239 L3533.4 291.78 L3529.33 291.78 Q3527.03 291.78 3526.13 292.706 Q3525.25 293.632 3525.25 296.04 L3525.25 298.331 L3532.27 298.331 L3532.27 301.642 L3525.25 301.642 L3525.25 324.257 L3520.97 324.257 L3520.97 301.642 L3516.9 301.642 L3516.9 298.331 L3520.97 298.331 L3520.97 296.526 Q3520.97 292.197 3522.98 290.23 Q3525 288.239 3529.37 288.239 L3533.4 288.239 Z" fill="#000000" fill-rule="evenodd" fill-opacity="1" /><path clip-path="url(#clip670)" d="M3548.75 311.225 Q3543.58 311.225 3541.59 312.405 Q3539.6 313.586 3539.6 316.433 Q3539.6 318.702 3541.08 320.044 Q3542.59 321.364 3545.16 321.364 Q3548.7 321.364 3550.83 318.864 Q3552.98 316.341 3552.98 312.174 L3552.98 311.225 L3548.75 311.225 M3557.24 309.466 L3557.24 324.257 L3552.98 324.257 L3552.98 320.322 Q3551.52 322.683 3549.35 323.817 Q3547.17 324.928 3544.02 324.928 Q3540.04 324.928 3537.68 322.706 Q3535.34 320.461 3535.34 316.711 Q3535.34 312.336 3538.26 310.114 Q3541.2 307.892 3547.01 307.892 L3552.98 307.892 L3552.98 307.475 Q3552.98 304.535 3551.04 302.938 Q3549.12 301.317 3545.62 301.317 Q3543.4 301.317 3541.29 301.85 Q3539.19 302.382 3537.24 303.447 L3537.24 299.512 Q3539.58 298.609 3541.78 298.169 Q3543.98 297.706 3546.06 297.706 Q3551.69 297.706 3554.46 300.623 Q3557.24 303.54 3557.24 309.466 Z" fill="#000000" fill-rule="evenodd" fill-opacity="1" /><path clip-path="url(#clip670)" d="M3584.67 299.327 L3584.67 303.308 Q3582.87 302.313 3581.04 301.827 Q3579.23 301.317 3577.38 301.317 Q3573.24 301.317 3570.95 303.956 Q3568.65 306.572 3568.65 311.317 Q3568.65 316.063 3570.95 318.702 Q3573.24 321.317 3577.38 321.317 Q3579.23 321.317 3581.04 320.831 Q3582.87 320.322 3584.67 319.327 L3584.67 323.262 Q3582.89 324.095 3580.97 324.512 Q3579.07 324.928 3576.92 324.928 Q3571.06 324.928 3567.61 321.248 Q3564.16 317.567 3564.16 311.317 Q3564.16 304.975 3567.64 301.341 Q3571.13 297.706 3577.2 297.706 Q3579.16 297.706 3581.04 298.123 Q3582.91 298.517 3584.67 299.327 Z" fill="#000000" fill-rule="evenodd" fill-opacity="1" /><path clip-path="url(#clip670)" d="M3614.26 310.229 L3614.26 312.313 L3594.67 312.313 Q3594.95 316.711 3597.31 319.026 Q3599.7 321.317 3603.93 321.317 Q3606.39 321.317 3608.68 320.716 Q3610.99 320.114 3613.26 318.91 L3613.26 322.938 Q3610.97 323.91 3608.56 324.419 Q3606.15 324.928 3603.68 324.928 Q3597.47 324.928 3593.84 321.317 Q3590.23 317.706 3590.23 311.549 Q3590.23 305.183 3593.65 301.456 Q3597.1 297.706 3602.94 297.706 Q3608.17 297.706 3611.2 301.086 Q3614.26 304.442 3614.26 310.229 M3610 308.979 Q3609.95 305.484 3608.03 303.401 Q3606.13 301.317 3602.98 301.317 Q3599.42 301.317 3597.27 303.331 Q3595.14 305.345 3594.81 309.003 L3610 308.979 Z" fill="#000000" fill-rule="evenodd" fill-opacity="1" /><path clip-path="url(#clip670)" d="M3637.77 299.095 L3637.77 303.123 Q3635.97 302.197 3634.02 301.734 Q3632.08 301.271 3630 301.271 Q3626.83 301.271 3625.23 302.243 Q3623.65 303.216 3623.65 305.16 Q3623.65 306.642 3624.79 307.498 Q3625.92 308.331 3629.35 309.095 L3630.81 309.419 Q3635.34 310.392 3637.24 312.174 Q3639.16 313.933 3639.16 317.104 Q3639.16 320.716 3636.29 322.822 Q3633.45 324.928 3628.45 324.928 Q3626.36 324.928 3624.09 324.512 Q3621.85 324.118 3619.35 323.308 L3619.35 318.91 Q3621.71 320.137 3624 320.762 Q3626.29 321.364 3628.54 321.364 Q3631.55 321.364 3633.17 320.345 Q3634.79 319.303 3634.79 317.429 Q3634.79 315.692 3633.61 314.766 Q3632.45 313.841 3628.49 312.984 L3627.01 312.637 Q3623.05 311.804 3621.29 310.091 Q3619.53 308.354 3619.53 305.345 Q3619.53 301.688 3622.13 299.697 Q3624.72 297.706 3629.49 297.706 Q3631.85 297.706 3633.93 298.054 Q3636.02 298.401 3637.77 299.095 Z" fill="#000000" fill-rule="evenodd" fill-opacity="1" /></svg>
