<?xml version="1.0" encoding="utf-8"?>
<svg xmlns="http://www.w3.org/2000/svg" xmlns:xlink="http://www.w3.org/1999/xlink" width="1000" height="400" viewBox="0 0 4000 1600">
<defs>
  <clipPath id="clip320">
    <rect x="0" y="0" width="4000" height="1600"/>
  </clipPath>
</defs>
<path clip-path="url(#clip320)" d="
M0 1600 L4000 1600 L4000 0 L0 0  Z
  " fill="#ffffff" fill-rule="evenodd" fill-opacity="1"/>
<defs>
  <clipPath id="clip321">
    <rect x="800" y="0" width="2801" height="1600"/>
  </clipPath>
</defs>
<path clip-path="url(#clip320)" d="
M279.364 1393.02 L3889.76 1393.02 L3889.76 162.272 L279.364 162.272  Z
  " fill="#ffffff" fill-rule="evenodd" fill-opacity="1"/>
<defs>
  <clipPath id="clip322">
    <rect x="279" y="162" width="3611" height="1232"/>
  </clipPath>
</defs>
<polyline clip-path="url(#clip322)" style="stroke:#000000; stroke-linecap:butt; stroke-linejoin:round; stroke-width:2; stroke-opacity:0.1; fill:none" points="
  612.182,1393.02 612.182,162.272 
  "/>
<polyline clip-path="url(#clip322)" style="stroke:#000000; stroke-linecap:butt; stroke-linejoin:round; stroke-width:2; stroke-opacity:0.1; fill:none" points="
  1406.03,1393.02 1406.03,162.272 
  "/>
<polyline clip-path="url(#clip322)" style="stroke:#000000; stroke-linecap:butt; stroke-linejoin:round; stroke-width:2; stroke-opacity:0.1; fill:none" points="
  2199.88,1393.02 2199.88,162.272 
  "/>
<polyline clip-path="url(#clip322)" style="stroke:#000000; stroke-linecap:butt; stroke-linejoin:round; stroke-width:2; stroke-opacity:0.1; fill:none" points="
  2993.73,1393.02 2993.73,162.272 
  "/>
<polyline clip-path="url(#clip322)" style="stroke:#000000; stroke-linecap:butt; stroke-linejoin:round; stroke-width:2; stroke-opacity:0.1; fill:none" points="
  3787.58,1393.02 3787.58,162.272 
  "/>
<polyline clip-path="url(#clip320)" style="stroke:#000000; stroke-linecap:butt; stroke-linejoin:round; stroke-width:4; stroke-opacity:1; fill:none" points="
  279.364,1393.02 3889.76,1393.02 
  "/>
<polyline clip-path="url(#clip320)" style="stroke:#000000; stroke-linecap:butt; stroke-linejoin:round; stroke-width:4; stroke-opacity:1; fill:none" points="
  612.182,1393.02 612.182,1374.12 
  "/>
<polyline clip-path="url(#clip320)" style="stroke:#000000; stroke-linecap:butt; stroke-linejoin:round; stroke-width:4; stroke-opacity:1; fill:none" points="
  1406.03,1393.02 1406.03,1374.12 
  "/>
<polyline clip-path="url(#clip320)" style="stroke:#000000; stroke-linecap:butt; stroke-linejoin:round; stroke-width:4; stroke-opacity:1; fill:none" points="
  2199.88,1393.02 2199.88,1374.12 
  "/>
<polyline clip-path="url(#clip320)" style="stroke:#000000; stroke-linecap:butt; stroke-linejoin:round; stroke-width:4; stroke-opacity:1; fill:none" points="
  2993.73,1393.02 2993.73,1374.12 
  "/>
<polyline clip-path="url(#clip320)" style="stroke:#000000; stroke-linecap:butt; stroke-linejoin:round; stroke-width:4; stroke-opacity:1; fill:none" points="
  3787.58,1393.02 3787.58,1374.12 
  "/>
<path clip-path="url(#clip320)" d="M597.055 1451.81 Q593.721 1451.81 591.8 1453.59 Q589.902 1455.37 589.902 1458.5 Q589.902 1461.62 591.8 1463.4 Q593.721 1465.19 597.055 1465.19 Q600.388 1465.19 602.309 1463.4 Q604.231 1461.6 604.231 1458.5 Q604.231 1455.37 602.309 1453.59 Q600.411 1451.81 597.055 1451.81 M592.379 1449.82 Q589.37 1449.08 587.68 1447.02 Q586.013 1444.96 586.013 1441.99 Q586.013 1437.85 588.953 1435.44 Q591.916 1433.03 597.055 1433.03 Q602.217 1433.03 605.156 1435.44 Q608.096 1437.85 608.096 1441.99 Q608.096 1444.96 606.406 1447.02 Q604.74 1449.08 601.754 1449.82 Q605.133 1450.6 607.008 1452.9 Q608.906 1455.19 608.906 1458.5 Q608.906 1463.52 605.828 1466.21 Q602.772 1468.89 597.055 1468.89 Q591.337 1468.89 588.258 1466.21 Q585.203 1463.52 585.203 1458.5 Q585.203 1455.19 587.101 1452.9 Q588.999 1450.6 592.379 1449.82 M590.666 1442.43 Q590.666 1445.12 592.332 1446.62 Q594.022 1448.13 597.055 1448.13 Q600.064 1448.13 601.754 1446.62 Q603.467 1445.12 603.467 1442.43 Q603.467 1439.75 601.754 1438.24 Q600.064 1436.74 597.055 1436.74 Q594.022 1436.74 592.332 1438.24 Q590.666 1439.75 590.666 1442.43 Z" fill="#000000" fill-rule="evenodd" fill-opacity="1" /><path clip-path="url(#clip320)" d="M627.217 1436.74 Q623.605 1436.74 621.777 1440.3 Q619.971 1443.84 619.971 1450.97 Q619.971 1458.08 621.777 1461.65 Q623.605 1465.19 627.217 1465.19 Q630.851 1465.19 632.656 1461.65 Q634.485 1458.08 634.485 1450.97 Q634.485 1443.84 632.656 1440.3 Q630.851 1436.74 627.217 1436.74 M627.217 1433.03 Q633.027 1433.03 636.082 1437.64 Q639.161 1442.22 639.161 1450.97 Q639.161 1459.7 636.082 1464.31 Q633.027 1468.89 627.217 1468.89 Q621.406 1468.89 618.328 1464.31 Q615.272 1459.7 615.272 1450.97 Q615.272 1442.22 618.328 1437.64 Q621.406 1433.03 627.217 1433.03 Z" fill="#000000" fill-rule="evenodd" fill-opacity="1" /><path clip-path="url(#clip320)" d="M1391.4 1451.81 Q1388.07 1451.81 1386.15 1453.59 Q1384.25 1455.37 1384.25 1458.5 Q1384.25 1461.62 1386.15 1463.4 Q1388.07 1465.19 1391.4 1465.19 Q1394.74 1465.19 1396.66 1463.4 Q1398.58 1461.6 1398.58 1458.5 Q1398.58 1455.37 1396.66 1453.59 Q1394.76 1451.81 1391.4 1451.81 M1386.73 1449.82 Q1383.72 1449.08 1382.03 1447.02 Q1380.36 1444.96 1380.36 1441.99 Q1380.36 1437.85 1383.3 1435.44 Q1386.26 1433.03 1391.4 1433.03 Q1396.56 1433.03 1399.5 1435.44 Q1402.44 1437.85 1402.44 1441.99 Q1402.44 1444.96 1400.75 1447.02 Q1399.09 1449.08 1396.1 1449.82 Q1399.48 1450.6 1401.36 1452.9 Q1403.25 1455.19 1403.25 1458.5 Q1403.25 1463.52 1400.18 1466.21 Q1397.12 1468.89 1391.4 1468.89 Q1385.68 1468.89 1382.61 1466.21 Q1379.55 1463.52 1379.55 1458.5 Q1379.55 1455.19 1381.45 1452.9 Q1383.35 1450.6 1386.73 1449.82 M1385.01 1442.43 Q1385.01 1445.12 1386.68 1446.62 Q1388.37 1448.13 1391.4 1448.13 Q1394.41 1448.13 1396.1 1446.62 Q1397.81 1445.12 1397.81 1442.43 Q1397.81 1439.75 1396.1 1438.24 Q1394.41 1436.74 1391.4 1436.74 Q1388.37 1436.74 1386.68 1438.24 Q1385.01 1439.75 1385.01 1442.43 Z" fill="#000000" fill-rule="evenodd" fill-opacity="1" /><path clip-path="url(#clip320)" d="M1411.61 1433.66 L1429.97 1433.66 L1429.97 1437.59 L1415.89 1437.59 L1415.89 1446.07 Q1416.91 1445.72 1417.93 1445.56 Q1418.95 1445.37 1419.97 1445.37 Q1425.75 1445.37 1429.13 1448.54 Q1432.51 1451.72 1432.51 1457.13 Q1432.51 1462.71 1429.04 1465.81 Q1425.57 1468.89 1419.25 1468.89 Q1417.07 1468.89 1414.81 1468.52 Q1412.56 1468.15 1410.15 1467.41 L1410.15 1462.71 Q1412.24 1463.84 1414.46 1464.4 Q1416.68 1464.96 1419.16 1464.96 Q1423.16 1464.96 1425.5 1462.85 Q1427.84 1460.74 1427.84 1457.13 Q1427.84 1453.52 1425.5 1451.41 Q1423.16 1449.31 1419.16 1449.31 Q1417.28 1449.31 1415.41 1449.72 Q1413.56 1450.14 1411.61 1451.02 L1411.61 1433.66 Z" fill="#000000" fill-rule="evenodd" fill-opacity="1" /><path clip-path="url(#clip320)" d="M2175.01 1467.5 L2175.01 1463.24 Q2176.77 1464.08 2178.57 1464.52 Q2180.38 1464.96 2182.12 1464.96 Q2186.75 1464.96 2189.18 1461.85 Q2191.63 1458.73 2191.98 1452.39 Q2190.63 1454.38 2188.57 1455.44 Q2186.51 1456.51 2184.01 1456.51 Q2178.83 1456.51 2175.8 1453.38 Q2172.79 1450.23 2172.79 1444.79 Q2172.79 1439.47 2175.94 1436.25 Q2179.08 1433.03 2184.32 1433.03 Q2190.31 1433.03 2193.46 1437.64 Q2196.63 1442.22 2196.63 1450.97 Q2196.63 1459.15 2192.74 1464.03 Q2188.88 1468.89 2182.32 1468.89 Q2180.57 1468.89 2178.76 1468.54 Q2176.95 1468.2 2175.01 1467.5 M2184.32 1452.85 Q2187.46 1452.85 2189.29 1450.7 Q2191.14 1448.54 2191.14 1444.79 Q2191.14 1441.07 2189.29 1438.91 Q2187.46 1436.74 2184.32 1436.74 Q2181.17 1436.74 2179.32 1438.91 Q2177.49 1441.07 2177.49 1444.79 Q2177.49 1448.54 2179.32 1450.7 Q2181.17 1452.85 2184.32 1452.85 Z" fill="#000000" fill-rule="evenodd" fill-opacity="1" /><path clip-path="url(#clip320)" d="M2215.03 1436.74 Q2211.42 1436.74 2209.59 1440.3 Q2207.79 1443.84 2207.79 1450.97 Q2207.79 1458.08 2209.59 1461.65 Q2211.42 1465.19 2215.03 1465.19 Q2218.67 1465.19 2220.47 1461.65 Q2222.3 1458.08 2222.3 1450.97 Q2222.3 1443.84 2220.47 1440.3 Q2218.67 1436.74 2215.03 1436.74 M2215.03 1433.03 Q2220.84 1433.03 2223.9 1437.64 Q2226.98 1442.22 2226.98 1450.97 Q2226.98 1459.7 2223.9 1464.31 Q2220.84 1468.89 2215.03 1468.89 Q2209.22 1468.89 2206.14 1464.31 Q2203.09 1459.7 2203.09 1450.97 Q2203.09 1442.22 2206.14 1437.64 Q2209.22 1433.03 2215.03 1433.03 Z" fill="#000000" fill-rule="evenodd" fill-opacity="1" /><path clip-path="url(#clip320)" d="M2969.36 1467.5 L2969.36 1463.24 Q2971.12 1464.08 2972.92 1464.52 Q2974.73 1464.96 2976.46 1464.96 Q2981.09 1464.96 2983.52 1461.85 Q2985.98 1458.73 2986.33 1452.39 Q2984.98 1454.38 2982.92 1455.44 Q2980.86 1456.51 2978.36 1456.51 Q2973.18 1456.51 2970.14 1453.38 Q2967.14 1450.23 2967.14 1444.79 Q2967.14 1439.47 2970.28 1436.25 Q2973.43 1433.03 2978.66 1433.03 Q2984.66 1433.03 2987.81 1437.64 Q2990.98 1442.22 2990.98 1450.97 Q2990.98 1459.15 2987.09 1464.03 Q2983.22 1468.89 2976.67 1468.89 Q2974.91 1468.89 2973.11 1468.54 Q2971.3 1468.2 2969.36 1467.5 M2978.66 1452.85 Q2981.81 1452.85 2983.64 1450.7 Q2985.49 1448.54 2985.49 1444.79 Q2985.49 1441.07 2983.64 1438.91 Q2981.81 1436.74 2978.66 1436.74 Q2975.51 1436.74 2973.66 1438.91 Q2971.83 1441.07 2971.83 1444.79 Q2971.83 1448.54 2973.66 1450.7 Q2975.51 1452.85 2978.66 1452.85 Z" fill="#000000" fill-rule="evenodd" fill-opacity="1" /><path clip-path="url(#clip320)" d="M2999.43 1433.66 L3017.78 1433.66 L3017.78 1437.59 L3003.71 1437.59 L3003.71 1446.07 Q3004.73 1445.72 3005.75 1445.56 Q3006.76 1445.37 3007.78 1445.37 Q3013.57 1445.37 3016.95 1448.54 Q3020.33 1451.72 3020.33 1457.13 Q3020.33 1462.71 3016.86 1465.81 Q3013.39 1468.89 3007.07 1468.89 Q3004.89 1468.89 3002.62 1468.52 Q3000.38 1468.15 2997.97 1467.41 L2997.97 1462.71 Q3000.05 1463.84 3002.27 1464.4 Q3004.5 1464.96 3006.97 1464.96 Q3010.98 1464.96 3013.32 1462.85 Q3015.65 1460.74 3015.65 1457.13 Q3015.65 1453.52 3013.32 1451.41 Q3010.98 1449.31 3006.97 1449.31 Q3005.1 1449.31 3003.22 1449.72 Q3001.37 1450.14 2999.43 1451.02 L2999.43 1433.66 Z" fill="#000000" fill-rule="evenodd" fill-opacity="1" /><path clip-path="url(#clip320)" d="M3747.19 1464.28 L3754.83 1464.28 L3754.83 1437.92 L3746.52 1439.59 L3746.52 1435.33 L3754.78 1433.66 L3759.46 1433.66 L3759.46 1464.28 L3767.1 1464.28 L3767.1 1468.22 L3747.19 1468.22 L3747.19 1464.28 Z" fill="#000000" fill-rule="evenodd" fill-opacity="1" /><path clip-path="url(#clip320)" d="M3786.54 1436.74 Q3782.93 1436.74 3781.1 1440.3 Q3779.3 1443.84 3779.3 1450.97 Q3779.3 1458.08 3781.1 1461.65 Q3782.93 1465.19 3786.54 1465.19 Q3790.18 1465.19 3791.98 1461.65 Q3793.81 1458.08 3793.81 1450.97 Q3793.81 1443.84 3791.98 1440.3 Q3790.18 1436.74 3786.54 1436.74 M3786.54 1433.03 Q3792.35 1433.03 3795.41 1437.64 Q3798.49 1442.22 3798.49 1450.97 Q3798.49 1459.7 3795.41 1464.31 Q3792.35 1468.89 3786.54 1468.89 Q3780.73 1468.89 3777.65 1464.31 Q3774.6 1459.7 3774.6 1450.97 Q3774.6 1442.22 3777.65 1437.64 Q3780.73 1433.03 3786.54 1433.03 Z" fill="#000000" fill-rule="evenodd" fill-opacity="1" /><path clip-path="url(#clip320)" d="M3816.7 1436.74 Q3813.09 1436.74 3811.26 1440.3 Q3809.46 1443.84 3809.46 1450.97 Q3809.46 1458.08 3811.26 1461.65 Q3813.09 1465.19 3816.7 1465.19 Q3820.34 1465.19 3822.14 1461.65 Q3823.97 1458.08 3823.97 1450.97 Q3823.97 1443.84 3822.14 1440.3 Q3820.34 1436.74 3816.7 1436.74 M3816.7 1433.03 Q3822.51 1433.03 3825.57 1437.64 Q3828.65 1442.22 3828.65 1450.97 Q3828.65 1459.7 3825.57 1464.31 Q3822.51 1468.89 3816.7 1468.89 Q3810.89 1468.89 3807.81 1464.31 Q3804.76 1459.7 3804.76 1450.97 Q3804.76 1442.22 3807.81 1437.64 Q3810.89 1433.03 3816.7 1433.03 Z" fill="#000000" fill-rule="evenodd" fill-opacity="1" /><path clip-path="url(#clip320)" d="M1982.7 1556.54 L1982.7 1575.44 L1976.81 1575.44 L1976.81 1526.24 L1982.7 1526.24 L1982.7 1531.65 Q1984.54 1528.46 1987.34 1526.94 Q1990.18 1525.38 1994.09 1525.38 Q2000.58 1525.38 2004.63 1530.53 Q2008.7 1535.69 2008.7 1544.09 Q2008.7 1552.49 2004.63 1557.65 Q2000.58 1562.81 1994.09 1562.81 Q1990.18 1562.81 1987.34 1561.28 Q1984.54 1559.72 1982.7 1556.54 M2002.62 1544.09 Q2002.62 1537.63 1999.95 1533.97 Q1997.31 1530.28 1992.66 1530.28 Q1988.01 1530.28 1985.34 1533.97 Q1982.7 1537.63 1982.7 1544.09 Q1982.7 1550.55 1985.34 1554.24 Q1988.01 1557.91 1992.66 1557.91 Q1997.31 1557.91 1999.95 1554.24 Q2002.62 1550.55 2002.62 1544.09 Z" fill="#000000" fill-rule="evenodd" fill-opacity="1" /><path clip-path="url(#clip320)" d="M2053.2 1512.42 Q2048.93 1519.74 2046.86 1526.9 Q2044.79 1534.07 2044.79 1541.42 Q2044.79 1548.77 2046.86 1556 Q2048.96 1563.19 2053.2 1570.48 L2048.1 1570.48 Q2043.33 1563 2040.94 1555.77 Q2038.59 1548.55 2038.59 1541.42 Q2038.59 1534.32 2040.94 1527.13 Q2043.3 1519.93 2048.1 1512.42 L2053.2 1512.42 Z" fill="#000000" fill-rule="evenodd" fill-opacity="1" /><path clip-path="url(#clip320)" d="M2064.34 1512.36 L2070.23 1512.36 L2070.23 1541.61 L2087.7 1526.24 L2095.18 1526.24 L2076.27 1542.91 L2095.97 1561.88 L2088.34 1561.88 L2070.23 1544.47 L2070.23 1561.88 L2064.34 1561.88 L2064.34 1512.36 Z" fill="#000000" fill-rule="evenodd" fill-opacity="1" /><path clip-path="url(#clip320)" d="M2108.99 1519.65 L2108.99 1537.5 L2117.08 1537.5 Q2121.56 1537.5 2124.02 1535.18 Q2126.47 1532.86 2126.47 1528.56 Q2126.47 1524.29 2124.02 1521.97 Q2121.56 1519.65 2117.08 1519.65 L2108.99 1519.65 M2102.56 1514.36 L2117.08 1514.36 Q2125.07 1514.36 2129.14 1517.99 Q2133.25 1521.59 2133.25 1528.56 Q2133.25 1535.59 2129.14 1539.19 Q2125.07 1542.79 2117.08 1542.79 L2108.99 1542.79 L2108.99 1561.88 L2102.56 1561.88 L2102.56 1514.36 Z" fill="#000000" fill-rule="evenodd" fill-opacity="1" /><path clip-path="url(#clip320)" d="M2154.89 1543.96 Q2147.79 1543.96 2145.05 1545.59 Q2142.32 1547.21 2142.32 1551.13 Q2142.32 1554.24 2144.35 1556.09 Q2146.42 1557.91 2149.96 1557.91 Q2154.83 1557.91 2157.75 1554.47 Q2160.71 1551 2160.71 1545.27 L2160.71 1543.96 L2154.89 1543.96 M2166.57 1541.55 L2166.57 1561.88 L2160.71 1561.88 L2160.71 1556.47 Q2158.71 1559.72 2155.72 1561.28 Q2152.72 1562.81 2148.4 1562.81 Q2142.92 1562.81 2139.68 1559.75 Q2136.46 1556.66 2136.46 1551.51 Q2136.46 1545.49 2140.47 1542.44 Q2144.51 1539.38 2152.5 1539.38 L2160.71 1539.38 L2160.71 1538.81 Q2160.71 1534.77 2158.04 1532.57 Q2155.4 1530.34 2150.59 1530.34 Q2147.54 1530.34 2144.64 1531.07 Q2141.74 1531.81 2139.07 1533.27 L2139.07 1527.86 Q2142.29 1526.62 2145.31 1526.01 Q2148.33 1525.38 2151.2 1525.38 Q2158.93 1525.38 2162.75 1529.39 Q2166.57 1533.4 2166.57 1541.55 Z" fill="#000000" fill-rule="evenodd" fill-opacity="1" /><path clip-path="url(#clip320)" d="M2177.71 1512.42 L2182.8 1512.42 Q2187.58 1519.93 2189.93 1527.13 Q2192.32 1534.32 2192.32 1541.42 Q2192.32 1548.55 2189.93 1555.77 Q2187.58 1563 2182.8 1570.48 L2177.71 1570.48 Q2181.94 1563.19 2184.01 1556 Q2186.11 1548.77 2186.11 1541.42 Q2186.11 1534.07 2184.01 1526.9 Q2181.94 1519.74 2177.71 1512.42 Z" fill="#000000" fill-rule="evenodd" fill-opacity="1" /><polyline clip-path="url(#clip322)" style="stroke:#000000; stroke-linecap:butt; stroke-linejoin:round; stroke-width:2; stroke-opacity:0.1; fill:none" points="
  279.364,1358.19 3889.76,1358.19 
  "/>
<polyline clip-path="url(#clip322)" style="stroke:#000000; stroke-linecap:butt; stroke-linejoin:round; stroke-width:2; stroke-opacity:0.1; fill:none" points="
  279.364,1074.72 3889.76,1074.72 
  "/>
<polyline clip-path="url(#clip322)" style="stroke:#000000; stroke-linecap:butt; stroke-linejoin:round; stroke-width:2; stroke-opacity:0.1; fill:none" points="
  279.364,791.252 3889.76,791.252 
  "/>
<polyline clip-path="url(#clip322)" style="stroke:#000000; stroke-linecap:butt; stroke-linejoin:round; stroke-width:2; stroke-opacity:0.1; fill:none" points="
  279.364,507.785 3889.76,507.785 
  "/>
<polyline clip-path="url(#clip322)" style="stroke:#000000; stroke-linecap:butt; stroke-linejoin:round; stroke-width:2; stroke-opacity:0.1; fill:none" points="
  279.364,224.318 3889.76,224.318 
  "/>
<polyline clip-path="url(#clip320)" style="stroke:#000000; stroke-linecap:butt; stroke-linejoin:round; stroke-width:4; stroke-opacity:1; fill:none" points="
  279.364,1393.02 279.364,162.272 
  "/>
<polyline clip-path="url(#clip320)" style="stroke:#000000; stroke-linecap:butt; stroke-linejoin:round; stroke-width:4; stroke-opacity:1; fill:none" points="
  279.364,1358.19 298.262,1358.19 
  "/>
<polyline clip-path="url(#clip320)" style="stroke:#000000; stroke-linecap:butt; stroke-linejoin:round; stroke-width:4; stroke-opacity:1; fill:none" points="
  279.364,1074.72 298.262,1074.72 
  "/>
<polyline clip-path="url(#clip320)" style="stroke:#000000; stroke-linecap:butt; stroke-linejoin:round; stroke-width:4; stroke-opacity:1; fill:none" points="
  279.364,791.252 298.262,791.252 
  "/>
<polyline clip-path="url(#clip320)" style="stroke:#000000; stroke-linecap:butt; stroke-linejoin:round; stroke-width:4; stroke-opacity:1; fill:none" points="
  279.364,507.785 298.262,507.785 
  "/>
<polyline clip-path="url(#clip320)" style="stroke:#000000; stroke-linecap:butt; stroke-linejoin:round; stroke-width:4; stroke-opacity:1; fill:none" points="
  279.364,224.318 298.262,224.318 
  "/>
<path clip-path="url(#clip320)" d="M162.189 1343.99 Q158.578 1343.99 156.749 1347.55 Q154.943 1351.09 154.943 1358.22 Q154.943 1365.33 156.749 1368.89 Q158.578 1372.43 162.189 1372.43 Q165.823 1372.43 167.628 1368.89 Q169.457 1365.33 169.457 1358.22 Q169.457 1351.09 167.628 1347.55 Q165.823 1343.99 162.189 1343.99 M162.189 1340.28 Q167.999 1340.28 171.054 1344.89 Q174.133 1349.47 174.133 1358.22 Q174.133 1366.95 171.054 1371.56 Q167.999 1376.14 162.189 1376.14 Q156.379 1376.14 153.3 1371.56 Q150.244 1366.95 150.244 1358.22 Q150.244 1349.47 153.3 1344.89 Q156.379 1340.28 162.189 1340.28 Z" fill="#000000" fill-rule="evenodd" fill-opacity="1" /><path clip-path="url(#clip320)" d="M182.351 1369.59 L187.235 1369.59 L187.235 1375.47 L182.351 1375.47 L182.351 1369.59 Z" fill="#000000" fill-rule="evenodd" fill-opacity="1" /><path clip-path="url(#clip320)" d="M207.42 1343.99 Q203.809 1343.99 201.98 1347.55 Q200.175 1351.09 200.175 1358.22 Q200.175 1365.33 201.98 1368.89 Q203.809 1372.43 207.42 1372.43 Q211.054 1372.43 212.86 1368.89 Q214.688 1365.33 214.688 1358.22 Q214.688 1351.09 212.86 1347.55 Q211.054 1343.99 207.42 1343.99 M207.42 1340.28 Q213.23 1340.28 216.286 1344.89 Q219.364 1349.47 219.364 1358.22 Q219.364 1366.95 216.286 1371.56 Q213.23 1376.14 207.42 1376.14 Q201.61 1376.14 198.531 1371.56 Q195.476 1366.95 195.476 1358.22 Q195.476 1349.47 198.531 1344.89 Q201.61 1340.28 207.42 1340.28 Z" fill="#000000" fill-rule="evenodd" fill-opacity="1" /><path clip-path="url(#clip320)" d="M163.184 1060.52 Q159.573 1060.52 157.744 1064.08 Q155.939 1067.62 155.939 1074.75 Q155.939 1081.86 157.744 1085.43 Q159.573 1088.97 163.184 1088.97 Q166.818 1088.97 168.624 1085.43 Q170.453 1081.86 170.453 1074.75 Q170.453 1067.62 168.624 1064.08 Q166.818 1060.52 163.184 1060.52 M163.184 1056.81 Q168.994 1056.81 172.05 1061.42 Q175.128 1066 175.128 1074.75 Q175.128 1083.48 172.05 1088.09 Q168.994 1092.67 163.184 1092.67 Q157.374 1092.67 154.295 1088.09 Q151.24 1083.48 151.24 1074.75 Q151.24 1066 154.295 1061.42 Q157.374 1056.81 163.184 1056.81 Z" fill="#000000" fill-rule="evenodd" fill-opacity="1" /><path clip-path="url(#clip320)" d="M183.346 1086.12 L188.23 1086.12 L188.23 1092 L183.346 1092 L183.346 1086.12 Z" fill="#000000" fill-rule="evenodd" fill-opacity="1" /><path clip-path="url(#clip320)" d="M198.462 1057.44 L216.818 1057.44 L216.818 1061.37 L202.744 1061.37 L202.744 1069.85 Q203.763 1069.5 204.781 1069.34 Q205.8 1069.15 206.818 1069.15 Q212.605 1069.15 215.985 1072.32 Q219.364 1075.5 219.364 1080.91 Q219.364 1086.49 215.892 1089.59 Q212.42 1092.67 206.1 1092.67 Q203.925 1092.67 201.656 1092.3 Q199.411 1091.93 197.003 1091.19 L197.003 1086.49 Q199.087 1087.62 201.309 1088.18 Q203.531 1088.74 206.008 1088.74 Q210.012 1088.74 212.35 1086.63 Q214.688 1084.52 214.688 1080.91 Q214.688 1077.3 212.35 1075.19 Q210.012 1073.09 206.008 1073.09 Q204.133 1073.09 202.258 1073.5 Q200.406 1073.92 198.462 1074.8 L198.462 1057.44 Z" fill="#000000" fill-rule="evenodd" fill-opacity="1" /><path clip-path="url(#clip320)" d="M152.999 804.597 L160.638 804.597 L160.638 778.232 L152.328 779.898 L152.328 775.639 L160.591 773.972 L165.267 773.972 L165.267 804.597 L172.906 804.597 L172.906 808.532 L152.999 808.532 L152.999 804.597 Z" fill="#000000" fill-rule="evenodd" fill-opacity="1" /><path clip-path="url(#clip320)" d="M182.351 802.653 L187.235 802.653 L187.235 808.532 L182.351 808.532 L182.351 802.653 Z" fill="#000000" fill-rule="evenodd" fill-opacity="1" /><path clip-path="url(#clip320)" d="M207.42 777.051 Q203.809 777.051 201.98 780.616 Q200.175 784.158 200.175 791.287 Q200.175 798.394 201.98 801.958 Q203.809 805.5 207.42 805.5 Q211.054 805.5 212.86 801.958 Q214.688 798.394 214.688 791.287 Q214.688 784.158 212.86 780.616 Q211.054 777.051 207.42 777.051 M207.42 773.347 Q213.23 773.347 216.286 777.954 Q219.364 782.537 219.364 791.287 Q219.364 800.014 216.286 804.62 Q213.23 809.204 207.42 809.204 Q201.61 809.204 198.531 804.62 Q195.476 800.014 195.476 791.287 Q195.476 782.537 198.531 777.954 Q201.61 773.347 207.42 773.347 Z" fill="#000000" fill-rule="evenodd" fill-opacity="1" /><path clip-path="url(#clip320)" d="M153.994 521.13 L161.633 521.13 L161.633 494.764 L153.323 496.431 L153.323 492.172 L161.587 490.505 L166.263 490.505 L166.263 521.13 L173.902 521.13 L173.902 525.065 L153.994 525.065 L153.994 521.13 Z" fill="#000000" fill-rule="evenodd" fill-opacity="1" /><path clip-path="url(#clip320)" d="M183.346 519.185 L188.23 519.185 L188.23 525.065 L183.346 525.065 L183.346 519.185 Z" fill="#000000" fill-rule="evenodd" fill-opacity="1" /><path clip-path="url(#clip320)" d="M198.462 490.505 L216.818 490.505 L216.818 494.44 L202.744 494.44 L202.744 502.912 Q203.763 502.565 204.781 502.403 Q205.8 502.218 206.818 502.218 Q212.605 502.218 215.985 505.389 Q219.364 508.56 219.364 513.977 Q219.364 519.556 215.892 522.658 Q212.42 525.736 206.1 525.736 Q203.925 525.736 201.656 525.366 Q199.411 524.996 197.003 524.255 L197.003 519.556 Q199.087 520.69 201.309 521.246 Q203.531 521.801 206.008 521.801 Q210.012 521.801 212.35 519.695 Q214.688 517.588 214.688 513.977 Q214.688 510.366 212.35 508.26 Q210.012 506.153 206.008 506.153 Q204.133 506.153 202.258 506.57 Q200.406 506.986 198.462 507.866 L198.462 490.505 Z" fill="#000000" fill-rule="evenodd" fill-opacity="1" /><path clip-path="url(#clip320)" d="M156.216 237.662 L172.536 237.662 L172.536 241.598 L150.592 241.598 L150.592 237.662 Q153.254 234.908 157.837 230.278 Q162.443 225.625 163.624 224.283 Q165.869 221.76 166.749 220.024 Q167.652 218.264 167.652 216.575 Q167.652 213.82 165.707 212.084 Q163.786 210.348 160.684 210.348 Q158.485 210.348 156.031 211.112 Q153.601 211.876 150.823 213.426 L150.823 208.704 Q153.647 207.57 156.101 206.991 Q158.554 206.413 160.591 206.413 Q165.962 206.413 169.156 209.098 Q172.351 211.783 172.351 216.274 Q172.351 218.403 171.54 220.325 Q170.753 222.223 168.647 224.815 Q168.068 225.487 164.966 228.704 Q161.865 231.899 156.216 237.662 Z" fill="#000000" fill-rule="evenodd" fill-opacity="1" /><path clip-path="url(#clip320)" d="M182.351 235.718 L187.235 235.718 L187.235 241.598 L182.351 241.598 L182.351 235.718 Z" fill="#000000" fill-rule="evenodd" fill-opacity="1" /><path clip-path="url(#clip320)" d="M207.42 210.116 Q203.809 210.116 201.98 213.681 Q200.175 217.223 200.175 224.352 Q200.175 231.459 201.98 235.024 Q203.809 238.565 207.42 238.565 Q211.054 238.565 212.86 235.024 Q214.688 231.459 214.688 224.352 Q214.688 217.223 212.86 213.681 Q211.054 210.116 207.42 210.116 M207.42 206.413 Q213.23 206.413 216.286 211.019 Q219.364 215.602 219.364 224.352 Q219.364 233.079 216.286 237.686 Q213.23 242.269 207.42 242.269 Q201.61 242.269 198.531 237.686 Q195.476 233.079 195.476 224.352 Q195.476 215.602 198.531 211.019 Q201.61 206.413 207.42 206.413 Z" fill="#000000" fill-rule="evenodd" fill-opacity="1" /><path clip-path="url(#clip320)" d="M40.3403 876.171 L40.3403 848.353 L45.6875 848.353 L71.3095 870.378 L71.3095 848.353 L75.9883 848.353 L75.9883 876.967 L70.6411 876.967 L45.0191 854.942 L45.0191 876.171 L40.3403 876.171 Z" fill="#000000" fill-rule="evenodd" fill-opacity="1" /><path clip-path="url(#clip320)" d="M26.5267 804.621 Q33.8473 808.886 41.0087 810.955 Q48.1701 813.023 55.5225 813.023 Q62.8749 813.023 70.1 810.955 Q77.2933 808.854 84.582 804.621 L84.582 809.713 Q77.1023 814.488 69.8772 816.875 Q62.6521 819.23 55.5225 819.23 Q48.4248 819.23 41.2315 816.875 Q34.0383 814.519 26.5267 809.713 L26.5267 804.621 Z" fill="#000000" fill-rule="evenodd" fill-opacity="1" /><path clip-path="url(#clip320)" d="M26.4631 793.481 L26.4631 787.592 L55.7135 787.592 L40.3403 770.119 L40.3403 762.639 L57.0185 781.545 L75.9883 761.843 L75.9883 769.482 L58.5781 787.592 L75.9883 787.592 L75.9883 793.481 L26.4631 793.481 Z" fill="#000000" fill-rule="evenodd" fill-opacity="1" /><path clip-path="url(#clip320)" d="M47.1835 727.755 Q43.2367 725.559 41.3588 722.503 Q39.481 719.448 39.481 715.31 Q39.481 709.74 43.3959 706.716 Q47.2789 703.692 54.4722 703.692 L75.9883 703.692 L75.9883 709.581 L54.6632 709.581 Q49.5388 709.581 47.0561 711.395 Q44.5735 713.209 44.5735 716.933 Q44.5735 721.485 47.5972 724.126 Q50.6209 726.768 55.8408 726.768 L75.9883 726.768 L75.9883 732.656 L54.6632 732.656 Q49.5069 732.656 47.0561 734.471 Q44.5735 736.285 44.5735 740.072 Q44.5735 744.56 47.6291 747.202 Q50.6528 749.844 55.8408 749.844 L75.9883 749.844 L75.9883 755.732 L40.3403 755.732 L40.3403 749.844 L45.8785 749.844 Q42.6002 747.839 41.0406 745.038 Q39.481 742.237 39.481 738.385 Q39.481 734.502 41.4543 731.797 Q43.4277 729.06 47.1835 727.755 Z" fill="#000000" fill-rule="evenodd" fill-opacity="1" /><path clip-path="url(#clip320)" d="M26.5267 692.934 L26.5267 687.842 Q34.0383 683.067 41.2315 680.712 Q48.4248 678.325 55.5225 678.325 Q62.6521 678.325 69.8772 680.712 Q77.1023 683.067 84.582 687.842 L84.582 692.934 Q77.2933 688.701 70.1 686.632 Q62.8749 684.532 55.5225 684.532 Q48.1701 684.532 41.0087 686.632 Q33.8473 688.701 26.5267 692.934 Z" fill="#000000" fill-rule="evenodd" fill-opacity="1" /><path clip-path="url(#clip320)" d="M1954.91 65.7705 L1954.91 89.8329 L1947.42 89.8329 L1947.42 27.2059 L1954.91 27.2059 L1954.91 34.0924 Q1957.26 30.0415 1960.83 28.0971 Q1964.43 26.1121 1969.42 26.1121 Q1977.68 26.1121 1982.83 32.6746 Q1988.01 39.2371 1988.01 49.9314 Q1988.01 60.6258 1982.83 67.1883 Q1977.68 73.7508 1969.42 73.7508 Q1964.43 73.7508 1960.83 71.8063 Q1957.26 69.8214 1954.91 65.7705 M1980.27 49.9314 Q1980.27 41.7081 1976.87 37.0496 Q1973.51 32.3505 1967.59 32.3505 Q1961.68 32.3505 1958.28 37.0496 Q1954.91 41.7081 1954.91 49.9314 Q1954.91 58.1548 1958.28 62.8538 Q1961.68 67.5124 1967.59 67.5124 Q1973.51 67.5124 1976.87 62.8538 Q1980.27 58.1548 1980.27 49.9314 Z" fill="#000000" fill-rule="evenodd" fill-opacity="1" /><path clip-path="url(#clip320)" d="M2044.64 9.62495 Q2039.21 18.942 2036.58 28.0566 Q2033.95 37.1711 2033.95 46.5287 Q2033.95 55.8863 2036.58 65.0818 Q2039.25 74.2369 2044.64 83.5134 L2038.16 83.5134 Q2032.08 73.9938 2029.05 64.7983 Q2026.05 55.6027 2026.05 46.5287 Q2026.05 37.4952 2029.05 28.3401 Q2032.04 19.1851 2038.16 9.62495 L2044.64 9.62495 Z" fill="#000000" fill-rule="evenodd" fill-opacity="1" /><path clip-path="url(#clip320)" d="M2058.82 9.54393 L2066.31 9.54393 L2066.31 46.7717 L2088.55 27.2059 L2098.07 27.2059 L2074.01 48.4326 L2099.09 72.576 L2089.36 72.576 L2066.31 50.4176 L2066.31 72.576 L2058.82 72.576 L2058.82 9.54393 Z" fill="#000000" fill-rule="evenodd" fill-opacity="1" /><path clip-path="url(#clip320)" d="M2115.65 18.8205 L2115.65 41.5461 L2125.94 41.5461 Q2131.66 41.5461 2134.77 38.5889 Q2137.89 35.6318 2137.89 30.163 Q2137.89 24.7348 2134.77 21.7777 Q2131.66 18.8205 2125.94 18.8205 L2115.65 18.8205 M2107.47 12.096 L2125.94 12.096 Q2136.11 12.096 2141.3 16.714 Q2146.52 21.2916 2146.52 30.163 Q2146.52 39.1155 2141.3 43.6931 Q2136.11 48.2706 2125.94 48.2706 L2115.65 48.2706 L2115.65 72.576 L2107.47 72.576 L2107.47 12.096 Z" fill="#000000" fill-rule="evenodd" fill-opacity="1" /><path clip-path="url(#clip320)" d="M2174.07 49.7694 Q2165.04 49.7694 2161.55 51.8354 Q2158.07 53.9013 2158.07 58.8839 Q2158.07 62.8538 2160.66 65.2034 Q2163.29 67.5124 2167.79 67.5124 Q2173.99 67.5124 2177.71 63.1374 Q2181.48 58.7219 2181.48 51.4303 L2181.48 49.7694 L2174.07 49.7694 M2188.94 46.6907 L2188.94 72.576 L2181.48 72.576 L2181.48 65.6895 Q2178.93 69.8214 2175.12 71.8063 Q2171.31 73.7508 2165.8 73.7508 Q2158.84 73.7508 2154.71 69.8619 Q2150.61 65.9325 2150.61 59.3701 Q2150.61 51.7138 2155.72 47.825 Q2160.86 43.9361 2171.03 43.9361 L2181.48 43.9361 L2181.48 43.2069 Q2181.48 38.0623 2178.08 35.2672 Q2174.72 32.4315 2168.6 32.4315 Q2164.71 32.4315 2161.02 33.3632 Q2157.34 34.295 2153.94 36.1584 L2153.94 29.2718 Q2158.03 27.692 2161.88 26.9223 Q2165.72 26.1121 2169.37 26.1121 Q2179.21 26.1121 2184.07 31.2163 Q2188.94 36.3204 2188.94 46.6907 Z" fill="#000000" fill-rule="evenodd" fill-opacity="1" /><path clip-path="url(#clip320)" d="M2203.11 9.62495 L2209.6 9.62495 Q2215.67 19.1851 2218.67 28.3401 Q2221.71 37.4952 2221.71 46.5287 Q2221.71 55.6027 2218.67 64.7983 Q2215.67 73.9938 2209.6 83.5134 L2203.11 83.5134 Q2208.5 74.2369 2211.13 65.0818 Q2213.81 55.8863 2213.81 46.5287 Q2213.81 37.1711 2211.13 28.0566 Q2208.5 18.942 2203.11 9.62495 Z" fill="#000000" fill-rule="evenodd" fill-opacity="1" /><polyline clip-path="url(#clip322)" style="stroke:#009af9; stroke-linecap:butt; stroke-linejoin:round; stroke-width:4; stroke-opacity:1; fill:none" points="
  3758.66,1349.12 3700.93,1330.97 3643.34,1312.83 3585.91,1294.69 3528.63,1276.55 3471.5,1258.41 3414.51,1240.26 3357.68,1222.12 3300.99,1203.98 3244.46,1185.84 
  3188.07,1167.7 3131.83,1149.56 3075.74,1131.41 3019.8,1113.27 2964,1095.13 2908.35,1076.99 2852.85,1058.85 2797.49,1040.7 2742.29,1022.56 2687.22,1004.42 
  2632.31,986.278 2577.54,968.136 2522.91,949.994 2468.44,931.852 2414.1,913.71 2359.91,895.568 2305.87,877.427 2251.97,859.285 2198.22,841.143 2144.61,823.001 
  2091.14,804.859 2037.82,786.717 1984.64,768.575 1931.6,750.433 1878.71,732.291 1825.95,714.149 1773.35,696.007 1720.88,677.865 1668.56,659.724 1616.37,641.582 
  1564.33,623.44 1512.43,605.298 1460.67,587.156 1409.06,569.014 1357.58,550.872 1306.24,532.73 1255.04,514.588 1203.99,496.446 1153.07,478.304 1102.29,460.162 
  1051.65,442.021 1001.15,423.879 950.794,405.737 900.571,387.595 850.488,369.453 800.542,351.311 750.734,333.169 701.064,315.027 651.531,296.885 602.135,278.743 
  552.876,260.601 503.754,242.46 454.768,224.318 405.919,206.176 
  "/>
<polyline clip-path="url(#clip322)" style="stroke:#e26f46; stroke-linecap:butt; stroke-linejoin:round; stroke-width:4; stroke-opacity:1; fill:none" points="
  3787.58,1358.19 3729.77,1340.05 3672.12,1321.9 3614.61,1303.76 3557.25,1285.62 3500.04,1267.48 3442.99,1249.34 3386.08,1231.19 3329.32,1213.05 3272.71,1194.91 
  3216.25,1176.77 3159.93,1158.63 3103.77,1140.48 3047.75,1122.34 2991.88,1104.2 2936.16,1086.06 2880.58,1067.92 2825.15,1049.77 2769.87,1031.63 2714.74,1013.49 
  2659.75,995.349 2604.91,977.207 2550.21,959.065 2495.66,940.923 2441.25,922.781 2386.99,904.639 2332.87,886.497 2278.9,868.356 2225.08,850.214 2171.39,832.072 
  2117.85,813.93 2064.46,795.788 2011.21,777.646 1958.1,759.504 1905.13,741.362 1852.31,723.22 1799.63,705.078 1747.1,686.936 1694.7,668.794 1642.45,650.653 
  1590.33,632.511 1538.36,614.369 1486.53,596.227 1434.85,578.085 1383.3,559.943 1331.89,541.801 1280.63,523.659 1229.5,505.517 1178.51,487.375 1127.66,469.233 
  1076.96,451.092 1026.39,432.95 975.957,414.808 925.665,396.666 875.512,378.524 825.497,360.382 775.621,342.24 725.881,324.098 676.28,305.956 626.816,287.814 
  577.488,269.672 528.298,251.53 479.244,233.389 430.327,215.247 381.545,197.105 
  "/>
<path clip-path="url(#clip320)" d="
M3195.97 358.817 L3769.42 358.817 L3769.42 203.297 L3195.97 203.297  Z
  " fill="#ffffff" fill-rule="evenodd" fill-opacity="1"/>
<polyline clip-path="url(#clip320)" style="stroke:#000000; stroke-linecap:butt; stroke-linejoin:round; stroke-width:4; stroke-opacity:1; fill:none" points="
  3195.97,358.817 3769.42,358.817 3769.42,203.297 3195.97,203.297 3195.97,358.817 
  "/>
<polyline clip-path="url(#clip320)" style="stroke:#009af9; stroke-linecap:butt; stroke-linejoin:round; stroke-width:4; stroke-opacity:1; fill:none" points="
  3236.09,255.137 3476.78,255.137 
  "/>
<path clip-path="url(#clip320)" d="M3537.4 247.487 L3537.4 251.468 Q3535.6 250.473 3533.77 249.987 Q3531.96 249.477 3530.11 249.477 Q3525.97 249.477 3523.68 252.116 Q3521.39 254.732 3521.39 259.477 Q3521.39 264.223 3523.68 266.862 Q3525.97 269.477 3530.11 269.477 Q3531.96 269.477 3533.77 268.991 Q3535.6 268.482 3537.4 267.487 L3537.4 271.422 Q3535.62 272.255 3533.7 272.672 Q3531.8 273.088 3529.65 273.088 Q3523.79 273.088 3520.34 269.408 Q3516.9 265.727 3516.9 259.477 Q3516.9 253.135 3520.37 249.501 Q3523.86 245.866 3529.93 245.866 Q3531.9 245.866 3533.77 246.283 Q3535.65 246.677 3537.4 247.487 Z" fill="#000000" fill-rule="evenodd" fill-opacity="1" /><path clip-path="url(#clip320)" d="M3566.99 258.389 L3566.99 260.473 L3547.4 260.473 Q3547.68 264.871 3550.04 267.186 Q3552.43 269.477 3556.66 269.477 Q3559.12 269.477 3561.41 268.876 Q3563.72 268.274 3565.99 267.07 L3565.99 271.098 Q3563.7 272.07 3561.29 272.579 Q3558.89 273.088 3556.41 273.088 Q3550.21 273.088 3546.57 269.477 Q3542.96 265.866 3542.96 259.709 Q3542.96 253.343 3546.39 249.616 Q3549.83 245.866 3555.67 245.866 Q3560.9 245.866 3563.93 249.246 Q3566.99 252.602 3566.99 258.389 M3562.73 257.139 Q3562.68 253.644 3560.76 251.561 Q3558.86 249.477 3555.71 249.477 Q3552.15 249.477 3550 251.491 Q3547.87 253.505 3547.54 257.163 L3562.73 257.139 Z" fill="#000000" fill-rule="evenodd" fill-opacity="1" /><path clip-path="url(#clip320)" d="M3595.53 256.769 L3595.53 272.417 L3591.27 272.417 L3591.27 256.908 Q3591.27 253.227 3589.83 251.399 Q3588.4 249.57 3585.53 249.57 Q3582.08 249.57 3580.09 251.769 Q3578.1 253.968 3578.1 257.764 L3578.1 272.417 L3573.82 272.417 L3573.82 246.491 L3578.1 246.491 L3578.1 250.519 Q3579.63 248.181 3581.69 247.024 Q3583.77 245.866 3586.48 245.866 Q3590.95 245.866 3593.24 248.644 Q3595.53 251.399 3595.53 256.769 Z" fill="#000000" fill-rule="evenodd" fill-opacity="1" /><path clip-path="url(#clip320)" d="M3608.24 239.13 L3608.24 246.491 L3617.01 246.491 L3617.01 249.802 L3608.24 249.802 L3608.24 263.876 Q3608.24 267.047 3609.09 267.95 Q3609.97 268.852 3612.64 268.852 L3617.01 268.852 L3617.01 272.417 L3612.64 272.417 Q3607.7 272.417 3605.83 270.588 Q3603.96 268.737 3603.96 263.876 L3603.96 249.802 L3600.83 249.802 L3600.83 246.491 L3603.96 246.491 L3603.96 239.13 L3608.24 239.13 Z" fill="#000000" fill-rule="evenodd" fill-opacity="1" /><path clip-path="url(#clip320)" d="M3644.79 258.389 L3644.79 260.473 L3625.2 260.473 Q3625.48 264.871 3627.84 267.186 Q3630.23 269.477 3634.46 269.477 Q3636.92 269.477 3639.21 268.876 Q3641.52 268.274 3643.79 267.07 L3643.79 271.098 Q3641.5 272.07 3639.09 272.579 Q3636.69 273.088 3634.21 273.088 Q3628.01 273.088 3624.37 269.477 Q3620.76 265.866 3620.76 259.709 Q3620.76 253.343 3624.19 249.616 Q3627.64 245.866 3633.47 245.866 Q3638.7 245.866 3641.73 249.246 Q3644.79 252.602 3644.79 258.389 M3640.53 257.139 Q3640.48 253.644 3638.56 251.561 Q3636.66 249.477 3633.52 249.477 Q3629.95 249.477 3627.8 251.491 Q3625.67 253.505 3625.34 257.163 L3640.53 257.139 Z" fill="#000000" fill-rule="evenodd" fill-opacity="1" /><path clip-path="url(#clip320)" d="M3666.8 250.473 Q3666.08 250.056 3665.23 249.871 Q3664.39 249.663 3663.38 249.663 Q3659.76 249.663 3657.82 252.024 Q3655.9 254.362 3655.9 258.76 L3655.9 272.417 L3651.62 272.417 L3651.62 246.491 L3655.9 246.491 L3655.9 250.519 Q3657.24 248.158 3659.39 247.024 Q3661.55 245.866 3664.63 245.866 Q3665.07 245.866 3665.6 245.936 Q3666.13 245.982 3666.78 246.098 L3666.8 250.473 Z" fill="#000000" fill-rule="evenodd" fill-opacity="1" /><path clip-path="url(#clip320)" d="M3687.8 247.255 L3687.8 251.283 Q3685.99 250.357 3684.05 249.894 Q3682.1 249.431 3680.02 249.431 Q3676.85 249.431 3675.25 250.403 Q3673.68 251.376 3673.68 253.32 Q3673.68 254.802 3674.81 255.658 Q3675.95 256.491 3679.37 257.255 L3680.83 257.579 Q3685.37 258.552 3687.26 260.334 Q3689.19 262.093 3689.19 265.264 Q3689.19 268.876 3686.32 270.982 Q3683.47 273.088 3678.47 273.088 Q3676.39 273.088 3674.12 272.672 Q3671.87 272.278 3669.37 271.468 L3669.37 267.07 Q3671.73 268.297 3674.02 268.922 Q3676.32 269.524 3678.56 269.524 Q3681.57 269.524 3683.19 268.505 Q3684.81 267.463 3684.81 265.589 Q3684.81 263.852 3683.63 262.926 Q3682.47 262.001 3678.51 261.144 L3677.03 260.797 Q3673.08 259.964 3671.32 258.251 Q3669.56 256.514 3669.56 253.505 Q3669.56 249.848 3672.15 247.857 Q3674.74 245.866 3679.51 245.866 Q3681.87 245.866 3683.95 246.214 Q3686.04 246.561 3687.8 247.255 Z" fill="#000000" fill-rule="evenodd" fill-opacity="1" /><polyline clip-path="url(#clip320)" style="stroke:#e26f46; stroke-linecap:butt; stroke-linejoin:round; stroke-width:4; stroke-opacity:1; fill:none" points="
  3236.09,306.977 3476.78,306.977 
  "/>
<path clip-path="url(#clip320)" d="M3533.4 288.239 L3533.4 291.78 L3529.33 291.78 Q3527.03 291.78 3526.13 292.706 Q3525.25 293.632 3525.25 296.04 L3525.25 298.331 L3532.27 298.331 L3532.27 301.642 L3525.25 301.642 L3525.25 324.257 L3520.97 324.257 L3520.97 301.642 L3516.9 301.642 L3516.9 298.331 L3520.97 298.331 L3520.97 296.526 Q3520.97 292.197 3522.98 290.23 Q3525 288.239 3529.37 288.239 L3533.4 288.239 Z" fill="#000000" fill-rule="evenodd" fill-opacity="1" /><path clip-path="url(#clip320)" d="M3548.75 311.225 Q3543.58 311.225 3541.59 312.405 Q3539.6 313.586 3539.6 316.433 Q3539.6 318.702 3541.08 320.044 Q3542.59 321.364 3545.16 321.364 Q3548.7 321.364 3550.83 318.864 Q3552.98 316.341 3552.98 312.174 L3552.98 311.225 L3548.75 311.225 M3557.24 309.466 L3557.24 324.257 L3552.98 324.257 L3552.98 320.322 Q3551.52 322.683 3549.35 323.817 Q3547.17 324.928 3544.02 324.928 Q3540.04 324.928 3537.68 322.706 Q3535.34 320.461 3535.34 316.711 Q3535.34 312.336 3538.26 310.114 Q3541.2 307.892 3547.01 307.892 L3552.98 307.892 L3552.98 307.475 Q3552.98 304.535 3551.04 302.938 Q3549.12 301.317 3545.62 301.317 Q3543.4 301.317 3541.29 301.85 Q3539.19 302.382 3537.24 303.447 L3537.24 299.512 Q3539.58 298.609 3541.78 298.169 Q3543.98 297.706 3546.06 297.706 Q3551.69 297.706 3554.46 300.623 Q3557.24 303.54 3557.24 309.466 Z" fill="#000000" fill-rule="evenodd" fill-opacity="1" /><path clip-path="url(#clip320)" d="M3584.67 299.327 L3584.67 303.308 Q3582.87 302.313 3581.04 301.827 Q3579.23 301.317 3577.38 301.317 Q3573.24 301.317 3570.95 303.956 Q3568.65 306.572 3568.65 311.317 Q3568.65 316.063 3570.95 318.702 Q3573.24 321.317 3577.38 321.317 Q3579.23 321.317 3581.04 320.831 Q3582.87 320.322 3584.67 319.327 L3584.67 323.262 Q3582.89 324.095 3580.97 324.512 Q3579.07 324.928 3576.92 324.928 Q3571.06 324.928 3567.61 321.248 Q3564.16 317.567 3564.16 311.317 Q3564.16 304.975 3567.64 301.341 Q3571.13 297.706 3577.2 297.706 Q3579.16 297.706 3581.04 298.123 Q3582.91 298.517 3584.67 299.327 Z" fill="#000000" fill-rule="evenodd" fill-opacity="1" /><path clip-path="url(#clip320)" d="M3614.26 310.229 L3614.26 312.313 L3594.67 312.313 Q3594.95 316.711 3597.31 319.026 Q3599.7 321.317 3603.93 321.317 Q3606.39 321.317 3608.68 320.716 Q3610.99 320.114 3613.26 318.91 L3613.26 322.938 Q3610.97 323.91 3608.56 324.419 Q3606.15 324.928 3603.68 324.928 Q3597.47 324.928 3593.84 321.317 Q3590.23 317.706 3590.23 311.549 Q3590.23 305.183 3593.65 301.456 Q3597.1 297.706 3602.94 297.706 Q3608.17 297.706 3611.2 301.086 Q3614.26 304.442 3614.26 310.229 M3610 308.979 Q3609.95 305.484 3608.03 303.401 Q3606.13 301.317 3602.98 301.317 Q3599.42 301.317 3597.27 303.331 Q3595.14 305.345 3594.81 309.003 L3610 308.979 Z" fill="#000000" fill-rule="evenodd" fill-opacity="1" /><path clip-path="url(#clip320)" d="M3637.77 299.095 L3637.77 303.123 Q3635.97 302.197 3634.02 301.734 Q3632.08 301.271 3630 301.271 Q3626.83 301.271 3625.23 302.243 Q3623.65 303.216 3623.65 305.16 Q3623.65 306.642 3624.79 307.498 Q3625.92 308.331 3629.35 309.095 L3630.81 309.419 Q3635.34 310.392 3637.24 312.174 Q3639.16 313.933 3639.16 317.104 Q3639.16 320.716 3636.29 322.822 Q3633.45 324.928 3628.45 324.928 Q3626.36 324.928 3624.09 324.512 Q3621.85 324.118 3619.35 323.308 L3619.35 318.91 Q3621.71 320.137 3624 320.762 Q3626.29 321.364 3628.54 321.364 Q3631.55 321.364 3633.17 320.345 Q3634.79 319.303 3634.79 317.429 Q3634.79 315.692 3633.61 314.766 Q3632.45 313.841 3628.49 312.984 L3627.01 312.637 Q3623.05 311.804 3621.29 310.091 Q3619.53 308.354 3619.53 305.345 Q3619.53 301.688 3622.13 299.697 Q3624.72 297.706 3629.49 297.706 Q3631.85 297.706 3633.93 298.054 Q3636.02 298.401 3637.77 299.095 Z" fill="#000000" fill-rule="evenodd" fill-opacity="1" /></svg>
