<?xml version="1.0" encoding="utf-8"?>
<svg xmlns="http://www.w3.org/2000/svg" xmlns:xlink="http://www.w3.org/1999/xlink" width="1000" height="400" viewBox="0 0 4000 1600">
<defs>
  <clipPath id="clip500">
    <rect x="0" y="0" width="4000" height="1600"/>
  </clipPath>
</defs>
<path clip-path="url(#clip500)" d="
M0 1600 L4000 1600 L4000 0 L0 0  Z
  " fill="#ffffff" fill-rule="evenodd" fill-opacity="1"/>
<defs>
  <clipPath id="clip501">
    <rect x="800" y="0" width="2801" height="1600"/>
  </clipPath>
</defs>
<path clip-path="url(#clip500)" d="
M235.429 1393.02 L3889.76 1393.02 L3889.76 162.272 L235.429 162.272  Z
  " fill="#ffffff" fill-rule="evenodd" fill-opacity="1"/>
<defs>
  <clipPath id="clip502">
    <rect x="235" y="162" width="3655" height="1232"/>
  </clipPath>
</defs>
<polyline clip-path="url(#clip502)" style="stroke:#000000; stroke-linecap:butt; stroke-linejoin:round; stroke-width:2; stroke-opacity:0.1; fill:none" points="
  565.195,1393.02 565.195,162.272 
  "/>
<polyline clip-path="url(#clip502)" style="stroke:#000000; stroke-linecap:butt; stroke-linejoin:round; stroke-width:2; stroke-opacity:0.1; fill:none" points="
  1435.77,1393.02 1435.77,162.272 
  "/>
<polyline clip-path="url(#clip502)" style="stroke:#000000; stroke-linecap:butt; stroke-linejoin:round; stroke-width:2; stroke-opacity:0.1; fill:none" points="
  2306.35,1393.02 2306.35,162.272 
  "/>
<polyline clip-path="url(#clip502)" style="stroke:#000000; stroke-linecap:butt; stroke-linejoin:round; stroke-width:2; stroke-opacity:0.1; fill:none" points="
  3176.93,1393.02 3176.93,162.272 
  "/>
<polyline clip-path="url(#clip500)" style="stroke:#000000; stroke-linecap:butt; stroke-linejoin:round; stroke-width:4; stroke-opacity:1; fill:none" points="
  235.429,1393.02 3889.76,1393.02 
  "/>
<polyline clip-path="url(#clip500)" style="stroke:#000000; stroke-linecap:butt; stroke-linejoin:round; stroke-width:4; stroke-opacity:1; fill:none" points="
  565.195,1393.02 565.195,1374.12 
  "/>
<polyline clip-path="url(#clip500)" style="stroke:#000000; stroke-linecap:butt; stroke-linejoin:round; stroke-width:4; stroke-opacity:1; fill:none" points="
  1435.77,1393.02 1435.77,1374.12 
  "/>
<polyline clip-path="url(#clip500)" style="stroke:#000000; stroke-linecap:butt; stroke-linejoin:round; stroke-width:4; stroke-opacity:1; fill:none" points="
  2306.35,1393.02 2306.35,1374.12 
  "/>
<polyline clip-path="url(#clip500)" style="stroke:#000000; stroke-linecap:butt; stroke-linejoin:round; stroke-width:4; stroke-opacity:1; fill:none" points="
  3176.93,1393.02 3176.93,1374.12 
  "/>
<path clip-path="url(#clip500)" d="M550.6 1449.08 Q547.452 1449.08 545.6 1451.23 Q543.771 1453.38 543.771 1457.13 Q543.771 1460.86 545.6 1463.03 Q547.452 1465.19 550.6 1465.19 Q553.748 1465.19 555.577 1463.03 Q557.428 1460.86 557.428 1457.13 Q557.428 1453.38 555.577 1451.23 Q553.748 1449.08 550.6 1449.08 M559.882 1434.42 L559.882 1438.68 Q558.123 1437.85 556.317 1437.41 Q554.535 1436.97 552.776 1436.97 Q548.146 1436.97 545.692 1440.09 Q543.262 1443.22 542.915 1449.54 Q544.28 1447.53 546.34 1446.46 Q548.401 1445.37 550.877 1445.37 Q556.086 1445.37 559.095 1448.54 Q562.127 1451.69 562.127 1457.13 Q562.127 1462.46 558.979 1465.67 Q555.831 1468.89 550.6 1468.89 Q544.604 1468.89 541.433 1464.31 Q538.262 1459.7 538.262 1450.97 Q538.262 1442.78 542.151 1437.92 Q546.04 1433.03 552.59 1433.03 Q554.35 1433.03 556.132 1433.38 Q557.938 1433.73 559.882 1434.42 Z" fill="#000000" fill-rule="evenodd" fill-opacity="1" /><path clip-path="url(#clip500)" d="M580.183 1436.74 Q576.572 1436.74 574.743 1440.3 Q572.938 1443.84 572.938 1450.97 Q572.938 1458.08 574.743 1461.65 Q576.572 1465.19 580.183 1465.19 Q583.817 1465.19 585.623 1461.65 Q587.451 1458.08 587.451 1450.97 Q587.451 1443.84 585.623 1440.3 Q583.817 1436.74 580.183 1436.74 M580.183 1433.03 Q585.993 1433.03 589.049 1437.64 Q592.127 1442.22 592.127 1450.97 Q592.127 1459.7 589.049 1464.31 Q585.993 1468.89 580.183 1468.89 Q574.373 1468.89 571.294 1464.31 Q568.238 1459.7 568.238 1450.97 Q568.238 1442.22 571.294 1437.64 Q574.373 1433.03 580.183 1433.03 Z" fill="#000000" fill-rule="evenodd" fill-opacity="1" /><path clip-path="url(#clip500)" d="M1409.13 1433.66 L1431.35 1433.66 L1431.35 1435.65 L1418.81 1468.22 L1413.92 1468.22 L1425.73 1437.59 L1409.13 1437.59 L1409.13 1433.66 Z" fill="#000000" fill-rule="evenodd" fill-opacity="1" /><path clip-path="url(#clip500)" d="M1450.47 1436.74 Q1446.86 1436.74 1445.03 1440.3 Q1443.23 1443.84 1443.23 1450.97 Q1443.23 1458.08 1445.03 1461.65 Q1446.86 1465.19 1450.47 1465.19 Q1454.11 1465.19 1455.91 1461.65 Q1457.74 1458.08 1457.74 1450.97 Q1457.74 1443.84 1455.91 1440.3 Q1454.11 1436.74 1450.47 1436.74 M1450.47 1433.03 Q1456.28 1433.03 1459.34 1437.64 Q1462.42 1442.22 1462.42 1450.97 Q1462.42 1459.7 1459.34 1464.31 Q1456.28 1468.89 1450.47 1468.89 Q1444.66 1468.89 1441.58 1464.31 Q1438.53 1459.7 1438.53 1450.97 Q1438.53 1442.22 1441.58 1437.64 Q1444.66 1433.03 1450.47 1433.03 Z" fill="#000000" fill-rule="evenodd" fill-opacity="1" /><path clip-path="url(#clip500)" d="M2291.23 1451.81 Q2287.89 1451.81 2285.97 1453.59 Q2284.07 1455.37 2284.07 1458.5 Q2284.07 1461.62 2285.97 1463.4 Q2287.89 1465.19 2291.23 1465.19 Q2294.56 1465.19 2296.48 1463.4 Q2298.4 1461.6 2298.4 1458.5 Q2298.4 1455.37 2296.48 1453.59 Q2294.58 1451.81 2291.23 1451.81 M2286.55 1449.82 Q2283.54 1449.08 2281.85 1447.02 Q2280.18 1444.96 2280.18 1441.99 Q2280.18 1437.85 2283.12 1435.44 Q2286.09 1433.03 2291.23 1433.03 Q2296.39 1433.03 2299.33 1435.44 Q2302.27 1437.85 2302.27 1441.99 Q2302.27 1444.96 2300.58 1447.02 Q2298.91 1449.08 2295.93 1449.82 Q2299.31 1450.6 2301.18 1452.9 Q2303.08 1455.19 2303.08 1458.5 Q2303.08 1463.52 2300 1466.21 Q2296.94 1468.89 2291.23 1468.89 Q2285.51 1468.89 2282.43 1466.21 Q2279.37 1463.52 2279.37 1458.5 Q2279.37 1455.19 2281.27 1452.9 Q2283.17 1450.6 2286.55 1449.82 M2284.84 1442.43 Q2284.84 1445.12 2286.5 1446.62 Q2288.19 1448.13 2291.23 1448.13 Q2294.24 1448.13 2295.93 1446.62 Q2297.64 1445.12 2297.64 1442.43 Q2297.64 1439.75 2295.93 1438.24 Q2294.24 1436.74 2291.23 1436.74 Q2288.19 1436.74 2286.5 1438.24 Q2284.84 1439.75 2284.84 1442.43 Z" fill="#000000" fill-rule="evenodd" fill-opacity="1" /><path clip-path="url(#clip500)" d="M2321.39 1436.74 Q2317.78 1436.74 2315.95 1440.3 Q2314.14 1443.84 2314.14 1450.97 Q2314.14 1458.08 2315.95 1461.65 Q2317.78 1465.19 2321.39 1465.19 Q2325.02 1465.19 2326.83 1461.65 Q2328.66 1458.08 2328.66 1450.97 Q2328.66 1443.84 2326.83 1440.3 Q2325.02 1436.74 2321.39 1436.74 M2321.39 1433.03 Q2327.2 1433.03 2330.25 1437.64 Q2333.33 1442.22 2333.33 1450.97 Q2333.33 1459.7 2330.25 1464.31 Q2327.2 1468.89 2321.39 1468.89 Q2315.58 1468.89 2312.5 1464.31 Q2309.44 1459.7 2309.44 1450.97 Q2309.44 1442.22 2312.5 1437.64 Q2315.58 1433.03 2321.39 1433.03 Z" fill="#000000" fill-rule="evenodd" fill-opacity="1" /><path clip-path="url(#clip500)" d="M3152.06 1467.5 L3152.06 1463.24 Q3153.82 1464.08 3155.63 1464.52 Q3157.43 1464.96 3159.17 1464.96 Q3163.8 1464.96 3166.23 1461.85 Q3168.68 1458.73 3169.03 1452.39 Q3167.69 1454.38 3165.63 1455.44 Q3163.57 1456.51 3161.07 1456.51 Q3155.88 1456.51 3152.85 1453.38 Q3149.84 1450.23 3149.84 1444.79 Q3149.84 1439.47 3152.99 1436.25 Q3156.13 1433.03 3161.37 1433.03 Q3167.36 1433.03 3170.51 1437.64 Q3173.68 1442.22 3173.68 1450.97 Q3173.68 1459.15 3169.79 1464.03 Q3165.93 1468.89 3159.38 1468.89 Q3157.62 1468.89 3155.81 1468.54 Q3154.01 1468.2 3152.06 1467.5 M3161.37 1452.85 Q3164.51 1452.85 3166.34 1450.7 Q3168.2 1448.54 3168.2 1444.79 Q3168.2 1441.07 3166.34 1438.91 Q3164.51 1436.74 3161.37 1436.74 Q3158.22 1436.74 3156.37 1438.91 Q3154.54 1441.07 3154.54 1444.79 Q3154.54 1448.54 3156.37 1450.7 Q3158.22 1452.85 3161.37 1452.85 Z" fill="#000000" fill-rule="evenodd" fill-opacity="1" /><path clip-path="url(#clip500)" d="M3192.08 1436.74 Q3188.47 1436.74 3186.64 1440.3 Q3184.84 1443.84 3184.84 1450.97 Q3184.84 1458.08 3186.64 1461.65 Q3188.47 1465.19 3192.08 1465.19 Q3195.72 1465.19 3197.52 1461.65 Q3199.35 1458.08 3199.35 1450.97 Q3199.35 1443.84 3197.52 1440.3 Q3195.72 1436.74 3192.08 1436.74 M3192.08 1433.03 Q3197.89 1433.03 3200.95 1437.64 Q3204.03 1442.22 3204.03 1450.97 Q3204.03 1459.7 3200.95 1464.31 Q3197.89 1468.89 3192.08 1468.89 Q3186.27 1468.89 3183.2 1464.31 Q3180.14 1459.7 3180.14 1450.97 Q3180.14 1442.22 3183.2 1437.64 Q3186.27 1433.03 3192.08 1433.03 Z" fill="#000000" fill-rule="evenodd" fill-opacity="1" /><path clip-path="url(#clip500)" d="M1960.73 1556.54 L1960.73 1575.44 L1954.84 1575.44 L1954.84 1526.24 L1960.73 1526.24 L1960.73 1531.65 Q1962.58 1528.46 1965.38 1526.94 Q1968.21 1525.38 1972.12 1525.38 Q1978.62 1525.38 1982.66 1530.53 Q1986.73 1535.69 1986.73 1544.09 Q1986.73 1552.49 1982.66 1557.65 Q1978.62 1562.81 1972.12 1562.81 Q1968.21 1562.81 1965.38 1561.28 Q1962.58 1559.72 1960.73 1556.54 M1980.65 1544.09 Q1980.65 1537.63 1977.98 1533.97 Q1975.34 1530.28 1970.69 1530.28 Q1966.04 1530.28 1963.37 1533.97 Q1960.73 1537.63 1960.73 1544.09 Q1960.73 1550.55 1963.37 1554.24 Q1966.04 1557.91 1970.69 1557.91 Q1975.34 1557.91 1977.98 1554.24 Q1980.65 1550.55 1980.65 1544.09 Z" fill="#000000" fill-rule="evenodd" fill-opacity="1" /><path clip-path="url(#clip500)" d="M2031.23 1512.42 Q2026.96 1519.74 2024.9 1526.9 Q2022.83 1534.07 2022.83 1541.42 Q2022.83 1548.77 2024.9 1556 Q2027 1563.19 2031.23 1570.48 L2026.14 1570.48 Q2021.36 1563 2018.98 1555.77 Q2016.62 1548.55 2016.62 1541.42 Q2016.62 1534.32 2018.98 1527.13 Q2021.33 1519.93 2026.14 1512.42 L2031.23 1512.42 Z" fill="#000000" fill-rule="evenodd" fill-opacity="1" /><path clip-path="url(#clip500)" d="M2042.37 1512.36 L2048.26 1512.36 L2048.26 1541.61 L2065.73 1526.24 L2073.21 1526.24 L2054.31 1542.91 L2074.01 1561.88 L2066.37 1561.88 L2048.26 1544.47 L2048.26 1561.88 L2042.37 1561.88 L2042.37 1512.36 Z" fill="#000000" fill-rule="evenodd" fill-opacity="1" /><path clip-path="url(#clip500)" d="M2087.02 1519.65 L2087.02 1537.5 L2095.11 1537.5 Q2099.6 1537.5 2102.05 1535.18 Q2104.5 1532.86 2104.5 1528.56 Q2104.5 1524.29 2102.05 1521.97 Q2099.6 1519.65 2095.11 1519.65 L2087.02 1519.65 M2080.6 1514.36 L2095.11 1514.36 Q2103.1 1514.36 2107.17 1517.99 Q2111.28 1521.59 2111.28 1528.56 Q2111.28 1535.59 2107.17 1539.19 Q2103.1 1542.79 2095.11 1542.79 L2087.02 1542.79 L2087.02 1561.88 L2080.6 1561.88 L2080.6 1514.36 Z" fill="#000000" fill-rule="evenodd" fill-opacity="1" /><path clip-path="url(#clip500)" d="M2132.92 1543.96 Q2125.82 1543.96 2123.09 1545.59 Q2120.35 1547.21 2120.35 1551.13 Q2120.35 1554.24 2122.39 1556.09 Q2124.46 1557.91 2127.99 1557.91 Q2132.86 1557.91 2135.79 1554.47 Q2138.75 1551 2138.75 1545.27 L2138.75 1543.96 L2132.92 1543.96 M2144.6 1541.55 L2144.6 1561.88 L2138.75 1561.88 L2138.75 1556.47 Q2136.74 1559.72 2133.75 1561.28 Q2130.76 1562.81 2126.43 1562.81 Q2120.95 1562.81 2117.71 1559.75 Q2114.49 1556.66 2114.49 1551.51 Q2114.49 1545.49 2118.5 1542.44 Q2122.55 1539.38 2130.53 1539.38 L2138.75 1539.38 L2138.75 1538.81 Q2138.75 1534.77 2136.07 1532.57 Q2133.43 1530.34 2128.62 1530.34 Q2125.57 1530.34 2122.67 1531.07 Q2119.78 1531.81 2117.1 1533.27 L2117.1 1527.86 Q2120.32 1526.62 2123.34 1526.01 Q2126.37 1525.38 2129.23 1525.38 Q2136.96 1525.38 2140.78 1529.39 Q2144.6 1533.4 2144.6 1541.55 Z" fill="#000000" fill-rule="evenodd" fill-opacity="1" /><path clip-path="url(#clip500)" d="M2155.74 1512.42 L2160.84 1512.42 Q2165.61 1519.93 2167.96 1527.13 Q2170.35 1534.32 2170.35 1541.42 Q2170.35 1548.55 2167.96 1555.77 Q2165.61 1563 2160.84 1570.48 L2155.74 1570.48 Q2159.98 1563.19 2162.04 1556 Q2164.15 1548.77 2164.15 1541.42 Q2164.15 1534.07 2162.04 1526.9 Q2159.98 1519.74 2155.74 1512.42 Z" fill="#000000" fill-rule="evenodd" fill-opacity="1" /><polyline clip-path="url(#clip502)" style="stroke:#000000; stroke-linecap:butt; stroke-linejoin:round; stroke-width:2; stroke-opacity:0.1; fill:none" points="
  235.429,1358.19 3889.76,1358.19 
  "/>
<polyline clip-path="url(#clip502)" style="stroke:#000000; stroke-linecap:butt; stroke-linejoin:round; stroke-width:2; stroke-opacity:0.1; fill:none" points="
  235.429,1094.3 3889.76,1094.3 
  "/>
<polyline clip-path="url(#clip502)" style="stroke:#000000; stroke-linecap:butt; stroke-linejoin:round; stroke-width:2; stroke-opacity:0.1; fill:none" points="
  235.429,830.422 3889.76,830.422 
  "/>
<polyline clip-path="url(#clip502)" style="stroke:#000000; stroke-linecap:butt; stroke-linejoin:round; stroke-width:2; stroke-opacity:0.1; fill:none" points="
  235.429,566.54 3889.76,566.54 
  "/>
<polyline clip-path="url(#clip502)" style="stroke:#000000; stroke-linecap:butt; stroke-linejoin:round; stroke-width:2; stroke-opacity:0.1; fill:none" points="
  235.429,302.658 3889.76,302.658 
  "/>
<polyline clip-path="url(#clip500)" style="stroke:#000000; stroke-linecap:butt; stroke-linejoin:round; stroke-width:4; stroke-opacity:1; fill:none" points="
  235.429,1393.02 235.429,162.272 
  "/>
<polyline clip-path="url(#clip500)" style="stroke:#000000; stroke-linecap:butt; stroke-linejoin:round; stroke-width:4; stroke-opacity:1; fill:none" points="
  235.429,1358.19 254.327,1358.19 
  "/>
<polyline clip-path="url(#clip500)" style="stroke:#000000; stroke-linecap:butt; stroke-linejoin:round; stroke-width:4; stroke-opacity:1; fill:none" points="
  235.429,1094.3 254.327,1094.3 
  "/>
<polyline clip-path="url(#clip500)" style="stroke:#000000; stroke-linecap:butt; stroke-linejoin:round; stroke-width:4; stroke-opacity:1; fill:none" points="
  235.429,830.422 254.327,830.422 
  "/>
<polyline clip-path="url(#clip500)" style="stroke:#000000; stroke-linecap:butt; stroke-linejoin:round; stroke-width:4; stroke-opacity:1; fill:none" points="
  235.429,566.54 254.327,566.54 
  "/>
<polyline clip-path="url(#clip500)" style="stroke:#000000; stroke-linecap:butt; stroke-linejoin:round; stroke-width:4; stroke-opacity:1; fill:none" points="
  235.429,302.658 254.327,302.658 
  "/>
<path clip-path="url(#clip500)" d="M163.485 1343.99 Q159.874 1343.99 158.045 1347.55 Q156.24 1351.09 156.24 1358.22 Q156.24 1365.33 158.045 1368.89 Q159.874 1372.43 163.485 1372.43 Q167.119 1372.43 168.925 1368.89 Q170.753 1365.33 170.753 1358.22 Q170.753 1351.09 168.925 1347.55 Q167.119 1343.99 163.485 1343.99 M163.485 1340.28 Q169.295 1340.28 172.351 1344.89 Q175.429 1349.47 175.429 1358.22 Q175.429 1366.95 172.351 1371.56 Q169.295 1376.14 163.485 1376.14 Q157.675 1376.14 154.596 1371.56 Q151.541 1366.95 151.541 1358.22 Q151.541 1349.47 154.596 1344.89 Q157.675 1340.28 163.485 1340.28 Z" fill="#000000" fill-rule="evenodd" fill-opacity="1" /><path clip-path="url(#clip500)" d="M155.522 1107.65 L163.161 1107.65 L163.161 1081.28 L154.851 1082.95 L154.851 1078.69 L163.115 1077.02 L167.79 1077.02 L167.79 1107.65 L175.429 1107.65 L175.429 1111.58 L155.522 1111.58 L155.522 1107.65 Z" fill="#000000" fill-rule="evenodd" fill-opacity="1" /><path clip-path="url(#clip500)" d="M159.11 843.767 L175.429 843.767 L175.429 847.702 L153.485 847.702 L153.485 843.767 Q156.147 841.013 160.73 836.383 Q165.337 831.73 166.517 830.388 Q168.763 827.865 169.642 826.129 Q170.545 824.369 170.545 822.679 Q170.545 819.925 168.601 818.189 Q166.679 816.453 163.578 816.453 Q161.378 816.453 158.925 817.217 Q156.494 817.98 153.716 819.531 L153.716 814.809 Q156.541 813.675 158.994 813.096 Q161.448 812.517 163.485 812.517 Q168.855 812.517 172.05 815.203 Q175.244 817.888 175.244 822.379 Q175.244 824.508 174.434 826.429 Q173.647 828.328 171.54 830.92 Q170.962 831.591 167.86 834.809 Q164.758 838.003 159.11 843.767 Z" fill="#000000" fill-rule="evenodd" fill-opacity="1" /><path clip-path="url(#clip500)" d="M168.3 565.186 Q171.656 565.904 173.531 568.172 Q175.429 570.441 175.429 573.774 Q175.429 578.89 171.911 581.69 Q168.392 584.491 161.911 584.491 Q159.735 584.491 157.42 584.052 Q155.129 583.635 152.675 582.778 L152.675 578.265 Q154.619 579.399 156.934 579.978 Q159.249 580.556 161.772 580.556 Q166.17 580.556 168.462 578.82 Q170.777 577.084 170.777 573.774 Q170.777 570.718 168.624 569.005 Q166.494 567.269 162.675 567.269 L158.647 567.269 L158.647 563.427 L162.86 563.427 Q166.309 563.427 168.138 562.061 Q169.966 560.672 169.966 558.079 Q169.966 555.417 168.068 554.005 Q166.193 552.57 162.675 552.57 Q160.753 552.57 158.554 552.987 Q156.355 553.404 153.716 554.283 L153.716 550.117 Q156.379 549.376 158.693 549.005 Q161.031 548.635 163.091 548.635 Q168.415 548.635 171.517 551.066 Q174.619 553.473 174.619 557.593 Q174.619 560.464 172.976 562.454 Q171.332 564.422 168.3 565.186 Z" fill="#000000" fill-rule="evenodd" fill-opacity="1" /><path clip-path="url(#clip500)" d="M165.846 289.452 L154.041 307.901 L165.846 307.901 L165.846 289.452 M164.619 285.378 L170.499 285.378 L170.499 307.901 L175.429 307.901 L175.429 311.79 L170.499 311.79 L170.499 319.938 L165.846 319.938 L165.846 311.79 L150.244 311.79 L150.244 307.276 L164.619 285.378 Z" fill="#000000" fill-rule="evenodd" fill-opacity="1" /><path clip-path="url(#clip500)" d="M40.3403 876.171 L40.3403 848.353 L45.6875 848.353 L71.3095 870.378 L71.3095 848.353 L75.9883 848.353 L75.9883 876.967 L70.6411 876.967 L45.0191 854.942 L45.0191 876.171 L40.3403 876.171 Z" fill="#000000" fill-rule="evenodd" fill-opacity="1" /><path clip-path="url(#clip500)" d="M26.5267 804.621 Q33.8473 808.886 41.0087 810.955 Q48.1701 813.023 55.5225 813.023 Q62.8749 813.023 70.1 810.955 Q77.2933 808.854 84.582 804.621 L84.582 809.713 Q77.1023 814.488 69.8772 816.875 Q62.6521 819.23 55.5225 819.23 Q48.4248 819.23 41.2315 816.875 Q34.0383 814.519 26.5267 809.713 L26.5267 804.621 Z" fill="#000000" fill-rule="evenodd" fill-opacity="1" /><path clip-path="url(#clip500)" d="M26.4631 793.481 L26.4631 787.592 L55.7135 787.592 L40.3403 770.119 L40.3403 762.639 L57.0185 781.545 L75.9883 761.843 L75.9883 769.482 L58.5781 787.592 L75.9883 787.592 L75.9883 793.481 L26.4631 793.481 Z" fill="#000000" fill-rule="evenodd" fill-opacity="1" /><path clip-path="url(#clip500)" d="M47.1835 727.755 Q43.2367 725.559 41.3588 722.503 Q39.481 719.448 39.481 715.31 Q39.481 709.74 43.3959 706.716 Q47.2789 703.692 54.4722 703.692 L75.9883 703.692 L75.9883 709.581 L54.6632 709.581 Q49.5388 709.581 47.0561 711.395 Q44.5735 713.209 44.5735 716.933 Q44.5735 721.485 47.5972 724.126 Q50.6209 726.768 55.8408 726.768 L75.9883 726.768 L75.9883 732.656 L54.6632 732.656 Q49.5069 732.656 47.0561 734.471 Q44.5735 736.285 44.5735 740.072 Q44.5735 744.56 47.6291 747.202 Q50.6528 749.844 55.8408 749.844 L75.9883 749.844 L75.9883 755.732 L40.3403 755.732 L40.3403 749.844 L45.8785 749.844 Q42.6002 747.839 41.0406 745.038 Q39.481 742.237 39.481 738.385 Q39.481 734.502 41.4543 731.797 Q43.4277 729.06 47.1835 727.755 Z" fill="#000000" fill-rule="evenodd" fill-opacity="1" /><path clip-path="url(#clip500)" d="M26.5267 692.934 L26.5267 687.842 Q34.0383 683.067 41.2315 680.712 Q48.4248 678.325 55.5225 678.325 Q62.6521 678.325 69.8772 680.712 Q77.1023 683.067 84.582 687.842 L84.582 692.934 Q77.2933 688.701 70.1 686.632 Q62.8749 684.532 55.5225 684.532 Q48.1701 684.532 41.0087 686.632 Q33.8473 688.701 26.5267 692.934 Z" fill="#000000" fill-rule="evenodd" fill-opacity="1" /><path clip-path="url(#clip500)" d="M1932.95 65.7705 L1932.95 89.8329 L1925.45 89.8329 L1925.45 27.2059 L1932.95 27.2059 L1932.95 34.0924 Q1935.3 30.0415 1938.86 28.0971 Q1942.47 26.1121 1947.45 26.1121 Q1955.71 26.1121 1960.86 32.6746 Q1966.04 39.2371 1966.04 49.9314 Q1966.04 60.6258 1960.86 67.1883 Q1955.71 73.7508 1947.45 73.7508 Q1942.47 73.7508 1938.86 71.8063 Q1935.3 69.8214 1932.95 65.7705 M1958.31 49.9314 Q1958.31 41.7081 1954.9 37.0496 Q1951.54 32.3505 1945.63 32.3505 Q1939.71 32.3505 1936.31 37.0496 Q1932.95 41.7081 1932.95 49.9314 Q1932.95 58.1548 1936.31 62.8538 Q1939.71 67.5124 1945.63 67.5124 Q1951.54 67.5124 1954.9 62.8538 Q1958.31 58.1548 1958.31 49.9314 Z" fill="#000000" fill-rule="evenodd" fill-opacity="1" /><path clip-path="url(#clip500)" d="M2022.67 9.62495 Q2017.25 18.942 2014.61 28.0566 Q2011.98 37.1711 2011.98 46.5287 Q2011.98 55.8863 2014.61 65.0818 Q2017.29 74.2369 2022.67 83.5134 L2016.19 83.5134 Q2010.12 73.9938 2007.08 64.7983 Q2004.08 55.6027 2004.08 46.5287 Q2004.08 37.4952 2007.08 28.3401 Q2010.08 19.1851 2016.19 9.62495 L2022.67 9.62495 Z" fill="#000000" fill-rule="evenodd" fill-opacity="1" /><path clip-path="url(#clip500)" d="M2036.85 9.54393 L2044.35 9.54393 L2044.35 46.7717 L2066.59 27.2059 L2076.11 27.2059 L2052.04 48.4326 L2077.12 72.576 L2067.4 72.576 L2044.35 50.4176 L2044.35 72.576 L2036.85 72.576 L2036.85 9.54393 Z" fill="#000000" fill-rule="evenodd" fill-opacity="1" /><path clip-path="url(#clip500)" d="M2093.69 18.8205 L2093.69 41.5461 L2103.98 41.5461 Q2109.69 41.5461 2112.81 38.5889 Q2115.93 35.6318 2115.93 30.163 Q2115.93 24.7348 2112.81 21.7777 Q2109.69 18.8205 2103.98 18.8205 L2093.69 18.8205 M2085.5 12.096 L2103.98 12.096 Q2114.14 12.096 2119.33 16.714 Q2124.56 21.2916 2124.56 30.163 Q2124.56 39.1155 2119.33 43.6931 Q2114.14 48.2706 2103.98 48.2706 L2093.69 48.2706 L2093.69 72.576 L2085.5 72.576 L2085.5 12.096 Z" fill="#000000" fill-rule="evenodd" fill-opacity="1" /><path clip-path="url(#clip500)" d="M2152.1 49.7694 Q2143.07 49.7694 2139.58 51.8354 Q2136.1 53.9013 2136.1 58.8839 Q2136.1 62.8538 2138.69 65.2034 Q2141.33 67.5124 2145.82 67.5124 Q2152.02 67.5124 2155.75 63.1374 Q2159.51 58.7219 2159.51 51.4303 L2159.51 49.7694 L2152.1 49.7694 M2166.97 46.6907 L2166.97 72.576 L2159.51 72.576 L2159.51 65.6895 Q2156.96 69.8214 2153.15 71.8063 Q2149.35 73.7508 2143.84 73.7508 Q2136.87 73.7508 2132.74 69.8619 Q2128.65 65.9325 2128.65 59.3701 Q2128.65 51.7138 2133.75 47.825 Q2138.9 43.9361 2149.06 43.9361 L2159.51 43.9361 L2159.51 43.2069 Q2159.51 38.0623 2156.11 35.2672 Q2152.75 32.4315 2146.63 32.4315 Q2142.74 32.4315 2139.06 33.3632 Q2135.37 34.295 2131.97 36.1584 L2131.97 29.2718 Q2136.06 27.692 2139.91 26.9223 Q2143.76 26.1121 2147.4 26.1121 Q2157.25 26.1121 2162.11 31.2163 Q2166.97 36.3204 2166.97 46.6907 Z" fill="#000000" fill-rule="evenodd" fill-opacity="1" /><path clip-path="url(#clip500)" d="M2181.15 9.62495 L2187.63 9.62495 Q2193.7 19.1851 2196.7 28.3401 Q2199.74 37.4952 2199.74 46.5287 Q2199.74 55.6027 2196.7 64.7983 Q2193.7 73.9938 2187.63 83.5134 L2181.15 83.5134 Q2186.53 74.2369 2189.17 65.0818 Q2191.84 55.8863 2191.84 46.5287 Q2191.84 37.1711 2189.17 28.0566 Q2186.53 18.942 2181.15 9.62495 Z" fill="#000000" fill-rule="evenodd" fill-opacity="1" /><polyline clip-path="url(#clip502)" style="stroke:#009af9; stroke-linecap:butt; stroke-linejoin:round; stroke-width:4; stroke-opacity:1; fill:none" points="
  3762.45,1351.59 3714.82,1338.4 3667.38,1325.2 3620.13,1312.01 3573.08,1298.81 3526.21,1285.62 3479.54,1272.43 3433.06,1259.23 3386.77,1246.04 3340.67,1232.84 
  3294.75,1219.65 3249.03,1206.45 3203.49,1193.26 3158.15,1180.07 3112.99,1166.87 3068.02,1153.68 3023.28,1140.48 2978.75,1127.29 2934.44,1114.1 2890.35,1100.9 
  2846.47,1087.71 2802.81,1074.51 2759.36,1061.32 2716.13,1048.13 2673.11,1034.93 2630.3,1021.74 2587.7,1008.54 2545.31,995.349 2503.13,982.155 2461.16,968.961 
  2419.4,955.767 2377.84,942.572 2336.49,929.378 2295.34,916.184 2254.4,902.99 2213.66,889.796 2173.12,876.602 2132.78,863.408 2092.65,850.214 2052.71,837.02 
  2012.97,823.825 1973.43,810.631 1934.09,797.437 1894.94,784.243 1855.99,771.049 1817.23,757.855 1778.67,744.661 1740.3,731.467 1702.12,718.272 1664.13,705.078 
  1626.33,691.884 1588.73,678.69 1551.31,665.496 1514.08,652.302 1477.03,639.108 1440.17,625.914 1403.5,612.719 1367.02,599.525 1330.71,586.331 1294.59,573.137 
  1258.66,559.943 1222.9,546.749 1187.32,533.555 1151.93,520.361 1116.71,507.167 1081.68,493.972 1046.82,480.778 1012.13,467.584 977.627,454.39 943.296,441.196 
  909.139,428.002 875.156,414.808 841.345,401.614 807.707,388.419 774.241,375.225 740.945,362.031 707.82,348.837 674.863,335.643 642.075,322.449 609.455,309.255 
  577.001,296.061 544.715,282.867 512.594,269.672 480.637,256.478 448.845,243.284 417.216,230.09 385.75,216.896 354.446,203.702 
  "/>
<polyline clip-path="url(#clip502)" style="stroke:#e26f46; stroke-linecap:butt; stroke-linejoin:round; stroke-width:4; stroke-opacity:1; fill:none" points="
  3786.34,1358.19 3738.61,1344.99 3691.07,1331.8 3643.73,1318.6 3596.58,1305.41 3549.62,1292.22 3502.85,1279.02 3456.28,1265.83 3409.89,1252.63 3363.69,1239.44 
  3317.69,1226.25 3271.87,1213.05 3226.24,1199.86 3180.8,1186.66 3135.54,1173.47 3090.48,1160.28 3045.62,1147.08 3000.99,1133.89 2956.57,1120.69 2912.37,1107.5 
  2868.38,1094.3 2824.61,1081.11 2781.06,1067.92 2737.72,1054.72 2694.59,1041.53 2651.68,1028.33 2608.97,1015.14 2566.48,1001.95 2524.2,988.752 2482.12,975.558 
  2440.26,962.364 2398.6,949.17 2357.14,935.975 2315.89,922.781 2274.85,909.587 2234,896.393 2193.36,883.199 2152.93,870.005 2112.69,856.811 2072.65,843.617 
  2032.82,830.422 1993.18,817.228 1953.73,804.034 1914.49,790.84 1875.44,777.646 1836.59,764.452 1797.93,751.258 1759.46,738.064 1721.18,724.87 1683.1,711.675 
  1645.21,698.481 1607.51,685.287 1569.99,672.093 1532.67,658.899 1495.53,645.705 1458.58,632.511 1421.82,619.317 1385.24,606.122 1348.84,592.928 1312.63,579.734 
  1276.6,566.54 1240.76,553.346 1205.09,540.152 1169.6,526.958 1134.3,513.764 1099.17,500.569 1064.22,487.375 1029.45,474.181 994.859,460.987 960.44,447.793 
  926.195,434.599 892.125,421.405 858.229,408.211 824.505,395.017 790.953,381.822 757.572,368.628 724.361,355.434 691.32,342.24 658.448,329.046 625.744,315.852 
  593.207,302.658 560.837,289.464 528.633,276.269 496.595,263.075 464.721,249.881 433.01,236.687 401.463,223.493 370.078,210.299 338.854,197.105 
  "/>
<path clip-path="url(#clip500)" d="
M3189.62 358.817 L3767.95 358.817 L3767.95 203.297 L3189.62 203.297  Z
  " fill="#ffffff" fill-rule="evenodd" fill-opacity="1"/>
<polyline clip-path="url(#clip500)" style="stroke:#000000; stroke-linecap:butt; stroke-linejoin:round; stroke-width:4; stroke-opacity:1; fill:none" points="
  3189.62,358.817 3767.95,358.817 3767.95,203.297 3189.62,203.297 3189.62,358.817 
  "/>
<polyline clip-path="url(#clip500)" style="stroke:#009af9; stroke-linecap:butt; stroke-linejoin:round; stroke-width:4; stroke-opacity:1; fill:none" points="
  3230.23,255.137 3473.85,255.137 
  "/>
<path clip-path="url(#clip500)" d="M3534.96 247.487 L3534.96 251.468 Q3533.16 250.473 3531.33 249.987 Q3529.52 249.477 3527.67 249.477 Q3523.53 249.477 3521.24 252.116 Q3518.95 254.732 3518.95 259.477 Q3518.95 264.223 3521.24 266.862 Q3523.53 269.477 3527.67 269.477 Q3529.52 269.477 3531.33 268.991 Q3533.16 268.482 3534.96 267.487 L3534.96 271.422 Q3533.18 272.255 3531.26 272.672 Q3529.36 273.088 3527.21 273.088 Q3521.35 273.088 3517.9 269.408 Q3514.45 265.727 3514.45 259.477 Q3514.45 253.135 3517.93 249.501 Q3521.42 245.866 3527.49 245.866 Q3529.45 245.866 3531.33 246.283 Q3533.2 246.677 3534.96 247.487 Z" fill="#000000" fill-rule="evenodd" fill-opacity="1" /><path clip-path="url(#clip500)" d="M3564.55 258.389 L3564.55 260.473 L3544.96 260.473 Q3545.24 264.871 3547.6 267.186 Q3549.99 269.477 3554.22 269.477 Q3556.68 269.477 3558.97 268.876 Q3561.28 268.274 3563.55 267.07 L3563.55 271.098 Q3561.26 272.07 3558.85 272.579 Q3556.44 273.088 3553.97 273.088 Q3547.76 273.088 3544.13 269.477 Q3540.52 265.866 3540.52 259.709 Q3540.52 253.343 3543.95 249.616 Q3547.39 245.866 3553.23 245.866 Q3558.46 245.866 3561.49 249.246 Q3564.55 252.602 3564.55 258.389 M3560.29 257.139 Q3560.24 253.644 3558.32 251.561 Q3556.42 249.477 3553.27 249.477 Q3549.71 249.477 3547.56 251.491 Q3545.43 253.505 3545.1 257.163 L3560.29 257.139 Z" fill="#000000" fill-rule="evenodd" fill-opacity="1" /><path clip-path="url(#clip500)" d="M3593.09 256.769 L3593.09 272.417 L3588.83 272.417 L3588.83 256.908 Q3588.83 253.227 3587.39 251.399 Q3585.96 249.57 3583.09 249.57 Q3579.64 249.57 3577.65 251.769 Q3575.66 253.968 3575.66 257.764 L3575.66 272.417 L3571.38 272.417 L3571.38 246.491 L3575.66 246.491 L3575.66 250.519 Q3577.19 248.181 3579.25 247.024 Q3581.33 245.866 3584.04 245.866 Q3588.5 245.866 3590.8 248.644 Q3593.09 251.399 3593.09 256.769 Z" fill="#000000" fill-rule="evenodd" fill-opacity="1" /><path clip-path="url(#clip500)" d="M3605.8 239.13 L3605.8 246.491 L3614.57 246.491 L3614.57 249.802 L3605.8 249.802 L3605.8 263.876 Q3605.8 267.047 3606.65 267.95 Q3607.53 268.852 3610.19 268.852 L3614.57 268.852 L3614.57 272.417 L3610.19 272.417 Q3605.26 272.417 3603.39 270.588 Q3601.51 268.737 3601.51 263.876 L3601.51 249.802 L3598.39 249.802 L3598.39 246.491 L3601.51 246.491 L3601.51 239.13 L3605.8 239.13 Z" fill="#000000" fill-rule="evenodd" fill-opacity="1" /><path clip-path="url(#clip500)" d="M3642.35 258.389 L3642.35 260.473 L3622.76 260.473 Q3623.04 264.871 3625.4 267.186 Q3627.79 269.477 3632.02 269.477 Q3634.48 269.477 3636.77 268.876 Q3639.08 268.274 3641.35 267.07 L3641.35 271.098 Q3639.06 272.07 3636.65 272.579 Q3634.25 273.088 3631.77 273.088 Q3625.56 273.088 3621.93 269.477 Q3618.32 265.866 3618.32 259.709 Q3618.32 253.343 3621.75 249.616 Q3625.19 245.866 3631.03 245.866 Q3636.26 245.866 3639.29 249.246 Q3642.35 252.602 3642.35 258.389 M3638.09 257.139 Q3638.04 253.644 3636.12 251.561 Q3634.22 249.477 3631.07 249.477 Q3627.51 249.477 3625.36 251.491 Q3623.23 253.505 3622.9 257.163 L3638.09 257.139 Z" fill="#000000" fill-rule="evenodd" fill-opacity="1" /><path clip-path="url(#clip500)" d="M3664.36 250.473 Q3663.64 250.056 3662.79 249.871 Q3661.95 249.663 3660.94 249.663 Q3657.32 249.663 3655.38 252.024 Q3653.46 254.362 3653.46 258.76 L3653.46 272.417 L3649.18 272.417 L3649.18 246.491 L3653.46 246.491 L3653.46 250.519 Q3654.8 248.158 3656.95 247.024 Q3659.11 245.866 3662.19 245.866 Q3662.62 245.866 3663.16 245.936 Q3663.69 245.982 3664.34 246.098 L3664.36 250.473 Z" fill="#000000" fill-rule="evenodd" fill-opacity="1" /><path clip-path="url(#clip500)" d="M3685.36 247.255 L3685.36 251.283 Q3683.55 250.357 3681.61 249.894 Q3679.66 249.431 3677.58 249.431 Q3674.41 249.431 3672.81 250.403 Q3671.24 251.376 3671.24 253.32 Q3671.24 254.802 3672.37 255.658 Q3673.5 256.491 3676.93 257.255 L3678.39 257.579 Q3682.93 258.552 3684.82 260.334 Q3686.75 262.093 3686.75 265.264 Q3686.75 268.876 3683.87 270.982 Q3681.03 273.088 3676.03 273.088 Q3673.94 273.088 3671.68 272.672 Q3669.43 272.278 3666.93 271.468 L3666.93 267.07 Q3669.29 268.297 3671.58 268.922 Q3673.87 269.524 3676.12 269.524 Q3679.13 269.524 3680.75 268.505 Q3682.37 267.463 3682.37 265.589 Q3682.37 263.852 3681.19 262.926 Q3680.03 262.001 3676.07 261.144 L3674.59 260.797 Q3670.63 259.964 3668.87 258.251 Q3667.12 256.514 3667.12 253.505 Q3667.12 249.848 3669.71 247.857 Q3672.3 245.866 3677.07 245.866 Q3679.43 245.866 3681.51 246.214 Q3683.6 246.561 3685.36 247.255 Z" fill="#000000" fill-rule="evenodd" fill-opacity="1" /><polyline clip-path="url(#clip500)" style="stroke:#e26f46; stroke-linecap:butt; stroke-linejoin:round; stroke-width:4; stroke-opacity:1; fill:none" points="
  3230.23,306.977 3473.85,306.977 
  "/>
<path clip-path="url(#clip500)" d="M3530.96 288.239 L3530.96 291.78 L3526.88 291.78 Q3524.59 291.78 3523.69 292.706 Q3522.81 293.632 3522.81 296.04 L3522.81 298.331 L3529.82 298.331 L3529.82 301.642 L3522.81 301.642 L3522.81 324.257 L3518.53 324.257 L3518.53 301.642 L3514.45 301.642 L3514.45 298.331 L3518.53 298.331 L3518.53 296.526 Q3518.53 292.197 3520.54 290.23 Q3522.56 288.239 3526.93 288.239 L3530.96 288.239 Z" fill="#000000" fill-rule="evenodd" fill-opacity="1" /><path clip-path="url(#clip500)" d="M3546.31 311.225 Q3541.14 311.225 3539.15 312.405 Q3537.16 313.586 3537.16 316.433 Q3537.16 318.702 3538.64 320.044 Q3540.15 321.364 3542.72 321.364 Q3546.26 321.364 3548.39 318.864 Q3550.54 316.341 3550.54 312.174 L3550.54 311.225 L3546.31 311.225 M3554.8 309.466 L3554.8 324.257 L3550.54 324.257 L3550.54 320.322 Q3549.08 322.683 3546.91 323.817 Q3544.73 324.928 3541.58 324.928 Q3537.6 324.928 3535.24 322.706 Q3532.9 320.461 3532.9 316.711 Q3532.9 312.336 3535.82 310.114 Q3538.76 307.892 3544.57 307.892 L3550.54 307.892 L3550.54 307.475 Q3550.54 304.535 3548.6 302.938 Q3546.68 301.317 3543.18 301.317 Q3540.96 301.317 3538.85 301.85 Q3536.75 302.382 3534.8 303.447 L3534.8 299.512 Q3537.14 298.609 3539.34 298.169 Q3541.54 297.706 3543.62 297.706 Q3549.25 297.706 3552.02 300.623 Q3554.8 303.54 3554.8 309.466 Z" fill="#000000" fill-rule="evenodd" fill-opacity="1" /><path clip-path="url(#clip500)" d="M3582.23 299.327 L3582.23 303.308 Q3580.43 302.313 3578.6 301.827 Q3576.79 301.317 3574.94 301.317 Q3570.8 301.317 3568.51 303.956 Q3566.21 306.572 3566.21 311.317 Q3566.21 316.063 3568.51 318.702 Q3570.8 321.317 3574.94 321.317 Q3576.79 321.317 3578.6 320.831 Q3580.43 320.322 3582.23 319.327 L3582.23 323.262 Q3580.45 324.095 3578.53 324.512 Q3576.63 324.928 3574.48 324.928 Q3568.62 324.928 3565.17 321.248 Q3561.72 317.567 3561.72 311.317 Q3561.72 304.975 3565.19 301.341 Q3568.69 297.706 3574.76 297.706 Q3576.72 297.706 3578.6 298.123 Q3580.47 298.517 3582.23 299.327 Z" fill="#000000" fill-rule="evenodd" fill-opacity="1" /><path clip-path="url(#clip500)" d="M3611.82 310.229 L3611.82 312.313 L3592.23 312.313 Q3592.51 316.711 3594.87 319.026 Q3597.25 321.317 3601.49 321.317 Q3603.94 321.317 3606.24 320.716 Q3608.55 320.114 3610.82 318.91 L3610.82 322.938 Q3608.53 323.91 3606.12 324.419 Q3603.71 324.928 3601.24 324.928 Q3595.03 324.928 3591.4 321.317 Q3587.79 317.706 3587.79 311.549 Q3587.79 305.183 3591.21 301.456 Q3594.66 297.706 3600.5 297.706 Q3605.73 297.706 3608.76 301.086 Q3611.82 304.442 3611.82 310.229 M3607.56 308.979 Q3607.51 305.484 3605.59 303.401 Q3603.69 301.317 3600.54 301.317 Q3596.98 301.317 3594.82 303.331 Q3592.69 305.345 3592.37 309.003 L3607.56 308.979 Z" fill="#000000" fill-rule="evenodd" fill-opacity="1" /><path clip-path="url(#clip500)" d="M3635.33 299.095 L3635.33 303.123 Q3633.53 302.197 3631.58 301.734 Q3629.64 301.271 3627.56 301.271 Q3624.38 301.271 3622.79 302.243 Q3621.21 303.216 3621.21 305.16 Q3621.21 306.642 3622.35 307.498 Q3623.48 308.331 3626.91 309.095 L3628.37 309.419 Q3632.9 310.392 3634.8 312.174 Q3636.72 313.933 3636.72 317.104 Q3636.72 320.716 3633.85 322.822 Q3631 324.928 3626 324.928 Q3623.92 324.928 3621.65 324.512 Q3619.41 324.118 3616.91 323.308 L3616.91 318.91 Q3619.27 320.137 3621.56 320.762 Q3623.85 321.364 3626.1 321.364 Q3629.11 321.364 3630.73 320.345 Q3632.35 319.303 3632.35 317.429 Q3632.35 315.692 3631.17 314.766 Q3630.01 313.841 3626.05 312.984 L3624.57 312.637 Q3620.61 311.804 3618.85 310.091 Q3617.09 308.354 3617.09 305.345 Q3617.09 301.688 3619.69 299.697 Q3622.28 297.706 3627.05 297.706 Q3629.41 297.706 3631.49 298.054 Q3633.57 298.401 3635.33 299.095 Z" fill="#000000" fill-rule="evenodd" fill-opacity="1" /></svg>
