<?xml version="1.0" encoding="utf-8"?>
<svg xmlns="http://www.w3.org/2000/svg" xmlns:xlink="http://www.w3.org/1999/xlink" width="1000" height="400" viewBox="0 0 4000 1600">
<defs>
  <clipPath id="clip400">
    <rect x="0" y="0" width="4000" height="1600"/>
  </clipPath>
</defs>
<path clip-path="url(#clip400)" d="
M0 1600 L4000 1600 L4000 0 L0 0  Z
  " fill="#ffffff" fill-rule="evenodd" fill-opacity="1"/>
<defs>
  <clipPath id="clip401">
    <rect x="800" y="0" width="2801" height="1600"/>
  </clipPath>
</defs>
<path clip-path="url(#clip400)" d="
M279.85 1393.02 L3889.76 1393.02 L3889.76 162.272 L279.85 162.272  Z
  " fill="#ffffff" fill-rule="evenodd" fill-opacity="1"/>
<defs>
  <clipPath id="clip402">
    <rect x="279" y="162" width="3611" height="1232"/>
  </clipPath>
</defs>
<polyline clip-path="url(#clip402)" style="stroke:#000000; stroke-linecap:butt; stroke-linejoin:round; stroke-width:2; stroke-opacity:0.1; fill:none" points="
  425.73,1393.02 425.73,162.272 
  "/>
<polyline clip-path="url(#clip402)" style="stroke:#000000; stroke-linecap:butt; stroke-linejoin:round; stroke-width:2; stroke-opacity:0.1; fill:none" points="
  1098.1,1393.02 1098.1,162.272 
  "/>
<polyline clip-path="url(#clip402)" style="stroke:#000000; stroke-linecap:butt; stroke-linejoin:round; stroke-width:2; stroke-opacity:0.1; fill:none" points="
  1770.48,1393.02 1770.48,162.272 
  "/>
<polyline clip-path="url(#clip402)" style="stroke:#000000; stroke-linecap:butt; stroke-linejoin:round; stroke-width:2; stroke-opacity:0.1; fill:none" points="
  2442.85,1393.02 2442.85,162.272 
  "/>
<polyline clip-path="url(#clip402)" style="stroke:#000000; stroke-linecap:butt; stroke-linejoin:round; stroke-width:2; stroke-opacity:0.1; fill:none" points="
  3115.22,1393.02 3115.22,162.272 
  "/>
<polyline clip-path="url(#clip402)" style="stroke:#000000; stroke-linecap:butt; stroke-linejoin:round; stroke-width:2; stroke-opacity:0.1; fill:none" points="
  3787.6,1393.02 3787.6,162.272 
  "/>
<polyline clip-path="url(#clip400)" style="stroke:#000000; stroke-linecap:butt; stroke-linejoin:round; stroke-width:4; stroke-opacity:1; fill:none" points="
  279.85,1393.02 3889.76,1393.02 
  "/>
<polyline clip-path="url(#clip400)" style="stroke:#000000; stroke-linecap:butt; stroke-linejoin:round; stroke-width:4; stroke-opacity:1; fill:none" points="
  425.73,1393.02 425.73,1374.12 
  "/>
<polyline clip-path="url(#clip400)" style="stroke:#000000; stroke-linecap:butt; stroke-linejoin:round; stroke-width:4; stroke-opacity:1; fill:none" points="
  1098.1,1393.02 1098.1,1374.12 
  "/>
<polyline clip-path="url(#clip400)" style="stroke:#000000; stroke-linecap:butt; stroke-linejoin:round; stroke-width:4; stroke-opacity:1; fill:none" points="
  1770.48,1393.02 1770.48,1374.12 
  "/>
<polyline clip-path="url(#clip400)" style="stroke:#000000; stroke-linecap:butt; stroke-linejoin:round; stroke-width:4; stroke-opacity:1; fill:none" points="
  2442.85,1393.02 2442.85,1374.12 
  "/>
<polyline clip-path="url(#clip400)" style="stroke:#000000; stroke-linecap:butt; stroke-linejoin:round; stroke-width:4; stroke-opacity:1; fill:none" points="
  3115.22,1393.02 3115.22,1374.12 
  "/>
<polyline clip-path="url(#clip400)" style="stroke:#000000; stroke-linecap:butt; stroke-linejoin:round; stroke-width:4; stroke-opacity:1; fill:none" points="
  3787.6,1393.02 3787.6,1374.12 
  "/>
<path clip-path="url(#clip400)" d="M401.355 1467.5 L401.355 1463.24 Q403.114 1464.08 404.92 1464.52 Q406.725 1464.96 408.461 1464.96 Q413.091 1464.96 415.522 1461.85 Q417.975 1458.73 418.322 1452.39 Q416.98 1454.38 414.92 1455.44 Q412.86 1456.51 410.36 1456.51 Q405.174 1456.51 402.142 1453.38 Q399.133 1450.23 399.133 1444.79 Q399.133 1439.47 402.281 1436.25 Q405.429 1433.03 410.66 1433.03 Q416.656 1433.03 419.804 1437.64 Q422.975 1442.22 422.975 1450.97 Q422.975 1459.15 419.086 1464.03 Q415.221 1468.89 408.67 1468.89 Q406.91 1468.89 405.105 1468.54 Q403.299 1468.2 401.355 1467.5 M410.66 1452.85 Q413.809 1452.85 415.637 1450.7 Q417.489 1448.54 417.489 1444.79 Q417.489 1441.07 415.637 1438.91 Q413.809 1436.74 410.66 1436.74 Q407.512 1436.74 405.66 1438.91 Q403.832 1441.07 403.832 1444.79 Q403.832 1448.54 405.66 1450.7 Q407.512 1452.85 410.66 1452.85 Z" fill="#000000" fill-rule="evenodd" fill-opacity="1" /><path clip-path="url(#clip400)" d="M431.424 1433.66 L449.781 1433.66 L449.781 1437.59 L435.707 1437.59 L435.707 1446.07 Q436.725 1445.72 437.744 1445.56 Q438.762 1445.37 439.781 1445.37 Q445.568 1445.37 448.947 1448.54 Q452.327 1451.72 452.327 1457.13 Q452.327 1462.71 448.855 1465.81 Q445.382 1468.89 439.063 1468.89 Q436.887 1468.89 434.619 1468.52 Q432.373 1468.15 429.966 1467.41 L429.966 1462.71 Q432.049 1463.84 434.271 1464.4 Q436.494 1464.96 438.97 1464.96 Q442.975 1464.96 445.313 1462.85 Q447.651 1460.74 447.651 1457.13 Q447.651 1453.52 445.313 1451.41 Q442.975 1449.31 438.97 1449.31 Q437.095 1449.31 435.221 1449.72 Q433.369 1450.14 431.424 1451.02 L431.424 1433.66 Z" fill="#000000" fill-rule="evenodd" fill-opacity="1" /><path clip-path="url(#clip400)" d="M1073.15 1467.5 L1073.15 1463.24 Q1074.91 1464.08 1076.71 1464.52 Q1078.52 1464.96 1080.26 1464.96 Q1084.89 1464.96 1087.32 1461.85 Q1089.77 1458.73 1090.12 1452.39 Q1088.77 1454.38 1086.71 1455.44 Q1084.65 1456.51 1082.15 1456.51 Q1076.97 1456.51 1073.94 1453.38 Q1070.93 1450.23 1070.93 1444.79 Q1070.93 1439.47 1074.08 1436.25 Q1077.22 1433.03 1082.46 1433.03 Q1088.45 1433.03 1091.6 1437.64 Q1094.77 1442.22 1094.77 1450.97 Q1094.77 1459.15 1090.88 1464.03 Q1087.02 1468.89 1080.46 1468.89 Q1078.71 1468.89 1076.9 1468.54 Q1075.09 1468.2 1073.15 1467.5 M1082.46 1452.85 Q1085.6 1452.85 1087.43 1450.7 Q1089.28 1448.54 1089.28 1444.79 Q1089.28 1441.07 1087.43 1438.91 Q1085.6 1436.74 1082.46 1436.74 Q1079.31 1436.74 1077.46 1438.91 Q1075.63 1441.07 1075.63 1444.79 Q1075.63 1448.54 1077.46 1450.7 Q1079.31 1452.85 1082.46 1452.85 Z" fill="#000000" fill-rule="evenodd" fill-opacity="1" /><path clip-path="url(#clip400)" d="M1113.75 1449.08 Q1110.6 1449.08 1108.75 1451.23 Q1106.92 1453.38 1106.92 1457.13 Q1106.92 1460.86 1108.75 1463.03 Q1110.6 1465.19 1113.75 1465.19 Q1116.9 1465.19 1118.73 1463.03 Q1120.58 1460.86 1120.58 1457.13 Q1120.58 1453.38 1118.73 1451.23 Q1116.9 1449.08 1113.75 1449.08 M1123.03 1434.42 L1123.03 1438.68 Q1121.27 1437.85 1119.47 1437.41 Q1117.69 1436.97 1115.93 1436.97 Q1111.3 1436.97 1108.84 1440.09 Q1106.41 1443.22 1106.07 1449.54 Q1107.43 1447.53 1109.49 1446.46 Q1111.55 1445.37 1114.03 1445.37 Q1119.24 1445.37 1122.25 1448.54 Q1125.28 1451.69 1125.28 1457.13 Q1125.28 1462.46 1122.13 1465.67 Q1118.98 1468.89 1113.75 1468.89 Q1107.76 1468.89 1104.58 1464.31 Q1101.41 1459.7 1101.41 1450.97 Q1101.41 1442.78 1105.3 1437.92 Q1109.19 1433.03 1115.74 1433.03 Q1117.5 1433.03 1119.28 1433.38 Q1121.09 1433.73 1123.03 1434.42 Z" fill="#000000" fill-rule="evenodd" fill-opacity="1" /><path clip-path="url(#clip400)" d="M1746.06 1467.5 L1746.06 1463.24 Q1747.81 1464.08 1749.62 1464.52 Q1751.43 1464.96 1753.16 1464.96 Q1757.79 1464.96 1760.22 1461.85 Q1762.68 1458.73 1763.02 1452.39 Q1761.68 1454.38 1759.62 1455.44 Q1757.56 1456.51 1755.06 1456.51 Q1749.87 1456.51 1746.84 1453.38 Q1743.83 1450.23 1743.83 1444.79 Q1743.83 1439.47 1746.98 1436.25 Q1750.13 1433.03 1755.36 1433.03 Q1761.36 1433.03 1764.5 1437.64 Q1767.68 1442.22 1767.68 1450.97 Q1767.68 1459.15 1763.79 1464.03 Q1759.92 1468.89 1753.37 1468.89 Q1751.61 1468.89 1749.81 1468.54 Q1748 1468.2 1746.06 1467.5 M1755.36 1452.85 Q1758.51 1452.85 1760.34 1450.7 Q1762.19 1448.54 1762.19 1444.79 Q1762.19 1441.07 1760.34 1438.91 Q1758.51 1436.74 1755.36 1436.74 Q1752.21 1436.74 1750.36 1438.91 Q1748.53 1441.07 1748.53 1444.79 Q1748.53 1448.54 1750.36 1450.7 Q1752.21 1452.85 1755.36 1452.85 Z" fill="#000000" fill-rule="evenodd" fill-opacity="1" /><path clip-path="url(#clip400)" d="M1774.9 1433.66 L1797.12 1433.66 L1797.12 1435.65 L1784.57 1468.22 L1779.69 1468.22 L1791.49 1437.59 L1774.9 1437.59 L1774.9 1433.66 Z" fill="#000000" fill-rule="evenodd" fill-opacity="1" /><path clip-path="url(#clip400)" d="M2418.02 1467.5 L2418.02 1463.24 Q2419.78 1464.08 2421.59 1464.52 Q2423.39 1464.96 2425.13 1464.96 Q2429.76 1464.96 2432.19 1461.85 Q2434.64 1458.73 2434.99 1452.39 Q2433.65 1454.38 2431.59 1455.44 Q2429.53 1456.51 2427.03 1456.51 Q2421.84 1456.51 2418.81 1453.38 Q2415.8 1450.23 2415.8 1444.79 Q2415.8 1439.47 2418.95 1436.25 Q2422.1 1433.03 2427.33 1433.03 Q2433.32 1433.03 2436.47 1437.64 Q2439.64 1442.22 2439.64 1450.97 Q2439.64 1459.15 2435.75 1464.03 Q2431.89 1468.89 2425.34 1468.89 Q2423.58 1468.89 2421.77 1468.54 Q2419.97 1468.2 2418.02 1467.5 M2427.33 1452.85 Q2430.48 1452.85 2432.31 1450.7 Q2434.16 1448.54 2434.16 1444.79 Q2434.16 1441.07 2432.31 1438.91 Q2430.48 1436.74 2427.33 1436.74 Q2424.18 1436.74 2422.33 1438.91 Q2420.5 1441.07 2420.5 1444.79 Q2420.5 1448.54 2422.33 1450.7 Q2424.18 1452.85 2427.33 1452.85 Z" fill="#000000" fill-rule="evenodd" fill-opacity="1" /><path clip-path="url(#clip400)" d="M2458.05 1451.81 Q2454.71 1451.81 2452.79 1453.59 Q2450.89 1455.37 2450.89 1458.5 Q2450.89 1461.62 2452.79 1463.4 Q2454.71 1465.19 2458.05 1465.19 Q2461.38 1465.19 2463.3 1463.4 Q2465.22 1461.6 2465.22 1458.5 Q2465.22 1455.37 2463.3 1453.59 Q2461.4 1451.81 2458.05 1451.81 M2453.37 1449.82 Q2450.36 1449.08 2448.67 1447.02 Q2447 1444.96 2447 1441.99 Q2447 1437.85 2449.94 1435.44 Q2452.91 1433.03 2458.05 1433.03 Q2463.21 1433.03 2466.15 1435.44 Q2469.09 1437.85 2469.09 1441.99 Q2469.09 1444.96 2467.4 1447.02 Q2465.73 1449.08 2462.75 1449.82 Q2466.13 1450.6 2468 1452.9 Q2469.9 1455.19 2469.9 1458.5 Q2469.9 1463.52 2466.82 1466.21 Q2463.76 1468.89 2458.05 1468.89 Q2452.33 1468.89 2449.25 1466.21 Q2446.19 1463.52 2446.19 1458.5 Q2446.19 1455.19 2448.09 1452.9 Q2449.99 1450.6 2453.37 1449.82 M2451.66 1442.43 Q2451.66 1445.12 2453.32 1446.62 Q2455.01 1448.13 2458.05 1448.13 Q2461.06 1448.13 2462.75 1446.62 Q2464.46 1445.12 2464.46 1442.43 Q2464.46 1439.75 2462.75 1438.24 Q2461.06 1436.74 2458.05 1436.74 Q2455.01 1436.74 2453.32 1438.24 Q2451.66 1439.75 2451.66 1442.43 Z" fill="#000000" fill-rule="evenodd" fill-opacity="1" /><path clip-path="url(#clip400)" d="M3090.44 1467.5 L3090.44 1463.24 Q3092.2 1464.08 3094.01 1464.52 Q3095.81 1464.96 3097.55 1464.96 Q3102.18 1464.96 3104.61 1461.85 Q3107.06 1458.73 3107.41 1452.39 Q3106.07 1454.38 3104.01 1455.44 Q3101.95 1456.51 3099.45 1456.51 Q3094.26 1456.51 3091.23 1453.38 Q3088.22 1450.23 3088.22 1444.79 Q3088.22 1439.47 3091.37 1436.25 Q3094.52 1433.03 3099.75 1433.03 Q3105.74 1433.03 3108.89 1437.64 Q3112.06 1442.22 3112.06 1450.97 Q3112.06 1459.15 3108.17 1464.03 Q3104.31 1468.89 3097.76 1468.89 Q3096 1468.89 3094.19 1468.54 Q3092.39 1468.2 3090.44 1467.5 M3099.75 1452.85 Q3102.9 1452.85 3104.73 1450.7 Q3106.58 1448.54 3106.58 1444.79 Q3106.58 1441.07 3104.73 1438.91 Q3102.9 1436.74 3099.75 1436.74 Q3096.6 1436.74 3094.75 1438.91 Q3092.92 1441.07 3092.92 1444.79 Q3092.92 1448.54 3094.75 1450.7 Q3096.6 1452.85 3099.75 1452.85 Z" fill="#000000" fill-rule="evenodd" fill-opacity="1" /><path clip-path="url(#clip400)" d="M3120.61 1467.5 L3120.61 1463.24 Q3122.36 1464.08 3124.17 1464.52 Q3125.98 1464.96 3127.71 1464.96 Q3132.34 1464.96 3134.77 1461.85 Q3137.23 1458.73 3137.57 1452.39 Q3136.23 1454.38 3134.17 1455.44 Q3132.11 1456.51 3129.61 1456.51 Q3124.42 1456.51 3121.39 1453.38 Q3118.38 1450.23 3118.38 1444.79 Q3118.38 1439.47 3121.53 1436.25 Q3124.68 1433.03 3129.91 1433.03 Q3135.91 1433.03 3139.05 1437.64 Q3142.23 1442.22 3142.23 1450.97 Q3142.23 1459.15 3138.34 1464.03 Q3134.47 1468.89 3127.92 1468.89 Q3126.16 1468.89 3124.35 1468.54 Q3122.55 1468.2 3120.61 1467.5 M3129.91 1452.85 Q3133.06 1452.85 3134.89 1450.7 Q3136.74 1448.54 3136.74 1444.79 Q3136.74 1441.07 3134.89 1438.91 Q3133.06 1436.74 3129.91 1436.74 Q3126.76 1436.74 3124.91 1438.91 Q3123.08 1441.07 3123.08 1444.79 Q3123.08 1448.54 3124.91 1450.7 Q3126.76 1452.85 3129.91 1452.85 Z" fill="#000000" fill-rule="evenodd" fill-opacity="1" /><path clip-path="url(#clip400)" d="M3747.2 1464.28 L3754.84 1464.28 L3754.84 1437.92 L3746.53 1439.59 L3746.53 1435.33 L3754.8 1433.66 L3759.47 1433.66 L3759.47 1464.28 L3767.11 1464.28 L3767.11 1468.22 L3747.2 1468.22 L3747.2 1464.28 Z" fill="#000000" fill-rule="evenodd" fill-opacity="1" /><path clip-path="url(#clip400)" d="M3786.55 1436.74 Q3782.94 1436.74 3781.11 1440.3 Q3779.31 1443.84 3779.31 1450.97 Q3779.31 1458.08 3781.11 1461.65 Q3782.94 1465.19 3786.55 1465.19 Q3790.19 1465.19 3791.99 1461.65 Q3793.82 1458.08 3793.82 1450.97 Q3793.82 1443.84 3791.99 1440.3 Q3790.19 1436.74 3786.55 1436.74 M3786.55 1433.03 Q3792.36 1433.03 3795.42 1437.64 Q3798.5 1442.22 3798.5 1450.97 Q3798.5 1459.7 3795.42 1464.31 Q3792.36 1468.89 3786.55 1468.89 Q3780.74 1468.89 3777.67 1464.31 Q3774.61 1459.7 3774.61 1450.97 Q3774.61 1442.22 3777.67 1437.64 Q3780.74 1433.03 3786.55 1433.03 Z" fill="#000000" fill-rule="evenodd" fill-opacity="1" /><path clip-path="url(#clip400)" d="M3816.72 1436.74 Q3813.11 1436.74 3811.28 1440.3 Q3809.47 1443.84 3809.47 1450.97 Q3809.47 1458.08 3811.28 1461.65 Q3813.11 1465.19 3816.72 1465.19 Q3820.35 1465.19 3822.16 1461.65 Q3823.99 1458.08 3823.99 1450.97 Q3823.99 1443.84 3822.16 1440.3 Q3820.35 1436.74 3816.72 1436.74 M3816.72 1433.03 Q3822.53 1433.03 3825.58 1437.64 Q3828.66 1442.22 3828.66 1450.97 Q3828.66 1459.7 3825.58 1464.31 Q3822.53 1468.89 3816.72 1468.89 Q3810.91 1468.89 3807.83 1464.31 Q3804.77 1459.7 3804.77 1450.97 Q3804.77 1442.22 3807.83 1437.64 Q3810.91 1433.03 3816.72 1433.03 Z" fill="#000000" fill-rule="evenodd" fill-opacity="1" /><path clip-path="url(#clip400)" d="M1982.94 1556.54 L1982.94 1575.44 L1977.05 1575.44 L1977.05 1526.24 L1982.94 1526.24 L1982.94 1531.65 Q1984.79 1528.46 1987.59 1526.94 Q1990.42 1525.38 1994.33 1525.38 Q2000.83 1525.38 2004.87 1530.53 Q2008.94 1535.69 2008.94 1544.09 Q2008.94 1552.49 2004.87 1557.65 Q2000.83 1562.81 1994.33 1562.81 Q1990.42 1562.81 1987.59 1561.28 Q1984.79 1559.72 1982.94 1556.54 M2002.86 1544.09 Q2002.86 1537.63 2000.19 1533.97 Q1997.55 1530.28 1992.9 1530.28 Q1988.26 1530.28 1985.58 1533.97 Q1982.94 1537.63 1982.94 1544.09 Q1982.94 1550.55 1985.58 1554.24 Q1988.26 1557.91 1992.9 1557.91 Q1997.55 1557.91 2000.19 1554.24 Q2002.86 1550.55 2002.86 1544.09 Z" fill="#000000" fill-rule="evenodd" fill-opacity="1" /><path clip-path="url(#clip400)" d="M2053.44 1512.42 Q2049.18 1519.74 2047.11 1526.9 Q2045.04 1534.07 2045.04 1541.42 Q2045.04 1548.77 2047.11 1556 Q2049.21 1563.19 2053.44 1570.48 L2048.35 1570.48 Q2043.57 1563 2041.19 1555.77 Q2038.83 1548.55 2038.83 1541.42 Q2038.83 1534.32 2041.19 1527.13 Q2043.54 1519.93 2048.35 1512.42 L2053.44 1512.42 Z" fill="#000000" fill-rule="evenodd" fill-opacity="1" /><path clip-path="url(#clip400)" d="M2064.58 1512.36 L2070.47 1512.36 L2070.47 1541.61 L2087.94 1526.24 L2095.42 1526.24 L2076.52 1542.91 L2096.22 1561.88 L2088.58 1561.88 L2070.47 1544.47 L2070.47 1561.88 L2064.58 1561.88 L2064.58 1512.36 Z" fill="#000000" fill-rule="evenodd" fill-opacity="1" /><path clip-path="url(#clip400)" d="M2109.24 1519.65 L2109.24 1537.5 L2117.32 1537.5 Q2121.81 1537.5 2124.26 1535.18 Q2126.71 1532.86 2126.71 1528.56 Q2126.71 1524.29 2124.26 1521.97 Q2121.81 1519.65 2117.32 1519.65 L2109.24 1519.65 M2102.81 1514.36 L2117.32 1514.36 Q2125.31 1514.36 2129.38 1517.99 Q2133.49 1521.59 2133.49 1528.56 Q2133.49 1535.59 2129.38 1539.19 Q2125.31 1542.79 2117.32 1542.79 L2109.24 1542.79 L2109.24 1561.88 L2102.81 1561.88 L2102.81 1514.36 Z" fill="#000000" fill-rule="evenodd" fill-opacity="1" /><path clip-path="url(#clip400)" d="M2155.13 1543.96 Q2148.03 1543.96 2145.3 1545.59 Q2142.56 1547.21 2142.56 1551.13 Q2142.56 1554.24 2144.6 1556.09 Q2146.67 1557.91 2150.2 1557.91 Q2155.07 1557.91 2158 1554.47 Q2160.96 1551 2160.96 1545.27 L2160.96 1543.96 L2155.13 1543.96 M2166.81 1541.55 L2166.81 1561.88 L2160.96 1561.88 L2160.96 1556.47 Q2158.95 1559.72 2155.96 1561.28 Q2152.97 1562.81 2148.64 1562.81 Q2143.16 1562.81 2139.92 1559.75 Q2136.7 1556.66 2136.7 1551.51 Q2136.7 1545.49 2140.71 1542.44 Q2144.76 1539.38 2152.75 1539.38 L2160.96 1539.38 L2160.96 1538.81 Q2160.96 1534.77 2158.28 1532.57 Q2155.64 1530.34 2150.84 1530.34 Q2147.78 1530.34 2144.88 1531.07 Q2141.99 1531.81 2139.31 1533.27 L2139.31 1527.86 Q2142.53 1526.62 2145.55 1526.01 Q2148.58 1525.38 2151.44 1525.38 Q2159.17 1525.38 2162.99 1529.39 Q2166.81 1533.4 2166.81 1541.55 Z" fill="#000000" fill-rule="evenodd" fill-opacity="1" /><path clip-path="url(#clip400)" d="M2177.95 1512.42 L2183.05 1512.42 Q2187.82 1519.93 2190.18 1527.13 Q2192.56 1534.32 2192.56 1541.42 Q2192.56 1548.55 2190.18 1555.77 Q2187.82 1563 2183.05 1570.48 L2177.95 1570.48 Q2182.19 1563.19 2184.26 1556 Q2186.36 1548.77 2186.36 1541.42 Q2186.36 1534.07 2184.26 1526.9 Q2182.19 1519.74 2177.95 1512.42 Z" fill="#000000" fill-rule="evenodd" fill-opacity="1" /><polyline clip-path="url(#clip402)" style="stroke:#000000; stroke-linecap:butt; stroke-linejoin:round; stroke-width:2; stroke-opacity:0.1; fill:none" points="
  279.85,1358.19 3889.76,1358.19 
  "/>
<polyline clip-path="url(#clip402)" style="stroke:#000000; stroke-linecap:butt; stroke-linejoin:round; stroke-width:2; stroke-opacity:0.1; fill:none" points="
  279.85,1067.92 3889.76,1067.92 
  "/>
<polyline clip-path="url(#clip402)" style="stroke:#000000; stroke-linecap:butt; stroke-linejoin:round; stroke-width:2; stroke-opacity:0.1; fill:none" points="
  279.85,777.646 3889.76,777.646 
  "/>
<polyline clip-path="url(#clip402)" style="stroke:#000000; stroke-linecap:butt; stroke-linejoin:round; stroke-width:2; stroke-opacity:0.1; fill:none" points="
  279.85,487.375 3889.76,487.375 
  "/>
<polyline clip-path="url(#clip402)" style="stroke:#000000; stroke-linecap:butt; stroke-linejoin:round; stroke-width:2; stroke-opacity:0.1; fill:none" points="
  279.85,197.105 3889.76,197.105 
  "/>
<polyline clip-path="url(#clip400)" style="stroke:#000000; stroke-linecap:butt; stroke-linejoin:round; stroke-width:4; stroke-opacity:1; fill:none" points="
  279.85,1393.02 279.85,162.272 
  "/>
<polyline clip-path="url(#clip400)" style="stroke:#000000; stroke-linecap:butt; stroke-linejoin:round; stroke-width:4; stroke-opacity:1; fill:none" points="
  279.85,1358.19 298.748,1358.19 
  "/>
<polyline clip-path="url(#clip400)" style="stroke:#000000; stroke-linecap:butt; stroke-linejoin:round; stroke-width:4; stroke-opacity:1; fill:none" points="
  279.85,1067.92 298.748,1067.92 
  "/>
<polyline clip-path="url(#clip400)" style="stroke:#000000; stroke-linecap:butt; stroke-linejoin:round; stroke-width:4; stroke-opacity:1; fill:none" points="
  279.85,777.646 298.748,777.646 
  "/>
<polyline clip-path="url(#clip400)" style="stroke:#000000; stroke-linecap:butt; stroke-linejoin:round; stroke-width:4; stroke-opacity:1; fill:none" points="
  279.85,487.375 298.748,487.375 
  "/>
<polyline clip-path="url(#clip400)" style="stroke:#000000; stroke-linecap:butt; stroke-linejoin:round; stroke-width:4; stroke-opacity:1; fill:none" points="
  279.85,197.105 298.748,197.105 
  "/>
<path clip-path="url(#clip400)" d="M162.675 1343.99 Q159.064 1343.99 157.235 1347.55 Q155.429 1351.09 155.429 1358.22 Q155.429 1365.33 157.235 1368.89 Q159.064 1372.43 162.675 1372.43 Q166.309 1372.43 168.115 1368.89 Q169.943 1365.33 169.943 1358.22 Q169.943 1351.09 168.115 1347.55 Q166.309 1343.99 162.675 1343.99 M162.675 1340.28 Q168.485 1340.28 171.54 1344.89 Q174.619 1349.47 174.619 1358.22 Q174.619 1366.95 171.54 1371.56 Q168.485 1376.14 162.675 1376.14 Q156.865 1376.14 153.786 1371.56 Q150.73 1366.95 150.73 1358.22 Q150.73 1349.47 153.786 1344.89 Q156.865 1340.28 162.675 1340.28 Z" fill="#000000" fill-rule="evenodd" fill-opacity="1" /><path clip-path="url(#clip400)" d="M182.837 1369.59 L187.721 1369.59 L187.721 1375.47 L182.837 1375.47 L182.837 1369.59 Z" fill="#000000" fill-rule="evenodd" fill-opacity="1" /><path clip-path="url(#clip400)" d="M207.906 1343.99 Q204.295 1343.99 202.466 1347.55 Q200.661 1351.09 200.661 1358.22 Q200.661 1365.33 202.466 1368.89 Q204.295 1372.43 207.906 1372.43 Q211.54 1372.43 213.346 1368.89 Q215.174 1365.33 215.174 1358.22 Q215.174 1351.09 213.346 1347.55 Q211.54 1343.99 207.906 1343.99 M207.906 1340.28 Q213.716 1340.28 216.772 1344.89 Q219.85 1349.47 219.85 1358.22 Q219.85 1366.95 216.772 1371.56 Q213.716 1376.14 207.906 1376.14 Q202.096 1376.14 199.017 1371.56 Q195.962 1366.95 195.962 1358.22 Q195.962 1349.47 199.017 1344.89 Q202.096 1340.28 207.906 1340.28 Z" fill="#000000" fill-rule="evenodd" fill-opacity="1" /><path clip-path="url(#clip400)" d="M163.902 1053.72 Q160.291 1053.72 158.462 1057.28 Q156.656 1060.82 156.656 1067.95 Q156.656 1075.06 158.462 1078.62 Q160.291 1082.16 163.902 1082.16 Q167.536 1082.16 169.341 1078.62 Q171.17 1075.06 171.17 1067.95 Q171.17 1060.82 169.341 1057.28 Q167.536 1053.72 163.902 1053.72 M163.902 1050.01 Q169.712 1050.01 172.767 1054.62 Q175.846 1059.2 175.846 1067.95 Q175.846 1076.68 172.767 1081.28 Q169.712 1085.87 163.902 1085.87 Q158.091 1085.87 155.013 1081.28 Q151.957 1076.68 151.957 1067.95 Q151.957 1059.2 155.013 1054.62 Q158.091 1050.01 163.902 1050.01 Z" fill="#000000" fill-rule="evenodd" fill-opacity="1" /><path clip-path="url(#clip400)" d="M184.064 1079.32 L188.948 1079.32 L188.948 1085.2 L184.064 1085.2 L184.064 1079.32 Z" fill="#000000" fill-rule="evenodd" fill-opacity="1" /><path clip-path="url(#clip400)" d="M199.943 1081.26 L207.582 1081.26 L207.582 1054.9 L199.272 1056.56 L199.272 1052.3 L207.536 1050.64 L212.212 1050.64 L212.212 1081.26 L219.85 1081.26 L219.85 1085.2 L199.943 1085.2 L199.943 1081.26 Z" fill="#000000" fill-rule="evenodd" fill-opacity="1" /><path clip-path="url(#clip400)" d="M164.272 763.445 Q160.661 763.445 158.832 767.009 Q157.027 770.551 157.027 777.681 Q157.027 784.787 158.832 788.352 Q160.661 791.894 164.272 791.894 Q167.906 791.894 169.712 788.352 Q171.54 784.787 171.54 777.681 Q171.54 770.551 169.712 767.009 Q167.906 763.445 164.272 763.445 M164.272 759.741 Q170.082 759.741 173.138 764.347 Q176.216 768.931 176.216 777.681 Q176.216 786.408 173.138 791.014 Q170.082 795.597 164.272 795.597 Q158.462 795.597 155.383 791.014 Q152.328 786.408 152.328 777.681 Q152.328 768.931 155.383 764.347 Q158.462 759.741 164.272 759.741 Z" fill="#000000" fill-rule="evenodd" fill-opacity="1" /><path clip-path="url(#clip400)" d="M184.434 789.046 L189.318 789.046 L189.318 794.926 L184.434 794.926 L184.434 789.046 Z" fill="#000000" fill-rule="evenodd" fill-opacity="1" /><path clip-path="url(#clip400)" d="M203.531 790.991 L219.85 790.991 L219.85 794.926 L197.906 794.926 L197.906 790.991 Q200.568 788.236 205.151 783.607 Q209.758 778.954 210.938 777.611 Q213.184 775.088 214.063 773.352 Q214.966 771.593 214.966 769.903 Q214.966 767.148 213.022 765.412 Q211.1 763.676 207.999 763.676 Q205.8 763.676 203.346 764.44 Q200.915 765.204 198.138 766.755 L198.138 762.033 Q200.962 760.898 203.415 760.32 Q205.869 759.741 207.906 759.741 Q213.276 759.741 216.471 762.426 Q219.665 765.111 219.665 769.602 Q219.665 771.732 218.855 773.653 Q218.068 775.551 215.962 778.144 Q215.383 778.815 212.281 782.033 Q209.179 785.227 203.531 790.991 Z" fill="#000000" fill-rule="evenodd" fill-opacity="1" /><path clip-path="url(#clip400)" d="M163.323 473.174 Q159.712 473.174 157.883 476.739 Q156.078 480.28 156.078 487.41 Q156.078 494.517 157.883 498.081 Q159.712 501.623 163.323 501.623 Q166.957 501.623 168.763 498.081 Q170.591 494.517 170.591 487.41 Q170.591 480.28 168.763 476.739 Q166.957 473.174 163.323 473.174 M163.323 469.47 Q169.133 469.47 172.189 474.077 Q175.267 478.66 175.267 487.41 Q175.267 496.137 172.189 500.743 Q169.133 505.327 163.323 505.327 Q157.513 505.327 154.434 500.743 Q151.379 496.137 151.379 487.41 Q151.379 478.66 154.434 474.077 Q157.513 469.47 163.323 469.47 Z" fill="#000000" fill-rule="evenodd" fill-opacity="1" /><path clip-path="url(#clip400)" d="M183.485 498.776 L188.369 498.776 L188.369 504.655 L183.485 504.655 L183.485 498.776 Z" fill="#000000" fill-rule="evenodd" fill-opacity="1" /><path clip-path="url(#clip400)" d="M212.721 486.021 Q216.077 486.739 217.952 489.007 Q219.85 491.276 219.85 494.609 Q219.85 499.725 216.332 502.526 Q212.813 505.327 206.332 505.327 Q204.156 505.327 201.841 504.887 Q199.55 504.47 197.096 503.614 L197.096 499.1 Q199.04 500.234 201.355 500.813 Q203.67 501.391 206.193 501.391 Q210.591 501.391 212.883 499.655 Q215.198 497.919 215.198 494.609 Q215.198 491.554 213.045 489.841 Q210.915 488.105 207.096 488.105 L203.068 488.105 L203.068 484.262 L207.281 484.262 Q210.73 484.262 212.559 482.896 Q214.387 481.507 214.387 478.915 Q214.387 476.253 212.489 474.841 Q210.614 473.406 207.096 473.406 Q205.175 473.406 202.975 473.822 Q200.776 474.239 198.138 475.118 L198.138 470.952 Q200.8 470.211 203.114 469.841 Q205.452 469.47 207.512 469.47 Q212.837 469.47 215.938 471.901 Q219.04 474.308 219.04 478.429 Q219.04 481.299 217.397 483.29 Q215.753 485.257 212.721 486.021 Z" fill="#000000" fill-rule="evenodd" fill-opacity="1" /><path clip-path="url(#clip400)" d="M162.189 182.903 Q158.578 182.903 156.749 186.468 Q154.943 190.01 154.943 197.139 Q154.943 204.246 156.749 207.811 Q158.578 211.352 162.189 211.352 Q165.823 211.352 167.628 207.811 Q169.457 204.246 169.457 197.139 Q169.457 190.01 167.628 186.468 Q165.823 182.903 162.189 182.903 M162.189 179.2 Q167.999 179.2 171.054 183.806 Q174.133 188.389 174.133 197.139 Q174.133 205.866 171.054 210.473 Q167.999 215.056 162.189 215.056 Q156.379 215.056 153.3 210.473 Q150.244 205.866 150.244 197.139 Q150.244 188.389 153.3 183.806 Q156.379 179.2 162.189 179.2 Z" fill="#000000" fill-rule="evenodd" fill-opacity="1" /><path clip-path="url(#clip400)" d="M182.351 208.505 L187.235 208.505 L187.235 214.385 L182.351 214.385 L182.351 208.505 Z" fill="#000000" fill-rule="evenodd" fill-opacity="1" /><path clip-path="url(#clip400)" d="M210.267 183.899 L198.462 202.348 L210.267 202.348 L210.267 183.899 M209.04 179.825 L214.92 179.825 L214.92 202.348 L219.85 202.348 L219.85 206.237 L214.92 206.237 L214.92 214.385 L210.267 214.385 L210.267 206.237 L194.665 206.237 L194.665 201.723 L209.04 179.825 Z" fill="#000000" fill-rule="evenodd" fill-opacity="1" /><path clip-path="url(#clip400)" d="M40.3403 876.171 L40.3403 848.353 L45.6875 848.353 L71.3095 870.378 L71.3095 848.353 L75.9883 848.353 L75.9883 876.967 L70.6411 876.967 L45.0191 854.942 L45.0191 876.171 L40.3403 876.171 Z" fill="#000000" fill-rule="evenodd" fill-opacity="1" /><path clip-path="url(#clip400)" d="M26.5267 804.621 Q33.8473 808.886 41.0087 810.955 Q48.1701 813.023 55.5225 813.023 Q62.8749 813.023 70.1 810.955 Q77.2933 808.854 84.582 804.621 L84.582 809.713 Q77.1023 814.488 69.8772 816.875 Q62.6521 819.23 55.5225 819.23 Q48.4248 819.23 41.2315 816.875 Q34.0383 814.519 26.5267 809.713 L26.5267 804.621 Z" fill="#000000" fill-rule="evenodd" fill-opacity="1" /><path clip-path="url(#clip400)" d="M26.4631 793.481 L26.4631 787.592 L55.7135 787.592 L40.3403 770.119 L40.3403 762.639 L57.0185 781.545 L75.9883 761.843 L75.9883 769.482 L58.5781 787.592 L75.9883 787.592 L75.9883 793.481 L26.4631 793.481 Z" fill="#000000" fill-rule="evenodd" fill-opacity="1" /><path clip-path="url(#clip400)" d="M47.1835 727.755 Q43.2367 725.559 41.3588 722.503 Q39.481 719.448 39.481 715.31 Q39.481 709.74 43.3959 706.716 Q47.2789 703.692 54.4722 703.692 L75.9883 703.692 L75.9883 709.581 L54.6632 709.581 Q49.5388 709.581 47.0561 711.395 Q44.5735 713.209 44.5735 716.933 Q44.5735 721.485 47.5972 724.126 Q50.6209 726.768 55.8408 726.768 L75.9883 726.768 L75.9883 732.656 L54.6632 732.656 Q49.5069 732.656 47.0561 734.471 Q44.5735 736.285 44.5735 740.072 Q44.5735 744.56 47.6291 747.202 Q50.6528 749.844 55.8408 749.844 L75.9883 749.844 L75.9883 755.732 L40.3403 755.732 L40.3403 749.844 L45.8785 749.844 Q42.6002 747.839 41.0406 745.038 Q39.481 742.237 39.481 738.385 Q39.481 734.502 41.4543 731.797 Q43.4277 729.06 47.1835 727.755 Z" fill="#000000" fill-rule="evenodd" fill-opacity="1" /><path clip-path="url(#clip400)" d="M26.5267 692.934 L26.5267 687.842 Q34.0383 683.067 41.2315 680.712 Q48.4248 678.325 55.5225 678.325 Q62.6521 678.325 69.8772 680.712 Q77.1023 683.067 84.582 687.842 L84.582 692.934 Q77.2933 688.701 70.1 686.632 Q62.8749 684.532 55.5225 684.532 Q48.1701 684.532 41.0087 686.632 Q33.8473 688.701 26.5267 692.934 Z" fill="#000000" fill-rule="evenodd" fill-opacity="1" /><path clip-path="url(#clip400)" d="M1955.16 65.7705 L1955.16 89.8329 L1947.66 89.8329 L1947.66 27.2059 L1955.16 27.2059 L1955.16 34.0924 Q1957.51 30.0415 1961.07 28.0971 Q1964.68 26.1121 1969.66 26.1121 Q1977.92 26.1121 1983.07 32.6746 Q1988.25 39.2371 1988.25 49.9314 Q1988.25 60.6258 1983.07 67.1883 Q1977.92 73.7508 1969.66 73.7508 Q1964.68 73.7508 1961.07 71.8063 Q1957.51 69.8214 1955.16 65.7705 M1980.52 49.9314 Q1980.52 41.7081 1977.11 37.0496 Q1973.75 32.3505 1967.84 32.3505 Q1961.92 32.3505 1958.52 37.0496 Q1955.16 41.7081 1955.16 49.9314 Q1955.16 58.1548 1958.52 62.8538 Q1961.92 67.5124 1967.84 67.5124 Q1973.75 67.5124 1977.11 62.8538 Q1980.52 58.1548 1980.52 49.9314 Z" fill="#000000" fill-rule="evenodd" fill-opacity="1" /><path clip-path="url(#clip400)" d="M2044.89 9.62495 Q2039.46 18.942 2036.82 28.0566 Q2034.19 37.1711 2034.19 46.5287 Q2034.19 55.8863 2036.82 65.0818 Q2039.5 74.2369 2044.89 83.5134 L2038.4 83.5134 Q2032.33 73.9938 2029.29 64.7983 Q2026.29 55.6027 2026.29 46.5287 Q2026.29 37.4952 2029.29 28.3401 Q2032.29 19.1851 2038.4 9.62495 L2044.89 9.62495 Z" fill="#000000" fill-rule="evenodd" fill-opacity="1" /><path clip-path="url(#clip400)" d="M2059.06 9.54393 L2066.56 9.54393 L2066.56 46.7717 L2088.8 27.2059 L2098.32 27.2059 L2074.25 48.4326 L2099.33 72.576 L2089.61 72.576 L2066.56 50.4176 L2066.56 72.576 L2059.06 72.576 L2059.06 9.54393 Z" fill="#000000" fill-rule="evenodd" fill-opacity="1" /><path clip-path="url(#clip400)" d="M2115.9 18.8205 L2115.9 41.5461 L2126.19 41.5461 Q2131.9 41.5461 2135.02 38.5889 Q2138.14 35.6318 2138.14 30.163 Q2138.14 24.7348 2135.02 21.7777 Q2131.9 18.8205 2126.19 18.8205 L2115.9 18.8205 M2107.71 12.096 L2126.19 12.096 Q2136.35 12.096 2141.54 16.714 Q2146.77 21.2916 2146.77 30.163 Q2146.77 39.1155 2141.54 43.6931 Q2136.35 48.2706 2126.19 48.2706 L2115.9 48.2706 L2115.9 72.576 L2107.71 72.576 L2107.71 12.096 Z" fill="#000000" fill-rule="evenodd" fill-opacity="1" /><path clip-path="url(#clip400)" d="M2174.31 49.7694 Q2165.28 49.7694 2161.79 51.8354 Q2158.31 53.9013 2158.31 58.8839 Q2158.31 62.8538 2160.9 65.2034 Q2163.54 67.5124 2168.03 67.5124 Q2174.23 67.5124 2177.96 63.1374 Q2181.72 58.7219 2181.72 51.4303 L2181.72 49.7694 L2174.31 49.7694 M2189.18 46.6907 L2189.18 72.576 L2181.72 72.576 L2181.72 65.6895 Q2179.17 69.8214 2175.37 71.8063 Q2171.56 73.7508 2166.05 73.7508 Q2159.08 73.7508 2154.95 69.8619 Q2150.86 65.9325 2150.86 59.3701 Q2150.86 51.7138 2155.96 47.825 Q2161.11 43.9361 2171.27 43.9361 L2181.72 43.9361 L2181.72 43.2069 Q2181.72 38.0623 2178.32 35.2672 Q2174.96 32.4315 2168.84 32.4315 Q2164.95 32.4315 2161.27 33.3632 Q2157.58 34.295 2154.18 36.1584 L2154.18 29.2718 Q2158.27 27.692 2162.12 26.9223 Q2165.97 26.1121 2169.61 26.1121 Q2179.46 26.1121 2184.32 31.2163 Q2189.18 36.3204 2189.18 46.6907 Z" fill="#000000" fill-rule="evenodd" fill-opacity="1" /><path clip-path="url(#clip400)" d="M2203.36 9.62495 L2209.84 9.62495 Q2215.91 19.1851 2218.91 28.3401 Q2221.95 37.4952 2221.95 46.5287 Q2221.95 55.6027 2218.91 64.7983 Q2215.91 73.9938 2209.84 83.5134 L2203.36 83.5134 Q2208.74 74.2369 2211.38 65.0818 Q2214.05 55.8863 2214.05 46.5287 Q2214.05 37.1711 2211.38 28.0566 Q2208.74 18.942 2203.36 9.62495 Z" fill="#000000" fill-rule="evenodd" fill-opacity="1" /><polyline clip-path="url(#clip402)" style="stroke:#009af9; stroke-linecap:butt; stroke-linejoin:round; stroke-width:4; stroke-opacity:1; fill:none" points="
  3571.03,1285.62 3139.4,1140.48 2709.75,995.349 2282.09,850.214 1856.41,705.078 1432.7,559.943 1010.96,414.808 591.174,269.672 
  "/>
<polyline clip-path="url(#clip402)" style="stroke:#e26f46; stroke-linecap:butt; stroke-linejoin:round; stroke-width:4; stroke-opacity:1; fill:none" points="
  3787.6,1358.19 3354.97,1213.05 2924.33,1067.92 2495.67,922.781 2069,777.646 1644.31,632.511 1221.58,487.375 800.82,342.24 382.018,197.105 
  "/>
<path clip-path="url(#clip400)" d="
M3196.04 358.817 L3769.43 358.817 L3769.43 203.297 L3196.04 203.297  Z
  " fill="#ffffff" fill-rule="evenodd" fill-opacity="1"/>
<polyline clip-path="url(#clip400)" style="stroke:#000000; stroke-linecap:butt; stroke-linejoin:round; stroke-width:4; stroke-opacity:1; fill:none" points="
  3196.04,358.817 3769.43,358.817 3769.43,203.297 3196.04,203.297 3196.04,358.817 
  "/>
<polyline clip-path="url(#clip400)" style="stroke:#009af9; stroke-linecap:butt; stroke-linejoin:round; stroke-width:4; stroke-opacity:1; fill:none" points="
  3236.15,255.137 3476.81,255.137 
  "/>
<path clip-path="url(#clip400)" d="M3537.43 247.487 L3537.43 251.468 Q3535.63 250.473 3533.8 249.987 Q3531.99 249.477 3530.14 249.477 Q3526 249.477 3523.7 252.116 Q3521.41 254.732 3521.41 259.477 Q3521.41 264.223 3523.7 266.862 Q3526 269.477 3530.14 269.477 Q3531.99 269.477 3533.8 268.991 Q3535.63 268.482 3537.43 267.487 L3537.43 271.422 Q3535.65 272.255 3533.73 272.672 Q3531.83 273.088 3529.68 273.088 Q3523.82 273.088 3520.37 269.408 Q3516.92 265.727 3516.92 259.477 Q3516.92 253.135 3520.39 249.501 Q3523.89 245.866 3529.95 245.866 Q3531.92 245.866 3533.8 246.283 Q3535.67 246.677 3537.43 247.487 Z" fill="#000000" fill-rule="evenodd" fill-opacity="1" /><path clip-path="url(#clip400)" d="M3567.01 258.389 L3567.01 260.473 L3547.43 260.473 Q3547.71 264.871 3550.07 267.186 Q3552.45 269.477 3556.69 269.477 Q3559.14 269.477 3561.44 268.876 Q3563.75 268.274 3566.02 267.07 L3566.02 271.098 Q3563.73 272.07 3561.32 272.579 Q3558.91 273.088 3556.44 273.088 Q3550.23 273.088 3546.6 269.477 Q3542.99 265.866 3542.99 259.709 Q3542.99 253.343 3546.41 249.616 Q3549.86 245.866 3555.7 245.866 Q3560.93 245.866 3563.96 249.246 Q3567.01 252.602 3567.01 258.389 M3562.76 257.139 Q3562.71 253.644 3560.79 251.561 Q3558.89 249.477 3555.74 249.477 Q3552.18 249.477 3550.02 251.491 Q3547.89 253.505 3547.57 257.163 L3562.76 257.139 Z" fill="#000000" fill-rule="evenodd" fill-opacity="1" /><path clip-path="url(#clip400)" d="M3595.56 256.769 L3595.56 272.417 L3591.3 272.417 L3591.3 256.908 Q3591.3 253.227 3589.86 251.399 Q3588.43 249.57 3585.56 249.57 Q3582.11 249.57 3580.12 251.769 Q3578.13 253.968 3578.13 257.764 L3578.13 272.417 L3573.84 272.417 L3573.84 246.491 L3578.13 246.491 L3578.13 250.519 Q3579.65 248.181 3581.71 247.024 Q3583.8 245.866 3586.51 245.866 Q3590.97 245.866 3593.26 248.644 Q3595.56 251.399 3595.56 256.769 Z" fill="#000000" fill-rule="evenodd" fill-opacity="1" /><path clip-path="url(#clip400)" d="M3608.26 239.13 L3608.26 246.491 L3617.04 246.491 L3617.04 249.802 L3608.26 249.802 L3608.26 263.876 Q3608.26 267.047 3609.12 267.95 Q3610 268.852 3612.66 268.852 L3617.04 268.852 L3617.04 272.417 L3612.66 272.417 Q3607.73 272.417 3605.86 270.588 Q3603.98 268.737 3603.98 263.876 L3603.98 249.802 L3600.86 249.802 L3600.86 246.491 L3603.98 246.491 L3603.98 239.13 L3608.26 239.13 Z" fill="#000000" fill-rule="evenodd" fill-opacity="1" /><path clip-path="url(#clip400)" d="M3644.82 258.389 L3644.82 260.473 L3625.23 260.473 Q3625.51 264.871 3627.87 267.186 Q3630.26 269.477 3634.49 269.477 Q3636.94 269.477 3639.24 268.876 Q3641.55 268.274 3643.82 267.07 L3643.82 271.098 Q3641.53 272.07 3639.12 272.579 Q3636.71 273.088 3634.24 273.088 Q3628.03 273.088 3624.4 269.477 Q3620.79 265.866 3620.79 259.709 Q3620.79 253.343 3624.21 249.616 Q3627.66 245.866 3633.5 245.866 Q3638.73 245.866 3641.76 249.246 Q3644.82 252.602 3644.82 258.389 M3640.56 257.139 Q3640.51 253.644 3638.59 251.561 Q3636.69 249.477 3633.54 249.477 Q3629.98 249.477 3627.82 251.491 Q3625.69 253.505 3625.37 257.163 L3640.56 257.139 Z" fill="#000000" fill-rule="evenodd" fill-opacity="1" /><path clip-path="url(#clip400)" d="M3666.83 250.473 Q3666.11 250.056 3665.25 249.871 Q3664.42 249.663 3663.4 249.663 Q3659.79 249.663 3657.85 252.024 Q3655.93 254.362 3655.93 258.76 L3655.93 272.417 L3651.64 272.417 L3651.64 246.491 L3655.93 246.491 L3655.93 250.519 Q3657.27 248.158 3659.42 247.024 Q3661.57 245.866 3664.65 245.866 Q3665.09 245.866 3665.63 245.936 Q3666.16 245.982 3666.81 246.098 L3666.83 250.473 Z" fill="#000000" fill-rule="evenodd" fill-opacity="1" /><path clip-path="url(#clip400)" d="M3687.82 247.255 L3687.82 251.283 Q3686.02 250.357 3684.07 249.894 Q3682.13 249.431 3680.05 249.431 Q3676.88 249.431 3675.28 250.403 Q3673.7 251.376 3673.7 253.32 Q3673.7 254.802 3674.84 255.658 Q3675.97 256.491 3679.4 257.255 L3680.86 257.579 Q3685.39 258.552 3687.29 260.334 Q3689.21 262.093 3689.21 265.264 Q3689.21 268.876 3686.34 270.982 Q3683.5 273.088 3678.5 273.088 Q3676.41 273.088 3674.14 272.672 Q3671.9 272.278 3669.4 271.468 L3669.4 267.07 Q3671.76 268.297 3674.05 268.922 Q3676.34 269.524 3678.59 269.524 Q3681.6 269.524 3683.22 268.505 Q3684.84 267.463 3684.84 265.589 Q3684.84 263.852 3683.66 262.926 Q3682.5 262.001 3678.54 261.144 L3677.06 260.797 Q3673.1 259.964 3671.34 258.251 Q3669.58 256.514 3669.58 253.505 Q3669.58 249.848 3672.18 247.857 Q3674.77 245.866 3679.54 245.866 Q3681.9 245.866 3683.98 246.214 Q3686.06 246.561 3687.82 247.255 Z" fill="#000000" fill-rule="evenodd" fill-opacity="1" /><polyline clip-path="url(#clip400)" style="stroke:#e26f46; stroke-linecap:butt; stroke-linejoin:round; stroke-width:4; stroke-opacity:1; fill:none" points="
  3236.15,306.977 3476.81,306.977 
  "/>
<path clip-path="url(#clip400)" d="M3533.43 288.239 L3533.43 291.78 L3529.35 291.78 Q3527.06 291.78 3526.16 292.706 Q3525.28 293.632 3525.28 296.04 L3525.28 298.331 L3532.29 298.331 L3532.29 301.642 L3525.28 301.642 L3525.28 324.257 L3521 324.257 L3521 301.642 L3516.92 301.642 L3516.92 298.331 L3521 298.331 L3521 296.526 Q3521 292.197 3523.01 290.23 Q3525.02 288.239 3529.4 288.239 L3533.43 288.239 Z" fill="#000000" fill-rule="evenodd" fill-opacity="1" /><path clip-path="url(#clip400)" d="M3548.77 311.225 Q3543.61 311.225 3541.62 312.405 Q3539.63 313.586 3539.63 316.433 Q3539.63 318.702 3541.11 320.044 Q3542.62 321.364 3545.19 321.364 Q3548.73 321.364 3550.86 318.864 Q3553.01 316.341 3553.01 312.174 L3553.01 311.225 L3548.77 311.225 M3557.27 309.466 L3557.27 324.257 L3553.01 324.257 L3553.01 320.322 Q3551.55 322.683 3549.38 323.817 Q3547.2 324.928 3544.05 324.928 Q3540.07 324.928 3537.71 322.706 Q3535.37 320.461 3535.37 316.711 Q3535.37 312.336 3538.29 310.114 Q3541.23 307.892 3547.04 307.892 L3553.01 307.892 L3553.01 307.475 Q3553.01 304.535 3551.07 302.938 Q3549.14 301.317 3545.65 301.317 Q3543.43 301.317 3541.32 301.85 Q3539.21 302.382 3537.27 303.447 L3537.27 299.512 Q3539.61 298.609 3541.81 298.169 Q3544.01 297.706 3546.09 297.706 Q3551.71 297.706 3554.49 300.623 Q3557.27 303.54 3557.27 309.466 Z" fill="#000000" fill-rule="evenodd" fill-opacity="1" /><path clip-path="url(#clip400)" d="M3584.7 299.327 L3584.7 303.308 Q3582.89 302.313 3581.07 301.827 Q3579.26 301.317 3577.41 301.317 Q3573.26 301.317 3570.97 303.956 Q3568.68 306.572 3568.68 311.317 Q3568.68 316.063 3570.97 318.702 Q3573.26 321.317 3577.41 321.317 Q3579.26 321.317 3581.07 320.831 Q3582.89 320.322 3584.7 319.327 L3584.7 323.262 Q3582.92 324.095 3581 324.512 Q3579.1 324.928 3576.95 324.928 Q3571.09 324.928 3567.64 321.248 Q3564.19 317.567 3564.19 311.317 Q3564.19 304.975 3567.66 301.341 Q3571.16 297.706 3577.22 297.706 Q3579.19 297.706 3581.07 298.123 Q3582.94 298.517 3584.7 299.327 Z" fill="#000000" fill-rule="evenodd" fill-opacity="1" /><path clip-path="url(#clip400)" d="M3614.28 310.229 L3614.28 312.313 L3594.7 312.313 Q3594.98 316.711 3597.34 319.026 Q3599.72 321.317 3603.96 321.317 Q3606.41 321.317 3608.7 320.716 Q3611.02 320.114 3613.29 318.91 L3613.29 322.938 Q3611 323.91 3608.59 324.419 Q3606.18 324.928 3603.7 324.928 Q3597.5 324.928 3593.87 321.317 Q3590.26 317.706 3590.26 311.549 Q3590.26 305.183 3593.68 301.456 Q3597.13 297.706 3602.96 297.706 Q3608.19 297.706 3611.23 301.086 Q3614.28 304.442 3614.28 310.229 M3610.02 308.979 Q3609.98 305.484 3608.06 303.401 Q3606.16 301.317 3603.01 301.317 Q3599.44 301.317 3597.29 303.331 Q3595.16 305.345 3594.84 309.003 L3610.02 308.979 Z" fill="#000000" fill-rule="evenodd" fill-opacity="1" /><path clip-path="url(#clip400)" d="M3637.8 299.095 L3637.8 303.123 Q3636 302.197 3634.05 301.734 Q3632.11 301.271 3630.02 301.271 Q3626.85 301.271 3625.26 302.243 Q3623.68 303.216 3623.68 305.16 Q3623.68 306.642 3624.82 307.498 Q3625.95 308.331 3629.38 309.095 L3630.83 309.419 Q3635.37 310.392 3637.27 312.174 Q3639.19 313.933 3639.19 317.104 Q3639.19 320.716 3636.32 322.822 Q3633.47 324.928 3628.47 324.928 Q3626.39 324.928 3624.12 324.512 Q3621.88 324.118 3619.38 323.308 L3619.38 318.91 Q3621.74 320.137 3624.03 320.762 Q3626.32 321.364 3628.57 321.364 Q3631.57 321.364 3633.19 320.345 Q3634.82 319.303 3634.82 317.429 Q3634.82 315.692 3633.63 314.766 Q3632.48 313.841 3628.52 312.984 L3627.04 312.637 Q3623.08 311.804 3621.32 310.091 Q3619.56 308.354 3619.56 305.345 Q3619.56 301.688 3622.15 299.697 Q3624.75 297.706 3629.51 297.706 Q3631.88 297.706 3633.96 298.054 Q3636.04 298.401 3637.8 299.095 Z" fill="#000000" fill-rule="evenodd" fill-opacity="1" /></svg>
