<?xml version="1.0" encoding="utf-8"?>
<svg xmlns="http://www.w3.org/2000/svg" xmlns:xlink="http://www.w3.org/1999/xlink" width="1000" height="400" viewBox="0 0 4000 1600">
<defs>
  <clipPath id="clip980">
    <rect x="0" y="0" width="4000" height="1600"/>
  </clipPath>
</defs>
<path clip-path="url(#clip980)" d="
M0 1600 L4000 1600 L4000 0 L0 0  Z
  " fill="#ffffff" fill-rule="evenodd" fill-opacity="1"/>
<defs>
  <clipPath id="clip981">
    <rect x="800" y="0" width="2801" height="1600"/>
  </clipPath>
</defs>
<path clip-path="url(#clip980)" d="
M262.212 1393.02 L1223.1 1393.02 L1223.1 162.272 L262.212 162.272  Z
  " fill="#ffffff" fill-rule="evenodd" fill-opacity="1"/>
<defs>
  <clipPath id="clip982">
    <rect x="262" y="162" width="962" height="1232"/>
  </clipPath>
</defs>
<polyline clip-path="url(#clip982)" style="stroke:#000000; stroke-linecap:butt; stroke-linejoin:round; stroke-width:2; stroke-opacity:0.1; fill:none" points="
  296.527,1393.02 296.527,162.272 
  "/>
<polyline clip-path="url(#clip982)" style="stroke:#000000; stroke-linecap:butt; stroke-linejoin:round; stroke-width:2; stroke-opacity:0.1; fill:none" points="
  485.755,1393.02 485.755,162.272 
  "/>
<polyline clip-path="url(#clip982)" style="stroke:#000000; stroke-linecap:butt; stroke-linejoin:round; stroke-width:2; stroke-opacity:0.1; fill:none" points="
  674.983,1393.02 674.983,162.272 
  "/>
<polyline clip-path="url(#clip982)" style="stroke:#000000; stroke-linecap:butt; stroke-linejoin:round; stroke-width:2; stroke-opacity:0.1; fill:none" points="
  864.21,1393.02 864.21,162.272 
  "/>
<polyline clip-path="url(#clip982)" style="stroke:#000000; stroke-linecap:butt; stroke-linejoin:round; stroke-width:2; stroke-opacity:0.1; fill:none" points="
  1053.44,1393.02 1053.44,162.272 
  "/>
<polyline clip-path="url(#clip980)" style="stroke:#000000; stroke-linecap:butt; stroke-linejoin:round; stroke-width:4; stroke-opacity:1; fill:none" points="
  262.212,1393.02 1223.1,1393.02 
  "/>
<polyline clip-path="url(#clip980)" style="stroke:#000000; stroke-linecap:butt; stroke-linejoin:round; stroke-width:4; stroke-opacity:1; fill:none" points="
  296.527,1393.02 296.527,1374.12 
  "/>
<polyline clip-path="url(#clip980)" style="stroke:#000000; stroke-linecap:butt; stroke-linejoin:round; stroke-width:4; stroke-opacity:1; fill:none" points="
  485.755,1393.02 485.755,1374.12 
  "/>
<polyline clip-path="url(#clip980)" style="stroke:#000000; stroke-linecap:butt; stroke-linejoin:round; stroke-width:4; stroke-opacity:1; fill:none" points="
  674.983,1393.02 674.983,1374.12 
  "/>
<polyline clip-path="url(#clip980)" style="stroke:#000000; stroke-linecap:butt; stroke-linejoin:round; stroke-width:4; stroke-opacity:1; fill:none" points="
  864.21,1393.02 864.21,1374.12 
  "/>
<polyline clip-path="url(#clip980)" style="stroke:#000000; stroke-linecap:butt; stroke-linejoin:round; stroke-width:4; stroke-opacity:1; fill:none" points="
  1053.44,1393.02 1053.44,1374.12 
  "/>
<path clip-path="url(#clip980)" d="M274.71 1436.74 Q271.099 1436.74 269.27 1440.3 Q267.465 1443.84 267.465 1450.97 Q267.465 1458.08 269.27 1461.65 Q271.099 1465.19 274.71 1465.19 Q278.344 1465.19 280.15 1461.65 Q281.979 1458.08 281.979 1450.97 Q281.979 1443.84 280.15 1440.3 Q278.344 1436.74 274.71 1436.74 M274.71 1433.03 Q280.52 1433.03 283.576 1437.64 Q286.655 1442.22 286.655 1450.97 Q286.655 1459.7 283.576 1464.31 Q280.52 1468.89 274.71 1468.89 Q268.9 1468.89 265.821 1464.31 Q262.766 1459.7 262.766 1450.97 Q262.766 1442.22 265.821 1437.64 Q268.9 1433.03 274.71 1433.03 Z" fill="#000000" fill-rule="evenodd" fill-opacity="1" /><path clip-path="url(#clip980)" d="M294.872 1462.34 L299.756 1462.34 L299.756 1468.22 L294.872 1468.22 L294.872 1462.34 Z" fill="#000000" fill-rule="evenodd" fill-opacity="1" /><path clip-path="url(#clip980)" d="M313.969 1464.28 L330.289 1464.28 L330.289 1468.22 L308.344 1468.22 L308.344 1464.28 Q311.006 1461.53 315.59 1456.9 Q320.196 1452.25 321.377 1450.9 Q323.622 1448.38 324.502 1446.65 Q325.404 1444.89 325.404 1443.2 Q325.404 1440.44 323.46 1438.71 Q321.539 1436.97 318.437 1436.97 Q316.238 1436.97 313.784 1437.73 Q311.354 1438.5 308.576 1440.05 L308.576 1435.33 Q311.4 1434.19 313.854 1433.61 Q316.307 1433.03 318.344 1433.03 Q323.715 1433.03 326.909 1435.72 Q330.103 1438.41 330.103 1442.9 Q330.103 1445.03 329.293 1446.95 Q328.506 1448.84 326.4 1451.44 Q325.821 1452.11 322.719 1455.33 Q319.617 1458.52 313.969 1464.28 Z" fill="#000000" fill-rule="evenodd" fill-opacity="1" /><path clip-path="url(#clip980)" d="M462.896 1436.74 Q459.285 1436.74 457.456 1440.3 Q455.651 1443.84 455.651 1450.97 Q455.651 1458.08 457.456 1461.65 Q459.285 1465.19 462.896 1465.19 Q466.53 1465.19 468.336 1461.65 Q470.165 1458.08 470.165 1450.97 Q470.165 1443.84 468.336 1440.3 Q466.53 1436.74 462.896 1436.74 M462.896 1433.03 Q468.706 1433.03 471.762 1437.64 Q474.841 1442.22 474.841 1450.97 Q474.841 1459.7 471.762 1464.31 Q468.706 1468.89 462.896 1468.89 Q457.086 1468.89 454.007 1464.31 Q450.952 1459.7 450.952 1450.97 Q450.952 1442.22 454.007 1437.64 Q457.086 1433.03 462.896 1433.03 Z" fill="#000000" fill-rule="evenodd" fill-opacity="1" /><path clip-path="url(#clip980)" d="M483.058 1462.34 L487.942 1462.34 L487.942 1468.22 L483.058 1468.22 L483.058 1462.34 Z" fill="#000000" fill-rule="evenodd" fill-opacity="1" /><path clip-path="url(#clip980)" d="M510.975 1437.73 L499.169 1456.18 L510.975 1456.18 L510.975 1437.73 M509.748 1433.66 L515.627 1433.66 L515.627 1456.18 L520.558 1456.18 L520.558 1460.07 L515.627 1460.07 L515.627 1468.22 L510.975 1468.22 L510.975 1460.07 L495.373 1460.07 L495.373 1455.56 L509.748 1433.66 Z" fill="#000000" fill-rule="evenodd" fill-opacity="1" /><path clip-path="url(#clip980)" d="M652.286 1436.74 Q648.675 1436.74 646.846 1440.3 Q645.041 1443.84 645.041 1450.97 Q645.041 1458.08 646.846 1461.65 Q648.675 1465.19 652.286 1465.19 Q655.92 1465.19 657.726 1461.65 Q659.554 1458.08 659.554 1450.97 Q659.554 1443.84 657.726 1440.3 Q655.92 1436.74 652.286 1436.74 M652.286 1433.03 Q658.096 1433.03 661.152 1437.64 Q664.23 1442.22 664.23 1450.97 Q664.23 1459.7 661.152 1464.31 Q658.096 1468.89 652.286 1468.89 Q646.476 1468.89 643.397 1464.31 Q640.342 1459.7 640.342 1450.97 Q640.342 1442.22 643.397 1437.64 Q646.476 1433.03 652.286 1433.03 Z" fill="#000000" fill-rule="evenodd" fill-opacity="1" /><path clip-path="url(#clip980)" d="M672.448 1462.34 L677.332 1462.34 L677.332 1468.22 L672.448 1468.22 L672.448 1462.34 Z" fill="#000000" fill-rule="evenodd" fill-opacity="1" /><path clip-path="url(#clip980)" d="M698.096 1449.08 Q694.948 1449.08 693.096 1451.23 Q691.267 1453.38 691.267 1457.13 Q691.267 1460.86 693.096 1463.03 Q694.948 1465.19 698.096 1465.19 Q701.244 1465.19 703.073 1463.03 Q704.925 1460.86 704.925 1457.13 Q704.925 1453.38 703.073 1451.23 Q701.244 1449.08 698.096 1449.08 M707.378 1434.42 L707.378 1438.68 Q705.619 1437.85 703.813 1437.41 Q702.031 1436.97 700.272 1436.97 Q695.642 1436.97 693.189 1440.09 Q690.758 1443.22 690.411 1449.54 Q691.776 1447.53 693.837 1446.46 Q695.897 1445.37 698.374 1445.37 Q703.582 1445.37 706.591 1448.54 Q709.624 1451.69 709.624 1457.13 Q709.624 1462.46 706.475 1465.67 Q703.327 1468.89 698.096 1468.89 Q692.101 1468.89 688.929 1464.31 Q685.758 1459.7 685.758 1450.97 Q685.758 1442.78 689.647 1437.92 Q693.536 1433.03 700.087 1433.03 Q701.846 1433.03 703.628 1433.38 Q705.434 1433.73 707.378 1434.42 Z" fill="#000000" fill-rule="evenodd" fill-opacity="1" /><path clip-path="url(#clip980)" d="M841.641 1436.74 Q838.03 1436.74 836.201 1440.3 Q834.396 1443.84 834.396 1450.97 Q834.396 1458.08 836.201 1461.65 Q838.03 1465.19 841.641 1465.19 Q845.275 1465.19 847.081 1461.65 Q848.909 1458.08 848.909 1450.97 Q848.909 1443.84 847.081 1440.3 Q845.275 1436.74 841.641 1436.74 M841.641 1433.03 Q847.451 1433.03 850.507 1437.64 Q853.585 1442.22 853.585 1450.97 Q853.585 1459.7 850.507 1464.31 Q847.451 1468.89 841.641 1468.89 Q835.831 1468.89 832.752 1464.31 Q829.697 1459.7 829.697 1450.97 Q829.697 1442.22 832.752 1437.64 Q835.831 1433.03 841.641 1433.03 Z" fill="#000000" fill-rule="evenodd" fill-opacity="1" /><path clip-path="url(#clip980)" d="M861.803 1462.34 L866.687 1462.34 L866.687 1468.22 L861.803 1468.22 L861.803 1462.34 Z" fill="#000000" fill-rule="evenodd" fill-opacity="1" /><path clip-path="url(#clip980)" d="M886.872 1451.81 Q883.539 1451.81 881.618 1453.59 Q879.719 1455.37 879.719 1458.5 Q879.719 1461.62 881.618 1463.4 Q883.539 1465.19 886.872 1465.19 Q890.205 1465.19 892.127 1463.4 Q894.048 1461.6 894.048 1458.5 Q894.048 1455.37 892.127 1453.59 Q890.229 1451.81 886.872 1451.81 M882.196 1449.82 Q879.187 1449.08 877.497 1447.02 Q875.831 1444.96 875.831 1441.99 Q875.831 1437.85 878.77 1435.44 Q881.733 1433.03 886.872 1433.03 Q892.034 1433.03 894.974 1435.44 Q897.914 1437.85 897.914 1441.99 Q897.914 1444.96 896.224 1447.02 Q894.557 1449.08 891.571 1449.82 Q894.951 1450.6 896.826 1452.9 Q898.724 1455.19 898.724 1458.5 Q898.724 1463.52 895.645 1466.21 Q892.59 1468.89 886.872 1468.89 Q881.155 1468.89 878.076 1466.21 Q875.02 1463.52 875.02 1458.5 Q875.02 1455.19 876.919 1452.9 Q878.817 1450.6 882.196 1449.82 M880.483 1442.43 Q880.483 1445.12 882.15 1446.62 Q883.84 1448.13 886.872 1448.13 Q889.881 1448.13 891.571 1446.62 Q893.284 1445.12 893.284 1442.43 Q893.284 1439.75 891.571 1438.24 Q889.881 1436.74 886.872 1436.74 Q883.84 1436.74 882.15 1438.24 Q880.483 1439.75 880.483 1442.43 Z" fill="#000000" fill-rule="evenodd" fill-opacity="1" /><path clip-path="url(#clip980)" d="M1020.59 1464.28 L1028.23 1464.28 L1028.23 1437.92 L1019.92 1439.59 L1019.92 1435.33 L1028.18 1433.66 L1032.86 1433.66 L1032.86 1464.28 L1040.5 1464.28 L1040.5 1468.22 L1020.59 1468.22 L1020.59 1464.28 Z" fill="#000000" fill-rule="evenodd" fill-opacity="1" /><path clip-path="url(#clip980)" d="M1049.94 1462.34 L1054.83 1462.34 L1054.83 1468.22 L1049.94 1468.22 L1049.94 1462.34 Z" fill="#000000" fill-rule="evenodd" fill-opacity="1" /><path clip-path="url(#clip980)" d="M1075.01 1436.74 Q1071.4 1436.74 1069.57 1440.3 Q1067.77 1443.84 1067.77 1450.97 Q1067.77 1458.08 1069.57 1461.65 Q1071.4 1465.19 1075.01 1465.19 Q1078.65 1465.19 1080.45 1461.65 Q1082.28 1458.08 1082.28 1450.97 Q1082.28 1443.84 1080.45 1440.3 Q1078.65 1436.74 1075.01 1436.74 M1075.01 1433.03 Q1080.82 1433.03 1083.88 1437.64 Q1086.96 1442.22 1086.96 1450.97 Q1086.96 1459.7 1083.88 1464.31 Q1080.82 1468.89 1075.01 1468.89 Q1069.2 1468.89 1066.12 1464.31 Q1063.07 1459.7 1063.07 1450.97 Q1063.07 1442.22 1066.12 1437.64 Q1069.2 1433.03 1075.01 1433.03 Z" fill="#000000" fill-rule="evenodd" fill-opacity="1" /><path clip-path="url(#clip980)" d="M692.922 1532.6 Q694.864 1529.35 699.67 1526.49 Q701.548 1525.38 707.341 1525.38 Q713.834 1525.38 717.876 1530.53 Q721.95 1535.69 721.95 1544.09 Q721.95 1552.49 717.876 1557.65 Q713.834 1562.81 707.341 1562.81 Q703.426 1562.81 700.593 1561.28 Q697.792 1559.72 695.946 1556.54 L695.946 1575.44 L690.058 1575.44 L690.058 1544.41 Q690.058 1537.06 692.922 1532.6 M715.871 1544.09 Q715.871 1537.63 713.197 1533.97 Q710.555 1530.28 705.908 1530.28 Q701.261 1530.28 698.588 1533.97 Q695.946 1537.63 695.946 1544.09 Q695.946 1550.55 698.588 1554.24 Q701.261 1557.91 705.908 1557.91 Q710.555 1557.91 713.197 1554.24 Q715.871 1550.55 715.871 1544.09 Z" fill="#000000" fill-rule="evenodd" fill-opacity="1" /><path clip-path="url(#clip980)" d="M758.744 1572.71 L758.744 1577.26 L724.878 1577.26 L724.878 1572.71 L758.744 1572.71 Z" fill="#000000" fill-rule="evenodd" fill-opacity="1" /><path clip-path="url(#clip980)" d="M778.827 1518.6 Q773.862 1518.6 771.348 1523.5 Q768.865 1528.37 768.865 1538.17 Q768.865 1547.94 771.348 1552.84 Q773.862 1557.71 778.827 1557.71 Q783.825 1557.71 786.307 1552.84 Q788.822 1547.94 788.822 1538.17 Q788.822 1528.37 786.307 1523.5 Q783.825 1518.6 778.827 1518.6 M778.827 1513.5 Q786.816 1513.5 791.018 1519.84 Q795.251 1526.14 795.251 1538.17 Q795.251 1550.17 791.018 1556.5 Q786.816 1562.81 778.827 1562.81 Q770.839 1562.81 766.605 1556.5 Q762.404 1550.17 762.404 1538.17 Q762.404 1526.14 766.605 1519.84 Q770.839 1513.5 778.827 1513.5 Z" fill="#000000" fill-rule="evenodd" fill-opacity="1" /><polyline clip-path="url(#clip982)" style="stroke:#000000; stroke-linecap:butt; stroke-linejoin:round; stroke-width:2; stroke-opacity:0.1; fill:none" points="
  262.212,1358.19 1223.1,1358.19 
  "/>
<polyline clip-path="url(#clip982)" style="stroke:#000000; stroke-linecap:butt; stroke-linejoin:round; stroke-width:2; stroke-opacity:0.1; fill:none" points="
  262.212,995.349 1223.1,995.349 
  "/>
<polyline clip-path="url(#clip982)" style="stroke:#000000; stroke-linecap:butt; stroke-linejoin:round; stroke-width:2; stroke-opacity:0.1; fill:none" points="
  262.212,632.511 1223.1,632.511 
  "/>
<polyline clip-path="url(#clip982)" style="stroke:#000000; stroke-linecap:butt; stroke-linejoin:round; stroke-width:2; stroke-opacity:0.1; fill:none" points="
  262.212,269.672 1223.1,269.672 
  "/>
<polyline clip-path="url(#clip980)" style="stroke:#000000; stroke-linecap:butt; stroke-linejoin:round; stroke-width:4; stroke-opacity:1; fill:none" points="
  262.212,1393.02 262.212,162.272 
  "/>
<polyline clip-path="url(#clip980)" style="stroke:#000000; stroke-linecap:butt; stroke-linejoin:round; stroke-width:4; stroke-opacity:1; fill:none" points="
  262.212,1358.19 281.109,1358.19 
  "/>
<polyline clip-path="url(#clip980)" style="stroke:#000000; stroke-linecap:butt; stroke-linejoin:round; stroke-width:4; stroke-opacity:1; fill:none" points="
  262.212,995.349 281.109,995.349 
  "/>
<polyline clip-path="url(#clip980)" style="stroke:#000000; stroke-linecap:butt; stroke-linejoin:round; stroke-width:4; stroke-opacity:1; fill:none" points="
  262.212,632.511 281.109,632.511 
  "/>
<polyline clip-path="url(#clip980)" style="stroke:#000000; stroke-linecap:butt; stroke-linejoin:round; stroke-width:4; stroke-opacity:1; fill:none" points="
  262.212,269.672 281.109,269.672 
  "/>
<path clip-path="url(#clip980)" d="M190.267 1343.99 Q186.656 1343.99 184.827 1347.55 Q183.022 1351.09 183.022 1358.22 Q183.022 1365.33 184.827 1368.89 Q186.656 1372.43 190.267 1372.43 Q193.901 1372.43 195.707 1368.89 Q197.536 1365.33 197.536 1358.22 Q197.536 1351.09 195.707 1347.55 Q193.901 1343.99 190.267 1343.99 M190.267 1340.28 Q196.077 1340.28 199.133 1344.89 Q202.212 1349.47 202.212 1358.22 Q202.212 1366.95 199.133 1371.56 Q196.077 1376.14 190.267 1376.14 Q184.457 1376.14 181.378 1371.56 Q178.323 1366.95 178.323 1358.22 Q178.323 1349.47 181.378 1344.89 Q184.457 1340.28 190.267 1340.28 Z" fill="#000000" fill-rule="evenodd" fill-opacity="1" /><path clip-path="url(#clip980)" d="M181.309 978.069 L199.665 978.069 L199.665 982.004 L185.591 982.004 L185.591 990.476 Q186.61 990.129 187.628 989.967 Q188.647 989.782 189.665 989.782 Q195.452 989.782 198.832 992.953 Q202.212 996.124 202.212 1001.54 Q202.212 1007.12 198.739 1010.22 Q195.267 1013.3 188.948 1013.3 Q186.772 1013.3 184.503 1012.93 Q182.258 1012.56 179.851 1011.82 L179.851 1007.12 Q181.934 1008.25 184.156 1008.81 Q186.378 1009.37 188.855 1009.37 Q192.86 1009.37 195.198 1007.26 Q197.536 1005.15 197.536 1001.54 Q197.536 997.93 195.198 995.823 Q192.86 993.717 188.855 993.717 Q186.98 993.717 185.105 994.134 Q183.253 994.55 181.309 995.43 L181.309 978.069 Z" fill="#000000" fill-rule="evenodd" fill-opacity="1" /><path clip-path="url(#clip980)" d="M150.916 645.856 L158.554 645.856 L158.554 619.49 L150.244 621.157 L150.244 616.897 L158.508 615.231 L163.184 615.231 L163.184 645.856 L170.823 645.856 L170.823 649.791 L150.916 649.791 L150.916 645.856 Z" fill="#000000" fill-rule="evenodd" fill-opacity="1" /><path clip-path="url(#clip980)" d="M190.267 618.309 Q186.656 618.309 184.827 621.874 Q183.022 625.416 183.022 632.545 Q183.022 639.652 184.827 643.217 Q186.656 646.758 190.267 646.758 Q193.901 646.758 195.707 643.217 Q197.536 639.652 197.536 632.545 Q197.536 625.416 195.707 621.874 Q193.901 618.309 190.267 618.309 M190.267 614.606 Q196.077 614.606 199.133 619.212 Q202.212 623.795 202.212 632.545 Q202.212 641.272 199.133 645.879 Q196.077 650.462 190.267 650.462 Q184.457 650.462 181.378 645.879 Q178.323 641.272 178.323 632.545 Q178.323 623.795 181.378 619.212 Q184.457 614.606 190.267 614.606 Z" fill="#000000" fill-rule="evenodd" fill-opacity="1" /><path clip-path="url(#clip980)" d="M151.911 283.017 L159.55 283.017 L159.55 256.652 L151.24 258.318 L151.24 254.059 L159.503 252.392 L164.179 252.392 L164.179 283.017 L171.818 283.017 L171.818 286.952 L151.911 286.952 L151.911 283.017 Z" fill="#000000" fill-rule="evenodd" fill-opacity="1" /><path clip-path="url(#clip980)" d="M181.309 252.392 L199.665 252.392 L199.665 256.328 L185.591 256.328 L185.591 264.8 Q186.61 264.453 187.628 264.29 Q188.647 264.105 189.665 264.105 Q195.452 264.105 198.832 267.277 Q202.212 270.448 202.212 275.864 Q202.212 281.443 198.739 284.545 Q195.267 287.624 188.948 287.624 Q186.772 287.624 184.503 287.253 Q182.258 286.883 179.851 286.142 L179.851 281.443 Q181.934 282.577 184.156 283.133 Q186.378 283.689 188.855 283.689 Q192.86 283.689 195.198 281.582 Q197.536 279.476 197.536 275.864 Q197.536 272.253 195.198 270.147 Q192.86 268.04 188.855 268.04 Q186.98 268.04 185.105 268.457 Q183.253 268.874 181.309 269.753 L181.309 252.392 Z" fill="#000000" fill-rule="evenodd" fill-opacity="1" /><path clip-path="url(#clip980)" d="M40.3403 876.171 L40.3403 848.353 L45.6875 848.353 L71.3095 870.378 L71.3095 848.353 L75.9883 848.353 L75.9883 876.967 L70.6411 876.967 L45.0191 854.942 L45.0191 876.171 L40.3403 876.171 Z" fill="#000000" fill-rule="evenodd" fill-opacity="1" /><path clip-path="url(#clip980)" d="M26.5267 804.621 Q33.8473 808.886 41.0087 810.955 Q48.1701 813.023 55.5225 813.023 Q62.8749 813.023 70.1 810.955 Q77.2933 808.854 84.582 804.621 L84.582 809.713 Q77.1023 814.488 69.8772 816.875 Q62.6521 819.23 55.5225 819.23 Q48.4248 819.23 41.2315 816.875 Q34.0383 814.519 26.5267 809.713 L26.5267 804.621 Z" fill="#000000" fill-rule="evenodd" fill-opacity="1" /><path clip-path="url(#clip980)" d="M26.4631 793.481 L26.4631 787.592 L55.7135 787.592 L40.3403 770.119 L40.3403 762.639 L57.0185 781.545 L75.9883 761.843 L75.9883 769.482 L58.5781 787.592 L75.9883 787.592 L75.9883 793.481 L26.4631 793.481 Z" fill="#000000" fill-rule="evenodd" fill-opacity="1" /><path clip-path="url(#clip980)" d="M47.1835 727.755 Q43.2367 725.559 41.3588 722.503 Q39.481 719.448 39.481 715.31 Q39.481 709.74 43.3959 706.716 Q47.2789 703.692 54.4722 703.692 L75.9883 703.692 L75.9883 709.581 L54.6632 709.581 Q49.5388 709.581 47.0561 711.395 Q44.5735 713.209 44.5735 716.933 Q44.5735 721.485 47.5972 724.126 Q50.6209 726.768 55.8408 726.768 L75.9883 726.768 L75.9883 732.656 L54.6632 732.656 Q49.5069 732.656 47.0561 734.471 Q44.5735 736.285 44.5735 740.072 Q44.5735 744.56 47.6291 747.202 Q50.6528 749.844 55.8408 749.844 L75.9883 749.844 L75.9883 755.732 L40.3403 755.732 L40.3403 749.844 L45.8785 749.844 Q42.6002 747.839 41.0406 745.038 Q39.481 742.237 39.481 738.385 Q39.481 734.502 41.4543 731.797 Q43.4277 729.06 47.1835 727.755 Z" fill="#000000" fill-rule="evenodd" fill-opacity="1" /><path clip-path="url(#clip980)" d="M26.5267 692.934 L26.5267 687.842 Q34.0383 683.067 41.2315 680.712 Q48.4248 678.325 55.5225 678.325 Q62.6521 678.325 69.8772 680.712 Q77.1023 683.067 84.582 687.842 L84.582 692.934 Q77.2933 688.701 70.1 686.632 Q62.8749 684.532 55.5225 684.532 Q48.1701 684.532 41.0087 686.632 Q33.8473 688.701 26.5267 692.934 Z" fill="#000000" fill-rule="evenodd" fill-opacity="1" /><path clip-path="url(#clip980)" d="M679.359 35.3077 Q681.83 31.1758 687.947 27.5299 Q690.337 26.1121 697.71 26.1121 Q705.973 26.1121 711.118 32.6746 Q716.303 39.2371 716.303 49.9314 Q716.303 60.6258 711.118 67.1883 Q705.973 73.7508 697.71 73.7508 Q692.727 73.7508 689.122 71.8063 Q685.557 69.8214 683.207 65.7705 L683.207 89.8329 L675.713 89.8329 L675.713 50.3365 Q675.713 40.9789 679.359 35.3077 M708.566 49.9314 Q708.566 41.7081 705.163 37.0496 Q701.801 32.3505 695.887 32.3505 Q689.972 32.3505 686.57 37.0496 Q683.207 41.7081 683.207 49.9314 Q683.207 58.1548 686.57 62.8538 Q689.972 67.5124 695.887 67.5124 Q701.801 67.5124 705.163 62.8538 Q708.566 58.1548 708.566 49.9314 Z" fill="#000000" fill-rule="evenodd" fill-opacity="1" /><path clip-path="url(#clip980)" d="M763.132 86.3491 L763.132 92.1419 L720.03 92.1419 L720.03 86.3491 L763.132 86.3491 Z" fill="#000000" fill-rule="evenodd" fill-opacity="1" /><path clip-path="url(#clip980)" d="M788.693 17.4837 Q782.373 17.4837 779.173 23.7221 Q776.014 29.92 776.014 42.3968 Q776.014 54.833 779.173 61.0714 Q782.373 67.2693 788.693 67.2693 Q795.053 67.2693 798.213 61.0714 Q801.413 54.833 801.413 42.3968 Q801.413 29.92 798.213 23.7221 Q795.053 17.4837 788.693 17.4837 M788.693 11.0023 Q798.861 11.0023 804.208 19.0636 Q809.596 27.0843 809.596 42.3968 Q809.596 57.6687 804.208 65.73 Q798.861 73.7508 788.693 73.7508 Q778.525 73.7508 773.137 65.73 Q767.79 57.6687 767.79 42.3968 Q767.79 27.0843 773.137 19.0636 Q778.525 11.0023 788.693 11.0023 Z" fill="#000000" fill-rule="evenodd" fill-opacity="1" /><polyline clip-path="url(#clip982)" style="stroke:#009af9; stroke-linecap:butt; stroke-linejoin:round; stroke-width:4; stroke-opacity:1; fill:none" points="
  1185.38,1350.93 1164.59,1336.42 1144.13,1321.9 1123.99,1307.39 1104.17,1292.88 1084.68,1278.36 1065.49,1263.85 1046.62,1249.34 1028.06,1234.82 1009.8,1220.31 
  991.843,1205.8 974.183,1191.28 956.816,1176.77 939.74,1162.25 922.951,1147.74 906.446,1133.23 890.22,1118.71 874.272,1104.2 858.597,1089.69 843.192,1075.17 
  828.053,1060.66 813.177,1046.15 798.561,1031.63 784.202,1017.12 770.095,1002.61 756.238,988.092 742.628,973.579 729.261,959.065 716.13,944.552 703.155,930.038 
  690.408,915.525 677.887,901.011 665.589,886.497 653.511,871.984 641.652,857.47 630.008,842.957 618.578,828.443 607.357,813.93 596.346,799.416 585.539,784.903 
  574.935,770.389 564.531,755.876 554.325,741.362 544.314,726.849 534.495,712.335 524.865,697.822 515.422,683.308 506.164,668.794 497.087,654.281 488.188,639.767 
  479.466,625.254 470.916,610.74 462.538,596.227 454.327,581.713 446.281,567.2 438.397,552.686 430.673,538.173 423.106,523.659 415.692,509.146 408.429,494.632 
  401.315,480.119 394.346,465.605 387.519,451.092 380.833,436.578 374.283,422.064 367.867,407.551 361.583,393.037 355.426,378.524 349.42,364.01 343.647,349.497 
  337.988,334.983 332.44,320.47 327,305.956 321.666,291.443 316.434,276.929 311.304,262.416 306.272,247.902 301.336,233.389 296.495,218.875 291.747,204.361 
  
  "/>
<polyline clip-path="url(#clip982)" style="stroke:#e26f46; stroke-linecap:butt; stroke-linejoin:round; stroke-width:4; stroke-opacity:1; fill:none" points="
  1195.9,1358.19 1174.94,1343.67 1154.32,1329.16 1134.02,1314.65 1114.04,1300.13 1094.38,1285.62 1075.04,1271.11 1056.02,1256.59 1037.3,1242.08 1018.89,1227.57 
  1000.79,1213.05 982.976,1198.54 965.463,1184.02 948.242,1169.51 931.31,1155 914.663,1140.48 898.298,1125.97 882.212,1111.46 866.401,1096.94 850.861,1082.43 
  835.589,1067.92 820.582,1053.4 805.837,1038.89 791.349,1024.38 777.117,1009.86 763.136,995.349 749.403,980.835 735.915,966.322 722.668,951.808 709.614,937.295 
  696.753,922.781 684.119,908.268 671.71,893.754 659.522,879.241 647.554,864.727 635.803,850.214 624.267,835.7 612.942,821.187 601.826,806.673 590.917,792.16 
  580.212,777.646 569.708,763.132 559.404,748.619 549.295,734.105 539.381,719.592 529.656,705.078 520.121,690.565 510.77,676.051 501.603,661.538 492.615,647.024 
  483.805,632.511 475.169,617.997 466.706,603.484 458.411,588.97 450.283,574.457 442.319,559.943 434.515,545.429 426.87,530.916 419.38,516.402 412.042,501.889 
  404.854,487.375 397.813,472.862 390.915,458.348 384.159,443.835 377.541,429.321 371.058,414.808 364.709,400.294 358.489,385.781 352.396,371.267 346.519,356.754 
  340.804,342.24 335.201,327.727 329.707,313.213 324.32,298.699 319.037,284.186 313.857,269.672 308.775,255.159 303.792,240.645 298.904,226.132 294.109,211.618 
  289.406,197.105 
  "/>
<path clip-path="url(#clip980)" d="
M912.012 358.817 L1191.07 358.817 L1191.07 203.297 L912.012 203.297  Z
  " fill="#ffffff" fill-rule="evenodd" fill-opacity="1"/>
<polyline clip-path="url(#clip980)" style="stroke:#000000; stroke-linecap:butt; stroke-linejoin:round; stroke-width:4; stroke-opacity:1; fill:none" points="
  912.012,358.817 1191.07,358.817 1191.07,203.297 912.012,203.297 912.012,358.817 
  "/>
<polyline clip-path="url(#clip980)" style="stroke:#009af9; stroke-linecap:butt; stroke-linejoin:round; stroke-width:4; stroke-opacity:1; fill:none" points="
  922.688,255.137 986.747,255.137 
  "/>
<path clip-path="url(#clip980)" d="M1017.93 247.487 L1017.93 251.468 Q1016.13 250.473 1014.3 249.987 Q1012.49 249.477 1010.64 249.477 Q1006.5 249.477 1004.21 252.116 Q1001.91 254.732 1001.91 259.477 Q1001.91 264.223 1004.21 266.862 Q1006.5 269.477 1010.64 269.477 Q1012.49 269.477 1014.3 268.991 Q1016.13 268.482 1017.93 267.487 L1017.93 271.422 Q1016.15 272.255 1014.23 272.672 Q1012.33 273.088 1010.18 273.088 Q1004.32 273.088 1000.87 269.408 Q997.424 265.727 997.424 259.477 Q997.424 253.135 1000.9 249.501 Q1004.39 245.866 1010.46 245.866 Q1012.42 245.866 1014.3 246.283 Q1016.17 246.677 1017.93 247.487 Z" fill="#000000" fill-rule="evenodd" fill-opacity="1" /><path clip-path="url(#clip980)" d="M1047.52 258.389 L1047.52 260.473 L1027.93 260.473 Q1028.21 264.871 1030.57 267.186 Q1032.96 269.477 1037.19 269.477 Q1039.65 269.477 1041.94 268.876 Q1044.25 268.274 1046.52 267.07 L1046.52 271.098 Q1044.23 272.07 1041.82 272.579 Q1039.41 273.088 1036.94 273.088 Q1030.73 273.088 1027.1 269.477 Q1023.49 265.866 1023.49 259.709 Q1023.49 253.343 1026.91 249.616 Q1030.36 245.866 1036.2 245.866 Q1041.43 245.866 1044.46 249.246 Q1047.52 252.602 1047.52 258.389 M1043.26 257.139 Q1043.21 253.644 1041.29 251.561 Q1039.39 249.477 1036.24 249.477 Q1032.68 249.477 1030.53 251.491 Q1028.4 253.505 1028.07 257.163 L1043.26 257.139 Z" fill="#000000" fill-rule="evenodd" fill-opacity="1" /><path clip-path="url(#clip980)" d="M1076.06 256.769 L1076.06 272.417 L1071.8 272.417 L1071.8 256.908 Q1071.8 253.227 1070.36 251.399 Q1068.93 249.57 1066.06 249.57 Q1062.61 249.57 1060.62 251.769 Q1058.63 253.968 1058.63 257.764 L1058.63 272.417 L1054.34 272.417 L1054.34 246.491 L1058.63 246.491 L1058.63 250.519 Q1060.15 248.181 1062.22 247.024 Q1064.3 245.866 1067.01 245.866 Q1071.47 245.866 1073.77 248.644 Q1076.06 251.399 1076.06 256.769 Z" fill="#000000" fill-rule="evenodd" fill-opacity="1" /><path clip-path="url(#clip980)" d="M1088.77 239.13 L1088.77 246.491 L1097.54 246.491 L1097.54 249.802 L1088.77 249.802 L1088.77 263.876 Q1088.77 267.047 1089.62 267.95 Q1090.5 268.852 1093.16 268.852 L1097.54 268.852 L1097.54 272.417 L1093.16 272.417 Q1088.23 272.417 1086.36 270.588 Q1084.48 268.737 1084.48 263.876 L1084.48 249.802 L1081.36 249.802 L1081.36 246.491 L1084.48 246.491 L1084.48 239.13 L1088.77 239.13 Z" fill="#000000" fill-rule="evenodd" fill-opacity="1" /><path clip-path="url(#clip980)" d="M1125.32 258.389 L1125.32 260.473 L1105.73 260.473 Q1106.01 264.871 1108.37 267.186 Q1110.76 269.477 1114.99 269.477 Q1117.45 269.477 1119.74 268.876 Q1122.05 268.274 1124.32 267.07 L1124.32 271.098 Q1122.03 272.07 1119.62 272.579 Q1117.21 273.088 1114.74 273.088 Q1108.53 273.088 1104.9 269.477 Q1101.29 265.866 1101.29 259.709 Q1101.29 253.343 1104.71 249.616 Q1108.16 245.866 1114 245.866 Q1119.23 245.866 1122.26 249.246 Q1125.32 252.602 1125.32 258.389 M1121.06 257.139 Q1121.01 253.644 1119.09 251.561 Q1117.19 249.477 1114.04 249.477 Q1110.48 249.477 1108.33 251.491 Q1106.2 253.505 1105.87 257.163 L1121.06 257.139 Z" fill="#000000" fill-rule="evenodd" fill-opacity="1" /><path clip-path="url(#clip980)" d="M1147.33 250.473 Q1146.61 250.056 1145.76 249.871 Q1144.92 249.663 1143.9 249.663 Q1140.29 249.663 1138.35 252.024 Q1136.43 254.362 1136.43 258.76 L1136.43 272.417 L1132.15 272.417 L1132.15 246.491 L1136.43 246.491 L1136.43 250.519 Q1137.77 248.158 1139.92 247.024 Q1142.08 245.866 1145.15 245.866 Q1145.59 245.866 1146.13 245.936 Q1146.66 245.982 1147.31 246.098 L1147.33 250.473 Z" fill="#000000" fill-rule="evenodd" fill-opacity="1" /><path clip-path="url(#clip980)" d="M1168.33 247.255 L1168.33 251.283 Q1166.52 250.357 1164.58 249.894 Q1162.63 249.431 1160.55 249.431 Q1157.38 249.431 1155.78 250.403 Q1154.21 251.376 1154.21 253.32 Q1154.21 254.802 1155.34 255.658 Q1156.47 256.491 1159.9 257.255 L1161.36 257.579 Q1165.9 258.552 1167.79 260.334 Q1169.71 262.093 1169.71 265.264 Q1169.71 268.876 1166.84 270.982 Q1164 273.088 1159 273.088 Q1156.91 273.088 1154.65 272.672 Q1152.4 272.278 1149.9 271.468 L1149.9 267.07 Q1152.26 268.297 1154.55 268.922 Q1156.84 269.524 1159.09 269.524 Q1162.1 269.524 1163.72 268.505 Q1165.34 267.463 1165.34 265.589 Q1165.34 263.852 1164.16 262.926 Q1163 262.001 1159.04 261.144 L1157.56 260.797 Q1153.6 259.964 1151.84 258.251 Q1150.09 256.514 1150.09 253.505 Q1150.09 249.848 1152.68 247.857 Q1155.27 245.866 1160.04 245.866 Q1162.4 245.866 1164.48 246.214 Q1166.57 246.561 1168.33 247.255 Z" fill="#000000" fill-rule="evenodd" fill-opacity="1" /><polyline clip-path="url(#clip980)" style="stroke:#e26f46; stroke-linecap:butt; stroke-linejoin:round; stroke-width:4; stroke-opacity:1; fill:none" points="
  922.688,306.977 986.747,306.977 
  "/>
<path clip-path="url(#clip980)" d="M1013.93 288.239 L1013.93 291.78 L1009.85 291.78 Q1007.56 291.78 1006.66 292.706 Q1005.78 293.632 1005.78 296.04 L1005.78 298.331 L1012.79 298.331 L1012.79 301.642 L1005.78 301.642 L1005.78 324.257 L1001.5 324.257 L1001.5 301.642 L997.424 301.642 L997.424 298.331 L1001.5 298.331 L1001.5 296.526 Q1001.5 292.197 1003.51 290.23 Q1005.53 288.239 1009.9 288.239 L1013.93 288.239 Z" fill="#000000" fill-rule="evenodd" fill-opacity="1" /><path clip-path="url(#clip980)" d="M1029.28 311.225 Q1024.11 311.225 1022.12 312.405 Q1020.13 313.586 1020.13 316.433 Q1020.13 318.702 1021.61 320.044 Q1023.12 321.364 1025.69 321.364 Q1029.23 321.364 1031.36 318.864 Q1033.51 316.341 1033.51 312.174 L1033.51 311.225 L1029.28 311.225 M1037.77 309.466 L1037.77 324.257 L1033.51 324.257 L1033.51 320.322 Q1032.05 322.683 1029.88 323.817 Q1027.7 324.928 1024.55 324.928 Q1020.57 324.928 1018.21 322.706 Q1015.87 320.461 1015.87 316.711 Q1015.87 312.336 1018.79 310.114 Q1021.73 307.892 1027.54 307.892 L1033.51 307.892 L1033.51 307.475 Q1033.51 304.535 1031.57 302.938 Q1029.65 301.317 1026.15 301.317 Q1023.93 301.317 1021.82 301.85 Q1019.72 302.382 1017.77 303.447 L1017.77 299.512 Q1020.11 298.609 1022.31 298.169 Q1024.51 297.706 1026.59 297.706 Q1032.22 297.706 1034.99 300.623 Q1037.77 303.54 1037.77 309.466 Z" fill="#000000" fill-rule="evenodd" fill-opacity="1" /><path clip-path="url(#clip980)" d="M1065.2 299.327 L1065.2 303.308 Q1063.4 302.313 1061.57 301.827 Q1059.76 301.317 1057.91 301.317 Q1053.77 301.317 1051.47 303.956 Q1049.18 306.572 1049.18 311.317 Q1049.18 316.063 1051.47 318.702 Q1053.77 321.317 1057.91 321.317 Q1059.76 321.317 1061.57 320.831 Q1063.4 320.322 1065.2 319.327 L1065.2 323.262 Q1063.42 324.095 1061.5 324.512 Q1059.6 324.928 1057.45 324.928 Q1051.59 324.928 1048.14 321.248 Q1044.69 317.567 1044.69 311.317 Q1044.69 304.975 1048.16 301.341 Q1051.66 297.706 1057.72 297.706 Q1059.69 297.706 1061.57 298.123 Q1063.44 298.517 1065.2 299.327 Z" fill="#000000" fill-rule="evenodd" fill-opacity="1" /><path clip-path="url(#clip980)" d="M1094.78 310.229 L1094.78 312.313 L1075.2 312.313 Q1075.48 316.711 1077.84 319.026 Q1080.22 321.317 1084.46 321.317 Q1086.91 321.317 1089.21 320.716 Q1091.52 320.114 1093.79 318.91 L1093.79 322.938 Q1091.5 323.91 1089.09 324.419 Q1086.68 324.928 1084.21 324.928 Q1078 324.928 1074.37 321.317 Q1070.76 317.706 1070.76 311.549 Q1070.76 305.183 1074.18 301.456 Q1077.63 297.706 1083.47 297.706 Q1088.7 297.706 1091.73 301.086 Q1094.78 304.442 1094.78 310.229 M1090.53 308.979 Q1090.48 305.484 1088.56 303.401 Q1086.66 301.317 1083.51 301.317 Q1079.95 301.317 1077.79 303.331 Q1075.66 305.345 1075.34 309.003 L1090.53 308.979 Z" fill="#000000" fill-rule="evenodd" fill-opacity="1" /><path clip-path="url(#clip980)" d="M1118.3 299.095 L1118.3 303.123 Q1116.5 302.197 1114.55 301.734 Q1112.61 301.271 1110.53 301.271 Q1107.35 301.271 1105.76 302.243 Q1104.18 303.216 1104.18 305.16 Q1104.18 306.642 1105.32 307.498 Q1106.45 308.331 1109.88 309.095 L1111.34 309.419 Q1115.87 310.392 1117.77 312.174 Q1119.69 313.933 1119.69 317.104 Q1119.69 320.716 1116.82 322.822 Q1113.97 324.928 1108.97 324.928 Q1106.89 324.928 1104.62 324.512 Q1102.38 324.118 1099.88 323.308 L1099.88 318.91 Q1102.24 320.137 1104.53 320.762 Q1106.82 321.364 1109.07 321.364 Q1112.08 321.364 1113.7 320.345 Q1115.32 319.303 1115.32 317.429 Q1115.32 315.692 1114.14 314.766 Q1112.98 313.841 1109.02 312.984 L1107.54 312.637 Q1103.58 311.804 1101.82 310.091 Q1100.06 308.354 1100.06 305.345 Q1100.06 301.688 1102.65 299.697 Q1105.25 297.706 1110.02 297.706 Q1112.38 297.706 1114.46 298.054 Q1116.54 298.401 1118.3 299.095 Z" fill="#000000" fill-rule="evenodd" fill-opacity="1" /><path clip-path="url(#clip980)" d="
M1595.54 1393.02 L2556.43 1393.02 L2556.43 162.272 L1595.54 162.272  Z
  " fill="#ffffff" fill-rule="evenodd" fill-opacity="1"/>
<defs>
  <clipPath id="clip983">
    <rect x="1595" y="162" width="962" height="1232"/>
  </clipPath>
</defs>
<polyline clip-path="url(#clip983)" style="stroke:#000000; stroke-linecap:butt; stroke-linejoin:round; stroke-width:2; stroke-opacity:0.1; fill:none" points="
  1708.25,1393.02 1708.25,162.272 
  "/>
<polyline clip-path="url(#clip983)" style="stroke:#000000; stroke-linecap:butt; stroke-linejoin:round; stroke-width:2; stroke-opacity:0.1; fill:none" points="
  1915.75,1393.02 1915.75,162.272 
  "/>
<polyline clip-path="url(#clip983)" style="stroke:#000000; stroke-linecap:butt; stroke-linejoin:round; stroke-width:2; stroke-opacity:0.1; fill:none" points="
  2123.25,1393.02 2123.25,162.272 
  "/>
<polyline clip-path="url(#clip983)" style="stroke:#000000; stroke-linecap:butt; stroke-linejoin:round; stroke-width:2; stroke-opacity:0.1; fill:none" points="
  2330.76,1393.02 2330.76,162.272 
  "/>
<polyline clip-path="url(#clip983)" style="stroke:#000000; stroke-linecap:butt; stroke-linejoin:round; stroke-width:2; stroke-opacity:0.1; fill:none" points="
  2538.26,1393.02 2538.26,162.272 
  "/>
<polyline clip-path="url(#clip980)" style="stroke:#000000; stroke-linecap:butt; stroke-linejoin:round; stroke-width:4; stroke-opacity:1; fill:none" points="
  1595.54,1393.02 2556.43,1393.02 
  "/>
<polyline clip-path="url(#clip980)" style="stroke:#000000; stroke-linecap:butt; stroke-linejoin:round; stroke-width:4; stroke-opacity:1; fill:none" points="
  1708.25,1393.02 1708.25,1374.12 
  "/>
<polyline clip-path="url(#clip980)" style="stroke:#000000; stroke-linecap:butt; stroke-linejoin:round; stroke-width:4; stroke-opacity:1; fill:none" points="
  1915.75,1393.02 1915.75,1374.12 
  "/>
<polyline clip-path="url(#clip980)" style="stroke:#000000; stroke-linecap:butt; stroke-linejoin:round; stroke-width:4; stroke-opacity:1; fill:none" points="
  2123.25,1393.02 2123.25,1374.12 
  "/>
<polyline clip-path="url(#clip980)" style="stroke:#000000; stroke-linecap:butt; stroke-linejoin:round; stroke-width:4; stroke-opacity:1; fill:none" points="
  2330.76,1393.02 2330.76,1374.12 
  "/>
<polyline clip-path="url(#clip980)" style="stroke:#000000; stroke-linecap:butt; stroke-linejoin:round; stroke-width:4; stroke-opacity:1; fill:none" points="
  2538.26,1393.02 2538.26,1374.12 
  "/>
<path clip-path="url(#clip980)" d="M1687.02 1464.28 L1703.34 1464.28 L1703.34 1468.22 L1681.4 1468.22 L1681.4 1464.28 Q1684.06 1461.53 1688.64 1456.9 Q1693.25 1452.25 1694.43 1450.9 Q1696.67 1448.38 1697.55 1446.65 Q1698.46 1444.89 1698.46 1443.2 Q1698.46 1440.44 1696.51 1438.71 Q1694.59 1436.97 1691.49 1436.97 Q1689.29 1436.97 1686.84 1437.73 Q1684.41 1438.5 1681.63 1440.05 L1681.63 1435.33 Q1684.45 1434.19 1686.91 1433.61 Q1689.36 1433.03 1691.4 1433.03 Q1696.77 1433.03 1699.96 1435.72 Q1703.16 1438.41 1703.16 1442.9 Q1703.16 1445.03 1702.34 1446.95 Q1701.56 1448.84 1699.45 1451.44 Q1698.87 1452.11 1695.77 1455.33 Q1692.67 1458.52 1687.02 1464.28 Z" fill="#000000" fill-rule="evenodd" fill-opacity="1" /><path clip-path="url(#clip980)" d="M1723.15 1436.74 Q1719.54 1436.74 1717.72 1440.3 Q1715.91 1443.84 1715.91 1450.97 Q1715.91 1458.08 1717.72 1461.65 Q1719.54 1465.19 1723.15 1465.19 Q1726.79 1465.19 1728.59 1461.65 Q1730.42 1458.08 1730.42 1450.97 Q1730.42 1443.84 1728.59 1440.3 Q1726.79 1436.74 1723.15 1436.74 M1723.15 1433.03 Q1728.97 1433.03 1732.02 1437.64 Q1735.1 1442.22 1735.1 1450.97 Q1735.1 1459.7 1732.02 1464.31 Q1728.97 1468.89 1723.15 1468.89 Q1717.34 1468.89 1714.27 1464.31 Q1711.21 1459.7 1711.21 1450.97 Q1711.21 1442.22 1714.27 1437.64 Q1717.34 1433.03 1723.15 1433.03 Z" fill="#000000" fill-rule="evenodd" fill-opacity="1" /><path clip-path="url(#clip980)" d="M1903.92 1437.73 L1892.12 1456.18 L1903.92 1456.18 L1903.92 1437.73 M1902.7 1433.66 L1908.58 1433.66 L1908.58 1456.18 L1913.51 1456.18 L1913.51 1460.07 L1908.58 1460.07 L1908.58 1468.22 L1903.92 1468.22 L1903.92 1460.07 L1888.32 1460.07 L1888.32 1455.56 L1902.7 1433.66 Z" fill="#000000" fill-rule="evenodd" fill-opacity="1" /><path clip-path="url(#clip980)" d="M1931.24 1436.74 Q1927.63 1436.74 1925.8 1440.3 Q1923.99 1443.84 1923.99 1450.97 Q1923.99 1458.08 1925.8 1461.65 Q1927.63 1465.19 1931.24 1465.19 Q1934.87 1465.19 1936.68 1461.65 Q1938.51 1458.08 1938.51 1450.97 Q1938.51 1443.84 1936.68 1440.3 Q1934.87 1436.74 1931.24 1436.74 M1931.24 1433.03 Q1937.05 1433.03 1940.1 1437.64 Q1943.18 1442.22 1943.18 1450.97 Q1943.18 1459.7 1940.1 1464.31 Q1937.05 1468.89 1931.24 1468.89 Q1925.43 1468.89 1922.35 1464.31 Q1919.29 1459.7 1919.29 1450.97 Q1919.29 1442.22 1922.35 1437.64 Q1925.43 1433.03 1931.24 1433.03 Z" fill="#000000" fill-rule="evenodd" fill-opacity="1" /><path clip-path="url(#clip980)" d="M2108.66 1449.08 Q2105.51 1449.08 2103.66 1451.23 Q2101.83 1453.38 2101.83 1457.13 Q2101.83 1460.86 2103.66 1463.03 Q2105.51 1465.19 2108.66 1465.19 Q2111.81 1465.19 2113.64 1463.03 Q2115.49 1460.86 2115.49 1457.13 Q2115.49 1453.38 2113.64 1451.23 Q2111.81 1449.08 2108.66 1449.08 M2117.94 1434.42 L2117.94 1438.68 Q2116.18 1437.85 2114.38 1437.41 Q2112.6 1436.97 2110.84 1436.97 Q2106.21 1436.97 2103.75 1440.09 Q2101.32 1443.22 2100.97 1449.54 Q2102.34 1447.53 2104.4 1446.46 Q2106.46 1445.37 2108.94 1445.37 Q2114.15 1445.37 2117.16 1448.54 Q2120.19 1451.69 2120.19 1457.13 Q2120.19 1462.46 2117.04 1465.67 Q2113.89 1468.89 2108.66 1468.89 Q2102.66 1468.89 2099.49 1464.31 Q2096.32 1459.7 2096.32 1450.97 Q2096.32 1442.78 2100.21 1437.92 Q2104.1 1433.03 2110.65 1433.03 Q2112.41 1433.03 2114.19 1433.38 Q2116 1433.73 2117.94 1434.42 Z" fill="#000000" fill-rule="evenodd" fill-opacity="1" /><path clip-path="url(#clip980)" d="M2138.24 1436.74 Q2134.63 1436.74 2132.8 1440.3 Q2131 1443.84 2131 1450.97 Q2131 1458.08 2132.8 1461.65 Q2134.63 1465.19 2138.24 1465.19 Q2141.88 1465.19 2143.68 1461.65 Q2145.51 1458.08 2145.51 1450.97 Q2145.51 1443.84 2143.68 1440.3 Q2141.88 1436.74 2138.24 1436.74 M2138.24 1433.03 Q2144.05 1433.03 2147.11 1437.64 Q2150.19 1442.22 2150.19 1450.97 Q2150.19 1459.7 2147.11 1464.31 Q2144.05 1468.89 2138.24 1468.89 Q2132.43 1468.89 2129.35 1464.31 Q2126.3 1459.7 2126.3 1450.97 Q2126.3 1442.22 2129.35 1437.64 Q2132.43 1433.03 2138.24 1433.03 Z" fill="#000000" fill-rule="evenodd" fill-opacity="1" /><path clip-path="url(#clip980)" d="M2315.63 1451.81 Q2312.3 1451.81 2310.38 1453.59 Q2308.48 1455.37 2308.48 1458.5 Q2308.48 1461.62 2310.38 1463.4 Q2312.3 1465.19 2315.63 1465.19 Q2318.96 1465.19 2320.89 1463.4 Q2322.81 1461.6 2322.81 1458.5 Q2322.81 1455.37 2320.89 1453.59 Q2318.99 1451.81 2315.63 1451.81 M2310.96 1449.82 Q2307.95 1449.08 2306.26 1447.02 Q2304.59 1444.96 2304.59 1441.99 Q2304.59 1437.85 2307.53 1435.44 Q2310.49 1433.03 2315.63 1433.03 Q2320.79 1433.03 2323.73 1435.44 Q2326.67 1437.85 2326.67 1441.99 Q2326.67 1444.96 2324.98 1447.02 Q2323.32 1449.08 2320.33 1449.82 Q2323.71 1450.6 2325.58 1452.9 Q2327.48 1455.19 2327.48 1458.5 Q2327.48 1463.52 2324.4 1466.21 Q2321.35 1468.89 2315.63 1468.89 Q2309.91 1468.89 2306.83 1466.21 Q2303.78 1463.52 2303.78 1458.5 Q2303.78 1455.19 2305.68 1452.9 Q2307.58 1450.6 2310.96 1449.82 M2309.24 1442.43 Q2309.24 1445.12 2310.91 1446.62 Q2312.6 1448.13 2315.63 1448.13 Q2318.64 1448.13 2320.33 1446.62 Q2322.04 1445.12 2322.04 1442.43 Q2322.04 1439.75 2320.33 1438.24 Q2318.64 1436.74 2315.63 1436.74 Q2312.6 1436.74 2310.91 1438.24 Q2309.24 1439.75 2309.24 1442.43 Z" fill="#000000" fill-rule="evenodd" fill-opacity="1" /><path clip-path="url(#clip980)" d="M2345.79 1436.74 Q2342.18 1436.74 2340.35 1440.3 Q2338.55 1443.84 2338.55 1450.97 Q2338.55 1458.08 2340.35 1461.65 Q2342.18 1465.19 2345.79 1465.19 Q2349.43 1465.19 2351.23 1461.65 Q2353.06 1458.08 2353.06 1450.97 Q2353.06 1443.84 2351.23 1440.3 Q2349.43 1436.74 2345.79 1436.74 M2345.79 1433.03 Q2351.6 1433.03 2354.66 1437.64 Q2357.74 1442.22 2357.74 1450.97 Q2357.74 1459.7 2354.66 1464.31 Q2351.6 1468.89 2345.79 1468.89 Q2339.98 1468.89 2336.9 1464.31 Q2333.85 1459.7 2333.85 1450.97 Q2333.85 1442.22 2336.9 1437.64 Q2339.98 1433.03 2345.79 1433.03 Z" fill="#000000" fill-rule="evenodd" fill-opacity="1" /><path clip-path="url(#clip980)" d="M2497.87 1464.28 L2505.51 1464.28 L2505.51 1437.92 L2497.2 1439.59 L2497.2 1435.33 L2505.46 1433.66 L2510.14 1433.66 L2510.14 1464.28 L2517.78 1464.28 L2517.78 1468.22 L2497.87 1468.22 L2497.87 1464.28 Z" fill="#000000" fill-rule="evenodd" fill-opacity="1" /><path clip-path="url(#clip980)" d="M2537.22 1436.74 Q2533.61 1436.74 2531.78 1440.3 Q2529.97 1443.84 2529.97 1450.97 Q2529.97 1458.08 2531.78 1461.65 Q2533.61 1465.19 2537.22 1465.19 Q2540.85 1465.19 2542.66 1461.65 Q2544.49 1458.08 2544.49 1450.97 Q2544.49 1443.84 2542.66 1440.3 Q2540.85 1436.74 2537.22 1436.74 M2537.22 1433.03 Q2543.03 1433.03 2546.09 1437.64 Q2549.16 1442.22 2549.16 1450.97 Q2549.16 1459.7 2546.09 1464.31 Q2543.03 1468.89 2537.22 1468.89 Q2531.41 1468.89 2528.33 1464.31 Q2525.28 1459.7 2525.28 1450.97 Q2525.28 1442.22 2528.33 1437.64 Q2531.41 1433.03 2537.22 1433.03 Z" fill="#000000" fill-rule="evenodd" fill-opacity="1" /><path clip-path="url(#clip980)" d="M2567.38 1436.74 Q2563.77 1436.74 2561.94 1440.3 Q2560.14 1443.84 2560.14 1450.97 Q2560.14 1458.08 2561.94 1461.65 Q2563.77 1465.19 2567.38 1465.19 Q2571.02 1465.19 2572.82 1461.65 Q2574.65 1458.08 2574.65 1450.97 Q2574.65 1443.84 2572.82 1440.3 Q2571.02 1436.74 2567.38 1436.74 M2567.38 1433.03 Q2573.19 1433.03 2576.25 1437.64 Q2579.33 1442.22 2579.33 1450.97 Q2579.33 1459.7 2576.25 1464.31 Q2573.19 1468.89 2567.38 1468.89 Q2561.57 1468.89 2558.49 1464.31 Q2555.44 1459.7 2555.44 1450.97 Q2555.44 1442.22 2558.49 1437.64 Q2561.57 1433.03 2567.38 1433.03 Z" fill="#000000" fill-rule="evenodd" fill-opacity="1" /><path clip-path="url(#clip980)" d="M1937.09 1556.54 L1937.09 1575.44 L1931.2 1575.44 L1931.2 1526.24 L1937.09 1526.24 L1937.09 1531.65 Q1938.93 1528.46 1941.73 1526.94 Q1944.57 1525.38 1948.48 1525.38 Q1954.98 1525.38 1959.02 1530.53 Q1963.09 1535.69 1963.09 1544.09 Q1963.09 1552.49 1959.02 1557.65 Q1954.98 1562.81 1948.48 1562.81 Q1944.57 1562.81 1941.73 1561.28 Q1938.93 1559.72 1937.09 1556.54 M1957.01 1544.09 Q1957.01 1537.63 1954.34 1533.97 Q1951.7 1530.28 1947.05 1530.28 Q1942.4 1530.28 1939.73 1533.97 Q1937.09 1537.63 1937.09 1544.09 Q1937.09 1550.55 1939.73 1554.24 Q1942.4 1557.91 1947.05 1557.91 Q1951.7 1557.91 1954.34 1554.24 Q1957.01 1550.55 1957.01 1544.09 Z" fill="#000000" fill-rule="evenodd" fill-opacity="1" /><path clip-path="url(#clip980)" d="M1999.89 1572.71 L1999.89 1577.26 L1966.02 1577.26 L1966.02 1572.71 L1999.89 1572.71 Z" fill="#000000" fill-rule="evenodd" fill-opacity="1" /><path clip-path="url(#clip980)" d="M2019.97 1518.6 Q2015 1518.6 2012.49 1523.5 Q2010.01 1528.37 2010.01 1538.17 Q2010.01 1547.94 2012.49 1552.84 Q2015 1557.71 2019.97 1557.71 Q2024.97 1557.71 2027.45 1552.84 Q2029.96 1547.94 2029.96 1538.17 Q2029.96 1528.37 2027.45 1523.5 Q2024.97 1518.6 2019.97 1518.6 M2019.97 1513.5 Q2027.96 1513.5 2032.16 1519.84 Q2036.39 1526.14 2036.39 1538.17 Q2036.39 1550.17 2032.16 1556.5 Q2027.96 1562.81 2019.97 1562.81 Q2011.98 1562.81 2007.75 1556.5 Q2003.55 1550.17 2003.55 1538.17 Q2003.55 1526.14 2007.75 1519.84 Q2011.98 1513.5 2019.97 1513.5 Z" fill="#000000" fill-rule="evenodd" fill-opacity="1" /><path clip-path="url(#clip980)" d="M2081.65 1512.42 Q2077.39 1519.74 2075.32 1526.9 Q2073.25 1534.07 2073.25 1541.42 Q2073.25 1548.77 2075.32 1556 Q2077.42 1563.19 2081.65 1570.48 L2076.56 1570.48 Q2071.79 1563 2069.4 1555.77 Q2067.04 1548.55 2067.04 1541.42 Q2067.04 1534.32 2069.4 1527.13 Q2071.75 1519.93 2076.56 1512.42 L2081.65 1512.42 Z" fill="#000000" fill-rule="evenodd" fill-opacity="1" /><path clip-path="url(#clip980)" d="M2092.79 1512.36 L2098.68 1512.36 L2098.68 1541.61 L2116.16 1526.24 L2123.64 1526.24 L2104.73 1542.91 L2124.43 1561.88 L2116.79 1561.88 L2098.68 1544.47 L2098.68 1561.88 L2092.79 1561.88 L2092.79 1512.36 Z" fill="#000000" fill-rule="evenodd" fill-opacity="1" /><path clip-path="url(#clip980)" d="M2137.45 1519.65 L2137.45 1537.5 L2145.53 1537.5 Q2150.02 1537.5 2152.47 1535.18 Q2154.92 1532.86 2154.92 1528.56 Q2154.92 1524.29 2152.47 1521.97 Q2150.02 1519.65 2145.53 1519.65 L2137.45 1519.65 M2131.02 1514.36 L2145.53 1514.36 Q2153.52 1514.36 2157.6 1517.99 Q2161.7 1521.59 2161.7 1528.56 Q2161.7 1535.59 2157.6 1539.19 Q2153.52 1542.79 2145.53 1542.79 L2137.45 1542.79 L2137.45 1561.88 L2131.02 1561.88 L2131.02 1514.36 Z" fill="#000000" fill-rule="evenodd" fill-opacity="1" /><path clip-path="url(#clip980)" d="M2183.35 1543.96 Q2176.25 1543.96 2173.51 1545.59 Q2170.77 1547.21 2170.77 1551.13 Q2170.77 1554.24 2172.81 1556.09 Q2174.88 1557.91 2178.41 1557.91 Q2183.28 1557.91 2186.21 1554.47 Q2189.17 1551 2189.17 1545.27 L2189.17 1543.96 L2183.35 1543.96 M2195.03 1541.55 L2195.03 1561.88 L2189.17 1561.88 L2189.17 1556.47 Q2187.16 1559.72 2184.17 1561.28 Q2181.18 1562.81 2176.85 1562.81 Q2171.38 1562.81 2168.13 1559.75 Q2164.92 1556.66 2164.92 1551.51 Q2164.92 1545.49 2168.93 1542.44 Q2172.97 1539.38 2180.96 1539.38 L2189.17 1539.38 L2189.17 1538.81 Q2189.17 1534.77 2186.5 1532.57 Q2183.85 1530.34 2179.05 1530.34 Q2175.99 1530.34 2173.1 1531.07 Q2170.2 1531.81 2167.53 1533.27 L2167.53 1527.86 Q2170.74 1526.62 2173.76 1526.01 Q2176.79 1525.38 2179.65 1525.38 Q2187.39 1525.38 2191.21 1529.39 Q2195.03 1533.4 2195.03 1541.55 Z" fill="#000000" fill-rule="evenodd" fill-opacity="1" /><path clip-path="url(#clip980)" d="M2206.17 1512.42 L2211.26 1512.42 Q2216.03 1519.93 2218.39 1527.13 Q2220.78 1534.32 2220.78 1541.42 Q2220.78 1548.55 2218.39 1555.77 Q2216.03 1563 2211.26 1570.48 L2206.17 1570.48 Q2210.4 1563.19 2212.47 1556 Q2214.57 1548.77 2214.57 1541.42 Q2214.57 1534.07 2212.47 1526.9 Q2210.4 1519.74 2206.17 1512.42 Z" fill="#000000" fill-rule="evenodd" fill-opacity="1" /><polyline clip-path="url(#clip983)" style="stroke:#000000; stroke-linecap:butt; stroke-linejoin:round; stroke-width:2; stroke-opacity:0.1; fill:none" points="
  1595.54,1358.19 2556.43,1358.19 
  "/>
<polyline clip-path="url(#clip983)" style="stroke:#000000; stroke-linecap:butt; stroke-linejoin:round; stroke-width:2; stroke-opacity:0.1; fill:none" points="
  1595.54,995.349 2556.43,995.349 
  "/>
<polyline clip-path="url(#clip983)" style="stroke:#000000; stroke-linecap:butt; stroke-linejoin:round; stroke-width:2; stroke-opacity:0.1; fill:none" points="
  1595.54,632.511 2556.43,632.511 
  "/>
<polyline clip-path="url(#clip983)" style="stroke:#000000; stroke-linecap:butt; stroke-linejoin:round; stroke-width:2; stroke-opacity:0.1; fill:none" points="
  1595.54,269.672 2556.43,269.672 
  "/>
<polyline clip-path="url(#clip980)" style="stroke:#000000; stroke-linecap:butt; stroke-linejoin:round; stroke-width:4; stroke-opacity:1; fill:none" points="
  1595.54,1393.02 1595.54,162.272 
  "/>
<polyline clip-path="url(#clip980)" style="stroke:#000000; stroke-linecap:butt; stroke-linejoin:round; stroke-width:4; stroke-opacity:1; fill:none" points="
  1595.54,1358.19 1614.44,1358.19 
  "/>
<polyline clip-path="url(#clip980)" style="stroke:#000000; stroke-linecap:butt; stroke-linejoin:round; stroke-width:4; stroke-opacity:1; fill:none" points="
  1595.54,995.349 1614.44,995.349 
  "/>
<polyline clip-path="url(#clip980)" style="stroke:#000000; stroke-linecap:butt; stroke-linejoin:round; stroke-width:4; stroke-opacity:1; fill:none" points="
  1595.54,632.511 1614.44,632.511 
  "/>
<polyline clip-path="url(#clip980)" style="stroke:#000000; stroke-linecap:butt; stroke-linejoin:round; stroke-width:4; stroke-opacity:1; fill:none" points="
  1595.54,269.672 1614.44,269.672 
  "/>
<path clip-path="url(#clip980)" d="M1523.6 1343.99 Q1519.99 1343.99 1518.16 1347.55 Q1516.36 1351.09 1516.36 1358.22 Q1516.36 1365.33 1518.16 1368.89 Q1519.99 1372.43 1523.6 1372.43 Q1527.23 1372.43 1529.04 1368.89 Q1530.87 1365.33 1530.87 1358.22 Q1530.87 1351.09 1529.04 1347.55 Q1527.23 1343.99 1523.6 1343.99 M1523.6 1340.28 Q1529.41 1340.28 1532.47 1344.89 Q1535.54 1349.47 1535.54 1358.22 Q1535.54 1366.95 1532.47 1371.56 Q1529.41 1376.14 1523.6 1376.14 Q1517.79 1376.14 1514.71 1371.56 Q1511.66 1366.95 1511.66 1358.22 Q1511.66 1349.47 1514.71 1344.89 Q1517.79 1340.28 1523.6 1340.28 Z" fill="#000000" fill-rule="evenodd" fill-opacity="1" /><path clip-path="url(#clip980)" d="M1514.64 978.069 L1533 978.069 L1533 982.004 L1518.92 982.004 L1518.92 990.476 Q1519.94 990.129 1520.96 989.967 Q1521.98 989.782 1523 989.782 Q1528.79 989.782 1532.17 992.953 Q1535.54 996.124 1535.54 1001.54 Q1535.54 1007.12 1532.07 1010.22 Q1528.6 1013.3 1522.28 1013.3 Q1520.11 1013.3 1517.84 1012.93 Q1515.59 1012.56 1513.18 1011.82 L1513.18 1007.12 Q1515.27 1008.25 1517.49 1008.81 Q1519.71 1009.37 1522.19 1009.37 Q1526.19 1009.37 1528.53 1007.26 Q1530.87 1005.15 1530.87 1001.54 Q1530.87 997.93 1528.53 995.823 Q1526.19 993.717 1522.19 993.717 Q1520.31 993.717 1518.44 994.134 Q1516.59 994.55 1514.64 995.43 L1514.64 978.069 Z" fill="#000000" fill-rule="evenodd" fill-opacity="1" /><path clip-path="url(#clip980)" d="M1484.25 645.856 L1491.89 645.856 L1491.89 619.49 L1483.58 621.157 L1483.58 616.897 L1491.84 615.231 L1496.52 615.231 L1496.52 645.856 L1504.16 645.856 L1504.16 649.791 L1484.25 649.791 L1484.25 645.856 Z" fill="#000000" fill-rule="evenodd" fill-opacity="1" /><path clip-path="url(#clip980)" d="M1523.6 618.309 Q1519.99 618.309 1518.16 621.874 Q1516.36 625.416 1516.36 632.545 Q1516.36 639.652 1518.16 643.217 Q1519.99 646.758 1523.6 646.758 Q1527.23 646.758 1529.04 643.217 Q1530.87 639.652 1530.87 632.545 Q1530.87 625.416 1529.04 621.874 Q1527.23 618.309 1523.6 618.309 M1523.6 614.606 Q1529.41 614.606 1532.47 619.212 Q1535.54 623.795 1535.54 632.545 Q1535.54 641.272 1532.47 645.879 Q1529.41 650.462 1523.6 650.462 Q1517.79 650.462 1514.71 645.879 Q1511.66 641.272 1511.66 632.545 Q1511.66 623.795 1514.71 619.212 Q1517.79 614.606 1523.6 614.606 Z" fill="#000000" fill-rule="evenodd" fill-opacity="1" /><path clip-path="url(#clip980)" d="M1485.24 283.017 L1492.88 283.017 L1492.88 256.652 L1484.57 258.318 L1484.57 254.059 L1492.84 252.392 L1497.51 252.392 L1497.51 283.017 L1505.15 283.017 L1505.15 286.952 L1485.24 286.952 L1485.24 283.017 Z" fill="#000000" fill-rule="evenodd" fill-opacity="1" /><path clip-path="url(#clip980)" d="M1514.64 252.392 L1533 252.392 L1533 256.328 L1518.92 256.328 L1518.92 264.8 Q1519.94 264.453 1520.96 264.29 Q1521.98 264.105 1523 264.105 Q1528.79 264.105 1532.17 267.277 Q1535.54 270.448 1535.54 275.864 Q1535.54 281.443 1532.07 284.545 Q1528.6 287.624 1522.28 287.624 Q1520.11 287.624 1517.84 287.253 Q1515.59 286.883 1513.18 286.142 L1513.18 281.443 Q1515.27 282.577 1517.49 283.133 Q1519.71 283.689 1522.19 283.689 Q1526.19 283.689 1528.53 281.582 Q1530.87 279.476 1530.87 275.864 Q1530.87 272.253 1528.53 270.147 Q1526.19 268.04 1522.19 268.04 Q1520.31 268.04 1518.44 268.457 Q1516.59 268.874 1514.64 269.753 L1514.64 252.392 Z" fill="#000000" fill-rule="evenodd" fill-opacity="1" /><path clip-path="url(#clip980)" d="M1373.67 876.171 L1373.67 848.353 L1379.02 848.353 L1404.64 870.378 L1404.64 848.353 L1409.32 848.353 L1409.32 876.967 L1403.97 876.967 L1378.35 854.942 L1378.35 876.171 L1373.67 876.171 Z" fill="#000000" fill-rule="evenodd" fill-opacity="1" /><path clip-path="url(#clip980)" d="M1359.86 804.621 Q1367.18 808.886 1374.34 810.955 Q1381.5 813.023 1388.86 813.023 Q1396.21 813.023 1403.43 810.955 Q1410.63 808.854 1417.92 804.621 L1417.92 809.713 Q1410.44 814.488 1403.21 816.875 Q1395.99 819.23 1388.86 819.23 Q1381.76 819.23 1374.56 816.875 Q1367.37 814.519 1359.86 809.713 L1359.86 804.621 Z" fill="#000000" fill-rule="evenodd" fill-opacity="1" /><path clip-path="url(#clip980)" d="M1359.8 793.481 L1359.8 787.592 L1389.05 787.592 L1373.67 770.119 L1373.67 762.639 L1390.35 781.545 L1409.32 761.843 L1409.32 769.482 L1391.91 787.592 L1409.32 787.592 L1409.32 793.481 L1359.8 793.481 Z" fill="#000000" fill-rule="evenodd" fill-opacity="1" /><path clip-path="url(#clip980)" d="M1380.52 727.755 Q1376.57 725.559 1374.69 722.503 Q1372.81 719.448 1372.81 715.31 Q1372.81 709.74 1376.73 706.716 Q1380.61 703.692 1387.81 703.692 L1409.32 703.692 L1409.32 709.581 L1388 709.581 Q1382.87 709.581 1380.39 711.395 Q1377.91 713.209 1377.91 716.933 Q1377.91 721.485 1380.93 724.126 Q1383.95 726.768 1389.17 726.768 L1409.32 726.768 L1409.32 732.656 L1388 732.656 Q1382.84 732.656 1380.39 734.471 Q1377.91 736.285 1377.91 740.072 Q1377.91 744.56 1380.96 747.202 Q1383.99 749.844 1389.17 749.844 L1409.32 749.844 L1409.32 755.732 L1373.67 755.732 L1373.67 749.844 L1379.21 749.844 Q1375.93 747.839 1374.37 745.038 Q1372.81 742.237 1372.81 738.385 Q1372.81 734.502 1374.79 731.797 Q1376.76 729.06 1380.52 727.755 Z" fill="#000000" fill-rule="evenodd" fill-opacity="1" /><path clip-path="url(#clip980)" d="M1359.86 692.934 L1359.86 687.842 Q1367.37 683.067 1374.56 680.712 Q1381.76 678.325 1388.86 678.325 Q1395.99 678.325 1403.21 680.712 Q1410.44 683.067 1417.92 687.842 L1417.92 692.934 Q1410.63 688.701 1403.43 686.632 Q1396.21 684.532 1388.86 684.532 Q1381.5 684.532 1374.34 686.632 Q1367.18 688.701 1359.86 692.934 Z" fill="#000000" fill-rule="evenodd" fill-opacity="1" /><path clip-path="url(#clip980)" d="M1899.21 65.7705 L1899.21 89.8329 L1891.71 89.8329 L1891.71 27.2059 L1899.21 27.2059 L1899.21 34.0924 Q1901.56 30.0415 1905.12 28.0971 Q1908.73 26.1121 1913.71 26.1121 Q1921.97 26.1121 1927.12 32.6746 Q1932.3 39.2371 1932.3 49.9314 Q1932.3 60.6258 1927.12 67.1883 Q1921.97 73.7508 1913.71 73.7508 Q1908.73 73.7508 1905.12 71.8063 Q1901.56 69.8214 1899.21 65.7705 M1924.56 49.9314 Q1924.56 41.7081 1921.16 37.0496 Q1917.8 32.3505 1911.89 32.3505 Q1905.97 32.3505 1902.57 37.0496 Q1899.21 41.7081 1899.21 49.9314 Q1899.21 58.1548 1902.57 62.8538 Q1905.97 67.5124 1911.89 67.5124 Q1917.8 67.5124 1921.16 62.8538 Q1924.56 58.1548 1924.56 49.9314 Z" fill="#000000" fill-rule="evenodd" fill-opacity="1" /><path clip-path="url(#clip980)" d="M1979.13 86.3491 L1979.13 92.1419 L1936.03 92.1419 L1936.03 86.3491 L1979.13 86.3491 Z" fill="#000000" fill-rule="evenodd" fill-opacity="1" /><path clip-path="url(#clip980)" d="M2004.69 17.4837 Q1998.37 17.4837 1995.17 23.7221 Q1992.01 29.92 1992.01 42.3968 Q1992.01 54.833 1995.17 61.0714 Q1998.37 67.2693 2004.69 67.2693 Q2011.05 67.2693 2014.21 61.0714 Q2017.41 54.833 2017.41 42.3968 Q2017.41 29.92 2014.21 23.7221 Q2011.05 17.4837 2004.69 17.4837 M2004.69 11.0023 Q2014.86 11.0023 2020.21 19.0636 Q2025.59 27.0843 2025.59 42.3968 Q2025.59 57.6687 2020.21 65.73 Q2014.86 73.7508 2004.69 73.7508 Q1994.52 73.7508 1989.14 65.73 Q1983.79 57.6687 1983.79 42.3968 Q1983.79 27.0843 1989.14 19.0636 Q1994.52 11.0023 2004.69 11.0023 Z" fill="#000000" fill-rule="evenodd" fill-opacity="1" /><path clip-path="url(#clip980)" d="M2083.2 9.62495 Q2077.77 18.942 2075.14 28.0566 Q2072.5 37.1711 2072.5 46.5287 Q2072.5 55.8863 2075.14 65.0818 Q2077.81 74.2369 2083.2 83.5134 L2076.72 83.5134 Q2070.64 73.9938 2067.6 64.7983 Q2064.6 55.6027 2064.6 46.5287 Q2064.6 37.4952 2067.6 28.3401 Q2070.6 19.1851 2076.72 9.62495 L2083.2 9.62495 Z" fill="#000000" fill-rule="evenodd" fill-opacity="1" /><path clip-path="url(#clip980)" d="M2097.38 9.54393 L2104.87 9.54393 L2104.87 46.7717 L2127.11 27.2059 L2136.63 27.2059 L2112.57 48.4326 L2137.64 72.576 L2127.92 72.576 L2104.87 50.4176 L2104.87 72.576 L2097.38 72.576 L2097.38 9.54393 Z" fill="#000000" fill-rule="evenodd" fill-opacity="1" /><path clip-path="url(#clip980)" d="M2154.21 18.8205 L2154.21 41.5461 L2164.5 41.5461 Q2170.21 41.5461 2173.33 38.5889 Q2176.45 35.6318 2176.45 30.163 Q2176.45 24.7348 2173.33 21.7777 Q2170.21 18.8205 2164.5 18.8205 L2154.21 18.8205 M2146.03 12.096 L2164.5 12.096 Q2174.67 12.096 2179.85 16.714 Q2185.08 21.2916 2185.08 30.163 Q2185.08 39.1155 2179.85 43.6931 Q2174.67 48.2706 2164.5 48.2706 L2154.21 48.2706 L2154.21 72.576 L2146.03 72.576 L2146.03 12.096 Z" fill="#000000" fill-rule="evenodd" fill-opacity="1" /><path clip-path="url(#clip980)" d="M2212.62 49.7694 Q2203.59 49.7694 2200.11 51.8354 Q2196.62 53.9013 2196.62 58.8839 Q2196.62 62.8538 2199.22 65.2034 Q2201.85 67.5124 2206.35 67.5124 Q2212.54 67.5124 2216.27 63.1374 Q2220.04 58.7219 2220.04 51.4303 L2220.04 49.7694 L2212.62 49.7694 M2227.49 46.6907 L2227.49 72.576 L2220.04 72.576 L2220.04 65.6895 Q2217.49 69.8214 2213.68 71.8063 Q2209.87 73.7508 2204.36 73.7508 Q2197.39 73.7508 2193.26 69.8619 Q2189.17 65.9325 2189.17 59.3701 Q2189.17 51.7138 2194.27 47.825 Q2199.42 43.9361 2209.59 43.9361 L2220.04 43.9361 L2220.04 43.2069 Q2220.04 38.0623 2216.64 35.2672 Q2213.27 32.4315 2207.16 32.4315 Q2203.27 32.4315 2199.58 33.3632 Q2195.89 34.295 2192.49 36.1584 L2192.49 29.2718 Q2196.58 27.692 2200.43 26.9223 Q2204.28 26.1121 2207.93 26.1121 Q2217.77 26.1121 2222.63 31.2163 Q2227.49 36.3204 2227.49 46.6907 Z" fill="#000000" fill-rule="evenodd" fill-opacity="1" /><path clip-path="url(#clip980)" d="M2241.67 9.62495 L2248.15 9.62495 Q2254.23 19.1851 2257.23 28.3401 Q2260.26 37.4952 2260.26 46.5287 Q2260.26 55.6027 2257.23 64.7983 Q2254.23 73.9938 2248.15 83.5134 L2241.67 83.5134 Q2247.06 74.2369 2249.69 65.0818 Q2252.36 55.8863 2252.36 46.5287 Q2252.36 37.1711 2249.69 28.0566 Q2247.06 18.942 2241.67 9.62495 Z" fill="#000000" fill-rule="evenodd" fill-opacity="1" /><polyline clip-path="url(#clip983)" style="stroke:#009af9; stroke-linecap:butt; stroke-linejoin:round; stroke-width:4; stroke-opacity:1; fill:none" points="
  2517.58,1350.93 2494.61,1336.42 2472.08,1321.9 2449.99,1307.39 2428.33,1292.88 2407.1,1278.36 2386.28,1263.85 2365.86,1249.34 2345.85,1234.82 2326.24,1220.31 
  2307.02,1205.8 2288.18,1191.28 2269.71,1176.77 2251.62,1162.25 2233.89,1147.74 2216.52,1133.23 2199.5,1118.71 2182.83,1104.2 2166.5,1089.69 2150.5,1075.17 
  2134.83,1060.66 2119.48,1046.15 2104.45,1031.63 2089.74,1017.12 2075.33,1002.61 2061.22,988.092 2047.4,973.579 2033.88,959.065 2020.64,944.552 2007.68,930.038 
  1994.99,915.525 1982.58,901.011 1970.44,886.497 1958.56,871.984 1946.94,857.47 1935.57,842.957 1924.44,828.443 1913.56,813.93 1902.92,799.416 1892.52,784.903 
  1882.34,770.389 1872.39,755.876 1862.67,741.362 1853.16,726.849 1843.86,712.335 1834.77,697.822 1825.89,683.308 1817.21,668.794 1808.73,654.281 1800.44,639.767 
  1792.34,625.254 1784.42,610.74 1776.69,596.227 1769.14,581.713 1761.76,567.2 1754.55,552.686 1747.51,538.173 1740.63,523.659 1733.92,509.146 1727.36,494.632 
  1720.96,480.119 1714.71,465.605 1708.61,451.092 1702.65,436.578 1696.83,422.064 1691.16,407.551 1685.62,393.037 1680.22,378.524 1674.94,364.01 1669.8,349.497 
  1664.77,334.983 1659.87,320.47 1655.08,305.956 1650.42,291.443 1645.86,276.929 1641.42,262.416 1637.08,247.902 1632.85,233.389 1628.73,218.875 1624.71,204.361 
  
  "/>
<polyline clip-path="url(#clip983)" style="stroke:#e26f46; stroke-linecap:butt; stroke-linejoin:round; stroke-width:4; stroke-opacity:1; fill:none" points="
  2529.24,1358.19 2506.04,1343.67 2483.29,1329.16 2460.99,1314.65 2439.11,1300.13 2417.66,1285.62 2396.63,1271.11 2376.02,1256.59 2355.81,1242.08 2336,1227.57 
  2316.58,1213.05 2297.55,1198.54 2278.9,1184.02 2260.62,1169.51 2242.71,1155 2225.16,1140.48 2207.97,1125.97 2191.12,1111.46 2174.62,1096.94 2158.46,1082.43 
  2142.62,1067.92 2127.12,1053.4 2111.93,1038.89 2097.06,1024.38 2082.49,1009.86 2068.23,995.349 2054.27,980.835 2040.6,966.322 2027.22,951.808 2014.12,937.295 
  2001.3,922.781 1988.76,908.268 1976.48,893.754 1964.47,879.241 1952.72,864.727 1941.22,850.214 1929.97,835.7 1918.97,821.187 1908.21,806.673 1897.69,792.16 
  1887.4,777.646 1877.34,763.132 1867.5,748.619 1857.89,734.105 1848.48,719.592 1839.29,705.078 1830.31,690.565 1821.53,676.051 1812.95,661.538 1804.56,647.024 
  1796.36,632.511 1788.36,617.997 1780.53,603.484 1772.89,588.97 1765.42,574.457 1758.13,559.943 1751.01,545.429 1744.05,530.916 1737.25,516.402 1730.62,501.889 
  1724.14,487.375 1717.81,472.862 1711.64,458.348 1705.61,443.835 1699.72,429.321 1693.98,414.808 1688.37,400.294 1682.9,385.781 1677.56,371.267 1672.35,356.754 
  1667.27,342.24 1662.31,327.727 1657.46,313.213 1652.74,298.699 1648.12,284.186 1643.62,269.672 1639.23,255.159 1634.95,240.645 1630.78,226.132 1626.71,211.618 
  1622.74,197.105 
  "/>
<path clip-path="url(#clip980)" d="
M2245.35 358.817 L2524.4 358.817 L2524.4 203.297 L2245.35 203.297  Z
  " fill="#ffffff" fill-rule="evenodd" fill-opacity="1"/>
<polyline clip-path="url(#clip980)" style="stroke:#000000; stroke-linecap:butt; stroke-linejoin:round; stroke-width:4; stroke-opacity:1; fill:none" points="
  2245.35,358.817 2524.4,358.817 2524.4,203.297 2245.35,203.297 2245.35,358.817 
  "/>
<polyline clip-path="url(#clip980)" style="stroke:#009af9; stroke-linecap:butt; stroke-linejoin:round; stroke-width:4; stroke-opacity:1; fill:none" points="
  2256.02,255.137 2320.08,255.137 
  "/>
<path clip-path="url(#clip980)" d="M2351.27 247.487 L2351.27 251.468 Q2349.46 250.473 2347.63 249.987 Q2345.83 249.477 2343.97 249.477 Q2339.83 249.477 2337.54 252.116 Q2335.25 254.732 2335.25 259.477 Q2335.25 264.223 2337.54 266.862 Q2339.83 269.477 2343.97 269.477 Q2345.83 269.477 2347.63 268.991 Q2349.46 268.482 2351.27 267.487 L2351.27 271.422 Q2349.48 272.255 2347.56 272.672 Q2345.66 273.088 2343.51 273.088 Q2337.66 273.088 2334.21 269.408 Q2330.76 265.727 2330.76 259.477 Q2330.76 253.135 2334.23 249.501 Q2337.72 245.866 2343.79 245.866 Q2345.76 245.866 2347.63 246.283 Q2349.51 246.677 2351.27 247.487 Z" fill="#000000" fill-rule="evenodd" fill-opacity="1" /><path clip-path="url(#clip980)" d="M2380.85 258.389 L2380.85 260.473 L2361.27 260.473 Q2361.54 264.871 2363.91 267.186 Q2366.29 269.477 2370.53 269.477 Q2372.98 269.477 2375.27 268.876 Q2377.59 268.274 2379.85 267.07 L2379.85 271.098 Q2377.56 272.07 2375.16 272.579 Q2372.75 273.088 2370.27 273.088 Q2364.07 273.088 2360.43 269.477 Q2356.82 265.866 2356.82 259.709 Q2356.82 253.343 2360.25 249.616 Q2363.7 245.866 2369.53 245.866 Q2374.76 245.866 2377.79 249.246 Q2380.85 252.602 2380.85 258.389 M2376.59 257.139 Q2376.54 253.644 2374.62 251.561 Q2372.72 249.477 2369.58 249.477 Q2366.01 249.477 2363.86 251.491 Q2361.73 253.505 2361.41 257.163 L2376.59 257.139 Z" fill="#000000" fill-rule="evenodd" fill-opacity="1" /><path clip-path="url(#clip980)" d="M2409.39 256.769 L2409.39 272.417 L2405.13 272.417 L2405.13 256.908 Q2405.13 253.227 2403.7 251.399 Q2402.26 249.57 2399.39 249.57 Q2395.94 249.57 2393.95 251.769 Q2391.96 253.968 2391.96 257.764 L2391.96 272.417 L2387.68 272.417 L2387.68 246.491 L2391.96 246.491 L2391.96 250.519 Q2393.49 248.181 2395.55 247.024 Q2397.63 245.866 2400.34 245.866 Q2404.81 245.866 2407.1 248.644 Q2409.39 251.399 2409.39 256.769 Z" fill="#000000" fill-rule="evenodd" fill-opacity="1" /><path clip-path="url(#clip980)" d="M2422.1 239.13 L2422.1 246.491 L2430.87 246.491 L2430.87 249.802 L2422.1 249.802 L2422.1 263.876 Q2422.1 267.047 2422.96 267.95 Q2423.84 268.852 2426.5 268.852 L2430.87 268.852 L2430.87 272.417 L2426.5 272.417 Q2421.57 272.417 2419.69 270.588 Q2417.82 268.737 2417.82 263.876 L2417.82 249.802 L2414.69 249.802 L2414.69 246.491 L2417.82 246.491 L2417.82 239.13 L2422.1 239.13 Z" fill="#000000" fill-rule="evenodd" fill-opacity="1" /><path clip-path="url(#clip980)" d="M2458.65 258.389 L2458.65 260.473 L2439.07 260.473 Q2439.34 264.871 2441.71 267.186 Q2444.09 269.477 2448.33 269.477 Q2450.78 269.477 2453.07 268.876 Q2455.39 268.274 2457.65 267.07 L2457.65 271.098 Q2455.36 272.07 2452.96 272.579 Q2450.55 273.088 2448.07 273.088 Q2441.87 273.088 2438.23 269.477 Q2434.62 265.866 2434.62 259.709 Q2434.62 253.343 2438.05 249.616 Q2441.5 245.866 2447.33 245.866 Q2452.56 245.866 2455.59 249.246 Q2458.65 252.602 2458.65 258.389 M2454.39 257.139 Q2454.34 253.644 2452.42 251.561 Q2450.53 249.477 2447.38 249.477 Q2443.81 249.477 2441.66 251.491 Q2439.53 253.505 2439.21 257.163 L2454.39 257.139 Z" fill="#000000" fill-rule="evenodd" fill-opacity="1" /><path clip-path="url(#clip980)" d="M2480.66 250.473 Q2479.95 250.056 2479.09 249.871 Q2478.26 249.663 2477.24 249.663 Q2473.63 249.663 2471.68 252.024 Q2469.76 254.362 2469.76 258.76 L2469.76 272.417 L2465.48 272.417 L2465.48 246.491 L2469.76 246.491 L2469.76 250.519 Q2471.1 248.158 2473.26 247.024 Q2475.41 245.866 2478.49 245.866 Q2478.93 245.866 2479.46 245.936 Q2479.99 245.982 2480.64 246.098 L2480.66 250.473 Z" fill="#000000" fill-rule="evenodd" fill-opacity="1" /><path clip-path="url(#clip980)" d="M2501.66 247.255 L2501.66 251.283 Q2499.85 250.357 2497.91 249.894 Q2495.96 249.431 2493.88 249.431 Q2490.71 249.431 2489.11 250.403 Q2487.54 251.376 2487.54 253.32 Q2487.54 254.802 2488.67 255.658 Q2489.81 256.491 2493.23 257.255 L2494.69 257.579 Q2499.23 258.552 2501.13 260.334 Q2503.05 262.093 2503.05 265.264 Q2503.05 268.876 2500.18 270.982 Q2497.33 273.088 2492.33 273.088 Q2490.25 273.088 2487.98 272.672 Q2485.73 272.278 2483.23 271.468 L2483.23 267.07 Q2485.59 268.297 2487.89 268.922 Q2490.18 269.524 2492.42 269.524 Q2495.43 269.524 2497.05 268.505 Q2498.67 267.463 2498.67 265.589 Q2498.67 263.852 2497.49 262.926 Q2496.33 262.001 2492.38 261.144 L2490.9 260.797 Q2486.94 259.964 2485.18 258.251 Q2483.42 256.514 2483.42 253.505 Q2483.42 249.848 2486.01 247.857 Q2488.6 245.866 2493.37 245.866 Q2495.73 245.866 2497.82 246.214 Q2499.9 246.561 2501.66 247.255 Z" fill="#000000" fill-rule="evenodd" fill-opacity="1" /><polyline clip-path="url(#clip980)" style="stroke:#e26f46; stroke-linecap:butt; stroke-linejoin:round; stroke-width:4; stroke-opacity:1; fill:none" points="
  2256.02,306.977 2320.08,306.977 
  "/>
<path clip-path="url(#clip980)" d="M2347.26 288.239 L2347.26 291.78 L2343.19 291.78 Q2340.9 291.78 2339.99 292.706 Q2339.11 293.632 2339.11 296.04 L2339.11 298.331 L2346.13 298.331 L2346.13 301.642 L2339.11 301.642 L2339.11 324.257 L2334.83 324.257 L2334.83 301.642 L2330.76 301.642 L2330.76 298.331 L2334.83 298.331 L2334.83 296.526 Q2334.83 292.197 2336.85 290.23 Q2338.86 288.239 2343.23 288.239 L2347.26 288.239 Z" fill="#000000" fill-rule="evenodd" fill-opacity="1" /><path clip-path="url(#clip980)" d="M2362.61 311.225 Q2357.45 311.225 2355.46 312.405 Q2353.47 313.586 2353.47 316.433 Q2353.47 318.702 2354.95 320.044 Q2356.45 321.364 2359.02 321.364 Q2362.56 321.364 2364.69 318.864 Q2366.84 316.341 2366.84 312.174 L2366.84 311.225 L2362.61 311.225 M2371.1 309.466 L2371.1 324.257 L2366.84 324.257 L2366.84 320.322 Q2365.39 322.683 2363.21 323.817 Q2361.03 324.928 2357.89 324.928 Q2353.91 324.928 2351.54 322.706 Q2349.21 320.461 2349.21 316.711 Q2349.21 312.336 2352.12 310.114 Q2355.06 307.892 2360.87 307.892 L2366.84 307.892 L2366.84 307.475 Q2366.84 304.535 2364.9 302.938 Q2362.98 301.317 2359.48 301.317 Q2357.26 301.317 2355.16 301.85 Q2353.05 302.382 2351.1 303.447 L2351.1 299.512 Q2353.44 298.609 2355.64 298.169 Q2357.84 297.706 2359.92 297.706 Q2365.55 297.706 2368.33 300.623 Q2371.1 303.54 2371.1 309.466 Z" fill="#000000" fill-rule="evenodd" fill-opacity="1" /><path clip-path="url(#clip980)" d="M2398.53 299.327 L2398.53 303.308 Q2396.73 302.313 2394.9 301.827 Q2393.09 301.317 2391.24 301.317 Q2387.1 301.317 2384.81 303.956 Q2382.52 306.572 2382.52 311.317 Q2382.52 316.063 2384.81 318.702 Q2387.1 321.317 2391.24 321.317 Q2393.09 321.317 2394.9 320.831 Q2396.73 320.322 2398.53 319.327 L2398.53 323.262 Q2396.75 324.095 2394.83 324.512 Q2392.93 324.928 2390.78 324.928 Q2384.92 324.928 2381.47 321.248 Q2378.03 317.567 2378.03 311.317 Q2378.03 304.975 2381.5 301.341 Q2384.99 297.706 2391.06 297.706 Q2393.03 297.706 2394.9 298.123 Q2396.78 298.517 2398.53 299.327 Z" fill="#000000" fill-rule="evenodd" fill-opacity="1" /><path clip-path="url(#clip980)" d="M2428.12 310.229 L2428.12 312.313 L2408.53 312.313 Q2408.81 316.711 2411.17 319.026 Q2413.56 321.317 2417.79 321.317 Q2420.25 321.317 2422.54 320.716 Q2424.85 320.114 2427.12 318.91 L2427.12 322.938 Q2424.83 323.91 2422.42 324.419 Q2420.02 324.928 2417.54 324.928 Q2411.34 324.928 2407.7 321.317 Q2404.09 317.706 2404.09 311.549 Q2404.09 305.183 2407.52 301.456 Q2410.97 297.706 2416.8 297.706 Q2422.03 297.706 2425.06 301.086 Q2428.12 304.442 2428.12 310.229 M2423.86 308.979 Q2423.81 305.484 2421.89 303.401 Q2419.99 301.317 2416.84 301.317 Q2413.28 301.317 2411.13 303.331 Q2409 305.345 2408.67 309.003 L2423.86 308.979 Z" fill="#000000" fill-rule="evenodd" fill-opacity="1" /><path clip-path="url(#clip980)" d="M2451.64 299.095 L2451.64 303.123 Q2449.83 302.197 2447.89 301.734 Q2445.94 301.271 2443.86 301.271 Q2440.69 301.271 2439.09 302.243 Q2437.52 303.216 2437.52 305.16 Q2437.52 306.642 2438.65 307.498 Q2439.78 308.331 2443.21 309.095 L2444.67 309.419 Q2449.21 310.392 2451.1 312.174 Q2453.03 313.933 2453.03 317.104 Q2453.03 320.716 2450.15 322.822 Q2447.31 324.928 2442.31 324.928 Q2440.22 324.928 2437.96 324.512 Q2435.71 324.118 2433.21 323.308 L2433.21 318.91 Q2435.57 320.137 2437.86 320.762 Q2440.15 321.364 2442.4 321.364 Q2445.41 321.364 2447.03 320.345 Q2448.65 319.303 2448.65 317.429 Q2448.65 315.692 2447.47 314.766 Q2446.31 313.841 2442.35 312.984 L2440.87 312.637 Q2436.91 311.804 2435.15 310.091 Q2433.4 308.354 2433.4 305.345 Q2433.4 301.688 2435.99 299.697 Q2438.58 297.706 2443.35 297.706 Q2445.71 297.706 2447.79 298.054 Q2449.88 298.401 2451.64 299.095 Z" fill="#000000" fill-rule="evenodd" fill-opacity="1" /><path clip-path="url(#clip980)" d="
M2928.88 1393.02 L3889.76 1393.02 L3889.76 162.272 L2928.88 162.272  Z
  " fill="#ffffff" fill-rule="evenodd" fill-opacity="1"/>
<defs>
  <clipPath id="clip984">
    <rect x="2928" y="162" width="962" height="1232"/>
  </clipPath>
</defs>
<polyline clip-path="url(#clip984)" style="stroke:#000000; stroke-linecap:butt; stroke-linejoin:round; stroke-width:2; stroke-opacity:0.1; fill:none" points="
  2983.49,1393.02 2983.49,162.272 
  "/>
<polyline clip-path="url(#clip984)" style="stroke:#000000; stroke-linecap:butt; stroke-linejoin:round; stroke-width:2; stroke-opacity:0.1; fill:none" points="
  3193.02,1393.02 3193.02,162.272 
  "/>
<polyline clip-path="url(#clip984)" style="stroke:#000000; stroke-linecap:butt; stroke-linejoin:round; stroke-width:2; stroke-opacity:0.1; fill:none" points="
  3402.55,1393.02 3402.55,162.272 
  "/>
<polyline clip-path="url(#clip984)" style="stroke:#000000; stroke-linecap:butt; stroke-linejoin:round; stroke-width:2; stroke-opacity:0.1; fill:none" points="
  3612.08,1393.02 3612.08,162.272 
  "/>
<polyline clip-path="url(#clip984)" style="stroke:#000000; stroke-linecap:butt; stroke-linejoin:round; stroke-width:2; stroke-opacity:0.1; fill:none" points="
  3821.6,1393.02 3821.6,162.272 
  "/>
<polyline clip-path="url(#clip980)" style="stroke:#000000; stroke-linecap:butt; stroke-linejoin:round; stroke-width:4; stroke-opacity:1; fill:none" points="
  2928.88,1393.02 3889.76,1393.02 
  "/>
<polyline clip-path="url(#clip980)" style="stroke:#000000; stroke-linecap:butt; stroke-linejoin:round; stroke-width:4; stroke-opacity:1; fill:none" points="
  2983.49,1393.02 2983.49,1374.12 
  "/>
<polyline clip-path="url(#clip980)" style="stroke:#000000; stroke-linecap:butt; stroke-linejoin:round; stroke-width:4; stroke-opacity:1; fill:none" points="
  3193.02,1393.02 3193.02,1374.12 
  "/>
<polyline clip-path="url(#clip980)" style="stroke:#000000; stroke-linecap:butt; stroke-linejoin:round; stroke-width:4; stroke-opacity:1; fill:none" points="
  3402.55,1393.02 3402.55,1374.12 
  "/>
<polyline clip-path="url(#clip980)" style="stroke:#000000; stroke-linecap:butt; stroke-linejoin:round; stroke-width:4; stroke-opacity:1; fill:none" points="
  3612.08,1393.02 3612.08,1374.12 
  "/>
<polyline clip-path="url(#clip980)" style="stroke:#000000; stroke-linecap:butt; stroke-linejoin:round; stroke-width:4; stroke-opacity:1; fill:none" points="
  3821.6,1393.02 3821.6,1374.12 
  "/>
<path clip-path="url(#clip980)" d="M2973.88 1464.28 L2981.51 1464.28 L2981.51 1437.92 L2973.2 1439.59 L2973.2 1435.33 L2981.47 1433.66 L2986.14 1433.66 L2986.14 1464.28 L2993.78 1464.28 L2993.78 1468.22 L2973.88 1468.22 L2973.88 1464.28 Z" fill="#000000" fill-rule="evenodd" fill-opacity="1" /><path clip-path="url(#clip980)" d="M3187.67 1464.28 L3203.99 1464.28 L3203.99 1468.22 L3182.05 1468.22 L3182.05 1464.28 Q3184.71 1461.53 3189.29 1456.9 Q3193.9 1452.25 3195.08 1450.9 Q3197.33 1448.38 3198.21 1446.65 Q3199.11 1444.89 3199.11 1443.2 Q3199.11 1440.44 3197.16 1438.71 Q3195.24 1436.97 3192.14 1436.97 Q3189.94 1436.97 3187.49 1437.73 Q3185.06 1438.5 3182.28 1440.05 L3182.28 1435.33 Q3185.1 1434.19 3187.56 1433.61 Q3190.01 1433.03 3192.05 1433.03 Q3197.42 1433.03 3200.61 1435.72 Q3203.81 1438.41 3203.81 1442.9 Q3203.81 1445.03 3203 1446.95 Q3202.21 1448.84 3200.1 1451.44 Q3199.53 1452.11 3196.42 1455.33 Q3193.32 1458.52 3187.67 1464.28 Z" fill="#000000" fill-rule="evenodd" fill-opacity="1" /><path clip-path="url(#clip980)" d="M3406.8 1449.59 Q3410.15 1450.3 3412.03 1452.57 Q3413.93 1454.84 3413.93 1458.17 Q3413.93 1463.29 3410.41 1466.09 Q3406.89 1468.89 3400.41 1468.89 Q3398.23 1468.89 3395.92 1468.45 Q3393.63 1468.03 3391.17 1467.18 L3391.17 1462.66 Q3393.12 1463.8 3395.43 1464.38 Q3397.75 1464.96 3400.27 1464.96 Q3404.67 1464.96 3406.96 1463.22 Q3409.27 1461.48 3409.27 1458.17 Q3409.27 1455.12 3407.12 1453.4 Q3404.99 1451.67 3401.17 1451.67 L3397.14 1451.67 L3397.14 1447.83 L3401.36 1447.83 Q3404.81 1447.83 3406.63 1446.46 Q3408.46 1445.07 3408.46 1442.48 Q3408.46 1439.82 3406.57 1438.41 Q3404.69 1436.97 3401.17 1436.97 Q3399.25 1436.97 3397.05 1437.39 Q3394.85 1437.8 3392.21 1438.68 L3392.21 1434.52 Q3394.88 1433.78 3397.19 1433.41 Q3399.53 1433.03 3401.59 1433.03 Q3406.91 1433.03 3410.01 1435.47 Q3413.12 1437.87 3413.12 1441.99 Q3413.12 1444.86 3411.47 1446.85 Q3409.83 1448.82 3406.8 1449.59 Z" fill="#000000" fill-rule="evenodd" fill-opacity="1" /><path clip-path="url(#clip980)" d="M3615.09 1437.73 L3603.28 1456.18 L3615.09 1456.18 L3615.09 1437.73 M3613.86 1433.66 L3619.74 1433.66 L3619.74 1456.18 L3624.67 1456.18 L3624.67 1460.07 L3619.74 1460.07 L3619.74 1468.22 L3615.09 1468.22 L3615.09 1460.07 L3599.48 1460.07 L3599.48 1455.56 L3613.86 1433.66 Z" fill="#000000" fill-rule="evenodd" fill-opacity="1" /><path clip-path="url(#clip980)" d="M3811.88 1433.66 L3830.24 1433.66 L3830.24 1437.59 L3816.16 1437.59 L3816.16 1446.07 Q3817.18 1445.72 3818.2 1445.56 Q3819.22 1445.37 3820.24 1445.37 Q3826.03 1445.37 3829.4 1448.54 Q3832.78 1451.72 3832.78 1457.13 Q3832.78 1462.71 3829.31 1465.81 Q3825.84 1468.89 3819.52 1468.89 Q3817.34 1468.89 3815.08 1468.52 Q3812.83 1468.15 3810.42 1467.41 L3810.42 1462.71 Q3812.51 1463.84 3814.73 1464.4 Q3816.95 1464.96 3819.43 1464.96 Q3823.43 1464.96 3825.77 1462.85 Q3828.11 1460.74 3828.11 1457.13 Q3828.11 1453.52 3825.77 1451.41 Q3823.43 1449.31 3819.43 1449.31 Q3817.55 1449.31 3815.68 1449.72 Q3813.83 1450.14 3811.88 1451.02 L3811.88 1433.66 Z" fill="#000000" fill-rule="evenodd" fill-opacity="1" /><path clip-path="url(#clip980)" d="M3378.1 1545.3 L3376.7 1537.95 Q3375.26 1530.41 3369.6 1530.41 Q3365.33 1530.41 3363.39 1533.91 Q3360.94 1538.3 3360.94 1544.09 Q3360.94 1551.09 3363.33 1554.44 Q3365.75 1557.84 3369.6 1557.84 Q3373.86 1557.84 3376.16 1551.06 L3378.1 1545.3 M3381.38 1535.56 L3384.53 1526.24 L3389.75 1526.24 L3383.22 1545.56 L3384.49 1552.53 Q3384.78 1554.09 3385.9 1555.39 Q3387.2 1556.92 3388.22 1556.92 L3391.02 1556.92 L3391.02 1561.88 L3387.52 1561.88 Q3384.53 1561.88 3381.85 1559.21 Q3380.55 1557.87 3380.01 1555.07 Q3378.54 1558.61 3375.55 1561.37 Q3374.15 1562.68 3369.6 1562.68 Q3362.12 1562.68 3358.49 1557.84 Q3354.77 1552.84 3354.77 1544.09 Q3354.77 1534.73 3358.81 1530.34 Q3363.3 1525.44 3369.6 1525.44 Q3379.5 1525.44 3381.38 1535.56 Z" fill="#000000" fill-rule="evenodd" fill-opacity="1" /><path clip-path="url(#clip980)" d="M3427.37 1572.71 L3427.37 1577.26 L3393.5 1577.26 L3393.5 1572.71 L3427.37 1572.71 Z" fill="#000000" fill-rule="evenodd" fill-opacity="1" /><path clip-path="url(#clip980)" d="M3447.45 1518.6 Q3442.49 1518.6 3439.97 1523.5 Q3437.49 1528.37 3437.49 1538.17 Q3437.49 1547.94 3439.97 1552.84 Q3442.49 1557.71 3447.45 1557.71 Q3452.45 1557.71 3454.93 1552.84 Q3457.45 1547.94 3457.45 1538.17 Q3457.45 1528.37 3454.93 1523.5 Q3452.45 1518.6 3447.45 1518.6 M3447.45 1513.5 Q3455.44 1513.5 3459.64 1519.84 Q3463.88 1526.14 3463.88 1538.17 Q3463.88 1550.17 3459.64 1556.5 Q3455.44 1562.81 3447.45 1562.81 Q3439.46 1562.81 3435.23 1556.5 Q3431.03 1550.17 3431.03 1538.17 Q3431.03 1526.14 3435.23 1519.84 Q3439.46 1513.5 3447.45 1513.5 Z" fill="#000000" fill-rule="evenodd" fill-opacity="1" /><polyline clip-path="url(#clip984)" style="stroke:#000000; stroke-linecap:butt; stroke-linejoin:round; stroke-width:2; stroke-opacity:0.1; fill:none" points="
  2928.88,1358.19 3889.76,1358.19 
  "/>
<polyline clip-path="url(#clip984)" style="stroke:#000000; stroke-linecap:butt; stroke-linejoin:round; stroke-width:2; stroke-opacity:0.1; fill:none" points="
  2928.88,995.349 3889.76,995.349 
  "/>
<polyline clip-path="url(#clip984)" style="stroke:#000000; stroke-linecap:butt; stroke-linejoin:round; stroke-width:2; stroke-opacity:0.1; fill:none" points="
  2928.88,632.511 3889.76,632.511 
  "/>
<polyline clip-path="url(#clip984)" style="stroke:#000000; stroke-linecap:butt; stroke-linejoin:round; stroke-width:2; stroke-opacity:0.1; fill:none" points="
  2928.88,269.672 3889.76,269.672 
  "/>
<polyline clip-path="url(#clip980)" style="stroke:#000000; stroke-linecap:butt; stroke-linejoin:round; stroke-width:4; stroke-opacity:1; fill:none" points="
  2928.88,1393.02 2928.88,162.272 
  "/>
<polyline clip-path="url(#clip980)" style="stroke:#000000; stroke-linecap:butt; stroke-linejoin:round; stroke-width:4; stroke-opacity:1; fill:none" points="
  2928.88,1358.19 2947.78,1358.19 
  "/>
<polyline clip-path="url(#clip980)" style="stroke:#000000; stroke-linecap:butt; stroke-linejoin:round; stroke-width:4; stroke-opacity:1; fill:none" points="
  2928.88,995.349 2947.78,995.349 
  "/>
<polyline clip-path="url(#clip980)" style="stroke:#000000; stroke-linecap:butt; stroke-linejoin:round; stroke-width:4; stroke-opacity:1; fill:none" points="
  2928.88,632.511 2947.78,632.511 
  "/>
<polyline clip-path="url(#clip980)" style="stroke:#000000; stroke-linecap:butt; stroke-linejoin:round; stroke-width:4; stroke-opacity:1; fill:none" points="
  2928.88,269.672 2947.78,269.672 
  "/>
<path clip-path="url(#clip980)" d="M2856.93 1343.99 Q2853.32 1343.99 2851.49 1347.55 Q2849.69 1351.09 2849.69 1358.22 Q2849.69 1365.33 2851.49 1368.89 Q2853.32 1372.43 2856.93 1372.43 Q2860.57 1372.43 2862.37 1368.89 Q2864.2 1365.33 2864.2 1358.22 Q2864.2 1351.09 2862.37 1347.55 Q2860.57 1343.99 2856.93 1343.99 M2856.93 1340.28 Q2862.74 1340.28 2865.8 1344.89 Q2868.88 1349.47 2868.88 1358.22 Q2868.88 1366.95 2865.8 1371.56 Q2862.74 1376.14 2856.93 1376.14 Q2851.12 1376.14 2848.05 1371.56 Q2844.99 1366.95 2844.99 1358.22 Q2844.99 1349.47 2848.05 1344.89 Q2851.12 1340.28 2856.93 1340.28 Z" fill="#000000" fill-rule="evenodd" fill-opacity="1" /><path clip-path="url(#clip980)" d="M2847.98 978.069 L2866.33 978.069 L2866.33 982.004 L2852.26 982.004 L2852.26 990.476 Q2853.28 990.129 2854.3 989.967 Q2855.31 989.782 2856.33 989.782 Q2862.12 989.782 2865.5 992.953 Q2868.88 996.124 2868.88 1001.54 Q2868.88 1007.12 2865.41 1010.22 Q2861.93 1013.3 2855.61 1013.3 Q2853.44 1013.3 2851.17 1012.93 Q2848.92 1012.56 2846.52 1011.82 L2846.52 1007.12 Q2848.6 1008.25 2850.82 1008.81 Q2853.05 1009.37 2855.52 1009.37 Q2859.53 1009.37 2861.86 1007.26 Q2864.2 1005.15 2864.2 1001.54 Q2864.2 997.93 2861.86 995.823 Q2859.53 993.717 2855.52 993.717 Q2853.65 993.717 2851.77 994.134 Q2849.92 994.55 2847.98 995.43 L2847.98 978.069 Z" fill="#000000" fill-rule="evenodd" fill-opacity="1" /><path clip-path="url(#clip980)" d="M2817.58 645.856 L2825.22 645.856 L2825.22 619.49 L2816.91 621.157 L2816.91 616.897 L2825.17 615.231 L2829.85 615.231 L2829.85 645.856 L2837.49 645.856 L2837.49 649.791 L2817.58 649.791 L2817.58 645.856 Z" fill="#000000" fill-rule="evenodd" fill-opacity="1" /><path clip-path="url(#clip980)" d="M2856.93 618.309 Q2853.32 618.309 2851.49 621.874 Q2849.69 625.416 2849.69 632.545 Q2849.69 639.652 2851.49 643.217 Q2853.32 646.758 2856.93 646.758 Q2860.57 646.758 2862.37 643.217 Q2864.2 639.652 2864.2 632.545 Q2864.2 625.416 2862.37 621.874 Q2860.57 618.309 2856.93 618.309 M2856.93 614.606 Q2862.74 614.606 2865.8 619.212 Q2868.88 623.795 2868.88 632.545 Q2868.88 641.272 2865.8 645.879 Q2862.74 650.462 2856.93 650.462 Q2851.12 650.462 2848.05 645.879 Q2844.99 641.272 2844.99 632.545 Q2844.99 623.795 2848.05 619.212 Q2851.12 614.606 2856.93 614.606 Z" fill="#000000" fill-rule="evenodd" fill-opacity="1" /><path clip-path="url(#clip980)" d="M2818.58 283.017 L2826.22 283.017 L2826.22 256.652 L2817.91 258.318 L2817.91 254.059 L2826.17 252.392 L2830.85 252.392 L2830.85 283.017 L2838.48 283.017 L2838.48 286.952 L2818.58 286.952 L2818.58 283.017 Z" fill="#000000" fill-rule="evenodd" fill-opacity="1" /><path clip-path="url(#clip980)" d="M2847.98 252.392 L2866.33 252.392 L2866.33 256.328 L2852.26 256.328 L2852.26 264.8 Q2853.28 264.453 2854.3 264.29 Q2855.31 264.105 2856.33 264.105 Q2862.12 264.105 2865.5 267.277 Q2868.88 270.448 2868.88 275.864 Q2868.88 281.443 2865.41 284.545 Q2861.93 287.624 2855.61 287.624 Q2853.44 287.624 2851.17 287.253 Q2848.92 286.883 2846.52 286.142 L2846.52 281.443 Q2848.6 282.577 2850.82 283.133 Q2853.05 283.689 2855.52 283.689 Q2859.53 283.689 2861.86 281.582 Q2864.2 279.476 2864.2 275.864 Q2864.2 272.253 2861.86 270.147 Q2859.53 268.04 2855.52 268.04 Q2853.65 268.04 2851.77 268.457 Q2849.92 268.874 2847.98 269.753 L2847.98 252.392 Z" fill="#000000" fill-rule="evenodd" fill-opacity="1" /><path clip-path="url(#clip980)" d="M2707.01 876.171 L2707.01 848.353 L2712.35 848.353 L2737.98 870.378 L2737.98 848.353 L2742.65 848.353 L2742.65 876.967 L2737.31 876.967 L2711.69 854.942 L2711.69 876.171 L2707.01 876.171 Z" fill="#000000" fill-rule="evenodd" fill-opacity="1" /><path clip-path="url(#clip980)" d="M2693.19 804.621 Q2700.51 808.886 2707.68 810.955 Q2714.84 813.023 2722.19 813.023 Q2729.54 813.023 2736.77 810.955 Q2743.96 808.854 2751.25 804.621 L2751.25 809.713 Q2743.77 814.488 2736.54 816.875 Q2729.32 819.23 2722.19 819.23 Q2715.09 819.23 2707.9 816.875 Q2700.7 814.519 2693.19 809.713 L2693.19 804.621 Z" fill="#000000" fill-rule="evenodd" fill-opacity="1" /><path clip-path="url(#clip980)" d="M2693.13 793.481 L2693.13 787.592 L2722.38 787.592 L2707.01 770.119 L2707.01 762.639 L2723.69 781.545 L2742.65 761.843 L2742.65 769.482 L2725.24 787.592 L2742.65 787.592 L2742.65 793.481 L2693.13 793.481 Z" fill="#000000" fill-rule="evenodd" fill-opacity="1" /><path clip-path="url(#clip980)" d="M2713.85 727.755 Q2709.9 725.559 2708.03 722.503 Q2706.15 719.448 2706.15 715.31 Q2706.15 709.74 2710.06 706.716 Q2713.95 703.692 2721.14 703.692 L2742.65 703.692 L2742.65 709.581 L2721.33 709.581 Q2716.21 709.581 2713.72 711.395 Q2711.24 713.209 2711.24 716.933 Q2711.24 721.485 2714.26 724.126 Q2717.29 726.768 2722.51 726.768 L2742.65 726.768 L2742.65 732.656 L2721.33 732.656 Q2716.17 732.656 2713.72 734.471 Q2711.24 736.285 2711.24 740.072 Q2711.24 744.56 2714.3 747.202 Q2717.32 749.844 2722.51 749.844 L2742.65 749.844 L2742.65 755.732 L2707.01 755.732 L2707.01 749.844 L2712.55 749.844 Q2709.27 747.839 2707.71 745.038 Q2706.15 742.237 2706.15 738.385 Q2706.15 734.502 2708.12 731.797 Q2710.09 729.06 2713.85 727.755 Z" fill="#000000" fill-rule="evenodd" fill-opacity="1" /><path clip-path="url(#clip980)" d="M2693.19 692.934 L2693.19 687.842 Q2700.7 683.067 2707.9 680.712 Q2715.09 678.325 2722.19 678.325 Q2729.32 678.325 2736.54 680.712 Q2743.77 683.067 2751.25 687.842 L2751.25 692.934 Q2743.96 688.701 2736.77 686.632 Q2729.54 684.532 2722.19 684.532 Q2714.84 684.532 2707.68 686.632 Q2700.51 688.701 2693.19 692.934 Z" fill="#000000" fill-rule="evenodd" fill-opacity="1" /><path clip-path="url(#clip980)" d="M3369.58 51.4708 L3367.8 42.1132 Q3365.98 32.5126 3358.77 32.5126 Q3353.34 32.5126 3350.87 36.9686 Q3347.75 42.5588 3347.75 49.9314 Q3347.75 58.8434 3350.79 63.0969 Q3353.86 67.4314 3358.77 67.4314 Q3364.19 67.4314 3367.11 58.8029 L3369.58 51.4708 M3373.75 39.075 L3377.76 27.2059 L3384.41 27.2059 L3376.1 51.7949 L3377.72 60.6663 Q3378.09 62.6513 3379.51 64.3122 Q3381.17 66.2566 3382.46 66.2566 L3386.03 66.2566 L3386.03 72.576 L3381.57 72.576 Q3377.76 72.576 3374.36 69.1732 Q3372.7 67.4719 3372.01 63.9071 Q3370.15 68.4036 3366.34 71.9279 Q3364.56 73.5887 3358.77 73.5887 Q3349.25 73.5887 3344.63 67.4314 Q3339.89 61.0714 3339.89 49.9314 Q3339.89 38.0218 3345.03 32.4315 Q3350.74 26.1931 3358.77 26.1931 Q3371.36 26.1931 3373.75 39.075 Z" fill="#000000" fill-rule="evenodd" fill-opacity="1" /><path clip-path="url(#clip980)" d="M3432.29 86.3491 L3432.29 92.1419 L3389.19 92.1419 L3389.19 86.3491 L3432.29 86.3491 Z" fill="#000000" fill-rule="evenodd" fill-opacity="1" /><path clip-path="url(#clip980)" d="M3457.85 17.4837 Q3451.53 17.4837 3448.33 23.7221 Q3445.17 29.92 3445.17 42.3968 Q3445.17 54.833 3448.33 61.0714 Q3451.53 67.2693 3457.85 67.2693 Q3464.21 67.2693 3467.37 61.0714 Q3470.57 54.833 3470.57 42.3968 Q3470.57 29.92 3467.37 23.7221 Q3464.21 17.4837 3457.85 17.4837 M3457.85 11.0023 Q3468.02 11.0023 3473.37 19.0636 Q3478.75 27.0843 3478.75 42.3968 Q3478.75 57.6687 3473.37 65.73 Q3468.02 73.7508 3457.85 73.7508 Q3447.68 73.7508 3442.3 65.73 Q3436.95 57.6687 3436.95 42.3968 Q3436.95 27.0843 3442.3 19.0636 Q3447.68 11.0023 3457.85 11.0023 Z" fill="#000000" fill-rule="evenodd" fill-opacity="1" /><polyline clip-path="url(#clip984)" style="stroke:#009af9; stroke-linecap:butt; stroke-linejoin:round; stroke-width:4; stroke-opacity:1; fill:none" points="
  2957.85,1350.93 2961.47,1336.42 2965.17,1321.9 2968.95,1307.39 2972.83,1292.88 2976.8,1278.36 2980.86,1263.85 2985.01,1249.34 2989.27,1234.82 2993.62,1220.31 
  2998.08,1205.8 3002.65,1191.28 3007.32,1176.77 3012.11,1162.25 3017.01,1147.74 3022.03,1133.23 3027.17,1118.71 3032.44,1104.2 3037.83,1089.69 3043.36,1075.17 
  3049.01,1060.66 3054.81,1046.15 3060.75,1031.63 3066.83,1017.12 3073.07,1002.61 3079.45,988.092 3086,973.579 3092.7,959.065 3099.58,944.552 3106.67,930.038 
  3113.94,915.525 3121.4,901.011 3129.05,886.497 3136.91,871.984 3144.96,857.47 3153.23,842.957 3161.7,828.443 3170.4,813.93 3179.33,799.416 3188.49,784.903 
  3197.89,770.389 3207.54,755.876 3217.44,741.362 3227.59,726.849 3238.02,712.335 3248.72,697.822 3259.71,683.308 3270.98,668.794 3282.56,654.281 3294.44,639.767 
  3306.64,625.254 3319.16,610.74 3332.02,596.227 3345.22,581.713 3358.78,567.2 3372.71,552.686 3387.01,538.173 3401.7,523.659 3416.79,509.146 3432.29,494.632 
  3448.22,480.119 3464.59,465.605 3481.42,451.092 3498.71,436.578 3516.49,422.064 3534.77,407.551 3553.58,393.037 3572.92,378.524 3592.74,364.01 3612.74,349.497 
  3633.31,334.983 3654.49,320.47 3676.29,305.956 3698.75,291.443 3721.88,276.929 3745.72,262.416 3770.3,247.902 3795.64,233.389 3821.78,218.875 3848.76,204.361 
  
  "/>
<polyline clip-path="url(#clip984)" style="stroke:#e26f46; stroke-linecap:butt; stroke-linejoin:round; stroke-width:4; stroke-opacity:1; fill:none" points="
  2956.07,1358.19 2959.65,1343.67 2963.31,1329.16 2967.05,1314.65 2970.88,1300.13 2974.8,1285.62 2978.82,1271.11 2982.92,1256.59 2987.13,1242.08 2991.43,1227.57 
  2995.84,1213.05 3000.35,1198.54 3004.97,1184.02 3009.7,1169.51 3014.55,1155 3019.51,1140.48 3024.59,1125.97 3029.79,1111.46 3035.12,1096.94 3040.58,1082.43 
  3046.17,1067.92 3051.9,1053.4 3057.76,1038.89 3063.77,1024.38 3069.93,1009.86 3076.24,995.349 3082.7,980.835 3089.33,966.322 3096.12,951.808 3103.1,937.295 
  3110.28,922.781 3117.65,908.268 3125.2,893.754 3132.96,879.241 3140.91,864.727 3149.07,850.214 3157.44,835.7 3166.03,821.187 3174.84,806.673 3183.88,792.16 
  3193.16,777.646 3202.68,763.132 3212.45,748.619 3222.48,734.105 3232.77,719.592 3243.34,705.078 3254.18,690.565 3265.31,676.051 3276.73,661.538 3288.46,647.024 
  3300.5,632.511 3312.86,617.997 3325.55,603.484 3338.58,588.97 3351.96,574.457 3365.7,559.943 3379.81,545.429 3394.31,530.916 3409.19,516.402 3424.49,501.889 
  3440.2,487.375 3456.35,472.862 3472.95,458.348 3490.01,443.835 3507.54,429.321 3525.57,414.808 3544.11,400.294 3563.18,385.781 3582.8,371.267 3602.67,356.754 
  3622.95,342.24 3643.82,327.727 3665.31,313.213 3687.44,298.699 3710.23,284.186 3733.71,269.672 3757.92,255.159 3782.87,240.645 3808.61,226.132 3835.16,211.618 
  3862.57,197.105 
  "/>
<path clip-path="url(#clip980)" d="
M3578.68 358.817 L3857.73 358.817 L3857.73 203.297 L3578.68 203.297  Z
  " fill="#ffffff" fill-rule="evenodd" fill-opacity="1"/>
<polyline clip-path="url(#clip980)" style="stroke:#000000; stroke-linecap:butt; stroke-linejoin:round; stroke-width:4; stroke-opacity:1; fill:none" points="
  3578.68,358.817 3857.73,358.817 3857.73,203.297 3578.68,203.297 3578.68,358.817 
  "/>
<polyline clip-path="url(#clip980)" style="stroke:#009af9; stroke-linecap:butt; stroke-linejoin:round; stroke-width:4; stroke-opacity:1; fill:none" points="
  3589.35,255.137 3653.41,255.137 
  "/>
<path clip-path="url(#clip980)" d="M3684.6 247.487 L3684.6 251.468 Q3682.79 250.473 3680.97 249.987 Q3679.16 249.477 3677.31 249.477 Q3673.16 249.477 3670.87 252.116 Q3668.58 254.732 3668.58 259.477 Q3668.58 264.223 3670.87 266.862 Q3673.16 269.477 3677.31 269.477 Q3679.16 269.477 3680.97 268.991 Q3682.79 268.482 3684.6 267.487 L3684.6 271.422 Q3682.82 272.255 3680.9 272.672 Q3679 273.088 3676.85 273.088 Q3670.99 273.088 3667.54 269.408 Q3664.09 265.727 3664.09 259.477 Q3664.09 253.135 3667.56 249.501 Q3671.06 245.866 3677.12 245.866 Q3679.09 245.866 3680.97 246.283 Q3682.84 246.677 3684.6 247.487 Z" fill="#000000" fill-rule="evenodd" fill-opacity="1" /><path clip-path="url(#clip980)" d="M3714.18 258.389 L3714.18 260.473 L3694.6 260.473 Q3694.88 264.871 3697.24 267.186 Q3699.62 269.477 3703.86 269.477 Q3706.31 269.477 3708.6 268.876 Q3710.92 268.274 3713.19 267.07 L3713.19 271.098 Q3710.9 272.07 3708.49 272.579 Q3706.08 273.088 3703.6 273.088 Q3697.4 273.088 3693.77 269.477 Q3690.16 265.866 3690.16 259.709 Q3690.16 253.343 3693.58 249.616 Q3697.03 245.866 3702.86 245.866 Q3708.09 245.866 3711.13 249.246 Q3714.18 252.602 3714.18 258.389 M3709.92 257.139 Q3709.88 253.644 3707.96 251.561 Q3706.06 249.477 3702.91 249.477 Q3699.34 249.477 3697.19 251.491 Q3695.06 253.505 3694.74 257.163 L3709.92 257.139 Z" fill="#000000" fill-rule="evenodd" fill-opacity="1" /><path clip-path="url(#clip980)" d="M3742.72 256.769 L3742.72 272.417 L3738.47 272.417 L3738.47 256.908 Q3738.47 253.227 3737.03 251.399 Q3735.59 249.57 3732.72 249.57 Q3729.28 249.57 3727.28 251.769 Q3725.29 253.968 3725.29 257.764 L3725.29 272.417 L3721.01 272.417 L3721.01 246.491 L3725.29 246.491 L3725.29 250.519 Q3726.82 248.181 3728.88 247.024 Q3730.97 245.866 3733.67 245.866 Q3738.14 245.866 3740.43 248.644 Q3742.72 251.399 3742.72 256.769 Z" fill="#000000" fill-rule="evenodd" fill-opacity="1" /><path clip-path="url(#clip980)" d="M3755.43 239.13 L3755.43 246.491 L3764.21 246.491 L3764.21 249.802 L3755.43 249.802 L3755.43 263.876 Q3755.43 267.047 3756.29 267.95 Q3757.17 268.852 3759.83 268.852 L3764.21 268.852 L3764.21 272.417 L3759.83 272.417 Q3754.9 272.417 3753.03 270.588 Q3751.15 268.737 3751.15 263.876 L3751.15 249.802 L3748.03 249.802 L3748.03 246.491 L3751.15 246.491 L3751.15 239.13 L3755.43 239.13 Z" fill="#000000" fill-rule="evenodd" fill-opacity="1" /><path clip-path="url(#clip980)" d="M3791.98 258.389 L3791.98 260.473 L3772.4 260.473 Q3772.68 264.871 3775.04 267.186 Q3777.42 269.477 3781.66 269.477 Q3784.11 269.477 3786.4 268.876 Q3788.72 268.274 3790.99 267.07 L3790.99 271.098 Q3788.7 272.07 3786.29 272.579 Q3783.88 273.088 3781.4 273.088 Q3775.2 273.088 3771.57 269.477 Q3767.96 265.866 3767.96 259.709 Q3767.96 253.343 3771.38 249.616 Q3774.83 245.866 3780.66 245.866 Q3785.9 245.866 3788.93 249.246 Q3791.98 252.602 3791.98 258.389 M3787.72 257.139 Q3787.68 253.644 3785.76 251.561 Q3783.86 249.477 3780.71 249.477 Q3777.15 249.477 3774.99 251.491 Q3772.86 253.505 3772.54 257.163 L3787.72 257.139 Z" fill="#000000" fill-rule="evenodd" fill-opacity="1" /><path clip-path="url(#clip980)" d="M3814 250.473 Q3813.28 250.056 3812.42 249.871 Q3811.59 249.663 3810.57 249.663 Q3806.96 249.663 3805.02 252.024 Q3803.09 254.362 3803.09 258.76 L3803.09 272.417 L3798.81 272.417 L3798.81 246.491 L3803.09 246.491 L3803.09 250.519 Q3804.44 248.158 3806.59 247.024 Q3808.74 245.866 3811.82 245.866 Q3812.26 245.866 3812.79 245.936 Q3813.33 245.982 3813.97 246.098 L3814 250.473 Z" fill="#000000" fill-rule="evenodd" fill-opacity="1" /><path clip-path="url(#clip980)" d="M3834.99 247.255 L3834.99 251.283 Q3833.19 250.357 3831.24 249.894 Q3829.3 249.431 3827.21 249.431 Q3824.04 249.431 3822.45 250.403 Q3820.87 251.376 3820.87 253.32 Q3820.87 254.802 3822.01 255.658 Q3823.14 256.491 3826.57 257.255 L3828.02 257.579 Q3832.56 258.552 3834.46 260.334 Q3836.38 262.093 3836.38 265.264 Q3836.38 268.876 3833.51 270.982 Q3830.66 273.088 3825.66 273.088 Q3823.58 273.088 3821.31 272.672 Q3819.07 272.278 3816.57 271.468 L3816.57 267.07 Q3818.93 268.297 3821.22 268.922 Q3823.51 269.524 3825.76 269.524 Q3828.77 269.524 3830.39 268.505 Q3832.01 267.463 3832.01 265.589 Q3832.01 263.852 3830.83 262.926 Q3829.67 262.001 3825.71 261.144 L3824.23 260.797 Q3820.27 259.964 3818.51 258.251 Q3816.75 256.514 3816.75 253.505 Q3816.75 249.848 3819.34 247.857 Q3821.94 245.866 3826.71 245.866 Q3829.07 245.866 3831.15 246.214 Q3833.23 246.561 3834.99 247.255 Z" fill="#000000" fill-rule="evenodd" fill-opacity="1" /><polyline clip-path="url(#clip980)" style="stroke:#e26f46; stroke-linecap:butt; stroke-linejoin:round; stroke-width:4; stroke-opacity:1; fill:none" points="
  3589.35,306.977 3653.41,306.977 
  "/>
<path clip-path="url(#clip980)" d="M3680.6 288.239 L3680.6 291.78 L3676.52 291.78 Q3674.23 291.78 3673.33 292.706 Q3672.45 293.632 3672.45 296.04 L3672.45 298.331 L3679.46 298.331 L3679.46 301.642 L3672.45 301.642 L3672.45 324.257 L3668.16 324.257 L3668.16 301.642 L3664.09 301.642 L3664.09 298.331 L3668.16 298.331 L3668.16 296.526 Q3668.16 292.197 3670.18 290.23 Q3672.19 288.239 3676.57 288.239 L3680.6 288.239 Z" fill="#000000" fill-rule="evenodd" fill-opacity="1" /><path clip-path="url(#clip980)" d="M3695.94 311.225 Q3690.78 311.225 3688.79 312.405 Q3686.8 313.586 3686.8 316.433 Q3686.8 318.702 3688.28 320.044 Q3689.78 321.364 3692.35 321.364 Q3695.9 321.364 3698.03 318.864 Q3700.18 316.341 3700.18 312.174 L3700.18 311.225 L3695.94 311.225 M3704.44 309.466 L3704.44 324.257 L3700.18 324.257 L3700.18 320.322 Q3698.72 322.683 3696.54 323.817 Q3694.37 324.928 3691.22 324.928 Q3687.24 324.928 3684.88 322.706 Q3682.54 320.461 3682.54 316.711 Q3682.54 312.336 3685.46 310.114 Q3688.4 307.892 3694.21 307.892 L3700.18 307.892 L3700.18 307.475 Q3700.18 304.535 3698.23 302.938 Q3696.31 301.317 3692.82 301.317 Q3690.59 301.317 3688.49 301.85 Q3686.38 302.382 3684.44 303.447 L3684.44 299.512 Q3686.78 298.609 3688.97 298.169 Q3691.17 297.706 3693.26 297.706 Q3698.88 297.706 3701.66 300.623 Q3704.44 303.54 3704.44 309.466 Z" fill="#000000" fill-rule="evenodd" fill-opacity="1" /><path clip-path="url(#clip980)" d="M3731.87 299.327 L3731.87 303.308 Q3730.06 302.313 3728.23 301.827 Q3726.43 301.317 3724.58 301.317 Q3720.43 301.317 3718.14 303.956 Q3715.85 306.572 3715.85 311.317 Q3715.85 316.063 3718.14 318.702 Q3720.43 321.317 3724.58 321.317 Q3726.43 321.317 3728.23 320.831 Q3730.06 320.322 3731.87 319.327 L3731.87 323.262 Q3730.09 324.095 3728.16 324.512 Q3726.27 324.928 3724.11 324.928 Q3718.26 324.928 3714.81 321.248 Q3711.36 317.567 3711.36 311.317 Q3711.36 304.975 3714.83 301.341 Q3718.33 297.706 3724.39 297.706 Q3726.36 297.706 3728.23 298.123 Q3730.11 298.517 3731.87 299.327 Z" fill="#000000" fill-rule="evenodd" fill-opacity="1" /><path clip-path="url(#clip980)" d="M3761.45 310.229 L3761.45 312.313 L3741.87 312.313 Q3742.15 316.711 3744.51 319.026 Q3746.89 321.317 3751.13 321.317 Q3753.58 321.317 3755.87 320.716 Q3758.19 320.114 3760.46 318.91 L3760.46 322.938 Q3758.16 323.91 3755.76 324.419 Q3753.35 324.928 3750.87 324.928 Q3744.67 324.928 3741.03 321.317 Q3737.42 317.706 3737.42 311.549 Q3737.42 305.183 3740.85 301.456 Q3744.3 297.706 3750.13 297.706 Q3755.36 297.706 3758.4 301.086 Q3761.45 304.442 3761.45 310.229 M3757.19 308.979 Q3757.15 305.484 3755.22 303.401 Q3753.33 301.317 3750.18 301.317 Q3746.61 301.317 3744.46 303.331 Q3742.33 305.345 3742.01 309.003 L3757.19 308.979 Z" fill="#000000" fill-rule="evenodd" fill-opacity="1" /><path clip-path="url(#clip980)" d="M3784.97 299.095 L3784.97 303.123 Q3783.16 302.197 3781.22 301.734 Q3779.28 301.271 3777.19 301.271 Q3774.02 301.271 3772.42 302.243 Q3770.85 303.216 3770.85 305.16 Q3770.85 306.642 3771.98 307.498 Q3773.12 308.331 3776.54 309.095 L3778 309.419 Q3782.54 310.392 3784.44 312.174 Q3786.36 313.933 3786.36 317.104 Q3786.36 320.716 3783.49 322.822 Q3780.64 324.928 3775.64 324.928 Q3773.56 324.928 3771.29 324.512 Q3769.04 324.118 3766.54 323.308 L3766.54 318.91 Q3768.9 320.137 3771.2 320.762 Q3773.49 321.364 3775.73 321.364 Q3778.74 321.364 3780.36 320.345 Q3781.98 319.303 3781.98 317.429 Q3781.98 315.692 3780.8 314.766 Q3779.65 313.841 3775.69 312.984 L3774.21 312.637 Q3770.25 311.804 3768.49 310.091 Q3766.73 308.354 3766.73 305.345 Q3766.73 301.688 3769.32 299.697 Q3771.91 297.706 3776.68 297.706 Q3779.04 297.706 3781.13 298.054 Q3783.21 298.401 3784.97 299.095 Z" fill="#000000" fill-rule="evenodd" fill-opacity="1" /></svg>
