<?xml version="1.0" encoding="utf-8"?>
<svg xmlns="http://www.w3.org/2000/svg" xmlns:xlink="http://www.w3.org/1999/xlink" width="1000" height="400" viewBox="0 0 4000 1600">
<defs>
  <clipPath id="clip300">
    <rect x="0" y="0" width="4000" height="1600"/>
  </clipPath>
</defs>
<path clip-path="url(#clip300)" d="M0 1600 L4000 1600 L4000 0 L0 0  Z" fill="#ffffff" fill-rule="evenodd" fill-opacity="1"/>
<defs>
  <clipPath id="clip301">
    <rect x="800" y="0" width="2801" height="1600"/>
  </clipPath>
</defs>
<path clip-path="url(#clip300)" d="M235.429 1393.02 L1889.76 1393.02 L1889.76 162.272 L235.429 162.272  Z" fill="#ffffff" fill-rule="evenodd" fill-opacity="1"/>
<defs>
  <clipPath id="clip302">
    <rect x="235" y="162" width="1655" height="1232"/>
  </clipPath>
</defs>
<polyline clip-path="url(#clip302)" style="stroke:#000000; stroke-linecap:round; stroke-linejoin:round; stroke-width:2; stroke-opacity:0.1; fill:none" points="564.61,1393.02 564.61,162.272 "/>
<polyline clip-path="url(#clip302)" style="stroke:#000000; stroke-linecap:round; stroke-linejoin:round; stroke-width:2; stroke-opacity:0.1; fill:none" points="964.085,1393.02 964.085,162.272 "/>
<polyline clip-path="url(#clip302)" style="stroke:#000000; stroke-linecap:round; stroke-linejoin:round; stroke-width:2; stroke-opacity:0.1; fill:none" points="1363.56,1393.02 1363.56,162.272 "/>
<polyline clip-path="url(#clip302)" style="stroke:#000000; stroke-linecap:round; stroke-linejoin:round; stroke-width:2; stroke-opacity:0.1; fill:none" points="1763.03,1393.02 1763.03,162.272 "/>
<polyline clip-path="url(#clip300)" style="stroke:#000000; stroke-linecap:round; stroke-linejoin:round; stroke-width:4; stroke-opacity:1; fill:none" points="235.429,1393.02 1889.76,1393.02 "/>
<polyline clip-path="url(#clip300)" style="stroke:#000000; stroke-linecap:round; stroke-linejoin:round; stroke-width:4; stroke-opacity:1; fill:none" points="564.61,1393.02 564.61,1374.12 "/>
<polyline clip-path="url(#clip300)" style="stroke:#000000; stroke-linecap:round; stroke-linejoin:round; stroke-width:4; stroke-opacity:1; fill:none" points="964.085,1393.02 964.085,1374.12 "/>
<polyline clip-path="url(#clip300)" style="stroke:#000000; stroke-linecap:round; stroke-linejoin:round; stroke-width:4; stroke-opacity:1; fill:none" points="1363.56,1393.02 1363.56,1374.12 "/>
<polyline clip-path="url(#clip300)" style="stroke:#000000; stroke-linecap:round; stroke-linejoin:round; stroke-width:4; stroke-opacity:1; fill:none" points="1763.03,1393.02 1763.03,1374.12 "/>
<path clip-path="url(#clip300)" d="M542.04 1436.74 Q538.429 1436.74 536.601 1440.3 Q534.795 1443.84 534.795 1450.97 Q534.795 1458.08 536.601 1461.65 Q538.429 1465.19 542.04 1465.19 Q545.675 1465.19 547.48 1461.65 Q549.309 1458.08 549.309 1450.97 Q549.309 1443.84 547.48 1440.3 Q545.675 1436.74 542.04 1436.74 M542.04 1433.03 Q547.851 1433.03 550.906 1437.64 Q553.985 1442.22 553.985 1450.97 Q553.985 1459.7 550.906 1464.31 Q547.851 1468.89 542.04 1468.89 Q536.23 1468.89 533.152 1464.31 Q530.096 1459.7 530.096 1450.97 Q530.096 1442.22 533.152 1437.64 Q536.23 1433.03 542.04 1433.03 Z" fill="#000000" fill-rule="nonzero" fill-opacity="1" /><path clip-path="url(#clip300)" d="M562.202 1462.34 L567.087 1462.34 L567.087 1468.22 L562.202 1468.22 L562.202 1462.34 Z" fill="#000000" fill-rule="nonzero" fill-opacity="1" /><path clip-path="url(#clip300)" d="M587.272 1451.81 Q583.938 1451.81 582.017 1453.59 Q580.119 1455.37 580.119 1458.5 Q580.119 1461.62 582.017 1463.4 Q583.938 1465.19 587.272 1465.19 Q590.605 1465.19 592.526 1463.4 Q594.448 1461.6 594.448 1458.5 Q594.448 1455.37 592.526 1453.59 Q590.628 1451.81 587.272 1451.81 M582.596 1449.82 Q579.586 1449.08 577.897 1447.02 Q576.23 1444.96 576.23 1441.99 Q576.23 1437.85 579.17 1435.44 Q582.133 1433.03 587.272 1433.03 Q592.434 1433.03 595.373 1435.44 Q598.313 1437.85 598.313 1441.99 Q598.313 1444.96 596.623 1447.02 Q594.957 1449.08 591.971 1449.82 Q595.35 1450.6 597.225 1452.9 Q599.123 1455.19 599.123 1458.5 Q599.123 1463.52 596.045 1466.21 Q592.989 1468.89 587.272 1468.89 Q581.554 1468.89 578.475 1466.21 Q575.42 1463.52 575.42 1458.5 Q575.42 1455.19 577.318 1452.9 Q579.216 1450.6 582.596 1449.82 M580.883 1442.43 Q580.883 1445.12 582.549 1446.62 Q584.239 1448.13 587.272 1448.13 Q590.281 1448.13 591.971 1446.62 Q593.684 1445.12 593.684 1442.43 Q593.684 1439.75 591.971 1438.24 Q590.281 1436.74 587.272 1436.74 Q584.239 1436.74 582.549 1438.24 Q580.883 1439.75 580.883 1442.43 Z" fill="#000000" fill-rule="nonzero" fill-opacity="1" /><path clip-path="url(#clip300)" d="M941.562 1436.74 Q937.95 1436.74 936.122 1440.3 Q934.316 1443.84 934.316 1450.97 Q934.316 1458.08 936.122 1461.65 Q937.95 1465.19 941.562 1465.19 Q945.196 1465.19 947.001 1461.65 Q948.83 1458.08 948.83 1450.97 Q948.83 1443.84 947.001 1440.3 Q945.196 1436.74 941.562 1436.74 M941.562 1433.03 Q947.372 1433.03 950.427 1437.64 Q953.506 1442.22 953.506 1450.97 Q953.506 1459.7 950.427 1464.31 Q947.372 1468.89 941.562 1468.89 Q935.751 1468.89 932.673 1464.31 Q929.617 1459.7 929.617 1450.97 Q929.617 1442.22 932.673 1437.64 Q935.751 1433.03 941.562 1433.03 Z" fill="#000000" fill-rule="nonzero" fill-opacity="1" /><path clip-path="url(#clip300)" d="M961.724 1462.34 L966.608 1462.34 L966.608 1468.22 L961.724 1468.22 L961.724 1462.34 Z" fill="#000000" fill-rule="nonzero" fill-opacity="1" /><path clip-path="url(#clip300)" d="M976.932 1467.5 L976.932 1463.24 Q978.691 1464.08 980.497 1464.52 Q982.302 1464.96 984.038 1464.96 Q988.668 1464.96 991.098 1461.85 Q993.552 1458.73 993.899 1452.39 Q992.557 1454.38 990.497 1455.44 Q988.436 1456.51 985.936 1456.51 Q980.751 1456.51 977.719 1453.38 Q974.71 1450.23 974.71 1444.79 Q974.71 1439.47 977.858 1436.25 Q981.006 1433.03 986.237 1433.03 Q992.233 1433.03 995.381 1437.64 Q998.552 1442.22 998.552 1450.97 Q998.552 1459.15 994.663 1464.03 Q990.797 1468.89 984.247 1468.89 Q982.487 1468.89 980.682 1468.54 Q978.876 1468.2 976.932 1467.5 M986.237 1452.85 Q989.385 1452.85 991.214 1450.7 Q993.066 1448.54 993.066 1444.79 Q993.066 1441.07 991.214 1438.91 Q989.385 1436.74 986.237 1436.74 Q983.089 1436.74 981.237 1438.91 Q979.409 1441.07 979.409 1444.79 Q979.409 1448.54 981.237 1450.7 Q983.089 1452.85 986.237 1452.85 Z" fill="#000000" fill-rule="nonzero" fill-opacity="1" /><path clip-path="url(#clip300)" d="M1330.71 1464.28 L1338.35 1464.28 L1338.35 1437.92 L1330.04 1439.59 L1330.04 1435.33 L1338.31 1433.66 L1342.98 1433.66 L1342.98 1464.28 L1350.62 1464.28 L1350.62 1468.22 L1330.71 1468.22 L1330.71 1464.28 Z" fill="#000000" fill-rule="nonzero" fill-opacity="1" /><path clip-path="url(#clip300)" d="M1360.06 1462.34 L1364.95 1462.34 L1364.95 1468.22 L1360.06 1468.22 L1360.06 1462.34 Z" fill="#000000" fill-rule="nonzero" fill-opacity="1" /><path clip-path="url(#clip300)" d="M1385.13 1436.74 Q1381.52 1436.74 1379.69 1440.3 Q1377.89 1443.84 1377.89 1450.97 Q1377.89 1458.08 1379.69 1461.65 Q1381.52 1465.19 1385.13 1465.19 Q1388.77 1465.19 1390.57 1461.65 Q1392.4 1458.08 1392.4 1450.97 Q1392.4 1443.84 1390.57 1440.3 Q1388.77 1436.74 1385.13 1436.74 M1385.13 1433.03 Q1390.94 1433.03 1394 1437.64 Q1397.08 1442.22 1397.08 1450.97 Q1397.08 1459.7 1394 1464.31 Q1390.94 1468.89 1385.13 1468.89 Q1379.32 1468.89 1376.24 1464.31 Q1373.19 1459.7 1373.19 1450.97 Q1373.19 1442.22 1376.24 1437.64 Q1379.32 1433.03 1385.13 1433.03 Z" fill="#000000" fill-rule="nonzero" fill-opacity="1" /><path clip-path="url(#clip300)" d="M1730.8 1464.28 L1738.44 1464.28 L1738.44 1437.92 L1730.13 1439.59 L1730.13 1435.33 L1738.39 1433.66 L1743.07 1433.66 L1743.07 1464.28 L1750.71 1464.28 L1750.71 1468.22 L1730.8 1468.22 L1730.8 1464.28 Z" fill="#000000" fill-rule="nonzero" fill-opacity="1" /><path clip-path="url(#clip300)" d="M1760.15 1462.34 L1765.04 1462.34 L1765.04 1468.22 L1760.15 1468.22 L1760.15 1462.34 Z" fill="#000000" fill-rule="nonzero" fill-opacity="1" /><path clip-path="url(#clip300)" d="M1776.03 1464.28 L1783.67 1464.28 L1783.67 1437.92 L1775.36 1439.59 L1775.36 1435.33 L1783.62 1433.66 L1788.3 1433.66 L1788.3 1464.28 L1795.94 1464.28 L1795.94 1468.22 L1776.03 1468.22 L1776.03 1464.28 Z" fill="#000000" fill-rule="nonzero" fill-opacity="1" /><path clip-path="url(#clip300)" d="M1049.52 1532.6 Q1051.46 1529.35 1056.26 1526.49 Q1058.14 1525.38 1063.93 1525.38 Q1070.43 1525.38 1074.47 1530.53 Q1078.54 1535.69 1078.54 1544.09 Q1078.54 1552.49 1074.47 1557.65 Q1070.43 1562.81 1063.93 1562.81 Q1060.02 1562.81 1057.19 1561.28 Q1054.38 1559.72 1052.54 1556.54 L1052.54 1575.44 L1046.65 1575.44 L1046.65 1544.41 Q1046.65 1537.06 1049.52 1532.6 M1072.46 1544.09 Q1072.46 1537.63 1069.79 1533.97 Q1067.15 1530.28 1062.5 1530.28 Q1057.85 1530.28 1055.18 1533.97 Q1052.54 1537.63 1052.54 1544.09 Q1052.54 1550.55 1055.18 1554.24 Q1057.85 1557.91 1062.5 1557.91 Q1067.15 1557.91 1069.79 1554.24 Q1072.46 1550.55 1072.46 1544.09 Z" fill="#000000" fill-rule="nonzero" fill-opacity="1" /><polyline clip-path="url(#clip302)" style="stroke:#000000; stroke-linecap:round; stroke-linejoin:round; stroke-width:2; stroke-opacity:0.1; fill:none" points="235.429,1358.19 1889.76,1358.19 "/>
<polyline clip-path="url(#clip302)" style="stroke:#000000; stroke-linecap:round; stroke-linejoin:round; stroke-width:2; stroke-opacity:0.1; fill:none" points="235.429,1094.3 1889.76,1094.3 "/>
<polyline clip-path="url(#clip302)" style="stroke:#000000; stroke-linecap:round; stroke-linejoin:round; stroke-width:2; stroke-opacity:0.1; fill:none" points="235.429,830.422 1889.76,830.422 "/>
<polyline clip-path="url(#clip302)" style="stroke:#000000; stroke-linecap:round; stroke-linejoin:round; stroke-width:2; stroke-opacity:0.1; fill:none" points="235.429,566.54 1889.76,566.54 "/>
<polyline clip-path="url(#clip302)" style="stroke:#000000; stroke-linecap:round; stroke-linejoin:round; stroke-width:2; stroke-opacity:0.1; fill:none" points="235.429,302.658 1889.76,302.658 "/>
<polyline clip-path="url(#clip300)" style="stroke:#000000; stroke-linecap:round; stroke-linejoin:round; stroke-width:4; stroke-opacity:1; fill:none" points="235.429,1393.02 235.429,162.272 "/>
<polyline clip-path="url(#clip300)" style="stroke:#000000; stroke-linecap:round; stroke-linejoin:round; stroke-width:4; stroke-opacity:1; fill:none" points="235.429,1358.19 254.327,1358.19 "/>
<polyline clip-path="url(#clip300)" style="stroke:#000000; stroke-linecap:round; stroke-linejoin:round; stroke-width:4; stroke-opacity:1; fill:none" points="235.429,1094.3 254.327,1094.3 "/>
<polyline clip-path="url(#clip300)" style="stroke:#000000; stroke-linecap:round; stroke-linejoin:round; stroke-width:4; stroke-opacity:1; fill:none" points="235.429,830.422 254.327,830.422 "/>
<polyline clip-path="url(#clip300)" style="stroke:#000000; stroke-linecap:round; stroke-linejoin:round; stroke-width:4; stroke-opacity:1; fill:none" points="235.429,566.54 254.327,566.54 "/>
<polyline clip-path="url(#clip300)" style="stroke:#000000; stroke-linecap:round; stroke-linejoin:round; stroke-width:4; stroke-opacity:1; fill:none" points="235.429,302.658 254.327,302.658 "/>
<path clip-path="url(#clip300)" d="M163.485 1343.99 Q159.874 1343.99 158.045 1347.55 Q156.24 1351.09 156.24 1358.22 Q156.24 1365.33 158.045 1368.89 Q159.874 1372.43 163.485 1372.43 Q167.119 1372.43 168.925 1368.89 Q170.753 1365.33 170.753 1358.22 Q170.753 1351.09 168.925 1347.55 Q167.119 1343.99 163.485 1343.99 M163.485 1340.28 Q169.295 1340.28 172.351 1344.89 Q175.429 1349.47 175.429 1358.22 Q175.429 1366.95 172.351 1371.56 Q169.295 1376.14 163.485 1376.14 Q157.675 1376.14 154.596 1371.56 Q151.541 1366.95 151.541 1358.22 Q151.541 1349.47 154.596 1344.89 Q157.675 1340.28 163.485 1340.28 Z" fill="#000000" fill-rule="nonzero" fill-opacity="1" /><path clip-path="url(#clip300)" d="M155.522 1107.65 L163.161 1107.65 L163.161 1081.28 L154.851 1082.95 L154.851 1078.69 L163.115 1077.02 L167.79 1077.02 L167.79 1107.65 L175.429 1107.65 L175.429 1111.58 L155.522 1111.58 L155.522 1107.65 Z" fill="#000000" fill-rule="nonzero" fill-opacity="1" /><path clip-path="url(#clip300)" d="M159.11 843.767 L175.429 843.767 L175.429 847.702 L153.485 847.702 L153.485 843.767 Q156.147 841.013 160.73 836.383 Q165.337 831.73 166.517 830.388 Q168.763 827.865 169.642 826.129 Q170.545 824.369 170.545 822.679 Q170.545 819.925 168.601 818.189 Q166.679 816.453 163.578 816.453 Q161.378 816.453 158.925 817.217 Q156.494 817.98 153.716 819.531 L153.716 814.809 Q156.541 813.675 158.994 813.096 Q161.448 812.517 163.485 812.517 Q168.855 812.517 172.05 815.203 Q175.244 817.888 175.244 822.379 Q175.244 824.508 174.434 826.429 Q173.647 828.328 171.54 830.92 Q170.962 831.591 167.86 834.809 Q164.758 838.003 159.11 843.767 Z" fill="#000000" fill-rule="nonzero" fill-opacity="1" /><path clip-path="url(#clip300)" d="M168.3 565.186 Q171.656 565.904 173.531 568.172 Q175.429 570.441 175.429 573.774 Q175.429 578.89 171.911 581.69 Q168.392 584.491 161.911 584.491 Q159.735 584.491 157.42 584.052 Q155.129 583.635 152.675 582.778 L152.675 578.265 Q154.619 579.399 156.934 579.978 Q159.249 580.556 161.772 580.556 Q166.17 580.556 168.462 578.82 Q170.777 577.084 170.777 573.774 Q170.777 570.718 168.624 569.005 Q166.494 567.269 162.675 567.269 L158.647 567.269 L158.647 563.427 L162.86 563.427 Q166.309 563.427 168.138 562.061 Q169.966 560.672 169.966 558.079 Q169.966 555.417 168.068 554.005 Q166.193 552.57 162.675 552.57 Q160.753 552.57 158.554 552.987 Q156.355 553.404 153.716 554.283 L153.716 550.117 Q156.379 549.376 158.693 549.005 Q161.031 548.635 163.091 548.635 Q168.415 548.635 171.517 551.066 Q174.619 553.473 174.619 557.593 Q174.619 560.464 172.976 562.454 Q171.332 564.422 168.3 565.186 Z" fill="#000000" fill-rule="nonzero" fill-opacity="1" /><path clip-path="url(#clip300)" d="M165.846 289.452 L154.041 307.901 L165.846 307.901 L165.846 289.452 M164.619 285.378 L170.499 285.378 L170.499 307.901 L175.429 307.901 L175.429 311.79 L170.499 311.79 L170.499 319.938 L165.846 319.938 L165.846 311.79 L150.244 311.79 L150.244 307.276 L164.619 285.378 Z" fill="#000000" fill-rule="nonzero" fill-opacity="1" /><path clip-path="url(#clip300)" d="M40.3403 876.171 L40.3403 848.353 L45.6875 848.353 L71.3095 870.378 L71.3095 848.353 L75.9883 848.353 L75.9883 876.967 L70.6411 876.967 L45.0191 854.942 L45.0191 876.171 L40.3403 876.171 Z" fill="#000000" fill-rule="nonzero" fill-opacity="1" /><path clip-path="url(#clip300)" d="M26.5267 804.621 Q33.8473 808.886 41.0087 810.955 Q48.1701 813.023 55.5225 813.023 Q62.8749 813.023 70.1 810.955 Q77.2933 808.854 84.582 804.621 L84.582 809.713 Q77.1023 814.488 69.8772 816.875 Q62.6521 819.23 55.5225 819.23 Q48.4248 819.23 41.2315 816.875 Q34.0383 814.519 26.5267 809.713 L26.5267 804.621 Z" fill="#000000" fill-rule="nonzero" fill-opacity="1" /><path clip-path="url(#clip300)" d="M26.4631 793.481 L26.4631 787.592 L55.7135 787.592 L40.3403 770.119 L40.3403 762.639 L57.0185 781.545 L75.9883 761.843 L75.9883 769.482 L58.5781 787.592 L75.9883 787.592 L75.9883 793.481 L26.4631 793.481 Z" fill="#000000" fill-rule="nonzero" fill-opacity="1" /><path clip-path="url(#clip300)" d="M47.1835 727.755 Q43.2367 725.559 41.3588 722.503 Q39.481 719.448 39.481 715.31 Q39.481 709.74 43.3959 706.716 Q47.2789 703.692 54.4722 703.692 L75.9883 703.692 L75.9883 709.581 L54.6632 709.581 Q49.5388 709.581 47.0561 711.395 Q44.5735 713.209 44.5735 716.933 Q44.5735 721.485 47.5972 724.126 Q50.6209 726.768 55.8408 726.768 L75.9883 726.768 L75.9883 732.656 L54.6632 732.656 Q49.5069 732.656 47.0561 734.471 Q44.5735 736.285 44.5735 740.072 Q44.5735 744.56 47.6291 747.202 Q50.6528 749.844 55.8408 749.844 L75.9883 749.844 L75.9883 755.732 L40.3403 755.732 L40.3403 749.844 L45.8785 749.844 Q42.6002 747.839 41.0406 745.038 Q39.481 742.237 39.481 738.385 Q39.481 734.502 41.4543 731.797 Q43.4277 729.06 47.1835 727.755 Z" fill="#000000" fill-rule="nonzero" fill-opacity="1" /><path clip-path="url(#clip300)" d="M26.5267 692.934 L26.5267 687.842 Q34.0383 683.067 41.2315 680.712 Q48.4248 678.325 55.5225 678.325 Q62.6521 678.325 69.8772 680.712 Q77.1023 683.067 84.582 687.842 L84.582 692.934 Q77.2933 688.701 70.1 686.632 Q62.8749 684.532 55.5225 684.532 Q48.1701 684.532 41.0087 686.632 Q33.8473 688.701 26.5267 692.934 Z" fill="#000000" fill-rule="nonzero" fill-opacity="1" /><path clip-path="url(#clip300)" d="M1045.95 35.3077 Q1048.42 31.1758 1054.54 27.5299 Q1056.93 26.1121 1064.3 26.1121 Q1072.56 26.1121 1077.71 32.6746 Q1082.89 39.2371 1082.89 49.9314 Q1082.89 60.6258 1077.71 67.1883 Q1072.56 73.7508 1064.3 73.7508 Q1059.32 73.7508 1055.71 71.8063 Q1052.15 69.8214 1049.8 65.7705 L1049.8 89.8329 L1042.3 89.8329 L1042.3 50.3365 Q1042.3 40.9789 1045.95 35.3077 M1075.15 49.9314 Q1075.15 41.7081 1071.75 37.0496 Q1068.39 32.3505 1062.48 32.3505 Q1056.56 32.3505 1053.16 37.0496 Q1049.8 41.7081 1049.8 49.9314 Q1049.8 58.1548 1053.16 62.8538 Q1056.56 67.5124 1062.48 67.5124 Q1068.39 67.5124 1071.75 62.8538 Q1075.15 58.1548 1075.15 49.9314 Z" fill="#000000" fill-rule="nonzero" fill-opacity="1" /><polyline clip-path="url(#clip302)" style="stroke:#009af9; stroke-linecap:round; stroke-linejoin:round; stroke-width:4; stroke-opacity:1; fill:none" points="1833.89,1351.59 1815.8,1338.4 1797.77,1325.2 1779.77,1312.01 1761.82,1298.81 1743.92,1285.62 1726.06,1272.43 1708.24,1259.23 1690.47,1246.04 1672.74,1232.84 1655.05,1219.65 1637.41,1206.45 1619.81,1193.26 1602.26,1180.07 1584.75,1166.87 1565.12,1153.68 1544.57,1140.48 1524.11,1127.29 1503.77,1114.1 1483.51,1100.9 1463.33,1087.71 1443.24,1074.51 1423.23,1061.32 1403.31,1048.13 1383.47,1034.93 1363.71,1021.74 1344.03,1008.54 1324.43,995.349 1304.92,982.155 1285.49,968.961 1266.14,955.767 1246.85,942.572 1227.67,929.378 1208.57,916.184 1189.54,902.99 1170.59,889.796 1151.73,876.602 1132.94,863.408 1114.18,850.214 1095.6,837.02 1077.05,823.825 1058.58,810.631 1040.18,797.437 1021.87,784.243 1003.63,771.049 985.471,757.855 967.389,744.661 949.384,731.467 931.456,718.272 913.605,705.078 895.83,691.884 878.131,678.69 860.509,665.496 842.961,652.302 825.49,639.108 808.093,625.914 790.772,612.719 773.526,599.525 756.354,586.331 739.257,573.137 722.235,559.943 705.286,546.749 688.411,533.555 671.609,520.361 654.876,507.167 638.22,493.972 621.636,480.778 605.125,467.584 588.687,454.39 572.32,441.196 556.025,428.002 539.802,414.808 523.65,401.614 507.569,388.419 491.559,375.225 475.62,362.031 459.751,348.837 443.952,335.643 428.224,322.449 412.565,309.255 396.975,296.061 381.455,282.867 366.005,269.672 350.623,256.478 335.309,243.284 320.064,230.09 304.888,216.896 289.779,203.702 "/>
<polyline clip-path="url(#clip302)" style="stroke:#e26f46; stroke-linecap:round; stroke-linejoin:round; stroke-width:4; stroke-opacity:1; fill:none" points="1842.94,1358.19 1824.84,1344.99 1806.78,1331.8 1788.76,1318.6 1770.79,1305.41 1752.87,1292.22 1734.98,1279.02 1717.14,1265.83 1699.35,1252.63 1681.6,1239.44 1663.89,1226.25 1646.22,1213.05 1628.6,1199.86 1611.03,1186.66 1593.5,1173.47 1575.38,1160.28 1554.84,1147.08 1534.32,1133.89 1513.93,1120.69 1493.63,1107.5 1473.41,1094.3 1453.28,1081.11 1433.23,1067.92 1413.26,1054.72 1393.38,1041.53 1373.58,1028.33 1353.86,1015.14 1334.21,1001.95 1314.67,988.752 1295.19,975.558 1275.8,962.364 1256.49,949.17 1237.25,935.975 1218.11,922.781 1199.05,909.587 1180.06,896.393 1161.15,883.199 1142.32,870.005 1123.58,856.811 1104.91,843.617 1086.32,830.422 1067.8,817.228 1049.37,804.034 1031.02,790.84 1012.74,777.646 994.541,764.452 976.421,751.258 958.377,738.064 940.411,724.87 922.521,711.675 904.708,698.481 886.971,685.287 869.31,672.093 851.725,658.899 834.216,645.705 816.782,632.511 799.423,619.317 782.14,606.122 764.931,592.928 747.797,579.734 730.737,566.54 713.751,553.346 696.839,540.152 680.001,526.958 663.236,513.764 646.539,500.569 629.919,487.375 613.372,474.181 596.897,460.987 580.494,447.793 564.164,434.599 547.904,421.405 531.717,408.211 515.6,395.017 499.555,381.822 483.58,368.628 467.676,355.434 451.843,342.24 436.079,329.046 420.385,315.852 404.761,302.658 389.207,289.464 373.721,276.269 358.305,263.075 342.957,249.881 327.678,236.687 312.468,223.493 297.325,210.299 282.25,197.105 "/>
<path clip-path="url(#clip300)" d="M1496.9 358.817 L1834.62 358.817 L1834.62 203.297 L1496.9 203.297  Z" fill="#ffffff" fill-rule="evenodd" fill-opacity="1"/>
<polyline clip-path="url(#clip300)" style="stroke:#000000; stroke-linecap:round; stroke-linejoin:round; stroke-width:4; stroke-opacity:1; fill:none" points="1496.9,358.817 1834.62,358.817 1834.62,203.297 1496.9,203.297 1496.9,358.817 "/>
<polyline clip-path="url(#clip300)" style="stroke:#009af9; stroke-linecap:round; stroke-linejoin:round; stroke-width:4; stroke-opacity:1; fill:none" points="1515.28,255.137 1625.57,255.137 "/>
<path clip-path="url(#clip300)" d="M1664.46 247.487 L1664.46 251.468 Q1662.65 250.473 1660.82 249.987 Q1659.02 249.477 1657.16 249.477 Q1653.02 249.477 1650.73 252.116 Q1648.44 254.732 1648.44 259.477 Q1648.44 264.223 1650.73 266.862 Q1653.02 269.477 1657.16 269.477 Q1659.02 269.477 1660.82 268.991 Q1662.65 268.482 1664.46 267.487 L1664.46 271.422 Q1662.67 272.255 1660.75 272.672 Q1658.85 273.088 1656.7 273.088 Q1650.85 273.088 1647.4 269.408 Q1643.95 265.727 1643.95 259.477 Q1643.95 253.135 1647.42 249.501 Q1650.91 245.866 1656.98 245.866 Q1658.95 245.866 1660.82 246.283 Q1662.7 246.677 1664.46 247.487 Z" fill="#000000" fill-rule="nonzero" fill-opacity="1" /><path clip-path="url(#clip300)" d="M1694.04 258.389 L1694.04 260.473 L1674.46 260.473 Q1674.73 264.871 1677.1 267.186 Q1679.48 269.477 1683.72 269.477 Q1686.17 269.477 1688.46 268.876 Q1690.78 268.274 1693.04 267.07 L1693.04 271.098 Q1690.75 272.07 1688.34 272.579 Q1685.94 273.088 1683.46 273.088 Q1677.26 273.088 1673.62 269.477 Q1670.01 265.866 1670.01 259.709 Q1670.01 253.343 1673.44 249.616 Q1676.89 245.866 1682.72 245.866 Q1687.95 245.866 1690.98 249.246 Q1694.04 252.602 1694.04 258.389 M1689.78 257.139 Q1689.73 253.644 1687.81 251.561 Q1685.91 249.477 1682.77 249.477 Q1679.2 249.477 1677.05 251.491 Q1674.92 253.505 1674.6 257.163 L1689.78 257.139 Z" fill="#000000" fill-rule="nonzero" fill-opacity="1" /><path clip-path="url(#clip300)" d="M1722.58 256.769 L1722.58 272.417 L1718.32 272.417 L1718.32 256.908 Q1718.32 253.227 1716.89 251.399 Q1715.45 249.57 1712.58 249.57 Q1709.13 249.57 1707.14 251.769 Q1705.15 253.968 1705.15 257.764 L1705.15 272.417 L1700.87 272.417 L1700.87 246.491 L1705.15 246.491 L1705.15 250.519 Q1706.68 248.181 1708.74 247.024 Q1710.82 245.866 1713.53 245.866 Q1718 245.866 1720.29 248.644 Q1722.58 251.399 1722.58 256.769 Z" fill="#000000" fill-rule="nonzero" fill-opacity="1" /><path clip-path="url(#clip300)" d="M1735.29 239.13 L1735.29 246.491 L1744.06 246.491 L1744.06 249.802 L1735.29 249.802 L1735.29 263.876 Q1735.29 267.047 1736.15 267.95 Q1737.03 268.852 1739.69 268.852 L1744.06 268.852 L1744.06 272.417 L1739.69 272.417 Q1734.76 272.417 1732.88 270.588 Q1731.01 268.737 1731.01 263.876 L1731.01 249.802 L1727.88 249.802 L1727.88 246.491 L1731.01 246.491 L1731.01 239.13 L1735.29 239.13 Z" fill="#000000" fill-rule="nonzero" fill-opacity="1" /><path clip-path="url(#clip300)" d="M1771.84 258.389 L1771.84 260.473 L1752.26 260.473 Q1752.53 264.871 1754.9 267.186 Q1757.28 269.477 1761.52 269.477 Q1763.97 269.477 1766.26 268.876 Q1768.58 268.274 1770.84 267.07 L1770.84 271.098 Q1768.55 272.07 1766.15 272.579 Q1763.74 273.088 1761.26 273.088 Q1755.06 273.088 1751.42 269.477 Q1747.81 265.866 1747.81 259.709 Q1747.81 253.343 1751.24 249.616 Q1754.69 245.866 1760.52 245.866 Q1765.75 245.866 1768.78 249.246 Q1771.84 252.602 1771.84 258.389 M1767.58 257.139 Q1767.53 253.644 1765.61 251.561 Q1763.71 249.477 1760.57 249.477 Q1757 249.477 1754.85 251.491 Q1752.72 253.505 1752.4 257.163 L1767.58 257.139 Z" fill="#000000" fill-rule="nonzero" fill-opacity="1" /><path clip-path="url(#clip300)" d="M1793.85 250.473 Q1793.14 250.056 1792.28 249.871 Q1791.45 249.663 1790.43 249.663 Q1786.82 249.663 1784.87 252.024 Q1782.95 254.362 1782.95 258.76 L1782.95 272.417 L1778.67 272.417 L1778.67 246.491 L1782.95 246.491 L1782.95 250.519 Q1784.29 248.158 1786.45 247.024 Q1788.6 245.866 1791.68 245.866 Q1792.12 245.866 1792.65 245.936 Q1793.18 245.982 1793.83 246.098 L1793.85 250.473 Z" fill="#000000" fill-rule="nonzero" fill-opacity="1" /><path clip-path="url(#clip300)" d="M1814.85 247.255 L1814.85 251.283 Q1813.04 250.357 1811.1 249.894 Q1809.15 249.431 1807.07 249.431 Q1803.9 249.431 1802.3 250.403 Q1800.73 251.376 1800.73 253.32 Q1800.73 254.802 1801.86 255.658 Q1803 256.491 1806.42 257.255 L1807.88 257.579 Q1812.42 258.552 1814.32 260.334 Q1816.24 262.093 1816.24 265.264 Q1816.24 268.876 1813.37 270.982 Q1810.52 273.088 1805.52 273.088 Q1803.44 273.088 1801.17 272.672 Q1798.92 272.278 1796.42 271.468 L1796.42 267.07 Q1798.78 268.297 1801.08 268.922 Q1803.37 269.524 1805.61 269.524 Q1808.62 269.524 1810.24 268.505 Q1811.86 267.463 1811.86 265.589 Q1811.86 263.852 1810.68 262.926 Q1809.52 262.001 1805.57 261.144 L1804.09 260.797 Q1800.13 259.964 1798.37 258.251 Q1796.61 256.514 1796.61 253.505 Q1796.61 249.848 1799.2 247.857 Q1801.79 245.866 1806.56 245.866 Q1808.92 245.866 1811.01 246.214 Q1813.09 246.561 1814.85 247.255 Z" fill="#000000" fill-rule="nonzero" fill-opacity="1" /><polyline clip-path="url(#clip300)" style="stroke:#e26f46; stroke-linecap:round; stroke-linejoin:round; stroke-width:4; stroke-opacity:1; fill:none" points="1515.28,306.977 1625.57,306.977 "/>
<path clip-path="url(#clip300)" d="M1660.45 288.239 L1660.45 291.78 L1656.38 291.78 Q1654.09 291.78 1653.18 292.706 Q1652.3 293.632 1652.3 296.04 L1652.3 298.331 L1659.32 298.331 L1659.32 301.642 L1652.3 301.642 L1652.3 324.257 L1648.02 324.257 L1648.02 301.642 L1643.95 301.642 L1643.95 298.331 L1648.02 298.331 L1648.02 296.526 Q1648.02 292.197 1650.03 290.23 Q1652.05 288.239 1656.42 288.239 L1660.45 288.239 Z" fill="#000000" fill-rule="nonzero" fill-opacity="1" /><path clip-path="url(#clip300)" d="M1675.8 311.225 Q1670.64 311.225 1668.65 312.405 Q1666.66 313.586 1666.66 316.433 Q1666.66 318.702 1668.14 320.044 Q1669.64 321.364 1672.21 321.364 Q1675.75 321.364 1677.88 318.864 Q1680.03 316.341 1680.03 312.174 L1680.03 311.225 L1675.8 311.225 M1684.29 309.466 L1684.29 324.257 L1680.03 324.257 L1680.03 320.322 Q1678.58 322.683 1676.4 323.817 Q1674.22 324.928 1671.08 324.928 Q1667.1 324.928 1664.73 322.706 Q1662.4 320.461 1662.4 316.711 Q1662.4 312.336 1665.31 310.114 Q1668.25 307.892 1674.06 307.892 L1680.03 307.892 L1680.03 307.475 Q1680.03 304.535 1678.09 302.938 Q1676.17 301.317 1672.67 301.317 Q1670.45 301.317 1668.35 301.85 Q1666.24 302.382 1664.29 303.447 L1664.29 299.512 Q1666.63 298.609 1668.83 298.169 Q1671.03 297.706 1673.11 297.706 Q1678.74 297.706 1681.52 300.623 Q1684.29 303.54 1684.29 309.466 Z" fill="#000000" fill-rule="nonzero" fill-opacity="1" /><path clip-path="url(#clip300)" d="M1711.72 299.327 L1711.72 303.308 Q1709.92 302.313 1708.09 301.827 Q1706.28 301.317 1704.43 301.317 Q1700.29 301.317 1698 303.956 Q1695.71 306.572 1695.71 311.317 Q1695.71 316.063 1698 318.702 Q1700.29 321.317 1704.43 321.317 Q1706.28 321.317 1708.09 320.831 Q1709.92 320.322 1711.72 319.327 L1711.72 323.262 Q1709.94 324.095 1708.02 324.512 Q1706.12 324.928 1703.97 324.928 Q1698.11 324.928 1694.66 321.248 Q1691.22 317.567 1691.22 311.317 Q1691.22 304.975 1694.69 301.341 Q1698.18 297.706 1704.25 297.706 Q1706.22 297.706 1708.09 298.123 Q1709.97 298.517 1711.72 299.327 Z" fill="#000000" fill-rule="nonzero" fill-opacity="1" /><path clip-path="url(#clip300)" d="M1741.31 310.229 L1741.31 312.313 L1721.72 312.313 Q1722 316.711 1724.36 319.026 Q1726.75 321.317 1730.98 321.317 Q1733.44 321.317 1735.73 320.716 Q1738.04 320.114 1740.31 318.91 L1740.31 322.938 Q1738.02 323.91 1735.61 324.419 Q1733.21 324.928 1730.73 324.928 Q1724.53 324.928 1720.89 321.317 Q1717.28 317.706 1717.28 311.549 Q1717.28 305.183 1720.71 301.456 Q1724.15 297.706 1729.99 297.706 Q1735.22 297.706 1738.25 301.086 Q1741.31 304.442 1741.31 310.229 M1737.05 308.979 Q1737 305.484 1735.08 303.401 Q1733.18 301.317 1730.03 301.317 Q1726.47 301.317 1724.32 303.331 Q1722.19 305.345 1721.86 309.003 L1737.05 308.979 Z" fill="#000000" fill-rule="nonzero" fill-opacity="1" /><path clip-path="url(#clip300)" d="M1764.83 299.095 L1764.83 303.123 Q1763.02 302.197 1761.08 301.734 Q1759.13 301.271 1757.05 301.271 Q1753.88 301.271 1752.28 302.243 Q1750.71 303.216 1750.71 305.16 Q1750.71 306.642 1751.84 307.498 Q1752.97 308.331 1756.4 309.095 L1757.86 309.419 Q1762.4 310.392 1764.29 312.174 Q1766.21 313.933 1766.21 317.104 Q1766.21 320.716 1763.34 322.822 Q1760.5 324.928 1755.5 324.928 Q1753.41 324.928 1751.15 324.512 Q1748.9 324.118 1746.4 323.308 L1746.4 318.91 Q1748.76 320.137 1751.05 320.762 Q1753.34 321.364 1755.59 321.364 Q1758.6 321.364 1760.22 320.345 Q1761.84 319.303 1761.84 317.429 Q1761.84 315.692 1760.66 314.766 Q1759.5 313.841 1755.54 312.984 L1754.06 312.637 Q1750.1 311.804 1748.34 310.091 Q1746.59 308.354 1746.59 305.345 Q1746.59 301.688 1749.18 299.697 Q1751.77 297.706 1756.54 297.706 Q1758.9 297.706 1760.98 298.054 Q1763.07 298.401 1764.83 299.095 Z" fill="#000000" fill-rule="nonzero" fill-opacity="1" /><path clip-path="url(#clip300)" d="M2235.43 1393.02 L3889.76 1393.02 L3889.76 162.272 L2235.43 162.272  Z" fill="#ffffff" fill-rule="evenodd" fill-opacity="1"/>
<defs>
  <clipPath id="clip303">
    <rect x="2235" y="162" width="1655" height="1232"/>
  </clipPath>
</defs>
<polyline clip-path="url(#clip303)" style="stroke:#000000; stroke-linecap:round; stroke-linejoin:round; stroke-width:2; stroke-opacity:0.1; fill:none" points="2384.71,1393.02 2384.71,162.272 "/>
<polyline clip-path="url(#clip303)" style="stroke:#000000; stroke-linecap:round; stroke-linejoin:round; stroke-width:2; stroke-opacity:0.1; fill:none" points="2778.83,1393.02 2778.83,162.272 "/>
<polyline clip-path="url(#clip303)" style="stroke:#000000; stroke-linecap:round; stroke-linejoin:round; stroke-width:2; stroke-opacity:0.1; fill:none" points="3172.95,1393.02 3172.95,162.272 "/>
<polyline clip-path="url(#clip303)" style="stroke:#000000; stroke-linecap:round; stroke-linejoin:round; stroke-width:2; stroke-opacity:0.1; fill:none" points="3567.06,1393.02 3567.06,162.272 "/>
<polyline clip-path="url(#clip300)" style="stroke:#000000; stroke-linecap:round; stroke-linejoin:round; stroke-width:4; stroke-opacity:1; fill:none" points="2235.43,1393.02 3889.76,1393.02 "/>
<polyline clip-path="url(#clip300)" style="stroke:#000000; stroke-linecap:round; stroke-linejoin:round; stroke-width:4; stroke-opacity:1; fill:none" points="2384.71,1393.02 2384.71,1374.12 "/>
<polyline clip-path="url(#clip300)" style="stroke:#000000; stroke-linecap:round; stroke-linejoin:round; stroke-width:4; stroke-opacity:1; fill:none" points="2778.83,1393.02 2778.83,1374.12 "/>
<polyline clip-path="url(#clip300)" style="stroke:#000000; stroke-linecap:round; stroke-linejoin:round; stroke-width:4; stroke-opacity:1; fill:none" points="3172.95,1393.02 3172.95,1374.12 "/>
<polyline clip-path="url(#clip300)" style="stroke:#000000; stroke-linecap:round; stroke-linejoin:round; stroke-width:4; stroke-opacity:1; fill:none" points="3567.06,1393.02 3567.06,1374.12 "/>
<path clip-path="url(#clip300)" d="M2370.12 1449.08 Q2366.97 1449.08 2365.12 1451.23 Q2363.29 1453.38 2363.29 1457.13 Q2363.29 1460.86 2365.12 1463.03 Q2366.97 1465.19 2370.12 1465.19 Q2373.27 1465.19 2375.1 1463.03 Q2376.95 1460.86 2376.95 1457.13 Q2376.95 1453.38 2375.1 1451.23 Q2373.27 1449.08 2370.12 1449.08 M2379.4 1434.42 L2379.4 1438.68 Q2377.64 1437.85 2375.84 1437.41 Q2374.05 1436.97 2372.29 1436.97 Q2367.67 1436.97 2365.21 1440.09 Q2362.78 1443.22 2362.43 1449.54 Q2363.8 1447.53 2365.86 1446.46 Q2367.92 1445.37 2370.4 1445.37 Q2375.6 1445.37 2378.61 1448.54 Q2381.65 1451.69 2381.65 1457.13 Q2381.65 1462.46 2378.5 1465.67 Q2375.35 1468.89 2370.12 1468.89 Q2364.12 1468.89 2360.95 1464.31 Q2357.78 1459.7 2357.78 1450.97 Q2357.78 1442.78 2361.67 1437.92 Q2365.56 1433.03 2372.11 1433.03 Q2373.87 1433.03 2375.65 1433.38 Q2377.46 1433.73 2379.4 1434.42 Z" fill="#000000" fill-rule="nonzero" fill-opacity="1" /><path clip-path="url(#clip300)" d="M2399.7 1436.74 Q2396.09 1436.74 2394.26 1440.3 Q2392.46 1443.84 2392.46 1450.97 Q2392.46 1458.08 2394.26 1461.65 Q2396.09 1465.19 2399.7 1465.19 Q2403.34 1465.19 2405.14 1461.65 Q2406.97 1458.08 2406.97 1450.97 Q2406.97 1443.84 2405.14 1440.3 Q2403.34 1436.74 2399.7 1436.74 M2399.7 1433.03 Q2405.51 1433.03 2408.57 1437.64 Q2411.65 1442.22 2411.65 1450.97 Q2411.65 1459.7 2408.57 1464.31 Q2405.51 1468.89 2399.7 1468.89 Q2393.89 1468.89 2390.81 1464.31 Q2387.76 1459.7 2387.76 1450.97 Q2387.76 1442.22 2390.81 1437.64 Q2393.89 1433.03 2399.7 1433.03 Z" fill="#000000" fill-rule="nonzero" fill-opacity="1" /><path clip-path="url(#clip300)" d="M2752.19 1433.66 L2774.41 1433.66 L2774.41 1435.65 L2761.86 1468.22 L2756.98 1468.22 L2768.78 1437.59 L2752.19 1437.59 L2752.19 1433.66 Z" fill="#000000" fill-rule="nonzero" fill-opacity="1" /><path clip-path="url(#clip300)" d="M2793.53 1436.74 Q2789.92 1436.74 2788.09 1440.3 Q2786.28 1443.84 2786.28 1450.97 Q2786.28 1458.08 2788.09 1461.65 Q2789.92 1465.19 2793.53 1465.19 Q2797.16 1465.19 2798.97 1461.65 Q2800.8 1458.08 2800.8 1450.97 Q2800.8 1443.84 2798.97 1440.3 Q2797.16 1436.74 2793.53 1436.74 M2793.53 1433.03 Q2799.34 1433.03 2802.39 1437.64 Q2805.47 1442.22 2805.47 1450.97 Q2805.47 1459.7 2802.39 1464.31 Q2799.34 1468.89 2793.53 1468.89 Q2787.72 1468.89 2784.64 1464.31 Q2781.58 1459.7 2781.58 1450.97 Q2781.58 1442.22 2784.64 1437.64 Q2787.72 1433.03 2793.53 1433.03 Z" fill="#000000" fill-rule="nonzero" fill-opacity="1" /><path clip-path="url(#clip300)" d="M3157.82 1451.81 Q3154.49 1451.81 3152.56 1453.59 Q3150.67 1455.37 3150.67 1458.5 Q3150.67 1461.62 3152.56 1463.4 Q3154.49 1465.19 3157.82 1465.19 Q3161.15 1465.19 3163.07 1463.4 Q3164.99 1461.6 3164.99 1458.5 Q3164.99 1455.37 3163.07 1453.59 Q3161.17 1451.81 3157.82 1451.81 M3153.14 1449.82 Q3150.13 1449.08 3148.44 1447.02 Q3146.78 1444.96 3146.78 1441.99 Q3146.78 1437.85 3149.72 1435.44 Q3152.68 1433.03 3157.82 1433.03 Q3162.98 1433.03 3165.92 1435.44 Q3168.86 1437.85 3168.86 1441.99 Q3168.86 1444.96 3167.17 1447.02 Q3165.5 1449.08 3162.52 1449.82 Q3165.9 1450.6 3167.77 1452.9 Q3169.67 1455.19 3169.67 1458.5 Q3169.67 1463.52 3166.59 1466.21 Q3163.54 1468.89 3157.82 1468.89 Q3152.1 1468.89 3149.02 1466.21 Q3145.97 1463.52 3145.97 1458.5 Q3145.97 1455.19 3147.86 1452.9 Q3149.76 1450.6 3153.14 1449.82 M3151.43 1442.43 Q3151.43 1445.12 3153.1 1446.62 Q3154.79 1448.13 3157.82 1448.13 Q3160.83 1448.13 3162.52 1446.62 Q3164.23 1445.12 3164.23 1442.43 Q3164.23 1439.75 3162.52 1438.24 Q3160.83 1436.74 3157.82 1436.74 Q3154.79 1436.74 3153.1 1438.24 Q3151.43 1439.75 3151.43 1442.43 Z" fill="#000000" fill-rule="nonzero" fill-opacity="1" /><path clip-path="url(#clip300)" d="M3187.98 1436.74 Q3184.37 1436.74 3182.54 1440.3 Q3180.74 1443.84 3180.74 1450.97 Q3180.74 1458.08 3182.54 1461.65 Q3184.37 1465.19 3187.98 1465.19 Q3191.61 1465.19 3193.42 1461.65 Q3195.25 1458.08 3195.25 1450.97 Q3195.25 1443.84 3193.42 1440.3 Q3191.61 1436.74 3187.98 1436.74 M3187.98 1433.03 Q3193.79 1433.03 3196.85 1437.64 Q3199.92 1442.22 3199.92 1450.97 Q3199.92 1459.7 3196.85 1464.31 Q3193.79 1468.89 3187.98 1468.89 Q3182.17 1468.89 3179.09 1464.31 Q3176.04 1459.7 3176.04 1450.97 Q3176.04 1442.22 3179.09 1437.64 Q3182.17 1433.03 3187.98 1433.03 Z" fill="#000000" fill-rule="nonzero" fill-opacity="1" /><path clip-path="url(#clip300)" d="M3542.19 1467.5 L3542.19 1463.24 Q3543.95 1464.08 3545.75 1464.52 Q3547.56 1464.96 3549.3 1464.96 Q3553.93 1464.96 3556.36 1461.85 Q3558.81 1458.73 3559.16 1452.39 Q3557.81 1454.38 3555.75 1455.44 Q3553.69 1456.51 3551.19 1456.51 Q3546.01 1456.51 3542.98 1453.38 Q3539.97 1450.23 3539.97 1444.79 Q3539.97 1439.47 3543.12 1436.25 Q3546.26 1433.03 3551.49 1433.03 Q3557.49 1433.03 3560.64 1437.64 Q3563.81 1442.22 3563.81 1450.97 Q3563.81 1459.15 3559.92 1464.03 Q3556.05 1468.89 3549.5 1468.89 Q3547.74 1468.89 3545.94 1468.54 Q3544.13 1468.2 3542.19 1467.5 M3551.49 1452.85 Q3554.64 1452.85 3556.47 1450.7 Q3558.32 1448.54 3558.32 1444.79 Q3558.32 1441.07 3556.47 1438.91 Q3554.64 1436.74 3551.49 1436.74 Q3548.35 1436.74 3546.49 1438.91 Q3544.67 1441.07 3544.67 1444.79 Q3544.67 1448.54 3546.49 1450.7 Q3548.35 1452.85 3551.49 1452.85 Z" fill="#000000" fill-rule="nonzero" fill-opacity="1" /><path clip-path="url(#clip300)" d="M3582.21 1436.74 Q3578.6 1436.74 3576.77 1440.3 Q3574.97 1443.84 3574.97 1450.97 Q3574.97 1458.08 3576.77 1461.65 Q3578.6 1465.19 3582.21 1465.19 Q3585.85 1465.19 3587.65 1461.65 Q3589.48 1458.08 3589.48 1450.97 Q3589.48 1443.84 3587.65 1440.3 Q3585.85 1436.74 3582.21 1436.74 M3582.21 1433.03 Q3588.02 1433.03 3591.08 1437.64 Q3594.16 1442.22 3594.16 1450.97 Q3594.16 1459.7 3591.08 1464.31 Q3588.02 1468.89 3582.21 1468.89 Q3576.4 1468.89 3573.32 1464.31 Q3570.27 1459.7 3570.27 1450.97 Q3570.27 1442.22 3573.32 1437.64 Q3576.4 1433.03 3582.21 1433.03 Z" fill="#000000" fill-rule="nonzero" fill-opacity="1" /><path clip-path="url(#clip300)" d="M2960.73 1556.54 L2960.73 1575.44 L2954.84 1575.44 L2954.84 1526.24 L2960.73 1526.24 L2960.73 1531.65 Q2962.58 1528.46 2965.38 1526.94 Q2968.21 1525.38 2972.12 1525.38 Q2978.62 1525.38 2982.66 1530.53 Q2986.73 1535.69 2986.73 1544.09 Q2986.73 1552.49 2982.66 1557.65 Q2978.62 1562.81 2972.12 1562.81 Q2968.21 1562.81 2965.38 1561.28 Q2962.58 1559.72 2960.73 1556.54 M2980.65 1544.09 Q2980.65 1537.63 2977.98 1533.97 Q2975.34 1530.28 2970.69 1530.28 Q2966.04 1530.28 2963.37 1533.97 Q2960.73 1537.63 2960.73 1544.09 Q2960.73 1550.55 2963.37 1554.24 Q2966.04 1557.91 2970.69 1557.91 Q2975.34 1557.91 2977.98 1554.24 Q2980.65 1550.55 2980.65 1544.09 Z" fill="#000000" fill-rule="nonzero" fill-opacity="1" /><path clip-path="url(#clip300)" d="M3031.23 1512.42 Q3026.96 1519.74 3024.9 1526.9 Q3022.83 1534.07 3022.83 1541.42 Q3022.83 1548.77 3024.9 1556 Q3027 1563.19 3031.23 1570.48 L3026.14 1570.48 Q3021.36 1563 3018.98 1555.77 Q3016.62 1548.55 3016.62 1541.42 Q3016.62 1534.32 3018.98 1527.13 Q3021.33 1519.93 3026.14 1512.42 L3031.23 1512.42 Z" fill="#000000" fill-rule="nonzero" fill-opacity="1" /><path clip-path="url(#clip300)" d="M3042.37 1512.36 L3048.26 1512.36 L3048.26 1541.61 L3065.73 1526.24 L3073.21 1526.24 L3054.31 1542.91 L3074.01 1561.88 L3066.37 1561.88 L3048.26 1544.47 L3048.26 1561.88 L3042.37 1561.88 L3042.37 1512.36 Z" fill="#000000" fill-rule="nonzero" fill-opacity="1" /><path clip-path="url(#clip300)" d="M3087.02 1519.65 L3087.02 1537.5 L3095.11 1537.5 Q3099.6 1537.5 3102.05 1535.18 Q3104.5 1532.86 3104.5 1528.56 Q3104.5 1524.29 3102.05 1521.97 Q3099.6 1519.65 3095.11 1519.65 L3087.02 1519.65 M3080.6 1514.36 L3095.11 1514.36 Q3103.1 1514.36 3107.17 1517.99 Q3111.28 1521.59 3111.28 1528.56 Q3111.28 1535.59 3107.17 1539.19 Q3103.1 1542.79 3095.11 1542.79 L3087.02 1542.79 L3087.02 1561.88 L3080.6 1561.88 L3080.6 1514.36 Z" fill="#000000" fill-rule="nonzero" fill-opacity="1" /><path clip-path="url(#clip300)" d="M3132.92 1543.96 Q3125.82 1543.96 3123.09 1545.59 Q3120.35 1547.21 3120.35 1551.13 Q3120.35 1554.24 3122.39 1556.09 Q3124.46 1557.91 3127.99 1557.91 Q3132.86 1557.91 3135.79 1554.47 Q3138.75 1551 3138.75 1545.27 L3138.75 1543.96 L3132.92 1543.96 M3144.6 1541.55 L3144.6 1561.88 L3138.75 1561.88 L3138.75 1556.47 Q3136.74 1559.72 3133.75 1561.28 Q3130.76 1562.81 3126.43 1562.81 Q3120.95 1562.81 3117.71 1559.75 Q3114.49 1556.66 3114.49 1551.51 Q3114.49 1545.49 3118.5 1542.44 Q3122.55 1539.38 3130.53 1539.38 L3138.75 1539.38 L3138.75 1538.81 Q3138.75 1534.77 3136.07 1532.57 Q3133.43 1530.34 3128.62 1530.34 Q3125.57 1530.34 3122.67 1531.07 Q3119.78 1531.81 3117.1 1533.27 L3117.1 1527.86 Q3120.32 1526.62 3123.34 1526.01 Q3126.37 1525.38 3129.23 1525.38 Q3136.96 1525.38 3140.78 1529.39 Q3144.6 1533.4 3144.6 1541.55 Z" fill="#000000" fill-rule="nonzero" fill-opacity="1" /><path clip-path="url(#clip300)" d="M3155.74 1512.42 L3160.84 1512.42 Q3165.61 1519.93 3167.96 1527.13 Q3170.35 1534.32 3170.35 1541.42 Q3170.35 1548.55 3167.96 1555.77 Q3165.61 1563 3160.84 1570.48 L3155.74 1570.48 Q3159.98 1563.19 3162.04 1556 Q3164.15 1548.77 3164.15 1541.42 Q3164.15 1534.07 3162.04 1526.9 Q3159.98 1519.74 3155.74 1512.42 Z" fill="#000000" fill-rule="nonzero" fill-opacity="1" /><polyline clip-path="url(#clip303)" style="stroke:#000000; stroke-linecap:round; stroke-linejoin:round; stroke-width:2; stroke-opacity:0.1; fill:none" points="2235.43,1358.19 3889.76,1358.19 "/>
<polyline clip-path="url(#clip303)" style="stroke:#000000; stroke-linecap:round; stroke-linejoin:round; stroke-width:2; stroke-opacity:0.1; fill:none" points="2235.43,1094.3 3889.76,1094.3 "/>
<polyline clip-path="url(#clip303)" style="stroke:#000000; stroke-linecap:round; stroke-linejoin:round; stroke-width:2; stroke-opacity:0.1; fill:none" points="2235.43,830.422 3889.76,830.422 "/>
<polyline clip-path="url(#clip303)" style="stroke:#000000; stroke-linecap:round; stroke-linejoin:round; stroke-width:2; stroke-opacity:0.1; fill:none" points="2235.43,566.54 3889.76,566.54 "/>
<polyline clip-path="url(#clip303)" style="stroke:#000000; stroke-linecap:round; stroke-linejoin:round; stroke-width:2; stroke-opacity:0.1; fill:none" points="2235.43,302.658 3889.76,302.658 "/>
<polyline clip-path="url(#clip300)" style="stroke:#000000; stroke-linecap:round; stroke-linejoin:round; stroke-width:4; stroke-opacity:1; fill:none" points="2235.43,1393.02 2235.43,162.272 "/>
<polyline clip-path="url(#clip300)" style="stroke:#000000; stroke-linecap:round; stroke-linejoin:round; stroke-width:4; stroke-opacity:1; fill:none" points="2235.43,1358.19 2254.33,1358.19 "/>
<polyline clip-path="url(#clip300)" style="stroke:#000000; stroke-linecap:round; stroke-linejoin:round; stroke-width:4; stroke-opacity:1; fill:none" points="2235.43,1094.3 2254.33,1094.3 "/>
<polyline clip-path="url(#clip300)" style="stroke:#000000; stroke-linecap:round; stroke-linejoin:round; stroke-width:4; stroke-opacity:1; fill:none" points="2235.43,830.422 2254.33,830.422 "/>
<polyline clip-path="url(#clip300)" style="stroke:#000000; stroke-linecap:round; stroke-linejoin:round; stroke-width:4; stroke-opacity:1; fill:none" points="2235.43,566.54 2254.33,566.54 "/>
<polyline clip-path="url(#clip300)" style="stroke:#000000; stroke-linecap:round; stroke-linejoin:round; stroke-width:4; stroke-opacity:1; fill:none" points="2235.43,302.658 2254.33,302.658 "/>
<path clip-path="url(#clip300)" d="M2163.48 1343.99 Q2159.87 1343.99 2158.05 1347.55 Q2156.24 1351.09 2156.24 1358.22 Q2156.24 1365.33 2158.05 1368.89 Q2159.87 1372.43 2163.48 1372.43 Q2167.12 1372.43 2168.92 1368.89 Q2170.75 1365.33 2170.75 1358.22 Q2170.75 1351.09 2168.92 1347.55 Q2167.12 1343.99 2163.48 1343.99 M2163.48 1340.28 Q2169.3 1340.28 2172.35 1344.89 Q2175.43 1349.47 2175.43 1358.22 Q2175.43 1366.95 2172.35 1371.56 Q2169.3 1376.14 2163.48 1376.14 Q2157.67 1376.14 2154.6 1371.56 Q2151.54 1366.95 2151.54 1358.22 Q2151.54 1349.47 2154.6 1344.89 Q2157.67 1340.28 2163.48 1340.28 Z" fill="#000000" fill-rule="nonzero" fill-opacity="1" /><path clip-path="url(#clip300)" d="M2155.52 1107.65 L2163.16 1107.65 L2163.16 1081.28 L2154.85 1082.95 L2154.85 1078.69 L2163.11 1077.02 L2167.79 1077.02 L2167.79 1107.65 L2175.43 1107.65 L2175.43 1111.58 L2155.52 1111.58 L2155.52 1107.65 Z" fill="#000000" fill-rule="nonzero" fill-opacity="1" /><path clip-path="url(#clip300)" d="M2159.11 843.767 L2175.43 843.767 L2175.43 847.702 L2153.49 847.702 L2153.49 843.767 Q2156.15 841.013 2160.73 836.383 Q2165.34 831.73 2166.52 830.388 Q2168.76 827.865 2169.64 826.129 Q2170.55 824.369 2170.55 822.679 Q2170.55 819.925 2168.6 818.189 Q2166.68 816.453 2163.58 816.453 Q2161.38 816.453 2158.92 817.217 Q2156.49 817.98 2153.72 819.531 L2153.72 814.809 Q2156.54 813.675 2158.99 813.096 Q2161.45 812.517 2163.48 812.517 Q2168.86 812.517 2172.05 815.203 Q2175.24 817.888 2175.24 822.379 Q2175.24 824.508 2174.43 826.429 Q2173.65 828.328 2171.54 830.92 Q2170.96 831.591 2167.86 834.809 Q2164.76 838.003 2159.11 843.767 Z" fill="#000000" fill-rule="nonzero" fill-opacity="1" /><path clip-path="url(#clip300)" d="M2168.3 565.186 Q2171.66 565.904 2173.53 568.172 Q2175.43 570.441 2175.43 573.774 Q2175.43 578.89 2171.91 581.69 Q2168.39 584.491 2161.91 584.491 Q2159.73 584.491 2157.42 584.052 Q2155.13 583.635 2152.67 582.778 L2152.67 578.265 Q2154.62 579.399 2156.93 579.978 Q2159.25 580.556 2161.77 580.556 Q2166.17 580.556 2168.46 578.82 Q2170.78 577.084 2170.78 573.774 Q2170.78 570.718 2168.62 569.005 Q2166.49 567.269 2162.67 567.269 L2158.65 567.269 L2158.65 563.427 L2162.86 563.427 Q2166.31 563.427 2168.14 562.061 Q2169.97 560.672 2169.97 558.079 Q2169.97 555.417 2168.07 554.005 Q2166.19 552.57 2162.67 552.57 Q2160.75 552.57 2158.55 552.987 Q2156.36 553.404 2153.72 554.283 L2153.72 550.117 Q2156.38 549.376 2158.69 549.005 Q2161.03 548.635 2163.09 548.635 Q2168.42 548.635 2171.52 551.066 Q2174.62 553.473 2174.62 557.593 Q2174.62 560.464 2172.98 562.454 Q2171.33 564.422 2168.3 565.186 Z" fill="#000000" fill-rule="nonzero" fill-opacity="1" /><path clip-path="url(#clip300)" d="M2165.85 289.452 L2154.04 307.901 L2165.85 307.901 L2165.85 289.452 M2164.62 285.378 L2170.5 285.378 L2170.5 307.901 L2175.43 307.901 L2175.43 311.79 L2170.5 311.79 L2170.5 319.938 L2165.85 319.938 L2165.85 311.79 L2150.24 311.79 L2150.24 307.276 L2164.62 285.378 Z" fill="#000000" fill-rule="nonzero" fill-opacity="1" /><path clip-path="url(#clip300)" d="M2040.34 876.171 L2040.34 848.353 L2045.69 848.353 L2071.31 870.378 L2071.31 848.353 L2075.99 848.353 L2075.99 876.967 L2070.64 876.967 L2045.02 854.942 L2045.02 876.171 L2040.34 876.171 Z" fill="#000000" fill-rule="nonzero" fill-opacity="1" /><path clip-path="url(#clip300)" d="M2026.53 804.621 Q2033.85 808.886 2041.01 810.955 Q2048.17 813.023 2055.52 813.023 Q2062.87 813.023 2070.1 810.955 Q2077.29 808.854 2084.58 804.621 L2084.58 809.713 Q2077.1 814.488 2069.88 816.875 Q2062.65 819.23 2055.52 819.23 Q2048.42 819.23 2041.23 816.875 Q2034.04 814.519 2026.53 809.713 L2026.53 804.621 Z" fill="#000000" fill-rule="nonzero" fill-opacity="1" /><path clip-path="url(#clip300)" d="M2026.46 793.481 L2026.46 787.592 L2055.71 787.592 L2040.34 770.119 L2040.34 762.639 L2057.02 781.545 L2075.99 761.843 L2075.99 769.482 L2058.58 787.592 L2075.99 787.592 L2075.99 793.481 L2026.46 793.481 Z" fill="#000000" fill-rule="nonzero" fill-opacity="1" /><path clip-path="url(#clip300)" d="M2047.18 727.755 Q2043.24 725.559 2041.36 722.503 Q2039.48 719.448 2039.48 715.31 Q2039.48 709.74 2043.4 706.716 Q2047.28 703.692 2054.47 703.692 L2075.99 703.692 L2075.99 709.581 L2054.66 709.581 Q2049.54 709.581 2047.06 711.395 Q2044.57 713.209 2044.57 716.933 Q2044.57 721.485 2047.6 724.126 Q2050.62 726.768 2055.84 726.768 L2075.99 726.768 L2075.99 732.656 L2054.66 732.656 Q2049.51 732.656 2047.06 734.471 Q2044.57 736.285 2044.57 740.072 Q2044.57 744.56 2047.63 747.202 Q2050.65 749.844 2055.84 749.844 L2075.99 749.844 L2075.99 755.732 L2040.34 755.732 L2040.34 749.844 L2045.88 749.844 Q2042.6 747.839 2041.04 745.038 Q2039.48 742.237 2039.48 738.385 Q2039.48 734.502 2041.45 731.797 Q2043.43 729.06 2047.18 727.755 Z" fill="#000000" fill-rule="nonzero" fill-opacity="1" /><path clip-path="url(#clip300)" d="M2026.53 692.934 L2026.53 687.842 Q2034.04 683.067 2041.23 680.712 Q2048.42 678.325 2055.52 678.325 Q2062.65 678.325 2069.88 680.712 Q2077.1 683.067 2084.58 687.842 L2084.58 692.934 Q2077.29 688.701 2070.1 686.632 Q2062.87 684.532 2055.52 684.532 Q2048.17 684.532 2041.01 686.632 Q2033.85 688.701 2026.53 692.934 Z" fill="#000000" fill-rule="nonzero" fill-opacity="1" /><path clip-path="url(#clip300)" d="M2932.95 65.7705 L2932.95 89.8329 L2925.45 89.8329 L2925.45 27.2059 L2932.95 27.2059 L2932.95 34.0924 Q2935.3 30.0415 2938.86 28.0971 Q2942.47 26.1121 2947.45 26.1121 Q2955.71 26.1121 2960.86 32.6746 Q2966.04 39.2371 2966.04 49.9314 Q2966.04 60.6258 2960.86 67.1883 Q2955.71 73.7508 2947.45 73.7508 Q2942.47 73.7508 2938.86 71.8063 Q2935.3 69.8214 2932.95 65.7705 M2958.31 49.9314 Q2958.31 41.7081 2954.9 37.0496 Q2951.54 32.3505 2945.63 32.3505 Q2939.71 32.3505 2936.31 37.0496 Q2932.95 41.7081 2932.95 49.9314 Q2932.95 58.1548 2936.31 62.8538 Q2939.71 67.5124 2945.63 67.5124 Q2951.54 67.5124 2954.9 62.8538 Q2958.31 58.1548 2958.31 49.9314 Z" fill="#000000" fill-rule="nonzero" fill-opacity="1" /><path clip-path="url(#clip300)" d="M3022.67 9.62495 Q3017.25 18.942 3014.61 28.0566 Q3011.98 37.1711 3011.98 46.5287 Q3011.98 55.8863 3014.61 65.0818 Q3017.29 74.2369 3022.67 83.5134 L3016.19 83.5134 Q3010.12 73.9938 3007.08 64.7983 Q3004.08 55.6027 3004.08 46.5287 Q3004.08 37.4952 3007.08 28.3401 Q3010.08 19.1851 3016.19 9.62495 L3022.67 9.62495 Z" fill="#000000" fill-rule="nonzero" fill-opacity="1" /><path clip-path="url(#clip300)" d="M3036.85 9.54393 L3044.35 9.54393 L3044.35 46.7717 L3066.59 27.2059 L3076.11 27.2059 L3052.04 48.4326 L3077.12 72.576 L3067.4 72.576 L3044.35 50.4176 L3044.35 72.576 L3036.85 72.576 L3036.85 9.54393 Z" fill="#000000" fill-rule="nonzero" fill-opacity="1" /><path clip-path="url(#clip300)" d="M3093.69 18.8205 L3093.69 41.5461 L3103.98 41.5461 Q3109.69 41.5461 3112.81 38.5889 Q3115.93 35.6318 3115.93 30.163 Q3115.93 24.7348 3112.81 21.7777 Q3109.69 18.8205 3103.98 18.8205 L3093.69 18.8205 M3085.5 12.096 L3103.98 12.096 Q3114.14 12.096 3119.33 16.714 Q3124.56 21.2916 3124.56 30.163 Q3124.56 39.1155 3119.33 43.6931 Q3114.14 48.2706 3103.98 48.2706 L3093.69 48.2706 L3093.69 72.576 L3085.5 72.576 L3085.5 12.096 Z" fill="#000000" fill-rule="nonzero" fill-opacity="1" /><path clip-path="url(#clip300)" d="M3152.1 49.7694 Q3143.07 49.7694 3139.58 51.8354 Q3136.1 53.9013 3136.1 58.8839 Q3136.1 62.8538 3138.69 65.2034 Q3141.33 67.5124 3145.82 67.5124 Q3152.02 67.5124 3155.75 63.1374 Q3159.51 58.7219 3159.51 51.4303 L3159.51 49.7694 L3152.1 49.7694 M3166.97 46.6907 L3166.97 72.576 L3159.51 72.576 L3159.51 65.6895 Q3156.96 69.8214 3153.15 71.8063 Q3149.35 73.7508 3143.84 73.7508 Q3136.87 73.7508 3132.74 69.8619 Q3128.65 65.9325 3128.65 59.3701 Q3128.65 51.7138 3133.75 47.825 Q3138.9 43.9361 3149.06 43.9361 L3159.51 43.9361 L3159.51 43.2069 Q3159.51 38.0623 3156.11 35.2672 Q3152.75 32.4315 3146.63 32.4315 Q3142.74 32.4315 3139.06 33.3632 Q3135.37 34.295 3131.97 36.1584 L3131.97 29.2718 Q3136.06 27.692 3139.91 26.9223 Q3143.76 26.1121 3147.4 26.1121 Q3157.25 26.1121 3162.11 31.2163 Q3166.97 36.3204 3166.97 46.6907 Z" fill="#000000" fill-rule="nonzero" fill-opacity="1" /><path clip-path="url(#clip300)" d="M3181.15 9.62495 L3187.63 9.62495 Q3193.7 19.1851 3196.7 28.3401 Q3199.74 37.4952 3199.74 46.5287 Q3199.74 55.6027 3196.7 64.7983 Q3193.7 73.9938 3187.63 83.5134 L3181.15 83.5134 Q3186.53 74.2369 3189.17 65.0818 Q3191.84 55.8863 3191.84 46.5287 Q3191.84 37.1711 3189.17 28.0566 Q3186.53 18.942 3181.15 9.62495 Z" fill="#000000" fill-rule="nonzero" fill-opacity="1" /><polyline clip-path="url(#clip303)" style="stroke:#009af9; stroke-linecap:round; stroke-linejoin:round; stroke-width:4; stroke-opacity:1; fill:none" points="3832.13,1351.59 3810.56,1338.4 3789.09,1325.2 3767.7,1312.01 3746.4,1298.81 3725.18,1285.62 3704.05,1272.43 3683.01,1259.23 3662.05,1246.04 3641.18,1232.84 3620.4,1219.65 3599.7,1206.45 3579.09,1193.26 3558.56,1180.07 3538.11,1166.87 3517.76,1153.68 3497.5,1140.48 3477.34,1127.29 3457.28,1114.1 3437.32,1100.9 3417.46,1087.71 3397.69,1074.51 3378.03,1061.32 3358.45,1048.13 3338.98,1034.93 3319.6,1021.74 3300.31,1008.54 3281.12,995.349 3262.03,982.155 3243.03,968.961 3224.12,955.767 3205.31,942.572 3186.59,929.378 3167.96,916.184 3149.43,902.99 3130.98,889.796 3112.63,876.602 3094.37,863.408 3076.2,850.214 3058.12,837.02 3040.13,823.825 3022.23,810.631 3004.42,797.437 2986.7,784.243 2969.06,771.049 2951.52,757.855 2934.06,744.661 2916.69,731.467 2899.4,718.272 2882.21,705.078 2865.1,691.884 2848.07,678.69 2831.13,665.496 2814.28,652.302 2797.51,639.108 2780.82,625.914 2764.22,612.719 2747.7,599.525 2731.27,586.331 2714.92,573.137 2698.65,559.943 2682.46,546.749 2666.36,533.555 2650.33,520.361 2634.39,507.167 2618.53,493.972 2602.75,480.778 2587.05,467.584 2571.42,454.39 2555.88,441.196 2540.42,428.002 2525.04,414.808 2509.73,401.614 2494.5,388.419 2479.35,375.225 2464.28,362.031 2449.28,348.837 2434.36,335.643 2419.52,322.449 2404.75,309.255 2390.06,296.061 2375.44,282.867 2360.9,269.672 2346.44,256.478 2332.04,243.284 2317.73,230.09 2303.48,216.896 2289.31,203.702 "/>
<polyline clip-path="url(#clip303)" style="stroke:#e26f46; stroke-linecap:round; stroke-linejoin:round; stroke-width:4; stroke-opacity:1; fill:none" points="3842.94,1358.19 3821.34,1344.99 3799.82,1331.8 3778.38,1318.6 3757.04,1305.41 3735.78,1292.22 3714.61,1279.02 3693.52,1265.83 3672.52,1252.63 3651.61,1239.44 3630.78,1226.25 3610.04,1213.05 3589.38,1199.86 3568.81,1186.66 3548.32,1173.47 3527.92,1160.28 3507.62,1147.08 3487.41,1133.89 3467.3,1120.69 3447.29,1107.5 3427.38,1094.3 3407.56,1081.11 3387.85,1067.92 3368.23,1054.72 3348.7,1041.53 3329.28,1028.33 3309.94,1015.14 3290.71,1001.95 3271.56,988.752 3252.52,975.558 3233.56,962.364 3214.7,949.17 3195.94,935.975 3177.26,922.781 3158.68,909.587 3140.19,896.393 3121.79,883.199 3103.49,870.005 3085.27,856.811 3067.15,843.617 3049.11,830.422 3031.17,817.228 3013.31,804.034 2995.55,790.84 2977.87,777.646 2960.28,764.452 2942.78,751.258 2925.36,738.064 2908.04,724.87 2890.8,711.675 2873.64,698.481 2856.57,685.287 2839.59,672.093 2822.69,658.899 2805.88,645.705 2789.15,632.511 2772.51,619.317 2755.95,606.122 2739.48,592.928 2723.08,579.734 2706.77,566.54 2690.54,553.346 2674.4,540.152 2658.33,526.958 2642.35,513.764 2626.45,500.569 2610.63,487.375 2594.89,474.181 2579.23,460.987 2563.64,447.793 2548.14,434.599 2532.72,421.405 2517.37,408.211 2502.11,395.017 2486.92,381.822 2471.81,368.628 2456.77,355.434 2441.81,342.24 2426.93,329.046 2412.13,315.852 2397.4,302.658 2382.74,289.464 2368.16,276.269 2353.66,263.075 2339.23,249.881 2324.88,236.687 2310.59,223.493 2296.39,210.299 2282.25,197.105 "/>
<path clip-path="url(#clip300)" d="M3496.9 358.817 L3834.62 358.817 L3834.62 203.297 L3496.9 203.297  Z" fill="#ffffff" fill-rule="evenodd" fill-opacity="1"/>
<polyline clip-path="url(#clip300)" style="stroke:#000000; stroke-linecap:round; stroke-linejoin:round; stroke-width:4; stroke-opacity:1; fill:none" points="3496.9,358.817 3834.62,358.817 3834.62,203.297 3496.9,203.297 3496.9,358.817 "/>
<polyline clip-path="url(#clip300)" style="stroke:#009af9; stroke-linecap:round; stroke-linejoin:round; stroke-width:4; stroke-opacity:1; fill:none" points="3515.28,255.137 3625.57,255.137 "/>
<path clip-path="url(#clip300)" d="M3664.46 247.487 L3664.46 251.468 Q3662.65 250.473 3660.82 249.987 Q3659.02 249.477 3657.16 249.477 Q3653.02 249.477 3650.73 252.116 Q3648.44 254.732 3648.44 259.477 Q3648.44 264.223 3650.73 266.862 Q3653.02 269.477 3657.16 269.477 Q3659.02 269.477 3660.82 268.991 Q3662.65 268.482 3664.46 267.487 L3664.46 271.422 Q3662.67 272.255 3660.75 272.672 Q3658.85 273.088 3656.7 273.088 Q3650.85 273.088 3647.4 269.408 Q3643.95 265.727 3643.95 259.477 Q3643.95 253.135 3647.42 249.501 Q3650.91 245.866 3656.98 245.866 Q3658.95 245.866 3660.82 246.283 Q3662.7 246.677 3664.46 247.487 Z" fill="#000000" fill-rule="nonzero" fill-opacity="1" /><path clip-path="url(#clip300)" d="M3694.04 258.389 L3694.04 260.473 L3674.46 260.473 Q3674.73 264.871 3677.1 267.186 Q3679.48 269.477 3683.72 269.477 Q3686.17 269.477 3688.46 268.876 Q3690.78 268.274 3693.04 267.07 L3693.04 271.098 Q3690.75 272.07 3688.34 272.579 Q3685.94 273.088 3683.46 273.088 Q3677.26 273.088 3673.62 269.477 Q3670.01 265.866 3670.01 259.709 Q3670.01 253.343 3673.44 249.616 Q3676.89 245.866 3682.72 245.866 Q3687.95 245.866 3690.98 249.246 Q3694.04 252.602 3694.04 258.389 M3689.78 257.139 Q3689.73 253.644 3687.81 251.561 Q3685.91 249.477 3682.77 249.477 Q3679.2 249.477 3677.05 251.491 Q3674.92 253.505 3674.6 257.163 L3689.78 257.139 Z" fill="#000000" fill-rule="nonzero" fill-opacity="1" /><path clip-path="url(#clip300)" d="M3722.58 256.769 L3722.58 272.417 L3718.32 272.417 L3718.32 256.908 Q3718.32 253.227 3716.89 251.399 Q3715.45 249.57 3712.58 249.57 Q3709.13 249.57 3707.14 251.769 Q3705.15 253.968 3705.15 257.764 L3705.15 272.417 L3700.87 272.417 L3700.87 246.491 L3705.15 246.491 L3705.15 250.519 Q3706.68 248.181 3708.74 247.024 Q3710.82 245.866 3713.53 245.866 Q3718 245.866 3720.29 248.644 Q3722.58 251.399 3722.58 256.769 Z" fill="#000000" fill-rule="nonzero" fill-opacity="1" /><path clip-path="url(#clip300)" d="M3735.29 239.13 L3735.29 246.491 L3744.06 246.491 L3744.06 249.802 L3735.29 249.802 L3735.29 263.876 Q3735.29 267.047 3736.15 267.95 Q3737.03 268.852 3739.69 268.852 L3744.06 268.852 L3744.06 272.417 L3739.69 272.417 Q3734.76 272.417 3732.88 270.588 Q3731.01 268.737 3731.01 263.876 L3731.01 249.802 L3727.88 249.802 L3727.88 246.491 L3731.01 246.491 L3731.01 239.13 L3735.29 239.13 Z" fill="#000000" fill-rule="nonzero" fill-opacity="1" /><path clip-path="url(#clip300)" d="M3771.84 258.389 L3771.84 260.473 L3752.26 260.473 Q3752.53 264.871 3754.9 267.186 Q3757.28 269.477 3761.52 269.477 Q3763.97 269.477 3766.26 268.876 Q3768.58 268.274 3770.84 267.07 L3770.84 271.098 Q3768.55 272.07 3766.15 272.579 Q3763.74 273.088 3761.26 273.088 Q3755.06 273.088 3751.42 269.477 Q3747.81 265.866 3747.81 259.709 Q3747.81 253.343 3751.24 249.616 Q3754.69 245.866 3760.52 245.866 Q3765.75 245.866 3768.78 249.246 Q3771.84 252.602 3771.84 258.389 M3767.58 257.139 Q3767.53 253.644 3765.61 251.561 Q3763.71 249.477 3760.57 249.477 Q3757 249.477 3754.85 251.491 Q3752.72 253.505 3752.4 257.163 L3767.58 257.139 Z" fill="#000000" fill-rule="nonzero" fill-opacity="1" /><path clip-path="url(#clip300)" d="M3793.85 250.473 Q3793.14 250.056 3792.28 249.871 Q3791.45 249.663 3790.43 249.663 Q3786.82 249.663 3784.87 252.024 Q3782.95 254.362 3782.95 258.76 L3782.95 272.417 L3778.67 272.417 L3778.67 246.491 L3782.95 246.491 L3782.95 250.519 Q3784.29 248.158 3786.45 247.024 Q3788.6 245.866 3791.68 245.866 Q3792.12 245.866 3792.65 245.936 Q3793.18 245.982 3793.83 246.098 L3793.85 250.473 Z" fill="#000000" fill-rule="nonzero" fill-opacity="1" /><path clip-path="url(#clip300)" d="M3814.85 247.255 L3814.85 251.283 Q3813.04 250.357 3811.1 249.894 Q3809.15 249.431 3807.07 249.431 Q3803.9 249.431 3802.3 250.403 Q3800.73 251.376 3800.73 253.32 Q3800.73 254.802 3801.86 255.658 Q3803 256.491 3806.42 257.255 L3807.88 257.579 Q3812.42 258.552 3814.32 260.334 Q3816.24 262.093 3816.24 265.264 Q3816.24 268.876 3813.37 270.982 Q3810.52 273.088 3805.52 273.088 Q3803.44 273.088 3801.17 272.672 Q3798.92 272.278 3796.42 271.468 L3796.42 267.07 Q3798.78 268.297 3801.08 268.922 Q3803.37 269.524 3805.61 269.524 Q3808.62 269.524 3810.24 268.505 Q3811.86 267.463 3811.86 265.589 Q3811.86 263.852 3810.68 262.926 Q3809.52 262.001 3805.57 261.144 L3804.09 260.797 Q3800.13 259.964 3798.37 258.251 Q3796.61 256.514 3796.61 253.505 Q3796.61 249.848 3799.2 247.857 Q3801.79 245.866 3806.56 245.866 Q3808.92 245.866 3811.01 246.214 Q3813.09 246.561 3814.85 247.255 Z" fill="#000000" fill-rule="nonzero" fill-opacity="1" /><polyline clip-path="url(#clip300)" style="stroke:#e26f46; stroke-linecap:round; stroke-linejoin:round; stroke-width:4; stroke-opacity:1; fill:none" points="3515.28,306.977 3625.57,306.977 "/>
<path clip-path="url(#clip300)" d="M3660.45 288.239 L3660.45 291.78 L3656.38 291.78 Q3654.09 291.78 3653.18 292.706 Q3652.3 293.632 3652.3 296.04 L3652.3 298.331 L3659.32 298.331 L3659.32 301.642 L3652.3 301.642 L3652.3 324.257 L3648.02 324.257 L3648.02 301.642 L3643.95 301.642 L3643.95 298.331 L3648.02 298.331 L3648.02 296.526 Q3648.02 292.197 3650.03 290.23 Q3652.05 288.239 3656.42 288.239 L3660.45 288.239 Z" fill="#000000" fill-rule="nonzero" fill-opacity="1" /><path clip-path="url(#clip300)" d="M3675.8 311.225 Q3670.64 311.225 3668.65 312.405 Q3666.66 313.586 3666.66 316.433 Q3666.66 318.702 3668.14 320.044 Q3669.64 321.364 3672.21 321.364 Q3675.75 321.364 3677.88 318.864 Q3680.03 316.341 3680.03 312.174 L3680.03 311.225 L3675.8 311.225 M3684.29 309.466 L3684.29 324.257 L3680.03 324.257 L3680.03 320.322 Q3678.58 322.683 3676.4 323.817 Q3674.22 324.928 3671.08 324.928 Q3667.1 324.928 3664.73 322.706 Q3662.4 320.461 3662.4 316.711 Q3662.4 312.336 3665.31 310.114 Q3668.25 307.892 3674.06 307.892 L3680.03 307.892 L3680.03 307.475 Q3680.03 304.535 3678.09 302.938 Q3676.17 301.317 3672.67 301.317 Q3670.45 301.317 3668.35 301.85 Q3666.24 302.382 3664.29 303.447 L3664.29 299.512 Q3666.63 298.609 3668.83 298.169 Q3671.03 297.706 3673.11 297.706 Q3678.74 297.706 3681.52 300.623 Q3684.29 303.54 3684.29 309.466 Z" fill="#000000" fill-rule="nonzero" fill-opacity="1" /><path clip-path="url(#clip300)" d="M3711.72 299.327 L3711.72 303.308 Q3709.92 302.313 3708.09 301.827 Q3706.28 301.317 3704.43 301.317 Q3700.29 301.317 3698 303.956 Q3695.71 306.572 3695.71 311.317 Q3695.71 316.063 3698 318.702 Q3700.29 321.317 3704.43 321.317 Q3706.28 321.317 3708.09 320.831 Q3709.92 320.322 3711.72 319.327 L3711.72 323.262 Q3709.94 324.095 3708.02 324.512 Q3706.12 324.928 3703.97 324.928 Q3698.11 324.928 3694.66 321.248 Q3691.22 317.567 3691.22 311.317 Q3691.22 304.975 3694.69 301.341 Q3698.18 297.706 3704.25 297.706 Q3706.22 297.706 3708.09 298.123 Q3709.97 298.517 3711.72 299.327 Z" fill="#000000" fill-rule="nonzero" fill-opacity="1" /><path clip-path="url(#clip300)" d="M3741.31 310.229 L3741.31 312.313 L3721.72 312.313 Q3722 316.711 3724.36 319.026 Q3726.75 321.317 3730.98 321.317 Q3733.44 321.317 3735.73 320.716 Q3738.04 320.114 3740.31 318.91 L3740.31 322.938 Q3738.02 323.91 3735.61 324.419 Q3733.21 324.928 3730.73 324.928 Q3724.53 324.928 3720.89 321.317 Q3717.28 317.706 3717.28 311.549 Q3717.28 305.183 3720.71 301.456 Q3724.15 297.706 3729.99 297.706 Q3735.22 297.706 3738.25 301.086 Q3741.31 304.442 3741.31 310.229 M3737.05 308.979 Q3737 305.484 3735.08 303.401 Q3733.18 301.317 3730.03 301.317 Q3726.47 301.317 3724.32 303.331 Q3722.19 305.345 3721.86 309.003 L3737.05 308.979 Z" fill="#000000" fill-rule="nonzero" fill-opacity="1" /><path clip-path="url(#clip300)" d="M3764.83 299.095 L3764.83 303.123 Q3763.02 302.197 3761.08 301.734 Q3759.13 301.271 3757.05 301.271 Q3753.88 301.271 3752.28 302.243 Q3750.71 303.216 3750.71 305.16 Q3750.71 306.642 3751.84 307.498 Q3752.97 308.331 3756.4 309.095 L3757.86 309.419 Q3762.4 310.392 3764.29 312.174 Q3766.21 313.933 3766.21 317.104 Q3766.21 320.716 3763.34 322.822 Q3760.5 324.928 3755.5 324.928 Q3753.41 324.928 3751.15 324.512 Q3748.9 324.118 3746.4 323.308 L3746.4 318.91 Q3748.76 320.137 3751.05 320.762 Q3753.34 321.364 3755.59 321.364 Q3758.6 321.364 3760.22 320.345 Q3761.84 319.303 3761.84 317.429 Q3761.84 315.692 3760.66 314.766 Q3759.5 313.841 3755.54 312.984 L3754.06 312.637 Q3750.1 311.804 3748.34 310.091 Q3746.59 308.354 3746.59 305.345 Q3746.59 301.688 3749.18 299.697 Q3751.77 297.706 3756.54 297.706 Q3758.9 297.706 3760.98 298.054 Q3763.07 298.401 3764.83 299.095 Z" fill="#000000" fill-rule="nonzero" fill-opacity="1" /></svg>
