<?xml version="1.0" encoding="utf-8"?>
<svg xmlns="http://www.w3.org/2000/svg" xmlns:xlink="http://www.w3.org/1999/xlink" width="1000" height="400" viewBox="0 0 4000 1600">
<defs>
  <clipPath id="clip210">
    <rect x="0" y="0" width="4000" height="1600"/>
  </clipPath>
</defs>
<path clip-path="url(#clip210)" d="M0 1600 L4000 1600 L4000 0 L0 0  Z" fill="#ffffff" fill-rule="evenodd" fill-opacity="1"/>
<defs>
  <clipPath id="clip211">
    <rect x="800" y="0" width="2801" height="1600"/>
  </clipPath>
</defs>
<path clip-path="url(#clip210)" d="M234.133 1393.02 L1889.76 1393.02 L1889.76 162.272 L234.133 162.272  Z" fill="#ffffff" fill-rule="evenodd" fill-opacity="1"/>
<defs>
  <clipPath id="clip212">
    <rect x="234" y="162" width="1657" height="1232"/>
  </clipPath>
</defs>
<polyline clip-path="url(#clip212)" style="stroke:#000000; stroke-linecap:round; stroke-linejoin:round; stroke-width:2; stroke-opacity:0.1; fill:none" points="462.386,1393.02 462.386,162.272 "/>
<polyline clip-path="url(#clip212)" style="stroke:#000000; stroke-linecap:round; stroke-linejoin:round; stroke-width:2; stroke-opacity:0.1; fill:none" points="726.422,1393.02 726.422,162.272 "/>
<polyline clip-path="url(#clip212)" style="stroke:#000000; stroke-linecap:round; stroke-linejoin:round; stroke-width:2; stroke-opacity:0.1; fill:none" points="990.457,1393.02 990.457,162.272 "/>
<polyline clip-path="url(#clip212)" style="stroke:#000000; stroke-linecap:round; stroke-linejoin:round; stroke-width:2; stroke-opacity:0.1; fill:none" points="1254.49,1393.02 1254.49,162.272 "/>
<polyline clip-path="url(#clip212)" style="stroke:#000000; stroke-linecap:round; stroke-linejoin:round; stroke-width:2; stroke-opacity:0.1; fill:none" points="1518.53,1393.02 1518.53,162.272 "/>
<polyline clip-path="url(#clip212)" style="stroke:#000000; stroke-linecap:round; stroke-linejoin:round; stroke-width:2; stroke-opacity:0.1; fill:none" points="1782.56,1393.02 1782.56,162.272 "/>
<polyline clip-path="url(#clip210)" style="stroke:#000000; stroke-linecap:round; stroke-linejoin:round; stroke-width:4; stroke-opacity:1; fill:none" points="234.133,1393.02 1889.76,1393.02 "/>
<polyline clip-path="url(#clip210)" style="stroke:#000000; stroke-linecap:round; stroke-linejoin:round; stroke-width:4; stroke-opacity:1; fill:none" points="462.386,1393.02 462.386,1374.12 "/>
<polyline clip-path="url(#clip210)" style="stroke:#000000; stroke-linecap:round; stroke-linejoin:round; stroke-width:4; stroke-opacity:1; fill:none" points="726.422,1393.02 726.422,1374.12 "/>
<polyline clip-path="url(#clip210)" style="stroke:#000000; stroke-linecap:round; stroke-linejoin:round; stroke-width:4; stroke-opacity:1; fill:none" points="990.457,1393.02 990.457,1374.12 "/>
<polyline clip-path="url(#clip210)" style="stroke:#000000; stroke-linecap:round; stroke-linejoin:round; stroke-width:4; stroke-opacity:1; fill:none" points="1254.49,1393.02 1254.49,1374.12 "/>
<polyline clip-path="url(#clip210)" style="stroke:#000000; stroke-linecap:round; stroke-linejoin:round; stroke-width:4; stroke-opacity:1; fill:none" points="1518.53,1393.02 1518.53,1374.12 "/>
<polyline clip-path="url(#clip210)" style="stroke:#000000; stroke-linecap:round; stroke-linejoin:round; stroke-width:4; stroke-opacity:1; fill:none" points="1782.56,1393.02 1782.56,1374.12 "/>
<path clip-path="url(#clip210)" d="M424.69 1436.74 Q421.079 1436.74 419.25 1440.3 Q417.445 1443.84 417.445 1450.97 Q417.445 1458.08 419.25 1461.65 Q421.079 1465.19 424.69 1465.19 Q428.324 1465.19 430.13 1461.65 Q431.958 1458.08 431.958 1450.97 Q431.958 1443.84 430.13 1440.3 Q428.324 1436.74 424.69 1436.74 M424.69 1433.03 Q430.5 1433.03 433.556 1437.64 Q436.634 1442.22 436.634 1450.97 Q436.634 1459.7 433.556 1464.31 Q430.5 1468.89 424.69 1468.89 Q418.88 1468.89 415.801 1464.31 Q412.746 1459.7 412.746 1450.97 Q412.746 1442.22 415.801 1437.64 Q418.88 1433.03 424.69 1433.03 Z" fill="#000000" fill-rule="nonzero" fill-opacity="1" /><path clip-path="url(#clip210)" d="M444.852 1462.34 L449.736 1462.34 L449.736 1468.22 L444.852 1468.22 L444.852 1462.34 Z" fill="#000000" fill-rule="nonzero" fill-opacity="1" /><path clip-path="url(#clip210)" d="M460.06 1467.5 L460.06 1463.24 Q461.819 1464.08 463.625 1464.52 Q465.43 1464.96 467.167 1464.96 Q471.796 1464.96 474.227 1461.85 Q476.68 1458.73 477.028 1452.39 Q475.685 1454.38 473.625 1455.44 Q471.565 1456.51 469.065 1456.51 Q463.88 1456.51 460.847 1453.38 Q457.838 1450.23 457.838 1444.79 Q457.838 1439.47 460.986 1436.25 Q464.134 1433.03 469.366 1433.03 Q475.361 1433.03 478.509 1437.64 Q481.68 1442.22 481.68 1450.97 Q481.68 1459.15 477.792 1464.03 Q473.926 1468.89 467.375 1468.89 Q465.616 1468.89 463.81 1468.54 Q462.005 1468.2 460.06 1467.5 M469.366 1452.85 Q472.514 1452.85 474.342 1450.7 Q476.194 1448.54 476.194 1444.79 Q476.194 1441.07 474.342 1438.91 Q472.514 1436.74 469.366 1436.74 Q466.217 1436.74 464.366 1438.91 Q462.537 1441.07 462.537 1444.79 Q462.537 1448.54 464.366 1450.7 Q466.217 1452.85 469.366 1452.85 Z" fill="#000000" fill-rule="nonzero" fill-opacity="1" /><path clip-path="url(#clip210)" d="M500.083 1436.74 Q496.472 1436.74 494.643 1440.3 Q492.838 1443.84 492.838 1450.97 Q492.838 1458.08 494.643 1461.65 Q496.472 1465.19 500.083 1465.19 Q503.717 1465.19 505.523 1461.65 Q507.352 1458.08 507.352 1450.97 Q507.352 1443.84 505.523 1440.3 Q503.717 1436.74 500.083 1436.74 M500.083 1433.03 Q505.893 1433.03 508.949 1437.64 Q512.027 1442.22 512.027 1450.97 Q512.027 1459.7 508.949 1464.31 Q505.893 1468.89 500.083 1468.89 Q494.273 1468.89 491.194 1464.31 Q488.139 1459.7 488.139 1450.97 Q488.139 1442.22 491.194 1437.64 Q494.273 1433.03 500.083 1433.03 Z" fill="#000000" fill-rule="nonzero" fill-opacity="1" /><path clip-path="url(#clip210)" d="M689.223 1436.74 Q685.612 1436.74 683.783 1440.3 Q681.978 1443.84 681.978 1450.97 Q681.978 1458.08 683.783 1461.65 Q685.612 1465.19 689.223 1465.19 Q692.857 1465.19 694.663 1461.65 Q696.491 1458.08 696.491 1450.97 Q696.491 1443.84 694.663 1440.3 Q692.857 1436.74 689.223 1436.74 M689.223 1433.03 Q695.033 1433.03 698.089 1437.64 Q701.167 1442.22 701.167 1450.97 Q701.167 1459.7 698.089 1464.31 Q695.033 1468.89 689.223 1468.89 Q683.413 1468.89 680.334 1464.31 Q677.279 1459.7 677.279 1450.97 Q677.279 1442.22 680.334 1437.64 Q683.413 1433.03 689.223 1433.03 Z" fill="#000000" fill-rule="nonzero" fill-opacity="1" /><path clip-path="url(#clip210)" d="M709.385 1462.34 L714.269 1462.34 L714.269 1468.22 L709.385 1468.22 L709.385 1462.34 Z" fill="#000000" fill-rule="nonzero" fill-opacity="1" /><path clip-path="url(#clip210)" d="M724.593 1467.5 L724.593 1463.24 Q726.352 1464.08 728.158 1464.52 Q729.963 1464.96 731.7 1464.96 Q736.329 1464.96 738.76 1461.85 Q741.213 1458.73 741.561 1452.39 Q740.218 1454.38 738.158 1455.44 Q736.098 1456.51 733.598 1456.51 Q728.413 1456.51 725.38 1453.38 Q722.371 1450.23 722.371 1444.79 Q722.371 1439.47 725.519 1436.25 Q728.667 1433.03 733.899 1433.03 Q739.894 1433.03 743.042 1437.64 Q746.213 1442.22 746.213 1450.97 Q746.213 1459.15 742.325 1464.03 Q738.459 1468.89 731.908 1468.89 Q730.149 1468.89 728.343 1468.54 Q726.538 1468.2 724.593 1467.5 M733.899 1452.85 Q737.047 1452.85 738.875 1450.7 Q740.727 1448.54 740.727 1444.79 Q740.727 1441.07 738.875 1438.91 Q737.047 1436.74 733.899 1436.74 Q730.751 1436.74 728.899 1438.91 Q727.07 1441.07 727.07 1444.79 Q727.07 1448.54 728.899 1450.7 Q730.751 1452.85 733.899 1452.85 Z" fill="#000000" fill-rule="nonzero" fill-opacity="1" /><path clip-path="url(#clip210)" d="M754.662 1433.66 L773.019 1433.66 L773.019 1437.59 L758.945 1437.59 L758.945 1446.07 Q759.963 1445.72 760.982 1445.56 Q762 1445.37 763.019 1445.37 Q768.806 1445.37 772.185 1448.54 Q775.565 1451.72 775.565 1457.13 Q775.565 1462.71 772.093 1465.81 Q768.621 1468.89 762.301 1468.89 Q760.125 1468.89 757.857 1468.52 Q755.611 1468.15 753.204 1467.41 L753.204 1462.71 Q755.287 1463.84 757.51 1464.4 Q759.732 1464.96 762.209 1464.96 Q766.213 1464.96 768.551 1462.85 Q770.889 1460.74 770.889 1457.13 Q770.889 1453.52 768.551 1451.41 Q766.213 1449.31 762.209 1449.31 Q760.334 1449.31 758.459 1449.72 Q756.607 1450.14 754.662 1451.02 L754.662 1433.66 Z" fill="#000000" fill-rule="nonzero" fill-opacity="1" /><path clip-path="url(#clip210)" d="M942.529 1464.28 L950.168 1464.28 L950.168 1437.92 L941.858 1439.59 L941.858 1435.33 L950.122 1433.66 L954.798 1433.66 L954.798 1464.28 L962.436 1464.28 L962.436 1468.22 L942.529 1468.22 L942.529 1464.28 Z" fill="#000000" fill-rule="nonzero" fill-opacity="1" /><path clip-path="url(#clip210)" d="M971.881 1462.34 L976.765 1462.34 L976.765 1468.22 L971.881 1468.22 L971.881 1462.34 Z" fill="#000000" fill-rule="nonzero" fill-opacity="1" /><path clip-path="url(#clip210)" d="M996.95 1436.74 Q993.339 1436.74 991.51 1440.3 Q989.705 1443.84 989.705 1450.97 Q989.705 1458.08 991.51 1461.65 Q993.339 1465.19 996.95 1465.19 Q1000.58 1465.19 1002.39 1461.65 Q1004.22 1458.08 1004.22 1450.97 Q1004.22 1443.84 1002.39 1440.3 Q1000.58 1436.74 996.95 1436.74 M996.95 1433.03 Q1002.76 1433.03 1005.82 1437.64 Q1008.89 1442.22 1008.89 1450.97 Q1008.89 1459.7 1005.82 1464.31 Q1002.76 1468.89 996.95 1468.89 Q991.14 1468.89 988.061 1464.31 Q985.006 1459.7 985.006 1450.97 Q985.006 1442.22 988.061 1437.64 Q991.14 1433.03 996.95 1433.03 Z" fill="#000000" fill-rule="nonzero" fill-opacity="1" /><path clip-path="url(#clip210)" d="M1027.11 1436.74 Q1023.5 1436.74 1021.67 1440.3 Q1019.87 1443.84 1019.87 1450.97 Q1019.87 1458.08 1021.67 1461.65 Q1023.5 1465.19 1027.11 1465.19 Q1030.75 1465.19 1032.55 1461.65 Q1034.38 1458.08 1034.38 1450.97 Q1034.38 1443.84 1032.55 1440.3 Q1030.75 1436.74 1027.11 1436.74 M1027.11 1433.03 Q1032.92 1433.03 1035.98 1437.64 Q1039.06 1442.22 1039.06 1450.97 Q1039.06 1459.7 1035.98 1464.31 Q1032.92 1468.89 1027.11 1468.89 Q1021.3 1468.89 1018.22 1464.31 Q1015.17 1459.7 1015.17 1450.97 Q1015.17 1442.22 1018.22 1437.64 Q1021.3 1433.03 1027.11 1433.03 Z" fill="#000000" fill-rule="nonzero" fill-opacity="1" /><path clip-path="url(#clip210)" d="M1207.06 1464.28 L1214.7 1464.28 L1214.7 1437.92 L1206.39 1439.59 L1206.39 1435.33 L1214.65 1433.66 L1219.33 1433.66 L1219.33 1464.28 L1226.97 1464.28 L1226.97 1468.22 L1207.06 1468.22 L1207.06 1464.28 Z" fill="#000000" fill-rule="nonzero" fill-opacity="1" /><path clip-path="url(#clip210)" d="M1236.41 1462.34 L1241.3 1462.34 L1241.3 1468.22 L1236.41 1468.22 L1236.41 1462.34 Z" fill="#000000" fill-rule="nonzero" fill-opacity="1" /><path clip-path="url(#clip210)" d="M1261.48 1436.74 Q1257.87 1436.74 1256.04 1440.3 Q1254.24 1443.84 1254.24 1450.97 Q1254.24 1458.08 1256.04 1461.65 Q1257.87 1465.19 1261.48 1465.19 Q1265.12 1465.19 1266.92 1461.65 Q1268.75 1458.08 1268.75 1450.97 Q1268.75 1443.84 1266.92 1440.3 Q1265.12 1436.74 1261.48 1436.74 M1261.48 1433.03 Q1267.29 1433.03 1270.35 1437.64 Q1273.43 1442.22 1273.43 1450.97 Q1273.43 1459.7 1270.35 1464.31 Q1267.29 1468.89 1261.48 1468.89 Q1255.67 1468.89 1252.59 1464.31 Q1249.54 1459.7 1249.54 1450.97 Q1249.54 1442.22 1252.59 1437.64 Q1255.67 1433.03 1261.48 1433.03 Z" fill="#000000" fill-rule="nonzero" fill-opacity="1" /><path clip-path="url(#clip210)" d="M1281.69 1433.66 L1300.05 1433.66 L1300.05 1437.59 L1285.97 1437.59 L1285.97 1446.07 Q1286.99 1445.72 1288.01 1445.56 Q1289.03 1445.37 1290.05 1445.37 Q1295.83 1445.37 1299.21 1448.54 Q1302.59 1451.72 1302.59 1457.13 Q1302.59 1462.71 1299.12 1465.81 Q1295.65 1468.89 1289.33 1468.89 Q1287.15 1468.89 1284.89 1468.52 Q1282.64 1468.15 1280.23 1467.41 L1280.23 1462.71 Q1282.32 1463.84 1284.54 1464.4 Q1286.76 1464.96 1289.24 1464.96 Q1293.24 1464.96 1295.58 1462.85 Q1297.92 1460.74 1297.92 1457.13 Q1297.92 1453.52 1295.58 1451.41 Q1293.24 1449.31 1289.24 1449.31 Q1287.36 1449.31 1285.49 1449.72 Q1283.64 1450.14 1281.69 1451.02 L1281.69 1433.66 Z" fill="#000000" fill-rule="nonzero" fill-opacity="1" /><path clip-path="url(#clip210)" d="M1470.6 1464.28 L1478.24 1464.28 L1478.24 1437.92 L1469.93 1439.59 L1469.93 1435.33 L1478.19 1433.66 L1482.87 1433.66 L1482.87 1464.28 L1490.51 1464.28 L1490.51 1468.22 L1470.6 1468.22 L1470.6 1464.28 Z" fill="#000000" fill-rule="nonzero" fill-opacity="1" /><path clip-path="url(#clip210)" d="M1499.95 1462.34 L1504.84 1462.34 L1504.84 1468.22 L1499.95 1468.22 L1499.95 1462.34 Z" fill="#000000" fill-rule="nonzero" fill-opacity="1" /><path clip-path="url(#clip210)" d="M1515.83 1464.28 L1523.47 1464.28 L1523.47 1437.92 L1515.16 1439.59 L1515.16 1435.33 L1523.42 1433.66 L1528.1 1433.66 L1528.1 1464.28 L1535.74 1464.28 L1535.74 1468.22 L1515.83 1468.22 L1515.83 1464.28 Z" fill="#000000" fill-rule="nonzero" fill-opacity="1" /><path clip-path="url(#clip210)" d="M1555.18 1436.74 Q1551.57 1436.74 1549.74 1440.3 Q1547.94 1443.84 1547.94 1450.97 Q1547.94 1458.08 1549.74 1461.65 Q1551.57 1465.19 1555.18 1465.19 Q1558.82 1465.19 1560.62 1461.65 Q1562.45 1458.08 1562.45 1450.97 Q1562.45 1443.84 1560.62 1440.3 Q1558.82 1436.74 1555.18 1436.74 M1555.18 1433.03 Q1560.99 1433.03 1564.05 1437.64 Q1567.13 1442.22 1567.13 1450.97 Q1567.13 1459.7 1564.05 1464.31 Q1560.99 1468.89 1555.18 1468.89 Q1549.37 1468.89 1546.29 1464.31 Q1543.24 1459.7 1543.24 1450.97 Q1543.24 1442.22 1546.29 1437.64 Q1549.37 1433.03 1555.18 1433.03 Z" fill="#000000" fill-rule="nonzero" fill-opacity="1" /><path clip-path="url(#clip210)" d="M1735.13 1464.28 L1742.77 1464.28 L1742.77 1437.92 L1734.46 1439.59 L1734.46 1435.33 L1742.73 1433.66 L1747.4 1433.66 L1747.4 1464.28 L1755.04 1464.28 L1755.04 1468.22 L1735.13 1468.22 L1735.13 1464.28 Z" fill="#000000" fill-rule="nonzero" fill-opacity="1" /><path clip-path="url(#clip210)" d="M1764.48 1462.34 L1769.37 1462.34 L1769.37 1468.22 L1764.48 1468.22 L1764.48 1462.34 Z" fill="#000000" fill-rule="nonzero" fill-opacity="1" /><path clip-path="url(#clip210)" d="M1780.36 1464.28 L1788 1464.28 L1788 1437.92 L1779.69 1439.59 L1779.69 1435.33 L1787.96 1433.66 L1792.63 1433.66 L1792.63 1464.28 L1800.27 1464.28 L1800.27 1468.22 L1780.36 1468.22 L1780.36 1464.28 Z" fill="#000000" fill-rule="nonzero" fill-opacity="1" /><path clip-path="url(#clip210)" d="M1809.76 1433.66 L1828.12 1433.66 L1828.12 1437.59 L1814.04 1437.59 L1814.04 1446.07 Q1815.06 1445.72 1816.08 1445.56 Q1817.1 1445.37 1818.12 1445.37 Q1823.91 1445.37 1827.29 1448.54 Q1830.66 1451.72 1830.66 1457.13 Q1830.66 1462.71 1827.19 1465.81 Q1823.72 1468.89 1817.4 1468.89 Q1815.23 1468.89 1812.96 1468.52 Q1810.71 1468.15 1808.3 1467.41 L1808.3 1462.71 Q1810.39 1463.84 1812.61 1464.4 Q1814.83 1464.96 1817.31 1464.96 Q1821.31 1464.96 1823.65 1462.85 Q1825.99 1460.74 1825.99 1457.13 Q1825.99 1453.52 1823.65 1451.41 Q1821.31 1449.31 1817.31 1449.31 Q1815.43 1449.31 1813.56 1449.72 Q1811.71 1450.14 1809.76 1451.02 L1809.76 1433.66 Z" fill="#000000" fill-rule="nonzero" fill-opacity="1" /><path clip-path="url(#clip210)" d="M1048.87 1532.6 Q1050.81 1529.35 1055.61 1526.49 Q1057.49 1525.38 1063.29 1525.38 Q1069.78 1525.38 1073.82 1530.53 Q1077.89 1535.69 1077.89 1544.09 Q1077.89 1552.49 1073.82 1557.65 Q1069.78 1562.81 1063.29 1562.81 Q1059.37 1562.81 1056.54 1561.28 Q1053.74 1559.72 1051.89 1556.54 L1051.89 1575.44 L1046 1575.44 L1046 1544.41 Q1046 1537.06 1048.87 1532.6 M1071.82 1544.09 Q1071.82 1537.63 1069.14 1533.97 Q1066.5 1530.28 1061.85 1530.28 Q1057.21 1530.28 1054.53 1533.97 Q1051.89 1537.63 1051.89 1544.09 Q1051.89 1550.55 1054.53 1554.24 Q1057.21 1557.91 1061.85 1557.91 Q1066.5 1557.91 1069.14 1554.24 Q1071.82 1550.55 1071.82 1544.09 Z" fill="#000000" fill-rule="nonzero" fill-opacity="1" /><polyline clip-path="url(#clip212)" style="stroke:#000000; stroke-linecap:round; stroke-linejoin:round; stroke-width:2; stroke-opacity:0.1; fill:none" points="234.133,1358.19 1889.76,1358.19 "/>
<polyline clip-path="url(#clip212)" style="stroke:#000000; stroke-linecap:round; stroke-linejoin:round; stroke-width:2; stroke-opacity:0.1; fill:none" points="234.133,971.16 1889.76,971.16 "/>
<polyline clip-path="url(#clip212)" style="stroke:#000000; stroke-linecap:round; stroke-linejoin:round; stroke-width:2; stroke-opacity:0.1; fill:none" points="234.133,584.132 1889.76,584.132 "/>
<polyline clip-path="url(#clip212)" style="stroke:#000000; stroke-linecap:round; stroke-linejoin:round; stroke-width:2; stroke-opacity:0.1; fill:none" points="234.133,197.105 1889.76,197.105 "/>
<polyline clip-path="url(#clip210)" style="stroke:#000000; stroke-linecap:round; stroke-linejoin:round; stroke-width:4; stroke-opacity:1; fill:none" points="234.133,1393.02 234.133,162.272 "/>
<polyline clip-path="url(#clip210)" style="stroke:#000000; stroke-linecap:round; stroke-linejoin:round; stroke-width:4; stroke-opacity:1; fill:none" points="234.133,1358.19 253.031,1358.19 "/>
<polyline clip-path="url(#clip210)" style="stroke:#000000; stroke-linecap:round; stroke-linejoin:round; stroke-width:4; stroke-opacity:1; fill:none" points="234.133,971.16 253.031,971.16 "/>
<polyline clip-path="url(#clip210)" style="stroke:#000000; stroke-linecap:round; stroke-linejoin:round; stroke-width:4; stroke-opacity:1; fill:none" points="234.133,584.132 253.031,584.132 "/>
<polyline clip-path="url(#clip210)" style="stroke:#000000; stroke-linecap:round; stroke-linejoin:round; stroke-width:4; stroke-opacity:1; fill:none" points="234.133,197.105 253.031,197.105 "/>
<path clip-path="url(#clip210)" d="M162.189 1343.99 Q158.578 1343.99 156.749 1347.55 Q154.943 1351.09 154.943 1358.22 Q154.943 1365.33 156.749 1368.89 Q158.578 1372.43 162.189 1372.43 Q165.823 1372.43 167.628 1368.89 Q169.457 1365.33 169.457 1358.22 Q169.457 1351.09 167.628 1347.55 Q165.823 1343.99 162.189 1343.99 M162.189 1340.28 Q167.999 1340.28 171.054 1344.89 Q174.133 1349.47 174.133 1358.22 Q174.133 1366.95 171.054 1371.56 Q167.999 1376.14 162.189 1376.14 Q156.379 1376.14 153.3 1371.56 Q150.244 1366.95 150.244 1358.22 Q150.244 1349.47 153.3 1344.89 Q156.379 1340.28 162.189 1340.28 Z" fill="#000000" fill-rule="nonzero" fill-opacity="1" /><path clip-path="url(#clip210)" d="M154.226 984.505 L161.865 984.505 L161.865 958.139 L153.554 959.806 L153.554 955.546 L161.818 953.88 L166.494 953.88 L166.494 984.505 L174.133 984.505 L174.133 988.44 L154.226 988.44 L154.226 984.505 Z" fill="#000000" fill-rule="nonzero" fill-opacity="1" /><path clip-path="url(#clip210)" d="M157.814 597.477 L174.133 597.477 L174.133 601.412 L152.189 601.412 L152.189 597.477 Q154.851 594.722 159.434 590.093 Q164.041 585.44 165.221 584.098 Q167.466 581.574 168.346 579.838 Q169.249 578.079 169.249 576.389 Q169.249 573.635 167.304 571.899 Q165.383 570.162 162.281 570.162 Q160.082 570.162 157.629 570.926 Q155.198 571.69 152.42 573.241 L152.42 568.519 Q155.244 567.385 157.698 566.806 Q160.152 566.227 162.189 566.227 Q167.559 566.227 170.753 568.912 Q173.948 571.598 173.948 576.088 Q173.948 578.218 173.138 580.139 Q172.351 582.037 170.244 584.63 Q169.665 585.301 166.564 588.519 Q163.462 591.713 157.814 597.477 Z" fill="#000000" fill-rule="nonzero" fill-opacity="1" /><path clip-path="url(#clip210)" d="M167.003 195.751 Q170.36 196.468 172.235 198.737 Q174.133 201.005 174.133 204.338 Q174.133 209.454 170.615 212.255 Q167.096 215.056 160.615 215.056 Q158.439 215.056 156.124 214.616 Q153.832 214.2 151.379 213.343 L151.379 208.829 Q153.323 209.963 155.638 210.542 Q157.953 211.121 160.476 211.121 Q164.874 211.121 167.165 209.385 Q169.48 207.649 169.48 204.338 Q169.48 201.283 167.328 199.57 Q165.198 197.834 161.378 197.834 L157.351 197.834 L157.351 193.991 L161.564 193.991 Q165.013 193.991 166.841 192.626 Q168.67 191.237 168.67 188.644 Q168.67 185.982 166.772 184.57 Q164.897 183.135 161.378 183.135 Q159.457 183.135 157.258 183.552 Q155.059 183.968 152.42 184.848 L152.42 180.681 Q155.082 179.94 157.397 179.57 Q159.735 179.2 161.795 179.2 Q167.119 179.2 170.221 181.63 Q173.323 184.038 173.323 188.158 Q173.323 191.028 171.679 193.019 Q170.036 194.987 167.003 195.751 Z" fill="#000000" fill-rule="nonzero" fill-opacity="1" /><path clip-path="url(#clip210)" d="M40.3403 876.171 L40.3403 848.353 L45.6875 848.353 L71.3095 870.378 L71.3095 848.353 L75.9883 848.353 L75.9883 876.967 L70.6411 876.967 L45.0191 854.942 L45.0191 876.171 L40.3403 876.171 Z" fill="#000000" fill-rule="nonzero" fill-opacity="1" /><path clip-path="url(#clip210)" d="M26.5267 804.621 Q33.8473 808.886 41.0087 810.955 Q48.1701 813.023 55.5225 813.023 Q62.8749 813.023 70.1 810.955 Q77.2933 808.854 84.582 804.621 L84.582 809.713 Q77.1023 814.488 69.8772 816.875 Q62.6521 819.23 55.5225 819.23 Q48.4248 819.23 41.2315 816.875 Q34.0383 814.519 26.5267 809.713 L26.5267 804.621 Z" fill="#000000" fill-rule="nonzero" fill-opacity="1" /><path clip-path="url(#clip210)" d="M26.4631 793.481 L26.4631 787.592 L55.7135 787.592 L40.3403 770.119 L40.3403 762.639 L57.0185 781.545 L75.9883 761.843 L75.9883 769.482 L58.5781 787.592 L75.9883 787.592 L75.9883 793.481 L26.4631 793.481 Z" fill="#000000" fill-rule="nonzero" fill-opacity="1" /><path clip-path="url(#clip210)" d="M47.1835 727.755 Q43.2367 725.559 41.3588 722.503 Q39.481 719.448 39.481 715.31 Q39.481 709.74 43.3959 706.716 Q47.2789 703.692 54.4722 703.692 L75.9883 703.692 L75.9883 709.581 L54.6632 709.581 Q49.5388 709.581 47.0561 711.395 Q44.5735 713.209 44.5735 716.933 Q44.5735 721.485 47.5972 724.126 Q50.6209 726.768 55.8408 726.768 L75.9883 726.768 L75.9883 732.656 L54.6632 732.656 Q49.5069 732.656 47.0561 734.471 Q44.5735 736.285 44.5735 740.072 Q44.5735 744.56 47.6291 747.202 Q50.6528 749.844 55.8408 749.844 L75.9883 749.844 L75.9883 755.732 L40.3403 755.732 L40.3403 749.844 L45.8785 749.844 Q42.6002 747.839 41.0406 745.038 Q39.481 742.237 39.481 738.385 Q39.481 734.502 41.4543 731.797 Q43.4277 729.06 47.1835 727.755 Z" fill="#000000" fill-rule="nonzero" fill-opacity="1" /><path clip-path="url(#clip210)" d="M26.5267 692.934 L26.5267 687.842 Q34.0383 683.067 41.2315 680.712 Q48.4248 678.325 55.5225 678.325 Q62.6521 678.325 69.8772 680.712 Q77.1023 683.067 84.582 687.842 L84.582 692.934 Q77.2933 688.701 70.1 686.632 Q62.8749 684.532 55.5225 684.532 Q48.1701 684.532 41.0087 686.632 Q33.8473 688.701 26.5267 692.934 Z" fill="#000000" fill-rule="nonzero" fill-opacity="1" /><path clip-path="url(#clip210)" d="M1045.3 35.3077 Q1047.77 31.1758 1053.89 27.5299 Q1056.28 26.1121 1063.65 26.1121 Q1071.91 26.1121 1077.06 32.6746 Q1082.24 39.2371 1082.24 49.9314 Q1082.24 60.6258 1077.06 67.1883 Q1071.91 73.7508 1063.65 73.7508 Q1058.67 73.7508 1055.06 71.8063 Q1051.5 69.8214 1049.15 65.7705 L1049.15 89.8329 L1041.65 89.8329 L1041.65 50.3365 Q1041.65 40.9789 1045.3 35.3077 M1074.51 49.9314 Q1074.51 41.7081 1071.1 37.0496 Q1067.74 32.3505 1061.83 32.3505 Q1055.91 32.3505 1052.51 37.0496 Q1049.15 41.7081 1049.15 49.9314 Q1049.15 58.1548 1052.51 62.8538 Q1055.91 67.5124 1061.83 67.5124 Q1067.74 67.5124 1071.1 62.8538 Q1074.51 58.1548 1074.51 49.9314 Z" fill="#000000" fill-rule="nonzero" fill-opacity="1" /><polyline clip-path="url(#clip212)" style="stroke:#009af9; stroke-linecap:round; stroke-linejoin:round; stroke-width:4; stroke-opacity:1; fill:none" points="1831.2,1350.45 1807.8,1334.97 1784.48,1319.48 1761.23,1304 1738.06,1288.52 1714.96,1273.04 1691.93,1257.56 1668.98,1242.08 1646.1,1226.6 1623.33,1211.12 1600.56,1195.64 1577.91,1180.15 1555.32,1164.67 1532.81,1149.19 1510.37,1133.71 1488,1118.23 1465.71,1102.75 1443.48,1087.27 1421.33,1071.79 1399.23,1056.31 1377.24,1040.82 1355.3,1025.34 1333.43,1009.86 1311.63,994.381 1289.89,978.9 1268.25,963.419 1246.67,947.938 1225.15,932.457 1203.71,916.976 1182.34,901.495 1161.1,886.014 1139.8,870.533 1118.63,855.051 1097.53,839.57 1076.51,824.089 1055.55,808.608 1034.66,793.127 1013.84,777.646 993.089,762.165 972.406,746.684 951.79,731.203 931.242,715.722 910.761,700.24 890.349,684.759 870.003,669.278 849.725,653.797 829.514,638.316 809.37,622.835 789.293,607.354 769.283,591.873 749.339,576.392 729.462,560.911 709.651,545.429 689.906,529.948 670.228,514.467 650.605,498.986 631.056,483.505 611.571,468.024 592.152,452.543 572.798,437.062 553.509,421.581 534.284,406.1 515.124,390.618 496.028,375.137 476.996,359.656 458.028,344.175 439.123,328.694 420.283,313.213 401.506,297.732 382.792,282.251 364.141,266.77 345.554,251.289 327.029,235.807 308.567,220.326 290.167,204.845 "/>
<polyline clip-path="url(#clip212)" style="stroke:#e26f46; stroke-linecap:round; stroke-linejoin:round; stroke-width:4; stroke-opacity:1; fill:none" points="1842.91,1358.19 1819.49,1342.71 1796.13,1327.23 1772.85,1311.74 1749.63,1296.26 1726.5,1280.78 1703.44,1265.3 1680.45,1249.82 1657.53,1234.34 1634.69,1218.86 1611.91,1203.38 1589.23,1187.9 1566.6,1172.41 1544.05,1156.93 1521.58,1141.45 1499.17,1125.97 1476.85,1110.49 1454.58,1095.01 1432.39,1079.53 1410.28,1064.05 1388.23,1048.57 1366.26,1033.08 1344.35,1017.6 1322.52,1002.12 1300.76,986.641 1279.06,971.16 1257.45,955.679 1235.9,940.198 1214.42,924.716 1193.02,909.235 1171.68,893.754 1150.41,878.273 1129.21,862.792 1108.07,847.311 1087.01,831.83 1066.02,816.349 1045.1,800.868 1024.24,785.387 1003.46,769.905 982.739,754.424 962.089,738.943 941.507,723.462 920.993,707.981 900.549,692.5 880.168,677.019 859.856,661.538 839.611,646.057 819.434,630.576 799.323,615.094 779.28,599.613 759.302,584.132 739.392,568.651 719.548,553.17 699.77,537.689 680.059,522.208 660.404,506.727 640.822,491.246 621.305,475.765 601.854,460.283 582.467,444.802 563.145,429.321 543.888,413.84 524.696,398.359 505.568,382.878 486.504,367.397 467.504,351.916 448.568,336.435 429.695,320.954 410.886,305.472 392.141,289.991 373.459,274.51 354.84,259.029 336.283,243.548 317.79,228.067 299.359,212.586 280.991,197.105 "/>
<path clip-path="url(#clip210)" d="M1496.72 358.817 L1834.58 358.817 L1834.58 203.297 L1496.72 203.297  Z" fill="#ffffff" fill-rule="evenodd" fill-opacity="1"/>
<polyline clip-path="url(#clip210)" style="stroke:#000000; stroke-linecap:round; stroke-linejoin:round; stroke-width:4; stroke-opacity:1; fill:none" points="1496.72,358.817 1834.58,358.817 1834.58,203.297 1496.72,203.297 1496.72,358.817 "/>
<polyline clip-path="url(#clip210)" style="stroke:#009af9; stroke-linecap:round; stroke-linejoin:round; stroke-width:4; stroke-opacity:1; fill:none" points="1515.12,255.137 1625.49,255.137 "/>
<path clip-path="url(#clip210)" d="M1664.4 247.487 L1664.4 251.468 Q1662.59 250.473 1660.76 249.987 Q1658.96 249.477 1657.11 249.477 Q1652.96 249.477 1650.67 252.116 Q1648.38 254.732 1648.38 259.477 Q1648.38 264.223 1650.67 266.862 Q1652.96 269.477 1657.11 269.477 Q1658.96 269.477 1660.76 268.991 Q1662.59 268.482 1664.4 267.487 L1664.4 271.422 Q1662.62 272.255 1660.69 272.672 Q1658.8 273.088 1656.64 273.088 Q1650.79 273.088 1647.34 269.408 Q1643.89 265.727 1643.89 259.477 Q1643.89 253.135 1647.36 249.501 Q1650.86 245.866 1656.92 245.866 Q1658.89 245.866 1660.76 246.283 Q1662.64 246.677 1664.4 247.487 Z" fill="#000000" fill-rule="nonzero" fill-opacity="1" /><path clip-path="url(#clip210)" d="M1693.98 258.389 L1693.98 260.473 L1674.4 260.473 Q1674.68 264.871 1677.04 267.186 Q1679.42 269.477 1683.66 269.477 Q1686.11 269.477 1688.4 268.876 Q1690.72 268.274 1692.99 267.07 L1692.99 271.098 Q1690.69 272.07 1688.29 272.579 Q1685.88 273.088 1683.4 273.088 Q1677.2 273.088 1673.57 269.477 Q1669.95 265.866 1669.95 259.709 Q1669.95 253.343 1673.38 249.616 Q1676.83 245.866 1682.66 245.866 Q1687.89 245.866 1690.93 249.246 Q1693.98 252.602 1693.98 258.389 M1689.72 257.139 Q1689.68 253.644 1687.75 251.561 Q1685.86 249.477 1682.71 249.477 Q1679.14 249.477 1676.99 251.491 Q1674.86 253.505 1674.54 257.163 L1689.72 257.139 Z" fill="#000000" fill-rule="nonzero" fill-opacity="1" /><path clip-path="url(#clip210)" d="M1722.52 256.769 L1722.52 272.417 L1718.26 272.417 L1718.26 256.908 Q1718.26 253.227 1716.83 251.399 Q1715.39 249.57 1712.52 249.57 Q1709.07 249.57 1707.08 251.769 Q1705.09 253.968 1705.09 257.764 L1705.09 272.417 L1700.81 272.417 L1700.81 246.491 L1705.09 246.491 L1705.09 250.519 Q1706.62 248.181 1708.68 247.024 Q1710.76 245.866 1713.47 245.866 Q1717.94 245.866 1720.23 248.644 Q1722.52 251.399 1722.52 256.769 Z" fill="#000000" fill-rule="nonzero" fill-opacity="1" /><path clip-path="url(#clip210)" d="M1735.23 239.13 L1735.23 246.491 L1744 246.491 L1744 249.802 L1735.23 249.802 L1735.23 263.876 Q1735.23 267.047 1736.09 267.95 Q1736.97 268.852 1739.63 268.852 L1744 268.852 L1744 272.417 L1739.63 272.417 Q1734.7 272.417 1732.82 270.588 Q1730.95 268.737 1730.95 263.876 L1730.95 249.802 L1727.82 249.802 L1727.82 246.491 L1730.95 246.491 L1730.95 239.13 L1735.23 239.13 Z" fill="#000000" fill-rule="nonzero" fill-opacity="1" /><path clip-path="url(#clip210)" d="M1771.78 258.389 L1771.78 260.473 L1752.2 260.473 Q1752.48 264.871 1754.84 267.186 Q1757.22 269.477 1761.46 269.477 Q1763.91 269.477 1766.2 268.876 Q1768.52 268.274 1770.79 267.07 L1770.79 271.098 Q1768.5 272.07 1766.09 272.579 Q1763.68 273.088 1761.2 273.088 Q1755 273.088 1751.37 269.477 Q1747.75 265.866 1747.75 259.709 Q1747.75 253.343 1751.18 249.616 Q1754.63 245.866 1760.46 245.866 Q1765.69 245.866 1768.73 249.246 Q1771.78 252.602 1771.78 258.389 M1767.52 257.139 Q1767.48 253.644 1765.56 251.561 Q1763.66 249.477 1760.51 249.477 Q1756.94 249.477 1754.79 251.491 Q1752.66 253.505 1752.34 257.163 L1767.52 257.139 Z" fill="#000000" fill-rule="nonzero" fill-opacity="1" /><path clip-path="url(#clip210)" d="M1793.8 250.473 Q1793.08 250.056 1792.22 249.871 Q1791.39 249.663 1790.37 249.663 Q1786.76 249.663 1784.81 252.024 Q1782.89 254.362 1782.89 258.76 L1782.89 272.417 L1778.61 272.417 L1778.61 246.491 L1782.89 246.491 L1782.89 250.519 Q1784.24 248.158 1786.39 247.024 Q1788.54 245.866 1791.62 245.866 Q1792.06 245.866 1792.59 245.936 Q1793.12 245.982 1793.77 246.098 L1793.8 250.473 Z" fill="#000000" fill-rule="nonzero" fill-opacity="1" /><path clip-path="url(#clip210)" d="M1814.79 247.255 L1814.79 251.283 Q1812.99 250.357 1811.04 249.894 Q1809.1 249.431 1807.01 249.431 Q1803.84 249.431 1802.25 250.403 Q1800.67 251.376 1800.67 253.32 Q1800.67 254.802 1801.81 255.658 Q1802.94 256.491 1806.37 257.255 L1807.82 257.579 Q1812.36 258.552 1814.26 260.334 Q1816.18 262.093 1816.18 265.264 Q1816.18 268.876 1813.31 270.982 Q1810.46 273.088 1805.46 273.088 Q1803.38 273.088 1801.11 272.672 Q1798.87 272.278 1796.37 271.468 L1796.37 267.07 Q1798.73 268.297 1801.02 268.922 Q1803.31 269.524 1805.56 269.524 Q1808.56 269.524 1810.18 268.505 Q1811.81 267.463 1811.81 265.589 Q1811.81 263.852 1810.62 262.926 Q1809.47 262.001 1805.51 261.144 L1804.03 260.797 Q1800.07 259.964 1798.31 258.251 Q1796.55 256.514 1796.55 253.505 Q1796.55 249.848 1799.14 247.857 Q1801.74 245.866 1806.5 245.866 Q1808.87 245.866 1810.95 246.214 Q1813.03 246.561 1814.79 247.255 Z" fill="#000000" fill-rule="nonzero" fill-opacity="1" /><polyline clip-path="url(#clip210)" style="stroke:#e26f46; stroke-linecap:round; stroke-linejoin:round; stroke-width:4; stroke-opacity:1; fill:none" points="1515.12,306.977 1625.49,306.977 "/>
<path clip-path="url(#clip210)" d="M1660.39 288.239 L1660.39 291.78 L1656.32 291.78 Q1654.03 291.78 1653.13 292.706 Q1652.25 293.632 1652.25 296.04 L1652.25 298.331 L1659.26 298.331 L1659.26 301.642 L1652.25 301.642 L1652.25 324.257 L1647.96 324.257 L1647.96 301.642 L1643.89 301.642 L1643.89 298.331 L1647.96 298.331 L1647.96 296.526 Q1647.96 292.197 1649.98 290.23 Q1651.99 288.239 1656.37 288.239 L1660.39 288.239 Z" fill="#000000" fill-rule="nonzero" fill-opacity="1" /><path clip-path="url(#clip210)" d="M1675.74 311.225 Q1670.58 311.225 1668.59 312.405 Q1666.6 313.586 1666.6 316.433 Q1666.6 318.702 1668.08 320.044 Q1669.58 321.364 1672.15 321.364 Q1675.69 321.364 1677.82 318.864 Q1679.98 316.341 1679.98 312.174 L1679.98 311.225 L1675.74 311.225 M1684.24 309.466 L1684.24 324.257 L1679.98 324.257 L1679.98 320.322 Q1678.52 322.683 1676.34 323.817 Q1674.17 324.928 1671.02 324.928 Q1667.04 324.928 1664.68 322.706 Q1662.34 320.461 1662.34 316.711 Q1662.34 312.336 1665.26 310.114 Q1668.19 307.892 1674.01 307.892 L1679.98 307.892 L1679.98 307.475 Q1679.98 304.535 1678.03 302.938 Q1676.11 301.317 1672.62 301.317 Q1670.39 301.317 1668.29 301.85 Q1666.18 302.382 1664.24 303.447 L1664.24 299.512 Q1666.57 298.609 1668.77 298.169 Q1670.97 297.706 1673.06 297.706 Q1678.68 297.706 1681.46 300.623 Q1684.24 303.54 1684.24 309.466 Z" fill="#000000" fill-rule="nonzero" fill-opacity="1" /><path clip-path="url(#clip210)" d="M1711.67 299.327 L1711.67 303.308 Q1709.86 302.313 1708.03 301.827 Q1706.23 301.317 1704.38 301.317 Q1700.23 301.317 1697.94 303.956 Q1695.65 306.572 1695.65 311.317 Q1695.65 316.063 1697.94 318.702 Q1700.23 321.317 1704.38 321.317 Q1706.23 321.317 1708.03 320.831 Q1709.86 320.322 1711.67 319.327 L1711.67 323.262 Q1709.88 324.095 1707.96 324.512 Q1706.07 324.928 1703.91 324.928 Q1698.06 324.928 1694.61 321.248 Q1691.16 317.567 1691.16 311.317 Q1691.16 304.975 1694.63 301.341 Q1698.13 297.706 1704.19 297.706 Q1706.16 297.706 1708.03 298.123 Q1709.91 298.517 1711.67 299.327 Z" fill="#000000" fill-rule="nonzero" fill-opacity="1" /><path clip-path="url(#clip210)" d="M1741.25 310.229 L1741.25 312.313 L1721.67 312.313 Q1721.94 316.711 1724.31 319.026 Q1726.69 321.317 1730.93 321.317 Q1733.38 321.317 1735.67 320.716 Q1737.99 320.114 1740.25 318.91 L1740.25 322.938 Q1737.96 323.91 1735.56 324.419 Q1733.15 324.928 1730.67 324.928 Q1724.47 324.928 1720.83 321.317 Q1717.22 317.706 1717.22 311.549 Q1717.22 305.183 1720.65 301.456 Q1724.1 297.706 1729.93 297.706 Q1735.16 297.706 1738.19 301.086 Q1741.25 304.442 1741.25 310.229 M1736.99 308.979 Q1736.94 305.484 1735.02 303.401 Q1733.13 301.317 1729.98 301.317 Q1726.41 301.317 1724.26 303.331 Q1722.13 305.345 1721.81 309.003 L1736.99 308.979 Z" fill="#000000" fill-rule="nonzero" fill-opacity="1" /><path clip-path="url(#clip210)" d="M1764.77 299.095 L1764.77 303.123 Q1762.96 302.197 1761.02 301.734 Q1759.07 301.271 1756.99 301.271 Q1753.82 301.271 1752.22 302.243 Q1750.65 303.216 1750.65 305.16 Q1750.65 306.642 1751.78 307.498 Q1752.92 308.331 1756.34 309.095 L1757.8 309.419 Q1762.34 310.392 1764.24 312.174 Q1766.16 313.933 1766.16 317.104 Q1766.16 320.716 1763.29 322.822 Q1760.44 324.928 1755.44 324.928 Q1753.36 324.928 1751.09 324.512 Q1748.84 324.118 1746.34 323.308 L1746.34 318.91 Q1748.7 320.137 1751 320.762 Q1753.29 321.364 1755.53 321.364 Q1758.54 321.364 1760.16 320.345 Q1761.78 319.303 1761.78 317.429 Q1761.78 315.692 1760.6 314.766 Q1759.44 313.841 1755.49 312.984 L1754 312.637 Q1750.05 311.804 1748.29 310.091 Q1746.53 308.354 1746.53 305.345 Q1746.53 301.688 1749.12 299.697 Q1751.71 297.706 1756.48 297.706 Q1758.84 297.706 1760.93 298.054 Q1763.01 298.401 1764.77 299.095 Z" fill="#000000" fill-rule="nonzero" fill-opacity="1" /><path clip-path="url(#clip210)" d="M2234.13 1393.02 L3889.76 1393.02 L3889.76 162.272 L2234.13 162.272  Z" fill="#ffffff" fill-rule="evenodd" fill-opacity="1"/>
<defs>
  <clipPath id="clip213">
    <rect x="2234" y="162" width="1657" height="1232"/>
  </clipPath>
</defs>
<polyline clip-path="url(#clip213)" style="stroke:#000000; stroke-linecap:round; stroke-linejoin:round; stroke-width:2; stroke-opacity:0.1; fill:none" points="2446.91,1393.02 2446.91,162.272 "/>
<polyline clip-path="url(#clip213)" style="stroke:#000000; stroke-linecap:round; stroke-linejoin:round; stroke-width:2; stroke-opacity:0.1; fill:none" points="2710.31,1393.02 2710.31,162.272 "/>
<polyline clip-path="url(#clip213)" style="stroke:#000000; stroke-linecap:round; stroke-linejoin:round; stroke-width:2; stroke-opacity:0.1; fill:none" points="2973.7,1393.02 2973.7,162.272 "/>
<polyline clip-path="url(#clip213)" style="stroke:#000000; stroke-linecap:round; stroke-linejoin:round; stroke-width:2; stroke-opacity:0.1; fill:none" points="3237.1,1393.02 3237.1,162.272 "/>
<polyline clip-path="url(#clip213)" style="stroke:#000000; stroke-linecap:round; stroke-linejoin:round; stroke-width:2; stroke-opacity:0.1; fill:none" points="3500.49,1393.02 3500.49,162.272 "/>
<polyline clip-path="url(#clip213)" style="stroke:#000000; stroke-linecap:round; stroke-linejoin:round; stroke-width:2; stroke-opacity:0.1; fill:none" points="3763.89,1393.02 3763.89,162.272 "/>
<polyline clip-path="url(#clip210)" style="stroke:#000000; stroke-linecap:round; stroke-linejoin:round; stroke-width:4; stroke-opacity:1; fill:none" points="2234.13,1393.02 3889.76,1393.02 "/>
<polyline clip-path="url(#clip210)" style="stroke:#000000; stroke-linecap:round; stroke-linejoin:round; stroke-width:4; stroke-opacity:1; fill:none" points="2446.91,1393.02 2446.91,1374.12 "/>
<polyline clip-path="url(#clip210)" style="stroke:#000000; stroke-linecap:round; stroke-linejoin:round; stroke-width:4; stroke-opacity:1; fill:none" points="2710.31,1393.02 2710.31,1374.12 "/>
<polyline clip-path="url(#clip210)" style="stroke:#000000; stroke-linecap:round; stroke-linejoin:round; stroke-width:4; stroke-opacity:1; fill:none" points="2973.7,1393.02 2973.7,1374.12 "/>
<polyline clip-path="url(#clip210)" style="stroke:#000000; stroke-linecap:round; stroke-linejoin:round; stroke-width:4; stroke-opacity:1; fill:none" points="3237.1,1393.02 3237.1,1374.12 "/>
<polyline clip-path="url(#clip210)" style="stroke:#000000; stroke-linecap:round; stroke-linejoin:round; stroke-width:4; stroke-opacity:1; fill:none" points="3500.49,1393.02 3500.49,1374.12 "/>
<polyline clip-path="url(#clip210)" style="stroke:#000000; stroke-linecap:round; stroke-linejoin:round; stroke-width:4; stroke-opacity:1; fill:none" points="3763.89,1393.02 3763.89,1374.12 "/>
<path clip-path="url(#clip210)" d="M2420.77 1433.66 L2442.99 1433.66 L2442.99 1435.65 L2430.44 1468.22 L2425.56 1468.22 L2437.36 1437.59 L2420.77 1437.59 L2420.77 1433.66 Z" fill="#000000" fill-rule="nonzero" fill-opacity="1" /><path clip-path="url(#clip210)" d="M2452.16 1433.66 L2470.51 1433.66 L2470.51 1437.59 L2456.44 1437.59 L2456.44 1446.07 Q2457.46 1445.72 2458.48 1445.56 Q2459.49 1445.37 2460.51 1445.37 Q2466.3 1445.37 2469.68 1448.54 Q2473.06 1451.72 2473.06 1457.13 Q2473.06 1462.71 2469.59 1465.81 Q2466.11 1468.89 2459.8 1468.89 Q2457.62 1468.89 2455.35 1468.52 Q2453.11 1468.15 2450.7 1467.41 L2450.7 1462.71 Q2452.78 1463.84 2455 1464.4 Q2457.23 1464.96 2459.7 1464.96 Q2463.71 1464.96 2466.05 1462.85 Q2468.38 1460.74 2468.38 1457.13 Q2468.38 1453.52 2466.05 1451.41 Q2463.71 1449.31 2459.7 1449.31 Q2457.83 1449.31 2455.95 1449.72 Q2454.1 1450.14 2452.16 1451.02 L2452.16 1433.66 Z" fill="#000000" fill-rule="nonzero" fill-opacity="1" /><path clip-path="url(#clip210)" d="M2695.18 1451.81 Q2691.85 1451.81 2689.93 1453.59 Q2688.03 1455.37 2688.03 1458.5 Q2688.03 1461.62 2689.93 1463.4 Q2691.85 1465.19 2695.18 1465.19 Q2698.51 1465.19 2700.44 1463.4 Q2702.36 1461.6 2702.36 1458.5 Q2702.36 1455.37 2700.44 1453.59 Q2698.54 1451.81 2695.18 1451.81 M2690.5 1449.82 Q2687.5 1449.08 2685.81 1447.02 Q2684.14 1444.96 2684.14 1441.99 Q2684.14 1437.85 2687.08 1435.44 Q2690.04 1433.03 2695.18 1433.03 Q2700.34 1433.03 2703.28 1435.44 Q2706.22 1437.85 2706.22 1441.99 Q2706.22 1444.96 2704.53 1447.02 Q2702.87 1449.08 2699.88 1449.82 Q2703.26 1450.6 2705.13 1452.9 Q2707.03 1455.19 2707.03 1458.5 Q2707.03 1463.52 2703.95 1466.21 Q2700.9 1468.89 2695.18 1468.89 Q2689.46 1468.89 2686.38 1466.21 Q2683.33 1463.52 2683.33 1458.5 Q2683.33 1455.19 2685.23 1452.9 Q2687.13 1450.6 2690.5 1449.82 M2688.79 1442.43 Q2688.79 1445.12 2690.46 1446.62 Q2692.15 1448.13 2695.18 1448.13 Q2698.19 1448.13 2699.88 1446.62 Q2701.59 1445.12 2701.59 1442.43 Q2701.59 1439.75 2699.88 1438.24 Q2698.19 1436.74 2695.18 1436.74 Q2692.15 1436.74 2690.46 1438.24 Q2688.79 1439.75 2688.79 1442.43 Z" fill="#000000" fill-rule="nonzero" fill-opacity="1" /><path clip-path="url(#clip210)" d="M2725.34 1436.74 Q2721.73 1436.74 2719.9 1440.3 Q2718.1 1443.84 2718.1 1450.97 Q2718.1 1458.08 2719.9 1461.65 Q2721.73 1465.19 2725.34 1465.19 Q2728.98 1465.19 2730.78 1461.65 Q2732.61 1458.08 2732.61 1450.97 Q2732.61 1443.84 2730.78 1440.3 Q2728.98 1436.74 2725.34 1436.74 M2725.34 1433.03 Q2731.15 1433.03 2734.21 1437.64 Q2737.29 1442.22 2737.29 1450.97 Q2737.29 1459.7 2734.21 1464.31 Q2731.15 1468.89 2725.34 1468.89 Q2719.53 1468.89 2716.45 1464.31 Q2713.4 1459.7 2713.4 1450.97 Q2713.4 1442.22 2716.45 1437.64 Q2719.53 1433.03 2725.34 1433.03 Z" fill="#000000" fill-rule="nonzero" fill-opacity="1" /><path clip-path="url(#clip210)" d="M2959.07 1451.81 Q2955.74 1451.81 2953.82 1453.59 Q2951.92 1455.37 2951.92 1458.5 Q2951.92 1461.62 2953.82 1463.4 Q2955.74 1465.19 2959.07 1465.19 Q2962.41 1465.19 2964.33 1463.4 Q2966.25 1461.6 2966.25 1458.5 Q2966.25 1455.37 2964.33 1453.59 Q2962.43 1451.81 2959.07 1451.81 M2954.4 1449.82 Q2951.39 1449.08 2949.7 1447.02 Q2948.03 1444.96 2948.03 1441.99 Q2948.03 1437.85 2950.97 1435.44 Q2953.93 1433.03 2959.07 1433.03 Q2964.24 1433.03 2967.18 1435.44 Q2970.12 1437.85 2970.12 1441.99 Q2970.12 1444.96 2968.43 1447.02 Q2966.76 1449.08 2963.77 1449.82 Q2967.15 1450.6 2969.03 1452.9 Q2970.93 1455.19 2970.93 1458.5 Q2970.93 1463.52 2967.85 1466.21 Q2964.79 1468.89 2959.07 1468.89 Q2953.36 1468.89 2950.28 1466.21 Q2947.22 1463.52 2947.22 1458.5 Q2947.22 1455.19 2949.12 1452.9 Q2951.02 1450.6 2954.4 1449.82 M2952.68 1442.43 Q2952.68 1445.12 2954.35 1446.62 Q2956.04 1448.13 2959.07 1448.13 Q2962.08 1448.13 2963.77 1446.62 Q2965.49 1445.12 2965.49 1442.43 Q2965.49 1439.75 2963.77 1438.24 Q2962.08 1436.74 2959.07 1436.74 Q2956.04 1436.74 2954.35 1438.24 Q2952.68 1439.75 2952.68 1442.43 Z" fill="#000000" fill-rule="nonzero" fill-opacity="1" /><path clip-path="url(#clip210)" d="M2979.28 1433.66 L2997.64 1433.66 L2997.64 1437.59 L2983.56 1437.59 L2983.56 1446.07 Q2984.58 1445.72 2985.6 1445.56 Q2986.62 1445.37 2987.64 1445.37 Q2993.43 1445.37 2996.8 1448.54 Q3000.18 1451.72 3000.18 1457.13 Q3000.18 1462.71 2996.71 1465.81 Q2993.24 1468.89 2986.92 1468.89 Q2984.74 1468.89 2982.48 1468.52 Q2980.23 1468.15 2977.82 1467.41 L2977.82 1462.71 Q2979.91 1463.84 2982.13 1464.4 Q2984.35 1464.96 2986.83 1464.96 Q2990.83 1464.96 2993.17 1462.85 Q2995.51 1460.74 2995.51 1457.13 Q2995.51 1453.52 2993.17 1451.41 Q2990.83 1449.31 2986.83 1449.31 Q2984.95 1449.31 2983.08 1449.72 Q2981.23 1450.14 2979.28 1451.02 L2979.28 1433.66 Z" fill="#000000" fill-rule="nonzero" fill-opacity="1" /><path clip-path="url(#clip210)" d="M3212.23 1467.5 L3212.23 1463.24 Q3213.98 1464.08 3215.79 1464.52 Q3217.6 1464.96 3219.33 1464.96 Q3223.96 1464.96 3226.39 1461.85 Q3228.85 1458.73 3229.19 1452.39 Q3227.85 1454.38 3225.79 1455.44 Q3223.73 1456.51 3221.23 1456.51 Q3216.04 1456.51 3213.01 1453.38 Q3210 1450.23 3210 1444.79 Q3210 1439.47 3213.15 1436.25 Q3216.3 1433.03 3221.53 1433.03 Q3227.53 1433.03 3230.67 1437.64 Q3233.85 1442.22 3233.85 1450.97 Q3233.85 1459.15 3229.96 1464.03 Q3226.09 1468.89 3219.54 1468.89 Q3217.78 1468.89 3215.98 1468.54 Q3214.17 1468.2 3212.23 1467.5 M3221.53 1452.85 Q3224.68 1452.85 3226.51 1450.7 Q3228.36 1448.54 3228.36 1444.79 Q3228.36 1441.07 3226.51 1438.91 Q3224.68 1436.74 3221.53 1436.74 Q3218.38 1436.74 3216.53 1438.91 Q3214.7 1441.07 3214.7 1444.79 Q3214.7 1448.54 3216.53 1450.7 Q3218.38 1452.85 3221.53 1452.85 Z" fill="#000000" fill-rule="nonzero" fill-opacity="1" /><path clip-path="url(#clip210)" d="M3252.25 1436.74 Q3248.64 1436.74 3246.81 1440.3 Q3245 1443.84 3245 1450.97 Q3245 1458.08 3246.81 1461.65 Q3248.64 1465.19 3252.25 1465.19 Q3255.88 1465.19 3257.69 1461.65 Q3259.52 1458.08 3259.52 1450.97 Q3259.52 1443.84 3257.69 1440.3 Q3255.88 1436.74 3252.25 1436.74 M3252.25 1433.03 Q3258.06 1433.03 3261.11 1437.64 Q3264.19 1442.22 3264.19 1450.97 Q3264.19 1459.7 3261.11 1464.31 Q3258.06 1468.89 3252.25 1468.89 Q3246.44 1468.89 3243.36 1464.31 Q3240.3 1459.7 3240.3 1450.97 Q3240.3 1442.22 3243.36 1437.64 Q3246.44 1433.03 3252.25 1433.03 Z" fill="#000000" fill-rule="nonzero" fill-opacity="1" /><path clip-path="url(#clip210)" d="M3476.12 1467.5 L3476.12 1463.24 Q3477.88 1464.08 3479.68 1464.52 Q3481.49 1464.96 3483.22 1464.96 Q3487.85 1464.96 3490.28 1461.85 Q3492.74 1458.73 3493.09 1452.39 Q3491.74 1454.38 3489.68 1455.44 Q3487.62 1456.51 3485.12 1456.51 Q3479.94 1456.51 3476.91 1453.38 Q3473.9 1450.23 3473.9 1444.79 Q3473.9 1439.47 3477.04 1436.25 Q3480.19 1433.03 3485.42 1433.03 Q3491.42 1433.03 3494.57 1437.64 Q3497.74 1442.22 3497.74 1450.97 Q3497.74 1459.15 3493.85 1464.03 Q3489.98 1468.89 3483.43 1468.89 Q3481.67 1468.89 3479.87 1468.54 Q3478.06 1468.2 3476.12 1467.5 M3485.42 1452.85 Q3488.57 1452.85 3490.4 1450.7 Q3492.25 1448.54 3492.25 1444.79 Q3492.25 1441.07 3490.4 1438.91 Q3488.57 1436.74 3485.42 1436.74 Q3482.28 1436.74 3480.42 1438.91 Q3478.59 1441.07 3478.59 1444.79 Q3478.59 1448.54 3480.42 1450.7 Q3482.28 1452.85 3485.42 1452.85 Z" fill="#000000" fill-rule="nonzero" fill-opacity="1" /><path clip-path="url(#clip210)" d="M3506.19 1433.66 L3524.54 1433.66 L3524.54 1437.59 L3510.47 1437.59 L3510.47 1446.07 Q3511.49 1445.72 3512.51 1445.56 Q3513.53 1445.37 3514.54 1445.37 Q3520.33 1445.37 3523.71 1448.54 Q3527.09 1451.72 3527.09 1457.13 Q3527.09 1462.71 3523.62 1465.81 Q3520.15 1468.89 3513.83 1468.89 Q3511.65 1468.89 3509.38 1468.52 Q3507.14 1468.15 3504.73 1467.41 L3504.73 1462.71 Q3506.81 1463.84 3509.03 1464.4 Q3511.26 1464.96 3513.73 1464.96 Q3517.74 1464.96 3520.08 1462.85 Q3522.41 1460.74 3522.41 1457.13 Q3522.41 1453.52 3520.08 1451.41 Q3517.74 1449.31 3513.73 1449.31 Q3511.86 1449.31 3509.98 1449.72 Q3508.13 1450.14 3506.19 1451.02 L3506.19 1433.66 Z" fill="#000000" fill-rule="nonzero" fill-opacity="1" /><path clip-path="url(#clip210)" d="M3723.49 1464.28 L3731.13 1464.28 L3731.13 1437.92 L3722.82 1439.59 L3722.82 1435.33 L3731.09 1433.66 L3735.76 1433.66 L3735.76 1464.28 L3743.4 1464.28 L3743.4 1468.22 L3723.49 1468.22 L3723.49 1464.28 Z" fill="#000000" fill-rule="nonzero" fill-opacity="1" /><path clip-path="url(#clip210)" d="M3762.85 1436.74 Q3759.24 1436.74 3757.41 1440.3 Q3755.6 1443.84 3755.6 1450.97 Q3755.6 1458.08 3757.41 1461.65 Q3759.24 1465.19 3762.85 1465.19 Q3766.48 1465.19 3768.29 1461.65 Q3770.11 1458.08 3770.11 1450.97 Q3770.11 1443.84 3768.29 1440.3 Q3766.48 1436.74 3762.85 1436.74 M3762.85 1433.03 Q3768.66 1433.03 3771.71 1437.64 Q3774.79 1442.22 3774.79 1450.97 Q3774.79 1459.7 3771.71 1464.31 Q3768.66 1468.89 3762.85 1468.89 Q3757.04 1468.89 3753.96 1464.31 Q3750.9 1459.7 3750.9 1450.97 Q3750.9 1442.22 3753.96 1437.64 Q3757.04 1433.03 3762.85 1433.03 Z" fill="#000000" fill-rule="nonzero" fill-opacity="1" /><path clip-path="url(#clip210)" d="M3793.01 1436.74 Q3789.4 1436.74 3787.57 1440.3 Q3785.76 1443.84 3785.76 1450.97 Q3785.76 1458.08 3787.57 1461.65 Q3789.4 1465.19 3793.01 1465.19 Q3796.64 1465.19 3798.45 1461.65 Q3800.28 1458.08 3800.28 1450.97 Q3800.28 1443.84 3798.45 1440.3 Q3796.64 1436.74 3793.01 1436.74 M3793.01 1433.03 Q3798.82 1433.03 3801.87 1437.64 Q3804.95 1442.22 3804.95 1450.97 Q3804.95 1459.7 3801.87 1464.31 Q3798.82 1468.89 3793.01 1468.89 Q3787.2 1468.89 3784.12 1464.31 Q3781.06 1459.7 3781.06 1450.97 Q3781.06 1442.22 3784.12 1437.64 Q3787.2 1433.03 3793.01 1433.03 Z" fill="#000000" fill-rule="nonzero" fill-opacity="1" /><path clip-path="url(#clip210)" d="M2960.08 1556.54 L2960.08 1575.44 L2954.19 1575.44 L2954.19 1526.24 L2960.08 1526.24 L2960.08 1531.65 Q2961.93 1528.46 2964.73 1526.94 Q2967.56 1525.38 2971.48 1525.38 Q2977.97 1525.38 2982.01 1530.53 Q2986.09 1535.69 2986.09 1544.09 Q2986.09 1552.49 2982.01 1557.65 Q2977.97 1562.81 2971.48 1562.81 Q2967.56 1562.81 2964.73 1561.28 Q2961.93 1559.72 2960.08 1556.54 M2980.01 1544.09 Q2980.01 1537.63 2977.33 1533.97 Q2974.69 1530.28 2970.04 1530.28 Q2965.4 1530.28 2962.72 1533.97 Q2960.08 1537.63 2960.08 1544.09 Q2960.08 1550.55 2962.72 1554.24 Q2965.4 1557.91 2970.04 1557.91 Q2974.69 1557.91 2977.33 1554.24 Q2980.01 1550.55 2980.01 1544.09 Z" fill="#000000" fill-rule="nonzero" fill-opacity="1" /><path clip-path="url(#clip210)" d="M3030.58 1512.42 Q3026.32 1519.74 3024.25 1526.9 Q3022.18 1534.07 3022.18 1541.42 Q3022.18 1548.77 3024.25 1556 Q3026.35 1563.19 3030.58 1570.48 L3025.49 1570.48 Q3020.71 1563 3018.33 1555.77 Q3015.97 1548.55 3015.97 1541.42 Q3015.97 1534.32 3018.33 1527.13 Q3020.68 1519.93 3025.49 1512.42 L3030.58 1512.42 Z" fill="#000000" fill-rule="nonzero" fill-opacity="1" /><path clip-path="url(#clip210)" d="M3041.72 1512.36 L3047.61 1512.36 L3047.61 1541.61 L3065.08 1526.24 L3072.56 1526.24 L3053.66 1542.91 L3073.36 1561.88 L3065.72 1561.88 L3047.61 1544.47 L3047.61 1561.88 L3041.72 1561.88 L3041.72 1512.36 Z" fill="#000000" fill-rule="nonzero" fill-opacity="1" /><path clip-path="url(#clip210)" d="M3086.38 1519.65 L3086.38 1537.5 L3094.46 1537.5 Q3098.95 1537.5 3101.4 1535.18 Q3103.85 1532.86 3103.85 1528.56 Q3103.85 1524.29 3101.4 1521.97 Q3098.95 1519.65 3094.46 1519.65 L3086.38 1519.65 M3079.95 1514.36 L3094.46 1514.36 Q3102.45 1514.36 3106.52 1517.99 Q3110.63 1521.59 3110.63 1528.56 Q3110.63 1535.59 3106.52 1539.19 Q3102.45 1542.79 3094.46 1542.79 L3086.38 1542.79 L3086.38 1561.88 L3079.95 1561.88 L3079.95 1514.36 Z" fill="#000000" fill-rule="nonzero" fill-opacity="1" /><path clip-path="url(#clip210)" d="M3132.27 1543.96 Q3125.18 1543.96 3122.44 1545.59 Q3119.7 1547.21 3119.7 1551.13 Q3119.7 1554.24 3121.74 1556.09 Q3123.81 1557.91 3127.34 1557.91 Q3132.21 1557.91 3135.14 1554.47 Q3138.1 1551 3138.1 1545.27 L3138.1 1543.96 L3132.27 1543.96 M3143.95 1541.55 L3143.95 1561.88 L3138.1 1561.88 L3138.1 1556.47 Q3136.09 1559.72 3133.1 1561.28 Q3130.11 1562.81 3125.78 1562.81 Q3120.31 1562.81 3117.06 1559.75 Q3113.84 1556.66 3113.84 1551.51 Q3113.84 1545.49 3117.86 1542.44 Q3121.9 1539.38 3129.89 1539.38 L3138.1 1539.38 L3138.1 1538.81 Q3138.1 1534.77 3135.42 1532.57 Q3132.78 1530.34 3127.98 1530.34 Q3124.92 1530.34 3122.02 1531.07 Q3119.13 1531.81 3116.45 1533.27 L3116.45 1527.86 Q3119.67 1526.62 3122.69 1526.01 Q3125.72 1525.38 3128.58 1525.38 Q3136.32 1525.38 3140.14 1529.39 Q3143.95 1533.4 3143.95 1541.55 Z" fill="#000000" fill-rule="nonzero" fill-opacity="1" /><path clip-path="url(#clip210)" d="M3155.09 1512.42 L3160.19 1512.42 Q3164.96 1519.93 3167.32 1527.13 Q3169.7 1534.32 3169.7 1541.42 Q3169.7 1548.55 3167.32 1555.77 Q3164.96 1563 3160.19 1570.48 L3155.09 1570.48 Q3159.33 1563.19 3161.4 1556 Q3163.5 1548.77 3163.5 1541.42 Q3163.5 1534.07 3161.4 1526.9 Q3159.33 1519.74 3155.09 1512.42 Z" fill="#000000" fill-rule="nonzero" fill-opacity="1" /><polyline clip-path="url(#clip213)" style="stroke:#000000; stroke-linecap:round; stroke-linejoin:round; stroke-width:2; stroke-opacity:0.1; fill:none" points="2234.13,1358.19 3889.76,1358.19 "/>
<polyline clip-path="url(#clip213)" style="stroke:#000000; stroke-linecap:round; stroke-linejoin:round; stroke-width:2; stroke-opacity:0.1; fill:none" points="2234.13,971.16 3889.76,971.16 "/>
<polyline clip-path="url(#clip213)" style="stroke:#000000; stroke-linecap:round; stroke-linejoin:round; stroke-width:2; stroke-opacity:0.1; fill:none" points="2234.13,584.132 3889.76,584.132 "/>
<polyline clip-path="url(#clip213)" style="stroke:#000000; stroke-linecap:round; stroke-linejoin:round; stroke-width:2; stroke-opacity:0.1; fill:none" points="2234.13,197.105 3889.76,197.105 "/>
<polyline clip-path="url(#clip210)" style="stroke:#000000; stroke-linecap:round; stroke-linejoin:round; stroke-width:4; stroke-opacity:1; fill:none" points="2234.13,1393.02 2234.13,162.272 "/>
<polyline clip-path="url(#clip210)" style="stroke:#000000; stroke-linecap:round; stroke-linejoin:round; stroke-width:4; stroke-opacity:1; fill:none" points="2234.13,1358.19 2253.03,1358.19 "/>
<polyline clip-path="url(#clip210)" style="stroke:#000000; stroke-linecap:round; stroke-linejoin:round; stroke-width:4; stroke-opacity:1; fill:none" points="2234.13,971.16 2253.03,971.16 "/>
<polyline clip-path="url(#clip210)" style="stroke:#000000; stroke-linecap:round; stroke-linejoin:round; stroke-width:4; stroke-opacity:1; fill:none" points="2234.13,584.132 2253.03,584.132 "/>
<polyline clip-path="url(#clip210)" style="stroke:#000000; stroke-linecap:round; stroke-linejoin:round; stroke-width:4; stroke-opacity:1; fill:none" points="2234.13,197.105 2253.03,197.105 "/>
<path clip-path="url(#clip210)" d="M2162.19 1343.99 Q2158.58 1343.99 2156.75 1347.55 Q2154.94 1351.09 2154.94 1358.22 Q2154.94 1365.33 2156.75 1368.89 Q2158.58 1372.43 2162.19 1372.43 Q2165.82 1372.43 2167.63 1368.89 Q2169.46 1365.33 2169.46 1358.22 Q2169.46 1351.09 2167.63 1347.55 Q2165.82 1343.99 2162.19 1343.99 M2162.19 1340.28 Q2168 1340.28 2171.05 1344.89 Q2174.13 1349.47 2174.13 1358.22 Q2174.13 1366.95 2171.05 1371.56 Q2168 1376.14 2162.19 1376.14 Q2156.38 1376.14 2153.3 1371.56 Q2150.24 1366.95 2150.24 1358.22 Q2150.24 1349.47 2153.3 1344.89 Q2156.38 1340.28 2162.19 1340.28 Z" fill="#000000" fill-rule="nonzero" fill-opacity="1" /><path clip-path="url(#clip210)" d="M2154.23 984.505 L2161.86 984.505 L2161.86 958.139 L2153.55 959.806 L2153.55 955.546 L2161.82 953.88 L2166.49 953.88 L2166.49 984.505 L2174.13 984.505 L2174.13 988.44 L2154.23 988.44 L2154.23 984.505 Z" fill="#000000" fill-rule="nonzero" fill-opacity="1" /><path clip-path="url(#clip210)" d="M2157.81 597.477 L2174.13 597.477 L2174.13 601.412 L2152.19 601.412 L2152.19 597.477 Q2154.85 594.722 2159.43 590.093 Q2164.04 585.44 2165.22 584.098 Q2167.47 581.574 2168.35 579.838 Q2169.25 578.079 2169.25 576.389 Q2169.25 573.635 2167.3 571.899 Q2165.38 570.162 2162.28 570.162 Q2160.08 570.162 2157.63 570.926 Q2155.2 571.69 2152.42 573.241 L2152.42 568.519 Q2155.24 567.385 2157.7 566.806 Q2160.15 566.227 2162.19 566.227 Q2167.56 566.227 2170.75 568.912 Q2173.95 571.598 2173.95 576.088 Q2173.95 578.218 2173.14 580.139 Q2172.35 582.037 2170.24 584.63 Q2169.67 585.301 2166.56 588.519 Q2163.46 591.713 2157.81 597.477 Z" fill="#000000" fill-rule="nonzero" fill-opacity="1" /><path clip-path="url(#clip210)" d="M2167 195.751 Q2170.36 196.468 2172.23 198.737 Q2174.13 201.005 2174.13 204.338 Q2174.13 209.454 2170.61 212.255 Q2167.1 215.056 2160.61 215.056 Q2158.44 215.056 2156.12 214.616 Q2153.83 214.2 2151.38 213.343 L2151.38 208.829 Q2153.32 209.963 2155.64 210.542 Q2157.95 211.121 2160.48 211.121 Q2164.87 211.121 2167.17 209.385 Q2169.48 207.649 2169.48 204.338 Q2169.48 201.283 2167.33 199.57 Q2165.2 197.834 2161.38 197.834 L2157.35 197.834 L2157.35 193.991 L2161.56 193.991 Q2165.01 193.991 2166.84 192.626 Q2168.67 191.237 2168.67 188.644 Q2168.67 185.982 2166.77 184.57 Q2164.9 183.135 2161.38 183.135 Q2159.46 183.135 2157.26 183.552 Q2155.06 183.968 2152.42 184.848 L2152.42 180.681 Q2155.08 179.94 2157.4 179.57 Q2159.73 179.2 2161.8 179.2 Q2167.12 179.2 2170.22 181.63 Q2173.32 184.038 2173.32 188.158 Q2173.32 191.028 2171.68 193.019 Q2170.04 194.987 2167 195.751 Z" fill="#000000" fill-rule="nonzero" fill-opacity="1" /><path clip-path="url(#clip210)" d="M2040.34 876.171 L2040.34 848.353 L2045.69 848.353 L2071.31 870.378 L2071.31 848.353 L2075.99 848.353 L2075.99 876.967 L2070.64 876.967 L2045.02 854.942 L2045.02 876.171 L2040.34 876.171 Z" fill="#000000" fill-rule="nonzero" fill-opacity="1" /><path clip-path="url(#clip210)" d="M2026.53 804.621 Q2033.85 808.886 2041.01 810.955 Q2048.17 813.023 2055.52 813.023 Q2062.87 813.023 2070.1 810.955 Q2077.29 808.854 2084.58 804.621 L2084.58 809.713 Q2077.1 814.488 2069.88 816.875 Q2062.65 819.23 2055.52 819.23 Q2048.42 819.23 2041.23 816.875 Q2034.04 814.519 2026.53 809.713 L2026.53 804.621 Z" fill="#000000" fill-rule="nonzero" fill-opacity="1" /><path clip-path="url(#clip210)" d="M2026.46 793.481 L2026.46 787.592 L2055.71 787.592 L2040.34 770.119 L2040.34 762.639 L2057.02 781.545 L2075.99 761.843 L2075.99 769.482 L2058.58 787.592 L2075.99 787.592 L2075.99 793.481 L2026.46 793.481 Z" fill="#000000" fill-rule="nonzero" fill-opacity="1" /><path clip-path="url(#clip210)" d="M2047.18 727.755 Q2043.24 725.559 2041.36 722.503 Q2039.48 719.448 2039.48 715.31 Q2039.48 709.74 2043.4 706.716 Q2047.28 703.692 2054.47 703.692 L2075.99 703.692 L2075.99 709.581 L2054.66 709.581 Q2049.54 709.581 2047.06 711.395 Q2044.57 713.209 2044.57 716.933 Q2044.57 721.485 2047.6 724.126 Q2050.62 726.768 2055.84 726.768 L2075.99 726.768 L2075.99 732.656 L2054.66 732.656 Q2049.51 732.656 2047.06 734.471 Q2044.57 736.285 2044.57 740.072 Q2044.57 744.56 2047.63 747.202 Q2050.65 749.844 2055.84 749.844 L2075.99 749.844 L2075.99 755.732 L2040.34 755.732 L2040.34 749.844 L2045.88 749.844 Q2042.6 747.839 2041.04 745.038 Q2039.48 742.237 2039.48 738.385 Q2039.48 734.502 2041.45 731.797 Q2043.43 729.06 2047.18 727.755 Z" fill="#000000" fill-rule="nonzero" fill-opacity="1" /><path clip-path="url(#clip210)" d="M2026.53 692.934 L2026.53 687.842 Q2034.04 683.067 2041.23 680.712 Q2048.42 678.325 2055.52 678.325 Q2062.65 678.325 2069.88 680.712 Q2077.1 683.067 2084.58 687.842 L2084.58 692.934 Q2077.29 688.701 2070.1 686.632 Q2062.87 684.532 2055.52 684.532 Q2048.17 684.532 2041.01 686.632 Q2033.85 688.701 2026.53 692.934 Z" fill="#000000" fill-rule="nonzero" fill-opacity="1" /><path clip-path="url(#clip210)" d="M2932.3 65.7705 L2932.3 89.8329 L2924.81 89.8329 L2924.81 27.2059 L2932.3 27.2059 L2932.3 34.0924 Q2934.65 30.0415 2938.21 28.0971 Q2941.82 26.1121 2946.8 26.1121 Q2955.07 26.1121 2960.21 32.6746 Q2965.4 39.2371 2965.4 49.9314 Q2965.4 60.6258 2960.21 67.1883 Q2955.07 73.7508 2946.8 73.7508 Q2941.82 73.7508 2938.21 71.8063 Q2934.65 69.8214 2932.3 65.7705 M2957.66 49.9314 Q2957.66 41.7081 2954.26 37.0496 Q2950.89 32.3505 2944.98 32.3505 Q2939.06 32.3505 2935.66 37.0496 Q2932.3 41.7081 2932.3 49.9314 Q2932.3 58.1548 2935.66 62.8538 Q2939.06 67.5124 2944.98 67.5124 Q2950.89 67.5124 2954.26 62.8538 Q2957.66 58.1548 2957.66 49.9314 Z" fill="#000000" fill-rule="nonzero" fill-opacity="1" /><path clip-path="url(#clip210)" d="M3022.03 9.62495 Q3016.6 18.942 3013.97 28.0566 Q3011.33 37.1711 3011.33 46.5287 Q3011.33 55.8863 3013.97 65.0818 Q3016.64 74.2369 3022.03 83.5134 L3015.55 83.5134 Q3009.47 73.9938 3006.43 64.7983 Q3003.43 55.6027 3003.43 46.5287 Q3003.43 37.4952 3006.43 28.3401 Q3009.43 19.1851 3015.55 9.62495 L3022.03 9.62495 Z" fill="#000000" fill-rule="nonzero" fill-opacity="1" /><path clip-path="url(#clip210)" d="M3036.2 9.54393 L3043.7 9.54393 L3043.7 46.7717 L3065.94 27.2059 L3075.46 27.2059 L3051.4 48.4326 L3076.47 72.576 L3066.75 72.576 L3043.7 50.4176 L3043.7 72.576 L3036.2 72.576 L3036.2 9.54393 Z" fill="#000000" fill-rule="nonzero" fill-opacity="1" /><path clip-path="url(#clip210)" d="M3093.04 18.8205 L3093.04 41.5461 L3103.33 41.5461 Q3109.04 41.5461 3112.16 38.5889 Q3115.28 35.6318 3115.28 30.163 Q3115.28 24.7348 3112.16 21.7777 Q3109.04 18.8205 3103.33 18.8205 L3093.04 18.8205 M3084.86 12.096 L3103.33 12.096 Q3113.5 12.096 3118.68 16.714 Q3123.91 21.2916 3123.91 30.163 Q3123.91 39.1155 3118.68 43.6931 Q3113.5 48.2706 3103.33 48.2706 L3093.04 48.2706 L3093.04 72.576 L3084.86 72.576 L3084.86 12.096 Z" fill="#000000" fill-rule="nonzero" fill-opacity="1" /><path clip-path="url(#clip210)" d="M3151.45 49.7694 Q3142.42 49.7694 3138.94 51.8354 Q3135.45 53.9013 3135.45 58.8839 Q3135.45 62.8538 3138.04 65.2034 Q3140.68 67.5124 3145.17 67.5124 Q3151.37 67.5124 3155.1 63.1374 Q3158.87 58.7219 3158.87 51.4303 L3158.87 49.7694 L3151.45 49.7694 M3166.32 46.6907 L3166.32 72.576 L3158.87 72.576 L3158.87 65.6895 Q3156.31 69.8214 3152.51 71.8063 Q3148.7 73.7508 3143.19 73.7508 Q3136.22 73.7508 3132.09 69.8619 Q3128 65.9325 3128 59.3701 Q3128 51.7138 3133.1 47.825 Q3138.25 43.9361 3148.41 43.9361 L3158.87 43.9361 L3158.87 43.2069 Q3158.87 38.0623 3155.46 35.2672 Q3152.1 32.4315 3145.98 32.4315 Q3142.1 32.4315 3138.41 33.3632 Q3134.72 34.295 3131.32 36.1584 L3131.32 29.2718 Q3135.41 27.692 3139.26 26.9223 Q3143.11 26.1121 3146.75 26.1121 Q3156.6 26.1121 3161.46 31.2163 Q3166.32 36.3204 3166.32 46.6907 Z" fill="#000000" fill-rule="nonzero" fill-opacity="1" /><path clip-path="url(#clip210)" d="M3180.5 9.62495 L3186.98 9.62495 Q3193.06 19.1851 3196.05 28.3401 Q3199.09 37.4952 3199.09 46.5287 Q3199.09 55.6027 3196.05 64.7983 Q3193.06 73.9938 3186.98 83.5134 L3180.5 83.5134 Q3185.89 74.2369 3188.52 65.0818 Q3191.19 55.8863 3191.19 46.5287 Q3191.19 37.1711 3188.52 28.0566 Q3185.89 18.942 3180.5 9.62495 Z" fill="#000000" fill-rule="nonzero" fill-opacity="1" /><polyline clip-path="url(#clip213)" style="stroke:#009af9; stroke-linecap:round; stroke-linejoin:round; stroke-width:4; stroke-opacity:1; fill:none" points="3830.91,1350.45 3807,1334.97 3783.17,1319.48 3759.44,1304 3735.8,1288.52 3712.24,1273.04 3688.78,1257.56 3665.41,1242.08 3642.13,1226.6 3618.93,1211.12 3595.83,1195.64 3572.81,1180.15 3549.89,1164.67 3527.05,1149.19 3504.3,1133.71 3481.64,1118.23 3459.06,1102.75 3436.57,1087.27 3414.17,1071.79 3391.86,1056.31 3369.63,1040.82 3347.49,1025.34 3325.43,1009.86 3303.46,994.381 3281.57,978.9 3259.77,963.419 3238.06,947.938 3216.42,932.457 3194.88,916.976 3173.41,901.495 3152.03,886.014 3130.73,870.533 3109.52,855.051 3088.39,839.57 3067.34,824.089 3046.37,808.608 3025.49,793.127 3004.68,777.646 2983.96,762.165 2963.32,746.684 2942.76,731.203 2922.28,715.722 2901.88,700.24 2881.56,684.759 2861.32,669.278 2841.16,653.797 2821.08,638.316 2801.08,622.835 2781.16,607.354 2761.31,591.873 2741.54,576.392 2721.86,560.911 2702.25,545.429 2682.71,529.948 2663.26,514.467 2643.88,498.986 2624.57,483.505 2605.35,468.024 2586.2,452.543 2567.12,437.062 2548.13,421.581 2529.2,406.1 2510.35,390.618 2491.58,375.137 2472.88,359.656 2454.26,344.175 2435.71,328.694 2417.23,313.213 2398.83,297.732 2380.5,282.251 2362.24,266.77 2344.06,251.289 2325.95,235.807 2307.91,220.326 2289.95,204.845 "/>
<polyline clip-path="url(#clip213)" style="stroke:#e26f46; stroke-linecap:round; stroke-linejoin:round; stroke-width:4; stroke-opacity:1; fill:none" points="3842.91,1358.19 3818.94,1342.71 3795.07,1327.23 3771.29,1311.74 3747.61,1296.26 3724.01,1280.78 3700.5,1265.3 3677.08,1249.82 3653.76,1234.34 3630.52,1218.86 3607.37,1203.38 3584.31,1187.9 3561.34,1172.41 3538.46,1156.93 3515.66,1141.45 3492.96,1125.97 3470.34,1110.49 3447.81,1095.01 3425.36,1079.53 3403,1064.05 3380.73,1048.57 3358.55,1033.08 3336.45,1017.6 3314.43,1002.12 3292.51,986.641 3270.66,971.16 3248.9,955.679 3227.23,940.198 3205.64,924.716 3184.13,909.235 3162.71,893.754 3141.37,878.273 3120.12,862.792 3098.94,847.311 3077.85,831.83 3056.84,816.349 3035.92,800.868 3015.07,785.387 2994.31,769.905 2973.63,754.424 2953.03,738.943 2932.51,723.462 2912.07,707.981 2891.71,692.5 2871.43,677.019 2851.23,661.538 2831.11,646.057 2811.07,630.576 2791.11,615.094 2771.22,599.613 2751.42,584.132 2731.69,568.651 2712.04,553.17 2692.47,537.689 2672.97,522.208 2653.56,506.727 2634.22,491.246 2614.95,475.765 2595.76,460.283 2576.65,444.802 2557.61,429.321 2538.65,413.84 2519.77,398.359 2500.96,382.878 2482.22,367.397 2463.56,351.916 2444.97,336.435 2426.46,320.954 2408.02,305.472 2389.66,289.991 2371.36,274.51 2353.14,259.029 2335,243.548 2316.92,228.067 2298.92,212.586 2280.99,197.105 "/>
<path clip-path="url(#clip210)" d="M3496.72 358.817 L3834.58 358.817 L3834.58 203.297 L3496.72 203.297  Z" fill="#ffffff" fill-rule="evenodd" fill-opacity="1"/>
<polyline clip-path="url(#clip210)" style="stroke:#000000; stroke-linecap:round; stroke-linejoin:round; stroke-width:4; stroke-opacity:1; fill:none" points="3496.72,358.817 3834.58,358.817 3834.58,203.297 3496.72,203.297 3496.72,358.817 "/>
<polyline clip-path="url(#clip210)" style="stroke:#009af9; stroke-linecap:round; stroke-linejoin:round; stroke-width:4; stroke-opacity:1; fill:none" points="3515.12,255.137 3625.49,255.137 "/>
<path clip-path="url(#clip210)" d="M3664.4 247.487 L3664.4 251.468 Q3662.59 250.473 3660.76 249.987 Q3658.96 249.477 3657.11 249.477 Q3652.96 249.477 3650.67 252.116 Q3648.38 254.732 3648.38 259.477 Q3648.38 264.223 3650.67 266.862 Q3652.96 269.477 3657.11 269.477 Q3658.96 269.477 3660.76 268.991 Q3662.59 268.482 3664.4 267.487 L3664.4 271.422 Q3662.62 272.255 3660.69 272.672 Q3658.8 273.088 3656.64 273.088 Q3650.79 273.088 3647.34 269.408 Q3643.89 265.727 3643.89 259.477 Q3643.89 253.135 3647.36 249.501 Q3650.86 245.866 3656.92 245.866 Q3658.89 245.866 3660.76 246.283 Q3662.64 246.677 3664.4 247.487 Z" fill="#000000" fill-rule="nonzero" fill-opacity="1" /><path clip-path="url(#clip210)" d="M3693.98 258.389 L3693.98 260.473 L3674.4 260.473 Q3674.68 264.871 3677.04 267.186 Q3679.42 269.477 3683.66 269.477 Q3686.11 269.477 3688.4 268.876 Q3690.72 268.274 3692.99 267.07 L3692.99 271.098 Q3690.69 272.07 3688.29 272.579 Q3685.88 273.088 3683.4 273.088 Q3677.2 273.088 3673.57 269.477 Q3669.95 265.866 3669.95 259.709 Q3669.95 253.343 3673.38 249.616 Q3676.83 245.866 3682.66 245.866 Q3687.89 245.866 3690.93 249.246 Q3693.98 252.602 3693.98 258.389 M3689.72 257.139 Q3689.68 253.644 3687.75 251.561 Q3685.86 249.477 3682.71 249.477 Q3679.14 249.477 3676.99 251.491 Q3674.86 253.505 3674.54 257.163 L3689.72 257.139 Z" fill="#000000" fill-rule="nonzero" fill-opacity="1" /><path clip-path="url(#clip210)" d="M3722.52 256.769 L3722.52 272.417 L3718.26 272.417 L3718.26 256.908 Q3718.26 253.227 3716.83 251.399 Q3715.39 249.57 3712.52 249.57 Q3709.07 249.57 3707.08 251.769 Q3705.09 253.968 3705.09 257.764 L3705.09 272.417 L3700.81 272.417 L3700.81 246.491 L3705.09 246.491 L3705.09 250.519 Q3706.62 248.181 3708.68 247.024 Q3710.76 245.866 3713.47 245.866 Q3717.94 245.866 3720.23 248.644 Q3722.52 251.399 3722.52 256.769 Z" fill="#000000" fill-rule="nonzero" fill-opacity="1" /><path clip-path="url(#clip210)" d="M3735.23 239.13 L3735.23 246.491 L3744 246.491 L3744 249.802 L3735.23 249.802 L3735.23 263.876 Q3735.23 267.047 3736.09 267.95 Q3736.97 268.852 3739.63 268.852 L3744 268.852 L3744 272.417 L3739.63 272.417 Q3734.7 272.417 3732.82 270.588 Q3730.95 268.737 3730.95 263.876 L3730.95 249.802 L3727.82 249.802 L3727.82 246.491 L3730.95 246.491 L3730.95 239.13 L3735.23 239.13 Z" fill="#000000" fill-rule="nonzero" fill-opacity="1" /><path clip-path="url(#clip210)" d="M3771.78 258.389 L3771.78 260.473 L3752.2 260.473 Q3752.48 264.871 3754.84 267.186 Q3757.22 269.477 3761.46 269.477 Q3763.91 269.477 3766.2 268.876 Q3768.52 268.274 3770.79 267.07 L3770.79 271.098 Q3768.5 272.07 3766.09 272.579 Q3763.68 273.088 3761.2 273.088 Q3755 273.088 3751.37 269.477 Q3747.75 265.866 3747.75 259.709 Q3747.75 253.343 3751.18 249.616 Q3754.63 245.866 3760.46 245.866 Q3765.69 245.866 3768.73 249.246 Q3771.78 252.602 3771.78 258.389 M3767.52 257.139 Q3767.48 253.644 3765.56 251.561 Q3763.66 249.477 3760.51 249.477 Q3756.94 249.477 3754.79 251.491 Q3752.66 253.505 3752.34 257.163 L3767.52 257.139 Z" fill="#000000" fill-rule="nonzero" fill-opacity="1" /><path clip-path="url(#clip210)" d="M3793.8 250.473 Q3793.08 250.056 3792.22 249.871 Q3791.39 249.663 3790.37 249.663 Q3786.76 249.663 3784.81 252.024 Q3782.89 254.362 3782.89 258.76 L3782.89 272.417 L3778.61 272.417 L3778.61 246.491 L3782.89 246.491 L3782.89 250.519 Q3784.24 248.158 3786.39 247.024 Q3788.54 245.866 3791.62 245.866 Q3792.06 245.866 3792.59 245.936 Q3793.12 245.982 3793.77 246.098 L3793.8 250.473 Z" fill="#000000" fill-rule="nonzero" fill-opacity="1" /><path clip-path="url(#clip210)" d="M3814.79 247.255 L3814.79 251.283 Q3812.99 250.357 3811.04 249.894 Q3809.1 249.431 3807.01 249.431 Q3803.84 249.431 3802.25 250.403 Q3800.67 251.376 3800.67 253.32 Q3800.67 254.802 3801.81 255.658 Q3802.94 256.491 3806.37 257.255 L3807.82 257.579 Q3812.36 258.552 3814.26 260.334 Q3816.18 262.093 3816.18 265.264 Q3816.18 268.876 3813.31 270.982 Q3810.46 273.088 3805.46 273.088 Q3803.38 273.088 3801.11 272.672 Q3798.87 272.278 3796.37 271.468 L3796.37 267.07 Q3798.73 268.297 3801.02 268.922 Q3803.31 269.524 3805.56 269.524 Q3808.56 269.524 3810.18 268.505 Q3811.81 267.463 3811.81 265.589 Q3811.81 263.852 3810.62 262.926 Q3809.47 262.001 3805.51 261.144 L3804.03 260.797 Q3800.07 259.964 3798.31 258.251 Q3796.55 256.514 3796.55 253.505 Q3796.55 249.848 3799.14 247.857 Q3801.74 245.866 3806.5 245.866 Q3808.87 245.866 3810.95 246.214 Q3813.03 246.561 3814.79 247.255 Z" fill="#000000" fill-rule="nonzero" fill-opacity="1" /><polyline clip-path="url(#clip210)" style="stroke:#e26f46; stroke-linecap:round; stroke-linejoin:round; stroke-width:4; stroke-opacity:1; fill:none" points="3515.12,306.977 3625.49,306.977 "/>
<path clip-path="url(#clip210)" d="M3660.39 288.239 L3660.39 291.78 L3656.32 291.78 Q3654.03 291.78 3653.13 292.706 Q3652.25 293.632 3652.25 296.04 L3652.25 298.331 L3659.26 298.331 L3659.26 301.642 L3652.25 301.642 L3652.25 324.257 L3647.96 324.257 L3647.96 301.642 L3643.89 301.642 L3643.89 298.331 L3647.96 298.331 L3647.96 296.526 Q3647.96 292.197 3649.98 290.23 Q3651.99 288.239 3656.37 288.239 L3660.39 288.239 Z" fill="#000000" fill-rule="nonzero" fill-opacity="1" /><path clip-path="url(#clip210)" d="M3675.74 311.225 Q3670.58 311.225 3668.59 312.405 Q3666.6 313.586 3666.6 316.433 Q3666.6 318.702 3668.08 320.044 Q3669.58 321.364 3672.15 321.364 Q3675.69 321.364 3677.82 318.864 Q3679.98 316.341 3679.98 312.174 L3679.98 311.225 L3675.74 311.225 M3684.24 309.466 L3684.24 324.257 L3679.98 324.257 L3679.98 320.322 Q3678.52 322.683 3676.34 323.817 Q3674.17 324.928 3671.02 324.928 Q3667.04 324.928 3664.68 322.706 Q3662.34 320.461 3662.34 316.711 Q3662.34 312.336 3665.26 310.114 Q3668.19 307.892 3674.01 307.892 L3679.98 307.892 L3679.98 307.475 Q3679.98 304.535 3678.03 302.938 Q3676.11 301.317 3672.62 301.317 Q3670.39 301.317 3668.29 301.85 Q3666.18 302.382 3664.24 303.447 L3664.24 299.512 Q3666.57 298.609 3668.77 298.169 Q3670.97 297.706 3673.06 297.706 Q3678.68 297.706 3681.46 300.623 Q3684.24 303.54 3684.24 309.466 Z" fill="#000000" fill-rule="nonzero" fill-opacity="1" /><path clip-path="url(#clip210)" d="M3711.67 299.327 L3711.67 303.308 Q3709.86 302.313 3708.03 301.827 Q3706.23 301.317 3704.38 301.317 Q3700.23 301.317 3697.94 303.956 Q3695.65 306.572 3695.65 311.317 Q3695.65 316.063 3697.94 318.702 Q3700.23 321.317 3704.38 321.317 Q3706.23 321.317 3708.03 320.831 Q3709.86 320.322 3711.67 319.327 L3711.67 323.262 Q3709.88 324.095 3707.96 324.512 Q3706.07 324.928 3703.91 324.928 Q3698.06 324.928 3694.61 321.248 Q3691.16 317.567 3691.16 311.317 Q3691.16 304.975 3694.63 301.341 Q3698.13 297.706 3704.19 297.706 Q3706.16 297.706 3708.03 298.123 Q3709.91 298.517 3711.67 299.327 Z" fill="#000000" fill-rule="nonzero" fill-opacity="1" /><path clip-path="url(#clip210)" d="M3741.25 310.229 L3741.25 312.313 L3721.67 312.313 Q3721.94 316.711 3724.31 319.026 Q3726.69 321.317 3730.93 321.317 Q3733.38 321.317 3735.67 320.716 Q3737.99 320.114 3740.25 318.91 L3740.25 322.938 Q3737.96 323.91 3735.56 324.419 Q3733.15 324.928 3730.67 324.928 Q3724.47 324.928 3720.83 321.317 Q3717.22 317.706 3717.22 311.549 Q3717.22 305.183 3720.65 301.456 Q3724.1 297.706 3729.93 297.706 Q3735.16 297.706 3738.19 301.086 Q3741.25 304.442 3741.25 310.229 M3736.99 308.979 Q3736.94 305.484 3735.02 303.401 Q3733.13 301.317 3729.98 301.317 Q3726.41 301.317 3724.26 303.331 Q3722.13 305.345 3721.81 309.003 L3736.99 308.979 Z" fill="#000000" fill-rule="nonzero" fill-opacity="1" /><path clip-path="url(#clip210)" d="M3764.77 299.095 L3764.77 303.123 Q3762.96 302.197 3761.02 301.734 Q3759.07 301.271 3756.99 301.271 Q3753.82 301.271 3752.22 302.243 Q3750.65 303.216 3750.65 305.16 Q3750.65 306.642 3751.78 307.498 Q3752.92 308.331 3756.34 309.095 L3757.8 309.419 Q3762.34 310.392 3764.24 312.174 Q3766.16 313.933 3766.16 317.104 Q3766.16 320.716 3763.29 322.822 Q3760.44 324.928 3755.44 324.928 Q3753.36 324.928 3751.09 324.512 Q3748.84 324.118 3746.34 323.308 L3746.34 318.91 Q3748.7 320.137 3751 320.762 Q3753.29 321.364 3755.53 321.364 Q3758.54 321.364 3760.16 320.345 Q3761.78 319.303 3761.78 317.429 Q3761.78 315.692 3760.6 314.766 Q3759.44 313.841 3755.49 312.984 L3754 312.637 Q3750.05 311.804 3748.29 310.091 Q3746.53 308.354 3746.53 305.345 Q3746.53 301.688 3749.12 299.697 Q3751.71 297.706 3756.48 297.706 Q3758.84 297.706 3760.93 298.054 Q3763.01 298.401 3764.77 299.095 Z" fill="#000000" fill-rule="nonzero" fill-opacity="1" /></svg>
