<?xml version="1.0" encoding="utf-8"?>
<svg xmlns="http://www.w3.org/2000/svg" xmlns:xlink="http://www.w3.org/1999/xlink" width="1000" height="400" viewBox="0 0 4000 1600">
<defs>
  <clipPath id="clip450">
    <rect x="0" y="0" width="4000" height="1600"/>
  </clipPath>
</defs>
<path clip-path="url(#clip450)" d="
M0 1600 L4000 1600 L4000 0 L0 0  Z
  " fill="#ffffff" fill-rule="evenodd" fill-opacity="1"/>
<defs>
  <clipPath id="clip451">
    <rect x="800" y="0" width="2801" height="1600"/>
  </clipPath>
</defs>
<path clip-path="url(#clip450)" d="
M279.85 1393.02 L1889.76 1393.02 L1889.76 162.272 L279.85 162.272  Z
  " fill="#ffffff" fill-rule="evenodd" fill-opacity="1"/>
<defs>
  <clipPath id="clip452">
    <rect x="279" y="162" width="1611" height="1232"/>
  </clipPath>
</defs>
<polyline clip-path="url(#clip452)" style="stroke:#000000; stroke-linecap:butt; stroke-linejoin:round; stroke-width:2; stroke-opacity:0.1; fill:none" points="
  423.464,1393.02 423.464,162.272 
  "/>
<polyline clip-path="url(#clip452)" style="stroke:#000000; stroke-linecap:butt; stroke-linejoin:round; stroke-width:2; stroke-opacity:0.1; fill:none" points="
  740.402,1393.02 740.402,162.272 
  "/>
<polyline clip-path="url(#clip452)" style="stroke:#000000; stroke-linecap:butt; stroke-linejoin:round; stroke-width:2; stroke-opacity:0.1; fill:none" points="
  1057.34,1393.02 1057.34,162.272 
  "/>
<polyline clip-path="url(#clip452)" style="stroke:#000000; stroke-linecap:butt; stroke-linejoin:round; stroke-width:2; stroke-opacity:0.1; fill:none" points="
  1374.28,1393.02 1374.28,162.272 
  "/>
<polyline clip-path="url(#clip452)" style="stroke:#000000; stroke-linecap:butt; stroke-linejoin:round; stroke-width:2; stroke-opacity:0.1; fill:none" points="
  1691.22,1393.02 1691.22,162.272 
  "/>
<polyline clip-path="url(#clip450)" style="stroke:#000000; stroke-linecap:butt; stroke-linejoin:round; stroke-width:4; stroke-opacity:1; fill:none" points="
  279.85,1393.02 1889.76,1393.02 
  "/>
<polyline clip-path="url(#clip450)" style="stroke:#000000; stroke-linecap:butt; stroke-linejoin:round; stroke-width:4; stroke-opacity:1; fill:none" points="
  423.464,1393.02 423.464,1374.12 
  "/>
<polyline clip-path="url(#clip450)" style="stroke:#000000; stroke-linecap:butt; stroke-linejoin:round; stroke-width:4; stroke-opacity:1; fill:none" points="
  740.402,1393.02 740.402,1374.12 
  "/>
<polyline clip-path="url(#clip450)" style="stroke:#000000; stroke-linecap:butt; stroke-linejoin:round; stroke-width:4; stroke-opacity:1; fill:none" points="
  1057.34,1393.02 1057.34,1374.12 
  "/>
<polyline clip-path="url(#clip450)" style="stroke:#000000; stroke-linecap:butt; stroke-linejoin:round; stroke-width:4; stroke-opacity:1; fill:none" points="
  1374.28,1393.02 1374.28,1374.12 
  "/>
<polyline clip-path="url(#clip450)" style="stroke:#000000; stroke-linecap:butt; stroke-linejoin:round; stroke-width:4; stroke-opacity:1; fill:none" points="
  1691.22,1393.02 1691.22,1374.12 
  "/>
<path clip-path="url(#clip450)" d="M375.987 1464.28 L383.626 1464.28 L383.626 1437.92 L375.316 1439.59 L375.316 1435.33 L383.58 1433.66 L388.255 1433.66 L388.255 1464.28 L395.894 1464.28 L395.894 1468.22 L375.987 1468.22 L375.987 1464.28 Z" fill="#000000" fill-rule="evenodd" fill-opacity="1" /><path clip-path="url(#clip450)" d="M405.339 1462.34 L410.223 1462.34 L410.223 1468.22 L405.339 1468.22 L405.339 1462.34 Z" fill="#000000" fill-rule="evenodd" fill-opacity="1" /><path clip-path="url(#clip450)" d="M424.436 1464.28 L440.755 1464.28 L440.755 1468.22 L418.811 1468.22 L418.811 1464.28 Q421.473 1461.53 426.056 1456.9 Q430.663 1452.25 431.843 1450.9 Q434.089 1448.38 434.968 1446.65 Q435.871 1444.89 435.871 1443.2 Q435.871 1440.44 433.926 1438.71 Q432.005 1436.97 428.903 1436.97 Q426.704 1436.97 424.251 1437.73 Q421.82 1438.5 419.042 1440.05 L419.042 1435.33 Q421.866 1434.19 424.32 1433.61 Q426.774 1433.03 428.811 1433.03 Q434.181 1433.03 437.376 1435.72 Q440.57 1438.41 440.57 1442.9 Q440.57 1445.03 439.76 1446.95 Q438.973 1448.84 436.866 1451.44 Q436.288 1452.11 433.186 1455.33 Q430.084 1458.52 424.436 1464.28 Z" fill="#000000" fill-rule="evenodd" fill-opacity="1" /><path clip-path="url(#clip450)" d="M449.389 1433.66 L471.611 1433.66 L471.611 1435.65 L459.065 1468.22 L454.181 1468.22 L465.987 1437.59 L449.389 1437.59 L449.389 1433.66 Z" fill="#000000" fill-rule="evenodd" fill-opacity="1" /><path clip-path="url(#clip450)" d="M692.52 1464.28 L700.159 1464.28 L700.159 1437.92 L691.849 1439.59 L691.849 1435.33 L700.113 1433.66 L704.789 1433.66 L704.789 1464.28 L712.428 1464.28 L712.428 1468.22 L692.52 1468.22 L692.52 1464.28 Z" fill="#000000" fill-rule="evenodd" fill-opacity="1" /><path clip-path="url(#clip450)" d="M721.872 1462.34 L726.756 1462.34 L726.756 1468.22 L721.872 1468.22 L721.872 1462.34 Z" fill="#000000" fill-rule="evenodd" fill-opacity="1" /><path clip-path="url(#clip450)" d="M740.969 1464.28 L757.288 1464.28 L757.288 1468.22 L735.344 1468.22 L735.344 1464.28 Q738.006 1461.53 742.589 1456.9 Q747.196 1452.25 748.376 1450.9 Q750.622 1448.38 751.501 1446.65 Q752.404 1444.89 752.404 1443.2 Q752.404 1440.44 750.46 1438.71 Q748.538 1436.97 745.437 1436.97 Q743.238 1436.97 740.784 1437.73 Q738.353 1438.5 735.576 1440.05 L735.576 1435.33 Q738.4 1434.19 740.853 1433.61 Q743.307 1433.03 745.344 1433.03 Q750.714 1433.03 753.909 1435.72 Q757.103 1438.41 757.103 1442.9 Q757.103 1445.03 756.293 1446.95 Q755.506 1448.84 753.4 1451.44 Q752.821 1452.11 749.719 1455.33 Q746.617 1458.52 740.969 1464.28 Z" fill="#000000" fill-rule="evenodd" fill-opacity="1" /><path clip-path="url(#clip450)" d="M777.103 1451.81 Q773.77 1451.81 771.849 1453.59 Q769.95 1455.37 769.95 1458.5 Q769.95 1461.62 771.849 1463.4 Q773.77 1465.19 777.103 1465.19 Q780.436 1465.19 782.358 1463.4 Q784.279 1461.6 784.279 1458.5 Q784.279 1455.37 782.358 1453.59 Q780.46 1451.81 777.103 1451.81 M772.427 1449.82 Q769.418 1449.08 767.728 1447.02 Q766.062 1444.96 766.062 1441.99 Q766.062 1437.85 769.001 1435.44 Q771.964 1433.03 777.103 1433.03 Q782.265 1433.03 785.205 1435.44 Q788.145 1437.85 788.145 1441.99 Q788.145 1444.96 786.455 1447.02 Q784.788 1449.08 781.802 1449.82 Q785.182 1450.6 787.057 1452.9 Q788.955 1455.19 788.955 1458.5 Q788.955 1463.52 785.876 1466.21 Q782.821 1468.89 777.103 1468.89 Q771.386 1468.89 768.307 1466.21 Q765.251 1463.52 765.251 1458.5 Q765.251 1455.19 767.149 1452.9 Q769.048 1450.6 772.427 1449.82 M770.714 1442.43 Q770.714 1445.12 772.381 1446.62 Q774.071 1448.13 777.103 1448.13 Q780.112 1448.13 781.802 1446.62 Q783.515 1445.12 783.515 1442.43 Q783.515 1439.75 781.802 1438.24 Q780.112 1436.74 777.103 1436.74 Q774.071 1436.74 772.381 1438.24 Q770.714 1439.75 770.714 1442.43 Z" fill="#000000" fill-rule="evenodd" fill-opacity="1" /><path clip-path="url(#clip450)" d="M1009.5 1464.28 L1017.14 1464.28 L1017.14 1437.92 L1008.83 1439.59 L1008.83 1435.33 L1017.1 1433.66 L1021.77 1433.66 L1021.77 1464.28 L1029.41 1464.28 L1029.41 1468.22 L1009.5 1468.22 L1009.5 1464.28 Z" fill="#000000" fill-rule="evenodd" fill-opacity="1" /><path clip-path="url(#clip450)" d="M1038.86 1462.34 L1043.74 1462.34 L1043.74 1468.22 L1038.86 1468.22 L1038.86 1462.34 Z" fill="#000000" fill-rule="evenodd" fill-opacity="1" /><path clip-path="url(#clip450)" d="M1057.95 1464.28 L1074.27 1464.28 L1074.27 1468.22 L1052.33 1468.22 L1052.33 1464.28 Q1054.99 1461.53 1059.57 1456.9 Q1064.18 1452.25 1065.36 1450.9 Q1067.61 1448.38 1068.49 1446.65 Q1069.39 1444.89 1069.39 1443.2 Q1069.39 1440.44 1067.44 1438.71 Q1065.52 1436.97 1062.42 1436.97 Q1060.22 1436.97 1057.77 1437.73 Q1055.34 1438.5 1052.56 1440.05 L1052.56 1435.33 Q1055.38 1434.19 1057.84 1433.61 Q1060.29 1433.03 1062.33 1433.03 Q1067.7 1433.03 1070.89 1435.72 Q1074.09 1438.41 1074.09 1442.9 Q1074.09 1445.03 1073.28 1446.95 Q1072.49 1448.84 1070.38 1451.44 Q1069.81 1452.11 1066.7 1455.33 Q1063.6 1458.52 1057.95 1464.28 Z" fill="#000000" fill-rule="evenodd" fill-opacity="1" /><path clip-path="url(#clip450)" d="M1084.23 1467.5 L1084.23 1463.24 Q1085.99 1464.08 1087.79 1464.52 Q1089.6 1464.96 1091.33 1464.96 Q1095.96 1464.96 1098.39 1461.85 Q1100.85 1458.73 1101.19 1452.39 Q1099.85 1454.38 1097.79 1455.44 Q1095.73 1456.51 1093.23 1456.51 Q1088.05 1456.51 1085.01 1453.38 Q1082 1450.23 1082 1444.79 Q1082 1439.47 1085.15 1436.25 Q1088.3 1433.03 1093.53 1433.03 Q1099.53 1433.03 1102.68 1437.64 Q1105.85 1442.22 1105.85 1450.97 Q1105.85 1459.15 1101.96 1464.03 Q1098.09 1468.89 1091.54 1468.89 Q1089.78 1468.89 1087.98 1468.54 Q1086.17 1468.2 1084.23 1467.5 M1093.53 1452.85 Q1096.68 1452.85 1098.51 1450.7 Q1100.36 1448.54 1100.36 1444.79 Q1100.36 1441.07 1098.51 1438.91 Q1096.68 1436.74 1093.53 1436.74 Q1090.38 1436.74 1088.53 1438.91 Q1086.7 1441.07 1086.7 1444.79 Q1086.7 1448.54 1088.53 1450.7 Q1090.38 1452.85 1093.53 1452.85 Z" fill="#000000" fill-rule="evenodd" fill-opacity="1" /><path clip-path="url(#clip450)" d="M1326.35 1464.28 L1333.99 1464.28 L1333.99 1437.92 L1325.68 1439.59 L1325.68 1435.33 L1333.94 1433.66 L1338.62 1433.66 L1338.62 1464.28 L1346.26 1464.28 L1346.26 1468.22 L1326.35 1468.22 L1326.35 1464.28 Z" fill="#000000" fill-rule="evenodd" fill-opacity="1" /><path clip-path="url(#clip450)" d="M1355.7 1462.34 L1360.59 1462.34 L1360.59 1468.22 L1355.7 1468.22 L1355.7 1462.34 Z" fill="#000000" fill-rule="evenodd" fill-opacity="1" /><path clip-path="url(#clip450)" d="M1384.94 1449.59 Q1388.29 1450.3 1390.17 1452.57 Q1392.07 1454.84 1392.07 1458.17 Q1392.07 1463.29 1388.55 1466.09 Q1385.03 1468.89 1378.55 1468.89 Q1376.37 1468.89 1374.06 1468.45 Q1371.77 1468.03 1369.31 1467.18 L1369.31 1462.66 Q1371.26 1463.8 1373.57 1464.38 Q1375.89 1464.96 1378.41 1464.96 Q1382.81 1464.96 1385.1 1463.22 Q1387.42 1461.48 1387.42 1458.17 Q1387.42 1455.12 1385.26 1453.4 Q1383.13 1451.67 1379.31 1451.67 L1375.29 1451.67 L1375.29 1447.83 L1379.5 1447.83 Q1382.95 1447.83 1384.78 1446.46 Q1386.6 1445.07 1386.6 1442.48 Q1386.6 1439.82 1384.71 1438.41 Q1382.83 1436.97 1379.31 1436.97 Q1377.39 1436.97 1375.19 1437.39 Q1372.99 1437.8 1370.36 1438.68 L1370.36 1434.52 Q1373.02 1433.78 1375.33 1433.41 Q1377.67 1433.03 1379.73 1433.03 Q1385.05 1433.03 1388.16 1435.47 Q1391.26 1437.87 1391.26 1441.99 Q1391.26 1444.86 1389.61 1446.85 Q1387.97 1448.82 1384.94 1449.59 Z" fill="#000000" fill-rule="evenodd" fill-opacity="1" /><path clip-path="url(#clip450)" d="M1410.93 1436.74 Q1407.32 1436.74 1405.49 1440.3 Q1403.69 1443.84 1403.69 1450.97 Q1403.69 1458.08 1405.49 1461.65 Q1407.32 1465.19 1410.93 1465.19 Q1414.57 1465.19 1416.37 1461.65 Q1418.2 1458.08 1418.2 1450.97 Q1418.2 1443.84 1416.37 1440.3 Q1414.57 1436.74 1410.93 1436.74 M1410.93 1433.03 Q1416.74 1433.03 1419.8 1437.64 Q1422.88 1442.22 1422.88 1450.97 Q1422.88 1459.7 1419.8 1464.31 Q1416.74 1468.89 1410.93 1468.89 Q1405.12 1468.89 1402.04 1464.31 Q1398.99 1459.7 1398.99 1450.97 Q1398.99 1442.22 1402.04 1437.64 Q1405.12 1433.03 1410.93 1433.03 Z" fill="#000000" fill-rule="evenodd" fill-opacity="1" /><path clip-path="url(#clip450)" d="M1643.9 1464.28 L1651.54 1464.28 L1651.54 1437.92 L1643.23 1439.59 L1643.23 1435.33 L1651.49 1433.66 L1656.17 1433.66 L1656.17 1464.28 L1663.81 1464.28 L1663.81 1468.22 L1643.9 1468.22 L1643.9 1464.28 Z" fill="#000000" fill-rule="evenodd" fill-opacity="1" /><path clip-path="url(#clip450)" d="M1673.25 1462.34 L1678.14 1462.34 L1678.14 1468.22 L1673.25 1468.22 L1673.25 1462.34 Z" fill="#000000" fill-rule="evenodd" fill-opacity="1" /><path clip-path="url(#clip450)" d="M1702.49 1449.59 Q1705.85 1450.3 1707.72 1452.57 Q1709.62 1454.84 1709.62 1458.17 Q1709.62 1463.29 1706.1 1466.09 Q1702.58 1468.89 1696.1 1468.89 Q1693.93 1468.89 1691.61 1468.45 Q1689.32 1468.03 1686.87 1467.18 L1686.87 1462.66 Q1688.81 1463.8 1691.12 1464.38 Q1693.44 1464.96 1695.96 1464.96 Q1700.36 1464.96 1702.65 1463.22 Q1704.97 1461.48 1704.97 1458.17 Q1704.97 1455.12 1702.81 1453.4 Q1700.68 1451.67 1696.87 1451.67 L1692.84 1451.67 L1692.84 1447.83 L1697.05 1447.83 Q1700.5 1447.83 1702.33 1446.46 Q1704.16 1445.07 1704.16 1442.48 Q1704.16 1439.82 1702.26 1438.41 Q1700.38 1436.97 1696.87 1436.97 Q1694.94 1436.97 1692.74 1437.39 Q1690.55 1437.8 1687.91 1438.68 L1687.91 1434.52 Q1690.57 1433.78 1692.88 1433.41 Q1695.22 1433.03 1697.28 1433.03 Q1702.61 1433.03 1705.71 1435.47 Q1708.81 1437.87 1708.81 1441.99 Q1708.81 1444.86 1707.17 1446.85 Q1705.52 1448.82 1702.49 1449.59 Z" fill="#000000" fill-rule="evenodd" fill-opacity="1" /><path clip-path="url(#clip450)" d="M1719.3 1464.28 L1726.93 1464.28 L1726.93 1437.92 L1718.62 1439.59 L1718.62 1435.33 L1726.89 1433.66 L1731.56 1433.66 L1731.56 1464.28 L1739.2 1464.28 L1739.2 1468.22 L1719.3 1468.22 L1719.3 1464.28 Z" fill="#000000" fill-rule="evenodd" fill-opacity="1" /><path clip-path="url(#clip450)" d="M1071.73 1532.6 Q1073.67 1529.35 1078.47 1526.49 Q1080.35 1525.38 1086.14 1525.38 Q1092.64 1525.38 1096.68 1530.53 Q1100.75 1535.69 1100.75 1544.09 Q1100.75 1552.49 1096.68 1557.65 Q1092.64 1562.81 1086.14 1562.81 Q1082.23 1562.81 1079.4 1561.28 Q1076.6 1559.72 1074.75 1556.54 L1074.75 1575.44 L1068.86 1575.44 L1068.86 1544.41 Q1068.86 1537.06 1071.73 1532.6 M1094.67 1544.09 Q1094.67 1537.63 1092 1533.97 Q1089.36 1530.28 1084.71 1530.28 Q1080.06 1530.28 1077.39 1533.97 Q1074.75 1537.63 1074.75 1544.09 Q1074.75 1550.55 1077.39 1554.24 Q1080.06 1557.91 1084.71 1557.91 Q1089.36 1557.91 1092 1554.24 Q1094.67 1550.55 1094.67 1544.09 Z" fill="#000000" fill-rule="evenodd" fill-opacity="1" /><polyline clip-path="url(#clip452)" style="stroke:#000000; stroke-linecap:butt; stroke-linejoin:round; stroke-width:2; stroke-opacity:0.1; fill:none" points="
  279.85,1358.19 1889.76,1358.19 
  "/>
<polyline clip-path="url(#clip452)" style="stroke:#000000; stroke-linecap:butt; stroke-linejoin:round; stroke-width:2; stroke-opacity:0.1; fill:none" points="
  279.85,1067.92 1889.76,1067.92 
  "/>
<polyline clip-path="url(#clip452)" style="stroke:#000000; stroke-linecap:butt; stroke-linejoin:round; stroke-width:2; stroke-opacity:0.1; fill:none" points="
  279.85,777.646 1889.76,777.646 
  "/>
<polyline clip-path="url(#clip452)" style="stroke:#000000; stroke-linecap:butt; stroke-linejoin:round; stroke-width:2; stroke-opacity:0.1; fill:none" points="
  279.85,487.375 1889.76,487.375 
  "/>
<polyline clip-path="url(#clip452)" style="stroke:#000000; stroke-linecap:butt; stroke-linejoin:round; stroke-width:2; stroke-opacity:0.1; fill:none" points="
  279.85,197.105 1889.76,197.105 
  "/>
<polyline clip-path="url(#clip450)" style="stroke:#000000; stroke-linecap:butt; stroke-linejoin:round; stroke-width:4; stroke-opacity:1; fill:none" points="
  279.85,1393.02 279.85,162.272 
  "/>
<polyline clip-path="url(#clip450)" style="stroke:#000000; stroke-linecap:butt; stroke-linejoin:round; stroke-width:4; stroke-opacity:1; fill:none" points="
  279.85,1358.19 298.748,1358.19 
  "/>
<polyline clip-path="url(#clip450)" style="stroke:#000000; stroke-linecap:butt; stroke-linejoin:round; stroke-width:4; stroke-opacity:1; fill:none" points="
  279.85,1067.92 298.748,1067.92 
  "/>
<polyline clip-path="url(#clip450)" style="stroke:#000000; stroke-linecap:butt; stroke-linejoin:round; stroke-width:4; stroke-opacity:1; fill:none" points="
  279.85,777.646 298.748,777.646 
  "/>
<polyline clip-path="url(#clip450)" style="stroke:#000000; stroke-linecap:butt; stroke-linejoin:round; stroke-width:4; stroke-opacity:1; fill:none" points="
  279.85,487.375 298.748,487.375 
  "/>
<polyline clip-path="url(#clip450)" style="stroke:#000000; stroke-linecap:butt; stroke-linejoin:round; stroke-width:4; stroke-opacity:1; fill:none" points="
  279.85,197.105 298.748,197.105 
  "/>
<path clip-path="url(#clip450)" d="M162.675 1343.99 Q159.064 1343.99 157.235 1347.55 Q155.429 1351.09 155.429 1358.22 Q155.429 1365.33 157.235 1368.89 Q159.064 1372.43 162.675 1372.43 Q166.309 1372.43 168.115 1368.89 Q169.943 1365.33 169.943 1358.22 Q169.943 1351.09 168.115 1347.55 Q166.309 1343.99 162.675 1343.99 M162.675 1340.28 Q168.485 1340.28 171.54 1344.89 Q174.619 1349.47 174.619 1358.22 Q174.619 1366.95 171.54 1371.56 Q168.485 1376.14 162.675 1376.14 Q156.865 1376.14 153.786 1371.56 Q150.73 1366.95 150.73 1358.22 Q150.73 1349.47 153.786 1344.89 Q156.865 1340.28 162.675 1340.28 Z" fill="#000000" fill-rule="evenodd" fill-opacity="1" /><path clip-path="url(#clip450)" d="M182.837 1369.59 L187.721 1369.59 L187.721 1375.47 L182.837 1375.47 L182.837 1369.59 Z" fill="#000000" fill-rule="evenodd" fill-opacity="1" /><path clip-path="url(#clip450)" d="M207.906 1343.99 Q204.295 1343.99 202.466 1347.55 Q200.661 1351.09 200.661 1358.22 Q200.661 1365.33 202.466 1368.89 Q204.295 1372.43 207.906 1372.43 Q211.54 1372.43 213.346 1368.89 Q215.174 1365.33 215.174 1358.22 Q215.174 1351.09 213.346 1347.55 Q211.54 1343.99 207.906 1343.99 M207.906 1340.28 Q213.716 1340.28 216.772 1344.89 Q219.85 1349.47 219.85 1358.22 Q219.85 1366.95 216.772 1371.56 Q213.716 1376.14 207.906 1376.14 Q202.096 1376.14 199.017 1371.56 Q195.962 1366.95 195.962 1358.22 Q195.962 1349.47 199.017 1344.89 Q202.096 1340.28 207.906 1340.28 Z" fill="#000000" fill-rule="evenodd" fill-opacity="1" /><path clip-path="url(#clip450)" d="M163.902 1053.72 Q160.291 1053.72 158.462 1057.28 Q156.656 1060.82 156.656 1067.95 Q156.656 1075.06 158.462 1078.62 Q160.291 1082.16 163.902 1082.16 Q167.536 1082.16 169.341 1078.62 Q171.17 1075.06 171.17 1067.95 Q171.17 1060.82 169.341 1057.28 Q167.536 1053.72 163.902 1053.72 M163.902 1050.01 Q169.712 1050.01 172.767 1054.62 Q175.846 1059.2 175.846 1067.95 Q175.846 1076.68 172.767 1081.28 Q169.712 1085.87 163.902 1085.87 Q158.091 1085.87 155.013 1081.28 Q151.957 1076.68 151.957 1067.95 Q151.957 1059.2 155.013 1054.62 Q158.091 1050.01 163.902 1050.01 Z" fill="#000000" fill-rule="evenodd" fill-opacity="1" /><path clip-path="url(#clip450)" d="M184.064 1079.32 L188.948 1079.32 L188.948 1085.2 L184.064 1085.2 L184.064 1079.32 Z" fill="#000000" fill-rule="evenodd" fill-opacity="1" /><path clip-path="url(#clip450)" d="M199.943 1081.26 L207.582 1081.26 L207.582 1054.9 L199.272 1056.56 L199.272 1052.3 L207.536 1050.64 L212.212 1050.64 L212.212 1081.26 L219.85 1081.26 L219.85 1085.2 L199.943 1085.2 L199.943 1081.26 Z" fill="#000000" fill-rule="evenodd" fill-opacity="1" /><path clip-path="url(#clip450)" d="M164.272 763.445 Q160.661 763.445 158.832 767.009 Q157.027 770.551 157.027 777.681 Q157.027 784.787 158.832 788.352 Q160.661 791.894 164.272 791.894 Q167.906 791.894 169.712 788.352 Q171.54 784.787 171.54 777.681 Q171.54 770.551 169.712 767.009 Q167.906 763.445 164.272 763.445 M164.272 759.741 Q170.082 759.741 173.138 764.347 Q176.216 768.931 176.216 777.681 Q176.216 786.408 173.138 791.014 Q170.082 795.597 164.272 795.597 Q158.462 795.597 155.383 791.014 Q152.328 786.408 152.328 777.681 Q152.328 768.931 155.383 764.347 Q158.462 759.741 164.272 759.741 Z" fill="#000000" fill-rule="evenodd" fill-opacity="1" /><path clip-path="url(#clip450)" d="M184.434 789.046 L189.318 789.046 L189.318 794.926 L184.434 794.926 L184.434 789.046 Z" fill="#000000" fill-rule="evenodd" fill-opacity="1" /><path clip-path="url(#clip450)" d="M203.531 790.991 L219.85 790.991 L219.85 794.926 L197.906 794.926 L197.906 790.991 Q200.568 788.236 205.151 783.607 Q209.758 778.954 210.938 777.611 Q213.184 775.088 214.063 773.352 Q214.966 771.593 214.966 769.903 Q214.966 767.148 213.022 765.412 Q211.1 763.676 207.999 763.676 Q205.8 763.676 203.346 764.44 Q200.915 765.204 198.138 766.755 L198.138 762.033 Q200.962 760.898 203.415 760.32 Q205.869 759.741 207.906 759.741 Q213.276 759.741 216.471 762.426 Q219.665 765.111 219.665 769.602 Q219.665 771.732 218.855 773.653 Q218.068 775.551 215.962 778.144 Q215.383 778.815 212.281 782.033 Q209.179 785.227 203.531 790.991 Z" fill="#000000" fill-rule="evenodd" fill-opacity="1" /><path clip-path="url(#clip450)" d="M163.323 473.174 Q159.712 473.174 157.883 476.739 Q156.078 480.28 156.078 487.41 Q156.078 494.517 157.883 498.081 Q159.712 501.623 163.323 501.623 Q166.957 501.623 168.763 498.081 Q170.591 494.517 170.591 487.41 Q170.591 480.28 168.763 476.739 Q166.957 473.174 163.323 473.174 M163.323 469.47 Q169.133 469.47 172.189 474.077 Q175.267 478.66 175.267 487.41 Q175.267 496.137 172.189 500.743 Q169.133 505.327 163.323 505.327 Q157.513 505.327 154.434 500.743 Q151.379 496.137 151.379 487.41 Q151.379 478.66 154.434 474.077 Q157.513 469.47 163.323 469.47 Z" fill="#000000" fill-rule="evenodd" fill-opacity="1" /><path clip-path="url(#clip450)" d="M183.485 498.776 L188.369 498.776 L188.369 504.655 L183.485 504.655 L183.485 498.776 Z" fill="#000000" fill-rule="evenodd" fill-opacity="1" /><path clip-path="url(#clip450)" d="M212.721 486.021 Q216.077 486.739 217.952 489.007 Q219.85 491.276 219.85 494.609 Q219.85 499.725 216.332 502.526 Q212.813 505.327 206.332 505.327 Q204.156 505.327 201.841 504.887 Q199.55 504.47 197.096 503.614 L197.096 499.1 Q199.04 500.234 201.355 500.813 Q203.67 501.391 206.193 501.391 Q210.591 501.391 212.883 499.655 Q215.198 497.919 215.198 494.609 Q215.198 491.554 213.045 489.841 Q210.915 488.105 207.096 488.105 L203.068 488.105 L203.068 484.262 L207.281 484.262 Q210.73 484.262 212.559 482.896 Q214.387 481.507 214.387 478.915 Q214.387 476.253 212.489 474.841 Q210.614 473.406 207.096 473.406 Q205.175 473.406 202.975 473.822 Q200.776 474.239 198.138 475.118 L198.138 470.952 Q200.8 470.211 203.114 469.841 Q205.452 469.47 207.512 469.47 Q212.837 469.47 215.938 471.901 Q219.04 474.308 219.04 478.429 Q219.04 481.299 217.397 483.29 Q215.753 485.257 212.721 486.021 Z" fill="#000000" fill-rule="evenodd" fill-opacity="1" /><path clip-path="url(#clip450)" d="M162.189 182.903 Q158.578 182.903 156.749 186.468 Q154.943 190.01 154.943 197.139 Q154.943 204.246 156.749 207.811 Q158.578 211.352 162.189 211.352 Q165.823 211.352 167.628 207.811 Q169.457 204.246 169.457 197.139 Q169.457 190.01 167.628 186.468 Q165.823 182.903 162.189 182.903 M162.189 179.2 Q167.999 179.2 171.054 183.806 Q174.133 188.389 174.133 197.139 Q174.133 205.866 171.054 210.473 Q167.999 215.056 162.189 215.056 Q156.379 215.056 153.3 210.473 Q150.244 205.866 150.244 197.139 Q150.244 188.389 153.3 183.806 Q156.379 179.2 162.189 179.2 Z" fill="#000000" fill-rule="evenodd" fill-opacity="1" /><path clip-path="url(#clip450)" d="M182.351 208.505 L187.235 208.505 L187.235 214.385 L182.351 214.385 L182.351 208.505 Z" fill="#000000" fill-rule="evenodd" fill-opacity="1" /><path clip-path="url(#clip450)" d="M210.267 183.899 L198.462 202.348 L210.267 202.348 L210.267 183.899 M209.04 179.825 L214.92 179.825 L214.92 202.348 L219.85 202.348 L219.85 206.237 L214.92 206.237 L214.92 214.385 L210.267 214.385 L210.267 206.237 L194.665 206.237 L194.665 201.723 L209.04 179.825 Z" fill="#000000" fill-rule="evenodd" fill-opacity="1" /><path clip-path="url(#clip450)" d="M40.3403 876.171 L40.3403 848.353 L45.6875 848.353 L71.3095 870.378 L71.3095 848.353 L75.9883 848.353 L75.9883 876.967 L70.6411 876.967 L45.0191 854.942 L45.0191 876.171 L40.3403 876.171 Z" fill="#000000" fill-rule="evenodd" fill-opacity="1" /><path clip-path="url(#clip450)" d="M26.5267 804.621 Q33.8473 808.886 41.0087 810.955 Q48.1701 813.023 55.5225 813.023 Q62.8749 813.023 70.1 810.955 Q77.2933 808.854 84.582 804.621 L84.582 809.713 Q77.1023 814.488 69.8772 816.875 Q62.6521 819.23 55.5225 819.23 Q48.4248 819.23 41.2315 816.875 Q34.0383 814.519 26.5267 809.713 L26.5267 804.621 Z" fill="#000000" fill-rule="evenodd" fill-opacity="1" /><path clip-path="url(#clip450)" d="M26.4631 793.481 L26.4631 787.592 L55.7135 787.592 L40.3403 770.119 L40.3403 762.639 L57.0185 781.545 L75.9883 761.843 L75.9883 769.482 L58.5781 787.592 L75.9883 787.592 L75.9883 793.481 L26.4631 793.481 Z" fill="#000000" fill-rule="evenodd" fill-opacity="1" /><path clip-path="url(#clip450)" d="M47.1835 727.755 Q43.2367 725.559 41.3588 722.503 Q39.481 719.448 39.481 715.31 Q39.481 709.74 43.3959 706.716 Q47.2789 703.692 54.4722 703.692 L75.9883 703.692 L75.9883 709.581 L54.6632 709.581 Q49.5388 709.581 47.0561 711.395 Q44.5735 713.209 44.5735 716.933 Q44.5735 721.485 47.5972 724.126 Q50.6209 726.768 55.8408 726.768 L75.9883 726.768 L75.9883 732.656 L54.6632 732.656 Q49.5069 732.656 47.0561 734.471 Q44.5735 736.285 44.5735 740.072 Q44.5735 744.56 47.6291 747.202 Q50.6528 749.844 55.8408 749.844 L75.9883 749.844 L75.9883 755.732 L40.3403 755.732 L40.3403 749.844 L45.8785 749.844 Q42.6002 747.839 41.0406 745.038 Q39.481 742.237 39.481 738.385 Q39.481 734.502 41.4543 731.797 Q43.4277 729.06 47.1835 727.755 Z" fill="#000000" fill-rule="evenodd" fill-opacity="1" /><path clip-path="url(#clip450)" d="M26.5267 692.934 L26.5267 687.842 Q34.0383 683.067 41.2315 680.712 Q48.4248 678.325 55.5225 678.325 Q62.6521 678.325 69.8772 680.712 Q77.1023 683.067 84.582 687.842 L84.582 692.934 Q77.2933 688.701 70.1 686.632 Q62.8749 684.532 55.5225 684.532 Q48.1701 684.532 41.0087 686.632 Q33.8473 688.701 26.5267 692.934 Z" fill="#000000" fill-rule="evenodd" fill-opacity="1" /><path clip-path="url(#clip450)" d="M1068.16 35.3077 Q1070.63 31.1758 1076.75 27.5299 Q1079.14 26.1121 1086.51 26.1121 Q1094.77 26.1121 1099.92 32.6746 Q1105.1 39.2371 1105.1 49.9314 Q1105.1 60.6258 1099.92 67.1883 Q1094.77 73.7508 1086.51 73.7508 Q1081.53 73.7508 1077.92 71.8063 Q1074.36 69.8214 1072.01 65.7705 L1072.01 89.8329 L1064.51 89.8329 L1064.51 50.3365 Q1064.51 40.9789 1068.16 35.3077 M1097.36 49.9314 Q1097.36 41.7081 1093.96 37.0496 Q1090.6 32.3505 1084.69 32.3505 Q1078.77 32.3505 1075.37 37.0496 Q1072.01 41.7081 1072.01 49.9314 Q1072.01 58.1548 1075.37 62.8538 Q1078.77 67.5124 1084.69 67.5124 Q1090.6 67.5124 1093.96 62.8538 Q1097.36 58.1548 1097.36 49.9314 Z" fill="#000000" fill-rule="evenodd" fill-opacity="1" /><polyline clip-path="url(#clip452)" style="stroke:#009af9; stroke-linecap:butt; stroke-linejoin:round; stroke-width:4; stroke-opacity:1; fill:none" points="
  1748.28,1285.62 1556.85,1140.48 1365.94,995.349 1175.57,850.214 985.721,705.078 796.402,559.943 607.611,414.808 419.348,269.672 
  "/>
<polyline clip-path="url(#clip452)" style="stroke:#e26f46; stroke-linecap:butt; stroke-linejoin:round; stroke-width:4; stroke-opacity:1; fill:none" points="
  1844.2,1358.19 1652.5,1213.05 1461.33,1067.92 1270.69,922.781 1080.58,777.646 890.995,632.511 701.941,487.375 513.414,342.24 325.414,197.105 
  "/>
<path clip-path="url(#clip450)" d="
M1484.93 358.817 L1836.1 358.817 L1836.1 203.297 L1484.93 203.297  Z
  " fill="#ffffff" fill-rule="evenodd" fill-opacity="1"/>
<polyline clip-path="url(#clip450)" style="stroke:#000000; stroke-linecap:butt; stroke-linejoin:round; stroke-width:4; stroke-opacity:1; fill:none" points="
  1484.93,358.817 1836.1,358.817 1836.1,203.297 1484.93,203.297 1484.93,358.817 
  "/>
<polyline clip-path="url(#clip450)" style="stroke:#009af9; stroke-linecap:butt; stroke-linejoin:round; stroke-width:4; stroke-opacity:1; fill:none" points="
  1502.82,255.137 1610.15,255.137 
  "/>
<path clip-path="url(#clip450)" d="M1648.54 247.487 L1648.54 251.468 Q1646.74 250.473 1644.91 249.987 Q1643.1 249.477 1641.25 249.477 Q1637.11 249.477 1634.82 252.116 Q1632.52 254.732 1632.52 259.477 Q1632.52 264.223 1634.82 266.862 Q1637.11 269.477 1641.25 269.477 Q1643.1 269.477 1644.91 268.991 Q1646.74 268.482 1648.54 267.487 L1648.54 271.422 Q1646.76 272.255 1644.84 272.672 Q1642.94 273.088 1640.79 273.088 Q1634.93 273.088 1631.48 269.408 Q1628.03 265.727 1628.03 259.477 Q1628.03 253.135 1631.51 249.501 Q1635 245.866 1641.07 245.866 Q1643.03 245.866 1644.91 246.283 Q1646.78 246.677 1648.54 247.487 Z" fill="#000000" fill-rule="evenodd" fill-opacity="1" /><path clip-path="url(#clip450)" d="M1678.13 258.389 L1678.13 260.473 L1658.54 260.473 Q1658.82 264.871 1661.18 267.186 Q1663.57 269.477 1667.8 269.477 Q1670.26 269.477 1672.55 268.876 Q1674.86 268.274 1677.13 267.07 L1677.13 271.098 Q1674.84 272.07 1672.43 272.579 Q1670.02 273.088 1667.55 273.088 Q1661.34 273.088 1657.71 269.477 Q1654.1 265.866 1654.1 259.709 Q1654.1 253.343 1657.52 249.616 Q1660.97 245.866 1666.81 245.866 Q1672.04 245.866 1675.07 249.246 Q1678.13 252.602 1678.13 258.389 M1673.87 257.139 Q1673.82 253.644 1671.9 251.561 Q1670 249.477 1666.85 249.477 Q1663.29 249.477 1661.14 251.491 Q1659.01 253.505 1658.68 257.163 L1673.87 257.139 Z" fill="#000000" fill-rule="evenodd" fill-opacity="1" /><path clip-path="url(#clip450)" d="M1706.67 256.769 L1706.67 272.417 L1702.41 272.417 L1702.41 256.908 Q1702.41 253.227 1700.97 251.399 Q1699.54 249.57 1696.67 249.57 Q1693.22 249.57 1691.23 251.769 Q1689.24 253.968 1689.24 257.764 L1689.24 272.417 L1684.95 272.417 L1684.95 246.491 L1689.24 246.491 L1689.24 250.519 Q1690.76 248.181 1692.82 247.024 Q1694.91 245.866 1697.62 245.866 Q1702.08 245.866 1704.38 248.644 Q1706.67 251.399 1706.67 256.769 Z" fill="#000000" fill-rule="evenodd" fill-opacity="1" /><path clip-path="url(#clip450)" d="M1719.38 239.13 L1719.38 246.491 L1728.15 246.491 L1728.15 249.802 L1719.38 249.802 L1719.38 263.876 Q1719.38 267.047 1720.23 267.95 Q1721.11 268.852 1723.77 268.852 L1728.15 268.852 L1728.15 272.417 L1723.77 272.417 Q1718.84 272.417 1716.97 270.588 Q1715.09 268.737 1715.09 263.876 L1715.09 249.802 L1711.97 249.802 L1711.97 246.491 L1715.09 246.491 L1715.09 239.13 L1719.38 239.13 Z" fill="#000000" fill-rule="evenodd" fill-opacity="1" /><path clip-path="url(#clip450)" d="M1755.93 258.389 L1755.93 260.473 L1736.34 260.473 Q1736.62 264.871 1738.98 267.186 Q1741.37 269.477 1745.6 269.477 Q1748.06 269.477 1750.35 268.876 Q1752.66 268.274 1754.93 267.07 L1754.93 271.098 Q1752.64 272.07 1750.23 272.579 Q1747.82 273.088 1745.35 273.088 Q1739.14 273.088 1735.51 269.477 Q1731.9 265.866 1731.9 259.709 Q1731.9 253.343 1735.32 249.616 Q1738.77 245.866 1744.61 245.866 Q1749.84 245.866 1752.87 249.246 Q1755.93 252.602 1755.93 258.389 M1751.67 257.139 Q1751.62 253.644 1749.7 251.561 Q1747.8 249.477 1744.65 249.477 Q1741.09 249.477 1738.94 251.491 Q1736.81 253.505 1736.48 257.163 L1751.67 257.139 Z" fill="#000000" fill-rule="evenodd" fill-opacity="1" /><path clip-path="url(#clip450)" d="M1777.94 250.473 Q1777.22 250.056 1776.37 249.871 Q1775.53 249.663 1774.51 249.663 Q1770.9 249.663 1768.96 252.024 Q1767.04 254.362 1767.04 258.76 L1767.04 272.417 L1762.75 272.417 L1762.75 246.491 L1767.04 246.491 L1767.04 250.519 Q1768.38 248.158 1770.53 247.024 Q1772.69 245.866 1775.76 245.866 Q1776.2 245.866 1776.74 245.936 Q1777.27 245.982 1777.92 246.098 L1777.94 250.473 Z" fill="#000000" fill-rule="evenodd" fill-opacity="1" /><path clip-path="url(#clip450)" d="M1798.94 247.255 L1798.94 251.283 Q1797.13 250.357 1795.19 249.894 Q1793.24 249.431 1791.16 249.431 Q1787.99 249.431 1786.39 250.403 Q1784.81 251.376 1784.81 253.32 Q1784.81 254.802 1785.95 255.658 Q1787.08 256.491 1790.51 257.255 L1791.97 257.579 Q1796.5 258.552 1798.4 260.334 Q1800.32 262.093 1800.32 265.264 Q1800.32 268.876 1797.45 270.982 Q1794.61 273.088 1789.61 273.088 Q1787.52 273.088 1785.25 272.672 Q1783.01 272.278 1780.51 271.468 L1780.51 267.07 Q1782.87 268.297 1785.16 268.922 Q1787.45 269.524 1789.7 269.524 Q1792.71 269.524 1794.33 268.505 Q1795.95 267.463 1795.95 265.589 Q1795.95 263.852 1794.77 262.926 Q1793.61 262.001 1789.65 261.144 L1788.17 260.797 Q1784.21 259.964 1782.45 258.251 Q1780.69 256.514 1780.69 253.505 Q1780.69 249.848 1783.29 247.857 Q1785.88 245.866 1790.65 245.866 Q1793.01 245.866 1795.09 246.214 Q1797.18 246.561 1798.94 247.255 Z" fill="#000000" fill-rule="evenodd" fill-opacity="1" /><polyline clip-path="url(#clip450)" style="stroke:#e26f46; stroke-linecap:butt; stroke-linejoin:round; stroke-width:4; stroke-opacity:1; fill:none" points="
  1502.82,306.977 1610.15,306.977 
  "/>
<path clip-path="url(#clip450)" d="M1644.54 288.239 L1644.54 291.78 L1640.46 291.78 Q1638.17 291.78 1637.27 292.706 Q1636.39 293.632 1636.39 296.04 L1636.39 298.331 L1643.4 298.331 L1643.4 301.642 L1636.39 301.642 L1636.39 324.257 L1632.11 324.257 L1632.11 301.642 L1628.03 301.642 L1628.03 298.331 L1632.11 298.331 L1632.11 296.526 Q1632.11 292.197 1634.12 290.23 Q1636.14 288.239 1640.51 288.239 L1644.54 288.239 Z" fill="#000000" fill-rule="evenodd" fill-opacity="1" /><path clip-path="url(#clip450)" d="M1659.89 311.225 Q1654.72 311.225 1652.73 312.405 Q1650.74 313.586 1650.74 316.433 Q1650.74 318.702 1652.22 320.044 Q1653.73 321.364 1656.3 321.364 Q1659.84 321.364 1661.97 318.864 Q1664.12 316.341 1664.12 312.174 L1664.12 311.225 L1659.89 311.225 M1668.38 309.466 L1668.38 324.257 L1664.12 324.257 L1664.12 320.322 Q1662.66 322.683 1660.49 323.817 Q1658.31 324.928 1655.16 324.928 Q1651.18 324.928 1648.82 322.706 Q1646.48 320.461 1646.48 316.711 Q1646.48 312.336 1649.4 310.114 Q1652.34 307.892 1658.15 307.892 L1664.12 307.892 L1664.12 307.475 Q1664.12 304.535 1662.18 302.938 Q1660.26 301.317 1656.76 301.317 Q1654.54 301.317 1652.43 301.85 Q1650.32 302.382 1648.38 303.447 L1648.38 299.512 Q1650.72 298.609 1652.92 298.169 Q1655.12 297.706 1657.2 297.706 Q1662.82 297.706 1665.6 300.623 Q1668.38 303.54 1668.38 309.466 Z" fill="#000000" fill-rule="evenodd" fill-opacity="1" /><path clip-path="url(#clip450)" d="M1695.81 299.327 L1695.81 303.308 Q1694.01 302.313 1692.18 301.827 Q1690.37 301.317 1688.52 301.317 Q1684.38 301.317 1682.08 303.956 Q1679.79 306.572 1679.79 311.317 Q1679.79 316.063 1682.08 318.702 Q1684.38 321.317 1688.52 321.317 Q1690.37 321.317 1692.18 320.831 Q1694.01 320.322 1695.81 319.327 L1695.81 323.262 Q1694.03 324.095 1692.11 324.512 Q1690.21 324.928 1688.06 324.928 Q1682.2 324.928 1678.75 321.248 Q1675.3 317.567 1675.3 311.317 Q1675.3 304.975 1678.77 301.341 Q1682.27 297.706 1688.33 297.706 Q1690.3 297.706 1692.18 298.123 Q1694.05 298.517 1695.81 299.327 Z" fill="#000000" fill-rule="evenodd" fill-opacity="1" /><path clip-path="url(#clip450)" d="M1725.39 310.229 L1725.39 312.313 L1705.81 312.313 Q1706.09 316.711 1708.45 319.026 Q1710.83 321.317 1715.07 321.317 Q1717.52 321.317 1719.82 320.716 Q1722.13 320.114 1724.4 318.91 L1724.4 322.938 Q1722.11 323.91 1719.7 324.419 Q1717.29 324.928 1714.82 324.928 Q1708.61 324.928 1704.98 321.317 Q1701.37 317.706 1701.37 311.549 Q1701.37 305.183 1704.79 301.456 Q1708.24 297.706 1714.07 297.706 Q1719.31 297.706 1722.34 301.086 Q1725.39 304.442 1725.39 310.229 M1721.13 308.979 Q1721.09 305.484 1719.17 303.401 Q1717.27 301.317 1714.12 301.317 Q1710.56 301.317 1708.4 303.331 Q1706.27 305.345 1705.95 309.003 L1721.13 308.979 Z" fill="#000000" fill-rule="evenodd" fill-opacity="1" /><path clip-path="url(#clip450)" d="M1748.91 299.095 L1748.91 303.123 Q1747.11 302.197 1745.16 301.734 Q1743.22 301.271 1741.13 301.271 Q1737.96 301.271 1736.37 302.243 Q1734.79 303.216 1734.79 305.16 Q1734.79 306.642 1735.93 307.498 Q1737.06 308.331 1740.49 309.095 L1741.94 309.419 Q1746.48 310.392 1748.38 312.174 Q1750.3 313.933 1750.3 317.104 Q1750.3 320.716 1747.43 322.822 Q1744.58 324.928 1739.58 324.928 Q1737.5 324.928 1735.23 324.512 Q1732.99 324.118 1730.49 323.308 L1730.49 318.91 Q1732.85 320.137 1735.14 320.762 Q1737.43 321.364 1739.68 321.364 Q1742.69 321.364 1744.31 320.345 Q1745.93 319.303 1745.93 317.429 Q1745.93 315.692 1744.75 314.766 Q1743.59 313.841 1739.63 312.984 L1738.15 312.637 Q1734.19 311.804 1732.43 310.091 Q1730.67 308.354 1730.67 305.345 Q1730.67 301.688 1733.26 299.697 Q1735.86 297.706 1740.63 297.706 Q1742.99 297.706 1745.07 298.054 Q1747.15 298.401 1748.91 299.095 Z" fill="#000000" fill-rule="evenodd" fill-opacity="1" /><path clip-path="url(#clip450)" d="
M2279.85 1393.02 L3889.76 1393.02 L3889.76 162.272 L2279.85 162.272  Z
  " fill="#ffffff" fill-rule="evenodd" fill-opacity="1"/>
<defs>
  <clipPath id="clip453">
    <rect x="2279" y="162" width="1611" height="1232"/>
  </clipPath>
</defs>
<polyline clip-path="url(#clip453)" style="stroke:#000000; stroke-linecap:butt; stroke-linejoin:round; stroke-width:2; stroke-opacity:0.1; fill:none" points="
  2344.91,1393.02 2344.91,162.272 
  "/>
<polyline clip-path="url(#clip453)" style="stroke:#000000; stroke-linecap:butt; stroke-linejoin:round; stroke-width:2; stroke-opacity:0.1; fill:none" points="
  2644.77,1393.02 2644.77,162.272 
  "/>
<polyline clip-path="url(#clip453)" style="stroke:#000000; stroke-linecap:butt; stroke-linejoin:round; stroke-width:2; stroke-opacity:0.1; fill:none" points="
  2944.63,1393.02 2944.63,162.272 
  "/>
<polyline clip-path="url(#clip453)" style="stroke:#000000; stroke-linecap:butt; stroke-linejoin:round; stroke-width:2; stroke-opacity:0.1; fill:none" points="
  3244.48,1393.02 3244.48,162.272 
  "/>
<polyline clip-path="url(#clip453)" style="stroke:#000000; stroke-linecap:butt; stroke-linejoin:round; stroke-width:2; stroke-opacity:0.1; fill:none" points="
  3544.34,1393.02 3544.34,162.272 
  "/>
<polyline clip-path="url(#clip453)" style="stroke:#000000; stroke-linecap:butt; stroke-linejoin:round; stroke-width:2; stroke-opacity:0.1; fill:none" points="
  3844.2,1393.02 3844.2,162.272 
  "/>
<polyline clip-path="url(#clip450)" style="stroke:#000000; stroke-linecap:butt; stroke-linejoin:round; stroke-width:4; stroke-opacity:1; fill:none" points="
  2279.85,1393.02 3889.76,1393.02 
  "/>
<polyline clip-path="url(#clip450)" style="stroke:#000000; stroke-linecap:butt; stroke-linejoin:round; stroke-width:4; stroke-opacity:1; fill:none" points="
  2344.91,1393.02 2344.91,1374.12 
  "/>
<polyline clip-path="url(#clip450)" style="stroke:#000000; stroke-linecap:butt; stroke-linejoin:round; stroke-width:4; stroke-opacity:1; fill:none" points="
  2644.77,1393.02 2644.77,1374.12 
  "/>
<polyline clip-path="url(#clip450)" style="stroke:#000000; stroke-linecap:butt; stroke-linejoin:round; stroke-width:4; stroke-opacity:1; fill:none" points="
  2944.63,1393.02 2944.63,1374.12 
  "/>
<polyline clip-path="url(#clip450)" style="stroke:#000000; stroke-linecap:butt; stroke-linejoin:round; stroke-width:4; stroke-opacity:1; fill:none" points="
  3244.48,1393.02 3244.48,1374.12 
  "/>
<polyline clip-path="url(#clip450)" style="stroke:#000000; stroke-linecap:butt; stroke-linejoin:round; stroke-width:4; stroke-opacity:1; fill:none" points="
  3544.34,1393.02 3544.34,1374.12 
  "/>
<polyline clip-path="url(#clip450)" style="stroke:#000000; stroke-linecap:butt; stroke-linejoin:round; stroke-width:4; stroke-opacity:1; fill:none" points="
  3844.2,1393.02 3844.2,1374.12 
  "/>
<path clip-path="url(#clip450)" d="M2320.53 1467.5 L2320.53 1463.24 Q2322.29 1464.08 2324.1 1464.52 Q2325.9 1464.96 2327.64 1464.96 Q2332.27 1464.96 2334.7 1461.85 Q2337.15 1458.73 2337.5 1452.39 Q2336.16 1454.38 2334.1 1455.44 Q2332.04 1456.51 2329.54 1456.51 Q2324.35 1456.51 2321.32 1453.38 Q2318.31 1450.23 2318.31 1444.79 Q2318.31 1439.47 2321.46 1436.25 Q2324.61 1433.03 2329.84 1433.03 Q2335.83 1433.03 2338.98 1437.64 Q2342.15 1442.22 2342.15 1450.97 Q2342.15 1459.15 2338.26 1464.03 Q2334.4 1468.89 2327.85 1468.89 Q2326.09 1468.89 2324.28 1468.54 Q2322.48 1468.2 2320.53 1467.5 M2329.84 1452.85 Q2332.99 1452.85 2334.82 1450.7 Q2336.67 1448.54 2336.67 1444.79 Q2336.67 1441.07 2334.82 1438.91 Q2332.99 1436.74 2329.84 1436.74 Q2326.69 1436.74 2324.84 1438.91 Q2323.01 1441.07 2323.01 1444.79 Q2323.01 1448.54 2324.84 1450.7 Q2326.69 1452.85 2329.84 1452.85 Z" fill="#000000" fill-rule="evenodd" fill-opacity="1" /><path clip-path="url(#clip450)" d="M2350.6 1433.66 L2368.96 1433.66 L2368.96 1437.59 L2354.89 1437.59 L2354.89 1446.07 Q2355.9 1445.72 2356.92 1445.56 Q2357.94 1445.37 2358.96 1445.37 Q2364.75 1445.37 2368.13 1448.54 Q2371.51 1451.72 2371.51 1457.13 Q2371.51 1462.71 2368.03 1465.81 Q2364.56 1468.89 2358.24 1468.89 Q2356.07 1468.89 2353.8 1468.52 Q2351.55 1468.15 2349.14 1467.41 L2349.14 1462.71 Q2351.23 1463.84 2353.45 1464.4 Q2355.67 1464.96 2358.15 1464.96 Q2362.15 1464.96 2364.49 1462.85 Q2366.83 1460.74 2366.83 1457.13 Q2366.83 1453.52 2364.49 1451.41 Q2362.15 1449.31 2358.15 1449.31 Q2356.27 1449.31 2354.4 1449.72 Q2352.55 1450.14 2350.6 1451.02 L2350.6 1433.66 Z" fill="#000000" fill-rule="evenodd" fill-opacity="1" /><path clip-path="url(#clip450)" d="M2619.81 1467.5 L2619.81 1463.24 Q2621.57 1464.08 2623.38 1464.52 Q2625.18 1464.96 2626.92 1464.96 Q2631.55 1464.96 2633.98 1461.85 Q2636.43 1458.73 2636.78 1452.39 Q2635.44 1454.38 2633.38 1455.44 Q2631.32 1456.51 2628.82 1456.51 Q2623.63 1456.51 2620.6 1453.38 Q2617.59 1450.23 2617.59 1444.79 Q2617.59 1439.47 2620.74 1436.25 Q2623.89 1433.03 2629.12 1433.03 Q2635.11 1433.03 2638.26 1437.64 Q2641.43 1442.22 2641.43 1450.97 Q2641.43 1459.15 2637.54 1464.03 Q2633.68 1468.89 2627.13 1468.89 Q2625.37 1468.89 2623.56 1468.54 Q2621.76 1468.2 2619.81 1467.5 M2629.12 1452.85 Q2632.27 1452.85 2634.1 1450.7 Q2635.95 1448.54 2635.95 1444.79 Q2635.95 1441.07 2634.1 1438.91 Q2632.27 1436.74 2629.12 1436.74 Q2625.97 1436.74 2624.12 1438.91 Q2622.29 1441.07 2622.29 1444.79 Q2622.29 1448.54 2624.12 1450.7 Q2625.97 1452.85 2629.12 1452.85 Z" fill="#000000" fill-rule="evenodd" fill-opacity="1" /><path clip-path="url(#clip450)" d="M2660.41 1449.08 Q2657.27 1449.08 2655.41 1451.23 Q2653.59 1453.38 2653.59 1457.13 Q2653.59 1460.86 2655.41 1463.03 Q2657.27 1465.19 2660.41 1465.19 Q2663.56 1465.19 2665.39 1463.03 Q2667.24 1460.86 2667.24 1457.13 Q2667.24 1453.38 2665.39 1451.23 Q2663.56 1449.08 2660.41 1449.08 M2669.7 1434.42 L2669.7 1438.68 Q2667.94 1437.85 2666.13 1437.41 Q2664.35 1436.97 2662.59 1436.97 Q2657.96 1436.97 2655.51 1440.09 Q2653.08 1443.22 2652.73 1449.54 Q2654.1 1447.53 2656.16 1446.46 Q2658.22 1445.37 2660.69 1445.37 Q2665.9 1445.37 2668.91 1448.54 Q2671.94 1451.69 2671.94 1457.13 Q2671.94 1462.46 2668.79 1465.67 Q2665.65 1468.89 2660.41 1468.89 Q2654.42 1468.89 2651.25 1464.31 Q2648.08 1459.7 2648.08 1450.97 Q2648.08 1442.78 2651.97 1437.92 Q2655.85 1433.03 2662.41 1433.03 Q2664.16 1433.03 2665.95 1433.38 Q2667.75 1433.73 2669.7 1434.42 Z" fill="#000000" fill-rule="evenodd" fill-opacity="1" /><path clip-path="url(#clip450)" d="M2920.2 1467.5 L2920.2 1463.24 Q2921.96 1464.08 2923.77 1464.52 Q2925.57 1464.96 2927.31 1464.96 Q2931.94 1464.96 2934.37 1461.85 Q2936.82 1458.73 2937.17 1452.39 Q2935.83 1454.38 2933.77 1455.44 Q2931.71 1456.51 2929.21 1456.51 Q2924.02 1456.51 2920.99 1453.38 Q2917.98 1450.23 2917.98 1444.79 Q2917.98 1439.47 2921.13 1436.25 Q2924.28 1433.03 2929.51 1433.03 Q2935.5 1433.03 2938.65 1437.64 Q2941.82 1442.22 2941.82 1450.97 Q2941.82 1459.15 2937.94 1464.03 Q2934.07 1468.89 2927.52 1468.89 Q2925.76 1468.89 2923.95 1468.54 Q2922.15 1468.2 2920.2 1467.5 M2929.51 1452.85 Q2932.66 1452.85 2934.49 1450.7 Q2936.34 1448.54 2936.34 1444.79 Q2936.34 1441.07 2934.49 1438.91 Q2932.66 1436.74 2929.51 1436.74 Q2926.36 1436.74 2924.51 1438.91 Q2922.68 1441.07 2922.68 1444.79 Q2922.68 1448.54 2924.51 1450.7 Q2926.36 1452.85 2929.51 1452.85 Z" fill="#000000" fill-rule="evenodd" fill-opacity="1" /><path clip-path="url(#clip450)" d="M2949.05 1433.66 L2971.27 1433.66 L2971.27 1435.65 L2958.72 1468.22 L2953.84 1468.22 L2965.64 1437.59 L2949.05 1437.59 L2949.05 1433.66 Z" fill="#000000" fill-rule="evenodd" fill-opacity="1" /><path clip-path="url(#clip450)" d="M3219.66 1467.5 L3219.66 1463.24 Q3221.42 1464.08 3223.22 1464.52 Q3225.03 1464.96 3226.76 1464.96 Q3231.39 1464.96 3233.82 1461.85 Q3236.28 1458.73 3236.62 1452.39 Q3235.28 1454.38 3233.22 1455.44 Q3231.16 1456.51 3228.66 1456.51 Q3223.48 1456.51 3220.44 1453.38 Q3217.43 1450.23 3217.43 1444.79 Q3217.43 1439.47 3220.58 1436.25 Q3223.73 1433.03 3228.96 1433.03 Q3234.96 1433.03 3238.11 1437.64 Q3241.28 1442.22 3241.28 1450.97 Q3241.28 1459.15 3237.39 1464.03 Q3233.52 1468.89 3226.97 1468.89 Q3225.21 1468.89 3223.41 1468.54 Q3221.6 1468.2 3219.66 1467.5 M3228.96 1452.85 Q3232.11 1452.85 3233.94 1450.7 Q3235.79 1448.54 3235.79 1444.79 Q3235.79 1441.07 3233.94 1438.91 Q3232.11 1436.74 3228.96 1436.74 Q3225.81 1436.74 3223.96 1438.91 Q3222.13 1441.07 3222.13 1444.79 Q3222.13 1448.54 3223.96 1450.7 Q3225.81 1452.85 3228.96 1452.85 Z" fill="#000000" fill-rule="evenodd" fill-opacity="1" /><path clip-path="url(#clip450)" d="M3259.68 1451.81 Q3256.35 1451.81 3254.43 1453.59 Q3252.53 1455.37 3252.53 1458.5 Q3252.53 1461.62 3254.43 1463.4 Q3256.35 1465.19 3259.68 1465.19 Q3263.01 1465.19 3264.93 1463.4 Q3266.86 1461.6 3266.86 1458.5 Q3266.86 1455.37 3264.93 1453.59 Q3263.04 1451.81 3259.68 1451.81 M3255 1449.82 Q3251.99 1449.08 3250.31 1447.02 Q3248.64 1444.96 3248.64 1441.99 Q3248.64 1437.85 3251.58 1435.44 Q3254.54 1433.03 3259.68 1433.03 Q3264.84 1433.03 3267.78 1435.44 Q3270.72 1437.85 3270.72 1441.99 Q3270.72 1444.96 3269.03 1447.02 Q3267.37 1449.08 3264.38 1449.82 Q3267.76 1450.6 3269.63 1452.9 Q3271.53 1455.19 3271.53 1458.5 Q3271.53 1463.52 3268.45 1466.21 Q3265.4 1468.89 3259.68 1468.89 Q3253.96 1468.89 3250.88 1466.21 Q3247.83 1463.52 3247.83 1458.5 Q3247.83 1455.19 3249.73 1452.9 Q3251.62 1450.6 3255 1449.82 M3253.29 1442.43 Q3253.29 1445.12 3254.96 1446.62 Q3256.65 1448.13 3259.68 1448.13 Q3262.69 1448.13 3264.38 1446.62 Q3266.09 1445.12 3266.09 1442.43 Q3266.09 1439.75 3264.38 1438.24 Q3262.69 1436.74 3259.68 1436.74 Q3256.65 1436.74 3254.96 1438.24 Q3253.29 1439.75 3253.29 1442.43 Z" fill="#000000" fill-rule="evenodd" fill-opacity="1" /><path clip-path="url(#clip450)" d="M3519.56 1467.5 L3519.56 1463.24 Q3521.32 1464.08 3523.13 1464.52 Q3524.93 1464.96 3526.67 1464.96 Q3531.3 1464.96 3533.73 1461.85 Q3536.18 1458.73 3536.53 1452.39 Q3535.19 1454.38 3533.13 1455.44 Q3531.07 1456.51 3528.57 1456.51 Q3523.38 1456.51 3520.35 1453.38 Q3517.34 1450.23 3517.34 1444.79 Q3517.34 1439.47 3520.49 1436.25 Q3523.64 1433.03 3528.87 1433.03 Q3534.86 1433.03 3538.01 1437.64 Q3541.18 1442.22 3541.18 1450.97 Q3541.18 1459.15 3537.29 1464.03 Q3533.43 1468.89 3526.88 1468.89 Q3525.12 1468.89 3523.31 1468.54 Q3521.51 1468.2 3519.56 1467.5 M3528.87 1452.85 Q3532.02 1452.85 3533.84 1450.7 Q3535.7 1448.54 3535.7 1444.79 Q3535.7 1441.07 3533.84 1438.91 Q3532.02 1436.74 3528.87 1436.74 Q3525.72 1436.74 3523.87 1438.91 Q3522.04 1441.07 3522.04 1444.79 Q3522.04 1448.54 3523.87 1450.7 Q3525.72 1452.85 3528.87 1452.85 Z" fill="#000000" fill-rule="evenodd" fill-opacity="1" /><path clip-path="url(#clip450)" d="M3549.72 1467.5 L3549.72 1463.24 Q3551.48 1464.08 3553.29 1464.52 Q3555.09 1464.96 3556.83 1464.96 Q3561.46 1464.96 3563.89 1461.85 Q3566.34 1458.73 3566.69 1452.39 Q3565.35 1454.38 3563.29 1455.44 Q3561.23 1456.51 3558.73 1456.51 Q3553.54 1456.51 3550.51 1453.38 Q3547.5 1450.23 3547.5 1444.79 Q3547.5 1439.47 3550.65 1436.25 Q3553.8 1433.03 3559.03 1433.03 Q3565.02 1433.03 3568.17 1437.64 Q3571.34 1442.22 3571.34 1450.97 Q3571.34 1459.15 3567.46 1464.03 Q3563.59 1468.89 3557.04 1468.89 Q3555.28 1468.89 3553.47 1468.54 Q3551.67 1468.2 3549.72 1467.5 M3559.03 1452.85 Q3562.18 1452.85 3564.01 1450.7 Q3565.86 1448.54 3565.86 1444.79 Q3565.86 1441.07 3564.01 1438.91 Q3562.18 1436.74 3559.03 1436.74 Q3555.88 1436.74 3554.03 1438.91 Q3552.2 1441.07 3552.2 1444.79 Q3552.2 1448.54 3554.03 1450.7 Q3555.88 1452.85 3559.03 1452.85 Z" fill="#000000" fill-rule="evenodd" fill-opacity="1" /><path clip-path="url(#clip450)" d="M3803.81 1464.28 L3811.45 1464.28 L3811.45 1437.92 L3803.14 1439.59 L3803.14 1435.33 L3811.4 1433.66 L3816.08 1433.66 L3816.08 1464.28 L3823.71 1464.28 L3823.71 1468.22 L3803.81 1468.22 L3803.81 1464.28 Z" fill="#000000" fill-rule="evenodd" fill-opacity="1" /><path clip-path="url(#clip450)" d="M3843.16 1436.74 Q3839.55 1436.74 3837.72 1440.3 Q3835.91 1443.84 3835.91 1450.97 Q3835.91 1458.08 3837.72 1461.65 Q3839.55 1465.19 3843.16 1465.19 Q3846.79 1465.19 3848.6 1461.65 Q3850.43 1458.08 3850.43 1450.97 Q3850.43 1443.84 3848.6 1440.3 Q3846.79 1436.74 3843.16 1436.74 M3843.16 1433.03 Q3848.97 1433.03 3852.02 1437.64 Q3855.1 1442.22 3855.1 1450.97 Q3855.1 1459.7 3852.02 1464.31 Q3848.97 1468.89 3843.16 1468.89 Q3837.35 1468.89 3834.27 1464.31 Q3831.21 1459.7 3831.21 1450.97 Q3831.21 1442.22 3834.27 1437.64 Q3837.35 1433.03 3843.16 1433.03 Z" fill="#000000" fill-rule="evenodd" fill-opacity="1" /><path clip-path="url(#clip450)" d="M3873.32 1436.74 Q3869.71 1436.74 3867.88 1440.3 Q3866.08 1443.84 3866.08 1450.97 Q3866.08 1458.08 3867.88 1461.65 Q3869.71 1465.19 3873.32 1465.19 Q3876.95 1465.19 3878.76 1461.65 Q3880.59 1458.08 3880.59 1450.97 Q3880.59 1443.84 3878.76 1440.3 Q3876.95 1436.74 3873.32 1436.74 M3873.32 1433.03 Q3879.13 1433.03 3882.19 1437.64 Q3885.26 1442.22 3885.26 1450.97 Q3885.26 1459.7 3882.19 1464.31 Q3879.13 1468.89 3873.32 1468.89 Q3867.51 1468.89 3864.43 1464.31 Q3861.38 1459.7 3861.38 1450.97 Q3861.38 1442.22 3864.43 1437.64 Q3867.51 1433.03 3873.32 1433.03 Z" fill="#000000" fill-rule="evenodd" fill-opacity="1" /><path clip-path="url(#clip450)" d="M2982.94 1556.54 L2982.94 1575.44 L2977.05 1575.44 L2977.05 1526.24 L2982.94 1526.24 L2982.94 1531.65 Q2984.79 1528.46 2987.59 1526.94 Q2990.42 1525.38 2994.33 1525.38 Q3000.83 1525.38 3004.87 1530.53 Q3008.94 1535.69 3008.94 1544.09 Q3008.94 1552.49 3004.87 1557.65 Q3000.83 1562.81 2994.33 1562.81 Q2990.42 1562.81 2987.59 1561.28 Q2984.79 1559.72 2982.94 1556.54 M3002.86 1544.09 Q3002.86 1537.63 3000.19 1533.97 Q2997.55 1530.28 2992.9 1530.28 Q2988.26 1530.28 2985.58 1533.97 Q2982.94 1537.63 2982.94 1544.09 Q2982.94 1550.55 2985.58 1554.24 Q2988.26 1557.91 2992.9 1557.91 Q2997.55 1557.91 3000.19 1554.24 Q3002.86 1550.55 3002.86 1544.09 Z" fill="#000000" fill-rule="evenodd" fill-opacity="1" /><path clip-path="url(#clip450)" d="M3053.44 1512.42 Q3049.18 1519.74 3047.11 1526.9 Q3045.04 1534.07 3045.04 1541.42 Q3045.04 1548.77 3047.11 1556 Q3049.21 1563.19 3053.44 1570.48 L3048.35 1570.48 Q3043.57 1563 3041.19 1555.77 Q3038.83 1548.55 3038.83 1541.42 Q3038.83 1534.32 3041.19 1527.13 Q3043.54 1519.93 3048.35 1512.42 L3053.44 1512.42 Z" fill="#000000" fill-rule="evenodd" fill-opacity="1" /><path clip-path="url(#clip450)" d="M3064.58 1512.36 L3070.47 1512.36 L3070.47 1541.61 L3087.94 1526.24 L3095.42 1526.24 L3076.52 1542.91 L3096.22 1561.88 L3088.58 1561.88 L3070.47 1544.47 L3070.47 1561.88 L3064.58 1561.88 L3064.58 1512.36 Z" fill="#000000" fill-rule="evenodd" fill-opacity="1" /><path clip-path="url(#clip450)" d="M3109.24 1519.65 L3109.24 1537.5 L3117.32 1537.5 Q3121.81 1537.5 3124.26 1535.18 Q3126.71 1532.86 3126.71 1528.56 Q3126.71 1524.29 3124.26 1521.97 Q3121.81 1519.65 3117.32 1519.65 L3109.24 1519.65 M3102.81 1514.36 L3117.32 1514.36 Q3125.31 1514.36 3129.38 1517.99 Q3133.49 1521.59 3133.49 1528.56 Q3133.49 1535.59 3129.38 1539.19 Q3125.31 1542.79 3117.32 1542.79 L3109.24 1542.79 L3109.24 1561.88 L3102.81 1561.88 L3102.81 1514.36 Z" fill="#000000" fill-rule="evenodd" fill-opacity="1" /><path clip-path="url(#clip450)" d="M3155.13 1543.96 Q3148.03 1543.96 3145.3 1545.59 Q3142.56 1547.21 3142.56 1551.13 Q3142.56 1554.24 3144.6 1556.09 Q3146.67 1557.91 3150.2 1557.91 Q3155.07 1557.91 3158 1554.47 Q3160.96 1551 3160.96 1545.27 L3160.96 1543.96 L3155.13 1543.96 M3166.81 1541.55 L3166.81 1561.88 L3160.96 1561.88 L3160.96 1556.47 Q3158.95 1559.72 3155.96 1561.28 Q3152.97 1562.81 3148.64 1562.81 Q3143.16 1562.81 3139.92 1559.75 Q3136.7 1556.66 3136.7 1551.51 Q3136.7 1545.49 3140.71 1542.44 Q3144.76 1539.38 3152.75 1539.38 L3160.96 1539.38 L3160.96 1538.81 Q3160.96 1534.77 3158.28 1532.57 Q3155.64 1530.34 3150.84 1530.34 Q3147.78 1530.34 3144.88 1531.07 Q3141.99 1531.81 3139.31 1533.27 L3139.31 1527.86 Q3142.53 1526.62 3145.55 1526.01 Q3148.58 1525.38 3151.44 1525.38 Q3159.17 1525.38 3162.99 1529.39 Q3166.81 1533.4 3166.81 1541.55 Z" fill="#000000" fill-rule="evenodd" fill-opacity="1" /><path clip-path="url(#clip450)" d="M3177.95 1512.42 L3183.05 1512.42 Q3187.82 1519.93 3190.18 1527.13 Q3192.56 1534.32 3192.56 1541.42 Q3192.56 1548.55 3190.18 1555.77 Q3187.82 1563 3183.05 1570.48 L3177.95 1570.48 Q3182.19 1563.19 3184.26 1556 Q3186.36 1548.77 3186.36 1541.42 Q3186.36 1534.07 3184.26 1526.9 Q3182.19 1519.74 3177.95 1512.42 Z" fill="#000000" fill-rule="evenodd" fill-opacity="1" /><polyline clip-path="url(#clip453)" style="stroke:#000000; stroke-linecap:butt; stroke-linejoin:round; stroke-width:2; stroke-opacity:0.1; fill:none" points="
  2279.85,1358.19 3889.76,1358.19 
  "/>
<polyline clip-path="url(#clip453)" style="stroke:#000000; stroke-linecap:butt; stroke-linejoin:round; stroke-width:2; stroke-opacity:0.1; fill:none" points="
  2279.85,1067.92 3889.76,1067.92 
  "/>
<polyline clip-path="url(#clip453)" style="stroke:#000000; stroke-linecap:butt; stroke-linejoin:round; stroke-width:2; stroke-opacity:0.1; fill:none" points="
  2279.85,777.646 3889.76,777.646 
  "/>
<polyline clip-path="url(#clip453)" style="stroke:#000000; stroke-linecap:butt; stroke-linejoin:round; stroke-width:2; stroke-opacity:0.1; fill:none" points="
  2279.85,487.375 3889.76,487.375 
  "/>
<polyline clip-path="url(#clip453)" style="stroke:#000000; stroke-linecap:butt; stroke-linejoin:round; stroke-width:2; stroke-opacity:0.1; fill:none" points="
  2279.85,197.105 3889.76,197.105 
  "/>
<polyline clip-path="url(#clip450)" style="stroke:#000000; stroke-linecap:butt; stroke-linejoin:round; stroke-width:4; stroke-opacity:1; fill:none" points="
  2279.85,1393.02 2279.85,162.272 
  "/>
<polyline clip-path="url(#clip450)" style="stroke:#000000; stroke-linecap:butt; stroke-linejoin:round; stroke-width:4; stroke-opacity:1; fill:none" points="
  2279.85,1358.19 2298.75,1358.19 
  "/>
<polyline clip-path="url(#clip450)" style="stroke:#000000; stroke-linecap:butt; stroke-linejoin:round; stroke-width:4; stroke-opacity:1; fill:none" points="
  2279.85,1067.92 2298.75,1067.92 
  "/>
<polyline clip-path="url(#clip450)" style="stroke:#000000; stroke-linecap:butt; stroke-linejoin:round; stroke-width:4; stroke-opacity:1; fill:none" points="
  2279.85,777.646 2298.75,777.646 
  "/>
<polyline clip-path="url(#clip450)" style="stroke:#000000; stroke-linecap:butt; stroke-linejoin:round; stroke-width:4; stroke-opacity:1; fill:none" points="
  2279.85,487.375 2298.75,487.375 
  "/>
<polyline clip-path="url(#clip450)" style="stroke:#000000; stroke-linecap:butt; stroke-linejoin:round; stroke-width:4; stroke-opacity:1; fill:none" points="
  2279.85,197.105 2298.75,197.105 
  "/>
<path clip-path="url(#clip450)" d="M2162.67 1343.99 Q2159.06 1343.99 2157.23 1347.55 Q2155.43 1351.09 2155.43 1358.22 Q2155.43 1365.33 2157.23 1368.89 Q2159.06 1372.43 2162.67 1372.43 Q2166.31 1372.43 2168.11 1368.89 Q2169.94 1365.33 2169.94 1358.22 Q2169.94 1351.09 2168.11 1347.55 Q2166.31 1343.99 2162.67 1343.99 M2162.67 1340.28 Q2168.48 1340.28 2171.54 1344.89 Q2174.62 1349.47 2174.62 1358.22 Q2174.62 1366.95 2171.54 1371.56 Q2168.48 1376.14 2162.67 1376.14 Q2156.86 1376.14 2153.79 1371.56 Q2150.73 1366.95 2150.73 1358.22 Q2150.73 1349.47 2153.79 1344.89 Q2156.86 1340.28 2162.67 1340.28 Z" fill="#000000" fill-rule="evenodd" fill-opacity="1" /><path clip-path="url(#clip450)" d="M2182.84 1369.59 L2187.72 1369.59 L2187.72 1375.47 L2182.84 1375.47 L2182.84 1369.59 Z" fill="#000000" fill-rule="evenodd" fill-opacity="1" /><path clip-path="url(#clip450)" d="M2207.91 1343.99 Q2204.29 1343.99 2202.47 1347.55 Q2200.66 1351.09 2200.66 1358.22 Q2200.66 1365.33 2202.47 1368.89 Q2204.29 1372.43 2207.91 1372.43 Q2211.54 1372.43 2213.35 1368.89 Q2215.17 1365.33 2215.17 1358.22 Q2215.17 1351.09 2213.35 1347.55 Q2211.54 1343.99 2207.91 1343.99 M2207.91 1340.28 Q2213.72 1340.28 2216.77 1344.89 Q2219.85 1349.47 2219.85 1358.22 Q2219.85 1366.95 2216.77 1371.56 Q2213.72 1376.14 2207.91 1376.14 Q2202.1 1376.14 2199.02 1371.56 Q2195.96 1366.95 2195.96 1358.22 Q2195.96 1349.47 2199.02 1344.89 Q2202.1 1340.28 2207.91 1340.28 Z" fill="#000000" fill-rule="evenodd" fill-opacity="1" /><path clip-path="url(#clip450)" d="M2163.9 1053.72 Q2160.29 1053.72 2158.46 1057.28 Q2156.66 1060.82 2156.66 1067.95 Q2156.66 1075.06 2158.46 1078.62 Q2160.29 1082.16 2163.9 1082.16 Q2167.54 1082.16 2169.34 1078.62 Q2171.17 1075.06 2171.17 1067.95 Q2171.17 1060.82 2169.34 1057.28 Q2167.54 1053.72 2163.9 1053.72 M2163.9 1050.01 Q2169.71 1050.01 2172.77 1054.62 Q2175.85 1059.2 2175.85 1067.95 Q2175.85 1076.68 2172.77 1081.28 Q2169.71 1085.87 2163.9 1085.87 Q2158.09 1085.87 2155.01 1081.28 Q2151.96 1076.68 2151.96 1067.95 Q2151.96 1059.2 2155.01 1054.62 Q2158.09 1050.01 2163.9 1050.01 Z" fill="#000000" fill-rule="evenodd" fill-opacity="1" /><path clip-path="url(#clip450)" d="M2184.06 1079.32 L2188.95 1079.32 L2188.95 1085.2 L2184.06 1085.2 L2184.06 1079.32 Z" fill="#000000" fill-rule="evenodd" fill-opacity="1" /><path clip-path="url(#clip450)" d="M2199.94 1081.26 L2207.58 1081.26 L2207.58 1054.9 L2199.27 1056.56 L2199.27 1052.3 L2207.54 1050.64 L2212.21 1050.64 L2212.21 1081.26 L2219.85 1081.26 L2219.85 1085.2 L2199.94 1085.2 L2199.94 1081.26 Z" fill="#000000" fill-rule="evenodd" fill-opacity="1" /><path clip-path="url(#clip450)" d="M2164.27 763.445 Q2160.66 763.445 2158.83 767.009 Q2157.03 770.551 2157.03 777.681 Q2157.03 784.787 2158.83 788.352 Q2160.66 791.894 2164.27 791.894 Q2167.91 791.894 2169.71 788.352 Q2171.54 784.787 2171.54 777.681 Q2171.54 770.551 2169.71 767.009 Q2167.91 763.445 2164.27 763.445 M2164.27 759.741 Q2170.08 759.741 2173.14 764.347 Q2176.22 768.931 2176.22 777.681 Q2176.22 786.408 2173.14 791.014 Q2170.08 795.597 2164.27 795.597 Q2158.46 795.597 2155.38 791.014 Q2152.33 786.408 2152.33 777.681 Q2152.33 768.931 2155.38 764.347 Q2158.46 759.741 2164.27 759.741 Z" fill="#000000" fill-rule="evenodd" fill-opacity="1" /><path clip-path="url(#clip450)" d="M2184.43 789.046 L2189.32 789.046 L2189.32 794.926 L2184.43 794.926 L2184.43 789.046 Z" fill="#000000" fill-rule="evenodd" fill-opacity="1" /><path clip-path="url(#clip450)" d="M2203.53 790.991 L2219.85 790.991 L2219.85 794.926 L2197.91 794.926 L2197.91 790.991 Q2200.57 788.236 2205.15 783.607 Q2209.76 778.954 2210.94 777.611 Q2213.18 775.088 2214.06 773.352 Q2214.97 771.593 2214.97 769.903 Q2214.97 767.148 2213.02 765.412 Q2211.1 763.676 2208 763.676 Q2205.8 763.676 2203.35 764.44 Q2200.92 765.204 2198.14 766.755 L2198.14 762.033 Q2200.96 760.898 2203.42 760.32 Q2205.87 759.741 2207.91 759.741 Q2213.28 759.741 2216.47 762.426 Q2219.67 765.111 2219.67 769.602 Q2219.67 771.732 2218.86 773.653 Q2218.07 775.551 2215.96 778.144 Q2215.38 778.815 2212.28 782.033 Q2209.18 785.227 2203.53 790.991 Z" fill="#000000" fill-rule="evenodd" fill-opacity="1" /><path clip-path="url(#clip450)" d="M2163.32 473.174 Q2159.71 473.174 2157.88 476.739 Q2156.08 480.28 2156.08 487.41 Q2156.08 494.517 2157.88 498.081 Q2159.71 501.623 2163.32 501.623 Q2166.96 501.623 2168.76 498.081 Q2170.59 494.517 2170.59 487.41 Q2170.59 480.28 2168.76 476.739 Q2166.96 473.174 2163.32 473.174 M2163.32 469.47 Q2169.13 469.47 2172.19 474.077 Q2175.27 478.66 2175.27 487.41 Q2175.27 496.137 2172.19 500.743 Q2169.13 505.327 2163.32 505.327 Q2157.51 505.327 2154.43 500.743 Q2151.38 496.137 2151.38 487.41 Q2151.38 478.66 2154.43 474.077 Q2157.51 469.47 2163.32 469.47 Z" fill="#000000" fill-rule="evenodd" fill-opacity="1" /><path clip-path="url(#clip450)" d="M2183.48 498.776 L2188.37 498.776 L2188.37 504.655 L2183.48 504.655 L2183.48 498.776 Z" fill="#000000" fill-rule="evenodd" fill-opacity="1" /><path clip-path="url(#clip450)" d="M2212.72 486.021 Q2216.08 486.739 2217.95 489.007 Q2219.85 491.276 2219.85 494.609 Q2219.85 499.725 2216.33 502.526 Q2212.81 505.327 2206.33 505.327 Q2204.16 505.327 2201.84 504.887 Q2199.55 504.47 2197.1 503.614 L2197.1 499.1 Q2199.04 500.234 2201.36 500.813 Q2203.67 501.391 2206.19 501.391 Q2210.59 501.391 2212.88 499.655 Q2215.2 497.919 2215.2 494.609 Q2215.2 491.554 2213.04 489.841 Q2210.92 488.105 2207.1 488.105 L2203.07 488.105 L2203.07 484.262 L2207.28 484.262 Q2210.73 484.262 2212.56 482.896 Q2214.39 481.507 2214.39 478.915 Q2214.39 476.253 2212.49 474.841 Q2210.61 473.406 2207.1 473.406 Q2205.17 473.406 2202.98 473.822 Q2200.78 474.239 2198.14 475.118 L2198.14 470.952 Q2200.8 470.211 2203.11 469.841 Q2205.45 469.47 2207.51 469.47 Q2212.84 469.47 2215.94 471.901 Q2219.04 474.308 2219.04 478.429 Q2219.04 481.299 2217.4 483.29 Q2215.75 485.257 2212.72 486.021 Z" fill="#000000" fill-rule="evenodd" fill-opacity="1" /><path clip-path="url(#clip450)" d="M2162.19 182.903 Q2158.58 182.903 2156.75 186.468 Q2154.94 190.01 2154.94 197.139 Q2154.94 204.246 2156.75 207.811 Q2158.58 211.352 2162.19 211.352 Q2165.82 211.352 2167.63 207.811 Q2169.46 204.246 2169.46 197.139 Q2169.46 190.01 2167.63 186.468 Q2165.82 182.903 2162.19 182.903 M2162.19 179.2 Q2168 179.2 2171.05 183.806 Q2174.13 188.389 2174.13 197.139 Q2174.13 205.866 2171.05 210.473 Q2168 215.056 2162.19 215.056 Q2156.38 215.056 2153.3 210.473 Q2150.24 205.866 2150.24 197.139 Q2150.24 188.389 2153.3 183.806 Q2156.38 179.2 2162.19 179.2 Z" fill="#000000" fill-rule="evenodd" fill-opacity="1" /><path clip-path="url(#clip450)" d="M2182.35 208.505 L2187.23 208.505 L2187.23 214.385 L2182.35 214.385 L2182.35 208.505 Z" fill="#000000" fill-rule="evenodd" fill-opacity="1" /><path clip-path="url(#clip450)" d="M2210.27 183.899 L2198.46 202.348 L2210.27 202.348 L2210.27 183.899 M2209.04 179.825 L2214.92 179.825 L2214.92 202.348 L2219.85 202.348 L2219.85 206.237 L2214.92 206.237 L2214.92 214.385 L2210.27 214.385 L2210.27 206.237 L2194.67 206.237 L2194.67 201.723 L2209.04 179.825 Z" fill="#000000" fill-rule="evenodd" fill-opacity="1" /><path clip-path="url(#clip450)" d="M2040.34 876.171 L2040.34 848.353 L2045.69 848.353 L2071.31 870.378 L2071.31 848.353 L2075.99 848.353 L2075.99 876.967 L2070.64 876.967 L2045.02 854.942 L2045.02 876.171 L2040.34 876.171 Z" fill="#000000" fill-rule="evenodd" fill-opacity="1" /><path clip-path="url(#clip450)" d="M2026.53 804.621 Q2033.85 808.886 2041.01 810.955 Q2048.17 813.023 2055.52 813.023 Q2062.87 813.023 2070.1 810.955 Q2077.29 808.854 2084.58 804.621 L2084.58 809.713 Q2077.1 814.488 2069.88 816.875 Q2062.65 819.23 2055.52 819.23 Q2048.42 819.23 2041.23 816.875 Q2034.04 814.519 2026.53 809.713 L2026.53 804.621 Z" fill="#000000" fill-rule="evenodd" fill-opacity="1" /><path clip-path="url(#clip450)" d="M2026.46 793.481 L2026.46 787.592 L2055.71 787.592 L2040.34 770.119 L2040.34 762.639 L2057.02 781.545 L2075.99 761.843 L2075.99 769.482 L2058.58 787.592 L2075.99 787.592 L2075.99 793.481 L2026.46 793.481 Z" fill="#000000" fill-rule="evenodd" fill-opacity="1" /><path clip-path="url(#clip450)" d="M2047.18 727.755 Q2043.24 725.559 2041.36 722.503 Q2039.48 719.448 2039.48 715.31 Q2039.48 709.74 2043.4 706.716 Q2047.28 703.692 2054.47 703.692 L2075.99 703.692 L2075.99 709.581 L2054.66 709.581 Q2049.54 709.581 2047.06 711.395 Q2044.57 713.209 2044.57 716.933 Q2044.57 721.485 2047.6 724.126 Q2050.62 726.768 2055.84 726.768 L2075.99 726.768 L2075.99 732.656 L2054.66 732.656 Q2049.51 732.656 2047.06 734.471 Q2044.57 736.285 2044.57 740.072 Q2044.57 744.56 2047.63 747.202 Q2050.65 749.844 2055.84 749.844 L2075.99 749.844 L2075.99 755.732 L2040.34 755.732 L2040.34 749.844 L2045.88 749.844 Q2042.6 747.839 2041.04 745.038 Q2039.48 742.237 2039.48 738.385 Q2039.48 734.502 2041.45 731.797 Q2043.43 729.06 2047.18 727.755 Z" fill="#000000" fill-rule="evenodd" fill-opacity="1" /><path clip-path="url(#clip450)" d="M2026.53 692.934 L2026.53 687.842 Q2034.04 683.067 2041.23 680.712 Q2048.42 678.325 2055.52 678.325 Q2062.65 678.325 2069.88 680.712 Q2077.1 683.067 2084.58 687.842 L2084.58 692.934 Q2077.29 688.701 2070.1 686.632 Q2062.87 684.532 2055.52 684.532 Q2048.17 684.532 2041.01 686.632 Q2033.85 688.701 2026.53 692.934 Z" fill="#000000" fill-rule="evenodd" fill-opacity="1" /><path clip-path="url(#clip450)" d="M2955.16 65.7705 L2955.16 89.8329 L2947.66 89.8329 L2947.66 27.2059 L2955.16 27.2059 L2955.16 34.0924 Q2957.51 30.0415 2961.07 28.0971 Q2964.68 26.1121 2969.66 26.1121 Q2977.92 26.1121 2983.07 32.6746 Q2988.25 39.2371 2988.25 49.9314 Q2988.25 60.6258 2983.07 67.1883 Q2977.92 73.7508 2969.66 73.7508 Q2964.68 73.7508 2961.07 71.8063 Q2957.51 69.8214 2955.16 65.7705 M2980.52 49.9314 Q2980.52 41.7081 2977.11 37.0496 Q2973.75 32.3505 2967.84 32.3505 Q2961.92 32.3505 2958.52 37.0496 Q2955.16 41.7081 2955.16 49.9314 Q2955.16 58.1548 2958.52 62.8538 Q2961.92 67.5124 2967.84 67.5124 Q2973.75 67.5124 2977.11 62.8538 Q2980.52 58.1548 2980.52 49.9314 Z" fill="#000000" fill-rule="evenodd" fill-opacity="1" /><path clip-path="url(#clip450)" d="M3044.89 9.62495 Q3039.46 18.942 3036.82 28.0566 Q3034.19 37.1711 3034.19 46.5287 Q3034.19 55.8863 3036.82 65.0818 Q3039.5 74.2369 3044.89 83.5134 L3038.4 83.5134 Q3032.33 73.9938 3029.29 64.7983 Q3026.29 55.6027 3026.29 46.5287 Q3026.29 37.4952 3029.29 28.3401 Q3032.29 19.1851 3038.4 9.62495 L3044.89 9.62495 Z" fill="#000000" fill-rule="evenodd" fill-opacity="1" /><path clip-path="url(#clip450)" d="M3059.06 9.54393 L3066.56 9.54393 L3066.56 46.7717 L3088.8 27.2059 L3098.32 27.2059 L3074.25 48.4326 L3099.33 72.576 L3089.61 72.576 L3066.56 50.4176 L3066.56 72.576 L3059.06 72.576 L3059.06 9.54393 Z" fill="#000000" fill-rule="evenodd" fill-opacity="1" /><path clip-path="url(#clip450)" d="M3115.9 18.8205 L3115.9 41.5461 L3126.19 41.5461 Q3131.9 41.5461 3135.02 38.5889 Q3138.14 35.6318 3138.14 30.163 Q3138.14 24.7348 3135.02 21.7777 Q3131.9 18.8205 3126.19 18.8205 L3115.9 18.8205 M3107.71 12.096 L3126.19 12.096 Q3136.35 12.096 3141.54 16.714 Q3146.77 21.2916 3146.77 30.163 Q3146.77 39.1155 3141.54 43.6931 Q3136.35 48.2706 3126.19 48.2706 L3115.9 48.2706 L3115.9 72.576 L3107.71 72.576 L3107.71 12.096 Z" fill="#000000" fill-rule="evenodd" fill-opacity="1" /><path clip-path="url(#clip450)" d="M3174.31 49.7694 Q3165.28 49.7694 3161.79 51.8354 Q3158.31 53.9013 3158.31 58.8839 Q3158.31 62.8538 3160.9 65.2034 Q3163.54 67.5124 3168.03 67.5124 Q3174.23 67.5124 3177.96 63.1374 Q3181.72 58.7219 3181.72 51.4303 L3181.72 49.7694 L3174.31 49.7694 M3189.18 46.6907 L3189.18 72.576 L3181.72 72.576 L3181.72 65.6895 Q3179.17 69.8214 3175.37 71.8063 Q3171.56 73.7508 3166.05 73.7508 Q3159.08 73.7508 3154.95 69.8619 Q3150.86 65.9325 3150.86 59.3701 Q3150.86 51.7138 3155.96 47.825 Q3161.11 43.9361 3171.27 43.9361 L3181.72 43.9361 L3181.72 43.2069 Q3181.72 38.0623 3178.32 35.2672 Q3174.96 32.4315 3168.84 32.4315 Q3164.95 32.4315 3161.27 33.3632 Q3157.58 34.295 3154.18 36.1584 L3154.18 29.2718 Q3158.27 27.692 3162.12 26.9223 Q3165.97 26.1121 3169.61 26.1121 Q3179.46 26.1121 3184.32 31.2163 Q3189.18 36.3204 3189.18 46.6907 Z" fill="#000000" fill-rule="evenodd" fill-opacity="1" /><path clip-path="url(#clip450)" d="M3203.36 9.62495 L3209.84 9.62495 Q3215.91 19.1851 3218.91 28.3401 Q3221.95 37.4952 3221.95 46.5287 Q3221.95 55.6027 3218.91 64.7983 Q3215.91 73.9938 3209.84 83.5134 L3203.36 83.5134 Q3208.74 74.2369 3211.38 65.0818 Q3214.05 55.8863 3214.05 46.5287 Q3214.05 37.1711 3211.38 28.0566 Q3208.74 18.942 3203.36 9.62495 Z" fill="#000000" fill-rule="evenodd" fill-opacity="1" /><polyline clip-path="url(#clip453)" style="stroke:#009af9; stroke-linecap:butt; stroke-linejoin:round; stroke-width:4; stroke-opacity:1; fill:none" points="
  3747.62,1285.62 3555.12,1140.48 3363.51,995.349 3172.79,850.214 2982.95,705.078 2793.99,559.943 2605.9,414.808 2418.69,269.672 
  "/>
<polyline clip-path="url(#clip453)" style="stroke:#e26f46; stroke-linecap:butt; stroke-linejoin:round; stroke-width:4; stroke-opacity:1; fill:none" points="
  3844.2,1358.19 3651.26,1213.05 3459.21,1067.92 3268.04,922.781 3077.76,777.646 2888.36,632.511 2699.83,487.375 2512.19,342.24 2325.41,197.105 
  "/>
<path clip-path="url(#clip450)" d="
M3484.93 358.817 L3836.1 358.817 L3836.1 203.297 L3484.93 203.297  Z
  " fill="#ffffff" fill-rule="evenodd" fill-opacity="1"/>
<polyline clip-path="url(#clip450)" style="stroke:#000000; stroke-linecap:butt; stroke-linejoin:round; stroke-width:4; stroke-opacity:1; fill:none" points="
  3484.93,358.817 3836.1,358.817 3836.1,203.297 3484.93,203.297 3484.93,358.817 
  "/>
<polyline clip-path="url(#clip450)" style="stroke:#009af9; stroke-linecap:butt; stroke-linejoin:round; stroke-width:4; stroke-opacity:1; fill:none" points="
  3502.82,255.137 3610.15,255.137 
  "/>
<path clip-path="url(#clip450)" d="M3648.54 247.487 L3648.54 251.468 Q3646.74 250.473 3644.91 249.987 Q3643.1 249.477 3641.25 249.477 Q3637.11 249.477 3634.82 252.116 Q3632.52 254.732 3632.52 259.477 Q3632.52 264.223 3634.82 266.862 Q3637.11 269.477 3641.25 269.477 Q3643.1 269.477 3644.91 268.991 Q3646.74 268.482 3648.54 267.487 L3648.54 271.422 Q3646.76 272.255 3644.84 272.672 Q3642.94 273.088 3640.79 273.088 Q3634.93 273.088 3631.48 269.408 Q3628.03 265.727 3628.03 259.477 Q3628.03 253.135 3631.51 249.501 Q3635 245.866 3641.07 245.866 Q3643.03 245.866 3644.91 246.283 Q3646.78 246.677 3648.54 247.487 Z" fill="#000000" fill-rule="evenodd" fill-opacity="1" /><path clip-path="url(#clip450)" d="M3678.13 258.389 L3678.13 260.473 L3658.54 260.473 Q3658.82 264.871 3661.18 267.186 Q3663.57 269.477 3667.8 269.477 Q3670.26 269.477 3672.55 268.876 Q3674.86 268.274 3677.13 267.07 L3677.13 271.098 Q3674.84 272.07 3672.43 272.579 Q3670.02 273.088 3667.55 273.088 Q3661.34 273.088 3657.71 269.477 Q3654.1 265.866 3654.1 259.709 Q3654.1 253.343 3657.52 249.616 Q3660.97 245.866 3666.81 245.866 Q3672.04 245.866 3675.07 249.246 Q3678.13 252.602 3678.13 258.389 M3673.87 257.139 Q3673.82 253.644 3671.9 251.561 Q3670 249.477 3666.85 249.477 Q3663.29 249.477 3661.14 251.491 Q3659.01 253.505 3658.68 257.163 L3673.87 257.139 Z" fill="#000000" fill-rule="evenodd" fill-opacity="1" /><path clip-path="url(#clip450)" d="M3706.67 256.769 L3706.67 272.417 L3702.41 272.417 L3702.41 256.908 Q3702.41 253.227 3700.97 251.399 Q3699.54 249.57 3696.67 249.57 Q3693.22 249.57 3691.23 251.769 Q3689.24 253.968 3689.24 257.764 L3689.24 272.417 L3684.95 272.417 L3684.95 246.491 L3689.24 246.491 L3689.24 250.519 Q3690.76 248.181 3692.82 247.024 Q3694.91 245.866 3697.62 245.866 Q3702.08 245.866 3704.38 248.644 Q3706.67 251.399 3706.67 256.769 Z" fill="#000000" fill-rule="evenodd" fill-opacity="1" /><path clip-path="url(#clip450)" d="M3719.38 239.13 L3719.38 246.491 L3728.15 246.491 L3728.15 249.802 L3719.38 249.802 L3719.38 263.876 Q3719.38 267.047 3720.23 267.95 Q3721.11 268.852 3723.77 268.852 L3728.15 268.852 L3728.15 272.417 L3723.77 272.417 Q3718.84 272.417 3716.97 270.588 Q3715.09 268.737 3715.09 263.876 L3715.09 249.802 L3711.97 249.802 L3711.97 246.491 L3715.09 246.491 L3715.09 239.13 L3719.38 239.13 Z" fill="#000000" fill-rule="evenodd" fill-opacity="1" /><path clip-path="url(#clip450)" d="M3755.93 258.389 L3755.93 260.473 L3736.34 260.473 Q3736.62 264.871 3738.98 267.186 Q3741.37 269.477 3745.6 269.477 Q3748.06 269.477 3750.35 268.876 Q3752.66 268.274 3754.93 267.07 L3754.93 271.098 Q3752.64 272.07 3750.23 272.579 Q3747.82 273.088 3745.35 273.088 Q3739.14 273.088 3735.51 269.477 Q3731.9 265.866 3731.9 259.709 Q3731.9 253.343 3735.32 249.616 Q3738.77 245.866 3744.61 245.866 Q3749.84 245.866 3752.87 249.246 Q3755.93 252.602 3755.93 258.389 M3751.67 257.139 Q3751.62 253.644 3749.7 251.561 Q3747.8 249.477 3744.65 249.477 Q3741.09 249.477 3738.94 251.491 Q3736.81 253.505 3736.48 257.163 L3751.67 257.139 Z" fill="#000000" fill-rule="evenodd" fill-opacity="1" /><path clip-path="url(#clip450)" d="M3777.94 250.473 Q3777.22 250.056 3776.37 249.871 Q3775.53 249.663 3774.51 249.663 Q3770.9 249.663 3768.96 252.024 Q3767.04 254.362 3767.04 258.76 L3767.04 272.417 L3762.75 272.417 L3762.75 246.491 L3767.04 246.491 L3767.04 250.519 Q3768.38 248.158 3770.53 247.024 Q3772.69 245.866 3775.76 245.866 Q3776.2 245.866 3776.74 245.936 Q3777.27 245.982 3777.92 246.098 L3777.94 250.473 Z" fill="#000000" fill-rule="evenodd" fill-opacity="1" /><path clip-path="url(#clip450)" d="M3798.94 247.255 L3798.94 251.283 Q3797.13 250.357 3795.19 249.894 Q3793.24 249.431 3791.16 249.431 Q3787.99 249.431 3786.39 250.403 Q3784.81 251.376 3784.81 253.32 Q3784.81 254.802 3785.95 255.658 Q3787.08 256.491 3790.51 257.255 L3791.97 257.579 Q3796.5 258.552 3798.4 260.334 Q3800.32 262.093 3800.32 265.264 Q3800.32 268.876 3797.45 270.982 Q3794.61 273.088 3789.61 273.088 Q3787.52 273.088 3785.25 272.672 Q3783.01 272.278 3780.51 271.468 L3780.51 267.07 Q3782.87 268.297 3785.16 268.922 Q3787.45 269.524 3789.7 269.524 Q3792.71 269.524 3794.33 268.505 Q3795.95 267.463 3795.95 265.589 Q3795.95 263.852 3794.77 262.926 Q3793.61 262.001 3789.65 261.144 L3788.17 260.797 Q3784.21 259.964 3782.45 258.251 Q3780.69 256.514 3780.69 253.505 Q3780.69 249.848 3783.29 247.857 Q3785.88 245.866 3790.65 245.866 Q3793.01 245.866 3795.09 246.214 Q3797.18 246.561 3798.94 247.255 Z" fill="#000000" fill-rule="evenodd" fill-opacity="1" /><polyline clip-path="url(#clip450)" style="stroke:#e26f46; stroke-linecap:butt; stroke-linejoin:round; stroke-width:4; stroke-opacity:1; fill:none" points="
  3502.82,306.977 3610.15,306.977 
  "/>
<path clip-path="url(#clip450)" d="M3644.54 288.239 L3644.54 291.78 L3640.46 291.78 Q3638.17 291.78 3637.27 292.706 Q3636.39 293.632 3636.39 296.04 L3636.39 298.331 L3643.4 298.331 L3643.4 301.642 L3636.39 301.642 L3636.39 324.257 L3632.11 324.257 L3632.11 301.642 L3628.03 301.642 L3628.03 298.331 L3632.11 298.331 L3632.11 296.526 Q3632.11 292.197 3634.12 290.23 Q3636.14 288.239 3640.51 288.239 L3644.54 288.239 Z" fill="#000000" fill-rule="evenodd" fill-opacity="1" /><path clip-path="url(#clip450)" d="M3659.89 311.225 Q3654.72 311.225 3652.73 312.405 Q3650.74 313.586 3650.74 316.433 Q3650.74 318.702 3652.22 320.044 Q3653.73 321.364 3656.3 321.364 Q3659.84 321.364 3661.97 318.864 Q3664.12 316.341 3664.12 312.174 L3664.12 311.225 L3659.89 311.225 M3668.38 309.466 L3668.38 324.257 L3664.12 324.257 L3664.12 320.322 Q3662.66 322.683 3660.49 323.817 Q3658.31 324.928 3655.16 324.928 Q3651.18 324.928 3648.82 322.706 Q3646.48 320.461 3646.48 316.711 Q3646.48 312.336 3649.4 310.114 Q3652.34 307.892 3658.15 307.892 L3664.12 307.892 L3664.12 307.475 Q3664.12 304.535 3662.18 302.938 Q3660.26 301.317 3656.76 301.317 Q3654.54 301.317 3652.43 301.85 Q3650.32 302.382 3648.38 303.447 L3648.38 299.512 Q3650.72 298.609 3652.92 298.169 Q3655.12 297.706 3657.2 297.706 Q3662.82 297.706 3665.6 300.623 Q3668.38 303.54 3668.38 309.466 Z" fill="#000000" fill-rule="evenodd" fill-opacity="1" /><path clip-path="url(#clip450)" d="M3695.81 299.327 L3695.81 303.308 Q3694.01 302.313 3692.18 301.827 Q3690.37 301.317 3688.52 301.317 Q3684.38 301.317 3682.08 303.956 Q3679.79 306.572 3679.79 311.317 Q3679.79 316.063 3682.08 318.702 Q3684.38 321.317 3688.52 321.317 Q3690.37 321.317 3692.18 320.831 Q3694.01 320.322 3695.81 319.327 L3695.81 323.262 Q3694.03 324.095 3692.11 324.512 Q3690.21 324.928 3688.06 324.928 Q3682.2 324.928 3678.75 321.248 Q3675.3 317.567 3675.3 311.317 Q3675.3 304.975 3678.77 301.341 Q3682.27 297.706 3688.33 297.706 Q3690.3 297.706 3692.18 298.123 Q3694.05 298.517 3695.81 299.327 Z" fill="#000000" fill-rule="evenodd" fill-opacity="1" /><path clip-path="url(#clip450)" d="M3725.39 310.229 L3725.39 312.313 L3705.81 312.313 Q3706.09 316.711 3708.45 319.026 Q3710.83 321.317 3715.07 321.317 Q3717.52 321.317 3719.82 320.716 Q3722.13 320.114 3724.4 318.91 L3724.4 322.938 Q3722.11 323.91 3719.7 324.419 Q3717.29 324.928 3714.82 324.928 Q3708.61 324.928 3704.98 321.317 Q3701.37 317.706 3701.37 311.549 Q3701.37 305.183 3704.79 301.456 Q3708.24 297.706 3714.07 297.706 Q3719.31 297.706 3722.34 301.086 Q3725.39 304.442 3725.39 310.229 M3721.13 308.979 Q3721.09 305.484 3719.17 303.401 Q3717.27 301.317 3714.12 301.317 Q3710.56 301.317 3708.4 303.331 Q3706.27 305.345 3705.95 309.003 L3721.13 308.979 Z" fill="#000000" fill-rule="evenodd" fill-opacity="1" /><path clip-path="url(#clip450)" d="M3748.91 299.095 L3748.91 303.123 Q3747.11 302.197 3745.16 301.734 Q3743.22 301.271 3741.13 301.271 Q3737.96 301.271 3736.37 302.243 Q3734.79 303.216 3734.79 305.16 Q3734.79 306.642 3735.93 307.498 Q3737.06 308.331 3740.49 309.095 L3741.94 309.419 Q3746.48 310.392 3748.38 312.174 Q3750.3 313.933 3750.3 317.104 Q3750.3 320.716 3747.43 322.822 Q3744.58 324.928 3739.58 324.928 Q3737.5 324.928 3735.23 324.512 Q3732.99 324.118 3730.49 323.308 L3730.49 318.91 Q3732.85 320.137 3735.14 320.762 Q3737.43 321.364 3739.68 321.364 Q3742.69 321.364 3744.31 320.345 Q3745.93 319.303 3745.93 317.429 Q3745.93 315.692 3744.75 314.766 Q3743.59 313.841 3739.63 312.984 L3738.15 312.637 Q3734.19 311.804 3732.43 310.091 Q3730.67 308.354 3730.67 305.345 Q3730.67 301.688 3733.26 299.697 Q3735.86 297.706 3740.63 297.706 Q3742.99 297.706 3745.07 298.054 Q3747.15 298.401 3748.91 299.095 Z" fill="#000000" fill-rule="evenodd" fill-opacity="1" /></svg>
