<?xml version="1.0" encoding="utf-8"?>
<svg xmlns="http://www.w3.org/2000/svg" xmlns:xlink="http://www.w3.org/1999/xlink" width="1000" height="400" viewBox="0 0 4000 1600">
<defs>
  <clipPath id="clip280">
    <rect x="0" y="0" width="4000" height="1600"/>
  </clipPath>
</defs>
<path clip-path="url(#clip280)" d="
M0 1600 L4000 1600 L4000 0 L0 0  Z
  " fill="#ffffff" fill-rule="evenodd" fill-opacity="1"/>
<defs>
  <clipPath id="clip281">
    <rect x="800" y="0" width="2801" height="1600"/>
  </clipPath>
</defs>
<path clip-path="url(#clip280)" d="
M235.429 1393.02 L1889.76 1393.02 L1889.76 162.272 L235.429 162.272  Z
  " fill="#ffffff" fill-rule="evenodd" fill-opacity="1"/>
<defs>
  <clipPath id="clip282">
    <rect x="235" y="162" width="1655" height="1232"/>
  </clipPath>
</defs>
<polyline clip-path="url(#clip282)" style="stroke:#000000; stroke-linecap:butt; stroke-linejoin:round; stroke-width:2; stroke-opacity:0.1; fill:none" points="
  345.953,1393.02 345.953,162.272 
  "/>
<polyline clip-path="url(#clip282)" style="stroke:#000000; stroke-linecap:butt; stroke-linejoin:round; stroke-width:2; stroke-opacity:0.1; fill:none" points="
  755.637,1393.02 755.637,162.272 
  "/>
<polyline clip-path="url(#clip282)" style="stroke:#000000; stroke-linecap:butt; stroke-linejoin:round; stroke-width:2; stroke-opacity:0.1; fill:none" points="
  1165.32,1393.02 1165.32,162.272 
  "/>
<polyline clip-path="url(#clip282)" style="stroke:#000000; stroke-linecap:butt; stroke-linejoin:round; stroke-width:2; stroke-opacity:0.1; fill:none" points="
  1575.01,1393.02 1575.01,162.272 
  "/>
<polyline clip-path="url(#clip280)" style="stroke:#000000; stroke-linecap:butt; stroke-linejoin:round; stroke-width:4; stroke-opacity:1; fill:none" points="
  235.429,1393.02 1889.76,1393.02 
  "/>
<polyline clip-path="url(#clip280)" style="stroke:#000000; stroke-linecap:butt; stroke-linejoin:round; stroke-width:4; stroke-opacity:1; fill:none" points="
  345.953,1393.02 345.953,1374.12 
  "/>
<polyline clip-path="url(#clip280)" style="stroke:#000000; stroke-linecap:butt; stroke-linejoin:round; stroke-width:4; stroke-opacity:1; fill:none" points="
  755.637,1393.02 755.637,1374.12 
  "/>
<polyline clip-path="url(#clip280)" style="stroke:#000000; stroke-linecap:butt; stroke-linejoin:round; stroke-width:4; stroke-opacity:1; fill:none" points="
  1165.32,1393.02 1165.32,1374.12 
  "/>
<polyline clip-path="url(#clip280)" style="stroke:#000000; stroke-linecap:butt; stroke-linejoin:round; stroke-width:4; stroke-opacity:1; fill:none" points="
  1575.01,1393.02 1575.01,1374.12 
  "/>
<path clip-path="url(#clip280)" d="M323.384 1436.74 Q319.772 1436.74 317.944 1440.3 Q316.138 1443.84 316.138 1450.97 Q316.138 1458.08 317.944 1461.65 Q319.772 1465.19 323.384 1465.19 Q327.018 1465.19 328.823 1461.65 Q330.652 1458.08 330.652 1450.97 Q330.652 1443.84 328.823 1440.3 Q327.018 1436.74 323.384 1436.74 M323.384 1433.03 Q329.194 1433.03 332.249 1437.64 Q335.328 1442.22 335.328 1450.97 Q335.328 1459.7 332.249 1464.31 Q329.194 1468.89 323.384 1468.89 Q317.573 1468.89 314.495 1464.31 Q311.439 1459.7 311.439 1450.97 Q311.439 1442.22 314.495 1437.64 Q317.573 1433.03 323.384 1433.03 Z" fill="#000000" fill-rule="evenodd" fill-opacity="1" /><path clip-path="url(#clip280)" d="M343.545 1462.34 L348.43 1462.34 L348.43 1468.22 L343.545 1468.22 L343.545 1462.34 Z" fill="#000000" fill-rule="evenodd" fill-opacity="1" /><path clip-path="url(#clip280)" d="M368.615 1451.81 Q365.281 1451.81 363.36 1453.59 Q361.462 1455.37 361.462 1458.5 Q361.462 1461.62 363.36 1463.4 Q365.281 1465.19 368.615 1465.19 Q371.948 1465.19 373.869 1463.4 Q375.791 1461.6 375.791 1458.5 Q375.791 1455.37 373.869 1453.59 Q371.971 1451.81 368.615 1451.81 M363.939 1449.82 Q360.93 1449.08 359.24 1447.02 Q357.573 1444.96 357.573 1441.99 Q357.573 1437.85 360.513 1435.44 Q363.476 1433.03 368.615 1433.03 Q373.777 1433.03 376.717 1435.44 Q379.656 1437.85 379.656 1441.99 Q379.656 1444.96 377.967 1447.02 Q376.3 1449.08 373.314 1449.82 Q376.693 1450.6 378.568 1452.9 Q380.467 1455.19 380.467 1458.5 Q380.467 1463.52 377.388 1466.21 Q374.332 1468.89 368.615 1468.89 Q362.897 1468.89 359.819 1466.21 Q356.763 1463.52 356.763 1458.5 Q356.763 1455.19 358.661 1452.9 Q360.559 1450.6 363.939 1449.82 M362.226 1442.43 Q362.226 1445.12 363.893 1446.62 Q365.582 1448.13 368.615 1448.13 Q371.624 1448.13 373.314 1446.62 Q375.027 1445.12 375.027 1442.43 Q375.027 1439.75 373.314 1438.24 Q371.624 1436.74 368.615 1436.74 Q365.582 1436.74 363.893 1438.24 Q362.226 1439.75 362.226 1442.43 Z" fill="#000000" fill-rule="evenodd" fill-opacity="1" /><path clip-path="url(#clip280)" d="M733.114 1436.74 Q729.503 1436.74 727.674 1440.3 Q725.869 1443.84 725.869 1450.97 Q725.869 1458.08 727.674 1461.65 Q729.503 1465.19 733.114 1465.19 Q736.748 1465.19 738.554 1461.65 Q740.382 1458.08 740.382 1450.97 Q740.382 1443.84 738.554 1440.3 Q736.748 1436.74 733.114 1436.74 M733.114 1433.03 Q738.924 1433.03 741.98 1437.64 Q745.058 1442.22 745.058 1450.97 Q745.058 1459.7 741.98 1464.31 Q738.924 1468.89 733.114 1468.89 Q727.304 1468.89 724.225 1464.31 Q721.17 1459.7 721.17 1450.97 Q721.17 1442.22 724.225 1437.64 Q727.304 1433.03 733.114 1433.03 Z" fill="#000000" fill-rule="evenodd" fill-opacity="1" /><path clip-path="url(#clip280)" d="M753.276 1462.34 L758.16 1462.34 L758.16 1468.22 L753.276 1468.22 L753.276 1462.34 Z" fill="#000000" fill-rule="evenodd" fill-opacity="1" /><path clip-path="url(#clip280)" d="M768.484 1467.5 L768.484 1463.24 Q770.243 1464.08 772.049 1464.52 Q773.854 1464.96 775.591 1464.96 Q780.22 1464.96 782.651 1461.85 Q785.104 1458.73 785.452 1452.39 Q784.109 1454.38 782.049 1455.44 Q779.989 1456.51 777.489 1456.51 Q772.304 1456.51 769.271 1453.38 Q766.262 1450.23 766.262 1444.79 Q766.262 1439.47 769.41 1436.25 Q772.558 1433.03 777.79 1433.03 Q783.785 1433.03 786.933 1437.64 Q790.104 1442.22 790.104 1450.97 Q790.104 1459.15 786.216 1464.03 Q782.35 1468.89 775.799 1468.89 Q774.04 1468.89 772.234 1468.54 Q770.429 1468.2 768.484 1467.5 M777.79 1452.85 Q780.938 1452.85 782.766 1450.7 Q784.618 1448.54 784.618 1444.79 Q784.618 1441.07 782.766 1438.91 Q780.938 1436.74 777.79 1436.74 Q774.642 1436.74 772.79 1438.91 Q770.961 1441.07 770.961 1444.79 Q770.961 1448.54 772.79 1450.7 Q774.642 1452.85 777.79 1452.85 Z" fill="#000000" fill-rule="evenodd" fill-opacity="1" /><path clip-path="url(#clip280)" d="M1132.47 1464.28 L1140.11 1464.28 L1140.11 1437.92 L1131.8 1439.59 L1131.8 1435.33 L1140.07 1433.66 L1144.74 1433.66 L1144.74 1464.28 L1152.38 1464.28 L1152.38 1468.22 L1132.47 1468.22 L1132.47 1464.28 Z" fill="#000000" fill-rule="evenodd" fill-opacity="1" /><path clip-path="url(#clip280)" d="M1161.83 1462.34 L1166.71 1462.34 L1166.71 1468.22 L1161.83 1468.22 L1161.83 1462.34 Z" fill="#000000" fill-rule="evenodd" fill-opacity="1" /><path clip-path="url(#clip280)" d="M1186.9 1436.74 Q1183.28 1436.74 1181.46 1440.3 Q1179.65 1443.84 1179.65 1450.97 Q1179.65 1458.08 1181.46 1461.65 Q1183.28 1465.19 1186.9 1465.19 Q1190.53 1465.19 1192.33 1461.65 Q1194.16 1458.08 1194.16 1450.97 Q1194.16 1443.84 1192.33 1440.3 Q1190.53 1436.74 1186.9 1436.74 M1186.9 1433.03 Q1192.71 1433.03 1195.76 1437.64 Q1198.84 1442.22 1198.84 1450.97 Q1198.84 1459.7 1195.76 1464.31 Q1192.71 1468.89 1186.9 1468.89 Q1181.08 1468.89 1178.01 1464.31 Q1174.95 1459.7 1174.95 1450.97 Q1174.95 1442.22 1178.01 1437.64 Q1181.08 1433.03 1186.9 1433.03 Z" fill="#000000" fill-rule="evenodd" fill-opacity="1" /><path clip-path="url(#clip280)" d="M1542.77 1464.28 L1550.41 1464.28 L1550.41 1437.92 L1542.1 1439.59 L1542.1 1435.33 L1550.36 1433.66 L1555.04 1433.66 L1555.04 1464.28 L1562.68 1464.28 L1562.68 1468.22 L1542.77 1468.22 L1542.77 1464.28 Z" fill="#000000" fill-rule="evenodd" fill-opacity="1" /><path clip-path="url(#clip280)" d="M1572.12 1462.34 L1577.01 1462.34 L1577.01 1468.22 L1572.12 1468.22 L1572.12 1462.34 Z" fill="#000000" fill-rule="evenodd" fill-opacity="1" /><path clip-path="url(#clip280)" d="M1588 1464.28 L1595.64 1464.28 L1595.64 1437.92 L1587.33 1439.59 L1587.33 1435.33 L1595.6 1433.66 L1600.27 1433.66 L1600.27 1464.28 L1607.91 1464.28 L1607.91 1468.22 L1588 1468.22 L1588 1464.28 Z" fill="#000000" fill-rule="evenodd" fill-opacity="1" /><path clip-path="url(#clip280)" d="M1049.52 1532.6 Q1051.46 1529.35 1056.26 1526.49 Q1058.14 1525.38 1063.93 1525.38 Q1070.43 1525.38 1074.47 1530.53 Q1078.54 1535.69 1078.54 1544.09 Q1078.54 1552.49 1074.47 1557.65 Q1070.43 1562.81 1063.93 1562.81 Q1060.02 1562.81 1057.19 1561.28 Q1054.38 1559.72 1052.54 1556.54 L1052.54 1575.44 L1046.65 1575.44 L1046.65 1544.41 Q1046.65 1537.06 1049.52 1532.6 M1072.46 1544.09 Q1072.46 1537.63 1069.79 1533.97 Q1067.15 1530.28 1062.5 1530.28 Q1057.85 1530.28 1055.18 1533.97 Q1052.54 1537.63 1052.54 1544.09 Q1052.54 1550.55 1055.18 1554.24 Q1057.85 1557.91 1062.5 1557.91 Q1067.15 1557.91 1069.79 1554.24 Q1072.46 1550.55 1072.46 1544.09 Z" fill="#000000" fill-rule="evenodd" fill-opacity="1" /><polyline clip-path="url(#clip282)" style="stroke:#000000; stroke-linecap:butt; stroke-linejoin:round; stroke-width:2; stroke-opacity:0.1; fill:none" points="
  235.429,1358.19 1889.76,1358.19 
  "/>
<polyline clip-path="url(#clip282)" style="stroke:#000000; stroke-linecap:butt; stroke-linejoin:round; stroke-width:2; stroke-opacity:0.1; fill:none" points="
  235.429,1067.92 1889.76,1067.92 
  "/>
<polyline clip-path="url(#clip282)" style="stroke:#000000; stroke-linecap:butt; stroke-linejoin:round; stroke-width:2; stroke-opacity:0.1; fill:none" points="
  235.429,777.646 1889.76,777.646 
  "/>
<polyline clip-path="url(#clip282)" style="stroke:#000000; stroke-linecap:butt; stroke-linejoin:round; stroke-width:2; stroke-opacity:0.1; fill:none" points="
  235.429,487.375 1889.76,487.375 
  "/>
<polyline clip-path="url(#clip282)" style="stroke:#000000; stroke-linecap:butt; stroke-linejoin:round; stroke-width:2; stroke-opacity:0.1; fill:none" points="
  235.429,197.105 1889.76,197.105 
  "/>
<polyline clip-path="url(#clip280)" style="stroke:#000000; stroke-linecap:butt; stroke-linejoin:round; stroke-width:4; stroke-opacity:1; fill:none" points="
  235.429,1393.02 235.429,162.272 
  "/>
<polyline clip-path="url(#clip280)" style="stroke:#000000; stroke-linecap:butt; stroke-linejoin:round; stroke-width:4; stroke-opacity:1; fill:none" points="
  235.429,1358.19 254.327,1358.19 
  "/>
<polyline clip-path="url(#clip280)" style="stroke:#000000; stroke-linecap:butt; stroke-linejoin:round; stroke-width:4; stroke-opacity:1; fill:none" points="
  235.429,1067.92 254.327,1067.92 
  "/>
<polyline clip-path="url(#clip280)" style="stroke:#000000; stroke-linecap:butt; stroke-linejoin:round; stroke-width:4; stroke-opacity:1; fill:none" points="
  235.429,777.646 254.327,777.646 
  "/>
<polyline clip-path="url(#clip280)" style="stroke:#000000; stroke-linecap:butt; stroke-linejoin:round; stroke-width:4; stroke-opacity:1; fill:none" points="
  235.429,487.375 254.327,487.375 
  "/>
<polyline clip-path="url(#clip280)" style="stroke:#000000; stroke-linecap:butt; stroke-linejoin:round; stroke-width:4; stroke-opacity:1; fill:none" points="
  235.429,197.105 254.327,197.105 
  "/>
<path clip-path="url(#clip280)" d="M163.485 1343.99 Q159.874 1343.99 158.045 1347.55 Q156.24 1351.09 156.24 1358.22 Q156.24 1365.33 158.045 1368.89 Q159.874 1372.43 163.485 1372.43 Q167.119 1372.43 168.925 1368.89 Q170.753 1365.33 170.753 1358.22 Q170.753 1351.09 168.925 1347.55 Q167.119 1343.99 163.485 1343.99 M163.485 1340.28 Q169.295 1340.28 172.351 1344.89 Q175.429 1349.47 175.429 1358.22 Q175.429 1366.95 172.351 1371.56 Q169.295 1376.14 163.485 1376.14 Q157.675 1376.14 154.596 1371.56 Q151.541 1366.95 151.541 1358.22 Q151.541 1349.47 154.596 1344.89 Q157.675 1340.28 163.485 1340.28 Z" fill="#000000" fill-rule="evenodd" fill-opacity="1" /><path clip-path="url(#clip280)" d="M155.522 1081.26 L163.161 1081.26 L163.161 1054.9 L154.851 1056.56 L154.851 1052.3 L163.115 1050.64 L167.79 1050.64 L167.79 1081.26 L175.429 1081.26 L175.429 1085.2 L155.522 1085.2 L155.522 1081.26 Z" fill="#000000" fill-rule="evenodd" fill-opacity="1" /><path clip-path="url(#clip280)" d="M159.11 790.991 L175.429 790.991 L175.429 794.926 L153.485 794.926 L153.485 790.991 Q156.147 788.236 160.73 783.607 Q165.337 778.954 166.517 777.611 Q168.763 775.088 169.642 773.352 Q170.545 771.593 170.545 769.903 Q170.545 767.148 168.601 765.412 Q166.679 763.676 163.578 763.676 Q161.378 763.676 158.925 764.44 Q156.494 765.204 153.716 766.755 L153.716 762.033 Q156.541 760.898 158.994 760.32 Q161.448 759.741 163.485 759.741 Q168.855 759.741 172.05 762.426 Q175.244 765.111 175.244 769.602 Q175.244 771.732 174.434 773.653 Q173.647 775.551 171.54 778.144 Q170.962 778.815 167.86 782.033 Q164.758 785.227 159.11 790.991 Z" fill="#000000" fill-rule="evenodd" fill-opacity="1" /><path clip-path="url(#clip280)" d="M168.3 486.021 Q171.656 486.739 173.531 489.007 Q175.429 491.276 175.429 494.609 Q175.429 499.725 171.911 502.526 Q168.392 505.327 161.911 505.327 Q159.735 505.327 157.42 504.887 Q155.129 504.47 152.675 503.614 L152.675 499.1 Q154.619 500.234 156.934 500.813 Q159.249 501.391 161.772 501.391 Q166.17 501.391 168.462 499.655 Q170.777 497.919 170.777 494.609 Q170.777 491.554 168.624 489.841 Q166.494 488.105 162.675 488.105 L158.647 488.105 L158.647 484.262 L162.86 484.262 Q166.309 484.262 168.138 482.896 Q169.966 481.507 169.966 478.915 Q169.966 476.253 168.068 474.841 Q166.193 473.406 162.675 473.406 Q160.753 473.406 158.554 473.822 Q156.355 474.239 153.716 475.118 L153.716 470.952 Q156.379 470.211 158.693 469.841 Q161.031 469.47 163.091 469.47 Q168.415 469.47 171.517 471.901 Q174.619 474.308 174.619 478.429 Q174.619 481.299 172.976 483.29 Q171.332 485.257 168.3 486.021 Z" fill="#000000" fill-rule="evenodd" fill-opacity="1" /><path clip-path="url(#clip280)" d="M165.846 183.899 L154.041 202.348 L165.846 202.348 L165.846 183.899 M164.619 179.825 L170.499 179.825 L170.499 202.348 L175.429 202.348 L175.429 206.237 L170.499 206.237 L170.499 214.385 L165.846 214.385 L165.846 206.237 L150.244 206.237 L150.244 201.723 L164.619 179.825 Z" fill="#000000" fill-rule="evenodd" fill-opacity="1" /><path clip-path="url(#clip280)" d="M40.3403 876.171 L40.3403 848.353 L45.6875 848.353 L71.3095 870.378 L71.3095 848.353 L75.9883 848.353 L75.9883 876.967 L70.6411 876.967 L45.0191 854.942 L45.0191 876.171 L40.3403 876.171 Z" fill="#000000" fill-rule="evenodd" fill-opacity="1" /><path clip-path="url(#clip280)" d="M26.5267 804.621 Q33.8473 808.886 41.0087 810.955 Q48.1701 813.023 55.5225 813.023 Q62.8749 813.023 70.1 810.955 Q77.2933 808.854 84.582 804.621 L84.582 809.713 Q77.1023 814.488 69.8772 816.875 Q62.6521 819.23 55.5225 819.23 Q48.4248 819.23 41.2315 816.875 Q34.0383 814.519 26.5267 809.713 L26.5267 804.621 Z" fill="#000000" fill-rule="evenodd" fill-opacity="1" /><path clip-path="url(#clip280)" d="M26.4631 793.481 L26.4631 787.592 L55.7135 787.592 L40.3403 770.119 L40.3403 762.639 L57.0185 781.545 L75.9883 761.843 L75.9883 769.482 L58.5781 787.592 L75.9883 787.592 L75.9883 793.481 L26.4631 793.481 Z" fill="#000000" fill-rule="evenodd" fill-opacity="1" /><path clip-path="url(#clip280)" d="M47.1835 727.755 Q43.2367 725.559 41.3588 722.503 Q39.481 719.448 39.481 715.31 Q39.481 709.74 43.3959 706.716 Q47.2789 703.692 54.4722 703.692 L75.9883 703.692 L75.9883 709.581 L54.6632 709.581 Q49.5388 709.581 47.0561 711.395 Q44.5735 713.209 44.5735 716.933 Q44.5735 721.485 47.5972 724.126 Q50.6209 726.768 55.8408 726.768 L75.9883 726.768 L75.9883 732.656 L54.6632 732.656 Q49.5069 732.656 47.0561 734.471 Q44.5735 736.285 44.5735 740.072 Q44.5735 744.56 47.6291 747.202 Q50.6528 749.844 55.8408 749.844 L75.9883 749.844 L75.9883 755.732 L40.3403 755.732 L40.3403 749.844 L45.8785 749.844 Q42.6002 747.839 41.0406 745.038 Q39.481 742.237 39.481 738.385 Q39.481 734.502 41.4543 731.797 Q43.4277 729.06 47.1835 727.755 Z" fill="#000000" fill-rule="evenodd" fill-opacity="1" /><path clip-path="url(#clip280)" d="M26.5267 692.934 L26.5267 687.842 Q34.0383 683.067 41.2315 680.712 Q48.4248 678.325 55.5225 678.325 Q62.6521 678.325 69.8772 680.712 Q77.1023 683.067 84.582 687.842 L84.582 692.934 Q77.2933 688.701 70.1 686.632 Q62.8749 684.532 55.5225 684.532 Q48.1701 684.532 41.0087 686.632 Q33.8473 688.701 26.5267 692.934 Z" fill="#000000" fill-rule="evenodd" fill-opacity="1" /><path clip-path="url(#clip280)" d="M1045.95 35.3077 Q1048.42 31.1758 1054.54 27.5299 Q1056.93 26.1121 1064.3 26.1121 Q1072.56 26.1121 1077.71 32.6746 Q1082.89 39.2371 1082.89 49.9314 Q1082.89 60.6258 1077.71 67.1883 Q1072.56 73.7508 1064.3 73.7508 Q1059.32 73.7508 1055.71 71.8063 Q1052.15 69.8214 1049.8 65.7705 L1049.8 89.8329 L1042.3 89.8329 L1042.3 50.3365 Q1042.3 40.9789 1045.95 35.3077 M1075.15 49.9314 Q1075.15 41.7081 1071.75 37.0496 Q1068.39 32.3505 1062.48 32.3505 Q1056.56 32.3505 1053.16 37.0496 Q1049.8 41.7081 1049.8 49.9314 Q1049.8 58.1548 1053.16 62.8538 Q1056.56 67.5124 1062.48 67.5124 Q1068.39 67.5124 1071.75 62.8538 Q1075.15 58.1548 1075.15 49.9314 Z" fill="#000000" fill-rule="evenodd" fill-opacity="1" /><polyline clip-path="url(#clip282)" style="stroke:#009af9; stroke-linecap:butt; stroke-linejoin:round; stroke-width:4; stroke-opacity:1; fill:none" points="
  1831.51,1350.93 1808.7,1336.42 1785.99,1321.9 1763.38,1307.39 1740.86,1292.88 1718.42,1278.36 1696.07,1263.85 1673.81,1249.34 1651.64,1234.82 1629.56,1220.31 
  1607.57,1205.8 1585.65,1191.28 1563.86,1176.77 1542.14,1162.25 1520.46,1147.74 1498.94,1133.23 1477.49,1118.71 1456.12,1104.2 1434.86,1089.69 1413.64,1075.17 
  1392.48,1060.66 1371.49,1046.15 1350.55,1031.63 1329.69,1017.12 1308.92,1002.61 1288.23,988.092 1267.63,973.579 1247.12,959.065 1226.72,944.552 1206.35,930.038 
  1186.07,915.525 1165.89,901.011 1145.81,886.497 1125.82,871.984 1105.85,857.47 1086,842.957 1066.23,828.443 1046.55,813.93 1026.94,799.416 1007.42,784.903 
  987.984,770.389 968.627,755.876 949.352,741.362 930.158,726.849 911.045,712.335 892.014,697.822 873.064,683.308 854.14,668.794 835.339,654.281 816.618,639.767 
  797.975,625.254 779.41,610.74 760.924,596.227 742.516,581.713 724.185,567.2 705.932,552.686 687.756,538.173 669.657,523.659 651.635,509.146 633.689,494.632 
  615.819,480.119 598.026,465.605 580.308,451.092 562.666,436.578 545.099,422.064 527.606,407.551 510.189,393.037 492.846,378.524 475.578,364.01 458.384,349.497 
  441.263,334.983 424.216,320.47 407.243,305.956 390.342,291.443 373.514,276.929 356.759,262.416 340.076,247.902 323.465,233.389 306.925,218.875 290.457,204.361 
  
  "/>
<polyline clip-path="url(#clip282)" style="stroke:#e26f46; stroke-linecap:butt; stroke-linejoin:round; stroke-width:4; stroke-opacity:1; fill:none" points="
  1842.94,1358.19 1820.09,1343.67 1797.33,1329.16 1774.67,1314.65 1752.11,1300.13 1729.63,1285.62 1707.23,1271.11 1684.93,1256.59 1662.72,1242.08 1640.59,1227.57 
  1618.56,1213.05 1596.61,1198.54 1574.75,1184.02 1552.99,1169.51 1531.31,1155 1509.69,1140.48 1488.2,1125.97 1466.79,1111.46 1445.46,1096.94 1424.23,1082.43 
  1403.06,1067.92 1381.99,1053.4 1361.01,1038.89 1340.11,1024.38 1319.29,1009.86 1298.57,995.349 1277.92,980.835 1257.36,966.322 1236.94,951.808 1216.52,937.295 
  1196.2,922.781 1175.97,908.268 1155.84,893.754 1135.8,879.241 1115.86,864.727 1095.91,850.214 1076.1,835.7 1056.38,821.187 1036.73,806.673 1017.17,792.16 
  997.693,777.646 978.295,763.132 958.979,748.619 939.745,734.105 920.592,719.592 901.52,705.078 882.529,690.565 863.619,676.051 844.73,661.538 825.969,647.024 
  807.287,632.511 788.683,617.997 770.158,603.484 751.71,588.97 733.341,574.457 715.049,559.943 696.835,545.429 678.697,530.916 660.636,516.402 642.652,501.889 
  624.745,487.375 606.913,472.862 589.157,458.348 571.477,443.835 553.873,429.321 536.343,414.808 518.888,400.294 501.508,385.781 484.203,371.267 466.971,356.754 
  449.814,342.24 432.73,327.727 415.72,313.213 398.783,298.699 381.919,284.186 365.128,269.672 348.408,255.159 331.761,240.645 315.186,226.132 298.682,211.618 
  282.25,197.105 
  "/>
<path clip-path="url(#clip280)" d="
M1478.51 358.817 L1834.62 358.817 L1834.62 203.297 L1478.51 203.297  Z
  " fill="#ffffff" fill-rule="evenodd" fill-opacity="1"/>
<polyline clip-path="url(#clip280)" style="stroke:#000000; stroke-linecap:butt; stroke-linejoin:round; stroke-width:4; stroke-opacity:1; fill:none" points="
  1478.51,358.817 1834.62,358.817 1834.62,203.297 1478.51,203.297 1478.51,358.817 
  "/>
<polyline clip-path="url(#clip280)" style="stroke:#009af9; stroke-linecap:butt; stroke-linejoin:round; stroke-width:4; stroke-opacity:1; fill:none" points="
  1496.9,255.137 1607.18,255.137 
  "/>
<path clip-path="url(#clip280)" d="M1646.07 247.487 L1646.07 251.468 Q1644.27 250.473 1642.44 249.987 Q1640.63 249.477 1638.78 249.477 Q1634.64 249.477 1632.35 252.116 Q1630.06 254.732 1630.06 259.477 Q1630.06 264.223 1632.35 266.862 Q1634.64 269.477 1638.78 269.477 Q1640.63 269.477 1642.44 268.991 Q1644.27 268.482 1646.07 267.487 L1646.07 271.422 Q1644.29 272.255 1642.37 272.672 Q1640.47 273.088 1638.32 273.088 Q1632.46 273.088 1629.01 269.408 Q1625.57 265.727 1625.57 259.477 Q1625.57 253.135 1629.04 249.501 Q1632.53 245.866 1638.6 245.866 Q1640.57 245.866 1642.44 246.283 Q1644.32 246.677 1646.07 247.487 Z" fill="#000000" fill-rule="evenodd" fill-opacity="1" /><path clip-path="url(#clip280)" d="M1675.66 258.389 L1675.66 260.473 L1656.07 260.473 Q1656.35 264.871 1658.71 267.186 Q1661.1 269.477 1665.33 269.477 Q1667.79 269.477 1670.08 268.876 Q1672.39 268.274 1674.66 267.07 L1674.66 271.098 Q1672.37 272.07 1669.96 272.579 Q1667.56 273.088 1665.08 273.088 Q1658.88 273.088 1655.24 269.477 Q1651.63 265.866 1651.63 259.709 Q1651.63 253.343 1655.06 249.616 Q1658.51 245.866 1664.34 245.866 Q1669.57 245.866 1672.6 249.246 Q1675.66 252.602 1675.66 258.389 M1671.4 257.139 Q1671.35 253.644 1669.43 251.561 Q1667.53 249.477 1664.38 249.477 Q1660.82 249.477 1658.67 251.491 Q1656.54 253.505 1656.21 257.163 L1671.4 257.139 Z" fill="#000000" fill-rule="evenodd" fill-opacity="1" /><path clip-path="url(#clip280)" d="M1704.2 256.769 L1704.2 272.417 L1699.94 272.417 L1699.94 256.908 Q1699.94 253.227 1698.5 251.399 Q1697.07 249.57 1694.2 249.57 Q1690.75 249.57 1688.76 251.769 Q1686.77 253.968 1686.77 257.764 L1686.77 272.417 L1682.49 272.417 L1682.49 246.491 L1686.77 246.491 L1686.77 250.519 Q1688.3 248.181 1690.36 247.024 Q1692.44 245.866 1695.15 245.866 Q1699.62 245.866 1701.91 248.644 Q1704.2 251.399 1704.2 256.769 Z" fill="#000000" fill-rule="evenodd" fill-opacity="1" /><path clip-path="url(#clip280)" d="M1716.91 239.13 L1716.91 246.491 L1725.68 246.491 L1725.68 249.802 L1716.91 249.802 L1716.91 263.876 Q1716.91 267.047 1717.76 267.95 Q1718.64 268.852 1721.31 268.852 L1725.68 268.852 L1725.68 272.417 L1721.31 272.417 Q1716.38 272.417 1714.5 270.588 Q1712.63 268.737 1712.63 263.876 L1712.63 249.802 L1709.5 249.802 L1709.5 246.491 L1712.63 246.491 L1712.63 239.13 L1716.91 239.13 Z" fill="#000000" fill-rule="evenodd" fill-opacity="1" /><path clip-path="url(#clip280)" d="M1753.46 258.389 L1753.46 260.473 L1733.88 260.473 Q1734.15 264.871 1736.51 267.186 Q1738.9 269.477 1743.13 269.477 Q1745.59 269.477 1747.88 268.876 Q1750.19 268.274 1752.46 267.07 L1752.46 271.098 Q1750.17 272.07 1747.76 272.579 Q1745.36 273.088 1742.88 273.088 Q1736.68 273.088 1733.04 269.477 Q1729.43 265.866 1729.43 259.709 Q1729.43 253.343 1732.86 249.616 Q1736.31 245.866 1742.14 245.866 Q1747.37 245.866 1750.4 249.246 Q1753.46 252.602 1753.46 258.389 M1749.2 257.139 Q1749.15 253.644 1747.23 251.561 Q1745.33 249.477 1742.19 249.477 Q1738.62 249.477 1736.47 251.491 Q1734.34 253.505 1734.01 257.163 L1749.2 257.139 Z" fill="#000000" fill-rule="evenodd" fill-opacity="1" /><path clip-path="url(#clip280)" d="M1775.47 250.473 Q1774.75 250.056 1773.9 249.871 Q1773.06 249.663 1772.05 249.663 Q1768.44 249.663 1766.49 252.024 Q1764.57 254.362 1764.57 258.76 L1764.57 272.417 L1760.29 272.417 L1760.29 246.491 L1764.57 246.491 L1764.57 250.519 Q1765.91 248.158 1768.06 247.024 Q1770.22 245.866 1773.3 245.866 Q1773.74 245.866 1774.27 245.936 Q1774.8 245.982 1775.45 246.098 L1775.47 250.473 Z" fill="#000000" fill-rule="evenodd" fill-opacity="1" /><path clip-path="url(#clip280)" d="M1796.47 247.255 L1796.47 251.283 Q1794.66 250.357 1792.72 249.894 Q1790.77 249.431 1788.69 249.431 Q1785.52 249.431 1783.92 250.403 Q1782.35 251.376 1782.35 253.32 Q1782.35 254.802 1783.48 255.658 Q1784.62 256.491 1788.04 257.255 L1789.5 257.579 Q1794.04 258.552 1795.94 260.334 Q1797.86 262.093 1797.86 265.264 Q1797.86 268.876 1794.99 270.982 Q1792.14 273.088 1787.14 273.088 Q1785.06 273.088 1782.79 272.672 Q1780.54 272.278 1778.04 271.468 L1778.04 267.07 Q1780.4 268.297 1782.69 268.922 Q1784.99 269.524 1787.23 269.524 Q1790.24 269.524 1791.86 268.505 Q1793.48 267.463 1793.48 265.589 Q1793.48 263.852 1792.3 262.926 Q1791.14 262.001 1787.19 261.144 L1785.7 260.797 Q1781.75 259.964 1779.99 258.251 Q1778.23 256.514 1778.23 253.505 Q1778.23 249.848 1780.82 247.857 Q1783.41 245.866 1788.18 245.866 Q1790.54 245.866 1792.62 246.214 Q1794.71 246.561 1796.47 247.255 Z" fill="#000000" fill-rule="evenodd" fill-opacity="1" /><polyline clip-path="url(#clip280)" style="stroke:#e26f46; stroke-linecap:butt; stroke-linejoin:round; stroke-width:4; stroke-opacity:1; fill:none" points="
  1496.9,306.977 1607.18,306.977 
  "/>
<path clip-path="url(#clip280)" d="M1642.07 288.239 L1642.07 291.78 L1638 291.78 Q1635.7 291.78 1634.8 292.706 Q1633.92 293.632 1633.92 296.04 L1633.92 298.331 L1640.94 298.331 L1640.94 301.642 L1633.92 301.642 L1633.92 324.257 L1629.64 324.257 L1629.64 301.642 L1625.57 301.642 L1625.57 298.331 L1629.64 298.331 L1629.64 296.526 Q1629.64 292.197 1631.65 290.23 Q1633.67 288.239 1638.04 288.239 L1642.07 288.239 Z" fill="#000000" fill-rule="evenodd" fill-opacity="1" /><path clip-path="url(#clip280)" d="M1657.42 311.225 Q1652.26 311.225 1650.26 312.405 Q1648.27 313.586 1648.27 316.433 Q1648.27 318.702 1649.76 320.044 Q1651.26 321.364 1653.83 321.364 Q1657.37 321.364 1659.5 318.864 Q1661.65 316.341 1661.65 312.174 L1661.65 311.225 L1657.42 311.225 M1665.91 309.466 L1665.91 324.257 L1661.65 324.257 L1661.65 320.322 Q1660.2 322.683 1658.02 323.817 Q1655.84 324.928 1652.7 324.928 Q1648.71 324.928 1646.35 322.706 Q1644.01 320.461 1644.01 316.711 Q1644.01 312.336 1646.93 310.114 Q1649.87 307.892 1655.68 307.892 L1661.65 307.892 L1661.65 307.475 Q1661.65 304.535 1659.71 302.938 Q1657.79 301.317 1654.29 301.317 Q1652.07 301.317 1649.96 301.85 Q1647.86 302.382 1645.91 303.447 L1645.91 299.512 Q1648.25 298.609 1650.45 298.169 Q1652.65 297.706 1654.73 297.706 Q1660.36 297.706 1663.13 300.623 Q1665.91 303.54 1665.91 309.466 Z" fill="#000000" fill-rule="evenodd" fill-opacity="1" /><path clip-path="url(#clip280)" d="M1693.34 299.327 L1693.34 303.308 Q1691.54 302.313 1689.71 301.827 Q1687.9 301.317 1686.05 301.317 Q1681.91 301.317 1679.62 303.956 Q1677.32 306.572 1677.32 311.317 Q1677.32 316.063 1679.62 318.702 Q1681.91 321.317 1686.05 321.317 Q1687.9 321.317 1689.71 320.831 Q1691.54 320.322 1693.34 319.327 L1693.34 323.262 Q1691.56 324.095 1689.64 324.512 Q1687.74 324.928 1685.59 324.928 Q1679.73 324.928 1676.28 321.248 Q1672.83 317.567 1672.83 311.317 Q1672.83 304.975 1676.31 301.341 Q1679.8 297.706 1685.87 297.706 Q1687.83 297.706 1689.71 298.123 Q1691.58 298.517 1693.34 299.327 Z" fill="#000000" fill-rule="evenodd" fill-opacity="1" /><path clip-path="url(#clip280)" d="M1722.93 310.229 L1722.93 312.313 L1703.34 312.313 Q1703.62 316.711 1705.98 319.026 Q1708.37 321.317 1712.6 321.317 Q1715.06 321.317 1717.35 320.716 Q1719.66 320.114 1721.93 318.91 L1721.93 322.938 Q1719.64 323.91 1717.23 324.419 Q1714.82 324.928 1712.35 324.928 Q1706.14 324.928 1702.51 321.317 Q1698.9 317.706 1698.9 311.549 Q1698.9 305.183 1702.32 301.456 Q1705.77 297.706 1711.61 297.706 Q1716.84 297.706 1719.87 301.086 Q1722.93 304.442 1722.93 310.229 M1718.67 308.979 Q1718.62 305.484 1716.7 303.401 Q1714.8 301.317 1711.65 301.317 Q1708.09 301.317 1705.94 303.331 Q1703.81 305.345 1703.48 309.003 L1718.67 308.979 Z" fill="#000000" fill-rule="evenodd" fill-opacity="1" /><path clip-path="url(#clip280)" d="M1746.44 299.095 L1746.44 303.123 Q1744.64 302.197 1742.69 301.734 Q1740.75 301.271 1738.67 301.271 Q1735.5 301.271 1733.9 302.243 Q1732.32 303.216 1732.32 305.16 Q1732.32 306.642 1733.46 307.498 Q1734.59 308.331 1738.02 309.095 L1739.48 309.419 Q1744.01 310.392 1745.91 312.174 Q1747.83 313.933 1747.83 317.104 Q1747.83 320.716 1744.96 322.822 Q1742.12 324.928 1737.12 324.928 Q1735.03 324.928 1732.76 324.512 Q1730.52 324.118 1728.02 323.308 L1728.02 318.91 Q1730.38 320.137 1732.67 320.762 Q1734.96 321.364 1737.21 321.364 Q1740.22 321.364 1741.84 320.345 Q1743.46 319.303 1743.46 317.429 Q1743.46 315.692 1742.28 314.766 Q1741.12 313.841 1737.16 312.984 L1735.68 312.637 Q1731.72 311.804 1729.96 310.091 Q1728.2 308.354 1728.2 305.345 Q1728.2 301.688 1730.8 299.697 Q1733.39 297.706 1738.16 297.706 Q1740.52 297.706 1742.6 298.054 Q1744.69 298.401 1746.44 299.095 Z" fill="#000000" fill-rule="evenodd" fill-opacity="1" /><path clip-path="url(#clip280)" d="
M2235.43 1393.02 L3889.76 1393.02 L3889.76 162.272 L2235.43 162.272  Z
  " fill="#ffffff" fill-rule="evenodd" fill-opacity="1"/>
<defs>
  <clipPath id="clip283">
    <rect x="2235" y="162" width="1655" height="1232"/>
  </clipPath>
</defs>
<polyline clip-path="url(#clip283)" style="stroke:#000000; stroke-linecap:butt; stroke-linejoin:round; stroke-width:2; stroke-opacity:0.1; fill:none" points="
  2542.15,1393.02 2542.15,162.272 
  "/>
<polyline clip-path="url(#clip283)" style="stroke:#000000; stroke-linecap:butt; stroke-linejoin:round; stroke-width:2; stroke-opacity:0.1; fill:none" points="
  2954.57,1393.02 2954.57,162.272 
  "/>
<polyline clip-path="url(#clip283)" style="stroke:#000000; stroke-linecap:butt; stroke-linejoin:round; stroke-width:2; stroke-opacity:0.1; fill:none" points="
  3367,1393.02 3367,162.272 
  "/>
<polyline clip-path="url(#clip283)" style="stroke:#000000; stroke-linecap:butt; stroke-linejoin:round; stroke-width:2; stroke-opacity:0.1; fill:none" points="
  3779.43,1393.02 3779.43,162.272 
  "/>
<polyline clip-path="url(#clip280)" style="stroke:#000000; stroke-linecap:butt; stroke-linejoin:round; stroke-width:4; stroke-opacity:1; fill:none" points="
  2235.43,1393.02 3889.76,1393.02 
  "/>
<polyline clip-path="url(#clip280)" style="stroke:#000000; stroke-linecap:butt; stroke-linejoin:round; stroke-width:4; stroke-opacity:1; fill:none" points="
  2542.15,1393.02 2542.15,1374.12 
  "/>
<polyline clip-path="url(#clip280)" style="stroke:#000000; stroke-linecap:butt; stroke-linejoin:round; stroke-width:4; stroke-opacity:1; fill:none" points="
  2954.57,1393.02 2954.57,1374.12 
  "/>
<polyline clip-path="url(#clip280)" style="stroke:#000000; stroke-linecap:butt; stroke-linejoin:round; stroke-width:4; stroke-opacity:1; fill:none" points="
  3367,1393.02 3367,1374.12 
  "/>
<polyline clip-path="url(#clip280)" style="stroke:#000000; stroke-linecap:butt; stroke-linejoin:round; stroke-width:4; stroke-opacity:1; fill:none" points="
  3779.43,1393.02 3779.43,1374.12 
  "/>
<path clip-path="url(#clip280)" d="M2515.5 1433.66 L2537.72 1433.66 L2537.72 1435.65 L2525.18 1468.22 L2520.29 1468.22 L2532.1 1437.59 L2515.5 1437.59 L2515.5 1433.66 Z" fill="#000000" fill-rule="evenodd" fill-opacity="1" /><path clip-path="url(#clip280)" d="M2556.84 1436.74 Q2553.23 1436.74 2551.4 1440.3 Q2549.6 1443.84 2549.6 1450.97 Q2549.6 1458.08 2551.4 1461.65 Q2553.23 1465.19 2556.84 1465.19 Q2560.48 1465.19 2562.28 1461.65 Q2564.11 1458.08 2564.11 1450.97 Q2564.11 1443.84 2562.28 1440.3 Q2560.48 1436.74 2556.84 1436.74 M2556.84 1433.03 Q2562.65 1433.03 2565.71 1437.64 Q2568.79 1442.22 2568.79 1450.97 Q2568.79 1459.7 2565.71 1464.31 Q2562.65 1468.89 2556.84 1468.89 Q2551.03 1468.89 2547.96 1464.31 Q2544.9 1459.7 2544.9 1450.97 Q2544.9 1442.22 2547.96 1437.64 Q2551.03 1433.03 2556.84 1433.03 Z" fill="#000000" fill-rule="evenodd" fill-opacity="1" /><path clip-path="url(#clip280)" d="M2939.45 1451.81 Q2936.11 1451.81 2934.19 1453.59 Q2932.29 1455.37 2932.29 1458.5 Q2932.29 1461.62 2934.19 1463.4 Q2936.11 1465.19 2939.45 1465.19 Q2942.78 1465.19 2944.7 1463.4 Q2946.62 1461.6 2946.62 1458.5 Q2946.62 1455.37 2944.7 1453.59 Q2942.8 1451.81 2939.45 1451.81 M2934.77 1449.82 Q2931.76 1449.08 2930.07 1447.02 Q2928.4 1444.96 2928.4 1441.99 Q2928.4 1437.85 2931.34 1435.44 Q2934.31 1433.03 2939.45 1433.03 Q2944.61 1433.03 2947.55 1435.44 Q2950.49 1437.85 2950.49 1441.99 Q2950.49 1444.96 2948.8 1447.02 Q2947.13 1449.08 2944.14 1449.82 Q2947.52 1450.6 2949.4 1452.9 Q2951.3 1455.19 2951.3 1458.5 Q2951.3 1463.52 2948.22 1466.21 Q2945.16 1468.89 2939.45 1468.89 Q2933.73 1468.89 2930.65 1466.21 Q2927.59 1463.52 2927.59 1458.5 Q2927.59 1455.19 2929.49 1452.9 Q2931.39 1450.6 2934.77 1449.82 M2933.06 1442.43 Q2933.06 1445.12 2934.72 1446.62 Q2936.41 1448.13 2939.45 1448.13 Q2942.46 1448.13 2944.14 1446.62 Q2945.86 1445.12 2945.86 1442.43 Q2945.86 1439.75 2944.14 1438.24 Q2942.46 1436.74 2939.45 1436.74 Q2936.41 1436.74 2934.72 1438.24 Q2933.06 1439.75 2933.06 1442.43 Z" fill="#000000" fill-rule="evenodd" fill-opacity="1" /><path clip-path="url(#clip280)" d="M2969.61 1436.74 Q2966 1436.74 2964.17 1440.3 Q2962.36 1443.84 2962.36 1450.97 Q2962.36 1458.08 2964.17 1461.65 Q2966 1465.19 2969.61 1465.19 Q2973.24 1465.19 2975.05 1461.65 Q2976.88 1458.08 2976.88 1450.97 Q2976.88 1443.84 2975.05 1440.3 Q2973.24 1436.74 2969.61 1436.74 M2969.61 1433.03 Q2975.42 1433.03 2978.47 1437.64 Q2981.55 1442.22 2981.55 1450.97 Q2981.55 1459.7 2978.47 1464.31 Q2975.42 1468.89 2969.61 1468.89 Q2963.8 1468.89 2960.72 1464.31 Q2957.66 1459.7 2957.66 1450.97 Q2957.66 1442.22 2960.72 1437.64 Q2963.8 1433.03 2969.61 1433.03 Z" fill="#000000" fill-rule="evenodd" fill-opacity="1" /><path clip-path="url(#clip280)" d="M3342.13 1467.5 L3342.13 1463.24 Q3343.89 1464.08 3345.69 1464.52 Q3347.5 1464.96 3349.23 1464.96 Q3353.86 1464.96 3356.3 1461.85 Q3358.75 1458.73 3359.1 1452.39 Q3357.75 1454.38 3355.69 1455.44 Q3353.63 1456.51 3351.13 1456.51 Q3345.95 1456.51 3342.92 1453.38 Q3339.91 1450.23 3339.91 1444.79 Q3339.91 1439.47 3343.05 1436.25 Q3346.2 1433.03 3351.43 1433.03 Q3357.43 1433.03 3360.58 1437.64 Q3363.75 1442.22 3363.75 1450.97 Q3363.75 1459.15 3359.86 1464.03 Q3355.99 1468.89 3349.44 1468.89 Q3347.68 1468.89 3345.88 1468.54 Q3344.07 1468.2 3342.13 1467.5 M3351.43 1452.85 Q3354.58 1452.85 3356.41 1450.7 Q3358.26 1448.54 3358.26 1444.79 Q3358.26 1441.07 3356.41 1438.91 Q3354.58 1436.74 3351.43 1436.74 Q3348.29 1436.74 3346.43 1438.91 Q3344.61 1441.07 3344.61 1444.79 Q3344.61 1448.54 3346.43 1450.7 Q3348.29 1452.85 3351.43 1452.85 Z" fill="#000000" fill-rule="evenodd" fill-opacity="1" /><path clip-path="url(#clip280)" d="M3382.15 1436.74 Q3378.54 1436.74 3376.71 1440.3 Q3374.91 1443.84 3374.91 1450.97 Q3374.91 1458.08 3376.71 1461.65 Q3378.54 1465.19 3382.15 1465.19 Q3385.79 1465.19 3387.59 1461.65 Q3389.42 1458.08 3389.42 1450.97 Q3389.42 1443.84 3387.59 1440.3 Q3385.79 1436.74 3382.15 1436.74 M3382.15 1433.03 Q3387.96 1433.03 3391.02 1437.64 Q3394.1 1442.22 3394.1 1450.97 Q3394.1 1459.7 3391.02 1464.31 Q3387.96 1468.89 3382.15 1468.89 Q3376.34 1468.89 3373.26 1464.31 Q3370.21 1459.7 3370.21 1450.97 Q3370.21 1442.22 3373.26 1437.64 Q3376.34 1433.03 3382.15 1433.03 Z" fill="#000000" fill-rule="evenodd" fill-opacity="1" /><path clip-path="url(#clip280)" d="M3739.04 1464.28 L3746.67 1464.28 L3746.67 1437.92 L3738.36 1439.59 L3738.36 1435.33 L3746.63 1433.66 L3751.3 1433.66 L3751.3 1464.28 L3758.94 1464.28 L3758.94 1468.22 L3739.04 1468.22 L3739.04 1464.28 Z" fill="#000000" fill-rule="evenodd" fill-opacity="1" /><path clip-path="url(#clip280)" d="M3778.39 1436.74 Q3774.78 1436.74 3772.95 1440.3 Q3771.14 1443.84 3771.14 1450.97 Q3771.14 1458.08 3772.95 1461.65 Q3774.78 1465.19 3778.39 1465.19 Q3782.02 1465.19 3783.83 1461.65 Q3785.66 1458.08 3785.66 1450.97 Q3785.66 1443.84 3783.83 1440.3 Q3782.02 1436.74 3778.39 1436.74 M3778.39 1433.03 Q3784.2 1433.03 3787.25 1437.64 Q3790.33 1442.22 3790.33 1450.97 Q3790.33 1459.7 3787.25 1464.31 Q3784.2 1468.89 3778.39 1468.89 Q3772.58 1468.89 3769.5 1464.31 Q3766.44 1459.7 3766.44 1450.97 Q3766.44 1442.22 3769.5 1437.64 Q3772.58 1433.03 3778.39 1433.03 Z" fill="#000000" fill-rule="evenodd" fill-opacity="1" /><path clip-path="url(#clip280)" d="M3808.55 1436.74 Q3804.94 1436.74 3803.11 1440.3 Q3801.3 1443.84 3801.3 1450.97 Q3801.3 1458.08 3803.11 1461.65 Q3804.94 1465.19 3808.55 1465.19 Q3812.18 1465.19 3813.99 1461.65 Q3815.82 1458.08 3815.82 1450.97 Q3815.82 1443.84 3813.99 1440.3 Q3812.18 1436.74 3808.55 1436.74 M3808.55 1433.03 Q3814.36 1433.03 3817.41 1437.64 Q3820.49 1442.22 3820.49 1450.97 Q3820.49 1459.7 3817.41 1464.31 Q3814.36 1468.89 3808.55 1468.89 Q3802.74 1468.89 3799.66 1464.31 Q3796.6 1459.7 3796.6 1450.97 Q3796.6 1442.22 3799.66 1437.64 Q3802.74 1433.03 3808.55 1433.03 Z" fill="#000000" fill-rule="evenodd" fill-opacity="1" /><path clip-path="url(#clip280)" d="M2960.73 1556.54 L2960.73 1575.44 L2954.84 1575.44 L2954.84 1526.24 L2960.73 1526.24 L2960.73 1531.65 Q2962.58 1528.46 2965.38 1526.94 Q2968.21 1525.38 2972.12 1525.38 Q2978.62 1525.38 2982.66 1530.53 Q2986.73 1535.69 2986.73 1544.09 Q2986.73 1552.49 2982.66 1557.65 Q2978.62 1562.81 2972.12 1562.81 Q2968.21 1562.81 2965.38 1561.28 Q2962.58 1559.72 2960.73 1556.54 M2980.65 1544.09 Q2980.65 1537.63 2977.98 1533.97 Q2975.34 1530.28 2970.69 1530.28 Q2966.04 1530.28 2963.37 1533.97 Q2960.73 1537.63 2960.73 1544.09 Q2960.73 1550.55 2963.37 1554.24 Q2966.04 1557.91 2970.69 1557.91 Q2975.34 1557.91 2977.98 1554.24 Q2980.65 1550.55 2980.65 1544.09 Z" fill="#000000" fill-rule="evenodd" fill-opacity="1" /><path clip-path="url(#clip280)" d="M3031.23 1512.42 Q3026.96 1519.74 3024.9 1526.9 Q3022.83 1534.07 3022.83 1541.42 Q3022.83 1548.77 3024.9 1556 Q3027 1563.19 3031.23 1570.48 L3026.14 1570.48 Q3021.36 1563 3018.98 1555.77 Q3016.62 1548.55 3016.62 1541.42 Q3016.62 1534.32 3018.98 1527.13 Q3021.33 1519.93 3026.14 1512.42 L3031.23 1512.42 Z" fill="#000000" fill-rule="evenodd" fill-opacity="1" /><path clip-path="url(#clip280)" d="M3042.37 1512.36 L3048.26 1512.36 L3048.26 1541.61 L3065.73 1526.24 L3073.21 1526.24 L3054.31 1542.91 L3074.01 1561.88 L3066.37 1561.88 L3048.26 1544.47 L3048.26 1561.88 L3042.37 1561.88 L3042.37 1512.36 Z" fill="#000000" fill-rule="evenodd" fill-opacity="1" /><path clip-path="url(#clip280)" d="M3087.02 1519.65 L3087.02 1537.5 L3095.11 1537.5 Q3099.6 1537.5 3102.05 1535.18 Q3104.5 1532.86 3104.5 1528.56 Q3104.5 1524.29 3102.05 1521.97 Q3099.6 1519.65 3095.11 1519.65 L3087.02 1519.65 M3080.6 1514.36 L3095.11 1514.36 Q3103.1 1514.36 3107.17 1517.99 Q3111.28 1521.59 3111.28 1528.56 Q3111.28 1535.59 3107.17 1539.19 Q3103.1 1542.79 3095.11 1542.79 L3087.02 1542.79 L3087.02 1561.88 L3080.6 1561.88 L3080.6 1514.36 Z" fill="#000000" fill-rule="evenodd" fill-opacity="1" /><path clip-path="url(#clip280)" d="M3132.92 1543.96 Q3125.82 1543.96 3123.09 1545.59 Q3120.35 1547.21 3120.35 1551.13 Q3120.35 1554.24 3122.39 1556.09 Q3124.46 1557.91 3127.99 1557.91 Q3132.86 1557.91 3135.79 1554.47 Q3138.75 1551 3138.75 1545.27 L3138.75 1543.96 L3132.92 1543.96 M3144.6 1541.55 L3144.6 1561.88 L3138.75 1561.88 L3138.75 1556.47 Q3136.74 1559.72 3133.75 1561.28 Q3130.76 1562.81 3126.43 1562.81 Q3120.95 1562.81 3117.71 1559.75 Q3114.49 1556.66 3114.49 1551.51 Q3114.49 1545.49 3118.5 1542.44 Q3122.55 1539.38 3130.53 1539.38 L3138.75 1539.38 L3138.75 1538.81 Q3138.75 1534.77 3136.07 1532.57 Q3133.43 1530.34 3128.62 1530.34 Q3125.57 1530.34 3122.67 1531.07 Q3119.78 1531.81 3117.1 1533.27 L3117.1 1527.86 Q3120.32 1526.62 3123.34 1526.01 Q3126.37 1525.38 3129.23 1525.38 Q3136.96 1525.38 3140.78 1529.39 Q3144.6 1533.4 3144.6 1541.55 Z" fill="#000000" fill-rule="evenodd" fill-opacity="1" /><path clip-path="url(#clip280)" d="M3155.74 1512.42 L3160.84 1512.42 Q3165.61 1519.93 3167.96 1527.13 Q3170.35 1534.32 3170.35 1541.42 Q3170.35 1548.55 3167.96 1555.77 Q3165.61 1563 3160.84 1570.48 L3155.74 1570.48 Q3159.98 1563.19 3162.04 1556 Q3164.15 1548.77 3164.15 1541.42 Q3164.15 1534.07 3162.04 1526.9 Q3159.98 1519.74 3155.74 1512.42 Z" fill="#000000" fill-rule="evenodd" fill-opacity="1" /><polyline clip-path="url(#clip283)" style="stroke:#000000; stroke-linecap:butt; stroke-linejoin:round; stroke-width:2; stroke-opacity:0.1; fill:none" points="
  2235.43,1358.19 3889.76,1358.19 
  "/>
<polyline clip-path="url(#clip283)" style="stroke:#000000; stroke-linecap:butt; stroke-linejoin:round; stroke-width:2; stroke-opacity:0.1; fill:none" points="
  2235.43,1067.92 3889.76,1067.92 
  "/>
<polyline clip-path="url(#clip283)" style="stroke:#000000; stroke-linecap:butt; stroke-linejoin:round; stroke-width:2; stroke-opacity:0.1; fill:none" points="
  2235.43,777.646 3889.76,777.646 
  "/>
<polyline clip-path="url(#clip283)" style="stroke:#000000; stroke-linecap:butt; stroke-linejoin:round; stroke-width:2; stroke-opacity:0.1; fill:none" points="
  2235.43,487.375 3889.76,487.375 
  "/>
<polyline clip-path="url(#clip283)" style="stroke:#000000; stroke-linecap:butt; stroke-linejoin:round; stroke-width:2; stroke-opacity:0.1; fill:none" points="
  2235.43,197.105 3889.76,197.105 
  "/>
<polyline clip-path="url(#clip280)" style="stroke:#000000; stroke-linecap:butt; stroke-linejoin:round; stroke-width:4; stroke-opacity:1; fill:none" points="
  2235.43,1393.02 2235.43,162.272 
  "/>
<polyline clip-path="url(#clip280)" style="stroke:#000000; stroke-linecap:butt; stroke-linejoin:round; stroke-width:4; stroke-opacity:1; fill:none" points="
  2235.43,1358.19 2254.33,1358.19 
  "/>
<polyline clip-path="url(#clip280)" style="stroke:#000000; stroke-linecap:butt; stroke-linejoin:round; stroke-width:4; stroke-opacity:1; fill:none" points="
  2235.43,1067.92 2254.33,1067.92 
  "/>
<polyline clip-path="url(#clip280)" style="stroke:#000000; stroke-linecap:butt; stroke-linejoin:round; stroke-width:4; stroke-opacity:1; fill:none" points="
  2235.43,777.646 2254.33,777.646 
  "/>
<polyline clip-path="url(#clip280)" style="stroke:#000000; stroke-linecap:butt; stroke-linejoin:round; stroke-width:4; stroke-opacity:1; fill:none" points="
  2235.43,487.375 2254.33,487.375 
  "/>
<polyline clip-path="url(#clip280)" style="stroke:#000000; stroke-linecap:butt; stroke-linejoin:round; stroke-width:4; stroke-opacity:1; fill:none" points="
  2235.43,197.105 2254.33,197.105 
  "/>
<path clip-path="url(#clip280)" d="M2163.48 1343.99 Q2159.87 1343.99 2158.05 1347.55 Q2156.24 1351.09 2156.24 1358.22 Q2156.24 1365.33 2158.05 1368.89 Q2159.87 1372.43 2163.48 1372.43 Q2167.12 1372.43 2168.92 1368.89 Q2170.75 1365.33 2170.75 1358.22 Q2170.75 1351.09 2168.92 1347.55 Q2167.12 1343.99 2163.48 1343.99 M2163.48 1340.28 Q2169.3 1340.28 2172.35 1344.89 Q2175.43 1349.47 2175.43 1358.22 Q2175.43 1366.95 2172.35 1371.56 Q2169.3 1376.14 2163.48 1376.14 Q2157.67 1376.14 2154.6 1371.56 Q2151.54 1366.95 2151.54 1358.22 Q2151.54 1349.47 2154.6 1344.89 Q2157.67 1340.28 2163.48 1340.28 Z" fill="#000000" fill-rule="evenodd" fill-opacity="1" /><path clip-path="url(#clip280)" d="M2155.52 1081.26 L2163.16 1081.26 L2163.16 1054.9 L2154.85 1056.56 L2154.85 1052.3 L2163.11 1050.64 L2167.79 1050.64 L2167.79 1081.26 L2175.43 1081.26 L2175.43 1085.2 L2155.52 1085.2 L2155.52 1081.26 Z" fill="#000000" fill-rule="evenodd" fill-opacity="1" /><path clip-path="url(#clip280)" d="M2159.11 790.991 L2175.43 790.991 L2175.43 794.926 L2153.49 794.926 L2153.49 790.991 Q2156.15 788.236 2160.73 783.607 Q2165.34 778.954 2166.52 777.611 Q2168.76 775.088 2169.64 773.352 Q2170.55 771.593 2170.55 769.903 Q2170.55 767.148 2168.6 765.412 Q2166.68 763.676 2163.58 763.676 Q2161.38 763.676 2158.92 764.44 Q2156.49 765.204 2153.72 766.755 L2153.72 762.033 Q2156.54 760.898 2158.99 760.32 Q2161.45 759.741 2163.48 759.741 Q2168.86 759.741 2172.05 762.426 Q2175.24 765.111 2175.24 769.602 Q2175.24 771.732 2174.43 773.653 Q2173.65 775.551 2171.54 778.144 Q2170.96 778.815 2167.86 782.033 Q2164.76 785.227 2159.11 790.991 Z" fill="#000000" fill-rule="evenodd" fill-opacity="1" /><path clip-path="url(#clip280)" d="M2168.3 486.021 Q2171.66 486.739 2173.53 489.007 Q2175.43 491.276 2175.43 494.609 Q2175.43 499.725 2171.91 502.526 Q2168.39 505.327 2161.91 505.327 Q2159.73 505.327 2157.42 504.887 Q2155.13 504.47 2152.67 503.614 L2152.67 499.1 Q2154.62 500.234 2156.93 500.813 Q2159.25 501.391 2161.77 501.391 Q2166.17 501.391 2168.46 499.655 Q2170.78 497.919 2170.78 494.609 Q2170.78 491.554 2168.62 489.841 Q2166.49 488.105 2162.67 488.105 L2158.65 488.105 L2158.65 484.262 L2162.86 484.262 Q2166.31 484.262 2168.14 482.896 Q2169.97 481.507 2169.97 478.915 Q2169.97 476.253 2168.07 474.841 Q2166.19 473.406 2162.67 473.406 Q2160.75 473.406 2158.55 473.822 Q2156.36 474.239 2153.72 475.118 L2153.72 470.952 Q2156.38 470.211 2158.69 469.841 Q2161.03 469.47 2163.09 469.47 Q2168.42 469.47 2171.52 471.901 Q2174.62 474.308 2174.62 478.429 Q2174.62 481.299 2172.98 483.29 Q2171.33 485.257 2168.3 486.021 Z" fill="#000000" fill-rule="evenodd" fill-opacity="1" /><path clip-path="url(#clip280)" d="M2165.85 183.899 L2154.04 202.348 L2165.85 202.348 L2165.85 183.899 M2164.62 179.825 L2170.5 179.825 L2170.5 202.348 L2175.43 202.348 L2175.43 206.237 L2170.5 206.237 L2170.5 214.385 L2165.85 214.385 L2165.85 206.237 L2150.24 206.237 L2150.24 201.723 L2164.62 179.825 Z" fill="#000000" fill-rule="evenodd" fill-opacity="1" /><path clip-path="url(#clip280)" d="M2040.34 876.171 L2040.34 848.353 L2045.69 848.353 L2071.31 870.378 L2071.31 848.353 L2075.99 848.353 L2075.99 876.967 L2070.64 876.967 L2045.02 854.942 L2045.02 876.171 L2040.34 876.171 Z" fill="#000000" fill-rule="evenodd" fill-opacity="1" /><path clip-path="url(#clip280)" d="M2026.53 804.621 Q2033.85 808.886 2041.01 810.955 Q2048.17 813.023 2055.52 813.023 Q2062.87 813.023 2070.1 810.955 Q2077.29 808.854 2084.58 804.621 L2084.58 809.713 Q2077.1 814.488 2069.88 816.875 Q2062.65 819.23 2055.52 819.23 Q2048.42 819.23 2041.23 816.875 Q2034.04 814.519 2026.53 809.713 L2026.53 804.621 Z" fill="#000000" fill-rule="evenodd" fill-opacity="1" /><path clip-path="url(#clip280)" d="M2026.46 793.481 L2026.46 787.592 L2055.71 787.592 L2040.34 770.119 L2040.34 762.639 L2057.02 781.545 L2075.99 761.843 L2075.99 769.482 L2058.58 787.592 L2075.99 787.592 L2075.99 793.481 L2026.46 793.481 Z" fill="#000000" fill-rule="evenodd" fill-opacity="1" /><path clip-path="url(#clip280)" d="M2047.18 727.755 Q2043.24 725.559 2041.36 722.503 Q2039.48 719.448 2039.48 715.31 Q2039.48 709.74 2043.4 706.716 Q2047.28 703.692 2054.47 703.692 L2075.99 703.692 L2075.99 709.581 L2054.66 709.581 Q2049.54 709.581 2047.06 711.395 Q2044.57 713.209 2044.57 716.933 Q2044.57 721.485 2047.6 724.126 Q2050.62 726.768 2055.84 726.768 L2075.99 726.768 L2075.99 732.656 L2054.66 732.656 Q2049.51 732.656 2047.06 734.471 Q2044.57 736.285 2044.57 740.072 Q2044.57 744.56 2047.63 747.202 Q2050.65 749.844 2055.84 749.844 L2075.99 749.844 L2075.99 755.732 L2040.34 755.732 L2040.34 749.844 L2045.88 749.844 Q2042.6 747.839 2041.04 745.038 Q2039.48 742.237 2039.48 738.385 Q2039.48 734.502 2041.45 731.797 Q2043.43 729.06 2047.18 727.755 Z" fill="#000000" fill-rule="evenodd" fill-opacity="1" /><path clip-path="url(#clip280)" d="M2026.53 692.934 L2026.53 687.842 Q2034.04 683.067 2041.23 680.712 Q2048.42 678.325 2055.52 678.325 Q2062.65 678.325 2069.88 680.712 Q2077.1 683.067 2084.58 687.842 L2084.58 692.934 Q2077.29 688.701 2070.1 686.632 Q2062.87 684.532 2055.52 684.532 Q2048.17 684.532 2041.01 686.632 Q2033.85 688.701 2026.53 692.934 Z" fill="#000000" fill-rule="evenodd" fill-opacity="1" /><path clip-path="url(#clip280)" d="M2932.95 65.7705 L2932.95 89.8329 L2925.45 89.8329 L2925.45 27.2059 L2932.95 27.2059 L2932.95 34.0924 Q2935.3 30.0415 2938.86 28.0971 Q2942.47 26.1121 2947.45 26.1121 Q2955.71 26.1121 2960.86 32.6746 Q2966.04 39.2371 2966.04 49.9314 Q2966.04 60.6258 2960.86 67.1883 Q2955.71 73.7508 2947.45 73.7508 Q2942.47 73.7508 2938.86 71.8063 Q2935.3 69.8214 2932.95 65.7705 M2958.31 49.9314 Q2958.31 41.7081 2954.9 37.0496 Q2951.54 32.3505 2945.63 32.3505 Q2939.71 32.3505 2936.31 37.0496 Q2932.95 41.7081 2932.95 49.9314 Q2932.95 58.1548 2936.31 62.8538 Q2939.71 67.5124 2945.63 67.5124 Q2951.54 67.5124 2954.9 62.8538 Q2958.31 58.1548 2958.31 49.9314 Z" fill="#000000" fill-rule="evenodd" fill-opacity="1" /><path clip-path="url(#clip280)" d="M3022.67 9.62495 Q3017.25 18.942 3014.61 28.0566 Q3011.98 37.1711 3011.98 46.5287 Q3011.98 55.8863 3014.61 65.0818 Q3017.29 74.2369 3022.67 83.5134 L3016.19 83.5134 Q3010.12 73.9938 3007.08 64.7983 Q3004.08 55.6027 3004.08 46.5287 Q3004.08 37.4952 3007.08 28.3401 Q3010.08 19.1851 3016.19 9.62495 L3022.67 9.62495 Z" fill="#000000" fill-rule="evenodd" fill-opacity="1" /><path clip-path="url(#clip280)" d="M3036.85 9.54393 L3044.35 9.54393 L3044.35 46.7717 L3066.59 27.2059 L3076.11 27.2059 L3052.04 48.4326 L3077.12 72.576 L3067.4 72.576 L3044.35 50.4176 L3044.35 72.576 L3036.85 72.576 L3036.85 9.54393 Z" fill="#000000" fill-rule="evenodd" fill-opacity="1" /><path clip-path="url(#clip280)" d="M3093.69 18.8205 L3093.69 41.5461 L3103.98 41.5461 Q3109.69 41.5461 3112.81 38.5889 Q3115.93 35.6318 3115.93 30.163 Q3115.93 24.7348 3112.81 21.7777 Q3109.69 18.8205 3103.98 18.8205 L3093.69 18.8205 M3085.5 12.096 L3103.98 12.096 Q3114.14 12.096 3119.33 16.714 Q3124.56 21.2916 3124.56 30.163 Q3124.56 39.1155 3119.33 43.6931 Q3114.14 48.2706 3103.98 48.2706 L3093.69 48.2706 L3093.69 72.576 L3085.5 72.576 L3085.5 12.096 Z" fill="#000000" fill-rule="evenodd" fill-opacity="1" /><path clip-path="url(#clip280)" d="M3152.1 49.7694 Q3143.07 49.7694 3139.58 51.8354 Q3136.1 53.9013 3136.1 58.8839 Q3136.1 62.8538 3138.69 65.2034 Q3141.33 67.5124 3145.82 67.5124 Q3152.02 67.5124 3155.75 63.1374 Q3159.51 58.7219 3159.51 51.4303 L3159.51 49.7694 L3152.1 49.7694 M3166.97 46.6907 L3166.97 72.576 L3159.51 72.576 L3159.51 65.6895 Q3156.96 69.8214 3153.15 71.8063 Q3149.35 73.7508 3143.84 73.7508 Q3136.87 73.7508 3132.74 69.8619 Q3128.65 65.9325 3128.65 59.3701 Q3128.65 51.7138 3133.75 47.825 Q3138.9 43.9361 3149.06 43.9361 L3159.51 43.9361 L3159.51 43.2069 Q3159.51 38.0623 3156.11 35.2672 Q3152.75 32.4315 3146.63 32.4315 Q3142.74 32.4315 3139.06 33.3632 Q3135.37 34.295 3131.97 36.1584 L3131.97 29.2718 Q3136.06 27.692 3139.91 26.9223 Q3143.76 26.1121 3147.4 26.1121 Q3157.25 26.1121 3162.11 31.2163 Q3166.97 36.3204 3166.97 46.6907 Z" fill="#000000" fill-rule="evenodd" fill-opacity="1" /><path clip-path="url(#clip280)" d="M3181.15 9.62495 L3187.63 9.62495 Q3193.7 19.1851 3196.7 28.3401 Q3199.74 37.4952 3199.74 46.5287 Q3199.74 55.6027 3196.7 64.7983 Q3193.7 73.9938 3187.63 83.5134 L3181.15 83.5134 Q3186.53 74.2369 3189.17 65.0818 Q3191.84 55.8863 3191.84 46.5287 Q3191.84 37.1711 3189.17 28.0566 Q3186.53 18.942 3181.15 9.62495 Z" fill="#000000" fill-rule="evenodd" fill-opacity="1" /><polyline clip-path="url(#clip283)" style="stroke:#009af9; stroke-linecap:butt; stroke-linejoin:round; stroke-width:4; stroke-opacity:1; fill:none" points="
  3831.17,1350.93 3807.71,1336.42 3784.36,1321.9 3761.12,1307.39 3737.99,1292.88 3714.97,1278.36 3692.07,1263.85 3669.27,1249.34 3646.59,1234.82 3624.01,1220.31 
  3601.54,1205.8 3579.18,1191.28 3556.93,1176.77 3534.79,1162.25 3512.75,1147.74 3490.82,1133.23 3469,1118.71 3447.28,1104.2 3425.67,1089.69 3404.16,1075.17 
  3382.76,1060.66 3361.46,1046.15 3340.26,1031.63 3319.17,1017.12 3298.18,1002.61 3277.29,988.092 3256.5,973.579 3235.82,959.065 3215.24,944.552 3194.76,930.038 
  3174.37,915.525 3154.09,901.011 3133.91,886.497 3113.82,871.984 3093.84,857.47 3073.95,842.957 3054.16,828.443 3034.47,813.93 3014.88,799.416 2995.38,784.903 
  2975.98,770.389 2956.67,755.876 2937.46,741.362 2918.34,726.849 2899.32,712.335 2880.4,697.822 2861.56,683.308 2842.82,668.794 2824.18,654.281 2805.62,639.767 
  2787.16,625.254 2768.79,610.74 2750.51,596.227 2732.33,581.713 2714.23,567.2 2696.22,552.686 2678.31,538.173 2660.48,523.659 2642.74,509.146 2625.09,494.632 
  2607.53,480.119 2590.06,465.605 2572.68,451.092 2555.38,436.578 2538.17,422.064 2521.04,407.551 2504.01,393.037 2487.06,378.524 2470.19,364.01 2453.41,349.497 
  2436.71,334.983 2420.1,320.47 2403.57,305.956 2387.13,291.443 2370.76,276.929 2354.49,262.416 2338.29,247.902 2322.18,233.389 2306.15,218.875 2290.19,204.361 
  
  "/>
<polyline clip-path="url(#clip283)" style="stroke:#e26f46; stroke-linecap:butt; stroke-linejoin:round; stroke-width:4; stroke-opacity:1; fill:none" points="
  3842.94,1358.19 3819.42,1343.67 3796.02,1329.16 3772.72,1314.65 3749.54,1300.13 3726.47,1285.62 3703.51,1271.11 3680.66,1256.59 3657.92,1242.08 3635.29,1227.57 
  3612.76,1213.05 3590.35,1198.54 3568.05,1184.02 3545.85,1169.51 3523.76,1155 3501.77,1140.48 3479.9,1125.97 3458.13,1111.46 3436.46,1096.94 3414.9,1082.43 
  3393.44,1067.92 3372.09,1053.4 3350.85,1038.89 3329.7,1024.38 3308.66,1009.86 3287.72,995.349 3266.88,980.835 3246.15,966.322 3225.52,951.808 3204.98,937.295 
  3184.55,922.781 3164.22,908.268 3143.99,893.754 3123.85,879.241 3103.82,864.727 3083.88,850.214 3064.05,835.7 3044.3,821.187 3024.66,806.673 3005.12,792.16 
  2985.67,777.646 2966.31,763.132 2947.05,748.619 2927.89,734.105 2908.82,719.592 2889.85,705.078 2870.97,690.565 2852.18,676.051 2833.49,661.538 2814.89,647.024 
  2796.38,632.511 2777.96,617.997 2759.64,603.484 2741.41,588.97 2723.27,574.457 2705.21,559.943 2687.25,545.429 2669.38,530.916 2651.6,516.402 2633.91,501.889 
  2616.3,487.375 2598.79,472.862 2581.36,458.348 2564.02,443.835 2546.76,429.321 2529.6,414.808 2512.51,400.294 2495.52,385.781 2478.61,371.267 2461.79,356.754 
  2445.05,342.24 2428.39,327.727 2411.82,313.213 2395.34,298.699 2378.93,284.186 2362.62,269.672 2346.38,255.159 2330.22,240.645 2314.15,226.132 2298.16,211.618 
  2282.25,197.105 
  "/>
<path clip-path="url(#clip280)" d="
M3478.51 358.817 L3834.62 358.817 L3834.62 203.297 L3478.51 203.297  Z
  " fill="#ffffff" fill-rule="evenodd" fill-opacity="1"/>
<polyline clip-path="url(#clip280)" style="stroke:#000000; stroke-linecap:butt; stroke-linejoin:round; stroke-width:4; stroke-opacity:1; fill:none" points="
  3478.51,358.817 3834.62,358.817 3834.62,203.297 3478.51,203.297 3478.51,358.817 
  "/>
<polyline clip-path="url(#clip280)" style="stroke:#009af9; stroke-linecap:butt; stroke-linejoin:round; stroke-width:4; stroke-opacity:1; fill:none" points="
  3496.9,255.137 3607.18,255.137 
  "/>
<path clip-path="url(#clip280)" d="M3646.07 247.487 L3646.07 251.468 Q3644.27 250.473 3642.44 249.987 Q3640.63 249.477 3638.78 249.477 Q3634.64 249.477 3632.35 252.116 Q3630.06 254.732 3630.06 259.477 Q3630.06 264.223 3632.35 266.862 Q3634.64 269.477 3638.78 269.477 Q3640.63 269.477 3642.44 268.991 Q3644.27 268.482 3646.07 267.487 L3646.07 271.422 Q3644.29 272.255 3642.37 272.672 Q3640.47 273.088 3638.32 273.088 Q3632.46 273.088 3629.01 269.408 Q3625.57 265.727 3625.57 259.477 Q3625.57 253.135 3629.04 249.501 Q3632.53 245.866 3638.6 245.866 Q3640.57 245.866 3642.44 246.283 Q3644.32 246.677 3646.07 247.487 Z" fill="#000000" fill-rule="evenodd" fill-opacity="1" /><path clip-path="url(#clip280)" d="M3675.66 258.389 L3675.66 260.473 L3656.07 260.473 Q3656.35 264.871 3658.71 267.186 Q3661.1 269.477 3665.33 269.477 Q3667.79 269.477 3670.08 268.876 Q3672.39 268.274 3674.66 267.07 L3674.66 271.098 Q3672.37 272.07 3669.96 272.579 Q3667.56 273.088 3665.08 273.088 Q3658.88 273.088 3655.24 269.477 Q3651.63 265.866 3651.63 259.709 Q3651.63 253.343 3655.06 249.616 Q3658.51 245.866 3664.34 245.866 Q3669.57 245.866 3672.6 249.246 Q3675.66 252.602 3675.66 258.389 M3671.4 257.139 Q3671.35 253.644 3669.43 251.561 Q3667.53 249.477 3664.38 249.477 Q3660.82 249.477 3658.67 251.491 Q3656.54 253.505 3656.21 257.163 L3671.4 257.139 Z" fill="#000000" fill-rule="evenodd" fill-opacity="1" /><path clip-path="url(#clip280)" d="M3704.2 256.769 L3704.2 272.417 L3699.94 272.417 L3699.94 256.908 Q3699.94 253.227 3698.5 251.399 Q3697.07 249.57 3694.2 249.57 Q3690.75 249.57 3688.76 251.769 Q3686.77 253.968 3686.77 257.764 L3686.77 272.417 L3682.49 272.417 L3682.49 246.491 L3686.77 246.491 L3686.77 250.519 Q3688.3 248.181 3690.36 247.024 Q3692.44 245.866 3695.15 245.866 Q3699.62 245.866 3701.91 248.644 Q3704.2 251.399 3704.2 256.769 Z" fill="#000000" fill-rule="evenodd" fill-opacity="1" /><path clip-path="url(#clip280)" d="M3716.91 239.13 L3716.91 246.491 L3725.68 246.491 L3725.68 249.802 L3716.91 249.802 L3716.91 263.876 Q3716.91 267.047 3717.76 267.95 Q3718.64 268.852 3721.31 268.852 L3725.68 268.852 L3725.68 272.417 L3721.31 272.417 Q3716.38 272.417 3714.5 270.588 Q3712.63 268.737 3712.63 263.876 L3712.63 249.802 L3709.5 249.802 L3709.5 246.491 L3712.63 246.491 L3712.63 239.13 L3716.91 239.13 Z" fill="#000000" fill-rule="evenodd" fill-opacity="1" /><path clip-path="url(#clip280)" d="M3753.46 258.389 L3753.46 260.473 L3733.88 260.473 Q3734.15 264.871 3736.51 267.186 Q3738.9 269.477 3743.13 269.477 Q3745.59 269.477 3747.88 268.876 Q3750.19 268.274 3752.46 267.07 L3752.46 271.098 Q3750.17 272.07 3747.76 272.579 Q3745.36 273.088 3742.88 273.088 Q3736.68 273.088 3733.04 269.477 Q3729.43 265.866 3729.43 259.709 Q3729.43 253.343 3732.86 249.616 Q3736.31 245.866 3742.14 245.866 Q3747.37 245.866 3750.4 249.246 Q3753.46 252.602 3753.46 258.389 M3749.2 257.139 Q3749.15 253.644 3747.23 251.561 Q3745.33 249.477 3742.19 249.477 Q3738.62 249.477 3736.47 251.491 Q3734.34 253.505 3734.01 257.163 L3749.2 257.139 Z" fill="#000000" fill-rule="evenodd" fill-opacity="1" /><path clip-path="url(#clip280)" d="M3775.47 250.473 Q3774.75 250.056 3773.9 249.871 Q3773.06 249.663 3772.05 249.663 Q3768.44 249.663 3766.49 252.024 Q3764.57 254.362 3764.57 258.76 L3764.57 272.417 L3760.29 272.417 L3760.29 246.491 L3764.57 246.491 L3764.57 250.519 Q3765.91 248.158 3768.06 247.024 Q3770.22 245.866 3773.3 245.866 Q3773.74 245.866 3774.27 245.936 Q3774.8 245.982 3775.45 246.098 L3775.47 250.473 Z" fill="#000000" fill-rule="evenodd" fill-opacity="1" /><path clip-path="url(#clip280)" d="M3796.47 247.255 L3796.47 251.283 Q3794.66 250.357 3792.72 249.894 Q3790.77 249.431 3788.69 249.431 Q3785.52 249.431 3783.92 250.403 Q3782.35 251.376 3782.35 253.32 Q3782.35 254.802 3783.48 255.658 Q3784.62 256.491 3788.04 257.255 L3789.5 257.579 Q3794.04 258.552 3795.94 260.334 Q3797.86 262.093 3797.86 265.264 Q3797.86 268.876 3794.99 270.982 Q3792.14 273.088 3787.14 273.088 Q3785.06 273.088 3782.79 272.672 Q3780.54 272.278 3778.04 271.468 L3778.04 267.07 Q3780.4 268.297 3782.69 268.922 Q3784.99 269.524 3787.23 269.524 Q3790.24 269.524 3791.86 268.505 Q3793.48 267.463 3793.48 265.589 Q3793.48 263.852 3792.3 262.926 Q3791.14 262.001 3787.19 261.144 L3785.7 260.797 Q3781.75 259.964 3779.99 258.251 Q3778.23 256.514 3778.23 253.505 Q3778.23 249.848 3780.82 247.857 Q3783.41 245.866 3788.18 245.866 Q3790.54 245.866 3792.62 246.214 Q3794.71 246.561 3796.47 247.255 Z" fill="#000000" fill-rule="evenodd" fill-opacity="1" /><polyline clip-path="url(#clip280)" style="stroke:#e26f46; stroke-linecap:butt; stroke-linejoin:round; stroke-width:4; stroke-opacity:1; fill:none" points="
  3496.9,306.977 3607.18,306.977 
  "/>
<path clip-path="url(#clip280)" d="M3642.07 288.239 L3642.07 291.78 L3638 291.78 Q3635.7 291.78 3634.8 292.706 Q3633.92 293.632 3633.92 296.04 L3633.92 298.331 L3640.94 298.331 L3640.94 301.642 L3633.92 301.642 L3633.92 324.257 L3629.64 324.257 L3629.64 301.642 L3625.57 301.642 L3625.57 298.331 L3629.64 298.331 L3629.64 296.526 Q3629.64 292.197 3631.65 290.23 Q3633.67 288.239 3638.04 288.239 L3642.07 288.239 Z" fill="#000000" fill-rule="evenodd" fill-opacity="1" /><path clip-path="url(#clip280)" d="M3657.42 311.225 Q3652.26 311.225 3650.26 312.405 Q3648.27 313.586 3648.27 316.433 Q3648.27 318.702 3649.76 320.044 Q3651.26 321.364 3653.83 321.364 Q3657.37 321.364 3659.5 318.864 Q3661.65 316.341 3661.65 312.174 L3661.65 311.225 L3657.42 311.225 M3665.91 309.466 L3665.91 324.257 L3661.65 324.257 L3661.65 320.322 Q3660.2 322.683 3658.02 323.817 Q3655.84 324.928 3652.7 324.928 Q3648.71 324.928 3646.35 322.706 Q3644.01 320.461 3644.01 316.711 Q3644.01 312.336 3646.93 310.114 Q3649.87 307.892 3655.68 307.892 L3661.65 307.892 L3661.65 307.475 Q3661.65 304.535 3659.71 302.938 Q3657.79 301.317 3654.29 301.317 Q3652.07 301.317 3649.96 301.85 Q3647.86 302.382 3645.91 303.447 L3645.91 299.512 Q3648.25 298.609 3650.45 298.169 Q3652.65 297.706 3654.73 297.706 Q3660.36 297.706 3663.13 300.623 Q3665.91 303.54 3665.91 309.466 Z" fill="#000000" fill-rule="evenodd" fill-opacity="1" /><path clip-path="url(#clip280)" d="M3693.34 299.327 L3693.34 303.308 Q3691.54 302.313 3689.71 301.827 Q3687.9 301.317 3686.05 301.317 Q3681.91 301.317 3679.62 303.956 Q3677.32 306.572 3677.32 311.317 Q3677.32 316.063 3679.62 318.702 Q3681.91 321.317 3686.05 321.317 Q3687.9 321.317 3689.71 320.831 Q3691.54 320.322 3693.34 319.327 L3693.34 323.262 Q3691.56 324.095 3689.64 324.512 Q3687.74 324.928 3685.59 324.928 Q3679.73 324.928 3676.28 321.248 Q3672.83 317.567 3672.83 311.317 Q3672.83 304.975 3676.31 301.341 Q3679.8 297.706 3685.87 297.706 Q3687.83 297.706 3689.71 298.123 Q3691.58 298.517 3693.34 299.327 Z" fill="#000000" fill-rule="evenodd" fill-opacity="1" /><path clip-path="url(#clip280)" d="M3722.93 310.229 L3722.93 312.313 L3703.34 312.313 Q3703.62 316.711 3705.98 319.026 Q3708.37 321.317 3712.6 321.317 Q3715.06 321.317 3717.35 320.716 Q3719.66 320.114 3721.93 318.91 L3721.93 322.938 Q3719.64 323.91 3717.23 324.419 Q3714.82 324.928 3712.35 324.928 Q3706.14 324.928 3702.51 321.317 Q3698.9 317.706 3698.9 311.549 Q3698.9 305.183 3702.32 301.456 Q3705.77 297.706 3711.61 297.706 Q3716.84 297.706 3719.87 301.086 Q3722.93 304.442 3722.93 310.229 M3718.67 308.979 Q3718.62 305.484 3716.7 303.401 Q3714.8 301.317 3711.65 301.317 Q3708.09 301.317 3705.94 303.331 Q3703.81 305.345 3703.48 309.003 L3718.67 308.979 Z" fill="#000000" fill-rule="evenodd" fill-opacity="1" /><path clip-path="url(#clip280)" d="M3746.44 299.095 L3746.44 303.123 Q3744.64 302.197 3742.69 301.734 Q3740.75 301.271 3738.67 301.271 Q3735.5 301.271 3733.9 302.243 Q3732.32 303.216 3732.32 305.16 Q3732.32 306.642 3733.46 307.498 Q3734.59 308.331 3738.02 309.095 L3739.48 309.419 Q3744.01 310.392 3745.91 312.174 Q3747.83 313.933 3747.83 317.104 Q3747.83 320.716 3744.96 322.822 Q3742.12 324.928 3737.12 324.928 Q3735.03 324.928 3732.76 324.512 Q3730.52 324.118 3728.02 323.308 L3728.02 318.91 Q3730.38 320.137 3732.67 320.762 Q3734.96 321.364 3737.21 321.364 Q3740.22 321.364 3741.84 320.345 Q3743.46 319.303 3743.46 317.429 Q3743.46 315.692 3742.28 314.766 Q3741.12 313.841 3737.16 312.984 L3735.68 312.637 Q3731.72 311.804 3729.96 310.091 Q3728.2 308.354 3728.2 305.345 Q3728.2 301.688 3730.8 299.697 Q3733.39 297.706 3738.16 297.706 Q3740.52 297.706 3742.6 298.054 Q3744.69 298.401 3746.44 299.095 Z" fill="#000000" fill-rule="evenodd" fill-opacity="1" /></svg>
