<?xml version="1.0" encoding="utf-8"?>
<svg xmlns="http://www.w3.org/2000/svg" xmlns:xlink="http://www.w3.org/1999/xlink" width="1000" height="400" viewBox="0 0 4000 1600">
<defs>
  <clipPath id="clip060">
    <rect x="0" y="0" width="4000" height="1600"/>
  </clipPath>
</defs>
<path clip-path="url(#clip060)" d="
M0 1600 L4000 1600 L4000 0 L0 0  Z
  " fill="#ffffff" fill-rule="evenodd" fill-opacity="1"/>
<defs>
  <clipPath id="clip061">
    <rect x="800" y="0" width="2801" height="1600"/>
  </clipPath>
</defs>
<path clip-path="url(#clip060)" d="
M234.133 1393.02 L3889.76 1393.02 L3889.76 162.272 L234.133 162.272  Z
  " fill="#ffffff" fill-rule="evenodd" fill-opacity="1"/>
<defs>
  <clipPath id="clip062">
    <rect x="234" y="162" width="3657" height="1232"/>
  </clipPath>
</defs>
<polyline clip-path="url(#clip062)" style="stroke:#000000; stroke-linecap:butt; stroke-linejoin:round; stroke-width:2; stroke-opacity:0.1; fill:none" points="
  948.213,1393.02 948.213,162.272 
  "/>
<polyline clip-path="url(#clip062)" style="stroke:#000000; stroke-linecap:butt; stroke-linejoin:round; stroke-width:2; stroke-opacity:0.1; fill:none" points="
  1894.24,1393.02 1894.24,162.272 
  "/>
<polyline clip-path="url(#clip062)" style="stroke:#000000; stroke-linecap:butt; stroke-linejoin:round; stroke-width:2; stroke-opacity:0.1; fill:none" points="
  2840.27,1393.02 2840.27,162.272 
  "/>
<polyline clip-path="url(#clip062)" style="stroke:#000000; stroke-linecap:butt; stroke-linejoin:round; stroke-width:2; stroke-opacity:0.1; fill:none" points="
  3786.3,1393.02 3786.3,162.272 
  "/>
<polyline clip-path="url(#clip060)" style="stroke:#000000; stroke-linecap:butt; stroke-linejoin:round; stroke-width:4; stroke-opacity:1; fill:none" points="
  234.133,1393.02 3889.76,1393.02 
  "/>
<polyline clip-path="url(#clip060)" style="stroke:#000000; stroke-linecap:butt; stroke-linejoin:round; stroke-width:4; stroke-opacity:1; fill:none" points="
  948.213,1393.02 948.213,1374.12 
  "/>
<polyline clip-path="url(#clip060)" style="stroke:#000000; stroke-linecap:butt; stroke-linejoin:round; stroke-width:4; stroke-opacity:1; fill:none" points="
  1894.24,1393.02 1894.24,1374.12 
  "/>
<polyline clip-path="url(#clip060)" style="stroke:#000000; stroke-linecap:butt; stroke-linejoin:round; stroke-width:4; stroke-opacity:1; fill:none" points="
  2840.27,1393.02 2840.27,1374.12 
  "/>
<polyline clip-path="url(#clip060)" style="stroke:#000000; stroke-linecap:butt; stroke-linejoin:round; stroke-width:4; stroke-opacity:1; fill:none" points="
  3786.3,1393.02 3786.3,1374.12 
  "/>
<path clip-path="url(#clip060)" d="M921.57 1433.66 L943.792 1433.66 L943.792 1435.65 L931.246 1468.22 L926.362 1468.22 L938.167 1437.59 L921.57 1437.59 L921.57 1433.66 Z" fill="#000000" fill-rule="evenodd" fill-opacity="1" /><path clip-path="url(#clip060)" d="M962.912 1436.74 Q959.301 1436.74 957.473 1440.3 Q955.667 1443.84 955.667 1450.97 Q955.667 1458.08 957.473 1461.65 Q959.301 1465.19 962.912 1465.19 Q966.547 1465.19 968.352 1461.65 Q970.181 1458.08 970.181 1450.97 Q970.181 1443.84 968.352 1440.3 Q966.547 1436.74 962.912 1436.74 M962.912 1433.03 Q968.723 1433.03 971.778 1437.64 Q974.857 1442.22 974.857 1450.97 Q974.857 1459.7 971.778 1464.31 Q968.723 1468.89 962.912 1468.89 Q957.102 1468.89 954.024 1464.31 Q950.968 1459.7 950.968 1450.97 Q950.968 1442.22 954.024 1437.64 Q957.102 1433.03 962.912 1433.03 Z" fill="#000000" fill-rule="evenodd" fill-opacity="1" /><path clip-path="url(#clip060)" d="M1879.12 1451.81 Q1875.78 1451.81 1873.86 1453.59 Q1871.96 1455.37 1871.96 1458.5 Q1871.96 1461.62 1873.86 1463.4 Q1875.78 1465.19 1879.12 1465.19 Q1882.45 1465.19 1884.37 1463.4 Q1886.29 1461.6 1886.29 1458.5 Q1886.29 1455.37 1884.37 1453.59 Q1882.47 1451.81 1879.12 1451.81 M1874.44 1449.82 Q1871.43 1449.08 1869.74 1447.02 Q1868.07 1444.96 1868.07 1441.99 Q1868.07 1437.85 1871.01 1435.44 Q1873.98 1433.03 1879.12 1433.03 Q1884.28 1433.03 1887.22 1435.44 Q1890.16 1437.85 1890.16 1441.99 Q1890.16 1444.96 1888.47 1447.02 Q1886.8 1449.08 1883.81 1449.82 Q1887.19 1450.6 1889.07 1452.9 Q1890.97 1455.19 1890.97 1458.5 Q1890.97 1463.52 1887.89 1466.21 Q1884.83 1468.89 1879.12 1468.89 Q1873.4 1468.89 1870.32 1466.21 Q1867.26 1463.52 1867.26 1458.5 Q1867.26 1455.19 1869.16 1452.9 Q1871.06 1450.6 1874.44 1449.82 M1872.73 1442.43 Q1872.73 1445.12 1874.39 1446.62 Q1876.08 1448.13 1879.12 1448.13 Q1882.13 1448.13 1883.81 1446.62 Q1885.53 1445.12 1885.53 1442.43 Q1885.53 1439.75 1883.81 1438.24 Q1882.13 1436.74 1879.12 1436.74 Q1876.08 1436.74 1874.39 1438.24 Q1872.73 1439.75 1872.73 1442.43 Z" fill="#000000" fill-rule="evenodd" fill-opacity="1" /><path clip-path="url(#clip060)" d="M1909.28 1436.74 Q1905.67 1436.74 1903.84 1440.3 Q1902.03 1443.84 1902.03 1450.97 Q1902.03 1458.08 1903.84 1461.65 Q1905.67 1465.19 1909.28 1465.19 Q1912.91 1465.19 1914.72 1461.65 Q1916.55 1458.08 1916.55 1450.97 Q1916.55 1443.84 1914.72 1440.3 Q1912.91 1436.74 1909.28 1436.74 M1909.28 1433.03 Q1915.09 1433.03 1918.14 1437.64 Q1921.22 1442.22 1921.22 1450.97 Q1921.22 1459.7 1918.14 1464.31 Q1915.09 1468.89 1909.28 1468.89 Q1903.47 1468.89 1900.39 1464.31 Q1897.33 1459.7 1897.33 1450.97 Q1897.33 1442.22 1900.39 1437.64 Q1903.47 1433.03 1909.28 1433.03 Z" fill="#000000" fill-rule="evenodd" fill-opacity="1" /><path clip-path="url(#clip060)" d="M2815.4 1467.5 L2815.4 1463.24 Q2817.16 1464.08 2818.97 1464.52 Q2820.77 1464.96 2822.51 1464.96 Q2827.14 1464.96 2829.57 1461.85 Q2832.02 1458.73 2832.37 1452.39 Q2831.03 1454.38 2828.97 1455.44 Q2826.9 1456.51 2824.4 1456.51 Q2819.22 1456.51 2816.19 1453.38 Q2813.18 1450.23 2813.18 1444.79 Q2813.18 1439.47 2816.33 1436.25 Q2819.47 1433.03 2824.71 1433.03 Q2830.7 1433.03 2833.85 1437.64 Q2837.02 1442.22 2837.02 1450.97 Q2837.02 1459.15 2833.13 1464.03 Q2829.27 1468.89 2822.72 1468.89 Q2820.96 1468.89 2819.15 1468.54 Q2817.34 1468.2 2815.4 1467.5 M2824.71 1452.85 Q2827.85 1452.85 2829.68 1450.7 Q2831.53 1448.54 2831.53 1444.79 Q2831.53 1441.07 2829.68 1438.91 Q2827.85 1436.74 2824.71 1436.74 Q2821.56 1436.74 2819.71 1438.91 Q2817.88 1441.07 2817.88 1444.79 Q2817.88 1448.54 2819.71 1450.7 Q2821.56 1452.85 2824.71 1452.85 Z" fill="#000000" fill-rule="evenodd" fill-opacity="1" /><path clip-path="url(#clip060)" d="M2855.42 1436.74 Q2851.81 1436.74 2849.98 1440.3 Q2848.18 1443.84 2848.18 1450.97 Q2848.18 1458.08 2849.98 1461.65 Q2851.81 1465.19 2855.42 1465.19 Q2859.06 1465.19 2860.86 1461.65 Q2862.69 1458.08 2862.69 1450.97 Q2862.69 1443.84 2860.86 1440.3 Q2859.06 1436.74 2855.42 1436.74 M2855.42 1433.03 Q2861.23 1433.03 2864.29 1437.64 Q2867.37 1442.22 2867.37 1450.97 Q2867.37 1459.7 2864.29 1464.31 Q2861.23 1468.89 2855.42 1468.89 Q2849.61 1468.89 2846.53 1464.31 Q2843.48 1459.7 2843.48 1450.97 Q2843.48 1442.22 2846.53 1437.64 Q2849.61 1433.03 2855.42 1433.03 Z" fill="#000000" fill-rule="evenodd" fill-opacity="1" /><path clip-path="url(#clip060)" d="M3745.91 1464.28 L3753.55 1464.28 L3753.55 1437.92 L3745.24 1439.59 L3745.24 1435.33 L3753.5 1433.66 L3758.18 1433.66 L3758.18 1464.28 L3765.82 1464.28 L3765.82 1468.22 L3745.91 1468.22 L3745.91 1464.28 Z" fill="#000000" fill-rule="evenodd" fill-opacity="1" /><path clip-path="url(#clip060)" d="M3785.26 1436.74 Q3781.65 1436.74 3779.82 1440.3 Q3778.02 1443.84 3778.02 1450.97 Q3778.02 1458.08 3779.82 1461.65 Q3781.65 1465.19 3785.26 1465.19 Q3788.9 1465.19 3790.7 1461.65 Q3792.53 1458.08 3792.53 1450.97 Q3792.53 1443.84 3790.7 1440.3 Q3788.9 1436.74 3785.26 1436.74 M3785.26 1433.03 Q3791.07 1433.03 3794.13 1437.64 Q3797.21 1442.22 3797.21 1450.97 Q3797.21 1459.7 3794.13 1464.31 Q3791.07 1468.89 3785.26 1468.89 Q3779.45 1468.89 3776.37 1464.31 Q3773.32 1459.7 3773.32 1450.97 Q3773.32 1442.22 3776.37 1437.64 Q3779.45 1433.03 3785.26 1433.03 Z" fill="#000000" fill-rule="evenodd" fill-opacity="1" /><path clip-path="url(#clip060)" d="M3815.42 1436.74 Q3811.81 1436.74 3809.98 1440.3 Q3808.18 1443.84 3808.18 1450.97 Q3808.18 1458.08 3809.98 1461.65 Q3811.81 1465.19 3815.42 1465.19 Q3819.06 1465.19 3820.86 1461.65 Q3822.69 1458.08 3822.69 1450.97 Q3822.69 1443.84 3820.86 1440.3 Q3819.06 1436.74 3815.42 1436.74 M3815.42 1433.03 Q3821.23 1433.03 3824.29 1437.64 Q3827.37 1442.22 3827.37 1450.97 Q3827.37 1459.7 3824.29 1464.31 Q3821.23 1468.89 3815.42 1468.89 Q3809.61 1468.89 3806.53 1464.31 Q3803.48 1459.7 3803.48 1450.97 Q3803.48 1442.22 3806.53 1437.64 Q3809.61 1433.03 3815.42 1433.03 Z" fill="#000000" fill-rule="evenodd" fill-opacity="1" /><path clip-path="url(#clip060)" d="M1960.08 1556.54 L1960.08 1575.44 L1954.19 1575.44 L1954.19 1526.24 L1960.08 1526.24 L1960.08 1531.65 Q1961.93 1528.46 1964.73 1526.94 Q1967.56 1525.38 1971.48 1525.38 Q1977.97 1525.38 1982.01 1530.53 Q1986.09 1535.69 1986.09 1544.09 Q1986.09 1552.49 1982.01 1557.65 Q1977.97 1562.81 1971.48 1562.81 Q1967.56 1562.81 1964.73 1561.28 Q1961.93 1559.72 1960.08 1556.54 M1980.01 1544.09 Q1980.01 1537.63 1977.33 1533.97 Q1974.69 1530.28 1970.04 1530.28 Q1965.4 1530.28 1962.72 1533.97 Q1960.08 1537.63 1960.08 1544.09 Q1960.08 1550.55 1962.72 1554.24 Q1965.4 1557.91 1970.04 1557.91 Q1974.69 1557.91 1977.33 1554.24 Q1980.01 1550.55 1980.01 1544.09 Z" fill="#000000" fill-rule="evenodd" fill-opacity="1" /><path clip-path="url(#clip060)" d="M2030.58 1512.42 Q2026.32 1519.74 2024.25 1526.9 Q2022.18 1534.07 2022.18 1541.42 Q2022.18 1548.77 2024.25 1556 Q2026.35 1563.19 2030.58 1570.48 L2025.49 1570.48 Q2020.71 1563 2018.33 1555.77 Q2015.97 1548.55 2015.97 1541.42 Q2015.97 1534.32 2018.33 1527.13 Q2020.68 1519.93 2025.49 1512.42 L2030.58 1512.42 Z" fill="#000000" fill-rule="evenodd" fill-opacity="1" /><path clip-path="url(#clip060)" d="M2041.72 1512.36 L2047.61 1512.36 L2047.61 1541.61 L2065.08 1526.24 L2072.56 1526.24 L2053.66 1542.91 L2073.36 1561.88 L2065.72 1561.88 L2047.61 1544.47 L2047.61 1561.88 L2041.72 1561.88 L2041.72 1512.36 Z" fill="#000000" fill-rule="evenodd" fill-opacity="1" /><path clip-path="url(#clip060)" d="M2086.38 1519.65 L2086.38 1537.5 L2094.46 1537.5 Q2098.95 1537.5 2101.4 1535.18 Q2103.85 1532.86 2103.85 1528.56 Q2103.85 1524.29 2101.4 1521.97 Q2098.95 1519.65 2094.46 1519.65 L2086.38 1519.65 M2079.95 1514.36 L2094.46 1514.36 Q2102.45 1514.36 2106.52 1517.99 Q2110.63 1521.59 2110.63 1528.56 Q2110.63 1535.59 2106.52 1539.19 Q2102.45 1542.79 2094.46 1542.79 L2086.38 1542.79 L2086.38 1561.88 L2079.95 1561.88 L2079.95 1514.36 Z" fill="#000000" fill-rule="evenodd" fill-opacity="1" /><path clip-path="url(#clip060)" d="M2132.27 1543.96 Q2125.18 1543.96 2122.44 1545.59 Q2119.7 1547.21 2119.7 1551.13 Q2119.7 1554.24 2121.74 1556.09 Q2123.81 1557.91 2127.34 1557.91 Q2132.21 1557.91 2135.14 1554.47 Q2138.1 1551 2138.1 1545.27 L2138.1 1543.96 L2132.27 1543.96 M2143.95 1541.55 L2143.95 1561.88 L2138.1 1561.88 L2138.1 1556.47 Q2136.09 1559.72 2133.1 1561.28 Q2130.11 1562.81 2125.78 1562.81 Q2120.31 1562.81 2117.06 1559.75 Q2113.84 1556.66 2113.84 1551.51 Q2113.84 1545.49 2117.86 1542.44 Q2121.9 1539.38 2129.89 1539.38 L2138.1 1539.38 L2138.1 1538.81 Q2138.1 1534.77 2135.42 1532.57 Q2132.78 1530.34 2127.98 1530.34 Q2124.92 1530.34 2122.02 1531.07 Q2119.13 1531.81 2116.45 1533.27 L2116.45 1527.86 Q2119.67 1526.62 2122.69 1526.01 Q2125.72 1525.38 2128.58 1525.38 Q2136.32 1525.38 2140.14 1529.39 Q2143.95 1533.4 2143.95 1541.55 Z" fill="#000000" fill-rule="evenodd" fill-opacity="1" /><path clip-path="url(#clip060)" d="M2155.09 1512.42 L2160.19 1512.42 Q2164.96 1519.93 2167.32 1527.13 Q2169.7 1534.32 2169.7 1541.42 Q2169.7 1548.55 2167.32 1555.77 Q2164.96 1563 2160.19 1570.48 L2155.09 1570.48 Q2159.33 1563.19 2161.4 1556 Q2163.5 1548.77 2163.5 1541.42 Q2163.5 1534.07 2161.4 1526.9 Q2159.33 1519.74 2155.09 1512.42 Z" fill="#000000" fill-rule="evenodd" fill-opacity="1" /><polyline clip-path="url(#clip062)" style="stroke:#000000; stroke-linecap:butt; stroke-linejoin:round; stroke-width:2; stroke-opacity:0.1; fill:none" points="
  234.133,1358.19 3889.76,1358.19 
  "/>
<polyline clip-path="url(#clip062)" style="stroke:#000000; stroke-linecap:butt; stroke-linejoin:round; stroke-width:2; stroke-opacity:0.1; fill:none" points="
  234.133,1048.57 3889.76,1048.57 
  "/>
<polyline clip-path="url(#clip062)" style="stroke:#000000; stroke-linecap:butt; stroke-linejoin:round; stroke-width:2; stroke-opacity:0.1; fill:none" points="
  234.133,738.943 3889.76,738.943 
  "/>
<polyline clip-path="url(#clip062)" style="stroke:#000000; stroke-linecap:butt; stroke-linejoin:round; stroke-width:2; stroke-opacity:0.1; fill:none" points="
  234.133,429.321 3889.76,429.321 
  "/>
<polyline clip-path="url(#clip060)" style="stroke:#000000; stroke-linecap:butt; stroke-linejoin:round; stroke-width:4; stroke-opacity:1; fill:none" points="
  234.133,1393.02 234.133,162.272 
  "/>
<polyline clip-path="url(#clip060)" style="stroke:#000000; stroke-linecap:butt; stroke-linejoin:round; stroke-width:4; stroke-opacity:1; fill:none" points="
  234.133,1358.19 253.031,1358.19 
  "/>
<polyline clip-path="url(#clip060)" style="stroke:#000000; stroke-linecap:butt; stroke-linejoin:round; stroke-width:4; stroke-opacity:1; fill:none" points="
  234.133,1048.57 253.031,1048.57 
  "/>
<polyline clip-path="url(#clip060)" style="stroke:#000000; stroke-linecap:butt; stroke-linejoin:round; stroke-width:4; stroke-opacity:1; fill:none" points="
  234.133,738.943 253.031,738.943 
  "/>
<polyline clip-path="url(#clip060)" style="stroke:#000000; stroke-linecap:butt; stroke-linejoin:round; stroke-width:4; stroke-opacity:1; fill:none" points="
  234.133,429.321 253.031,429.321 
  "/>
<path clip-path="url(#clip060)" d="M162.189 1343.99 Q158.578 1343.99 156.749 1347.55 Q154.943 1351.09 154.943 1358.22 Q154.943 1365.33 156.749 1368.89 Q158.578 1372.43 162.189 1372.43 Q165.823 1372.43 167.628 1368.89 Q169.457 1365.33 169.457 1358.22 Q169.457 1351.09 167.628 1347.55 Q165.823 1343.99 162.189 1343.99 M162.189 1340.28 Q167.999 1340.28 171.054 1344.89 Q174.133 1349.47 174.133 1358.22 Q174.133 1366.95 171.054 1371.56 Q167.999 1376.14 162.189 1376.14 Q156.379 1376.14 153.3 1371.56 Q150.244 1366.95 150.244 1358.22 Q150.244 1349.47 153.3 1344.89 Q156.379 1340.28 162.189 1340.28 Z" fill="#000000" fill-rule="evenodd" fill-opacity="1" /><path clip-path="url(#clip060)" d="M154.226 1061.91 L161.865 1061.91 L161.865 1035.54 L153.554 1037.21 L153.554 1032.95 L161.818 1031.29 L166.494 1031.29 L166.494 1061.91 L174.133 1061.91 L174.133 1065.85 L154.226 1065.85 L154.226 1061.91 Z" fill="#000000" fill-rule="evenodd" fill-opacity="1" /><path clip-path="url(#clip060)" d="M157.814 752.288 L174.133 752.288 L174.133 756.223 L152.189 756.223 L152.189 752.288 Q154.851 749.533 159.434 744.904 Q164.041 740.251 165.221 738.909 Q167.466 736.385 168.346 734.649 Q169.249 732.89 169.249 731.2 Q169.249 728.446 167.304 726.71 Q165.383 724.973 162.281 724.973 Q160.082 724.973 157.629 725.737 Q155.198 726.501 152.42 728.052 L152.42 723.33 Q155.244 722.196 157.698 721.617 Q160.152 721.038 162.189 721.038 Q167.559 721.038 170.753 723.723 Q173.948 726.409 173.948 730.899 Q173.948 733.029 173.138 734.95 Q172.351 736.848 170.244 739.441 Q169.665 740.112 166.564 743.33 Q163.462 746.524 157.814 752.288 Z" fill="#000000" fill-rule="evenodd" fill-opacity="1" /><path clip-path="url(#clip060)" d="M167.003 427.967 Q170.36 428.685 172.235 430.953 Q174.133 433.222 174.133 436.555 Q174.133 441.671 170.615 444.472 Q167.096 447.273 160.615 447.273 Q158.439 447.273 156.124 446.833 Q153.832 446.416 151.379 445.56 L151.379 441.046 Q153.323 442.18 155.638 442.759 Q157.953 443.337 160.476 443.337 Q164.874 443.337 167.165 441.601 Q169.48 439.865 169.48 436.555 Q169.48 433.499 167.328 431.786 Q165.198 430.05 161.378 430.05 L157.351 430.05 L157.351 426.208 L161.564 426.208 Q165.013 426.208 166.841 424.842 Q168.67 423.453 168.67 420.861 Q168.67 418.199 166.772 416.787 Q164.897 415.351 161.378 415.351 Q159.457 415.351 157.258 415.768 Q155.059 416.185 152.42 417.064 L152.42 412.898 Q155.082 412.157 157.397 411.787 Q159.735 411.416 161.795 411.416 Q167.119 411.416 170.221 413.847 Q173.323 416.254 173.323 420.375 Q173.323 423.245 171.679 425.236 Q170.036 427.203 167.003 427.967 Z" fill="#000000" fill-rule="evenodd" fill-opacity="1" /><path clip-path="url(#clip060)" d="M40.3403 876.171 L40.3403 848.353 L45.6875 848.353 L71.3095 870.378 L71.3095 848.353 L75.9883 848.353 L75.9883 876.967 L70.6411 876.967 L45.0191 854.942 L45.0191 876.171 L40.3403 876.171 Z" fill="#000000" fill-rule="evenodd" fill-opacity="1" /><path clip-path="url(#clip060)" d="M26.5267 804.621 Q33.8473 808.886 41.0087 810.955 Q48.1701 813.023 55.5225 813.023 Q62.8749 813.023 70.1 810.955 Q77.2933 808.854 84.582 804.621 L84.582 809.713 Q77.1023 814.488 69.8772 816.875 Q62.6521 819.23 55.5225 819.23 Q48.4248 819.23 41.2315 816.875 Q34.0383 814.519 26.5267 809.713 L26.5267 804.621 Z" fill="#000000" fill-rule="evenodd" fill-opacity="1" /><path clip-path="url(#clip060)" d="M26.4631 793.481 L26.4631 787.592 L55.7135 787.592 L40.3403 770.119 L40.3403 762.639 L57.0185 781.545 L75.9883 761.843 L75.9883 769.482 L58.5781 787.592 L75.9883 787.592 L75.9883 793.481 L26.4631 793.481 Z" fill="#000000" fill-rule="evenodd" fill-opacity="1" /><path clip-path="url(#clip060)" d="M47.1835 727.755 Q43.2367 725.559 41.3588 722.503 Q39.481 719.448 39.481 715.31 Q39.481 709.74 43.3959 706.716 Q47.2789 703.692 54.4722 703.692 L75.9883 703.692 L75.9883 709.581 L54.6632 709.581 Q49.5388 709.581 47.0561 711.395 Q44.5735 713.209 44.5735 716.933 Q44.5735 721.485 47.5972 724.126 Q50.6209 726.768 55.8408 726.768 L75.9883 726.768 L75.9883 732.656 L54.6632 732.656 Q49.5069 732.656 47.0561 734.471 Q44.5735 736.285 44.5735 740.072 Q44.5735 744.56 47.6291 747.202 Q50.6528 749.844 55.8408 749.844 L75.9883 749.844 L75.9883 755.732 L40.3403 755.732 L40.3403 749.844 L45.8785 749.844 Q42.6002 747.839 41.0406 745.038 Q39.481 742.237 39.481 738.385 Q39.481 734.502 41.4543 731.797 Q43.4277 729.06 47.1835 727.755 Z" fill="#000000" fill-rule="evenodd" fill-opacity="1" /><path clip-path="url(#clip060)" d="M26.5267 692.934 L26.5267 687.842 Q34.0383 683.067 41.2315 680.712 Q48.4248 678.325 55.5225 678.325 Q62.6521 678.325 69.8772 680.712 Q77.1023 683.067 84.582 687.842 L84.582 692.934 Q77.2933 688.701 70.1 686.632 Q62.8749 684.532 55.5225 684.532 Q48.1701 684.532 41.0087 686.632 Q33.8473 688.701 26.5267 692.934 Z" fill="#000000" fill-rule="evenodd" fill-opacity="1" /><path clip-path="url(#clip060)" d="M1932.3 65.7705 L1932.3 89.8329 L1924.81 89.8329 L1924.81 27.2059 L1932.3 27.2059 L1932.3 34.0924 Q1934.65 30.0415 1938.21 28.0971 Q1941.82 26.1121 1946.8 26.1121 Q1955.07 26.1121 1960.21 32.6746 Q1965.4 39.2371 1965.4 49.9314 Q1965.4 60.6258 1960.21 67.1883 Q1955.07 73.7508 1946.8 73.7508 Q1941.82 73.7508 1938.21 71.8063 Q1934.65 69.8214 1932.3 65.7705 M1957.66 49.9314 Q1957.66 41.7081 1954.26 37.0496 Q1950.89 32.3505 1944.98 32.3505 Q1939.06 32.3505 1935.66 37.0496 Q1932.3 41.7081 1932.3 49.9314 Q1932.3 58.1548 1935.66 62.8538 Q1939.06 67.5124 1944.98 67.5124 Q1950.89 67.5124 1954.26 62.8538 Q1957.66 58.1548 1957.66 49.9314 Z" fill="#000000" fill-rule="evenodd" fill-opacity="1" /><path clip-path="url(#clip060)" d="M2022.03 9.62495 Q2016.6 18.942 2013.97 28.0566 Q2011.33 37.1711 2011.33 46.5287 Q2011.33 55.8863 2013.97 65.0818 Q2016.64 74.2369 2022.03 83.5134 L2015.55 83.5134 Q2009.47 73.9938 2006.43 64.7983 Q2003.43 55.6027 2003.43 46.5287 Q2003.43 37.4952 2006.43 28.3401 Q2009.43 19.1851 2015.55 9.62495 L2022.03 9.62495 Z" fill="#000000" fill-rule="evenodd" fill-opacity="1" /><path clip-path="url(#clip060)" d="M2036.2 9.54393 L2043.7 9.54393 L2043.7 46.7717 L2065.94 27.2059 L2075.46 27.2059 L2051.4 48.4326 L2076.47 72.576 L2066.75 72.576 L2043.7 50.4176 L2043.7 72.576 L2036.2 72.576 L2036.2 9.54393 Z" fill="#000000" fill-rule="evenodd" fill-opacity="1" /><path clip-path="url(#clip060)" d="M2093.04 18.8205 L2093.04 41.5461 L2103.33 41.5461 Q2109.04 41.5461 2112.16 38.5889 Q2115.28 35.6318 2115.28 30.163 Q2115.28 24.7348 2112.16 21.7777 Q2109.04 18.8205 2103.33 18.8205 L2093.04 18.8205 M2084.86 12.096 L2103.33 12.096 Q2113.5 12.096 2118.68 16.714 Q2123.91 21.2916 2123.91 30.163 Q2123.91 39.1155 2118.68 43.6931 Q2113.5 48.2706 2103.33 48.2706 L2093.04 48.2706 L2093.04 72.576 L2084.86 72.576 L2084.86 12.096 Z" fill="#000000" fill-rule="evenodd" fill-opacity="1" /><path clip-path="url(#clip060)" d="M2151.45 49.7694 Q2142.42 49.7694 2138.94 51.8354 Q2135.45 53.9013 2135.45 58.8839 Q2135.45 62.8538 2138.04 65.2034 Q2140.68 67.5124 2145.17 67.5124 Q2151.37 67.5124 2155.1 63.1374 Q2158.87 58.7219 2158.87 51.4303 L2158.87 49.7694 L2151.45 49.7694 M2166.32 46.6907 L2166.32 72.576 L2158.87 72.576 L2158.87 65.6895 Q2156.31 69.8214 2152.51 71.8063 Q2148.7 73.7508 2143.19 73.7508 Q2136.22 73.7508 2132.09 69.8619 Q2128 65.9325 2128 59.3701 Q2128 51.7138 2133.1 47.825 Q2138.25 43.9361 2148.41 43.9361 L2158.87 43.9361 L2158.87 43.2069 Q2158.87 38.0623 2155.46 35.2672 Q2152.1 32.4315 2145.98 32.4315 Q2142.1 32.4315 2138.41 33.3632 Q2134.72 34.295 2131.32 36.1584 L2131.32 29.2718 Q2135.41 27.692 2139.26 26.9223 Q2143.11 26.1121 2146.75 26.1121 Q2156.6 26.1121 2161.46 31.2163 Q2166.32 36.3204 2166.32 46.6907 Z" fill="#000000" fill-rule="evenodd" fill-opacity="1" /><path clip-path="url(#clip060)" d="M2180.5 9.62495 L2186.98 9.62495 Q2193.06 19.1851 2196.05 28.3401 Q2199.09 37.4952 2199.09 46.5287 Q2199.09 55.6027 2196.05 64.7983 Q2193.06 73.9938 2186.98 83.5134 L2180.5 83.5134 Q2185.89 74.2369 2188.52 65.0818 Q2191.19 55.8863 2191.19 46.5287 Q2191.19 37.1711 2188.52 28.0566 Q2185.89 18.942 2180.5 9.62495 Z" fill="#000000" fill-rule="evenodd" fill-opacity="1" /><polyline clip-path="url(#clip062)" style="stroke:#009af9; stroke-linecap:butt; stroke-linejoin:round; stroke-width:4; stroke-opacity:1; fill:none" points="
  3759.47,1350.45 3705.98,1334.97 3652.7,1319.48 3599.64,1304 3546.8,1288.52 3494.17,1273.04 3441.75,1257.56 3389.55,1242.08 3337.57,1226.6 3285.79,1211.12 
  3234.23,1195.64 3182.89,1180.15 3131.75,1164.67 3080.82,1149.19 3030.11,1133.71 2979.61,1118.23 2929.31,1102.75 2879.23,1087.27 2829.35,1071.79 2779.68,1056.31 
  2730.22,1040.82 2680.97,1025.34 2631.92,1009.86 2583.08,994.381 2534.45,978.9 2486.02,963.419 2437.79,947.938 2389.77,932.457 2341.95,916.976 2294.34,901.495 
  2246.92,886.014 2199.71,870.533 2152.7,855.051 2105.89,839.57 2059.28,824.089 2012.87,808.608 1966.67,793.127 1920.65,777.646 1874.84,762.165 1829.23,746.684 
  1783.81,731.203 1738.59,715.722 1693.56,700.24 1648.74,684.759 1604.1,669.278 1559.66,653.797 1515.42,638.316 1471.37,622.835 1427.51,607.354 1383.85,591.873 
  1340.37,576.392 1297.09,560.911 1254,545.429 1211.1,529.948 1168.39,514.467 1125.87,498.986 1083.54,483.505 1041.4,468.024 999.466,452.543 957.746,437.062 
  916.237,421.581 874.939,406.1 833.85,390.618 792.971,375.137 752.299,359.656 711.835,344.175 671.577,328.694 631.525,313.213 591.677,297.732 552.033,282.251 
  512.592,266.77 473.353,251.289 434.315,235.807 395.477,220.326 356.839,204.845 
  "/>
<polyline clip-path="url(#clip062)" style="stroke:#e26f46; stroke-linecap:butt; stroke-linejoin:round; stroke-width:4; stroke-opacity:1; fill:none" points="
  3786.3,1358.19 3732.7,1342.71 3679.31,1327.23 3626.14,1311.74 3573.19,1296.26 3520.45,1280.78 3467.93,1265.3 3415.62,1249.82 3363.53,1234.34 3311.65,1218.86 
  3259.99,1203.38 3208.53,1187.9 3157.29,1172.41 3106.26,1156.93 3055.44,1141.45 3004.83,1125.97 2954.43,1110.49 2904.24,1095.01 2854.26,1079.53 2804.49,1064.05 
  2754.93,1048.57 2705.57,1033.08 2656.42,1017.6 2607.48,1002.12 2558.74,986.641 2510.21,971.16 2461.88,955.679 2413.75,940.198 2365.83,924.716 2318.12,909.235 
  2270.6,893.754 2223.29,878.273 2176.18,862.792 2129.27,847.311 2082.56,831.83 2036.05,816.349 1989.75,800.868 1943.64,785.387 1897.72,769.905 1852.01,754.424 
  1806.49,738.943 1761.18,723.462 1716.05,707.981 1671.13,692.5 1626.4,677.019 1581.86,661.538 1537.52,646.057 1493.37,630.576 1449.42,615.094 1405.65,599.613 
  1362.08,584.132 1318.71,568.651 1275.52,553.17 1232.53,537.689 1189.72,522.208 1147.11,506.727 1104.68,491.246 1062.45,475.765 1020.41,460.283 978.58,444.802 
  936.965,429.321 895.562,413.84 854.368,398.359 813.384,382.878 772.609,367.397 732.041,351.916 691.68,336.435 651.525,320.954 611.575,305.472 571.829,289.991 
  532.287,274.51 492.947,259.029 453.809,243.548 414.871,228.067 376.133,212.586 337.594,197.105 
  "/>
<path clip-path="url(#clip060)" d="
M3189.44 358.817 L3767.91 358.817 L3767.91 203.297 L3189.44 203.297  Z
  " fill="#ffffff" fill-rule="evenodd" fill-opacity="1"/>
<polyline clip-path="url(#clip060)" style="stroke:#000000; stroke-linecap:butt; stroke-linejoin:round; stroke-width:4; stroke-opacity:1; fill:none" points="
  3189.44,358.817 3767.91,358.817 3767.91,203.297 3189.44,203.297 3189.44,358.817 
  "/>
<polyline clip-path="url(#clip060)" style="stroke:#009af9; stroke-linecap:butt; stroke-linejoin:round; stroke-width:4; stroke-opacity:1; fill:none" points="
  3230.06,255.137 3473.76,255.137 
  "/>
<path clip-path="url(#clip060)" d="M3534.89 247.487 L3534.89 251.468 Q3533.09 250.473 3531.26 249.987 Q3529.45 249.477 3527.6 249.477 Q3523.46 249.477 3521.16 252.116 Q3518.87 254.732 3518.87 259.477 Q3518.87 264.223 3521.16 266.862 Q3523.46 269.477 3527.6 269.477 Q3529.45 269.477 3531.26 268.991 Q3533.09 268.482 3534.89 267.487 L3534.89 271.422 Q3533.11 272.255 3531.19 272.672 Q3529.29 273.088 3527.14 273.088 Q3521.28 273.088 3517.83 269.408 Q3514.38 265.727 3514.38 259.477 Q3514.38 253.135 3517.85 249.501 Q3521.35 245.866 3527.41 245.866 Q3529.38 245.866 3531.26 246.283 Q3533.13 246.677 3534.89 247.487 Z" fill="#000000" fill-rule="evenodd" fill-opacity="1" /><path clip-path="url(#clip060)" d="M3564.47 258.389 L3564.47 260.473 L3544.89 260.473 Q3545.17 264.871 3547.53 267.186 Q3549.91 269.477 3554.15 269.477 Q3556.6 269.477 3558.9 268.876 Q3561.21 268.274 3563.48 267.07 L3563.48 271.098 Q3561.19 272.07 3558.78 272.579 Q3556.37 273.088 3553.9 273.088 Q3547.69 273.088 3544.06 269.477 Q3540.45 265.866 3540.45 259.709 Q3540.45 253.343 3543.87 249.616 Q3547.32 245.866 3553.16 245.866 Q3558.39 245.866 3561.42 249.246 Q3564.47 252.602 3564.47 258.389 M3560.22 257.139 Q3560.17 253.644 3558.25 251.561 Q3556.35 249.477 3553.2 249.477 Q3549.64 249.477 3547.48 251.491 Q3545.35 253.505 3545.03 257.163 L3560.22 257.139 Z" fill="#000000" fill-rule="evenodd" fill-opacity="1" /><path clip-path="url(#clip060)" d="M3593.02 256.769 L3593.02 272.417 L3588.76 272.417 L3588.76 256.908 Q3588.76 253.227 3587.32 251.399 Q3585.89 249.57 3583.02 249.57 Q3579.57 249.57 3577.58 251.769 Q3575.59 253.968 3575.59 257.764 L3575.59 272.417 L3571.3 272.417 L3571.3 246.491 L3575.59 246.491 L3575.59 250.519 Q3577.11 248.181 3579.17 247.024 Q3581.26 245.866 3583.97 245.866 Q3588.43 245.866 3590.72 248.644 Q3593.02 251.399 3593.02 256.769 Z" fill="#000000" fill-rule="evenodd" fill-opacity="1" /><path clip-path="url(#clip060)" d="M3605.72 239.13 L3605.72 246.491 L3614.5 246.491 L3614.5 249.802 L3605.72 249.802 L3605.72 263.876 Q3605.72 267.047 3606.58 267.95 Q3607.46 268.852 3610.12 268.852 L3614.5 268.852 L3614.5 272.417 L3610.12 272.417 Q3605.19 272.417 3603.32 270.588 Q3601.44 268.737 3601.44 263.876 L3601.44 249.802 L3598.32 249.802 L3598.32 246.491 L3601.44 246.491 L3601.44 239.13 L3605.72 239.13 Z" fill="#000000" fill-rule="evenodd" fill-opacity="1" /><path clip-path="url(#clip060)" d="M3642.28 258.389 L3642.28 260.473 L3622.69 260.473 Q3622.97 264.871 3625.33 267.186 Q3627.72 269.477 3631.95 269.477 Q3634.4 269.477 3636.7 268.876 Q3639.01 268.274 3641.28 267.07 L3641.28 271.098 Q3638.99 272.07 3636.58 272.579 Q3634.17 273.088 3631.7 273.088 Q3625.49 273.088 3621.86 269.477 Q3618.25 265.866 3618.25 259.709 Q3618.25 253.343 3621.67 249.616 Q3625.12 245.866 3630.96 245.866 Q3636.19 245.866 3639.22 249.246 Q3642.28 252.602 3642.28 258.389 M3638.02 257.139 Q3637.97 253.644 3636.05 251.561 Q3634.15 249.477 3631 249.477 Q3627.44 249.477 3625.28 251.491 Q3623.16 253.505 3622.83 257.163 L3638.02 257.139 Z" fill="#000000" fill-rule="evenodd" fill-opacity="1" /><path clip-path="url(#clip060)" d="M3664.29 250.473 Q3663.57 250.056 3662.71 249.871 Q3661.88 249.663 3660.86 249.663 Q3657.25 249.663 3655.31 252.024 Q3653.39 254.362 3653.39 258.76 L3653.39 272.417 L3649.1 272.417 L3649.1 246.491 L3653.39 246.491 L3653.39 250.519 Q3654.73 248.158 3656.88 247.024 Q3659.03 245.866 3662.11 245.866 Q3662.55 245.866 3663.09 245.936 Q3663.62 245.982 3664.27 246.098 L3664.29 250.473 Z" fill="#000000" fill-rule="evenodd" fill-opacity="1" /><path clip-path="url(#clip060)" d="M3685.28 247.255 L3685.28 251.283 Q3683.48 250.357 3681.53 249.894 Q3679.59 249.431 3677.51 249.431 Q3674.34 249.431 3672.74 250.403 Q3671.16 251.376 3671.16 253.32 Q3671.16 254.802 3672.3 255.658 Q3673.43 256.491 3676.86 257.255 L3678.32 257.579 Q3682.85 258.552 3684.75 260.334 Q3686.67 262.093 3686.67 265.264 Q3686.67 268.876 3683.8 270.982 Q3680.96 273.088 3675.96 273.088 Q3673.87 273.088 3671.6 272.672 Q3669.36 272.278 3666.86 271.468 L3666.86 267.07 Q3669.22 268.297 3671.51 268.922 Q3673.8 269.524 3676.05 269.524 Q3679.06 269.524 3680.68 268.505 Q3682.3 267.463 3682.3 265.589 Q3682.3 263.852 3681.12 262.926 Q3679.96 262.001 3676 261.144 L3674.52 260.797 Q3670.56 259.964 3668.8 258.251 Q3667.04 256.514 3667.04 253.505 Q3667.04 249.848 3669.64 247.857 Q3672.23 245.866 3677 245.866 Q3679.36 245.866 3681.44 246.214 Q3683.53 246.561 3685.28 247.255 Z" fill="#000000" fill-rule="evenodd" fill-opacity="1" /><polyline clip-path="url(#clip060)" style="stroke:#e26f46; stroke-linecap:butt; stroke-linejoin:round; stroke-width:4; stroke-opacity:1; fill:none" points="
  3230.06,306.977 3473.76,306.977 
  "/>
<path clip-path="url(#clip060)" d="M3530.89 288.239 L3530.89 291.78 L3526.81 291.78 Q3524.52 291.78 3523.62 292.706 Q3522.74 293.632 3522.74 296.04 L3522.74 298.331 L3529.75 298.331 L3529.75 301.642 L3522.74 301.642 L3522.74 324.257 L3518.46 324.257 L3518.46 301.642 L3514.38 301.642 L3514.38 298.331 L3518.46 298.331 L3518.46 296.526 Q3518.46 292.197 3520.47 290.23 Q3522.48 288.239 3526.86 288.239 L3530.89 288.239 Z" fill="#000000" fill-rule="evenodd" fill-opacity="1" /><path clip-path="url(#clip060)" d="M3546.23 311.225 Q3541.07 311.225 3539.08 312.405 Q3537.09 313.586 3537.09 316.433 Q3537.09 318.702 3538.57 320.044 Q3540.08 321.364 3542.65 321.364 Q3546.19 321.364 3548.32 318.864 Q3550.47 316.341 3550.47 312.174 L3550.47 311.225 L3546.23 311.225 M3554.73 309.466 L3554.73 324.257 L3550.47 324.257 L3550.47 320.322 Q3549.01 322.683 3546.84 323.817 Q3544.66 324.928 3541.51 324.928 Q3537.53 324.928 3535.17 322.706 Q3532.83 320.461 3532.83 316.711 Q3532.83 312.336 3535.75 310.114 Q3538.69 307.892 3544.5 307.892 L3550.47 307.892 L3550.47 307.475 Q3550.47 304.535 3548.53 302.938 Q3546.6 301.317 3543.11 301.317 Q3540.89 301.317 3538.78 301.85 Q3536.67 302.382 3534.73 303.447 L3534.73 299.512 Q3537.07 298.609 3539.27 298.169 Q3541.47 297.706 3543.55 297.706 Q3549.17 297.706 3551.95 300.623 Q3554.73 303.54 3554.73 309.466 Z" fill="#000000" fill-rule="evenodd" fill-opacity="1" /><path clip-path="url(#clip060)" d="M3582.16 299.327 L3582.16 303.308 Q3580.35 302.313 3578.53 301.827 Q3576.72 301.317 3574.87 301.317 Q3570.72 301.317 3568.43 303.956 Q3566.14 306.572 3566.14 311.317 Q3566.14 316.063 3568.43 318.702 Q3570.72 321.317 3574.87 321.317 Q3576.72 321.317 3578.53 320.831 Q3580.35 320.322 3582.16 319.327 L3582.16 323.262 Q3580.38 324.095 3578.46 324.512 Q3576.56 324.928 3574.41 324.928 Q3568.55 324.928 3565.1 321.248 Q3561.65 317.567 3561.65 311.317 Q3561.65 304.975 3565.12 301.341 Q3568.62 297.706 3574.68 297.706 Q3576.65 297.706 3578.53 298.123 Q3580.4 298.517 3582.16 299.327 Z" fill="#000000" fill-rule="evenodd" fill-opacity="1" /><path clip-path="url(#clip060)" d="M3611.74 310.229 L3611.74 312.313 L3592.16 312.313 Q3592.44 316.711 3594.8 319.026 Q3597.18 321.317 3601.42 321.317 Q3603.87 321.317 3606.16 320.716 Q3608.48 320.114 3610.75 318.91 L3610.75 322.938 Q3608.46 323.91 3606.05 324.419 Q3603.64 324.928 3601.16 324.928 Q3594.96 324.928 3591.33 321.317 Q3587.72 317.706 3587.72 311.549 Q3587.72 305.183 3591.14 301.456 Q3594.59 297.706 3600.42 297.706 Q3605.66 297.706 3608.69 301.086 Q3611.74 304.442 3611.74 310.229 M3607.48 308.979 Q3607.44 305.484 3605.52 303.401 Q3603.62 301.317 3600.47 301.317 Q3596.91 301.317 3594.75 303.331 Q3592.62 305.345 3592.3 309.003 L3607.48 308.979 Z" fill="#000000" fill-rule="evenodd" fill-opacity="1" /><path clip-path="url(#clip060)" d="M3635.26 299.095 L3635.26 303.123 Q3633.46 302.197 3631.51 301.734 Q3629.57 301.271 3627.48 301.271 Q3624.31 301.271 3622.72 302.243 Q3621.14 303.216 3621.14 305.16 Q3621.14 306.642 3622.28 307.498 Q3623.41 308.331 3626.84 309.095 L3628.29 309.419 Q3632.83 310.392 3634.73 312.174 Q3636.65 313.933 3636.65 317.104 Q3636.65 320.716 3633.78 322.822 Q3630.93 324.928 3625.93 324.928 Q3623.85 324.928 3621.58 324.512 Q3619.34 324.118 3616.84 323.308 L3616.84 318.91 Q3619.2 320.137 3621.49 320.762 Q3623.78 321.364 3626.03 321.364 Q3629.03 321.364 3630.65 320.345 Q3632.28 319.303 3632.28 317.429 Q3632.28 315.692 3631.09 314.766 Q3629.94 313.841 3625.98 312.984 L3624.5 312.637 Q3620.54 311.804 3618.78 310.091 Q3617.02 308.354 3617.02 305.345 Q3617.02 301.688 3619.61 299.697 Q3622.21 297.706 3626.97 297.706 Q3629.34 297.706 3631.42 298.054 Q3633.5 298.401 3635.26 299.095 Z" fill="#000000" fill-rule="evenodd" fill-opacity="1" /></svg>
