<?xml version="1.0" encoding="utf-8"?>
<svg xmlns="http://www.w3.org/2000/svg" xmlns:xlink="http://www.w3.org/1999/xlink" width="1000" height="400" viewBox="0 0 4000 1600">
<defs>
  <clipPath id="clip260">
    <rect x="0" y="0" width="4000" height="1600"/>
  </clipPath>
</defs>
<path clip-path="url(#clip260)" d="
M0 1600 L4000 1600 L4000 0 L0 0  Z
  " fill="#ffffff" fill-rule="evenodd" fill-opacity="1"/>
<defs>
  <clipPath id="clip261">
    <rect x="800" y="0" width="2801" height="1600"/>
  </clipPath>
</defs>
<path clip-path="url(#clip260)" d="
M234.133 1393.02 L1889.76 1393.02 L1889.76 162.272 L234.133 162.272  Z
  " fill="#ffffff" fill-rule="evenodd" fill-opacity="1"/>
<defs>
  <clipPath id="clip262">
    <rect x="234" y="162" width="1657" height="1232"/>
  </clipPath>
</defs>
<polyline clip-path="url(#clip262)" style="stroke:#000000; stroke-linecap:round; stroke-linejoin:round; stroke-width:2; stroke-opacity:0.1; fill:none" points="
  462.389,1393.02 462.389,162.272 
  "/>
<polyline clip-path="url(#clip262)" style="stroke:#000000; stroke-linecap:round; stroke-linejoin:round; stroke-width:2; stroke-opacity:0.1; fill:none" points="
  726.424,1393.02 726.424,162.272 
  "/>
<polyline clip-path="url(#clip262)" style="stroke:#000000; stroke-linecap:round; stroke-linejoin:round; stroke-width:2; stroke-opacity:0.1; fill:none" points="
  990.459,1393.02 990.459,162.272 
  "/>
<polyline clip-path="url(#clip262)" style="stroke:#000000; stroke-linecap:round; stroke-linejoin:round; stroke-width:2; stroke-opacity:0.1; fill:none" points="
  1254.49,1393.02 1254.49,162.272 
  "/>
<polyline clip-path="url(#clip262)" style="stroke:#000000; stroke-linecap:round; stroke-linejoin:round; stroke-width:2; stroke-opacity:0.1; fill:none" points="
  1518.53,1393.02 1518.53,162.272 
  "/>
<polyline clip-path="url(#clip262)" style="stroke:#000000; stroke-linecap:round; stroke-linejoin:round; stroke-width:2; stroke-opacity:0.1; fill:none" points="
  1782.56,1393.02 1782.56,162.272 
  "/>
<polyline clip-path="url(#clip260)" style="stroke:#000000; stroke-linecap:round; stroke-linejoin:round; stroke-width:4; stroke-opacity:1; fill:none" points="
  234.133,1393.02 1889.76,1393.02 
  "/>
<polyline clip-path="url(#clip260)" style="stroke:#000000; stroke-linecap:round; stroke-linejoin:round; stroke-width:4; stroke-opacity:1; fill:none" points="
  462.389,1393.02 462.389,1374.12 
  "/>
<polyline clip-path="url(#clip260)" style="stroke:#000000; stroke-linecap:round; stroke-linejoin:round; stroke-width:4; stroke-opacity:1; fill:none" points="
  726.424,1393.02 726.424,1374.12 
  "/>
<polyline clip-path="url(#clip260)" style="stroke:#000000; stroke-linecap:round; stroke-linejoin:round; stroke-width:4; stroke-opacity:1; fill:none" points="
  990.459,1393.02 990.459,1374.12 
  "/>
<polyline clip-path="url(#clip260)" style="stroke:#000000; stroke-linecap:round; stroke-linejoin:round; stroke-width:4; stroke-opacity:1; fill:none" points="
  1254.49,1393.02 1254.49,1374.12 
  "/>
<polyline clip-path="url(#clip260)" style="stroke:#000000; stroke-linecap:round; stroke-linejoin:round; stroke-width:4; stroke-opacity:1; fill:none" points="
  1518.53,1393.02 1518.53,1374.12 
  "/>
<polyline clip-path="url(#clip260)" style="stroke:#000000; stroke-linecap:round; stroke-linejoin:round; stroke-width:4; stroke-opacity:1; fill:none" points="
  1782.56,1393.02 1782.56,1374.12 
  "/>
<path clip-path="url(#clip260)" d="M424.692 1436.74 Q421.081 1436.74 419.252 1440.3 Q417.447 1443.84 417.447 1450.97 Q417.447 1458.08 419.252 1461.65 Q421.081 1465.19 424.692 1465.19 Q428.326 1465.19 430.132 1461.65 Q431.961 1458.08 431.961 1450.97 Q431.961 1443.84 430.132 1440.3 Q428.326 1436.74 424.692 1436.74 M424.692 1433.03 Q430.502 1433.03 433.558 1437.64 Q436.637 1442.22 436.637 1450.97 Q436.637 1459.7 433.558 1464.31 Q430.502 1468.89 424.692 1468.89 Q418.882 1468.89 415.803 1464.31 Q412.748 1459.7 412.748 1450.97 Q412.748 1442.22 415.803 1437.64 Q418.882 1433.03 424.692 1433.03 Z" fill="#000000" fill-rule="evenodd" fill-opacity="1" /><path clip-path="url(#clip260)" d="M444.854 1462.34 L449.738 1462.34 L449.738 1468.22 L444.854 1468.22 L444.854 1462.34 Z" fill="#000000" fill-rule="evenodd" fill-opacity="1" /><path clip-path="url(#clip260)" d="M460.062 1467.5 L460.062 1463.24 Q461.822 1464.08 463.627 1464.52 Q465.433 1464.96 467.169 1464.96 Q471.798 1464.96 474.229 1461.85 Q476.683 1458.73 477.03 1452.39 Q475.687 1454.38 473.627 1455.44 Q471.567 1456.51 469.067 1456.51 Q463.882 1456.51 460.849 1453.38 Q457.84 1450.23 457.84 1444.79 Q457.84 1439.47 460.988 1436.25 Q464.136 1433.03 469.368 1433.03 Q475.363 1433.03 478.511 1437.64 Q481.683 1442.22 481.683 1450.97 Q481.683 1459.15 477.794 1464.03 Q473.928 1468.89 467.377 1468.89 Q465.618 1468.89 463.812 1468.54 Q462.007 1468.2 460.062 1467.5 M469.368 1452.85 Q472.516 1452.85 474.345 1450.7 Q476.197 1448.54 476.197 1444.79 Q476.197 1441.07 474.345 1438.91 Q472.516 1436.74 469.368 1436.74 Q466.22 1436.74 464.368 1438.91 Q462.539 1441.07 462.539 1444.79 Q462.539 1448.54 464.368 1450.7 Q466.22 1452.85 469.368 1452.85 Z" fill="#000000" fill-rule="evenodd" fill-opacity="1" /><path clip-path="url(#clip260)" d="M500.085 1436.74 Q496.474 1436.74 494.646 1440.3 Q492.84 1443.84 492.84 1450.97 Q492.84 1458.08 494.646 1461.65 Q496.474 1465.19 500.085 1465.19 Q503.72 1465.19 505.525 1461.65 Q507.354 1458.08 507.354 1450.97 Q507.354 1443.84 505.525 1440.3 Q503.72 1436.74 500.085 1436.74 M500.085 1433.03 Q505.896 1433.03 508.951 1437.64 Q512.03 1442.22 512.03 1450.97 Q512.03 1459.7 508.951 1464.31 Q505.896 1468.89 500.085 1468.89 Q494.275 1468.89 491.197 1464.31 Q488.141 1459.7 488.141 1450.97 Q488.141 1442.22 491.197 1437.64 Q494.275 1433.03 500.085 1433.03 Z" fill="#000000" fill-rule="evenodd" fill-opacity="1" /><path clip-path="url(#clip260)" d="M689.225 1436.74 Q685.614 1436.74 683.785 1440.3 Q681.979 1443.84 681.979 1450.97 Q681.979 1458.08 683.785 1461.65 Q685.614 1465.19 689.225 1465.19 Q692.859 1465.19 694.665 1461.65 Q696.493 1458.08 696.493 1450.97 Q696.493 1443.84 694.665 1440.3 Q692.859 1436.74 689.225 1436.74 M689.225 1433.03 Q695.035 1433.03 698.091 1437.64 Q701.169 1442.22 701.169 1450.97 Q701.169 1459.7 698.091 1464.31 Q695.035 1468.89 689.225 1468.89 Q683.415 1468.89 680.336 1464.31 Q677.28 1459.7 677.28 1450.97 Q677.28 1442.22 680.336 1437.64 Q683.415 1433.03 689.225 1433.03 Z" fill="#000000" fill-rule="evenodd" fill-opacity="1" /><path clip-path="url(#clip260)" d="M709.387 1462.34 L714.271 1462.34 L714.271 1468.22 L709.387 1468.22 L709.387 1462.34 Z" fill="#000000" fill-rule="evenodd" fill-opacity="1" /><path clip-path="url(#clip260)" d="M724.595 1467.5 L724.595 1463.24 Q726.354 1464.08 728.16 1464.52 Q729.965 1464.96 731.701 1464.96 Q736.331 1464.96 738.762 1461.85 Q741.215 1458.73 741.562 1452.39 Q740.22 1454.38 738.16 1455.44 Q736.1 1456.51 733.6 1456.51 Q728.414 1456.51 725.382 1453.38 Q722.373 1450.23 722.373 1444.79 Q722.373 1439.47 725.521 1436.25 Q728.669 1433.03 733.901 1433.03 Q739.896 1433.03 743.044 1437.64 Q746.215 1442.22 746.215 1450.97 Q746.215 1459.15 742.326 1464.03 Q738.461 1468.89 731.91 1468.89 Q730.151 1468.89 728.345 1468.54 Q726.539 1468.2 724.595 1467.5 M733.901 1452.85 Q737.049 1452.85 738.877 1450.7 Q740.729 1448.54 740.729 1444.79 Q740.729 1441.07 738.877 1438.91 Q737.049 1436.74 733.901 1436.74 Q730.752 1436.74 728.901 1438.91 Q727.072 1441.07 727.072 1444.79 Q727.072 1448.54 728.901 1450.7 Q730.752 1452.85 733.901 1452.85 Z" fill="#000000" fill-rule="evenodd" fill-opacity="1" /><path clip-path="url(#clip260)" d="M754.664 1433.66 L773.021 1433.66 L773.021 1437.59 L758.947 1437.59 L758.947 1446.07 Q759.965 1445.72 760.984 1445.56 Q762.002 1445.37 763.021 1445.37 Q768.808 1445.37 772.187 1448.54 Q775.567 1451.72 775.567 1457.13 Q775.567 1462.71 772.095 1465.81 Q768.623 1468.89 762.303 1468.89 Q760.127 1468.89 757.859 1468.52 Q755.613 1468.15 753.206 1467.41 L753.206 1462.71 Q755.289 1463.84 757.511 1464.4 Q759.734 1464.96 762.211 1464.96 Q766.215 1464.96 768.553 1462.85 Q770.891 1460.74 770.891 1457.13 Q770.891 1453.52 768.553 1451.41 Q766.215 1449.31 762.211 1449.31 Q760.336 1449.31 758.461 1449.72 Q756.609 1450.14 754.664 1451.02 L754.664 1433.66 Z" fill="#000000" fill-rule="evenodd" fill-opacity="1" /><path clip-path="url(#clip260)" d="M942.531 1464.28 L950.169 1464.28 L950.169 1437.92 L941.859 1439.59 L941.859 1435.33 L950.123 1433.66 L954.799 1433.66 L954.799 1464.28 L962.438 1464.28 L962.438 1468.22 L942.531 1468.22 L942.531 1464.28 Z" fill="#000000" fill-rule="evenodd" fill-opacity="1" /><path clip-path="url(#clip260)" d="M971.882 1462.34 L976.767 1462.34 L976.767 1468.22 L971.882 1468.22 L971.882 1462.34 Z" fill="#000000" fill-rule="evenodd" fill-opacity="1" /><path clip-path="url(#clip260)" d="M996.952 1436.74 Q993.341 1436.74 991.512 1440.3 Q989.706 1443.84 989.706 1450.97 Q989.706 1458.08 991.512 1461.65 Q993.341 1465.19 996.952 1465.19 Q1000.59 1465.19 1002.39 1461.65 Q1004.22 1458.08 1004.22 1450.97 Q1004.22 1443.84 1002.39 1440.3 Q1000.59 1436.74 996.952 1436.74 M996.952 1433.03 Q1002.76 1433.03 1005.82 1437.64 Q1008.9 1442.22 1008.9 1450.97 Q1008.9 1459.7 1005.82 1464.31 Q1002.76 1468.89 996.952 1468.89 Q991.141 1468.89 988.063 1464.31 Q985.007 1459.7 985.007 1450.97 Q985.007 1442.22 988.063 1437.64 Q991.141 1433.03 996.952 1433.03 Z" fill="#000000" fill-rule="evenodd" fill-opacity="1" /><path clip-path="url(#clip260)" d="M1027.11 1436.74 Q1023.5 1436.74 1021.67 1440.3 Q1019.87 1443.84 1019.87 1450.97 Q1019.87 1458.08 1021.67 1461.65 Q1023.5 1465.19 1027.11 1465.19 Q1030.75 1465.19 1032.55 1461.65 Q1034.38 1458.08 1034.38 1450.97 Q1034.38 1443.84 1032.55 1440.3 Q1030.75 1436.74 1027.11 1436.74 M1027.11 1433.03 Q1032.92 1433.03 1035.98 1437.64 Q1039.06 1442.22 1039.06 1450.97 Q1039.06 1459.7 1035.98 1464.31 Q1032.92 1468.89 1027.11 1468.89 Q1021.3 1468.89 1018.22 1464.31 Q1015.17 1459.7 1015.17 1450.97 Q1015.17 1442.22 1018.22 1437.64 Q1021.3 1433.03 1027.11 1433.03 Z" fill="#000000" fill-rule="evenodd" fill-opacity="1" /><path clip-path="url(#clip260)" d="M1207.06 1464.28 L1214.7 1464.28 L1214.7 1437.92 L1206.39 1439.59 L1206.39 1435.33 L1214.66 1433.66 L1219.33 1433.66 L1219.33 1464.28 L1226.97 1464.28 L1226.97 1468.22 L1207.06 1468.22 L1207.06 1464.28 Z" fill="#000000" fill-rule="evenodd" fill-opacity="1" /><path clip-path="url(#clip260)" d="M1236.41 1462.34 L1241.3 1462.34 L1241.3 1468.22 L1236.41 1468.22 L1236.41 1462.34 Z" fill="#000000" fill-rule="evenodd" fill-opacity="1" /><path clip-path="url(#clip260)" d="M1261.48 1436.74 Q1257.87 1436.74 1256.04 1440.3 Q1254.24 1443.84 1254.24 1450.97 Q1254.24 1458.08 1256.04 1461.65 Q1257.87 1465.19 1261.48 1465.19 Q1265.12 1465.19 1266.92 1461.65 Q1268.75 1458.08 1268.75 1450.97 Q1268.75 1443.84 1266.92 1440.3 Q1265.12 1436.74 1261.48 1436.74 M1261.48 1433.03 Q1267.29 1433.03 1270.35 1437.64 Q1273.43 1442.22 1273.43 1450.97 Q1273.43 1459.7 1270.35 1464.31 Q1267.29 1468.89 1261.48 1468.89 Q1255.67 1468.89 1252.6 1464.31 Q1249.54 1459.7 1249.54 1450.97 Q1249.54 1442.22 1252.6 1437.64 Q1255.67 1433.03 1261.48 1433.03 Z" fill="#000000" fill-rule="evenodd" fill-opacity="1" /><path clip-path="url(#clip260)" d="M1281.69 1433.66 L1300.05 1433.66 L1300.05 1437.59 L1285.97 1437.59 L1285.97 1446.07 Q1286.99 1445.72 1288.01 1445.56 Q1289.03 1445.37 1290.05 1445.37 Q1295.84 1445.37 1299.22 1448.54 Q1302.6 1451.72 1302.6 1457.13 Q1302.6 1462.71 1299.12 1465.81 Q1295.65 1468.89 1289.33 1468.89 Q1287.16 1468.89 1284.89 1468.52 Q1282.64 1468.15 1280.23 1467.41 L1280.23 1462.71 Q1282.32 1463.84 1284.54 1464.4 Q1286.76 1464.96 1289.24 1464.96 Q1293.24 1464.96 1295.58 1462.85 Q1297.92 1460.74 1297.92 1457.13 Q1297.92 1453.52 1295.58 1451.41 Q1293.24 1449.31 1289.24 1449.31 Q1287.36 1449.31 1285.49 1449.72 Q1283.64 1450.14 1281.69 1451.02 L1281.69 1433.66 Z" fill="#000000" fill-rule="evenodd" fill-opacity="1" /><path clip-path="url(#clip260)" d="M1470.6 1464.28 L1478.24 1464.28 L1478.24 1437.92 L1469.93 1439.59 L1469.93 1435.33 L1478.19 1433.66 L1482.87 1433.66 L1482.87 1464.28 L1490.51 1464.28 L1490.51 1468.22 L1470.6 1468.22 L1470.6 1464.28 Z" fill="#000000" fill-rule="evenodd" fill-opacity="1" /><path clip-path="url(#clip260)" d="M1499.95 1462.34 L1504.84 1462.34 L1504.84 1468.22 L1499.95 1468.22 L1499.95 1462.34 Z" fill="#000000" fill-rule="evenodd" fill-opacity="1" /><path clip-path="url(#clip260)" d="M1515.83 1464.28 L1523.47 1464.28 L1523.47 1437.92 L1515.16 1439.59 L1515.16 1435.33 L1523.42 1433.66 L1528.1 1433.66 L1528.1 1464.28 L1535.74 1464.28 L1535.74 1468.22 L1515.83 1468.22 L1515.83 1464.28 Z" fill="#000000" fill-rule="evenodd" fill-opacity="1" /><path clip-path="url(#clip260)" d="M1555.18 1436.74 Q1551.57 1436.74 1549.74 1440.3 Q1547.94 1443.84 1547.94 1450.97 Q1547.94 1458.08 1549.74 1461.65 Q1551.57 1465.19 1555.18 1465.19 Q1558.82 1465.19 1560.62 1461.65 Q1562.45 1458.08 1562.45 1450.97 Q1562.45 1443.84 1560.62 1440.3 Q1558.82 1436.74 1555.18 1436.74 M1555.18 1433.03 Q1560.99 1433.03 1564.05 1437.64 Q1567.13 1442.22 1567.13 1450.97 Q1567.13 1459.7 1564.05 1464.31 Q1560.99 1468.89 1555.18 1468.89 Q1549.37 1468.89 1546.29 1464.31 Q1543.24 1459.7 1543.24 1450.97 Q1543.24 1442.22 1546.29 1437.64 Q1549.37 1433.03 1555.18 1433.03 Z" fill="#000000" fill-rule="evenodd" fill-opacity="1" /><path clip-path="url(#clip260)" d="M1735.13 1464.28 L1742.77 1464.28 L1742.77 1437.92 L1734.46 1439.59 L1734.46 1435.33 L1742.73 1433.66 L1747.4 1433.66 L1747.4 1464.28 L1755.04 1464.28 L1755.04 1468.22 L1735.13 1468.22 L1735.13 1464.28 Z" fill="#000000" fill-rule="evenodd" fill-opacity="1" /><path clip-path="url(#clip260)" d="M1764.48 1462.34 L1769.37 1462.34 L1769.37 1468.22 L1764.48 1468.22 L1764.48 1462.34 Z" fill="#000000" fill-rule="evenodd" fill-opacity="1" /><path clip-path="url(#clip260)" d="M1780.36 1464.28 L1788 1464.28 L1788 1437.92 L1779.69 1439.59 L1779.69 1435.33 L1787.96 1433.66 L1792.63 1433.66 L1792.63 1464.28 L1800.27 1464.28 L1800.27 1468.22 L1780.36 1468.22 L1780.36 1464.28 Z" fill="#000000" fill-rule="evenodd" fill-opacity="1" /><path clip-path="url(#clip260)" d="M1809.76 1433.66 L1828.12 1433.66 L1828.12 1437.59 L1814.04 1437.59 L1814.04 1446.07 Q1815.06 1445.72 1816.08 1445.56 Q1817.1 1445.37 1818.12 1445.37 Q1823.91 1445.37 1827.29 1448.54 Q1830.66 1451.72 1830.66 1457.13 Q1830.66 1462.71 1827.19 1465.81 Q1823.72 1468.89 1817.4 1468.89 Q1815.23 1468.89 1812.96 1468.52 Q1810.71 1468.15 1808.3 1467.41 L1808.3 1462.71 Q1810.39 1463.84 1812.61 1464.4 Q1814.83 1464.96 1817.31 1464.96 Q1821.31 1464.96 1823.65 1462.85 Q1825.99 1460.74 1825.99 1457.13 Q1825.99 1453.52 1823.65 1451.41 Q1821.31 1449.31 1817.31 1449.31 Q1815.43 1449.31 1813.56 1449.72 Q1811.71 1450.14 1809.76 1451.02 L1809.76 1433.66 Z" fill="#000000" fill-rule="evenodd" fill-opacity="1" /><path clip-path="url(#clip260)" d="M1048.87 1532.6 Q1050.81 1529.35 1055.61 1526.49 Q1057.49 1525.38 1063.29 1525.38 Q1069.78 1525.38 1073.82 1530.53 Q1077.89 1535.69 1077.89 1544.09 Q1077.89 1552.49 1073.82 1557.65 Q1069.78 1562.81 1063.29 1562.81 Q1059.37 1562.81 1056.54 1561.28 Q1053.74 1559.72 1051.89 1556.54 L1051.89 1575.44 L1046 1575.44 L1046 1544.41 Q1046 1537.06 1048.87 1532.6 M1071.82 1544.09 Q1071.82 1537.63 1069.14 1533.97 Q1066.5 1530.28 1061.85 1530.28 Q1057.21 1530.28 1054.53 1533.97 Q1051.89 1537.63 1051.89 1544.09 Q1051.89 1550.55 1054.53 1554.24 Q1057.21 1557.91 1061.85 1557.91 Q1066.5 1557.91 1069.14 1554.24 Q1071.82 1550.55 1071.82 1544.09 Z" fill="#000000" fill-rule="evenodd" fill-opacity="1" /><polyline clip-path="url(#clip262)" style="stroke:#000000; stroke-linecap:round; stroke-linejoin:round; stroke-width:2; stroke-opacity:0.1; fill:none" points="
  234.133,1358.19 1889.76,1358.19 
  "/>
<polyline clip-path="url(#clip262)" style="stroke:#000000; stroke-linecap:round; stroke-linejoin:round; stroke-width:2; stroke-opacity:0.1; fill:none" points="
  234.133,971.16 1889.76,971.16 
  "/>
<polyline clip-path="url(#clip262)" style="stroke:#000000; stroke-linecap:round; stroke-linejoin:round; stroke-width:2; stroke-opacity:0.1; fill:none" points="
  234.133,584.132 1889.76,584.132 
  "/>
<polyline clip-path="url(#clip262)" style="stroke:#000000; stroke-linecap:round; stroke-linejoin:round; stroke-width:2; stroke-opacity:0.1; fill:none" points="
  234.133,197.105 1889.76,197.105 
  "/>
<polyline clip-path="url(#clip260)" style="stroke:#000000; stroke-linecap:round; stroke-linejoin:round; stroke-width:4; stroke-opacity:1; fill:none" points="
  234.133,1393.02 234.133,162.272 
  "/>
<polyline clip-path="url(#clip260)" style="stroke:#000000; stroke-linecap:round; stroke-linejoin:round; stroke-width:4; stroke-opacity:1; fill:none" points="
  234.133,1358.19 253.031,1358.19 
  "/>
<polyline clip-path="url(#clip260)" style="stroke:#000000; stroke-linecap:round; stroke-linejoin:round; stroke-width:4; stroke-opacity:1; fill:none" points="
  234.133,971.16 253.031,971.16 
  "/>
<polyline clip-path="url(#clip260)" style="stroke:#000000; stroke-linecap:round; stroke-linejoin:round; stroke-width:4; stroke-opacity:1; fill:none" points="
  234.133,584.132 253.031,584.132 
  "/>
<polyline clip-path="url(#clip260)" style="stroke:#000000; stroke-linecap:round; stroke-linejoin:round; stroke-width:4; stroke-opacity:1; fill:none" points="
  234.133,197.105 253.031,197.105 
  "/>
<path clip-path="url(#clip260)" d="M162.189 1343.99 Q158.578 1343.99 156.749 1347.55 Q154.943 1351.09 154.943 1358.22 Q154.943 1365.33 156.749 1368.89 Q158.578 1372.43 162.189 1372.43 Q165.823 1372.43 167.628 1368.89 Q169.457 1365.33 169.457 1358.22 Q169.457 1351.09 167.628 1347.55 Q165.823 1343.99 162.189 1343.99 M162.189 1340.28 Q167.999 1340.28 171.054 1344.89 Q174.133 1349.47 174.133 1358.22 Q174.133 1366.95 171.054 1371.56 Q167.999 1376.14 162.189 1376.14 Q156.379 1376.14 153.3 1371.56 Q150.244 1366.95 150.244 1358.22 Q150.244 1349.47 153.3 1344.89 Q156.379 1340.28 162.189 1340.28 Z" fill="#000000" fill-rule="evenodd" fill-opacity="1" /><path clip-path="url(#clip260)" d="M154.226 984.505 L161.865 984.505 L161.865 958.139 L153.554 959.806 L153.554 955.546 L161.818 953.88 L166.494 953.88 L166.494 984.505 L174.133 984.505 L174.133 988.44 L154.226 988.44 L154.226 984.505 Z" fill="#000000" fill-rule="evenodd" fill-opacity="1" /><path clip-path="url(#clip260)" d="M157.814 597.477 L174.133 597.477 L174.133 601.412 L152.189 601.412 L152.189 597.477 Q154.851 594.722 159.434 590.093 Q164.041 585.44 165.221 584.098 Q167.466 581.574 168.346 579.838 Q169.249 578.079 169.249 576.389 Q169.249 573.635 167.304 571.899 Q165.383 570.162 162.281 570.162 Q160.082 570.162 157.629 570.926 Q155.198 571.69 152.42 573.241 L152.42 568.519 Q155.244 567.385 157.698 566.806 Q160.152 566.227 162.189 566.227 Q167.559 566.227 170.753 568.912 Q173.948 571.598 173.948 576.088 Q173.948 578.218 173.138 580.139 Q172.351 582.037 170.244 584.63 Q169.665 585.301 166.564 588.519 Q163.462 591.713 157.814 597.477 Z" fill="#000000" fill-rule="evenodd" fill-opacity="1" /><path clip-path="url(#clip260)" d="M167.003 195.751 Q170.36 196.468 172.235 198.737 Q174.133 201.005 174.133 204.338 Q174.133 209.454 170.615 212.255 Q167.096 215.056 160.615 215.056 Q158.439 215.056 156.124 214.616 Q153.832 214.2 151.379 213.343 L151.379 208.829 Q153.323 209.963 155.638 210.542 Q157.953 211.121 160.476 211.121 Q164.874 211.121 167.165 209.385 Q169.48 207.649 169.48 204.338 Q169.48 201.283 167.328 199.57 Q165.198 197.834 161.378 197.834 L157.351 197.834 L157.351 193.991 L161.564 193.991 Q165.013 193.991 166.841 192.626 Q168.67 191.237 168.67 188.644 Q168.67 185.982 166.772 184.57 Q164.897 183.135 161.378 183.135 Q159.457 183.135 157.258 183.552 Q155.059 183.968 152.42 184.848 L152.42 180.681 Q155.082 179.94 157.397 179.57 Q159.735 179.2 161.795 179.2 Q167.119 179.2 170.221 181.63 Q173.323 184.038 173.323 188.158 Q173.323 191.028 171.679 193.019 Q170.036 194.987 167.003 195.751 Z" fill="#000000" fill-rule="evenodd" fill-opacity="1" /><path clip-path="url(#clip260)" d="M40.3403 876.171 L40.3403 848.353 L45.6875 848.353 L71.3095 870.378 L71.3095 848.353 L75.9883 848.353 L75.9883 876.967 L70.6411 876.967 L45.0191 854.942 L45.0191 876.171 L40.3403 876.171 Z" fill="#000000" fill-rule="evenodd" fill-opacity="1" /><path clip-path="url(#clip260)" d="M26.5267 804.621 Q33.8473 808.886 41.0087 810.955 Q48.1701 813.023 55.5225 813.023 Q62.8749 813.023 70.1 810.955 Q77.2933 808.854 84.582 804.621 L84.582 809.713 Q77.1023 814.488 69.8772 816.875 Q62.6521 819.23 55.5225 819.23 Q48.4248 819.23 41.2315 816.875 Q34.0383 814.519 26.5267 809.713 L26.5267 804.621 Z" fill="#000000" fill-rule="evenodd" fill-opacity="1" /><path clip-path="url(#clip260)" d="M26.4631 793.481 L26.4631 787.592 L55.7135 787.592 L40.3403 770.119 L40.3403 762.639 L57.0185 781.545 L75.9883 761.843 L75.9883 769.482 L58.5781 787.592 L75.9883 787.592 L75.9883 793.481 L26.4631 793.481 Z" fill="#000000" fill-rule="evenodd" fill-opacity="1" /><path clip-path="url(#clip260)" d="M47.1835 727.755 Q43.2367 725.559 41.3588 722.503 Q39.481 719.448 39.481 715.31 Q39.481 709.74 43.3959 706.716 Q47.2789 703.692 54.4722 703.692 L75.9883 703.692 L75.9883 709.581 L54.6632 709.581 Q49.5388 709.581 47.0561 711.395 Q44.5735 713.209 44.5735 716.933 Q44.5735 721.485 47.5972 724.126 Q50.6209 726.768 55.8408 726.768 L75.9883 726.768 L75.9883 732.656 L54.6632 732.656 Q49.5069 732.656 47.0561 734.471 Q44.5735 736.285 44.5735 740.072 Q44.5735 744.56 47.6291 747.202 Q50.6528 749.844 55.8408 749.844 L75.9883 749.844 L75.9883 755.732 L40.3403 755.732 L40.3403 749.844 L45.8785 749.844 Q42.6002 747.839 41.0406 745.038 Q39.481 742.237 39.481 738.385 Q39.481 734.502 41.4543 731.797 Q43.4277 729.06 47.1835 727.755 Z" fill="#000000" fill-rule="evenodd" fill-opacity="1" /><path clip-path="url(#clip260)" d="M26.5267 692.934 L26.5267 687.842 Q34.0383 683.067 41.2315 680.712 Q48.4248 678.325 55.5225 678.325 Q62.6521 678.325 69.8772 680.712 Q77.1023 683.067 84.582 687.842 L84.582 692.934 Q77.2933 688.701 70.1 686.632 Q62.8749 684.532 55.5225 684.532 Q48.1701 684.532 41.0087 686.632 Q33.8473 688.701 26.5267 692.934 Z" fill="#000000" fill-rule="evenodd" fill-opacity="1" /><path clip-path="url(#clip260)" d="M1045.3 35.3077 Q1047.77 31.1758 1053.89 27.5299 Q1056.28 26.1121 1063.65 26.1121 Q1071.91 26.1121 1077.06 32.6746 Q1082.24 39.2371 1082.24 49.9314 Q1082.24 60.6258 1077.06 67.1883 Q1071.91 73.7508 1063.65 73.7508 Q1058.67 73.7508 1055.06 71.8063 Q1051.5 69.8214 1049.15 65.7705 L1049.15 89.8329 L1041.65 89.8329 L1041.65 50.3365 Q1041.65 40.9789 1045.3 35.3077 M1074.51 49.9314 Q1074.51 41.7081 1071.1 37.0496 Q1067.74 32.3505 1061.83 32.3505 Q1055.91 32.3505 1052.51 37.0496 Q1049.15 41.7081 1049.15 49.9314 Q1049.15 58.1548 1052.51 62.8538 Q1055.91 67.5124 1061.83 67.5124 Q1067.74 67.5124 1071.1 62.8538 Q1074.51 58.1548 1074.51 49.9314 Z" fill="#000000" fill-rule="evenodd" fill-opacity="1" /><polyline clip-path="url(#clip262)" style="stroke:#009af9; stroke-linecap:round; stroke-linejoin:round; stroke-width:4; stroke-opacity:1; fill:none" points="
  1828.21,1348.51 1799.07,1329.16 1769.97,1309.81 1740.97,1290.46 1712.09,1271.11 1683.32,1251.75 1654.67,1232.4 1626.2,1213.05 1597.74,1193.7 1569.44,1174.35 
  1541.25,1155 1513.18,1135.65 1485.21,1116.3 1457.36,1096.94 1429.62,1077.59 1402.03,1058.24 1374.49,1038.89 1347.09,1019.54 1319.75,1000.19 1292.6,980.835 
  1265.55,961.484 1238.59,942.133 1211.79,922.781 1185.01,903.43 1158.36,884.079 1131.85,864.727 1105.44,845.376 1079.13,826.024 1052.94,806.673 1026.85,787.322 
  1000.86,767.97 974.988,748.619 949.263,729.268 923.57,709.916 897.997,690.565 872.546,671.213 847.216,651.862 822.008,632.511 796.814,613.159 771.781,593.808 
  746.851,574.457 722.025,555.105 697.303,535.754 672.685,516.402 648.17,497.051 623.758,477.7 599.449,458.348 575.243,438.997 551.14,419.646 527.139,400.294 
  503.241,380.943 479.371,361.591 455.661,342.24 432.05,322.889 408.539,303.537 385.128,284.186 361.814,264.835 338.599,245.483 315.483,226.132 292.463,206.78 
  
  "/>
<polyline clip-path="url(#clip262)" style="stroke:#e26f46; stroke-linecap:round; stroke-linejoin:round; stroke-width:4; stroke-opacity:1; fill:none" points="
  1842.91,1358.19 1813.66,1338.84 1784.51,1319.48 1755.46,1300.13 1726.52,1280.78 1697.69,1261.43 1668.98,1242.08 1640.39,1222.73 1611.91,1203.38 1583.58,1184.02 
  1555.33,1164.67 1527.2,1145.32 1499.18,1125.97 1471.27,1106.62 1443.48,1087.27 1415.8,1067.92 1388.23,1048.57 1360.77,1029.21 1333.43,1009.86 1306.16,990.511 
  1279.06,971.16 1252.06,951.808 1225.16,932.457 1198.38,913.106 1171.68,893.754 1145.1,874.403 1118.63,855.051 1092.27,835.7 1066.02,816.349 1039.88,796.997 
  1013.84,777.646 987.913,758.295 962.154,738.943 936.401,719.592 910.769,700.24 885.257,680.889 859.866,661.538 834.597,642.186 809.37,622.835 784.284,603.484 
  759.303,584.132 734.425,564.781 709.651,545.429 684.981,526.078 660.414,506.727 635.951,487.375 611.59,468.024 587.333,448.673 563.179,429.321 539.127,409.97 
  515.177,390.618 491.331,371.267 467.503,351.916 443.843,332.564 420.283,313.213 396.821,293.862 373.459,274.51 350.195,255.159 327.029,235.807 303.961,216.456 
  280.991,197.105 
  "/>
<path clip-path="url(#clip260)" d="
M1478.33 358.817 L1834.58 358.817 L1834.58 203.297 L1478.33 203.297  Z
  " fill="#ffffff" fill-rule="evenodd" fill-opacity="1"/>
<polyline clip-path="url(#clip260)" style="stroke:#000000; stroke-linecap:round; stroke-linejoin:round; stroke-width:4; stroke-opacity:1; fill:none" points="
  1478.33,358.817 1834.58,358.817 1834.58,203.297 1478.33,203.297 1478.33,358.817 
  "/>
<polyline clip-path="url(#clip260)" style="stroke:#009af9; stroke-linecap:round; stroke-linejoin:round; stroke-width:4; stroke-opacity:1; fill:none" points="
  1496.72,255.137 1607.1,255.137 
  "/>
<path clip-path="url(#clip260)" d="M1646 247.487 L1646 251.468 Q1644.2 250.473 1642.37 249.987 Q1640.56 249.477 1638.71 249.477 Q1634.57 249.477 1632.28 252.116 Q1629.98 254.732 1629.98 259.477 Q1629.98 264.223 1632.28 266.862 Q1634.57 269.477 1638.71 269.477 Q1640.56 269.477 1642.37 268.991 Q1644.2 268.482 1646 267.487 L1646 271.422 Q1644.22 272.255 1642.3 272.672 Q1640.4 273.088 1638.25 273.088 Q1632.39 273.088 1628.94 269.408 Q1625.49 265.727 1625.49 259.477 Q1625.49 253.135 1628.97 249.501 Q1632.46 245.866 1638.53 245.866 Q1640.49 245.866 1642.37 246.283 Q1644.24 246.677 1646 247.487 Z" fill="#000000" fill-rule="evenodd" fill-opacity="1" /><path clip-path="url(#clip260)" d="M1675.59 258.389 L1675.59 260.473 L1656 260.473 Q1656.28 264.871 1658.64 267.186 Q1661.03 269.477 1665.26 269.477 Q1667.72 269.477 1670.01 268.876 Q1672.32 268.274 1674.59 267.07 L1674.59 271.098 Q1672.3 272.07 1669.89 272.579 Q1667.48 273.088 1665.01 273.088 Q1658.8 273.088 1655.17 269.477 Q1651.56 265.866 1651.56 259.709 Q1651.56 253.343 1654.98 249.616 Q1658.43 245.866 1664.27 245.866 Q1669.5 245.866 1672.53 249.246 Q1675.59 252.602 1675.59 258.389 M1671.33 257.139 Q1671.28 253.644 1669.36 251.561 Q1667.46 249.477 1664.31 249.477 Q1660.75 249.477 1658.6 251.491 Q1656.47 253.505 1656.14 257.163 L1671.33 257.139 Z" fill="#000000" fill-rule="evenodd" fill-opacity="1" /><path clip-path="url(#clip260)" d="M1704.13 256.769 L1704.13 272.417 L1699.87 272.417 L1699.87 256.908 Q1699.87 253.227 1698.43 251.399 Q1697 249.57 1694.13 249.57 Q1690.68 249.57 1688.69 251.769 Q1686.7 253.968 1686.7 257.764 L1686.7 272.417 L1682.41 272.417 L1682.41 246.491 L1686.7 246.491 L1686.7 250.519 Q1688.22 248.181 1690.28 247.024 Q1692.37 245.866 1695.08 245.866 Q1699.54 245.866 1701.84 248.644 Q1704.13 251.399 1704.13 256.769 Z" fill="#000000" fill-rule="evenodd" fill-opacity="1" /><path clip-path="url(#clip260)" d="M1716.84 239.13 L1716.84 246.491 L1725.61 246.491 L1725.61 249.802 L1716.84 249.802 L1716.84 263.876 Q1716.84 267.047 1717.69 267.95 Q1718.57 268.852 1721.23 268.852 L1725.61 268.852 L1725.61 272.417 L1721.23 272.417 Q1716.3 272.417 1714.43 270.588 Q1712.55 268.737 1712.55 263.876 L1712.55 249.802 L1709.43 249.802 L1709.43 246.491 L1712.55 246.491 L1712.55 239.13 L1716.84 239.13 Z" fill="#000000" fill-rule="evenodd" fill-opacity="1" /><path clip-path="url(#clip260)" d="M1753.39 258.389 L1753.39 260.473 L1733.8 260.473 Q1734.08 264.871 1736.44 267.186 Q1738.83 269.477 1743.06 269.477 Q1745.52 269.477 1747.81 268.876 Q1750.12 268.274 1752.39 267.07 L1752.39 271.098 Q1750.1 272.07 1747.69 272.579 Q1745.28 273.088 1742.81 273.088 Q1736.6 273.088 1732.97 269.477 Q1729.36 265.866 1729.36 259.709 Q1729.36 253.343 1732.78 249.616 Q1736.23 245.866 1742.07 245.866 Q1747.3 245.866 1750.33 249.246 Q1753.39 252.602 1753.39 258.389 M1749.13 257.139 Q1749.08 253.644 1747.16 251.561 Q1745.26 249.477 1742.11 249.477 Q1738.55 249.477 1736.4 251.491 Q1734.27 253.505 1733.94 257.163 L1749.13 257.139 Z" fill="#000000" fill-rule="evenodd" fill-opacity="1" /><path clip-path="url(#clip260)" d="M1775.4 250.473 Q1774.68 250.056 1773.83 249.871 Q1772.99 249.663 1771.97 249.663 Q1768.36 249.663 1766.42 252.024 Q1764.5 254.362 1764.5 258.76 L1764.5 272.417 L1760.22 272.417 L1760.22 246.491 L1764.5 246.491 L1764.5 250.519 Q1765.84 248.158 1767.99 247.024 Q1770.15 245.866 1773.22 245.866 Q1773.66 245.866 1774.2 245.936 Q1774.73 245.982 1775.38 246.098 L1775.4 250.473 Z" fill="#000000" fill-rule="evenodd" fill-opacity="1" /><path clip-path="url(#clip260)" d="M1796.4 247.255 L1796.4 251.283 Q1794.59 250.357 1792.65 249.894 Q1790.7 249.431 1788.62 249.431 Q1785.45 249.431 1783.85 250.403 Q1782.28 251.376 1782.28 253.32 Q1782.28 254.802 1783.41 255.658 Q1784.54 256.491 1787.97 257.255 L1789.43 257.579 Q1793.96 258.552 1795.86 260.334 Q1797.78 262.093 1797.78 265.264 Q1797.78 268.876 1794.91 270.982 Q1792.07 273.088 1787.07 273.088 Q1784.98 273.088 1782.71 272.672 Q1780.47 272.278 1777.97 271.468 L1777.97 267.07 Q1780.33 268.297 1782.62 268.922 Q1784.91 269.524 1787.16 269.524 Q1790.17 269.524 1791.79 268.505 Q1793.41 267.463 1793.41 265.589 Q1793.41 263.852 1792.23 262.926 Q1791.07 262.001 1787.11 261.144 L1785.63 260.797 Q1781.67 259.964 1779.91 258.251 Q1778.15 256.514 1778.15 253.505 Q1778.15 249.848 1780.75 247.857 Q1783.34 245.866 1788.11 245.866 Q1790.47 245.866 1792.55 246.214 Q1794.64 246.561 1796.4 247.255 Z" fill="#000000" fill-rule="evenodd" fill-opacity="1" /><polyline clip-path="url(#clip260)" style="stroke:#e26f46; stroke-linecap:round; stroke-linejoin:round; stroke-width:4; stroke-opacity:1; fill:none" points="
  1496.72,306.977 1607.1,306.977 
  "/>
<path clip-path="url(#clip260)" d="M1642 288.239 L1642 291.78 L1637.92 291.78 Q1635.63 291.78 1634.73 292.706 Q1633.85 293.632 1633.85 296.04 L1633.85 298.331 L1640.86 298.331 L1640.86 301.642 L1633.85 301.642 L1633.85 324.257 L1629.57 324.257 L1629.57 301.642 L1625.49 301.642 L1625.49 298.331 L1629.57 298.331 L1629.57 296.526 Q1629.57 292.197 1631.58 290.23 Q1633.6 288.239 1637.97 288.239 L1642 288.239 Z" fill="#000000" fill-rule="evenodd" fill-opacity="1" /><path clip-path="url(#clip260)" d="M1657.35 311.225 Q1652.18 311.225 1650.19 312.405 Q1648.2 313.586 1648.2 316.433 Q1648.2 318.702 1649.68 320.044 Q1651.19 321.364 1653.76 321.364 Q1657.3 321.364 1659.43 318.864 Q1661.58 316.341 1661.58 312.174 L1661.58 311.225 L1657.35 311.225 M1665.84 309.466 L1665.84 324.257 L1661.58 324.257 L1661.58 320.322 Q1660.12 322.683 1657.95 323.817 Q1655.77 324.928 1652.62 324.928 Q1648.64 324.928 1646.28 322.706 Q1643.94 320.461 1643.94 316.711 Q1643.94 312.336 1646.86 310.114 Q1649.8 307.892 1655.61 307.892 L1661.58 307.892 L1661.58 307.475 Q1661.58 304.535 1659.64 302.938 Q1657.72 301.317 1654.22 301.317 Q1652 301.317 1649.89 301.85 Q1647.79 302.382 1645.84 303.447 L1645.84 299.512 Q1648.18 298.609 1650.38 298.169 Q1652.58 297.706 1654.66 297.706 Q1660.29 297.706 1663.06 300.623 Q1665.84 303.54 1665.84 309.466 Z" fill="#000000" fill-rule="evenodd" fill-opacity="1" /><path clip-path="url(#clip260)" d="M1693.27 299.327 L1693.27 303.308 Q1691.47 302.313 1689.64 301.827 Q1687.83 301.317 1685.98 301.317 Q1681.84 301.317 1679.54 303.956 Q1677.25 306.572 1677.25 311.317 Q1677.25 316.063 1679.54 318.702 Q1681.84 321.317 1685.98 321.317 Q1687.83 321.317 1689.64 320.831 Q1691.47 320.322 1693.27 319.327 L1693.27 323.262 Q1691.49 324.095 1689.57 324.512 Q1687.67 324.928 1685.52 324.928 Q1679.66 324.928 1676.21 321.248 Q1672.76 317.567 1672.76 311.317 Q1672.76 304.975 1676.23 301.341 Q1679.73 297.706 1685.79 297.706 Q1687.76 297.706 1689.64 298.123 Q1691.51 298.517 1693.27 299.327 Z" fill="#000000" fill-rule="evenodd" fill-opacity="1" /><path clip-path="url(#clip260)" d="M1722.85 310.229 L1722.85 312.313 L1703.27 312.313 Q1703.55 316.711 1705.91 319.026 Q1708.29 321.317 1712.53 321.317 Q1714.98 321.317 1717.28 320.716 Q1719.59 320.114 1721.86 318.91 L1721.86 322.938 Q1719.57 323.91 1717.16 324.419 Q1714.75 324.928 1712.28 324.928 Q1706.07 324.928 1702.44 321.317 Q1698.83 317.706 1698.83 311.549 Q1698.83 305.183 1702.25 301.456 Q1705.7 297.706 1711.53 297.706 Q1716.77 297.706 1719.8 301.086 Q1722.85 304.442 1722.85 310.229 M1718.59 308.979 Q1718.55 305.484 1716.63 303.401 Q1714.73 301.317 1711.58 301.317 Q1708.02 301.317 1705.86 303.331 Q1703.73 305.345 1703.41 309.003 L1718.59 308.979 Z" fill="#000000" fill-rule="evenodd" fill-opacity="1" /><path clip-path="url(#clip260)" d="M1746.37 299.095 L1746.37 303.123 Q1744.57 302.197 1742.62 301.734 Q1740.68 301.271 1738.59 301.271 Q1735.42 301.271 1733.83 302.243 Q1732.25 303.216 1732.25 305.16 Q1732.25 306.642 1733.39 307.498 Q1734.52 308.331 1737.95 309.095 L1739.4 309.419 Q1743.94 310.392 1745.84 312.174 Q1747.76 313.933 1747.76 317.104 Q1747.76 320.716 1744.89 322.822 Q1742.04 324.928 1737.04 324.928 Q1734.96 324.928 1732.69 324.512 Q1730.45 324.118 1727.95 323.308 L1727.95 318.91 Q1730.31 320.137 1732.6 320.762 Q1734.89 321.364 1737.14 321.364 Q1740.15 321.364 1741.77 320.345 Q1743.39 319.303 1743.39 317.429 Q1743.39 315.692 1742.21 314.766 Q1741.05 313.841 1737.09 312.984 L1735.61 312.637 Q1731.65 311.804 1729.89 310.091 Q1728.13 308.354 1728.13 305.345 Q1728.13 301.688 1730.72 299.697 Q1733.32 297.706 1738.09 297.706 Q1740.45 297.706 1742.53 298.054 Q1744.61 298.401 1746.37 299.095 Z" fill="#000000" fill-rule="evenodd" fill-opacity="1" /><path clip-path="url(#clip260)" d="
M2234.13 1393.02 L3889.76 1393.02 L3889.76 162.272 L2234.13 162.272  Z
  " fill="#ffffff" fill-rule="evenodd" fill-opacity="1"/>
<defs>
  <clipPath id="clip263">
    <rect x="2234" y="162" width="1657" height="1232"/>
  </clipPath>
</defs>
<polyline clip-path="url(#clip263)" style="stroke:#000000; stroke-linecap:round; stroke-linejoin:round; stroke-width:2; stroke-opacity:0.1; fill:none" points="
  2446.92,1393.02 2446.92,162.272 
  "/>
<polyline clip-path="url(#clip263)" style="stroke:#000000; stroke-linecap:round; stroke-linejoin:round; stroke-width:2; stroke-opacity:0.1; fill:none" points="
  2710.31,1393.02 2710.31,162.272 
  "/>
<polyline clip-path="url(#clip263)" style="stroke:#000000; stroke-linecap:round; stroke-linejoin:round; stroke-width:2; stroke-opacity:0.1; fill:none" points="
  2973.7,1393.02 2973.7,162.272 
  "/>
<polyline clip-path="url(#clip263)" style="stroke:#000000; stroke-linecap:round; stroke-linejoin:round; stroke-width:2; stroke-opacity:0.1; fill:none" points="
  3237.1,1393.02 3237.1,162.272 
  "/>
<polyline clip-path="url(#clip263)" style="stroke:#000000; stroke-linecap:round; stroke-linejoin:round; stroke-width:2; stroke-opacity:0.1; fill:none" points="
  3500.49,1393.02 3500.49,162.272 
  "/>
<polyline clip-path="url(#clip263)" style="stroke:#000000; stroke-linecap:round; stroke-linejoin:round; stroke-width:2; stroke-opacity:0.1; fill:none" points="
  3763.89,1393.02 3763.89,162.272 
  "/>
<polyline clip-path="url(#clip260)" style="stroke:#000000; stroke-linecap:round; stroke-linejoin:round; stroke-width:4; stroke-opacity:1; fill:none" points="
  2234.13,1393.02 3889.76,1393.02 
  "/>
<polyline clip-path="url(#clip260)" style="stroke:#000000; stroke-linecap:round; stroke-linejoin:round; stroke-width:4; stroke-opacity:1; fill:none" points="
  2446.92,1393.02 2446.92,1374.12 
  "/>
<polyline clip-path="url(#clip260)" style="stroke:#000000; stroke-linecap:round; stroke-linejoin:round; stroke-width:4; stroke-opacity:1; fill:none" points="
  2710.31,1393.02 2710.31,1374.12 
  "/>
<polyline clip-path="url(#clip260)" style="stroke:#000000; stroke-linecap:round; stroke-linejoin:round; stroke-width:4; stroke-opacity:1; fill:none" points="
  2973.7,1393.02 2973.7,1374.12 
  "/>
<polyline clip-path="url(#clip260)" style="stroke:#000000; stroke-linecap:round; stroke-linejoin:round; stroke-width:4; stroke-opacity:1; fill:none" points="
  3237.1,1393.02 3237.1,1374.12 
  "/>
<polyline clip-path="url(#clip260)" style="stroke:#000000; stroke-linecap:round; stroke-linejoin:round; stroke-width:4; stroke-opacity:1; fill:none" points="
  3500.49,1393.02 3500.49,1374.12 
  "/>
<polyline clip-path="url(#clip260)" style="stroke:#000000; stroke-linecap:round; stroke-linejoin:round; stroke-width:4; stroke-opacity:1; fill:none" points="
  3763.89,1393.02 3763.89,1374.12 
  "/>
<path clip-path="url(#clip260)" d="M2420.77 1433.66 L2442.99 1433.66 L2442.99 1435.65 L2430.45 1468.22 L2425.56 1468.22 L2437.37 1437.59 L2420.77 1437.59 L2420.77 1433.66 Z" fill="#000000" fill-rule="evenodd" fill-opacity="1" /><path clip-path="url(#clip260)" d="M2452.16 1433.66 L2470.51 1433.66 L2470.51 1437.59 L2456.44 1437.59 L2456.44 1446.07 Q2457.46 1445.72 2458.48 1445.56 Q2459.5 1445.37 2460.51 1445.37 Q2466.3 1445.37 2469.68 1448.54 Q2473.06 1451.72 2473.06 1457.13 Q2473.06 1462.71 2469.59 1465.81 Q2466.12 1468.89 2459.8 1468.89 Q2457.62 1468.89 2455.35 1468.52 Q2453.11 1468.15 2450.7 1467.41 L2450.7 1462.71 Q2452.78 1463.84 2455.01 1464.4 Q2457.23 1464.96 2459.7 1464.96 Q2463.71 1464.96 2466.05 1462.85 Q2468.38 1460.74 2468.38 1457.13 Q2468.38 1453.52 2466.05 1451.41 Q2463.71 1449.31 2459.7 1449.31 Q2457.83 1449.31 2455.95 1449.72 Q2454.1 1450.14 2452.16 1451.02 L2452.16 1433.66 Z" fill="#000000" fill-rule="evenodd" fill-opacity="1" /><path clip-path="url(#clip260)" d="M2695.18 1451.81 Q2691.85 1451.81 2689.93 1453.59 Q2688.03 1455.37 2688.03 1458.5 Q2688.03 1461.62 2689.93 1463.4 Q2691.85 1465.19 2695.18 1465.19 Q2698.52 1465.19 2700.44 1463.4 Q2702.36 1461.6 2702.36 1458.5 Q2702.36 1455.37 2700.44 1453.59 Q2698.54 1451.81 2695.18 1451.81 M2690.51 1449.82 Q2687.5 1449.08 2685.81 1447.02 Q2684.14 1444.96 2684.14 1441.99 Q2684.14 1437.85 2687.08 1435.44 Q2690.04 1433.03 2695.18 1433.03 Q2700.34 1433.03 2703.28 1435.44 Q2706.22 1437.85 2706.22 1441.99 Q2706.22 1444.96 2704.53 1447.02 Q2702.87 1449.08 2699.88 1449.82 Q2703.26 1450.6 2705.14 1452.9 Q2707.03 1455.19 2707.03 1458.5 Q2707.03 1463.52 2703.96 1466.21 Q2700.9 1468.89 2695.18 1468.89 Q2689.46 1468.89 2686.39 1466.21 Q2683.33 1463.52 2683.33 1458.5 Q2683.33 1455.19 2685.23 1452.9 Q2687.13 1450.6 2690.51 1449.82 M2688.79 1442.43 Q2688.79 1445.12 2690.46 1446.62 Q2692.15 1448.13 2695.18 1448.13 Q2698.19 1448.13 2699.88 1446.62 Q2701.59 1445.12 2701.59 1442.43 Q2701.59 1439.75 2699.88 1438.24 Q2698.19 1436.74 2695.18 1436.74 Q2692.15 1436.74 2690.46 1438.24 Q2688.79 1439.75 2688.79 1442.43 Z" fill="#000000" fill-rule="evenodd" fill-opacity="1" /><path clip-path="url(#clip260)" d="M2725.34 1436.74 Q2721.73 1436.74 2719.9 1440.3 Q2718.1 1443.84 2718.1 1450.97 Q2718.1 1458.08 2719.9 1461.65 Q2721.73 1465.19 2725.34 1465.19 Q2728.98 1465.19 2730.78 1461.65 Q2732.61 1458.08 2732.61 1450.97 Q2732.61 1443.84 2730.78 1440.3 Q2728.98 1436.74 2725.34 1436.74 M2725.34 1433.03 Q2731.15 1433.03 2734.21 1437.64 Q2737.29 1442.22 2737.29 1450.97 Q2737.29 1459.7 2734.21 1464.31 Q2731.15 1468.89 2725.34 1468.89 Q2719.53 1468.89 2716.46 1464.31 Q2713.4 1459.7 2713.4 1450.97 Q2713.4 1442.22 2716.46 1437.64 Q2719.53 1433.03 2725.34 1433.03 Z" fill="#000000" fill-rule="evenodd" fill-opacity="1" /><path clip-path="url(#clip260)" d="M2959.07 1451.81 Q2955.74 1451.81 2953.82 1453.59 Q2951.92 1455.37 2951.92 1458.5 Q2951.92 1461.62 2953.82 1463.4 Q2955.74 1465.19 2959.07 1465.19 Q2962.41 1465.19 2964.33 1463.4 Q2966.25 1461.6 2966.25 1458.5 Q2966.25 1455.37 2964.33 1453.59 Q2962.43 1451.81 2959.07 1451.81 M2954.4 1449.82 Q2951.39 1449.08 2949.7 1447.02 Q2948.03 1444.96 2948.03 1441.99 Q2948.03 1437.85 2950.97 1435.44 Q2953.94 1433.03 2959.07 1433.03 Q2964.24 1433.03 2967.18 1435.44 Q2970.12 1437.85 2970.12 1441.99 Q2970.12 1444.96 2968.43 1447.02 Q2966.76 1449.08 2963.77 1449.82 Q2967.15 1450.6 2969.03 1452.9 Q2970.93 1455.19 2970.93 1458.5 Q2970.93 1463.52 2967.85 1466.21 Q2964.79 1468.89 2959.07 1468.89 Q2953.36 1468.89 2950.28 1466.21 Q2947.22 1463.52 2947.22 1458.5 Q2947.22 1455.19 2949.12 1452.9 Q2951.02 1450.6 2954.4 1449.82 M2952.69 1442.43 Q2952.69 1445.12 2954.35 1446.62 Q2956.04 1448.13 2959.07 1448.13 Q2962.08 1448.13 2963.77 1446.62 Q2965.49 1445.12 2965.49 1442.43 Q2965.49 1439.75 2963.77 1438.24 Q2962.08 1436.74 2959.07 1436.74 Q2956.04 1436.74 2954.35 1438.24 Q2952.69 1439.75 2952.69 1442.43 Z" fill="#000000" fill-rule="evenodd" fill-opacity="1" /><path clip-path="url(#clip260)" d="M2979.28 1433.66 L2997.64 1433.66 L2997.64 1437.59 L2983.57 1437.59 L2983.57 1446.07 Q2984.58 1445.72 2985.6 1445.56 Q2986.62 1445.37 2987.64 1445.37 Q2993.43 1445.37 2996.81 1448.54 Q3000.19 1451.72 3000.19 1457.13 Q3000.19 1462.71 2996.71 1465.81 Q2993.24 1468.89 2986.92 1468.89 Q2984.75 1468.89 2982.48 1468.52 Q2980.23 1468.15 2977.82 1467.41 L2977.82 1462.71 Q2979.91 1463.84 2982.13 1464.4 Q2984.35 1464.96 2986.83 1464.96 Q2990.83 1464.96 2993.17 1462.85 Q2995.51 1460.74 2995.51 1457.13 Q2995.51 1453.52 2993.17 1451.41 Q2990.83 1449.31 2986.83 1449.31 Q2984.95 1449.31 2983.08 1449.72 Q2981.23 1450.14 2979.28 1451.02 L2979.28 1433.66 Z" fill="#000000" fill-rule="evenodd" fill-opacity="1" /><path clip-path="url(#clip260)" d="M3212.23 1467.5 L3212.23 1463.24 Q3213.99 1464.08 3215.79 1464.52 Q3217.6 1464.96 3219.33 1464.96 Q3223.96 1464.96 3226.39 1461.85 Q3228.85 1458.73 3229.19 1452.39 Q3227.85 1454.38 3225.79 1455.44 Q3223.73 1456.51 3221.23 1456.51 Q3216.05 1456.51 3213.01 1453.38 Q3210 1450.23 3210 1444.79 Q3210 1439.47 3213.15 1436.25 Q3216.3 1433.03 3221.53 1433.03 Q3227.53 1433.03 3230.68 1437.64 Q3233.85 1442.22 3233.85 1450.97 Q3233.85 1459.15 3229.96 1464.03 Q3226.09 1468.89 3219.54 1468.89 Q3217.78 1468.89 3215.98 1468.54 Q3214.17 1468.2 3212.23 1467.5 M3221.53 1452.85 Q3224.68 1452.85 3226.51 1450.7 Q3228.36 1448.54 3228.36 1444.79 Q3228.36 1441.07 3226.51 1438.91 Q3224.68 1436.74 3221.53 1436.74 Q3218.38 1436.74 3216.53 1438.91 Q3214.7 1441.07 3214.7 1444.79 Q3214.7 1448.54 3216.53 1450.7 Q3218.38 1452.85 3221.53 1452.85 Z" fill="#000000" fill-rule="evenodd" fill-opacity="1" /><path clip-path="url(#clip260)" d="M3252.25 1436.74 Q3248.64 1436.74 3246.81 1440.3 Q3245 1443.84 3245 1450.97 Q3245 1458.08 3246.81 1461.65 Q3248.64 1465.19 3252.25 1465.19 Q3255.88 1465.19 3257.69 1461.65 Q3259.52 1458.08 3259.52 1450.97 Q3259.52 1443.84 3257.69 1440.3 Q3255.88 1436.74 3252.25 1436.74 M3252.25 1433.03 Q3258.06 1433.03 3261.11 1437.64 Q3264.19 1442.22 3264.19 1450.97 Q3264.19 1459.7 3261.11 1464.31 Q3258.06 1468.89 3252.25 1468.89 Q3246.44 1468.89 3243.36 1464.31 Q3240.3 1459.7 3240.3 1450.97 Q3240.3 1442.22 3243.36 1437.64 Q3246.44 1433.03 3252.25 1433.03 Z" fill="#000000" fill-rule="evenodd" fill-opacity="1" /><path clip-path="url(#clip260)" d="M3476.12 1467.5 L3476.12 1463.24 Q3477.88 1464.08 3479.68 1464.52 Q3481.49 1464.96 3483.22 1464.96 Q3487.85 1464.96 3490.29 1461.85 Q3492.74 1458.73 3493.09 1452.39 Q3491.74 1454.38 3489.68 1455.44 Q3487.62 1456.51 3485.12 1456.51 Q3479.94 1456.51 3476.91 1453.38 Q3473.9 1450.23 3473.9 1444.79 Q3473.9 1439.47 3477.04 1436.25 Q3480.19 1433.03 3485.42 1433.03 Q3491.42 1433.03 3494.57 1437.64 Q3497.74 1442.22 3497.74 1450.97 Q3497.74 1459.15 3493.85 1464.03 Q3489.98 1468.89 3483.43 1468.89 Q3481.67 1468.89 3479.87 1468.54 Q3478.06 1468.2 3476.12 1467.5 M3485.42 1452.85 Q3488.57 1452.85 3490.4 1450.7 Q3492.25 1448.54 3492.25 1444.79 Q3492.25 1441.07 3490.4 1438.91 Q3488.57 1436.74 3485.42 1436.74 Q3482.28 1436.74 3480.42 1438.91 Q3478.6 1441.07 3478.6 1444.79 Q3478.6 1448.54 3480.42 1450.7 Q3482.28 1452.85 3485.42 1452.85 Z" fill="#000000" fill-rule="evenodd" fill-opacity="1" /><path clip-path="url(#clip260)" d="M3506.19 1433.66 L3524.54 1433.66 L3524.54 1437.59 L3510.47 1437.59 L3510.47 1446.07 Q3511.49 1445.72 3512.51 1445.56 Q3513.53 1445.37 3514.54 1445.37 Q3520.33 1445.37 3523.71 1448.54 Q3527.09 1451.72 3527.09 1457.13 Q3527.09 1462.71 3523.62 1465.81 Q3520.15 1468.89 3513.83 1468.89 Q3511.65 1468.89 3509.38 1468.52 Q3507.14 1468.15 3504.73 1467.41 L3504.73 1462.71 Q3506.81 1463.84 3509.04 1464.4 Q3511.26 1464.96 3513.73 1464.96 Q3517.74 1464.96 3520.08 1462.85 Q3522.41 1460.74 3522.41 1457.13 Q3522.41 1453.52 3520.08 1451.41 Q3517.74 1449.31 3513.73 1449.31 Q3511.86 1449.31 3509.98 1449.72 Q3508.13 1450.14 3506.19 1451.02 L3506.19 1433.66 Z" fill="#000000" fill-rule="evenodd" fill-opacity="1" /><path clip-path="url(#clip260)" d="M3723.49 1464.28 L3731.13 1464.28 L3731.13 1437.92 L3722.82 1439.59 L3722.82 1435.33 L3731.09 1433.66 L3735.76 1433.66 L3735.76 1464.28 L3743.4 1464.28 L3743.4 1468.22 L3723.49 1468.22 L3723.49 1464.28 Z" fill="#000000" fill-rule="evenodd" fill-opacity="1" /><path clip-path="url(#clip260)" d="M3762.85 1436.74 Q3759.24 1436.74 3757.41 1440.3 Q3755.6 1443.84 3755.6 1450.97 Q3755.6 1458.08 3757.41 1461.65 Q3759.24 1465.19 3762.85 1465.19 Q3766.48 1465.19 3768.29 1461.65 Q3770.11 1458.08 3770.11 1450.97 Q3770.11 1443.84 3768.29 1440.3 Q3766.48 1436.74 3762.85 1436.74 M3762.85 1433.03 Q3768.66 1433.03 3771.71 1437.64 Q3774.79 1442.22 3774.79 1450.97 Q3774.79 1459.7 3771.71 1464.31 Q3768.66 1468.89 3762.85 1468.89 Q3757.04 1468.89 3753.96 1464.31 Q3750.9 1459.7 3750.9 1450.97 Q3750.9 1442.22 3753.96 1437.64 Q3757.04 1433.03 3762.85 1433.03 Z" fill="#000000" fill-rule="evenodd" fill-opacity="1" /><path clip-path="url(#clip260)" d="M3793.01 1436.74 Q3789.4 1436.74 3787.57 1440.3 Q3785.76 1443.84 3785.76 1450.97 Q3785.76 1458.08 3787.57 1461.65 Q3789.4 1465.19 3793.01 1465.19 Q3796.64 1465.19 3798.45 1461.65 Q3800.28 1458.08 3800.28 1450.97 Q3800.28 1443.84 3798.45 1440.3 Q3796.64 1436.74 3793.01 1436.74 M3793.01 1433.03 Q3798.82 1433.03 3801.87 1437.64 Q3804.95 1442.22 3804.95 1450.97 Q3804.95 1459.7 3801.87 1464.31 Q3798.82 1468.89 3793.01 1468.89 Q3787.2 1468.89 3784.12 1464.31 Q3781.06 1459.7 3781.06 1450.97 Q3781.06 1442.22 3784.12 1437.64 Q3787.2 1433.03 3793.01 1433.03 Z" fill="#000000" fill-rule="evenodd" fill-opacity="1" /><path clip-path="url(#clip260)" d="M2960.08 1556.54 L2960.08 1575.44 L2954.19 1575.44 L2954.19 1526.24 L2960.08 1526.24 L2960.08 1531.65 Q2961.93 1528.46 2964.73 1526.94 Q2967.56 1525.38 2971.48 1525.38 Q2977.97 1525.38 2982.01 1530.53 Q2986.09 1535.69 2986.09 1544.09 Q2986.09 1552.49 2982.01 1557.65 Q2977.97 1562.81 2971.48 1562.81 Q2967.56 1562.81 2964.73 1561.28 Q2961.93 1559.72 2960.08 1556.54 M2980.01 1544.09 Q2980.01 1537.63 2977.33 1533.97 Q2974.69 1530.28 2970.04 1530.28 Q2965.4 1530.28 2962.72 1533.97 Q2960.08 1537.63 2960.08 1544.09 Q2960.08 1550.55 2962.72 1554.24 Q2965.4 1557.91 2970.04 1557.91 Q2974.69 1557.91 2977.33 1554.24 Q2980.01 1550.55 2980.01 1544.09 Z" fill="#000000" fill-rule="evenodd" fill-opacity="1" /><path clip-path="url(#clip260)" d="M3030.58 1512.42 Q3026.32 1519.74 3024.25 1526.9 Q3022.18 1534.07 3022.18 1541.42 Q3022.18 1548.77 3024.25 1556 Q3026.35 1563.19 3030.58 1570.48 L3025.49 1570.48 Q3020.71 1563 3018.33 1555.77 Q3015.97 1548.55 3015.97 1541.42 Q3015.97 1534.32 3018.33 1527.13 Q3020.68 1519.93 3025.49 1512.42 L3030.58 1512.42 Z" fill="#000000" fill-rule="evenodd" fill-opacity="1" /><path clip-path="url(#clip260)" d="M3041.72 1512.36 L3047.61 1512.36 L3047.61 1541.61 L3065.08 1526.24 L3072.56 1526.24 L3053.66 1542.91 L3073.36 1561.88 L3065.72 1561.88 L3047.61 1544.47 L3047.61 1561.88 L3041.72 1561.88 L3041.72 1512.36 Z" fill="#000000" fill-rule="evenodd" fill-opacity="1" /><path clip-path="url(#clip260)" d="M3086.38 1519.65 L3086.38 1537.5 L3094.46 1537.5 Q3098.95 1537.5 3101.4 1535.18 Q3103.85 1532.86 3103.85 1528.56 Q3103.85 1524.29 3101.4 1521.97 Q3098.95 1519.65 3094.46 1519.65 L3086.38 1519.65 M3079.95 1514.36 L3094.46 1514.36 Q3102.45 1514.36 3106.52 1517.99 Q3110.63 1521.59 3110.63 1528.56 Q3110.63 1535.59 3106.52 1539.19 Q3102.45 1542.79 3094.46 1542.79 L3086.38 1542.79 L3086.38 1561.88 L3079.95 1561.88 L3079.95 1514.36 Z" fill="#000000" fill-rule="evenodd" fill-opacity="1" /><path clip-path="url(#clip260)" d="M3132.27 1543.96 Q3125.18 1543.96 3122.44 1545.59 Q3119.7 1547.21 3119.7 1551.13 Q3119.7 1554.24 3121.74 1556.09 Q3123.81 1557.91 3127.34 1557.91 Q3132.21 1557.91 3135.14 1554.47 Q3138.1 1551 3138.1 1545.27 L3138.1 1543.96 L3132.27 1543.96 M3143.95 1541.55 L3143.95 1561.88 L3138.1 1561.88 L3138.1 1556.47 Q3136.09 1559.72 3133.1 1561.28 Q3130.11 1562.81 3125.78 1562.81 Q3120.31 1562.81 3117.06 1559.75 Q3113.84 1556.66 3113.84 1551.51 Q3113.84 1545.49 3117.86 1542.44 Q3121.9 1539.38 3129.89 1539.38 L3138.1 1539.38 L3138.1 1538.81 Q3138.1 1534.77 3135.42 1532.57 Q3132.78 1530.34 3127.98 1530.34 Q3124.92 1530.34 3122.02 1531.07 Q3119.13 1531.81 3116.45 1533.27 L3116.45 1527.86 Q3119.67 1526.62 3122.69 1526.01 Q3125.72 1525.38 3128.58 1525.38 Q3136.32 1525.38 3140.14 1529.39 Q3143.95 1533.4 3143.95 1541.55 Z" fill="#000000" fill-rule="evenodd" fill-opacity="1" /><path clip-path="url(#clip260)" d="M3155.09 1512.42 L3160.19 1512.42 Q3164.96 1519.93 3167.32 1527.13 Q3169.7 1534.32 3169.7 1541.42 Q3169.7 1548.55 3167.32 1555.77 Q3164.96 1563 3160.19 1570.48 L3155.09 1570.48 Q3159.33 1563.19 3161.4 1556 Q3163.5 1548.77 3163.5 1541.42 Q3163.5 1534.07 3161.4 1526.9 Q3159.33 1519.74 3155.09 1512.42 Z" fill="#000000" fill-rule="evenodd" fill-opacity="1" /><polyline clip-path="url(#clip263)" style="stroke:#000000; stroke-linecap:round; stroke-linejoin:round; stroke-width:2; stroke-opacity:0.1; fill:none" points="
  2234.13,1358.19 3889.76,1358.19 
  "/>
<polyline clip-path="url(#clip263)" style="stroke:#000000; stroke-linecap:round; stroke-linejoin:round; stroke-width:2; stroke-opacity:0.1; fill:none" points="
  2234.13,971.16 3889.76,971.16 
  "/>
<polyline clip-path="url(#clip263)" style="stroke:#000000; stroke-linecap:round; stroke-linejoin:round; stroke-width:2; stroke-opacity:0.1; fill:none" points="
  2234.13,584.132 3889.76,584.132 
  "/>
<polyline clip-path="url(#clip263)" style="stroke:#000000; stroke-linecap:round; stroke-linejoin:round; stroke-width:2; stroke-opacity:0.1; fill:none" points="
  2234.13,197.105 3889.76,197.105 
  "/>
<polyline clip-path="url(#clip260)" style="stroke:#000000; stroke-linecap:round; stroke-linejoin:round; stroke-width:4; stroke-opacity:1; fill:none" points="
  2234.13,1393.02 2234.13,162.272 
  "/>
<polyline clip-path="url(#clip260)" style="stroke:#000000; stroke-linecap:round; stroke-linejoin:round; stroke-width:4; stroke-opacity:1; fill:none" points="
  2234.13,1358.19 2253.03,1358.19 
  "/>
<polyline clip-path="url(#clip260)" style="stroke:#000000; stroke-linecap:round; stroke-linejoin:round; stroke-width:4; stroke-opacity:1; fill:none" points="
  2234.13,971.16 2253.03,971.16 
  "/>
<polyline clip-path="url(#clip260)" style="stroke:#000000; stroke-linecap:round; stroke-linejoin:round; stroke-width:4; stroke-opacity:1; fill:none" points="
  2234.13,584.132 2253.03,584.132 
  "/>
<polyline clip-path="url(#clip260)" style="stroke:#000000; stroke-linecap:round; stroke-linejoin:round; stroke-width:4; stroke-opacity:1; fill:none" points="
  2234.13,197.105 2253.03,197.105 
  "/>
<path clip-path="url(#clip260)" d="M2162.19 1343.99 Q2158.58 1343.99 2156.75 1347.55 Q2154.94 1351.09 2154.94 1358.22 Q2154.94 1365.33 2156.75 1368.89 Q2158.58 1372.43 2162.19 1372.43 Q2165.82 1372.43 2167.63 1368.89 Q2169.46 1365.33 2169.46 1358.22 Q2169.46 1351.09 2167.63 1347.55 Q2165.82 1343.99 2162.19 1343.99 M2162.19 1340.28 Q2168 1340.28 2171.05 1344.89 Q2174.13 1349.47 2174.13 1358.22 Q2174.13 1366.95 2171.05 1371.56 Q2168 1376.14 2162.19 1376.14 Q2156.38 1376.14 2153.3 1371.56 Q2150.24 1366.95 2150.24 1358.22 Q2150.24 1349.47 2153.3 1344.89 Q2156.38 1340.28 2162.19 1340.28 Z" fill="#000000" fill-rule="evenodd" fill-opacity="1" /><path clip-path="url(#clip260)" d="M2154.23 984.505 L2161.86 984.505 L2161.86 958.139 L2153.55 959.806 L2153.55 955.546 L2161.82 953.88 L2166.49 953.88 L2166.49 984.505 L2174.13 984.505 L2174.13 988.44 L2154.23 988.44 L2154.23 984.505 Z" fill="#000000" fill-rule="evenodd" fill-opacity="1" /><path clip-path="url(#clip260)" d="M2157.81 597.477 L2174.13 597.477 L2174.13 601.412 L2152.19 601.412 L2152.19 597.477 Q2154.85 594.722 2159.43 590.093 Q2164.04 585.44 2165.22 584.098 Q2167.47 581.574 2168.35 579.838 Q2169.25 578.079 2169.25 576.389 Q2169.25 573.635 2167.3 571.899 Q2165.38 570.162 2162.28 570.162 Q2160.08 570.162 2157.63 570.926 Q2155.2 571.69 2152.42 573.241 L2152.42 568.519 Q2155.24 567.385 2157.7 566.806 Q2160.15 566.227 2162.19 566.227 Q2167.56 566.227 2170.75 568.912 Q2173.95 571.598 2173.95 576.088 Q2173.95 578.218 2173.14 580.139 Q2172.35 582.037 2170.24 584.63 Q2169.67 585.301 2166.56 588.519 Q2163.46 591.713 2157.81 597.477 Z" fill="#000000" fill-rule="evenodd" fill-opacity="1" /><path clip-path="url(#clip260)" d="M2167 195.751 Q2170.36 196.468 2172.23 198.737 Q2174.13 201.005 2174.13 204.338 Q2174.13 209.454 2170.61 212.255 Q2167.1 215.056 2160.61 215.056 Q2158.44 215.056 2156.12 214.616 Q2153.83 214.2 2151.38 213.343 L2151.38 208.829 Q2153.32 209.963 2155.64 210.542 Q2157.95 211.121 2160.48 211.121 Q2164.87 211.121 2167.17 209.385 Q2169.48 207.649 2169.48 204.338 Q2169.48 201.283 2167.33 199.57 Q2165.2 197.834 2161.38 197.834 L2157.35 197.834 L2157.35 193.991 L2161.56 193.991 Q2165.01 193.991 2166.84 192.626 Q2168.67 191.237 2168.67 188.644 Q2168.67 185.982 2166.77 184.57 Q2164.9 183.135 2161.38 183.135 Q2159.46 183.135 2157.26 183.552 Q2155.06 183.968 2152.42 184.848 L2152.42 180.681 Q2155.08 179.94 2157.4 179.57 Q2159.73 179.2 2161.8 179.2 Q2167.12 179.2 2170.22 181.63 Q2173.32 184.038 2173.32 188.158 Q2173.32 191.028 2171.68 193.019 Q2170.04 194.987 2167 195.751 Z" fill="#000000" fill-rule="evenodd" fill-opacity="1" /><path clip-path="url(#clip260)" d="M2040.34 876.171 L2040.34 848.353 L2045.69 848.353 L2071.31 870.378 L2071.31 848.353 L2075.99 848.353 L2075.99 876.967 L2070.64 876.967 L2045.02 854.942 L2045.02 876.171 L2040.34 876.171 Z" fill="#000000" fill-rule="evenodd" fill-opacity="1" /><path clip-path="url(#clip260)" d="M2026.53 804.621 Q2033.85 808.886 2041.01 810.955 Q2048.17 813.023 2055.52 813.023 Q2062.87 813.023 2070.1 810.955 Q2077.29 808.854 2084.58 804.621 L2084.58 809.713 Q2077.1 814.488 2069.88 816.875 Q2062.65 819.23 2055.52 819.23 Q2048.42 819.23 2041.23 816.875 Q2034.04 814.519 2026.53 809.713 L2026.53 804.621 Z" fill="#000000" fill-rule="evenodd" fill-opacity="1" /><path clip-path="url(#clip260)" d="M2026.46 793.481 L2026.46 787.592 L2055.71 787.592 L2040.34 770.119 L2040.34 762.639 L2057.02 781.545 L2075.99 761.843 L2075.99 769.482 L2058.58 787.592 L2075.99 787.592 L2075.99 793.481 L2026.46 793.481 Z" fill="#000000" fill-rule="evenodd" fill-opacity="1" /><path clip-path="url(#clip260)" d="M2047.18 727.755 Q2043.24 725.559 2041.36 722.503 Q2039.48 719.448 2039.48 715.31 Q2039.48 709.74 2043.4 706.716 Q2047.28 703.692 2054.47 703.692 L2075.99 703.692 L2075.99 709.581 L2054.66 709.581 Q2049.54 709.581 2047.06 711.395 Q2044.57 713.209 2044.57 716.933 Q2044.57 721.485 2047.6 724.126 Q2050.62 726.768 2055.84 726.768 L2075.99 726.768 L2075.99 732.656 L2054.66 732.656 Q2049.51 732.656 2047.06 734.471 Q2044.57 736.285 2044.57 740.072 Q2044.57 744.56 2047.63 747.202 Q2050.65 749.844 2055.84 749.844 L2075.99 749.844 L2075.99 755.732 L2040.34 755.732 L2040.34 749.844 L2045.88 749.844 Q2042.6 747.839 2041.04 745.038 Q2039.48 742.237 2039.48 738.385 Q2039.48 734.502 2041.45 731.797 Q2043.43 729.06 2047.18 727.755 Z" fill="#000000" fill-rule="evenodd" fill-opacity="1" /><path clip-path="url(#clip260)" d="M2026.53 692.934 L2026.53 687.842 Q2034.04 683.067 2041.23 680.712 Q2048.42 678.325 2055.52 678.325 Q2062.65 678.325 2069.88 680.712 Q2077.1 683.067 2084.58 687.842 L2084.58 692.934 Q2077.29 688.701 2070.1 686.632 Q2062.87 684.532 2055.52 684.532 Q2048.17 684.532 2041.01 686.632 Q2033.85 688.701 2026.53 692.934 Z" fill="#000000" fill-rule="evenodd" fill-opacity="1" /><path clip-path="url(#clip260)" d="M2932.3 65.7705 L2932.3 89.8329 L2924.81 89.8329 L2924.81 27.2059 L2932.3 27.2059 L2932.3 34.0924 Q2934.65 30.0415 2938.21 28.0971 Q2941.82 26.1121 2946.8 26.1121 Q2955.07 26.1121 2960.21 32.6746 Q2965.4 39.2371 2965.4 49.9314 Q2965.4 60.6258 2960.21 67.1883 Q2955.07 73.7508 2946.8 73.7508 Q2941.82 73.7508 2938.21 71.8063 Q2934.65 69.8214 2932.3 65.7705 M2957.66 49.9314 Q2957.66 41.7081 2954.26 37.0496 Q2950.89 32.3505 2944.98 32.3505 Q2939.06 32.3505 2935.66 37.0496 Q2932.3 41.7081 2932.3 49.9314 Q2932.3 58.1548 2935.66 62.8538 Q2939.06 67.5124 2944.98 67.5124 Q2950.89 67.5124 2954.26 62.8538 Q2957.66 58.1548 2957.66 49.9314 Z" fill="#000000" fill-rule="evenodd" fill-opacity="1" /><path clip-path="url(#clip260)" d="M3022.03 9.62495 Q3016.6 18.942 3013.97 28.0566 Q3011.33 37.1711 3011.33 46.5287 Q3011.33 55.8863 3013.97 65.0818 Q3016.64 74.2369 3022.03 83.5134 L3015.55 83.5134 Q3009.47 73.9938 3006.43 64.7983 Q3003.43 55.6027 3003.43 46.5287 Q3003.43 37.4952 3006.43 28.3401 Q3009.43 19.1851 3015.55 9.62495 L3022.03 9.62495 Z" fill="#000000" fill-rule="evenodd" fill-opacity="1" /><path clip-path="url(#clip260)" d="M3036.2 9.54393 L3043.7 9.54393 L3043.7 46.7717 L3065.94 27.2059 L3075.46 27.2059 L3051.4 48.4326 L3076.47 72.576 L3066.75 72.576 L3043.7 50.4176 L3043.7 72.576 L3036.2 72.576 L3036.2 9.54393 Z" fill="#000000" fill-rule="evenodd" fill-opacity="1" /><path clip-path="url(#clip260)" d="M3093.04 18.8205 L3093.04 41.5461 L3103.33 41.5461 Q3109.04 41.5461 3112.16 38.5889 Q3115.28 35.6318 3115.28 30.163 Q3115.28 24.7348 3112.16 21.7777 Q3109.04 18.8205 3103.33 18.8205 L3093.04 18.8205 M3084.86 12.096 L3103.33 12.096 Q3113.5 12.096 3118.68 16.714 Q3123.91 21.2916 3123.91 30.163 Q3123.91 39.1155 3118.68 43.6931 Q3113.5 48.2706 3103.33 48.2706 L3093.04 48.2706 L3093.04 72.576 L3084.86 72.576 L3084.86 12.096 Z" fill="#000000" fill-rule="evenodd" fill-opacity="1" /><path clip-path="url(#clip260)" d="M3151.45 49.7694 Q3142.42 49.7694 3138.94 51.8354 Q3135.45 53.9013 3135.45 58.8839 Q3135.45 62.8538 3138.04 65.2034 Q3140.68 67.5124 3145.17 67.5124 Q3151.37 67.5124 3155.1 63.1374 Q3158.87 58.7219 3158.87 51.4303 L3158.87 49.7694 L3151.45 49.7694 M3166.32 46.6907 L3166.32 72.576 L3158.87 72.576 L3158.87 65.6895 Q3156.31 69.8214 3152.51 71.8063 Q3148.7 73.7508 3143.19 73.7508 Q3136.22 73.7508 3132.09 69.8619 Q3128 65.9325 3128 59.3701 Q3128 51.7138 3133.1 47.825 Q3138.25 43.9361 3148.41 43.9361 L3158.87 43.9361 L3158.87 43.2069 Q3158.87 38.0623 3155.46 35.2672 Q3152.1 32.4315 3145.98 32.4315 Q3142.1 32.4315 3138.41 33.3632 Q3134.72 34.295 3131.32 36.1584 L3131.32 29.2718 Q3135.41 27.692 3139.26 26.9223 Q3143.11 26.1121 3146.75 26.1121 Q3156.6 26.1121 3161.46 31.2163 Q3166.32 36.3204 3166.32 46.6907 Z" fill="#000000" fill-rule="evenodd" fill-opacity="1" /><path clip-path="url(#clip260)" d="M3180.5 9.62495 L3186.98 9.62495 Q3193.06 19.1851 3196.05 28.3401 Q3199.09 37.4952 3199.09 46.5287 Q3199.09 55.6027 3196.05 64.7983 Q3193.06 73.9938 3186.98 83.5134 L3180.5 83.5134 Q3185.89 74.2369 3188.52 65.0818 Q3191.19 55.8863 3191.19 46.5287 Q3191.19 37.1711 3188.52 28.0566 Q3185.89 18.942 3180.5 9.62495 Z" fill="#000000" fill-rule="evenodd" fill-opacity="1" /><polyline clip-path="url(#clip263)" style="stroke:#009af9; stroke-linecap:round; stroke-linejoin:round; stroke-width:4; stroke-opacity:1; fill:none" points="
  3827.92,1348.51 3798.05,1329.16 3768.33,1309.81 3738.75,1290.46 3709.31,1271.11 3680.01,1251.75 3650.85,1232.4 3621.83,1213.05 3592.95,1193.7 3564.21,1174.35 
  3535.6,1155 3507.14,1135.65 3478.81,1116.3 3450.62,1096.94 3422.56,1077.59 3394.64,1058.24 3366.86,1038.89 3339.21,1019.54 3311.69,1000.19 3284.3,980.835 
  3257.05,961.484 3229.93,942.133 3202.95,922.781 3176.09,903.43 3149.36,884.079 3122.77,864.727 3096.3,845.376 3069.97,826.024 3043.76,806.673 3017.68,787.322 
  2991.72,767.97 2965.9,748.619 2940.2,729.268 2914.62,709.916 2889.17,690.565 2863.85,671.213 2838.65,651.862 2813.57,632.511 2788.62,613.159 2763.79,593.808 
  2739.08,574.457 2714.49,555.105 2690.03,535.754 2665.68,516.402 2641.46,497.051 2617.36,477.7 2593.37,458.348 2569.5,438.997 2545.76,419.646 2522.13,400.294 
  2498.61,380.943 2475.22,361.591 2451.93,342.24 2428.77,322.889 2405.72,303.537 2382.79,284.186 2359.97,264.835 2337.26,245.483 2314.67,226.132 2292.19,206.78 
  
  "/>
<polyline clip-path="url(#clip263)" style="stroke:#e26f46; stroke-linecap:round; stroke-linejoin:round; stroke-width:4; stroke-opacity:1; fill:none" points="
  3842.91,1358.19 3812.97,1338.84 3783.17,1319.48 3753.52,1300.13 3724.01,1280.78 3694.64,1261.43 3665.41,1242.08 3636.32,1222.73 3607.37,1203.38 3578.56,1184.02 
  3549.89,1164.67 3521.35,1145.32 3492.96,1125.97 3464.7,1106.62 3436.57,1087.27 3408.58,1067.92 3380.73,1048.57 3353.01,1029.21 3325.43,1009.86 3297.98,990.511 
  3270.66,971.16 3243.48,951.808 3216.42,932.457 3189.5,913.106 3162.71,893.754 3136.05,874.403 3109.52,855.051 3083.12,835.7 3056.84,816.349 3030.7,796.997 
  3004.68,777.646 2978.79,758.295 2953.03,738.943 2927.39,719.592 2901.88,700.24 2876.49,680.889 2851.23,661.538 2826.09,642.186 2801.08,622.835 2776.19,603.484 
  2751.42,584.132 2726.77,564.781 2702.25,545.429 2677.84,526.078 2653.56,506.727 2629.39,487.375 2605.35,468.024 2581.42,448.673 2557.62,429.321 2533.93,409.97 
  2510.35,390.618 2486.9,371.267 2463.56,351.916 2440.34,332.564 2417.23,313.213 2394.24,293.862 2371.36,274.51 2348.6,255.159 2325.95,235.807 2303.41,216.456 
  2280.99,197.105 
  "/>
<path clip-path="url(#clip260)" d="
M3478.33 358.817 L3834.58 358.817 L3834.58 203.297 L3478.33 203.297  Z
  " fill="#ffffff" fill-rule="evenodd" fill-opacity="1"/>
<polyline clip-path="url(#clip260)" style="stroke:#000000; stroke-linecap:round; stroke-linejoin:round; stroke-width:4; stroke-opacity:1; fill:none" points="
  3478.33,358.817 3834.58,358.817 3834.58,203.297 3478.33,203.297 3478.33,358.817 
  "/>
<polyline clip-path="url(#clip260)" style="stroke:#009af9; stroke-linecap:round; stroke-linejoin:round; stroke-width:4; stroke-opacity:1; fill:none" points="
  3496.72,255.137 3607.1,255.137 
  "/>
<path clip-path="url(#clip260)" d="M3646 247.487 L3646 251.468 Q3644.2 250.473 3642.37 249.987 Q3640.56 249.477 3638.71 249.477 Q3634.57 249.477 3632.28 252.116 Q3629.98 254.732 3629.98 259.477 Q3629.98 264.223 3632.28 266.862 Q3634.57 269.477 3638.71 269.477 Q3640.56 269.477 3642.37 268.991 Q3644.2 268.482 3646 267.487 L3646 271.422 Q3644.22 272.255 3642.3 272.672 Q3640.4 273.088 3638.25 273.088 Q3632.39 273.088 3628.94 269.408 Q3625.49 265.727 3625.49 259.477 Q3625.49 253.135 3628.97 249.501 Q3632.46 245.866 3638.53 245.866 Q3640.49 245.866 3642.37 246.283 Q3644.24 246.677 3646 247.487 Z" fill="#000000" fill-rule="evenodd" fill-opacity="1" /><path clip-path="url(#clip260)" d="M3675.59 258.389 L3675.59 260.473 L3656 260.473 Q3656.28 264.871 3658.64 267.186 Q3661.03 269.477 3665.26 269.477 Q3667.72 269.477 3670.01 268.876 Q3672.32 268.274 3674.59 267.07 L3674.59 271.098 Q3672.3 272.07 3669.89 272.579 Q3667.48 273.088 3665.01 273.088 Q3658.8 273.088 3655.17 269.477 Q3651.56 265.866 3651.56 259.709 Q3651.56 253.343 3654.98 249.616 Q3658.43 245.866 3664.27 245.866 Q3669.5 245.866 3672.53 249.246 Q3675.59 252.602 3675.59 258.389 M3671.33 257.139 Q3671.28 253.644 3669.36 251.561 Q3667.46 249.477 3664.31 249.477 Q3660.75 249.477 3658.6 251.491 Q3656.47 253.505 3656.14 257.163 L3671.33 257.139 Z" fill="#000000" fill-rule="evenodd" fill-opacity="1" /><path clip-path="url(#clip260)" d="M3704.13 256.769 L3704.13 272.417 L3699.87 272.417 L3699.87 256.908 Q3699.87 253.227 3698.43 251.399 Q3697 249.57 3694.13 249.57 Q3690.68 249.57 3688.69 251.769 Q3686.7 253.968 3686.7 257.764 L3686.7 272.417 L3682.41 272.417 L3682.41 246.491 L3686.7 246.491 L3686.7 250.519 Q3688.22 248.181 3690.28 247.024 Q3692.37 245.866 3695.08 245.866 Q3699.54 245.866 3701.84 248.644 Q3704.13 251.399 3704.13 256.769 Z" fill="#000000" fill-rule="evenodd" fill-opacity="1" /><path clip-path="url(#clip260)" d="M3716.84 239.13 L3716.84 246.491 L3725.61 246.491 L3725.61 249.802 L3716.84 249.802 L3716.84 263.876 Q3716.84 267.047 3717.69 267.95 Q3718.57 268.852 3721.23 268.852 L3725.61 268.852 L3725.61 272.417 L3721.23 272.417 Q3716.3 272.417 3714.43 270.588 Q3712.55 268.737 3712.55 263.876 L3712.55 249.802 L3709.43 249.802 L3709.43 246.491 L3712.55 246.491 L3712.55 239.13 L3716.84 239.13 Z" fill="#000000" fill-rule="evenodd" fill-opacity="1" /><path clip-path="url(#clip260)" d="M3753.39 258.389 L3753.39 260.473 L3733.8 260.473 Q3734.08 264.871 3736.44 267.186 Q3738.83 269.477 3743.06 269.477 Q3745.52 269.477 3747.81 268.876 Q3750.12 268.274 3752.39 267.07 L3752.39 271.098 Q3750.1 272.07 3747.69 272.579 Q3745.28 273.088 3742.81 273.088 Q3736.6 273.088 3732.97 269.477 Q3729.36 265.866 3729.36 259.709 Q3729.36 253.343 3732.78 249.616 Q3736.23 245.866 3742.07 245.866 Q3747.3 245.866 3750.33 249.246 Q3753.39 252.602 3753.39 258.389 M3749.13 257.139 Q3749.08 253.644 3747.16 251.561 Q3745.26 249.477 3742.11 249.477 Q3738.55 249.477 3736.4 251.491 Q3734.27 253.505 3733.94 257.163 L3749.13 257.139 Z" fill="#000000" fill-rule="evenodd" fill-opacity="1" /><path clip-path="url(#clip260)" d="M3775.4 250.473 Q3774.68 250.056 3773.83 249.871 Q3772.99 249.663 3771.97 249.663 Q3768.36 249.663 3766.42 252.024 Q3764.5 254.362 3764.5 258.76 L3764.5 272.417 L3760.22 272.417 L3760.22 246.491 L3764.5 246.491 L3764.5 250.519 Q3765.84 248.158 3767.99 247.024 Q3770.15 245.866 3773.22 245.866 Q3773.66 245.866 3774.2 245.936 Q3774.73 245.982 3775.38 246.098 L3775.4 250.473 Z" fill="#000000" fill-rule="evenodd" fill-opacity="1" /><path clip-path="url(#clip260)" d="M3796.4 247.255 L3796.4 251.283 Q3794.59 250.357 3792.65 249.894 Q3790.7 249.431 3788.62 249.431 Q3785.45 249.431 3783.85 250.403 Q3782.28 251.376 3782.28 253.32 Q3782.28 254.802 3783.41 255.658 Q3784.54 256.491 3787.97 257.255 L3789.43 257.579 Q3793.96 258.552 3795.86 260.334 Q3797.78 262.093 3797.78 265.264 Q3797.78 268.876 3794.91 270.982 Q3792.07 273.088 3787.07 273.088 Q3784.98 273.088 3782.71 272.672 Q3780.47 272.278 3777.97 271.468 L3777.97 267.07 Q3780.33 268.297 3782.62 268.922 Q3784.91 269.524 3787.16 269.524 Q3790.17 269.524 3791.79 268.505 Q3793.41 267.463 3793.41 265.589 Q3793.41 263.852 3792.23 262.926 Q3791.07 262.001 3787.11 261.144 L3785.63 260.797 Q3781.67 259.964 3779.91 258.251 Q3778.15 256.514 3778.15 253.505 Q3778.15 249.848 3780.75 247.857 Q3783.34 245.866 3788.11 245.866 Q3790.47 245.866 3792.55 246.214 Q3794.64 246.561 3796.4 247.255 Z" fill="#000000" fill-rule="evenodd" fill-opacity="1" /><polyline clip-path="url(#clip260)" style="stroke:#e26f46; stroke-linecap:round; stroke-linejoin:round; stroke-width:4; stroke-opacity:1; fill:none" points="
  3496.72,306.977 3607.1,306.977 
  "/>
<path clip-path="url(#clip260)" d="M3642 288.239 L3642 291.78 L3637.92 291.78 Q3635.63 291.78 3634.73 292.706 Q3633.85 293.632 3633.85 296.04 L3633.85 298.331 L3640.86 298.331 L3640.86 301.642 L3633.85 301.642 L3633.85 324.257 L3629.57 324.257 L3629.57 301.642 L3625.49 301.642 L3625.49 298.331 L3629.57 298.331 L3629.57 296.526 Q3629.57 292.197 3631.58 290.23 Q3633.6 288.239 3637.97 288.239 L3642 288.239 Z" fill="#000000" fill-rule="evenodd" fill-opacity="1" /><path clip-path="url(#clip260)" d="M3657.35 311.225 Q3652.18 311.225 3650.19 312.405 Q3648.2 313.586 3648.2 316.433 Q3648.2 318.702 3649.68 320.044 Q3651.19 321.364 3653.76 321.364 Q3657.3 321.364 3659.43 318.864 Q3661.58 316.341 3661.58 312.174 L3661.58 311.225 L3657.35 311.225 M3665.84 309.466 L3665.84 324.257 L3661.58 324.257 L3661.58 320.322 Q3660.12 322.683 3657.95 323.817 Q3655.77 324.928 3652.62 324.928 Q3648.64 324.928 3646.28 322.706 Q3643.94 320.461 3643.94 316.711 Q3643.94 312.336 3646.86 310.114 Q3649.8 307.892 3655.61 307.892 L3661.58 307.892 L3661.58 307.475 Q3661.58 304.535 3659.64 302.938 Q3657.72 301.317 3654.22 301.317 Q3652 301.317 3649.89 301.85 Q3647.79 302.382 3645.84 303.447 L3645.84 299.512 Q3648.18 298.609 3650.38 298.169 Q3652.58 297.706 3654.66 297.706 Q3660.29 297.706 3663.06 300.623 Q3665.84 303.54 3665.84 309.466 Z" fill="#000000" fill-rule="evenodd" fill-opacity="1" /><path clip-path="url(#clip260)" d="M3693.27 299.327 L3693.27 303.308 Q3691.47 302.313 3689.64 301.827 Q3687.83 301.317 3685.98 301.317 Q3681.84 301.317 3679.54 303.956 Q3677.25 306.572 3677.25 311.317 Q3677.25 316.063 3679.54 318.702 Q3681.84 321.317 3685.98 321.317 Q3687.83 321.317 3689.64 320.831 Q3691.47 320.322 3693.27 319.327 L3693.27 323.262 Q3691.49 324.095 3689.57 324.512 Q3687.67 324.928 3685.52 324.928 Q3679.66 324.928 3676.21 321.248 Q3672.76 317.567 3672.76 311.317 Q3672.76 304.975 3676.23 301.341 Q3679.73 297.706 3685.79 297.706 Q3687.76 297.706 3689.64 298.123 Q3691.51 298.517 3693.27 299.327 Z" fill="#000000" fill-rule="evenodd" fill-opacity="1" /><path clip-path="url(#clip260)" d="M3722.85 310.229 L3722.85 312.313 L3703.27 312.313 Q3703.55 316.711 3705.91 319.026 Q3708.29 321.317 3712.53 321.317 Q3714.98 321.317 3717.28 320.716 Q3719.59 320.114 3721.86 318.91 L3721.86 322.938 Q3719.57 323.91 3717.16 324.419 Q3714.75 324.928 3712.28 324.928 Q3706.07 324.928 3702.44 321.317 Q3698.83 317.706 3698.83 311.549 Q3698.83 305.183 3702.25 301.456 Q3705.7 297.706 3711.53 297.706 Q3716.77 297.706 3719.8 301.086 Q3722.85 304.442 3722.85 310.229 M3718.59 308.979 Q3718.55 305.484 3716.63 303.401 Q3714.73 301.317 3711.58 301.317 Q3708.02 301.317 3705.86 303.331 Q3703.73 305.345 3703.41 309.003 L3718.59 308.979 Z" fill="#000000" fill-rule="evenodd" fill-opacity="1" /><path clip-path="url(#clip260)" d="M3746.37 299.095 L3746.37 303.123 Q3744.57 302.197 3742.62 301.734 Q3740.68 301.271 3738.59 301.271 Q3735.42 301.271 3733.83 302.243 Q3732.25 303.216 3732.25 305.16 Q3732.25 306.642 3733.39 307.498 Q3734.52 308.331 3737.95 309.095 L3739.4 309.419 Q3743.94 310.392 3745.84 312.174 Q3747.76 313.933 3747.76 317.104 Q3747.76 320.716 3744.89 322.822 Q3742.04 324.928 3737.04 324.928 Q3734.96 324.928 3732.69 324.512 Q3730.45 324.118 3727.95 323.308 L3727.95 318.91 Q3730.31 320.137 3732.6 320.762 Q3734.89 321.364 3737.14 321.364 Q3740.15 321.364 3741.77 320.345 Q3743.39 319.303 3743.39 317.429 Q3743.39 315.692 3742.21 314.766 Q3741.05 313.841 3737.09 312.984 L3735.61 312.637 Q3731.65 311.804 3729.89 310.091 Q3728.13 308.354 3728.13 305.345 Q3728.13 301.688 3730.72 299.697 Q3733.32 297.706 3738.09 297.706 Q3740.45 297.706 3742.53 298.054 Q3744.61 298.401 3746.37 299.095 Z" fill="#000000" fill-rule="evenodd" fill-opacity="1" /></svg>
