<?xml version="1.0" encoding="utf-8"?>
<svg xmlns="http://www.w3.org/2000/svg" xmlns:xlink="http://www.w3.org/1999/xlink" width="600" height="400" viewBox="0 0 2400 1600">
<defs>
  <clipPath id="clip470">
    <rect x="0" y="0" width="2400" height="1600"/>
  </clipPath>
</defs>
<path clip-path="url(#clip470)" d="
M0 1600 L2400 1600 L2400 0 L0 0  Z
  " fill="#ffffff" fill-rule="evenodd" fill-opacity="1"/>
<defs>
  <clipPath id="clip471">
    <rect x="480" y="0" width="1681" height="1600"/>
  </clipPath>
</defs>
<path clip-path="url(#clip470)" d="
M282.858 1360.19 L1089.76 1360.19 L1089.76 186.464 L282.858 186.464  Z
  " fill="#ffffff" fill-rule="evenodd" fill-opacity="1"/>
<defs>
  <clipPath id="clip472">
    <rect x="282" y="186" width="808" height="1175"/>
  </clipPath>
</defs>
<polyline clip-path="url(#clip472)" style="stroke:#000000; stroke-linecap:butt; stroke-linejoin:round; stroke-width:2; stroke-opacity:0.1; fill:none" points="
  354.839,1360.19 354.839,186.464 
  "/>
<polyline clip-path="url(#clip472)" style="stroke:#000000; stroke-linecap:butt; stroke-linejoin:round; stroke-width:2; stroke-opacity:0.1; fill:none" points="
  513.692,1360.19 513.692,186.464 
  "/>
<polyline clip-path="url(#clip472)" style="stroke:#000000; stroke-linecap:butt; stroke-linejoin:round; stroke-width:2; stroke-opacity:0.1; fill:none" points="
  672.544,1360.19 672.544,186.464 
  "/>
<polyline clip-path="url(#clip472)" style="stroke:#000000; stroke-linecap:butt; stroke-linejoin:round; stroke-width:2; stroke-opacity:0.1; fill:none" points="
  831.397,1360.19 831.397,186.464 
  "/>
<polyline clip-path="url(#clip472)" style="stroke:#000000; stroke-linecap:butt; stroke-linejoin:round; stroke-width:2; stroke-opacity:0.1; fill:none" points="
  990.25,1360.19 990.25,186.464 
  "/>
<polyline clip-path="url(#clip470)" style="stroke:#000000; stroke-linecap:butt; stroke-linejoin:round; stroke-width:4; stroke-opacity:1; fill:none" points="
  282.858,1360.19 1089.76,1360.19 
  "/>
<polyline clip-path="url(#clip470)" style="stroke:#000000; stroke-linecap:butt; stroke-linejoin:round; stroke-width:4; stroke-opacity:1; fill:none" points="
  354.839,1360.19 354.839,1341.29 
  "/>
<polyline clip-path="url(#clip470)" style="stroke:#000000; stroke-linecap:butt; stroke-linejoin:round; stroke-width:4; stroke-opacity:1; fill:none" points="
  513.692,1360.19 513.692,1341.29 
  "/>
<polyline clip-path="url(#clip470)" style="stroke:#000000; stroke-linecap:butt; stroke-linejoin:round; stroke-width:4; stroke-opacity:1; fill:none" points="
  672.544,1360.19 672.544,1341.29 
  "/>
<polyline clip-path="url(#clip470)" style="stroke:#000000; stroke-linecap:butt; stroke-linejoin:round; stroke-width:4; stroke-opacity:1; fill:none" points="
  831.397,1360.19 831.397,1341.29 
  "/>
<polyline clip-path="url(#clip470)" style="stroke:#000000; stroke-linecap:butt; stroke-linejoin:round; stroke-width:4; stroke-opacity:1; fill:none" points="
  990.25,1360.19 990.25,1341.29 
  "/>
<path clip-path="url(#clip470)" d="M307.362 1418.65 L315.001 1418.65 L315.001 1392.29 L306.691 1393.95 L306.691 1389.69 L314.955 1388.03 L319.631 1388.03 L319.631 1418.65 L327.27 1418.65 L327.27 1422.59 L307.362 1422.59 L307.362 1418.65 Z" fill="#000000" fill-rule="evenodd" fill-opacity="1" /><path clip-path="url(#clip470)" d="M336.714 1416.71 L341.598 1416.71 L341.598 1422.59 L336.714 1422.59 L336.714 1416.71 Z" fill="#000000" fill-rule="evenodd" fill-opacity="1" /><path clip-path="url(#clip470)" d="M355.811 1418.65 L372.13 1418.65 L372.13 1422.59 L350.186 1422.59 L350.186 1418.65 Q352.848 1415.9 357.431 1411.27 Q362.038 1406.62 363.218 1405.27 Q365.464 1402.75 366.343 1401.01 Q367.246 1399.25 367.246 1397.56 Q367.246 1394.81 365.302 1393.07 Q363.38 1391.34 360.279 1391.34 Q358.08 1391.34 355.626 1392.1 Q353.195 1392.87 350.418 1394.42 L350.418 1389.69 Q353.242 1388.56 355.695 1387.98 Q358.149 1387.4 360.186 1387.4 Q365.556 1387.4 368.751 1390.09 Q371.945 1392.77 371.945 1397.26 Q371.945 1399.39 371.135 1401.31 Q370.348 1403.21 368.242 1405.81 Q367.663 1406.48 364.561 1409.69 Q361.459 1412.89 355.811 1418.65 Z" fill="#000000" fill-rule="evenodd" fill-opacity="1" /><path clip-path="url(#clip470)" d="M380.765 1388.03 L402.987 1388.03 L402.987 1390.02 L390.44 1422.59 L385.556 1422.59 L397.362 1391.96 L380.765 1391.96 L380.765 1388.03 Z" fill="#000000" fill-rule="evenodd" fill-opacity="1" /><path clip-path="url(#clip470)" d="M465.81 1418.65 L473.449 1418.65 L473.449 1392.29 L465.139 1393.95 L465.139 1389.69 L473.402 1388.03 L478.078 1388.03 L478.078 1418.65 L485.717 1418.65 L485.717 1422.59 L465.81 1422.59 L465.81 1418.65 Z" fill="#000000" fill-rule="evenodd" fill-opacity="1" /><path clip-path="url(#clip470)" d="M495.162 1416.71 L500.046 1416.71 L500.046 1422.59 L495.162 1422.59 L495.162 1416.71 Z" fill="#000000" fill-rule="evenodd" fill-opacity="1" /><path clip-path="url(#clip470)" d="M514.259 1418.65 L530.578 1418.65 L530.578 1422.59 L508.634 1422.59 L508.634 1418.65 Q511.296 1415.9 515.879 1411.27 Q520.486 1406.62 521.666 1405.27 Q523.911 1402.75 524.791 1401.01 Q525.694 1399.25 525.694 1397.56 Q525.694 1394.81 523.749 1393.07 Q521.828 1391.34 518.726 1391.34 Q516.527 1391.34 514.074 1392.1 Q511.643 1392.87 508.865 1394.42 L508.865 1389.69 Q511.689 1388.56 514.143 1387.98 Q516.597 1387.4 518.634 1387.4 Q524.004 1387.4 527.199 1390.09 Q530.393 1392.77 530.393 1397.26 Q530.393 1399.39 529.583 1401.31 Q528.796 1403.21 526.689 1405.81 Q526.111 1406.48 523.009 1409.69 Q519.907 1412.89 514.259 1418.65 Z" fill="#000000" fill-rule="evenodd" fill-opacity="1" /><path clip-path="url(#clip470)" d="M550.393 1406.18 Q547.06 1406.18 545.138 1407.96 Q543.24 1409.74 543.24 1412.87 Q543.24 1415.99 545.138 1417.77 Q547.06 1419.56 550.393 1419.56 Q553.726 1419.56 555.647 1417.77 Q557.569 1415.97 557.569 1412.87 Q557.569 1409.74 555.647 1407.96 Q553.749 1406.18 550.393 1406.18 M545.717 1404.19 Q542.708 1403.44 541.018 1401.38 Q539.351 1399.32 539.351 1396.36 Q539.351 1392.22 542.291 1389.81 Q545.254 1387.4 550.393 1387.4 Q555.555 1387.4 558.495 1389.81 Q561.434 1392.22 561.434 1396.36 Q561.434 1399.32 559.745 1401.38 Q558.078 1403.44 555.092 1404.19 Q558.471 1404.97 560.346 1407.26 Q562.245 1409.56 562.245 1412.87 Q562.245 1417.89 559.166 1420.57 Q556.11 1423.26 550.393 1423.26 Q544.675 1423.26 541.597 1420.57 Q538.541 1417.89 538.541 1412.87 Q538.541 1409.56 540.439 1407.26 Q542.337 1404.97 545.717 1404.19 M544.004 1396.8 Q544.004 1399.49 545.671 1400.99 Q547.36 1402.5 550.393 1402.5 Q553.402 1402.5 555.092 1400.99 Q556.805 1399.49 556.805 1396.8 Q556.805 1394.12 555.092 1392.61 Q553.402 1391.11 550.393 1391.11 Q547.36 1391.11 545.671 1392.61 Q544.004 1394.12 544.004 1396.8 Z" fill="#000000" fill-rule="evenodd" fill-opacity="1" /><path clip-path="url(#clip470)" d="M624.709 1418.65 L632.348 1418.65 L632.348 1392.29 L624.038 1393.95 L624.038 1389.69 L632.302 1388.03 L636.977 1388.03 L636.977 1418.65 L644.616 1418.65 L644.616 1422.59 L624.709 1422.59 L624.709 1418.65 Z" fill="#000000" fill-rule="evenodd" fill-opacity="1" /><path clip-path="url(#clip470)" d="M654.061 1416.71 L658.945 1416.71 L658.945 1422.59 L654.061 1422.59 L654.061 1416.71 Z" fill="#000000" fill-rule="evenodd" fill-opacity="1" /><path clip-path="url(#clip470)" d="M673.158 1418.65 L689.477 1418.65 L689.477 1422.59 L667.533 1422.59 L667.533 1418.65 Q670.195 1415.9 674.778 1411.27 Q679.385 1406.62 680.565 1405.27 Q682.811 1402.75 683.69 1401.01 Q684.593 1399.25 684.593 1397.56 Q684.593 1394.81 682.649 1393.07 Q680.727 1391.34 677.625 1391.34 Q675.426 1391.34 672.973 1392.1 Q670.542 1392.87 667.764 1394.42 L667.764 1389.69 Q670.588 1388.56 673.042 1387.98 Q675.496 1387.4 677.533 1387.4 Q682.903 1387.4 686.098 1390.09 Q689.292 1392.77 689.292 1397.26 Q689.292 1399.39 688.482 1401.31 Q687.695 1403.21 685.588 1405.81 Q685.01 1406.48 681.908 1409.69 Q678.806 1412.89 673.158 1418.65 Z" fill="#000000" fill-rule="evenodd" fill-opacity="1" /><path clip-path="url(#clip470)" d="M699.431 1421.87 L699.431 1417.61 Q701.19 1418.44 702.996 1418.88 Q704.801 1419.32 706.537 1419.32 Q711.167 1419.32 713.597 1416.22 Q716.051 1413.1 716.398 1406.75 Q715.056 1408.75 712.996 1409.81 Q710.935 1410.87 708.435 1410.87 Q703.25 1410.87 700.218 1407.75 Q697.209 1404.6 697.209 1399.16 Q697.209 1393.84 700.357 1390.62 Q703.505 1387.4 708.736 1387.4 Q714.732 1387.4 717.88 1392.01 Q721.051 1396.59 721.051 1405.34 Q721.051 1413.51 717.162 1418.4 Q713.297 1423.26 706.746 1423.26 Q704.986 1423.26 703.181 1422.91 Q701.375 1422.56 699.431 1421.87 M708.736 1407.22 Q711.885 1407.22 713.713 1405.06 Q715.565 1402.91 715.565 1399.16 Q715.565 1395.44 713.713 1393.28 Q711.885 1391.11 708.736 1391.11 Q705.588 1391.11 703.736 1393.28 Q701.908 1395.44 701.908 1399.16 Q701.908 1402.91 703.736 1405.06 Q705.588 1407.22 708.736 1407.22 Z" fill="#000000" fill-rule="evenodd" fill-opacity="1" /><path clip-path="url(#clip470)" d="M783.469 1418.65 L791.108 1418.65 L791.108 1392.29 L782.798 1393.95 L782.798 1389.69 L791.062 1388.03 L795.738 1388.03 L795.738 1418.65 L803.377 1418.65 L803.377 1422.59 L783.469 1422.59 L783.469 1418.65 Z" fill="#000000" fill-rule="evenodd" fill-opacity="1" /><path clip-path="url(#clip470)" d="M812.821 1416.71 L817.705 1416.71 L817.705 1422.59 L812.821 1422.59 L812.821 1416.71 Z" fill="#000000" fill-rule="evenodd" fill-opacity="1" /><path clip-path="url(#clip470)" d="M842.057 1403.95 Q845.413 1404.67 847.288 1406.94 Q849.186 1409.21 849.186 1412.54 Q849.186 1417.66 845.668 1420.46 Q842.149 1423.26 835.668 1423.26 Q833.492 1423.26 831.177 1422.82 Q828.886 1422.4 826.432 1421.55 L826.432 1417.03 Q828.376 1418.17 830.691 1418.75 Q833.006 1419.32 835.529 1419.32 Q839.927 1419.32 842.219 1417.59 Q844.534 1415.85 844.534 1412.54 Q844.534 1409.49 842.381 1407.77 Q840.251 1406.04 836.432 1406.04 L832.404 1406.04 L832.404 1402.19 L836.617 1402.19 Q840.066 1402.19 841.895 1400.83 Q843.724 1399.44 843.724 1396.85 Q843.724 1394.19 841.825 1392.77 Q839.95 1391.34 836.432 1391.34 Q834.511 1391.34 832.312 1391.75 Q830.113 1392.17 827.474 1393.05 L827.474 1388.88 Q830.136 1388.14 832.45 1387.77 Q834.788 1387.4 836.849 1387.4 Q842.173 1387.4 845.274 1389.83 Q848.376 1392.24 848.376 1396.36 Q848.376 1399.23 846.733 1401.22 Q845.089 1403.19 842.057 1403.95 Z" fill="#000000" fill-rule="evenodd" fill-opacity="1" /><path clip-path="url(#clip470)" d="M868.052 1391.11 Q864.441 1391.11 862.612 1394.67 Q860.807 1398.21 860.807 1405.34 Q860.807 1412.45 862.612 1416.01 Q864.441 1419.56 868.052 1419.56 Q871.686 1419.56 873.492 1416.01 Q875.321 1412.45 875.321 1405.34 Q875.321 1398.21 873.492 1394.67 Q871.686 1391.11 868.052 1391.11 M868.052 1387.4 Q873.862 1387.4 876.918 1392.01 Q879.997 1396.59 879.997 1405.34 Q879.997 1414.07 876.918 1418.68 Q873.862 1423.26 868.052 1423.26 Q862.242 1423.26 859.163 1418.68 Q856.108 1414.07 856.108 1405.34 Q856.108 1396.59 859.163 1392.01 Q862.242 1387.4 868.052 1387.4 Z" fill="#000000" fill-rule="evenodd" fill-opacity="1" /><path clip-path="url(#clip470)" d="M942.935 1418.65 L950.574 1418.65 L950.574 1392.29 L942.264 1393.95 L942.264 1389.69 L950.528 1388.03 L955.204 1388.03 L955.204 1418.65 L962.843 1418.65 L962.843 1422.59 L942.935 1422.59 L942.935 1418.65 Z" fill="#000000" fill-rule="evenodd" fill-opacity="1" /><path clip-path="url(#clip470)" d="M972.287 1416.71 L977.171 1416.71 L977.171 1422.59 L972.287 1422.59 L972.287 1416.71 Z" fill="#000000" fill-rule="evenodd" fill-opacity="1" /><path clip-path="url(#clip470)" d="M1001.52 1403.95 Q1004.88 1404.67 1006.75 1406.94 Q1008.65 1409.21 1008.65 1412.54 Q1008.65 1417.66 1005.13 1420.46 Q1001.62 1423.26 995.134 1423.26 Q992.958 1423.26 990.644 1422.82 Q988.352 1422.4 985.898 1421.55 L985.898 1417.03 Q987.843 1418.17 990.157 1418.75 Q992.472 1419.32 994.995 1419.32 Q999.394 1419.32 1001.69 1417.59 Q1004 1415.85 1004 1412.54 Q1004 1409.49 1001.85 1407.77 Q999.718 1406.04 995.898 1406.04 L991.87 1406.04 L991.87 1402.19 L996.083 1402.19 Q999.532 1402.19 1001.36 1400.83 Q1003.19 1399.44 1003.19 1396.85 Q1003.19 1394.19 1001.29 1392.77 Q999.417 1391.34 995.898 1391.34 Q993.977 1391.34 991.778 1391.75 Q989.579 1392.17 986.94 1393.05 L986.94 1388.88 Q989.602 1388.14 991.917 1387.77 Q994.255 1387.4 996.315 1387.4 Q1001.64 1387.4 1004.74 1389.83 Q1007.84 1392.24 1007.84 1396.36 Q1007.84 1399.23 1006.2 1401.22 Q1004.56 1403.19 1001.52 1403.95 Z" fill="#000000" fill-rule="evenodd" fill-opacity="1" /><path clip-path="url(#clip470)" d="M1018.33 1418.65 L1025.97 1418.65 L1025.97 1392.29 L1017.66 1393.95 L1017.66 1389.69 L1025.92 1388.03 L1030.6 1388.03 L1030.6 1418.65 L1038.24 1418.65 L1038.24 1422.59 L1018.33 1422.59 L1018.33 1418.65 Z" fill="#000000" fill-rule="evenodd" fill-opacity="1" /><path clip-path="url(#clip470)" d="M673.23 1475.77 Q675.171 1472.52 679.977 1469.66 Q681.855 1468.54 687.648 1468.54 Q694.141 1468.54 698.183 1473.7 Q702.257 1478.86 702.257 1487.26 Q702.257 1495.66 698.183 1500.82 Q694.141 1505.97 687.648 1505.97 Q683.733 1505.97 680.9 1504.45 Q678.099 1502.89 676.253 1499.7 L676.253 1518.61 L670.365 1518.61 L670.365 1487.58 Q670.365 1480.23 673.23 1475.77 M696.178 1487.26 Q696.178 1480.8 693.504 1477.14 Q690.863 1473.45 686.216 1473.45 Q681.569 1473.45 678.895 1477.14 Q676.253 1480.8 676.253 1487.26 Q676.253 1493.72 678.895 1497.41 Q681.569 1501.07 686.216 1501.07 Q690.863 1501.07 693.504 1497.41 Q696.178 1493.72 696.178 1487.26 Z" fill="#000000" fill-rule="evenodd" fill-opacity="1" /><polyline clip-path="url(#clip472)" style="stroke:#000000; stroke-linecap:butt; stroke-linejoin:round; stroke-width:2; stroke-opacity:0.1; fill:none" points="
  282.858,1326.97 1089.76,1326.97 
  "/>
<polyline clip-path="url(#clip472)" style="stroke:#000000; stroke-linecap:butt; stroke-linejoin:round; stroke-width:2; stroke-opacity:0.1; fill:none" points="
  282.858,1050.15 1089.76,1050.15 
  "/>
<polyline clip-path="url(#clip472)" style="stroke:#000000; stroke-linecap:butt; stroke-linejoin:round; stroke-width:2; stroke-opacity:0.1; fill:none" points="
  282.858,773.326 1089.76,773.326 
  "/>
<polyline clip-path="url(#clip472)" style="stroke:#000000; stroke-linecap:butt; stroke-linejoin:round; stroke-width:2; stroke-opacity:0.1; fill:none" points="
  282.858,496.504 1089.76,496.504 
  "/>
<polyline clip-path="url(#clip472)" style="stroke:#000000; stroke-linecap:butt; stroke-linejoin:round; stroke-width:2; stroke-opacity:0.1; fill:none" points="
  282.858,219.683 1089.76,219.683 
  "/>
<polyline clip-path="url(#clip470)" style="stroke:#000000; stroke-linecap:butt; stroke-linejoin:round; stroke-width:4; stroke-opacity:1; fill:none" points="
  282.858,1360.19 282.858,186.464 
  "/>
<polyline clip-path="url(#clip470)" style="stroke:#000000; stroke-linecap:butt; stroke-linejoin:round; stroke-width:4; stroke-opacity:1; fill:none" points="
  282.858,1326.97 301.756,1326.97 
  "/>
<polyline clip-path="url(#clip470)" style="stroke:#000000; stroke-linecap:butt; stroke-linejoin:round; stroke-width:4; stroke-opacity:1; fill:none" points="
  282.858,1050.15 301.756,1050.15 
  "/>
<polyline clip-path="url(#clip470)" style="stroke:#000000; stroke-linecap:butt; stroke-linejoin:round; stroke-width:4; stroke-opacity:1; fill:none" points="
  282.858,773.326 301.756,773.326 
  "/>
<polyline clip-path="url(#clip470)" style="stroke:#000000; stroke-linecap:butt; stroke-linejoin:round; stroke-width:4; stroke-opacity:1; fill:none" points="
  282.858,496.504 301.756,496.504 
  "/>
<polyline clip-path="url(#clip470)" style="stroke:#000000; stroke-linecap:butt; stroke-linejoin:round; stroke-width:4; stroke-opacity:1; fill:none" points="
  282.858,219.683 301.756,219.683 
  "/>
<path clip-path="url(#clip470)" d="M189.683 1312.77 Q186.072 1312.77 184.243 1316.33 Q182.437 1319.87 182.437 1327 Q182.437 1334.11 184.243 1337.68 Q186.072 1341.22 189.683 1341.22 Q193.317 1341.22 195.123 1337.68 Q196.951 1334.11 196.951 1327 Q196.951 1319.87 195.123 1316.33 Q193.317 1312.77 189.683 1312.77 M189.683 1309.06 Q195.493 1309.06 198.548 1313.67 Q201.627 1318.25 201.627 1327 Q201.627 1335.73 198.548 1340.34 Q195.493 1344.92 189.683 1344.92 Q183.873 1344.92 180.794 1340.34 Q177.738 1335.73 177.738 1327 Q177.738 1318.25 180.794 1313.67 Q183.873 1309.06 189.683 1309.06 Z" fill="#000000" fill-rule="evenodd" fill-opacity="1" /><path clip-path="url(#clip470)" d="M209.845 1338.37 L214.729 1338.37 L214.729 1344.25 L209.845 1344.25 L209.845 1338.37 Z" fill="#000000" fill-rule="evenodd" fill-opacity="1" /><path clip-path="url(#clip470)" d="M234.914 1312.77 Q231.303 1312.77 229.474 1316.33 Q227.669 1319.87 227.669 1327 Q227.669 1334.11 229.474 1337.68 Q231.303 1341.22 234.914 1341.22 Q238.548 1341.22 240.354 1337.68 Q242.182 1334.11 242.182 1327 Q242.182 1319.87 240.354 1316.33 Q238.548 1312.77 234.914 1312.77 M234.914 1309.06 Q240.724 1309.06 243.78 1313.67 Q246.858 1318.25 246.858 1327 Q246.858 1335.73 243.78 1340.34 Q240.724 1344.92 234.914 1344.92 Q229.104 1344.92 226.025 1340.34 Q222.97 1335.73 222.97 1327 Q222.97 1318.25 226.025 1313.67 Q229.104 1309.06 234.914 1309.06 Z" fill="#000000" fill-rule="evenodd" fill-opacity="1" /><path clip-path="url(#clip470)" d="M190.91 1035.95 Q187.299 1035.95 185.47 1039.51 Q183.664 1043.05 183.664 1050.18 Q183.664 1057.29 185.47 1060.85 Q187.299 1064.4 190.91 1064.4 Q194.544 1064.4 196.349 1060.85 Q198.178 1057.29 198.178 1050.18 Q198.178 1043.05 196.349 1039.51 Q194.544 1035.95 190.91 1035.95 M190.91 1032.24 Q196.72 1032.24 199.775 1036.85 Q202.854 1041.43 202.854 1050.18 Q202.854 1058.91 199.775 1063.52 Q196.72 1068.1 190.91 1068.1 Q185.099 1068.1 182.021 1063.52 Q178.965 1058.91 178.965 1050.18 Q178.965 1041.43 182.021 1036.85 Q185.099 1032.24 190.91 1032.24 Z" fill="#000000" fill-rule="evenodd" fill-opacity="1" /><path clip-path="url(#clip470)" d="M211.072 1061.55 L215.956 1061.55 L215.956 1067.43 L211.072 1067.43 L211.072 1061.55 Z" fill="#000000" fill-rule="evenodd" fill-opacity="1" /><path clip-path="url(#clip470)" d="M226.951 1063.49 L234.59 1063.49 L234.59 1037.13 L226.28 1038.79 L226.28 1034.53 L234.544 1032.87 L239.22 1032.87 L239.22 1063.49 L246.858 1063.49 L246.858 1067.43 L226.951 1067.43 L226.951 1063.49 Z" fill="#000000" fill-rule="evenodd" fill-opacity="1" /><path clip-path="url(#clip470)" d="M191.28 759.125 Q187.669 759.125 185.84 762.689 Q184.035 766.231 184.035 773.361 Q184.035 780.467 185.84 784.032 Q187.669 787.574 191.28 787.574 Q194.914 787.574 196.72 784.032 Q198.548 780.467 198.548 773.361 Q198.548 766.231 196.72 762.689 Q194.914 759.125 191.28 759.125 M191.28 755.421 Q197.09 755.421 200.146 760.027 Q203.224 764.611 203.224 773.361 Q203.224 782.088 200.146 786.694 Q197.09 791.277 191.28 791.277 Q185.47 791.277 182.391 786.694 Q179.336 782.088 179.336 773.361 Q179.336 764.611 182.391 760.027 Q185.47 755.421 191.28 755.421 Z" fill="#000000" fill-rule="evenodd" fill-opacity="1" /><path clip-path="url(#clip470)" d="M211.442 784.726 L216.326 784.726 L216.326 790.606 L211.442 790.606 L211.442 784.726 Z" fill="#000000" fill-rule="evenodd" fill-opacity="1" /><path clip-path="url(#clip470)" d="M230.539 786.671 L246.858 786.671 L246.858 790.606 L224.914 790.606 L224.914 786.671 Q227.576 783.916 232.159 779.287 Q236.766 774.634 237.946 773.291 Q240.192 770.768 241.071 769.032 Q241.974 767.273 241.974 765.583 Q241.974 762.828 240.03 761.092 Q238.108 759.356 235.007 759.356 Q232.808 759.356 230.354 760.12 Q227.923 760.884 225.146 762.435 L225.146 757.713 Q227.97 756.578 230.423 756 Q232.877 755.421 234.914 755.421 Q240.284 755.421 243.479 758.106 Q246.673 760.791 246.673 765.282 Q246.673 767.412 245.863 769.333 Q245.076 771.231 242.97 773.824 Q242.391 774.495 239.289 777.713 Q236.187 780.907 230.539 786.671 Z" fill="#000000" fill-rule="evenodd" fill-opacity="1" /><path clip-path="url(#clip470)" d="M190.331 482.303 Q186.72 482.303 184.891 485.868 Q183.086 489.41 183.086 496.539 Q183.086 503.646 184.891 507.21 Q186.72 510.752 190.331 510.752 Q193.965 510.752 195.771 507.21 Q197.599 503.646 197.599 496.539 Q197.599 489.41 195.771 485.868 Q193.965 482.303 190.331 482.303 M190.331 478.599 Q196.141 478.599 199.197 483.206 Q202.275 487.789 202.275 496.539 Q202.275 505.266 199.197 509.872 Q196.141 514.456 190.331 514.456 Q184.521 514.456 181.442 509.872 Q178.387 505.266 178.387 496.539 Q178.387 487.789 181.442 483.206 Q184.521 478.599 190.331 478.599 Z" fill="#000000" fill-rule="evenodd" fill-opacity="1" /><path clip-path="url(#clip470)" d="M210.493 507.905 L215.377 507.905 L215.377 513.784 L210.493 513.784 L210.493 507.905 Z" fill="#000000" fill-rule="evenodd" fill-opacity="1" /><path clip-path="url(#clip470)" d="M239.729 495.15 Q243.085 495.868 244.96 498.136 Q246.858 500.405 246.858 503.738 Q246.858 508.854 243.34 511.655 Q239.821 514.456 233.34 514.456 Q231.164 514.456 228.849 514.016 Q226.558 513.599 224.104 512.743 L224.104 508.229 Q226.048 509.363 228.363 509.942 Q230.678 510.521 233.201 510.521 Q237.599 510.521 239.891 508.784 Q242.206 507.048 242.206 503.738 Q242.206 500.683 240.053 498.97 Q237.923 497.234 234.104 497.234 L230.076 497.234 L230.076 493.391 L234.289 493.391 Q237.738 493.391 239.567 492.025 Q241.395 490.636 241.395 488.044 Q241.395 485.382 239.497 483.97 Q237.622 482.535 234.104 482.535 Q232.183 482.535 229.983 482.951 Q227.784 483.368 225.146 484.248 L225.146 480.081 Q227.808 479.34 230.122 478.97 Q232.46 478.599 234.52 478.599 Q239.845 478.599 242.946 481.03 Q246.048 483.437 246.048 487.558 Q246.048 490.428 244.405 492.419 Q242.761 494.386 239.729 495.15 Z" fill="#000000" fill-rule="evenodd" fill-opacity="1" /><path clip-path="url(#clip470)" d="M189.197 205.482 Q185.586 205.482 183.757 209.046 Q181.951 212.588 181.951 219.718 Q181.951 226.824 183.757 230.389 Q185.586 233.93 189.197 233.93 Q192.831 233.93 194.636 230.389 Q196.465 226.824 196.465 219.718 Q196.465 212.588 194.636 209.046 Q192.831 205.482 189.197 205.482 M189.197 201.778 Q195.007 201.778 198.062 206.384 Q201.141 210.968 201.141 219.718 Q201.141 228.444 198.062 233.051 Q195.007 237.634 189.197 237.634 Q183.387 237.634 180.308 233.051 Q177.252 228.444 177.252 219.718 Q177.252 210.968 180.308 206.384 Q183.387 201.778 189.197 201.778 Z" fill="#000000" fill-rule="evenodd" fill-opacity="1" /><path clip-path="url(#clip470)" d="M209.359 231.083 L214.243 231.083 L214.243 236.963 L209.359 236.963 L209.359 231.083 Z" fill="#000000" fill-rule="evenodd" fill-opacity="1" /><path clip-path="url(#clip470)" d="M237.275 206.477 L225.47 224.926 L237.275 224.926 L237.275 206.477 M236.048 202.403 L241.928 202.403 L241.928 224.926 L246.858 224.926 L246.858 228.815 L241.928 228.815 L241.928 236.963 L237.275 236.963 L237.275 228.815 L221.673 228.815 L221.673 224.301 L236.048 202.403 Z" fill="#000000" fill-rule="evenodd" fill-opacity="1" /><path clip-path="url(#clip470)" d="M91.3483 871.851 L91.3483 844.033 L96.6955 844.033 L122.317 866.058 L122.317 844.033 L126.996 844.033 L126.996 872.647 L121.649 872.647 L96.0271 850.622 L96.0271 871.851 L91.3483 871.851 Z" fill="#000000" fill-rule="evenodd" fill-opacity="1" /><path clip-path="url(#clip470)" d="M77.5347 800.301 Q84.8553 804.566 92.0167 806.635 Q99.1781 808.703 106.531 808.703 Q113.883 808.703 121.108 806.635 Q128.301 804.534 135.59 800.301 L135.59 805.393 Q128.11 810.168 120.885 812.555 Q113.66 814.91 106.531 814.91 Q99.4328 814.91 92.2395 812.555 Q85.0463 810.199 77.5347 805.393 L77.5347 800.301 Z" fill="#000000" fill-rule="evenodd" fill-opacity="1" /><path clip-path="url(#clip470)" d="M77.4711 789.161 L77.4711 783.272 L106.722 783.272 L91.3483 765.799 L91.3483 758.319 L108.026 777.225 L126.996 757.523 L126.996 765.162 L109.586 783.272 L126.996 783.272 L126.996 789.161 L77.4711 789.161 Z" fill="#000000" fill-rule="evenodd" fill-opacity="1" /><path clip-path="url(#clip470)" d="M98.1915 723.435 Q94.2447 721.239 92.3668 718.183 Q90.489 715.128 90.489 710.99 Q90.489 705.42 94.4039 702.396 Q98.2869 699.372 105.48 699.372 L126.996 699.372 L126.996 705.261 L105.671 705.261 Q100.547 705.261 98.0641 707.075 Q95.5815 708.889 95.5815 712.613 Q95.5815 717.165 98.6052 719.806 Q101.629 722.448 106.849 722.448 L126.996 722.448 L126.996 728.336 L105.671 728.336 Q100.515 728.336 98.0641 730.151 Q95.5815 731.965 95.5815 735.752 Q95.5815 740.24 98.6371 742.882 Q101.661 745.524 106.849 745.524 L126.996 745.524 L126.996 751.412 L91.3483 751.412 L91.3483 745.524 L96.8865 745.524 Q93.6082 743.519 92.0486 740.718 Q90.489 737.917 90.489 734.065 Q90.489 730.182 92.4623 727.477 Q94.4357 724.74 98.1915 723.435 Z" fill="#000000" fill-rule="evenodd" fill-opacity="1" /><path clip-path="url(#clip470)" d="M77.5347 688.614 L77.5347 683.522 Q85.0463 678.747 92.2395 676.392 Q99.4328 674.005 106.531 674.005 Q113.66 674.005 120.885 676.392 Q128.11 678.747 135.59 683.522 L135.59 688.614 Q128.301 684.381 121.108 682.312 Q113.883 680.212 106.531 680.212 Q99.1781 680.212 92.0167 682.312 Q84.8553 684.381 77.5347 688.614 Z" fill="#000000" fill-rule="evenodd" fill-opacity="1" /><path clip-path="url(#clip470)" d="M669.662 35.3077 Q672.133 31.1758 678.25 27.5299 Q680.64 26.1121 688.012 26.1121 Q696.276 26.1121 701.421 32.6746 Q706.606 39.2371 706.606 49.9314 Q706.606 60.6258 701.421 67.1883 Q696.276 73.7508 688.012 73.7508 Q683.03 73.7508 679.425 71.8063 Q675.86 69.8214 673.51 65.7705 L673.51 89.8329 L666.016 89.8329 L666.016 50.3365 Q666.016 40.9789 669.662 35.3077 M698.869 49.9314 Q698.869 41.7081 695.466 37.0496 Q692.104 32.3505 686.19 32.3505 Q680.275 32.3505 676.872 37.0496 Q673.51 41.7081 673.51 49.9314 Q673.51 58.1548 676.872 62.8538 Q680.275 67.5124 686.19 67.5124 Q692.104 67.5124 695.466 62.8538 Q698.869 58.1548 698.869 49.9314 Z" fill="#000000" fill-rule="evenodd" fill-opacity="1" /><polyline clip-path="url(#clip472)" style="stroke:#009af9; stroke-linecap:butt; stroke-linejoin:round; stroke-width:4; stroke-opacity:1; fill:none" points="
  1018.85,1257.76 922.903,1119.35 827.22,980.942 731.801,842.531 636.648,704.121 541.759,565.71 447.136,427.299 352.776,288.888 
  "/>
<polyline clip-path="url(#clip472)" style="stroke:#e26f46; stroke-linecap:butt; stroke-linejoin:round; stroke-width:4; stroke-opacity:1; fill:none" points="
  1066.93,1326.97 970.845,1188.56 875.028,1050.15 779.477,911.737 684.191,773.326 589.171,634.915 494.414,496.504 399.923,358.094 305.695,219.683 
  "/>
<path clip-path="url(#clip470)" d="
M800.92 381.108 L1062.87 381.108 L1062.87 225.588 L800.92 225.588  Z
  " fill="#ffffff" fill-rule="evenodd" fill-opacity="1"/>
<polyline clip-path="url(#clip470)" style="stroke:#000000; stroke-linecap:butt; stroke-linejoin:round; stroke-width:4; stroke-opacity:1; fill:none" points="
  800.92,381.108 1062.87,381.108 1062.87,225.588 800.92,225.588 800.92,381.108 
  "/>
<polyline clip-path="url(#clip470)" style="stroke:#009af9; stroke-linecap:butt; stroke-linejoin:round; stroke-width:4; stroke-opacity:1; fill:none" points="
  809.886,277.428 863.679,277.428 
  "/>
<path clip-path="url(#clip470)" d="M893.154 269.778 L893.154 273.759 Q891.349 272.764 889.52 272.278 Q887.714 271.769 885.862 271.769 Q881.719 271.769 879.427 274.408 Q877.136 277.023 877.136 281.769 Q877.136 286.514 879.427 289.153 Q881.719 291.769 885.862 291.769 Q887.714 291.769 889.52 291.282 Q891.349 290.773 893.154 289.778 L893.154 293.713 Q891.372 294.546 889.45 294.963 Q887.552 295.38 885.4 295.38 Q879.543 295.38 876.094 291.699 Q872.645 288.019 872.645 281.769 Q872.645 275.426 876.117 271.792 Q879.613 268.158 885.677 268.158 Q887.645 268.158 889.52 268.574 Q891.395 268.968 893.154 269.778 Z" fill="#000000" fill-rule="evenodd" fill-opacity="1" /><path clip-path="url(#clip470)" d="M922.737 280.681 L922.737 282.764 L903.154 282.764 Q903.432 287.162 905.793 289.477 Q908.177 291.769 912.413 291.769 Q914.867 291.769 917.159 291.167 Q919.473 290.565 921.742 289.361 L921.742 293.389 Q919.45 294.361 917.043 294.87 Q914.635 295.38 912.159 295.38 Q905.955 295.38 902.321 291.769 Q898.71 288.157 898.71 282 Q898.71 275.634 902.136 271.908 Q905.585 268.158 911.418 268.158 Q916.649 268.158 919.682 271.537 Q922.737 274.894 922.737 280.681 M918.478 279.431 Q918.432 275.935 916.51 273.852 Q914.612 271.769 911.464 271.769 Q907.899 271.769 905.747 273.783 Q903.617 275.796 903.293 279.454 L918.478 279.431 Z" fill="#000000" fill-rule="evenodd" fill-opacity="1" /><path clip-path="url(#clip470)" d="M951.279 279.06 L951.279 294.708 L947.02 294.708 L947.02 279.199 Q947.02 275.519 945.584 273.69 Q944.149 271.861 941.279 271.861 Q937.83 271.861 935.839 274.06 Q933.848 276.259 933.848 280.056 L933.848 294.708 L929.566 294.708 L929.566 268.783 L933.848 268.783 L933.848 272.81 Q935.376 270.472 937.436 269.315 Q939.52 268.158 942.228 268.158 Q946.695 268.158 948.987 270.935 Q951.279 273.69 951.279 279.06 Z" fill="#000000" fill-rule="evenodd" fill-opacity="1" /><path clip-path="url(#clip470)" d="M963.987 261.422 L963.987 268.783 L972.76 268.783 L972.76 272.093 L963.987 272.093 L963.987 286.167 Q963.987 289.338 964.844 290.241 Q965.723 291.144 968.385 291.144 L972.76 291.144 L972.76 294.708 L968.385 294.708 Q963.455 294.708 961.58 292.88 Q959.705 291.028 959.705 286.167 L959.705 272.093 L956.58 272.093 L956.58 268.783 L959.705 268.783 L959.705 261.422 L963.987 261.422 Z" fill="#000000" fill-rule="evenodd" fill-opacity="1" /><path clip-path="url(#clip470)" d="M1000.54 280.681 L1000.54 282.764 L980.955 282.764 Q981.232 287.162 983.593 289.477 Q985.978 291.769 990.214 291.769 Q992.667 291.769 994.959 291.167 Q997.274 290.565 999.542 289.361 L999.542 293.389 Q997.251 294.361 994.843 294.87 Q992.436 295.38 989.959 295.38 Q983.755 295.38 980.121 291.769 Q976.51 288.157 976.51 282 Q976.51 275.634 979.936 271.908 Q983.385 268.158 989.218 268.158 Q994.45 268.158 997.482 271.537 Q1000.54 274.894 1000.54 280.681 M996.279 279.431 Q996.232 275.935 994.311 273.852 Q992.413 271.769 989.265 271.769 Q985.7 271.769 983.547 273.783 Q981.418 275.796 981.093 279.454 L996.279 279.431 Z" fill="#000000" fill-rule="evenodd" fill-opacity="1" /><path clip-path="url(#clip470)" d="M1022.55 272.764 Q1021.83 272.347 1020.98 272.162 Q1020.14 271.954 1019.13 271.954 Q1015.51 271.954 1013.57 274.315 Q1011.65 276.653 1011.65 281.051 L1011.65 294.708 L1007.37 294.708 L1007.37 268.783 L1011.65 268.783 L1011.65 272.81 Q1012.99 270.449 1015.14 269.315 Q1017.3 268.158 1020.38 268.158 Q1020.82 268.158 1021.35 268.227 Q1021.88 268.273 1022.53 268.389 L1022.55 272.764 Z" fill="#000000" fill-rule="evenodd" fill-opacity="1" /><path clip-path="url(#clip470)" d="M1043.55 269.546 L1043.55 273.574 Q1041.74 272.648 1039.8 272.185 Q1037.85 271.722 1035.77 271.722 Q1032.6 271.722 1031 272.695 Q1029.43 273.667 1029.43 275.611 Q1029.43 277.093 1030.56 277.949 Q1031.7 278.783 1035.12 279.546 L1036.58 279.87 Q1041.12 280.843 1043.01 282.625 Q1044.94 284.384 1044.94 287.556 Q1044.94 291.167 1042.07 293.273 Q1039.22 295.38 1034.22 295.38 Q1032.13 295.38 1029.87 294.963 Q1027.62 294.569 1025.12 293.759 L1025.12 289.361 Q1027.48 290.588 1029.77 291.213 Q1032.07 291.815 1034.31 291.815 Q1037.32 291.815 1038.94 290.796 Q1040.56 289.755 1040.56 287.88 Q1040.56 286.144 1039.38 285.218 Q1038.22 284.292 1034.26 283.435 L1032.78 283.088 Q1028.82 282.255 1027.07 280.542 Q1025.31 278.806 1025.31 275.796 Q1025.31 272.139 1027.9 270.148 Q1030.49 268.158 1035.26 268.158 Q1037.62 268.158 1039.7 268.505 Q1041.79 268.852 1043.55 269.546 Z" fill="#000000" fill-rule="evenodd" fill-opacity="1" /><polyline clip-path="url(#clip470)" style="stroke:#e26f46; stroke-linecap:butt; stroke-linejoin:round; stroke-width:4; stroke-opacity:1; fill:none" points="
  809.886,329.268 863.679,329.268 
  "/>
<path clip-path="url(#clip470)" d="M889.15 310.53 L889.15 314.072 L885.075 314.072 Q882.784 314.072 881.881 314.998 Q881.001 315.924 881.001 318.331 L881.001 320.623 L888.015 320.623 L888.015 323.933 L881.001 323.933 L881.001 346.548 L876.719 346.548 L876.719 323.933 L872.645 323.933 L872.645 320.623 L876.719 320.623 L876.719 318.817 Q876.719 314.488 878.733 312.521 Q880.747 310.53 885.122 310.53 L889.15 310.53 Z" fill="#000000" fill-rule="evenodd" fill-opacity="1" /><path clip-path="url(#clip470)" d="M904.497 333.516 Q899.335 333.516 897.344 334.697 Q895.353 335.877 895.353 338.724 Q895.353 340.993 896.835 342.335 Q898.339 343.655 900.909 343.655 Q904.45 343.655 906.58 341.155 Q908.733 338.632 908.733 334.465 L908.733 333.516 L904.497 333.516 M912.992 331.757 L912.992 346.548 L908.733 346.548 L908.733 342.613 Q907.274 344.974 905.098 346.109 Q902.923 347.22 899.774 347.22 Q895.793 347.22 893.432 344.997 Q891.094 342.752 891.094 339.002 Q891.094 334.627 894.011 332.405 Q896.95 330.183 902.761 330.183 L908.733 330.183 L908.733 329.766 Q908.733 326.826 906.788 325.229 Q904.867 323.609 901.372 323.609 Q899.149 323.609 897.043 324.141 Q894.937 324.673 892.992 325.738 L892.992 321.803 Q895.33 320.9 897.529 320.461 Q899.728 319.998 901.811 319.998 Q907.436 319.998 910.214 322.914 Q912.992 325.831 912.992 331.757 Z" fill="#000000" fill-rule="evenodd" fill-opacity="1" /><path clip-path="url(#clip470)" d="M940.422 321.618 L940.422 325.599 Q938.617 324.604 936.788 324.118 Q934.983 323.609 933.131 323.609 Q928.987 323.609 926.696 326.248 Q924.404 328.863 924.404 333.609 Q924.404 338.354 926.696 340.993 Q928.987 343.609 933.131 343.609 Q934.983 343.609 936.788 343.122 Q938.617 342.613 940.422 341.618 L940.422 345.553 Q938.64 346.386 936.719 346.803 Q934.821 347.22 932.668 347.22 Q926.811 347.22 923.362 343.539 Q919.913 339.859 919.913 333.609 Q919.913 327.266 923.385 323.632 Q926.881 319.998 932.946 319.998 Q934.913 319.998 936.788 320.414 Q938.663 320.808 940.422 321.618 Z" fill="#000000" fill-rule="evenodd" fill-opacity="1" /><path clip-path="url(#clip470)" d="M970.006 332.521 L970.006 334.604 L950.422 334.604 Q950.7 339.002 953.061 341.317 Q955.445 343.609 959.682 343.609 Q962.135 343.609 964.427 343.007 Q966.742 342.405 969.01 341.201 L969.01 345.229 Q966.719 346.201 964.311 346.71 Q961.904 347.22 959.427 347.22 Q953.223 347.22 949.589 343.609 Q945.978 339.997 945.978 333.84 Q945.978 327.474 949.404 323.748 Q952.853 319.998 958.686 319.998 Q963.918 319.998 966.95 323.377 Q970.006 326.734 970.006 332.521 M965.746 331.271 Q965.7 327.775 963.779 325.692 Q961.881 323.609 958.732 323.609 Q955.168 323.609 953.015 325.623 Q950.885 327.636 950.561 331.294 L965.746 331.271 Z" fill="#000000" fill-rule="evenodd" fill-opacity="1" /><path clip-path="url(#clip470)" d="M993.524 321.386 L993.524 325.414 Q991.718 324.488 989.774 324.025 Q987.83 323.562 985.746 323.562 Q982.575 323.562 980.978 324.535 Q979.404 325.507 979.404 327.451 Q979.404 328.933 980.538 329.789 Q981.672 330.623 985.098 331.386 L986.556 331.71 Q991.093 332.683 992.992 334.465 Q994.913 336.224 994.913 339.396 Q994.913 343.007 992.042 345.113 Q989.195 347.22 984.195 347.22 Q982.112 347.22 979.843 346.803 Q977.598 346.409 975.098 345.599 L975.098 341.201 Q977.459 342.428 979.751 343.053 Q982.043 343.655 984.288 343.655 Q987.297 343.655 988.917 342.636 Q990.538 341.595 990.538 339.72 Q990.538 337.984 989.357 337.058 Q988.2 336.132 984.242 335.275 L982.76 334.928 Q978.802 334.095 977.043 332.382 Q975.283 330.646 975.283 327.636 Q975.283 323.979 977.876 321.988 Q980.468 319.998 985.237 319.998 Q987.598 319.998 989.681 320.345 Q991.765 320.692 993.524 321.386 Z" fill="#000000" fill-rule="evenodd" fill-opacity="1" /><path clip-path="url(#clip470)" d="
M1482.86 1360.19 L2289.76 1360.19 L2289.76 186.464 L1482.86 186.464  Z
  " fill="#ffffff" fill-rule="evenodd" fill-opacity="1"/>
<defs>
  <clipPath id="clip473">
    <rect x="1482" y="186" width="808" height="1175"/>
  </clipPath>
</defs>
<polyline clip-path="url(#clip473)" style="stroke:#000000; stroke-linecap:butt; stroke-linejoin:round; stroke-width:2; stroke-opacity:0.1; fill:none" points="
  1515.47,1360.19 1515.47,186.464 
  "/>
<polyline clip-path="url(#clip473)" style="stroke:#000000; stroke-linecap:butt; stroke-linejoin:round; stroke-width:2; stroke-opacity:0.1; fill:none" points="
  1665.76,1360.19 1665.76,186.464 
  "/>
<polyline clip-path="url(#clip473)" style="stroke:#000000; stroke-linecap:butt; stroke-linejoin:round; stroke-width:2; stroke-opacity:0.1; fill:none" points="
  1816.05,1360.19 1816.05,186.464 
  "/>
<polyline clip-path="url(#clip473)" style="stroke:#000000; stroke-linecap:butt; stroke-linejoin:round; stroke-width:2; stroke-opacity:0.1; fill:none" points="
  1966.34,1360.19 1966.34,186.464 
  "/>
<polyline clip-path="url(#clip473)" style="stroke:#000000; stroke-linecap:butt; stroke-linejoin:round; stroke-width:2; stroke-opacity:0.1; fill:none" points="
  2116.63,1360.19 2116.63,186.464 
  "/>
<polyline clip-path="url(#clip473)" style="stroke:#000000; stroke-linecap:butt; stroke-linejoin:round; stroke-width:2; stroke-opacity:0.1; fill:none" points="
  2266.93,1360.19 2266.93,186.464 
  "/>
<polyline clip-path="url(#clip470)" style="stroke:#000000; stroke-linecap:butt; stroke-linejoin:round; stroke-width:4; stroke-opacity:1; fill:none" points="
  1482.86,1360.19 2289.76,1360.19 
  "/>
<polyline clip-path="url(#clip470)" style="stroke:#000000; stroke-linecap:butt; stroke-linejoin:round; stroke-width:4; stroke-opacity:1; fill:none" points="
  1515.47,1360.19 1515.47,1341.29 
  "/>
<polyline clip-path="url(#clip470)" style="stroke:#000000; stroke-linecap:butt; stroke-linejoin:round; stroke-width:4; stroke-opacity:1; fill:none" points="
  1665.76,1360.19 1665.76,1341.29 
  "/>
<polyline clip-path="url(#clip470)" style="stroke:#000000; stroke-linecap:butt; stroke-linejoin:round; stroke-width:4; stroke-opacity:1; fill:none" points="
  1816.05,1360.19 1816.05,1341.29 
  "/>
<polyline clip-path="url(#clip470)" style="stroke:#000000; stroke-linecap:butt; stroke-linejoin:round; stroke-width:4; stroke-opacity:1; fill:none" points="
  1966.34,1360.19 1966.34,1341.29 
  "/>
<polyline clip-path="url(#clip470)" style="stroke:#000000; stroke-linecap:butt; stroke-linejoin:round; stroke-width:4; stroke-opacity:1; fill:none" points="
  2116.63,1360.19 2116.63,1341.29 
  "/>
<polyline clip-path="url(#clip470)" style="stroke:#000000; stroke-linecap:butt; stroke-linejoin:round; stroke-width:4; stroke-opacity:1; fill:none" points="
  2266.93,1360.19 2266.93,1341.29 
  "/>
<path clip-path="url(#clip470)" d="M1491.09 1421.87 L1491.09 1417.61 Q1492.85 1418.44 1494.66 1418.88 Q1496.46 1419.32 1498.2 1419.32 Q1502.83 1419.32 1505.26 1416.22 Q1507.71 1413.1 1508.06 1406.75 Q1506.72 1408.75 1504.66 1409.81 Q1502.6 1410.87 1500.1 1410.87 Q1494.91 1410.87 1491.88 1407.75 Q1488.87 1404.6 1488.87 1399.16 Q1488.87 1393.84 1492.02 1390.62 Q1495.17 1387.4 1500.4 1387.4 Q1506.39 1387.4 1509.54 1392.01 Q1512.71 1396.59 1512.71 1405.34 Q1512.71 1413.51 1508.82 1418.4 Q1504.96 1423.26 1498.41 1423.26 Q1496.65 1423.26 1494.84 1422.91 Q1493.04 1422.56 1491.09 1421.87 M1500.4 1407.22 Q1503.54 1407.22 1505.37 1405.06 Q1507.23 1402.91 1507.23 1399.16 Q1507.23 1395.44 1505.37 1393.28 Q1503.54 1391.11 1500.4 1391.11 Q1497.25 1391.11 1495.4 1393.28 Q1493.57 1395.44 1493.57 1399.16 Q1493.57 1402.91 1495.4 1405.06 Q1497.25 1407.22 1500.4 1407.22 Z" fill="#000000" fill-rule="evenodd" fill-opacity="1" /><path clip-path="url(#clip470)" d="M1521.16 1388.03 L1539.52 1388.03 L1539.52 1391.96 L1525.44 1391.96 L1525.44 1400.44 Q1526.46 1400.09 1527.48 1399.93 Q1528.5 1399.74 1529.52 1399.74 Q1535.3 1399.74 1538.68 1402.91 Q1542.06 1406.08 1542.06 1411.5 Q1542.06 1417.08 1538.59 1420.18 Q1535.12 1423.26 1528.8 1423.26 Q1526.62 1423.26 1524.35 1422.89 Q1522.11 1422.52 1519.7 1421.78 L1519.7 1417.08 Q1521.79 1418.21 1524.01 1418.77 Q1526.23 1419.32 1528.71 1419.32 Q1532.71 1419.32 1535.05 1417.22 Q1537.39 1415.11 1537.39 1411.5 Q1537.39 1407.89 1535.05 1405.78 Q1532.71 1403.68 1528.71 1403.68 Q1526.83 1403.68 1524.96 1404.09 Q1523.1 1404.51 1521.16 1405.39 L1521.16 1388.03 Z" fill="#000000" fill-rule="evenodd" fill-opacity="1" /><path clip-path="url(#clip470)" d="M1640.8 1421.87 L1640.8 1417.61 Q1642.56 1418.44 1644.37 1418.88 Q1646.17 1419.32 1647.91 1419.32 Q1652.54 1419.32 1654.97 1416.22 Q1657.42 1413.1 1657.77 1406.75 Q1656.43 1408.75 1654.37 1409.81 Q1652.31 1410.87 1649.81 1410.87 Q1644.62 1410.87 1641.59 1407.75 Q1638.58 1404.6 1638.58 1399.16 Q1638.58 1393.84 1641.73 1390.62 Q1644.88 1387.4 1650.11 1387.4 Q1656.11 1387.4 1659.25 1392.01 Q1662.42 1396.59 1662.42 1405.34 Q1662.42 1413.51 1658.54 1418.4 Q1654.67 1423.26 1648.12 1423.26 Q1646.36 1423.26 1644.55 1422.91 Q1642.75 1422.56 1640.8 1421.87 M1650.11 1407.22 Q1653.26 1407.22 1655.09 1405.06 Q1656.94 1402.91 1656.94 1399.16 Q1656.94 1395.44 1655.09 1393.28 Q1653.26 1391.11 1650.11 1391.11 Q1646.96 1391.11 1645.11 1393.28 Q1643.28 1395.44 1643.28 1399.16 Q1643.28 1402.91 1645.11 1405.06 Q1646.96 1407.22 1650.11 1407.22 Z" fill="#000000" fill-rule="evenodd" fill-opacity="1" /><path clip-path="url(#clip470)" d="M1681.41 1403.44 Q1678.26 1403.44 1676.41 1405.6 Q1674.58 1407.75 1674.58 1411.5 Q1674.58 1415.23 1676.41 1417.4 Q1678.26 1419.56 1681.41 1419.56 Q1684.55 1419.56 1686.38 1417.4 Q1688.23 1415.23 1688.23 1411.5 Q1688.23 1407.75 1686.38 1405.6 Q1684.55 1403.44 1681.41 1403.44 M1690.69 1388.79 L1690.69 1393.05 Q1688.93 1392.22 1687.12 1391.78 Q1685.34 1391.34 1683.58 1391.34 Q1678.95 1391.34 1676.5 1394.46 Q1674.07 1397.59 1673.72 1403.91 Q1675.09 1401.89 1677.15 1400.83 Q1679.21 1399.74 1681.68 1399.74 Q1686.89 1399.74 1689.9 1402.91 Q1692.93 1406.06 1692.93 1411.5 Q1692.93 1416.82 1689.79 1420.04 Q1686.64 1423.26 1681.41 1423.26 Q1675.41 1423.26 1672.24 1418.68 Q1669.07 1414.07 1669.07 1405.34 Q1669.07 1397.15 1672.96 1392.29 Q1676.85 1387.4 1683.4 1387.4 Q1685.16 1387.4 1686.94 1387.75 Q1688.74 1388.1 1690.69 1388.79 Z" fill="#000000" fill-rule="evenodd" fill-opacity="1" /><path clip-path="url(#clip470)" d="M1791.63 1421.87 L1791.63 1417.61 Q1793.39 1418.44 1795.19 1418.88 Q1797 1419.32 1798.74 1419.32 Q1803.37 1419.32 1805.8 1416.22 Q1808.25 1413.1 1808.6 1406.75 Q1807.25 1408.75 1805.19 1409.81 Q1803.13 1410.87 1800.63 1410.87 Q1795.45 1410.87 1792.42 1407.75 Q1789.41 1404.6 1789.41 1399.16 Q1789.41 1393.84 1792.56 1390.62 Q1795.7 1387.4 1800.93 1387.4 Q1806.93 1387.4 1810.08 1392.01 Q1813.25 1396.59 1813.25 1405.34 Q1813.25 1413.51 1809.36 1418.4 Q1805.49 1423.26 1798.94 1423.26 Q1797.18 1423.26 1795.38 1422.91 Q1793.57 1422.56 1791.63 1421.87 M1800.93 1407.22 Q1804.08 1407.22 1805.91 1405.06 Q1807.76 1402.91 1807.76 1399.16 Q1807.76 1395.44 1805.91 1393.28 Q1804.08 1391.11 1800.93 1391.11 Q1797.79 1391.11 1795.93 1393.28 Q1794.11 1395.44 1794.11 1399.16 Q1794.11 1402.91 1795.93 1405.06 Q1797.79 1407.22 1800.93 1407.22 Z" fill="#000000" fill-rule="evenodd" fill-opacity="1" /><path clip-path="url(#clip470)" d="M1820.47 1388.03 L1842.69 1388.03 L1842.69 1390.02 L1830.15 1422.59 L1825.26 1422.59 L1837.07 1391.96 L1820.47 1391.96 L1820.47 1388.03 Z" fill="#000000" fill-rule="evenodd" fill-opacity="1" /><path clip-path="url(#clip470)" d="M1941.52 1421.87 L1941.52 1417.61 Q1943.28 1418.44 1945.08 1418.88 Q1946.89 1419.32 1948.62 1419.32 Q1953.25 1419.32 1955.68 1416.22 Q1958.14 1413.1 1958.48 1406.75 Q1957.14 1408.75 1955.08 1409.81 Q1953.02 1410.87 1950.52 1410.87 Q1945.34 1410.87 1942.3 1407.75 Q1939.29 1404.6 1939.29 1399.16 Q1939.29 1393.84 1942.44 1390.62 Q1945.59 1387.4 1950.82 1387.4 Q1956.82 1387.4 1959.97 1392.01 Q1963.14 1396.59 1963.14 1405.34 Q1963.14 1413.51 1959.25 1418.4 Q1955.38 1423.26 1948.83 1423.26 Q1947.07 1423.26 1945.27 1422.91 Q1943.46 1422.56 1941.52 1421.87 M1950.82 1407.22 Q1953.97 1407.22 1955.8 1405.06 Q1957.65 1402.91 1957.65 1399.16 Q1957.65 1395.44 1955.8 1393.28 Q1953.97 1391.11 1950.82 1391.11 Q1947.67 1391.11 1945.82 1393.28 Q1943.99 1395.44 1943.99 1399.16 Q1943.99 1402.91 1945.82 1405.06 Q1947.67 1407.22 1950.82 1407.22 Z" fill="#000000" fill-rule="evenodd" fill-opacity="1" /><path clip-path="url(#clip470)" d="M1981.54 1406.18 Q1978.21 1406.18 1976.28 1407.96 Q1974.39 1409.74 1974.39 1412.87 Q1974.39 1415.99 1976.28 1417.77 Q1978.21 1419.56 1981.54 1419.56 Q1984.87 1419.56 1986.79 1417.77 Q1988.72 1415.97 1988.72 1412.87 Q1988.72 1409.74 1986.79 1407.96 Q1984.9 1406.18 1981.54 1406.18 M1976.86 1404.19 Q1973.85 1403.44 1972.16 1401.38 Q1970.5 1399.32 1970.5 1396.36 Q1970.5 1392.22 1973.44 1389.81 Q1976.4 1387.4 1981.54 1387.4 Q1986.7 1387.4 1989.64 1389.81 Q1992.58 1392.22 1992.58 1396.36 Q1992.58 1399.32 1990.89 1401.38 Q1989.22 1403.44 1986.24 1404.19 Q1989.62 1404.97 1991.49 1407.26 Q1993.39 1409.56 1993.39 1412.87 Q1993.39 1417.89 1990.31 1420.57 Q1987.26 1423.26 1981.54 1423.26 Q1975.82 1423.26 1972.74 1420.57 Q1969.69 1417.89 1969.69 1412.87 Q1969.69 1409.56 1971.59 1407.26 Q1973.48 1404.97 1976.86 1404.19 M1975.15 1396.8 Q1975.15 1399.49 1976.82 1400.99 Q1978.51 1402.5 1981.54 1402.5 Q1984.55 1402.5 1986.24 1400.99 Q1987.95 1399.49 1987.95 1396.8 Q1987.95 1394.12 1986.24 1392.61 Q1984.55 1391.11 1981.54 1391.11 Q1978.51 1391.11 1976.82 1392.61 Q1975.15 1394.12 1975.15 1396.8 Z" fill="#000000" fill-rule="evenodd" fill-opacity="1" /><path clip-path="url(#clip470)" d="M2091.85 1421.87 L2091.85 1417.61 Q2093.61 1418.44 2095.42 1418.88 Q2097.23 1419.32 2098.96 1419.32 Q2103.59 1419.32 2106.02 1416.22 Q2108.48 1413.1 2108.82 1406.75 Q2107.48 1408.75 2105.42 1409.81 Q2103.36 1410.87 2100.86 1410.87 Q2095.67 1410.87 2092.64 1407.75 Q2089.63 1404.6 2089.63 1399.16 Q2089.63 1393.84 2092.78 1390.62 Q2095.93 1387.4 2101.16 1387.4 Q2107.16 1387.4 2110.3 1392.01 Q2113.47 1396.59 2113.47 1405.34 Q2113.47 1413.51 2109.59 1418.4 Q2105.72 1423.26 2099.17 1423.26 Q2097.41 1423.26 2095.6 1422.91 Q2093.8 1422.56 2091.85 1421.87 M2101.16 1407.22 Q2104.31 1407.22 2106.14 1405.06 Q2107.99 1402.91 2107.99 1399.16 Q2107.99 1395.44 2106.14 1393.28 Q2104.31 1391.11 2101.16 1391.11 Q2098.01 1391.11 2096.16 1393.28 Q2094.33 1395.44 2094.33 1399.16 Q2094.33 1402.91 2096.16 1405.06 Q2098.01 1407.22 2101.16 1407.22 Z" fill="#000000" fill-rule="evenodd" fill-opacity="1" /><path clip-path="url(#clip470)" d="M2122.02 1421.87 L2122.02 1417.61 Q2123.78 1418.44 2125.58 1418.88 Q2127.39 1419.32 2129.12 1419.32 Q2133.75 1419.32 2136.18 1416.22 Q2138.64 1413.1 2138.98 1406.75 Q2137.64 1408.75 2135.58 1409.81 Q2133.52 1410.87 2131.02 1410.87 Q2125.84 1410.87 2122.8 1407.75 Q2119.79 1404.6 2119.79 1399.16 Q2119.79 1393.84 2122.94 1390.62 Q2126.09 1387.4 2131.32 1387.4 Q2137.32 1387.4 2140.47 1392.01 Q2143.64 1396.59 2143.64 1405.34 Q2143.64 1413.51 2139.75 1418.4 Q2135.88 1423.26 2129.33 1423.26 Q2127.57 1423.26 2125.77 1422.91 Q2123.96 1422.56 2122.02 1421.87 M2131.32 1407.22 Q2134.47 1407.22 2136.3 1405.06 Q2138.15 1402.91 2138.15 1399.16 Q2138.15 1395.44 2136.3 1393.28 Q2134.47 1391.11 2131.32 1391.11 Q2128.17 1391.11 2126.32 1393.28 Q2124.49 1395.44 2124.49 1399.16 Q2124.49 1402.91 2126.32 1405.06 Q2128.17 1407.22 2131.32 1407.22 Z" fill="#000000" fill-rule="evenodd" fill-opacity="1" /><path clip-path="url(#clip470)" d="M2226.53 1418.65 L2234.17 1418.65 L2234.17 1392.29 L2225.86 1393.95 L2225.86 1389.69 L2234.13 1388.03 L2238.8 1388.03 L2238.8 1418.65 L2246.44 1418.65 L2246.44 1422.59 L2226.53 1422.59 L2226.53 1418.65 Z" fill="#000000" fill-rule="evenodd" fill-opacity="1" /><path clip-path="url(#clip470)" d="M2265.89 1391.11 Q2262.27 1391.11 2260.45 1394.67 Q2258.64 1398.21 2258.64 1405.34 Q2258.64 1412.45 2260.45 1416.01 Q2262.27 1419.56 2265.89 1419.56 Q2269.52 1419.56 2271.32 1416.01 Q2273.15 1412.45 2273.15 1405.34 Q2273.15 1398.21 2271.32 1394.67 Q2269.52 1391.11 2265.89 1391.11 M2265.89 1387.4 Q2271.7 1387.4 2274.75 1392.01 Q2277.83 1396.59 2277.83 1405.34 Q2277.83 1414.07 2274.75 1418.68 Q2271.7 1423.26 2265.89 1423.26 Q2260.08 1423.26 2257 1418.68 Q2253.94 1414.07 2253.94 1405.34 Q2253.94 1396.59 2257 1392.01 Q2260.08 1387.4 2265.89 1387.4 Z" fill="#000000" fill-rule="evenodd" fill-opacity="1" /><path clip-path="url(#clip470)" d="M2296.05 1391.11 Q2292.44 1391.11 2290.61 1394.67 Q2288.8 1398.21 2288.8 1405.34 Q2288.8 1412.45 2290.61 1416.01 Q2292.44 1419.56 2296.05 1419.56 Q2299.68 1419.56 2301.49 1416.01 Q2303.32 1412.45 2303.32 1405.34 Q2303.32 1398.21 2301.49 1394.67 Q2299.68 1391.11 2296.05 1391.11 M2296.05 1387.4 Q2301.86 1387.4 2304.91 1392.01 Q2307.99 1396.59 2307.99 1405.34 Q2307.99 1414.07 2304.91 1418.68 Q2301.86 1423.26 2296.05 1423.26 Q2290.24 1423.26 2287.16 1418.68 Q2284.1 1414.07 2284.1 1405.34 Q2284.1 1396.59 2287.16 1392.01 Q2290.24 1387.4 2296.05 1387.4 Z" fill="#000000" fill-rule="evenodd" fill-opacity="1" /><path clip-path="url(#clip470)" d="M1784.44 1499.7 L1784.44 1518.61 L1778.56 1518.61 L1778.56 1469.4 L1784.44 1469.4 L1784.44 1474.81 Q1786.29 1471.63 1789.09 1470.1 Q1791.92 1468.54 1795.84 1468.54 Q1802.33 1468.54 1806.37 1473.7 Q1810.45 1478.86 1810.45 1487.26 Q1810.45 1495.66 1806.37 1500.82 Q1802.33 1505.97 1795.84 1505.97 Q1791.92 1505.97 1789.09 1504.45 Q1786.29 1502.89 1784.44 1499.7 M1804.37 1487.26 Q1804.37 1480.8 1801.69 1477.14 Q1799.05 1473.45 1794.41 1473.45 Q1789.76 1473.45 1787.09 1477.14 Q1784.44 1480.8 1784.44 1487.26 Q1784.44 1493.72 1787.09 1497.41 Q1789.76 1501.07 1794.41 1501.07 Q1799.05 1501.07 1801.69 1497.41 Q1804.37 1493.72 1804.37 1487.26 Z" fill="#000000" fill-rule="evenodd" fill-opacity="1" /><path clip-path="url(#clip470)" d="M1854.94 1455.59 Q1850.68 1462.91 1848.61 1470.07 Q1846.54 1477.23 1846.54 1484.59 Q1846.54 1491.94 1848.61 1499.16 Q1850.71 1506.36 1854.94 1513.65 L1849.85 1513.65 Q1845.08 1506.17 1842.69 1498.94 Q1840.33 1491.72 1840.33 1484.59 Q1840.33 1477.49 1842.69 1470.29 Q1845.05 1463.1 1849.85 1455.59 L1854.94 1455.59 Z" fill="#000000" fill-rule="evenodd" fill-opacity="1" /><path clip-path="url(#clip470)" d="M1866.08 1455.53 L1871.97 1455.53 L1871.97 1484.78 L1889.45 1469.4 L1896.93 1469.4 L1878.02 1486.08 L1897.72 1505.05 L1890.08 1505.05 L1871.97 1487.64 L1871.97 1505.05 L1866.08 1505.05 L1866.08 1455.53 Z" fill="#000000" fill-rule="evenodd" fill-opacity="1" /><path clip-path="url(#clip470)" d="M1910.74 1462.82 L1910.74 1480.67 L1918.82 1480.67 Q1923.31 1480.67 1925.76 1478.35 Q1928.21 1476.02 1928.21 1471.73 Q1928.21 1467.46 1925.76 1465.14 Q1923.31 1462.82 1918.82 1462.82 L1910.74 1462.82 M1904.31 1457.53 L1918.82 1457.53 Q1926.81 1457.53 1930.89 1461.16 Q1934.99 1464.76 1934.99 1471.73 Q1934.99 1478.76 1930.89 1482.36 Q1926.81 1485.95 1918.82 1485.95 L1910.74 1485.95 L1910.74 1505.05 L1904.31 1505.05 L1904.31 1457.53 Z" fill="#000000" fill-rule="evenodd" fill-opacity="1" /><path clip-path="url(#clip470)" d="M1956.64 1487.13 Q1949.54 1487.13 1946.8 1488.76 Q1944.06 1490.38 1944.06 1494.29 Q1944.06 1497.41 1946.1 1499.26 Q1948.17 1501.07 1951.7 1501.07 Q1956.57 1501.07 1959.5 1497.64 Q1962.46 1494.17 1962.46 1488.44 L1962.46 1487.13 L1956.64 1487.13 M1968.32 1484.71 L1968.32 1505.05 L1962.46 1505.05 L1962.46 1499.64 Q1960.46 1502.89 1957.46 1504.45 Q1954.47 1505.97 1950.14 1505.97 Q1944.67 1505.97 1941.42 1502.92 Q1938.21 1499.83 1938.21 1494.68 Q1938.21 1488.66 1942.22 1485.6 Q1946.26 1482.55 1954.25 1482.55 L1962.46 1482.55 L1962.46 1481.98 Q1962.46 1477.93 1959.79 1475.74 Q1957.15 1473.51 1952.34 1473.51 Q1949.28 1473.51 1946.39 1474.24 Q1943.49 1474.97 1940.82 1476.44 L1940.82 1471.03 Q1944.03 1469.79 1947.06 1469.18 Q1950.08 1468.54 1952.94 1468.54 Q1960.68 1468.54 1964.5 1472.55 Q1968.32 1476.57 1968.32 1484.71 Z" fill="#000000" fill-rule="evenodd" fill-opacity="1" /><path clip-path="url(#clip470)" d="M1979.46 1455.59 L1984.55 1455.59 Q1989.32 1463.1 1991.68 1470.29 Q1994.07 1477.49 1994.07 1484.59 Q1994.07 1491.72 1991.68 1498.94 Q1989.32 1506.17 1984.55 1513.65 L1979.46 1513.65 Q1983.69 1506.36 1985.76 1499.16 Q1987.86 1491.94 1987.86 1484.59 Q1987.86 1477.23 1985.76 1470.07 Q1983.69 1462.91 1979.46 1455.59 Z" fill="#000000" fill-rule="evenodd" fill-opacity="1" /><polyline clip-path="url(#clip473)" style="stroke:#000000; stroke-linecap:butt; stroke-linejoin:round; stroke-width:2; stroke-opacity:0.1; fill:none" points="
  1482.86,1326.97 2289.76,1326.97 
  "/>
<polyline clip-path="url(#clip473)" style="stroke:#000000; stroke-linecap:butt; stroke-linejoin:round; stroke-width:2; stroke-opacity:0.1; fill:none" points="
  1482.86,1050.15 2289.76,1050.15 
  "/>
<polyline clip-path="url(#clip473)" style="stroke:#000000; stroke-linecap:butt; stroke-linejoin:round; stroke-width:2; stroke-opacity:0.1; fill:none" points="
  1482.86,773.326 2289.76,773.326 
  "/>
<polyline clip-path="url(#clip473)" style="stroke:#000000; stroke-linecap:butt; stroke-linejoin:round; stroke-width:2; stroke-opacity:0.1; fill:none" points="
  1482.86,496.504 2289.76,496.504 
  "/>
<polyline clip-path="url(#clip473)" style="stroke:#000000; stroke-linecap:butt; stroke-linejoin:round; stroke-width:2; stroke-opacity:0.1; fill:none" points="
  1482.86,219.683 2289.76,219.683 
  "/>
<polyline clip-path="url(#clip470)" style="stroke:#000000; stroke-linecap:butt; stroke-linejoin:round; stroke-width:4; stroke-opacity:1; fill:none" points="
  1482.86,1360.19 1482.86,186.464 
  "/>
<polyline clip-path="url(#clip470)" style="stroke:#000000; stroke-linecap:butt; stroke-linejoin:round; stroke-width:4; stroke-opacity:1; fill:none" points="
  1482.86,1326.97 1501.76,1326.97 
  "/>
<polyline clip-path="url(#clip470)" style="stroke:#000000; stroke-linecap:butt; stroke-linejoin:round; stroke-width:4; stroke-opacity:1; fill:none" points="
  1482.86,1050.15 1501.76,1050.15 
  "/>
<polyline clip-path="url(#clip470)" style="stroke:#000000; stroke-linecap:butt; stroke-linejoin:round; stroke-width:4; stroke-opacity:1; fill:none" points="
  1482.86,773.326 1501.76,773.326 
  "/>
<polyline clip-path="url(#clip470)" style="stroke:#000000; stroke-linecap:butt; stroke-linejoin:round; stroke-width:4; stroke-opacity:1; fill:none" points="
  1482.86,496.504 1501.76,496.504 
  "/>
<polyline clip-path="url(#clip470)" style="stroke:#000000; stroke-linecap:butt; stroke-linejoin:round; stroke-width:4; stroke-opacity:1; fill:none" points="
  1482.86,219.683 1501.76,219.683 
  "/>
<path clip-path="url(#clip470)" d="M1389.68 1312.77 Q1386.07 1312.77 1384.24 1316.33 Q1382.44 1319.87 1382.44 1327 Q1382.44 1334.11 1384.24 1337.68 Q1386.07 1341.22 1389.68 1341.22 Q1393.32 1341.22 1395.12 1337.68 Q1396.95 1334.11 1396.95 1327 Q1396.95 1319.87 1395.12 1316.33 Q1393.32 1312.77 1389.68 1312.77 M1389.68 1309.06 Q1395.49 1309.06 1398.55 1313.67 Q1401.63 1318.25 1401.63 1327 Q1401.63 1335.73 1398.55 1340.34 Q1395.49 1344.92 1389.68 1344.92 Q1383.87 1344.92 1380.79 1340.34 Q1377.74 1335.73 1377.74 1327 Q1377.74 1318.25 1380.79 1313.67 Q1383.87 1309.06 1389.68 1309.06 Z" fill="#000000" fill-rule="evenodd" fill-opacity="1" /><path clip-path="url(#clip470)" d="M1409.84 1338.37 L1414.73 1338.37 L1414.73 1344.25 L1409.84 1344.25 L1409.84 1338.37 Z" fill="#000000" fill-rule="evenodd" fill-opacity="1" /><path clip-path="url(#clip470)" d="M1434.91 1312.77 Q1431.3 1312.77 1429.47 1316.33 Q1427.67 1319.87 1427.67 1327 Q1427.67 1334.11 1429.47 1337.68 Q1431.3 1341.22 1434.91 1341.22 Q1438.55 1341.22 1440.35 1337.68 Q1442.18 1334.11 1442.18 1327 Q1442.18 1319.87 1440.35 1316.33 Q1438.55 1312.77 1434.91 1312.77 M1434.91 1309.06 Q1440.72 1309.06 1443.78 1313.67 Q1446.86 1318.25 1446.86 1327 Q1446.86 1335.73 1443.78 1340.34 Q1440.72 1344.92 1434.91 1344.92 Q1429.1 1344.92 1426.03 1340.34 Q1422.97 1335.73 1422.97 1327 Q1422.97 1318.25 1426.03 1313.67 Q1429.1 1309.06 1434.91 1309.06 Z" fill="#000000" fill-rule="evenodd" fill-opacity="1" /><path clip-path="url(#clip470)" d="M1390.91 1035.95 Q1387.3 1035.95 1385.47 1039.51 Q1383.66 1043.05 1383.66 1050.18 Q1383.66 1057.29 1385.47 1060.85 Q1387.3 1064.4 1390.91 1064.4 Q1394.54 1064.4 1396.35 1060.85 Q1398.18 1057.29 1398.18 1050.18 Q1398.18 1043.05 1396.35 1039.51 Q1394.54 1035.95 1390.91 1035.95 M1390.91 1032.24 Q1396.72 1032.24 1399.78 1036.85 Q1402.85 1041.43 1402.85 1050.18 Q1402.85 1058.91 1399.78 1063.52 Q1396.72 1068.1 1390.91 1068.1 Q1385.1 1068.1 1382.02 1063.52 Q1378.97 1058.91 1378.97 1050.18 Q1378.97 1041.43 1382.02 1036.85 Q1385.1 1032.24 1390.91 1032.24 Z" fill="#000000" fill-rule="evenodd" fill-opacity="1" /><path clip-path="url(#clip470)" d="M1411.07 1061.55 L1415.96 1061.55 L1415.96 1067.43 L1411.07 1067.43 L1411.07 1061.55 Z" fill="#000000" fill-rule="evenodd" fill-opacity="1" /><path clip-path="url(#clip470)" d="M1426.95 1063.49 L1434.59 1063.49 L1434.59 1037.13 L1426.28 1038.79 L1426.28 1034.53 L1434.54 1032.87 L1439.22 1032.87 L1439.22 1063.49 L1446.86 1063.49 L1446.86 1067.43 L1426.95 1067.43 L1426.95 1063.49 Z" fill="#000000" fill-rule="evenodd" fill-opacity="1" /><path clip-path="url(#clip470)" d="M1391.28 759.125 Q1387.67 759.125 1385.84 762.689 Q1384.03 766.231 1384.03 773.361 Q1384.03 780.467 1385.84 784.032 Q1387.67 787.574 1391.28 787.574 Q1394.91 787.574 1396.72 784.032 Q1398.55 780.467 1398.55 773.361 Q1398.55 766.231 1396.72 762.689 Q1394.91 759.125 1391.28 759.125 M1391.28 755.421 Q1397.09 755.421 1400.15 760.027 Q1403.22 764.611 1403.22 773.361 Q1403.22 782.088 1400.15 786.694 Q1397.09 791.277 1391.28 791.277 Q1385.47 791.277 1382.39 786.694 Q1379.34 782.088 1379.34 773.361 Q1379.34 764.611 1382.39 760.027 Q1385.47 755.421 1391.28 755.421 Z" fill="#000000" fill-rule="evenodd" fill-opacity="1" /><path clip-path="url(#clip470)" d="M1411.44 784.726 L1416.33 784.726 L1416.33 790.606 L1411.44 790.606 L1411.44 784.726 Z" fill="#000000" fill-rule="evenodd" fill-opacity="1" /><path clip-path="url(#clip470)" d="M1430.54 786.671 L1446.86 786.671 L1446.86 790.606 L1424.91 790.606 L1424.91 786.671 Q1427.58 783.916 1432.16 779.287 Q1436.77 774.634 1437.95 773.291 Q1440.19 770.768 1441.07 769.032 Q1441.97 767.273 1441.97 765.583 Q1441.97 762.828 1440.03 761.092 Q1438.11 759.356 1435.01 759.356 Q1432.81 759.356 1430.35 760.12 Q1427.92 760.884 1425.15 762.435 L1425.15 757.713 Q1427.97 756.578 1430.42 756 Q1432.88 755.421 1434.91 755.421 Q1440.28 755.421 1443.48 758.106 Q1446.67 760.791 1446.67 765.282 Q1446.67 767.412 1445.86 769.333 Q1445.08 771.231 1442.97 773.824 Q1442.39 774.495 1439.29 777.713 Q1436.19 780.907 1430.54 786.671 Z" fill="#000000" fill-rule="evenodd" fill-opacity="1" /><path clip-path="url(#clip470)" d="M1390.33 482.303 Q1386.72 482.303 1384.89 485.868 Q1383.09 489.41 1383.09 496.539 Q1383.09 503.646 1384.89 507.21 Q1386.72 510.752 1390.33 510.752 Q1393.97 510.752 1395.77 507.21 Q1397.6 503.646 1397.6 496.539 Q1397.6 489.41 1395.77 485.868 Q1393.97 482.303 1390.33 482.303 M1390.33 478.599 Q1396.14 478.599 1399.2 483.206 Q1402.28 487.789 1402.28 496.539 Q1402.28 505.266 1399.2 509.872 Q1396.14 514.456 1390.33 514.456 Q1384.52 514.456 1381.44 509.872 Q1378.39 505.266 1378.39 496.539 Q1378.39 487.789 1381.44 483.206 Q1384.52 478.599 1390.33 478.599 Z" fill="#000000" fill-rule="evenodd" fill-opacity="1" /><path clip-path="url(#clip470)" d="M1410.49 507.905 L1415.38 507.905 L1415.38 513.784 L1410.49 513.784 L1410.49 507.905 Z" fill="#000000" fill-rule="evenodd" fill-opacity="1" /><path clip-path="url(#clip470)" d="M1439.73 495.15 Q1443.09 495.868 1444.96 498.136 Q1446.86 500.405 1446.86 503.738 Q1446.86 508.854 1443.34 511.655 Q1439.82 514.456 1433.34 514.456 Q1431.16 514.456 1428.85 514.016 Q1426.56 513.599 1424.1 512.743 L1424.1 508.229 Q1426.05 509.363 1428.36 509.942 Q1430.68 510.521 1433.2 510.521 Q1437.6 510.521 1439.89 508.784 Q1442.21 507.048 1442.21 503.738 Q1442.21 500.683 1440.05 498.97 Q1437.92 497.234 1434.1 497.234 L1430.08 497.234 L1430.08 493.391 L1434.29 493.391 Q1437.74 493.391 1439.57 492.025 Q1441.4 490.636 1441.4 488.044 Q1441.4 485.382 1439.5 483.97 Q1437.62 482.535 1434.1 482.535 Q1432.18 482.535 1429.98 482.951 Q1427.78 483.368 1425.15 484.248 L1425.15 480.081 Q1427.81 479.34 1430.12 478.97 Q1432.46 478.599 1434.52 478.599 Q1439.84 478.599 1442.95 481.03 Q1446.05 483.437 1446.05 487.558 Q1446.05 490.428 1444.4 492.419 Q1442.76 494.386 1439.73 495.15 Z" fill="#000000" fill-rule="evenodd" fill-opacity="1" /><path clip-path="url(#clip470)" d="M1389.2 205.482 Q1385.59 205.482 1383.76 209.046 Q1381.95 212.588 1381.95 219.718 Q1381.95 226.824 1383.76 230.389 Q1385.59 233.93 1389.2 233.93 Q1392.83 233.93 1394.64 230.389 Q1396.47 226.824 1396.47 219.718 Q1396.47 212.588 1394.64 209.046 Q1392.83 205.482 1389.2 205.482 M1389.2 201.778 Q1395.01 201.778 1398.06 206.384 Q1401.14 210.968 1401.14 219.718 Q1401.14 228.444 1398.06 233.051 Q1395.01 237.634 1389.2 237.634 Q1383.39 237.634 1380.31 233.051 Q1377.25 228.444 1377.25 219.718 Q1377.25 210.968 1380.31 206.384 Q1383.39 201.778 1389.2 201.778 Z" fill="#000000" fill-rule="evenodd" fill-opacity="1" /><path clip-path="url(#clip470)" d="M1409.36 231.083 L1414.24 231.083 L1414.24 236.963 L1409.36 236.963 L1409.36 231.083 Z" fill="#000000" fill-rule="evenodd" fill-opacity="1" /><path clip-path="url(#clip470)" d="M1437.28 206.477 L1425.47 224.926 L1437.28 224.926 L1437.28 206.477 M1436.05 202.403 L1441.93 202.403 L1441.93 224.926 L1446.86 224.926 L1446.86 228.815 L1441.93 228.815 L1441.93 236.963 L1437.28 236.963 L1437.28 228.815 L1421.67 228.815 L1421.67 224.301 L1436.05 202.403 Z" fill="#000000" fill-rule="evenodd" fill-opacity="1" /><path clip-path="url(#clip470)" d="M1291.35 871.851 L1291.35 844.033 L1296.7 844.033 L1322.32 866.058 L1322.32 844.033 L1327 844.033 L1327 872.647 L1321.65 872.647 L1296.03 850.622 L1296.03 871.851 L1291.35 871.851 Z" fill="#000000" fill-rule="evenodd" fill-opacity="1" /><path clip-path="url(#clip470)" d="M1277.53 800.301 Q1284.86 804.566 1292.02 806.635 Q1299.18 808.703 1306.53 808.703 Q1313.88 808.703 1321.11 806.635 Q1328.3 804.534 1335.59 800.301 L1335.59 805.393 Q1328.11 810.168 1320.89 812.555 Q1313.66 814.91 1306.53 814.91 Q1299.43 814.91 1292.24 812.555 Q1285.05 810.199 1277.53 805.393 L1277.53 800.301 Z" fill="#000000" fill-rule="evenodd" fill-opacity="1" /><path clip-path="url(#clip470)" d="M1277.47 789.161 L1277.47 783.272 L1306.72 783.272 L1291.35 765.799 L1291.35 758.319 L1308.03 777.225 L1327 757.523 L1327 765.162 L1309.59 783.272 L1327 783.272 L1327 789.161 L1277.47 789.161 Z" fill="#000000" fill-rule="evenodd" fill-opacity="1" /><path clip-path="url(#clip470)" d="M1298.19 723.435 Q1294.24 721.239 1292.37 718.183 Q1290.49 715.128 1290.49 710.99 Q1290.49 705.42 1294.4 702.396 Q1298.29 699.372 1305.48 699.372 L1327 699.372 L1327 705.261 L1305.67 705.261 Q1300.55 705.261 1298.06 707.075 Q1295.58 708.889 1295.58 712.613 Q1295.58 717.165 1298.61 719.806 Q1301.63 722.448 1306.85 722.448 L1327 722.448 L1327 728.336 L1305.67 728.336 Q1300.51 728.336 1298.06 730.151 Q1295.58 731.965 1295.58 735.752 Q1295.58 740.24 1298.64 742.882 Q1301.66 745.524 1306.85 745.524 L1327 745.524 L1327 751.412 L1291.35 751.412 L1291.35 745.524 L1296.89 745.524 Q1293.61 743.519 1292.05 740.718 Q1290.49 737.917 1290.49 734.065 Q1290.49 730.182 1292.46 727.477 Q1294.44 724.74 1298.19 723.435 Z" fill="#000000" fill-rule="evenodd" fill-opacity="1" /><path clip-path="url(#clip470)" d="M1277.53 688.614 L1277.53 683.522 Q1285.05 678.747 1292.24 676.392 Q1299.43 674.005 1306.53 674.005 Q1313.66 674.005 1320.89 676.392 Q1328.11 678.747 1335.59 683.522 L1335.59 688.614 Q1328.3 684.381 1321.11 682.312 Q1313.88 680.212 1306.53 680.212 Q1299.18 680.212 1292.02 682.312 Q1284.86 684.381 1277.53 688.614 Z" fill="#000000" fill-rule="evenodd" fill-opacity="1" /><path clip-path="url(#clip470)" d="M1756.66 65.7705 L1756.66 89.8329 L1749.17 89.8329 L1749.17 27.2059 L1756.66 27.2059 L1756.66 34.0924 Q1759.01 30.0415 1762.58 28.0971 Q1766.18 26.1121 1771.16 26.1121 Q1779.43 26.1121 1784.57 32.6746 Q1789.76 39.2371 1789.76 49.9314 Q1789.76 60.6258 1784.57 67.1883 Q1779.43 73.7508 1771.16 73.7508 Q1766.18 73.7508 1762.58 71.8063 Q1759.01 69.8214 1756.66 65.7705 M1782.02 49.9314 Q1782.02 41.7081 1778.62 37.0496 Q1775.26 32.3505 1769.34 32.3505 Q1763.43 32.3505 1760.02 37.0496 Q1756.66 41.7081 1756.66 49.9314 Q1756.66 58.1548 1760.02 62.8538 Q1763.43 67.5124 1769.34 67.5124 Q1775.26 67.5124 1778.62 62.8538 Q1782.02 58.1548 1782.02 49.9314 Z" fill="#000000" fill-rule="evenodd" fill-opacity="1" /><path clip-path="url(#clip470)" d="M1846.39 9.62495 Q1840.96 18.942 1838.33 28.0566 Q1835.7 37.1711 1835.7 46.5287 Q1835.7 55.8863 1838.33 65.0818 Q1841 74.2369 1846.39 83.5134 L1839.91 83.5134 Q1833.83 73.9938 1830.79 64.7983 Q1827.8 55.6027 1827.8 46.5287 Q1827.8 37.4952 1830.79 28.3401 Q1833.79 19.1851 1839.91 9.62495 L1846.39 9.62495 Z" fill="#000000" fill-rule="evenodd" fill-opacity="1" /><path clip-path="url(#clip470)" d="M1860.57 9.54393 L1868.06 9.54393 L1868.06 46.7717 L1890.3 27.2059 L1899.82 27.2059 L1875.76 48.4326 L1900.83 72.576 L1891.11 72.576 L1868.06 50.4176 L1868.06 72.576 L1860.57 72.576 L1860.57 9.54393 Z" fill="#000000" fill-rule="evenodd" fill-opacity="1" /><path clip-path="url(#clip470)" d="M1917.4 18.8205 L1917.4 41.5461 L1927.69 41.5461 Q1933.4 41.5461 1936.52 38.5889 Q1939.64 35.6318 1939.64 30.163 Q1939.64 24.7348 1936.52 21.7777 Q1933.4 18.8205 1927.69 18.8205 L1917.4 18.8205 M1909.22 12.096 L1927.69 12.096 Q1937.86 12.096 1943.04 16.714 Q1948.27 21.2916 1948.27 30.163 Q1948.27 39.1155 1943.04 43.6931 Q1937.86 48.2706 1927.69 48.2706 L1917.4 48.2706 L1917.4 72.576 L1909.22 72.576 L1909.22 12.096 Z" fill="#000000" fill-rule="evenodd" fill-opacity="1" /><path clip-path="url(#clip470)" d="M1975.82 49.7694 Q1966.78 49.7694 1963.3 51.8354 Q1959.81 53.9013 1959.81 58.8839 Q1959.81 62.8538 1962.41 65.2034 Q1965.04 67.5124 1969.54 67.5124 Q1975.73 67.5124 1979.46 63.1374 Q1983.23 58.7219 1983.23 51.4303 L1983.23 49.7694 L1975.82 49.7694 M1990.68 46.6907 L1990.68 72.576 L1983.23 72.576 L1983.23 65.6895 Q1980.68 69.8214 1976.87 71.8063 Q1973.06 73.7508 1967.55 73.7508 Q1960.58 73.7508 1956.45 69.8619 Q1952.36 65.9325 1952.36 59.3701 Q1952.36 51.7138 1957.47 47.825 Q1962.61 43.9361 1972.78 43.9361 L1983.23 43.9361 L1983.23 43.2069 Q1983.23 38.0623 1979.83 35.2672 Q1976.46 32.4315 1970.35 32.4315 Q1966.46 32.4315 1962.77 33.3632 Q1959.09 34.295 1955.68 36.1584 L1955.68 29.2718 Q1959.77 27.692 1963.62 26.9223 Q1967.47 26.1121 1971.12 26.1121 Q1980.96 26.1121 1985.82 31.2163 Q1990.68 36.3204 1990.68 46.6907 Z" fill="#000000" fill-rule="evenodd" fill-opacity="1" /><path clip-path="url(#clip470)" d="M2004.86 9.62495 L2011.34 9.62495 Q2017.42 19.1851 2020.42 28.3401 Q2023.45 37.4952 2023.45 46.5287 Q2023.45 55.6027 2020.42 64.7983 Q2017.42 73.9938 2011.34 83.5134 L2004.86 83.5134 Q2010.25 74.2369 2012.88 65.0818 Q2015.56 55.8863 2015.56 46.5287 Q2015.56 37.1711 2012.88 28.0566 Q2010.25 18.942 2004.86 9.62495 Z" fill="#000000" fill-rule="evenodd" fill-opacity="1" /><polyline clip-path="url(#clip473)" style="stroke:#009af9; stroke-linecap:butt; stroke-linejoin:round; stroke-width:4; stroke-opacity:1; fill:none" points="
  2218.52,1257.76 2122.04,1119.35 2026,980.942 1930.41,842.531 1835.26,704.121 1740.55,565.71 1646.28,427.299 1552.45,288.888 
  "/>
<polyline clip-path="url(#clip473)" style="stroke:#e26f46; stroke-linecap:butt; stroke-linejoin:round; stroke-width:4; stroke-opacity:1; fill:none" points="
  2266.93,1326.97 2170.22,1188.56 2073.96,1050.15 1978.15,911.737 1882.78,773.326 1787.85,634.915 1693.36,496.504 1599.31,358.094 1505.7,219.683 
  "/>
<path clip-path="url(#clip470)" d="
M2000.92 381.108 L2262.87 381.108 L2262.87 225.588 L2000.92 225.588  Z
  " fill="#ffffff" fill-rule="evenodd" fill-opacity="1"/>
<polyline clip-path="url(#clip470)" style="stroke:#000000; stroke-linecap:butt; stroke-linejoin:round; stroke-width:4; stroke-opacity:1; fill:none" points="
  2000.92,381.108 2262.87,381.108 2262.87,225.588 2000.92,225.588 2000.92,381.108 
  "/>
<polyline clip-path="url(#clip470)" style="stroke:#009af9; stroke-linecap:butt; stroke-linejoin:round; stroke-width:4; stroke-opacity:1; fill:none" points="
  2009.89,277.428 2063.68,277.428 
  "/>
<path clip-path="url(#clip470)" d="M2093.15 269.778 L2093.15 273.759 Q2091.35 272.764 2089.52 272.278 Q2087.71 271.769 2085.86 271.769 Q2081.72 271.769 2079.43 274.408 Q2077.14 277.023 2077.14 281.769 Q2077.14 286.514 2079.43 289.153 Q2081.72 291.769 2085.86 291.769 Q2087.71 291.769 2089.52 291.282 Q2091.35 290.773 2093.15 289.778 L2093.15 293.713 Q2091.37 294.546 2089.45 294.963 Q2087.55 295.38 2085.4 295.38 Q2079.54 295.38 2076.09 291.699 Q2072.64 288.019 2072.64 281.769 Q2072.64 275.426 2076.12 271.792 Q2079.61 268.158 2085.68 268.158 Q2087.64 268.158 2089.52 268.574 Q2091.39 268.968 2093.15 269.778 Z" fill="#000000" fill-rule="evenodd" fill-opacity="1" /><path clip-path="url(#clip470)" d="M2122.74 280.681 L2122.74 282.764 L2103.15 282.764 Q2103.43 287.162 2105.79 289.477 Q2108.18 291.769 2112.41 291.769 Q2114.87 291.769 2117.16 291.167 Q2119.47 290.565 2121.74 289.361 L2121.74 293.389 Q2119.45 294.361 2117.04 294.87 Q2114.64 295.38 2112.16 295.38 Q2105.95 295.38 2102.32 291.769 Q2098.71 288.157 2098.71 282 Q2098.71 275.634 2102.14 271.908 Q2105.58 268.158 2111.42 268.158 Q2116.65 268.158 2119.68 271.537 Q2122.74 274.894 2122.74 280.681 M2118.48 279.431 Q2118.43 275.935 2116.51 273.852 Q2114.61 271.769 2111.46 271.769 Q2107.9 271.769 2105.75 273.783 Q2103.62 275.796 2103.29 279.454 L2118.48 279.431 Z" fill="#000000" fill-rule="evenodd" fill-opacity="1" /><path clip-path="url(#clip470)" d="M2151.28 279.06 L2151.28 294.708 L2147.02 294.708 L2147.02 279.199 Q2147.02 275.519 2145.58 273.69 Q2144.15 271.861 2141.28 271.861 Q2137.83 271.861 2135.84 274.06 Q2133.85 276.259 2133.85 280.056 L2133.85 294.708 L2129.57 294.708 L2129.57 268.783 L2133.85 268.783 L2133.85 272.81 Q2135.38 270.472 2137.44 269.315 Q2139.52 268.158 2142.23 268.158 Q2146.7 268.158 2148.99 270.935 Q2151.28 273.69 2151.28 279.06 Z" fill="#000000" fill-rule="evenodd" fill-opacity="1" /><path clip-path="url(#clip470)" d="M2163.99 261.422 L2163.99 268.783 L2172.76 268.783 L2172.76 272.093 L2163.99 272.093 L2163.99 286.167 Q2163.99 289.338 2164.84 290.241 Q2165.72 291.144 2168.39 291.144 L2172.76 291.144 L2172.76 294.708 L2168.39 294.708 Q2163.45 294.708 2161.58 292.88 Q2159.7 291.028 2159.7 286.167 L2159.7 272.093 L2156.58 272.093 L2156.58 268.783 L2159.7 268.783 L2159.7 261.422 L2163.99 261.422 Z" fill="#000000" fill-rule="evenodd" fill-opacity="1" /><path clip-path="url(#clip470)" d="M2200.54 280.681 L2200.54 282.764 L2180.95 282.764 Q2181.23 287.162 2183.59 289.477 Q2185.98 291.769 2190.21 291.769 Q2192.67 291.769 2194.96 291.167 Q2197.27 290.565 2199.54 289.361 L2199.54 293.389 Q2197.25 294.361 2194.84 294.87 Q2192.44 295.38 2189.96 295.38 Q2183.76 295.38 2180.12 291.769 Q2176.51 288.157 2176.51 282 Q2176.51 275.634 2179.94 271.908 Q2183.39 268.158 2189.22 268.158 Q2194.45 268.158 2197.48 271.537 Q2200.54 274.894 2200.54 280.681 M2196.28 279.431 Q2196.23 275.935 2194.31 273.852 Q2192.41 271.769 2189.26 271.769 Q2185.7 271.769 2183.55 273.783 Q2181.42 275.796 2181.09 279.454 L2196.28 279.431 Z" fill="#000000" fill-rule="evenodd" fill-opacity="1" /><path clip-path="url(#clip470)" d="M2222.55 272.764 Q2221.83 272.347 2220.98 272.162 Q2220.14 271.954 2219.13 271.954 Q2215.51 271.954 2213.57 274.315 Q2211.65 276.653 2211.65 281.051 L2211.65 294.708 L2207.37 294.708 L2207.37 268.783 L2211.65 268.783 L2211.65 272.81 Q2212.99 270.449 2215.14 269.315 Q2217.3 268.158 2220.38 268.158 Q2220.82 268.158 2221.35 268.227 Q2221.88 268.273 2222.53 268.389 L2222.55 272.764 Z" fill="#000000" fill-rule="evenodd" fill-opacity="1" /><path clip-path="url(#clip470)" d="M2243.55 269.546 L2243.55 273.574 Q2241.74 272.648 2239.8 272.185 Q2237.85 271.722 2235.77 271.722 Q2232.6 271.722 2231 272.695 Q2229.43 273.667 2229.43 275.611 Q2229.43 277.093 2230.56 277.949 Q2231.7 278.783 2235.12 279.546 L2236.58 279.87 Q2241.12 280.843 2243.01 282.625 Q2244.94 284.384 2244.94 287.556 Q2244.94 291.167 2242.07 293.273 Q2239.22 295.38 2234.22 295.38 Q2232.13 295.38 2229.87 294.963 Q2227.62 294.569 2225.12 293.759 L2225.12 289.361 Q2227.48 290.588 2229.77 291.213 Q2232.07 291.815 2234.31 291.815 Q2237.32 291.815 2238.94 290.796 Q2240.56 289.755 2240.56 287.88 Q2240.56 286.144 2239.38 285.218 Q2238.22 284.292 2234.26 283.435 L2232.78 283.088 Q2228.82 282.255 2227.07 280.542 Q2225.31 278.806 2225.31 275.796 Q2225.31 272.139 2227.9 270.148 Q2230.49 268.158 2235.26 268.158 Q2237.62 268.158 2239.7 268.505 Q2241.79 268.852 2243.55 269.546 Z" fill="#000000" fill-rule="evenodd" fill-opacity="1" /><polyline clip-path="url(#clip470)" style="stroke:#e26f46; stroke-linecap:butt; stroke-linejoin:round; stroke-width:4; stroke-opacity:1; fill:none" points="
  2009.89,329.268 2063.68,329.268 
  "/>
<path clip-path="url(#clip470)" d="M2089.15 310.53 L2089.15 314.072 L2085.08 314.072 Q2082.78 314.072 2081.88 314.998 Q2081 315.924 2081 318.331 L2081 320.623 L2088.02 320.623 L2088.02 323.933 L2081 323.933 L2081 346.548 L2076.72 346.548 L2076.72 323.933 L2072.64 323.933 L2072.64 320.623 L2076.72 320.623 L2076.72 318.817 Q2076.72 314.488 2078.73 312.521 Q2080.75 310.53 2085.12 310.53 L2089.15 310.53 Z" fill="#000000" fill-rule="evenodd" fill-opacity="1" /><path clip-path="url(#clip470)" d="M2104.5 333.516 Q2099.33 333.516 2097.34 334.697 Q2095.35 335.877 2095.35 338.724 Q2095.35 340.993 2096.83 342.335 Q2098.34 343.655 2100.91 343.655 Q2104.45 343.655 2106.58 341.155 Q2108.73 338.632 2108.73 334.465 L2108.73 333.516 L2104.5 333.516 M2112.99 331.757 L2112.99 346.548 L2108.73 346.548 L2108.73 342.613 Q2107.27 344.974 2105.1 346.109 Q2102.92 347.22 2099.77 347.22 Q2095.79 347.22 2093.43 344.997 Q2091.09 342.752 2091.09 339.002 Q2091.09 334.627 2094.01 332.405 Q2096.95 330.183 2102.76 330.183 L2108.73 330.183 L2108.73 329.766 Q2108.73 326.826 2106.79 325.229 Q2104.87 323.609 2101.37 323.609 Q2099.15 323.609 2097.04 324.141 Q2094.94 324.673 2092.99 325.738 L2092.99 321.803 Q2095.33 320.9 2097.53 320.461 Q2099.73 319.998 2101.81 319.998 Q2107.44 319.998 2110.21 322.914 Q2112.99 325.831 2112.99 331.757 Z" fill="#000000" fill-rule="evenodd" fill-opacity="1" /><path clip-path="url(#clip470)" d="M2140.42 321.618 L2140.42 325.599 Q2138.62 324.604 2136.79 324.118 Q2134.98 323.609 2133.13 323.609 Q2128.99 323.609 2126.7 326.248 Q2124.4 328.863 2124.4 333.609 Q2124.4 338.354 2126.7 340.993 Q2128.99 343.609 2133.13 343.609 Q2134.98 343.609 2136.79 343.122 Q2138.62 342.613 2140.42 341.618 L2140.42 345.553 Q2138.64 346.386 2136.72 346.803 Q2134.82 347.22 2132.67 347.22 Q2126.81 347.22 2123.36 343.539 Q2119.91 339.859 2119.91 333.609 Q2119.91 327.266 2123.39 323.632 Q2126.88 319.998 2132.95 319.998 Q2134.91 319.998 2136.79 320.414 Q2138.66 320.808 2140.42 321.618 Z" fill="#000000" fill-rule="evenodd" fill-opacity="1" /><path clip-path="url(#clip470)" d="M2170.01 332.521 L2170.01 334.604 L2150.42 334.604 Q2150.7 339.002 2153.06 341.317 Q2155.45 343.609 2159.68 343.609 Q2162.14 343.609 2164.43 343.007 Q2166.74 342.405 2169.01 341.201 L2169.01 345.229 Q2166.72 346.201 2164.31 346.71 Q2161.9 347.22 2159.43 347.22 Q2153.22 347.22 2149.59 343.609 Q2145.98 339.997 2145.98 333.84 Q2145.98 327.474 2149.4 323.748 Q2152.85 319.998 2158.69 319.998 Q2163.92 319.998 2166.95 323.377 Q2170.01 326.734 2170.01 332.521 M2165.75 331.271 Q2165.7 327.775 2163.78 325.692 Q2161.88 323.609 2158.73 323.609 Q2155.17 323.609 2153.01 325.623 Q2150.89 327.636 2150.56 331.294 L2165.75 331.271 Z" fill="#000000" fill-rule="evenodd" fill-opacity="1" /><path clip-path="url(#clip470)" d="M2193.52 321.386 L2193.52 325.414 Q2191.72 324.488 2189.77 324.025 Q2187.83 323.562 2185.75 323.562 Q2182.57 323.562 2180.98 324.535 Q2179.4 325.507 2179.4 327.451 Q2179.4 328.933 2180.54 329.789 Q2181.67 330.623 2185.1 331.386 L2186.56 331.71 Q2191.09 332.683 2192.99 334.465 Q2194.91 336.224 2194.91 339.396 Q2194.91 343.007 2192.04 345.113 Q2189.2 347.22 2184.2 347.22 Q2182.11 347.22 2179.84 346.803 Q2177.6 346.409 2175.1 345.599 L2175.1 341.201 Q2177.46 342.428 2179.75 343.053 Q2182.04 343.655 2184.29 343.655 Q2187.3 343.655 2188.92 342.636 Q2190.54 341.595 2190.54 339.72 Q2190.54 337.984 2189.36 337.058 Q2188.2 336.132 2184.24 335.275 L2182.76 334.928 Q2178.8 334.095 2177.04 332.382 Q2175.28 330.646 2175.28 327.636 Q2175.28 323.979 2177.88 321.988 Q2180.47 319.998 2185.24 319.998 Q2187.6 319.998 2189.68 320.345 Q2191.76 320.692 2193.52 321.386 Z" fill="#000000" fill-rule="evenodd" fill-opacity="1" /></svg>
