<?xml version="1.0" encoding="utf-8"?>
<svg xmlns="http://www.w3.org/2000/svg" xmlns:xlink="http://www.w3.org/1999/xlink" width="600" height="400" viewBox="0 0 2400 1600">
<defs>
  <clipPath id="clip530">
    <rect x="0" y="0" width="2400" height="1600"/>
  </clipPath>
</defs>
<path clip-path="url(#clip530)" d="
M0 1600 L2400 1600 L2400 0 L0 0  Z
  " fill="#ffffff" fill-rule="evenodd" fill-opacity="1"/>
<defs>
  <clipPath id="clip531">
    <rect x="480" y="0" width="1681" height="1600"/>
  </clipPath>
</defs>
<path clip-path="url(#clip530)" d="
M265.22 1360.19 L1089.76 1360.19 L1089.76 186.464 L265.22 186.464  Z
  " fill="#ffffff" fill-rule="evenodd" fill-opacity="1"/>
<defs>
  <clipPath id="clip532">
    <rect x="265" y="186" width="826" height="1175"/>
  </clipPath>
</defs>
<polyline clip-path="url(#clip532)" style="stroke:#000000; stroke-linecap:butt; stroke-linejoin:round; stroke-width:2; stroke-opacity:0.1; fill:none" points="
  297.046,1360.19 297.046,186.464 
  "/>
<polyline clip-path="url(#clip532)" style="stroke:#000000; stroke-linecap:butt; stroke-linejoin:round; stroke-width:2; stroke-opacity:0.1; fill:none" points="
  458.851,1360.19 458.851,186.464 
  "/>
<polyline clip-path="url(#clip532)" style="stroke:#000000; stroke-linecap:butt; stroke-linejoin:round; stroke-width:2; stroke-opacity:0.1; fill:none" points="
  620.656,1360.19 620.656,186.464 
  "/>
<polyline clip-path="url(#clip532)" style="stroke:#000000; stroke-linecap:butt; stroke-linejoin:round; stroke-width:2; stroke-opacity:0.1; fill:none" points="
  782.461,1360.19 782.461,186.464 
  "/>
<polyline clip-path="url(#clip532)" style="stroke:#000000; stroke-linecap:butt; stroke-linejoin:round; stroke-width:2; stroke-opacity:0.1; fill:none" points="
  944.266,1360.19 944.266,186.464 
  "/>
<polyline clip-path="url(#clip530)" style="stroke:#000000; stroke-linecap:butt; stroke-linejoin:round; stroke-width:4; stroke-opacity:1; fill:none" points="
  265.22,1360.19 1089.76,1360.19 
  "/>
<polyline clip-path="url(#clip530)" style="stroke:#000000; stroke-linecap:butt; stroke-linejoin:round; stroke-width:4; stroke-opacity:1; fill:none" points="
  297.046,1360.19 297.046,1341.29 
  "/>
<polyline clip-path="url(#clip530)" style="stroke:#000000; stroke-linecap:butt; stroke-linejoin:round; stroke-width:4; stroke-opacity:1; fill:none" points="
  458.851,1360.19 458.851,1341.29 
  "/>
<polyline clip-path="url(#clip530)" style="stroke:#000000; stroke-linecap:butt; stroke-linejoin:round; stroke-width:4; stroke-opacity:1; fill:none" points="
  620.656,1360.19 620.656,1341.29 
  "/>
<polyline clip-path="url(#clip530)" style="stroke:#000000; stroke-linecap:butt; stroke-linejoin:round; stroke-width:4; stroke-opacity:1; fill:none" points="
  782.461,1360.19 782.461,1341.29 
  "/>
<polyline clip-path="url(#clip530)" style="stroke:#000000; stroke-linecap:butt; stroke-linejoin:round; stroke-width:4; stroke-opacity:1; fill:none" points="
  944.266,1360.19 944.266,1341.29 
  "/>
<path clip-path="url(#clip530)" d="M275.229 1391.11 Q271.618 1391.11 269.789 1394.67 Q267.983 1398.21 267.983 1405.34 Q267.983 1412.45 269.789 1416.01 Q271.618 1419.56 275.229 1419.56 Q278.863 1419.56 280.668 1416.01 Q282.497 1412.45 282.497 1405.34 Q282.497 1398.21 280.668 1394.67 Q278.863 1391.11 275.229 1391.11 M275.229 1387.4 Q281.039 1387.4 284.094 1392.01 Q287.173 1396.59 287.173 1405.34 Q287.173 1414.07 284.094 1418.68 Q281.039 1423.26 275.229 1423.26 Q269.418 1423.26 266.34 1418.68 Q263.284 1414.07 263.284 1405.34 Q263.284 1396.59 266.34 1392.01 Q269.418 1387.4 275.229 1387.4 Z" fill="#000000" fill-rule="evenodd" fill-opacity="1" /><path clip-path="url(#clip530)" d="M295.391 1416.71 L300.275 1416.71 L300.275 1422.59 L295.391 1422.59 L295.391 1416.71 Z" fill="#000000" fill-rule="evenodd" fill-opacity="1" /><path clip-path="url(#clip530)" d="M314.488 1418.65 L330.807 1418.65 L330.807 1422.59 L308.863 1422.59 L308.863 1418.65 Q311.525 1415.9 316.108 1411.27 Q320.715 1406.62 321.895 1405.27 Q324.14 1402.75 325.02 1401.01 Q325.923 1399.25 325.923 1397.56 Q325.923 1394.81 323.978 1393.07 Q322.057 1391.34 318.955 1391.34 Q316.756 1391.34 314.303 1392.1 Q311.872 1392.87 309.094 1394.42 L309.094 1389.69 Q311.918 1388.56 314.372 1387.98 Q316.826 1387.4 318.863 1387.4 Q324.233 1387.4 327.427 1390.09 Q330.622 1392.77 330.622 1397.26 Q330.622 1399.39 329.812 1401.31 Q329.025 1403.21 326.918 1405.81 Q326.339 1406.48 323.238 1409.69 Q320.136 1412.89 314.488 1418.65 Z" fill="#000000" fill-rule="evenodd" fill-opacity="1" /><path clip-path="url(#clip530)" d="M435.992 1391.11 Q432.381 1391.11 430.552 1394.67 Q428.747 1398.21 428.747 1405.34 Q428.747 1412.45 430.552 1416.01 Q432.381 1419.56 435.992 1419.56 Q439.626 1419.56 441.432 1416.01 Q443.261 1412.45 443.261 1405.34 Q443.261 1398.21 441.432 1394.67 Q439.626 1391.11 435.992 1391.11 M435.992 1387.4 Q441.802 1387.4 444.858 1392.01 Q447.936 1396.59 447.936 1405.34 Q447.936 1414.07 444.858 1418.68 Q441.802 1423.26 435.992 1423.26 Q430.182 1423.26 427.103 1418.68 Q424.048 1414.07 424.048 1405.34 Q424.048 1396.59 427.103 1392.01 Q430.182 1387.4 435.992 1387.4 Z" fill="#000000" fill-rule="evenodd" fill-opacity="1" /><path clip-path="url(#clip530)" d="M456.154 1416.71 L461.038 1416.71 L461.038 1422.59 L456.154 1422.59 L456.154 1416.71 Z" fill="#000000" fill-rule="evenodd" fill-opacity="1" /><path clip-path="url(#clip530)" d="M484.07 1392.1 L472.265 1410.55 L484.07 1410.55 L484.07 1392.1 M482.844 1388.03 L488.723 1388.03 L488.723 1410.55 L493.654 1410.55 L493.654 1414.44 L488.723 1414.44 L488.723 1422.59 L484.07 1422.59 L484.07 1414.44 L468.469 1414.44 L468.469 1409.93 L482.844 1388.03 Z" fill="#000000" fill-rule="evenodd" fill-opacity="1" /><path clip-path="url(#clip530)" d="M597.959 1391.11 Q594.348 1391.11 592.519 1394.67 Q590.714 1398.21 590.714 1405.34 Q590.714 1412.45 592.519 1416.01 Q594.348 1419.56 597.959 1419.56 Q601.593 1419.56 603.399 1416.01 Q605.228 1412.45 605.228 1405.34 Q605.228 1398.21 603.399 1394.67 Q601.593 1391.11 597.959 1391.11 M597.959 1387.4 Q603.769 1387.4 606.825 1392.01 Q609.904 1396.59 609.904 1405.34 Q609.904 1414.07 606.825 1418.68 Q603.769 1423.26 597.959 1423.26 Q592.149 1423.26 589.07 1418.68 Q586.015 1414.07 586.015 1405.34 Q586.015 1396.59 589.07 1392.01 Q592.149 1387.4 597.959 1387.4 Z" fill="#000000" fill-rule="evenodd" fill-opacity="1" /><path clip-path="url(#clip530)" d="M618.121 1416.71 L623.005 1416.71 L623.005 1422.59 L618.121 1422.59 L618.121 1416.71 Z" fill="#000000" fill-rule="evenodd" fill-opacity="1" /><path clip-path="url(#clip530)" d="M643.769 1403.44 Q640.621 1403.44 638.769 1405.6 Q636.94 1407.75 636.94 1411.5 Q636.94 1415.23 638.769 1417.4 Q640.621 1419.56 643.769 1419.56 Q646.917 1419.56 648.746 1417.4 Q650.598 1415.23 650.598 1411.5 Q650.598 1407.75 648.746 1405.6 Q646.917 1403.44 643.769 1403.44 M653.051 1388.79 L653.051 1393.05 Q651.292 1392.22 649.487 1391.78 Q647.704 1391.34 645.945 1391.34 Q641.315 1391.34 638.862 1394.46 Q636.431 1397.59 636.084 1403.91 Q637.45 1401.89 639.51 1400.83 Q641.57 1399.74 644.047 1399.74 Q649.255 1399.74 652.264 1402.91 Q655.297 1406.06 655.297 1411.5 Q655.297 1416.82 652.149 1420.04 Q649.001 1423.26 643.769 1423.26 Q637.774 1423.26 634.602 1418.68 Q631.431 1414.07 631.431 1405.34 Q631.431 1397.15 635.32 1392.29 Q639.209 1387.4 645.76 1387.4 Q647.519 1387.4 649.301 1387.75 Q651.107 1388.1 653.051 1388.79 Z" fill="#000000" fill-rule="evenodd" fill-opacity="1" /><path clip-path="url(#clip530)" d="M759.892 1391.11 Q756.28 1391.11 754.452 1394.67 Q752.646 1398.21 752.646 1405.34 Q752.646 1412.45 754.452 1416.01 Q756.28 1419.56 759.892 1419.56 Q763.526 1419.56 765.331 1416.01 Q767.16 1412.45 767.16 1405.34 Q767.16 1398.21 765.331 1394.67 Q763.526 1391.11 759.892 1391.11 M759.892 1387.4 Q765.702 1387.4 768.757 1392.01 Q771.836 1396.59 771.836 1405.34 Q771.836 1414.07 768.757 1418.68 Q765.702 1423.26 759.892 1423.26 Q754.081 1423.26 751.003 1418.68 Q747.947 1414.07 747.947 1405.34 Q747.947 1396.59 751.003 1392.01 Q754.081 1387.4 759.892 1387.4 Z" fill="#000000" fill-rule="evenodd" fill-opacity="1" /><path clip-path="url(#clip530)" d="M780.053 1416.71 L784.938 1416.71 L784.938 1422.59 L780.053 1422.59 L780.053 1416.71 Z" fill="#000000" fill-rule="evenodd" fill-opacity="1" /><path clip-path="url(#clip530)" d="M805.123 1406.18 Q801.789 1406.18 799.868 1407.96 Q797.97 1409.74 797.97 1412.87 Q797.97 1415.99 799.868 1417.77 Q801.789 1419.56 805.123 1419.56 Q808.456 1419.56 810.377 1417.77 Q812.299 1415.97 812.299 1412.87 Q812.299 1409.74 810.377 1407.96 Q808.479 1406.18 805.123 1406.18 M800.447 1404.19 Q797.438 1403.44 795.748 1401.38 Q794.081 1399.32 794.081 1396.36 Q794.081 1392.22 797.021 1389.81 Q799.984 1387.4 805.123 1387.4 Q810.285 1387.4 813.225 1389.81 Q816.164 1392.22 816.164 1396.36 Q816.164 1399.32 814.475 1401.38 Q812.808 1403.44 809.822 1404.19 Q813.201 1404.97 815.076 1407.26 Q816.975 1409.56 816.975 1412.87 Q816.975 1417.89 813.896 1420.57 Q810.84 1423.26 805.123 1423.26 Q799.405 1423.26 796.327 1420.57 Q793.271 1417.89 793.271 1412.87 Q793.271 1409.56 795.169 1407.26 Q797.067 1404.97 800.447 1404.19 M798.734 1396.8 Q798.734 1399.49 800.401 1400.99 Q802.09 1402.5 805.123 1402.5 Q808.132 1402.5 809.822 1400.99 Q811.535 1399.49 811.535 1396.8 Q811.535 1394.12 809.822 1392.61 Q808.132 1391.11 805.123 1391.11 Q802.09 1391.11 800.401 1392.61 Q798.734 1394.12 798.734 1396.8 Z" fill="#000000" fill-rule="evenodd" fill-opacity="1" /><path clip-path="url(#clip530)" d="M911.419 1418.65 L919.058 1418.65 L919.058 1392.29 L910.748 1393.95 L910.748 1389.69 L919.011 1388.03 L923.687 1388.03 L923.687 1418.65 L931.326 1418.65 L931.326 1422.59 L911.419 1422.59 L911.419 1418.65 Z" fill="#000000" fill-rule="evenodd" fill-opacity="1" /><path clip-path="url(#clip530)" d="M940.771 1416.71 L945.655 1416.71 L945.655 1422.59 L940.771 1422.59 L940.771 1416.71 Z" fill="#000000" fill-rule="evenodd" fill-opacity="1" /><path clip-path="url(#clip530)" d="M965.84 1391.11 Q962.229 1391.11 960.4 1394.67 Q958.595 1398.21 958.595 1405.34 Q958.595 1412.45 960.4 1416.01 Q962.229 1419.56 965.84 1419.56 Q969.474 1419.56 971.28 1416.01 Q973.108 1412.45 973.108 1405.34 Q973.108 1398.21 971.28 1394.67 Q969.474 1391.11 965.84 1391.11 M965.84 1387.4 Q971.65 1387.4 974.706 1392.01 Q977.784 1396.59 977.784 1405.34 Q977.784 1414.07 974.706 1418.68 Q971.65 1423.26 965.84 1423.26 Q960.03 1423.26 956.951 1418.68 Q953.896 1414.07 953.896 1405.34 Q953.896 1396.59 956.951 1392.01 Q960.03 1387.4 965.84 1387.4 Z" fill="#000000" fill-rule="evenodd" fill-opacity="1" /><path clip-path="url(#clip530)" d="M664.41 1475.77 Q666.352 1472.52 671.158 1469.66 Q673.036 1468.54 678.828 1468.54 Q685.322 1468.54 689.364 1473.7 Q693.438 1478.86 693.438 1487.26 Q693.438 1495.66 689.364 1500.82 Q685.322 1505.97 678.828 1505.97 Q674.914 1505.97 672.081 1504.45 Q669.28 1502.89 667.434 1499.7 L667.434 1518.61 L661.546 1518.61 L661.546 1487.58 Q661.546 1480.23 664.41 1475.77 M687.359 1487.26 Q687.359 1480.8 684.685 1477.14 Q682.043 1473.45 677.396 1473.45 Q672.749 1473.45 670.076 1477.14 Q667.434 1480.8 667.434 1487.26 Q667.434 1493.72 670.076 1497.41 Q672.749 1501.07 677.396 1501.07 Q682.043 1501.07 684.685 1497.41 Q687.359 1493.72 687.359 1487.26 Z" fill="#000000" fill-rule="evenodd" fill-opacity="1" /><polyline clip-path="url(#clip532)" style="stroke:#000000; stroke-linecap:butt; stroke-linejoin:round; stroke-width:2; stroke-opacity:0.1; fill:none" points="
  265.22,1326.97 1089.76,1326.97 
  "/>
<polyline clip-path="url(#clip532)" style="stroke:#000000; stroke-linecap:butt; stroke-linejoin:round; stroke-width:2; stroke-opacity:0.1; fill:none" points="
  265.22,989.382 1089.76,989.382 
  "/>
<polyline clip-path="url(#clip532)" style="stroke:#000000; stroke-linecap:butt; stroke-linejoin:round; stroke-width:2; stroke-opacity:0.1; fill:none" points="
  265.22,651.795 1089.76,651.795 
  "/>
<polyline clip-path="url(#clip532)" style="stroke:#000000; stroke-linecap:butt; stroke-linejoin:round; stroke-width:2; stroke-opacity:0.1; fill:none" points="
  265.22,314.207 1089.76,314.207 
  "/>
<polyline clip-path="url(#clip530)" style="stroke:#000000; stroke-linecap:butt; stroke-linejoin:round; stroke-width:4; stroke-opacity:1; fill:none" points="
  265.22,1360.19 265.22,186.464 
  "/>
<polyline clip-path="url(#clip530)" style="stroke:#000000; stroke-linecap:butt; stroke-linejoin:round; stroke-width:4; stroke-opacity:1; fill:none" points="
  265.22,1326.97 284.117,1326.97 
  "/>
<polyline clip-path="url(#clip530)" style="stroke:#000000; stroke-linecap:butt; stroke-linejoin:round; stroke-width:4; stroke-opacity:1; fill:none" points="
  265.22,989.382 284.117,989.382 
  "/>
<polyline clip-path="url(#clip530)" style="stroke:#000000; stroke-linecap:butt; stroke-linejoin:round; stroke-width:4; stroke-opacity:1; fill:none" points="
  265.22,651.795 284.117,651.795 
  "/>
<polyline clip-path="url(#clip530)" style="stroke:#000000; stroke-linecap:butt; stroke-linejoin:round; stroke-width:4; stroke-opacity:1; fill:none" points="
  265.22,314.207 284.117,314.207 
  "/>
<path clip-path="url(#clip530)" d="M217.275 1312.77 Q213.664 1312.77 211.835 1316.33 Q210.03 1319.87 210.03 1327 Q210.03 1334.11 211.835 1337.68 Q213.664 1341.22 217.275 1341.22 Q220.909 1341.22 222.715 1337.68 Q224.544 1334.11 224.544 1327 Q224.544 1319.87 222.715 1316.33 Q220.909 1312.77 217.275 1312.77 M217.275 1309.06 Q223.085 1309.06 226.141 1313.67 Q229.22 1318.25 229.22 1327 Q229.22 1335.73 226.141 1340.34 Q223.085 1344.92 217.275 1344.92 Q211.465 1344.92 208.386 1340.34 Q205.331 1335.73 205.331 1327 Q205.331 1318.25 208.386 1313.67 Q211.465 1309.06 217.275 1309.06 Z" fill="#000000" fill-rule="evenodd" fill-opacity="1" /><path clip-path="url(#clip530)" d="M208.317 972.102 L226.673 972.102 L226.673 976.037 L212.599 976.037 L212.599 984.509 Q213.618 984.162 214.636 984 Q215.655 983.815 216.673 983.815 Q222.46 983.815 225.84 986.986 Q229.22 990.157 229.22 995.574 Q229.22 1001.15 225.747 1004.25 Q222.275 1007.33 215.956 1007.33 Q213.78 1007.33 211.511 1006.96 Q209.266 1006.59 206.859 1005.85 L206.859 1001.15 Q208.942 1002.29 211.164 1002.84 Q213.386 1003.4 215.863 1003.4 Q219.868 1003.4 222.206 1001.29 Q224.544 999.185 224.544 995.574 Q224.544 991.963 222.206 989.856 Q219.868 987.75 215.863 987.75 Q213.988 987.75 212.113 988.167 Q210.261 988.583 208.317 989.463 L208.317 972.102 Z" fill="#000000" fill-rule="evenodd" fill-opacity="1" /><path clip-path="url(#clip530)" d="M177.924 665.139 L185.562 665.139 L185.562 638.774 L177.252 640.44 L177.252 636.181 L185.516 634.515 L190.192 634.515 L190.192 665.139 L197.831 665.139 L197.831 669.075 L177.924 669.075 L177.924 665.139 Z" fill="#000000" fill-rule="evenodd" fill-opacity="1" /><path clip-path="url(#clip530)" d="M217.275 637.593 Q213.664 637.593 211.835 641.158 Q210.03 644.7 210.03 651.829 Q210.03 658.936 211.835 662.501 Q213.664 666.042 217.275 666.042 Q220.909 666.042 222.715 662.501 Q224.544 658.936 224.544 651.829 Q224.544 644.7 222.715 641.158 Q220.909 637.593 217.275 637.593 M217.275 633.89 Q223.085 633.89 226.141 638.496 Q229.22 643.079 229.22 651.829 Q229.22 660.556 226.141 665.163 Q223.085 669.746 217.275 669.746 Q211.465 669.746 208.386 665.163 Q205.331 660.556 205.331 651.829 Q205.331 643.079 208.386 638.496 Q211.465 633.89 217.275 633.89 Z" fill="#000000" fill-rule="evenodd" fill-opacity="1" /><path clip-path="url(#clip530)" d="M178.919 327.552 L186.558 327.552 L186.558 301.187 L178.248 302.853 L178.248 298.594 L186.511 296.927 L191.187 296.927 L191.187 327.552 L198.826 327.552 L198.826 331.487 L178.919 331.487 L178.919 327.552 Z" fill="#000000" fill-rule="evenodd" fill-opacity="1" /><path clip-path="url(#clip530)" d="M208.317 296.927 L226.673 296.927 L226.673 300.862 L212.599 300.862 L212.599 309.335 Q213.618 308.987 214.636 308.825 Q215.655 308.64 216.673 308.64 Q222.46 308.64 225.84 311.811 Q229.22 314.983 229.22 320.399 Q229.22 325.978 225.747 329.08 Q222.275 332.159 215.956 332.159 Q213.78 332.159 211.511 331.788 Q209.266 331.418 206.859 330.677 L206.859 325.978 Q208.942 327.112 211.164 327.668 Q213.386 328.223 215.863 328.223 Q219.868 328.223 222.206 326.117 Q224.544 324.01 224.544 320.399 Q224.544 316.788 222.206 314.682 Q219.868 312.575 215.863 312.575 Q213.988 312.575 212.113 312.992 Q210.261 313.409 208.317 314.288 L208.317 296.927 Z" fill="#000000" fill-rule="evenodd" fill-opacity="1" /><path clip-path="url(#clip530)" d="M91.3483 871.851 L91.3483 844.033 L96.6955 844.033 L122.317 866.058 L122.317 844.033 L126.996 844.033 L126.996 872.647 L121.649 872.647 L96.0271 850.622 L96.0271 871.851 L91.3483 871.851 Z" fill="#000000" fill-rule="evenodd" fill-opacity="1" /><path clip-path="url(#clip530)" d="M77.5347 800.301 Q84.8553 804.566 92.0167 806.635 Q99.1781 808.703 106.531 808.703 Q113.883 808.703 121.108 806.635 Q128.301 804.534 135.59 800.301 L135.59 805.393 Q128.11 810.168 120.885 812.555 Q113.66 814.91 106.531 814.91 Q99.4328 814.91 92.2395 812.555 Q85.0463 810.199 77.5347 805.393 L77.5347 800.301 Z" fill="#000000" fill-rule="evenodd" fill-opacity="1" /><path clip-path="url(#clip530)" d="M77.4711 789.161 L77.4711 783.272 L106.722 783.272 L91.3483 765.799 L91.3483 758.319 L108.026 777.225 L126.996 757.523 L126.996 765.162 L109.586 783.272 L126.996 783.272 L126.996 789.161 L77.4711 789.161 Z" fill="#000000" fill-rule="evenodd" fill-opacity="1" /><path clip-path="url(#clip530)" d="M98.1915 723.435 Q94.2447 721.239 92.3668 718.183 Q90.489 715.128 90.489 710.99 Q90.489 705.42 94.4039 702.396 Q98.2869 699.372 105.48 699.372 L126.996 699.372 L126.996 705.261 L105.671 705.261 Q100.547 705.261 98.0641 707.075 Q95.5815 708.889 95.5815 712.613 Q95.5815 717.165 98.6052 719.806 Q101.629 722.448 106.849 722.448 L126.996 722.448 L126.996 728.336 L105.671 728.336 Q100.515 728.336 98.0641 730.151 Q95.5815 731.965 95.5815 735.752 Q95.5815 740.24 98.6371 742.882 Q101.661 745.524 106.849 745.524 L126.996 745.524 L126.996 751.412 L91.3483 751.412 L91.3483 745.524 L96.8865 745.524 Q93.6082 743.519 92.0486 740.718 Q90.489 737.917 90.489 734.065 Q90.489 730.182 92.4623 727.477 Q94.4357 724.74 98.1915 723.435 Z" fill="#000000" fill-rule="evenodd" fill-opacity="1" /><path clip-path="url(#clip530)" d="M77.5347 688.614 L77.5347 683.522 Q85.0463 678.747 92.2395 676.392 Q99.4328 674.005 106.531 674.005 Q113.66 674.005 120.885 676.392 Q128.11 678.747 135.59 683.522 L135.59 688.614 Q128.301 684.381 121.108 682.312 Q113.883 680.212 106.531 680.212 Q99.1781 680.212 92.0167 682.312 Q84.8553 684.381 77.5347 688.614 Z" fill="#000000" fill-rule="evenodd" fill-opacity="1" /><path clip-path="url(#clip530)" d="M660.842 35.3077 Q663.314 31.1758 669.43 27.5299 Q671.82 26.1121 679.193 26.1121 Q687.457 26.1121 692.602 32.6746 Q697.787 39.2371 697.787 49.9314 Q697.787 60.6258 692.602 67.1883 Q687.457 73.7508 679.193 73.7508 Q674.21 73.7508 670.605 71.8063 Q667.04 69.8214 664.691 65.7705 L664.691 89.8329 L657.197 89.8329 L657.197 50.3365 Q657.197 40.9789 660.842 35.3077 M690.049 49.9314 Q690.049 41.7081 686.647 37.0496 Q683.284 32.3505 677.37 32.3505 Q671.456 32.3505 668.053 37.0496 Q664.691 41.7081 664.691 49.9314 Q664.691 58.1548 668.053 62.8538 Q671.456 67.5124 677.37 67.5124 Q683.284 67.5124 686.647 62.8538 Q690.049 58.1548 690.049 49.9314 Z" fill="#000000" fill-rule="evenodd" fill-opacity="1" /><polyline clip-path="url(#clip532)" style="stroke:#009af9; stroke-linecap:butt; stroke-linejoin:round; stroke-width:4; stroke-opacity:1; fill:none" points="
  1057.48,1320.22 1039.76,1306.71 1022.34,1293.21 1005.2,1279.71 988.35,1266.2 971.769,1252.7 955.459,1239.2 939.429,1225.69 923.646,1212.19 908.133,1198.69 
  892.882,1185.18 877.887,1171.68 863.148,1158.18 848.646,1144.67 834.398,1131.17 820.394,1117.67 806.631,1104.16 793.104,1090.66 779.812,1077.15 766.751,1063.65 
  753.918,1050.15 741.311,1036.64 728.925,1023.14 716.759,1009.64 704.81,996.134 693.079,982.63 681.568,969.127 670.154,955.623 658.949,942.12 647.93,928.616 
  637.107,915.113 626.477,901.609 616.037,888.106 605.787,874.602 595.725,861.099 585.847,847.595 576.153,834.092 566.639,820.588 557.305,807.085 548.147,793.581 
  539.164,780.078 530.354,766.574 521.714,753.071 513.243,739.567 504.938,726.064 496.797,712.56 488.817,699.057 480.996,685.553 473.326,672.05 465.819,658.546 
  458.462,645.043 451.253,631.539 444.19,618.036 437.269,604.532 430.488,591.029 423.844,577.525 417.333,564.022 410.959,550.518 404.702,537.015 398.57,523.511 
  392.716,510.008 387.003,496.504 381.391,483.001 375.877,469.497 370.458,455.994 365.129,442.49 359.898,428.987 354.741,415.483 349.667,401.98 344.676,388.476 
  339.764,374.973 334.93,361.469 330.172,347.966 325.489,334.463 320.88,320.959 316.343,307.456 311.878,293.952 307.483,280.449 303.158,266.945 298.902,253.442 
  294.715,239.938 290.589,226.435 
  "/>
<polyline clip-path="url(#clip532)" style="stroke:#e26f46; stroke-linecap:butt; stroke-linejoin:round; stroke-width:4; stroke-opacity:1; fill:none" points="
  1066.43,1326.97 1048.58,1313.47 1031.02,1299.96 1013.74,1286.46 996.743,1272.96 980.026,1259.45 963.58,1245.95 947.406,1232.44 931.501,1218.94 915.865,1205.44 
  900.475,1191.93 885.352,1178.43 870.486,1164.93 855.873,1151.42 841.492,1137.92 827.366,1124.42 813.483,1110.91 799.838,1097.41 786.429,1083.91 773.253,1070.4 
  760.306,1056.9 747.587,1043.4 735.091,1029.89 722.815,1016.39 710.758,1002.89 698.915,989.382 687.298,975.878 675.837,962.375 664.531,948.871 653.415,935.368 
  642.494,921.864 631.768,908.361 621.233,894.857 610.889,881.354 600.733,867.85 590.763,854.347 580.977,840.843 571.373,827.34 561.95,813.836 552.704,800.333 
  543.634,786.829 534.738,773.326 526.013,759.822 517.458,746.319 509.07,732.816 500.847,719.312 492.787,705.809 484.887,692.305 477.137,678.802 469.553,665.298 
  462.121,651.795 454.839,638.291 447.703,624.788 440.712,611.284 433.861,597.781 427.149,584.277 420.572,570.774 414.127,557.27 407.815,543.767 401.621,530.263 
  395.619,516.76 389.847,503.256 384.185,489.753 378.622,476.249 373.156,462.746 367.782,449.242 362.499,435.739 357.309,422.235 352.194,408.732 347.161,395.228 
  342.21,381.725 337.337,368.221 332.542,354.718 327.822,341.214 323.176,327.711 318.603,314.207 314.102,300.704 309.672,287.2 305.312,273.697 301.022,260.193 
  296.8,246.69 292.64,233.186 288.556,219.683 
  "/>
<path clip-path="url(#clip530)" d="
M798.372 381.108 L1062.28 381.108 L1062.28 225.588 L798.372 225.588  Z
  " fill="#ffffff" fill-rule="evenodd" fill-opacity="1"/>
<polyline clip-path="url(#clip530)" style="stroke:#000000; stroke-linecap:butt; stroke-linejoin:round; stroke-width:4; stroke-opacity:1; fill:none" points="
  798.372,381.108 1062.28,381.108 1062.28,225.588 798.372,225.588 798.372,381.108 
  "/>
<polyline clip-path="url(#clip530)" style="stroke:#009af9; stroke-linecap:butt; stroke-linejoin:round; stroke-width:4; stroke-opacity:1; fill:none" points="
  807.534,277.428 862.503,277.428 
  "/>
<path clip-path="url(#clip530)" d="M892.174 269.778 L892.174 273.759 Q890.369 272.764 888.54 272.278 Q886.734 271.769 884.883 271.769 Q880.739 271.769 878.447 274.408 Q876.156 277.023 876.156 281.769 Q876.156 286.514 878.447 289.153 Q880.739 291.769 884.883 291.769 Q886.734 291.769 888.54 291.282 Q890.369 290.773 892.174 289.778 L892.174 293.713 Q890.392 294.546 888.47 294.963 Q886.572 295.38 884.42 295.38 Q878.563 295.38 875.114 291.699 Q871.665 288.019 871.665 281.769 Q871.665 275.426 875.137 271.792 Q878.633 268.158 884.697 268.158 Q886.665 268.158 888.54 268.574 Q890.415 268.968 892.174 269.778 Z" fill="#000000" fill-rule="evenodd" fill-opacity="1" /><path clip-path="url(#clip530)" d="M921.757 280.681 L921.757 282.764 L902.174 282.764 Q902.452 287.162 904.813 289.477 Q907.197 291.769 911.433 291.769 Q913.887 291.769 916.179 291.167 Q918.493 290.565 920.762 289.361 L920.762 293.389 Q918.47 294.361 916.063 294.87 Q913.656 295.38 911.179 295.38 Q904.975 295.38 901.341 291.769 Q897.73 288.157 897.73 282 Q897.73 275.634 901.156 271.908 Q904.605 268.158 910.438 268.158 Q915.669 268.158 918.702 271.537 Q921.757 274.894 921.757 280.681 M917.498 279.431 Q917.452 275.935 915.531 273.852 Q913.632 271.769 910.484 271.769 Q906.919 271.769 904.767 273.783 Q902.637 275.796 902.313 279.454 L917.498 279.431 Z" fill="#000000" fill-rule="evenodd" fill-opacity="1" /><path clip-path="url(#clip530)" d="M950.299 279.06 L950.299 294.708 L946.04 294.708 L946.04 279.199 Q946.04 275.519 944.604 273.69 Q943.169 271.861 940.299 271.861 Q936.85 271.861 934.859 274.06 Q932.868 276.259 932.868 280.056 L932.868 294.708 L928.586 294.708 L928.586 268.783 L932.868 268.783 L932.868 272.81 Q934.396 270.472 936.456 269.315 Q938.54 268.158 941.248 268.158 Q945.716 268.158 948.007 270.935 Q950.299 273.69 950.299 279.06 Z" fill="#000000" fill-rule="evenodd" fill-opacity="1" /><path clip-path="url(#clip530)" d="M963.007 261.422 L963.007 268.783 L971.78 268.783 L971.78 272.093 L963.007 272.093 L963.007 286.167 Q963.007 289.338 963.864 290.241 Q964.743 291.144 967.405 291.144 L971.78 291.144 L971.78 294.708 L967.405 294.708 Q962.475 294.708 960.6 292.88 Q958.725 291.028 958.725 286.167 L958.725 272.093 L955.6 272.093 L955.6 268.783 L958.725 268.783 L958.725 261.422 L963.007 261.422 Z" fill="#000000" fill-rule="evenodd" fill-opacity="1" /><path clip-path="url(#clip530)" d="M999.558 280.681 L999.558 282.764 L979.975 282.764 Q980.252 287.162 982.614 289.477 Q984.998 291.769 989.234 291.769 Q991.688 291.769 993.979 291.167 Q996.294 290.565 998.562 289.361 L998.562 293.389 Q996.271 294.361 993.863 294.87 Q991.456 295.38 988.979 295.38 Q982.776 295.38 979.141 291.769 Q975.53 288.157 975.53 282 Q975.53 275.634 978.956 271.908 Q982.405 268.158 988.238 268.158 Q993.47 268.158 996.502 271.537 Q999.558 274.894 999.558 280.681 M995.299 279.431 Q995.252 275.935 993.331 273.852 Q991.433 271.769 988.285 271.769 Q984.72 271.769 982.567 273.783 Q980.438 275.796 980.114 279.454 L995.299 279.431 Z" fill="#000000" fill-rule="evenodd" fill-opacity="1" /><path clip-path="url(#clip530)" d="M1021.57 272.764 Q1020.85 272.347 1020 272.162 Q1019.16 271.954 1018.15 271.954 Q1014.53 271.954 1012.59 274.315 Q1010.67 276.653 1010.67 281.051 L1010.67 294.708 L1006.39 294.708 L1006.39 268.783 L1010.67 268.783 L1010.67 272.81 Q1012.01 270.449 1014.16 269.315 Q1016.32 268.158 1019.4 268.158 Q1019.84 268.158 1020.37 268.227 Q1020.9 268.273 1021.55 268.389 L1021.57 272.764 Z" fill="#000000" fill-rule="evenodd" fill-opacity="1" /><path clip-path="url(#clip530)" d="M1042.57 269.546 L1042.57 273.574 Q1040.76 272.648 1038.82 272.185 Q1036.87 271.722 1034.79 271.722 Q1031.62 271.722 1030.02 272.695 Q1028.45 273.667 1028.45 275.611 Q1028.45 277.093 1029.58 277.949 Q1030.72 278.783 1034.14 279.546 L1035.6 279.87 Q1040.14 280.843 1042.03 282.625 Q1043.96 284.384 1043.96 287.556 Q1043.96 291.167 1041.09 293.273 Q1038.24 295.38 1033.24 295.38 Q1031.15 295.38 1028.89 294.963 Q1026.64 294.569 1024.14 293.759 L1024.14 289.361 Q1026.5 290.588 1028.79 291.213 Q1031.09 291.815 1033.33 291.815 Q1036.34 291.815 1037.96 290.796 Q1039.58 289.755 1039.58 287.88 Q1039.58 286.144 1038.4 285.218 Q1037.24 284.292 1033.28 283.435 L1031.8 283.088 Q1027.84 282.255 1026.09 280.542 Q1024.33 278.806 1024.33 275.796 Q1024.33 272.139 1026.92 270.148 Q1029.51 268.158 1034.28 268.158 Q1036.64 268.158 1038.72 268.505 Q1040.81 268.852 1042.57 269.546 Z" fill="#000000" fill-rule="evenodd" fill-opacity="1" /><polyline clip-path="url(#clip530)" style="stroke:#e26f46; stroke-linecap:butt; stroke-linejoin:round; stroke-width:4; stroke-opacity:1; fill:none" points="
  807.534,329.268 862.503,329.268 
  "/>
<path clip-path="url(#clip530)" d="M888.17 310.53 L888.17 314.072 L884.096 314.072 Q881.804 314.072 880.901 314.998 Q880.021 315.924 880.021 318.331 L880.021 320.623 L887.035 320.623 L887.035 323.933 L880.021 323.933 L880.021 346.548 L875.739 346.548 L875.739 323.933 L871.665 323.933 L871.665 320.623 L875.739 320.623 L875.739 318.817 Q875.739 314.488 877.753 312.521 Q879.767 310.53 884.142 310.53 L888.17 310.53 Z" fill="#000000" fill-rule="evenodd" fill-opacity="1" /><path clip-path="url(#clip530)" d="M903.517 333.516 Q898.355 333.516 896.364 334.697 Q894.373 335.877 894.373 338.724 Q894.373 340.993 895.855 342.335 Q897.359 343.655 899.929 343.655 Q903.47 343.655 905.6 341.155 Q907.753 338.632 907.753 334.465 L907.753 333.516 L903.517 333.516 M912.012 331.757 L912.012 346.548 L907.753 346.548 L907.753 342.613 Q906.294 344.974 904.119 346.109 Q901.943 347.22 898.795 347.22 Q894.813 347.22 892.452 344.997 Q890.114 342.752 890.114 339.002 Q890.114 334.627 893.031 332.405 Q895.97 330.183 901.781 330.183 L907.753 330.183 L907.753 329.766 Q907.753 326.826 905.808 325.229 Q903.887 323.609 900.392 323.609 Q898.17 323.609 896.063 324.141 Q893.957 324.673 892.012 325.738 L892.012 321.803 Q894.35 320.9 896.549 320.461 Q898.748 319.998 900.832 319.998 Q906.457 319.998 909.234 322.914 Q912.012 325.831 912.012 331.757 Z" fill="#000000" fill-rule="evenodd" fill-opacity="1" /><path clip-path="url(#clip530)" d="M939.442 321.618 L939.442 325.599 Q937.637 324.604 935.808 324.118 Q934.003 323.609 932.151 323.609 Q928.007 323.609 925.716 326.248 Q923.424 328.863 923.424 333.609 Q923.424 338.354 925.716 340.993 Q928.007 343.609 932.151 343.609 Q934.003 343.609 935.808 343.122 Q937.637 342.613 939.442 341.618 L939.442 345.553 Q937.66 346.386 935.739 346.803 Q933.841 347.22 931.688 347.22 Q925.831 347.22 922.382 343.539 Q918.933 339.859 918.933 333.609 Q918.933 327.266 922.405 323.632 Q925.901 319.998 931.966 319.998 Q933.933 319.998 935.808 320.414 Q937.683 320.808 939.442 321.618 Z" fill="#000000" fill-rule="evenodd" fill-opacity="1" /><path clip-path="url(#clip530)" d="M969.026 332.521 L969.026 334.604 L949.442 334.604 Q949.72 339.002 952.081 341.317 Q954.466 343.609 958.702 343.609 Q961.155 343.609 963.447 343.007 Q965.762 342.405 968.03 341.201 L968.03 345.229 Q965.739 346.201 963.331 346.71 Q960.924 347.22 958.447 347.22 Q952.243 347.22 948.609 343.609 Q944.998 339.997 944.998 333.84 Q944.998 327.474 948.424 323.748 Q951.873 319.998 957.706 319.998 Q962.938 319.998 965.97 323.377 Q969.026 326.734 969.026 332.521 M964.766 331.271 Q964.72 327.775 962.799 325.692 Q960.901 323.609 957.753 323.609 Q954.188 323.609 952.035 325.623 Q949.905 327.636 949.581 331.294 L964.766 331.271 Z" fill="#000000" fill-rule="evenodd" fill-opacity="1" /><path clip-path="url(#clip530)" d="M992.544 321.386 L992.544 325.414 Q990.738 324.488 988.794 324.025 Q986.85 323.562 984.766 323.562 Q981.595 323.562 979.998 324.535 Q978.424 325.507 978.424 327.451 Q978.424 328.933 979.558 329.789 Q980.692 330.623 984.118 331.386 L985.576 331.71 Q990.113 332.683 992.012 334.465 Q993.933 336.224 993.933 339.396 Q993.933 343.007 991.063 345.113 Q988.215 347.22 983.215 347.22 Q981.132 347.22 978.864 346.803 Q976.618 346.409 974.118 345.599 L974.118 341.201 Q976.479 342.428 978.771 343.053 Q981.063 343.655 983.308 343.655 Q986.317 343.655 987.938 342.636 Q989.558 341.595 989.558 339.72 Q989.558 337.984 988.377 337.058 Q987.22 336.132 983.262 335.275 L981.78 334.928 Q977.822 334.095 976.063 332.382 Q974.303 330.646 974.303 327.636 Q974.303 323.979 976.896 321.988 Q979.489 319.998 984.257 319.998 Q986.618 319.998 988.701 320.345 Q990.785 320.692 992.544 321.386 Z" fill="#000000" fill-rule="evenodd" fill-opacity="1" /><path clip-path="url(#clip530)" d="
M1465.22 1360.19 L2289.76 1360.19 L2289.76 186.464 L1465.22 186.464  Z
  " fill="#ffffff" fill-rule="evenodd" fill-opacity="1"/>
<defs>
  <clipPath id="clip533">
    <rect x="1465" y="186" width="826" height="1175"/>
  </clipPath>
</defs>
<polyline clip-path="url(#clip533)" style="stroke:#000000; stroke-linecap:butt; stroke-linejoin:round; stroke-width:2; stroke-opacity:0.1; fill:none" points="
  1574.22,1360.19 1574.22,186.464 
  "/>
<polyline clip-path="url(#clip533)" style="stroke:#000000; stroke-linecap:butt; stroke-linejoin:round; stroke-width:2; stroke-opacity:0.1; fill:none" points="
  1749.17,1360.19 1749.17,186.464 
  "/>
<polyline clip-path="url(#clip533)" style="stroke:#000000; stroke-linecap:butt; stroke-linejoin:round; stroke-width:2; stroke-opacity:0.1; fill:none" points="
  1924.13,1360.19 1924.13,186.464 
  "/>
<polyline clip-path="url(#clip533)" style="stroke:#000000; stroke-linecap:butt; stroke-linejoin:round; stroke-width:2; stroke-opacity:0.1; fill:none" points="
  2099.08,1360.19 2099.08,186.464 
  "/>
<polyline clip-path="url(#clip533)" style="stroke:#000000; stroke-linecap:butt; stroke-linejoin:round; stroke-width:2; stroke-opacity:0.1; fill:none" points="
  2274.04,1360.19 2274.04,186.464 
  "/>
<polyline clip-path="url(#clip530)" style="stroke:#000000; stroke-linecap:butt; stroke-linejoin:round; stroke-width:4; stroke-opacity:1; fill:none" points="
  1465.22,1360.19 2289.76,1360.19 
  "/>
<polyline clip-path="url(#clip530)" style="stroke:#000000; stroke-linecap:butt; stroke-linejoin:round; stroke-width:4; stroke-opacity:1; fill:none" points="
  1574.22,1360.19 1574.22,1341.29 
  "/>
<polyline clip-path="url(#clip530)" style="stroke:#000000; stroke-linecap:butt; stroke-linejoin:round; stroke-width:4; stroke-opacity:1; fill:none" points="
  1749.17,1360.19 1749.17,1341.29 
  "/>
<polyline clip-path="url(#clip530)" style="stroke:#000000; stroke-linecap:butt; stroke-linejoin:round; stroke-width:4; stroke-opacity:1; fill:none" points="
  1924.13,1360.19 1924.13,1341.29 
  "/>
<polyline clip-path="url(#clip530)" style="stroke:#000000; stroke-linecap:butt; stroke-linejoin:round; stroke-width:4; stroke-opacity:1; fill:none" points="
  2099.08,1360.19 2099.08,1341.29 
  "/>
<polyline clip-path="url(#clip530)" style="stroke:#000000; stroke-linecap:butt; stroke-linejoin:round; stroke-width:4; stroke-opacity:1; fill:none" points="
  2274.04,1360.19 2274.04,1341.29 
  "/>
<path clip-path="url(#clip530)" d="M1552.99 1418.65 L1569.31 1418.65 L1569.31 1422.59 L1547.36 1422.59 L1547.36 1418.65 Q1550.03 1415.9 1554.61 1411.27 Q1559.22 1406.62 1560.4 1405.27 Q1562.64 1402.75 1563.52 1401.01 Q1564.42 1399.25 1564.42 1397.56 Q1564.42 1394.81 1562.48 1393.07 Q1560.56 1391.34 1557.46 1391.34 Q1555.26 1391.34 1552.8 1392.1 Q1550.37 1392.87 1547.59 1394.42 L1547.59 1389.69 Q1550.42 1388.56 1552.87 1387.98 Q1555.33 1387.4 1557.36 1387.4 Q1562.73 1387.4 1565.93 1390.09 Q1569.12 1392.77 1569.12 1397.26 Q1569.12 1399.39 1568.31 1401.31 Q1567.53 1403.21 1565.42 1405.81 Q1564.84 1406.48 1561.74 1409.69 Q1558.64 1412.89 1552.99 1418.65 Z" fill="#000000" fill-rule="evenodd" fill-opacity="1" /><path clip-path="url(#clip530)" d="M1589.12 1391.11 Q1585.51 1391.11 1583.68 1394.67 Q1581.88 1398.21 1581.88 1405.34 Q1581.88 1412.45 1583.68 1416.01 Q1585.51 1419.56 1589.12 1419.56 Q1592.76 1419.56 1594.56 1416.01 Q1596.39 1412.45 1596.39 1405.34 Q1596.39 1398.21 1594.56 1394.67 Q1592.76 1391.11 1589.12 1391.11 M1589.12 1387.4 Q1594.93 1387.4 1597.99 1392.01 Q1601.07 1396.59 1601.07 1405.34 Q1601.07 1414.07 1597.99 1418.68 Q1594.93 1423.26 1589.12 1423.26 Q1583.31 1423.26 1580.23 1418.68 Q1577.18 1414.07 1577.18 1405.34 Q1577.18 1396.59 1580.23 1392.01 Q1583.31 1387.4 1589.12 1387.4 Z" fill="#000000" fill-rule="evenodd" fill-opacity="1" /><path clip-path="url(#clip530)" d="M1737.34 1392.1 L1725.54 1410.55 L1737.34 1410.55 L1737.34 1392.1 M1736.12 1388.03 L1741.99 1388.03 L1741.99 1410.55 L1746.93 1410.55 L1746.93 1414.44 L1741.99 1414.44 L1741.99 1422.59 L1737.34 1422.59 L1737.34 1414.44 L1721.74 1414.44 L1721.74 1409.93 L1736.12 1388.03 Z" fill="#000000" fill-rule="evenodd" fill-opacity="1" /><path clip-path="url(#clip530)" d="M1764.66 1391.11 Q1761.05 1391.11 1759.22 1394.67 Q1757.41 1398.21 1757.41 1405.34 Q1757.41 1412.45 1759.22 1416.01 Q1761.05 1419.56 1764.66 1419.56 Q1768.29 1419.56 1770.1 1416.01 Q1771.93 1412.45 1771.93 1405.34 Q1771.93 1398.21 1770.1 1394.67 Q1768.29 1391.11 1764.66 1391.11 M1764.66 1387.4 Q1770.47 1387.4 1773.52 1392.01 Q1776.6 1396.59 1776.6 1405.34 Q1776.6 1414.07 1773.52 1418.68 Q1770.47 1423.26 1764.66 1423.26 Q1758.85 1423.26 1755.77 1418.68 Q1752.71 1414.07 1752.71 1405.34 Q1752.71 1396.59 1755.77 1392.01 Q1758.85 1387.4 1764.66 1387.4 Z" fill="#000000" fill-rule="evenodd" fill-opacity="1" /><path clip-path="url(#clip530)" d="M1909.53 1403.44 Q1906.38 1403.44 1904.53 1405.6 Q1902.7 1407.75 1902.7 1411.5 Q1902.7 1415.23 1904.53 1417.4 Q1906.38 1419.56 1909.53 1419.56 Q1912.68 1419.56 1914.51 1417.4 Q1916.36 1415.23 1916.36 1411.5 Q1916.36 1407.75 1914.51 1405.6 Q1912.68 1403.44 1909.53 1403.44 M1918.81 1388.79 L1918.81 1393.05 Q1917.05 1392.22 1915.25 1391.78 Q1913.47 1391.34 1911.71 1391.34 Q1907.08 1391.34 1904.62 1394.46 Q1902.19 1397.59 1901.85 1403.91 Q1903.21 1401.89 1905.27 1400.83 Q1907.33 1399.74 1909.81 1399.74 Q1915.02 1399.74 1918.03 1402.91 Q1921.06 1406.06 1921.06 1411.5 Q1921.06 1416.82 1917.91 1420.04 Q1914.76 1423.26 1909.53 1423.26 Q1903.54 1423.26 1900.37 1418.68 Q1897.19 1414.07 1897.19 1405.34 Q1897.19 1397.15 1901.08 1392.29 Q1904.97 1387.4 1911.52 1387.4 Q1913.28 1387.4 1915.06 1387.75 Q1916.87 1388.1 1918.81 1388.79 Z" fill="#000000" fill-rule="evenodd" fill-opacity="1" /><path clip-path="url(#clip530)" d="M1939.11 1391.11 Q1935.5 1391.11 1933.68 1394.67 Q1931.87 1398.21 1931.87 1405.34 Q1931.87 1412.45 1933.68 1416.01 Q1935.5 1419.56 1939.11 1419.56 Q1942.75 1419.56 1944.55 1416.01 Q1946.38 1412.45 1946.38 1405.34 Q1946.38 1398.21 1944.55 1394.67 Q1942.75 1391.11 1939.11 1391.11 M1939.11 1387.4 Q1944.93 1387.4 1947.98 1392.01 Q1951.06 1396.59 1951.06 1405.34 Q1951.06 1414.07 1947.98 1418.68 Q1944.93 1423.26 1939.11 1423.26 Q1933.3 1423.26 1930.23 1418.68 Q1927.17 1414.07 1927.17 1405.34 Q1927.17 1396.59 1930.23 1392.01 Q1933.3 1387.4 1939.11 1387.4 Z" fill="#000000" fill-rule="evenodd" fill-opacity="1" /><path clip-path="url(#clip530)" d="M2083.96 1406.18 Q2080.62 1406.18 2078.7 1407.96 Q2076.8 1409.74 2076.8 1412.87 Q2076.8 1415.99 2078.7 1417.77 Q2080.62 1419.56 2083.96 1419.56 Q2087.29 1419.56 2089.21 1417.77 Q2091.13 1415.97 2091.13 1412.87 Q2091.13 1409.74 2089.21 1407.96 Q2087.31 1406.18 2083.96 1406.18 M2079.28 1404.19 Q2076.27 1403.44 2074.58 1401.38 Q2072.91 1399.32 2072.91 1396.36 Q2072.91 1392.22 2075.85 1389.81 Q2078.82 1387.4 2083.96 1387.4 Q2089.12 1387.4 2092.06 1389.81 Q2095 1392.22 2095 1396.36 Q2095 1399.32 2093.31 1401.38 Q2091.64 1403.44 2088.65 1404.19 Q2092.03 1404.97 2093.91 1407.26 Q2095.81 1409.56 2095.81 1412.87 Q2095.81 1417.89 2092.73 1420.57 Q2089.67 1423.26 2083.96 1423.26 Q2078.24 1423.26 2075.16 1420.57 Q2072.1 1417.89 2072.1 1412.87 Q2072.1 1409.56 2074 1407.26 Q2075.9 1404.97 2079.28 1404.19 M2077.57 1396.8 Q2077.57 1399.49 2079.23 1400.99 Q2080.92 1402.5 2083.96 1402.5 Q2086.96 1402.5 2088.65 1400.99 Q2090.37 1399.49 2090.37 1396.8 Q2090.37 1394.12 2088.65 1392.61 Q2086.96 1391.11 2083.96 1391.11 Q2080.92 1391.11 2079.23 1392.61 Q2077.57 1394.12 2077.57 1396.8 Z" fill="#000000" fill-rule="evenodd" fill-opacity="1" /><path clip-path="url(#clip530)" d="M2114.12 1391.11 Q2110.51 1391.11 2108.68 1394.67 Q2106.87 1398.21 2106.87 1405.34 Q2106.87 1412.45 2108.68 1416.01 Q2110.51 1419.56 2114.12 1419.56 Q2117.75 1419.56 2119.56 1416.01 Q2121.39 1412.45 2121.39 1405.34 Q2121.39 1398.21 2119.56 1394.67 Q2117.75 1391.11 2114.12 1391.11 M2114.12 1387.4 Q2119.93 1387.4 2122.98 1392.01 Q2126.06 1396.59 2126.06 1405.34 Q2126.06 1414.07 2122.98 1418.68 Q2119.93 1423.26 2114.12 1423.26 Q2108.31 1423.26 2105.23 1418.68 Q2102.17 1414.07 2102.17 1405.34 Q2102.17 1396.59 2105.23 1392.01 Q2108.31 1387.4 2114.12 1387.4 Z" fill="#000000" fill-rule="evenodd" fill-opacity="1" /><path clip-path="url(#clip530)" d="M2233.64 1418.65 L2241.28 1418.65 L2241.28 1392.29 L2232.97 1393.95 L2232.97 1389.69 L2241.24 1388.03 L2245.91 1388.03 L2245.91 1418.65 L2253.55 1418.65 L2253.55 1422.59 L2233.64 1422.59 L2233.64 1418.65 Z" fill="#000000" fill-rule="evenodd" fill-opacity="1" /><path clip-path="url(#clip530)" d="M2273 1391.11 Q2269.39 1391.11 2267.56 1394.67 Q2265.75 1398.21 2265.75 1405.34 Q2265.75 1412.45 2267.56 1416.01 Q2269.39 1419.56 2273 1419.56 Q2276.63 1419.56 2278.44 1416.01 Q2280.27 1412.45 2280.27 1405.34 Q2280.27 1398.21 2278.44 1394.67 Q2276.63 1391.11 2273 1391.11 M2273 1387.4 Q2278.81 1387.4 2281.86 1392.01 Q2284.94 1396.59 2284.94 1405.34 Q2284.94 1414.07 2281.86 1418.68 Q2278.81 1423.26 2273 1423.26 Q2267.19 1423.26 2264.11 1418.68 Q2261.05 1414.07 2261.05 1405.34 Q2261.05 1396.59 2264.11 1392.01 Q2267.19 1387.4 2273 1387.4 Z" fill="#000000" fill-rule="evenodd" fill-opacity="1" /><path clip-path="url(#clip530)" d="M2303.16 1391.11 Q2299.55 1391.11 2297.72 1394.67 Q2295.91 1398.21 2295.91 1405.34 Q2295.91 1412.45 2297.72 1416.01 Q2299.55 1419.56 2303.16 1419.56 Q2306.79 1419.56 2308.6 1416.01 Q2310.43 1412.45 2310.43 1405.34 Q2310.43 1398.21 2308.6 1394.67 Q2306.79 1391.11 2303.16 1391.11 M2303.16 1387.4 Q2308.97 1387.4 2312.02 1392.01 Q2315.1 1396.59 2315.1 1405.34 Q2315.1 1414.07 2312.02 1418.68 Q2308.97 1423.26 2303.16 1423.26 Q2297.35 1423.26 2294.27 1418.68 Q2291.21 1414.07 2291.21 1405.34 Q2291.21 1396.59 2294.27 1392.01 Q2297.35 1387.4 2303.16 1387.4 Z" fill="#000000" fill-rule="evenodd" fill-opacity="1" /><path clip-path="url(#clip530)" d="M1775.62 1499.7 L1775.62 1518.61 L1769.74 1518.61 L1769.74 1469.4 L1775.62 1469.4 L1775.62 1474.81 Q1777.47 1471.63 1780.27 1470.1 Q1783.1 1468.54 1787.02 1468.54 Q1793.51 1468.54 1797.55 1473.7 Q1801.63 1478.86 1801.63 1487.26 Q1801.63 1495.66 1797.55 1500.82 Q1793.51 1505.97 1787.02 1505.97 Q1783.1 1505.97 1780.27 1504.45 Q1777.47 1502.89 1775.62 1499.7 M1795.55 1487.26 Q1795.55 1480.8 1792.88 1477.14 Q1790.23 1473.45 1785.59 1473.45 Q1780.94 1473.45 1778.27 1477.14 Q1775.62 1480.8 1775.62 1487.26 Q1775.62 1493.72 1778.27 1497.41 Q1780.94 1501.07 1785.59 1501.07 Q1790.23 1501.07 1792.88 1497.41 Q1795.55 1493.72 1795.55 1487.26 Z" fill="#000000" fill-rule="evenodd" fill-opacity="1" /><path clip-path="url(#clip530)" d="M1846.12 1455.59 Q1841.86 1462.91 1839.79 1470.07 Q1837.72 1477.23 1837.72 1484.59 Q1837.72 1491.94 1839.79 1499.16 Q1841.89 1506.36 1846.12 1513.65 L1841.03 1513.65 Q1836.26 1506.17 1833.87 1498.94 Q1831.52 1491.72 1831.52 1484.59 Q1831.52 1477.49 1833.87 1470.29 Q1836.23 1463.1 1841.03 1455.59 L1846.12 1455.59 Z" fill="#000000" fill-rule="evenodd" fill-opacity="1" /><path clip-path="url(#clip530)" d="M1857.26 1455.53 L1863.15 1455.53 L1863.15 1484.78 L1880.63 1469.4 L1888.11 1469.4 L1869.2 1486.08 L1888.9 1505.05 L1881.26 1505.05 L1863.15 1487.64 L1863.15 1505.05 L1857.26 1505.05 L1857.26 1455.53 Z" fill="#000000" fill-rule="evenodd" fill-opacity="1" /><path clip-path="url(#clip530)" d="M1901.92 1462.82 L1901.92 1480.67 L1910 1480.67 Q1914.49 1480.67 1916.94 1478.35 Q1919.39 1476.02 1919.39 1471.73 Q1919.39 1467.46 1916.94 1465.14 Q1914.49 1462.82 1910 1462.82 L1901.92 1462.82 M1895.49 1457.53 L1910 1457.53 Q1917.99 1457.53 1922.07 1461.16 Q1926.17 1464.76 1926.17 1471.73 Q1926.17 1478.76 1922.07 1482.36 Q1917.99 1485.95 1910 1485.95 L1901.92 1485.95 L1901.92 1505.05 L1895.49 1505.05 L1895.49 1457.53 Z" fill="#000000" fill-rule="evenodd" fill-opacity="1" /><path clip-path="url(#clip530)" d="M1947.82 1487.13 Q1940.72 1487.13 1937.98 1488.76 Q1935.24 1490.38 1935.24 1494.29 Q1935.24 1497.41 1937.28 1499.26 Q1939.35 1501.07 1942.88 1501.07 Q1947.75 1501.07 1950.68 1497.64 Q1953.64 1494.17 1953.64 1488.44 L1953.64 1487.13 L1947.82 1487.13 M1959.5 1484.71 L1959.5 1505.05 L1953.64 1505.05 L1953.64 1499.64 Q1951.64 1502.89 1948.64 1504.45 Q1945.65 1505.97 1941.32 1505.97 Q1935.85 1505.97 1932.6 1502.92 Q1929.39 1499.83 1929.39 1494.68 Q1929.39 1488.66 1933.4 1485.6 Q1937.44 1482.55 1945.43 1482.55 L1953.64 1482.55 L1953.64 1481.98 Q1953.64 1477.93 1950.97 1475.74 Q1948.33 1473.51 1943.52 1473.51 Q1940.46 1473.51 1937.57 1474.24 Q1934.67 1474.97 1932 1476.44 L1932 1471.03 Q1935.21 1469.79 1938.24 1469.18 Q1941.26 1468.54 1944.12 1468.54 Q1951.86 1468.54 1955.68 1472.55 Q1959.5 1476.57 1959.5 1484.71 Z" fill="#000000" fill-rule="evenodd" fill-opacity="1" /><path clip-path="url(#clip530)" d="M1970.64 1455.59 L1975.73 1455.59 Q1980.5 1463.1 1982.86 1470.29 Q1985.25 1477.49 1985.25 1484.59 Q1985.25 1491.72 1982.86 1498.94 Q1980.5 1506.17 1975.73 1513.65 L1970.64 1513.65 Q1974.87 1506.36 1976.94 1499.16 Q1979.04 1491.94 1979.04 1484.59 Q1979.04 1477.23 1976.94 1470.07 Q1974.87 1462.91 1970.64 1455.59 Z" fill="#000000" fill-rule="evenodd" fill-opacity="1" /><polyline clip-path="url(#clip533)" style="stroke:#000000; stroke-linecap:butt; stroke-linejoin:round; stroke-width:2; stroke-opacity:0.1; fill:none" points="
  1465.22,1326.97 2289.76,1326.97 
  "/>
<polyline clip-path="url(#clip533)" style="stroke:#000000; stroke-linecap:butt; stroke-linejoin:round; stroke-width:2; stroke-opacity:0.1; fill:none" points="
  1465.22,989.382 2289.76,989.382 
  "/>
<polyline clip-path="url(#clip533)" style="stroke:#000000; stroke-linecap:butt; stroke-linejoin:round; stroke-width:2; stroke-opacity:0.1; fill:none" points="
  1465.22,651.795 2289.76,651.795 
  "/>
<polyline clip-path="url(#clip533)" style="stroke:#000000; stroke-linecap:butt; stroke-linejoin:round; stroke-width:2; stroke-opacity:0.1; fill:none" points="
  1465.22,314.207 2289.76,314.207 
  "/>
<polyline clip-path="url(#clip530)" style="stroke:#000000; stroke-linecap:butt; stroke-linejoin:round; stroke-width:4; stroke-opacity:1; fill:none" points="
  1465.22,1360.19 1465.22,186.464 
  "/>
<polyline clip-path="url(#clip530)" style="stroke:#000000; stroke-linecap:butt; stroke-linejoin:round; stroke-width:4; stroke-opacity:1; fill:none" points="
  1465.22,1326.97 1484.12,1326.97 
  "/>
<polyline clip-path="url(#clip530)" style="stroke:#000000; stroke-linecap:butt; stroke-linejoin:round; stroke-width:4; stroke-opacity:1; fill:none" points="
  1465.22,989.382 1484.12,989.382 
  "/>
<polyline clip-path="url(#clip530)" style="stroke:#000000; stroke-linecap:butt; stroke-linejoin:round; stroke-width:4; stroke-opacity:1; fill:none" points="
  1465.22,651.795 1484.12,651.795 
  "/>
<polyline clip-path="url(#clip530)" style="stroke:#000000; stroke-linecap:butt; stroke-linejoin:round; stroke-width:4; stroke-opacity:1; fill:none" points="
  1465.22,314.207 1484.12,314.207 
  "/>
<path clip-path="url(#clip530)" d="M1417.28 1312.77 Q1413.66 1312.77 1411.84 1316.33 Q1410.03 1319.87 1410.03 1327 Q1410.03 1334.11 1411.84 1337.68 Q1413.66 1341.22 1417.28 1341.22 Q1420.91 1341.22 1422.72 1337.68 Q1424.54 1334.11 1424.54 1327 Q1424.54 1319.87 1422.72 1316.33 Q1420.91 1312.77 1417.28 1312.77 M1417.28 1309.06 Q1423.09 1309.06 1426.14 1313.67 Q1429.22 1318.25 1429.22 1327 Q1429.22 1335.73 1426.14 1340.34 Q1423.09 1344.92 1417.28 1344.92 Q1411.47 1344.92 1408.39 1340.34 Q1405.33 1335.73 1405.33 1327 Q1405.33 1318.25 1408.39 1313.67 Q1411.47 1309.06 1417.28 1309.06 Z" fill="#000000" fill-rule="evenodd" fill-opacity="1" /><path clip-path="url(#clip530)" d="M1408.32 972.102 L1426.67 972.102 L1426.67 976.037 L1412.6 976.037 L1412.6 984.509 Q1413.62 984.162 1414.64 984 Q1415.65 983.815 1416.67 983.815 Q1422.46 983.815 1425.84 986.986 Q1429.22 990.157 1429.22 995.574 Q1429.22 1001.15 1425.75 1004.25 Q1422.28 1007.33 1415.96 1007.33 Q1413.78 1007.33 1411.51 1006.96 Q1409.27 1006.59 1406.86 1005.85 L1406.86 1001.15 Q1408.94 1002.29 1411.16 1002.84 Q1413.39 1003.4 1415.86 1003.4 Q1419.87 1003.4 1422.21 1001.29 Q1424.54 999.185 1424.54 995.574 Q1424.54 991.963 1422.21 989.856 Q1419.87 987.75 1415.86 987.75 Q1413.99 987.75 1412.11 988.167 Q1410.26 988.583 1408.32 989.463 L1408.32 972.102 Z" fill="#000000" fill-rule="evenodd" fill-opacity="1" /><path clip-path="url(#clip530)" d="M1377.92 665.139 L1385.56 665.139 L1385.56 638.774 L1377.25 640.44 L1377.25 636.181 L1385.52 634.515 L1390.19 634.515 L1390.19 665.139 L1397.83 665.139 L1397.83 669.075 L1377.92 669.075 L1377.92 665.139 Z" fill="#000000" fill-rule="evenodd" fill-opacity="1" /><path clip-path="url(#clip530)" d="M1417.28 637.593 Q1413.66 637.593 1411.84 641.158 Q1410.03 644.7 1410.03 651.829 Q1410.03 658.936 1411.84 662.501 Q1413.66 666.042 1417.28 666.042 Q1420.91 666.042 1422.72 662.501 Q1424.54 658.936 1424.54 651.829 Q1424.54 644.7 1422.72 641.158 Q1420.91 637.593 1417.28 637.593 M1417.28 633.89 Q1423.09 633.89 1426.14 638.496 Q1429.22 643.079 1429.22 651.829 Q1429.22 660.556 1426.14 665.163 Q1423.09 669.746 1417.28 669.746 Q1411.47 669.746 1408.39 665.163 Q1405.33 660.556 1405.33 651.829 Q1405.33 643.079 1408.39 638.496 Q1411.47 633.89 1417.28 633.89 Z" fill="#000000" fill-rule="evenodd" fill-opacity="1" /><path clip-path="url(#clip530)" d="M1378.92 327.552 L1386.56 327.552 L1386.56 301.187 L1378.25 302.853 L1378.25 298.594 L1386.51 296.927 L1391.19 296.927 L1391.19 327.552 L1398.83 327.552 L1398.83 331.487 L1378.92 331.487 L1378.92 327.552 Z" fill="#000000" fill-rule="evenodd" fill-opacity="1" /><path clip-path="url(#clip530)" d="M1408.32 296.927 L1426.67 296.927 L1426.67 300.862 L1412.6 300.862 L1412.6 309.335 Q1413.62 308.987 1414.64 308.825 Q1415.65 308.64 1416.67 308.64 Q1422.46 308.64 1425.84 311.811 Q1429.22 314.983 1429.22 320.399 Q1429.22 325.978 1425.75 329.08 Q1422.28 332.159 1415.96 332.159 Q1413.78 332.159 1411.51 331.788 Q1409.27 331.418 1406.86 330.677 L1406.86 325.978 Q1408.94 327.112 1411.16 327.668 Q1413.39 328.223 1415.86 328.223 Q1419.87 328.223 1422.21 326.117 Q1424.54 324.01 1424.54 320.399 Q1424.54 316.788 1422.21 314.682 Q1419.87 312.575 1415.86 312.575 Q1413.99 312.575 1412.11 312.992 Q1410.26 313.409 1408.32 314.288 L1408.32 296.927 Z" fill="#000000" fill-rule="evenodd" fill-opacity="1" /><path clip-path="url(#clip530)" d="M1291.35 871.851 L1291.35 844.033 L1296.7 844.033 L1322.32 866.058 L1322.32 844.033 L1327 844.033 L1327 872.647 L1321.65 872.647 L1296.03 850.622 L1296.03 871.851 L1291.35 871.851 Z" fill="#000000" fill-rule="evenodd" fill-opacity="1" /><path clip-path="url(#clip530)" d="M1277.53 800.301 Q1284.86 804.566 1292.02 806.635 Q1299.18 808.703 1306.53 808.703 Q1313.88 808.703 1321.11 806.635 Q1328.3 804.534 1335.59 800.301 L1335.59 805.393 Q1328.11 810.168 1320.89 812.555 Q1313.66 814.91 1306.53 814.91 Q1299.43 814.91 1292.24 812.555 Q1285.05 810.199 1277.53 805.393 L1277.53 800.301 Z" fill="#000000" fill-rule="evenodd" fill-opacity="1" /><path clip-path="url(#clip530)" d="M1277.47 789.161 L1277.47 783.272 L1306.72 783.272 L1291.35 765.799 L1291.35 758.319 L1308.03 777.225 L1327 757.523 L1327 765.162 L1309.59 783.272 L1327 783.272 L1327 789.161 L1277.47 789.161 Z" fill="#000000" fill-rule="evenodd" fill-opacity="1" /><path clip-path="url(#clip530)" d="M1298.19 723.435 Q1294.24 721.239 1292.37 718.183 Q1290.49 715.128 1290.49 710.99 Q1290.49 705.42 1294.4 702.396 Q1298.29 699.372 1305.48 699.372 L1327 699.372 L1327 705.261 L1305.67 705.261 Q1300.55 705.261 1298.06 707.075 Q1295.58 708.889 1295.58 712.613 Q1295.58 717.165 1298.61 719.806 Q1301.63 722.448 1306.85 722.448 L1327 722.448 L1327 728.336 L1305.67 728.336 Q1300.51 728.336 1298.06 730.151 Q1295.58 731.965 1295.58 735.752 Q1295.58 740.24 1298.64 742.882 Q1301.66 745.524 1306.85 745.524 L1327 745.524 L1327 751.412 L1291.35 751.412 L1291.35 745.524 L1296.89 745.524 Q1293.61 743.519 1292.05 740.718 Q1290.49 737.917 1290.49 734.065 Q1290.49 730.182 1292.46 727.477 Q1294.44 724.74 1298.19 723.435 Z" fill="#000000" fill-rule="evenodd" fill-opacity="1" /><path clip-path="url(#clip530)" d="M1277.53 688.614 L1277.53 683.522 Q1285.05 678.747 1292.24 676.392 Q1299.43 674.005 1306.53 674.005 Q1313.66 674.005 1320.89 676.392 Q1328.11 678.747 1335.59 683.522 L1335.59 688.614 Q1328.3 684.381 1321.11 682.312 Q1313.88 680.212 1306.53 680.212 Q1299.18 680.212 1292.02 682.312 Q1284.86 684.381 1277.53 688.614 Z" fill="#000000" fill-rule="evenodd" fill-opacity="1" /><path clip-path="url(#clip530)" d="M1747.84 65.7705 L1747.84 89.8329 L1740.35 89.8329 L1740.35 27.2059 L1747.84 27.2059 L1747.84 34.0924 Q1750.19 30.0415 1753.76 28.0971 Q1757.36 26.1121 1762.34 26.1121 Q1770.61 26.1121 1775.75 32.6746 Q1780.94 39.2371 1780.94 49.9314 Q1780.94 60.6258 1775.75 67.1883 Q1770.61 73.7508 1762.34 73.7508 Q1757.36 73.7508 1753.76 71.8063 Q1750.19 69.8214 1747.84 65.7705 M1773.2 49.9314 Q1773.2 41.7081 1769.8 37.0496 Q1766.44 32.3505 1760.52 32.3505 Q1754.61 32.3505 1751.2 37.0496 Q1747.84 41.7081 1747.84 49.9314 Q1747.84 58.1548 1751.2 62.8538 Q1754.61 67.5124 1760.52 67.5124 Q1766.44 67.5124 1769.8 62.8538 Q1773.2 58.1548 1773.2 49.9314 Z" fill="#000000" fill-rule="evenodd" fill-opacity="1" /><path clip-path="url(#clip530)" d="M1837.57 9.62495 Q1832.14 18.942 1829.51 28.0566 Q1826.88 37.1711 1826.88 46.5287 Q1826.88 55.8863 1829.51 65.0818 Q1832.18 74.2369 1837.57 83.5134 L1831.09 83.5134 Q1825.01 73.9938 1821.97 64.7983 Q1818.98 55.6027 1818.98 46.5287 Q1818.98 37.4952 1821.97 28.3401 Q1824.97 19.1851 1831.09 9.62495 L1837.57 9.62495 Z" fill="#000000" fill-rule="evenodd" fill-opacity="1" /><path clip-path="url(#clip530)" d="M1851.75 9.54393 L1859.24 9.54393 L1859.24 46.7717 L1881.48 27.2059 L1891 27.2059 L1866.94 48.4326 L1892.01 72.576 L1882.29 72.576 L1859.24 50.4176 L1859.24 72.576 L1851.75 72.576 L1851.75 9.54393 Z" fill="#000000" fill-rule="evenodd" fill-opacity="1" /><path clip-path="url(#clip530)" d="M1908.58 18.8205 L1908.58 41.5461 L1918.87 41.5461 Q1924.58 41.5461 1927.7 38.5889 Q1930.82 35.6318 1930.82 30.163 Q1930.82 24.7348 1927.7 21.7777 Q1924.58 18.8205 1918.87 18.8205 L1908.58 18.8205 M1900.4 12.096 L1918.87 12.096 Q1929.04 12.096 1934.22 16.714 Q1939.45 21.2916 1939.45 30.163 Q1939.45 39.1155 1934.22 43.6931 Q1929.04 48.2706 1918.87 48.2706 L1908.58 48.2706 L1908.58 72.576 L1900.4 72.576 L1900.4 12.096 Z" fill="#000000" fill-rule="evenodd" fill-opacity="1" /><path clip-path="url(#clip530)" d="M1967 49.7694 Q1957.96 49.7694 1954.48 51.8354 Q1951 53.9013 1951 58.8839 Q1951 62.8538 1953.59 65.2034 Q1956.22 67.5124 1960.72 67.5124 Q1966.92 67.5124 1970.64 63.1374 Q1974.41 58.7219 1974.41 51.4303 L1974.41 49.7694 L1967 49.7694 M1981.86 46.6907 L1981.86 72.576 L1974.41 72.576 L1974.41 65.6895 Q1971.86 69.8214 1968.05 71.8063 Q1964.24 73.7508 1958.73 73.7508 Q1951.77 73.7508 1947.63 69.8619 Q1943.54 65.9325 1943.54 59.3701 Q1943.54 51.7138 1948.65 47.825 Q1953.79 43.9361 1963.96 43.9361 L1974.41 43.9361 L1974.41 43.2069 Q1974.41 38.0623 1971.01 35.2672 Q1967.64 32.4315 1961.53 32.4315 Q1957.64 32.4315 1953.95 33.3632 Q1950.27 34.295 1946.86 36.1584 L1946.86 29.2718 Q1950.95 27.692 1954.8 26.9223 Q1958.65 26.1121 1962.3 26.1121 Q1972.14 26.1121 1977 31.2163 Q1981.86 36.3204 1981.86 46.6907 Z" fill="#000000" fill-rule="evenodd" fill-opacity="1" /><path clip-path="url(#clip530)" d="M1996.04 9.62495 L2002.52 9.62495 Q2008.6 19.1851 2011.6 28.3401 Q2014.64 37.4952 2014.64 46.5287 Q2014.64 55.6027 2011.6 64.7983 Q2008.6 73.9938 2002.52 83.5134 L1996.04 83.5134 Q2001.43 74.2369 2004.06 65.0818 Q2006.74 55.8863 2006.74 46.5287 Q2006.74 37.1711 2004.06 28.0566 Q2001.43 18.942 1996.04 9.62495 Z" fill="#000000" fill-rule="evenodd" fill-opacity="1" /><polyline clip-path="url(#clip533)" style="stroke:#009af9; stroke-linecap:butt; stroke-linejoin:round; stroke-width:4; stroke-opacity:1; fill:none" points="
  2256.6,1320.22 2237.22,1306.71 2218.22,1293.21 2199.58,1279.71 2181.3,1266.2 2163.38,1252.7 2145.81,1239.2 2128.58,1225.69 2111.69,1212.19 2095.13,1198.69 
  2078.89,1185.18 2062.98,1171.68 2047.38,1158.18 2032.09,1144.67 2017.11,1131.17 2002.42,1117.67 1988.04,1104.16 1973.94,1090.66 1960.12,1077.15 1946.59,1063.65 
  1933.33,1050.15 1920.33,1036.64 1907.61,1023.14 1895.14,1009.64 1882.93,996.134 1870.98,982.63 1859.26,969.127 1847.79,955.623 1836.57,942.12 1825.57,928.616 
  1814.81,915.113 1804.28,901.609 1793.97,888.106 1783.88,874.602 1774,861.099 1764.34,847.595 1754.88,834.092 1745.63,820.588 1736.58,807.085 1727.72,793.581 
  1719.06,780.078 1710.58,766.574 1702.29,753.071 1694.18,739.567 1686.25,726.064 1678.49,712.56 1670.91,699.057 1663.49,685.553 1656.24,672.05 1649.14,658.546 
  1642.21,645.043 1635.43,631.539 1628.8,618.036 1622.32,604.532 1615.98,591.029 1609.79,577.525 1603.74,564.022 1597.82,550.518 1592.04,537.015 1586.39,523.511 
  1580.86,510.008 1575.46,496.504 1570.18,483.001 1565.02,469.497 1559.97,455.994 1555.04,442.49 1550.22,428.987 1545.5,415.483 1540.9,401.98 1536.41,388.476 
  1532.02,374.973 1527.73,361.469 1523.54,347.966 1519.46,334.463 1515.47,320.959 1511.58,307.456 1507.79,293.952 1504.08,280.449 1500.48,266.945 1496.96,253.442 
  1493.53,239.938 1490.19,226.435 
  "/>
<polyline clip-path="url(#clip533)" style="stroke:#e26f46; stroke-linecap:butt; stroke-linejoin:round; stroke-width:4; stroke-opacity:1; fill:none" points="
  2266.43,1326.97 2246.86,1313.47 2227.67,1299.96 2208.85,1286.46 2190.4,1272.96 2172.3,1259.45 2154.55,1245.95 2137.15,1232.44 2120.09,1218.94 2103.36,1205.44 
  2086.97,1191.93 2070.89,1178.43 2055.14,1164.93 2039.7,1151.42 2024.56,1137.92 2009.73,1124.42 1995.19,1110.91 1980.95,1097.41 1966.99,1083.91 1953.32,1070.4 
  1939.92,1056.9 1926.8,1043.4 1913.94,1029.89 1901.34,1016.39 1889.01,1002.89 1876.92,989.382 1865.09,975.878 1853.5,962.375 1842.15,948.871 1831.04,935.368 
  1820.16,921.864 1809.52,908.361 1799.09,894.857 1788.89,881.354 1778.91,867.85 1769.14,854.347 1759.58,840.843 1750.23,827.34 1741.08,813.836 1732.12,800.333 
  1723.36,786.829 1714.79,773.326 1706.41,759.822 1698.21,746.319 1690.19,732.816 1682.35,719.312 1674.68,705.809 1667.18,692.305 1659.84,678.802 1652.67,665.298 
  1645.66,651.795 1638.8,638.291 1632.1,624.788 1625.54,611.284 1619.13,597.781 1612.87,584.277 1606.75,570.774 1600.76,557.27 1594.91,543.767 1589.2,530.263 
  1583.61,516.76 1578.15,503.256 1572.81,489.753 1567.59,476.249 1562.48,462.746 1557.49,449.242 1552.61,435.739 1547.85,422.235 1543.19,408.732 1538.64,395.228 
  1534.2,381.725 1529.86,368.221 1525.62,354.718 1521.49,341.214 1517.45,327.711 1513.51,314.207 1509.67,300.704 1505.92,287.2 1502.27,273.697 1498.71,260.193 
  1495.23,246.69 1491.85,233.186 1488.56,219.683 
  "/>
<path clip-path="url(#clip530)" d="
M1998.37 381.108 L2262.28 381.108 L2262.28 225.588 L1998.37 225.588  Z
  " fill="#ffffff" fill-rule="evenodd" fill-opacity="1"/>
<polyline clip-path="url(#clip530)" style="stroke:#000000; stroke-linecap:butt; stroke-linejoin:round; stroke-width:4; stroke-opacity:1; fill:none" points="
  1998.37,381.108 2262.28,381.108 2262.28,225.588 1998.37,225.588 1998.37,381.108 
  "/>
<polyline clip-path="url(#clip530)" style="stroke:#009af9; stroke-linecap:butt; stroke-linejoin:round; stroke-width:4; stroke-opacity:1; fill:none" points="
  2007.53,277.428 2062.5,277.428 
  "/>
<path clip-path="url(#clip530)" d="M2092.17 269.778 L2092.17 273.759 Q2090.37 272.764 2088.54 272.278 Q2086.73 271.769 2084.88 271.769 Q2080.74 271.769 2078.45 274.408 Q2076.16 277.023 2076.16 281.769 Q2076.16 286.514 2078.45 289.153 Q2080.74 291.769 2084.88 291.769 Q2086.73 291.769 2088.54 291.282 Q2090.37 290.773 2092.17 289.778 L2092.17 293.713 Q2090.39 294.546 2088.47 294.963 Q2086.57 295.38 2084.42 295.38 Q2078.56 295.38 2075.11 291.699 Q2071.67 288.019 2071.67 281.769 Q2071.67 275.426 2075.14 271.792 Q2078.63 268.158 2084.7 268.158 Q2086.66 268.158 2088.54 268.574 Q2090.41 268.968 2092.17 269.778 Z" fill="#000000" fill-rule="evenodd" fill-opacity="1" /><path clip-path="url(#clip530)" d="M2121.76 280.681 L2121.76 282.764 L2102.17 282.764 Q2102.45 287.162 2104.81 289.477 Q2107.2 291.769 2111.43 291.769 Q2113.89 291.769 2116.18 291.167 Q2118.49 290.565 2120.76 289.361 L2120.76 293.389 Q2118.47 294.361 2116.06 294.87 Q2113.66 295.38 2111.18 295.38 Q2104.98 295.38 2101.34 291.769 Q2097.73 288.157 2097.73 282 Q2097.73 275.634 2101.16 271.908 Q2104.6 268.158 2110.44 268.158 Q2115.67 268.158 2118.7 271.537 Q2121.76 274.894 2121.76 280.681 M2117.5 279.431 Q2117.45 275.935 2115.53 273.852 Q2113.63 271.769 2110.48 271.769 Q2106.92 271.769 2104.77 273.783 Q2102.64 275.796 2102.31 279.454 L2117.5 279.431 Z" fill="#000000" fill-rule="evenodd" fill-opacity="1" /><path clip-path="url(#clip530)" d="M2150.3 279.06 L2150.3 294.708 L2146.04 294.708 L2146.04 279.199 Q2146.04 275.519 2144.6 273.69 Q2143.17 271.861 2140.3 271.861 Q2136.85 271.861 2134.86 274.06 Q2132.87 276.259 2132.87 280.056 L2132.87 294.708 L2128.59 294.708 L2128.59 268.783 L2132.87 268.783 L2132.87 272.81 Q2134.4 270.472 2136.46 269.315 Q2138.54 268.158 2141.25 268.158 Q2145.72 268.158 2148.01 270.935 Q2150.3 273.69 2150.3 279.06 Z" fill="#000000" fill-rule="evenodd" fill-opacity="1" /><path clip-path="url(#clip530)" d="M2163.01 261.422 L2163.01 268.783 L2171.78 268.783 L2171.78 272.093 L2163.01 272.093 L2163.01 286.167 Q2163.01 289.338 2163.86 290.241 Q2164.74 291.144 2167.41 291.144 L2171.78 291.144 L2171.78 294.708 L2167.41 294.708 Q2162.47 294.708 2160.6 292.88 Q2158.72 291.028 2158.72 286.167 L2158.72 272.093 L2155.6 272.093 L2155.6 268.783 L2158.72 268.783 L2158.72 261.422 L2163.01 261.422 Z" fill="#000000" fill-rule="evenodd" fill-opacity="1" /><path clip-path="url(#clip530)" d="M2199.56 280.681 L2199.56 282.764 L2179.97 282.764 Q2180.25 287.162 2182.61 289.477 Q2185 291.769 2189.23 291.769 Q2191.69 291.769 2193.98 291.167 Q2196.29 290.565 2198.56 289.361 L2198.56 293.389 Q2196.27 294.361 2193.86 294.87 Q2191.46 295.38 2188.98 295.38 Q2182.78 295.38 2179.14 291.769 Q2175.53 288.157 2175.53 282 Q2175.53 275.634 2178.96 271.908 Q2182.41 268.158 2188.24 268.158 Q2193.47 268.158 2196.5 271.537 Q2199.56 274.894 2199.56 280.681 M2195.3 279.431 Q2195.25 275.935 2193.33 273.852 Q2191.43 271.769 2188.28 271.769 Q2184.72 271.769 2182.57 273.783 Q2180.44 275.796 2180.11 279.454 L2195.3 279.431 Z" fill="#000000" fill-rule="evenodd" fill-opacity="1" /><path clip-path="url(#clip530)" d="M2221.57 272.764 Q2220.85 272.347 2220 272.162 Q2219.16 271.954 2218.15 271.954 Q2214.53 271.954 2212.59 274.315 Q2210.67 276.653 2210.67 281.051 L2210.67 294.708 L2206.39 294.708 L2206.39 268.783 L2210.67 268.783 L2210.67 272.81 Q2212.01 270.449 2214.16 269.315 Q2216.32 268.158 2219.4 268.158 Q2219.84 268.158 2220.37 268.227 Q2220.9 268.273 2221.55 268.389 L2221.57 272.764 Z" fill="#000000" fill-rule="evenodd" fill-opacity="1" /><path clip-path="url(#clip530)" d="M2242.57 269.546 L2242.57 273.574 Q2240.76 272.648 2238.82 272.185 Q2236.87 271.722 2234.79 271.722 Q2231.62 271.722 2230.02 272.695 Q2228.45 273.667 2228.45 275.611 Q2228.45 277.093 2229.58 277.949 Q2230.72 278.783 2234.14 279.546 L2235.6 279.87 Q2240.14 280.843 2242.03 282.625 Q2243.96 284.384 2243.96 287.556 Q2243.96 291.167 2241.09 293.273 Q2238.24 295.38 2233.24 295.38 Q2231.15 295.38 2228.89 294.963 Q2226.64 294.569 2224.14 293.759 L2224.14 289.361 Q2226.5 290.588 2228.79 291.213 Q2231.09 291.815 2233.33 291.815 Q2236.34 291.815 2237.96 290.796 Q2239.58 289.755 2239.58 287.88 Q2239.58 286.144 2238.4 285.218 Q2237.24 284.292 2233.28 283.435 L2231.8 283.088 Q2227.84 282.255 2226.09 280.542 Q2224.33 278.806 2224.33 275.796 Q2224.33 272.139 2226.92 270.148 Q2229.51 268.158 2234.28 268.158 Q2236.64 268.158 2238.72 268.505 Q2240.81 268.852 2242.57 269.546 Z" fill="#000000" fill-rule="evenodd" fill-opacity="1" /><polyline clip-path="url(#clip530)" style="stroke:#e26f46; stroke-linecap:butt; stroke-linejoin:round; stroke-width:4; stroke-opacity:1; fill:none" points="
  2007.53,329.268 2062.5,329.268 
  "/>
<path clip-path="url(#clip530)" d="M2088.17 310.53 L2088.17 314.072 L2084.1 314.072 Q2081.8 314.072 2080.9 314.998 Q2080.02 315.924 2080.02 318.331 L2080.02 320.623 L2087.04 320.623 L2087.04 323.933 L2080.02 323.933 L2080.02 346.548 L2075.74 346.548 L2075.74 323.933 L2071.67 323.933 L2071.67 320.623 L2075.74 320.623 L2075.74 318.817 Q2075.74 314.488 2077.75 312.521 Q2079.77 310.53 2084.14 310.53 L2088.17 310.53 Z" fill="#000000" fill-rule="evenodd" fill-opacity="1" /><path clip-path="url(#clip530)" d="M2103.52 333.516 Q2098.35 333.516 2096.36 334.697 Q2094.37 335.877 2094.37 338.724 Q2094.37 340.993 2095.85 342.335 Q2097.36 343.655 2099.93 343.655 Q2103.47 343.655 2105.6 341.155 Q2107.75 338.632 2107.75 334.465 L2107.75 333.516 L2103.52 333.516 M2112.01 331.757 L2112.01 346.548 L2107.75 346.548 L2107.75 342.613 Q2106.29 344.974 2104.12 346.109 Q2101.94 347.22 2098.79 347.22 Q2094.81 347.22 2092.45 344.997 Q2090.11 342.752 2090.11 339.002 Q2090.11 334.627 2093.03 332.405 Q2095.97 330.183 2101.78 330.183 L2107.75 330.183 L2107.75 329.766 Q2107.75 326.826 2105.81 325.229 Q2103.89 323.609 2100.39 323.609 Q2098.17 323.609 2096.06 324.141 Q2093.96 324.673 2092.01 325.738 L2092.01 321.803 Q2094.35 320.9 2096.55 320.461 Q2098.75 319.998 2100.83 319.998 Q2106.46 319.998 2109.23 322.914 Q2112.01 325.831 2112.01 331.757 Z" fill="#000000" fill-rule="evenodd" fill-opacity="1" /><path clip-path="url(#clip530)" d="M2139.44 321.618 L2139.44 325.599 Q2137.64 324.604 2135.81 324.118 Q2134 323.609 2132.15 323.609 Q2128.01 323.609 2125.72 326.248 Q2123.42 328.863 2123.42 333.609 Q2123.42 338.354 2125.72 340.993 Q2128.01 343.609 2132.15 343.609 Q2134 343.609 2135.81 343.122 Q2137.64 342.613 2139.44 341.618 L2139.44 345.553 Q2137.66 346.386 2135.74 346.803 Q2133.84 347.22 2131.69 347.22 Q2125.83 347.22 2122.38 343.539 Q2118.93 339.859 2118.93 333.609 Q2118.93 327.266 2122.41 323.632 Q2125.9 319.998 2131.97 319.998 Q2133.93 319.998 2135.81 320.414 Q2137.68 320.808 2139.44 321.618 Z" fill="#000000" fill-rule="evenodd" fill-opacity="1" /><path clip-path="url(#clip530)" d="M2169.03 332.521 L2169.03 334.604 L2149.44 334.604 Q2149.72 339.002 2152.08 341.317 Q2154.47 343.609 2158.7 343.609 Q2161.16 343.609 2163.45 343.007 Q2165.76 342.405 2168.03 341.201 L2168.03 345.229 Q2165.74 346.201 2163.33 346.71 Q2160.92 347.22 2158.45 347.22 Q2152.24 347.22 2148.61 343.609 Q2145 339.997 2145 333.84 Q2145 327.474 2148.42 323.748 Q2151.87 319.998 2157.71 319.998 Q2162.94 319.998 2165.97 323.377 Q2169.03 326.734 2169.03 332.521 M2164.77 331.271 Q2164.72 327.775 2162.8 325.692 Q2160.9 323.609 2157.75 323.609 Q2154.19 323.609 2152.03 325.623 Q2149.91 327.636 2149.58 331.294 L2164.77 331.271 Z" fill="#000000" fill-rule="evenodd" fill-opacity="1" /><path clip-path="url(#clip530)" d="M2192.54 321.386 L2192.54 325.414 Q2190.74 324.488 2188.79 324.025 Q2186.85 323.562 2184.77 323.562 Q2181.59 323.562 2180 324.535 Q2178.42 325.507 2178.42 327.451 Q2178.42 328.933 2179.56 329.789 Q2180.69 330.623 2184.12 331.386 L2185.58 331.71 Q2190.11 332.683 2192.01 334.465 Q2193.93 336.224 2193.93 339.396 Q2193.93 343.007 2191.06 345.113 Q2188.22 347.22 2183.22 347.22 Q2181.13 347.22 2178.86 346.803 Q2176.62 346.409 2174.12 345.599 L2174.12 341.201 Q2176.48 342.428 2178.77 343.053 Q2181.06 343.655 2183.31 343.655 Q2186.32 343.655 2187.94 342.636 Q2189.56 341.595 2189.56 339.72 Q2189.56 337.984 2188.38 337.058 Q2187.22 336.132 2183.26 335.275 L2181.78 334.928 Q2177.82 334.095 2176.06 332.382 Q2174.3 330.646 2174.3 327.636 Q2174.3 323.979 2176.9 321.988 Q2179.49 319.998 2184.26 319.998 Q2186.62 319.998 2188.7 320.345 Q2190.78 320.692 2192.54 321.386 Z" fill="#000000" fill-rule="evenodd" fill-opacity="1" /></svg>
