<?xml version="1.0" encoding="utf-8"?>
<svg xmlns="http://www.w3.org/2000/svg" xmlns:xlink="http://www.w3.org/1999/xlink" width="1000" height="400" viewBox="0 0 4000 1600">
<defs>
  <clipPath id="clip820">
    <rect x="0" y="0" width="4000" height="1600"/>
  </clipPath>
</defs>
<path clip-path="url(#clip820)" d="
M0 1600 L4000 1600 L4000 0 L0 0  Z
  " fill="#ffffff" fill-rule="evenodd" fill-opacity="1"/>
<defs>
  <clipPath id="clip821">
    <rect x="800" y="0" width="2801" height="1600"/>
  </clipPath>
</defs>
<path clip-path="url(#clip820)" d="
M307.443 1393.02 L1889.76 1393.02 L1889.76 162.272 L307.443 162.272  Z
  " fill="#ffffff" fill-rule="evenodd" fill-opacity="1"/>
<defs>
  <clipPath id="clip822">
    <rect x="307" y="162" width="1583" height="1232"/>
  </clipPath>
</defs>
<polyline clip-path="url(#clip822)" style="stroke:#000000; stroke-linecap:butt; stroke-linejoin:round; stroke-width:2; stroke-opacity:0.1; fill:none" points="
  487.362,1393.02 487.362,162.272 
  "/>
<polyline clip-path="url(#clip822)" style="stroke:#000000; stroke-linecap:butt; stroke-linejoin:round; stroke-width:2; stroke-opacity:0.1; fill:none" points="
  687.862,1393.02 687.862,162.272 
  "/>
<polyline clip-path="url(#clip822)" style="stroke:#000000; stroke-linecap:butt; stroke-linejoin:round; stroke-width:2; stroke-opacity:0.1; fill:none" points="
  888.361,1393.02 888.361,162.272 
  "/>
<polyline clip-path="url(#clip822)" style="stroke:#000000; stroke-linecap:butt; stroke-linejoin:round; stroke-width:2; stroke-opacity:0.1; fill:none" points="
  1088.86,1393.02 1088.86,162.272 
  "/>
<polyline clip-path="url(#clip822)" style="stroke:#000000; stroke-linecap:butt; stroke-linejoin:round; stroke-width:2; stroke-opacity:0.1; fill:none" points="
  1289.36,1393.02 1289.36,162.272 
  "/>
<polyline clip-path="url(#clip822)" style="stroke:#000000; stroke-linecap:butt; stroke-linejoin:round; stroke-width:2; stroke-opacity:0.1; fill:none" points="
  1489.86,1393.02 1489.86,162.272 
  "/>
<polyline clip-path="url(#clip822)" style="stroke:#000000; stroke-linecap:butt; stroke-linejoin:round; stroke-width:2; stroke-opacity:0.1; fill:none" points="
  1690.36,1393.02 1690.36,162.272 
  "/>
<polyline clip-path="url(#clip820)" style="stroke:#000000; stroke-linecap:butt; stroke-linejoin:round; stroke-width:4; stroke-opacity:1; fill:none" points="
  307.443,1393.02 1889.76,1393.02 
  "/>
<polyline clip-path="url(#clip820)" style="stroke:#000000; stroke-linecap:butt; stroke-linejoin:round; stroke-width:4; stroke-opacity:1; fill:none" points="
  487.362,1393.02 487.362,1374.12 
  "/>
<polyline clip-path="url(#clip820)" style="stroke:#000000; stroke-linecap:butt; stroke-linejoin:round; stroke-width:4; stroke-opacity:1; fill:none" points="
  687.862,1393.02 687.862,1374.12 
  "/>
<polyline clip-path="url(#clip820)" style="stroke:#000000; stroke-linecap:butt; stroke-linejoin:round; stroke-width:4; stroke-opacity:1; fill:none" points="
  888.361,1393.02 888.361,1374.12 
  "/>
<polyline clip-path="url(#clip820)" style="stroke:#000000; stroke-linecap:butt; stroke-linejoin:round; stroke-width:4; stroke-opacity:1; fill:none" points="
  1088.86,1393.02 1088.86,1374.12 
  "/>
<polyline clip-path="url(#clip820)" style="stroke:#000000; stroke-linecap:butt; stroke-linejoin:round; stroke-width:4; stroke-opacity:1; fill:none" points="
  1289.36,1393.02 1289.36,1374.12 
  "/>
<polyline clip-path="url(#clip820)" style="stroke:#000000; stroke-linecap:butt; stroke-linejoin:round; stroke-width:4; stroke-opacity:1; fill:none" points="
  1489.86,1393.02 1489.86,1374.12 
  "/>
<polyline clip-path="url(#clip820)" style="stroke:#000000; stroke-linecap:butt; stroke-linejoin:round; stroke-width:4; stroke-opacity:1; fill:none" points="
  1690.36,1393.02 1690.36,1374.12 
  "/>
<path clip-path="url(#clip820)" d="M465.244 1436.74 Q461.633 1436.74 459.804 1440.3 Q457.999 1443.84 457.999 1450.97 Q457.999 1458.08 459.804 1461.65 Q461.633 1465.19 465.244 1465.19 Q468.878 1465.19 470.684 1461.65 Q472.512 1458.08 472.512 1450.97 Q472.512 1443.84 470.684 1440.3 Q468.878 1436.74 465.244 1436.74 M465.244 1433.03 Q471.054 1433.03 474.11 1437.64 Q477.188 1442.22 477.188 1450.97 Q477.188 1459.7 474.11 1464.31 Q471.054 1468.89 465.244 1468.89 Q459.434 1468.89 456.355 1464.31 Q453.3 1459.7 453.3 1450.97 Q453.3 1442.22 456.355 1437.64 Q459.434 1433.03 465.244 1433.03 Z" fill="#000000" fill-rule="evenodd" fill-opacity="1" /><path clip-path="url(#clip820)" d="M485.406 1462.34 L490.29 1462.34 L490.29 1468.22 L485.406 1468.22 L485.406 1462.34 Z" fill="#000000" fill-rule="evenodd" fill-opacity="1" /><path clip-path="url(#clip820)" d="M500.522 1433.66 L518.878 1433.66 L518.878 1437.59 L504.804 1437.59 L504.804 1446.07 Q505.822 1445.72 506.841 1445.56 Q507.86 1445.37 508.878 1445.37 Q514.665 1445.37 518.045 1448.54 Q521.424 1451.72 521.424 1457.13 Q521.424 1462.71 517.952 1465.81 Q514.48 1468.89 508.16 1468.89 Q505.985 1468.89 503.716 1468.52 Q501.471 1468.15 499.063 1467.41 L499.063 1462.71 Q501.147 1463.84 503.369 1464.4 Q505.591 1464.96 508.068 1464.96 Q512.072 1464.96 514.41 1462.85 Q516.748 1460.74 516.748 1457.13 Q516.748 1453.52 514.41 1451.41 Q512.072 1449.31 508.068 1449.31 Q506.193 1449.31 504.318 1449.72 Q502.466 1450.14 500.522 1451.02 L500.522 1433.66 Z" fill="#000000" fill-rule="evenodd" fill-opacity="1" /><path clip-path="url(#clip820)" d="M665.165 1436.74 Q661.554 1436.74 659.725 1440.3 Q657.92 1443.84 657.92 1450.97 Q657.92 1458.08 659.725 1461.65 Q661.554 1465.19 665.165 1465.19 Q668.799 1465.19 670.605 1461.65 Q672.433 1458.08 672.433 1450.97 Q672.433 1443.84 670.605 1440.3 Q668.799 1436.74 665.165 1436.74 M665.165 1433.03 Q670.975 1433.03 674.031 1437.64 Q677.109 1442.22 677.109 1450.97 Q677.109 1459.7 674.031 1464.31 Q670.975 1468.89 665.165 1468.89 Q659.355 1468.89 656.276 1464.31 Q653.22 1459.7 653.22 1450.97 Q653.22 1442.22 656.276 1437.64 Q659.355 1433.03 665.165 1433.03 Z" fill="#000000" fill-rule="evenodd" fill-opacity="1" /><path clip-path="url(#clip820)" d="M685.327 1462.34 L690.211 1462.34 L690.211 1468.22 L685.327 1468.22 L685.327 1462.34 Z" fill="#000000" fill-rule="evenodd" fill-opacity="1" /><path clip-path="url(#clip820)" d="M710.975 1449.08 Q707.827 1449.08 705.975 1451.23 Q704.146 1453.38 704.146 1457.13 Q704.146 1460.86 705.975 1463.03 Q707.827 1465.19 710.975 1465.19 Q714.123 1465.19 715.952 1463.03 Q717.803 1460.86 717.803 1457.13 Q717.803 1453.38 715.952 1451.23 Q714.123 1449.08 710.975 1449.08 M720.257 1434.42 L720.257 1438.68 Q718.498 1437.85 716.692 1437.41 Q714.91 1436.97 713.151 1436.97 Q708.521 1436.97 706.067 1440.09 Q703.637 1443.22 703.29 1449.54 Q704.655 1447.53 706.716 1446.46 Q708.776 1445.37 711.253 1445.37 Q716.461 1445.37 719.47 1448.54 Q722.503 1451.69 722.503 1457.13 Q722.503 1462.46 719.354 1465.67 Q716.206 1468.89 710.975 1468.89 Q704.979 1468.89 701.808 1464.31 Q698.637 1459.7 698.637 1450.97 Q698.637 1442.78 702.526 1437.92 Q706.415 1433.03 712.966 1433.03 Q714.725 1433.03 716.507 1433.38 Q718.313 1433.73 720.257 1434.42 Z" fill="#000000" fill-rule="evenodd" fill-opacity="1" /><path clip-path="url(#clip820)" d="M866.197 1436.74 Q862.586 1436.74 860.757 1440.3 Q858.952 1443.84 858.952 1450.97 Q858.952 1458.08 860.757 1461.65 Q862.586 1465.19 866.197 1465.19 Q869.831 1465.19 871.637 1461.65 Q873.465 1458.08 873.465 1450.97 Q873.465 1443.84 871.637 1440.3 Q869.831 1436.74 866.197 1436.74 M866.197 1433.03 Q872.007 1433.03 875.063 1437.64 Q878.141 1442.22 878.141 1450.97 Q878.141 1459.7 875.063 1464.31 Q872.007 1468.89 866.197 1468.89 Q860.387 1468.89 857.308 1464.31 Q854.252 1459.7 854.252 1450.97 Q854.252 1442.22 857.308 1437.64 Q860.387 1433.03 866.197 1433.03 Z" fill="#000000" fill-rule="evenodd" fill-opacity="1" /><path clip-path="url(#clip820)" d="M886.359 1462.34 L891.243 1462.34 L891.243 1468.22 L886.359 1468.22 L886.359 1462.34 Z" fill="#000000" fill-rule="evenodd" fill-opacity="1" /><path clip-path="url(#clip820)" d="M900.248 1433.66 L922.47 1433.66 L922.47 1435.65 L909.923 1468.22 L905.039 1468.22 L916.845 1437.59 L900.248 1437.59 L900.248 1433.66 Z" fill="#000000" fill-rule="evenodd" fill-opacity="1" /><path clip-path="url(#clip820)" d="M1066.29 1436.74 Q1062.68 1436.74 1060.85 1440.3 Q1059.05 1443.84 1059.05 1450.97 Q1059.05 1458.08 1060.85 1461.65 Q1062.68 1465.19 1066.29 1465.19 Q1069.93 1465.19 1071.73 1461.65 Q1073.56 1458.08 1073.56 1450.97 Q1073.56 1443.84 1071.73 1440.3 Q1069.93 1436.74 1066.29 1436.74 M1066.29 1433.03 Q1072.1 1433.03 1075.16 1437.64 Q1078.24 1442.22 1078.24 1450.97 Q1078.24 1459.7 1075.16 1464.31 Q1072.1 1468.89 1066.29 1468.89 Q1060.48 1468.89 1057.4 1464.31 Q1054.35 1459.7 1054.35 1450.97 Q1054.35 1442.22 1057.4 1437.64 Q1060.48 1433.03 1066.29 1433.03 Z" fill="#000000" fill-rule="evenodd" fill-opacity="1" /><path clip-path="url(#clip820)" d="M1086.45 1462.34 L1091.34 1462.34 L1091.34 1468.22 L1086.45 1468.22 L1086.45 1462.34 Z" fill="#000000" fill-rule="evenodd" fill-opacity="1" /><path clip-path="url(#clip820)" d="M1111.52 1451.81 Q1108.19 1451.81 1106.27 1453.59 Q1104.37 1455.37 1104.37 1458.5 Q1104.37 1461.62 1106.27 1463.4 Q1108.19 1465.19 1111.52 1465.19 Q1114.86 1465.19 1116.78 1463.4 Q1118.7 1461.6 1118.7 1458.5 Q1118.7 1455.37 1116.78 1453.59 Q1114.88 1451.81 1111.52 1451.81 M1106.85 1449.82 Q1103.84 1449.08 1102.15 1447.02 Q1100.48 1444.96 1100.48 1441.99 Q1100.48 1437.85 1103.42 1435.44 Q1106.38 1433.03 1111.52 1433.03 Q1116.68 1433.03 1119.62 1435.44 Q1122.56 1437.85 1122.56 1441.99 Q1122.56 1444.96 1120.87 1447.02 Q1119.21 1449.08 1116.22 1449.82 Q1119.6 1450.6 1121.48 1452.9 Q1123.37 1455.19 1123.37 1458.5 Q1123.37 1463.52 1120.3 1466.21 Q1117.24 1468.89 1111.52 1468.89 Q1105.8 1468.89 1102.73 1466.21 Q1099.67 1463.52 1099.67 1458.5 Q1099.67 1455.19 1101.57 1452.9 Q1103.47 1450.6 1106.85 1449.82 M1105.13 1442.43 Q1105.13 1445.12 1106.8 1446.62 Q1108.49 1448.13 1111.52 1448.13 Q1114.53 1448.13 1116.22 1446.62 Q1117.93 1445.12 1117.93 1442.43 Q1117.93 1439.75 1116.22 1438.24 Q1114.53 1436.74 1111.52 1436.74 Q1108.49 1436.74 1106.8 1438.24 Q1105.13 1439.75 1105.13 1442.43 Z" fill="#000000" fill-rule="evenodd" fill-opacity="1" /><path clip-path="url(#clip820)" d="M1266.84 1436.74 Q1263.23 1436.74 1261.4 1440.3 Q1259.59 1443.84 1259.59 1450.97 Q1259.59 1458.08 1261.4 1461.65 Q1263.23 1465.19 1266.84 1465.19 Q1270.47 1465.19 1272.28 1461.65 Q1274.11 1458.08 1274.11 1450.97 Q1274.11 1443.84 1272.28 1440.3 Q1270.47 1436.74 1266.84 1436.74 M1266.84 1433.03 Q1272.65 1433.03 1275.7 1437.64 Q1278.78 1442.22 1278.78 1450.97 Q1278.78 1459.7 1275.7 1464.31 Q1272.65 1468.89 1266.84 1468.89 Q1261.03 1468.89 1257.95 1464.31 Q1254.89 1459.7 1254.89 1450.97 Q1254.89 1442.22 1257.95 1437.64 Q1261.03 1433.03 1266.84 1433.03 Z" fill="#000000" fill-rule="evenodd" fill-opacity="1" /><path clip-path="url(#clip820)" d="M1287 1462.34 L1291.88 1462.34 L1291.88 1468.22 L1287 1468.22 L1287 1462.34 Z" fill="#000000" fill-rule="evenodd" fill-opacity="1" /><path clip-path="url(#clip820)" d="M1302.21 1467.5 L1302.21 1463.24 Q1303.97 1464.08 1305.77 1464.52 Q1307.58 1464.96 1309.31 1464.96 Q1313.94 1464.96 1316.37 1461.85 Q1318.83 1458.73 1319.17 1452.39 Q1317.83 1454.38 1315.77 1455.44 Q1313.71 1456.51 1311.21 1456.51 Q1306.03 1456.51 1302.99 1453.38 Q1299.99 1450.23 1299.99 1444.79 Q1299.99 1439.47 1303.13 1436.25 Q1306.28 1433.03 1311.51 1433.03 Q1317.51 1433.03 1320.66 1437.64 Q1323.83 1442.22 1323.83 1450.97 Q1323.83 1459.15 1319.94 1464.03 Q1316.07 1468.89 1309.52 1468.89 Q1307.76 1468.89 1305.96 1468.54 Q1304.15 1468.2 1302.21 1467.5 M1311.51 1452.85 Q1314.66 1452.85 1316.49 1450.7 Q1318.34 1448.54 1318.34 1444.79 Q1318.34 1441.07 1316.49 1438.91 Q1314.66 1436.74 1311.51 1436.74 Q1308.36 1436.74 1306.51 1438.91 Q1304.68 1441.07 1304.68 1444.79 Q1304.68 1448.54 1306.51 1450.7 Q1308.36 1452.85 1311.51 1452.85 Z" fill="#000000" fill-rule="evenodd" fill-opacity="1" /><path clip-path="url(#clip820)" d="M1457.01 1464.28 L1464.65 1464.28 L1464.65 1437.92 L1456.34 1439.59 L1456.34 1435.33 L1464.61 1433.66 L1469.28 1433.66 L1469.28 1464.28 L1476.92 1464.28 L1476.92 1468.22 L1457.01 1468.22 L1457.01 1464.28 Z" fill="#000000" fill-rule="evenodd" fill-opacity="1" /><path clip-path="url(#clip820)" d="M1486.36 1462.34 L1491.25 1462.34 L1491.25 1468.22 L1486.36 1468.22 L1486.36 1462.34 Z" fill="#000000" fill-rule="evenodd" fill-opacity="1" /><path clip-path="url(#clip820)" d="M1511.43 1436.74 Q1507.82 1436.74 1505.99 1440.3 Q1504.19 1443.84 1504.19 1450.97 Q1504.19 1458.08 1505.99 1461.65 Q1507.82 1465.19 1511.43 1465.19 Q1515.07 1465.19 1516.87 1461.65 Q1518.7 1458.08 1518.7 1450.97 Q1518.7 1443.84 1516.87 1440.3 Q1515.07 1436.74 1511.43 1436.74 M1511.43 1433.03 Q1517.24 1433.03 1520.3 1437.64 Q1523.38 1442.22 1523.38 1450.97 Q1523.38 1459.7 1520.3 1464.31 Q1517.24 1468.89 1511.43 1468.89 Q1505.62 1468.89 1502.54 1464.31 Q1499.49 1459.7 1499.49 1450.97 Q1499.49 1442.22 1502.54 1437.64 Q1505.62 1433.03 1511.43 1433.03 Z" fill="#000000" fill-rule="evenodd" fill-opacity="1" /><path clip-path="url(#clip820)" d="M1658.13 1464.28 L1665.76 1464.28 L1665.76 1437.92 L1657.45 1439.59 L1657.45 1435.33 L1665.72 1433.66 L1670.39 1433.66 L1670.39 1464.28 L1678.03 1464.28 L1678.03 1468.22 L1658.13 1468.22 L1658.13 1464.28 Z" fill="#000000" fill-rule="evenodd" fill-opacity="1" /><path clip-path="url(#clip820)" d="M1687.48 1462.34 L1692.36 1462.34 L1692.36 1468.22 L1687.48 1468.22 L1687.48 1462.34 Z" fill="#000000" fill-rule="evenodd" fill-opacity="1" /><path clip-path="url(#clip820)" d="M1703.36 1464.28 L1711 1464.28 L1711 1437.92 L1702.69 1439.59 L1702.69 1435.33 L1710.95 1433.66 L1715.63 1433.66 L1715.63 1464.28 L1723.26 1464.28 L1723.26 1468.22 L1703.36 1468.22 L1703.36 1464.28 Z" fill="#000000" fill-rule="evenodd" fill-opacity="1" /><path clip-path="url(#clip820)" d="M1085.52 1532.6 Q1087.46 1529.35 1092.27 1526.49 Q1094.15 1525.38 1099.94 1525.38 Q1106.43 1525.38 1110.48 1530.53 Q1114.55 1535.69 1114.55 1544.09 Q1114.55 1552.49 1110.48 1557.65 Q1106.43 1562.81 1099.94 1562.81 Q1096.03 1562.81 1093.19 1561.28 Q1090.39 1559.72 1088.55 1556.54 L1088.55 1575.44 L1082.66 1575.44 L1082.66 1544.41 Q1082.66 1537.06 1085.52 1532.6 M1108.47 1544.09 Q1108.47 1537.63 1105.8 1533.97 Q1103.15 1530.28 1098.51 1530.28 Q1093.86 1530.28 1091.19 1533.97 Q1088.55 1537.63 1088.55 1544.09 Q1088.55 1550.55 1091.19 1554.24 Q1093.86 1557.91 1098.51 1557.91 Q1103.15 1557.91 1105.8 1554.24 Q1108.47 1550.55 1108.47 1544.09 Z" fill="#000000" fill-rule="evenodd" fill-opacity="1" /><polyline clip-path="url(#clip822)" style="stroke:#000000; stroke-linecap:butt; stroke-linejoin:round; stroke-width:2; stroke-opacity:0.1; fill:none" points="
  307.443,1358.19 1889.76,1358.19 
  "/>
<polyline clip-path="url(#clip822)" style="stroke:#000000; stroke-linecap:butt; stroke-linejoin:round; stroke-width:2; stroke-opacity:0.1; fill:none" points="
  307.443,1067.92 1889.76,1067.92 
  "/>
<polyline clip-path="url(#clip822)" style="stroke:#000000; stroke-linecap:butt; stroke-linejoin:round; stroke-width:2; stroke-opacity:0.1; fill:none" points="
  307.443,777.646 1889.76,777.646 
  "/>
<polyline clip-path="url(#clip822)" style="stroke:#000000; stroke-linecap:butt; stroke-linejoin:round; stroke-width:2; stroke-opacity:0.1; fill:none" points="
  307.443,487.375 1889.76,487.375 
  "/>
<polyline clip-path="url(#clip822)" style="stroke:#000000; stroke-linecap:butt; stroke-linejoin:round; stroke-width:2; stroke-opacity:0.1; fill:none" points="
  307.443,197.105 1889.76,197.105 
  "/>
<polyline clip-path="url(#clip820)" style="stroke:#000000; stroke-linecap:butt; stroke-linejoin:round; stroke-width:4; stroke-opacity:1; fill:none" points="
  307.443,1393.02 307.443,162.272 
  "/>
<polyline clip-path="url(#clip820)" style="stroke:#000000; stroke-linecap:butt; stroke-linejoin:round; stroke-width:4; stroke-opacity:1; fill:none" points="
  307.443,1358.19 326.34,1358.19 
  "/>
<polyline clip-path="url(#clip820)" style="stroke:#000000; stroke-linecap:butt; stroke-linejoin:round; stroke-width:4; stroke-opacity:1; fill:none" points="
  307.443,1067.92 326.34,1067.92 
  "/>
<polyline clip-path="url(#clip820)" style="stroke:#000000; stroke-linecap:butt; stroke-linejoin:round; stroke-width:4; stroke-opacity:1; fill:none" points="
  307.443,777.646 326.34,777.646 
  "/>
<polyline clip-path="url(#clip820)" style="stroke:#000000; stroke-linecap:butt; stroke-linejoin:round; stroke-width:4; stroke-opacity:1; fill:none" points="
  307.443,487.375 326.34,487.375 
  "/>
<polyline clip-path="url(#clip820)" style="stroke:#000000; stroke-linecap:butt; stroke-linejoin:round; stroke-width:4; stroke-opacity:1; fill:none" points="
  307.443,197.105 326.34,197.105 
  "/>
<path clip-path="url(#clip820)" d="M190.267 1343.99 Q186.656 1343.99 184.827 1347.55 Q183.022 1351.09 183.022 1358.22 Q183.022 1365.33 184.827 1368.89 Q186.656 1372.43 190.267 1372.43 Q193.901 1372.43 195.707 1368.89 Q197.536 1365.33 197.536 1358.22 Q197.536 1351.09 195.707 1347.55 Q193.901 1343.99 190.267 1343.99 M190.267 1340.28 Q196.077 1340.28 199.133 1344.89 Q202.212 1349.47 202.212 1358.22 Q202.212 1366.95 199.133 1371.56 Q196.077 1376.14 190.267 1376.14 Q184.457 1376.14 181.378 1371.56 Q178.323 1366.95 178.323 1358.22 Q178.323 1349.47 181.378 1344.89 Q184.457 1340.28 190.267 1340.28 Z" fill="#000000" fill-rule="evenodd" fill-opacity="1" /><path clip-path="url(#clip820)" d="M210.429 1369.59 L215.313 1369.59 L215.313 1375.47 L210.429 1375.47 L210.429 1369.59 Z" fill="#000000" fill-rule="evenodd" fill-opacity="1" /><path clip-path="url(#clip820)" d="M235.498 1343.99 Q231.887 1343.99 230.059 1347.55 Q228.253 1351.09 228.253 1358.22 Q228.253 1365.33 230.059 1368.89 Q231.887 1372.43 235.498 1372.43 Q239.133 1372.43 240.938 1368.89 Q242.767 1365.33 242.767 1358.22 Q242.767 1351.09 240.938 1347.55 Q239.133 1343.99 235.498 1343.99 M235.498 1340.28 Q241.309 1340.28 244.364 1344.89 Q247.443 1349.47 247.443 1358.22 Q247.443 1366.95 244.364 1371.56 Q241.309 1376.14 235.498 1376.14 Q229.688 1376.14 226.61 1371.56 Q223.554 1366.95 223.554 1358.22 Q223.554 1349.47 226.61 1344.89 Q229.688 1340.28 235.498 1340.28 Z" fill="#000000" fill-rule="evenodd" fill-opacity="1" /><path clip-path="url(#clip820)" d="M185.29 1081.26 L201.61 1081.26 L201.61 1085.2 L179.665 1085.2 L179.665 1081.26 Q182.327 1078.51 186.911 1073.88 Q191.517 1069.22 192.698 1067.88 Q194.943 1065.36 195.823 1063.62 Q196.726 1061.86 196.726 1060.17 Q196.726 1057.42 194.781 1055.68 Q192.86 1053.95 189.758 1053.95 Q187.559 1053.95 185.105 1054.71 Q182.675 1055.47 179.897 1057.03 L179.897 1052.3 Q182.721 1051.17 185.175 1050.59 Q187.628 1050.01 189.665 1050.01 Q195.036 1050.01 198.23 1052.7 Q201.425 1055.38 201.425 1059.87 Q201.425 1062 200.614 1063.92 Q199.827 1065.82 197.721 1068.41 Q197.142 1069.09 194.04 1072.3 Q190.939 1075.5 185.29 1081.26 Z" fill="#000000" fill-rule="evenodd" fill-opacity="1" /><path clip-path="url(#clip820)" d="M211.425 1079.32 L216.309 1079.32 L216.309 1085.2 L211.425 1085.2 L211.425 1079.32 Z" fill="#000000" fill-rule="evenodd" fill-opacity="1" /><path clip-path="url(#clip820)" d="M226.54 1050.64 L244.897 1050.64 L244.897 1054.57 L230.823 1054.57 L230.823 1063.04 Q231.841 1062.7 232.86 1062.53 Q233.878 1062.35 234.897 1062.35 Q240.684 1062.35 244.063 1065.52 Q247.443 1068.69 247.443 1074.11 Q247.443 1079.69 243.971 1082.79 Q240.498 1085.87 234.179 1085.87 Q232.003 1085.87 229.735 1085.5 Q227.489 1085.13 225.082 1084.39 L225.082 1079.69 Q227.165 1080.82 229.387 1081.38 Q231.61 1081.93 234.086 1081.93 Q238.091 1081.93 240.429 1079.83 Q242.767 1077.72 242.767 1074.11 Q242.767 1070.5 240.429 1068.39 Q238.091 1066.28 234.086 1066.28 Q232.211 1066.28 230.336 1066.7 Q228.485 1067.12 226.54 1068 L226.54 1050.64 Z" fill="#000000" fill-rule="evenodd" fill-opacity="1" /><path clip-path="url(#clip820)" d="M180.314 760.366 L198.67 760.366 L198.67 764.301 L184.596 764.301 L184.596 772.773 Q185.614 772.426 186.633 772.264 Q187.651 772.079 188.67 772.079 Q194.457 772.079 197.837 775.25 Q201.216 778.421 201.216 783.838 Q201.216 789.417 197.744 792.519 Q194.272 795.597 187.952 795.597 Q185.777 795.597 183.508 795.227 Q181.263 794.857 178.855 794.116 L178.855 789.417 Q180.939 790.551 183.161 791.107 Q185.383 791.662 187.86 791.662 Q191.864 791.662 194.202 789.556 Q196.54 787.449 196.54 783.838 Q196.54 780.227 194.202 778.121 Q191.864 776.014 187.86 776.014 Q185.985 776.014 184.11 776.431 Q182.258 776.847 180.314 777.727 L180.314 760.366 Z" fill="#000000" fill-rule="evenodd" fill-opacity="1" /><path clip-path="url(#clip820)" d="M210.429 789.046 L215.313 789.046 L215.313 794.926 L210.429 794.926 L210.429 789.046 Z" fill="#000000" fill-rule="evenodd" fill-opacity="1" /><path clip-path="url(#clip820)" d="M235.498 763.445 Q231.887 763.445 230.059 767.009 Q228.253 770.551 228.253 777.681 Q228.253 784.787 230.059 788.352 Q231.887 791.894 235.498 791.894 Q239.133 791.894 240.938 788.352 Q242.767 784.787 242.767 777.681 Q242.767 770.551 240.938 767.009 Q239.133 763.445 235.498 763.445 M235.498 759.741 Q241.309 759.741 244.364 764.347 Q247.443 768.931 247.443 777.681 Q247.443 786.408 244.364 791.014 Q241.309 795.597 235.498 795.597 Q229.688 795.597 226.61 791.014 Q223.554 786.408 223.554 777.681 Q223.554 768.931 226.61 764.347 Q229.688 759.741 235.498 759.741 Z" fill="#000000" fill-rule="evenodd" fill-opacity="1" /><path clip-path="url(#clip820)" d="M180.082 470.095 L202.304 470.095 L202.304 472.086 L189.758 504.655 L184.874 504.655 L196.679 474.031 L180.082 474.031 L180.082 470.095 Z" fill="#000000" fill-rule="evenodd" fill-opacity="1" /><path clip-path="url(#clip820)" d="M211.425 498.776 L216.309 498.776 L216.309 504.655 L211.425 504.655 L211.425 498.776 Z" fill="#000000" fill-rule="evenodd" fill-opacity="1" /><path clip-path="url(#clip820)" d="M226.54 470.095 L244.897 470.095 L244.897 474.031 L230.823 474.031 L230.823 482.503 Q231.841 482.155 232.86 481.993 Q233.878 481.808 234.897 481.808 Q240.684 481.808 244.063 484.98 Q247.443 488.151 247.443 493.567 Q247.443 499.146 243.971 502.248 Q240.498 505.327 234.179 505.327 Q232.003 505.327 229.735 504.956 Q227.489 504.586 225.082 503.845 L225.082 499.146 Q227.165 500.28 229.387 500.836 Q231.61 501.391 234.086 501.391 Q238.091 501.391 240.429 499.285 Q242.767 497.179 242.767 493.567 Q242.767 489.956 240.429 487.85 Q238.091 485.743 234.086 485.743 Q232.211 485.743 230.336 486.16 Q228.485 486.577 226.54 487.456 L226.54 470.095 Z" fill="#000000" fill-rule="evenodd" fill-opacity="1" /><path clip-path="url(#clip820)" d="M150.916 210.45 L158.554 210.45 L158.554 184.084 L150.244 185.751 L150.244 181.491 L158.508 179.825 L163.184 179.825 L163.184 210.45 L170.823 210.45 L170.823 214.385 L150.916 214.385 L150.916 210.45 Z" fill="#000000" fill-rule="evenodd" fill-opacity="1" /><path clip-path="url(#clip820)" d="M190.267 182.903 Q186.656 182.903 184.827 186.468 Q183.022 190.01 183.022 197.139 Q183.022 204.246 184.827 207.811 Q186.656 211.352 190.267 211.352 Q193.901 211.352 195.707 207.811 Q197.536 204.246 197.536 197.139 Q197.536 190.01 195.707 186.468 Q193.901 182.903 190.267 182.903 M190.267 179.2 Q196.077 179.2 199.133 183.806 Q202.212 188.389 202.212 197.139 Q202.212 205.866 199.133 210.473 Q196.077 215.056 190.267 215.056 Q184.457 215.056 181.378 210.473 Q178.323 205.866 178.323 197.139 Q178.323 188.389 181.378 183.806 Q184.457 179.2 190.267 179.2 Z" fill="#000000" fill-rule="evenodd" fill-opacity="1" /><path clip-path="url(#clip820)" d="M210.429 208.505 L215.313 208.505 L215.313 214.385 L210.429 214.385 L210.429 208.505 Z" fill="#000000" fill-rule="evenodd" fill-opacity="1" /><path clip-path="url(#clip820)" d="M235.498 182.903 Q231.887 182.903 230.059 186.468 Q228.253 190.01 228.253 197.139 Q228.253 204.246 230.059 207.811 Q231.887 211.352 235.498 211.352 Q239.133 211.352 240.938 207.811 Q242.767 204.246 242.767 197.139 Q242.767 190.01 240.938 186.468 Q239.133 182.903 235.498 182.903 M235.498 179.2 Q241.309 179.2 244.364 183.806 Q247.443 188.389 247.443 197.139 Q247.443 205.866 244.364 210.473 Q241.309 215.056 235.498 215.056 Q229.688 215.056 226.61 210.473 Q223.554 205.866 223.554 197.139 Q223.554 188.389 226.61 183.806 Q229.688 179.2 235.498 179.2 Z" fill="#000000" fill-rule="evenodd" fill-opacity="1" /><path clip-path="url(#clip820)" d="M40.3403 876.171 L40.3403 848.353 L45.6875 848.353 L71.3095 870.378 L71.3095 848.353 L75.9883 848.353 L75.9883 876.967 L70.6411 876.967 L45.0191 854.942 L45.0191 876.171 L40.3403 876.171 Z" fill="#000000" fill-rule="evenodd" fill-opacity="1" /><path clip-path="url(#clip820)" d="M26.5267 804.621 Q33.8473 808.886 41.0087 810.955 Q48.1701 813.023 55.5225 813.023 Q62.8749 813.023 70.1 810.955 Q77.2933 808.854 84.582 804.621 L84.582 809.713 Q77.1023 814.488 69.8772 816.875 Q62.6521 819.23 55.5225 819.23 Q48.4248 819.23 41.2315 816.875 Q34.0383 814.519 26.5267 809.713 L26.5267 804.621 Z" fill="#000000" fill-rule="evenodd" fill-opacity="1" /><path clip-path="url(#clip820)" d="M26.4631 793.481 L26.4631 787.592 L55.7135 787.592 L40.3403 770.119 L40.3403 762.639 L57.0185 781.545 L75.9883 761.843 L75.9883 769.482 L58.5781 787.592 L75.9883 787.592 L75.9883 793.481 L26.4631 793.481 Z" fill="#000000" fill-rule="evenodd" fill-opacity="1" /><path clip-path="url(#clip820)" d="M47.1835 727.755 Q43.2367 725.559 41.3588 722.503 Q39.481 719.448 39.481 715.31 Q39.481 709.74 43.3959 706.716 Q47.2789 703.692 54.4722 703.692 L75.9883 703.692 L75.9883 709.581 L54.6632 709.581 Q49.5388 709.581 47.0561 711.395 Q44.5735 713.209 44.5735 716.933 Q44.5735 721.485 47.5972 724.126 Q50.6209 726.768 55.8408 726.768 L75.9883 726.768 L75.9883 732.656 L54.6632 732.656 Q49.5069 732.656 47.0561 734.471 Q44.5735 736.285 44.5735 740.072 Q44.5735 744.56 47.6291 747.202 Q50.6528 749.844 55.8408 749.844 L75.9883 749.844 L75.9883 755.732 L40.3403 755.732 L40.3403 749.844 L45.8785 749.844 Q42.6002 747.839 41.0406 745.038 Q39.481 742.237 39.481 738.385 Q39.481 734.502 41.4543 731.797 Q43.4277 729.06 47.1835 727.755 Z" fill="#000000" fill-rule="evenodd" fill-opacity="1" /><path clip-path="url(#clip820)" d="M26.5267 692.934 L26.5267 687.842 Q34.0383 683.067 41.2315 680.712 Q48.4248 678.325 55.5225 678.325 Q62.6521 678.325 69.8772 680.712 Q77.1023 683.067 84.582 687.842 L84.582 692.934 Q77.2933 688.701 70.1 686.632 Q62.8749 684.532 55.5225 684.532 Q48.1701 684.532 41.0087 686.632 Q33.8473 688.701 26.5267 692.934 Z" fill="#000000" fill-rule="evenodd" fill-opacity="1" /><path clip-path="url(#clip820)" d="M1081.95 35.3077 Q1084.43 31.1758 1090.54 27.5299 Q1092.93 26.1121 1100.3 26.1121 Q1108.57 26.1121 1113.71 32.6746 Q1118.9 39.2371 1118.9 49.9314 Q1118.9 60.6258 1113.71 67.1883 Q1108.57 73.7508 1100.3 73.7508 Q1095.32 73.7508 1091.72 71.8063 Q1088.15 69.8214 1085.8 65.7705 L1085.8 89.8329 L1078.31 89.8329 L1078.31 50.3365 Q1078.31 40.9789 1081.95 35.3077 M1111.16 49.9314 Q1111.16 41.7081 1107.76 37.0496 Q1104.4 32.3505 1098.48 32.3505 Q1092.57 32.3505 1089.16 37.0496 Q1085.8 41.7081 1085.8 49.9314 Q1085.8 58.1548 1089.16 62.8538 Q1092.57 67.5124 1098.48 67.5124 Q1104.4 67.5124 1107.76 62.8538 Q1111.16 58.1548 1111.16 49.9314 Z" fill="#000000" fill-rule="evenodd" fill-opacity="1" /><polyline clip-path="url(#clip822)" style="stroke:#009af9; stroke-linecap:butt; stroke-linejoin:round; stroke-width:4; stroke-opacity:1; fill:none" points="
  1840.12,1355.28 1830.41,1349.48 1820.72,1343.67 1811.06,1337.87 1801.42,1332.06 1791.81,1326.26 1782.22,1320.45 1772.66,1314.65 1763.12,1308.84 1753.6,1303.04 
  1744.1,1297.23 1734.63,1291.42 1725.19,1285.62 1715.77,1279.81 1706.37,1274.01 1696.99,1268.2 1687.64,1262.4 1678.32,1256.59 1669.01,1250.79 1659.73,1244.98 
  1650.48,1239.18 1641.25,1233.37 1632.04,1227.57 1622.85,1221.76 1613.69,1215.95 1604.55,1210.15 1595.44,1204.34 1586.35,1198.54 1577.28,1192.73 1568.24,1186.93 
  1559.22,1181.12 1550.22,1175.32 1541.25,1169.51 1532.3,1163.71 1523.38,1157.9 1514.47,1152.1 1505.59,1146.29 1496.74,1140.48 1487.9,1134.68 1479.1,1128.87 
  1470.31,1123.07 1461.55,1117.26 1452.81,1111.46 1444.09,1105.65 1435.4,1099.85 1426.73,1094.04 1418.08,1088.24 1409.46,1082.43 1400.86,1076.62 1392.28,1070.82 
  1383.72,1065.01 1375.19,1059.21 1366.68,1053.4 1358.2,1047.6 1349.74,1041.79 1341.3,1035.99 1332.88,1030.18 1324.49,1024.38 1316.12,1018.57 1307.77,1012.77 
  1299.45,1006.96 1291.14,1001.15 1282.87,995.349 1274.61,989.544 1266.38,983.738 1258.16,977.933 1249.98,972.127 1241.81,966.322 1233.67,960.516 1225.55,954.711 
  1217.45,948.906 1209.38,943.1 1201.33,937.295 1193.3,931.489 1185.29,925.684 1177.31,919.879 1169.34,914.073 1161.41,908.268 1153.49,902.462 1145.59,896.657 
  1137.72,890.852 1129.87,885.046 1122.05,879.241 1114.24,873.435 1106.46,867.63 1098.7,861.824 1090.96,856.019 1083.25,850.214 1075.56,844.408 1067.89,838.603 
  1060.24,832.797 1052.61,826.992 1045.01,821.187 1037.43,815.381 1029.87,809.576 1022.33,803.77 1014.81,797.965 1007.32,792.16 999.848,786.354 992.399,780.549 
  984.972,774.743 977.567,768.938 970.184,763.132 962.822,757.327 955.483,751.522 948.166,745.716 940.87,739.911 933.597,734.105 926.345,728.3 919.115,722.495 
  911.907,716.689 904.72,710.884 897.556,705.078 890.413,699.273 883.292,693.468 876.192,687.662 869.114,681.857 862.058,676.051 855.024,670.246 848.011,664.44 
  841.02,658.635 834.05,652.83 827.101,647.024 820.175,641.219 813.27,635.413 806.386,629.608 799.523,623.803 792.683,617.997 785.863,612.192 779.065,606.386 
  772.288,600.581 765.533,594.775 758.799,588.97 752.086,583.165 745.394,577.359 738.724,571.554 732.075,565.748 725.447,559.943 718.84,554.138 712.255,548.332 
  705.69,542.527 699.147,536.721 692.625,530.916 686.124,525.111 679.644,519.305 673.184,513.5 666.746,507.694 660.329,501.889 653.933,496.083 647.558,490.278 
  641.203,484.473 634.87,478.667 628.557,472.862 622.266,467.056 615.995,461.251 609.745,455.446 603.515,449.64 597.307,443.835 591.119,438.029 584.951,432.224 
  578.805,426.419 572.679,420.613 566.574,414.808 560.489,409.002 554.425,403.197 548.381,397.391 542.358,391.586 536.356,385.781 530.374,379.975 524.413,374.17 
  518.471,368.364 512.551,362.559 506.651,356.754 500.771,350.948 494.911,345.143 489.072,339.337 483.253,333.532 477.454,327.727 471.676,321.921 465.918,316.116 
  460.18,310.31 454.462,304.505 448.761,298.699 443.077,292.894 437.413,287.089 431.77,281.283 426.148,275.478 420.545,269.672 414.964,263.867 409.402,258.062 
  403.861,252.256 398.34,246.451 392.84,240.645 387.359,234.84 381.899,229.034 376.459,223.229 371.039,217.424 365.638,211.618 360.258,205.813 354.898,200.007 
  
  "/>
<polyline clip-path="url(#clip822)" style="stroke:#e26f46; stroke-linecap:butt; stroke-linejoin:round; stroke-width:4; stroke-opacity:1; fill:none" points="
  1844.98,1358.19 1835.26,1352.38 1825.56,1346.58 1815.89,1340.77 1806.24,1334.97 1796.61,1329.16 1787.01,1323.35 1777.44,1317.55 1767.88,1311.74 1758.35,1305.94 
  1748.85,1300.13 1739.37,1294.33 1729.91,1288.52 1720.47,1282.72 1711.06,1276.91 1701.68,1271.11 1692.32,1265.3 1682.98,1259.5 1673.66,1253.69 1664.37,1247.88 
  1655.1,1242.08 1645.86,1236.27 1636.64,1230.47 1627.44,1224.66 1618.27,1218.86 1609.12,1213.05 1599.99,1207.25 1590.89,1201.44 1581.81,1195.64 1572.76,1189.83 
  1563.73,1184.02 1554.72,1178.22 1545.73,1172.41 1536.77,1166.61 1527.84,1160.8 1518.92,1155 1510.03,1149.19 1501.16,1143.39 1492.32,1137.58 1483.5,1131.78 
  1474.7,1125.97 1465.92,1120.17 1457.17,1114.36 1448.45,1108.55 1439.74,1102.75 1431.06,1096.94 1422.4,1091.14 1413.77,1085.33 1405.15,1079.53 1396.56,1073.72 
  1388,1067.92 1379.46,1062.11 1370.94,1056.31 1362.44,1050.5 1353.97,1044.69 1345.51,1038.89 1337.09,1033.08 1328.68,1027.28 1320.3,1021.47 1311.94,1015.67 
  1303.61,1009.86 1295.29,1004.06 1287,998.252 1278.73,992.446 1270.49,986.641 1262.27,980.835 1254.07,975.03 1245.89,969.225 1237.74,963.419 1229.61,957.614 
  1221.5,951.808 1213.41,946.003 1205.35,940.198 1197.31,934.392 1189.29,928.587 1181.3,922.781 1173.32,916.976 1165.37,911.17 1157.44,905.365 1149.54,899.56 
  1141.66,893.754 1133.8,887.949 1125.96,882.143 1118.14,876.338 1110.35,870.533 1102.58,864.727 1094.83,858.922 1087.1,853.116 1079.4,847.311 1071.72,841.506 
  1064.06,835.7 1056.42,829.895 1048.81,824.089 1041.21,818.284 1033.64,812.478 1026.09,806.673 1018.57,800.868 1011.06,795.062 1003.58,789.257 996.121,783.451 
  988.683,777.646 981.267,771.841 973.872,766.035 966.5,760.23 959.15,754.424 951.822,748.619 944.515,742.814 937.231,737.008 929.968,731.203 922.727,725.397 
  915.508,719.592 908.311,713.786 901.135,707.981 893.982,702.176 886.85,696.37 879.739,690.565 872.651,684.759 865.584,678.954 858.538,673.149 851.515,667.343 
  844.512,661.538 837.532,655.732 830.573,649.927 823.635,644.121 816.719,638.316 809.825,632.511 802.952,626.705 796.1,620.9 789.27,615.094 782.461,609.289 
  775.674,603.484 768.908,597.678 762.163,591.873 755.44,586.067 748.737,580.262 742.056,574.457 735.397,568.651 728.758,562.846 722.141,557.04 715.545,551.235 
  708.97,545.429 702.416,539.624 695.883,533.819 689.372,528.013 682.881,522.208 676.411,516.402 669.963,510.597 663.535,504.792 657.129,498.986 650.743,493.181 
  644.378,487.375 638.034,481.57 631.711,475.765 625.409,469.959 619.128,464.154 612.867,458.348 606.627,452.543 600.408,446.737 594.21,440.932 588.032,435.127 
  581.876,429.321 575.739,423.516 569.624,417.71 563.529,411.905 557.454,406.1 551.401,400.294 545.367,394.489 539.355,388.683 533.362,382.878 527.391,377.073 
  521.439,371.267 515.509,365.462 509.598,359.656 503.708,353.851 497.838,348.045 491.989,342.24 486.16,336.435 480.351,330.629 474.563,324.824 468.794,319.018 
  463.046,313.213 457.318,307.408 451.611,301.602 445.916,295.797 440.242,289.991 434.589,284.186 428.956,278.381 423.344,272.575 417.752,266.77 412.18,260.964 
  406.629,255.159 401.098,249.353 395.588,243.548 390.097,237.743 384.627,231.937 379.176,226.132 373.746,220.326 368.336,214.521 362.946,208.716 357.576,202.91 
  352.226,197.105 
  "/>
<path clip-path="url(#clip820)" d="
M1488.92 358.817 L1837.02 358.817 L1837.02 203.297 L1488.92 203.297  Z
  " fill="#ffffff" fill-rule="evenodd" fill-opacity="1"/>
<polyline clip-path="url(#clip820)" style="stroke:#000000; stroke-linecap:butt; stroke-linejoin:round; stroke-width:4; stroke-opacity:1; fill:none" points="
  1488.92,358.817 1837.02,358.817 1837.02,203.297 1488.92,203.297 1488.92,358.817 
  "/>
<polyline clip-path="url(#clip820)" style="stroke:#009af9; stroke-linecap:butt; stroke-linejoin:round; stroke-width:4; stroke-opacity:1; fill:none" points="
  1506.5,255.137 1611.98,255.137 
  "/>
<path clip-path="url(#clip820)" d="M1650.08 247.487 L1650.08 251.468 Q1648.27 250.473 1646.44 249.987 Q1644.64 249.477 1642.78 249.477 Q1638.64 249.477 1636.35 252.116 Q1634.06 254.732 1634.06 259.477 Q1634.06 264.223 1636.35 266.862 Q1638.64 269.477 1642.78 269.477 Q1644.64 269.477 1646.44 268.991 Q1648.27 268.482 1650.08 267.487 L1650.08 271.422 Q1648.29 272.255 1646.37 272.672 Q1644.47 273.088 1642.32 273.088 Q1636.46 273.088 1633.02 269.408 Q1629.57 265.727 1629.57 259.477 Q1629.57 253.135 1633.04 249.501 Q1636.53 245.866 1642.6 245.866 Q1644.57 245.866 1646.44 246.283 Q1648.32 246.677 1650.08 247.487 Z" fill="#000000" fill-rule="evenodd" fill-opacity="1" /><path clip-path="url(#clip820)" d="M1679.66 258.389 L1679.66 260.473 L1660.08 260.473 Q1660.35 264.871 1662.71 267.186 Q1665.1 269.477 1669.33 269.477 Q1671.79 269.477 1674.08 268.876 Q1676.39 268.274 1678.66 267.07 L1678.66 271.098 Q1676.37 272.07 1673.96 272.579 Q1671.56 273.088 1669.08 273.088 Q1662.88 273.088 1659.24 269.477 Q1655.63 265.866 1655.63 259.709 Q1655.63 253.343 1659.06 249.616 Q1662.51 245.866 1668.34 245.866 Q1673.57 245.866 1676.6 249.246 Q1679.66 252.602 1679.66 258.389 M1675.4 257.139 Q1675.35 253.644 1673.43 251.561 Q1671.53 249.477 1668.39 249.477 Q1664.82 249.477 1662.67 251.491 Q1660.54 253.505 1660.21 257.163 L1675.4 257.139 Z" fill="#000000" fill-rule="evenodd" fill-opacity="1" /><path clip-path="url(#clip820)" d="M1708.2 256.769 L1708.2 272.417 L1703.94 272.417 L1703.94 256.908 Q1703.94 253.227 1702.51 251.399 Q1701.07 249.57 1698.2 249.57 Q1694.75 249.57 1692.76 251.769 Q1690.77 253.968 1690.77 257.764 L1690.77 272.417 L1686.49 272.417 L1686.49 246.491 L1690.77 246.491 L1690.77 250.519 Q1692.3 248.181 1694.36 247.024 Q1696.44 245.866 1699.15 245.866 Q1703.62 245.866 1705.91 248.644 Q1708.2 251.399 1708.2 256.769 Z" fill="#000000" fill-rule="evenodd" fill-opacity="1" /><path clip-path="url(#clip820)" d="M1720.91 239.13 L1720.91 246.491 L1729.68 246.491 L1729.68 249.802 L1720.91 249.802 L1720.91 263.876 Q1720.91 267.047 1721.76 267.95 Q1722.64 268.852 1725.31 268.852 L1729.68 268.852 L1729.68 272.417 L1725.31 272.417 Q1720.38 272.417 1718.5 270.588 Q1716.63 268.737 1716.63 263.876 L1716.63 249.802 L1713.5 249.802 L1713.5 246.491 L1716.63 246.491 L1716.63 239.13 L1720.91 239.13 Z" fill="#000000" fill-rule="evenodd" fill-opacity="1" /><path clip-path="url(#clip820)" d="M1757.46 258.389 L1757.46 260.473 L1737.88 260.473 Q1738.15 264.871 1740.51 267.186 Q1742.9 269.477 1747.14 269.477 Q1749.59 269.477 1751.88 268.876 Q1754.2 268.274 1756.46 267.07 L1756.46 271.098 Q1754.17 272.07 1751.76 272.579 Q1749.36 273.088 1746.88 273.088 Q1740.68 273.088 1737.04 269.477 Q1733.43 265.866 1733.43 259.709 Q1733.43 253.343 1736.86 249.616 Q1740.31 245.866 1746.14 245.866 Q1751.37 245.866 1754.4 249.246 Q1757.46 252.602 1757.46 258.389 M1753.2 257.139 Q1753.15 253.644 1751.23 251.561 Q1749.33 249.477 1746.19 249.477 Q1742.62 249.477 1740.47 251.491 Q1738.34 253.505 1738.01 257.163 L1753.2 257.139 Z" fill="#000000" fill-rule="evenodd" fill-opacity="1" /><path clip-path="url(#clip820)" d="M1779.47 250.473 Q1778.76 250.056 1777.9 249.871 Q1777.07 249.663 1776.05 249.663 Q1772.44 249.663 1770.49 252.024 Q1768.57 254.362 1768.57 258.76 L1768.57 272.417 L1764.29 272.417 L1764.29 246.491 L1768.57 246.491 L1768.57 250.519 Q1769.91 248.158 1772.07 247.024 Q1774.22 245.866 1777.3 245.866 Q1777.74 245.866 1778.27 245.936 Q1778.8 245.982 1779.45 246.098 L1779.47 250.473 Z" fill="#000000" fill-rule="evenodd" fill-opacity="1" /><path clip-path="url(#clip820)" d="M1800.47 247.255 L1800.47 251.283 Q1798.66 250.357 1796.72 249.894 Q1794.77 249.431 1792.69 249.431 Q1789.52 249.431 1787.92 250.403 Q1786.35 251.376 1786.35 253.32 Q1786.35 254.802 1787.48 255.658 Q1788.62 256.491 1792.04 257.255 L1793.5 257.579 Q1798.04 258.552 1799.94 260.334 Q1801.86 262.093 1801.86 265.264 Q1801.86 268.876 1798.99 270.982 Q1796.14 273.088 1791.14 273.088 Q1789.06 273.088 1786.79 272.672 Q1784.54 272.278 1782.04 271.468 L1782.04 267.07 Q1784.4 268.297 1786.7 268.922 Q1788.99 269.524 1791.23 269.524 Q1794.24 269.524 1795.86 268.505 Q1797.48 267.463 1797.48 265.589 Q1797.48 263.852 1796.3 262.926 Q1795.14 262.001 1791.19 261.144 L1789.7 260.797 Q1785.75 259.964 1783.99 258.251 Q1782.23 256.514 1782.23 253.505 Q1782.23 249.848 1784.82 247.857 Q1787.41 245.866 1792.18 245.866 Q1794.54 245.866 1796.63 246.214 Q1798.71 246.561 1800.47 247.255 Z" fill="#000000" fill-rule="evenodd" fill-opacity="1" /><polyline clip-path="url(#clip820)" style="stroke:#e26f46; stroke-linecap:butt; stroke-linejoin:round; stroke-width:4; stroke-opacity:1; fill:none" points="
  1506.5,306.977 1611.98,306.977 
  "/>
<path clip-path="url(#clip820)" d="M1646.07 288.239 L1646.07 291.78 L1642 291.78 Q1639.71 291.78 1638.8 292.706 Q1637.92 293.632 1637.92 296.04 L1637.92 298.331 L1644.94 298.331 L1644.94 301.642 L1637.92 301.642 L1637.92 324.257 L1633.64 324.257 L1633.64 301.642 L1629.57 301.642 L1629.57 298.331 L1633.64 298.331 L1633.64 296.526 Q1633.64 292.197 1635.65 290.23 Q1637.67 288.239 1642.04 288.239 L1646.07 288.239 Z" fill="#000000" fill-rule="evenodd" fill-opacity="1" /><path clip-path="url(#clip820)" d="M1661.42 311.225 Q1656.26 311.225 1654.27 312.405 Q1652.27 313.586 1652.27 316.433 Q1652.27 318.702 1653.76 320.044 Q1655.26 321.364 1657.83 321.364 Q1661.37 321.364 1663.5 318.864 Q1665.65 316.341 1665.65 312.174 L1665.65 311.225 L1661.42 311.225 M1669.91 309.466 L1669.91 324.257 L1665.65 324.257 L1665.65 320.322 Q1664.2 322.683 1662.02 323.817 Q1659.84 324.928 1656.7 324.928 Q1652.71 324.928 1650.35 322.706 Q1648.02 320.461 1648.02 316.711 Q1648.02 312.336 1650.93 310.114 Q1653.87 307.892 1659.68 307.892 L1665.65 307.892 L1665.65 307.475 Q1665.65 304.535 1663.71 302.938 Q1661.79 301.317 1658.29 301.317 Q1656.07 301.317 1653.96 301.85 Q1651.86 302.382 1649.91 303.447 L1649.91 299.512 Q1652.25 298.609 1654.45 298.169 Q1656.65 297.706 1658.73 297.706 Q1664.36 297.706 1667.14 300.623 Q1669.91 303.54 1669.91 309.466 Z" fill="#000000" fill-rule="evenodd" fill-opacity="1" /><path clip-path="url(#clip820)" d="M1697.34 299.327 L1697.34 303.308 Q1695.54 302.313 1693.71 301.827 Q1691.9 301.317 1690.05 301.317 Q1685.91 301.317 1683.62 303.956 Q1681.33 306.572 1681.33 311.317 Q1681.33 316.063 1683.62 318.702 Q1685.91 321.317 1690.05 321.317 Q1691.9 321.317 1693.71 320.831 Q1695.54 320.322 1697.34 319.327 L1697.34 323.262 Q1695.56 324.095 1693.64 324.512 Q1691.74 324.928 1689.59 324.928 Q1683.73 324.928 1680.28 321.248 Q1676.83 317.567 1676.83 311.317 Q1676.83 304.975 1680.31 301.341 Q1683.8 297.706 1689.87 297.706 Q1691.83 297.706 1693.71 298.123 Q1695.58 298.517 1697.34 299.327 Z" fill="#000000" fill-rule="evenodd" fill-opacity="1" /><path clip-path="url(#clip820)" d="M1726.93 310.229 L1726.93 312.313 L1707.34 312.313 Q1707.62 316.711 1709.98 319.026 Q1712.37 321.317 1716.6 321.317 Q1719.06 321.317 1721.35 320.716 Q1723.66 320.114 1725.93 318.91 L1725.93 322.938 Q1723.64 323.91 1721.23 324.419 Q1718.83 324.928 1716.35 324.928 Q1710.14 324.928 1706.51 321.317 Q1702.9 317.706 1702.9 311.549 Q1702.9 305.183 1706.33 301.456 Q1709.77 297.706 1715.61 297.706 Q1720.84 297.706 1723.87 301.086 Q1726.93 304.442 1726.93 310.229 M1722.67 308.979 Q1722.62 305.484 1720.7 303.401 Q1718.8 301.317 1715.65 301.317 Q1712.09 301.317 1709.94 303.331 Q1707.81 305.345 1707.48 309.003 L1722.67 308.979 Z" fill="#000000" fill-rule="evenodd" fill-opacity="1" /><path clip-path="url(#clip820)" d="M1750.45 299.095 L1750.45 303.123 Q1748.64 302.197 1746.7 301.734 Q1744.75 301.271 1742.67 301.271 Q1739.5 301.271 1737.9 302.243 Q1736.33 303.216 1736.33 305.16 Q1736.33 306.642 1737.46 307.498 Q1738.59 308.331 1742.02 309.095 L1743.48 309.419 Q1748.01 310.392 1749.91 312.174 Q1751.83 313.933 1751.83 317.104 Q1751.83 320.716 1748.96 322.822 Q1746.12 324.928 1741.12 324.928 Q1739.03 324.928 1736.76 324.512 Q1734.52 324.118 1732.02 323.308 L1732.02 318.91 Q1734.38 320.137 1736.67 320.762 Q1738.96 321.364 1741.21 321.364 Q1744.22 321.364 1745.84 320.345 Q1747.46 319.303 1747.46 317.429 Q1747.46 315.692 1746.28 314.766 Q1745.12 313.841 1741.16 312.984 L1739.68 312.637 Q1735.72 311.804 1733.96 310.091 Q1732.2 308.354 1732.2 305.345 Q1732.2 301.688 1734.8 299.697 Q1737.39 297.706 1742.16 297.706 Q1744.52 297.706 1746.6 298.054 Q1748.69 298.401 1750.45 299.095 Z" fill="#000000" fill-rule="evenodd" fill-opacity="1" /><path clip-path="url(#clip820)" d="
M2307.44 1393.02 L3889.76 1393.02 L3889.76 162.272 L2307.44 162.272  Z
  " fill="#ffffff" fill-rule="evenodd" fill-opacity="1"/>
<defs>
  <clipPath id="clip823">
    <rect x="2307" y="162" width="1583" height="1232"/>
  </clipPath>
</defs>
<polyline clip-path="url(#clip823)" style="stroke:#000000; stroke-linecap:butt; stroke-linejoin:round; stroke-width:2; stroke-opacity:0.1; fill:none" points="
  2656.67,1393.02 2656.67,162.272 
  "/>
<polyline clip-path="url(#clip823)" style="stroke:#000000; stroke-linecap:butt; stroke-linejoin:round; stroke-width:2; stroke-opacity:0.1; fill:none" points="
  3052.78,1393.02 3052.78,162.272 
  "/>
<polyline clip-path="url(#clip823)" style="stroke:#000000; stroke-linecap:butt; stroke-linejoin:round; stroke-width:2; stroke-opacity:0.1; fill:none" points="
  3448.88,1393.02 3448.88,162.272 
  "/>
<polyline clip-path="url(#clip823)" style="stroke:#000000; stroke-linecap:butt; stroke-linejoin:round; stroke-width:2; stroke-opacity:0.1; fill:none" points="
  3844.98,1393.02 3844.98,162.272 
  "/>
<polyline clip-path="url(#clip820)" style="stroke:#000000; stroke-linecap:butt; stroke-linejoin:round; stroke-width:4; stroke-opacity:1; fill:none" points="
  2307.44,1393.02 3889.76,1393.02 
  "/>
<polyline clip-path="url(#clip820)" style="stroke:#000000; stroke-linecap:butt; stroke-linejoin:round; stroke-width:4; stroke-opacity:1; fill:none" points="
  2656.67,1393.02 2656.67,1374.12 
  "/>
<polyline clip-path="url(#clip820)" style="stroke:#000000; stroke-linecap:butt; stroke-linejoin:round; stroke-width:4; stroke-opacity:1; fill:none" points="
  3052.78,1393.02 3052.78,1374.12 
  "/>
<polyline clip-path="url(#clip820)" style="stroke:#000000; stroke-linecap:butt; stroke-linejoin:round; stroke-width:4; stroke-opacity:1; fill:none" points="
  3448.88,1393.02 3448.88,1374.12 
  "/>
<polyline clip-path="url(#clip820)" style="stroke:#000000; stroke-linecap:butt; stroke-linejoin:round; stroke-width:4; stroke-opacity:1; fill:none" points="
  3844.98,1393.02 3844.98,1374.12 
  "/>
<path clip-path="url(#clip820)" d="M2644.85 1437.73 L2633.04 1456.18 L2644.85 1456.18 L2644.85 1437.73 M2643.62 1433.66 L2649.5 1433.66 L2649.5 1456.18 L2654.43 1456.18 L2654.43 1460.07 L2649.5 1460.07 L2649.5 1468.22 L2644.85 1468.22 L2644.85 1460.07 L2629.24 1460.07 L2629.24 1455.56 L2643.62 1433.66 Z" fill="#000000" fill-rule="evenodd" fill-opacity="1" /><path clip-path="url(#clip820)" d="M2672.16 1436.74 Q2668.55 1436.74 2666.72 1440.3 Q2664.91 1443.84 2664.91 1450.97 Q2664.91 1458.08 2666.72 1461.65 Q2668.55 1465.19 2672.16 1465.19 Q2675.79 1465.19 2677.6 1461.65 Q2679.43 1458.08 2679.43 1450.97 Q2679.43 1443.84 2677.6 1440.3 Q2675.79 1436.74 2672.16 1436.74 M2672.16 1433.03 Q2677.97 1433.03 2681.03 1437.64 Q2684.1 1442.22 2684.1 1450.97 Q2684.1 1459.7 2681.03 1464.31 Q2677.97 1468.89 2672.16 1468.89 Q2666.35 1468.89 2663.27 1464.31 Q2660.22 1459.7 2660.22 1450.97 Q2660.22 1442.22 2663.27 1437.64 Q2666.35 1433.03 2672.16 1433.03 Z" fill="#000000" fill-rule="evenodd" fill-opacity="1" /><path clip-path="url(#clip820)" d="M3038.18 1449.08 Q3035.03 1449.08 3033.18 1451.23 Q3031.35 1453.38 3031.35 1457.13 Q3031.35 1460.86 3033.18 1463.03 Q3035.03 1465.19 3038.18 1465.19 Q3041.33 1465.19 3043.16 1463.03 Q3045.01 1460.86 3045.01 1457.13 Q3045.01 1453.38 3043.16 1451.23 Q3041.33 1449.08 3038.18 1449.08 M3047.46 1434.42 L3047.46 1438.68 Q3045.7 1437.85 3043.9 1437.41 Q3042.12 1436.97 3040.36 1436.97 Q3035.73 1436.97 3033.27 1440.09 Q3030.84 1443.22 3030.5 1449.54 Q3031.86 1447.53 3033.92 1446.46 Q3035.98 1445.37 3038.46 1445.37 Q3043.67 1445.37 3046.68 1448.54 Q3049.71 1451.69 3049.71 1457.13 Q3049.71 1462.46 3046.56 1465.67 Q3043.41 1468.89 3038.18 1468.89 Q3032.19 1468.89 3029.01 1464.31 Q3025.84 1459.7 3025.84 1450.97 Q3025.84 1442.78 3029.73 1437.92 Q3033.62 1433.03 3040.17 1433.03 Q3041.93 1433.03 3043.71 1433.38 Q3045.52 1433.73 3047.46 1434.42 Z" fill="#000000" fill-rule="evenodd" fill-opacity="1" /><path clip-path="url(#clip820)" d="M3067.76 1436.74 Q3064.15 1436.74 3062.32 1440.3 Q3060.52 1443.84 3060.52 1450.97 Q3060.52 1458.08 3062.32 1461.65 Q3064.15 1465.19 3067.76 1465.19 Q3071.4 1465.19 3073.2 1461.65 Q3075.03 1458.08 3075.03 1450.97 Q3075.03 1443.84 3073.2 1440.3 Q3071.4 1436.74 3067.76 1436.74 M3067.76 1433.03 Q3073.57 1433.03 3076.63 1437.64 Q3079.71 1442.22 3079.71 1450.97 Q3079.71 1459.7 3076.63 1464.31 Q3073.57 1468.89 3067.76 1468.89 Q3061.95 1468.89 3058.88 1464.31 Q3055.82 1459.7 3055.82 1450.97 Q3055.82 1442.22 3058.88 1437.64 Q3061.95 1433.03 3067.76 1433.03 Z" fill="#000000" fill-rule="evenodd" fill-opacity="1" /><path clip-path="url(#clip820)" d="M3433.75 1451.81 Q3430.42 1451.81 3428.5 1453.59 Q3426.6 1455.37 3426.6 1458.5 Q3426.6 1461.62 3428.5 1463.4 Q3430.42 1465.19 3433.75 1465.19 Q3437.08 1465.19 3439.01 1463.4 Q3440.93 1461.6 3440.93 1458.5 Q3440.93 1455.37 3439.01 1453.59 Q3437.11 1451.81 3433.75 1451.81 M3429.08 1449.82 Q3426.07 1449.08 3424.38 1447.02 Q3422.71 1444.96 3422.71 1441.99 Q3422.71 1437.85 3425.65 1435.44 Q3428.61 1433.03 3433.75 1433.03 Q3438.91 1433.03 3441.85 1435.44 Q3444.79 1437.85 3444.79 1441.99 Q3444.79 1444.96 3443.1 1447.02 Q3441.44 1449.08 3438.45 1449.82 Q3441.83 1450.6 3443.71 1452.9 Q3445.6 1455.19 3445.6 1458.5 Q3445.6 1463.52 3442.52 1466.21 Q3439.47 1468.89 3433.75 1468.89 Q3428.03 1468.89 3424.96 1466.21 Q3421.9 1463.52 3421.9 1458.5 Q3421.9 1455.19 3423.8 1452.9 Q3425.7 1450.6 3429.08 1449.82 M3427.36 1442.43 Q3427.36 1445.12 3429.03 1446.62 Q3430.72 1448.13 3433.75 1448.13 Q3436.76 1448.13 3438.45 1446.62 Q3440.16 1445.12 3440.16 1442.43 Q3440.16 1439.75 3438.45 1438.24 Q3436.76 1436.74 3433.75 1436.74 Q3430.72 1436.74 3429.03 1438.24 Q3427.36 1439.75 3427.36 1442.43 Z" fill="#000000" fill-rule="evenodd" fill-opacity="1" /><path clip-path="url(#clip820)" d="M3463.91 1436.74 Q3460.3 1436.74 3458.47 1440.3 Q3456.67 1443.84 3456.67 1450.97 Q3456.67 1458.08 3458.47 1461.65 Q3460.3 1465.19 3463.91 1465.19 Q3467.55 1465.19 3469.35 1461.65 Q3471.18 1458.08 3471.18 1450.97 Q3471.18 1443.84 3469.35 1440.3 Q3467.55 1436.74 3463.91 1436.74 M3463.91 1433.03 Q3469.72 1433.03 3472.78 1437.64 Q3475.86 1442.22 3475.86 1450.97 Q3475.86 1459.7 3472.78 1464.31 Q3469.72 1468.89 3463.91 1468.89 Q3458.1 1468.89 3455.02 1464.31 Q3451.97 1459.7 3451.97 1450.97 Q3451.97 1442.22 3455.02 1437.64 Q3458.1 1433.03 3463.91 1433.03 Z" fill="#000000" fill-rule="evenodd" fill-opacity="1" /><path clip-path="url(#clip820)" d="M3804.59 1464.28 L3812.23 1464.28 L3812.23 1437.92 L3803.92 1439.59 L3803.92 1435.33 L3812.18 1433.66 L3816.86 1433.66 L3816.86 1464.28 L3824.5 1464.28 L3824.5 1468.22 L3804.59 1468.22 L3804.59 1464.28 Z" fill="#000000" fill-rule="evenodd" fill-opacity="1" /><path clip-path="url(#clip820)" d="M3843.94 1436.74 Q3840.33 1436.74 3838.5 1440.3 Q3836.69 1443.84 3836.69 1450.97 Q3836.69 1458.08 3838.5 1461.65 Q3840.33 1465.19 3843.94 1465.19 Q3847.57 1465.19 3849.38 1461.65 Q3851.21 1458.08 3851.21 1450.97 Q3851.21 1443.84 3849.38 1440.3 Q3847.57 1436.74 3843.94 1436.74 M3843.94 1433.03 Q3849.75 1433.03 3852.81 1437.64 Q3855.88 1442.22 3855.88 1450.97 Q3855.88 1459.7 3852.81 1464.31 Q3849.75 1468.89 3843.94 1468.89 Q3838.13 1468.89 3835.05 1464.31 Q3832 1459.7 3832 1450.97 Q3832 1442.22 3835.05 1437.64 Q3838.13 1433.03 3843.94 1433.03 Z" fill="#000000" fill-rule="evenodd" fill-opacity="1" /><path clip-path="url(#clip820)" d="M3874.1 1436.74 Q3870.49 1436.74 3868.66 1440.3 Q3866.86 1443.84 3866.86 1450.97 Q3866.86 1458.08 3868.66 1461.65 Q3870.49 1465.19 3874.1 1465.19 Q3877.74 1465.19 3879.54 1461.65 Q3881.37 1458.08 3881.37 1450.97 Q3881.37 1443.84 3879.54 1440.3 Q3877.74 1436.74 3874.1 1436.74 M3874.1 1433.03 Q3879.91 1433.03 3882.97 1437.64 Q3886.05 1442.22 3886.05 1450.97 Q3886.05 1459.7 3882.97 1464.31 Q3879.91 1468.89 3874.1 1468.89 Q3868.29 1468.89 3865.21 1464.31 Q3862.16 1459.7 3862.16 1450.97 Q3862.16 1442.22 3865.21 1437.64 Q3868.29 1433.03 3874.1 1433.03 Z" fill="#000000" fill-rule="evenodd" fill-opacity="1" /><path clip-path="url(#clip820)" d="M2996.74 1556.54 L2996.74 1575.44 L2990.85 1575.44 L2990.85 1526.24 L2996.74 1526.24 L2996.74 1531.65 Q2998.58 1528.46 3001.38 1526.94 Q3004.22 1525.38 3008.13 1525.38 Q3014.62 1525.38 3018.67 1530.53 Q3022.74 1535.69 3022.74 1544.09 Q3022.74 1552.49 3018.67 1557.65 Q3014.62 1562.81 3008.13 1562.81 Q3004.22 1562.81 3001.38 1561.28 Q2998.58 1559.72 2996.74 1556.54 M3016.66 1544.09 Q3016.66 1537.63 3013.99 1533.97 Q3011.35 1530.28 3006.7 1530.28 Q3002.05 1530.28 2999.38 1533.97 Q2996.74 1537.63 2996.74 1544.09 Q2996.74 1550.55 2999.38 1554.24 Q3002.05 1557.91 3006.7 1557.91 Q3011.35 1557.91 3013.99 1554.24 Q3016.66 1550.55 3016.66 1544.09 Z" fill="#000000" fill-rule="evenodd" fill-opacity="1" /><path clip-path="url(#clip820)" d="M3067.24 1512.42 Q3062.97 1519.74 3060.9 1526.9 Q3058.83 1534.07 3058.83 1541.42 Q3058.83 1548.77 3060.9 1556 Q3063 1563.19 3067.24 1570.48 L3062.14 1570.48 Q3057.37 1563 3054.98 1555.77 Q3052.63 1548.55 3052.63 1541.42 Q3052.63 1534.32 3054.98 1527.13 Q3057.34 1519.93 3062.14 1512.42 L3067.24 1512.42 Z" fill="#000000" fill-rule="evenodd" fill-opacity="1" /><path clip-path="url(#clip820)" d="M3078.38 1512.36 L3084.26 1512.36 L3084.26 1541.61 L3101.74 1526.24 L3109.22 1526.24 L3090.31 1542.91 L3110.01 1561.88 L3102.37 1561.88 L3084.26 1544.47 L3084.26 1561.88 L3078.38 1561.88 L3078.38 1512.36 Z" fill="#000000" fill-rule="evenodd" fill-opacity="1" /><path clip-path="url(#clip820)" d="M3123.03 1519.65 L3123.03 1537.5 L3131.12 1537.5 Q3135.6 1537.5 3138.05 1535.18 Q3140.51 1532.86 3140.51 1528.56 Q3140.51 1524.29 3138.05 1521.97 Q3135.6 1519.65 3131.12 1519.65 L3123.03 1519.65 M3116.6 1514.36 L3131.12 1514.36 Q3139.11 1514.36 3143.18 1517.99 Q3147.29 1521.59 3147.29 1528.56 Q3147.29 1535.59 3143.18 1539.19 Q3139.11 1542.79 3131.12 1542.79 L3123.03 1542.79 L3123.03 1561.88 L3116.6 1561.88 L3116.6 1514.36 Z" fill="#000000" fill-rule="evenodd" fill-opacity="1" /><path clip-path="url(#clip820)" d="M3168.93 1543.96 Q3161.83 1543.96 3159.09 1545.59 Q3156.36 1547.21 3156.36 1551.13 Q3156.36 1554.24 3158.39 1556.09 Q3160.46 1557.91 3164 1557.91 Q3168.86 1557.91 3171.79 1554.47 Q3174.75 1551 3174.75 1545.27 L3174.75 1543.96 L3168.93 1543.96 M3180.61 1541.55 L3180.61 1561.88 L3174.75 1561.88 L3174.75 1556.47 Q3172.75 1559.72 3169.76 1561.28 Q3166.76 1562.81 3162.44 1562.81 Q3156.96 1562.81 3153.71 1559.75 Q3150.5 1556.66 3150.5 1551.51 Q3150.5 1545.49 3154.51 1542.44 Q3158.55 1539.38 3166.54 1539.38 L3174.75 1539.38 L3174.75 1538.81 Q3174.75 1534.77 3172.08 1532.57 Q3169.44 1530.34 3164.63 1530.34 Q3161.58 1530.34 3158.68 1531.07 Q3155.78 1531.81 3153.11 1533.27 L3153.11 1527.86 Q3156.32 1526.62 3159.35 1526.01 Q3162.37 1525.38 3165.24 1525.38 Q3172.97 1525.38 3176.79 1529.39 Q3180.61 1533.4 3180.61 1541.55 Z" fill="#000000" fill-rule="evenodd" fill-opacity="1" /><path clip-path="url(#clip820)" d="M3191.75 1512.42 L3196.84 1512.42 Q3201.62 1519.93 3203.97 1527.13 Q3206.36 1534.32 3206.36 1541.42 Q3206.36 1548.55 3203.97 1555.77 Q3201.62 1563 3196.84 1570.48 L3191.75 1570.48 Q3195.98 1563.19 3198.05 1556 Q3200.15 1548.77 3200.15 1541.42 Q3200.15 1534.07 3198.05 1526.9 Q3195.98 1519.74 3191.75 1512.42 Z" fill="#000000" fill-rule="evenodd" fill-opacity="1" /><polyline clip-path="url(#clip823)" style="stroke:#000000; stroke-linecap:butt; stroke-linejoin:round; stroke-width:2; stroke-opacity:0.1; fill:none" points="
  2307.44,1358.19 3889.76,1358.19 
  "/>
<polyline clip-path="url(#clip823)" style="stroke:#000000; stroke-linecap:butt; stroke-linejoin:round; stroke-width:2; stroke-opacity:0.1; fill:none" points="
  2307.44,1067.92 3889.76,1067.92 
  "/>
<polyline clip-path="url(#clip823)" style="stroke:#000000; stroke-linecap:butt; stroke-linejoin:round; stroke-width:2; stroke-opacity:0.1; fill:none" points="
  2307.44,777.646 3889.76,777.646 
  "/>
<polyline clip-path="url(#clip823)" style="stroke:#000000; stroke-linecap:butt; stroke-linejoin:round; stroke-width:2; stroke-opacity:0.1; fill:none" points="
  2307.44,487.375 3889.76,487.375 
  "/>
<polyline clip-path="url(#clip823)" style="stroke:#000000; stroke-linecap:butt; stroke-linejoin:round; stroke-width:2; stroke-opacity:0.1; fill:none" points="
  2307.44,197.105 3889.76,197.105 
  "/>
<polyline clip-path="url(#clip820)" style="stroke:#000000; stroke-linecap:butt; stroke-linejoin:round; stroke-width:4; stroke-opacity:1; fill:none" points="
  2307.44,1393.02 2307.44,162.272 
  "/>
<polyline clip-path="url(#clip820)" style="stroke:#000000; stroke-linecap:butt; stroke-linejoin:round; stroke-width:4; stroke-opacity:1; fill:none" points="
  2307.44,1358.19 2326.34,1358.19 
  "/>
<polyline clip-path="url(#clip820)" style="stroke:#000000; stroke-linecap:butt; stroke-linejoin:round; stroke-width:4; stroke-opacity:1; fill:none" points="
  2307.44,1067.92 2326.34,1067.92 
  "/>
<polyline clip-path="url(#clip820)" style="stroke:#000000; stroke-linecap:butt; stroke-linejoin:round; stroke-width:4; stroke-opacity:1; fill:none" points="
  2307.44,777.646 2326.34,777.646 
  "/>
<polyline clip-path="url(#clip820)" style="stroke:#000000; stroke-linecap:butt; stroke-linejoin:round; stroke-width:4; stroke-opacity:1; fill:none" points="
  2307.44,487.375 2326.34,487.375 
  "/>
<polyline clip-path="url(#clip820)" style="stroke:#000000; stroke-linecap:butt; stroke-linejoin:round; stroke-width:4; stroke-opacity:1; fill:none" points="
  2307.44,197.105 2326.34,197.105 
  "/>
<path clip-path="url(#clip820)" d="M2190.27 1343.99 Q2186.66 1343.99 2184.83 1347.55 Q2183.02 1351.09 2183.02 1358.22 Q2183.02 1365.33 2184.83 1368.89 Q2186.66 1372.43 2190.27 1372.43 Q2193.9 1372.43 2195.71 1368.89 Q2197.54 1365.33 2197.54 1358.22 Q2197.54 1351.09 2195.71 1347.55 Q2193.9 1343.99 2190.27 1343.99 M2190.27 1340.28 Q2196.08 1340.28 2199.13 1344.89 Q2202.21 1349.47 2202.21 1358.22 Q2202.21 1366.95 2199.13 1371.56 Q2196.08 1376.14 2190.27 1376.14 Q2184.46 1376.14 2181.38 1371.56 Q2178.32 1366.95 2178.32 1358.22 Q2178.32 1349.47 2181.38 1344.89 Q2184.46 1340.28 2190.27 1340.28 Z" fill="#000000" fill-rule="evenodd" fill-opacity="1" /><path clip-path="url(#clip820)" d="M2210.43 1369.59 L2215.31 1369.59 L2215.31 1375.47 L2210.43 1375.47 L2210.43 1369.59 Z" fill="#000000" fill-rule="evenodd" fill-opacity="1" /><path clip-path="url(#clip820)" d="M2235.5 1343.99 Q2231.89 1343.99 2230.06 1347.55 Q2228.25 1351.09 2228.25 1358.22 Q2228.25 1365.33 2230.06 1368.89 Q2231.89 1372.43 2235.5 1372.43 Q2239.13 1372.43 2240.94 1368.89 Q2242.77 1365.33 2242.77 1358.22 Q2242.77 1351.09 2240.94 1347.55 Q2239.13 1343.99 2235.5 1343.99 M2235.5 1340.28 Q2241.31 1340.28 2244.36 1344.89 Q2247.44 1349.47 2247.44 1358.22 Q2247.44 1366.95 2244.36 1371.56 Q2241.31 1376.14 2235.5 1376.14 Q2229.69 1376.14 2226.61 1371.56 Q2223.55 1366.95 2223.55 1358.22 Q2223.55 1349.47 2226.61 1344.89 Q2229.69 1340.28 2235.5 1340.28 Z" fill="#000000" fill-rule="evenodd" fill-opacity="1" /><path clip-path="url(#clip820)" d="M2185.29 1081.26 L2201.61 1081.26 L2201.61 1085.2 L2179.67 1085.2 L2179.67 1081.26 Q2182.33 1078.51 2186.91 1073.88 Q2191.52 1069.22 2192.7 1067.88 Q2194.94 1065.36 2195.82 1063.62 Q2196.73 1061.86 2196.73 1060.17 Q2196.73 1057.42 2194.78 1055.68 Q2192.86 1053.95 2189.76 1053.95 Q2187.56 1053.95 2185.11 1054.71 Q2182.67 1055.47 2179.9 1057.03 L2179.9 1052.3 Q2182.72 1051.17 2185.17 1050.59 Q2187.63 1050.01 2189.67 1050.01 Q2195.04 1050.01 2198.23 1052.7 Q2201.42 1055.38 2201.42 1059.87 Q2201.42 1062 2200.61 1063.92 Q2199.83 1065.82 2197.72 1068.41 Q2197.14 1069.09 2194.04 1072.3 Q2190.94 1075.5 2185.29 1081.26 Z" fill="#000000" fill-rule="evenodd" fill-opacity="1" /><path clip-path="url(#clip820)" d="M2211.42 1079.32 L2216.31 1079.32 L2216.31 1085.2 L2211.42 1085.2 L2211.42 1079.32 Z" fill="#000000" fill-rule="evenodd" fill-opacity="1" /><path clip-path="url(#clip820)" d="M2226.54 1050.64 L2244.9 1050.64 L2244.9 1054.57 L2230.82 1054.57 L2230.82 1063.04 Q2231.84 1062.7 2232.86 1062.53 Q2233.88 1062.35 2234.9 1062.35 Q2240.68 1062.35 2244.06 1065.52 Q2247.44 1068.69 2247.44 1074.11 Q2247.44 1079.69 2243.97 1082.79 Q2240.5 1085.87 2234.18 1085.87 Q2232 1085.87 2229.73 1085.5 Q2227.49 1085.13 2225.08 1084.39 L2225.08 1079.69 Q2227.17 1080.82 2229.39 1081.38 Q2231.61 1081.93 2234.09 1081.93 Q2238.09 1081.93 2240.43 1079.83 Q2242.77 1077.72 2242.77 1074.11 Q2242.77 1070.5 2240.43 1068.39 Q2238.09 1066.28 2234.09 1066.28 Q2232.21 1066.28 2230.34 1066.7 Q2228.48 1067.12 2226.54 1068 L2226.54 1050.64 Z" fill="#000000" fill-rule="evenodd" fill-opacity="1" /><path clip-path="url(#clip820)" d="M2180.31 760.366 L2198.67 760.366 L2198.67 764.301 L2184.6 764.301 L2184.6 772.773 Q2185.61 772.426 2186.63 772.264 Q2187.65 772.079 2188.67 772.079 Q2194.46 772.079 2197.84 775.25 Q2201.22 778.421 2201.22 783.838 Q2201.22 789.417 2197.74 792.519 Q2194.27 795.597 2187.95 795.597 Q2185.78 795.597 2183.51 795.227 Q2181.26 794.857 2178.86 794.116 L2178.86 789.417 Q2180.94 790.551 2183.16 791.107 Q2185.38 791.662 2187.86 791.662 Q2191.86 791.662 2194.2 789.556 Q2196.54 787.449 2196.54 783.838 Q2196.54 780.227 2194.2 778.121 Q2191.86 776.014 2187.86 776.014 Q2185.98 776.014 2184.11 776.431 Q2182.26 776.847 2180.31 777.727 L2180.31 760.366 Z" fill="#000000" fill-rule="evenodd" fill-opacity="1" /><path clip-path="url(#clip820)" d="M2210.43 789.046 L2215.31 789.046 L2215.31 794.926 L2210.43 794.926 L2210.43 789.046 Z" fill="#000000" fill-rule="evenodd" fill-opacity="1" /><path clip-path="url(#clip820)" d="M2235.5 763.445 Q2231.89 763.445 2230.06 767.009 Q2228.25 770.551 2228.25 777.681 Q2228.25 784.787 2230.06 788.352 Q2231.89 791.894 2235.5 791.894 Q2239.13 791.894 2240.94 788.352 Q2242.77 784.787 2242.77 777.681 Q2242.77 770.551 2240.94 767.009 Q2239.13 763.445 2235.5 763.445 M2235.5 759.741 Q2241.31 759.741 2244.36 764.347 Q2247.44 768.931 2247.44 777.681 Q2247.44 786.408 2244.36 791.014 Q2241.31 795.597 2235.5 795.597 Q2229.69 795.597 2226.61 791.014 Q2223.55 786.408 2223.55 777.681 Q2223.55 768.931 2226.61 764.347 Q2229.69 759.741 2235.5 759.741 Z" fill="#000000" fill-rule="evenodd" fill-opacity="1" /><path clip-path="url(#clip820)" d="M2180.08 470.095 L2202.3 470.095 L2202.3 472.086 L2189.76 504.655 L2184.87 504.655 L2196.68 474.031 L2180.08 474.031 L2180.08 470.095 Z" fill="#000000" fill-rule="evenodd" fill-opacity="1" /><path clip-path="url(#clip820)" d="M2211.42 498.776 L2216.31 498.776 L2216.31 504.655 L2211.42 504.655 L2211.42 498.776 Z" fill="#000000" fill-rule="evenodd" fill-opacity="1" /><path clip-path="url(#clip820)" d="M2226.54 470.095 L2244.9 470.095 L2244.9 474.031 L2230.82 474.031 L2230.82 482.503 Q2231.84 482.155 2232.86 481.993 Q2233.88 481.808 2234.9 481.808 Q2240.68 481.808 2244.06 484.98 Q2247.44 488.151 2247.44 493.567 Q2247.44 499.146 2243.97 502.248 Q2240.5 505.327 2234.18 505.327 Q2232 505.327 2229.73 504.956 Q2227.49 504.586 2225.08 503.845 L2225.08 499.146 Q2227.17 500.28 2229.39 500.836 Q2231.61 501.391 2234.09 501.391 Q2238.09 501.391 2240.43 499.285 Q2242.77 497.179 2242.77 493.567 Q2242.77 489.956 2240.43 487.85 Q2238.09 485.743 2234.09 485.743 Q2232.21 485.743 2230.34 486.16 Q2228.48 486.577 2226.54 487.456 L2226.54 470.095 Z" fill="#000000" fill-rule="evenodd" fill-opacity="1" /><path clip-path="url(#clip820)" d="M2150.92 210.45 L2158.55 210.45 L2158.55 184.084 L2150.24 185.751 L2150.24 181.491 L2158.51 179.825 L2163.18 179.825 L2163.18 210.45 L2170.82 210.45 L2170.82 214.385 L2150.92 214.385 L2150.92 210.45 Z" fill="#000000" fill-rule="evenodd" fill-opacity="1" /><path clip-path="url(#clip820)" d="M2190.27 182.903 Q2186.66 182.903 2184.83 186.468 Q2183.02 190.01 2183.02 197.139 Q2183.02 204.246 2184.83 207.811 Q2186.66 211.352 2190.27 211.352 Q2193.9 211.352 2195.71 207.811 Q2197.54 204.246 2197.54 197.139 Q2197.54 190.01 2195.71 186.468 Q2193.9 182.903 2190.27 182.903 M2190.27 179.2 Q2196.08 179.2 2199.13 183.806 Q2202.21 188.389 2202.21 197.139 Q2202.21 205.866 2199.13 210.473 Q2196.08 215.056 2190.27 215.056 Q2184.46 215.056 2181.38 210.473 Q2178.32 205.866 2178.32 197.139 Q2178.32 188.389 2181.38 183.806 Q2184.46 179.2 2190.27 179.2 Z" fill="#000000" fill-rule="evenodd" fill-opacity="1" /><path clip-path="url(#clip820)" d="M2210.43 208.505 L2215.31 208.505 L2215.31 214.385 L2210.43 214.385 L2210.43 208.505 Z" fill="#000000" fill-rule="evenodd" fill-opacity="1" /><path clip-path="url(#clip820)" d="M2235.5 182.903 Q2231.89 182.903 2230.06 186.468 Q2228.25 190.01 2228.25 197.139 Q2228.25 204.246 2230.06 207.811 Q2231.89 211.352 2235.5 211.352 Q2239.13 211.352 2240.94 207.811 Q2242.77 204.246 2242.77 197.139 Q2242.77 190.01 2240.94 186.468 Q2239.13 182.903 2235.5 182.903 M2235.5 179.2 Q2241.31 179.2 2244.36 183.806 Q2247.44 188.389 2247.44 197.139 Q2247.44 205.866 2244.36 210.473 Q2241.31 215.056 2235.5 215.056 Q2229.69 215.056 2226.61 210.473 Q2223.55 205.866 2223.55 197.139 Q2223.55 188.389 2226.61 183.806 Q2229.69 179.2 2235.5 179.2 Z" fill="#000000" fill-rule="evenodd" fill-opacity="1" /><path clip-path="url(#clip820)" d="M2040.34 876.171 L2040.34 848.353 L2045.69 848.353 L2071.31 870.378 L2071.31 848.353 L2075.99 848.353 L2075.99 876.967 L2070.64 876.967 L2045.02 854.942 L2045.02 876.171 L2040.34 876.171 Z" fill="#000000" fill-rule="evenodd" fill-opacity="1" /><path clip-path="url(#clip820)" d="M2026.53 804.621 Q2033.85 808.886 2041.01 810.955 Q2048.17 813.023 2055.52 813.023 Q2062.87 813.023 2070.1 810.955 Q2077.29 808.854 2084.58 804.621 L2084.58 809.713 Q2077.1 814.488 2069.88 816.875 Q2062.65 819.23 2055.52 819.23 Q2048.42 819.23 2041.23 816.875 Q2034.04 814.519 2026.53 809.713 L2026.53 804.621 Z" fill="#000000" fill-rule="evenodd" fill-opacity="1" /><path clip-path="url(#clip820)" d="M2026.46 793.481 L2026.46 787.592 L2055.71 787.592 L2040.34 770.119 L2040.34 762.639 L2057.02 781.545 L2075.99 761.843 L2075.99 769.482 L2058.58 787.592 L2075.99 787.592 L2075.99 793.481 L2026.46 793.481 Z" fill="#000000" fill-rule="evenodd" fill-opacity="1" /><path clip-path="url(#clip820)" d="M2047.18 727.755 Q2043.24 725.559 2041.36 722.503 Q2039.48 719.448 2039.48 715.31 Q2039.48 709.74 2043.4 706.716 Q2047.28 703.692 2054.47 703.692 L2075.99 703.692 L2075.99 709.581 L2054.66 709.581 Q2049.54 709.581 2047.06 711.395 Q2044.57 713.209 2044.57 716.933 Q2044.57 721.485 2047.6 724.126 Q2050.62 726.768 2055.84 726.768 L2075.99 726.768 L2075.99 732.656 L2054.66 732.656 Q2049.51 732.656 2047.06 734.471 Q2044.57 736.285 2044.57 740.072 Q2044.57 744.56 2047.63 747.202 Q2050.65 749.844 2055.84 749.844 L2075.99 749.844 L2075.99 755.732 L2040.34 755.732 L2040.34 749.844 L2045.88 749.844 Q2042.6 747.839 2041.04 745.038 Q2039.48 742.237 2039.48 738.385 Q2039.48 734.502 2041.45 731.797 Q2043.43 729.06 2047.18 727.755 Z" fill="#000000" fill-rule="evenodd" fill-opacity="1" /><path clip-path="url(#clip820)" d="M2026.53 692.934 L2026.53 687.842 Q2034.04 683.067 2041.23 680.712 Q2048.42 678.325 2055.52 678.325 Q2062.65 678.325 2069.88 680.712 Q2077.1 683.067 2084.58 687.842 L2084.58 692.934 Q2077.29 688.701 2070.1 686.632 Q2062.87 684.532 2055.52 684.532 Q2048.17 684.532 2041.01 686.632 Q2033.85 688.701 2026.53 692.934 Z" fill="#000000" fill-rule="evenodd" fill-opacity="1" /><path clip-path="url(#clip820)" d="M2968.95 65.7705 L2968.95 89.8329 L2961.46 89.8329 L2961.46 27.2059 L2968.95 27.2059 L2968.95 34.0924 Q2971.3 30.0415 2974.87 28.0971 Q2978.47 26.1121 2983.46 26.1121 Q2991.72 26.1121 2996.86 32.6746 Q3002.05 39.2371 3002.05 49.9314 Q3002.05 60.6258 2996.86 67.1883 Q2991.72 73.7508 2983.46 73.7508 Q2978.47 73.7508 2974.87 71.8063 Q2971.3 69.8214 2968.95 65.7705 M2994.31 49.9314 Q2994.31 41.7081 2990.91 37.0496 Q2987.55 32.3505 2981.63 32.3505 Q2975.72 32.3505 2972.32 37.0496 Q2968.95 41.7081 2968.95 49.9314 Q2968.95 58.1548 2972.32 62.8538 Q2975.72 67.5124 2981.63 67.5124 Q2987.55 67.5124 2990.91 62.8538 Q2994.31 58.1548 2994.31 49.9314 Z" fill="#000000" fill-rule="evenodd" fill-opacity="1" /><path clip-path="url(#clip820)" d="M3058.68 9.62495 Q3053.25 18.942 3050.62 28.0566 Q3047.99 37.1711 3047.99 46.5287 Q3047.99 55.8863 3050.62 65.0818 Q3053.29 74.2369 3058.68 83.5134 L3052.2 83.5134 Q3046.12 73.9938 3043.09 64.7983 Q3040.09 55.6027 3040.09 46.5287 Q3040.09 37.4952 3043.09 28.3401 Q3046.08 19.1851 3052.2 9.62495 L3058.68 9.62495 Z" fill="#000000" fill-rule="evenodd" fill-opacity="1" /><path clip-path="url(#clip820)" d="M3072.86 9.54393 L3080.35 9.54393 L3080.35 46.7717 L3102.59 27.2059 L3112.11 27.2059 L3088.05 48.4326 L3113.13 72.576 L3103.4 72.576 L3080.35 50.4176 L3080.35 72.576 L3072.86 72.576 L3072.86 9.54393 Z" fill="#000000" fill-rule="evenodd" fill-opacity="1" /><path clip-path="url(#clip820)" d="M3129.69 18.8205 L3129.69 41.5461 L3139.98 41.5461 Q3145.7 41.5461 3148.81 38.5889 Q3151.93 35.6318 3151.93 30.163 Q3151.93 24.7348 3148.81 21.7777 Q3145.7 18.8205 3139.98 18.8205 L3129.69 18.8205 M3121.51 12.096 L3139.98 12.096 Q3150.15 12.096 3155.34 16.714 Q3160.56 21.2916 3160.56 30.163 Q3160.56 39.1155 3155.34 43.6931 Q3150.15 48.2706 3139.98 48.2706 L3129.69 48.2706 L3129.69 72.576 L3121.51 72.576 L3121.51 12.096 Z" fill="#000000" fill-rule="evenodd" fill-opacity="1" /><path clip-path="url(#clip820)" d="M3188.11 49.7694 Q3179.07 49.7694 3175.59 51.8354 Q3172.11 53.9013 3172.11 58.8839 Q3172.11 62.8538 3174.7 65.2034 Q3177.33 67.5124 3181.83 67.5124 Q3188.03 67.5124 3191.75 63.1374 Q3195.52 58.7219 3195.52 51.4303 L3195.52 49.7694 L3188.11 49.7694 M3202.97 46.6907 L3202.97 72.576 L3195.52 72.576 L3195.52 65.6895 Q3192.97 69.8214 3189.16 71.8063 Q3185.35 73.7508 3179.84 73.7508 Q3172.88 73.7508 3168.74 69.8619 Q3164.65 65.9325 3164.65 59.3701 Q3164.65 51.7138 3169.76 47.825 Q3174.9 43.9361 3185.07 43.9361 L3195.52 43.9361 L3195.52 43.2069 Q3195.52 38.0623 3192.12 35.2672 Q3188.76 32.4315 3182.64 32.4315 Q3178.75 32.4315 3175.06 33.3632 Q3171.38 34.295 3167.98 36.1584 L3167.98 29.2718 Q3172.07 27.692 3175.91 26.9223 Q3179.76 26.1121 3183.41 26.1121 Q3193.25 26.1121 3198.11 31.2163 Q3202.97 36.3204 3202.97 46.6907 Z" fill="#000000" fill-rule="evenodd" fill-opacity="1" /><path clip-path="url(#clip820)" d="M3217.15 9.62495 L3223.63 9.62495 Q3229.71 19.1851 3232.71 28.3401 Q3235.75 37.4952 3235.75 46.5287 Q3235.75 55.6027 3232.71 64.7983 Q3229.71 73.9938 3223.63 83.5134 L3217.15 83.5134 Q3222.54 74.2369 3225.17 65.0818 Q3227.85 55.8863 3227.85 46.5287 Q3227.85 37.1711 3225.17 28.0566 Q3222.54 18.942 3217.15 9.62495 Z" fill="#000000" fill-rule="evenodd" fill-opacity="1" /><polyline clip-path="url(#clip823)" style="stroke:#009af9; stroke-linecap:butt; stroke-linejoin:round; stroke-width:4; stroke-opacity:1; fill:none" points="
  3839.27,1355.28 3827.88,1349.48 3816.54,1343.67 3805.25,1337.87 3794,1332.06 3782.8,1326.26 3771.64,1320.45 3760.54,1314.65 3749.48,1308.84 3738.46,1303.04 
  3727.49,1297.23 3716.57,1291.42 3705.69,1285.62 3694.86,1279.81 3684.07,1274.01 3673.33,1268.2 3662.64,1262.4 3651.99,1256.59 3641.38,1250.79 3630.82,1244.98 
  3620.31,1239.18 3609.84,1233.37 3599.41,1227.57 3589.03,1221.76 3578.69,1215.95 3568.4,1210.15 3558.15,1204.34 3547.95,1198.54 3537.79,1192.73 3527.67,1186.93 
  3517.6,1181.12 3507.57,1175.32 3497.59,1169.51 3487.64,1163.71 3477.75,1157.9 3467.89,1152.1 3458.08,1146.29 3448.31,1140.48 3438.58,1134.68 3428.9,1128.87 
  3419.26,1123.07 3409.66,1117.26 3400.1,1111.46 3390.59,1105.65 3381.12,1099.85 3371.69,1094.04 3362.3,1088.24 3352.96,1082.43 3343.65,1076.62 3334.39,1070.82 
  3325.17,1065.01 3315.99,1059.21 3306.85,1053.4 3297.75,1047.6 3288.7,1041.79 3279.68,1035.99 3270.71,1030.18 3261.78,1024.38 3252.88,1018.57 3244.03,1012.77 
  3235.22,1006.96 3226.45,1001.15 3217.71,995.349 3209.02,989.544 3200.37,983.738 3191.76,977.933 3183.19,972.127 3174.66,966.322 3166.16,960.516 3157.71,954.711 
  3149.29,948.906 3140.92,943.1 3132.58,937.295 3124.29,931.489 3116.03,925.684 3107.81,919.879 3099.63,914.073 3091.49,908.268 3083.38,902.462 3075.32,896.657 
  3067.29,890.852 3059.3,885.046 3051.35,879.241 3043.44,873.435 3035.56,867.63 3027.72,861.824 3019.92,856.019 3012.16,850.214 3004.43,844.408 2996.74,838.603 
  2989.09,832.797 2981.48,826.992 2973.9,821.187 2966.36,815.381 2958.86,809.576 2951.39,803.77 2943.96,797.965 2936.56,792.16 2929.21,786.354 2921.88,780.549 
  2914.6,774.743 2907.35,768.938 2900.13,763.132 2892.95,757.327 2885.81,751.522 2878.7,745.716 2871.63,739.911 2864.59,734.105 2857.59,728.3 2850.63,722.495 
  2843.69,716.689 2836.8,710.884 2829.94,705.078 2823.11,699.273 2816.32,693.468 2809.56,687.662 2802.83,681.857 2796.14,676.051 2789.49,670.246 2782.87,664.44 
  2776.28,658.635 2769.72,652.83 2763.2,647.024 2756.72,641.219 2750.27,635.413 2743.85,629.608 2737.46,623.803 2731.11,617.997 2724.79,612.192 2718.5,606.386 
  2712.25,600.581 2706.02,594.775 2699.84,588.97 2693.68,583.165 2687.56,577.359 2681.46,571.554 2675.41,565.748 2669.38,559.943 2663.38,554.138 2657.42,548.332 
  2651.49,542.527 2645.59,536.721 2639.72,530.916 2633.89,525.111 2628.08,519.305 2622.31,513.5 2616.57,507.694 2610.86,501.889 2605.18,496.083 2599.53,490.278 
  2593.91,484.473 2588.32,478.667 2582.77,472.862 2577.24,467.056 2571.74,461.251 2566.28,455.446 2560.84,449.64 2555.44,443.835 2550.06,438.029 2544.72,432.224 
  2539.4,426.419 2534.12,420.613 2528.86,414.808 2523.64,409.002 2518.44,403.197 2513.27,397.391 2508.13,391.586 2503.03,385.781 2497.95,379.975 2492.89,374.17 
  2487.87,368.364 2482.88,362.559 2477.91,356.754 2472.98,350.948 2468.07,345.143 2463.19,339.337 2458.34,333.532 2453.51,327.727 2448.72,321.921 2443.95,316.116 
  2439.21,310.31 2434.5,304.505 2429.82,298.699 2425.16,292.894 2420.53,287.089 2415.93,281.283 2411.36,275.478 2406.81,269.672 2402.29,263.867 2397.8,258.062 
  2393.33,252.256 2388.89,246.451 2384.48,240.645 2380.09,234.84 2375.73,229.034 2371.4,223.229 2367.09,217.424 2362.81,211.618 2358.56,205.813 2354.33,200.007 
  
  "/>
<polyline clip-path="url(#clip823)" style="stroke:#e26f46; stroke-linecap:butt; stroke-linejoin:round; stroke-width:4; stroke-opacity:1; fill:none" points="
  3844.98,1358.19 3833.57,1352.38 3822.21,1346.58 3810.89,1340.77 3799.62,1334.97 3788.39,1329.16 3777.22,1323.35 3766.08,1317.55 3755,1311.74 3743.96,1305.94 
  3732.97,1300.13 3722.02,1294.33 3711.12,1288.52 3700.27,1282.72 3689.46,1276.91 3678.7,1271.11 3667.98,1265.3 3657.31,1259.5 3646.68,1253.69 3636.1,1247.88 
  3625.56,1242.08 3615.07,1236.27 3604.62,1230.47 3594.21,1224.66 3583.86,1218.86 3573.54,1213.05 3563.27,1207.25 3553.04,1201.44 3542.86,1195.64 3532.72,1189.83 
  3522.63,1184.02 3512.58,1178.22 3502.57,1172.41 3492.61,1166.61 3482.69,1160.8 3472.81,1155 3462.98,1149.19 3453.19,1143.39 3443.44,1137.58 3433.74,1131.78 
  3424.07,1125.97 3414.45,1120.17 3404.88,1114.36 3395.34,1108.55 3385.85,1102.75 3376.4,1096.94 3366.99,1091.14 3357.62,1085.33 3348.3,1079.53 3339.02,1073.72 
  3329.77,1067.92 3320.57,1062.11 3311.41,1056.31 3302.3,1050.5 3293.22,1044.69 3284.19,1038.89 3275.19,1033.08 3266.24,1027.28 3257.32,1021.47 3248.45,1015.67 
  3239.62,1009.86 3230.83,1004.06 3222.08,998.252 3213.36,992.446 3204.69,986.641 3196.06,980.835 3187.47,975.03 3178.92,969.225 3170.4,963.419 3161.93,957.614 
  3153.5,951.808 3145.1,946.003 3136.75,940.198 3128.43,934.392 3120.15,928.587 3111.91,922.781 3103.71,916.976 3095.55,911.17 3087.43,905.365 3079.35,899.56 
  3071.3,893.754 3063.29,887.949 3055.32,882.143 3047.39,876.338 3039.49,870.533 3031.64,864.727 3023.82,858.922 3016.04,853.116 3008.29,847.311 3000.58,841.506 
  2992.91,835.7 2985.28,829.895 2977.69,824.089 2970.13,818.284 2962.6,812.478 2955.12,806.673 2947.67,800.868 2940.26,795.062 2932.88,789.257 2925.54,783.451 
  2918.24,777.646 2910.97,771.841 2903.74,766.035 2896.54,760.23 2889.38,754.424 2882.25,748.619 2875.16,742.814 2868.11,737.008 2861.09,731.203 2854.1,725.397 
  2847.16,719.592 2840.24,713.786 2833.36,707.981 2826.52,702.176 2819.71,696.37 2812.93,690.565 2806.19,684.759 2799.48,678.954 2792.81,673.149 2786.17,667.343 
  2779.57,661.538 2773,655.732 2766.46,649.927 2759.96,644.121 2753.49,638.316 2747.05,632.511 2740.65,626.705 2734.28,620.9 2727.94,615.094 2721.64,609.289 
  2715.37,603.484 2709.13,597.678 2702.93,591.873 2696.75,586.067 2690.61,580.262 2684.51,574.457 2678.43,568.651 2672.39,562.846 2666.38,557.04 2660.4,551.235 
  2654.45,545.429 2648.54,539.624 2642.65,533.819 2636.8,528.013 2630.98,522.208 2625.19,516.402 2619.43,510.597 2613.71,504.792 2608.01,498.986 2602.35,493.181 
  2596.72,487.375 2591.11,481.57 2585.54,475.765 2580,469.959 2574.49,464.154 2569.01,458.348 2563.56,452.543 2558.14,446.737 2552.75,440.932 2547.39,435.127 
  2542.06,429.321 2536.76,423.516 2531.49,417.71 2526.25,411.905 2521.04,406.1 2515.85,400.294 2510.7,394.489 2505.58,388.683 2500.48,382.878 2495.42,377.073 
  2490.38,371.267 2485.37,365.462 2480.39,359.656 2475.44,353.851 2470.52,348.045 2465.63,342.24 2460.76,336.435 2455.92,330.629 2451.11,324.824 2446.33,319.018 
  2441.58,313.213 2436.85,307.408 2432.16,301.602 2427.49,295.797 2422.84,289.991 2418.23,284.186 2413.64,278.381 2409.08,272.575 2404.55,266.77 2400.04,260.964 
  2395.56,255.159 2391.11,249.353 2386.68,243.548 2382.28,237.743 2377.91,231.937 2373.56,226.132 2369.24,220.326 2364.95,214.521 2360.68,208.716 2356.44,202.91 
  2352.23,197.105 
  "/>
<path clip-path="url(#clip820)" d="
M3488.92 358.817 L3837.02 358.817 L3837.02 203.297 L3488.92 203.297  Z
  " fill="#ffffff" fill-rule="evenodd" fill-opacity="1"/>
<polyline clip-path="url(#clip820)" style="stroke:#000000; stroke-linecap:butt; stroke-linejoin:round; stroke-width:4; stroke-opacity:1; fill:none" points="
  3488.92,358.817 3837.02,358.817 3837.02,203.297 3488.92,203.297 3488.92,358.817 
  "/>
<polyline clip-path="url(#clip820)" style="stroke:#009af9; stroke-linecap:butt; stroke-linejoin:round; stroke-width:4; stroke-opacity:1; fill:none" points="
  3506.5,255.137 3611.98,255.137 
  "/>
<path clip-path="url(#clip820)" d="M3650.08 247.487 L3650.08 251.468 Q3648.27 250.473 3646.44 249.987 Q3644.64 249.477 3642.78 249.477 Q3638.64 249.477 3636.35 252.116 Q3634.06 254.732 3634.06 259.477 Q3634.06 264.223 3636.35 266.862 Q3638.64 269.477 3642.78 269.477 Q3644.64 269.477 3646.44 268.991 Q3648.27 268.482 3650.08 267.487 L3650.08 271.422 Q3648.29 272.255 3646.37 272.672 Q3644.47 273.088 3642.32 273.088 Q3636.46 273.088 3633.02 269.408 Q3629.57 265.727 3629.57 259.477 Q3629.57 253.135 3633.04 249.501 Q3636.53 245.866 3642.6 245.866 Q3644.57 245.866 3646.44 246.283 Q3648.32 246.677 3650.08 247.487 Z" fill="#000000" fill-rule="evenodd" fill-opacity="1" /><path clip-path="url(#clip820)" d="M3679.66 258.389 L3679.66 260.473 L3660.08 260.473 Q3660.35 264.871 3662.71 267.186 Q3665.1 269.477 3669.33 269.477 Q3671.79 269.477 3674.08 268.876 Q3676.39 268.274 3678.66 267.07 L3678.66 271.098 Q3676.37 272.07 3673.96 272.579 Q3671.56 273.088 3669.08 273.088 Q3662.88 273.088 3659.24 269.477 Q3655.63 265.866 3655.63 259.709 Q3655.63 253.343 3659.06 249.616 Q3662.51 245.866 3668.34 245.866 Q3673.57 245.866 3676.6 249.246 Q3679.66 252.602 3679.66 258.389 M3675.4 257.139 Q3675.35 253.644 3673.43 251.561 Q3671.53 249.477 3668.39 249.477 Q3664.82 249.477 3662.67 251.491 Q3660.54 253.505 3660.21 257.163 L3675.4 257.139 Z" fill="#000000" fill-rule="evenodd" fill-opacity="1" /><path clip-path="url(#clip820)" d="M3708.2 256.769 L3708.2 272.417 L3703.94 272.417 L3703.94 256.908 Q3703.94 253.227 3702.51 251.399 Q3701.07 249.57 3698.2 249.57 Q3694.75 249.57 3692.76 251.769 Q3690.77 253.968 3690.77 257.764 L3690.77 272.417 L3686.49 272.417 L3686.49 246.491 L3690.77 246.491 L3690.77 250.519 Q3692.3 248.181 3694.36 247.024 Q3696.44 245.866 3699.15 245.866 Q3703.62 245.866 3705.91 248.644 Q3708.2 251.399 3708.2 256.769 Z" fill="#000000" fill-rule="evenodd" fill-opacity="1" /><path clip-path="url(#clip820)" d="M3720.91 239.13 L3720.91 246.491 L3729.68 246.491 L3729.68 249.802 L3720.91 249.802 L3720.91 263.876 Q3720.91 267.047 3721.76 267.95 Q3722.64 268.852 3725.31 268.852 L3729.68 268.852 L3729.68 272.417 L3725.31 272.417 Q3720.38 272.417 3718.5 270.588 Q3716.63 268.737 3716.63 263.876 L3716.63 249.802 L3713.5 249.802 L3713.5 246.491 L3716.63 246.491 L3716.63 239.13 L3720.91 239.13 Z" fill="#000000" fill-rule="evenodd" fill-opacity="1" /><path clip-path="url(#clip820)" d="M3757.46 258.389 L3757.46 260.473 L3737.88 260.473 Q3738.15 264.871 3740.51 267.186 Q3742.9 269.477 3747.14 269.477 Q3749.59 269.477 3751.88 268.876 Q3754.2 268.274 3756.46 267.07 L3756.46 271.098 Q3754.17 272.07 3751.76 272.579 Q3749.36 273.088 3746.88 273.088 Q3740.68 273.088 3737.04 269.477 Q3733.43 265.866 3733.43 259.709 Q3733.43 253.343 3736.86 249.616 Q3740.31 245.866 3746.14 245.866 Q3751.37 245.866 3754.4 249.246 Q3757.46 252.602 3757.46 258.389 M3753.2 257.139 Q3753.15 253.644 3751.23 251.561 Q3749.33 249.477 3746.19 249.477 Q3742.62 249.477 3740.47 251.491 Q3738.34 253.505 3738.01 257.163 L3753.2 257.139 Z" fill="#000000" fill-rule="evenodd" fill-opacity="1" /><path clip-path="url(#clip820)" d="M3779.47 250.473 Q3778.76 250.056 3777.9 249.871 Q3777.07 249.663 3776.05 249.663 Q3772.44 249.663 3770.49 252.024 Q3768.57 254.362 3768.57 258.76 L3768.57 272.417 L3764.29 272.417 L3764.29 246.491 L3768.57 246.491 L3768.57 250.519 Q3769.91 248.158 3772.07 247.024 Q3774.22 245.866 3777.3 245.866 Q3777.74 245.866 3778.27 245.936 Q3778.8 245.982 3779.45 246.098 L3779.47 250.473 Z" fill="#000000" fill-rule="evenodd" fill-opacity="1" /><path clip-path="url(#clip820)" d="M3800.47 247.255 L3800.47 251.283 Q3798.66 250.357 3796.72 249.894 Q3794.77 249.431 3792.69 249.431 Q3789.52 249.431 3787.92 250.403 Q3786.35 251.376 3786.35 253.32 Q3786.35 254.802 3787.48 255.658 Q3788.62 256.491 3792.04 257.255 L3793.5 257.579 Q3798.04 258.552 3799.94 260.334 Q3801.86 262.093 3801.86 265.264 Q3801.86 268.876 3798.99 270.982 Q3796.14 273.088 3791.14 273.088 Q3789.06 273.088 3786.79 272.672 Q3784.54 272.278 3782.04 271.468 L3782.04 267.07 Q3784.4 268.297 3786.7 268.922 Q3788.99 269.524 3791.23 269.524 Q3794.24 269.524 3795.86 268.505 Q3797.48 267.463 3797.48 265.589 Q3797.48 263.852 3796.3 262.926 Q3795.14 262.001 3791.19 261.144 L3789.7 260.797 Q3785.75 259.964 3783.99 258.251 Q3782.23 256.514 3782.23 253.505 Q3782.23 249.848 3784.82 247.857 Q3787.41 245.866 3792.18 245.866 Q3794.54 245.866 3796.63 246.214 Q3798.71 246.561 3800.47 247.255 Z" fill="#000000" fill-rule="evenodd" fill-opacity="1" /><polyline clip-path="url(#clip820)" style="stroke:#e26f46; stroke-linecap:butt; stroke-linejoin:round; stroke-width:4; stroke-opacity:1; fill:none" points="
  3506.5,306.977 3611.98,306.977 
  "/>
<path clip-path="url(#clip820)" d="M3646.07 288.239 L3646.07 291.78 L3642 291.78 Q3639.71 291.78 3638.8 292.706 Q3637.92 293.632 3637.92 296.04 L3637.92 298.331 L3644.94 298.331 L3644.94 301.642 L3637.92 301.642 L3637.92 324.257 L3633.64 324.257 L3633.64 301.642 L3629.57 301.642 L3629.57 298.331 L3633.64 298.331 L3633.64 296.526 Q3633.64 292.197 3635.65 290.23 Q3637.67 288.239 3642.04 288.239 L3646.07 288.239 Z" fill="#000000" fill-rule="evenodd" fill-opacity="1" /><path clip-path="url(#clip820)" d="M3661.42 311.225 Q3656.26 311.225 3654.27 312.405 Q3652.27 313.586 3652.27 316.433 Q3652.27 318.702 3653.76 320.044 Q3655.26 321.364 3657.83 321.364 Q3661.37 321.364 3663.5 318.864 Q3665.65 316.341 3665.65 312.174 L3665.65 311.225 L3661.42 311.225 M3669.91 309.466 L3669.91 324.257 L3665.65 324.257 L3665.65 320.322 Q3664.2 322.683 3662.02 323.817 Q3659.84 324.928 3656.7 324.928 Q3652.71 324.928 3650.35 322.706 Q3648.02 320.461 3648.02 316.711 Q3648.02 312.336 3650.93 310.114 Q3653.87 307.892 3659.68 307.892 L3665.65 307.892 L3665.65 307.475 Q3665.65 304.535 3663.71 302.938 Q3661.79 301.317 3658.29 301.317 Q3656.07 301.317 3653.96 301.85 Q3651.86 302.382 3649.91 303.447 L3649.91 299.512 Q3652.25 298.609 3654.45 298.169 Q3656.65 297.706 3658.73 297.706 Q3664.36 297.706 3667.14 300.623 Q3669.91 303.54 3669.91 309.466 Z" fill="#000000" fill-rule="evenodd" fill-opacity="1" /><path clip-path="url(#clip820)" d="M3697.34 299.327 L3697.34 303.308 Q3695.54 302.313 3693.71 301.827 Q3691.9 301.317 3690.05 301.317 Q3685.91 301.317 3683.62 303.956 Q3681.33 306.572 3681.33 311.317 Q3681.33 316.063 3683.62 318.702 Q3685.91 321.317 3690.05 321.317 Q3691.9 321.317 3693.71 320.831 Q3695.54 320.322 3697.34 319.327 L3697.34 323.262 Q3695.56 324.095 3693.64 324.512 Q3691.74 324.928 3689.59 324.928 Q3683.73 324.928 3680.28 321.248 Q3676.83 317.567 3676.83 311.317 Q3676.83 304.975 3680.31 301.341 Q3683.8 297.706 3689.87 297.706 Q3691.83 297.706 3693.71 298.123 Q3695.58 298.517 3697.34 299.327 Z" fill="#000000" fill-rule="evenodd" fill-opacity="1" /><path clip-path="url(#clip820)" d="M3726.93 310.229 L3726.93 312.313 L3707.34 312.313 Q3707.62 316.711 3709.98 319.026 Q3712.37 321.317 3716.6 321.317 Q3719.06 321.317 3721.35 320.716 Q3723.66 320.114 3725.93 318.91 L3725.93 322.938 Q3723.64 323.91 3721.23 324.419 Q3718.83 324.928 3716.35 324.928 Q3710.14 324.928 3706.51 321.317 Q3702.9 317.706 3702.9 311.549 Q3702.9 305.183 3706.33 301.456 Q3709.77 297.706 3715.61 297.706 Q3720.84 297.706 3723.87 301.086 Q3726.93 304.442 3726.93 310.229 M3722.67 308.979 Q3722.62 305.484 3720.7 303.401 Q3718.8 301.317 3715.65 301.317 Q3712.09 301.317 3709.94 303.331 Q3707.81 305.345 3707.48 309.003 L3722.67 308.979 Z" fill="#000000" fill-rule="evenodd" fill-opacity="1" /><path clip-path="url(#clip820)" d="M3750.45 299.095 L3750.45 303.123 Q3748.64 302.197 3746.7 301.734 Q3744.75 301.271 3742.67 301.271 Q3739.5 301.271 3737.9 302.243 Q3736.33 303.216 3736.33 305.16 Q3736.33 306.642 3737.46 307.498 Q3738.59 308.331 3742.02 309.095 L3743.48 309.419 Q3748.01 310.392 3749.91 312.174 Q3751.83 313.933 3751.83 317.104 Q3751.83 320.716 3748.96 322.822 Q3746.12 324.928 3741.12 324.928 Q3739.03 324.928 3736.76 324.512 Q3734.52 324.118 3732.02 323.308 L3732.02 318.91 Q3734.38 320.137 3736.67 320.762 Q3738.96 321.364 3741.21 321.364 Q3744.22 321.364 3745.84 320.345 Q3747.46 319.303 3747.46 317.429 Q3747.46 315.692 3746.28 314.766 Q3745.12 313.841 3741.16 312.984 L3739.68 312.637 Q3735.72 311.804 3733.96 310.091 Q3732.2 308.354 3732.2 305.345 Q3732.2 301.688 3734.8 299.697 Q3737.39 297.706 3742.16 297.706 Q3744.52 297.706 3746.6 298.054 Q3748.69 298.401 3750.45 299.095 Z" fill="#000000" fill-rule="evenodd" fill-opacity="1" /></svg>
